<?xml version="1.0" encoding="utf-8"?>
<!-- Generator: Adobe Illustrator 21.0.0, SVG Export Plug-In . SVG Version: 6.00 Build 0)  -->
<svg version="1.1" id="Capa_1" xmlns="http://www.w3.org/2000/svg" xmlns:xlink="http://www.w3.org/1999/xlink" x="0px" y="0px"
	 viewBox="0 0 249.6367 59.1389" style="enable-background:new 0 0 249.6367 59.1389;" xml:space="preserve">
<g id="XMLID_1400_">
	<polygon id="XMLID_1403_" style="fill-rule:evenodd;clip-rule:evenodd;fill:#223B72;" points="234.6104,59.1389 248.6367,41.3537 
		238.2119,21.1848 234.6104,21.1877 	"/>
</g>
<g>
	
		<rect id="XMLID_2_" x="1" y="1.0002" style="fill-rule:evenodd;clip-rule:evenodd;fill:#6AC7EB;" width="247.6367" height="40.3535"/>
	<path style="fill:#FFFFFF;" d="M248.6367,42.3535H1c-0.5522,0-1-0.4473-1-1V1c0-0.5522,0.4478-1,1-1h247.6367
		c0.5527,0,1,0.4478,1,1v40.3535C249.6367,41.9063,249.1895,42.3535,248.6367,42.3535z M2,40.3535h245.6367V2H2V40.3535z"/>
</g>
<g>
	<g>
		<path d="M34.8526,22.2984h2.2324c0.0117,0.3867,0.0176,0.6094,0.0176,0.668c0,0.668-0.1274,1.2441-0.3823,1.7266
			c-0.2549,0.4844-0.7529,1.0273-1.4941,1.6309s-1.1851,1.0254-1.3315,1.2656s-0.2197,0.5127-0.2197,0.8174
			c0,0.4512,0.1934,0.8486,0.5801,1.1904c0.3867,0.3438,0.9053,0.5146,1.5557,0.5146c0.627,0,1.1484-0.1748,1.5645-0.5225
			c0.416-0.3496,0.709-0.8984,0.8789-1.6484l2.2676,0.29c-0.0996,0.7324-0.3076,1.3418-0.624,1.8281
			c-0.4336,0.6621-0.9976,1.1514-1.6919,1.4678s-1.4604,0.4746-2.2983,0.4746c-1.4121,0-2.5386-0.3711-3.3794-1.1113
			c-0.8408-0.7422-1.2612-1.5986-1.2612-2.5713c0-0.375,0.0747-0.7393,0.2241-1.0947c0.1494-0.3535,0.3838-0.71,0.7031-1.0674
			c0.3193-0.3574,0.8276-0.8232,1.5249-1.3975c0.5098-0.4102,0.8276-0.752,0.9536-1.0234
			C34.7984,23.4624,34.8584,22.9839,34.8526,22.2984z M37.085,18.9761v2.4697h-2.4697v-2.4697H37.085z"/>
		<path d="M53.0547,26.6753c0.6387,0.457,1.333,0.8203,2.083,1.0898l-0.958,1.8369c-0.3926-0.1172-0.7764-0.2783-1.1514-0.4834
			c-0.082-0.041-0.6592-0.4219-1.7314-1.1426c-0.8438,0.3691-1.7783,0.5537-2.8037,0.5537c-1.9805,0-3.5317-0.583-4.6538-1.749
			s-1.6831-2.8037-1.6831-4.9131c0-2.1035,0.5625-3.7393,1.6875-4.9092c1.125-1.168,2.6514-1.7529,4.5791-1.7529
			c1.9102,0,3.4248,0.585,4.5439,1.7529c1.1191,1.1699,1.6787,2.8057,1.6787,4.9092c0,1.1133-0.1553,2.0918-0.4658,2.9355
			C53.9453,25.4478,53.5703,26.0718,53.0547,26.6753z M50.9629,25.2075c0.334-0.3926,0.5845-0.8672,0.7515-1.4238
			s0.2505-1.1953,0.2505-1.916c0-1.4883-0.3281-2.5996-0.9844-3.335s-1.5146-1.1035-2.5752-1.1035s-1.9204,0.3691-2.5796,1.1074
			s-0.9888,1.8486-0.9888,3.3311c0,1.5059,0.3296,2.6318,0.9888,3.3799c0.6592,0.7461,1.4927,1.1201,2.5005,1.1201
			c0.375,0,0.7295-0.0615,1.0635-0.1846c-0.5273-0.3457-1.0635-0.6152-1.6084-0.8086l0.7295-1.4854
			C49.3662,24.1821,50.1836,24.6216,50.9629,25.2075z"/>
		<path d="M62.8106,28.3101v-1.3975c-0.3398,0.498-0.7866,0.8906-1.3403,1.1777s-1.1382,0.4307-1.7534,0.4307
			c-0.627,0-1.1895-0.1377-1.6875-0.4131s-0.8584-0.6621-1.0811-1.1602s-0.334-1.1865-0.334-2.0654v-5.9063h2.4697v4.2891
			c0,1.3125,0.0454,2.1172,0.1362,2.4121c0.0908,0.2969,0.2563,0.5313,0.4966,0.7031c0.2402,0.1738,0.5449,0.2598,0.9141,0.2598
			c0.4219,0,0.7998-0.1152,1.1338-0.3477c0.334-0.2305,0.5625-0.5176,0.6855-0.8613c0.123-0.3418,0.1846-1.1816,0.1846-2.5176
			v-3.9375h2.4697v9.334H62.8106z"/>
		<path d="M73.0674,25.3394l2.4609,0.4131c-0.3164,0.9023-0.8159,1.5898-1.4985,2.0615s-1.5366,0.707-2.562,0.707
			c-1.623,0-2.8242-0.5303-3.6035-1.5908c-0.6152-0.8496-0.9229-1.9219-0.9229-3.2168c0-1.5469,0.4043-2.7578,1.2129-3.6338
			s1.8311-1.3145,3.0674-1.3145c1.3887,0,2.4844,0.459,3.2871,1.375c0.8027,0.918,1.1865,2.3223,1.1514,4.2148h-6.1875
			c0.0176,0.7324,0.2168,1.3027,0.5977,1.709c0.3809,0.4082,0.8555,0.6113,1.4238,0.6113c0.3867,0,0.7119-0.1055,0.9756-0.3164
			S72.9326,25.8081,73.0674,25.3394z M73.208,22.8433c-0.0176-0.7148-0.2021-1.2578-0.5537-1.6309
			c-0.3516-0.3711-0.7793-0.5576-1.2832-0.5576c-0.5391,0-0.9844,0.1963-1.3359,0.5889s-0.5244,0.9258-0.5186,1.5996H73.208z
			 M70.0527,17.8335l1.2129-2.6279h2.7686l-2.417,2.6279H70.0527z"/>
		<path d="M88.0791,25.3394l2.4609,0.4131c-0.3164,0.9023-0.8159,1.5898-1.4985,2.0615s-1.5366,0.707-2.562,0.707
			c-1.623,0-2.8242-0.5303-3.6035-1.5908c-0.6152-0.8496-0.9229-1.9219-0.9229-3.2168c0-1.5469,0.4043-2.7578,1.2129-3.6338
			s1.8311-1.3145,3.0674-1.3145c1.3887,0,2.4844,0.459,3.2871,1.375c0.8027,0.918,1.1865,2.3223,1.1514,4.2148h-6.1875
			c0.0176,0.7324,0.2168,1.3027,0.5977,1.709c0.3809,0.4082,0.8555,0.6113,1.4238,0.6113c0.3867,0,0.7119-0.1055,0.9756-0.3164
			S87.9443,25.8081,88.0791,25.3394z M88.2197,22.8433c-0.0176-0.7148-0.2021-1.2578-0.5537-1.6309
			c-0.3516-0.3711-0.7793-0.5576-1.2832-0.5576c-0.5391,0-0.9844,0.1963-1.3359,0.5889s-0.5244,0.9258-0.5186,1.5996H88.2197z"/>
		<path d="M91.8145,25.647l2.4785-0.3779c0.1055,0.4805,0.3193,0.8457,0.6416,1.0938c0.3223,0.25,0.7734,0.374,1.3535,0.374
			c0.6387,0,1.1191-0.1172,1.4414-0.3516c0.2168-0.1641,0.3252-0.3838,0.3252-0.6592c0-0.1875-0.0586-0.3428-0.1758-0.4658
			c-0.123-0.1172-0.3984-0.2256-0.8262-0.3252c-1.9922-0.4395-3.2549-0.8408-3.7881-1.2041
			c-0.7383-0.5039-1.1074-1.2041-1.1074-2.1006c0-0.8086,0.3193-1.4883,0.958-2.0391s1.6289-0.8262,2.9707-0.8262
			c1.2773,0,2.2266,0.208,2.8477,0.624s1.0488,1.0313,1.2832,1.8457l-2.3291,0.4307c-0.0996-0.3633-0.2886-0.6416-0.5669-0.835
			s-0.6753-0.29-1.1909-0.29c-0.6504,0-1.1162,0.0908-1.3975,0.2725c-0.1875,0.1289-0.2813,0.2959-0.2813,0.501
			c0,0.1758,0.082,0.3252,0.2461,0.4482c0.2227,0.1641,0.9917,0.3955,2.3071,0.6943s2.2339,0.665,2.7554,1.0986
			c0.5156,0.4395,0.7734,1.0518,0.7734,1.8369c0,0.8555-0.3574,1.5908-1.0723,2.2061s-1.7725,0.9229-3.1729,0.9229
			c-1.2715,0-2.2778-0.2578-3.019-0.7734S92.043,26.5318,91.8145,25.647z"/>
		<path d="M113.8399,28.3101v-1.3975c-0.3398,0.498-0.7866,0.8906-1.3403,1.1777s-1.1382,0.4307-1.7534,0.4307
			c-0.627,0-1.1895-0.1377-1.6875-0.4131s-0.8584-0.6621-1.0811-1.1602s-0.334-1.1865-0.334-2.0654v-5.9063h2.4697v4.2891
			c0,1.3125,0.0454,2.1172,0.1362,2.4121c0.0908,0.2969,0.2563,0.5313,0.4966,0.7031c0.2402,0.1738,0.5449,0.2598,0.9141,0.2598
			c0.4219,0,0.7998-0.1152,1.1338-0.3477c0.334-0.2305,0.5625-0.5176,0.6855-0.8613c0.123-0.3418,0.1846-1.1816,0.1846-2.5176
			v-3.9375h2.4697v9.334H113.8399z"/>
		<path d="M127.1816,28.3101h-2.4697v-4.7637c0-1.0078-0.0527-1.6592-0.1582-1.9551s-0.2769-0.5264-0.5142-0.6904
			s-0.5229-0.2461-0.8569-0.2461c-0.4277,0-0.8115,0.1172-1.1514,0.3516s-0.5728,0.5449-0.6987,0.9316s-0.189,1.1016-0.189,2.1445
			v4.2275h-2.4697v-9.334h2.2939v1.3711c0.8145-1.0547,1.8398-1.582,3.0762-1.582c0.5449,0,1.043,0.0986,1.4941,0.2949
			s0.7925,0.4463,1.0239,0.751s0.3926,0.6504,0.4834,1.0371s0.1362,0.9404,0.1362,1.6611V28.3101z"/>
		<path d="M131.5322,21.8237l-2.2412-0.4043c0.252-0.9023,0.6855-1.5703,1.3008-2.0039s1.5293-0.6504,2.7422-0.6504
			c1.1016,0,1.9219,0.1309,2.4609,0.3906c0.5391,0.2617,0.9185,0.5928,1.1382,0.9941s0.3296,1.1377,0.3296,2.21l-0.0264,2.8828
			c0,0.8203,0.0396,1.4258,0.1187,1.8154s0.2271,0.8066,0.4438,1.252h-2.4434c-0.0645-0.1641-0.1436-0.4072-0.2373-0.7295
			c-0.041-0.1465-0.0703-0.2432-0.0879-0.29c-0.4219,0.4102-0.873,0.7178-1.3535,0.9229s-0.9932,0.3076-1.5381,0.3076
			c-0.9609,0-1.7183-0.2607-2.272-0.7822s-0.8306-1.1807-0.8306-1.9775c0-0.5273,0.126-0.998,0.3779-1.4102
			c0.252-0.4141,0.605-0.7305,1.0591-0.9492c0.4541-0.2207,1.1089-0.4121,1.9644-0.5762c1.1543-0.2168,1.9541-0.4189,2.3994-0.6064
			v-0.2461c0-0.4746-0.1172-0.8135-0.3516-1.0146c-0.2344-0.2031-0.6768-0.3037-1.3271-0.3037
			c-0.4395,0-0.7822,0.0869-1.0283,0.2588C131.8838,21.0874,131.6846,21.3902,131.5322,21.8237z M134.8369,23.8277
			c-0.3164,0.1055-0.8174,0.2314-1.5029,0.3779s-1.1338,0.29-1.3447,0.4307c-0.3223,0.2285-0.4834,0.5186-0.4834,0.8701
			c0,0.3457,0.1289,0.6445,0.3867,0.8965s0.5859,0.3779,0.9844,0.3779c0.4453,0,0.8701-0.1465,1.2744-0.4395
			c0.2988-0.2227,0.4951-0.4951,0.5889-0.8174c0.0645-0.2109,0.0967-0.6123,0.0967-1.2041V23.8277z"/>
		<path d="M153.1885,28.3101h-2.4697v-4.7637c0-1.0078-0.0527-1.6592-0.1582-1.9551s-0.2769-0.5264-0.5142-0.6904
			s-0.5229-0.2461-0.8569-0.2461c-0.4277,0-0.8115,0.1172-1.1514,0.3516s-0.5728,0.5449-0.6987,0.9316s-0.189,1.1016-0.189,2.1445
			v4.2275h-2.4697v-9.334h2.2939v1.3711c0.8145-1.0547,1.8398-1.582,3.0762-1.582c0.5449,0,1.043,0.0986,1.4941,0.2949
			s0.7925,0.4463,1.0239,0.751s0.3926,0.6504,0.4834,1.0371s0.1362,0.9404,0.1362,1.6611V28.3101z"/>
		<path d="M155.1221,23.5112c0-0.8203,0.2021-1.6143,0.6064-2.3818s0.9771-1.3535,1.7183-1.7578s1.5688-0.6064,2.4829-0.6064
			c1.4121,0,2.5693,0.459,3.4717,1.375c0.9023,0.918,1.3535,2.0762,1.3535,3.4766c0,1.4121-0.4556,2.583-1.3667,3.5117
			s-2.0581,1.3926-3.4409,1.3926c-0.8555,0-1.6714-0.1934-2.4478-0.5801s-1.3667-0.9531-1.771-1.7012
			C155.3242,25.4937,155.1221,24.5835,155.1221,23.5112z M157.6533,23.6431c0,0.9258,0.2197,1.6348,0.6592,2.127
			s0.9814,0.7383,1.626,0.7383s1.1851-0.2461,1.6216-0.7383s0.6548-1.207,0.6548-2.1445c0-0.9141-0.2183-1.6172-0.6548-2.1094
			s-0.9771-0.7383-1.6216-0.7383s-1.1865,0.2461-1.626,0.7383S157.6533,22.7173,157.6533,23.6431z"/>
		<path d="M169.0527,28.3101h-2.4697v-9.334h2.2939v1.3271c0.3926-0.627,0.7456-1.04,1.0591-1.2393s0.6694-0.2988,1.0679-0.2988
			c0.5625,0,1.1045,0.1553,1.626,0.4658l-0.7646,2.1533c-0.416-0.2695-0.8027-0.4043-1.1602-0.4043
			c-0.3457,0-0.6387,0.0957-0.8789,0.2852c-0.2402,0.1914-0.4292,0.5352-0.5669,1.0332s-0.2065,1.541-0.2065,3.1289V28.3101z"/>
		<path d="M173.5088,18.9761h2.2764v1.2744c0.8145-0.9902,1.7842-1.4854,2.9092-1.4854c0.5977,0,1.1162,0.123,1.5557,0.3691
			s0.7998,0.6182,1.0811,1.1162c0.4102-0.498,0.8525-0.8701,1.3271-1.1162s0.9814-0.3691,1.5205-0.3691
			c0.6855,0,1.2656,0.1396,1.7402,0.418s0.8291,0.6865,1.0635,1.2256c0.1699,0.3984,0.2549,1.043,0.2549,1.9336v5.9678h-2.4697
			v-5.335c0-0.9258-0.085-1.5234-0.2549-1.793c-0.2285-0.3516-0.5801-0.5273-1.0547-0.5273c-0.3457,0-0.6709,0.1055-0.9756,0.3164
			s-0.5244,0.5205-0.6592,0.9268c-0.1348,0.4082-0.2021,1.0508-0.2021,1.9297v4.4824h-2.4697v-5.1152
			c0-0.9082-0.0439-1.4941-0.1318-1.7578s-0.2241-0.46-0.4087-0.5889s-0.4351-0.1934-0.7515-0.1934
			c-0.3809,0-0.7236,0.1025-1.0283,0.3076s-0.5229,0.501-0.6548,0.8877s-0.1978,1.0283-0.1978,1.9248v4.5352h-2.4697V18.9761z"/>
		<path d="M191.544,21.8237l-2.2412-0.4043c0.252-0.9023,0.6855-1.5703,1.3008-2.0039s1.5293-0.6504,2.7422-0.6504
			c1.1016,0,1.9219,0.1309,2.4609,0.3906c0.5391,0.2617,0.9185,0.5928,1.1382,0.9941s0.3296,1.1377,0.3296,2.21l-0.0264,2.8828
			c0,0.8203,0.0396,1.4258,0.1187,1.8154s0.2271,0.8066,0.4438,1.252h-2.4434c-0.0645-0.1641-0.1436-0.4072-0.2373-0.7295
			c-0.041-0.1465-0.0703-0.2432-0.0879-0.29c-0.4219,0.4102-0.873,0.7178-1.3535,0.9229s-0.9932,0.3076-1.5381,0.3076
			c-0.9609,0-1.7183-0.2607-2.272-0.7822s-0.8306-1.1807-0.8306-1.9775c0-0.5273,0.126-0.998,0.3779-1.4102
			c0.252-0.4141,0.605-0.7305,1.0591-0.9492c0.4541-0.2207,1.1089-0.4121,1.9644-0.5762c1.1543-0.2168,1.9541-0.4189,2.3994-0.6064
			v-0.2461c0-0.4746-0.1172-0.8135-0.3516-1.0146c-0.2344-0.2031-0.6768-0.3037-1.3271-0.3037
			c-0.4395,0-0.7822,0.0869-1.0283,0.2588C191.8955,21.0874,191.6963,21.3902,191.544,21.8237z M194.8486,23.8277
			c-0.3164,0.1055-0.8174,0.2314-1.5029,0.3779s-1.1338,0.29-1.3447,0.4307c-0.3223,0.2285-0.4834,0.5186-0.4834,0.8701
			c0,0.3457,0.1289,0.6445,0.3867,0.8965s0.5859,0.3779,0.9844,0.3779c0.4453,0,0.8701-0.1465,1.2744-0.4395
			c0.2988-0.2227,0.4951-0.4951,0.5889-0.8174c0.0645-0.2109,0.0967-0.6123,0.0967-1.2041V23.8277z"/>
		<path d="M204.6485,28.3101V15.4253h2.6016v12.8848H204.6485z"/>
		<path d="M209.0694,24.1177l2.5313-0.2461c0.1523,0.8496,0.4614,1.4736,0.9272,1.8721s1.0942,0.5977,1.8853,0.5977
			c0.8379,0,1.4692-0.1768,1.894-0.5313s0.6372-0.7695,0.6372-1.2441c0-0.3047-0.0894-0.5635-0.2681-0.7773
			s-0.4907-0.4004-0.936-0.5586c-0.3047-0.1055-0.999-0.293-2.083-0.5625c-1.3945-0.3457-2.373-0.7705-2.9355-1.2744
			c-0.791-0.709-1.1865-1.5732-1.1865-2.5928c0-0.6563,0.186-1.2695,0.5581-1.8418c0.3721-0.5703,0.9082-1.0059,1.6084-1.3047
			s1.5454-0.4482,2.5356-0.4482c1.6172,0,2.8345,0.3545,3.6519,1.0635s1.2466,1.6553,1.2876,2.8389l-2.6016,0.1143
			c-0.1113-0.6621-0.3501-1.1387-0.7163-1.4277c-0.3662-0.291-0.9155-0.4355-1.6479-0.4355c-0.7559,0-1.3477,0.1553-1.7754,0.4658
			c-0.2754,0.1992-0.4131,0.4658-0.4131,0.7998c0,0.3047,0.1289,0.5654,0.3867,0.7822c0.3281,0.2754,1.125,0.5625,2.3906,0.8613
			s2.2017,0.6084,2.8081,0.9268c0.6064,0.3203,1.0811,0.7559,1.4238,1.3105c0.3428,0.5527,0.5142,1.2373,0.5142,2.0518
			c0,0.7383-0.2051,1.4297-0.6152,2.0742s-0.9902,1.124-1.7402,1.4365c-0.75,0.3135-1.6846,0.4707-2.8037,0.4707
			c-1.6289,0-2.8799-0.376-3.7529-1.1289S209.2393,25.5591,209.0694,24.1177z"/>
		<path d="M221.207,21.9468c0-1.3125,0.1963-2.4141,0.5889-3.3047c0.293-0.6563,0.6929-1.2451,1.1997-1.7666
			s1.062-0.9082,1.6655-1.1602c0.8027-0.3398,1.7285-0.5098,2.7773-0.5098c1.8984,0,3.4175,0.5889,4.5571,1.7666
			s1.7095,2.8154,1.7095,4.9131c0,2.0801-0.5654,3.708-1.6963,4.8818c-1.1309,1.1758-2.6426,1.7627-4.5352,1.7627
			c-1.916,0-3.4395-0.585-4.5703-1.7529C221.7725,25.6069,221.207,23.9976,221.207,21.9468z M223.8877,21.8589
			c0,1.459,0.3369,2.5654,1.0107,3.3184s1.5293,1.1289,2.5664,1.1289s1.8882-0.373,2.5532-1.1211
			c0.665-0.7461,0.9976-1.8672,0.9976-3.3613c0-1.4766-0.3237-2.5781-0.9712-3.3047s-1.5073-1.0898-2.5796-1.0898
			s-1.9365,0.3682-2.5928,1.1035S223.8877,20.3765,223.8877,21.8589z"/>
		<path d="M241.0264,24.9878h-2.2412c-0.0059-0.3223-0.0088-0.5186-0.0088-0.5889c0-0.7266,0.1201-1.3242,0.3604-1.793
			s0.7207-0.9961,1.4414-1.582s1.1514-0.9697,1.292-1.1514c0.2168-0.2871,0.3252-0.6035,0.3252-0.9492
			c0-0.4805-0.1919-0.8926-0.5757-1.2344c-0.3838-0.3438-0.9009-0.5146-1.5513-0.5146c-0.627,0-1.1514,0.1787-1.5732,0.5361
			s-0.7119,0.9023-0.8701,1.6348l-2.2676-0.2813c0.0645-1.0488,0.5112-1.9395,1.3403-2.6719s1.9175-1.0986,3.2651-1.0986
			c1.418,0,2.5459,0.3711,3.3838,1.1123s1.2568,1.6035,1.2568,2.5879c0,0.5449-0.1538,1.0605-0.4614,1.5469
			s-0.9653,1.1484-1.9731,1.9863c-0.5215,0.4336-0.8452,0.7822-0.9712,1.0459S241.0147,24.3081,241.0264,24.9878z M238.7852,28.3101
			v-2.4697h2.4697v2.4697H238.7852z"/>
	</g>
</g>
<path d="M18.2805,33.8117c0-1.4287-1.162-2.5906-2.5906-2.5906s-2.5906,1.1619-2.5906,2.5906c0,1.4286,1.162,2.5905,2.5906,2.5905
	S18.2805,35.2403,18.2805,33.8117L18.2805,33.8117z"/>
<path d="M25.6176,15.5764c-0.0366-2.6238-1.085-5.097-2.9517-6.9641c-1.8671-1.8667-4.3403-2.9151-6.9644-2.9517
	c-0.0469-0.0006-0.0936-0.001-0.1402-0.001c-2.6635,0-5.1677,1.0256-7.0652,2.8966C6.564,10.4619,5.5,13.0055,5.5,15.7189
	c0,1.4286,1.162,2.5906,2.5906,2.5906c1.4286,0,2.5906-1.162,2.5906-2.5906c0-1.3157,0.516-2.5493,1.453-3.4731
	c0.9376-0.9248,2.1781-1.4236,3.4953-1.4042c2.6143,0.0363,4.7709,2.1928,4.8071,4.8072c0.026,1.8689-1.0393,3.6133-2.7139,4.4438
	c-1.4295,0.7095-2.6297,1.8017-3.4703,3.1589c-0.799,1.2897-1.2415,2.7709-1.2809,4.2865c-0.0022,0.0184-0.0031,0.0373-0.0031,0.056
	c0,1.4286,1.1622,2.5909,2.5906,2.5909c1.4042,0,2.5511-1.1232,2.5896-2.518c0.0022-0.0166,0.0034-0.0335,0.0044-0.051
	c0.0516-1.2302,0.7692-2.3343,1.8724-2.8817c1.6739-0.8302,3.0822-2.1084,4.0727-3.6963
	C25.1191,19.4019,25.6445,17.5133,25.6176,15.5764L25.6176,15.5764z"/>
<path style="fill:#28749E;" d="M15.5594,29.6666c-1.1448,0-2.0727-0.9282-2.0727-2.0727c0,0,0.0006,0.0563,0.0019,0
	c0.03-1.4401,0.445-2.8434,1.2042-4.0696c0.7899-1.2753,1.9172-2.3014,3.2603-2.9677c1.8523-0.9188,3.0303-2.8481,3.0018-4.9151
	c-0.0404-2.8923-2.426-5.2779-5.3183-5.3183c-1.4552-0.0213-2.83,0.5314-3.8661,1.5535c-1.0365,1.022-1.6073,2.3865-1.6073,3.8421
	c0,1.1448-0.9279,2.0727-2.0723,2.0727c-1.1448,0-2.0727-0.9279-2.0727-2.0727c0-2.5737,1.0092-4.9863,2.8418-6.7935
	c1.8323-1.807,4.2596-2.7815,6.8345-2.7467c2.488,0.0347,4.8338,1.0292,6.6048,2.8003c1.771,1.7709,2.7656,4.1165,2.8,6.6048
	c0.0256,1.837-0.4726,3.6283-1.4405,5.1799c-0.9394,1.5062-2.2754,2.7186-3.8636,3.5063c-1.2838,0.6372-2.0999,1.9002-2.1597,3.3241
	c-0.0026,0.056-0.0038,0-0.0038,0C17.6318,28.7384,16.7039,29.6666,15.5594,29.6666L15.5594,29.6666z M15.6899,31.739
	c-1.1448,0-2.0723,0.9279-2.0723,2.0727c0,1.1444,0.9276,2.0723,2.0723,2.0723s2.0727-0.9279,2.0727-2.0723
	C17.7626,32.6669,16.8347,31.739,15.6899,31.739L15.6899,31.739z M15.6899,31.739"/>
<path style="fill:#28749E;" d="M14.1355,33.8117c0-0.8572,0.6972-1.5545,1.5544-1.5545c0.8572,0,1.5545,0.6972,1.5545,1.5545
	c0,0.8568-0.6972,1.5544-1.5545,1.5544C14.8331,35.3661,14.1355,34.6685,14.1355,33.8117L14.1355,33.8117z"/>
<path style="fill:#2C4D67;" d="M16.4548,24.6156c-0.5626,0.9085-0.8719,1.9534-0.8941,3.0219
	c-0.0172,0.8193-0.4494,1.428-1.0187,1.7622c-0.6234-0.352-1.0461-1.0174-1.0546-1.7826c0.0003,0.0041,0.0006,0.001,0.0013-0.0231
	c0.03-1.4399,0.445-2.8434,1.2042-4.0696c0.7899-1.2753,1.9172-2.3014,3.2603-2.9677c1.8523-0.9188,3.0303-2.8481,3.0018-4.9151
	c-0.0404-2.8923-2.426-5.2779-5.3183-5.318c-1.4552-0.0216-2.83,0.5311-3.8661,1.5532c-1.0365,1.022-1.6073,2.3865-1.6073,3.8421
	c0,1.1448-0.9279,2.0727-2.0723,2.0727c-0.7667,0-1.4358-0.4166-1.7942-1.0356c0.3587-0.6194,1.0284-1.0371,1.7942-1.0371
	c0-2.0145,0.7899-3.9031,2.2244-5.318c1.4371-1.4167,3.3402-2.1794,5.3521-2.15c4.0026,0.0563,7.3042,3.3586,7.3599,7.3614
	c0.0397,2.8601-1.5904,5.5299-4.1531,6.801C17.8778,22.9079,17.041,23.6693,16.4548,24.6156L16.4548,24.6156z M13.4874,27.6171
	c-0.0003-0.0078-0.0006-0.0153-0.0006-0.0231C13.4868,27.594,13.4871,27.6119,13.4874,27.6171L13.4874,27.6171z M16.2917,31.8282
	c0.0579,0.1903,0.0888,0.3924,0.0888,0.6017c0,1.1448-0.9276,2.0727-2.0723,2.0727c-0.2093,0-0.4115-0.0316-0.6017-0.0892
	c0.2578,0.8512,1.0481,1.4709,1.9834,1.4709c1.1445,0,2.0724-0.9279,2.0724-2.0727C17.7626,32.8763,17.143,32.086,16.2917,31.8282
	L16.2917,31.8282z M16.2917,31.8282"/>
<path style="fill:#FFFFFF;" d="M23.8076,15.8496c0,0.2861-0.2323,0.5183-0.5183,0.5183c-0.286,0-0.5183-0.2322-0.5183-0.5183
	c0-3.1539-2.1165-5.9557-5.1474-6.8141c-0.2754-0.078-0.4353-0.3643-0.3574-0.6397c0.0779-0.275,0.3646-0.4353,0.6397-0.3574
	C21.3806,9.0224,23.8076,12.2344,23.8076,15.8496L23.8076,15.8496z"/>
<path style="fill:#FFFFFF;" d="M15.745,7.7324h-0.0551c-0.286,0-0.5179,0.2319-0.5179,0.5179c0,0.286,0.2319,0.5183,0.5179,0.5183
	h0.052c0.2848,0,0.5163-0.23,0.5183-0.5151C16.2617,7.9674,16.031,7.7343,15.745,7.7324L15.745,7.7324z"/>
<polygon id="XMLID_1363_" style="opacity:0.5;fill:#2C6882;" points="234.6104,49.5234 1,42.3535 234.6104,42.3535 "/>
</svg>
