<?xml version="1.0" encoding="utf-8"?>
<!-- Generator: Adobe Illustrator 21.0.0, SVG Export Plug-In . SVG Version: 6.00 Build 0)  -->
<svg version="1.1" id="Capa_1" xmlns="http://www.w3.org/2000/svg" xmlns:xlink="http://www.w3.org/1999/xlink" x="0px" y="0px"
	 viewBox="0 0 249.6367 59.1389" style="enable-background:new 0 0 249.6367 59.1389;" xml:space="preserve">
<g id="XMLID_808_">
	<polygon id="XMLID_809_" style="fill:#F39200;" points="185.6,698.7253 199.6,680.9253 189.2,660.7253 185.6,660.7253 	"/>
</g>
<linearGradient id="XMLID_3_" gradientUnits="userSpaceOnUse" x1="189.2413" y1="-1561.8748" x2="-35.9733" y2="-1561.8748" gradientTransform="matrix(1 0 0 -1 0 -901.1494)">
	<stop  offset="0" style="stop-color:#FFFFFF"/>
	<stop  offset="0.0061" style="stop-color:#FFFDF9"/>
	<stop  offset="0.0516" style="stop-color:#FEEDD0"/>
	<stop  offset="0.1026" style="stop-color:#FCDFAA"/>
	<stop  offset="0.1581" style="stop-color:#FCD38A"/>
	<stop  offset="0.2195" style="stop-color:#FBC86E"/>
	<stop  offset="0.2888" style="stop-color:#FAC058"/>
	<stop  offset="0.3698" style="stop-color:#FABA47"/>
	<stop  offset="0.4699" style="stop-color:#F9B53C"/>
	<stop  offset="0.6103" style="stop-color:#F9B335"/>
	<stop  offset="1" style="stop-color:#F9B233"/>
</linearGradient>
<rect id="XMLID_807_" x="-48" y="640.5253" style="fill:url(#XMLID_3_);stroke:#F6F6F6;stroke-width:2;stroke-linecap:round;stroke-linejoin:round;stroke-miterlimit:10;" width="247.6" height="40.4"/>
<g>
	<g>
		<path style="fill:#432918;" d="M25.2,666.1253v-12.9h5.5c1.4,0,2.4,0.1,3,0.3c0.6,0.2,1.1,0.6,1.5,1.2s0.6,1.3,0.6,2
			c0,1-0.3,1.8-0.9,2.4s-1.4,1-2.5,1.2c0.6,0.3,1,0.7,1.4,1.1c0.4,0.4,0.9,1.1,1.5,2.1l1.6,2.5h-3.1l-1.9-2.8
			c-0.7-1-1.1-1.6-1.4-1.9s-0.5-0.4-0.8-0.5s-0.7-0.1-1.3-0.1h-0.5v5.4H25.2L25.2,666.1253z M27.8,658.7253h1.9c1.2,0,2-0.1,2.3-0.2
			c0.3-0.1,0.6-0.3,0.7-0.5c0.1-0.2,0.3-0.6,0.3-1s-0.1-0.8-0.3-1.1c-0.2-0.3-0.6-0.4-1-0.5c-0.2,0-0.8,0-1.9,0h-2V658.7253z"/>
		<path style="fill:#432918;" d="M43.5,663.1253l2.5,0.4c-0.3,0.9-0.8,1.6-1.5,2.1s-1.5,0.7-2.6,0.7c-1.6,0-2.8-0.5-3.6-1.6
			c-0.6-0.8-0.9-1.9-0.9-3.2c0-1.5,0.4-2.8,1.2-3.6s1.8-1.3,3.1-1.3c1.4,0,2.5,0.5,3.3,1.4s1.2,2.3,1.2,4.2H40
			c0,0.7,0.2,1.3,0.6,1.7c0.4,0.4,0.9,0.6,1.4,0.6c0.4,0,0.7-0.1,1-0.3S43.4,663.6253,43.5,663.1253z M43.7,660.6253
			c0-0.7-0.2-1.3-0.6-1.6c-0.4-0.4-0.8-0.6-1.3-0.6s-1,0.2-1.3,0.6s-0.5,0.9-0.5,1.6H43.7z"/>
		<path style="fill:#432918;" d="M50,659.6253l-2.2-0.4c0.3-0.9,0.7-1.6,1.3-2s1.5-0.7,2.7-0.7c1.1,0,1.9,0.1,2.5,0.4
			c0.5,0.3,0.9,0.6,1.1,1s0.3,1.1,0.3,2.2v2.9c0,0.8,0,1.4,0.1,1.8s0.2,0.8,0.4,1.3h-2.4c-0.1-0.2-0.1-0.4-0.2-0.7
			c0-0.1-0.1-0.2-0.1-0.3c-0.4,0.4-0.9,0.7-1.4,0.9s-1,0.3-1.5,0.3c-1,0-1.7-0.3-2.3-0.8s-0.8-1.2-0.8-2c0-0.5,0.1-1,0.4-1.4
			c0.3-0.4,0.6-0.7,1.1-0.9s1.1-0.4,2-0.6c1.2-0.2,2-0.4,2.4-0.6v-0.2c0-0.5-0.1-0.8-0.4-1c-0.2-0.2-0.7-0.3-1.3-0.3
			c-0.4,0-0.8,0.1-1,0.3C50.3,658.9253,50.1,659.2253,50,659.6253z M53.3,661.6253c-0.3,0.1-0.8,0.2-1.5,0.4s-1.1,0.3-1.3,0.4
			c-0.3,0.2-0.5,0.5-0.5,0.9c0,0.3,0.1,0.6,0.4,0.9s0.6,0.4,1,0.4s0.9-0.1,1.3-0.4c0.3-0.2,0.5-0.5,0.6-0.8c0.1-0.2,0.1-0.6,0.1-1.2
			L53.3,661.6253L53.3,661.6253z"/>
		<path style="fill:#432918;" d="M66.3,659.5253l-2.4,0.4c-0.1-0.5-0.3-0.9-0.6-1.1s-0.7-0.4-1.1-0.4c-0.6,0-1.1,0.2-1.5,0.6
			s-0.5,1.1-0.5,2.1c0,1.1,0.2,1.9,0.6,2.3s0.9,0.7,1.5,0.7c0.5,0,0.9-0.1,1.2-0.4s0.5-0.7,0.6-1.4l2.4,0.4c-0.3,1.1-0.7,2-1.5,2.5
			s-1.7,0.9-2.9,0.9c-1.4,0-2.5-0.4-3.3-1.3s-1.2-2.1-1.2-3.6s0.4-2.7,1.2-3.6c0.8-0.9,1.9-1.3,3.3-1.3c1.1,0,2,0.2,2.7,0.7
			C65.5,657.5253,66,658.5253,66.3,659.5253z"/>
		<path style="fill:#432918;" d="M76.3,659.5253l-2.4,0.4c-0.1-0.5-0.3-0.9-0.6-1.1s-0.7-0.4-1.1-0.4c-0.6,0-1.1,0.2-1.5,0.6
			s-0.5,1.1-0.5,2.1c0,1.1,0.2,1.9,0.6,2.3s0.9,0.7,1.5,0.7c0.5,0,0.9-0.1,1.2-0.4s0.5-0.7,0.6-1.4l2.4,0.4c-0.3,1.1-0.7,2-1.5,2.5
			s-1.7,0.9-2.9,0.9c-1.4,0-2.5-0.4-3.3-1.3s-1.2-2.1-1.2-3.6s0.4-2.7,1.2-3.6c0.8-0.9,1.9-1.3,3.3-1.3c1.1,0,2,0.2,2.7,0.7
			S76,658.5253,76.3,659.5253z"/>
		<path style="fill:#432918;" d="M78.2,655.5253v-2.3h2.5v2.3H78.2z M78.2,666.1253v-9.3h2.5v9.3H78.2z"/>
		<path style="fill:#432918;" d="M82.6,661.3253c0-0.8,0.2-1.6,0.6-2.4s1-1.4,1.7-1.8s1.6-0.6,2.5-0.6c1.4,0,2.6,0.5,3.5,1.4
			s1.4,2.1,1.4,3.5s-0.5,2.6-1.4,3.5s-2.1,1.4-3.4,1.4c-0.9,0-1.7-0.2-2.4-0.6s-1.4-1-1.8-1.7
			C82.8,663.3253,82.6,662.4253,82.6,661.3253z M85.1,661.4253c0,0.9,0.2,1.6,0.7,2.1s1,0.7,1.6,0.7s1.2-0.2,1.6-0.7
			s0.7-1.2,0.7-2.1c0-0.9-0.2-1.6-0.7-2.1s-1-0.7-1.6-0.7s-1.2,0.2-1.6,0.7S85.1,660.5253,85.1,661.4253z"/>
		<path style="fill:#432918;" d="M102.7,666.1253h-2.5v-4.8c0-1-0.1-1.7-0.2-2s-0.3-0.5-0.5-0.7s-0.5-0.2-0.8-0.2
			c-0.4,0-0.8,0.1-1.2,0.4s-0.6,0.5-0.7,0.9s-0.2,1.1-0.2,2.1v4.2h-2.5v-9.3h2.3v1.4c0.8-1.1,1.8-1.6,3.1-1.6c0.5,0,1,0.1,1.5,0.3
			s0.8,0.4,1,0.8s0.4,0.7,0.5,1s0.1,0.9,0.1,1.7C102.7,660.3253,102.7,666.1253,102.7,666.1253z"/>
		<path style="fill:#432918;" d="M110,656.8253h2.3v1.3c0.8-1,1.8-1.5,2.9-1.5c0.6,0,1.1,0.1,1.6,0.4s0.8,0.6,1.1,1.1
			c0.4-0.5,0.9-0.9,1.3-1.1s1-0.4,1.5-0.4c0.7,0,1.3,0.1,1.7,0.4s0.8,0.7,1.1,1.2c0.2,0.4,0.3,1,0.3,1.9v6h-2.5v-5.3
			c0-0.9-0.1-1.5-0.3-1.8c-0.2-0.4-0.6-0.5-1.1-0.5c-0.3,0-0.7,0.1-1,0.3s-0.5,0.5-0.7,0.9c-0.1,0.4-0.2,1.1-0.2,1.9v4.5h-2.5v-5.1
			c0-0.9,0-1.5-0.1-1.8s-0.2-0.5-0.4-0.6s-0.4-0.2-0.8-0.2s-0.7,0.1-1,0.3s-0.5,0.5-0.7,0.9s-0.2,1-0.2,1.9v4.5H110V656.8253
			L110,656.8253z"/>
		<path style="fill:#432918;" d="M131.6,663.1253l2.5,0.4c-0.3,0.9-0.8,1.6-1.5,2.1s-1.5,0.7-2.6,0.7c-1.6,0-2.8-0.5-3.6-1.6
			c-0.6-0.8-0.9-1.9-0.9-3.2c0-1.5,0.4-2.8,1.2-3.6s1.8-1.3,3.1-1.3c1.4,0,2.5,0.5,3.3,1.4s1.2,2.3,1.2,4.2H128
			c0,0.7,0.2,1.3,0.6,1.7c0.4,0.4,0.9,0.6,1.4,0.6c0.4,0,0.7-0.1,1-0.3S131.4,663.6253,131.6,663.1253z M131.7,660.6253
			c0-0.7-0.2-1.3-0.6-1.6c-0.4-0.4-0.8-0.6-1.3-0.6s-1,0.2-1.3,0.6s-0.5,0.9-0.5,1.6H131.7z"/>
		<path style="fill:#432918;" d="M144.7,666.1253h-2.5v-4.8c0-1-0.1-1.7-0.2-2s-0.3-0.5-0.5-0.7s-0.5-0.2-0.9-0.2s-0.8,0.1-1.2,0.4
			s-0.6,0.5-0.7,0.9s-0.2,1.1-0.2,2.1v4.2H136v-9.3h2.3v1.4c0.8-1.1,1.8-1.6,3.1-1.6c0.5,0,1,0.1,1.5,0.3s0.8,0.4,1,0.8
			s0.4,0.7,0.5,1s0.1,0.9,0.1,1.7v5.7999H144.7z"/>
		<path style="fill:#432918;" d="M151.5,656.8253v2h-1.7v3.8c0,0.8,0,1.2,0,1.3s0.1,0.2,0.2,0.3s0.3,0.1,0.4,0.1
			c0.2,0,0.6-0.1,1-0.2l0.2,1.9c-0.6,0.2-1.2,0.4-2,0.4c-0.4,0-0.8-0.1-1.2-0.2c-0.4-0.1-0.6-0.3-0.8-0.6c-0.2-0.2-0.3-0.6-0.3-1
			c-0.1-0.3-0.1-0.9-0.1-1.7v-4.1h-1.1v-2h1.1v-1.9l2.5-1.4v3.3L151.5,656.8253L151.5,656.8253z"/>
		<path style="fill:#432918;" d="M155,659.6253l-2.2-0.4c0.3-0.9,0.7-1.6,1.3-2s1.5-0.7,2.7-0.7c1.1,0,1.9,0.1,2.5,0.4
			c0.5,0.3,0.9,0.6,1.1,1s0.3,1.1,0.3,2.2v2.9c0,0.8,0,1.4,0.1,1.8s0.2,0.8,0.4,1.3h-2.4c-0.1-0.2-0.1-0.4-0.2-0.7
			c0-0.1-0.1-0.2-0.1-0.3c-0.4,0.4-0.9,0.7-1.4,0.9s-1,0.3-1.5,0.3c-1,0-1.7-0.3-2.3-0.8s-0.8-1.2-0.8-2c0-0.5,0.1-1,0.4-1.4
			c0.3-0.4,0.6-0.7,1.1-0.9s1.1-0.4,2-0.6c1.2-0.2,2-0.4,2.4-0.6v-0.2c0-0.5-0.1-0.8-0.4-1c-0.2-0.2-0.7-0.3-1.3-0.3
			c-0.4,0-0.8,0.1-1,0.3C155.4,658.9253,155.2,659.2253,155,659.6253z M158.3,661.6253c-0.3,0.1-0.8,0.2-1.5,0.4s-1.1,0.3-1.3,0.4
			c-0.3,0.2-0.5,0.5-0.5,0.9c0,0.3,0.1,0.6,0.4,0.9s0.6,0.4,1,0.4s0.9-0.1,1.3-0.4c0.3-0.2,0.5-0.5,0.6-0.8c0.1-0.2,0.1-0.6,0.1-1.2
			L158.3,661.6253L158.3,661.6253z"/>
		<path style="fill:#432918;" d="M163.2,666.1253v-12.9h2.5v12.9H163.2z"/>
	</g>
</g>
<g>
	<path style="fill:none;stroke:#432918;stroke-miterlimit:10;" d="M-36.3,653.9253c0-3,1.2-5.8,3.2-7.7l0,0c0.7-0.7,1.5-1.3,2.4-1.8
		c1.5-0.8,3.3-1.3,5.1-1.3c6,0,10.8,4.8,10.8,10.8l0,0c0.9,1.1,1.8,2.2,2.5,3.4c-0.9,0.5-1.7,1.1-2.5,1.7v5.6h-4.8
		c-1.7,2.9-2.6,6.3-2.6,9.9c0,0.6,0,1.2,0.1,1.8c-3.2-3.8-7.5-6.6-12.3-8.2c1.3-1.5,2.4-3.2,3.2-5
		C-34.2,661.3253-36.3,657.9253-36.3,653.9253z"/>
	<path style="fill:#D14844;" d="M-25.6,645.4253c3.5,0,6.5,2.3,7.6,5.4v0.1c0.1,0.2,0.1,0.4,0.1,0.6c0,1.1-0.9,1.9-1.9,1.9H-23
		c0.2,0.3,0.3,0.6,0.3,1c0,1-0.8,1.8-1.8,1.8h-1.8l-0.7,2.4h-1.2l0.7-2.4l0,0c-0.5,0.7-1.4,1.1-2.3,1.1c-0.1,0-0.2,0-0.3,0
		c-2-0.2-3.5-1.8-3.5-3.8C-33.6,649.0253-30,645.4253-25.6,645.4253z"/>
</g>
<polygon id="XMLID_368_" style="opacity:0.5;fill:#2C6882;enable-background:new    ;" points="185.6,688.2253 -48,681.0253 
	185.6,681.0253 "/>
<g id="XMLID_3045_">
	<polygon id="XMLID_3046_" style="fill-rule:evenodd;clip-rule:evenodd;fill:#223B72;" points="234.6104,59.1389 248.6367,41.3537 
		238.2119,21.1848 234.6104,21.1867 	"/>
</g>
<g>
	
		<rect id="XMLID_1_" x="1" y="1.0002" style="fill-rule:evenodd;clip-rule:evenodd;fill:#6AC7EB;" width="247.6367" height="40.3535"/>
	<path style="fill:#FFFFFF;" d="M248.6367,42.354H1c-0.5522,0-1-0.4473-1-1V1c0-0.5522,0.4478-1,1-1h247.6367c0.5527,0,1,0.4478,1,1
		v40.354C249.6367,41.9067,249.1895,42.354,248.6367,42.354z M2,40.354h245.6367V2H2V40.354z"/>
</g>
<g>
	<g>
		<path d="M45.6187,13.6743h4.7549c1.0723,0,1.8896,0.082,2.4521,0.2461c0.7559,0.2227,1.4033,0.6182,1.9424,1.1865
			s0.9492,1.2646,1.2305,2.0869c0.2813,0.8242,0.4219,1.8389,0.4219,3.0459c0,1.0605-0.1318,1.9746-0.3955,2.7422
			c-0.3223,0.9375-0.7822,1.6963-1.3799,2.2764c-0.4512,0.4395-1.0605,0.7822-1.8281,1.0283
			c-0.5742,0.1816-1.3418,0.2725-2.3027,0.2725h-4.8955V13.6743z M48.2202,15.854v8.5342h1.9424c0.7266,0,1.251-0.041,1.5732-0.123
			c0.4219-0.1055,0.772-0.2842,1.0503-0.5361s0.5054-0.666,0.6812-1.2441c0.1758-0.5762,0.2637-1.3633,0.2637-2.3594
			s-0.0879-1.7607-0.2637-2.2939s-0.4219-0.9492-0.7383-1.248s-0.7178-0.501-1.2041-0.6064c-0.3633-0.082-1.0752-0.123-2.1357-0.123
			H48.2202z"/>
		<path d="M64.0142,23.5884l2.4609,0.4131c-0.3164,0.9023-0.8159,1.5898-1.4985,2.0615s-1.5366,0.707-2.562,0.707
			c-1.623,0-2.8242-0.5303-3.6035-1.5908c-0.6152-0.8496-0.9229-1.9219-0.9229-3.2168c0-1.5469,0.4043-2.7578,1.2129-3.6338
			s1.8311-1.3145,3.0674-1.3145c1.3887,0,2.4844,0.459,3.2871,1.375c0.8027,0.918,1.1865,2.3223,1.1514,4.2148h-6.1875
			c0.0176,0.7324,0.2168,1.3027,0.5977,1.709c0.3809,0.4082,0.8555,0.6113,1.4238,0.6113c0.3867,0,0.7119-0.1055,0.9756-0.3164
			S63.8794,24.0571,64.0142,23.5884z M64.1548,21.0923c-0.0176-0.7148-0.2021-1.2578-0.5537-1.6309
			c-0.3516-0.3711-0.7793-0.5576-1.2832-0.5576c-0.5391,0-0.9844,0.1963-1.3359,0.5889s-0.5244,0.9258-0.5186,1.5996H64.1548z"/>
		<path d="M67.7495,23.896l2.4785-0.3779c0.1055,0.4805,0.3193,0.8457,0.6416,1.0938c0.3223,0.25,0.7734,0.374,1.3535,0.374
			c0.6387,0,1.1191-0.1172,1.4414-0.3516c0.2168-0.1641,0.3252-0.3838,0.3252-0.6592c0-0.1875-0.0586-0.3428-0.1758-0.4658
			c-0.123-0.1172-0.3984-0.2256-0.8262-0.3252c-1.9922-0.4395-3.2549-0.8408-3.7881-1.2041
			c-0.7383-0.5039-1.1074-1.2041-1.1074-2.1006c0-0.8086,0.3193-1.4883,0.958-2.0391s1.6289-0.8262,2.9707-0.8262
			c1.2773,0,2.2266,0.208,2.8477,0.624s1.0488,1.0313,1.2832,1.8457l-2.3291,0.4307c-0.0996-0.3633-0.2886-0.6416-0.5669-0.835
			s-0.6753-0.29-1.1909-0.29c-0.6504,0-1.1162,0.0908-1.3975,0.2725c-0.1875,0.1289-0.2813,0.2959-0.2813,0.501
			c0,0.1758,0.082,0.3252,0.2461,0.4482c0.2227,0.1641,0.9917,0.3955,2.3071,0.6943s2.2339,0.665,2.7554,1.0986
			c0.5156,0.4395,0.7734,1.0518,0.7734,1.8369c0,0.8555-0.3574,1.5908-1.0723,2.2061S73.6235,26.77,72.2231,26.77
			c-1.2715,0-2.2778-0.2578-3.019-0.7734S67.978,24.7808,67.7495,23.896z"/>
		<path d="M86.769,19.9849l-2.4346,0.4395c-0.082-0.4863-0.2681-0.8525-0.5581-1.0986s-0.6665-0.3691-1.1294-0.3691
			c-0.6152,0-1.106,0.2129-1.4722,0.6377s-0.5493,1.1348-0.5493,2.1309c0,1.1074,0.186,1.8896,0.5581,2.3467
			s0.8716,0.6855,1.4985,0.6855c0.4688,0,0.8525-0.1328,1.1514-0.3994s0.5098-0.7256,0.6328-1.376l2.4258,0.4131
			c-0.252,1.1133-0.7354,1.9541-1.4502,2.5225S83.769,26.77,82.5679,26.77c-1.3652,0-2.4536-0.4307-3.2651-1.292
			s-1.2173-2.0537-1.2173-3.5771c0-1.541,0.4072-2.7402,1.2217-3.5996c0.8145-0.8574,1.916-1.2871,3.3047-1.2871
			c1.1367,0,2.0405,0.2451,2.7114,0.7344S86.4761,18.9829,86.769,19.9849z"/>
		<path d="M91.0054,26.5591h-2.4697v-9.334h2.2939v1.3271c0.3926-0.627,0.7456-1.04,1.0591-1.2393s0.6694-0.2988,1.0679-0.2988
			c0.5625,0,1.1045,0.1553,1.626,0.4658l-0.7646,2.1533c-0.416-0.2695-0.8027-0.4043-1.1602-0.4043
			c-0.3457,0-0.6387,0.0957-0.8789,0.2852c-0.2402,0.1914-0.4292,0.5352-0.5669,1.0332s-0.2065,1.541-0.2065,3.1289V26.5591z"/>
		<path d="M95.646,15.9595v-2.2852h2.4697v2.2852H95.646z M95.646,26.5591v-9.334h2.4697v9.334H95.646z"/>
		<path d="M100.5767,17.2251h2.3027v1.3711c0.2988-0.4688,0.7031-0.8496,1.2129-1.1426s1.0752-0.4395,1.6963-0.4395
			c1.084,0,2.0039,0.4248,2.7598,1.2744s1.1338,2.0332,1.1338,3.5508c0,1.5586-0.3809,2.7705-1.1426,3.6338
			c-0.7617,0.8652-1.6846,1.2969-2.7686,1.2969c-0.5156,0-0.9829-0.1025-1.4019-0.3076s-0.8599-0.5566-1.3228-1.0547v4.7021h-2.4697
			V17.2251z M103.02,21.7339c0,1.0488,0.208,1.8232,0.624,2.3252c0.416,0.5,0.9229,0.751,1.5205,0.751
			c0.5742,0,1.0518-0.2295,1.4326-0.6904c0.3809-0.459,0.5713-1.2139,0.5713-2.2627c0-0.9785-0.1963-1.7051-0.5889-2.1797
			s-0.8789-0.7119-1.459-0.7119c-0.6035,0-1.1045,0.2324-1.5029,0.6992C103.2192,20.1294,103.02,20.8198,103.02,21.7339z"/>
		<path d="M119.7808,19.9849l-2.4346,0.4395c-0.082-0.4863-0.2681-0.8525-0.5581-1.0986s-0.6665-0.3691-1.1294-0.3691
			c-0.6152,0-1.106,0.2129-1.4722,0.6377s-0.5493,1.1348-0.5493,2.1309c0,1.1074,0.186,1.8896,0.5581,2.3467
			s0.8716,0.6855,1.4985,0.6855c0.4688,0,0.8525-0.1328,1.1514-0.3994s0.5098-0.7256,0.6328-1.376l2.4258,0.4131
			c-0.252,1.1133-0.7354,1.9541-1.4502,2.5225s-1.6729,0.8525-2.874,0.8525c-1.3652,0-2.4536-0.4307-3.2651-1.292
			s-1.2173-2.0537-1.2173-3.5771c0-1.541,0.4072-2.7402,1.2217-3.5996c0.8145-0.8574,1.916-1.2871,3.3047-1.2871
			c1.1367,0,2.0405,0.2451,2.7114,0.7344S119.4878,18.9829,119.7808,19.9849z"/>
		<path d="M121.6528,15.9595v-2.2852h2.4697v2.2852H121.6528z M121.6528,26.5591v-9.334h2.4697v9.334H121.6528z"/>
		<path d="M126.0825,21.7603c0-0.8203,0.2021-1.6143,0.6064-2.3818s0.9771-1.3535,1.7183-1.7578s1.5684-0.6064,2.4824-0.6064
			c1.4121,0,2.5693,0.459,3.4717,1.375c0.9023,0.918,1.3535,2.0762,1.3535,3.4766c0,1.4121-0.4551,2.583-1.3662,3.5117
			S132.29,26.77,130.9072,26.77c-0.8555,0-1.6709-0.1934-2.4473-0.5801s-1.3667-0.9531-1.771-1.7012
			C126.2847,23.7427,126.0825,22.8325,126.0825,21.7603z M128.6133,21.8921c0,0.9258,0.2197,1.6348,0.6592,2.127
			s0.9814,0.7383,1.626,0.7383s1.1855-0.2461,1.6221-0.7383s0.6543-1.207,0.6543-2.1445c0-0.9141-0.2178-1.6172-0.6543-2.1094
			s-0.9775-0.7383-1.6221-0.7383s-1.1865,0.2461-1.626,0.7383S128.6133,20.9663,128.6133,21.8921z M129.6504,16.0825l1.2129-2.6279
			h2.7686l-2.417,2.6279H129.6504z"/>
		<path d="M146.1387,26.5591h-2.4697v-4.7637c0-1.0078-0.0527-1.6592-0.1582-1.9551s-0.2764-0.5264-0.5137-0.6904
			s-0.5234-0.2461-0.8574-0.2461c-0.4277,0-0.8115,0.1172-1.1514,0.3516s-0.5723,0.5449-0.6982,0.9316s-0.1895,1.1016-0.1895,2.1445
			v4.2275h-2.4697v-9.334h2.2939v1.3711c0.8145-1.0547,1.8398-1.582,3.0762-1.582c0.5449,0,1.043,0.0986,1.4941,0.2949
			s0.793,0.4463,1.0244,0.751s0.3926,0.6504,0.4834,1.0371s0.1357,0.9404,0.1357,1.6611V26.5591z"/>
		<path d="M153.583,26.5591V13.6743h2.6016v12.8848H153.583z"/>
		<path d="M158.0039,22.3667l2.5313-0.2461c0.1523,0.8496,0.4619,1.4736,0.9277,1.8721s1.0938,0.5977,1.8848,0.5977
			c0.8379,0,1.4697-0.1768,1.8945-0.5313s0.6367-0.7695,0.6367-1.2441c0-0.3047-0.0889-0.5635-0.2676-0.7773
			s-0.4912-0.4004-0.9365-0.5586c-0.3047-0.1055-0.999-0.293-2.083-0.5625c-1.3945-0.3457-2.373-0.7705-2.9355-1.2744
			c-0.791-0.709-1.1865-1.5732-1.1865-2.5928c0-0.6563,0.1865-1.2695,0.5586-1.8418c0.3721-0.5703,0.9082-1.0059,1.6084-1.3047
			s1.5449-0.4482,2.5352-0.4482c1.6172,0,2.835,0.3545,3.6523,1.0635s1.2461,1.6553,1.2871,2.8389l-2.6016,0.1143
			c-0.1113-0.6621-0.3496-1.1387-0.7158-1.4277c-0.3662-0.291-0.916-0.4355-1.6484-0.4355c-0.7559,0-1.3477,0.1553-1.7754,0.4658
			c-0.2754,0.1992-0.4131,0.4658-0.4131,0.7998c0,0.3047,0.1289,0.5654,0.3867,0.7822c0.3281,0.2754,1.125,0.5625,2.3906,0.8613
			s2.2021,0.6084,2.8086,0.9268c0.6064,0.3203,1.0811,0.7559,1.4238,1.3105c0.3428,0.5527,0.5137,1.2373,0.5137,2.0518
			c0,0.7383-0.2051,1.4297-0.6152,2.0742s-0.9902,1.124-1.7402,1.4365c-0.75,0.3135-1.6846,0.4707-2.8037,0.4707
			c-1.6289,0-2.8799-0.376-3.7529-1.1289S158.1738,23.8081,158.0039,22.3667z"/>
		<path d="M170.1416,20.1958c0-1.3125,0.1963-2.4141,0.5889-3.3047c0.293-0.6563,0.6934-1.2451,1.2002-1.7666
			s1.0615-0.9082,1.665-1.1602c0.8027-0.3398,1.7285-0.5098,2.7773-0.5098c1.8984,0,3.418,0.5889,4.5576,1.7666
			s1.709,2.8154,1.709,4.9131c0,2.0801-0.5654,3.708-1.6963,4.8818c-1.1309,1.1758-2.6426,1.7627-4.5352,1.7627
			c-1.916,0-3.4395-0.585-4.5703-1.7529C170.707,23.856,170.1416,22.2466,170.1416,20.1958z M172.8223,20.1079
			c0,1.459,0.3369,2.5654,1.0107,3.3184s1.5293,1.1289,2.5664,1.1289s1.8887-0.373,2.5537-1.1211
			c0.665-0.7461,0.9971-1.8672,0.9971-3.3613c0-1.4766-0.3232-2.5781-0.9707-3.3047s-1.5078-1.0898-2.5801-1.0898
			s-1.9365,0.3682-2.5928,1.1035S172.8223,18.6255,172.8223,20.1079z"/>
		<path d="M189.1787,23.5796l2.3906-0.2637c0.0586,0.4863,0.2109,0.8467,0.457,1.0811s0.5713,0.3516,0.9756,0.3516
			c0.5098,0,0.9434-0.2344,1.3008-0.7031s0.5859-1.4414,0.6855-2.918c-0.6211,0.7207-1.3975,1.0811-2.3291,1.0811
			c-1.0137,0-1.8877-0.3916-2.623-1.1729c-0.7354-0.7832-1.1035-1.8008-1.1035-3.0547c0-1.3066,0.3887-2.3594,1.165-3.1602
			c0.7764-0.7988,1.7646-1.1992,2.9658-1.1992c1.3066,0,2.3789,0.5059,3.2168,1.5156c0.8379,1.0117,1.2568,2.6738,1.2568,4.9883
			c0,2.3555-0.4365,4.0547-1.3096,5.0977s-2.0098,1.5645-3.4102,1.5645c-1.0078,0-1.8223-0.2676-2.4434-0.8047
			C189.7529,25.4478,189.3545,24.646,189.1787,23.5796z M194.7686,18.1831c0-0.7969-0.1826-1.415-0.5488-1.8545
			s-0.79-0.6592-1.2705-0.6592c-0.457,0-0.8359,0.1807-1.1377,0.54c-0.3018,0.3613-0.4531,0.9512-0.4531,1.7715
			c0,0.832,0.1641,1.4434,0.4922,1.832c0.3281,0.3906,0.7383,0.585,1.2305,0.585c0.4746,0,0.875-0.1875,1.2002-0.5625
			S194.7686,18.9097,194.7686,18.1831z"/>
		<path d="M203.3115,13.6216c1.248,0,2.2236,0.4453,2.9268,1.3359c0.8379,1.0547,1.2568,2.8037,1.2568,5.2471
			c0,2.4375-0.4219,4.1895-1.2656,5.2559c-0.6973,0.8789-1.6699,1.3184-2.918,1.3184c-1.2539,0-2.2646-0.4814-3.0322-1.4463
			c-0.7676-0.9629-1.1514-2.6816-1.1514-5.1543c0-2.4258,0.4219-4.1719,1.2656-5.2383
			C201.0908,14.061,202.0635,13.6216,203.3115,13.6216z M203.3115,15.6694c-0.2988,0-0.5654,0.0957-0.7998,0.2861
			s-0.416,0.5313-0.5449,1.0234c-0.1699,0.6387-0.2549,1.7139-0.2549,3.2256s0.0762,2.5508,0.2285,3.1162
			s0.3447,0.9414,0.5762,1.1289s0.4961,0.2813,0.7949,0.2813s0.5654-0.0947,0.7998-0.2852s0.416-0.5322,0.5449-1.0244
			c0.1699-0.6328,0.2549-1.7051,0.2549-3.2168s-0.0762-2.5498-0.2285-3.1162c-0.1523-0.5645-0.3438-0.9424-0.5752-1.1328
			S203.6104,15.6694,203.3115,15.6694z"/>
		<path d="M213.3223,13.6216c1.248,0,2.2236,0.4453,2.9268,1.3359c0.8379,1.0547,1.2568,2.8037,1.2568,5.2471
			c0,2.4375-0.4219,4.1895-1.2656,5.2559c-0.6973,0.8789-1.6699,1.3184-2.918,1.3184c-1.2539,0-2.2646-0.4814-3.0322-1.4463
			c-0.7676-0.9629-1.1514-2.6816-1.1514-5.1543c0-2.4258,0.4219-4.1719,1.2656-5.2383
			C211.1016,14.061,212.0742,13.6216,213.3223,13.6216z M213.3223,15.6694c-0.2988,0-0.5654,0.0957-0.7998,0.2861
			s-0.416,0.5313-0.5449,1.0234c-0.1699,0.6387-0.2549,1.7139-0.2549,3.2256s0.0762,2.5508,0.2285,3.1162
			s0.3447,0.9414,0.5762,1.1289s0.4961,0.2813,0.7949,0.2813s0.5654-0.0947,0.7998-0.2852s0.416-0.5322,0.5449-1.0244
			c0.1699-0.6328,0.2549-1.7051,0.2549-3.2168s-0.0762-2.5498-0.2285-3.1162c-0.1523-0.5645-0.3438-0.9424-0.5752-1.1328
			S213.6211,15.6694,213.3223,15.6694z"/>
		<path d="M223.333,13.6216c1.248,0,2.2236,0.4453,2.9268,1.3359c0.8379,1.0547,1.2568,2.8037,1.2568,5.2471
			c0,2.4375-0.4219,4.1895-1.2656,5.2559c-0.6973,0.8789-1.6699,1.3184-2.918,1.3184c-1.2539,0-2.2646-0.4814-3.0322-1.4463
			c-0.7676-0.9629-1.1514-2.6816-1.1514-5.1543c0-2.4258,0.4219-4.1719,1.2656-5.2383
			C221.1123,14.061,222.085,13.6216,223.333,13.6216z M223.333,15.6694c-0.2988,0-0.5654,0.0957-0.7998,0.2861
			s-0.416,0.5313-0.5449,1.0234c-0.1699,0.6387-0.2549,1.7139-0.2549,3.2256s0.0762,2.5508,0.2285,3.1162
			s0.3447,0.9414,0.5762,1.1289s0.4961,0.2813,0.7949,0.2813s0.5654-0.0947,0.7998-0.2852s0.416-0.5322,0.5449-1.0244
			c0.1699-0.6328,0.2549-1.7051,0.2549-3.2168s-0.0762-2.5498-0.2285-3.1162c-0.1523-0.5645-0.3438-0.9424-0.5752-1.1328
			S223.6318,15.6694,223.333,15.6694z"/>
		<path d="M229.415,23.1226v-2.4697h4.8516v2.4697H229.415z"/>
		<path d="M235.0752,23.1401l2.3906-0.29c0.0762,0.6094,0.2813,1.0752,0.6152,1.3975s0.7383,0.4834,1.2129,0.4834
			c0.5098,0,0.9395-0.1934,1.2881-0.5801s0.5225-0.9082,0.5225-1.5645c0-0.6211-0.167-1.1133-0.501-1.4766
			s-0.7412-0.5449-1.2217-0.5449c-0.3164,0-0.6943,0.0615-1.1338,0.1846l0.2725-2.0127c0.668,0.0176,1.1777-0.127,1.5293-0.4355
			c0.3516-0.3066,0.5273-0.7158,0.5273-1.2256c0-0.4336-0.1289-0.7793-0.3867-1.0371s-0.6006-0.3867-1.0283-0.3867
			c-0.4219,0-0.7822,0.1465-1.0811,0.4395s-0.4805,0.7207-0.5449,1.2832l-2.2764-0.3867c0.1582-0.7793,0.3975-1.4014,0.7168-1.8682
			c0.3193-0.4648,0.7646-0.8311,1.3359-1.0977s1.2109-0.4004,1.9199-0.4004c1.2129,0,2.1855,0.3867,2.918,1.1602
			c0.6035,0.6328,0.9053,1.3477,0.9053,2.1445c0,1.1309-0.6182,2.0332-1.8545,2.707c0.7383,0.1582,1.3291,0.5127,1.7715,1.0635
			s0.6631,1.2158,0.6631,1.9951c0,1.1309-0.4131,2.0947-1.2393,2.8916s-1.8545,1.1953-3.085,1.1953
			c-1.166,0-2.1328-0.335-2.9004-1.0068C235.6436,25.1021,235.1982,24.2241,235.0752,23.1401z"/>
	</g>
</g>
<g>
	<g>
		<path style="fill:#565659;" d="M31.4095,26.3968v-4.551h-9.1019v-2.3837c-0.3689,0.0701-0.7488,0.1082-1.1377,0.1082
			c-0.3889,0-0.7688-0.0381-1.1377-0.1082v2.3837h-9.1019v4.551h2.2755v-2.2755H29.134v2.2755H31.4095z M31.4095,26.3968"/>
		<path d="M31.9097,26.897h-3.2759v-2.2759H13.7056v2.2759h-3.2754v-5.5513h9.1021v-2.4883l0.5938,0.1133
			c0.6924,0.1318,1.3945,0.1328,2.0879,0l0.5938-0.1128v2.4878h9.1021V26.897z M29.6338,25.897h1.2759v-3.5513h-9.1021v-2.3071
			c-0.4258,0.043-0.8496,0.042-1.2754,0v2.3071h-9.1021v3.5513h1.2754v-2.2759h16.9282V25.897z"/>
	</g>
	<g>
		<path style="fill:#00D7DF;" d="M9.034,31.327v-2.2755h3.034v-2.6547H6v7.5849h6.0679V31.327H9.034z M9.034,31.327"/>
		<path d="M12.5679,34.4819H5.5v-8.585h7.0679v3.6543H9.5342v1.2754h3.0337V34.4819z M6.5,33.4819h5.0679v-1.6553H8.5342v-3.2754
			h3.0337V26.897H6.5V33.4819z"/>
	</g>
	<g>
		<path style="fill:#00A1A7;" d="M12.0679,29.0515h3.034v2.2755h-3.034v2.6547h6.0679v-7.5849h-6.0679V29.0515z M12.0679,29.0515"/>
		<path d="M18.6357,34.4819h-7.0679v-3.6553h3.0342v-1.2754h-3.0342V25.897h7.0679V34.4819z M12.5679,33.4819h5.0679v-6.585h-5.0679
			v1.6543h3.0342v3.2754h-3.0342V33.4819z"/>
	</g>
	<g>
		<path style="fill:#00D7DF;" d="M27.2378,31.327v-2.2755h3.034v-2.6547h-6.0679v7.5849h6.0679V31.327H27.2378z M27.2378,31.327"/>
		<path d="M30.772,34.4819h-7.0684v-8.585h7.0684v3.6543h-3.0342v1.2754h3.0342V34.4819z M24.7036,33.4819h5.0684v-1.6553h-3.0342
			v-3.2754h3.0342V26.897h-5.0684V33.4819z"/>
	</g>
	<g>
		<path style="fill:#00A1A7;" d="M31.4095,26.3968h-1.1377v2.6547h3.034v2.2755h-3.034v2.6547h6.0679v-7.5849H31.4095z
			 M31.4095,26.3968"/>
		<path d="M36.8398,34.4819H29.772v-3.6553h3.0337v-1.2754H29.772V25.897h7.0679V34.4819z M30.772,33.4819h5.0679v-6.585H30.772
			v1.6543h3.0337v3.2754H30.772V33.4819z"/>
	</g>
	<g>
		<rect x="9.034" y="29.0515" style="fill:#FFFFFF;" width="6.0679" height="2.2755"/>
		<path d="M15.6021,31.8267H8.5342v-3.2754h7.0679V31.8267z M9.5342,30.8267h5.0679v-1.2754H9.5342V30.8267z"/>
	</g>
	<g>
		<rect x="27.2378" y="29.0515" style="fill:#FFFFFF;" width="6.0679" height="2.2755"/>
		<path d="M33.8057,31.8267h-7.0679v-3.2754h7.0679V31.8267z M27.7378,30.8267h5.0679v-1.2754h-5.0679V30.8267z"/>
	</g>
	<g>
		<path style="fill:#FFDA44;" d="M21.1698,14.6401h-3.034v-2.2755h3.034V7.4345c-3.3514,0-6.0679,2.7165-6.0679,6.0679
			c0,2.9621,2.1233,5.4272,4.9302,5.9598c0.3689,0.0701,0.7488,0.1082,1.1377,0.1082V14.6401z M21.1698,14.6401"/>
		<path d="M21.6699,20.0703h-0.5c-0.4092,0-0.8232-0.0396-1.2314-0.1172c-3.0918-0.5864-5.3364-3.2993-5.3364-6.4507
			c0-3.6216,2.9463-6.5679,6.5679-6.5679h0.5v5.9302h-3.0342v1.2754h3.0342V20.0703z M20.6699,7.957
			c-2.8369,0.2534-5.0679,2.6436-5.0679,5.5454c0,2.6714,1.9023,4.9712,4.5234,5.4683c0.1807,0.0347,0.3628,0.0601,0.5444,0.0767
			v-3.9072h-3.0342v-3.2754h3.0342V7.957z"/>
	</g>
	<g>
		<path style="fill:#FF9811;" d="M24.2038,12.3647v2.2755h-3.034v4.9302c0.3889,0,0.7688-0.0381,1.1377-0.1082
			c2.8073-0.5326,4.9302-2.9977,4.9302-5.9598c0-3.3514-2.7165-6.0679-6.0679-6.0679v4.9302H24.2038z M24.2038,12.3647"/>
		<path d="M21.1699,20.0703h-0.5v-5.9302h3.0337v-1.2754h-3.0337V6.9346h0.5c3.6216,0,6.5679,2.9463,6.5679,6.5679
			c0,3.1514-2.2446,5.8643-5.3369,6.4507C21.9927,20.0308,21.5786,20.0703,21.1699,20.0703z M21.6699,15.1401v3.9072
			c0.1816-0.0166,0.3633-0.042,0.5439-0.0767c2.6216-0.4971,4.5239-2.7969,4.5239-5.4683c0-2.9019-2.231-5.292-5.0679-5.5454v3.9077
			h3.0337v3.2754H21.6699z"/>
	</g>
	<g>
		<rect x="18.1359" y="12.3647" style="fill:#FFFFFF;" width="6.0679" height="2.2755"/>
		<path d="M24.7036,15.1401h-7.0679v-3.2754h7.0679V15.1401z M18.6357,14.1401h5.0679v-1.2754h-5.0679V14.1401z"/>
	</g>
</g>
<polygon id="XMLID_1363_" style="opacity:0.5;fill:#2C6882;" points="234.6104,49.5239 1,42.354 234.6104,42.354 "/>
</svg>
