<?xml version="1.0" encoding="utf-8"?>
<!-- Generator: Adobe Illustrator 21.0.0, SVG Export Plug-In . SVG Version: 6.00 Build 0)  -->
<svg version="1.1" id="Capa_1" xmlns="http://www.w3.org/2000/svg" xmlns:xlink="http://www.w3.org/1999/xlink" x="0px" y="0px"
	 viewBox="0 0 233 29.5" style="enable-background:new 0 0 233 29.5;" xml:space="preserve">
<rect id="XMLID_134814_" style="opacity:0.8;fill:#2C6882;enable-background:new    ;" width="233" height="28"/>
<rect y="28.5" style="fill:#FFFFFF;" width="232" height="1"/>
<g>
	<g>
		<path style="fill:#FFFFFF;" d="M35.7,16.2h1.1v0.3c0,0.4,0,0.7-0.1,1s-0.2,0.5-0.4,0.7c-0.1,0.2-0.3,0.4-0.5,0.5
			c-0.2,0.2-0.4,0.3-0.6,0.5c-0.2,0.1-0.4,0.3-0.6,0.4c-0.2,0.2-0.4,0.3-0.5,0.5s-0.3,0.4-0.4,0.6s-0.1,0.5-0.1,0.8v0.2
			c0,0.3,0,0.5,0.1,0.7s0.2,0.4,0.4,0.6s0.4,0.3,0.6,0.4c0.2,0.1,0.5,0.2,0.7,0.2h0.2c0.3,0,0.5-0.1,0.7-0.2s0.4-0.2,0.6-0.4
			c0.2-0.2,0.3-0.4,0.4-0.6c0.1-0.2,0.1-0.5,0.1-0.7v-0.5l1.1,0.2v0.3c0,0.4-0.1,0.8-0.2,1.1c-0.2,0.4-0.4,0.7-0.6,0.9
			s-0.6,0.5-0.9,0.6s-0.7,0.2-1.1,0.2h-0.3c-0.4,0-0.8-0.1-1.1-0.2c-0.4-0.2-0.7-0.4-0.9-0.6s-0.5-0.6-0.6-0.9
			c-0.2-0.4-0.2-0.7-0.2-1.1v-0.2c0-0.4,0-0.7,0.1-1s0.2-0.5,0.4-0.8c0.1-0.2,0.3-0.4,0.5-0.6s0.4-0.3,0.6-0.5
			c0.2-0.1,0.4-0.3,0.6-0.4c0.2-0.1,0.4-0.3,0.5-0.5s0.3-0.4,0.4-0.6s0.1-0.5,0.1-0.7v-0.2H35.7z M36.9,12.6v1.3h-1.3v-1.3H36.9z"/>
		<path style="fill:#FFFFFF;" d="M47.3,19.5c-0.1,0.3-0.3,0.6-0.6,0.9s-0.5,0.5-0.9,0.6c-0.3,0.2-0.7,0.3-1.1,0.3l1.1,2.4h-1.1
			l-1.1-2.4c-0.4,0-0.8-0.1-1.1-0.2c-0.4-0.2-0.7-0.4-0.9-0.6s-0.5-0.6-0.6-0.9c-0.2-0.4-0.2-0.7-0.2-1.1V12c0-0.4,0.1-0.8,0.2-1.1
			c0.2-0.4,0.4-0.7,0.6-0.9s0.6-0.5,0.9-0.6c0.4-0.2,0.7-0.2,1.1-0.2h0.8c0.4,0,0.8,0.1,1.1,0.2s0.7,0.4,0.9,0.6s0.5,0.6,0.6,0.9
			c0.2,0.4,0.2,0.7,0.2,1.1v6.4C47.5,18.8,47.4,19.1,47.3,19.5z M46.4,12c0-0.3,0-0.5-0.1-0.7s-0.2-0.4-0.4-0.6s-0.4-0.3-0.6-0.4
			c-0.2-0.1-0.5-0.2-0.7-0.2h-0.7c-0.3,0-0.5,0.1-0.7,0.2c-0.2,0.1-0.4,0.2-0.6,0.4c-0.2,0.2-0.3,0.4-0.4,0.6s-0.1,0.5-0.1,0.7v6.4
			c0,0.3,0,0.5,0.1,0.7s0.2,0.4,0.4,0.6s0.4,0.3,0.6,0.4c0.2,0.1,0.5,0.1,0.7,0.1h0.7c0.3,0,0.5,0,0.7-0.1s0.4-0.2,0.6-0.4
			c0.2-0.2,0.3-0.4,0.4-0.6s0.1-0.5,0.1-0.7V12z"/>
		<path style="fill:#FFFFFF;" d="M55.1,21.1l-0.6-0.9c-0.2,0.3-0.5,0.6-0.9,0.8s-0.7,0.3-1.1,0.3h-0.3c-0.3,0-0.7-0.1-1-0.2
			s-0.6-0.3-0.8-0.5s-0.4-0.5-0.5-0.8s-0.2-0.6-0.2-1v-6.2h1v6.2c0,0.2,0,0.4,0.1,0.6s0.2,0.3,0.3,0.5c0.1,0.1,0.3,0.2,0.5,0.3
			c0.2,0.1,0.4,0.1,0.6,0.1h0.7c0.2,0,0.4,0,0.6-0.1c0.2-0.1,0.3-0.2,0.5-0.3c0.1-0.1,0.2-0.3,0.3-0.5s0.1-0.4,0.1-0.6v-6.2h1v8.5
			C55.4,21.1,55.1,21.1,55.1,21.1z"/>
		<path style="fill:#FFFFFF;" d="M62.9,19.8c-0.1,0.3-0.3,0.6-0.5,0.8s-0.5,0.4-0.8,0.5s-0.6,0.2-1,0.2h-0.7c-0.3,0-0.7-0.1-1-0.2
			s-0.6-0.3-0.8-0.5s-0.4-0.5-0.5-0.8s-0.2-0.6-0.2-1V15c0-0.3,0.1-0.7,0.2-1c0.1-0.3,0.3-0.6,0.5-0.8s0.5-0.4,0.8-0.5
			s0.6-0.2,1-0.2h0.7c0.3,0,0.7,0.1,1,0.2s0.6,0.3,0.8,0.5s0.4,0.5,0.5,0.8s0.2,0.6,0.2,1v2h-4.7v1.9c0,0.2,0,0.4,0.1,0.6
			s0.2,0.3,0.3,0.5c0.1,0.1,0.3,0.2,0.5,0.3c0.2,0.1,0.4,0.1,0.6,0.1h0.7c0.2,0,0.4,0,0.6-0.1c0.2-0.1,0.3-0.2,0.5-0.3
			c0.1-0.1,0.2-0.3,0.3-0.5s0.1-0.4,0.1-0.6v-0.6l1,0.2v0.3C63.1,19.2,63,19.5,62.9,19.8z M62.1,14.9c0-0.2,0-0.4-0.1-0.6
			s-0.2-0.3-0.3-0.5s-0.3-0.2-0.5-0.3s-0.4-0.1-0.6-0.1h-0.7c-0.2,0-0.4,0-0.6,0.1c-0.2,0.1-0.3,0.2-0.5,0.3s-0.2,0.3-0.3,0.5
			s-0.1,0.4-0.1,0.6v1.3H62v-1.3H62.1z M59.8,11.3H59l1.4-2h1.7L59.8,11.3z"/>
		<path style="fill:#FFFFFF;" d="M74.9,19c0,0.3-0.1,0.7-0.2,0.9c-0.1,0.3-0.3,0.5-0.6,0.7s-0.5,0.4-0.8,0.5s-0.6,0.2-1,0.2h-0.7
			c-0.3,0-0.7-0.1-1-0.2s-0.6-0.3-0.8-0.5c-0.2-0.2-0.4-0.5-0.6-0.8c-0.1-0.3-0.2-0.6-0.2-1v-0.3l1-0.2v0.6c0,0.2,0,0.4,0.1,0.6
			s0.2,0.3,0.3,0.5c0.1,0.1,0.3,0.2,0.5,0.3c0.2,0.1,0.4,0.1,0.6,0.1h0.7c0.2,0,0.4,0,0.6-0.1s0.4-0.1,0.5-0.3
			c0.1-0.1,0.3-0.3,0.3-0.4c0.1-0.2,0.1-0.3,0.1-0.5c0-0.3-0.1-0.6-0.2-0.7S73.2,18,73,17.9s-0.5-0.2-0.7-0.3
			c-0.3-0.1-0.6-0.2-0.9-0.3S71,17,70.7,16.9s-0.5-0.3-0.7-0.4c-0.2-0.2-0.4-0.4-0.5-0.7s-0.2-0.6-0.2-1c0-0.3,0.1-0.7,0.2-0.9
			s0.3-0.5,0.5-0.7s0.5-0.4,0.8-0.5s0.6-0.2,1-0.2h0.6c0.3,0,0.7,0.1,1,0.2s0.6,0.3,0.8,0.5s0.4,0.5,0.5,0.8s0.2,0.6,0.2,1l0,0
			l-1,0.2v-0.3c0-0.2,0-0.4-0.1-0.6s-0.2-0.3-0.3-0.5s-0.3-0.2-0.5-0.3s-0.4-0.1-0.6-0.1h-0.6c-0.2,0-0.4,0-0.6,0.1
			s-0.3,0.1-0.5,0.3s-0.2,0.3-0.3,0.4s-0.1,0.3-0.1,0.5c0,0.3,0.1,0.5,0.2,0.7s0.3,0.3,0.5,0.5c0.2,0.1,0.5,0.2,0.7,0.3
			c0.3,0.1,0.6,0.2,0.9,0.3c0.3,0.1,0.6,0.2,0.9,0.3c0.3,0.1,0.5,0.3,0.7,0.4c0.2,0.2,0.4,0.4,0.5,0.7C74.8,18.2,74.9,18.6,74.9,19z
			"/>
		<path style="fill:#FFFFFF;" d="M82.3,19.8c-0.1,0.3-0.3,0.6-0.5,0.8S81.3,21,81,21.1s-0.6,0.2-1,0.2h-0.7c-0.3,0-0.7-0.1-1-0.2
			s-0.6-0.3-0.8-0.5s-0.4-0.5-0.5-0.8s-0.2-0.6-0.2-1V15c0-0.3,0.1-0.7,0.2-1s0.3-0.6,0.5-0.8s0.5-0.4,0.8-0.5s0.6-0.2,1-0.2H80
			c0.3,0,0.7,0.1,1,0.2s0.6,0.3,0.8,0.5s0.4,0.5,0.5,0.8s0.2,0.6,0.2,1v2h-4.7v1.9c0,0.2,0,0.4,0.1,0.6s0.2,0.3,0.3,0.5
			c0.1,0.1,0.3,0.2,0.5,0.3c0.2,0.1,0.4,0.1,0.6,0.1H80c0.2,0,0.4,0,0.6-0.1s0.3-0.2,0.5-0.3c0.1-0.1,0.2-0.3,0.3-0.5
			s0.1-0.4,0.1-0.6v-0.6l1,0.2v0.3C82.5,19.2,82.5,19.5,82.3,19.8z M81.5,14.9c0-0.2,0-0.4-0.1-0.6s-0.2-0.3-0.3-0.5
			s-0.3-0.2-0.5-0.3s-0.4-0.1-0.6-0.1h-0.7c-0.2,0-0.4,0-0.6,0.1s-0.3,0.2-0.5,0.3s-0.2,0.3-0.3,0.5s-0.1,0.4-0.1,0.6v1.3h3.6v-1.3
			H81.5z"/>
		<path style="fill:#FFFFFF;" d="M94,19.8c-0.1,0.3-0.3,0.6-0.5,0.8S93,21,92.7,21.1s-0.6,0.2-1,0.2H91c-0.3,0-0.7-0.1-1-0.2
			s-0.6-0.3-0.8-0.5s-0.4-0.5-0.5-0.8s-0.2-0.6-0.2-1V15c0-0.3,0.1-0.7,0.2-1s0.3-0.6,0.5-0.8s0.5-0.4,0.8-0.5s0.6-0.2,1-0.2h0.7
			c0.3,0,0.7,0.1,1,0.2s0.6,0.3,0.8,0.5s0.4,0.5,0.5,0.8s0.2,0.6,0.2,1v2h-4.7v1.9c0,0.2,0,0.4,0.1,0.6s0.2,0.3,0.3,0.5
			c0.1,0.1,0.3,0.2,0.5,0.3c0.2,0.1,0.4,0.1,0.6,0.1h0.7c0.2,0,0.4,0,0.6-0.1s0.3-0.2,0.5-0.3c0.1-0.1,0.2-0.3,0.3-0.5
			s0.1-0.4,0.1-0.6v-0.6l1,0.2v0.3C94.2,19.2,94.1,19.5,94,19.8z M93.2,14.9c0-0.2,0-0.4-0.1-0.6s-0.2-0.3-0.3-0.5s-0.3-0.2-0.5-0.3
			s-0.4-0.1-0.6-0.1H91c-0.2,0-0.4,0-0.6,0.1s-0.3,0.2-0.5,0.3s-0.2,0.3-0.3,0.5s-0.1,0.4-0.1,0.6v1.3h3.6v-1.3H93.2z"/>
		<path style="fill:#FFFFFF;" d="M100.9,21.1v-6.2c0-0.2,0-0.4-0.1-0.6c-0.1-0.2-0.2-0.3-0.3-0.5s-0.3-0.2-0.5-0.3s-0.4-0.1-0.6-0.1
			h-0.7c-0.2,0-0.4,0-0.6,0.1s-0.3,0.2-0.5,0.3s-0.2,0.3-0.3,0.5s-0.1,0.4-0.1,0.6v6.2h-1v-8.5h0.3l0.6,0.9c0.2-0.3,0.5-0.6,0.9-0.8
			s0.7-0.3,1.1-0.3h0.3c0.3,0,0.7,0.1,1,0.2c0.3,0.1,0.6,0.3,0.8,0.5c0.2,0.2,0.4,0.5,0.5,0.8s0.2,0.6,0.2,1v6.2
			C101.9,21.1,100.9,21.1,100.9,21.1z"/>
		<path style="fill:#FFFFFF;" d="M107,21.1c-0.3,0-0.6-0.1-0.9-0.2s-0.5-0.3-0.7-0.5s-0.4-0.4-0.5-0.7c-0.1-0.3-0.2-0.6-0.2-0.9
			v-5.3h-1.5v-1h1.5v-2l1-0.2v2.2h2.2v1h-2.2v5.3c0,0.2,0,0.3,0.1,0.5s0.2,0.3,0.3,0.4c0.1,0.1,0.2,0.2,0.4,0.3
			c0.1,0.1,0.3,0.1,0.5,0.1h0.9v1C107.9,21.1,107,21.1,107,21.1z"/>
		<path style="fill:#FFFFFF;" d="M110.1,10.6V9.2h1.2v1.4C111.3,10.6,110.1,10.6,110.1,10.6z M110.2,21.1v-8.5h1v8.5H110.2z"/>
		<path style="fill:#FFFFFF;" d="M119.1,19.8c-0.1,0.3-0.3,0.6-0.5,0.8c-0.2,0.2-0.5,0.4-0.8,0.5s-0.6,0.2-1,0.2h-0.7
			c-0.3,0-0.7-0.1-1-0.2s-0.6-0.3-0.8-0.5c-0.2-0.2-0.4-0.5-0.5-0.8s-0.2-0.6-0.2-1V15c0-0.3,0.1-0.7,0.2-1s0.3-0.6,0.5-0.8
			s0.5-0.4,0.8-0.5s0.6-0.2,1-0.2h0.7c0.3,0,0.7,0.1,1,0.2c0.3,0.1,0.6,0.3,0.8,0.5c0.2,0.2,0.4,0.5,0.5,0.8s0.2,0.6,0.2,1v2h-4.7
			v1.9c0,0.2,0,0.4,0.1,0.6s0.2,0.3,0.3,0.5c0.1,0.1,0.3,0.2,0.5,0.3c0.2,0.1,0.4,0.1,0.6,0.1h0.7c0.2,0,0.4,0,0.6-0.1
			s0.3-0.2,0.5-0.3c0.1-0.1,0.2-0.3,0.3-0.5s0.1-0.4,0.1-0.6v-0.6l1,0.2v0.3C119.3,19.2,119.2,19.5,119.1,19.8z M118.2,14.9
			c0-0.2,0-0.4-0.1-0.6s-0.2-0.3-0.3-0.5s-0.3-0.2-0.5-0.3s-0.4-0.1-0.6-0.1H116c-0.2,0-0.4,0-0.6,0.1s-0.3,0.2-0.5,0.3
			s-0.2,0.3-0.3,0.5s-0.1,0.4-0.1,0.6v1.3h3.6v-1.3H118.2z"/>
		<path style="fill:#FFFFFF;" d="M126,21.1v-6.2c0-0.2,0-0.4-0.1-0.6s-0.2-0.3-0.3-0.5s-0.3-0.2-0.5-0.3s-0.4-0.1-0.6-0.1h-0.7
			c-0.2,0-0.4,0-0.6,0.1s-0.3,0.2-0.5,0.3s-0.2,0.3-0.3,0.5s-0.1,0.4-0.1,0.6v6.2h-1v-8.5h0.3l0.6,0.9c0.2-0.3,0.5-0.6,0.9-0.8
			s0.7-0.3,1.2-0.3h0.3c0.3,0,0.7,0.1,1,0.2c0.3,0.1,0.6,0.3,0.8,0.5c0.2,0.2,0.4,0.5,0.5,0.8s0.2,0.6,0.2,1v6.2
			C127.1,21.1,126,21.1,126,21.1z"/>
		<path style="fill:#FFFFFF;" d="M134.4,21.1l-0.6-0.9c-0.2,0.3-0.5,0.6-0.9,0.8c-0.3,0.2-0.7,0.3-1.1,0.3h-0.3
			c-0.3,0-0.7-0.1-1-0.2s-0.6-0.3-0.8-0.5s-0.4-0.5-0.5-0.8s-0.2-0.6-0.2-1V15c0-0.3,0.1-0.7,0.2-1s0.3-0.6,0.5-0.8s0.5-0.4,0.8-0.5
			s0.6-0.2,1-0.2h0.3c0.4,0,0.7,0.1,1.1,0.2c0.3,0.2,0.6,0.4,0.8,0.6V9.2h1v11.9C134.7,21.1,134.4,21.1,134.4,21.1z M133.7,14.9
			c0-0.2,0-0.4-0.1-0.6s-0.2-0.3-0.3-0.5s-0.3-0.2-0.5-0.3s-0.4-0.1-0.6-0.1h-0.7c-0.2,0-0.4,0-0.6,0.1s-0.3,0.2-0.5,0.3
			s-0.2,0.3-0.3,0.5s-0.1,0.4-0.1,0.6v4c0,0.2,0,0.4,0.1,0.6s0.2,0.3,0.3,0.5c0.1,0.1,0.3,0.2,0.5,0.3c0.2,0.1,0.4,0.1,0.6,0.1h0.7
			c0.2,0,0.4,0,0.6-0.1c0.2-0.1,0.3-0.2,0.5-0.3c0.1-0.1,0.2-0.3,0.3-0.5s0.1-0.4,0.1-0.6V14.9z"/>
		<path style="fill:#FFFFFF;" d="M142.2,19.8c-0.1,0.3-0.3,0.6-0.5,0.8c-0.2,0.2-0.5,0.4-0.8,0.5s-0.6,0.2-1,0.2h-0.7
			c-0.3,0-0.7-0.1-1-0.2s-0.6-0.3-0.8-0.5s-0.4-0.5-0.5-0.8s-0.2-0.6-0.2-1V15c0-0.3,0.1-0.7,0.2-1s0.3-0.6,0.5-0.8s0.5-0.4,0.8-0.5
			s0.6-0.2,1-0.2h0.7c0.3,0,0.7,0.1,1,0.2c0.3,0.1,0.6,0.3,0.8,0.5s0.4,0.5,0.5,0.8s0.2,0.6,0.2,1v2h-4.7v1.9c0,0.2,0,0.4,0.1,0.6
			s0.2,0.3,0.3,0.5c0.1,0.1,0.3,0.2,0.5,0.3c0.2,0.1,0.4,0.1,0.6,0.1h0.7c0.2,0,0.4,0,0.6-0.1c0.2-0.1,0.3-0.2,0.5-0.3
			c0.1-0.1,0.2-0.3,0.3-0.5s0.1-0.4,0.1-0.6v-0.6l1,0.2v0.3C142.4,19.2,142.4,19.5,142.2,19.8z M141.4,14.9c0-0.2,0-0.4-0.1-0.6
			s-0.2-0.3-0.3-0.5s-0.3-0.2-0.5-0.3s-0.4-0.1-0.6-0.1h-0.7c-0.2,0-0.4,0-0.6,0.1s-0.3,0.2-0.5,0.3s-0.2,0.3-0.3,0.5
			s-0.1,0.4-0.1,0.6v1.3h3.6v-1.3H141.4z"/>
		<path style="fill:#FFFFFF;" d="M153.9,19.8c-0.1,0.3-0.3,0.6-0.5,0.8c-0.2,0.2-0.5,0.4-0.8,0.5s-0.6,0.2-1,0.2h-0.3
			c-0.4,0-0.7-0.1-1.1-0.2c-0.3-0.2-0.6-0.4-0.8-0.6v4.1h-1v-12h0.3l0.6,0.9c0.2-0.3,0.5-0.6,0.9-0.8s0.7-0.3,1.2-0.3h0.3
			c0.3,0,0.7,0.1,1,0.2c0.3,0.1,0.6,0.3,0.8,0.5s0.4,0.5,0.5,0.8s0.2,0.6,0.2,1v3.8C154,19.2,154,19.5,153.9,19.8z M153,14.9
			c0-0.2,0-0.4-0.1-0.6s-0.2-0.3-0.3-0.5s-0.3-0.2-0.5-0.3s-0.4-0.1-0.6-0.1h-0.7c-0.2,0-0.4,0-0.6,0.1s-0.3,0.2-0.5,0.3
			s-0.2,0.3-0.3,0.5s-0.1,0.4-0.1,0.6v4c0,0.2,0,0.4,0.1,0.6s0.2,0.3,0.3,0.5c0.1,0.1,0.3,0.2,0.5,0.3c0.2,0.1,0.4,0.1,0.6,0.1h0.7
			c0.2,0,0.4,0,0.6-0.1c0.2-0.1,0.3-0.2,0.5-0.3c0.1-0.1,0.2-0.3,0.3-0.5s0.1-0.4,0.1-0.6V14.9z"/>
		<path style="fill:#FFFFFF;" d="M161.6,19.8c-0.1,0.3-0.3,0.6-0.5,0.8c-0.2,0.2-0.5,0.4-0.8,0.5s-0.6,0.2-1,0.2h-0.7
			c-0.3,0-0.7-0.1-1-0.2s-0.6-0.3-0.8-0.5s-0.4-0.5-0.5-0.8s-0.2-0.6-0.2-1V15c0-0.3,0.1-0.7,0.2-1s0.3-0.6,0.5-0.8s0.5-0.4,0.8-0.5
			s0.6-0.2,1-0.2h0.7c0.3,0,0.7,0.1,1,0.2c0.3,0.1,0.6,0.3,0.8,0.5s0.4,0.5,0.5,0.8s0.2,0.6,0.2,1v3.8
			C161.8,19.2,161.7,19.5,161.6,19.8z M160.7,14.9c0-0.2,0-0.4-0.1-0.6s-0.2-0.3-0.3-0.5s-0.3-0.2-0.5-0.3s-0.4-0.1-0.6-0.1h-0.7
			c-0.2,0-0.4,0-0.6,0.1s-0.3,0.2-0.5,0.3s-0.2,0.3-0.3,0.5s-0.1,0.4-0.1,0.6v4c0,0.2,0,0.4,0.1,0.6s0.2,0.3,0.3,0.5
			c0.1,0.1,0.3,0.2,0.5,0.3c0.2,0.1,0.4,0.1,0.6,0.1h0.7c0.2,0,0.4,0,0.6-0.1c0.2-0.1,0.3-0.2,0.5-0.3c0.1-0.1,0.2-0.3,0.3-0.5
			s0.1-0.4,0.1-0.6V14.9z"/>
		<path style="fill:#FFFFFF;" d="M166.3,13.6c-0.2,0-0.4,0-0.6,0.1c-0.2,0.1-0.3,0.2-0.5,0.3s-0.2,0.3-0.3,0.5s-0.1,0.4-0.1,0.6v6.1
			h-1v-8.5h0.3l0.6,0.9c0.2-0.3,0.5-0.6,0.9-0.8s0.7-0.3,1.2-0.3h0.6v1.1H166.3z"/>
		<path style="fill:#FFFFFF;" d="M178.1,19.8c-0.1,0.3-0.3,0.6-0.5,0.8c-0.2,0.2-0.5,0.4-0.8,0.5s-0.6,0.2-1,0.2h-0.7
			c-0.3,0-0.7-0.1-1-0.2s-0.6-0.3-0.8-0.5s-0.4-0.5-0.5-0.8s-0.2-0.6-0.2-1V15c0-0.3,0.1-0.7,0.2-1s0.3-0.6,0.5-0.8s0.5-0.4,0.8-0.5
			s0.6-0.2,1-0.2h0.7c0.3,0,0.7,0.1,1,0.2c0.3,0.1,0.6,0.3,0.8,0.5s0.4,0.5,0.5,0.8s0.2,0.6,0.2,1v0.3l-1,0.2v-0.6
			c0-0.2,0-0.4-0.1-0.6s-0.2-0.3-0.3-0.5s-0.3-0.2-0.5-0.3s-0.4-0.1-0.6-0.1h-0.7c-0.2,0-0.4,0-0.6,0.1s-0.3,0.2-0.5,0.3
			s-0.2,0.3-0.3,0.5s-0.1,0.4-0.1,0.6v4c0,0.2,0,0.4,0.1,0.6s0.2,0.3,0.3,0.5c0.1,0.1,0.3,0.2,0.5,0.3c0.2,0.1,0.4,0.1,0.6,0.1h0.7
			c0.2,0,0.4,0,0.6-0.1c0.2-0.1,0.3-0.2,0.5-0.3c0.1-0.1,0.2-0.3,0.3-0.5s0.1-0.4,0.1-0.6v-0.6l1,0.2v0.3
			C178.3,19.2,178.2,19.5,178.1,19.8z"/>
		<path style="fill:#FFFFFF;" d="M185.7,21.1l-0.6-0.8c-0.2,0.3-0.5,0.5-0.9,0.7c-0.3,0.2-0.7,0.3-1.1,0.3h-0.3
			c-0.3,0-0.7-0.1-1-0.2s-0.6-0.3-0.8-0.5s-0.4-0.5-0.5-0.8s-0.2-0.6-0.2-1v-0.1c0-0.3,0.1-0.7,0.2-1s0.3-0.6,0.5-0.8
			c0.2-0.2,0.5-0.4,0.8-0.5s0.6-0.2,1-0.2h2.2v-1.3c0-0.2,0-0.4-0.1-0.6s-0.2-0.3-0.3-0.5s-0.3-0.2-0.5-0.3s-0.4-0.1-0.6-0.1h-0.6
			c-0.2,0-0.4,0-0.6,0.1s-0.3,0.2-0.5,0.3s-0.2,0.3-0.3,0.5s-0.1,0.4-0.1,0.6v0.3l-1-0.2v0c0-0.3,0.1-0.7,0.2-1s0.3-0.6,0.5-0.8
			s0.5-0.4,0.8-0.5s0.6-0.2,1-0.2h0.6c0.3,0,0.7,0.1,1,0.2c0.3,0.1,0.6,0.3,0.8,0.5s0.4,0.5,0.5,0.8s0.2,0.6,0.2,1v6.2h-0.3V21.1z
			 M185,17h-2.2c-0.2,0-0.4,0-0.6,0.1s-0.3,0.2-0.5,0.3s-0.2,0.3-0.3,0.5s-0.1,0.4-0.1,0.6v0.4c0,0.2,0,0.4,0.1,0.6s0.2,0.3,0.3,0.5
			c0.1,0.1,0.3,0.2,0.5,0.3c0.2,0.1,0.4,0.1,0.6,0.1h0.7c0.2,0,0.4,0,0.6-0.1c0.2-0.1,0.3-0.2,0.5-0.3c0.1-0.1,0.2-0.3,0.3-0.5
			s0.1-0.4,0.1-0.6L185,17L185,17z"/>
		<path style="fill:#FFFFFF;" d="M188.4,21.1V9.2h1v11.9C189.4,21.1,188.4,21.1,188.4,21.1z"/>
		<path style="fill:#FFFFFF;" d="M192,10.6V9.2h1.2v1.4C193.2,10.6,192,10.6,192,10.6z M192.1,21.1v-8.5h1v8.5H192.1z"/>
		<path style="fill:#FFFFFF;" d="M200.9,21.1l-0.6-0.9c-0.2,0.3-0.5,0.6-0.9,0.8c-0.3,0.2-0.7,0.3-1.1,0.3H198c-0.3,0-0.7-0.1-1-0.2
			s-0.6-0.3-0.8-0.5s-0.4-0.5-0.5-0.8s-0.2-0.6-0.2-1V15c0-0.3,0.1-0.7,0.2-1s0.3-0.6,0.5-0.8s0.5-0.4,0.8-0.5s0.6-0.2,1-0.2h0.3
			c0.4,0,0.7,0.1,1.1,0.2c0.3,0.2,0.6,0.4,0.8,0.6V9.2h1v11.9C201.2,21.1,200.9,21.1,200.9,21.1z M200.2,14.9c0-0.2,0-0.4-0.1-0.6
			s-0.2-0.3-0.3-0.5s-0.3-0.2-0.5-0.3s-0.4-0.1-0.6-0.1H198c-0.2,0-0.4,0-0.6,0.1s-0.3,0.2-0.5,0.3s-0.2,0.3-0.3,0.5
			s-0.1,0.4-0.1,0.6v4c0,0.2,0,0.4,0.1,0.6s0.2,0.3,0.3,0.5c0.1,0.1,0.3,0.2,0.5,0.3c0.2,0.1,0.4,0.1,0.6,0.1h0.7
			c0.2,0,0.4,0,0.6-0.1c0.2-0.1,0.3-0.2,0.5-0.3c0.1-0.1,0.2-0.3,0.3-0.5s0.1-0.4,0.1-0.6L200.2,14.9L200.2,14.9z"/>
		<path style="fill:#FFFFFF;" d="M208.6,21.1l-0.6-0.8c-0.2,0.3-0.5,0.5-0.9,0.7c-0.3,0.2-0.7,0.3-1.1,0.3h-0.3
			c-0.3,0-0.7-0.1-1-0.2s-0.6-0.3-0.8-0.5s-0.4-0.5-0.5-0.8s-0.2-0.6-0.2-1v-0.1c0-0.3,0.1-0.7,0.2-1s0.3-0.6,0.5-0.8
			c0.2-0.2,0.5-0.4,0.8-0.5s0.6-0.2,1-0.2h2.2v-1.3c0-0.2,0-0.4-0.1-0.6s-0.2-0.3-0.3-0.5s-0.3-0.2-0.5-0.3s-0.4-0.1-0.6-0.1h-0.6
			c-0.2,0-0.4,0-0.6,0.1s-0.3,0.2-0.5,0.3s-0.2,0.3-0.3,0.5s-0.1,0.4-0.1,0.6v0.3l-1-0.2v0c0-0.3,0.1-0.7,0.2-1s0.3-0.6,0.5-0.8
			s0.5-0.4,0.8-0.5s0.6-0.2,1-0.2h0.6c0.3,0,0.7,0.1,1,0.2c0.3,0.1,0.6,0.3,0.8,0.5s0.4,0.5,0.5,0.8s0.2,0.6,0.2,1v6.2h-0.3V21.1z
			 M207.9,17h-2.2c-0.2,0-0.4,0-0.6,0.1s-0.3,0.2-0.5,0.3s-0.2,0.3-0.3,0.5s-0.1,0.4-0.1,0.6v0.4c0,0.2,0,0.4,0.1,0.6
			s0.2,0.3,0.3,0.5c0.1,0.1,0.3,0.2,0.5,0.3c0.2,0.1,0.4,0.1,0.6,0.1h0.7c0.2,0,0.4,0,0.6-0.1c0.2-0.1,0.3-0.2,0.5-0.3
			c0.1-0.1,0.2-0.3,0.3-0.5s0.1-0.4,0.1-0.6L207.9,17L207.9,17z"/>
		<path style="fill:#FFFFFF;" d="M216.3,21.1l-0.6-0.9c-0.2,0.3-0.5,0.6-0.9,0.8c-0.3,0.2-0.7,0.3-1.1,0.3h-0.3
			c-0.3,0-0.7-0.1-1-0.2s-0.6-0.3-0.8-0.5s-0.4-0.5-0.5-0.8s-0.2-0.6-0.2-1V15c0-0.3,0.1-0.7,0.2-1s0.3-0.6,0.5-0.8s0.5-0.4,0.8-0.5
			s0.6-0.2,1-0.2h0.3c0.4,0,0.7,0.1,1.1,0.2c0.3,0.2,0.6,0.4,0.8,0.6V9.2h1v11.9C216.6,21.1,216.3,21.1,216.3,21.1z M215.6,14.9
			c0-0.2,0-0.4-0.1-0.6s-0.2-0.3-0.3-0.5s-0.3-0.2-0.5-0.3s-0.4-0.1-0.6-0.1h-0.7c-0.2,0-0.4,0-0.6,0.1s-0.3,0.2-0.5,0.3
			s-0.2,0.3-0.3,0.5s-0.1,0.4-0.1,0.6v4c0,0.2,0,0.4,0.1,0.6s0.2,0.3,0.3,0.5c0.1,0.1,0.3,0.2,0.5,0.3c0.2,0.1,0.4,0.1,0.6,0.1h0.7
			c0.2,0,0.4,0,0.6-0.1c0.2-0.1,0.3-0.2,0.5-0.3c0.1-0.1,0.2-0.3,0.3-0.5s0.1-0.4,0.1-0.6V14.9z"/>
		<path style="fill:#FFFFFF;" d="M221.6,17.5h-1.1v-0.3c0-0.4,0-0.7,0.1-1s0.2-0.5,0.4-0.7s0.3-0.4,0.5-0.5s0.4-0.3,0.6-0.5
			s0.4-0.3,0.6-0.4c0.2-0.2,0.4-0.3,0.5-0.5s0.3-0.4,0.4-0.6c0.1-0.2,0.1-0.5,0.1-0.8V12c0-0.3-0.1-0.5-0.2-0.7s-0.2-0.4-0.4-0.6
			c-0.2-0.2-0.4-0.3-0.6-0.4s-0.5-0.2-0.7-0.2h-0.2c-0.3,0-0.5,0.1-0.7,0.2s-0.4,0.2-0.6,0.4c-0.2,0.2-0.3,0.4-0.4,0.6
			s-0.1,0.5-0.1,0.7v0.5l-1.1-0.2V12c0-0.4,0.1-0.8,0.2-1.1c0.2-0.4,0.4-0.7,0.6-0.9s0.6-0.5,0.9-0.6c0.4-0.2,0.7-0.2,1.1-0.2h0.3
			c0.4,0,0.8,0.1,1.1,0.2c0.4,0.2,0.7,0.4,0.9,0.6s0.5,0.6,0.6,0.9c0.2,0.4,0.2,0.7,0.2,1.1v0.2c0,0.4,0,0.7-0.1,1s-0.2,0.5-0.4,0.8
			s-0.3,0.4-0.5,0.6c-0.2,0.2-0.4,0.3-0.6,0.5c-0.2,0.1-0.4,0.3-0.6,0.4s-0.4,0.3-0.5,0.5c-0.1,0.2-0.3,0.4-0.4,0.6
			c-0.1,0.2-0.1,0.5-0.1,0.7v0.2H221.6z M220.4,21.1v-1.3h1.3v1.3H220.4z"/>
	</g>
</g>
<circle style="fill:#2C4D67;stroke:#FFFFFF;stroke-miterlimit:10;" cx="20.8" cy="15.2" r="2.3"/>
</svg>
