<?xml version="1.0" encoding="utf-8"?>
<!-- Generator: Adobe Illustrator 21.0.0, SVG Export Plug-In . SVG Version: 6.00 Build 0)  -->
<svg version="1.1" id="Capa_1" xmlns="http://www.w3.org/2000/svg" xmlns:xlink="http://www.w3.org/1999/xlink" x="0px" y="0px"
	 viewBox="0 0 232 28" style="enable-background:new 0 0 232 28;" xml:space="preserve">
<rect id="XMLID_10_" style="opacity:0.8;fill:#2C6882;enable-background:new    ;" width="232" height="28"/>
<g>
	<g>
		<path style="fill:#FFFFFF;" d="M34.7,13.8h1.1v0.3c0,0.4,0,0.7-0.1,1s-0.2,0.5-0.4,0.7c-0.1,0.2-0.3,0.4-0.5,0.5
			c-0.2,0.2-0.4,0.3-0.6,0.5c-0.2,0.1-0.4,0.3-0.6,0.4c-0.2,0.2-0.4,0.3-0.5,0.5s-0.3,0.4-0.4,0.6s-0.1,0.5-0.1,0.8v0.2
			c0,0.3,0,0.5,0.1,0.7s0.2,0.4,0.4,0.6s0.4,0.3,0.6,0.4c0.2,0.1,0.5,0.2,0.7,0.2h0.2c0.3,0,0.5-0.1,0.7-0.2s0.4-0.2,0.6-0.4
			c0.2-0.2,0.3-0.4,0.4-0.6s0.1-0.5,0.1-0.7v-0.5l1.1,0.2v0.3c0,0.4-0.1,0.8-0.2,1.1c-0.2,0.4-0.4,0.7-0.6,0.9S36.3,21.9,36,22
			s-0.7,0.2-1.1,0.2h-0.3c-0.4,0-0.8-0.1-1.1-0.2c-0.4-0.2-0.7-0.4-0.9-0.6s-0.5-0.6-0.6-0.9c-0.2-0.4-0.2-0.7-0.2-1.1v-0.2
			c0-0.4,0-0.7,0.1-1s0.2-0.5,0.4-0.8c0.1-0.2,0.3-0.4,0.5-0.6s0.4-0.3,0.6-0.5c0.2-0.1,0.4-0.3,0.6-0.4c0.2-0.1,0.4-0.3,0.5-0.5
			s0.3-0.4,0.4-0.6c0.1-0.2,0.1-0.5,0.1-0.7v-0.3H34.7z M35.9,10.2v1.3h-1.3v-1.3H35.9z"/>
		<path style="fill:#FFFFFF;" d="M46.3,17c-0.1,0.3-0.3,0.6-0.6,0.9c-0.2,0.3-0.5,0.5-0.9,0.6c-0.3,0.2-0.7,0.3-1.1,0.3l1.1,2.4
			h-1.1l-1.1-2.4c-0.4,0-0.8-0.1-1.1-0.2c-0.4-0.2-0.7-0.4-0.9-0.6s-0.5-0.6-0.6-0.9c-0.2-0.4-0.2-0.7-0.2-1.1V9.5
			c0-0.4,0.1-0.8,0.2-1.1c0.2-0.4,0.4-0.7,0.6-0.9s0.6-0.5,0.9-0.6c0.4-0.2,0.7-0.2,1.1-0.2h0.8c0.4,0,0.8,0.1,1.1,0.2
			s0.7,0.4,0.9,0.6s0.5,0.6,0.6,0.9c0.2,0.4,0.2,0.7,0.2,1.1v6.4C46.5,16.3,46.4,16.7,46.3,17z M45.4,9.5c0-0.3,0-0.5-0.1-0.7
			S45,8.4,44.9,8.2s-0.4-0.3-0.6-0.4c-0.2-0.1-0.5-0.2-0.7-0.2h-0.7c-0.3,0-0.5,0.1-0.7,0.2S41.8,8,41.6,8.2
			c-0.2,0.2-0.3,0.4-0.4,0.6s-0.1,0.5-0.1,0.7v6.4c0,0.3,0,0.5,0.1,0.7s0.2,0.4,0.4,0.6s0.4,0.3,0.6,0.4c0.2,0.1,0.5,0.1,0.7,0.1
			h0.7c0.3,0,0.5,0,0.7-0.1s0.4-0.2,0.6-0.4c0.2-0.2,0.3-0.4,0.4-0.6s0.1-0.5,0.1-0.7V9.5z"/>
		<path style="fill:#FFFFFF;" d="M54.1,18.7l-0.6-0.9c-0.2,0.3-0.5,0.6-0.9,0.8s-0.7,0.3-1.1,0.3h-0.3c-0.3,0-0.7-0.1-1-0.2
			s-0.6-0.3-0.8-0.5s-0.4-0.5-0.5-0.8s-0.2-0.6-0.2-1v-6.2h1v6.2c0,0.2,0,0.4,0.1,0.6s0.2,0.3,0.3,0.5s0.3,0.2,0.5,0.3
			c0.2,0.1,0.4,0.1,0.6,0.1h0.7c0.2,0,0.4,0,0.6-0.1c0.2-0.1,0.3-0.2,0.5-0.3s0.2-0.3,0.3-0.5s0.1-0.4,0.1-0.6v-6.2h1v8.5H54.1z"/>
		<path style="fill:#FFFFFF;" d="M61.9,17.3c-0.1,0.3-0.3,0.6-0.5,0.8s-0.5,0.4-0.8,0.5s-0.6,0.2-1,0.2h-0.7c-0.3,0-0.7-0.1-1-0.2
			s-0.6-0.3-0.8-0.5s-0.4-0.5-0.5-0.8s-0.2-0.6-0.2-1v-3.8c0-0.3,0.1-0.7,0.2-1c0.1-0.3,0.3-0.6,0.5-0.8s0.5-0.4,0.8-0.5
			s0.6-0.2,1-0.2h0.7c0.3,0,0.7,0.1,1,0.2s0.6,0.3,0.8,0.5s0.4,0.5,0.5,0.8s0.2,0.6,0.2,1v2h-4.7v1.9c0,0.2,0,0.4,0.1,0.6
			s0.2,0.3,0.3,0.5s0.3,0.2,0.5,0.3c0.2,0.1,0.4,0.1,0.6,0.1h0.7c0.2,0,0.4,0,0.6-0.1c0.2-0.1,0.3-0.2,0.5-0.3s0.2-0.3,0.3-0.5
			s0.1-0.4,0.1-0.6v-0.6l1,0.2v0.3C62.1,16.7,62,17,61.9,17.3z M61.1,12.5c0-0.2,0-0.4-0.1-0.6s-0.2-0.3-0.3-0.5s-0.3-0.2-0.5-0.3
			C60,11,59.8,11,59.6,11h-0.7c-0.2,0-0.4,0-0.6,0.1c-0.2,0.1-0.3,0.2-0.5,0.3s-0.2,0.3-0.3,0.5s-0.1,0.4-0.1,0.6v1.3H61v-1.3H61.1z
			 M58.8,8.8H58l1.4-2h1.7L58.8,8.8z"/>
		<path style="fill:#FFFFFF;" d="M73.5,17.3c-0.1,0.3-0.3,0.6-0.5,0.8s-0.5,0.4-0.8,0.5s-0.6,0.2-1,0.2h-0.7c-0.3,0-0.7-0.1-1-0.2
			s-0.6-0.3-0.8-0.5s-0.4-0.5-0.5-0.8s-0.2-0.6-0.2-1v-3.8c0-0.3,0.1-0.7,0.2-1s0.3-0.6,0.5-0.8s0.5-0.4,0.8-0.5s0.6-0.2,1-0.2h0.7
			c0.3,0,0.7,0.1,1,0.2s0.6,0.3,0.8,0.5s0.4,0.5,0.5,0.8s0.2,0.6,0.2,1v2H69v1.9c0,0.2,0,0.4,0.1,0.6s0.2,0.3,0.3,0.5
			s0.3,0.2,0.5,0.3c0.2,0.1,0.4,0.1,0.6,0.1h0.7c0.2,0,0.4,0,0.6-0.1s0.3-0.2,0.5-0.3s0.2-0.3,0.3-0.5s0.1-0.4,0.1-0.6v-0.6l1,0.2
			v0.3C73.7,16.7,73.7,17,73.5,17.3z M72.7,12.5c0-0.2,0-0.4-0.1-0.6s-0.2-0.3-0.3-0.5s-0.3-0.2-0.5-0.3C71.6,11,71.4,11,71.2,11
			h-0.7c-0.2,0-0.4,0-0.6,0.1s-0.3,0.2-0.5,0.3s-0.2,0.3-0.3,0.5S69,12.3,69,12.5v1.3h3.6v-1.3H72.7z"/>
		<path style="fill:#FFFFFF;" d="M81.6,16.5c0,0.3-0.1,0.7-0.2,0.9s-0.3,0.5-0.6,0.7s-0.5,0.4-0.8,0.5s-0.6,0.2-1,0.2h-0.7
			c-0.3,0-0.7-0.1-1-0.2s-0.6-0.3-0.8-0.5c-0.2-0.2-0.4-0.5-0.6-0.8c-0.1-0.3-0.2-0.6-0.2-1V16l1-0.2v0.6c0,0.2,0,0.4,0.1,0.6
			s0.2,0.3,0.3,0.5s0.3,0.2,0.5,0.3s0.4,0.1,0.6,0.1H79c0.2,0,0.4,0,0.6-0.1s0.4-0.1,0.5-0.3c0.1-0.1,0.3-0.3,0.3-0.4
			c0.1-0.2,0.1-0.3,0.1-0.5c0-0.3-0.1-0.6-0.2-0.7s-0.3-0.4-0.5-0.5s-0.5-0.2-0.7-0.3c-0.3-0.1-0.6-0.2-0.9-0.3s-0.6-0.2-0.9-0.3
			s-0.5-0.3-0.7-0.4c-0.2-0.2-0.4-0.4-0.5-0.7s-0.2-0.6-0.2-1c0-0.3,0.1-0.7,0.2-0.9s0.3-0.5,0.5-0.7s0.5-0.4,0.8-0.5s0.6-0.2,1-0.2
			H79c0.3,0,0.7,0.1,1,0.2s0.6,0.3,0.8,0.5s0.4,0.5,0.5,0.8s0.2,0.6,0.2,1l0,0l-1,0.2v-0.3c0-0.2,0-0.4-0.1-0.6s-0.2-0.3-0.3-0.5
			s-0.3-0.2-0.5-0.3S79.2,11,79,11h-0.6c-0.2,0-0.4,0-0.6,0.1s-0.3,0.1-0.5,0.3s-0.2,0.3-0.3,0.4s0,0.3,0,0.5c0,0.3,0.1,0.5,0.2,0.7
			s0.3,0.3,0.5,0.5c0.2,0.1,0.5,0.2,0.7,0.3c0.3,0.1,0.6,0.2,0.9,0.3s0.6,0.2,0.9,0.3s0.5,0.3,0.7,0.4c0.2,0.2,0.4,0.4,0.5,0.7
			C81.6,15.8,81.6,16.1,81.6,16.5z"/>
		<path style="fill:#FFFFFF;" d="M93,17.3c-0.1,0.3-0.3,0.6-0.5,0.8s-0.5,0.4-0.8,0.5s-0.6,0.2-1,0.2H90c-0.3,0-0.7-0.1-1-0.2
			s-0.6-0.3-0.8-0.5s-0.4-0.5-0.5-0.8s-0.2-0.6-0.2-1v-3.8c0-0.3,0.1-0.7,0.2-1s0.3-0.6,0.5-0.8s0.5-0.4,0.8-0.5s0.6-0.2,1-0.2h0.7
			c0.3,0,0.7,0.1,1,0.2s0.6,0.3,0.8,0.5s0.4,0.5,0.5,0.8s0.2,0.6,0.2,1v0.3l-1,0.2v-0.6c0-0.2,0-0.4-0.1-0.6s-0.2-0.3-0.3-0.5
			s-0.3-0.2-0.5-0.3c-0.2,0-0.4,0-0.6,0H90c-0.2,0-0.4,0-0.6,0.1s-0.3,0.2-0.5,0.3s-0.2,0.3-0.3,0.5s-0.1,0.4-0.1,0.6v4
			c0,0.2,0,0.4,0.1,0.6s0.2,0.3,0.3,0.5s0.3,0.2,0.5,0.3C89.6,18,89.8,18,90,18h0.7c0.2,0,0.4,0,0.6-0.1s0.3-0.2,0.5-0.3
			S92,17.2,92,17s0.1-0.4,0.1-0.6v-0.6l1,0.2v0.3C93.2,16.7,93.1,17,93,17.3z"/>
		<path style="fill:#FFFFFF;" d="M100.6,18.7l-0.6-0.8c-0.2,0.3-0.5,0.5-0.9,0.7c-0.3,0.2-0.7,0.3-1.1,0.3h-0.3
			c-0.3,0-0.7-0.1-1-0.2s-0.6-0.3-0.8-0.5s-0.4-0.5-0.5-0.8s-0.2-0.6-0.2-1v-0.1c0-0.3,0.1-0.7,0.2-1s0.3-0.6,0.5-0.8
			s0.5-0.4,0.8-0.5s0.6-0.2,1-0.2h2.2v-1.3c0-0.2,0-0.4-0.1-0.6c-0.1-0.2-0.2-0.3-0.3-0.5s-0.3-0.2-0.5-0.3C98.8,11,98.6,11,98.4,11
			h-0.6c-0.2,0-0.4,0-0.6,0.1s-0.3,0.2-0.5,0.3s-0.2,0.3-0.3,0.5s-0.1,0.4-0.1,0.6v0.3l-1-0.2v-0.1c0-0.3,0.1-0.7,0.2-1
			s0.3-0.6,0.5-0.8s0.5-0.4,0.8-0.5s0.6-0.2,1-0.2h0.6c0.3,0,0.7,0.1,1,0.2c0.3,0.1,0.6,0.3,0.8,0.5c0.2,0.2,0.4,0.5,0.5,0.8
			s0.2,0.6,0.2,1v6.2H100.6z M99.9,14.6h-2.2c-0.2,0-0.4,0-0.6,0.1s-0.3,0.2-0.5,0.3c-0.1,0.1-0.2,0.3-0.3,0.5s-0.1,0.4-0.1,0.6v0.4
			c0,0.2,0,0.4,0.1,0.6s0.2,0.3,0.3,0.5s0.3,0.2,0.5,0.3c0.2,0.1,0.4,0.1,0.6,0.1h0.7c0.2,0,0.4,0,0.6-0.1s0.3-0.2,0.5-0.3
			s0.2-0.3,0.3-0.5c0.1-0.2,0.1-0.4,0.1-0.6V14.6z"/>
		<path style="fill:#FFFFFF;" d="M103.3,18.7V6.8h1v11.9H103.3z"/>
		<path style="fill:#FFFFFF;" d="M106.9,8.2V6.8h1.2v1.4H106.9z M107,18.7v-8.5h1v8.5H107z"/>
		<path style="fill:#FFFFFF;" d="M115.8,18.7l-0.6-0.9c-0.2,0.3-0.5,0.6-0.9,0.8c-0.3,0.2-0.7,0.3-1.1,0.3h-0.3
			c-0.3,0-0.7-0.1-1-0.2s-0.6-0.3-0.8-0.5c-0.2-0.2-0.4-0.5-0.5-0.8s-0.2-0.6-0.2-1v-3.8c0-0.3,0.1-0.7,0.2-1s0.3-0.6,0.5-0.8
			s0.5-0.4,0.8-0.5s0.6-0.2,1-0.2h0.3c0.4,0,0.7,0.1,1.1,0.2c0.3,0.2,0.6,0.4,0.8,0.6V6.8h1v11.9H115.8z M115.1,12.5
			c0-0.2,0-0.4-0.1-0.6s-0.2-0.3-0.3-0.5s-0.3-0.2-0.5-0.3s-0.4-0.1-0.6-0.1h-0.7c-0.2,0-0.4,0-0.6,0.1s-0.3,0.2-0.5,0.3
			s-0.2,0.3-0.3,0.5s-0.1,0.4-0.1,0.6v4c0,0.2,0,0.4,0.1,0.6s0.2,0.3,0.3,0.5s0.3,0.2,0.5,0.3s0.4,0.1,0.6,0.1h0.7
			c0.2,0,0.4,0,0.6-0.1s0.3-0.2,0.5-0.3s0.2-0.3,0.3-0.5s0.1-0.4,0.1-0.6V12.5z"/>
		<path style="fill:#FFFFFF;" d="M123.5,18.7l-0.6-0.8c-0.2,0.3-0.5,0.5-0.9,0.7c-0.3,0.2-0.7,0.3-1.1,0.3h-0.3
			c-0.3,0-0.7-0.1-1-0.2s-0.6-0.3-0.8-0.5c-0.2-0.2-0.4-0.5-0.5-0.8s-0.2-0.6-0.2-1v-0.1c0-0.3,0.1-0.7,0.2-1s0.3-0.6,0.5-0.8
			s0.5-0.4,0.8-0.5s0.6-0.2,1-0.2h2.2v-1.3c0-0.2,0-0.4-0.1-0.6s-0.2-0.3-0.3-0.5s-0.3-0.2-0.5-0.3s-0.4-0.1-0.6-0.1h-0.6
			c-0.2,0-0.4,0-0.6,0.1s-0.3,0.2-0.5,0.3s-0.2,0.3-0.3,0.5s-0.1,0.4-0.1,0.6v0.3l-1-0.2v-0.1c0-0.3,0.1-0.7,0.2-1s0.3-0.6,0.5-0.8
			s0.5-0.4,0.8-0.5s0.6-0.2,1-0.2h0.6c0.3,0,0.7,0.1,1,0.2c0.3,0.1,0.6,0.3,0.8,0.5c0.2,0.2,0.4,0.5,0.5,0.8s0.2,0.6,0.2,1v6.2
			H123.5z M122.8,14.6h-2.2c-0.2,0-0.4,0-0.6,0.1s-0.3,0.2-0.5,0.3c-0.1,0.1-0.2,0.3-0.3,0.5s-0.1,0.4-0.1,0.6v0.4
			c0,0.2,0,0.4,0.1,0.6s0.2,0.3,0.3,0.5s0.3,0.2,0.5,0.3s0.4,0.1,0.6,0.1h0.7c0.2,0,0.4,0,0.6-0.1s0.3-0.2,0.5-0.3s0.2-0.3,0.3-0.5
			s0.1-0.4,0.1-0.6V14.6z"/>
		<path style="fill:#FFFFFF;" d="M131.2,18.7l-0.6-0.9c-0.2,0.3-0.5,0.6-0.9,0.8c-0.3,0.2-0.7,0.3-1.1,0.3h-0.3
			c-0.3,0-0.7-0.1-1-0.2s-0.6-0.3-0.8-0.5c-0.2-0.2-0.4-0.5-0.5-0.8s-0.2-0.6-0.2-1v-3.8c0-0.3,0.1-0.7,0.2-1s0.3-0.6,0.5-0.8
			s0.5-0.4,0.8-0.5s0.6-0.2,1-0.2h0.3c0.4,0,0.7,0.1,1.1,0.2c0.3,0.2,0.6,0.4,0.8,0.6V6.8h1v11.9H131.2z M130.5,12.5
			c0-0.2,0-0.4-0.1-0.6s-0.2-0.3-0.3-0.5s-0.3-0.2-0.5-0.3S129.2,11,129,11h-0.7c-0.2,0-0.4,0-0.6,0.1s-0.3,0.2-0.5,0.3
			s-0.2,0.3-0.3,0.5s-0.1,0.4-0.1,0.6v4c0,0.2,0,0.4,0.1,0.6s0.2,0.3,0.3,0.5s0.3,0.2,0.5,0.3s0.4,0.1,0.6,0.1h0.7
			c0.2,0,0.4,0,0.6-0.1s0.3-0.2,0.5-0.3s0.2-0.3,0.3-0.5s0.1-0.4,0.1-0.6L130.5,12.5L130.5,12.5z"/>
		<path style="fill:#FFFFFF;" d="M142.8,18.7l-0.6-0.9c-0.2,0.3-0.5,0.6-0.9,0.8c-0.3,0.2-0.7,0.3-1.1,0.3H140c-0.3,0-0.7-0.1-1-0.2
			s-0.6-0.3-0.8-0.5s-0.4-0.5-0.5-0.8s-0.2-0.6-0.2-1v-3.8c0-0.3,0.1-0.7,0.2-1s0.3-0.6,0.5-0.8s0.5-0.4,0.8-0.5s0.6-0.2,1-0.2h0.3
			c0.4,0,0.7,0.1,1.1,0.2c0.3,0.2,0.6,0.4,0.8,0.6V6.8h1v11.9H142.8z M142.1,12.5c0-0.2,0-0.4-0.1-0.6s-0.2-0.3-0.3-0.5
			s-0.3-0.2-0.5-0.3s-0.4-0.1-0.6-0.1H140c-0.2,0-0.4,0-0.6,0.1s-0.3,0.2-0.5,0.3s-0.2,0.3-0.3,0.5s-0.1,0.4-0.1,0.6v4
			c0,0.2,0,0.4,0.1,0.6s0.2,0.3,0.3,0.5s0.3,0.2,0.5,0.3s0.4,0.1,0.6,0.1h0.7c0.2,0,0.4,0,0.6-0.1s0.3-0.2,0.5-0.3s0.2-0.3,0.3-0.5
			s0.1-0.4,0.1-0.6v-4H142.1z"/>
		<path style="fill:#FFFFFF;" d="M150.7,17.3c-0.1,0.3-0.3,0.6-0.5,0.8c-0.2,0.2-0.5,0.4-0.8,0.5s-0.6,0.2-1,0.2h-0.7
			c-0.3,0-0.7-0.1-1-0.2s-0.6-0.3-0.8-0.5s-0.4-0.5-0.5-0.8s-0.2-0.6-0.2-1v-3.8c0-0.3,0.1-0.7,0.2-1s0.3-0.6,0.5-0.8
			s0.5-0.4,0.8-0.5s0.6-0.2,1-0.2h0.7c0.3,0,0.7,0.1,1,0.2c0.3,0.1,0.6,0.3,0.8,0.5s0.4,0.5,0.5,0.8s0.2,0.6,0.2,1v2h-4.7v1.9
			c0,0.2,0,0.4,0.1,0.6s0.2,0.3,0.3,0.5s0.3,0.2,0.5,0.3s0.4,0.1,0.6,0.1h0.7c0.2,0,0.4,0,0.6-0.1s0.3-0.2,0.5-0.3s0.2-0.3,0.3-0.5
			s0.1-0.4,0.1-0.6v-0.6l1,0.2v0.3C150.9,16.7,150.8,17,150.7,17.3z M149.9,12.5c0-0.2,0-0.4-0.1-0.6s-0.2-0.3-0.3-0.5
			s-0.3-0.2-0.5-0.3s-0.4-0.1-0.6-0.1h-0.7c-0.2,0-0.4,0-0.6,0.1s-0.3,0.2-0.5,0.3s-0.2,0.3-0.3,0.5s-0.1,0.4-0.1,0.6v1.3h3.6v-1.3
			H149.9z"/>
		<path style="fill:#FFFFFF;" d="M153.3,18.7V6.8h1v11.9H153.3z"/>
		<path style="fill:#FFFFFF;" d="M166.4,16.5c0,0.3-0.1,0.7-0.2,0.9s-0.3,0.5-0.6,0.7s-0.5,0.4-0.8,0.5s-0.6,0.2-1,0.2h-0.7
			c-0.3,0-0.7-0.1-1-0.2s-0.6-0.3-0.8-0.5s-0.4-0.5-0.6-0.8c-0.1-0.3-0.2-0.6-0.2-1V16l1-0.2v0.6c0,0.2,0,0.4,0.1,0.6
			s0.2,0.3,0.3,0.5c0.1,0.1,0.3,0.2,0.5,0.3c0.2,0.1,0.4,0.1,0.6,0.1h0.7c0.2,0,0.4,0,0.6-0.1c0.2-0.1,0.4-0.1,0.5-0.3
			s0.3-0.3,0.3-0.4s0.1-0.3,0.1-0.5c0-0.3-0.1-0.6-0.2-0.7s-0.3-0.4-0.5-0.5s-0.5-0.2-0.7-0.3c-0.3-0.1-0.6-0.2-0.9-0.3
			s-0.6-0.2-0.9-0.3s-0.5-0.3-0.7-0.4s-0.4-0.4-0.5-0.7s-0.2-0.6-0.2-1c0-0.3,0.1-0.7,0.2-0.9s0.3-0.5,0.5-0.7s0.5-0.4,0.8-0.5
			s0.6-0.2,1-0.2h0.6c0.3,0,0.7,0.1,1,0.2c0.3,0.1,0.6,0.3,0.8,0.5s0.4,0.5,0.5,0.8s0.2,0.6,0.2,1l0,0l-1,0.2v-0.3
			c0-0.2,0-0.4-0.1-0.6s-0.2-0.3-0.3-0.5s-0.3-0.2-0.5-0.3S164,11,163.8,11h-0.6c-0.2,0-0.4,0-0.6,0.1c-0.2,0.1-0.3,0.1-0.5,0.3
			s-0.2,0.3-0.3,0.4s-0.1,0.3-0.1,0.5c0,0.3,0.1,0.5,0.2,0.7s0.3,0.3,0.5,0.5c0.2,0.1,0.5,0.2,0.7,0.3s0.6,0.2,0.9,0.3
			c0.3,0.1,0.6,0.2,0.9,0.3c0.3,0.1,0.5,0.3,0.7,0.4c0.2,0.2,0.4,0.4,0.5,0.7C166.4,15.8,166.4,16.1,166.4,16.5z"/>
		<path style="fill:#FFFFFF;" d="M173.9,17.3c-0.1,0.3-0.3,0.6-0.5,0.8c-0.2,0.2-0.5,0.4-0.8,0.5s-0.6,0.2-1,0.2h-0.7
			c-0.3,0-0.7-0.1-1-0.2s-0.6-0.3-0.8-0.5s-0.4-0.5-0.5-0.8s-0.2-0.6-0.2-1v-3.8c0-0.3,0.1-0.7,0.2-1s0.3-0.6,0.5-0.8
			s0.5-0.4,0.8-0.5s0.6-0.2,1-0.2h0.7c0.3,0,0.7,0.1,1,0.2c0.3,0.1,0.6,0.3,0.8,0.5s0.4,0.5,0.5,0.8s0.2,0.6,0.2,1v3.8
			C174.1,16.7,174,17,173.9,17.3z M173,12.5c0-0.2,0-0.4-0.1-0.6s-0.2-0.3-0.3-0.5s-0.3-0.2-0.5-0.3s-0.4-0.1-0.6-0.1h-0.7
			c-0.2,0-0.4,0-0.6,0.1s-0.3,0.2-0.5,0.3s-0.2,0.3-0.3,0.5s-0.1,0.4-0.1,0.6v4c0,0.2,0,0.4,0.1,0.6s0.2,0.3,0.3,0.5
			s0.3,0.2,0.5,0.3s0.4,0.1,0.6,0.1h0.7c0.2,0,0.4,0,0.6-0.1s0.3-0.2,0.5-0.3s0.2-0.3,0.3-0.5s0.1-0.4,0.1-0.6V12.5z"/>
		<path style="fill:#FFFFFF;" d="M179,7.8c-0.2,0-0.3,0-0.5,0.1s-0.3,0.2-0.4,0.3c-0.1,0.1-0.2,0.2-0.3,0.4s-0.1,0.3-0.1,0.5v1.2h2
			v1h-2v7.5h-1v-7.5h-1.5v-1h1.5V9c0-0.3,0.1-0.6,0.2-0.9c0.1-0.3,0.3-0.5,0.5-0.7s0.4-0.4,0.7-0.5s0.6-0.2,0.9-0.2h0.9v1H179V7.8z"
			/>
		<path style="fill:#FFFFFF;" d="M184.1,18.7c-0.3,0-0.6-0.1-0.9-0.2c-0.3-0.1-0.5-0.3-0.7-0.5s-0.4-0.4-0.5-0.7
			c-0.1-0.3-0.2-0.6-0.2-0.9v-5.3h-1.5v-1h1.5v-2l1-0.2v2.2h2.2v1h-2.2v5.3c0,0.2,0,0.3,0.1,0.5s0.2,0.3,0.3,0.4s0.2,0.2,0.4,0.3
			s0.3,0.1,0.5,0.1h0.9v1C185,18.7,184.1,18.7,184.1,18.7z"/>
		<path style="fill:#FFFFFF;" d="M194,18.7h-0.6l-2-6.4v-0.4v0.4l-2,6.4h-0.6l-2.8-8.5h1l2,6.4V17v-0.4l2-6.4h0.6l2,6.4V17v-0.4
			l2-6.4h1L194,18.7z"/>
		<path style="fill:#FFFFFF;" d="M203.4,18.7l-0.6-0.8c-0.2,0.3-0.5,0.5-0.9,0.7c-0.3,0.2-0.7,0.3-1.1,0.3h-0.3
			c-0.3,0-0.7-0.1-1-0.2s-0.6-0.3-0.8-0.5s-0.4-0.5-0.5-0.8s-0.2-0.6-0.2-1v-0.1c0-0.3,0.1-0.7,0.2-1s0.3-0.6,0.5-0.8
			s0.5-0.4,0.8-0.5s0.6-0.2,1-0.2h2.2v-1.3c0-0.2,0-0.4-0.1-0.6s-0.2-0.3-0.3-0.5s-0.3-0.2-0.5-0.3s-0.4-0.1-0.6-0.1h-0.6
			c-0.2,0-0.4,0-0.6,0.1s-0.3,0.2-0.5,0.3s-0.2,0.3-0.3,0.5s-0.1,0.4-0.1,0.6v0.3l-1-0.2v-0.1c0-0.3,0.1-0.7,0.2-1s0.3-0.6,0.5-0.8
			s0.5-0.4,0.8-0.5s0.6-0.2,1-0.2h0.6c0.3,0,0.7,0.1,1,0.2c0.3,0.1,0.6,0.3,0.8,0.5s0.4,0.5,0.5,0.8s0.2,0.6,0.2,1v6.2H203.4z
			 M202.7,14.6h-2.2c-0.2,0-0.4,0-0.6,0.1s-0.3,0.2-0.5,0.3c-0.1,0.1-0.2,0.3-0.3,0.5s-0.1,0.4-0.1,0.6v0.4c0,0.2,0,0.4,0.1,0.6
			s0.2,0.3,0.3,0.5s0.3,0.2,0.5,0.3s0.4,0.1,0.6,0.1h0.7c0.2,0,0.4,0,0.6-0.1s0.3-0.2,0.5-0.3s0.2-0.3,0.3-0.5s0.1-0.4,0.1-0.6
			L202.7,14.6L202.7,14.6z"/>
		<path style="fill:#FFFFFF;" d="M208.3,11.2c-0.2,0-0.4,0-0.6,0.1c-0.2,0.1-0.3,0.2-0.5,0.3s-0.2,0.3-0.3,0.5s-0.1,0.4-0.1,0.6v6.1
			h-1v-8.5h0.3l0.6,0.9c0.2-0.3,0.5-0.6,0.9-0.8s0.7-0.3,1.2-0.3h0.6v1.1C209.4,11.2,208.3,11.2,208.3,11.2z"/>
		<path style="fill:#FFFFFF;" d="M216.2,17.3c-0.1,0.3-0.3,0.6-0.5,0.8c-0.2,0.2-0.5,0.4-0.8,0.5s-0.6,0.2-1,0.2h-0.7
			c-0.3,0-0.7-0.1-1-0.2s-0.6-0.3-0.8-0.5s-0.4-0.5-0.5-0.8s-0.2-0.6-0.2-1v-3.8c0-0.3,0.1-0.7,0.2-1s0.3-0.6,0.5-0.8
			s0.5-0.4,0.8-0.5s0.6-0.2,1-0.2h0.7c0.3,0,0.7,0.1,1,0.2c0.3,0.1,0.6,0.3,0.8,0.5s0.4,0.5,0.5,0.8s0.2,0.6,0.2,1v2h-4.7v1.9
			c0,0.2,0,0.4,0.1,0.6s0.2,0.3,0.3,0.5s0.3,0.2,0.5,0.3s0.4,0.1,0.6,0.1h0.7c0.2,0,0.4,0,0.6-0.1s0.3-0.2,0.5-0.3s0.2-0.3,0.3-0.5
			s0.1-0.4,0.1-0.6v-0.6l1,0.2v0.3C216.4,16.7,216.3,17,216.2,17.3z M215.3,12.5c0-0.2,0-0.4-0.1-0.6s-0.2-0.3-0.3-0.5
			s-0.3-0.2-0.5-0.3S214,11,213.8,11h-0.7c-0.2,0-0.4,0-0.6,0.1s-0.3,0.2-0.5,0.3s-0.2,0.3-0.3,0.5s-0.1,0.4-0.1,0.6v1.3h3.6v-1.3
			H215.3z"/>
		<path style="fill:#FFFFFF;" d="M220.1,15.1H219v-0.3c0-0.4,0-0.7,0.1-1s0.2-0.5,0.4-0.7s0.3-0.4,0.5-0.5s0.4-0.3,0.6-0.5
			s0.4-0.3,0.6-0.4c0.2-0.2,0.4-0.3,0.5-0.5s0.3-0.4,0.4-0.6c0.1-0.2,0.1-0.5,0.1-0.8V9.5c0-0.3-0.1-0.5-0.2-0.7s-0.2-0.4-0.4-0.6
			c-0.2-0.2-0.4-0.3-0.6-0.4s-0.5-0.2-0.7-0.2H220c-0.3,0-0.5,0.1-0.7,0.2s-0.4,0.2-0.6,0.4c-0.2,0.2-0.3,0.4-0.4,0.6
			s-0.1,0.5-0.1,0.7V10L217,9.9V9.5c0-0.4,0.1-0.8,0.2-1.1c0.2-0.4,0.4-0.7,0.6-0.9s0.6-0.5,0.9-0.6c0.4-0.2,0.7-0.2,1.1-0.2h0.3
			c0.4,0,0.8,0.1,1.1,0.2c0.4,0.2,0.7,0.4,0.9,0.6s0.5,0.6,0.6,0.9c0.2,0.4,0.2,0.7,0.2,1.1v0.2c0,0.4,0,0.7-0.1,1s-0.2,0.5-0.4,0.8
			s-0.3,0.4-0.5,0.6c-0.2,0.2-0.4,0.3-0.6,0.5c-0.2,0.1-0.4,0.3-0.6,0.4s-0.4,0.3-0.5,0.5s-0.3,0.4-0.4,0.6
			c-0.1,0.2-0.1,0.5-0.1,0.7v0.3H220.1z M218.9,18.7v-1.3h1.3v1.3H218.9z"/>
	</g>
</g>
<circle style="fill:#2C4D67;stroke:#FFFFFF;stroke-miterlimit:10;" cx="19.8" cy="14" r="2.3"/>
</svg>
