<?xml version="1.0" encoding="utf-8"?>
<!-- Generator: Adobe Illustrator 21.0.0, SVG Export Plug-In . SVG Version: 6.00 Build 0)  -->
<svg version="1.1" id="Capa_1" xmlns="http://www.w3.org/2000/svg" xmlns:xlink="http://www.w3.org/1999/xlink" x="0px" y="0px"
	 viewBox="0 0 249.6367 59.1389" style="enable-background:new 0 0 249.6367 59.1389;" xml:space="preserve">
<g id="XMLID_3036_">
	<g id="XMLID_3040_">
		<polygon id="XMLID_3041_" style="fill-rule:evenodd;clip-rule:evenodd;fill:#223B72;" points="234.6104,59.1389 248.6367,41.3537 
			238.2119,21.1848 234.6104,21.1867 		"/>
	</g>
	<g>
		
			<rect id="XMLID_1_" x="1" y="1.0002" style="fill-rule:evenodd;clip-rule:evenodd;fill:#6AC7EB;" width="247.6367" height="40.3535"/>
		<path style="fill:#FFFFFF;" d="M248.6367,42.354H1c-0.5522,0-1-0.4473-1-1V1c0-0.5522,0.4478-1,1-1h247.6367
			c0.5527,0,1,0.4478,1,1v40.354C249.6367,41.9067,249.1895,42.354,248.6367,42.354z M2,40.354h245.6367V2H2V40.354z"/>
	</g>
	<g>
		<g>
			<path d="M78.9883,21.8218l2.5225,0.7998c-0.3867,1.4063-1.0298,2.4512-1.9292,3.1328c-0.8994,0.6836-2.0405,1.0244-3.4233,1.0244
				c-1.7109,0-3.1172-0.585-4.2188-1.7529c-1.1016-1.1699-1.6523-2.7676-1.6523-4.7949c0-2.1445,0.5537-3.8105,1.6611-4.9961
				c1.1074-1.1875,2.5635-1.7803,4.3682-1.7803c1.5762,0,2.8564,0.4658,3.8408,1.3975c0.5859,0.5508,1.0254,1.3418,1.3184,2.373
				l-2.5752,0.6152c-0.1523-0.668-0.4702-1.1953-0.9536-1.582s-1.0708-0.5801-1.7622-0.5801c-0.9551,0-1.73,0.3428-2.3247,1.0283
				s-0.8921,1.7959-0.8921,3.3311c0,1.6289,0.293,2.7891,0.8789,3.4805s1.3477,1.0371,2.2852,1.0371
				c0.6914,0,1.2861-0.2197,1.7842-0.6592S78.7715,22.7651,78.9883,21.8218z"/>
			<path d="M89.1309,23.5884l2.4609,0.4131c-0.3164,0.9023-0.8159,1.5898-1.4985,2.0615s-1.5366,0.707-2.562,0.707
				c-1.623,0-2.8242-0.5303-3.6035-1.5908c-0.6152-0.8496-0.9229-1.9219-0.9229-3.2168c0-1.5469,0.4043-2.7578,1.2129-3.6338
				s1.8311-1.3145,3.0674-1.3145c1.3887,0,2.4844,0.459,3.2871,1.375c0.8027,0.918,1.1865,2.3223,1.1514,4.2148h-6.1875
				c0.0176,0.7324,0.2168,1.3027,0.5977,1.709c0.3809,0.4082,0.8555,0.6113,1.4238,0.6113c0.3867,0,0.7119-0.1055,0.9756-0.3164
				S88.9961,24.0571,89.1309,23.5884z M89.2715,21.0923c-0.0176-0.7148-0.2021-1.2578-0.5537-1.6309
				c-0.3516-0.3711-0.7793-0.5576-1.2832-0.5576c-0.5391,0-0.9844,0.1963-1.3359,0.5889s-0.5244,0.9258-0.5186,1.5996H89.2715z"/>
			<path d="M96.1006,26.5591h-2.4697v-9.334h2.2939v1.3271c0.3926-0.627,0.7456-1.04,1.0591-1.2393s0.6694-0.2988,1.0679-0.2988
				c0.5625,0,1.1045,0.1553,1.626,0.4658l-0.7646,2.1533c-0.416-0.2695-0.8027-0.4043-1.1602-0.4043
				c-0.3457,0-0.6387,0.0957-0.8789,0.2852c-0.2402,0.1914-0.4292,0.5352-0.5669,1.0332s-0.2065,1.541-0.2065,3.1289V26.5591z"/>
			<path d="M105.0215,17.2251v1.9688h-1.6875v3.7617c0,0.7617,0.0161,1.2061,0.0483,1.332s0.1055,0.2295,0.2197,0.3115
				s0.2534,0.123,0.4175,0.123c0.2285,0,0.5596-0.0791,0.9932-0.2373l0.2109,1.916c-0.5742,0.2461-1.2246,0.3691-1.9512,0.3691
				c-0.4453,0-0.8467-0.0742-1.2041-0.2246c-0.3574-0.1484-0.6196-0.3418-0.7866-0.5801c-0.167-0.2363-0.2827-0.5576-0.3472-0.9619
				c-0.0527-0.2871-0.0791-0.8672-0.0791-1.7402v-4.0693h-1.1338v-1.9688h1.1338v-1.8545l2.4785-1.4414v3.2959H105.0215z"/>
			<path d="M106.7354,15.9595v-2.2852h2.4697v2.2852H106.7354z M106.7354,26.5591v-9.334h2.4697v9.334H106.7354z"/>
			<path d="M110.6553,17.2251h1.3711V16.522c0-0.7852,0.0835-1.3711,0.2505-1.7578s0.4746-0.7012,0.9229-0.9453
				c0.4482-0.2422,1.0151-0.3643,1.7007-0.3643c0.7031,0,1.3916,0.1055,2.0654,0.3164l-0.334,1.7227
				c-0.3926-0.0938-0.7705-0.1406-1.1338-0.1406c-0.3574,0-0.6138,0.083-0.769,0.251c-0.1553,0.166-0.2329,0.4873-0.2329,0.9619
				v0.6592h1.8457v1.9424h-1.8457v7.3916h-2.4697v-7.3916h-1.3711V17.2251z"/>
			<path d="M117.7305,15.9595v-2.2852h2.4697v2.2852H117.7305z M117.7305,26.5591v-9.334h2.4697v9.334H117.7305z"/>
			<path d="M130.8701,19.9849l-2.4346,0.4395c-0.082-0.4863-0.2686-0.8525-0.5586-1.0986s-0.666-0.3691-1.1289-0.3691
				c-0.6152,0-1.1064,0.2129-1.4727,0.6377c-0.3657,0.4248-0.5488,1.1348-0.5488,2.1309c0,1.1074,0.186,1.8896,0.5576,2.3467
				c0.3721,0.457,0.8721,0.6855,1.499,0.6855c0.4688,0,0.8525-0.1328,1.1514-0.3994s0.5098-0.7256,0.6328-1.376l2.4258,0.4131
				c-0.252,1.1133-0.7354,1.9541-1.4502,2.5225s-1.6729,0.8525-2.874,0.8525c-1.3652,0-2.4536-0.4307-3.2651-1.292
				s-1.2173-2.0537-1.2173-3.5771c0-1.541,0.4072-2.7402,1.2217-3.5996c0.8145-0.8574,1.916-1.2871,3.3047-1.2871
				c1.1367,0,2.04,0.2451,2.7109,0.7344S130.5771,18.9829,130.8701,19.9849z"/>
			<path d="M134.5879,20.0728l-2.2412-0.4043c0.252-0.9023,0.6855-1.5703,1.3008-2.0039s1.5293-0.6504,2.7422-0.6504
				c1.1016,0,1.9219,0.1309,2.4609,0.3906c0.5391,0.2617,0.918,0.5928,1.1377,0.9941s0.3301,1.1377,0.3301,2.21l-0.0264,2.8828
				c0,0.8203,0.0391,1.4258,0.1182,1.8154s0.2275,0.8066,0.4443,1.252h-2.4434c-0.0645-0.1641-0.1436-0.4072-0.2373-0.7295
				c-0.041-0.1465-0.0703-0.2432-0.0879-0.29c-0.4219,0.4102-0.873,0.7178-1.3535,0.9229s-0.9932,0.3076-1.5381,0.3076
				c-0.9609,0-1.7188-0.2607-2.2725-0.7822s-0.8301-1.1807-0.8301-1.9775c0-0.5273,0.126-0.998,0.3779-1.4102
				c0.252-0.4141,0.6045-0.7305,1.0586-0.9492c0.4541-0.2207,1.1094-0.4121,1.9648-0.5762
				c1.1543-0.2168,1.9541-0.4189,2.3994-0.6064v-0.2461c0-0.4746-0.1172-0.8135-0.3516-1.0146
				c-0.2344-0.2031-0.6768-0.3037-1.3271-0.3037c-0.4395,0-0.7822,0.0869-1.0283,0.2588
				C134.9395,19.3364,134.7402,19.6392,134.5879,20.0728z M137.8926,22.0767c-0.3164,0.1055-0.8174,0.2314-1.5029,0.3779
				s-1.1338,0.29-1.3447,0.4307c-0.3223,0.2285-0.4834,0.5186-0.4834,0.8701c0,0.3457,0.1289,0.6445,0.3867,0.8965
				s0.5859,0.3779,0.9844,0.3779c0.4453,0,0.8701-0.1465,1.2744-0.4395c0.2988-0.2227,0.4951-0.4951,0.5889-0.8174
				c0.0645-0.2109,0.0967-0.6123,0.0967-1.2041V22.0767z"/>
			<path d="M150.8916,19.9849l-2.4346,0.4395c-0.082-0.4863-0.2686-0.8525-0.5586-1.0986s-0.666-0.3691-1.1289-0.3691
				c-0.6152,0-1.1064,0.2129-1.4727,0.6377s-0.5488,1.1348-0.5488,2.1309c0,1.1074,0.1855,1.8896,0.5576,2.3467
				s0.8721,0.6855,1.499,0.6855c0.4688,0,0.8525-0.1328,1.1514-0.3994s0.5098-0.7256,0.6328-1.376l2.4258,0.4131
				c-0.252,1.1133-0.7354,1.9541-1.4502,2.5225s-1.6729,0.8525-2.874,0.8525c-1.3652,0-2.4541-0.4307-3.2656-1.292
				s-1.2168-2.0537-1.2168-3.5771c0-1.541,0.4072-2.7402,1.2217-3.5996c0.8145-0.8574,1.916-1.2871,3.3047-1.2871
				c1.1367,0,2.04,0.2451,2.7109,0.7344S150.5986,18.9829,150.8916,19.9849z"/>
			<path d="M152.7637,15.9595v-2.2852h2.4697v2.2852H152.7637z M152.7637,26.5591v-9.334h2.4697v9.334H152.7637z"/>
			<path d="M157.1934,21.7603c0-0.8203,0.2021-1.6143,0.6064-2.3818s0.9766-1.3535,1.7178-1.7578s1.5693-0.6064,2.4834-0.6064
				c1.4121,0,2.5693,0.459,3.4717,1.375c0.9023,0.918,1.3535,2.0762,1.3535,3.4766c0,1.4121-0.4561,2.583-1.3672,3.5117
				s-2.0576,1.3926-3.4404,1.3926c-0.8555,0-1.6719-0.1934-2.4482-0.5801s-1.3662-0.9531-1.7705-1.7012
				C157.3955,23.7427,157.1934,22.8325,157.1934,21.7603z M159.7246,21.8921c0,0.9258,0.2197,1.6348,0.6592,2.127
				s0.9814,0.7383,1.626,0.7383s1.1846-0.2461,1.6211-0.7383s0.6553-1.207,0.6553-2.1445c0-0.9141-0.2188-1.6172-0.6553-2.1094
				s-0.9766-0.7383-1.6211-0.7383s-1.1865,0.2461-1.626,0.7383S159.7246,20.9663,159.7246,21.8921z M160.7617,16.0825l1.2129-2.6279
				h2.7686l-2.417,2.6279H160.7617z"/>
			<path d="M177.25,26.5591h-2.4697v-4.7637c0-1.0078-0.0527-1.6592-0.1582-1.9551s-0.2773-0.5264-0.5146-0.6904
				s-0.5225-0.2461-0.8564-0.2461c-0.4277,0-0.8115,0.1172-1.1514,0.3516s-0.5732,0.5449-0.6992,0.9316
				s-0.1885,1.1016-0.1885,2.1445v4.2275h-2.4697v-9.334h2.2939v1.3711c0.8145-1.0547,1.8398-1.582,3.0762-1.582
				c0.5449,0,1.043,0.0986,1.4941,0.2949s0.792,0.4463,1.0234,0.751s0.3926,0.6504,0.4834,1.0371s0.1367,0.9404,0.1367,1.6611
				V26.5591z"/>
			<path d="M184.6943,26.5591V13.6743h2.6016v12.8848H184.6943z"/>
			<path d="M189.1152,22.3667l2.5313-0.2461c0.1523,0.8496,0.4609,1.4736,0.9268,1.8721s1.0947,0.5977,1.8857,0.5977
				c0.8379,0,1.4688-0.1768,1.8936-0.5313s0.6377-0.7695,0.6377-1.2441c0-0.3047-0.0898-0.5635-0.2686-0.7773
				s-0.4902-0.4004-0.9355-0.5586c-0.3047-0.1055-0.999-0.293-2.083-0.5625c-1.3945-0.3457-2.373-0.7705-2.9355-1.2744
				c-0.791-0.709-1.1865-1.5732-1.1865-2.5928c0-0.6563,0.1855-1.2695,0.5576-1.8418c0.3721-0.5703,0.9082-1.0059,1.6084-1.3047
				s1.5459-0.4482,2.5361-0.4482c1.6172,0,2.834,0.3545,3.6514,1.0635s1.2471,1.6553,1.2881,2.8389l-2.6016,0.1143
				c-0.1113-0.6621-0.3506-1.1387-0.7168-1.4277c-0.3662-0.291-0.915-0.4355-1.6475-0.4355c-0.7559,0-1.3477,0.1553-1.7754,0.4658
				c-0.2754,0.1992-0.4131,0.4658-0.4131,0.7998c0,0.3047,0.1289,0.5654,0.3867,0.7822c0.3281,0.2754,1.125,0.5625,2.3906,0.8613
				s2.2012,0.6084,2.8076,0.9268c0.6064,0.3203,1.0811,0.7559,1.4238,1.3105c0.3428,0.5527,0.5146,1.2373,0.5146,2.0518
				c0,0.7383-0.2051,1.4297-0.6152,2.0742s-0.9902,1.124-1.7402,1.4365c-0.75,0.3135-1.6846,0.4707-2.8037,0.4707
				c-1.6289,0-2.8799-0.376-3.7529-1.1289S189.2852,23.8081,189.1152,22.3667z"/>
			<path d="M201.2529,20.1958c0-1.3125,0.1963-2.4141,0.5889-3.3047c0.293-0.6563,0.6924-1.2451,1.1992-1.7666
				s1.0625-0.9082,1.666-1.1602c0.8027-0.3398,1.7285-0.5098,2.7773-0.5098c1.8984,0,3.417,0.5889,4.5566,1.7666
				s1.71,2.8154,1.71,4.9131c0,2.0801-0.5654,3.708-1.6963,4.8818c-1.1309,1.1758-2.6426,1.7627-4.5352,1.7627
				c-1.916,0-3.4395-0.585-4.5703-1.7529C201.8184,23.856,201.2529,22.2466,201.2529,20.1958z M203.9336,20.1079
				c0,1.459,0.3369,2.5654,1.0107,3.3184s1.5293,1.1289,2.5664,1.1289s1.8877-0.373,2.5527-1.1211
				c0.665-0.7461,0.998-1.8672,0.998-3.3613c0-1.4766-0.3242-2.5781-0.9717-3.3047s-1.5068-1.0898-2.5791-1.0898
				s-1.9365,0.3682-2.5928,1.1035S203.9336,18.6255,203.9336,20.1079z"/>
		</g>
	</g>
</g>
<g>
	<path style="fill:#FFFFFF;" d="M19.7063,8.9245c-0.8082,0-1.6164-2.4247-3.2329-1.6164s-4.8493,4.0411-4.8493,4.8493
		s0,2.4247,1.6164,4.0411s4.8493,4.8493,5.6576,4.8493s4.8493,4.8493,5.6576,5.6576s4.8493,6.4658,5.6576,6.4658
		c0.8082,0,2.4247,0.8082,4.0411-0.8082s4.8493-4.0411,4.0411-4.8493c-0.8082-0.8082-6.4658-4.8493-6.4658-5.6576
		c0-0.8082-4.0411-3.2329-4.0411-3.2329l-4.8493-6.4658L19.7063,8.9245z"/>
	<g>
		<g>
			<g>
				<path style="fill:#2C4D67;" d="M40.3276,23.4614c-0.0619-0.3925-0.3527-0.7096-0.7387-0.8052
					c-0.0644-0.0159-5.2929-1.3292-9.1341-3.6932l-4.1943-4.195c-2.3615-3.8395-3.6776-9.0692-3.6936-9.1337
					c-0.0956-0.386-0.4128-0.677-0.8052-0.7389c-0.3925-0.0615-0.7843,0.1176-0.9936,0.4555l-1.2662,2.0421
					c-0.718-0.6471-1.798-0.9544-2.6804-0.7212l-0.072,0.0192c-3.1269,0.9581-5.1126,2.9436-6.0705,6.0705l-0.0189,0.072
					c-0.2198,0.9747,0.1033,2.069,0.8223,2.788c0.054,0.0543,0.1109,0.1065,0.1684,0.1554l0.0217,0.0178
					c2.3785,1.9004,4.6947,3.9107,6.9157,5.9999c-1.9904,1.1032-3.7204,1.6514-5.0423,1.5928
					c-0.2201-0.0098-0.4211,0.1249-0.4956,0.332c-0.075,0.2074-0.0066,0.4392,0.1694,0.5724l1.4928,1.1315l-1.6941,1.6251
					c-0.1452,0.1397-0.1934,0.3522-0.1224,0.5409c0.0258,0.0684,0.0655,0.1288,0.1152,0.1784
					c0.0872,0.0873,0.2056,0.1416,0.3338,0.147c1.4961,0.0666,3.1421-0.2545,4.9192-0.9555
					c-0.7014,1.7771-1.0222,3.423-0.9559,4.9191c0.0058,0.1282,0.0598,0.2466,0.147,0.3339c0.05,0.0496,0.1104,0.0891,0.1789,0.1151
					c0.1883,0.0709,0.4012,0.0228,0.5406-0.1227l1.6253-1.6938l1.1315,1.4929c0.1332,0.1756,0.3649,0.2443,0.5721,0.1694
					c0.2074-0.075,0.3418-0.2759,0.332-0.4961c-0.0587-1.322,0.4899-3.052,1.5931-5.0422c2.0903,2.222,4.1006,4.5379,6,6.9156
					l0.0181,0.0224c0.0486,0.0572,0.1007,0.1137,0.1546,0.168c0.7191,0.7191,1.8136,1.042,2.788,0.8226l0.0724-0.0192
					c3.1273-0.9584,5.1129-2.9441,6.0706-6.0705c0,0,0.5214-1.5736-0.7025-2.7526l2.0425-1.2662
					C40.2102,24.2453,40.3895,23.854,40.3276,23.4614L40.3276,23.4614z M21.2769,8.28c0.1963,0.6152,0.4382,1.3277,0.7246,2.0935
					c-0.3914-0.4598-0.7788-0.9222-1.1623-1.3879L21.2769,8.28z M20.3179,20.7104c-2.3695-2.2492-4.849-4.4108-7.3983-6.449
					c-0.0137-0.0116-0.0272-0.0242-0.0401-0.0373c-0.2325-0.2325-0.3907-0.6206-0.298-0.9265
					c0.7708-2.4799,2.2246-3.9335,4.7048-4.7048c0.2802-0.0934,0.6836-0.0163,0.9638,0.3382
					c0.1553,0.1944,0.3117,0.3885,0.4686,0.5822l0.3001,0.3679c1.8101,2.2159,3.7109,4.3742,5.6799,6.4485L20.3179,20.7104z
					 M36.63,27.9371c-0.7708,2.4798-2.2242,3.9332-4.7045,4.7047c-0.3034,0.0659-0.6944-0.0659-0.9269-0.2983
					c-0.013-0.0131-0.0253-0.0265-0.0373-0.0399c-2.0363-2.5486-4.1983-5.0278-6.4485-7.3986l4.3803-4.3804
					c2.0751,1.9693,4.2334,3.8706,6.449,5.6802l0.3678,0.2994c0.1937,0.1572,0.3878,0.3136,0.5823,0.4689
					c0.0133,0.0116,0.0268,0.0243,0.0398,0.037C36.5645,27.2429,36.7155,27.6397,36.63,27.9371L36.63,27.9371z M36.2372,24.384
					c-0.4653-0.3834-0.928-0.7712-1.3882-1.1625c0.7662,0.2867,1.4791,0.5286,2.0943,0.7248L36.2372,24.384z M36.2372,24.384"/>
				<path d="M31.7739,35.1304c-0.9258,0-1.8633-0.373-2.5259-1.0361c-0.0649-0.0654-0.1255-0.1309-0.1826-0.1982
					c-1.7603-2.2031-3.6094-4.3477-5.5239-6.4087c-0.8389,1.6479-1.2549,3.0791-1.2065,4.1675
					c0.0195,0.4414-0.2461,0.8379-0.6611,0.9883c-0.418,0.1514-0.8745,0.0137-1.1406-0.3379l-0.7778-1.0254l-1.2197,1.2715
					c-0.2773,0.2881-0.6978,0.3857-1.0767,0.2451c-0.1333-0.0518-0.251-0.127-0.3521-0.2256
					c-0.1836-0.1846-0.2871-0.4199-0.2983-0.6699c-0.0562-1.271,0.1548-2.6509,0.627-4.1133
					c-1.4634,0.4727-2.8423,0.6836-4.1128,0.6265c-0.25-0.0103-0.4868-0.1147-0.665-0.293
					c-0.1016-0.1016-0.1787-0.2207-0.2295-0.3545c-0.1416-0.3784-0.0454-0.8013,0.2441-1.0791l1.2715-1.2197l-1.0264-0.7778
					c-0.3521-0.2661-0.4883-0.7251-0.3374-1.1411c0.1499-0.4146,0.5552-0.668,0.9878-0.6611
					c1.1045,0.0542,2.5205-0.3667,4.168-1.2061c-2.0562-1.9102-4.1982-3.7568-6.3755-5.4966
					c-0.1006-0.0845-0.1675-0.146-0.2314-0.21c-0.8374-0.8379-1.2129-2.1143-0.9565-3.2515
					c0.0029-0.0122,0.0249-0.0967,0.0288-0.1089c1.0103-3.2974,3.1045-5.3916,6.4019-6.4019
					c0.9248-0.2461,1.9512-0.0576,2.7617,0.4526l0.9785-1.5781c0.3154-0.5093,0.896-0.7808,1.4961-0.686
					c0.5928,0.0933,1.0688,0.5298,1.2129,1.1133c0.0127,0.0503,1.314,5.1924,3.604,8.9419l4.1108,4.1108
					c3.7437,2.2881,8.8911,3.5908,8.9429,3.604c0.5815,0.1436,1.0181,0.6196,1.1113,1.2119
					c0.0938,0.5923-0.1753,1.1797-0.6851,1.4966l-1.5483,0.96c0.8999,1.2876,0.4414,2.7231,0.4189,2.791
					c-1.0063,3.2856-3.1001,5.3804-6.3984,6.3921c-0.0122,0.0029-0.0967,0.0254-0.1089,0.0273
					C32.2622,35.104,32.0186,35.1304,31.7739,35.1304z M23.4287,26.1348c0.1372,0,0.269,0.0562,0.3643,0.1572
					c2.1035,2.2363,4.1309,4.5728,6.0264,6.9458c0.0493,0.0596,0.0923,0.1055,0.1372,0.1514
					c0.5996,0.5996,1.5103,0.8652,2.3232,0.6865c2.9922-0.916,4.8691-2.793,5.7744-5.7485
					c0.0195-0.0605,0.4023-1.3086-0.5708-2.2461c-0.1113-0.1069-0.167-0.2593-0.1504-0.4126
					c0.0161-0.1538,0.1025-0.291,0.2334-0.3721l2.0425-1.2661c0.167-0.104,0.2554-0.2964,0.2251-0.4907
					c-0.0308-0.1943-0.1743-0.3506-0.3652-0.3979c-0.2197-0.0547-5.3975-1.3657-9.2759-3.7529
					c-0.0332-0.0205-0.064-0.0444-0.0913-0.0723l-4.1943-4.1948c-0.0278-0.0273-0.0518-0.0581-0.0723-0.0913
					c-2.3892-3.8838-3.6987-9.0566-3.7529-9.2749c-0.0479-0.1924-0.2036-0.3354-0.3979-0.3657
					c-0.1929-0.0322-0.3867,0.0571-0.4912,0.2251l-1.2661,2.042c-0.0781,0.126-0.208,0.2104-0.3545,0.2314
					c-0.1465,0.0239-0.2949-0.0244-0.4053-0.124c-0.6035-0.5439-1.5166-0.7954-2.2173-0.6089
					c-3.0098,0.9194-4.8867,2.7964-5.7925,5.7524c-0.1919,0.8467,0.0781,1.7593,0.6787,2.3604
					c0.0444,0.0444,0.0908,0.0874,0.1382,0.1274c2.3892,1.9092,4.7266,3.9365,6.957,6.0347
					c0.1162,0.1094,0.1733,0.2681,0.1533,0.4263c-0.0195,0.1587-0.1143,0.2979-0.2539,0.3755
					c-2.0957,1.1611-3.8804,1.7236-5.3066,1.6548l1.4907,1.1382c0.1162,0.0884,0.1885,0.2236,0.1968,0.3696
					c0.0088,0.146-0.0474,0.2886-0.1528,0.3896l-1.6938,1.625c1.4199,0.0703,3.0059-0.2402,4.7158-0.9155
					c0.1836-0.0723,0.3955-0.0298,0.5371,0.1118c0.1406,0.1406,0.1846,0.3516,0.1118,0.5371
					c-0.6743,1.7085-0.9844,3.2944-0.9219,4.7134l1.6318-1.6914c0.1016-0.1055,0.25-0.1626,0.3896-0.1528
					c0.1465,0.0083,0.2813,0.0806,0.3696,0.1968l1.1313,1.4932c-0.0571-1.4277,0.4995-3.2134,1.6611-5.3091
					c0.0776-0.1396,0.2168-0.2344,0.3755-0.2539C23.3872,26.1362,23.4082,26.1348,23.4287,26.1348z M31.7676,33.1519
					c-0.416,0-0.8384-0.1709-1.1226-0.4551c-0.0132-0.0127-0.0625-0.0674-0.0742-0.0811c-2.0171-2.5244-4.1772-5.0029-6.4209-7.3662
					c-0.1865-0.1968-0.1826-0.5063,0.0093-0.6978l4.3804-4.3804c0.1924-0.1919,0.5015-0.1958,0.6978-0.0093
					c2.0645,1.9595,4.2251,3.8618,6.4214,5.6558l0.9453,0.7642c0.0122,0.0098,0.0635,0.0571,0.0747,0.0679
					c0.3184,0.3188,0.584,0.8955,0.4316,1.4253c-0.001,0.0034-0.002,0.0068-0.0029,0.0103
					c-0.814,2.6196-2.4131,4.2188-5.0332,5.0342C31.9736,33.1411,31.8706,33.1519,31.7676,33.1519z M25.21,24.915
					c2.1436,2.2769,4.208,4.6553,6.1421,7.0757c0.1279,0.1279,0.3516,0.1904,0.4683,0.1621
					c2.2632-0.7061,3.6123-2.0532,4.3296-4.3569c0.0215-0.0835-0.0352-0.2954-0.1719-0.4326l-0.9512-0.7705
					c-2.0908-1.7075-4.1489-3.5122-6.124-5.3706L25.21,24.915z M36.6299,27.937h0.0098H36.6299z M36.2373,24.8838
					c-0.1133,0-0.2261-0.0386-0.3179-0.1143c-0.4673-0.3848-0.9326-0.7744-1.3945-1.1675c-0.1851-0.1577-0.23-0.4253-0.1069-0.6343
					c0.124-0.209,0.3809-0.2983,0.6064-0.2148c0.7578,0.2842,1.4624,0.5229,2.0708,0.7168c0.186,0.0596,0.3203,0.2217,0.3442,0.415
					c0.0239,0.1938-0.0669,0.3838-0.2329,0.4863l-0.7061,0.4375C36.4194,24.8589,36.3281,24.8838,36.2373,24.8838z M20.3179,21.2104
					c-0.124,0-0.2476-0.0459-0.3442-0.1372c-2.353-2.2339-4.8315-4.3945-7.3667-6.4214c-0.0142-0.0117-0.0679-0.061-0.0811-0.0742
					c-0.3267-0.3267-0.584-0.894-0.4229-1.4248c0.8149-2.6226,2.4141-4.2222,5.0347-5.0376
					c0.4302-0.1421,1.0698-0.0444,1.5044,0.5059l0.7642,0.9443c1.7983,2.2021,3.7012,4.3618,5.6553,6.4199
					c0.1865,0.1968,0.1826,0.5063-0.0093,0.6978l-4.3809,4.3809C20.5737,21.1616,20.4458,21.2104,20.3179,21.2104z M17.5195,9.0562
					c-0.0303,0-0.0566,0.0049-0.0757,0.0112c-2.3184,0.7212-3.6675,2.0708-4.3848,4.3789c-0.0264,0.0869,0.043,0.2935,0.1738,0.4243
					c2.4287,1.9434,4.8076,4.0083,7.0752,6.1426l3.6934-3.6934c-1.8535-1.9688-3.6582-4.0269-5.3701-6.1221l-0.772-0.9546
					C17.7427,9.0957,17.6108,9.0562,17.5195,9.0562z M22.002,10.8735c-0.1431,0-0.2832-0.061-0.3813-0.1758
					c-0.3931-0.4619-0.7822-0.9268-1.167-1.394c-0.1362-0.1655-0.1523-0.3989-0.0391-0.5811l0.4375-0.7061
					c0.1025-0.1655,0.2866-0.2568,0.4863-0.2329c0.1934,0.0239,0.3555,0.1582,0.415,0.3442
					c0.1938,0.6084,0.4336,1.3135,0.7163,2.0708c0.085,0.2271-0.0054,0.4829-0.2148,0.606
					C22.1758,10.8511,22.0884,10.8735,22.002,10.8735z"/>
			</g>
		</g>
	</g>
</g>
<polygon id="XMLID_1363_" style="opacity:0.5;fill:#2C6882;" points="234.6104,49.5374 1,42.3675 234.6104,42.3675 "/>
</svg>
