<?xml version="1.0" encoding="utf-8"?>
<!-- Generator: Adobe Illustrator 21.0.0, SVG Export Plug-In . SVG Version: 6.00 Build 0)  -->
<svg version="1.1" id="Capa_1" xmlns="http://www.w3.org/2000/svg" xmlns:xlink="http://www.w3.org/1999/xlink" x="0px" y="0px"
	 viewBox="0 0 232 28" style="enable-background:new 0 0 232 28;" xml:space="preserve">
<rect id="XMLID_10_" y="-0.0488" style="opacity:0.8;fill:#2C6882;enable-background:new    ;" width="232" height="28"/>
<circle style="fill:#2C4D67;stroke:#FFFFFF;stroke-miterlimit:10;" cx="19.8" cy="14" r="2.3"/>
<g>
	<g>
		<path style="fill:#FFFFFF;" d="M42.2256,16.499c-0.1523,0.3545-0.3613,0.6641-0.627,0.9297s-0.5771,0.4746-0.9336,0.627
			c-0.3574,0.1523-0.7378,0.2285-1.1416,0.2285h-3.7686V6.3809h3.7686c0.4038,0,0.7842,0.0762,1.1416,0.2285
			c0.3564,0.1523,0.668,0.3604,0.9336,0.626s0.4746,0.5771,0.627,0.9346c0.1519,0.3564,0.228,0.7373,0.228,1.1416v0.1152
			c0,0.2832-0.0376,0.5527-0.1118,0.8096c-0.0752,0.2578-0.1816,0.4971-0.3198,0.7178c-0.1382,0.2217-0.3018,0.4229-0.4897,0.6025
			s-0.3984,0.3301-0.6309,0.4521c0.2324,0.1221,0.4429,0.2725,0.6309,0.4521s0.3516,0.3818,0.4897,0.6064
			c0.1382,0.2236,0.2446,0.4648,0.3198,0.7217c0.0742,0.2578,0.1118,0.5273,0.1118,0.8096v0.7637
			C42.4536,15.7666,42.3774,16.1455,42.2256,16.499z M41.3828,9.3115c0-0.2656-0.0498-0.5137-0.1494-0.7432
			s-0.2363-0.4316-0.4111-0.6064c-0.1738-0.1738-0.376-0.3105-0.6055-0.4102c-0.23-0.0996-0.4775-0.1504-0.7432-0.1504h-2.6479
			v4.1016h2.6479c0.2656,0,0.5132-0.0508,0.7432-0.1504c0.2295-0.0996,0.4316-0.2363,0.6055-0.4102
			c0.1748-0.1748,0.3115-0.377,0.4111-0.6064s0.1494-0.4775,0.1494-0.7432V9.3115z M41.3828,14.4248
			c0-0.2656-0.0498-0.5137-0.1494-0.7432s-0.2363-0.4307-0.4111-0.6025c-0.1738-0.1709-0.376-0.3066-0.6055-0.4063
			c-0.23-0.0996-0.4775-0.1494-0.7432-0.1494h-2.6479v4.7393h2.6479c0.2656,0,0.5132-0.0488,0.7432-0.1484
			c0.2295-0.0996,0.4316-0.2354,0.6055-0.4072c0.1748-0.1719,0.3115-0.3721,0.4111-0.6016s0.1494-0.4775,0.1494-0.7432V14.4248z"/>
		<path style="fill:#FFFFFF;" d="M49.6382,16.9229c-0.1304,0.3047-0.3086,0.5703-0.5356,0.7969s-0.4927,0.4053-0.7969,0.5352
			s-0.6279,0.1953-0.9712,0.1953h-0.6807c-0.3433,0-0.667-0.0654-0.9712-0.1953s-0.5698-0.3086-0.7969-0.5352
			s-0.4053-0.4922-0.5356-0.7969c-0.1299-0.3047-0.1948-0.6279-0.1948-0.9707v-3.8359c0-0.3428,0.0649-0.666,0.1948-0.9707
			c0.1304-0.3047,0.3086-0.5703,0.5356-0.7969s0.4927-0.4053,0.7969-0.5352s0.6279-0.1953,0.9712-0.1953h0.6807
			c0.3433,0,0.667,0.0654,0.9712,0.1953s0.5698,0.3086,0.7969,0.5352s0.4053,0.4922,0.5356,0.7969
			c0.1299,0.3047,0.1948,0.6279,0.1948,0.9707v2.001h-4.6567v1.8926c0,0.2051,0.0386,0.3975,0.1162,0.5771
			s0.1826,0.3359,0.3154,0.4688s0.2891,0.2383,0.4688,0.3154c0.1802,0.0771,0.3726,0.1162,0.5771,0.1162h0.6807
			c0.2046,0,0.397-0.0391,0.5771-0.1162c0.1797-0.0771,0.3359-0.1826,0.4688-0.3154s0.2378-0.2891,0.3154-0.4688
			s0.1162-0.3721,0.1162-0.5771v-0.5645l1.021,0.166v0.3408C49.833,16.2949,49.7681,16.6182,49.6382,16.9229z M48.812,12.0586
			c0-0.2051-0.0386-0.3975-0.1162-0.5771s-0.1826-0.3359-0.3154-0.4688s-0.2891-0.2383-0.4688-0.3154
			c-0.1802-0.0771-0.3726-0.1162-0.5771-0.1162h-0.6807c-0.2046,0-0.397,0.0391-0.5771,0.1162
			c-0.1797,0.0771-0.3359,0.1826-0.4688,0.3154s-0.2378,0.2891-0.3154,0.4688s-0.1162,0.3721-0.1162,0.5771v1.2617h3.6357V12.0586z"
			/>
		<path style="fill:#FFFFFF;" d="M56.5317,18.2842v-6.2256c0-0.2051-0.0386-0.3975-0.1162-0.5771s-0.1826-0.3359-0.3154-0.4688
			s-0.2891-0.2383-0.4688-0.3154c-0.1802-0.0771-0.3726-0.1162-0.5771-0.1162h-0.6807c-0.2046,0-0.397,0.0391-0.5771,0.1162
			c-0.1797,0.0771-0.3359,0.1826-0.4688,0.3154s-0.2378,0.2891-0.3154,0.4688s-0.1162,0.3721-0.1162,0.5771v6.2256h-1.021v-8.5
			h0.3403l0.5562,0.8633c0.2324-0.3154,0.5244-0.5654,0.8755-0.751c0.3516-0.1855,0.7349-0.2783,1.1499-0.2783h0.2573
			c0.3433,0,0.667,0.0654,0.9712,0.1953s0.5698,0.3086,0.7969,0.5352s0.4053,0.4922,0.5356,0.7969
			c0.1299,0.3047,0.1948,0.6279,0.1948,0.9707v6.168H56.5317z"/>
		<path style="fill:#FFFFFF;" d="M65.0776,16.9229c-0.1304,0.3047-0.3086,0.5703-0.5356,0.7969s-0.4927,0.4053-0.7969,0.5352
			s-0.6279,0.1953-0.9712,0.1953h-0.6807c-0.3433,0-0.667-0.0654-0.9712-0.1953s-0.5698-0.3086-0.7969-0.5352
			s-0.4053-0.4922-0.5356-0.7969c-0.1299-0.3047-0.1948-0.6279-0.1948-0.9707v-3.8359c0-0.3428,0.0649-0.666,0.1948-0.9707
			c0.1304-0.3047,0.3086-0.5703,0.5356-0.7969s0.4927-0.4053,0.7969-0.5352s0.6279-0.1953,0.9712-0.1953h0.6807
			c0.3433,0,0.667,0.0654,0.9712,0.1953s0.5698,0.3086,0.7969,0.5352s0.4053,0.4922,0.5356,0.7969
			c0.1299,0.3047,0.1948,0.6279,0.1948,0.9707v2.001h-4.6567v1.8926c0,0.2051,0.0386,0.3975,0.1162,0.5771
			s0.1826,0.3359,0.3154,0.4688s0.2891,0.2383,0.4688,0.3154c0.1802,0.0771,0.3726,0.1162,0.5771,0.1162h0.6807
			c0.2046,0,0.397-0.0391,0.5771-0.1162c0.1797-0.0771,0.3359-0.1826,0.4688-0.3154s0.2378-0.2891,0.3154-0.4688
			s0.1162-0.3721,0.1162-0.5771v-0.5645l1.021,0.166v0.3408C65.2725,16.2949,65.2075,16.6182,65.0776,16.9229z M64.2515,12.0586
			c0-0.2051-0.0386-0.3975-0.1162-0.5771s-0.1826-0.3359-0.3154-0.4688s-0.2891-0.2383-0.4688-0.3154
			c-0.1802-0.0771-0.3726-0.1162-0.5771-0.1162h-0.6807c-0.2046,0-0.397,0.0391-0.5771,0.1162
			c-0.1797,0.0771-0.3359,0.1826-0.4688,0.3154s-0.2378,0.2891-0.3154,0.4688s-0.1162,0.3721-0.1162,0.5771v1.2617h3.6357V12.0586z"
			/>
		<path style="fill:#FFFFFF;" d="M70.2363,7.3525c-0.1714,0-0.3306,0.0313-0.4771,0.0947c-0.147,0.0635-0.2754,0.1514-0.3862,0.2617
			s-0.1978,0.2412-0.2612,0.3896c-0.064,0.1504-0.0957,0.3105-0.0957,0.4824v1.2031H71v0.9707h-1.9839v7.5293h-1.021v-7.5293
			h-1.5356V9.7842h1.5356V8.6299c0-0.3096,0.0581-0.6016,0.1743-0.875c0.1162-0.2744,0.2769-0.5137,0.4814-0.7188
			c0.2046-0.2041,0.4429-0.3652,0.7139-0.4805c0.271-0.1172,0.5615-0.1748,0.8716-0.1748h0.938v0.9717H70.2363z"/>
		<path style="fill:#FFFFFF;" d="M72.4526,7.7422V6.3809h1.187v1.3613H72.4526z M72.5356,18.2842v-8.5h1.021v8.5H72.5356z"/>
		<path style="fill:#FFFFFF;" d="M81.4219,16.9229c-0.1304,0.3047-0.3086,0.5703-0.5356,0.7969s-0.4927,0.4053-0.7969,0.5352
			s-0.6279,0.1953-0.9712,0.1953h-0.6807c-0.3433,0-0.667-0.0654-0.9712-0.1953s-0.5698-0.3086-0.7969-0.5352
			s-0.4053-0.4922-0.5356-0.7969c-0.1299-0.3047-0.1948-0.6279-0.1948-0.9707v-3.8359c0-0.3428,0.0649-0.666,0.1948-0.9707
			c0.1304-0.3047,0.3086-0.5703,0.5356-0.7969s0.4927-0.4053,0.7969-0.5352s0.6279-0.1953,0.9712-0.1953h0.6807
			c0.3433,0,0.667,0.0654,0.9712,0.1953s0.5698,0.3086,0.7969,0.5352s0.4053,0.4922,0.5356,0.7969
			c0.1299,0.3047,0.1948,0.6279,0.1948,0.9707v0.3408l-1.021,0.166v-0.5645c0-0.2051-0.0386-0.3975-0.1162-0.5771
			s-0.1826-0.3359-0.3154-0.4688s-0.2891-0.2383-0.4688-0.3154c-0.1802-0.0771-0.3726-0.1162-0.5771-0.1162h-0.6807
			c-0.2046,0-0.397,0.0391-0.5771,0.1162c-0.1797,0.0771-0.3359,0.1826-0.4688,0.3154s-0.2378,0.2891-0.3154,0.4688
			S76.96,11.8535,76.96,12.0586v3.9512c0,0.2051,0.0386,0.3975,0.1162,0.5771s0.1826,0.3359,0.3154,0.4688
			s0.2891,0.2383,0.4688,0.3154c0.1802,0.0771,0.3726,0.1162,0.5771,0.1162h0.6807c0.2046,0,0.397-0.0391,0.5771-0.1162
			c0.1797-0.0771,0.3359-0.1826,0.4688-0.3154s0.2378-0.2891,0.3154-0.4688s0.1162-0.3721,0.1162-0.5771v-0.5645l1.021,0.166v0.3408
			C81.6167,16.2949,81.5518,16.6182,81.4219,16.9229z"/>
		<path style="fill:#FFFFFF;" d="M83.916,7.7422V6.3809h1.187v1.3613H83.916z M83.999,18.2842v-8.5h1.021v8.5H83.999z"/>
		<path style="fill:#FFFFFF;" d="M92.8853,16.9229c-0.1304,0.3047-0.3086,0.5703-0.5356,0.7969s-0.4927,0.4053-0.7969,0.5352
			s-0.6279,0.1953-0.9712,0.1953h-0.6807c-0.3433,0-0.667-0.0654-0.9712-0.1953s-0.5698-0.3086-0.7969-0.5352
			s-0.4053-0.4922-0.5356-0.7969c-0.1299-0.3047-0.1948-0.6279-0.1948-0.9707v-3.8359c0-0.3428,0.0649-0.666,0.1948-0.9707
			c0.1304-0.3047,0.3086-0.5703,0.5356-0.7969s0.4927-0.4053,0.7969-0.5352s0.6279-0.1953,0.9712-0.1953h0.6807
			c0.3433,0,0.667,0.0654,0.9712,0.1953s0.5698,0.3086,0.7969,0.5352s0.4053,0.4922,0.5356,0.7969
			c0.1299,0.3047,0.1948,0.6279,0.1948,0.9707v3.8359C93.0801,16.2949,93.0151,16.6182,92.8853,16.9229z M92.0591,12.0586
			c0-0.2051-0.0386-0.3975-0.1162-0.5771s-0.1826-0.3359-0.3154-0.4688s-0.2891-0.2383-0.4688-0.3154
			c-0.1802-0.0771-0.3726-0.1162-0.5771-0.1162h-0.6807c-0.2046,0-0.397,0.0391-0.5771,0.1162
			c-0.1797,0.0771-0.3359,0.1826-0.4688,0.3154s-0.2378,0.2891-0.3154,0.4688s-0.1162,0.3721-0.1162,0.5771v3.9512
			c0,0.2051,0.0386,0.3975,0.1162,0.5771s0.1826,0.3359,0.3154,0.4688s0.2891,0.2383,0.4688,0.3154
			c0.1802,0.0771,0.3726,0.1162,0.5771,0.1162h0.6807c0.2046,0,0.397-0.0391,0.5771-0.1162
			c0.1797-0.0771,0.3359-0.1826,0.4688-0.3154s0.2378-0.2891,0.3154-0.4688s0.1162-0.3721,0.1162-0.5771V12.0586z"/>
		<path style="fill:#FFFFFF;" d="M100.9658,16.126c0,0.3428-0.0693,0.6572-0.2075,0.9424s-0.3267,0.5293-0.5645,0.7344
			s-0.5132,0.3643-0.8262,0.4775c-0.3125,0.1133-0.6401,0.1699-0.9834,0.1699h-0.6807c-0.3433,0-0.6709-0.0654-0.9834-0.1953
			c-0.313-0.1299-0.5869-0.3086-0.8223-0.5352c-0.2349-0.2266-0.4229-0.4922-0.5645-0.7969
			c-0.1406-0.3047-0.2114-0.6279-0.2114-0.9707v-0.3408l1.021-0.166v0.5645c0,0.2051,0.043,0.3975,0.1289,0.5771
			c0.0854,0.1797,0.2002,0.3359,0.3442,0.4688s0.3101,0.2383,0.498,0.3154s0.3848,0.1162,0.5894,0.1162h0.6807
			c0.2046,0,0.4014-0.0303,0.5894-0.0918c0.188-0.0605,0.3555-0.1475,0.5024-0.2607c0.1465-0.1133,0.2627-0.251,0.3486-0.4111
			c0.0854-0.1602,0.1284-0.3428,0.1284-0.5479c0-0.3047-0.0664-0.5537-0.1992-0.7471s-0.3086-0.3555-0.5269-0.4854
			c-0.2188-0.1299-0.4678-0.2383-0.7471-0.3242c-0.2798-0.0859-0.5659-0.1709-0.8594-0.2568s-0.5796-0.1846-0.8594-0.2949
			c-0.2793-0.1104-0.5283-0.2559-0.7471-0.4355c-0.2183-0.1797-0.394-0.4053-0.5269-0.6768s-0.1992-0.6084-0.1992-1.0127
			c0-0.3428,0.0664-0.6572,0.1992-0.9424s0.3125-0.5293,0.5396-0.7344s0.4912-0.3643,0.793-0.4775
			c0.3013-0.1133,0.6235-0.1699,0.9668-0.1699h0.5977c0.3433,0,0.667,0.0654,0.9712,0.1953s0.5698,0.3086,0.7969,0.5352
			s0.4053,0.4922,0.5356,0.7969c0.1299,0.3047,0.1948,0.6279,0.1948,0.9707v0.0332l-1.021,0.166v-0.2568
			c0-0.2051-0.0386-0.3975-0.1162-0.5771s-0.1826-0.3359-0.3154-0.4688s-0.2891-0.2383-0.4688-0.3154
			c-0.1802-0.0771-0.3726-0.1162-0.5771-0.1162h-0.5977c-0.2046,0-0.397,0.0303-0.5771,0.0918
			c-0.1797,0.0605-0.3359,0.1475-0.4688,0.2607s-0.2378,0.251-0.3154,0.4111s-0.1162,0.3428-0.1162,0.5479
			c0,0.293,0.0664,0.5322,0.1992,0.7178s0.3086,0.3418,0.5273,0.4688c0.2183,0.1279,0.4673,0.2344,0.7471,0.3203
			c0.2793,0.0859,0.5645,0.1738,0.8545,0.2656c0.291,0.0908,0.5757,0.1953,0.8555,0.3105c0.2793,0.1172,0.5283,0.2656,0.7471,0.4492
			c0.2183,0.1816,0.394,0.4102,0.5269,0.6846C100.8994,15.3828,100.9658,15.7217,100.9658,16.126z"/>
		<path style="fill:#FFFFFF;" d="M112.1714,18.2842l-0.5645-0.8633c-0.2324,0.3154-0.5225,0.5654-0.8721,0.751
			c-0.3477,0.1855-0.7305,0.2783-1.1445,0.2783h-0.2578c-0.3428,0-0.667-0.0654-0.9707-0.1953
			c-0.3047-0.1299-0.5703-0.3086-0.7969-0.5352c-0.2275-0.2266-0.4063-0.4922-0.5361-0.7969s-0.1943-0.6279-0.1943-0.9707v-3.8359
			c0-0.3428,0.0645-0.666,0.1943-0.9707s0.3086-0.5703,0.5361-0.7969c0.2266-0.2266,0.4922-0.4053,0.7969-0.5352
			c0.3037-0.1299,0.6279-0.1953,0.9707-0.1953h0.2578c0.3809,0,0.7354,0.0771,1.0625,0.2324
			c0.3262,0.1553,0.6055,0.3711,0.8379,0.6475V6.3809h1.0215v11.9033H112.1714z M111.4907,12.0586
			c0-0.2051-0.0391-0.3975-0.1162-0.5771s-0.1826-0.3359-0.3154-0.4688s-0.2891-0.2383-0.4688-0.3154s-0.3721-0.1162-0.5771-0.1162
			h-0.6807c-0.2051,0-0.3975,0.0391-0.5771,0.1162s-0.3359,0.1826-0.4688,0.3154s-0.2383,0.2891-0.3154,0.4688
			s-0.1162,0.3721-0.1162,0.5771v3.9512c0,0.2051,0.0391,0.3975,0.1162,0.5771s0.1826,0.3359,0.3154,0.4688
			s0.2891,0.2383,0.4688,0.3154s0.3721,0.1162,0.5771,0.1162h0.6807c0.2051,0,0.3975-0.0391,0.5771-0.1162
			s0.3359-0.1826,0.4688-0.3154s0.2383-0.2891,0.3154-0.4688s0.1162-0.3721,0.1162-0.5771V12.0586z"/>
		<path style="fill:#FFFFFF;" d="M120.0371,16.9229c-0.1299,0.3047-0.3086,0.5703-0.5352,0.7969
			c-0.2275,0.2266-0.4932,0.4053-0.7969,0.5352c-0.3047,0.1299-0.6289,0.1953-0.9717,0.1953h-0.6807
			c-0.3423,0-0.6665-0.0654-0.9702-0.1953c-0.3047-0.1299-0.5703-0.3086-0.7969-0.5352c-0.2275-0.2266-0.4063-0.4922-0.5361-0.7969
			s-0.1943-0.6279-0.1943-0.9707v-3.8359c0-0.3428,0.0645-0.666,0.1943-0.9707s0.3086-0.5703,0.5361-0.7969
			c0.2266-0.2266,0.4922-0.4053,0.7969-0.5352c0.3037-0.1299,0.6279-0.1953,0.9702-0.1953h0.6807
			c0.3428,0,0.667,0.0654,0.9717,0.1953c0.3037,0.1299,0.5693,0.3086,0.7969,0.5352c0.2266,0.2266,0.4053,0.4922,0.5352,0.7969
			s0.1953,0.6279,0.1953,0.9707v2.001h-4.6567v1.8926c0,0.2051,0.0391,0.3975,0.1162,0.5771s0.1826,0.3359,0.3154,0.4688
			s0.2891,0.2383,0.4688,0.3154s0.3721,0.1162,0.5767,0.1162h0.6807c0.2051,0,0.3975-0.0391,0.5771-0.1162
			s0.3359-0.1826,0.4688-0.3154s0.2383-0.2891,0.3154-0.4688s0.1162-0.3721,0.1162-0.5771v-0.5645l1.0215,0.166v0.3408
			C120.2324,16.2949,120.167,16.6182,120.0371,16.9229z M119.2109,12.0586c0-0.2051-0.0391-0.3975-0.1162-0.5771
			s-0.1826-0.3359-0.3154-0.4688s-0.2891-0.2383-0.4688-0.3154s-0.3721-0.1162-0.5771-0.1162h-0.6807
			c-0.2046,0-0.397,0.0391-0.5767,0.1162s-0.3359,0.1826-0.4688,0.3154s-0.2383,0.2891-0.3154,0.4688s-0.1162,0.3721-0.1162,0.5771
			v1.2617h3.6353V12.0586z"/>
		<path style="fill:#FFFFFF;" d="M126.5234,18.2842V6.3809h1.0215v11.9033H126.5234z"/>
		<path style="fill:#FFFFFF;" d="M135.2646,18.2842l-0.5645-0.8467c-0.2324,0.3047-0.5225,0.5488-0.8721,0.7344
			c-0.3477,0.1855-0.7305,0.2783-1.1445,0.2783h-0.2578c-0.3428,0-0.667-0.0654-0.9707-0.1953
			c-0.3047-0.1299-0.5703-0.3086-0.7969-0.5352c-0.2275-0.2266-0.4063-0.4922-0.5361-0.7969s-0.1943-0.6279-0.1943-0.9707v-0.084
			c0-0.3428,0.0645-0.666,0.1943-0.9707s0.3086-0.5703,0.5361-0.7969c0.2266-0.2266,0.4922-0.4053,0.7969-0.5352
			c0.3037-0.1299,0.6279-0.1953,0.9707-0.1953h2.1582v-1.3115c0-0.2051-0.0391-0.3975-0.1162-0.5771s-0.1826-0.3359-0.3154-0.4688
			s-0.2891-0.2383-0.4688-0.3154s-0.3721-0.1162-0.5771-0.1162h-0.5977c-0.2051,0-0.3975,0.0391-0.5771,0.1162
			s-0.3359,0.1826-0.4688,0.3154s-0.2383,0.2891-0.3154,0.4688s-0.1162,0.3721-0.1162,0.5771v0.3076l-1.0215-0.166v-0.084
			c0-0.3428,0.0654-0.666,0.1953-0.9707s0.3086-0.5703,0.5352-0.7969c0.2275-0.2266,0.4932-0.4053,0.7969-0.5352
			c0.3047-0.1299,0.6289-0.1953,0.9717-0.1953h0.5977c0.3428,0,0.667,0.0654,0.9717,0.1953
			c0.3037,0.1299,0.5693,0.3086,0.7969,0.5352c0.2266,0.2266,0.4053,0.4922,0.5352,0.7969s0.1953,0.6279,0.1953,0.9707v6.168
			H135.2646z M134.584,14.167h-2.1582c-0.2051,0-0.3975,0.0391-0.5771,0.1162s-0.3359,0.1836-0.4688,0.3193
			s-0.2383,0.2939-0.3154,0.4736s-0.1162,0.3721-0.1162,0.5771v0.3564c0,0.2051,0.0391,0.3975,0.1162,0.5771
			s0.1826,0.3359,0.3154,0.4688s0.2891,0.2383,0.4688,0.3154s0.3721,0.1162,0.5771,0.1162h0.6807
			c0.2051,0,0.3975-0.0391,0.5771-0.1162s0.3359-0.1826,0.4688-0.3154s0.2383-0.2891,0.3154-0.4688s0.1162-0.3721,0.1162-0.5771
			V14.167z"/>
		<path style="fill:#FFFFFF;" d="M147.0391,16.9229c-0.1299,0.3047-0.3086,0.5703-0.5352,0.7969
			c-0.2275,0.2266-0.4932,0.4053-0.7969,0.5352c-0.3047,0.1299-0.6289,0.1953-0.9717,0.1953h-0.6807
			c-0.3428,0-0.667-0.0654-0.9707-0.1953c-0.3047-0.1299-0.5703-0.3086-0.7969-0.5352c-0.2275-0.2266-0.4063-0.4922-0.5361-0.7969
			s-0.1943-0.6279-0.1943-0.9707v-3.8359c0-0.3428,0.0645-0.666,0.1943-0.9707s0.3086-0.5703,0.5361-0.7969
			c0.2266-0.2266,0.4922-0.4053,0.7969-0.5352c0.3037-0.1299,0.6279-0.1953,0.9707-0.1953h0.6807
			c0.3428,0,0.667,0.0654,0.9717,0.1953c0.3037,0.1299,0.5693,0.3086,0.7969,0.5352c0.2266,0.2266,0.4053,0.4922,0.5352,0.7969
			s0.1953,0.6279,0.1953,0.9707v0.3408l-1.0215,0.166v-0.5645c0-0.2051-0.0391-0.3975-0.1162-0.5771s-0.1826-0.3359-0.3154-0.4688
			s-0.2891-0.2383-0.4688-0.3154s-0.3721-0.1162-0.5771-0.1162h-0.6807c-0.2051,0-0.3975,0.0391-0.5771,0.1162
			s-0.3359,0.1826-0.4688,0.3154s-0.2383,0.2891-0.3154,0.4688s-0.1162,0.3721-0.1162,0.5771v3.9512
			c0,0.2051,0.0391,0.3975,0.1162,0.5771s0.1826,0.3359,0.3154,0.4688s0.2891,0.2383,0.4688,0.3154s0.3721,0.1162,0.5771,0.1162
			h0.6807c0.2051,0,0.3975-0.0391,0.5771-0.1162s0.3359-0.1826,0.4688-0.3154s0.2383-0.2891,0.3154-0.4688
			s0.1162-0.3721,0.1162-0.5771v-0.5645l1.0215,0.166v0.3408C147.2344,16.2949,147.1689,16.6182,147.0391,16.9229z"/>
		<path style="fill:#FFFFFF;" d="M154.7588,16.9229c-0.1299,0.3047-0.3086,0.5703-0.5352,0.7969
			c-0.2275,0.2266-0.4932,0.4053-0.7969,0.5352c-0.3047,0.1299-0.6289,0.1953-0.9717,0.1953h-0.6807
			c-0.3428,0-0.667-0.0654-0.9707-0.1953c-0.3047-0.1299-0.5703-0.3086-0.7969-0.5352c-0.2275-0.2266-0.4063-0.4922-0.5361-0.7969
			s-0.1943-0.6279-0.1943-0.9707v-3.8359c0-0.3428,0.0645-0.666,0.1943-0.9707s0.3086-0.5703,0.5361-0.7969
			c0.2266-0.2266,0.4922-0.4053,0.7969-0.5352c0.3037-0.1299,0.6279-0.1953,0.9707-0.1953h0.6807
			c0.3428,0,0.667,0.0654,0.9717,0.1953c0.3037,0.1299,0.5693,0.3086,0.7969,0.5352c0.2266,0.2266,0.4053,0.4922,0.5352,0.7969
			s0.1953,0.6279,0.1953,0.9707v2.001h-4.6572v1.8926c0,0.2051,0.0391,0.3975,0.1162,0.5771s0.1826,0.3359,0.3154,0.4688
			s0.2891,0.2383,0.4688,0.3154s0.3721,0.1162,0.5771,0.1162h0.6807c0.2051,0,0.3975-0.0391,0.5771-0.1162
			s0.3359-0.1826,0.4688-0.3154s0.2383-0.2891,0.3154-0.4688s0.1162-0.3721,0.1162-0.5771v-0.5645l1.0215,0.166v0.3408
			C154.9541,16.2949,154.8887,16.6182,154.7588,16.9229z M153.9326,12.0586c0-0.2051-0.0391-0.3975-0.1162-0.5771
			s-0.1826-0.3359-0.3154-0.4688s-0.2891-0.2383-0.4688-0.3154s-0.3721-0.1162-0.5771-0.1162h-0.6807
			c-0.2051,0-0.3975,0.0391-0.5771,0.1162s-0.3359,0.1826-0.4688,0.3154s-0.2383,0.2891-0.3154,0.4688s-0.1162,0.3721-0.1162,0.5771
			v1.2617h3.6357V12.0586z"/>
		<path style="fill:#FFFFFF;" d="M159.4941,10.7549c-0.2051,0-0.3975,0.0391-0.5771,0.1172
			c-0.1797,0.0771-0.3359,0.1816-0.4688,0.3145s-0.2383,0.29-0.3154,0.4697s-0.1162,0.3721-0.1162,0.5771v6.0508h-1.0205v-8.5
			h0.3398l0.5566,0.8633c0.2324-0.3154,0.5234-0.5654,0.875-0.751s0.7344-0.2783,1.1504-0.2783h0.5977v1.1367H159.4941z"/>
		<path style="fill:#FFFFFF;" d="M164.9727,18.2842c-0.3096,0-0.6016-0.0586-0.876-0.1738
			c-0.2734-0.1172-0.5117-0.2773-0.7139-0.4824c-0.2021-0.2041-0.3623-0.4424-0.4814-0.7129
			c-0.1191-0.2715-0.1787-0.5625-0.1787-0.8721v-5.2881h-1.5273V9.7842h1.5273v-2.042l1.0215-0.166v2.208h2.1582v0.9707h-2.1582
			v5.3379c0,0.1719,0.0322,0.3311,0.0957,0.4775s0.1504,0.2754,0.2617,0.3857c0.1104,0.1104,0.2402,0.1982,0.3896,0.2617
			s0.3096,0.0957,0.4814,0.0957h0.9297v0.9707H164.9727z"/>
		<path style="fill:#FFFFFF;" d="M168.0361,7.7422V6.3809h1.1865v1.3613H168.0361z M168.1191,18.2842v-8.5h1.0215v8.5H168.1191z"/>
		<path style="fill:#FFFFFF;" d="M174.4443,7.3525c-0.1719,0-0.3311,0.0313-0.4775,0.0947s-0.2754,0.1514-0.3857,0.2617
			c-0.1113,0.1104-0.1982,0.2412-0.2617,0.3896c-0.0635,0.1504-0.0957,0.3105-0.0957,0.4824v1.2031h1.9844v0.9707h-1.9844v7.5293
			h-1.0215v-7.5293h-1.5352V9.7842h1.5352V8.6299c0-0.3096,0.0586-0.6016,0.1748-0.875c0.1162-0.2744,0.2764-0.5137,0.4814-0.7188
			c0.2051-0.2041,0.4424-0.3652,0.7139-0.4805c0.2715-0.1172,0.5615-0.1748,0.8721-0.1748h0.9375v0.9717H174.4443z"/>
		<path style="fill:#FFFFFF;" d="M176.6602,7.7422V6.3809h1.1865v1.3613H176.6602z M176.7432,18.2842v-8.5h1.0215v8.5H176.7432z"/>
		<path style="fill:#FFFFFF;" d="M185.6289,16.9229c-0.1299,0.3047-0.3086,0.5703-0.5352,0.7969
			c-0.2275,0.2266-0.4932,0.4053-0.7969,0.5352c-0.3047,0.1299-0.6289,0.1953-0.9717,0.1953h-0.6807
			c-0.3428,0-0.667-0.0654-0.9707-0.1953c-0.3047-0.1299-0.5703-0.3086-0.7969-0.5352c-0.2275-0.2266-0.4063-0.4922-0.5361-0.7969
			s-0.1943-0.6279-0.1943-0.9707v-3.8359c0-0.3428,0.0645-0.666,0.1943-0.9707s0.3086-0.5703,0.5361-0.7969
			c0.2266-0.2266,0.4922-0.4053,0.7969-0.5352c0.3037-0.1299,0.6279-0.1953,0.9707-0.1953h0.6807
			c0.3428,0,0.667,0.0654,0.9717,0.1953c0.3037,0.1299,0.5693,0.3086,0.7969,0.5352c0.2266,0.2266,0.4053,0.4922,0.5352,0.7969
			s0.1953,0.6279,0.1953,0.9707v0.3408l-1.0215,0.166v-0.5645c0-0.2051-0.0391-0.3975-0.1162-0.5771s-0.1826-0.3359-0.3154-0.4688
			s-0.2891-0.2383-0.4688-0.3154s-0.3721-0.1162-0.5771-0.1162h-0.6807c-0.2051,0-0.3975,0.0391-0.5771,0.1162
			s-0.3359,0.1826-0.4688,0.3154s-0.2383,0.2891-0.3154,0.4688s-0.1162,0.3721-0.1162,0.5771v3.9512
			c0,0.2051,0.0391,0.3975,0.1162,0.5771s0.1826,0.3359,0.3154,0.4688s0.2891,0.2383,0.4688,0.3154s0.3721,0.1162,0.5771,0.1162
			h0.6807c0.2051,0,0.3975-0.0391,0.5771-0.1162s0.3359-0.1826,0.4688-0.3154s0.2383-0.2891,0.3154-0.4688
			s0.1162-0.3721,0.1162-0.5771v-0.5645l1.0215,0.166v0.3408C185.8242,16.2949,185.7588,16.6182,185.6289,16.9229z"/>
		<path style="fill:#FFFFFF;" d="M193.2041,18.2842l-0.5645-0.8467c-0.2324,0.3047-0.5225,0.5488-0.8721,0.7344
			c-0.3477,0.1855-0.7305,0.2783-1.1445,0.2783h-0.2578c-0.3428,0-0.667-0.0654-0.9707-0.1953
			c-0.3047-0.1299-0.5703-0.3086-0.7969-0.5352c-0.2275-0.2266-0.4063-0.4922-0.5361-0.7969s-0.1943-0.6279-0.1943-0.9707v-0.084
			c0-0.3428,0.0645-0.666,0.1943-0.9707s0.3086-0.5703,0.5361-0.7969c0.2266-0.2266,0.4922-0.4053,0.7969-0.5352
			c0.3037-0.1299,0.6279-0.1953,0.9707-0.1953h2.1582v-1.3115c0-0.2051-0.0391-0.3975-0.1162-0.5771s-0.1826-0.3359-0.3154-0.4688
			s-0.2891-0.2383-0.4688-0.3154s-0.3721-0.1162-0.5771-0.1162h-0.5977c-0.2051,0-0.3975,0.0391-0.5771,0.1162
			s-0.3359,0.1826-0.4688,0.3154s-0.2383,0.2891-0.3154,0.4688s-0.1162,0.3721-0.1162,0.5771v0.3076l-1.0215-0.166v-0.084
			c0-0.3428,0.0654-0.666,0.1953-0.9707s0.3086-0.5703,0.5352-0.7969c0.2275-0.2266,0.4932-0.4053,0.7969-0.5352
			c0.3047-0.1299,0.6289-0.1953,0.9717-0.1953h0.5977c0.3428,0,0.667,0.0654,0.9717,0.1953
			c0.3037,0.1299,0.5693,0.3086,0.7969,0.5352c0.2266,0.2266,0.4053,0.4922,0.5352,0.7969s0.1953,0.6279,0.1953,0.9707v6.168
			H193.2041z M192.5234,14.167h-2.1582c-0.2051,0-0.3975,0.0391-0.5771,0.1162s-0.3359,0.1836-0.4688,0.3193
			s-0.2383,0.2939-0.3154,0.4736s-0.1162,0.3721-0.1162,0.5771v0.3564c0,0.2051,0.0391,0.3975,0.1162,0.5771
			s0.1826,0.3359,0.3154,0.4688s0.2891,0.2383,0.4688,0.3154s0.3721,0.1162,0.5771,0.1162h0.6807
			c0.2051,0,0.3975-0.0391,0.5771-0.1162s0.3359-0.1826,0.4688-0.3154s0.2383-0.2891,0.3154-0.4688s0.1162-0.3721,0.1162-0.5771
			V14.167z"/>
		<path style="fill:#FFFFFF;" d="M201.0684,16.9229c-0.1299,0.3047-0.3086,0.5703-0.5352,0.7969
			c-0.2275,0.2266-0.4932,0.4053-0.7969,0.5352c-0.3047,0.1299-0.6289,0.1953-0.9717,0.1953h-0.6807
			c-0.3428,0-0.667-0.0654-0.9707-0.1953c-0.3047-0.1299-0.5703-0.3086-0.7969-0.5352c-0.2275-0.2266-0.4063-0.4922-0.5361-0.7969
			s-0.1943-0.6279-0.1943-0.9707v-3.8359c0-0.3428,0.0645-0.666,0.1943-0.9707s0.3086-0.5703,0.5361-0.7969
			c0.2266-0.2266,0.4922-0.4053,0.7969-0.5352c0.3037-0.1299,0.6279-0.1953,0.9707-0.1953h0.6807
			c0.3428,0,0.667,0.0654,0.9717,0.1953c0.3037,0.1299,0.5693,0.3086,0.7969,0.5352c0.2266,0.2266,0.4053,0.4922,0.5352,0.7969
			s0.1953,0.6279,0.1953,0.9707v0.3408l-1.0215,0.166v-0.5645c0-0.2051-0.0391-0.3975-0.1162-0.5771s-0.1826-0.3359-0.3154-0.4688
			s-0.2891-0.2383-0.4688-0.3154s-0.3721-0.1162-0.5771-0.1162h-0.6807c-0.2051,0-0.3975,0.0391-0.5771,0.1162
			s-0.3359,0.1826-0.4688,0.3154s-0.2383,0.2891-0.3154,0.4688s-0.1162,0.3721-0.1162,0.5771v3.9512
			c0,0.2051,0.0391,0.3975,0.1162,0.5771s0.1826,0.3359,0.3154,0.4688s0.2891,0.2383,0.4688,0.3154s0.3721,0.1162,0.5771,0.1162
			h0.6807c0.2051,0,0.3975-0.0391,0.5771-0.1162s0.3359-0.1826,0.4688-0.3154s0.2383-0.2891,0.3154-0.4688
			s0.1162-0.3721,0.1162-0.5771v-0.5645l1.0215,0.166v0.3408C201.2637,16.2949,201.1982,16.6182,201.0684,16.9229z"/>
		<path style="fill:#FFFFFF;" d="M203.5635,7.7422V6.3809h1.1865v1.3613H203.5635z M203.6465,18.2842v-8.5h1.0215v8.5H203.6465z"/>
		<path style="fill:#FFFFFF;" d="M212.5322,16.9229c-0.1299,0.3047-0.3086,0.5703-0.5352,0.7969
			c-0.2275,0.2266-0.4932,0.4053-0.7969,0.5352c-0.3047,0.1299-0.6289,0.1953-0.9717,0.1953h-0.6807
			c-0.3428,0-0.667-0.0654-0.9707-0.1953c-0.3047-0.1299-0.5703-0.3086-0.7969-0.5352c-0.2275-0.2266-0.4063-0.4922-0.5361-0.7969
			s-0.1943-0.6279-0.1943-0.9707v-3.8359c0-0.3428,0.0645-0.666,0.1943-0.9707s0.3086-0.5703,0.5361-0.7969
			c0.2266-0.2266,0.4922-0.4053,0.7969-0.5352c0.3037-0.1299,0.6279-0.1953,0.9707-0.1953h0.6807
			c0.3428,0,0.667,0.0654,0.9717,0.1953c0.3037,0.1299,0.5693,0.3086,0.7969,0.5352c0.2266,0.2266,0.4053,0.4922,0.5352,0.7969
			s0.1953,0.6279,0.1953,0.9707v3.8359C212.7275,16.2949,212.6621,16.6182,212.5322,16.9229z M211.7061,12.0586
			c0-0.2051-0.0391-0.3975-0.1162-0.5771s-0.1826-0.3359-0.3154-0.4688s-0.2891-0.2383-0.4688-0.3154s-0.3721-0.1162-0.5771-0.1162
			h-0.6807c-0.2051,0-0.3975,0.0391-0.5771,0.1162s-0.3359,0.1826-0.4688,0.3154s-0.2383,0.2891-0.3154,0.4688
			s-0.1162,0.3721-0.1162,0.5771v3.9512c0,0.2051,0.0391,0.3975,0.1162,0.5771s0.1826,0.3359,0.3154,0.4688
			s0.2891,0.2383,0.4688,0.3154s0.3721,0.1162,0.5771,0.1162h0.6807c0.2051,0,0.3975-0.0391,0.5771-0.1162
			s0.3359-0.1826,0.4688-0.3154s0.2383-0.2891,0.3154-0.4688s0.1162-0.3721,0.1162-0.5771V12.0586z M209.4648,8.4229h-0.7637
			l1.3525-2.042h1.7021L209.4648,8.4229z"/>
		<path style="fill:#FFFFFF;" d="M219.4258,18.2842v-6.2256c0-0.2051-0.0391-0.3975-0.1162-0.5771s-0.1826-0.3359-0.3154-0.4688
			s-0.2891-0.2383-0.4688-0.3154s-0.3721-0.1162-0.5771-0.1162h-0.6807c-0.2051,0-0.3975,0.0391-0.5771,0.1162
			s-0.3359,0.1826-0.4688,0.3154s-0.2383,0.2891-0.3154,0.4688s-0.1162,0.3721-0.1162,0.5771v6.2256h-1.0205v-8.5h0.3398
			l0.5566,0.8633c0.2324-0.3154,0.5234-0.5654,0.875-0.751s0.7344-0.2783,1.1504-0.2783h0.2568c0.3428,0,0.667,0.0654,0.9717,0.1953
			c0.3037,0.1299,0.5693,0.3086,0.7969,0.5352c0.2266,0.2266,0.4053,0.4922,0.5352,0.7969s0.1953,0.6279,0.1953,0.9707v6.168
			H219.4258z"/>
	</g>
</g>
</svg>
