<?xml version="1.0" encoding="utf-8"?>
<!-- Generator: Adobe Illustrator 21.0.0, SVG Export Plug-In . SVG Version: 6.00 Build 0)  -->
<svg version="1.1" id="Capa_1" xmlns="http://www.w3.org/2000/svg" xmlns:xlink="http://www.w3.org/1999/xlink" x="0px" y="0px"
	 viewBox="0 0 232 28" style="enable-background:new 0 0 232 28;" xml:space="preserve">
<rect id="XMLID_10_" y="-0.0488" style="opacity:0.8;fill:#2C6882;enable-background:new    ;" width="232" height="28"/>
<circle style="fill:#2C4D67;stroke:#FFFFFF;stroke-miterlimit:10;" cx="19.8" cy="14" r="2.3"/>
<g>
	<g>
		<path style="fill:#FFFFFF;" d="M42.3232,15.6943c0,0.4043-0.0815,0.7832-0.2451,1.1367
			c-0.1631,0.3545-0.3818,0.6641-0.6553,0.9297c-0.2744,0.2656-0.5923,0.4746-0.9551,0.627
			c-0.3623,0.1523-0.7456,0.2285-1.1494,0.2285h-0.855c-0.4038,0-0.7871-0.0762-1.1499-0.2285
			c-0.3623-0.1523-0.6807-0.3613-0.9541-0.627c-0.2744-0.2656-0.4927-0.5752-0.6563-0.9297
			c-0.1631-0.3535-0.2446-0.7324-0.2446-1.1367v-0.4727l1.0708-0.1748v0.6475c0,0.2656,0.0537,0.5137,0.1621,0.7432
			c0.1074,0.2295,0.2529,0.4316,0.4355,0.6055c0.1826,0.1748,0.3945,0.3115,0.6348,0.4111
			c0.2412,0.0996,0.4941,0.1494,0.7598,0.1494h0.7471c0.2656,0,0.5176-0.0498,0.7554-0.1494s0.4482-0.2363,0.6309-0.4111
			c0.1826-0.1738,0.3276-0.376,0.436-0.6055c0.1074-0.2295,0.1616-0.4775,0.1616-0.7432v-0.3574
			c0-0.4092-0.0801-0.749-0.2407-1.0205s-0.3735-0.502-0.6392-0.6934c-0.2656-0.1904-0.5659-0.3525-0.9009-0.4854
			c-0.3345-0.1328-0.6792-0.2656-1.0332-0.3984s-0.6987-0.2793-1.0332-0.4395c-0.335-0.1611-0.6353-0.3613-0.9009-0.6025
			c-0.2656-0.2402-0.4785-0.5352-0.6392-0.8838s-0.2407-0.7773-0.2407-1.2871V9.3027c0-0.4043,0.0762-0.7832,0.228-1.1377
			c0.1523-0.3535,0.3613-0.6641,0.627-0.9297s0.5771-0.4736,0.9336-0.626c0.3574-0.1523,0.7378-0.2285,1.1416-0.2285h0.7637
			c0.4038,0,0.7832,0.0762,1.1372,0.2285s0.6641,0.3604,0.9297,0.626s0.4746,0.5762,0.6265,0.9297
			c0.1523,0.3545,0.2285,0.7334,0.2285,1.1377v0.3076l-1.0708,0.1738V9.3027c0-0.2656-0.0498-0.5137-0.1494-0.7432
			s-0.2354-0.4297-0.4067-0.6016s-0.3721-0.3066-0.6016-0.4063c-0.23-0.0996-0.4775-0.1504-0.7432-0.1504h-0.6641
			c-0.2656,0-0.5132,0.0508-0.7432,0.1504c-0.2295,0.0996-0.4316,0.2344-0.6055,0.4063c-0.1748,0.1719-0.3115,0.3721-0.4111,0.6016
			s-0.1494,0.4775-0.1494,0.7432v0.2236c0,0.3828,0.0801,0.7031,0.2407,0.9629c0.1606,0.2607,0.3735,0.4834,0.6392,0.6689
			s0.5659,0.3457,0.9004,0.4814c0.335,0.1357,0.6797,0.2734,1.0337,0.415c0.354,0.1406,0.6987,0.2959,1.0337,0.4648
			c0.3345,0.1689,0.6348,0.376,0.9004,0.6221s0.4785,0.5469,0.6392,0.9004c0.1606,0.3545,0.2407,0.7861,0.2407,1.2949V15.6943z"/>
		<path style="fill:#FFFFFF;" d="M49.7651,17.0889c-0.1304,0.3047-0.3086,0.5703-0.5356,0.7969s-0.4927,0.4053-0.7969,0.5352
			s-0.6279,0.1953-0.9712,0.1953h-0.6807c-0.3433,0-0.667-0.0654-0.9712-0.1953s-0.5698-0.3086-0.7969-0.5352
			s-0.4053-0.4922-0.5356-0.7969c-0.1299-0.3047-0.1948-0.6279-0.1948-0.9707v-3.8359c0-0.3428,0.0649-0.666,0.1948-0.9707
			c0.1304-0.3047,0.3086-0.5703,0.5356-0.7969s0.4927-0.4053,0.7969-0.5352s0.6279-0.1953,0.9712-0.1953h0.6807
			c0.3433,0,0.667,0.0654,0.9712,0.1953s0.5698,0.3086,0.7969,0.5352s0.4053,0.4922,0.5356,0.7969
			c0.1299,0.3047,0.1948,0.6279,0.1948,0.9707v2.001h-4.6567v1.8926c0,0.2051,0.0386,0.3975,0.1162,0.5771
			s0.1826,0.3359,0.3154,0.4688s0.2891,0.2383,0.4688,0.3154c0.1802,0.0771,0.3726,0.1162,0.5771,0.1162h0.6807
			c0.2046,0,0.397-0.0391,0.5771-0.1162c0.1797-0.0771,0.3359-0.1826,0.4688-0.3154s0.2378-0.2891,0.3154-0.4688
			s0.1162-0.3721,0.1162-0.5771v-0.5645l1.021,0.166v0.3408C49.96,16.4609,49.895,16.7842,49.7651,17.0889z M48.939,12.2246
			c0-0.2051-0.0386-0.3975-0.1162-0.5771s-0.1826-0.3359-0.3154-0.4688s-0.2891-0.2383-0.4688-0.3154
			c-0.1802-0.0771-0.3726-0.1162-0.5771-0.1162h-0.6807c-0.2046,0-0.397,0.0391-0.5771,0.1162
			c-0.1797,0.0771-0.3359,0.1826-0.4688,0.3154s-0.2378,0.2891-0.3154,0.4688s-0.1162,0.3721-0.1162,0.5771v1.2617h3.6357V12.2246z"
			/>
		<path style="fill:#FFFFFF;" d="M57.4849,17.0889c-0.1304,0.3047-0.3086,0.5703-0.5356,0.7969s-0.4927,0.4053-0.7969,0.5352
			s-0.6279,0.1953-0.9712,0.1953h-0.6807c-0.3433,0-0.667-0.0654-0.9712-0.1953s-0.5698-0.3086-0.7969-0.5352
			s-0.4053-0.4922-0.5356-0.7969c-0.1299-0.3047-0.1948-0.6279-0.1948-0.9707v-3.8359c0-0.3428,0.0649-0.666,0.1948-0.9707
			c0.1304-0.3047,0.3086-0.5703,0.5356-0.7969s0.4927-0.4053,0.7969-0.5352s0.6279-0.1953,0.9712-0.1953h0.6807
			c0.3433,0,0.667,0.0654,0.9712,0.1953s0.5698,0.3086,0.7969,0.5352s0.4053,0.4922,0.5356,0.7969
			c0.1299,0.3047,0.1948,0.6279,0.1948,0.9707v0.3408l-1.021,0.166v-0.5645c0-0.2051-0.0386-0.3975-0.1162-0.5771
			s-0.1826-0.3359-0.3154-0.4688s-0.2891-0.2383-0.4688-0.3154c-0.1802-0.0771-0.3726-0.1162-0.5771-0.1162h-0.6807
			c-0.2046,0-0.397,0.0391-0.5771,0.1162c-0.1797,0.0771-0.3359,0.1826-0.4688,0.3154s-0.2378,0.2891-0.3154,0.4688
			s-0.1162,0.3721-0.1162,0.5771v3.9512c0,0.2051,0.0386,0.3975,0.1162,0.5771s0.1826,0.3359,0.3154,0.4688
			s0.2891,0.2383,0.4688,0.3154c0.1802,0.0771,0.3726,0.1162,0.5771,0.1162h0.6807c0.2046,0,0.397-0.0391,0.5771-0.1162
			c0.1797-0.0771,0.3359-0.1826,0.4688-0.3154s0.2378-0.2891,0.3154-0.4688s0.1162-0.3721,0.1162-0.5771v-0.5645l1.021,0.166v0.3408
			C57.6797,16.4609,57.6147,16.7842,57.4849,17.0889z"/>
		<path style="fill:#FFFFFF;" d="M65.2046,17.0889c-0.1304,0.3047-0.3086,0.5703-0.5356,0.7969s-0.4927,0.4053-0.7969,0.5352
			s-0.6279,0.1953-0.9712,0.1953h-0.6807c-0.3433,0-0.667-0.0654-0.9712-0.1953s-0.5698-0.3086-0.7969-0.5352
			s-0.4053-0.4922-0.5356-0.7969c-0.1299-0.3047-0.1948-0.6279-0.1948-0.9707v-3.8359c0-0.3428,0.0649-0.666,0.1948-0.9707
			c0.1304-0.3047,0.3086-0.5703,0.5356-0.7969s0.4927-0.4053,0.7969-0.5352s0.6279-0.1953,0.9712-0.1953h0.6807
			c0.3433,0,0.667,0.0654,0.9712,0.1953s0.5698,0.3086,0.7969,0.5352s0.4053,0.4922,0.5356,0.7969
			c0.1299,0.3047,0.1948,0.6279,0.1948,0.9707v0.3408l-1.021,0.166v-0.5645c0-0.2051-0.0386-0.3975-0.1162-0.5771
			s-0.1826-0.3359-0.3154-0.4688s-0.2891-0.2383-0.4688-0.3154c-0.1802-0.0771-0.3726-0.1162-0.5771-0.1162h-0.6807
			c-0.2046,0-0.397,0.0391-0.5771,0.1162c-0.1797,0.0771-0.3359,0.1826-0.4688,0.3154s-0.2378,0.2891-0.3154,0.4688
			s-0.1162,0.3721-0.1162,0.5771v3.9512c0,0.2051,0.0386,0.3975,0.1162,0.5771s0.1826,0.3359,0.3154,0.4688
			s0.2891,0.2383,0.4688,0.3154c0.1802,0.0771,0.3726,0.1162,0.5771,0.1162h0.6807c0.2046,0,0.397-0.0391,0.5771-0.1162
			c0.1797-0.0771,0.3359-0.1826,0.4688-0.3154s0.2378-0.2891,0.3154-0.4688s0.1162-0.3721,0.1162-0.5771v-0.5645l1.021,0.166v0.3408
			C65.3994,16.4609,65.3345,16.7842,65.2046,17.0889z"/>
		<path style="fill:#FFFFFF;" d="M67.6987,7.9082V6.5469h1.187v1.3613H67.6987z M67.7817,18.4502v-8.5h1.021v8.5H67.7817z"/>
		<path style="fill:#FFFFFF;" d="M76.668,17.0889c-0.1304,0.3047-0.3086,0.5703-0.5356,0.7969s-0.4927,0.4053-0.7969,0.5352
			s-0.6279,0.1953-0.9712,0.1953h-0.6807c-0.3433,0-0.667-0.0654-0.9712-0.1953s-0.5698-0.3086-0.7969-0.5352
			s-0.4053-0.4922-0.5356-0.7969c-0.1299-0.3047-0.1948-0.6279-0.1948-0.9707v-3.8359c0-0.3428,0.0649-0.666,0.1948-0.9707
			c0.1304-0.3047,0.3086-0.5703,0.5356-0.7969s0.4927-0.4053,0.7969-0.5352s0.6279-0.1953,0.9712-0.1953h0.6807
			c0.3433,0,0.667,0.0654,0.9712,0.1953s0.5698,0.3086,0.7969,0.5352s0.4053,0.4922,0.5356,0.7969
			c0.1299,0.3047,0.1948,0.6279,0.1948,0.9707v3.8359C76.8628,16.4609,76.7979,16.7842,76.668,17.0889z M75.8418,12.2246
			c0-0.2051-0.0386-0.3975-0.1162-0.5771s-0.1826-0.3359-0.3154-0.4688s-0.2891-0.2383-0.4688-0.3154
			c-0.1802-0.0771-0.3726-0.1162-0.5771-0.1162h-0.6807c-0.2046,0-0.397,0.0391-0.5771,0.1162
			c-0.1797,0.0771-0.3359,0.1826-0.4688,0.3154s-0.2378,0.2891-0.3154,0.4688s-0.1162,0.3721-0.1162,0.5771v3.9512
			c0,0.2051,0.0386,0.3975,0.1162,0.5771s0.1826,0.3359,0.3154,0.4688s0.2891,0.2383,0.4688,0.3154
			c0.1802,0.0771,0.3726,0.1162,0.5771,0.1162h0.6807c0.2046,0,0.397-0.0391,0.5771-0.1162
			c0.1797-0.0771,0.3359-0.1826,0.4688-0.3154s0.2378-0.2891,0.3154-0.4688s0.1162-0.3721,0.1162-0.5771V12.2246z"/>
		<path style="fill:#FFFFFF;" d="M83.5615,18.4502v-6.2256c0-0.2051-0.0386-0.3975-0.1162-0.5771s-0.1826-0.3359-0.3154-0.4688
			s-0.2891-0.2383-0.4688-0.3154c-0.1802-0.0771-0.3726-0.1162-0.5771-0.1162h-0.6807c-0.2046,0-0.397,0.0391-0.5771,0.1162
			c-0.1797,0.0771-0.3359,0.1826-0.4688,0.3154s-0.2378,0.2891-0.3154,0.4688s-0.1162,0.3721-0.1162,0.5771v6.2256h-1.021v-8.5
			h0.3403l0.5562,0.8633c0.2324-0.3154,0.5244-0.5654,0.8755-0.751c0.3516-0.1855,0.7349-0.2783,1.1499-0.2783h0.2573
			c0.3433,0,0.667,0.0654,0.9712,0.1953s0.5698,0.3086,0.7969,0.5352s0.4053,0.4922,0.5356,0.7969
			c0.1299,0.3047,0.1948,0.6279,0.1948,0.9707v6.168H83.5615z"/>
		<path style="fill:#FFFFFF;" d="M92.1074,17.0889c-0.1304,0.3047-0.3086,0.5703-0.5356,0.7969s-0.4927,0.4053-0.7969,0.5352
			s-0.6279,0.1953-0.9712,0.1953H89.123c-0.3433,0-0.667-0.0654-0.9712-0.1953s-0.5698-0.3086-0.7969-0.5352
			s-0.4053-0.4922-0.5356-0.7969c-0.1299-0.3047-0.1948-0.6279-0.1948-0.9707v-3.8359c0-0.3428,0.0649-0.666,0.1948-0.9707
			c0.1304-0.3047,0.3086-0.5703,0.5356-0.7969s0.4927-0.4053,0.7969-0.5352s0.6279-0.1953,0.9712-0.1953h0.6807
			c0.3433,0,0.667,0.0654,0.9712,0.1953s0.5698,0.3086,0.7969,0.5352s0.4053,0.4922,0.5356,0.7969
			c0.1299,0.3047,0.1948,0.6279,0.1948,0.9707v2.001h-4.6567v1.8926c0,0.2051,0.0386,0.3975,0.1162,0.5771
			s0.1826,0.3359,0.3154,0.4688s0.2891,0.2383,0.4688,0.3154c0.1802,0.0771,0.3726,0.1162,0.5771,0.1162h0.6807
			c0.2046,0,0.397-0.0391,0.5771-0.1162c0.1797-0.0771,0.3359-0.1826,0.4688-0.3154s0.2378-0.2891,0.3154-0.4688
			s0.1162-0.3721,0.1162-0.5771v-0.5645l1.021,0.166v0.3408C92.3022,16.4609,92.2373,16.7842,92.1074,17.0889z M91.2813,12.2246
			c0-0.2051-0.0386-0.3975-0.1162-0.5771s-0.1826-0.3359-0.3154-0.4688s-0.2891-0.2383-0.4688-0.3154
			c-0.1802-0.0771-0.3726-0.1162-0.5771-0.1162H89.123c-0.2046,0-0.397,0.0391-0.5771,0.1162
			c-0.1797,0.0771-0.3359,0.1826-0.4688,0.3154s-0.2378,0.2891-0.3154,0.4688s-0.1162,0.3721-0.1162,0.5771v1.2617h3.6357V12.2246z"
			/>
		<path style="fill:#FFFFFF;" d="M100.188,16.292c0,0.3428-0.0693,0.6572-0.2075,0.9424s-0.3267,0.5293-0.5645,0.7344
			s-0.5132,0.3643-0.8262,0.4775c-0.3125,0.1133-0.6401,0.1699-0.9834,0.1699h-0.6807c-0.3433,0-0.6709-0.0654-0.9834-0.1953
			c-0.313-0.1299-0.5869-0.3086-0.8223-0.5352c-0.2349-0.2266-0.4229-0.4922-0.5645-0.7969
			c-0.1406-0.3047-0.2114-0.6279-0.2114-0.9707v-0.3408l1.021-0.166v0.5645c0,0.2051,0.043,0.3975,0.1289,0.5771
			c0.0854,0.1797,0.2002,0.3359,0.3442,0.4688s0.3101,0.2383,0.498,0.3154s0.3848,0.1162,0.5894,0.1162h0.6807
			c0.2046,0,0.4014-0.0303,0.5894-0.0918c0.188-0.0605,0.3555-0.1475,0.5024-0.2607c0.1465-0.1133,0.2627-0.251,0.3486-0.4111
			c0.0854-0.1602,0.1284-0.3428,0.1284-0.5479c0-0.3047-0.0664-0.5537-0.1992-0.7471s-0.3086-0.3555-0.5269-0.4854
			c-0.2188-0.1299-0.4678-0.2383-0.7471-0.3242c-0.2798-0.0859-0.5659-0.1709-0.8594-0.2568s-0.5796-0.1846-0.8594-0.2949
			c-0.2793-0.1104-0.5283-0.2559-0.7471-0.4355c-0.2183-0.1797-0.394-0.4053-0.5269-0.6768s-0.1992-0.6084-0.1992-1.0127
			c0-0.3428,0.0664-0.6572,0.1992-0.9424s0.3125-0.5293,0.5396-0.7344s0.4912-0.3643,0.793-0.4775
			c0.3013-0.1133,0.6235-0.1699,0.9668-0.1699h0.5977c0.3433,0,0.667,0.0654,0.9712,0.1953s0.5698,0.3086,0.7969,0.5352
			s0.4053,0.4922,0.5356,0.7969c0.1299,0.3047,0.1948,0.6279,0.1948,0.9707v0.0332l-1.021,0.166v-0.2568
			c0-0.2051-0.0386-0.3975-0.1162-0.5771s-0.1826-0.3359-0.3154-0.4688s-0.2891-0.2383-0.4688-0.3154
			c-0.1802-0.0771-0.3726-0.1162-0.5771-0.1162h-0.5977c-0.2046,0-0.397,0.0303-0.5771,0.0918
			c-0.1797,0.0605-0.3359,0.1475-0.4688,0.2607s-0.2378,0.251-0.3154,0.4111s-0.1162,0.3428-0.1162,0.5479
			c0,0.293,0.0664,0.5322,0.1992,0.7178s0.3086,0.3418,0.5273,0.4688c0.2183,0.1279,0.4673,0.2344,0.7471,0.3203
			c0.2793,0.0859,0.5645,0.1738,0.8545,0.2656c0.291,0.0908,0.5757,0.1953,0.8555,0.3105c0.2793,0.1172,0.5283,0.2656,0.7471,0.4492
			c0.2183,0.1816,0.394,0.4102,0.5269,0.6846C100.1216,15.5488,100.188,15.8877,100.188,16.292z"/>
		<path style="fill:#FFFFFF;" d="M111.394,18.4502l-0.5645-0.8633c-0.2324,0.3154-0.5225,0.5654-0.8721,0.751
			c-0.3477,0.1855-0.7305,0.2783-1.1445,0.2783h-0.2578c-0.3428,0-0.667-0.0654-0.9707-0.1953
			c-0.3047-0.1299-0.5703-0.3086-0.7969-0.5352c-0.2275-0.2266-0.4063-0.4922-0.5361-0.7969s-0.1943-0.6279-0.1943-0.9707v-3.8359
			c0-0.3428,0.0645-0.666,0.1943-0.9707s0.3086-0.5703,0.5361-0.7969c0.2266-0.2266,0.4922-0.4053,0.7969-0.5352
			c0.3037-0.1299,0.6279-0.1953,0.9707-0.1953h0.2578c0.3809,0,0.7354,0.0771,1.0625,0.2324
			c0.3262,0.1553,0.6055,0.3711,0.8379,0.6475V6.5469h1.0215v11.9033H111.394z M110.7134,12.2246
			c0-0.2051-0.0391-0.3975-0.1162-0.5771s-0.1826-0.3359-0.3154-0.4688s-0.2891-0.2383-0.4688-0.3154s-0.3721-0.1162-0.5771-0.1162
			h-0.6807c-0.2051,0-0.3975,0.0391-0.5771,0.1162s-0.3359,0.1826-0.4688,0.3154s-0.2383,0.2891-0.3154,0.4688
			s-0.1162,0.3721-0.1162,0.5771v3.9512c0,0.2051,0.0391,0.3975,0.1162,0.5771s0.1826,0.3359,0.3154,0.4688
			s0.2891,0.2383,0.4688,0.3154s0.3721,0.1162,0.5771,0.1162h0.6807c0.2051,0,0.3975-0.0391,0.5771-0.1162
			s0.3359-0.1826,0.4688-0.3154s0.2383-0.2891,0.3154-0.4688s0.1162-0.3721,0.1162-0.5771V12.2246z"/>
		<path style="fill:#FFFFFF;" d="M119.2598,17.0889c-0.1299,0.3047-0.3086,0.5703-0.5352,0.7969
			c-0.2275,0.2266-0.4932,0.4053-0.7969,0.5352c-0.3047,0.1299-0.6289,0.1953-0.9722,0.1953h-0.6807
			c-0.3428,0-0.667-0.0654-0.9707-0.1953c-0.3047-0.1299-0.5703-0.3086-0.7969-0.5352c-0.2275-0.2266-0.4063-0.4922-0.5361-0.7969
			s-0.1943-0.6279-0.1943-0.9707v-3.8359c0-0.3428,0.0645-0.666,0.1943-0.9707s0.3086-0.5703,0.5361-0.7969
			c0.2266-0.2266,0.4922-0.4053,0.7969-0.5352c0.3037-0.1299,0.6279-0.1953,0.9707-0.1953h0.6807
			c0.3433,0,0.6675,0.0654,0.9722,0.1953c0.3037,0.1299,0.5693,0.3086,0.7969,0.5352c0.2266,0.2266,0.4053,0.4922,0.5352,0.7969
			s0.1953,0.6279,0.1953,0.9707v2.001h-4.6577v1.8926c0,0.2051,0.0391,0.3975,0.1162,0.5771s0.1826,0.3359,0.3154,0.4688
			s0.2891,0.2383,0.4688,0.3154s0.3721,0.1162,0.5771,0.1162h0.6807c0.2056,0,0.3979-0.0391,0.5776-0.1162
			s0.3359-0.1826,0.4688-0.3154s0.2383-0.2891,0.3154-0.4688s0.1162-0.3721,0.1162-0.5771v-0.5645l1.0215,0.166v0.3408
			C119.4551,16.4609,119.3896,16.7842,119.2598,17.0889z M118.4336,12.2246c0-0.2051-0.0391-0.3975-0.1162-0.5771
			s-0.1826-0.3359-0.3154-0.4688s-0.2891-0.2383-0.4688-0.3154s-0.3721-0.1162-0.5776-0.1162h-0.6807
			c-0.2051,0-0.3975,0.0391-0.5771,0.1162s-0.3359,0.1826-0.4688,0.3154s-0.2383,0.2891-0.3154,0.4688s-0.1162,0.3721-0.1162,0.5771
			v1.2617h3.6362V12.2246z"/>
		<path style="fill:#FFFFFF;" d="M125.7461,18.4502V6.5469h1.0215v11.9033H125.7461z"/>
		<path style="fill:#FFFFFF;" d="M134.4873,18.4502l-0.5645-0.8467c-0.2324,0.3047-0.5225,0.5488-0.8721,0.7344
			c-0.3477,0.1855-0.7305,0.2783-1.1445,0.2783h-0.2578c-0.3428,0-0.667-0.0654-0.9707-0.1953
			c-0.3047-0.1299-0.5703-0.3086-0.7969-0.5352c-0.2275-0.2266-0.4063-0.4922-0.5361-0.7969s-0.1943-0.6279-0.1943-0.9707v-0.084
			c0-0.3428,0.0645-0.666,0.1943-0.9707s0.3086-0.5703,0.5361-0.7969c0.2266-0.2266,0.4922-0.4053,0.7969-0.5352
			c0.3037-0.1299,0.6279-0.1953,0.9707-0.1953h2.1582v-1.3115c0-0.2051-0.0391-0.3975-0.1162-0.5771s-0.1826-0.3359-0.3154-0.4688
			s-0.2891-0.2383-0.4688-0.3154s-0.3721-0.1162-0.5771-0.1162h-0.5977c-0.2051,0-0.3975,0.0391-0.5771,0.1162
			s-0.3359,0.1826-0.4688,0.3154s-0.2383,0.2891-0.3154,0.4688s-0.1162,0.3721-0.1162,0.5771v0.3076l-1.0215-0.166v-0.084
			c0-0.3428,0.0654-0.666,0.1953-0.9707s0.3086-0.5703,0.5352-0.7969c0.2275-0.2266,0.4932-0.4053,0.7969-0.5352
			c0.3047-0.1299,0.6289-0.1953,0.9717-0.1953h0.5977c0.3428,0,0.667,0.0654,0.9717,0.1953
			c0.3037,0.1299,0.5693,0.3086,0.7969,0.5352c0.2266,0.2266,0.4053,0.4922,0.5352,0.7969s0.1953,0.6279,0.1953,0.9707v6.168
			H134.4873z M133.8066,14.333h-2.1582c-0.2051,0-0.3975,0.0391-0.5771,0.1162s-0.3359,0.1836-0.4688,0.3193
			s-0.2383,0.2939-0.3154,0.4736s-0.1162,0.3721-0.1162,0.5771v0.3564c0,0.2051,0.0391,0.3975,0.1162,0.5771
			s0.1826,0.3359,0.3154,0.4688s0.2891,0.2383,0.4688,0.3154s0.3721,0.1162,0.5771,0.1162h0.6807
			c0.2051,0,0.3975-0.0391,0.5771-0.1162s0.3359-0.1826,0.4688-0.3154s0.2383-0.2891,0.3154-0.4688s0.1162-0.3721,0.1162-0.5771
			V14.333z"/>
		<path style="fill:#FFFFFF;" d="M145.4355,18.4502v-6.2256c0-0.2051-0.0391-0.3975-0.1162-0.5771s-0.1826-0.3359-0.3154-0.4688
			s-0.2891-0.2383-0.4688-0.3154s-0.3721-0.1162-0.5771-0.1162h-0.6807c-0.2051,0-0.3975,0.0391-0.5771,0.1162
			s-0.3359,0.1826-0.4688,0.3154s-0.2383,0.2891-0.3154,0.4688s-0.1162,0.3721-0.1162,0.5771v6.2256h-1.0205v-8.5h0.3398
			l0.5566,0.8633c0.2324-0.3154,0.5234-0.5654,0.875-0.751s0.7344-0.2783,1.1504-0.2783h0.2568c0.3428,0,0.667,0.0654,0.9717,0.1953
			c0.3037,0.1299,0.5693,0.3086,0.7969,0.5352c0.2266,0.2266,0.4053,0.4922,0.5352,0.7969s0.1953,0.6279,0.1953,0.9707v6.168
			H145.4355z"/>
		<path style="fill:#FFFFFF;" d="M153.9824,17.0889c-0.1299,0.3047-0.3086,0.5703-0.5352,0.7969
			c-0.2275,0.2266-0.4932,0.4053-0.7969,0.5352c-0.3047,0.1299-0.6289,0.1953-0.9717,0.1953h-0.6807
			c-0.3428,0-0.667-0.0654-0.9707-0.1953c-0.3047-0.1299-0.5703-0.3086-0.7969-0.5352c-0.2275-0.2266-0.4063-0.4922-0.5361-0.7969
			S148.5,16.4609,148.5,16.1182v-3.8359c0-0.3428,0.0645-0.666,0.1943-0.9707s0.3086-0.5703,0.5361-0.7969
			c0.2266-0.2266,0.4922-0.4053,0.7969-0.5352c0.3037-0.1299,0.6279-0.1953,0.9707-0.1953h0.6807
			c0.3428,0,0.667,0.0654,0.9717,0.1953c0.3037,0.1299,0.5693,0.3086,0.7969,0.5352c0.2266,0.2266,0.4053,0.4922,0.5352,0.7969
			s0.1953,0.6279,0.1953,0.9707v3.8359C154.1777,16.4609,154.1123,16.7842,153.9824,17.0889z M153.1563,12.2246
			c0-0.2051-0.0391-0.3975-0.1162-0.5771s-0.1826-0.3359-0.3154-0.4688s-0.2891-0.2383-0.4688-0.3154s-0.3721-0.1162-0.5771-0.1162
			h-0.6807c-0.2051,0-0.3975,0.0391-0.5771,0.1162s-0.3359,0.1826-0.4688,0.3154s-0.2383,0.2891-0.3154,0.4688
			s-0.1162,0.3721-0.1162,0.5771v3.9512c0,0.2051,0.0391,0.3975,0.1162,0.5771s0.1826,0.3359,0.3154,0.4688
			s0.2891,0.2383,0.4688,0.3154s0.3721,0.1162,0.5771,0.1162h0.6807c0.2051,0,0.3975-0.0391,0.5771-0.1162
			s0.3359-0.1826,0.4688-0.3154s0.2383-0.2891,0.3154-0.4688s0.1162-0.3721,0.1162-0.5771V12.2246z"/>
		<path style="fill:#FFFFFF;" d="M158.7168,10.9209c-0.2051,0-0.3975,0.0391-0.5771,0.1172
			c-0.1797,0.0771-0.3359,0.1816-0.4688,0.3145s-0.2383,0.29-0.3154,0.4697s-0.1162,0.3721-0.1162,0.5771v6.0508h-1.0205v-8.5
			h0.3398l0.5566,0.8633c0.2324-0.3154,0.5234-0.5654,0.875-0.751s0.7344-0.2783,1.1504-0.2783h0.5977v1.1367H158.7168z"/>
		<path style="fill:#FFFFFF;" d="M170.0723,18.4502v-6.2256c0-0.2051-0.0391-0.3975-0.1162-0.5771s-0.1826-0.3359-0.3154-0.4688
			s-0.2891-0.2383-0.4688-0.3154s-0.3721-0.1162-0.5771-0.1162h-0.5068c-0.2041,0-0.3965,0.0391-0.5762,0.1162
			s-0.3379,0.1826-0.4736,0.3154s-0.2422,0.2891-0.3193,0.4688s-0.1162,0.3721-0.1162,0.5771v6.2256h-1.0127v-6.2256
			c0-0.2051-0.0391-0.3975-0.1162-0.5771s-0.1836-0.3359-0.3193-0.4688s-0.2939-0.2383-0.4736-0.3154s-0.3721-0.1162-0.5771-0.1162
			h-0.5059c-0.2051,0-0.3975,0.0391-0.5771,0.1162s-0.3359,0.1826-0.4688,0.3154s-0.2383,0.2891-0.3154,0.4688
			s-0.1162,0.3721-0.1162,0.5771v6.2256h-1.0205v-8.5h0.3398l0.5566,0.8633c0.2324-0.3154,0.5234-0.5654,0.875-0.751
			s0.7344-0.2783,1.1504-0.2783h0.082c0.4824,0,0.916,0.1191,1.3037,0.3574c0.3877,0.2373,0.6865,0.5527,0.8965,0.9453
			c0.1055-0.1934,0.2354-0.3701,0.3896-0.5313c0.1553-0.1602,0.3271-0.2969,0.5156-0.4102
			c0.1875-0.1133,0.3926-0.2021,0.6133-0.2656c0.2217-0.0635,0.4512-0.0957,0.6895-0.0957h0.083
			c0.3428,0,0.667,0.0654,0.9717,0.1953c0.3037,0.1299,0.5693,0.3086,0.7969,0.5352c0.2266,0.2266,0.4053,0.4922,0.5352,0.7969
			s0.1953,0.6279,0.1953,0.9707v6.168H170.0723z"/>
		<path style="fill:#FFFFFF;" d="M178.4736,18.4502l-0.5645-0.8467c-0.2324,0.3047-0.5225,0.5488-0.8721,0.7344
			c-0.3477,0.1855-0.7305,0.2783-1.1445,0.2783h-0.2578c-0.3428,0-0.667-0.0654-0.9707-0.1953
			c-0.3047-0.1299-0.5703-0.3086-0.7969-0.5352c-0.2275-0.2266-0.4063-0.4922-0.5361-0.7969s-0.1943-0.6279-0.1943-0.9707v-0.084
			c0-0.3428,0.0645-0.666,0.1943-0.9707s0.3086-0.5703,0.5361-0.7969c0.2266-0.2266,0.4922-0.4053,0.7969-0.5352
			c0.3037-0.1299,0.6279-0.1953,0.9707-0.1953h2.1582v-1.3115c0-0.2051-0.0391-0.3975-0.1162-0.5771s-0.1826-0.3359-0.3154-0.4688
			s-0.2891-0.2383-0.4688-0.3154s-0.3721-0.1162-0.5771-0.1162h-0.5977c-0.2051,0-0.3975,0.0391-0.5771,0.1162
			s-0.3359,0.1826-0.4688,0.3154s-0.2383,0.2891-0.3154,0.4688s-0.1162,0.3721-0.1162,0.5771v0.3076l-1.0215-0.166v-0.084
			c0-0.3428,0.0654-0.666,0.1953-0.9707s0.3086-0.5703,0.5352-0.7969c0.2275-0.2266,0.4932-0.4053,0.7969-0.5352
			c0.3047-0.1299,0.6289-0.1953,0.9717-0.1953h0.5977c0.3428,0,0.667,0.0654,0.9717,0.1953
			c0.3037,0.1299,0.5693,0.3086,0.7969,0.5352c0.2266,0.2266,0.4053,0.4922,0.5352,0.7969s0.1953,0.6279,0.1953,0.9707v6.168
			H178.4736z M177.793,14.333h-2.1582c-0.2051,0-0.3975,0.0391-0.5771,0.1162s-0.3359,0.1836-0.4688,0.3193
			s-0.2383,0.2939-0.3154,0.4736s-0.1162,0.3721-0.1162,0.5771v0.3564c0,0.2051,0.0391,0.3975,0.1162,0.5771
			s0.1826,0.3359,0.3154,0.4688s0.2891,0.2383,0.4688,0.3154s0.3721,0.1162,0.5771,0.1162h0.6807
			c0.2051,0,0.3975-0.0391,0.5771-0.1162s0.3359-0.1826,0.4688-0.3154s0.2383-0.2891,0.3154-0.4688s0.1162-0.3721,0.1162-0.5771
			V14.333z"/>
		<path style="fill:#FFFFFF;" d="M185.1055,18.4502V6.5469h1.0703v11.9033H185.1055z"/>
		<path style="fill:#FFFFFF;" d="M195.4229,15.6943c0,0.4043-0.082,0.7832-0.2451,1.1367
			c-0.1631,0.3545-0.3818,0.6641-0.6553,0.9297c-0.2744,0.2656-0.5928,0.4746-0.9551,0.627s-0.7451,0.2285-1.1494,0.2285h-0.8555
			c-0.4033,0-0.7871-0.0762-1.1494-0.2285s-0.6807-0.3613-0.9541-0.627c-0.2744-0.2656-0.4932-0.5752-0.6563-0.9297
			c-0.1631-0.3535-0.2441-0.7324-0.2441-1.1367v-0.4727l1.0703-0.1748v0.6475c0,0.2656,0.0537,0.5137,0.1621,0.7432
			c0.1074,0.2295,0.2529,0.4316,0.4355,0.6055c0.1826,0.1748,0.3945,0.3115,0.6348,0.4111
			c0.2412,0.0996,0.4941,0.1494,0.7598,0.1494h0.7471c0.2656,0,0.5176-0.0498,0.7549-0.1494
			c0.2383-0.0996,0.4492-0.2363,0.6309-0.4111c0.1836-0.1738,0.3281-0.376,0.4365-0.6055c0.1074-0.2295,0.1611-0.4775,0.1611-0.7432
			v-0.3574c0-0.4092-0.0801-0.749-0.2402-1.0205s-0.373-0.502-0.6387-0.6934c-0.2656-0.1904-0.5664-0.3525-0.9014-0.4854
			s-0.6787-0.2656-1.0332-0.3984s-0.6982-0.2793-1.0332-0.4395c-0.335-0.1611-0.6357-0.3613-0.9014-0.6025
			c-0.2656-0.2402-0.4785-0.5352-0.6387-0.8838s-0.2402-0.7773-0.2402-1.2871V9.3027c0-0.4043,0.0752-0.7832,0.2275-1.1377
			c0.1523-0.3535,0.3613-0.6641,0.627-0.9297s0.5771-0.4736,0.9336-0.626c0.3574-0.1523,0.7373-0.2285,1.1416-0.2285h0.7637
			c0.4043,0,0.7832,0.0762,1.1367,0.2285c0.3545,0.1523,0.6641,0.3604,0.9297,0.626s0.4746,0.5762,0.627,0.9297
			c0.1523,0.3545,0.2285,0.7334,0.2285,1.1377v0.3076l-1.0703,0.1738V9.3027c0-0.2656-0.0508-0.5137-0.1504-0.7432
			s-0.2344-0.4297-0.4063-0.6016s-0.3721-0.3066-0.6016-0.4063s-0.4775-0.1504-0.7432-0.1504h-0.6641
			c-0.2656,0-0.5137,0.0508-0.7432,0.1504s-0.4316,0.2344-0.6055,0.4063c-0.1748,0.1719-0.3115,0.3721-0.4111,0.6016
			s-0.1494,0.4775-0.1494,0.7432v0.2236c0,0.3828,0.0801,0.7031,0.2402,0.9629c0.1611,0.2607,0.374,0.4834,0.6396,0.6689
			s0.5654,0.3457,0.9004,0.4814s0.6797,0.2734,1.0342,0.415c0.3535,0.1406,0.6982,0.2959,1.0332,0.4648s0.6348,0.376,0.9004,0.6221
			s0.4785,0.5469,0.6387,0.9004c0.1611,0.3545,0.2412,0.7861,0.2412,1.2949V15.6943z"/>
		<path style="fill:#FFFFFF;" d="M204.0186,16.8311c-0.1523,0.3545-0.3604,0.6641-0.626,0.9297s-0.5762,0.4746-0.9297,0.627
			c-0.3545,0.1523-0.7334,0.2285-1.1377,0.2285h-0.8467c-0.4043,0-0.7842-0.0762-1.1416-0.2285
			c-0.3564-0.1523-0.668-0.3613-0.9336-0.627s-0.4746-0.5752-0.627-0.9297c-0.1523-0.3535-0.2275-0.7324-0.2275-1.1367V9.3027
			c0-0.4043,0.0752-0.7832,0.2275-1.1377c0.1523-0.3535,0.3613-0.6641,0.627-0.9297s0.5771-0.4736,0.9336-0.626
			c0.3574-0.1523,0.7373-0.2285,1.1416-0.2285h0.8467c0.4043,0,0.7832,0.0762,1.1377,0.2285
			c0.3535,0.1523,0.6641,0.3604,0.9297,0.626s0.4736,0.5762,0.626,0.9297c0.1523,0.3545,0.2285,0.7334,0.2285,1.1377v6.3916
			C204.2471,16.0986,204.1709,16.4775,204.0186,16.8311z M203.1758,9.3027c0-0.2656-0.0488-0.5137-0.1484-0.7432
			s-0.2354-0.4297-0.4072-0.6016s-0.3721-0.3066-0.6016-0.4063s-0.4775-0.1504-0.7432-0.1504h-0.7471
			c-0.2656,0-0.5137,0.0508-0.7432,0.1504s-0.4316,0.2344-0.6055,0.4063c-0.1748,0.1719-0.3115,0.3721-0.4111,0.6016
			s-0.1494,0.4775-0.1494,0.7432v6.3916c0,0.2656,0.0498,0.5137,0.1494,0.7432s0.2363,0.4316,0.4111,0.6055
			c0.1738,0.1748,0.376,0.3115,0.6055,0.4111s0.4775,0.1494,0.7432,0.1494h0.7471c0.2656,0,0.5137-0.0498,0.7432-0.1494
			s0.4297-0.2363,0.6016-0.4111c0.1719-0.1738,0.3076-0.376,0.4072-0.6055s0.1484-0.4775,0.1484-0.7432V9.3027z"/>
	</g>
</g>
</svg>
