<?xml version="1.0" encoding="utf-8"?>
<!-- Generator: Adobe Illustrator 21.0.0, SVG Export Plug-In . SVG Version: 6.00 Build 0)  -->
<svg version="1.1" id="Capa_1" xmlns="http://www.w3.org/2000/svg" xmlns:xlink="http://www.w3.org/1999/xlink" x="0px" y="0px"
	 viewBox="0 0 249.6367 59.1388" style="enable-background:new 0 0 249.6367 59.1388;" xml:space="preserve">
<g id="XMLID_3030_">
	<g id="XMLID_3034_">
		<polygon id="XMLID_3035_" style="fill-rule:evenodd;clip-rule:evenodd;fill:#223B72;" points="234.6104,59.1388 248.6367,41.3537 
			238.2119,21.1847 234.6104,21.1877 		"/>
	</g>
	<g>
		
			<rect id="XMLID_1_" x="1" y="1.0002" style="fill-rule:evenodd;clip-rule:evenodd;fill:#6AC7EB;" width="247.6367" height="40.3535"/>
		<path style="fill:#FFFFFF;" d="M248.6367,42.354H1c-0.5522,0-1-0.4473-1-1V1c0-0.5522,0.4478-1,1-1h247.6367
			c0.5527,0,1,0.4478,1,1v40.354C249.6367,41.9067,249.1895,42.354,248.6367,42.354z M2,40.354h245.6367V2H2V40.354z"/>
	</g>
	<g>
		<g>
			<path d="M72.3638,21.8218l2.5225,0.7998c-0.3867,1.4063-1.0298,2.4512-1.9292,3.1328c-0.8994,0.6836-2.0405,1.0244-3.4233,1.0244
				c-1.7109,0-3.1172-0.585-4.2188-1.7529c-1.1016-1.1699-1.6523-2.7676-1.6523-4.7949c0-2.1445,0.5537-3.8105,1.6611-4.9961
				c1.1074-1.1875,2.5635-1.7803,4.3682-1.7803c1.5762,0,2.8564,0.4658,3.8408,1.3975c0.5859,0.5508,1.0254,1.3418,1.3184,2.373
				l-2.5752,0.6152c-0.1523-0.668-0.4702-1.1953-0.9536-1.582s-1.0708-0.5801-1.7622-0.5801c-0.9551,0-1.73,0.3428-2.3247,1.0283
				s-0.8921,1.7959-0.8921,3.3311c0,1.6289,0.293,2.7891,0.8789,3.4805s1.3477,1.0371,2.2852,1.0371
				c0.6914,0,1.2861-0.2197,1.7842-0.6592S72.147,22.7651,72.3638,21.8218z"/>
			<path d="M76.5298,21.7603c0-0.8203,0.2021-1.6143,0.6064-2.3818s0.9771-1.3535,1.7183-1.7578s1.5688-0.6064,2.4829-0.6064
				c1.4121,0,2.5693,0.459,3.4717,1.375c0.9023,0.918,1.3535,2.0762,1.3535,3.4766c0,1.4121-0.4556,2.583-1.3667,3.5117
				S82.7378,26.77,81.355,26.77c-0.8555,0-1.6714-0.1934-2.4478-0.5801s-1.3667-0.9531-1.771-1.7012
				C76.7319,23.7427,76.5298,22.8325,76.5298,21.7603z M79.061,21.8921c0,0.9258,0.2197,1.6348,0.6592,2.127
				s0.9814,0.7383,1.626,0.7383s1.1851-0.2461,1.6216-0.7383s0.6548-1.207,0.6548-2.1445c0-0.9141-0.2183-1.6172-0.6548-2.1094
				s-0.9771-0.7383-1.6216-0.7383s-1.1865,0.2461-1.626,0.7383S79.061,20.9663,79.061,21.8921z"/>
			<path d="M87.2261,23.896l2.4785-0.3779c0.1055,0.4805,0.3193,0.8457,0.6416,1.0938c0.3223,0.25,0.7734,0.374,1.3535,0.374
				c0.6387,0,1.1191-0.1172,1.4414-0.3516c0.2168-0.1641,0.3252-0.3838,0.3252-0.6592c0-0.1875-0.0586-0.3428-0.1758-0.4658
				c-0.123-0.1172-0.3984-0.2256-0.8262-0.3252c-1.9922-0.4395-3.2549-0.8408-3.7881-1.2041
				c-0.7383-0.5039-1.1074-1.2041-1.1074-2.1006c0-0.8086,0.3193-1.4883,0.958-2.0391s1.6289-0.8262,2.9707-0.8262
				c1.2773,0,2.2266,0.208,2.8477,0.624s1.0488,1.0313,1.2832,1.8457l-2.3291,0.4307c-0.0996-0.3633-0.2886-0.6416-0.5669-0.835
				s-0.6753-0.29-1.1909-0.29c-0.6504,0-1.1162,0.0908-1.3975,0.2725c-0.1875,0.1289-0.2813,0.2959-0.2813,0.501
				c0,0.1758,0.082,0.3252,0.2461,0.4482c0.2227,0.1641,0.9917,0.3955,2.3071,0.6943s2.2339,0.665,2.7554,1.0986
				c0.5156,0.4395,0.7734,1.0518,0.7734,1.8369c0,0.8555-0.3574,1.5908-1.0723,2.2061S93.1001,26.77,91.6997,26.77
				c-1.2715,0-2.2778-0.2578-3.019-0.7734S87.4546,24.7808,87.2261,23.896z"/>
			<path d="M102.3872,17.2251v1.9688h-1.6875v3.7617c0,0.7617,0.0161,1.2061,0.0483,1.332s0.1055,0.2295,0.2197,0.3115
				s0.2534,0.123,0.4175,0.123c0.2285,0,0.5596-0.0791,0.9932-0.2373l0.2109,1.916c-0.5742,0.2461-1.2246,0.3691-1.9512,0.3691
				c-0.4453,0-0.8467-0.0742-1.2041-0.2246c-0.3574-0.1484-0.6196-0.3418-0.7866-0.5801c-0.167-0.2363-0.2827-0.5576-0.3472-0.9619
				c-0.0527-0.2871-0.0791-0.8672-0.0791-1.7402v-4.0693h-1.1338v-1.9688h1.1338v-1.8545l2.4785-1.4414v3.2959H102.3872z"/>
			<path d="M103.5298,21.7603c0-0.8203,0.2021-1.6143,0.6064-2.3818s0.9771-1.3535,1.7183-1.7578s1.5688-0.6064,2.4829-0.6064
				c1.4121,0,2.5693,0.459,3.4717,1.375c0.9023,0.918,1.3535,2.0762,1.3535,3.4766c0,1.4121-0.4556,2.583-1.3667,3.5117
				s-2.0581,1.3926-3.4409,1.3926c-0.8555,0-1.6714-0.1934-2.4478-0.5801s-1.3667-0.9531-1.771-1.7012
				C103.7319,23.7427,103.5298,22.8325,103.5298,21.7603z M106.061,21.8921c0,0.9258,0.2197,1.6348,0.6592,2.127
				s0.9814,0.7383,1.626,0.7383s1.1851-0.2461,1.6216-0.7383s0.6548-1.207,0.6548-2.1445c0-0.9141-0.2183-1.6172-0.6548-2.1094
				s-0.9771-0.7383-1.6216-0.7383s-1.1865,0.2461-1.626,0.7383S106.061,20.9663,106.061,21.8921z"/>
			<path d="M114.2261,23.896l2.4785-0.3779c0.1055,0.4805,0.3193,0.8457,0.6416,1.0938c0.3223,0.25,0.7734,0.374,1.3535,0.374
				c0.6387,0,1.1191-0.1172,1.4414-0.3516c0.2168-0.1641,0.3252-0.3838,0.3252-0.6592c0-0.1875-0.0586-0.3428-0.1758-0.4658
				c-0.123-0.1172-0.3984-0.2256-0.8262-0.3252c-1.9922-0.4395-3.2549-0.8408-3.7881-1.2041
				c-0.7383-0.5039-1.1074-1.2041-1.1074-2.1006c0-0.8086,0.3193-1.4883,0.958-2.0391s1.6289-0.8262,2.9707-0.8262
				c1.2773,0,2.2266,0.208,2.8477,0.624s1.0488,1.0313,1.2832,1.8457l-2.3291,0.4307c-0.0996-0.3633-0.2886-0.6416-0.5669-0.835
				s-0.6753-0.29-1.1909-0.29c-0.6504,0-1.1162,0.0908-1.3975,0.2725c-0.1875,0.1289-0.2813,0.2959-0.2813,0.501
				c0,0.1758,0.082,0.3252,0.2461,0.4482c0.2227,0.1641,0.9917,0.3955,2.3071,0.6943s2.2339,0.665,2.7554,1.0986
				c0.5156,0.4395,0.7734,1.0518,0.7734,1.8369c0,0.8555-0.3574,1.5908-1.0723,2.2061s-1.7725,0.9229-3.1729,0.9229
				c-1.2715,0-2.2778-0.2578-3.019-0.7734S114.4546,24.7808,114.2261,23.896z"/>
			<path d="M138.668,26.5591h-2.2939V25.188c-0.3809,0.5332-0.8301,0.9307-1.3486,1.1914c-0.5186,0.2598-1.042,0.3906-1.5693,0.3906
				c-1.0723,0-1.9902-0.4316-2.7549-1.2969c-0.7646-0.8633-1.1475-2.0693-1.1475-3.6162c0-1.582,0.3721-2.7842,1.1162-3.6084
				c0.7441-0.8223,1.6846-1.2344,2.8213-1.2344c1.043,0,1.9453,0.4336,2.707,1.3008v-4.6406h2.4697V26.5591z M132.0762,21.6899
				c0,0.9961,0.1377,1.7168,0.4131,2.1621c0.3984,0.6445,0.9551,0.9668,1.6699,0.9668c0.5684,0,1.0518-0.2422,1.4502-0.7246
				c0.3984-0.4844,0.5977-1.2061,0.5977-2.167c0-1.0723-0.1934-1.8438-0.5801-2.3154s-0.8818-0.708-1.4854-0.708
				c-0.5859,0-1.0762,0.2334-1.4717,0.6982C132.2744,20.0688,132.0762,20.7642,132.0762,21.6899z"/>
			<path d="M146.5078,23.5884l2.4609,0.4131c-0.3164,0.9023-0.8154,1.5898-1.498,2.0615s-1.5371,0.707-2.5625,0.707
				c-1.623,0-2.8242-0.5303-3.6035-1.5908c-0.6152-0.8496-0.9229-1.9219-0.9229-3.2168c0-1.5469,0.4043-2.7578,1.2129-3.6338
				s1.8311-1.3145,3.0674-1.3145c1.3887,0,2.4844,0.459,3.2871,1.375c0.8027,0.918,1.1865,2.3223,1.1514,4.2148h-6.1875
				c0.0176,0.7324,0.2168,1.3027,0.5977,1.709c0.3809,0.4082,0.8555,0.6113,1.4238,0.6113c0.3867,0,0.7119-0.1055,0.9756-0.3164
				S146.373,24.0571,146.5078,23.5884z M146.6484,21.0923c-0.0176-0.7148-0.2021-1.2578-0.5537-1.6309
				c-0.3516-0.3711-0.7793-0.5576-1.2832-0.5576c-0.5391,0-0.9844,0.1963-1.3359,0.5889s-0.5244,0.9258-0.5186,1.5996H146.6484z"/>
			<path d="M164.2529,19.9849l-2.4346,0.4395c-0.082-0.4863-0.2676-0.8525-0.5576-1.0986s-0.667-0.3691-1.1299-0.3691
				c-0.6152,0-1.1055,0.2129-1.4717,0.6377s-0.5498,1.1348-0.5498,2.1309c0,1.1074,0.1865,1.8896,0.5586,2.3467
				s0.8711,0.6855,1.498,0.6855c0.4688,0,0.8525-0.1328,1.1514-0.3994s0.5098-0.7256,0.6328-1.376l2.4258,0.4131
				c-0.252,1.1133-0.7354,1.9541-1.4502,2.5225s-1.6729,0.8525-2.874,0.8525c-1.3652,0-2.4531-0.4307-3.2646-1.292
				s-1.2178-2.0537-1.2178-3.5771c0-1.541,0.4072-2.7402,1.2217-3.5996c0.8145-0.8574,1.916-1.2871,3.3047-1.2871
				c1.1367,0,2.041,0.2451,2.7119,0.7344S163.96,18.9829,164.2529,19.9849z"/>
			<path d="M167.9707,20.0728l-2.2412-0.4043c0.252-0.9023,0.6855-1.5703,1.3008-2.0039s1.5293-0.6504,2.7422-0.6504
				c1.1016,0,1.9219,0.1309,2.4609,0.3906c0.5391,0.2617,0.9189,0.5928,1.1387,0.9941s0.3291,1.1377,0.3291,2.21l-0.0264,2.8828
				c0,0.8203,0.04,1.4258,0.1191,1.8154s0.2266,0.8066,0.4434,1.252h-2.4434c-0.0645-0.1641-0.1436-0.4072-0.2373-0.7295
				c-0.041-0.1465-0.0703-0.2432-0.0879-0.29c-0.4219,0.4102-0.873,0.7178-1.3535,0.9229s-0.9932,0.3076-1.5381,0.3076
				c-0.9609,0-1.7178-0.2607-2.2715-0.7822s-0.8311-1.1807-0.8311-1.9775c0-0.5273,0.126-0.998,0.3779-1.4102
				c0.252-0.4141,0.6055-0.7305,1.0596-0.9492c0.4541-0.2207,1.1084-0.4121,1.9639-0.5762
				c1.1543-0.2168,1.9541-0.4189,2.3994-0.6064v-0.2461c0-0.4746-0.1172-0.8135-0.3516-1.0146
				c-0.2344-0.2031-0.6768-0.3037-1.3271-0.3037c-0.4395,0-0.7822,0.0869-1.0283,0.2588
				C168.3223,19.3364,168.123,19.6392,167.9707,20.0728z M171.2754,22.0767c-0.3164,0.1055-0.8174,0.2314-1.5029,0.3779
				s-1.1338,0.29-1.3447,0.4307c-0.3223,0.2285-0.4834,0.5186-0.4834,0.8701c0,0.3457,0.1289,0.6445,0.3867,0.8965
				s0.5859,0.3779,0.9844,0.3779c0.4453,0,0.8701-0.1465,1.2744-0.4395c0.2988-0.2227,0.4951-0.4951,0.5889-0.8174
				c0.0645-0.2109,0.0967-0.6123,0.0967-1.2041V22.0767z"/>
			<path d="M176.1357,26.5591V13.6743h2.4697v12.8848H176.1357z"/>
			<path d="M181.1367,15.9595v-2.2852h2.4697v2.2852H181.1367z M181.1367,26.5591v-9.334h2.4697v9.334H181.1367z"/>
			<path d="M194.6982,26.5591h-2.2939V25.188c-0.3809,0.5332-0.8301,0.9307-1.3486,1.1914
				c-0.5186,0.2598-1.042,0.3906-1.5693,0.3906c-1.0723,0-1.9902-0.4316-2.7549-1.2969c-0.7646-0.8633-1.1475-2.0693-1.1475-3.6162
				c0-1.582,0.3721-2.7842,1.1162-3.6084c0.7441-0.8223,1.6846-1.2344,2.8213-1.2344c1.043,0,1.9453,0.4336,2.707,1.3008v-4.6406
				h2.4697V26.5591z M188.1064,21.6899c0,0.9961,0.1377,1.7168,0.4131,2.1621c0.3984,0.6445,0.9551,0.9668,1.6699,0.9668
				c0.5684,0,1.0518-0.2422,1.4502-0.7246c0.3984-0.4844,0.5977-1.2061,0.5977-2.167c0-1.0723-0.1934-1.8438-0.5801-2.3154
				s-0.8818-0.708-1.4854-0.708c-0.5859,0-1.0762,0.2334-1.4717,0.6982C188.3047,20.0688,188.1064,20.7642,188.1064,21.6899z"/>
			<path d="M198.9785,20.0728l-2.2412-0.4043c0.252-0.9023,0.6855-1.5703,1.3008-2.0039s1.5293-0.6504,2.7422-0.6504
				c1.1016,0,1.9219,0.1309,2.4609,0.3906c0.5391,0.2617,0.9189,0.5928,1.1387,0.9941s0.3291,1.1377,0.3291,2.21l-0.0264,2.8828
				c0,0.8203,0.04,1.4258,0.1191,1.8154s0.2266,0.8066,0.4434,1.252h-2.4434c-0.0645-0.1641-0.1436-0.4072-0.2373-0.7295
				c-0.041-0.1465-0.0703-0.2432-0.0879-0.29c-0.4219,0.4102-0.873,0.7178-1.3535,0.9229s-0.9932,0.3076-1.5381,0.3076
				c-0.9609,0-1.7178-0.2607-2.2715-0.7822s-0.8311-1.1807-0.8311-1.9775c0-0.5273,0.126-0.998,0.3779-1.4102
				c0.252-0.4141,0.6055-0.7305,1.0596-0.9492c0.4541-0.2207,1.1084-0.4121,1.9639-0.5762
				c1.1543-0.2168,1.9541-0.4189,2.3994-0.6064v-0.2461c0-0.4746-0.1172-0.8135-0.3516-1.0146
				c-0.2344-0.2031-0.6768-0.3037-1.3271-0.3037c-0.4395,0-0.7822,0.0869-1.0283,0.2588
				C199.3301,19.3364,199.1309,19.6392,198.9785,20.0728z M202.2832,22.0767c-0.3164,0.1055-0.8174,0.2314-1.5029,0.3779
				s-1.1338,0.29-1.3447,0.4307c-0.3223,0.2285-0.4834,0.5186-0.4834,0.8701c0,0.3457,0.1289,0.6445,0.3867,0.8965
				s0.5859,0.3779,0.9844,0.3779c0.4453,0,0.8701-0.1465,1.2744-0.4395c0.2988-0.2227,0.4951-0.4951,0.5889-0.8174
				c0.0645-0.2109,0.0967-0.6123,0.0967-1.2041V22.0767z"/>
			<path d="M215.7041,26.5591h-2.2939V25.188c-0.3809,0.5332-0.8301,0.9307-1.3486,1.1914
				c-0.5186,0.2598-1.042,0.3906-1.5693,0.3906c-1.0723,0-1.9902-0.4316-2.7549-1.2969c-0.7646-0.8633-1.1475-2.0693-1.1475-3.6162
				c0-1.582,0.3721-2.7842,1.1162-3.6084c0.7441-0.8223,1.6846-1.2344,2.8213-1.2344c1.043,0,1.9453,0.4336,2.707,1.3008v-4.6406
				h2.4697V26.5591z M209.1123,21.6899c0,0.9961,0.1377,1.7168,0.4131,2.1621c0.3984,0.6445,0.9551,0.9668,1.6699,0.9668
				c0.5684,0,1.0518-0.2422,1.4502-0.7246c0.3984-0.4844,0.5977-1.2061,0.5977-2.167c0-1.0723-0.1934-1.8438-0.5801-2.3154
				s-0.8818-0.708-1.4854-0.708c-0.5859,0-1.0762,0.2334-1.4717,0.6982C209.3105,20.0688,209.1123,20.7642,209.1123,21.6899z"/>
		</g>
	</g>
</g>
<g>
	<g>
		<g>
			<path style="fill:#193651;" d="M24.1428,24.07c5.1989,0,9.3945-4.1904,9.3945-9.3893c0-5.1988-4.2009-9.3945-9.3945-9.3945
				s-9.3945,4.1904-9.3945,9.3893S18.9492,24.07,24.1428,24.07z"/>
			<path d="M24.1426,24.5698c-5.4556,0-9.894-4.4385-9.894-9.894c0-5.4531,4.4385-9.8896,9.894-9.8896
				c5.4561,0,9.8945,4.4385,9.8945,9.8945C34.0371,20.1338,29.5986,24.5698,24.1426,24.5698z M24.1426,5.7861
				c-4.9043,0-8.894,3.9878-8.894,8.8896c0,4.9043,3.9897,8.894,8.894,8.894s8.8945-3.9878,8.8945-8.8892
				C33.0371,9.7764,29.0469,5.7861,24.1426,5.7861z"/>
		</g>
		<g>
			<path style="fill:#193651;" d="M39.1332,28.1194c-0.5016-1.0502-1.6981-1.5466-2.7484-1.1495l-6.7924,2.299
				c0.0522-0.1516,0.0522-0.3501,0.0522-0.5486c0-1.301-1.0502-2.346-2.346-2.346h-5.0473c-0.1516,0-0.3501-0.0522-0.5016-0.0992
				l-3.2499-1.6981l-0.0523-0.0522c-0.2978-0.0993-0.6008-0.1516-0.8987-0.1516h-3.647v-1.348H8.1596v11.939h5.7474v-1.0502h1.2488
				l9.2952,3.0984c0.35,0.0992,0.7001,0.1985,1.0972,0.1985c0.5486,0,1.0972-0.1516,1.5988-0.4023l11.0403-5.8467
				C39.1855,30.4706,39.6348,29.2166,39.1332,28.1194z M37.6859,30.1676L26.6455,35.962c-0.6009,0.2978-1.301,0.35-1.9489,0.1515
				l-9.4415-3.1454h-1.4003v-7.5449h3.647c0.1985,0,0.35,0.0522,0.5486,0.0992l3.2499,1.6981l0.0522,0.0522
				c0.2508,0.0993,0.5486,0.1516,0.8517,0.1516h5.0473c0.7472,0,1.3481,0.6009,1.3481,1.348c0,0.3971-0.1986,0.7472-0.4494,0.998
				l-0.9509,0.3501H23.103c-1.0502,0-1.8967,0.8516-1.8967,1.8966h0.998c0-0.5016,0.3971-0.8987,0.8987-0.8987h4.1486
				c0.5016,0,0.9509-0.1515,1.3481-0.4493l8.0464-2.7483c0.6009-0.1985,1.2488,0.0522,1.4996,0.6479
				C38.4853,29.1173,38.2868,29.8697,37.6859,30.1676z"/>
			<path d="M25.5483,37.7104c-0.4702,0-0.876-0.1152-1.2339-0.2178l-9.2397-3.0791h-0.6675v1.0508H7.6597V22.5249h6.7422v1.3481
				h3.147c0.3486,0,0.7041,0.0596,1.0566,0.1768l0.1123,0.0376l0.0835,0.0835l3.1797,1.6606
				c0.1406,0.0352,0.2388,0.0425,0.2705,0.0425h5.0474c1.5142,0,2.7554,1.1885,2.8408,2.6816l6.085-2.0596
				c1.2681-0.4795,2.7524,0.1353,3.3599,1.4082l0.0034,0.0073c0.6006,1.314,0.0713,2.8838-1.1797,3.498l-11.0273,5.8398
				C26.7759,37.5532,26.1455,37.7104,25.5483,37.7104z M14.355,32.4683l1.0581,0.0254l9.4419,3.1455
				c0.5205,0.1611,1.082,0.1162,1.5684-0.125l11.0405-5.7944c0.1587-0.0791,0.2729-0.2173,0.3223-0.3896
				c0.0488-0.1704,0.0249-0.3521-0.0654-0.498c-0.1772-0.4038-0.5469-0.5586-0.918-0.4365l-7.9697,2.7222
				c-0.4697,0.332-1.001,0.501-1.5815,0.501H23.103c-0.2275,0-0.3989,0.1709-0.3989,0.3984v0.5h-1.9976v-0.5
				c0-1.3213,1.0752-2.3965,2.3965-2.3965h4.0073l0.7549-0.2778c0.1079-0.1274,0.2344-0.3281,0.2344-0.5703
				c0-0.4678-0.3804-0.8481-0.8481-0.8481h-5.0474c-0.3687,0-0.7266-0.0645-1.0352-0.1865l-0.1699-0.1113l-3.1929-1.6494
				c-0.127-0.0322-0.2104-0.0537-0.3042-0.0537h-3.147V32.4683z M8.6597,34.4644h4.7476v-0.9961H13.355v-8.5449h4.147
				c0.2192,0,0.3955,0.0449,0.5513,0.0845l0.2285,0.0713l3.3447,1.7607c0.1724,0.0547,0.374,0.0845,0.5776,0.0845h5.0474
				c1.019,0,1.8481,0.8291,1.8481,1.8481c0,0.4868-0.2114,0.9668-0.5952,1.3511l-0.0747,0.0752l2.7261-0.9312l-2.3677,0.8013
				l0.3315-0.9624c0.0249-0.0728,0.0249-0.2466,0.0249-0.3862c0-1.0181-0.8281-1.8462-1.8457-1.8462h-5.0474
				c-0.1748,0-0.3813-0.0386-0.6494-0.1216l-3.4204-1.7871c-0.2144-0.0615-0.4268-0.0923-0.6328-0.0923h-4.147v-1.3481H8.6597
				V34.4644z M28.353,30.2285l-1.0581,0.3896c0.374-0.0083,0.7031-0.1226,1.0044-0.3491L28.353,30.2285z M37.0537,27.355
				c0.6704,0,1.2847,0.3828,1.5527,1.02c0.1982,0.3081,0.2642,0.7681,0.1494,1.2012c0.1255-0.3926,0.1099-0.8369-0.0757-1.2446
				c-0.3604-0.752-1.1973-1.1431-1.9556-0.9458C36.835,27.3652,36.9453,27.355,37.0537,27.355z"/>
		</g>
	</g>
	<g>
		<path style="fill:#FFFFFF;" d="M24.1428,5.7879L24.1428,5.7879c-4.8958,0-8.8929,3.9971-8.8929,8.8929l0,0
			c0,4.8958,3.9971,8.8929,8.8929,8.8929l0,0c4.8958,0,8.8929-3.9971,8.8929-8.8929l0,0
			C33.0409,9.785,29.0438,5.7879,24.1428,5.7879z"/>
		<path style="fill:#193651;" d="M24.1428,24.07c-5.1936,0-9.3945-4.1956-9.3945-9.3945s4.2009-9.3893,9.3945-9.3893
			s9.3945,4.1956,9.3945,9.3945S29.3416,24.07,24.1428,24.07z M24.1428,6.2843c-4.645,0-8.3913,3.7463-8.3913,8.3913
			s3.7463,8.3913,8.3913,8.3913s8.3913-3.7463,8.3913-8.3913S28.793,6.2843,24.1428,6.2843z"/>
		<path style="fill:#FDBF5E;" d="M24.1428,21.5725c-3.7985,0-6.8969-3.0984-6.8969-6.897s3.0984-6.897,6.8969-6.897
			s6.897,3.0984,6.897,6.897S27.9413,21.5725,24.1428,21.5725z"/>
		<rect x="8.656" y="23.5737" style="fill:#FFFFFF;" width="4.7443" height="10.9411"/>
		<g>
			<path style="fill:#193651;" d="M24.1428,14.2314c-0.6479,0-1.2017-0.5486-1.2017-1.1965s0.5486-1.1965,1.2017-1.1965
				c0.6531,0,1.2017,0.5486,1.2017,1.1965h0.998c0-1.0502-0.7472-1.8967-1.6981-2.1475V10.088h-0.998v0.7994
				c-0.998,0.2508-1.6981,1.0972-1.6981,2.1475c0,1.1965,0.998,2.1997,2.1997,2.1997c0.6479,0,1.2017,0.5486,1.2017,1.2017
				c0,0.6531-0.5486,1.1965-1.2017,1.1965c-0.6479,0-1.2017-0.5486-1.2017-1.1965h-0.998c0,1.0502,0.7472,1.8967,1.6981,2.1475
				v0.7001h0.998v-0.7001c0.998-0.2508,1.6981-1.0972,1.6981-2.1475C26.3425,15.2294,25.3445,14.2314,24.1428,14.2314z"/>
			<rect x="10.5056" y="25.7734" style="fill:#193651;" width="0.998" height="0.998"/>
			<rect x="10.5056" y="28.5687" style="fill:#193651;" width="0.998" height="0.998"/>
			<rect x="10.5056" y="31.3693" style="fill:#193651;" width="0.998" height="0.998"/>
			<rect x="28.2914" y="14.1322" style="fill:#193651;" width="0.998" height="1.0972"/>
			<rect x="19.0014" y="14.1322" style="fill:#193651;" width="0.998" height="1.0972"/>
			<path style="fill:#193651;" d="M39.1332,28.1194c-0.5016-1.0502-1.6981-1.5466-2.7483-1.1495l-6.7924,2.299
				c0.0522-0.1515,0.0522-0.3501,0.0522-0.5486c0-1.301-1.0502-2.346-2.346-2.346h-5.0473c-0.1515,0-0.3501-0.0522-0.5016-0.0993
				l-3.2499-1.6981l-0.0522-0.0522c-0.2978-0.0993-0.6009-0.1515-0.8987-0.1515h-3.647v-1.348H8.1596v11.939h5.7475v-1.0502h1.2488
				l9.2952,3.0984c0.3501,0.0993,0.7001,0.1986,1.0972,0.1986c0.5486,0,1.0972-0.1515,1.5988-0.4023l11.0403-5.8467
				C39.1854,30.4706,39.6348,29.2166,39.1332,28.1194z M12.9039,34.0131v0.0522H9.1576V24.07h3.7463V34.0131z M37.6859,30.1676
				l-11.0403,5.7945c-0.6009,0.2978-1.301,0.3501-1.9489,0.1515l-9.4415-3.1454h-1.4003v-7.5448h3.647
				c0.1985,0,0.3501,0.0522,0.5486,0.0993l3.2499,1.6981l0.0522,0.0522c0.2508,0.0993,0.5486,0.1515,0.8517,0.1515h5.0473
				c0.7472,0,1.348,0.6009,1.348,1.348c0,0.3971-0.1985,0.7472-0.4493,0.998l-0.9509,0.3501H23.103
				c-1.0502,0-1.8967,0.8517-1.8967,1.8967h0.998c0-0.5016,0.3971-0.8987,0.8987-0.8987h4.1486c0.5016,0,0.9509-0.1515,1.348-0.4493
				l8.0464-2.7483c0.6009-0.1985,1.2488,0.0522,1.4996,0.6479C38.4853,29.1173,38.2867,29.8697,37.6859,30.1676z"/>
		</g>
	</g>
</g>
<polygon id="XMLID_1363_" style="opacity:0.5;fill:#2C6882;" points="234.6104,49.5239 1,42.354 234.6104,42.354 "/>
</svg>
