<?xml version="1.0" encoding="utf-8"?>
<!-- Generator: Adobe Illustrator 21.0.0, SVG Export Plug-In . SVG Version: 6.00 Build 0)  -->
<svg version="1.1" id="Capa_1" xmlns="http://www.w3.org/2000/svg" xmlns:xlink="http://www.w3.org/1999/xlink" x="0px" y="0px"
	 viewBox="0 0 249.6367 59.1388" style="enable-background:new 0 0 249.6367 59.1388;" xml:space="preserve">
<polygon id="XMLID_1363_" style="opacity:0.5;fill:#2C6882;enable-background:new    ;" points="234.6104,49.5239 1,42.354 
	234.6104,42.354 "/>
<g id="XMLID_9_">
	<g id="XMLID_3028_">
		<polygon id="XMLID_3029_" style="fill:#223B72;" points="234.6104,59.1387 248.6367,41.3536 238.2119,21.1846 234.6104,21.1876 		
			"/>
	</g>
	<g>
		<rect id="XMLID_2_" x="1" y="1.0001" style="fill:#FFFFFF;" width="247.6367" height="40.3535"/>
		<path style="fill:#FFFFFF;" d="M248.6367,42.3536H1c-0.5522,0-1-0.4478-1-1V1.0001c0-0.5522,0.4478-1,1-1h247.6367
			c0.5527,0,1,0.4478,1,1v40.3535C249.6367,41.9058,249.1895,42.3536,248.6367,42.3536z M2,40.3536h245.6367V2.0001H2V40.3536z"/>
	</g>
	<g>
		<path d="M67.6924,26.5585V13.7792h2.6016v10.6084h6.4688v2.1709H67.6924z"/>
		<path d="M78.5996,15.9589v-2.2852h2.4697v2.2852H78.5996z M78.5996,26.5585v-9.334h2.4697v9.334H78.5996z"/>
		<path d="M82.7305,23.8954l2.4785-0.3779c0.1055,0.4805,0.3193,0.8457,0.6416,1.0938c0.3223,0.25,0.7734,0.374,1.3535,0.374
			c0.6387,0,1.1191-0.1172,1.4414-0.3516c0.2168-0.1641,0.3252-0.3838,0.3252-0.6592c0-0.1875-0.0586-0.3428-0.1758-0.4658
			c-0.123-0.1172-0.3984-0.2256-0.8262-0.3252c-1.9922-0.4395-3.2549-0.8408-3.7881-1.2041
			c-0.7383-0.5039-1.1074-1.2041-1.1074-2.1006c0-0.8086,0.3193-1.4883,0.958-2.0391s1.6289-0.8262,2.9707-0.8262
			c1.2773,0,2.2266,0.208,2.8477,0.624s1.0488,1.0313,1.2832,1.8457l-2.3291,0.4307c-0.0996-0.3633-0.2886-0.6416-0.5669-0.835
			s-0.6753-0.29-1.1909-0.29c-0.6504,0-1.1162,0.0908-1.3975,0.2725c-0.1875,0.1289-0.2813,0.2959-0.2813,0.501
			c0,0.1758,0.082,0.3252,0.2461,0.4482c0.2227,0.1641,0.9917,0.3955,2.3071,0.6943s2.2339,0.665,2.7554,1.0986
			c0.5156,0.4395,0.7734,1.0518,0.7734,1.8369c0,0.8555-0.3574,1.5908-1.0723,2.2061s-1.7725,0.9229-3.1729,0.9229
			c-1.2715,0-2.2778-0.2578-3.019-0.7734S82.959,24.7802,82.7305,23.8954z"/>
		<path d="M97.8916,17.2245v1.9688h-1.6875v3.7617c0,0.7617,0.0161,1.2061,0.0483,1.332s0.1055,0.2295,0.2197,0.3115
			s0.2534,0.123,0.4175,0.123c0.2285,0,0.5596-0.0791,0.9932-0.2373l0.2109,1.916c-0.5742,0.2461-1.2246,0.3691-1.9512,0.3691
			c-0.4453,0-0.8467-0.0742-1.2041-0.2246c-0.3574-0.1484-0.6196-0.3418-0.7866-0.5801c-0.167-0.2363-0.2827-0.5576-0.3472-0.9619
			c-0.0527-0.2871-0.0791-0.8672-0.0791-1.7402v-4.0693h-1.1338v-1.9688h1.1338V15.37l2.4785-1.4414v3.2959H97.8916z"/>
		<path d="M101.4512,20.0722L99.21,19.6679c0.252-0.9023,0.6855-1.5703,1.3008-2.0039s1.5293-0.6504,2.7422-0.6504
			c1.1016,0,1.9219,0.1309,2.4609,0.3906c0.5391,0.2617,0.9185,0.5928,1.1382,0.9941s0.3296,1.1377,0.3296,2.21l-0.0264,2.8828
			c0,0.8203,0.0396,1.4258,0.1187,1.8154s0.2271,0.8066,0.4438,1.252h-2.4434c-0.0645-0.1641-0.1436-0.4072-0.2373-0.7295
			c-0.041-0.1465-0.0703-0.2432-0.0879-0.29c-0.4219,0.4102-0.873,0.7178-1.3535,0.9229s-0.9932,0.3076-1.5381,0.3076
			c-0.9609,0-1.7183-0.2607-2.272-0.7822s-0.8306-1.1807-0.8306-1.9775c0-0.5273,0.126-0.998,0.3779-1.4102
			c0.252-0.4141,0.605-0.7305,1.0591-0.9492c0.4541-0.2207,1.1089-0.4121,1.9644-0.5762c1.1543-0.2168,1.9541-0.4189,2.3994-0.6064
			v-0.2461c0-0.4746-0.1172-0.8135-0.3516-1.0146c-0.2344-0.2031-0.6768-0.3037-1.3271-0.3037
			c-0.4395,0-0.7822,0.0869-1.0283,0.2588C101.8027,19.3359,101.6035,19.6386,101.4512,20.0722z M104.7559,22.0761
			c-0.3164,0.1055-0.8174,0.2314-1.5029,0.3779s-1.1338,0.29-1.3447,0.4307c-0.3223,0.2285-0.4834,0.5186-0.4834,0.8701
			c0,0.3457,0.1289,0.6445,0.3867,0.8965s0.5859,0.3779,0.9844,0.3779c0.4453,0,0.8701-0.1465,1.2744-0.4395
			c0.2988-0.2227,0.4951-0.4951,0.5889-0.8174c0.0645-0.2109,0.0967-0.6123,0.0967-1.2041L104.7559,22.0761L104.7559,22.0761z"/>
		<path d="M123.1777,26.5585h-2.2939v-1.3711c-0.3809,0.5332-0.8306,0.9307-1.3491,1.1914
			c-0.5186,0.2598-1.0415,0.3906-1.5688,0.3906c-1.0723,0-1.9907-0.4316-2.7554-1.2969c-0.7646-0.8633-1.147-2.0693-1.147-3.6162
			c0-1.582,0.3721-2.7842,1.1162-3.6084c0.7441-0.8223,1.6846-1.2344,2.8213-1.2344c1.043,0,1.9453,0.4336,2.707,1.3008v-4.6406
			h2.4697V26.5585z M116.586,21.6894c0,0.9961,0.1377,1.7168,0.4131,2.1621c0.3984,0.6445,0.9551,0.9668,1.6699,0.9668
			c0.5684,0,1.0518-0.2422,1.4502-0.7246c0.3984-0.4844,0.5977-1.2061,0.5977-2.167c0-1.0723-0.1934-1.8438-0.5801-2.3154
			s-0.8818-0.708-1.4854-0.708c-0.5859,0-1.0767,0.2334-1.4722,0.6982C116.7837,20.0683,116.586,20.7636,116.586,21.6894z"/>
		<path d="M131.0176,23.5878l2.4609,0.4131c-0.3164,0.9023-0.8164,1.5898-1.4985,2.0615c-0.6826,0.4717-1.5366,0.707-2.562,0.707
			c-1.623,0-2.8242-0.5303-3.6035-1.5908c-0.6152-0.8496-0.9229-1.9219-0.9229-3.2168c0-1.5469,0.4043-2.7578,1.2129-3.6338
			s1.8311-1.3145,3.0674-1.3145c1.3887,0,2.4844,0.459,3.2871,1.375c0.8027,0.918,1.1865,2.3223,1.1514,4.2148h-6.1875
			c0.0176,0.7324,0.2168,1.3027,0.5977,1.709c0.3809,0.4082,0.8555,0.6113,1.4238,0.6113c0.3867,0,0.7119-0.1055,0.9756-0.3164
			S130.8828,24.0566,131.0176,23.5878z M131.1582,21.0917c-0.0176-0.7148-0.2021-1.2578-0.5537-1.6309
			c-0.3516-0.3711-0.7793-0.5576-1.2832-0.5576c-0.5391,0-0.9844,0.1963-1.3359,0.5889s-0.5244,0.9258-0.5186,1.5996H131.1582z"/>
		<path d="M148.7627,19.9843l-2.4346,0.4395c-0.082-0.4863-0.2686-0.8525-0.5586-1.0986s-0.666-0.3691-1.1289-0.3691
			c-0.6152,0-1.1064,0.2129-1.4727,0.6377s-0.5488,1.1348-0.5488,2.1309c0,1.1074,0.1855,1.8896,0.5576,2.3467
			s0.8721,0.6855,1.499,0.6855c0.4688,0,0.8525-0.1328,1.1514-0.3994s0.5098-0.7256,0.6328-1.376l2.4258,0.4131
			c-0.252,1.1133-0.7354,1.9541-1.4502,2.5225s-1.6729,0.8525-2.874,0.8525c-1.3652,0-2.4541-0.4307-3.2656-1.292
			s-1.2168-2.0537-1.2168-3.5771c0-1.541,0.4072-2.7402,1.2217-3.5996c0.8145-0.8574,1.916-1.2871,3.3047-1.2871
			c1.1367,0,2.04,0.2451,2.7109,0.7344S148.4697,18.9823,148.7627,19.9843z"/>
		<path d="M153.0957,13.6738v4.7373c0.7969-0.9316,1.749-1.3975,2.8564-1.3975c0.5684,0,1.0811,0.1055,1.5381,0.3164
			s0.8008,0.4805,1.0322,0.8086s0.3896,0.6914,0.4746,1.0898s0.1279,1.0166,0.1279,1.8545v5.4756h-2.4697v-4.9307
			c0-0.9785-0.0469-1.5996-0.1406-1.8633s-0.2598-0.4727-0.4971-0.6279s-0.5342-0.2334-0.8916-0.2334
			c-0.4102,0-0.7764,0.0996-1.0986,0.2988s-0.5586,0.5-0.708,0.9014s-0.2236,0.9941-0.2236,1.7793v4.6758h-2.4697V13.6738H153.0957z
			"/>
		<path d="M167.0352,23.5878l2.4609,0.4131c-0.3164,0.9023-0.8164,1.5898-1.499,2.0615s-1.5361,0.707-2.5615,0.707
			c-1.623,0-2.8242-0.5303-3.6035-1.5908c-0.6152-0.8496-0.9229-1.9219-0.9229-3.2168c0-1.5469,0.4043-2.7578,1.2129-3.6338
			s1.8311-1.3145,3.0674-1.3145c1.3887,0,2.4844,0.459,3.2871,1.375c0.8027,0.918,1.1865,2.3223,1.1514,4.2148h-6.1875
			c0.0176,0.7324,0.2168,1.3027,0.5977,1.709c0.3809,0.4082,0.8555,0.6113,1.4238,0.6113c0.3867,0,0.7119-0.1055,0.9756-0.3164
			S166.9004,24.0566,167.0352,23.5878z M167.1758,21.0917c-0.0176-0.7148-0.2021-1.2578-0.5537-1.6309
			c-0.3516-0.3711-0.7793-0.5576-1.2832-0.5576c-0.5391,0-0.9844,0.1963-1.3359,0.5889s-0.5244,0.9258-0.5186,1.5996H167.1758z"/>
		<path d="M177.7402,30.1093v-4.6934c-0.3223,0.416-0.7236,0.7461-1.2041,0.9883c-0.4805,0.2432-0.999,0.3652-1.5557,0.3652
			c-1.0605,0-1.9336-0.3984-2.6191-1.1953c-0.8086-0.9316-1.2129-2.1943-1.2129-3.7881c0-1.5,0.3789-2.6699,1.1377-3.5107
			s1.7012-1.2617,2.8262-1.2617c0.6211,0,1.1582,0.1318,1.6123,0.3955s0.8574,0.6621,1.209,1.1953v-1.3799h2.2764v12.8848
			C180.21,30.1093,177.7402,30.1093,177.7402,30.1093z M177.8194,21.7773c0-0.9551-0.1953-1.666-0.585-2.1309
			c-0.3896-0.4668-0.877-0.6992-1.4629-0.6992c-0.5977,0-1.0977,0.2373-1.499,0.7119s-0.6016,1.2275-0.6016,2.2588
			c0,1.0254,0.1934,1.7656,0.5801,2.2188c0.3867,0.4551,0.8643,0.6816,1.4326,0.6816s1.0664-0.2549,1.4941-0.7646
			S177.8194,22.7851,177.8194,21.7773z"/>
		<path d="M188.7793,26.5585V25.161c-0.3398,0.498-0.7871,0.8906-1.3408,1.1777s-1.1377,0.4307-1.7529,0.4307
			c-0.627,0-1.1895-0.1377-1.6875-0.4131s-0.8584-0.6621-1.0811-1.1602s-0.334-1.1865-0.334-2.0654v-5.9063h2.4697v4.2891
			c0,1.3125,0.0449,2.1172,0.1357,2.4121c0.0908,0.2969,0.2568,0.5313,0.4971,0.7031c0.2402,0.1738,0.5449,0.2598,0.9141,0.2598
			c0.4219,0,0.7998-0.1152,1.1338-0.3477c0.334-0.2305,0.5625-0.5176,0.6855-0.8613c0.123-0.3418,0.1846-1.1816,0.1846-2.5176
			v-3.9375h2.4697v9.334L188.7793,26.5585L188.7793,26.5585z"/>
		<path d="M199.0361,23.5878l2.4609,0.4131c-0.3164,0.9023-0.8164,1.5898-1.499,2.0615s-1.5361,0.707-2.5615,0.707
			c-1.623,0-2.8242-0.5303-3.6035-1.5908c-0.6152-0.8496-0.9229-1.9219-0.9229-3.2168c0-1.5469,0.4043-2.7578,1.2129-3.6338
			s1.8311-1.3145,3.0674-1.3145c1.3887,0,2.4844,0.459,3.2871,1.375c0.8027,0.918,1.1865,2.3223,1.1514,4.2148h-6.1875
			c0.0176,0.7324,0.2168,1.3027,0.5977,1.709c0.3809,0.4082,0.8555,0.6113,1.4238,0.6113c0.3867,0,0.7119-0.1055,0.9756-0.3164
			S198.9014,24.0566,199.0361,23.5878z M199.1768,21.0917c-0.0176-0.7148-0.2021-1.2578-0.5537-1.6309
			c-0.3516-0.3711-0.7793-0.5576-1.2832-0.5576c-0.5391,0-0.9844,0.1963-1.3359,0.5889s-0.5244,0.9258-0.5186,1.5996H199.1768z"/>
		<path d="M203.0703,21.7597c0-0.8203,0.2021-1.6143,0.6064-2.3818s0.9766-1.3535,1.7178-1.7578s1.5693-0.6064,2.4834-0.6064
			c1.4121,0,2.5693,0.459,3.4717,1.375c0.9023,0.918,1.3535,2.0762,1.3535,3.4766c0,1.4121-0.4561,2.583-1.3672,3.5117
			s-2.0576,1.3926-3.4404,1.3926c-0.8555,0-1.6719-0.1934-2.4482-0.5801s-1.3662-0.9531-1.7705-1.7012
			C203.2725,23.7421,203.0703,22.832,203.0703,21.7597z M205.6016,21.8915c0,0.9258,0.2197,1.6348,0.6592,2.127
			s0.9814,0.7383,1.626,0.7383s1.1846-0.2461,1.6211-0.7383s0.6553-1.207,0.6553-2.1445c0-0.9141-0.2188-1.6172-0.6553-2.1094
			s-0.9766-0.7383-1.6211-0.7383s-1.1865,0.2461-1.626,0.7383S205.6016,20.9657,205.6016,21.8915z"/>
	</g>
</g>
<g>
	<path style="fill:#28749E;" d="M36.1853,9.1363h-4.5861v2.4287c0,0.1907-0.156,0.3467-0.3467,0.3467H20.6744
		c-0.1907,0-0.3467-0.156-0.3467-0.3467V9.1363h-4.5861c-0.1907,0-0.3467,0.156-0.3467,0.3467v25.9483
		c0,0.1907,0.156,0.3467,0.3467,0.3467h14.6641c-0.4514-0.6969-0.7146-1.5272-0.7146-2.4194c0-2.4616,1.9953-4.4572,4.4569-4.4572
		c0.8771,0,1.6944,0.2544,2.3839,0.692V9.483C36.532,9.2923,36.376,9.1363,36.1853,9.1363z"/>
	<g style="opacity:0.1;">
		<path d="M16.8884,35.4313V9.483c0-0.1907,0.156-0.3467,0.3467-0.3467h-1.4935c-0.1907,0-0.3467,0.156-0.3467,0.3467v25.9483
			c0,0.1907,0.156,0.3467,0.3467,0.3467h1.4935C17.0445,35.778,16.8884,35.622,16.8884,35.4313z"/>
	</g>
	<path style="fill:#FFF9F3;" d="M33.7207,11.1074h-2.1215v0.4575c0,0.1907-0.156,0.3467-0.3467,0.3467H20.6744
		c-0.1907,0-0.3467-0.156-0.3467-0.3467v-0.4575h-2.1215c-0.1905,0-0.3464,0.1559-0.3464,0.3464v21.6044
		c0,0.1905,0.1559,0.3464,0.3464,0.3464h11.486c-0.0001-0.0154-0.0012-0.0306-0.0012-0.046c0-2.4344,1.9519-4.4117,4.3759-4.4551
		V11.4538C34.067,11.2633,33.9111,11.1074,33.7207,11.1074z"/>
	<path style="fill:#2C4D67;" d="M17.8599,27.9015v5.1566c0,0.1905,0.1559,0.3464,0.3464,0.3464h5.1564L17.8599,27.9015z"/>
	<g style="opacity:0.1;">
		<path d="M19.3723,33.0582V11.4538c0-0.1906,0.1559-0.3464,0.3464-0.3464h-1.5124c-0.1905,0-0.3464,0.1559-0.3464,0.3464v21.6044
			c0,0.1905,0.1559,0.3464,0.3464,0.3464h1.5124C19.5282,33.4045,19.3723,33.2487,19.3723,33.0582z"/>
	</g>
	<path style="fill:#28749E;" d="M29.2366,8.4179c0.0079-0.0915,0.0132-0.1836,0.0132-0.2772c0-1.8019-1.4714-3.2628-3.2864-3.2628
		S22.677,6.3387,22.677,8.1407c0,0.0935,0.0053,0.1857,0.0133,0.2772H29.2366z"/>
	<circle style="fill:#35D34F;" cx="34.1479" cy="33.3584" r="4.4574"/>
	<g style="opacity:0.1;">
		<path d="M31.1918,33.3586c0-2.2057,1.6025-4.0361,3.7066-4.393c-0.2441-0.0414-0.4945-0.0641-0.7503-0.0641
			c-2.4616,0-4.4569,1.9956-4.4569,4.4572s1.9953,4.4572,4.4569,4.4572c0.2558,0,0.5063-0.0227,0.7503-0.0641
			C32.7943,37.3947,31.1918,35.5644,31.1918,33.3586z"/>
	</g>
	<path style="fill:#2C4D67;" d="M31.5993,11.5649c0,0.1907-0.156,0.3467-0.3467,0.3467H20.6744
		c-0.1907,0-0.3467-0.156-0.3467-0.3467V8.7646c0-0.1907,0.156-0.3467,0.3467-0.3467h10.5781c0.1907,0,0.3467,0.156,0.3467,0.3467
		L31.5993,11.5649L31.5993,11.5649z"/>
	<g style="opacity:0.1;">
		<path d="M22.2154,11.5649V8.7646c0-0.1907,0.156-0.3467,0.3467-0.3467h-1.8877c-0.1907,0-0.3467,0.156-0.3467,0.3467v2.8003
			c0,0.1907,0.156,0.3467,0.3467,0.3467h1.8877C22.3714,11.9116,22.2154,11.7556,22.2154,11.5649z"/>
	</g>
	<path style="fill:#00A9FF;" d="M22.7221,16.8432c0,0.0763-0.0624,0.1387-0.1387,0.1387h-1.6676
		c-0.0763,0-0.1387-0.0624-0.1387-0.1387v-1.6535c0-0.0763,0.0624-0.1387,0.1387-0.1387h1.6676
		c0.0763,0,0.1387,0.0624,0.1387,0.1387V16.8432z"/>
	<path style="fill:#76D8FF;" d="M22.7221,20.5843c0,0.0763-0.0624,0.1387-0.1387,0.1387h-1.6676
		c-0.0763,0-0.1387-0.0624-0.1387-0.1387v-1.6535c0-0.0763,0.0624-0.1387,0.1387-0.1387h1.6676
		c0.0763,0,0.1387,0.0624,0.1387,0.1387V20.5843z"/>
	<path style="fill:#00A9FF;" d="M22.7221,24.3253c0,0.0763-0.0624,0.1387-0.1387,0.1387h-1.6676
		c-0.0763,0-0.1387-0.0624-0.1387-0.1387v-1.6536c0-0.0763,0.0624-0.1387,0.1387-0.1387h1.6676
		c0.0763,0,0.1387,0.0624,0.1387,0.1387V24.3253z"/>
	<path style="fill:#76D8FF;" d="M22.7221,28.0664c0,0.0763-0.0624,0.1387-0.1387,0.1387h-1.6676
		c-0.0763,0-0.1387-0.0624-0.1387-0.1387v-1.6536c0-0.0763,0.0624-0.1387,0.1387-0.1387h1.6676
		c0.0763,0,0.1387,0.0624,0.1387,0.1387V28.0664z"/>
	<path d="M23.2422,15.1897c0-0.3632-0.2955-0.6588-0.6588-0.6588h-1.6676c-0.3632,0-0.6588,0.2955-0.6588,0.6588v1.6536
		c0,0.3632,0.2955,0.6588,0.6588,0.6588h1.6676c0.3632,0,0.6588-0.2955,0.6588-0.6588V15.1897z M22.202,16.4619h-0.9048v-0.8908
		h0.9048V16.4619z"/>
	<path d="M31.1498,15.4964H24.748c-0.2873,0-0.5201,0.2329-0.5201,0.5201s0.2328,0.5201,0.5201,0.5201h6.4018
		c0.2872,0,0.5201-0.2329,0.5201-0.5201C31.6698,15.7292,31.437,15.4964,31.1498,15.4964z"/>
	<path d="M23.2422,18.9307c0-0.3632-0.2955-0.6588-0.6588-0.6588h-1.6676c-0.3632,0-0.6588,0.2955-0.6588,0.6588v1.6536
		c0,0.3632,0.2955,0.6588,0.6588,0.6588h1.6676c0.3632,0,0.6588-0.2955,0.6588-0.6588V18.9307z M22.202,20.2029h-0.9048v-0.8908
		h0.9048V20.2029z"/>
	<path d="M31.1498,19.2374H24.748c-0.2873,0-0.5201,0.2329-0.5201,0.5201s0.2328,0.5201,0.5201,0.5201h6.4018
		c0.2872,0,0.5201-0.2329,0.5201-0.5201S31.437,19.2374,31.1498,19.2374z"/>
	<path d="M23.2422,22.6718c0-0.3632-0.2955-0.6588-0.6588-0.6588h-1.6676c-0.3632,0-0.6588,0.2955-0.6588,0.6588v1.6536
		c0,0.3632,0.2955,0.6588,0.6588,0.6588h1.6676c0.3632,0,0.6588-0.2955,0.6588-0.6588V22.6718z M22.202,23.944h-0.9048v-0.8908
		h0.9048V23.944z"/>
	<path d="M31.1498,22.9785H24.748c-0.2873,0-0.5201,0.2329-0.5201,0.5201s0.2328,0.5201,0.5201,0.5201h6.4018
		c0.2872,0,0.5201-0.2329,0.5201-0.5201S31.437,22.9785,31.1498,22.9785z"/>
	<path d="M22.5834,25.7541h-1.6676c-0.3632,0-0.6588,0.2955-0.6588,0.6588v1.6535c0,0.3632,0.2955,0.6588,0.6588,0.6588h1.6676
		c0.3632,0,0.6588-0.2955,0.6588-0.6588v-1.6535C23.2422,26.0496,22.9467,25.7541,22.5834,25.7541z M22.202,27.685h-0.9048v-0.8908
		h0.9048V27.685z"/>
	<path d="M31.1498,26.7196H24.748c-0.2873,0-0.5201,0.2329-0.5201,0.5201s0.2328,0.5201,0.5201,0.5201h6.4018
		c0.2872,0,0.5201-0.2329,0.5201-0.5201C31.6698,26.9524,31.437,26.7196,31.1498,26.7196z"/>
	<path d="M37.6672,36.1431c0.2442,0.1511,0.5648,0.0756,0.7159-0.1686c0.4855-0.7846,0.7421-1.6892,0.7421-2.6159
		c0-1.6612-0.8188-3.1338-2.0731-4.0384v-3.3967c0-0.2872-0.2328-0.5201-0.5201-0.5201s-0.5201,0.2329-0.5201,0.5201v2.8214
		c-0.4466-0.1811-0.9252-0.2991-1.4249-0.343v-11.701c0-0.2872-0.2328-0.5201-0.5201-0.5201s-0.5201,0.2329-0.5201,0.5201V28.419
		c-2.3068,0.2792-4.1321,2.1414-4.3527,4.4655H23.578l-5.198-5.1983V11.6275h1.4309c0.0322,0.4488,0.4068,0.8042,0.8636,0.8042
		h1.8182c0.2873,0,0.5201-0.2329,0.5201-0.5201s-0.2328-0.5201-0.5201-0.5201h-1.645V8.9379h10.2314v2.4536H24.781
		c-0.2873,0-0.5201,0.2329-0.5201,0.5201s0.2328,0.5201,0.5201,0.5201h6.4715c0.4568,0,0.8313-0.3555,0.8636-0.8042h1.4308v3.1318
		c0,0.2872,0.2328,0.5201,0.5201,0.5201s0.5201-0.2329,0.5201-0.5201v-3.3055c0-0.4778-0.3886-0.8664-0.8664-0.8664h-1.6014v-0.931
		h3.8926v14.1869c0,0.2872,0.2328,0.5201,0.5201,0.5201s0.5201-0.2329,0.5201-0.5201V9.483c0-0.478-0.3888-0.8668-0.8668-0.8668
		h-4.0797c-0.0707-0.4074-0.4258-0.7184-0.8531-0.7184h-1.4913c-0.1266-1.973-1.7811-3.54-3.7977-3.54
		c-2.0167,0-3.6712,1.5669-3.7978,3.54h-1.4913c-0.4272,0-0.7824,0.311-0.8532,0.7184h-4.0796c-0.478,0-0.8668,0.3888-0.8668,0.8668
		v25.9483c0,0.478,0.3888,0.8668,0.8668,0.8668H30.135c0.9066,1.2345,2.3675,2.0378,4.013,2.0378
		c0.8994,0,1.781-0.2426,2.5493-0.7017c0.2466-0.1474,0.327-0.4666,0.1797-0.7132c-0.1473-0.2465-0.4666-0.327-0.7132-0.1797
		c-0.6071,0.3627-1.3042,0.5545-2.0158,0.5545c-2.1708,0-3.9369-1.7662-3.9369-3.9371s1.7661-3.9371,3.9369-3.9371
		s3.9369,1.7662,3.9369,3.9371c0,0.7332-0.2028,1.4485-0.5865,2.0686C37.3474,35.6714,37.423,35.9919,37.6672,36.1431z
		 M25.2169,7.8978c0.1035-0.3098,0.3989-0.5344,0.7467-0.5344s0.643,0.2245,0.7466,0.5344H25.2169z M25.9636,5.398
		c1.4427,0,2.6303,1.1009,2.7549,2.4998h-0.945c-0.1198-0.8876-0.8854-1.5745-1.8098-1.5745s-1.6901,0.6869-1.8099,1.5745h-0.945
		C23.3331,6.4989,24.5208,5.398,25.9636,5.398z M22.1071,32.8845h-3.7272v-3.7273L22.1071,32.8845z M15.915,35.2579V9.6563h3.8927
		v0.931h-1.6014c-0.4778,0-0.8664,0.3887-0.8664,0.8664v16.4475c0,0.0001,0,0.0002,0,0.0002v5.1566
		c0,0.4778,0.3887,0.8664,0.8664,0.8664h10.9979c0.0532,0.467,0.1707,0.9145,0.3444,1.3333L15.915,35.2579L15.915,35.2579z"/>
	<path d="M35.7771,32.1804l-2.0283,2.0286l-1.2299-1.2298c-0.203-0.2031-0.5323-0.203-0.7354,0
		c-0.2031,0.2031-0.2031,0.5324,0.0001,0.7355l1.3524,1.3523c0.1634,0.1634,0.3811,0.2535,0.6129,0.2535s0.4495-0.09,0.6129-0.2534
		l2.151-2.1512c0.2031-0.2031,0.2031-0.5324-0.0001-0.7355C36.3094,31.9773,35.9801,31.9774,35.7771,32.1804z"/>
	<path d="M24.8695,10.6848h2.188c0.2873,0,0.5201-0.2329,0.5201-0.5201s-0.2328-0.5201-0.5201-0.5201h-2.188
		c-0.2873,0-0.5201,0.2329-0.5201,0.5201C24.3494,10.452,24.5822,10.6848,24.8695,10.6848z"/>
</g>
</svg>
