<?xml version="1.0" encoding="utf-8"?>
<!-- Generator: Adobe Illustrator 21.0.0, SVG Export Plug-In . SVG Version: 6.00 Build 0)  -->
<svg version="1.1" id="Capa_1" xmlns="http://www.w3.org/2000/svg" xmlns:xlink="http://www.w3.org/1999/xlink" x="0px" y="0px"
	 viewBox="0 0 481.874 72.4844" style="enable-background:new 0 0 481.874 72.4844;" xml:space="preserve">
<g>
	<g>
		<polygon style="opacity:0.35;fill:#D1D3D2;" points="48.4062,7.1856 5.9057,7.1856 5.9057,29.8467 5.9057,72.4844 
			481.874,72.4844 481.874,29.8467 481.874,7.1856 		"/>
		<g>
			<rect style="fill:#F49022;" width="475.1772" height="65.7168"/>
			<g>
				<path style="fill:#FFCF48;" d="M449.5161,58.8731H41.4077c-18.8335,0-34.1011-15.2676-34.1011-34.1006v-3.3623
					C7.3066,13.4522,13.7583,7,21.7173,7h408.1084c18.8335,0,34.101,15.2676,34.101,34.1016v3.3613
					C463.9267,52.4219,457.4751,58.8731,449.5161,58.8731z"/>
			</g>
		</g>
	</g>
	<g>
		<path d="M131.6358,32.9395l2.2422,0.7109c-0.3438,1.25-0.9155,2.1787-1.7148,2.7852c-0.7998,0.6064-1.814,0.9102-3.043,0.9102
			c-1.521,0-2.771-0.5195-3.75-1.5586c-0.9795-1.0391-1.4688-2.46-1.4688-4.2617c0-1.9063,0.4922-3.3867,1.4766-4.4414
			s2.2783-1.582,3.8828-1.582c1.4009,0,2.5391,0.4141,3.4141,1.2422c0.5205,0.4893,0.9111,1.1924,1.1719,2.1094l-2.2891,0.5469
			c-0.1357-0.5938-0.418-1.0625-0.8477-1.4063s-0.9521-0.5156-1.5664-0.5156c-0.8491,0-1.5381,0.3047-2.0664,0.9141
			c-0.5288,0.6094-0.793,1.5967-0.793,2.9609c0,1.4482,0.2603,2.4795,0.7813,3.0938c0.5205,0.6143,1.1977,0.9219,2.0312,0.9219
			c0.6143,0,1.1431-0.1953,1.5859-0.5859C131.125,34.3926,131.4429,33.7784,131.6358,32.9395z"/>
		<path d="M137.4873,31.3848l-1.9922-0.3594c0.2236-0.8018,0.6094-1.3955,1.1563-1.7813s1.3594-0.5781,2.4375-0.5781
			c0.979,0,1.708,0.1162,2.1875,0.3477c0.479,0.2314,0.8164,0.5264,1.0117,0.8828s0.293,1.0117,0.293,1.9648l-0.0234,2.5625
			c0,0.7295,0.0352,1.2666,0.1055,1.6133s0.2017,0.7178,0.3945,1.1133h-2.1719c-0.0576-0.1455-0.1279-0.3623-0.2109-0.6484
			c-0.0366-0.1299-0.0625-0.2158-0.0781-0.2578c-0.375,0.3643-0.7764,0.6377-1.2031,0.8203
			c-0.4272,0.1826-0.8828,0.2734-1.3672,0.2734c-0.8545,0-1.5273-0.2314-2.0195-0.6953s-0.7383-1.0498-0.7383-1.7578
			c0-0.4688,0.1118-0.8867,0.3359-1.2539c0.2236-0.3672,0.5376-0.6484,0.9414-0.8438c0.4033-0.1953,0.9854-0.3662,1.7461-0.5117
			c1.0259-0.1924,1.7368-0.3721,2.1328-0.5391v-0.2188c0-0.4219-0.1045-0.7227-0.3125-0.9023
			c-0.2085-0.1797-0.6016-0.2695-1.1797-0.2695c-0.3906,0-0.6953,0.0771-0.9141,0.2305S137.6226,30.9991,137.4873,31.3848z
			 M140.4248,33.1661c-0.2813,0.0938-0.7266,0.2061-1.3359,0.3359s-1.0078,0.2578-1.1953,0.3828
			c-0.2866,0.2031-0.4297,0.4609-0.4297,0.7734c0,0.3076,0.1143,0.5732,0.3438,0.7969c0.229,0.2236,0.5205,0.3359,0.875,0.3359
			c0.3955,0,0.7734-0.1299,1.1328-0.3906c0.2656-0.1982,0.4399-0.4404,0.5234-0.7266c0.0571-0.1875,0.0859-0.5439,0.0859-1.0703
			V33.1661z"/>
		<path d="M144.7451,37.1505V25.6973h2.1953v11.4531H144.7451z"/>
		<path d="M149.1904,27.7286v-2.0313h2.1953v2.0313H149.1904z M149.1904,37.1505v-8.2969h2.1953v8.2969H149.1904z"/>
		<path d="M161.2451,37.1505h-2.0391v-1.2188c-0.3389,0.4736-0.7383,0.8271-1.1992,1.0586s-0.9258,0.3477-1.3945,0.3477
			c-0.9531,0-1.7695-0.3838-2.4492-1.1523s-1.0195-1.8398-1.0195-3.2148c0-1.4063,0.3306-2.4756,0.9922-3.207
			c0.6611-0.7314,1.4971-1.0977,2.5078-1.0977c0.9268,0,1.729,0.3857,2.4063,1.1563v-4.125h2.1953V37.1505z M155.3858,32.8223
			c0,0.8857,0.1221,1.5264,0.3672,1.9219c0.354,0.5732,0.8486,0.8594,1.4844,0.8594c0.5049,0,0.9346-0.2148,1.2891-0.6445
			c0.354-0.4297,0.5313-1.0713,0.5313-1.9258c0-0.9531-0.1719-1.6397-0.5156-2.0586s-0.7842-0.6289-1.3203-0.6289
			c-0.521,0-0.957,0.207-1.3086,0.6211S155.3858,31.9991,155.3858,32.8223z"/>
		<path d="M165.0498,31.3848l-1.9922-0.3594c0.2236-0.8018,0.6094-1.3955,1.1563-1.7813s1.3594-0.5781,2.4375-0.5781
			c0.979,0,1.708,0.1162,2.1875,0.3477c0.479,0.2314,0.8164,0.5264,1.0117,0.8828s0.293,1.0117,0.293,1.9648l-0.0234,2.5625
			c0,0.7295,0.0352,1.2666,0.1055,1.6133s0.2017,0.7178,0.3945,1.1133h-2.1719c-0.0576-0.1455-0.1279-0.3623-0.2109-0.6484
			c-0.0366-0.1299-0.0625-0.2158-0.0781-0.2578c-0.375,0.3643-0.7764,0.6377-1.2031,0.8203
			c-0.4272,0.1826-0.8828,0.2734-1.3672,0.2734c-0.8545,0-1.5273-0.2314-2.0195-0.6953s-0.7383-1.0498-0.7383-1.7578
			c0-0.4688,0.1118-0.8867,0.3359-1.2539c0.2236-0.3672,0.5376-0.6484,0.9414-0.8438c0.4033-0.1953,0.9854-0.3662,1.7461-0.5117
			c1.0259-0.1924,1.7368-0.3721,2.1328-0.5391v-0.2188c0-0.4219-0.1045-0.7227-0.3125-0.9023
			c-0.2085-0.1797-0.6016-0.2695-1.1797-0.2695c-0.3906,0-0.6953,0.0771-0.9141,0.2305S165.1851,30.9991,165.0498,31.3848z
			 M167.9873,33.1661c-0.2813,0.0938-0.7266,0.2061-1.3359,0.3359s-1.0078,0.2578-1.1953,0.3828
			c-0.2866,0.2031-0.4297,0.4609-0.4297,0.7734c0,0.3076,0.1143,0.5732,0.3438,0.7969c0.229,0.2236,0.5205,0.3359,0.875,0.3359
			c0.3955,0,0.7734-0.1299,1.1328-0.3906c0.2656-0.1982,0.4399-0.4404,0.5234-0.7266c0.0571-0.1875,0.0859-0.5439,0.0859-1.0703
			V33.1661z"/>
		<path d="M179.917,37.1505h-2.0391v-1.2188c-0.3389,0.4736-0.7383,0.8271-1.1992,1.0586s-0.9258,0.3477-1.3945,0.3477
			c-0.9531,0-1.7695-0.3838-2.4492-1.1523s-1.0195-1.8398-1.0195-3.2148c0-1.4063,0.3306-2.4756,0.9922-3.207
			c0.6611-0.7314,1.4971-1.0977,2.5078-1.0977c0.9268,0,1.729,0.3857,2.4063,1.1563v-4.125h2.1953V37.1505z M174.0576,32.8223
			c0,0.8857,0.1221,1.5264,0.3672,1.9219c0.354,0.5732,0.8486,0.8594,1.4844,0.8594c0.5049,0,0.9346-0.2148,1.2891-0.6445
			c0.354-0.4297,0.5313-1.0713,0.5313-1.9258c0-0.9531-0.1719-1.6397-0.5156-2.0586s-0.7842-0.6289-1.3203-0.6289
			c-0.521,0-0.957,0.207-1.3086,0.6211S174.0576,31.9991,174.0576,32.8223z"/>
		<path d="M194.1358,37.1505h-2.0391v-1.2188c-0.3389,0.4736-0.7383,0.8271-1.1992,1.0586s-0.9258,0.3477-1.3945,0.3477
			c-0.9531,0-1.7695-0.3838-2.4492-1.1523s-1.0195-1.8398-1.0195-3.2148c0-1.4063,0.3306-2.4756,0.9922-3.207
			c0.6611-0.7314,1.4971-1.0977,2.5078-1.0977c0.9268,0,1.729,0.3857,2.4063,1.1563v-4.125h2.1953V37.1505z M188.2764,32.8223
			c0,0.8857,0.1221,1.5264,0.3672,1.9219c0.354,0.5732,0.8486,0.8594,1.4844,0.8594c0.5049,0,0.9346-0.2148,1.2891-0.6445
			c0.354-0.4297,0.5313-1.0713,0.5313-1.9258c0-0.9531-0.1719-1.6397-0.5156-2.0586s-0.7842-0.6289-1.3203-0.6289
			c-0.521,0-0.957,0.207-1.3086,0.6211S188.2764,31.9991,188.2764,32.8223z"/>
		<path d="M201.1045,34.5098l2.1875,0.3672c-0.2813,0.8018-0.7256,1.4131-1.332,1.832c-0.6069,0.4189-1.3662,0.6289-2.2773,0.6289
			c-1.4429,0-2.5107-0.4717-3.2031-1.4141c-0.5469-0.7549-0.8203-1.708-0.8203-2.8594c0-1.375,0.3594-2.4522,1.0781-3.2305
			s1.6274-1.168,2.7266-1.168c1.2344,0,2.208,0.4072,2.9219,1.2227c0.7134,0.8154,1.0547,2.0635,1.0234,3.7461h-5.5
			c0.0156,0.6514,0.1924,1.1572,0.5313,1.5195c0.3384,0.3623,0.7603,0.543,1.2656,0.543c0.3438,0,0.6328-0.0938,0.8672-0.2813
			S200.9844,34.9268,201.1045,34.5098z M201.2295,32.2911c-0.0156-0.6357-0.1797-1.1182-0.4922-1.4492s-0.6929-0.4961-1.1406-0.4961
			c-0.4795,0-0.875,0.1748-1.1875,0.5234s-0.4663,0.8232-0.4609,1.4219H201.2295z"/>
		<path d="M209.6436,37.1505V25.6973h2.1953v11.4531H209.6436z"/>
		<path d="M213.5811,32.8848c0-0.7295,0.1797-1.4346,0.5391-2.1172s0.8682-1.2031,1.5273-1.5625
			c0.6587-0.3594,1.3945-0.5391,2.207-0.5391c1.2549,0,2.2837,0.4072,3.0859,1.2227c0.8018,0.8154,1.2031,1.8447,1.2031,3.0898
			c0,1.2549-0.4053,2.2959-1.2148,3.1211c-0.8101,0.8252-1.8296,1.2383-3.0586,1.2383c-0.7607,0-1.4858-0.1719-2.1758-0.5156
			c-0.6904-0.3438-1.2148-0.8477-1.5742-1.5117S213.5811,33.838,213.5811,32.8848z M215.8311,33.002
			c0,0.8232,0.1953,1.4531,0.5859,1.8906s0.8721,0.6563,1.4453,0.6563c0.5728,0,1.0532-0.2188,1.4414-0.6563
			c0.3877-0.4375,0.582-1.0732,0.582-1.9063c0-0.8125-0.1943-1.4375-0.582-1.875c-0.3882-0.4375-0.8687-0.6563-1.4414-0.6563
			c-0.5732,0-1.0547,0.2188-1.4453,0.6563S215.8311,32.1788,215.8311,33.002z"/>
		<path d="M223.0889,34.7833l2.2031-0.3359c0.0938,0.4268,0.2837,0.751,0.5703,0.9727c0.2861,0.2217,0.6875,0.332,1.2031,0.332
			c0.5674,0,0.9946-0.1045,1.2813-0.3125c0.1924-0.1455,0.2891-0.3408,0.2891-0.5859c0-0.167-0.0522-0.3047-0.1563-0.4141
			c-0.1094-0.1045-0.3545-0.2002-0.7344-0.2891c-1.771-0.3906-2.8936-0.7471-3.3672-1.0703
			c-0.6563-0.4482-0.9844-1.0703-0.9844-1.8672c0-0.7188,0.2837-1.3232,0.8516-1.8125c0.5674-0.4893,1.4478-0.7344,2.6406-0.7344
			c1.1353,0,1.979,0.1846,2.5313,0.5547c0.5518,0.3701,0.9321,0.917,1.1406,1.6406l-2.0703,0.3828
			c-0.0889-0.3232-0.2568-0.5703-0.5039-0.7422c-0.2476-0.1719-0.6006-0.2578-1.0586-0.2578c-0.5781,0-0.9922,0.0811-1.2422,0.2422
			c-0.167,0.1143-0.25,0.2627-0.25,0.4453c0,0.1563,0.0728,0.2891,0.2188,0.3984c0.1978,0.1455,0.8813,0.3516,2.0508,0.6172
			c1.1689,0.2656,1.9854,0.5908,2.4492,0.9766c0.458,0.3906,0.6875,0.9346,0.6875,1.6328c0,0.7607-0.3179,1.4141-0.9531,1.9609
			c-0.6357,0.5469-1.5757,0.8203-2.8203,0.8203c-1.1304,0-2.0249-0.2295-2.6836-0.6875
			C223.7227,36.1925,223.292,35.5694,223.0889,34.7833z"/>
		<path d="M239.3076,37.1505h-2.1953v-8.2969h2.0391v1.1797c0.3486-0.5576,0.6626-0.9248,0.9414-1.1016
			c0.2783-0.1768,0.5947-0.2656,0.9492-0.2656c0.5,0,0.9814,0.1377,1.4453,0.4141l-0.6797,1.9141
			c-0.3701-0.2393-0.7139-0.3594-1.0313-0.3594c-0.3076,0-0.5679,0.085-0.7813,0.2539c-0.2139,0.1689-0.3818,0.4756-0.5039,0.918
			c-0.1226,0.4424-0.1836,1.3701-0.1836,2.7813V37.1505z"/>
		<path d="M248.2373,34.5098l2.1875,0.3672c-0.2813,0.8018-0.7256,1.4131-1.332,1.832c-0.6074,0.4189-1.3662,0.6289-2.2773,0.6289
			c-1.4434,0-2.5107-0.4717-3.2031-1.4141c-0.5469-0.7549-0.8203-1.708-0.8203-2.8594c0-1.375,0.3594-2.4522,1.0781-3.2305
			s1.627-1.168,2.7266-1.168c1.2344,0,2.208,0.4072,2.9219,1.2227c0.7129,0.8154,1.0547,2.0635,1.0234,3.7461h-5.5
			c0.0156,0.6514,0.1924,1.1572,0.5313,1.5195c0.3379,0.3623,0.7598,0.543,1.2656,0.543c0.3438,0,0.6328-0.0938,0.8672-0.2813
			S248.1172,34.9268,248.2373,34.5098z M248.3623,32.2911c-0.0156-0.6357-0.1797-1.1182-0.4922-1.4492s-0.6934-0.4961-1.1406-0.4961
			c-0.4795,0-0.875,0.1748-1.1875,0.5234s-0.4668,0.8232-0.4609,1.4219H248.3623z"/>
		<path d="M257.753,40.3067v-4.1719c-0.2871,0.3701-0.6436,0.6631-1.0703,0.8789c-0.4277,0.2158-0.8887,0.3242-1.3828,0.3242
			c-0.9434,0-1.7188-0.3545-2.3281-1.0625c-0.7188-0.8281-1.0781-1.9502-1.0781-3.3672c0-1.333,0.3369-2.374,1.0117-3.1211
			c0.6738-0.7471,1.5117-1.1211,2.5117-1.1211c0.5518,0,1.0293,0.1172,1.4336,0.3516c0.4033,0.2344,0.7617,0.5889,1.0742,1.0625
			v-1.2266h2.0234v11.4531H257.753z M257.8233,32.9005c0-0.8486-0.1738-1.4805-0.5195-1.8945
			c-0.3467-0.4141-0.7803-0.6211-1.3008-0.6211c-0.5313,0-0.9756,0.2109-1.332,0.6328c-0.3574,0.4219-0.5352,1.0908-0.5352,2.0078
			c0,0.9111,0.1719,1.5693,0.5156,1.9727s0.7676,0.6055,1.2734,0.6055c0.5049,0,0.9473-0.2266,1.3281-0.6797
			C257.6328,34.4708,257.8233,33.796,257.8233,32.9005z"/>
		<path d="M267.5655,37.1505v-1.2422c-0.3027,0.4424-0.6992,0.792-1.1914,1.0469s-1.0117,0.3828-1.5586,0.3828
			c-0.5576,0-1.0576-0.1221-1.5-0.3672c-0.4434-0.2451-0.7637-0.5889-0.9609-1.0313c-0.1982-0.4424-0.2969-1.0547-0.2969-1.8359
			v-5.25h2.1953v3.8125c0,1.167,0.04,1.8818,0.1211,2.1445c0.0801,0.2627,0.2275,0.4717,0.4414,0.625
			c0.2129,0.1533,0.4844,0.2305,0.8125,0.2305c0.375,0,0.7109-0.1025,1.0078-0.3086s0.5-0.4609,0.6094-0.7656
			s0.1641-1.0508,0.1641-2.2383v-3.5h2.1953v8.2969H267.5655z"/>
		<path d="M276.6826,34.5098l2.1875,0.3672c-0.2813,0.8018-0.7256,1.4131-1.332,1.832c-0.6074,0.4189-1.3662,0.6289-2.2773,0.6289
			c-1.4434,0-2.5107-0.4717-3.2031-1.4141c-0.5469-0.7549-0.8203-1.708-0.8203-2.8594c0-1.375,0.3594-2.4522,1.0781-3.2305
			s1.627-1.168,2.7266-1.168c1.2344,0,2.208,0.4072,2.9219,1.2227c0.7129,0.8154,1.0547,2.0635,1.0234,3.7461h-5.5
			c0.0156,0.6514,0.1924,1.1572,0.5313,1.5195c0.3379,0.3623,0.7598,0.543,1.2656,0.543c0.3438,0,0.6328-0.0938,0.8672-0.2813
			S276.5625,34.9268,276.6826,34.5098z M276.8076,32.2911c-0.0156-0.6357-0.1797-1.1182-0.4922-1.4492s-0.6934-0.4961-1.1406-0.4961
			c-0.4795,0-0.875,0.1748-1.1875,0.5234s-0.4668,0.8232-0.4609,1.4219H276.8076z"/>
		<path d="M282.878,37.1505h-2.1953v-8.2969h2.0391v1.1797c0.3486-0.5576,0.6621-0.9248,0.9414-1.1016
			c0.2783-0.1768,0.5947-0.2656,0.9492-0.2656c0.5,0,0.9814,0.1377,1.4453,0.4141l-0.6797,1.9141
			c-0.3701-0.2393-0.7139-0.3594-1.0313-0.3594c-0.3076,0-0.5684,0.085-0.7813,0.2539c-0.2139,0.1689-0.3818,0.4756-0.5039,0.918
			c-0.123,0.4424-0.1836,1.3701-0.1836,2.7813V37.1505z"/>
		<path d="M287.003,27.7286v-2.0313h2.1953v2.0313H287.003z M287.003,37.1505v-8.2969h2.1953v8.2969H287.003z"/>
		<path d="M291.2842,28.8536h2.0234v1.1328c0.7236-0.8799,1.5859-1.3203,2.5859-1.3203c0.5313,0,0.9922,0.1094,1.3828,0.3281
			s0.7109,0.5498,0.9609,0.9922c0.3643-0.4424,0.7578-0.7734,1.1797-0.9922s0.8721-0.3281,1.3516-0.3281
			c0.6094,0,1.125,0.124,1.5469,0.3711s0.7363,0.6104,0.9453,1.0898c0.1504,0.3545,0.2266,0.9268,0.2266,1.7188v5.3047h-2.1953
			v-4.7422c0-0.8232-0.0762-1.3545-0.2266-1.5938c-0.2031-0.3125-0.5156-0.4688-0.9375-0.4688
			c-0.3076,0-0.5967,0.0938-0.8672,0.2813c-0.2715,0.1875-0.4668,0.4619-0.5859,0.8242c-0.1201,0.3623-0.1797,0.9336-0.1797,1.7148
			v3.9844h-2.1953v-4.5469c0-0.8076-0.0391-1.3281-0.1172-1.5625s-0.1992-0.4092-0.3633-0.5234s-0.3867-0.1719-0.668-0.1719
			c-0.3389,0-0.6436,0.0908-0.9141,0.2734c-0.2715,0.1826-0.4648,0.4453-0.582,0.7891s-0.1758,0.9141-0.1758,1.7109v4.0313h-2.1953
			V28.8536z"/>
		<path d="M305.6748,27.7286v-2.0313h2.1953v2.0313H305.6748z M305.6748,37.1505v-8.2969h2.1953v8.2969H305.6748z"/>
		<path d="M314.9248,34.5098l2.1875,0.3672c-0.2813,0.8018-0.7256,1.4131-1.332,1.832c-0.6074,0.4189-1.3662,0.6289-2.2773,0.6289
			c-1.4434,0-2.5107-0.4717-3.2031-1.4141c-0.5469-0.7549-0.8203-1.708-0.8203-2.8594c0-1.375,0.3594-2.4522,1.0781-3.2305
			s1.627-1.168,2.7266-1.168c1.2344,0,2.208,0.4072,2.9219,1.2227c0.7129,0.8154,1.0547,2.0635,1.0234,3.7461h-5.5
			c0.0156,0.6514,0.1924,1.1572,0.5313,1.5195c0.3379,0.3623,0.7598,0.543,1.2656,0.543c0.3438,0,0.6328-0.0938,0.8672-0.2813
			S314.8047,34.9268,314.9248,34.5098z M315.0498,32.2911c-0.0156-0.6357-0.1797-1.1182-0.4922-1.4492s-0.6934-0.4961-1.1406-0.4961
			c-0.4795,0-0.875,0.1748-1.1875,0.5234s-0.4668,0.8232-0.4609,1.4219H315.0498z"/>
		<path d="M326.5655,37.1505h-2.1953v-4.2344c0-0.8955-0.0469-1.4756-0.1406-1.7383s-0.2461-0.4678-0.457-0.6133
			s-0.4648-0.2188-0.7617-0.2188c-0.3809,0-0.7217,0.1045-1.0234,0.3125c-0.3027,0.208-0.5098,0.4844-0.6211,0.8281
			c-0.1123,0.3438-0.168,0.9795-0.168,1.9063v3.7578h-2.1953v-8.2969h2.0391v1.2188c0.7236-0.9375,1.6348-1.4063,2.7344-1.4063
			c0.4844,0,0.9268,0.0869,1.3281,0.2617c0.4004,0.1748,0.7041,0.3975,0.9102,0.668c0.2051,0.2705,0.3486,0.5781,0.4297,0.9219
			c0.0801,0.3438,0.1211,0.8359,0.1211,1.4766V37.1505z"/>
		<path d="M332.5967,28.8536v1.75h-1.5v3.3438c0,0.6768,0.0137,1.0713,0.043,1.1836c0.0283,0.1123,0.0938,0.2041,0.1953,0.2773
			s0.2246,0.1094,0.3711,0.1094c0.2031,0,0.4971-0.0703,0.8828-0.2109l0.1875,1.7031c-0.5107,0.2188-1.0889,0.3281-1.7344,0.3281
			c-0.3965,0-0.7529-0.0664-1.0703-0.1992c-0.3184-0.1328-0.5508-0.3047-0.6992-0.5156s-0.252-0.4961-0.3086-0.8555
			c-0.0469-0.2549-0.0703-0.7705-0.0703-1.5469v-3.6172h-1.0078v-1.75h1.0078v-1.6484l2.2031-1.2813v2.9297H332.5967z"/>
		<path d="M333.6123,32.8848c0-0.7295,0.1797-1.4346,0.5391-2.1172s0.8682-1.2031,1.5273-1.5625
			c0.6582-0.3594,1.3945-0.5391,2.207-0.5391c1.2549,0,2.2832,0.4072,3.0859,1.2227c0.8018,0.8154,1.2031,1.8447,1.2031,3.0898
			c0,1.2549-0.4053,2.2959-1.2148,3.1211c-0.8105,0.8252-1.8301,1.2383-3.0586,1.2383c-0.7607,0-1.4863-0.1719-2.1758-0.5156
			c-0.6904-0.3438-1.2148-0.8477-1.5742-1.5117S333.6123,33.838,333.6123,32.8848z M335.8623,33.002
			c0,0.8232,0.1953,1.4531,0.5859,1.8906s0.8721,0.6563,1.4453,0.6563c0.5723,0,1.0527-0.2188,1.4414-0.6563
			c0.3877-0.4375,0.582-1.0732,0.582-1.9063c0-0.8125-0.1943-1.4375-0.582-1.875c-0.3887-0.4375-0.8691-0.6563-1.4414-0.6563
			c-0.5732,0-1.0547,0.2188-1.4453,0.6563S335.8623,32.1788,335.8623,33.002z"/>
		<path d="M343.1201,34.7833l2.2031-0.3359c0.0938,0.4268,0.2832,0.751,0.5703,0.9727c0.2861,0.2217,0.6875,0.332,1.2031,0.332
			c0.5674,0,0.9941-0.1045,1.2813-0.3125c0.1924-0.1455,0.2891-0.3408,0.2891-0.5859c0-0.167-0.0527-0.3047-0.1563-0.4141
			c-0.1094-0.1045-0.3545-0.2002-0.7344-0.2891c-1.7715-0.3906-2.8936-0.7471-3.3672-1.0703
			c-0.6563-0.4482-0.9844-1.0703-0.9844-1.8672c0-0.7188,0.2832-1.3232,0.8516-1.8125c0.5674-0.4893,1.4473-0.7344,2.6406-0.7344
			c1.1348,0,1.9785,0.1846,2.5313,0.5547c0.5518,0.3701,0.9316,0.917,1.1406,1.6406l-2.0703,0.3828
			c-0.0889-0.3232-0.2568-0.5703-0.5039-0.7422c-0.248-0.1719-0.6006-0.2578-1.0586-0.2578c-0.5781,0-0.9922,0.0811-1.2422,0.2422
			c-0.167,0.1143-0.25,0.2627-0.25,0.4453c0,0.1563,0.0723,0.2891,0.2188,0.3984c0.1973,0.1455,0.8809,0.3516,2.0508,0.6172
			c1.1689,0.2656,1.9854,0.5908,2.4492,0.9766c0.458,0.3906,0.6875,0.9346,0.6875,1.6328c0,0.7607-0.3184,1.4141-0.9531,1.9609
			c-0.6357,0.5469-1.5762,0.8203-2.8203,0.8203c-1.1309,0-2.0254-0.2295-2.6836-0.6875
			C343.7539,36.1925,343.3233,35.5694,343.1201,34.7833z"/>
	</g>
</g>
</svg>
