<?xml version="1.0" encoding="utf-8"?>
<!-- Generator: Adobe Illustrator 21.0.0, SVG Export Plug-In . SVG Version: 6.00 Build 0)  -->
<svg version="1.1" id="Capa_1" xmlns="http://www.w3.org/2000/svg" xmlns:xlink="http://www.w3.org/1999/xlink" x="0px" y="0px"
	 viewBox="0 0 481.874 72.4844" style="enable-background:new 0 0 481.874 72.4844;" xml:space="preserve">
<g>
	<g>
		<polygon style="opacity:0.35;fill:#D1D3D2;" points="48.4062,7.1856 5.9057,7.1856 5.9057,29.8467 5.9057,72.4844 
			481.874,72.4844 481.874,29.8467 481.874,7.1856 		"/>
		<g>
			<rect style="fill:#2D70BA;" width="475.1772" height="65.7168"/>
			<g>
				<path style="fill:#5A9AEF;" d="M449.5161,58.8731H41.4077c-18.8335,0-34.1011-15.2676-34.1011-34.1006v-3.3623
					C7.3066,13.4522,13.7583,7,21.7173,7h408.1084c18.8335,0,34.101,15.2676,34.101,34.1016v3.3613
					C463.9267,52.4219,457.4751,58.8731,449.5161,58.8731z"/>
			</g>
		</g>
	</g>
	<g>
		<path d="M184.6358,32.9397l2.2422,0.7109c-0.3438,1.25-0.916,2.1787-1.7148,2.7852c-0.7998,0.6064-1.8145,0.9102-3.043,0.9102
			c-1.5215,0-2.7715-0.5195-3.75-1.5586c-0.9795-1.0391-1.4688-2.46-1.4688-4.2617c0-1.9063,0.4922-3.3867,1.4766-4.4414
			s2.2783-1.582,3.8828-1.582c1.4004,0,2.5391,0.4141,3.4141,1.2422c0.5205,0.4893,0.9111,1.1924,1.1719,2.1094l-2.2891,0.5469
			c-0.1357-0.5938-0.418-1.0625-0.8477-1.4063s-0.9521-0.5156-1.5664-0.5156c-0.8496,0-1.5381,0.3047-2.0664,0.9141
			c-0.5293,0.6094-0.793,1.5967-0.793,2.9609c0,1.4482,0.2598,2.4795,0.7813,3.0938c0.5205,0.6143,1.1973,0.9219,2.0313,0.9219
			c0.6143,0,1.1426-0.1953,1.5859-0.5859C184.1251,34.3928,184.4424,33.7785,184.6358,32.9397z"/>
		<path d="M190.4874,31.385l-1.9922-0.3594c0.2236-0.8018,0.6094-1.3955,1.1563-1.7813s1.3594-0.5781,2.4375-0.5781
			c0.9785,0,1.708,0.1162,2.1875,0.3477c0.4785,0.2314,0.8164,0.5264,1.0117,0.8828s0.293,1.0117,0.293,1.9648l-0.0234,2.5625
			c0,0.7295,0.0352,1.2666,0.1055,1.6133s0.2012,0.7178,0.3945,1.1133h-2.1719c-0.0576-0.1455-0.1279-0.3623-0.2109-0.6484
			c-0.0371-0.1299-0.0625-0.2158-0.0781-0.2578c-0.375,0.3643-0.7764,0.6377-1.2031,0.8203
			c-0.4277,0.1826-0.8828,0.2734-1.3672,0.2734c-0.8545,0-1.5273-0.2314-2.0195-0.6953s-0.7383-1.0498-0.7383-1.7578
			c0-0.4688,0.1113-0.8867,0.3359-1.2539c0.2236-0.3672,0.5371-0.6484,0.9414-0.8438c0.4033-0.1953,0.9854-0.3662,1.7461-0.5117
			c1.0254-0.1924,1.7363-0.3721,2.1328-0.5391v-0.2188c0-0.4219-0.1045-0.7227-0.3125-0.9023
			c-0.209-0.1797-0.6016-0.2695-1.1797-0.2695c-0.3906,0-0.6953,0.0771-0.9141,0.2305S190.6221,30.9992,190.4874,31.385z
			 M193.4249,33.1662c-0.2813,0.0938-0.7266,0.2061-1.3359,0.3359s-1.0078,0.2578-1.1953,0.3828
			c-0.2871,0.2031-0.4297,0.4609-0.4297,0.7734c0,0.3076,0.1143,0.5732,0.3438,0.7969c0.2285,0.2236,0.5205,0.3359,0.875,0.3359
			c0.3955,0,0.7734-0.1299,1.1328-0.3906c0.2656-0.1982,0.4395-0.4404,0.5234-0.7266c0.0566-0.1875,0.0859-0.5439,0.0859-1.0703
			V33.1662z"/>
		<path d="M197.7452,37.1506V25.6975h2.1953v11.4531H197.7452z"/>
		<path d="M202.1905,27.7287v-2.0313h2.1953v2.0313H202.1905z M202.1905,37.1506v-8.2969h2.1953v8.2969H202.1905z"/>
		<path d="M214.2452,37.1506h-2.0391v-1.2188c-0.3389,0.4736-0.7383,0.8271-1.1992,1.0586s-0.9258,0.3477-1.3945,0.3477
			c-0.9531,0-1.7695-0.3838-2.4492-1.1523s-1.0195-1.8398-1.0195-3.2148c0-1.4063,0.3301-2.4756,0.9922-3.207
			c0.6611-0.7314,1.4971-1.0977,2.5078-1.0977c0.9268,0,1.7285,0.3857,2.4063,1.1563v-4.125h2.1953V37.1506z M208.3858,32.8225
			c0,0.8857,0.1221,1.5264,0.3672,1.9219c0.3535,0.5732,0.8486,0.8594,1.4844,0.8594c0.5049,0,0.9346-0.2148,1.2891-0.6445
			c0.3535-0.4297,0.5313-1.0713,0.5313-1.9258c0-0.9531-0.1719-1.6396-0.5156-2.0586s-0.7842-0.6289-1.3203-0.6289
			c-0.5215,0-0.957,0.207-1.3086,0.6211S208.3858,31.9992,208.3858,32.8225z"/>
		<path d="M218.0499,31.385l-1.9922-0.3594c0.2236-0.8018,0.6094-1.3955,1.1563-1.7813s1.3594-0.5781,2.4375-0.5781
			c0.9785,0,1.708,0.1162,2.1875,0.3477c0.4785,0.2314,0.8164,0.5264,1.0117,0.8828s0.293,1.0117,0.293,1.9648l-0.0234,2.5625
			c0,0.7295,0.0352,1.2666,0.1055,1.6133s0.2012,0.7178,0.3945,1.1133h-2.1719c-0.0576-0.1455-0.1279-0.3623-0.2109-0.6484
			c-0.0371-0.1299-0.0625-0.2158-0.0781-0.2578c-0.375,0.3643-0.7764,0.6377-1.2031,0.8203
			c-0.4277,0.1826-0.8828,0.2734-1.3672,0.2734c-0.8545,0-1.5273-0.2314-2.0195-0.6953s-0.7383-1.0498-0.7383-1.7578
			c0-0.4688,0.1113-0.8867,0.3359-1.2539c0.2236-0.3672,0.5371-0.6484,0.9414-0.8438c0.4033-0.1953,0.9854-0.3662,1.7461-0.5117
			c1.0254-0.1924,1.7363-0.3721,2.1328-0.5391v-0.2188c0-0.4219-0.1045-0.7227-0.3125-0.9023
			c-0.209-0.1797-0.6016-0.2695-1.1797-0.2695c-0.3906,0-0.6953,0.0771-0.9141,0.2305S218.1846,30.9992,218.0499,31.385z
			 M220.9874,33.1662c-0.2813,0.0938-0.7266,0.2061-1.3359,0.3359s-1.0078,0.2578-1.1953,0.3828
			c-0.2871,0.2031-0.4297,0.4609-0.4297,0.7734c0,0.3076,0.1143,0.5732,0.3438,0.7969c0.2285,0.2236,0.5205,0.3359,0.875,0.3359
			c0.3955,0,0.7734-0.1299,1.1328-0.3906c0.2656-0.1982,0.4395-0.4404,0.5234-0.7266c0.0566-0.1875,0.0859-0.5439,0.0859-1.0703
			V33.1662z"/>
		<path d="M232.9171,37.1506h-2.0391v-1.2188c-0.3389,0.4736-0.7383,0.8271-1.1992,1.0586s-0.9258,0.3477-1.3945,0.3477
			c-0.9531,0-1.7695-0.3838-2.4492-1.1523s-1.0195-1.8398-1.0195-3.2148c0-1.4063,0.3301-2.4756,0.9922-3.207
			c0.6611-0.7314,1.4971-1.0977,2.5078-1.0977c0.9268,0,1.7285,0.3857,2.4063,1.1563v-4.125h2.1953V37.1506z M227.0577,32.8225
			c0,0.8857,0.1221,1.5264,0.3672,1.9219c0.3535,0.5732,0.8486,0.8594,1.4844,0.8594c0.5049,0,0.9346-0.2148,1.2891-0.6445
			c0.3535-0.4297,0.5313-1.0713,0.5313-1.9258c0-0.9531-0.1719-1.6396-0.5156-2.0586s-0.7842-0.6289-1.3203-0.6289
			c-0.5215,0-0.957,0.207-1.3086,0.6211S227.0577,31.9992,227.0577,32.8225z"/>
		<path d="M247.1358,37.1506h-2.0391v-1.2188c-0.3389,0.4736-0.7383,0.8271-1.1992,1.0586s-0.9258,0.3477-1.3945,0.3477
			c-0.9531,0-1.7695-0.3838-2.4492-1.1523s-1.0195-1.8398-1.0195-3.2148c0-1.4063,0.3301-2.4756,0.9922-3.207
			c0.6611-0.7314,1.4971-1.0977,2.5078-1.0977c0.9268,0,1.7285,0.3857,2.4063,1.1563v-4.125h2.1953V37.1506z M241.2764,32.8225
			c0,0.8857,0.1221,1.5264,0.3672,1.9219c0.3535,0.5732,0.8486,0.8594,1.4844,0.8594c0.5049,0,0.9346-0.2148,1.2891-0.6445
			c0.3535-0.4297,0.5313-1.0713,0.5313-1.9258c0-0.9531-0.1719-1.6396-0.5156-2.0586s-0.7842-0.6289-1.3203-0.6289
			c-0.5215,0-0.957,0.207-1.3086,0.6211S241.2764,31.9992,241.2764,32.8225z"/>
		<path d="M254.1046,34.51l2.1875,0.3672c-0.2813,0.8018-0.7256,1.4131-1.332,1.832c-0.6074,0.4189-1.3662,0.6289-2.2773,0.6289
			c-1.4434,0-2.5107-0.4717-3.2031-1.4141c-0.5469-0.7549-0.8203-1.708-0.8203-2.8594c0-1.375,0.3594-2.4521,1.0781-3.2305
			s1.627-1.168,2.7266-1.168c1.2344,0,2.208,0.4072,2.9219,1.2227c0.7129,0.8154,1.0547,2.0635,1.0234,3.7461h-5.5
			c0.0156,0.6514,0.1924,1.1572,0.5313,1.5195c0.3379,0.3623,0.7598,0.543,1.2656,0.543c0.3438,0,0.6328-0.0938,0.8672-0.2813
			S253.9844,34.927,254.1046,34.51z M254.2296,32.2912c-0.0156-0.6357-0.1797-1.1182-0.4922-1.4492s-0.6934-0.4961-1.1406-0.4961
			c-0.4795,0-0.875,0.1748-1.1875,0.5234s-0.4668,0.8232-0.4609,1.4219H254.2296z"/>
		<path d="M258.1983,37.1506V25.6975h2.1953v11.4531H258.1983z"/>
		<path d="M274.3233,31.3068l-2.1641,0.3906c-0.0732-0.4326-0.2383-0.7578-0.4961-0.9766s-0.5928-0.3281-1.0039-0.3281
			c-0.5469,0-0.9834,0.1885-1.3086,0.5664c-0.3262,0.3779-0.4883,1.0088-0.4883,1.8945c0,0.9844,0.165,1.6797,0.4961,2.0859
			c0.3301,0.4063,0.7744,0.6094,1.332,0.6094c0.416,0,0.7578-0.1182,1.0234-0.3555s0.4531-0.6445,0.5625-1.2227l2.1563,0.3672
			c-0.2246,0.9893-0.6543,1.7373-1.2891,2.2422c-0.6357,0.5049-1.4873,0.7578-2.5547,0.7578c-1.2139,0-2.1816-0.3828-2.9023-1.1484
			c-0.7217-0.7656-1.082-1.8252-1.082-3.1797c0-1.3701,0.3613-2.4365,1.0859-3.1992c0.7236-0.7627,1.7031-1.1445,2.9375-1.1445
			c1.0098,0,1.8135,0.2178,2.4102,0.6523C273.6339,29.7531,274.0626,30.4162,274.3233,31.3068z"/>
		<path d="M275.4796,32.885c0-0.7295,0.1797-1.4346,0.5391-2.1172s0.8682-1.2031,1.5273-1.5625
			c0.6582-0.3594,1.3945-0.5391,2.207-0.5391c1.2549,0,2.2832,0.4072,3.0859,1.2227c0.8018,0.8154,1.2031,1.8447,1.2031,3.0898
			c0,1.2549-0.4053,2.2959-1.2148,3.1211c-0.8105,0.8252-1.8301,1.2383-3.0586,1.2383c-0.7607,0-1.4863-0.1719-2.1758-0.5156
			c-0.6904-0.3438-1.2148-0.8477-1.5742-1.5117S275.4796,33.8381,275.4796,32.885z M277.7296,33.0022
			c0,0.8232,0.1953,1.4531,0.5859,1.8906s0.8721,0.6563,1.4453,0.6563c0.5723,0,1.0527-0.2188,1.4414-0.6563
			c0.3877-0.4375,0.582-1.0732,0.582-1.9063c0-0.8125-0.1943-1.4375-0.582-1.875c-0.3887-0.4375-0.8691-0.6563-1.4414-0.6563
			c-0.5732,0-1.0547,0.2188-1.4453,0.6563S277.7296,32.1789,277.7296,33.0022z M278.6514,27.8381l1.0781-2.3359h2.4609
			l-2.1484,2.3359H278.6514z"/>
		<path d="M293.3702,37.1506h-2.0391v-1.2188c-0.3389,0.4736-0.7383,0.8271-1.1992,1.0586s-0.9258,0.3477-1.3945,0.3477
			c-0.9531,0-1.7695-0.3838-2.4492-1.1523s-1.0195-1.8398-1.0195-3.2148c0-1.4063,0.3301-2.4756,0.9922-3.207
			c0.6611-0.7314,1.4971-1.0977,2.5078-1.0977c0.9268,0,1.7285,0.3857,2.4063,1.1563v-4.125h2.1953V37.1506z M287.5108,32.8225
			c0,0.8857,0.1221,1.5264,0.3672,1.9219c0.3535,0.5732,0.8486,0.8594,1.4844,0.8594c0.5049,0,0.9346-0.2148,1.2891-0.6445
			c0.3535-0.4297,0.5313-1.0713,0.5313-1.9258c0-0.9531-0.1719-1.6396-0.5156-2.0586s-0.7842-0.6289-1.3203-0.6289
			c-0.5215,0-0.957,0.207-1.3086,0.6211S287.5108,31.9992,287.5108,32.8225z"/>
		<path d="M295.5342,27.7287v-2.0313h2.1953v2.0313H295.5342z M295.5342,37.1506v-8.2969h2.1953v8.2969H295.5342z"/>
		<path d="M299.7764,37.6975l2.5078,0.3047c0.041,0.292,0.1377,0.4922,0.2891,0.6016c0.208,0.1563,0.5361,0.2344,0.9844,0.2344
			c0.5723,0,1.002-0.0859,1.2891-0.2578c0.1924-0.1143,0.3379-0.2998,0.4375-0.5547c0.0674-0.1826,0.1016-0.5186,0.1016-1.0078
			v-1.2109c-0.6563,0.8955-1.4844,1.3438-2.4844,1.3438c-1.1152,0-1.998-0.4717-2.6484-1.4141
			c-0.5107-0.7451-0.7656-1.6719-0.7656-2.7813c0-1.3906,0.334-2.4531,1.0039-3.1875c0.6689-0.7344,1.501-1.1016,2.4961-1.1016
			c1.0254,0,1.8721,0.4502,2.5391,1.3516v-1.1641h2.0547v7.4453c0,0.9795-0.0811,1.7109-0.2422,2.1953
			c-0.1621,0.4844-0.3887,0.8643-0.6797,1.1406c-0.292,0.2764-0.6816,0.4922-1.168,0.6484
			c-0.4873,0.1563-1.1035,0.2344-1.8477,0.2344c-1.4063,0-2.4043-0.2412-2.9922-0.7227c-0.5889-0.4814-0.8828-1.0928-0.8828-1.832
			C299.7686,37.8899,299.7706,37.802,299.7764,37.6975z M301.7374,32.8303c0,0.8799,0.1699,1.5244,0.5117,1.9336
			c0.3408,0.4092,0.7617,0.6133,1.2617,0.6133c0.5361,0,0.9893-0.21,1.3594-0.6289c0.3691-0.4189,0.5547-1.04,0.5547-1.8633
			c0-0.8594-0.1777-1.4971-0.5313-1.9141c-0.3545-0.417-0.8027-0.625-1.3438-0.625c-0.5264,0-0.96,0.2041-1.3008,0.6133
			C301.9073,31.3684,301.7374,31.9914,301.7374,32.8303z"/>
		<path d="M309.2452,32.885c0-0.7295,0.1797-1.4346,0.5391-2.1172s0.8682-1.2031,1.5273-1.5625
			c0.6582-0.3594,1.3945-0.5391,2.207-0.5391c1.2549,0,2.2832,0.4072,3.0859,1.2227c0.8018,0.8154,1.2031,1.8447,1.2031,3.0898
			c0,1.2549-0.4053,2.2959-1.2148,3.1211c-0.8105,0.8252-1.8301,1.2383-3.0586,1.2383c-0.7607,0-1.4863-0.1719-2.1758-0.5156
			c-0.6904-0.3438-1.2148-0.8477-1.5742-1.5117S309.2452,33.8381,309.2452,32.885z M311.4952,33.0022
			c0,0.8232,0.1953,1.4531,0.5859,1.8906s0.8721,0.6563,1.4453,0.6563c0.5723,0,1.0527-0.2188,1.4414-0.6563
			c0.3877-0.4375,0.582-1.0732,0.582-1.9063c0-0.8125-0.1943-1.4375-0.582-1.875c-0.3887-0.4375-0.8691-0.6563-1.4414-0.6563
			c-0.5732,0-1.0547,0.2188-1.4453,0.6563S311.4952,32.1789,311.4952,33.0022z"/>
	</g>
</g>
</svg>
