<?xml version="1.0" encoding="utf-8"?>
<!-- Generator: Adobe Illustrator 21.0.0, SVG Export Plug-In . SVG Version: 6.00 Build 0)  -->
<svg version="1.1" id="Capa_1" xmlns="http://www.w3.org/2000/svg" xmlns:xlink="http://www.w3.org/1999/xlink" x="0px" y="0px"
	 viewBox="0 0 481.874 72.4844" style="enable-background:new 0 0 481.874 72.4844;" xml:space="preserve">
<g>
	<g>
		<polygon style="opacity:0.35;fill:#D1D3D2;" points="48.872,7.7119 6.3715,7.7119 6.3715,30.373 6.3715,73.0107 482.3398,73.0107 
			482.3398,30.373 482.3398,7.7119 		"/>
		<g>
			<rect x="0.4658" y="0.5263" style="fill:#0092B0;" width="475.1772" height="65.7168"/>
			<g>
				<path style="fill:#54EAB4;" d="M449.9819,59.3994H41.8735c-18.8335,0-34.1011-15.2676-34.1011-34.1006v-3.3623
					c0-7.958,6.4517-14.4102,14.4107-14.4102h408.1084c18.8335,0,34.101,15.2676,34.101,34.1016v3.3613
					C464.3925,52.9482,457.9409,59.3994,449.9819,59.3994z"/>
			</g>
		</g>
	</g>
	<g>
		<path d="M124.7735,37.677V26.2238h8.4922v1.9375h-6.1797v2.5391h5.75v1.9297h-5.75v3.1172h6.3984v1.9297H124.7735z"/>
		<path d="M134.4688,29.3801h1.2188v-0.625c0-0.6982,0.0742-1.2188,0.2227-1.5625s0.4219-0.624,0.8203-0.8398
			s0.9023-0.3242,1.5117-0.3242c0.625,0,1.2368,0.0938,1.8359,0.2813l-0.2969,1.5313c-0.3491-0.083-0.6851-0.125-1.0078-0.125
			c-0.3179,0-0.5459,0.0742-0.6836,0.2227c-0.1382,0.1484-0.207,0.4336-0.207,0.8555v0.5859h1.6406v1.7266h-1.6406v6.5703h-2.1953
			v-6.5703h-1.2188V29.3801z"/>
		<path d="M140.7579,28.2551v-2.0313h2.1953v2.0313H140.7579z M140.7579,37.677v-8.2969h2.1953v8.2969H140.7579z"/>
		<path d="M152.4376,31.8332l-2.1641,0.3906c-0.0732-0.4326-0.2383-0.7578-0.4961-0.9766s-0.5928-0.3281-1.0039-0.3281
			c-0.5469,0-0.9834,0.1885-1.3086,0.5664c-0.3257,0.3779-0.4883,1.0088-0.4883,1.8945c0,0.9844,0.165,1.6797,0.4961,2.0859
			c0.3306,0.4063,0.7744,0.6094,1.332,0.6094c0.4165,0,0.7578-0.1182,1.0234-0.3555s0.4531-0.6445,0.5625-1.2227l2.1563,0.3672
			c-0.2241,0.9893-0.6538,1.7373-1.2891,2.2422c-0.6357,0.5049-1.4873,0.7578-2.5547,0.7578c-1.2139,0-2.1812-0.3828-2.9023-1.1484
			c-0.7217-0.7656-1.082-1.8252-1.082-3.1797c0-1.3701,0.3618-2.4365,1.0859-3.1992c0.7236-0.7627,1.7031-1.1445,2.9375-1.1445
			c1.0103,0,1.8135,0.2178,2.4102,0.6523C151.7486,30.2795,152.1768,30.9426,152.4376,31.8332z"/>
		<path d="M155.7422,31.9113l-1.9922-0.3594c0.2236-0.8018,0.6094-1.3955,1.1563-1.7813s1.3594-0.5781,2.4375-0.5781
			c0.9785,0,1.708,0.1162,2.1875,0.3477c0.4785,0.2314,0.8164,0.5264,1.0117,0.8828s0.293,1.0117,0.293,1.9648l-0.0234,2.5625
			c0,0.7295,0.0352,1.2666,0.1055,1.6133s0.2012,0.7178,0.3945,1.1133h-2.1719c-0.0576-0.1455-0.1279-0.3623-0.2109-0.6484
			c-0.0371-0.1299-0.0625-0.2158-0.0781-0.2578c-0.375,0.3643-0.7764,0.6377-1.2031,0.8203
			c-0.4277,0.1826-0.8828,0.2734-1.3672,0.2734c-0.8545,0-1.5273-0.2314-2.0195-0.6953s-0.7383-1.0498-0.7383-1.7578
			c0-0.4688,0.1118-0.8867,0.3359-1.2539c0.2236-0.3672,0.5376-0.6484,0.9414-0.8438c0.4033-0.1953,0.9854-0.3662,1.7461-0.5117
			c1.0254-0.1924,1.7363-0.3721,2.1328-0.5391v-0.2188c0-0.4219-0.1045-0.7227-0.3125-0.9023
			c-0.209-0.1797-0.6016-0.2695-1.1797-0.2695c-0.3906,0-0.6953,0.0771-0.9141,0.2305S155.877,31.5256,155.7422,31.9113z
			 M158.6797,33.6926c-0.2813,0.0938-0.7266,0.2061-1.3359,0.3359s-1.0078,0.2578-1.1953,0.3828
			c-0.2871,0.2031-0.4297,0.4609-0.4297,0.7734c0,0.3076,0.1143,0.5732,0.3438,0.7969c0.2285,0.2236,0.5205,0.3359,0.875,0.3359
			c0.3955,0,0.7734-0.1299,1.1328-0.3906c0.2656-0.1982,0.4395-0.4404,0.5234-0.7266c0.0566-0.1875,0.0859-0.5439,0.0859-1.0703
			V33.6926z"/>
		<path d="M170.2344,31.8332l-2.1641,0.3906c-0.0732-0.4326-0.2383-0.7578-0.4961-0.9766s-0.5928-0.3281-1.0039-0.3281
			c-0.5469,0-0.9834,0.1885-1.3086,0.5664c-0.3262,0.3779-0.4883,1.0088-0.4883,1.8945c0,0.9844,0.165,1.6797,0.4961,2.0859
			c0.3301,0.4063,0.7744,0.6094,1.332,0.6094c0.416,0,0.7578-0.1182,1.0234-0.3555s0.4531-0.6445,0.5625-1.2227l2.1563,0.3672
			c-0.2246,0.9893-0.6543,1.7373-1.2891,2.2422c-0.6357,0.5049-1.4873,0.7578-2.5547,0.7578c-1.2139,0-2.1816-0.3828-2.9023-1.1484
			c-0.7217-0.7656-1.082-1.8252-1.082-3.1797c0-1.3701,0.3613-2.4365,1.0859-3.1992c0.7236-0.7627,1.7031-1.1445,2.9375-1.1445
			c1.0098,0,1.8135,0.2178,2.4102,0.6523C169.545,30.2795,169.9737,30.9426,170.2344,31.8332z"/>
		<path d="M171.8985,28.2551v-2.0313h2.1953v2.0313H171.8985z M171.8985,37.677v-8.2969h2.1953v8.2969H171.8985z"/>
		<path d="M177.9844,31.9113l-1.9922-0.3594c0.2236-0.8018,0.6094-1.3955,1.1563-1.7813s1.3594-0.5781,2.4375-0.5781
			c0.9785,0,1.708,0.1162,2.1875,0.3477c0.4785,0.2314,0.8164,0.5264,1.0117,0.8828s0.293,1.0117,0.293,1.9648l-0.0234,2.5625
			c0,0.7295,0.0352,1.2666,0.1055,1.6133s0.2012,0.7178,0.3945,1.1133h-2.1719c-0.0576-0.1455-0.1279-0.3623-0.2109-0.6484
			c-0.0371-0.1299-0.0625-0.2158-0.0781-0.2578c-0.375,0.3643-0.7764,0.6377-1.2031,0.8203
			c-0.4277,0.1826-0.8828,0.2734-1.3672,0.2734c-0.8545,0-1.5273-0.2314-2.0195-0.6953s-0.7383-1.0498-0.7383-1.7578
			c0-0.4688,0.1113-0.8867,0.3359-1.2539c0.2236-0.3672,0.5371-0.6484,0.9414-0.8438c0.4033-0.1953,0.9854-0.3662,1.7461-0.5117
			c1.0254-0.1924,1.7363-0.3721,2.1328-0.5391v-0.2188c0-0.4219-0.1045-0.7227-0.3125-0.9023
			c-0.209-0.1797-0.6016-0.2695-1.1797-0.2695c-0.3906,0-0.6953,0.0771-0.9141,0.2305S178.1192,31.5256,177.9844,31.9113z
			 M180.9219,33.6926c-0.2813,0.0938-0.7266,0.2061-1.3359,0.3359s-1.0078,0.2578-1.1953,0.3828
			c-0.2871,0.2031-0.4297,0.4609-0.4297,0.7734c0,0.3076,0.1143,0.5732,0.3438,0.7969c0.2285,0.2236,0.5205,0.3359,0.875,0.3359
			c0.3955,0,0.7734-0.1299,1.1328-0.3906c0.2656-0.1982,0.4395-0.4404,0.5234-0.7266c0.0566-0.1875,0.0859-0.5439,0.0859-1.0703
			V33.6926z"/>
		<path d="M197.2969,37.677h-2.0391v-1.2188c-0.3389,0.4736-0.7383,0.8271-1.1992,1.0586s-0.9258,0.3477-1.3945,0.3477
			c-0.9531,0-1.7695-0.3838-2.4492-1.1523s-1.0195-1.8398-1.0195-3.2148c0-1.4063,0.3301-2.4756,0.9922-3.207
			c0.6611-0.7314,1.4971-1.0977,2.5078-1.0977c0.9268,0,1.7285,0.3857,2.4063,1.1563v-4.125h2.1953V37.677z M191.4376,33.3488
			c0,0.8857,0.1221,1.5264,0.3672,1.9219c0.3535,0.5732,0.8486,0.8594,1.4844,0.8594c0.5049,0,0.9346-0.2148,1.2891-0.6445
			c0.3535-0.4297,0.5313-1.0713,0.5313-1.9258c0-0.9531-0.1719-1.6396-0.5156-2.0586s-0.7842-0.6289-1.3203-0.6289
			c-0.5215,0-0.957,0.207-1.3086,0.6211S191.4376,32.5256,191.4376,33.3488z"/>
		<path d="M204.2657,35.0363l2.1875,0.3672c-0.2813,0.8018-0.7256,1.4131-1.332,1.832c-0.6074,0.4189-1.3662,0.6289-2.2773,0.6289
			c-1.4434,0-2.5107-0.4717-3.2031-1.4141c-0.5469-0.7549-0.8203-1.708-0.8203-2.8594c0-1.375,0.3594-2.4521,1.0781-3.2305
			s1.627-1.168,2.7266-1.168c1.2344,0,2.208,0.4072,2.9219,1.2227c0.7129,0.8154,1.0547,2.0635,1.0234,3.7461h-5.5
			c0.0156,0.6514,0.1924,1.1572,0.5313,1.5195c0.3379,0.3623,0.7598,0.543,1.2656,0.543c0.3438,0,0.6328-0.0938,0.8672-0.2813
			S204.1456,35.4533,204.2657,35.0363z M204.3907,32.8176c-0.0156-0.6357-0.1797-1.1182-0.4922-1.4492s-0.6934-0.4961-1.1406-0.4961
			c-0.4795,0-0.875,0.1748-1.1875,0.5234s-0.4668,0.8232-0.4609,1.4219H204.3907z"/>
		<path d="M208.3594,37.677V26.2238h2.1953V37.677H208.3594z"/>
		<path d="M224.4844,31.8332l-2.1641,0.3906c-0.0732-0.4326-0.2383-0.7578-0.4961-0.9766s-0.5928-0.3281-1.0039-0.3281
			c-0.5469,0-0.9834,0.1885-1.3086,0.5664c-0.3262,0.3779-0.4883,1.0088-0.4883,1.8945c0,0.9844,0.165,1.6797,0.4961,2.0859
			c0.3301,0.4063,0.7744,0.6094,1.332,0.6094c0.416,0,0.7578-0.1182,1.0234-0.3555s0.4531-0.6445,0.5625-1.2227l2.1563,0.3672
			c-0.2246,0.9893-0.6543,1.7373-1.2891,2.2422c-0.6357,0.5049-1.4873,0.7578-2.5547,0.7578c-1.2139,0-2.1816-0.3828-2.9023-1.1484
			c-0.7217-0.7656-1.082-1.8252-1.082-3.1797c0-1.3701,0.3613-2.4365,1.0859-3.1992c0.7236-0.7627,1.7031-1.1445,2.9375-1.1445
			c1.0098,0,1.8135,0.2178,2.4102,0.6523C223.795,30.2795,224.2237,30.9426,224.4844,31.8332z"/>
		<path d="M225.6407,33.4113c0-0.7295,0.1797-1.4346,0.5391-2.1172s0.8682-1.2031,1.5273-1.5625
			c0.6582-0.3594,1.3945-0.5391,2.207-0.5391c1.2549,0,2.2832,0.4072,3.0859,1.2227c0.8018,0.8154,1.2031,1.8447,1.2031,3.0898
			c0,1.2549-0.4053,2.2959-1.2148,3.1211c-0.8105,0.8252-1.8301,1.2383-3.0586,1.2383c-0.7607,0-1.4863-0.1719-2.1758-0.5156
			c-0.6904-0.3438-1.2148-0.8477-1.5742-1.5117S225.6407,34.3645,225.6407,33.4113z M227.8907,33.5285
			c0,0.8232,0.1953,1.4531,0.5859,1.8906s0.8721,0.6563,1.4453,0.6563c0.5723,0,1.0527-0.2188,1.4414-0.6563
			c0.3877-0.4375,0.582-1.0732,0.582-1.9063c0-0.8125-0.1943-1.4375-0.582-1.875c-0.3887-0.4375-0.8691-0.6563-1.4414-0.6563
			c-0.5732,0-1.0547,0.2188-1.4453,0.6563S227.8907,32.7053,227.8907,33.5285z"/>
		<path d="M243.4688,37.677h-2.1953v-4.2344c0-0.8955-0.0469-1.4756-0.1406-1.7383s-0.2461-0.4678-0.457-0.6133
			s-0.4648-0.2188-0.7617-0.2188c-0.3809,0-0.7217,0.1045-1.0234,0.3125c-0.3027,0.208-0.5098,0.4844-0.6211,0.8281
			c-0.1123,0.3438-0.168,0.9795-0.168,1.9063v3.7578h-2.1953v-8.2969h2.0391v1.2188c0.7236-0.9375,1.6348-1.4063,2.7344-1.4063
			c0.4844,0,0.9268,0.0869,1.3281,0.2617c0.4004,0.1748,0.7041,0.3975,0.9102,0.668c0.2051,0.2705,0.3486,0.5781,0.4297,0.9219
			c0.0801,0.3438,0.1211,0.8359,0.1211,1.4766V37.677z"/>
		<path d="M249.5001,29.3801v1.75h-1.5v3.3438c0,0.6768,0.0137,1.0713,0.043,1.1836c0.0283,0.1123,0.0938,0.2041,0.1953,0.2773
			s0.2246,0.1094,0.3711,0.1094c0.2031,0,0.4971-0.0703,0.8828-0.2109l0.1875,1.7031c-0.5107,0.2188-1.0889,0.3281-1.7344,0.3281
			c-0.3965,0-0.7529-0.0664-1.0703-0.1992c-0.3184-0.1328-0.5508-0.3047-0.6992-0.5156s-0.252-0.4961-0.3086-0.8555
			c-0.0469-0.2549-0.0703-0.7705-0.0703-1.5469v-3.6172h-1.0078v-1.75h1.0078v-1.6484l2.2031-1.2813v2.9297H249.5001z"/>
		<path d="M253.1251,37.677h-2.1953v-8.2969h2.0391v1.1797c0.3486-0.5576,0.6621-0.9248,0.9414-1.1016
			c0.2783-0.1768,0.5947-0.2656,0.9492-0.2656c0.5,0,0.9814,0.1377,1.4453,0.4141l-0.6797,1.9141
			c-0.3701-0.2393-0.7139-0.3594-1.0313-0.3594c-0.3076,0-0.5684,0.085-0.7813,0.2539c-0.2139,0.1689-0.3818,0.4756-0.5039,0.918
			c-0.123,0.4424-0.1836,1.3701-0.1836,2.7813V37.677z"/>
		<path d="M256.7422,33.4113c0-0.7295,0.1797-1.4346,0.5391-2.1172s0.8682-1.2031,1.5273-1.5625
			c0.6582-0.3594,1.3945-0.5391,2.207-0.5391c1.2549,0,2.2832,0.4072,3.0859,1.2227c0.8018,0.8154,1.2031,1.8447,1.2031,3.0898
			c0,1.2549-0.4053,2.2959-1.2148,3.1211c-0.8105,0.8252-1.8301,1.2383-3.0586,1.2383c-0.7607,0-1.4863-0.1719-2.1758-0.5156
			c-0.6904-0.3438-1.2148-0.8477-1.5742-1.5117S256.7422,34.3645,256.7422,33.4113z M258.9922,33.5285
			c0,0.8232,0.1953,1.4531,0.5859,1.8906s0.8721,0.6563,1.4453,0.6563c0.5723,0,1.0527-0.2188,1.4414-0.6563
			c0.3877-0.4375,0.582-1.0732,0.582-1.9063c0-0.8125-0.1943-1.4375-0.582-1.875c-0.3887-0.4375-0.8691-0.6563-1.4414-0.6563
			c-0.5732,0-1.0547,0.2188-1.4453,0.6563S258.9922,32.7053,258.9922,33.5285z"/>
		<path d="M267.0235,37.677V26.2238h2.1953V37.677H267.0235z"/>
		<path d="M283.5235,37.677h-2.0391v-1.2188c-0.3389,0.4736-0.7383,0.8271-1.1992,1.0586s-0.9258,0.3477-1.3945,0.3477
			c-0.9531,0-1.7695-0.3838-2.4492-1.1523s-1.0195-1.8398-1.0195-3.2148c0-1.4063,0.3301-2.4756,0.9922-3.207
			c0.6611-0.7314,1.4971-1.0977,2.5078-1.0977c0.9268,0,1.7285,0.3857,2.4063,1.1563v-4.125h2.1953V37.677z M277.6641,33.3488
			c0,0.8857,0.1221,1.5264,0.3672,1.9219c0.3535,0.5732,0.8486,0.8594,1.4844,0.8594c0.5049,0,0.9346-0.2148,1.2891-0.6445
			c0.3535-0.4297,0.5313-1.0713,0.5313-1.9258c0-0.9531-0.1719-1.6396-0.5156-2.0586s-0.7842-0.6289-1.3203-0.6289
			c-0.5215,0-0.957,0.207-1.3086,0.6211S277.6641,32.5256,277.6641,33.3488z"/>
		<path d="M290.4922,35.0363l2.1875,0.3672c-0.2813,0.8018-0.7256,1.4131-1.332,1.832c-0.6074,0.4189-1.3662,0.6289-2.2773,0.6289
			c-1.4434,0-2.5107-0.4717-3.2031-1.4141c-0.5469-0.7549-0.8203-1.708-0.8203-2.8594c0-1.375,0.3594-2.4521,1.0781-3.2305
			s1.627-1.168,2.7266-1.168c1.2344,0,2.208,0.4072,2.9219,1.2227c0.7129,0.8154,1.0547,2.0635,1.0234,3.7461h-5.5
			c0.0156,0.6514,0.1924,1.1572,0.5313,1.5195c0.3379,0.3623,0.7598,0.543,1.2656,0.543c0.3438,0,0.6328-0.0938,0.8672-0.2813
			S290.3721,35.4533,290.4922,35.0363z M290.6172,32.8176c-0.0156-0.6357-0.1797-1.1182-0.4922-1.4492s-0.6934-0.4961-1.1406-0.4961
			c-0.4795,0-0.875,0.1748-1.1875,0.5234s-0.4668,0.8232-0.4609,1.4219H290.6172z"/>
		<path d="M306.2657,31.8332l-2.1641,0.3906c-0.0732-0.4326-0.2383-0.7578-0.4961-0.9766s-0.5928-0.3281-1.0039-0.3281
			c-0.5469,0-0.9834,0.1885-1.3086,0.5664c-0.3262,0.3779-0.4883,1.0088-0.4883,1.8945c0,0.9844,0.165,1.6797,0.4961,2.0859
			c0.3301,0.4063,0.7744,0.6094,1.332,0.6094c0.416,0,0.7578-0.1182,1.0234-0.3555s0.4531-0.6445,0.5625-1.2227l2.1563,0.3672
			c-0.2246,0.9893-0.6543,1.7373-1.2891,2.2422c-0.6357,0.5049-1.4873,0.7578-2.5547,0.7578c-1.2139,0-2.1816-0.3828-2.9023-1.1484
			c-0.7217-0.7656-1.082-1.8252-1.082-3.1797c0-1.3701,0.3613-2.4365,1.0859-3.1992c0.7236-0.7627,1.7031-1.1445,2.9375-1.1445
			c1.0098,0,1.8135,0.2178,2.4102,0.6523C305.5762,30.2795,306.0049,30.9426,306.2657,31.8332z"/>
		<path d="M309.5704,31.9113l-1.9922-0.3594c0.2236-0.8018,0.6094-1.3955,1.1563-1.7813s1.3594-0.5781,2.4375-0.5781
			c0.9785,0,1.708,0.1162,2.1875,0.3477c0.4785,0.2314,0.8164,0.5264,1.0117,0.8828s0.293,1.0117,0.293,1.9648l-0.0234,2.5625
			c0,0.7295,0.0352,1.2666,0.1055,1.6133s0.2012,0.7178,0.3945,1.1133h-2.1719c-0.0576-0.1455-0.1279-0.3623-0.2109-0.6484
			c-0.0371-0.1299-0.0625-0.2158-0.0781-0.2578c-0.375,0.3643-0.7764,0.6377-1.2031,0.8203
			c-0.4277,0.1826-0.8828,0.2734-1.3672,0.2734c-0.8545,0-1.5273-0.2314-2.0195-0.6953s-0.7383-1.0498-0.7383-1.7578
			c0-0.4688,0.1113-0.8867,0.3359-1.2539c0.2236-0.3672,0.5371-0.6484,0.9414-0.8438c0.4033-0.1953,0.9854-0.3662,1.7461-0.5117
			c1.0254-0.1924,1.7363-0.3721,2.1328-0.5391v-0.2188c0-0.4219-0.1045-0.7227-0.3125-0.9023
			c-0.209-0.1797-0.6016-0.2695-1.1797-0.2695c-0.3906,0-0.6953,0.0771-0.9141,0.2305S309.7051,31.5256,309.5704,31.9113z
			 M312.5079,33.6926c-0.2813,0.0938-0.7266,0.2061-1.3359,0.3359s-1.0078,0.2578-1.1953,0.3828
			c-0.2871,0.2031-0.4297,0.4609-0.4297,0.7734c0,0.3076,0.1143,0.5732,0.3438,0.7969c0.2285,0.2236,0.5205,0.3359,0.875,0.3359
			c0.3955,0,0.7734-0.1299,1.1328-0.3906c0.2656-0.1982,0.4395-0.4404,0.5234-0.7266c0.0566-0.1875,0.0859-0.5439,0.0859-1.0703
			V33.6926z"/>
		<path d="M316.8282,37.677V26.2238h2.1953V37.677H316.8282z"/>
		<path d="M321.2735,28.2551v-2.0313h2.1953v2.0313H321.2735z M321.2735,37.677v-8.2969h2.1953v8.2969H321.2735z"/>
		<path d="M333.3282,37.677h-2.0391v-1.2188c-0.3389,0.4736-0.7383,0.8271-1.1992,1.0586s-0.9258,0.3477-1.3945,0.3477
			c-0.9531,0-1.7695-0.3838-2.4492-1.1523s-1.0195-1.8398-1.0195-3.2148c0-1.4063,0.3301-2.4756,0.9922-3.207
			c0.6611-0.7314,1.4971-1.0977,2.5078-1.0977c0.9268,0,1.7285,0.3857,2.4063,1.1563v-4.125h2.1953V37.677z M327.4688,33.3488
			c0,0.8857,0.1221,1.5264,0.3672,1.9219c0.3535,0.5732,0.8486,0.8594,1.4844,0.8594c0.5049,0,0.9346-0.2148,1.2891-0.6445
			c0.3535-0.4297,0.5313-1.0713,0.5313-1.9258c0-0.9531-0.1719-1.6396-0.5156-2.0586s-0.7842-0.6289-1.3203-0.6289
			c-0.5215,0-0.957,0.207-1.3086,0.6211S327.4688,32.5256,327.4688,33.3488z"/>
		<path d="M337.1329,31.9113l-1.9922-0.3594c0.2236-0.8018,0.6094-1.3955,1.1563-1.7813s1.3594-0.5781,2.4375-0.5781
			c0.9785,0,1.708,0.1162,2.1875,0.3477c0.4785,0.2314,0.8164,0.5264,1.0117,0.8828s0.293,1.0117,0.293,1.9648l-0.0234,2.5625
			c0,0.7295,0.0352,1.2666,0.1055,1.6133s0.2012,0.7178,0.3945,1.1133h-2.1719c-0.0576-0.1455-0.1279-0.3623-0.2109-0.6484
			c-0.0371-0.1299-0.0625-0.2158-0.0781-0.2578c-0.375,0.3643-0.7764,0.6377-1.2031,0.8203
			c-0.4277,0.1826-0.8828,0.2734-1.3672,0.2734c-0.8545,0-1.5273-0.2314-2.0195-0.6953s-0.7383-1.0498-0.7383-1.7578
			c0-0.4688,0.1113-0.8867,0.3359-1.2539c0.2236-0.3672,0.5371-0.6484,0.9414-0.8438c0.4033-0.1953,0.9854-0.3662,1.7461-0.5117
			c1.0254-0.1924,1.7363-0.3721,2.1328-0.5391v-0.2188c0-0.4219-0.1045-0.7227-0.3125-0.9023
			c-0.209-0.1797-0.6016-0.2695-1.1797-0.2695c-0.3906,0-0.6953,0.0771-0.9141,0.2305S337.2676,31.5256,337.1329,31.9113z
			 M340.0704,33.6926c-0.2813,0.0938-0.7266,0.2061-1.3359,0.3359s-1.0078,0.2578-1.1953,0.3828
			c-0.2871,0.2031-0.4297,0.4609-0.4297,0.7734c0,0.3076,0.1143,0.5732,0.3438,0.7969c0.2285,0.2236,0.5205,0.3359,0.875,0.3359
			c0.3955,0,0.7734-0.1299,1.1328-0.3906c0.2656-0.1982,0.4395-0.4404,0.5234-0.7266c0.0566-0.1875,0.0859-0.5439,0.0859-1.0703
			V33.6926z"/>
		<path d="M352.0001,37.677h-2.0391v-1.2188c-0.3389,0.4736-0.7383,0.8271-1.1992,1.0586s-0.9258,0.3477-1.3945,0.3477
			c-0.9531,0-1.7695-0.3838-2.4492-1.1523s-1.0195-1.8398-1.0195-3.2148c0-1.4063,0.3301-2.4756,0.9922-3.207
			c0.6611-0.7314,1.4971-1.0977,2.5078-1.0977c0.9268,0,1.7285,0.3857,2.4063,1.1563v-4.125h2.1953V37.677z M346.1407,33.3488
			c0,0.8857,0.1221,1.5264,0.3672,1.9219c0.3535,0.5732,0.8486,0.8594,1.4844,0.8594c0.5049,0,0.9346-0.2148,1.2891-0.6445
			c0.3535-0.4297,0.5313-1.0713,0.5313-1.9258c0-0.9531-0.1719-1.6396-0.5156-2.0586s-0.7842-0.6289-1.3203-0.6289
			c-0.5215,0-0.957,0.207-1.3086,0.6211S346.1407,32.5256,346.1407,33.3488z"/>
	</g>
</g>
</svg>
