<?xml version="1.0" encoding="utf-8"?>
<!-- Generator: Adobe Illustrator 21.0.0, SVG Export Plug-In . SVG Version: 6.00 Build 0)  -->
<svg version="1.1" id="Capa_1" xmlns="http://www.w3.org/2000/svg" xmlns:xlink="http://www.w3.org/1999/xlink" x="0px" y="0px"
	 viewBox="0 0 226.9 67.2" style="enable-background:new 0 0 226.9 67.2;" xml:space="preserve">
<g id="XMLID_510_">
	<g id="XMLID_21_">
		<g id="XMLID_22_">
			<polygon style="fill:#FFFFFF;" points="186.1,58.7 207.7,33.6 186.1,8.5 203.9,8.5 225.6,33.6 203.9,58.7 			"/>
			<path style="fill:#FFFFFF;" d="M204.4,7.5h-20.5l22.5,26.1l-22.5,26.1h20.5l22.5-26.1L204.4,7.5L204.4,7.5z"/>
		</g>
	</g>
</g>
<g id="XMLID_515_">
	<g id="XMLID_18_">
		<g id="XMLID_19_">
			<polygon style="fill:#FFFFFF;" points="23,58.7 1.3,33.6 23,8.5 40.8,8.5 19.2,33.6 40.8,58.7 			"/>
			<path style="fill:#FFFFFF;" d="M43,7.5H22.5L0,33.6l22.5,26.1H43L20.5,33.6L43,7.5L43,7.5z"/>
		</g>
	</g>
</g>
<g id="XMLID_517_">
	<polygon style="fill:#FFFFFF;" points="49.7,58.7 28,33.6 49.7,8.5 177.2,8.5 198.9,33.6 177.2,58.7 	"/>
	<path style="fill:#FFFFFF;" d="M177.7,7.5H49.2L26.7,33.6l22.5,26.1h128.5l22.5-26.1L177.7,7.5L177.7,7.5z"/>
</g>
<g id="XMLID_1_">
	<g>
		<path id="XMLID_120_" style="fill:#011C70;" d="M47.7,40.7V27.9h2.6v12.8H47.7z"/>
		<path id="XMLID_119_" style="fill:#011C70;" d="M52.5,40.7V27.9H55l5.2,8.5v-8.5h2.4v12.8H60l-5.2-8.3v8.3H52.5z"/>
		<path id="XMLID_118_" style="fill:#011C70;" d="M68,40.7V30.1h-3.8v-2.2h10.2v2.2h-3.8v10.6H68z"/>
		<path id="XMLID_117_" style="fill:#011C70;" d="M75.8,40.7V27.9h5.4c1.4,0,2.4,0.1,3,0.3c0.6,0.2,1.1,0.6,1.5,1.2s0.6,1.3,0.6,2
			c0,1-0.3,1.8-0.8,2.4c-0.6,0.6-1.4,1-2.5,1.2c0.6,0.3,1,0.7,1.4,1.1s0.9,1.1,1.5,2.1l1.6,2.5h-3.1l-1.9-2.8
			c-0.7-1-1.1-1.6-1.4-1.9s-0.5-0.4-0.8-0.5s-0.7-0.1-1.3-0.1h-0.5v5.3C78.5,40.7,75.8,40.7,75.8,40.7z M78.4,33.3h1.9
			c1.2,0,2-0.1,2.3-0.2s0.5-0.3,0.7-0.5s0.3-0.6,0.3-1s-0.1-0.8-0.3-1c-0.2-0.3-0.6-0.4-1-0.5c-0.2,0-0.8,0-1.9,0h-2V33.3z"/>
		<path id="XMLID_116_" style="fill:#011C70;" d="M87.9,34.4c0-1.3,0.2-2.4,0.6-3.3c0.3-0.7,0.7-1.2,1.2-1.8
			c0.5-0.5,1.1-0.9,1.7-1.2c0.8-0.3,1.7-0.5,2.8-0.5c1.9,0,3.4,0.6,4.5,1.8c1.1,1.2,1.7,2.8,1.7,4.9s-0.6,3.7-1.7,4.8
			s-2.6,1.7-4.5,1.7s-3.4-0.6-4.5-1.7S87.9,36.4,87.9,34.4z M90.5,34.3c0,1.4,0.3,2.5,1,3.3c0.7,0.7,1.5,1.1,2.5,1.1
			s1.9-0.4,2.5-1.1c0.7-0.7,1-1.9,1-3.3c0-1.5-0.3-2.6-1-3.3c-0.6-0.7-1.5-1.1-2.6-1.1S92,30.3,91.3,31
			C90.9,31.7,90.5,32.8,90.5,34.3z"/>
		<path id="XMLID_115_" style="fill:#011C70;" d="M102,27.9h4.7c1.1,0,1.9,0.1,2.4,0.2c0.8,0.2,1.4,0.6,1.9,1.2s0.9,1.3,1.2,2.1
			c0.3,0.8,0.4,1.8,0.4,3c0,1.1-0.1,2-0.4,2.7c-0.3,0.9-0.8,1.7-1.4,2.3c-0.4,0.4-1.1,0.8-1.8,1c-0.6,0.2-1.3,0.3-2.3,0.3H102V27.9z
			 M104.6,30.1v8.5h1.9c0.7,0,1.2,0,1.6-0.1s0.8-0.3,1-0.5c0.3-0.3,0.5-0.7,0.7-1.2c0.2-0.6,0.3-1.4,0.3-2.3c0-1-0.1-1.7-0.3-2.3
			c-0.2-0.5-0.4-0.9-0.7-1.2c-0.3-0.3-0.7-0.5-1.2-0.6c-0.4-0.1-1.1-0.1-2.1-0.1h-1.2C104.6,30.3,104.6,30.1,104.6,30.1z"/>
		<path id="XMLID_114_" style="fill:#011C70;" d="M114.7,27.9h2.6v6.9c0,1.1,0,1.8,0.1,2.1c0.1,0.5,0.4,0.9,0.8,1.3
			c0.4,0.3,1,0.5,1.7,0.5s1.3-0.1,1.7-0.4c0.4-0.3,0.6-0.7,0.7-1.1s0.1-1.2,0.1-2.2v-7.1h2.6v6.7c0,1.5-0.1,2.6-0.2,3.3
			s-0.4,1.2-0.8,1.6s-0.9,0.8-1.5,1s-1.4,0.4-2.5,0.4c-1.2,0-2.1-0.1-2.8-0.4c-0.7-0.3-1.1-0.6-1.5-1.1s-0.6-0.9-0.7-1.4
			c-0.2-0.7-0.3-1.8-0.3-3.2L114.7,27.9L114.7,27.9z"/>
		<path id="XMLID_113_" style="fill:#011C70;" d="M135.5,36l2.5,0.8c-0.4,1.4-1,2.4-1.9,3.1c-0.9,0.7-2,1-3.4,1
			c-1.7,0-3.1-0.6-4.2-1.7c-1.1-1.2-1.6-2.7-1.6-4.8s0.5-3.8,1.6-5c1.1-1.2,2.5-1.8,4.3-1.8c1.6,0,2.8,0.5,3.8,1.4
			c0.6,0.5,1,1.3,1.3,2.4l-2.6,0.6c-0.2-0.7-0.5-1.2-0.9-1.6c-0.5-0.4-1.1-0.6-1.8-0.6c-0.9,0-1.7,0.3-2.3,1s-0.9,1.8-0.9,3.3
			c0,1.6,0.3,2.8,0.9,3.5c0.6,0.7,1.3,1,2.3,1c0.7,0,1.3-0.2,1.8-0.7C134.9,37.6,135.3,36.9,135.5,36z"/>
		<path id="XMLID_112_" style="fill:#011C70;" d="M148.1,36l2.5,0.8c-0.4,1.4-1,2.4-1.9,3.1s-2,1-3.4,1c-1.7,0-3.1-0.6-4.2-1.7
			c-1.1-1.2-1.6-2.7-1.6-4.8s0.5-3.8,1.6-5s2.5-1.8,4.3-1.8c1.6,0,2.8,0.5,3.8,1.4c0.6,0.5,1,1.3,1.3,2.4L148,32
			c-0.2-0.7-0.5-1.2-0.9-1.6c-0.5-0.4-1.1-0.6-1.8-0.6c-0.9,0-1.7,0.3-2.3,1s-0.9,1.8-0.9,3.3c0,1.6,0.3,2.8,0.9,3.5
			c0.6,0.7,1.3,1,2.3,1c0.7,0,1.3-0.2,1.8-0.7C147.6,37.6,147.9,36.9,148.1,36z"/>
		<path id="XMLID_111_" style="fill:#011C70;" d="M152.5,40.7V27.9h2.6v12.8H152.5z"/>
		<path id="XMLID_110_" style="fill:#011C70;" d="M156.7,34.4c0-1.3,0.2-2.4,0.6-3.3c0.3-0.7,0.7-1.2,1.2-1.8s1.1-0.9,1.7-1.2
			c0.8-0.3,1.7-0.5,2.8-0.5c1.9,0,3.4,0.6,4.5,1.8c1.1,1.2,1.7,2.8,1.7,4.9s-0.6,3.7-1.7,4.8c-1.1,1.2-2.6,1.7-4.5,1.7
			s-3.4-0.6-4.5-1.7S156.7,36.4,156.7,34.4z M159.4,34.3c0,1.4,0.3,2.5,1,3.3c0.7,0.7,1.5,1.1,2.5,1.1s1.9-0.4,2.5-1.1
			c0.7-0.7,1-1.9,1-3.3c0-1.5-0.3-2.6-1-3.3c-0.6-0.7-1.5-1.1-2.6-1.1s-1.9,0.4-2.6,1.1C159.7,31.7,159.4,32.8,159.4,34.3z
			 M161.4,27.2l1.2-2.6h2.7l-2.4,2.6H161.4z"/>
		<path id="XMLID_109_" style="fill:#011C70;" d="M170.9,40.7V27.9h2.5l5.2,8.5v-8.5h2.4v12.8h-2.6l-5.2-8.3v8.3H170.9z"/>
	</g>
</g>
</svg>
