<?xml version="1.0" encoding="utf-8"?>
<!-- Generator: Adobe Illustrator 21.0.0, SVG Export Plug-In . SVG Version: 6.00 Build 0)  -->
<svg version="1.1" id="Capa_1" xmlns="http://www.w3.org/2000/svg" xmlns:xlink="http://www.w3.org/1999/xlink" x="0px" y="0px"
	 viewBox="0 0 97.9903 97.9922" style="enable-background:new 0 0 97.9903 97.9922;" xml:space="preserve">
<g>
	<path style="fill:#D4145A;" d="M56.4459,94.9057c-4.1172,4.1133-10.7774,4.1172-14.8936,0L3.0805,56.4439
		c-4.1074-4.1162-4.1074-10.7812,0-14.8935L41.5522,3.0835c4.1162-4.1114,10.7764-4.1114,14.8936,0l38.4638,38.4668
		c4.1075,4.1123,4.1075,10.7773,0,14.8935L56.4459,94.9057z"/>
	<g>
		<path style="fill:#FFFFFF;" d="M91.147,48.9976c0,2.1875-0.8506,4.2442-2.3946,5.792l-33.9707,33.96
			c-1.5449,1.5459-3.6035,2.3984-5.7871,2.3984c-2.1885,0-4.2432-0.8515-5.7881-2.3984l-33.9638-33.96
			c-1.5469-1.5478-2.3975-3.6045-2.3975-5.792c0-2.1894,0.8506-4.2441,2.3975-5.7929L43.2066,9.2408
			c1.5449-1.5459,3.5996-2.3975,5.7881-2.3975c2.1875,0,4.2422,0.8516,5.7871,2.3975l33.9707,33.9639
			C90.2964,44.7534,91.147,46.8082,91.147,48.9976 M92.2594,48.9976c0-2.3828-0.9073-4.7617-2.7207-6.5781L55.5678,8.4546
			c-3.6298-3.6299-9.5175-3.6299-13.1474,0L8.4556,42.4194c-1.8144,1.8164-2.7216,4.1953-2.7216,6.5781
			c0,2.3809,0.9072,4.7608,2.7216,6.5781l33.9649,33.959c3.6299,3.6348,9.5176,3.6309,13.1474,0l33.9708-33.959
			C91.3521,53.7584,92.2594,51.3784,92.2594,48.9976L92.2594,48.9976z"/>
	</g>
</g>
<g>
	<path style="fill:#FFFFFF;stroke:#FFFFFF;stroke-width:1.0732;stroke-miterlimit:10;" d="M27.4304,67.7603v-3.2227h8.9609v-31.127
		l-8.9609,3.7725v-3.2227l8.9609-3.7725h3.3799v34.3496h8.9609v3.2227H27.4304z"/>
	<path style="fill:#FFFFFF;stroke:#FFFFFF;stroke-width:1.0732;stroke-miterlimit:10;" d="M60.0017,32.8862
		c-0.8389,0-1.6201,0.1572-2.3447,0.4717c-0.7256,0.3145-1.3584,0.7432-1.9004,1.2842c-0.541,0.541-0.9688,1.1748-1.2832,1.8994
		s-0.4717,1.5068-0.4717,2.3447v1.5195l-3.3799-0.5498v-0.9697c0-1.2744,0.2393-2.4717,0.7207-3.5889
		c0.4795-1.1182,1.1396-2.0967,1.9775-2.9346c0.8389-0.8389,1.8164-1.498,2.9346-1.9785s2.3145-0.7207,3.5898-0.7207h1.5986
		c1.2744,0,2.4756,0.2275,3.6025,0.6816c1.126,0.4541,2.1094,1.1094,2.9473,1.9648c0.8389,0.8555,1.498,1.8818,1.9785,3.0781
		c0.4805,1.1973,0.7207,2.5469,0.7207,4.0488c0,1.4844-0.2227,2.9785-0.6689,4.4805c-0.4453,1.502-1.0303,2.9775-1.7549,4.4277
		c-0.7256,1.4502-1.5547,2.8555-2.4893,4.2188c-0.9346,1.3623-1.8906,2.6455-2.8691,3.8516
		c-2.2881,2.8125-4.8828,5.5195-7.7813,8.1221h15.8252v3.2227H49.8093v-2.6729c3.2666-2.6895,6.1836-5.4756,8.751-8.3574
		c1.1006-1.2402,2.1748-2.5596,3.2227-3.957c1.0488-1.3975,1.9824-2.834,2.8037-4.3096c0.8213-1.4766,1.4805-2.9785,1.9785-4.5068
		s0.7471-3.0352,0.7471-4.5195c0-1.1006-0.167-2.0615-0.498-2.8828c-0.332-0.8203-0.7773-1.502-1.3369-2.043
		c-0.5586-0.542-1.2012-0.9473-1.9258-1.2188c-0.7246-0.2705-1.4795-0.4063-2.2656-0.4063H60.0017z"/>
</g>
</svg>
