<?xml version="1.0" encoding="utf-8"?>
<!-- Generator: Adobe Illustrator 21.0.0, SVG Export Plug-In . SVG Version: 6.00 Build 0)  -->
<svg version="1.1" id="Capa_1" xmlns="http://www.w3.org/2000/svg" xmlns:xlink="http://www.w3.org/1999/xlink" x="0px" y="0px"
	 viewBox="0 0 97.991 97.9922" style="enable-background:new 0 0 97.991 97.9922;" xml:space="preserve">
<g>
	<path style="fill:#93278F;" d="M56.4456,94.9057c-4.1163,4.1133-10.7764,4.1172-14.8936,0L3.0813,56.4439
		c-4.1084-4.1162-4.1084-10.7812,0-14.8935L41.552,3.0835c4.1172-4.1114,10.7773-4.1114,14.8936,0l38.4648,38.4668
		c4.1074,4.1123,4.1074,10.7773,0,14.8935L56.4456,94.9057z"/>
	<g>
		<path style="fill:#FFFFFF;" d="M91.1477,48.9976c0,2.1875-0.8506,4.2442-2.3945,5.792l-33.9707,33.96
			c-1.5459,1.5459-3.6035,2.3984-5.7881,2.3984c-2.1885,0-4.2422-0.8515-5.7881-2.3984l-33.9639-33.96
			c-1.5459-1.5478-2.3965-3.6045-2.3965-5.792c0-2.1894,0.8506-4.2441,2.3965-5.7929L43.2063,9.2408
			c1.5459-1.5459,3.5996-2.3975,5.7881-2.3975s4.2422,0.8516,5.7881,2.3975l33.9707,33.9639
			C90.2971,44.7534,91.1477,46.8082,91.1477,48.9976 M92.259,48.9976c0-2.3828-0.9072-4.7617-2.7197-6.5781L55.5686,8.4546
			c-3.6299-3.6299-9.5176-3.6299-13.1475,0L8.4563,42.4194c-1.8145,1.8164-2.7227,4.1953-2.7227,6.5781
			c0,2.3809,0.9082,4.7608,2.7227,6.5781l33.9648,33.959c3.6299,3.6348,9.5176,3.6309,13.1475,0l33.9707-33.959
			C91.3518,53.7584,92.259,51.3784,92.259,48.9976L92.259,48.9976z"/>
	</g>
</g>
<g>
	<path style="fill:#FFFFFF;stroke:#FFFFFF;stroke-width:1.0732;stroke-miterlimit:10;" d="M26.3311,68.7603v-3.2227h8.9609v-31.127
		l-8.9609,3.7725v-3.2227l8.9609-3.7725h3.3799v34.3496h8.9609v3.2227H26.3311z"/>
	<path style="fill:#FFFFFF;stroke:#FFFFFF;stroke-width:1.0732;stroke-miterlimit:10;" d="M69.6582,63.6509
		c-0.4805,1.1182-1.1396,2.0967-1.9785,2.9346c-0.8389,0.8389-1.8164,1.498-2.9346,1.9785s-2.3145,0.7207-3.5898,0.7207h-1.5977
		c-1.2754,0-2.4766-0.2402-3.6025-0.7207c-1.127-0.4805-2.1094-1.1396-2.9482-1.9785c-0.8379-0.8379-1.498-1.8164-1.9775-2.9346
		c-0.4814-1.1172-0.7207-2.3145-0.7207-3.5898V39.8862c0-1.2744,0.2393-2.4717,0.7207-3.5889
		c0.4795-1.1182,1.1396-2.0967,1.9775-2.9346c0.8389-0.8389,1.8213-1.498,2.9482-1.9785c1.126-0.4805,2.3271-0.7207,3.6025-0.7207
		h1.5977c1.2754,0,2.4717,0.2402,3.5898,0.7207s2.0957,1.1396,2.9346,1.9785c0.8389,0.8379,1.498,1.8164,1.9785,2.9346
		c0.4795,1.1172,0.7207,2.3145,0.7207,3.5889V60.061C70.379,61.3364,70.1377,62.5337,69.6582,63.6509z M66.9981,39.8862
		c0-0.8379-0.1572-1.6201-0.4707-2.3447c-0.3145-0.7246-0.7432-1.3584-1.2842-1.8994c-0.542-0.541-1.1748-0.9697-1.8994-1.2842
		c-0.7256-0.3145-1.5068-0.4717-2.3457-0.4717h-1.2832c-0.8389,0-1.6211,0.1572-2.3457,0.4717s-1.3623,0.7432-1.9121,1.2842
		c-0.5508,0.541-0.9824,1.1748-1.2969,1.8994s-0.4717,1.5068-0.4717,2.3447V60.061c0,0.8389,0.1572,1.6211,0.4717,2.3457
		s0.7461,1.3623,1.2969,1.9121c0.5498,0.5508,1.1875,0.9824,1.9121,1.2969s1.5068,0.4717,2.3457,0.4717h1.2832
		c0.8389,0,1.6201-0.1572,2.3457-0.4717c0.7246-0.3145,1.3574-0.7461,1.8994-1.2969c0.541-0.5498,0.9697-1.1875,1.2842-1.9121
		c0.3135-0.7246,0.4707-1.5068,0.4707-2.3457V39.8862z"/>
</g>
</svg>
