<?xml version="1.0" encoding="utf-8"?>
<!-- Generator: Adobe Illustrator 21.0.0, SVG Export Plug-In . SVG Version: 6.00 Build 0)  -->
<svg version="1.1" id="Capa_1" xmlns="http://www.w3.org/2000/svg" xmlns:xlink="http://www.w3.org/1999/xlink" x="0px" y="0px"
	 viewBox="0 0 97.9927 97.9939" style="enable-background:new 0 0 97.9927 97.9939;" xml:space="preserve">
<g>
	<path style="fill:#C1272D;" d="M56.4426,94.9097c-4.1162,4.1123-10.7852,4.1123-14.8936,0L3.0872,56.4429
		c-4.1162-4.1123-4.1162-10.7812,0-14.8935L41.549,3.0865c4.1084-4.1153,10.7774-4.1153,14.8936,0l38.4629,38.4629
		c4.1162,4.1123,4.1162,10.7812,0,14.8935L56.4426,94.9097z"/>
	<path style="fill:#FFFFFF;" d="M91.1497,48.9966c0,2.1875-0.8515,4.2442-2.3965,5.793L54.7795,88.7525
		c-1.5449,1.5488-3.6035,2.3994-5.792,2.3965c-2.1836-0.002-4.2344-0.8526-5.7754-2.3965L9.2395,54.7896
		c-1.5459-1.5488-2.3965-3.6055-2.3965-5.793c0-2.1865,0.8506-4.2422,2.3965-5.7881L43.2122,9.2398
		c1.541-1.544,3.5957-2.3945,5.7793-2.3945c2.1895,0,4.2432,0.8505,5.7881,2.3945l33.9736,33.9687
		C90.2981,44.7544,91.1497,46.8101,91.1497,48.9966 M92.261,48.9966c0-2.3789-0.9073-4.7597-2.7227-6.5742L55.5657,8.4537
		c-3.6298-3.625-9.5175-3.625-13.1386,0L8.4544,42.4224c-1.8154,1.8145-2.7226,4.1953-2.7226,6.5742
		c0,2.3809,0.9072,4.7608,2.7226,6.5782l33.9727,33.9638c3.6211,3.6299,9.5088,3.6299,13.1386,0l33.9727-33.9638
		C91.3538,53.7574,92.261,51.3775,92.261,48.9966L92.261,48.9966z"/>
</g>
<g>
	<path style="fill:#FFFFFF;stroke:#FFFFFF;stroke-width:1.0732;stroke-miterlimit:10;" d="M37.0999,63.4146v-3.2227h8.9609V29.065
		l-8.9609,3.7725v-3.2227l8.9609-3.7725h3.3799v34.3496h8.9609v3.2227H37.0999z"/>
</g>
</svg>
