<?xml version="1.0" encoding="utf-8"?>
<!-- Generator: Adobe Illustrator 21.0.0, SVG Export Plug-In . SVG Version: 6.00 Build 0)  -->
<svg version="1.1" id="Capa_1" xmlns="http://www.w3.org/2000/svg" xmlns:xlink="http://www.w3.org/1999/xlink" x="0px" y="0px"
	 viewBox="0 0 97.9892 97.9865" style="enable-background:new 0 0 97.9892 97.9865;" xml:space="preserve">
<g>
	<path style="fill:#9E005D;" d="M56.4389,94.9037c-4.1123,4.1084-10.7774,4.1123-14.8887,0L3.0805,56.438
		c-4.1074-4.1094-4.1074-10.7822,0-14.8906L41.5503,3.0805c4.1113-4.1074,10.7764-4.1074,14.8887,0l38.4668,38.4668
		c4.1113,4.1084,4.1113,10.7812,0,14.8906L56.4389,94.9037z"/>
	<g style="opacity:0.9;">
		<path style="fill:#FFFFFF;" d="M91.145,48.9926c0,2.1875-0.8505,4.2441-2.3964,5.79l-33.9688,33.96
			c-1.5459,1.5469-3.5996,2.4004-5.7832,2.4004c-2.1885,0.0029-4.2451-0.8506-5.793-2.4004l-33.9619-33.96
			c-1.5449-1.5459-2.3965-3.6025-2.3965-5.79c0-2.1865,0.8516-4.2422,2.3965-5.7861L43.2035,9.2427
			c1.5479-1.5478,3.6045-2.3984,5.791-2.3984c2.1836,0,4.2393,0.8506,5.7852,2.3984l33.9688,33.9639
			C90.2944,44.7505,91.145,46.8061,91.145,48.9926 M92.2563,48.9926c0-2.3789-0.9073-4.7588-2.7217-6.5723L55.5658,8.4565
			c-3.6298-3.6338-9.5136-3.6338-13.1474,0L8.4565,42.4203c-1.8155,1.8135-2.7227,4.1934-2.7227,6.5723
			c0,2.3789,0.9072,4.7617,2.7227,6.5762l33.9619,33.959c3.6338,3.6386,9.5215,3.6347,13.1474,0l33.9688-33.959
			C91.3491,53.7543,92.2563,51.3716,92.2563,48.9926L92.2563,48.9926z"/>
	</g>
</g>
<g>
	<path style="fill:#FFFFFF;stroke:#FFFFFF;stroke-width:1.0732;stroke-miterlimit:10;" d="M28.4233,65.8735v-3.2227h8.9609v-31.127
		l-8.9609,3.7725v-3.2227l8.9609-3.7725h3.3799v34.3496h8.9609v3.2227H28.4233z"/>
	<path style="fill:#FFFFFF;stroke:#FFFFFF;stroke-width:1.0732;stroke-miterlimit:10;" d="M50.8042,65.8735v-3.2227h8.9609v-31.127
		l-8.9609,3.7725v-3.2227l8.9609-3.7725h3.3799v34.3496h8.9609v3.2227H50.8042z"/>
</g>
</svg>
