<?xml version="1.0" encoding="utf-8"?>
<!-- Generator: Adobe Illustrator 21.0.0, SVG Export Plug-In . SVG Version: 6.00 Build 0)  -->
<svg version="1.1" id="Capa_1" xmlns="http://www.w3.org/2000/svg" xmlns:xlink="http://www.w3.org/1999/xlink" x="0px" y="0px"
	 viewBox="0 0 97.9927 97.9939" style="enable-background:new 0 0 97.9927 97.9939;" xml:space="preserve">
<g>
	<path style="fill:#F15A24;" d="M56.5673,95.0302c-4.1084,4.1075-10.7773,4.1114-14.8857,0L3.2109,56.5634
		c-4.1074-4.1132-4.1074-10.7773,0-14.8896L41.6816,3.2031c4.1084-4.1084,10.7773-4.1084,14.8857,0L95.038,41.6738
		c4.1075,4.1123,4.1075,10.7764,0,14.8896L56.5673,95.0302z"/>
	<g>
		<path style="fill:#FFFFFF;" d="M91.2734,49.1201c0,2.1865-0.8516,4.2422-2.3965,5.789l-33.9648,33.959
			c-1.5459,1.5508-3.6035,2.4043-5.792,2.4014c-2.1846,0-4.2383-0.8525-5.7832-2.4014L9.372,54.9091
			c-1.5498-1.5468-2.4004-3.6025-2.4004-5.789c0-2.1856,0.8506-4.2442,2.4004-5.792L43.3369,9.3642
			c1.5449-1.5478,3.5986-2.3984,5.7871-2.3984s4.2422,0.8506,5.7881,2.3984l33.9648,33.9639
			C90.4218,44.8759,91.2734,46.9326,91.2734,49.1201 M92.3847,49.1201c0-2.3809-0.9072-4.7608-2.7226-6.5781L55.6992,8.5791
			c-3.6309-3.6348-9.5186-3.6348-13.1485,0L8.5859,42.542c-1.8184,1.8173-2.7266,4.1972-2.7266,6.5781
			c0,2.3799,0.9082,4.7597,2.7266,6.5742l33.9648,33.96c3.6299,3.6386,9.5176,3.6337,13.1485,0l33.9629-33.96
			C91.4775,53.8798,92.3847,51.5,92.3847,49.1201L92.3847,49.1201z"/>
	</g>
</g>
<g>
	<path style="fill:#FFFFFF;stroke:#FFFFFF;stroke-width:1.0732;stroke-miterlimit:10;" d="M48.5216,32.2568
		c-0.8389,0-1.6201,0.1572-2.3447,0.4717c-0.7256,0.3145-1.3584,0.7432-1.9004,1.2842c-0.541,0.541-0.9688,1.1748-1.2832,1.8994
		s-0.4717,1.5068-0.4717,2.3447v1.5195l-3.3799-0.5498v-0.9697c0-1.2744,0.2393-2.4717,0.7207-3.5889
		c0.4795-1.1182,1.1396-2.0967,1.9775-2.9346c0.8389-0.8389,1.8164-1.498,2.9346-1.9785s2.3145-0.7207,3.5898-0.7207h1.5986
		c1.2744,0,2.4756,0.2275,3.6025,0.6816c1.126,0.4541,2.1094,1.1094,2.9473,1.9648c0.8389,0.8555,1.498,1.8818,1.9785,3.0781
		c0.4805,1.1973,0.7207,2.5469,0.7207,4.0488c0,1.4844-0.2227,2.9785-0.6689,4.4805c-0.4453,1.502-1.0303,2.9775-1.7549,4.4277
		c-0.7256,1.4502-1.5547,2.8555-2.4893,4.2188c-0.9346,1.3623-1.8906,2.6455-2.8691,3.8516
		c-2.2881,2.8125-4.8828,5.5195-7.7813,8.1221h15.8252v3.2227H38.3293V64.458c3.2666-2.6894,6.1836-5.4756,8.751-8.3574
		c1.1006-1.2402,2.1748-2.5596,3.2227-3.957c1.0488-1.3975,1.9824-2.834,2.8037-4.3096c0.8213-1.4766,1.4805-2.9785,1.9785-4.5068
		s0.7471-3.0352,0.7471-4.5195c0-1.1006-0.167-2.0615-0.498-2.8828c-0.332-0.8203-0.7773-1.502-1.3369-2.043
		c-0.5586-0.542-1.2012-0.9473-1.9258-1.2188c-0.7246-0.2705-1.4795-0.4063-2.2656-0.4063H48.5216z"/>
</g>
</svg>
