<?xml version="1.0" encoding="utf-8"?>
<!-- Generator: Adobe Illustrator 21.0.0, SVG Export Plug-In . SVG Version: 6.00 Build 0)  -->
<svg version="1.1" id="Capa_1" xmlns="http://www.w3.org/2000/svg" xmlns:xlink="http://www.w3.org/1999/xlink" x="0px" y="0px"
	 viewBox="0 0 97.9927 97.9939" style="enable-background:new 0 0 97.9927 97.9939;" xml:space="preserve">
<g>
	<path style="fill:#FBB03B;" d="M56.0107,95.2548c-4.1074,4.1075-10.7773,4.1075-14.8848,0L2.6543,56.788
		c-4.1075-4.1113-4.1075-10.7851,0-14.8925L41.1259,3.4277c4.1075-4.1074,10.7774-4.1074,14.8848,0l38.4717,38.4678
		c4.1074,4.1074,4.1074,10.7812,0,14.8925L56.0107,95.2548z"/>
	<g>
		<path style="fill:#FFFFFF;" d="M4.7519,49.3418c0-2.6319,1.0254-5.1065,2.8838-6.9668L41.5996,8.4111
			c1.8623-1.8633,4.3379-2.8906,6.9687-2.8887c2.6309,0,5.1065,1.0254,6.9688,2.8887L89.5019,42.375
			c1.8574,1.8603,2.8828,4.3349,2.8828,6.9668c0,2.6318-1.0254,5.1064-2.8828,6.9668L55.5371,90.2724
			c-1.8623,1.8613-4.3379,2.8858-6.9688,2.8877c-2.6308,0-5.1064-1.0244-6.9687-2.8877L7.6357,56.3086
			C5.7773,54.4482,4.7519,51.9736,4.7519,49.3418z M91.2734,49.3418c0-2.337-0.9082-4.5313-2.5625-6.1817L54.747,9.1962
			c-1.6494-1.6523-3.8427-2.5644-6.1787-2.5615c-2.3359-0.0029-4.5283,0.9092-6.1787,2.5615L8.4257,43.1601
			c-1.6543,1.6504-2.5625,3.8447-2.5625,6.1817c0,2.3359,0.9082,4.5302,2.5625,6.1806l33.9639,33.9649
			c1.6504,1.6523,3.8428,2.5605,6.1787,2.5605c2.336,0,4.5293-0.9082,6.1787-2.5605l33.9639-33.9649
			C90.3652,53.872,91.2734,51.6777,91.2734,49.3418z"/>
	</g>
</g>
<g>
	<path style="fill:#FFFFFF;stroke:#FFFFFF;stroke-width:1.0732;stroke-miterlimit:10;" d="M55.456,60.1904
		c-0.4805,1.1182-1.1396,2.0967-1.9785,2.9346c-0.8389,0.8389-1.8164,1.498-2.9346,1.9785s-2.3145,0.7207-3.5898,0.7207h-1.5977
		c-1.2754,0-2.4766-0.2402-3.6025-0.7207c-1.127-0.4805-2.1094-1.1396-2.9482-1.9785c-0.8379-0.8379-1.498-1.8164-1.9775-2.9346
		c-0.4814-1.1172-0.7207-2.3145-0.7207-3.5898v-0.9688l3.3799-0.5244v1.4932c0,0.8389,0.1572,1.6211,0.4717,2.3457
		s0.7461,1.3623,1.2969,1.9121c0.5498,0.5508,1.1875,0.9824,1.9121,1.2969s1.5068,0.4717,2.3457,0.4717h1.2832
		c0.8389,0,1.6201-0.1572,2.3457-0.4717c0.7246-0.3145,1.3574-0.7461,1.8994-1.2969c0.541-0.5498,0.9697-1.1875,1.2842-1.9121
		c0.3135-0.7246,0.4707-1.5068,0.4707-2.3457v-3.1172c0-0.8389-0.1572-1.6201-0.4707-2.3457
		c-0.3145-0.7246-0.7432-1.3574-1.2842-1.8994c-0.542-0.541-1.1748-0.9697-1.8994-1.2842
		c-0.7256-0.3135-1.5068-0.4707-2.3457-0.4707h-2.5146v-3.2236h2.5146c0.8389,0,1.6201-0.1572,2.3457-0.4717
		c0.7246-0.3135,1.3574-0.7422,1.8994-1.2832c0.541-0.541,0.9697-1.1748,1.2842-1.8994c0.3135-0.7246,0.4707-1.5068,0.4707-2.3457
		v-1.834c0-0.8379-0.1572-1.6201-0.4707-2.3447c-0.3145-0.7246-0.7432-1.3584-1.2842-1.8994
		c-0.542-0.541-1.1748-0.9697-1.8994-1.2842c-0.7256-0.3145-1.5068-0.4717-2.3457-0.4717h-1.2832
		c-0.8389,0-1.6211,0.1572-2.3457,0.4717s-1.3623,0.7432-1.9121,1.2842c-0.5508,0.541-0.9824,1.1748-1.2969,1.8994
		s-0.4717,1.5068-0.4717,2.3447v1.5195l-3.3799-0.5498v-0.9697c0-1.2744,0.2393-2.4717,0.7207-3.5889
		c0.4795-1.1182,1.1396-2.0967,1.9775-2.9346c0.8389-0.8389,1.8213-1.498,2.9482-1.9785c1.126-0.4805,2.3271-0.7207,3.6025-0.7207
		h1.5977c1.2754,0,2.4717,0.2402,3.5898,0.7207s2.0957,1.1396,2.9346,1.9785c0.8389,0.8379,1.498,1.8164,1.9785,2.9346
		c0.4795,1.1172,0.7207,2.3145,0.7207,3.5889v1.2842c0,0.8906-0.1182,1.7422-0.3545,2.5547
		c-0.2354,0.8125-0.5674,1.5674-0.9951,2.2666c-0.4287,0.6982-0.9395,1.332-1.5332,1.8994s-1.2578,1.0527-1.9912,1.4541
		c0.7334,0.3848,1.3975,0.8604,1.9912,1.4277c0.5938,0.5684,1.1045,1.2012,1.5332,1.8994c0.4277,0.6992,0.7598,1.4541,0.9951,2.2666
		c0.2363,0.8125,0.3545,1.6641,0.3545,2.5547v2.5674C56.1767,57.8759,55.9355,59.0732,55.456,60.1904z"/>
</g>
</svg>
