<?xml version="1.0" encoding="utf-8"?>
<!-- Generator: Adobe Illustrator 21.0.0, SVG Export Plug-In . SVG Version: 6.00 Build 0)  -->
<svg version="1.1" id="Capa_1" xmlns="http://www.w3.org/2000/svg" xmlns:xlink="http://www.w3.org/1999/xlink" x="0px" y="0px"
	 viewBox="0 0 97.9927 97.9939" style="enable-background:new 0 0 97.9927 97.9939;" xml:space="preserve">
<g>
	<path style="fill:#D9E021;" d="M56.2168,95.2763c-4.1172,4.1133-10.7774,4.1172-14.8936,0L2.8515,56.8144
		c-4.1074-4.1162-4.1074-10.7812,0-14.8935L41.3232,3.4541c4.1162-4.1114,10.7764-4.1114,14.8936,0l38.4638,38.4668
		c4.1074,4.1123,4.1074,10.7773,0,14.8935L56.2168,95.2763z"/>
	<g>
		<path style="fill:#FFFFFF;" d="M90.9179,49.3681c0,2.1875-0.8506,4.2442-2.3945,5.792l-33.9697,33.96
			c-1.5459,1.5459-3.6045,2.3984-5.7881,2.3984c-2.1895,0-4.2422-0.8515-5.7881-2.3984l-33.9639-33.96
			c-1.5468-1.5478-2.3974-3.6045-2.3974-5.792c0-2.1894,0.8506-4.2441,2.3974-5.7929L42.9775,9.6113
			c1.5459-1.5459,3.5986-2.3975,5.7881-2.3975c2.1875,0,4.2422,0.8516,5.7881,2.3975l33.9697,33.9639
			C90.0673,45.124,90.9179,47.1787,90.9179,49.3681 M92.0302,49.3681c0-2.3828-0.9072-4.7617-2.7207-6.5781L55.3388,8.8252
			c-3.6299-3.6299-9.5176-3.6299-13.1474,0L8.2275,42.79c-1.8154,1.8164-2.7227,4.1953-2.7227,6.5781
			c0,2.3809,0.9073,4.7608,2.7227,6.5781l33.9639,33.959c3.6298,3.6348,9.5175,3.6309,13.1474,0l33.9707-33.959
			C91.123,54.1289,92.0302,51.749,92.0302,49.3681L92.0302,49.3681z"/>
	</g>
</g>
<g>
	<path style="fill:#FFFFFF;stroke:#FFFFFF;stroke-width:1.0732;stroke-miterlimit:10;" d="M53.3607,63.6328v6.498h-3.3799v-6.498
		H34.889v-1.5977l16.6895-29.4766h1.7822v27.8516h3.2227v3.2227H53.3607z M49.9808,41.8076L39.6312,60.4101h10.3496V41.8076z"/>
</g>
</svg>
