<?xml version="1.0" encoding="utf-8"?>
<!-- Generator: Adobe Illustrator 21.0.0, SVG Export Plug-In . SVG Version: 6.00 Build 0)  -->
<svg version="1.1" id="Capa_1" xmlns="http://www.w3.org/2000/svg" xmlns:xlink="http://www.w3.org/1999/xlink" x="0px" y="0px"
	 viewBox="0 0 97.9927 97.9939" style="enable-background:new 0 0 97.9927 97.9939;" xml:space="preserve">
<g>
	<path style="fill:#39B54A;" d="M56.248,95.33c-4.1113,4.1084-10.7773,4.1123-14.8887,0L2.8896,56.8642
		c-4.1074-4.1094-4.1074-10.7822,0-14.8906L41.3593,3.5068c4.1114-4.1074,10.7774-4.1074,14.8887,0l38.4668,38.4668
		c4.1123,4.1084,4.1123,10.7812,0,14.8906L56.248,95.33z"/>
	<g style="opacity:0.9;">
		<path style="fill:#FFFFFF;" d="M90.955,49.4189c0,2.1875-0.8515,4.2441-2.3974,5.79l-33.9688,33.96
			c-1.5449,1.5469-3.5986,2.4004-5.7832,2.4004c-2.1885,0.0029-4.2441-0.8506-5.792-2.4004l-33.9629-33.96
			c-1.5449-1.5459-2.3964-3.6025-2.3964-5.79c0-2.1865,0.8515-4.2422,2.3964-5.7861L43.0136,9.6689
			c1.5479-1.5478,3.6035-2.3984,5.7901-2.3984c2.1836,0,4.2402,0.8506,5.7851,2.3984l33.9688,33.9639
			C90.1035,45.1767,90.955,47.2324,90.955,49.4189 M92.0664,49.4189c0-2.3789-0.9082-4.7588-2.7227-6.5723L55.375,8.8828
			c-3.6299-3.6338-9.5137-3.6338-13.1475,0L8.2656,42.8466c-1.8154,1.8135-2.7227,4.1934-2.7227,6.5723s0.9073,4.7617,2.7227,6.5762
			l33.9619,33.959c3.6338,3.6386,9.5225,3.6347,13.1475,0l33.9687-33.959C91.1582,54.1806,92.0664,51.7978,92.0664,49.4189
			L92.0664,49.4189z"/>
	</g>
</g>
<g>
	<path style="fill:#FFFFFF;stroke:#FFFFFF;stroke-width:1.0732;stroke-miterlimit:10;" d="M56.9914,60.6974
		c-0.4805,1.1182-1.1396,2.0967-1.9785,2.9346c-0.8389,0.8389-1.8164,1.498-2.9346,1.9785s-2.3145,0.7207-3.5898,0.7207h-1.5977
		c-1.2754,0-2.4766-0.2402-3.6025-0.7207c-1.127-0.4805-2.1094-1.1396-2.9482-1.9785c-0.8379-0.8379-1.498-1.8164-1.9775-2.9346
		c-0.4814-1.1172-0.7207-2.3145-0.7207-3.5898v-0.5762h3.3799v0.5762c0,0.8389,0.1572,1.6211,0.4717,2.3457
		s0.7461,1.3623,1.2969,1.9121c0.5498,0.5508,1.1875,0.9824,1.9121,1.2969s1.5068,0.4717,2.3457,0.4717h1.2832
		c0.8389,0,1.6201-0.1572,2.3457-0.4717c0.7246-0.3145,1.3574-0.7461,1.8994-1.2969c0.541-0.5498,0.9697-1.1875,1.2842-1.9121
		c0.3135-0.7246,0.4707-1.5068,0.4707-2.3457v-7.2832c0-0.8389-0.1572-1.6201-0.4707-2.3457
		c-0.3145-0.7246-0.7432-1.3623-1.2842-1.9121c-0.542-0.5508-1.1748-0.9824-1.8994-1.2969
		c-0.7256-0.3145-1.5068-0.4717-2.3457-0.4717H47.048c-0.8389,0-1.6211,0.1572-2.3457,0.4717s-1.3623,0.7461-1.9121,1.2969
		c-0.5508,0.5498-0.9824,1.1875-1.2969,1.9121c-0.3145,0.7256-0.4717,1.5068-0.4717,2.3457h-3.3799l2.1484-21.5898h16.0615v3.2227
		H42.9601l-1.2314,11.5547c0.8037-0.7686,1.7383-1.3672,2.8037-1.7949s2.21-0.6416,3.4326-0.6416h0.5234
		c1.2754,0,2.4717,0.2402,3.5898,0.7197c1.1182,0.4814,2.0957,1.1406,2.9346,1.9785c0.8389,0.8389,1.498,1.8213,1.9785,2.9482
		c0.4795,1.126,0.7207,2.3271,0.7207,3.6025v7.2832C57.7121,58.383,57.4709,59.5802,56.9914,60.6974z"/>
</g>
</svg>
