<?xml version="1.0" encoding="utf-8"?>
<!-- Generator: Adobe Illustrator 21.0.0, SVG Export Plug-In . SVG Version: 6.00 Build 0)  -->
<svg version="1.1" id="Capa_1" xmlns="http://www.w3.org/2000/svg" xmlns:xlink="http://www.w3.org/1999/xlink" x="0px" y="0px"
	 viewBox="0 0 97.9912 97.9922" style="enable-background:new 0 0 97.9912 97.9922;" xml:space="preserve">
<g>
	<path style="fill:#28CEAC;" d="M56.4458,94.9057c-4.1162,4.1133-10.7773,4.1172-14.8935,0L3.0805,56.4439
		c-4.1074-4.1162-4.1074-10.7812,0-14.8935L41.5522,3.0835c4.1162-4.1114,10.7773-4.1114,14.8935,0l38.4649,38.4668
		c4.1074,4.1123,4.1074,10.7773,0,14.8935L56.4458,94.9057z"/>
	<g>
		<path style="fill:#FFFFFF;" d="M91.1479,48.9976c0,2.1875-0.8516,4.2442-2.3945,5.792l-33.9708,33.96
			c-1.5459,1.5459-3.6044,2.3984-5.788,2.3984c-2.1885,0-4.2422-0.8515-5.7881-2.3984l-33.9639-33.96
			c-1.5459-1.5478-2.3975-3.6045-2.3975-5.792c0-2.1894,0.8516-4.2441,2.3975-5.7929L43.2066,9.2408
			c1.5459-1.5459,3.5996-2.3975,5.7881-2.3975c2.1884,0,4.2421,0.8516,5.788,2.3975l33.9708,33.9639
			C90.2963,44.7534,91.1479,46.8082,91.1479,48.9976 M92.2592,48.9976c0-2.3828-0.9072-4.7617-2.7197-6.5781L55.5678,8.4546
			c-3.6299-3.6299-9.5176-3.6299-13.1475,0L8.4565,42.4194c-1.8155,1.8164-2.7227,4.1953-2.7227,6.5781
			c0,2.3809,0.9072,4.7608,2.7227,6.5781l33.9638,33.959c3.6299,3.6348,9.5176,3.6309,13.1475,0l33.9717-33.959
			C91.3521,53.7584,92.2592,51.3784,92.2592,48.9976L92.2592,48.9976z"/>
	</g>
</g>
<g>
	<path style="fill:#FFFFFF;stroke:#FFFFFF;stroke-width:1.0732;stroke-miterlimit:10;" d="M56.9124,64.6509
		c-0.4805,1.1182-1.1396,2.0967-1.9785,2.9346c-0.8379,0.8389-1.8164,1.498-2.9336,1.9785
		c-1.1182,0.4805-2.3154,0.7207-3.5898,0.7207h-1.625c-1.2754,0-2.4717-0.2402-3.5889-0.7207
		c-1.1182-0.4805-2.0967-1.1396-2.9346-1.9785c-0.8389-0.8379-1.498-1.8164-1.9785-2.9346
		c-0.4805-1.1172-0.7207-2.3145-0.7207-3.5898V40.8862c0-1.2744,0.2402-2.4717,0.7207-3.5889
		c0.4805-1.1182,1.1396-2.0967,1.9785-2.9346c0.8379-0.8389,1.8164-1.498,2.9346-1.9785c1.1172-0.4805,2.3135-0.7207,3.5889-0.7207
		h1.625c1.2744,0,2.4717,0.2402,3.5898,0.7207c1.1172,0.4805,2.0957,1.1396,2.9336,1.9785c0.8389,0.8379,1.498,1.8164,1.9785,2.9346
		c0.4805,1.1172,0.7207,2.3145,0.7207,3.5889v0.9697l-3.3799,0.5498v-1.5195c0-0.8379-0.1572-1.6201-0.4717-2.3447
		s-0.7471-1.3584-1.2969-1.8994c-0.5508-0.541-1.1885-0.9697-1.9131-1.2842s-1.5059-0.4717-2.3447-0.4717h-1.2842
		c-0.8379,0-1.6201,0.1572-2.3447,0.4717s-1.3584,0.7432-1.8994,1.2842c-0.542,0.541-0.9697,1.1748-1.2842,1.8994
		s-0.4717,1.5068-0.4717,2.3447v9.3545c0.8555-0.9434,1.8818-1.6992,3.0791-2.2666c1.1963-0.5674,2.4756-0.8516,3.8379-0.8516
		h0.5508c1.2744,0,2.4717,0.2402,3.5898,0.7207c1.1172,0.4805,2.0957,1.1396,2.9336,1.9775
		c0.8389,0.8389,1.498,1.8174,1.9785,2.9346c0.4805,1.1182,0.7207,2.3154,0.7207,3.5898v4.7158
		C57.6331,62.3364,57.3929,63.5337,56.9124,64.6509z M54.2532,56.3452c0-0.8389-0.1572-1.6201-0.4717-2.3447
		s-0.7471-1.3584-1.2969-1.8994c-0.5508-0.542-1.1885-0.9697-1.9131-1.2842s-1.5059-0.4717-2.3447-0.4717h-1.2842
		c-0.8379,0-1.6201,0.1572-2.3447,0.4717s-1.3584,0.7422-1.8994,1.2842c-0.542,0.541-0.9697,1.1748-1.2842,1.8994
		s-0.4717,1.5059-0.4717,2.3447v4.7158c0,0.8389,0.1572,1.6211,0.4717,2.3457c0.3145,0.7246,0.7422,1.3623,1.2842,1.9121
		c0.541,0.5508,1.1748,0.9824,1.8994,1.2969s1.5068,0.4717,2.3447,0.4717h1.2842c0.8389,0,1.6201-0.1572,2.3447-0.4717
		s1.3623-0.7461,1.9131-1.2969c0.5498-0.5498,0.9824-1.1875,1.2969-1.9121c0.3145-0.7246,0.4717-1.5068,0.4717-2.3457V56.3452z"/>
</g>
</svg>
