<?xml version="1.0" encoding="utf-8"?>
<!-- Generator: Adobe Illustrator 21.0.0, SVG Export Plug-In . SVG Version: 6.00 Build 0)  -->
<svg version="1.1" id="Capa_1" xmlns="http://www.w3.org/2000/svg" xmlns:xlink="http://www.w3.org/1999/xlink" x="0px" y="0px"
	 viewBox="0 0 97.9924 97.9939" style="enable-background:new 0 0 97.9924 97.9939;" xml:space="preserve">
<g>
	<path style="fill:#29ABE2;" d="M56.4434,94.9097c-4.1162,4.1123-10.7862,4.1123-14.8936,0L3.0879,56.4429
		c-4.1172-4.1123-4.1172-10.7812,0-14.8935L41.5498,3.0865c4.1074-4.1153,10.7774-4.1153,14.8936,0l38.4619,38.4629
		c4.1162,4.1123,4.1162,10.7812,0,14.8935L56.4434,94.9097z"/>
	<path style="fill:#FFFFFF;" d="M91.1494,48.9966c0,2.1875-0.8506,4.2442-2.3965,5.793L54.7803,88.7525
		c-1.5459,1.5488-3.6035,2.3994-5.792,2.3965c-2.1846-0.002-4.2344-0.8526-5.7754-2.3965L9.2402,54.7896
		c-1.5459-1.5488-2.3964-3.6055-2.3964-5.793c0-2.1865,0.8505-4.2422,2.3964-5.7881L43.2129,9.2398
		c1.541-1.544,3.5957-2.3945,5.7793-2.3945c2.1885,0,4.2422,0.8505,5.7881,2.3945l33.9726,33.9687
		C90.2988,44.7544,91.1494,46.8101,91.1494,48.9966 M92.2617,48.9966c0-2.3789-0.9082-4.7597-2.7226-6.5742L55.5664,8.4537
		c-3.6299-3.625-9.5176-3.625-13.1396,0L8.4541,42.4224c-1.8144,1.8145-2.7226,4.1953-2.7226,6.5742
		c0,2.3809,0.9082,4.7608,2.7226,6.5782l33.9727,33.9638c3.622,3.6299,9.5097,3.6299,13.1396,0l33.9727-33.9638
		C91.3535,53.7574,92.2617,51.3775,92.2617,48.9966L92.2617,48.9966z"/>
</g>
<g>
	<path style="fill:#FFFFFF;stroke:#FFFFFF;stroke-width:1.0732;stroke-miterlimit:10;" d="M45.1951,67.7075H41.658l14.0703-34.3496
		H42.6795v5.0039h-3.3799v-8.2266h20.5947v1.624L45.1951,67.7075z"/>
</g>
</svg>
