<?xml version="1.0" encoding="utf-8"?>
<!-- Generator: Adobe Illustrator 21.0.0, SVG Export Plug-In . SVG Version: 6.00 Build 0)  -->
<svg version="1.1" id="Capa_1" xmlns="http://www.w3.org/2000/svg" xmlns:xlink="http://www.w3.org/1999/xlink" x="0px" y="0px"
	 viewBox="0 0 97.9887 97.9905" style="enable-background:new 0 0 97.9887 97.9905;" xml:space="preserve">
<g>
	<path style="fill:#1B1464;" d="M56.4367,94.9084c-4.1074,4.1075-10.7773,4.1114-14.8847,0L3.0813,56.4416
		c-4.1084-4.1132-4.1084-10.7773,0-14.8896L41.552,3.0813c4.1074-4.1084,10.7773-4.1084,14.8847,0L94.9074,41.552
		c4.1084,4.1123,4.1084,10.7764,0,14.8896L56.4367,94.9084z"/>
	<g>
		<path style="fill:#FFFFFF;" d="M91.1438,48.9983c0,2.1865-0.8516,4.2422-2.3975,5.789l-33.9639,33.959
			c-1.5459,1.5508-3.6044,2.4043-5.7919,2.4014c-2.1846,0-4.2383-0.8525-5.7842-2.4014L9.2424,54.7873
			c-1.5498-1.5468-2.4014-3.6025-2.4014-5.789c0-2.1856,0.8516-4.2442,2.4014-5.792L43.2063,9.2424
			c1.5459-1.5478,3.5996-2.3984,5.7881-2.3984c2.1884,0,4.2421,0.8506,5.788,2.3984l33.9639,33.9639
			C90.2922,44.7541,91.1438,46.8108,91.1438,48.9983 M92.2551,48.9983c0-2.3809-0.9082-4.7608-2.7227-6.5781L55.5686,8.4573
			c-3.6299-3.6348-9.5186-3.6348-13.1485,0L8.4563,42.4202c-1.8194,1.8173-2.7266,4.1972-2.7266,6.5781
			c0,2.3799,0.9072,4.7597,2.7266,6.5742l33.9638,33.96c3.6299,3.6386,9.5186,3.6337,13.1485,0l33.9638-33.96
			C91.3469,53.758,92.2551,51.3782,92.2551,48.9983L92.2551,48.9983z"/>
	</g>
</g>
<g>
	<path style="fill:#FFFFFF;stroke:#FFFFFF;stroke-width:1.0732;stroke-miterlimit:10;" d="M57.5746,61.8996
		c-0.4805,1.1182-1.1396,2.0967-1.9785,2.9346c-0.8389,0.8389-1.8164,1.498-2.9346,1.9785s-2.3145,0.7207-3.5898,0.7207H47.474
		c-1.2754,0-2.4766-0.2402-3.6025-0.7207c-1.127-0.4805-2.1094-1.1396-2.9482-1.9785c-0.8379-0.8379-1.498-1.8164-1.9775-2.9346
		c-0.4814-1.1172-0.7207-2.3145-0.7207-3.5898v-3.1172c0-1.5898,0.3711-3.0439,1.1133-4.3633
		c0.7422-1.3184,1.7158-2.3975,2.9219-3.2354c-1.2061-0.8389-2.1797-1.9209-2.9219-3.249c-0.7422-1.3271-1.1133-2.7861-1.1133-4.376
		v-1.834c0-1.2744,0.2393-2.4717,0.7207-3.5889c0.4795-1.1182,1.1396-2.0967,1.9775-2.9346
		c0.8389-0.8389,1.8213-1.498,2.9482-1.9785c1.126-0.4805,2.3271-0.7207,3.6025-0.7207h1.5977c1.2754,0,2.4717,0.2402,3.5898,0.7207
		s2.0957,1.1396,2.9346,1.9785c0.8389,0.8379,1.498,1.8164,1.9785,2.9346c0.4795,1.1172,0.7207,2.3145,0.7207,3.5889v1.834
		c0,1.5898-0.3672,3.0488-1.1006,4.376c-0.7344,1.3281-1.7031,2.4102-2.9082,3.249c1.2051,0.8379,2.1738,1.917,2.9082,3.2354
		c0.7334,1.3193,1.1006,2.7734,1.1006,4.3633v3.1172C58.2953,59.5852,58.0541,60.7825,57.5746,61.8996z M54.9145,38.135
		c0-0.8379-0.1572-1.6201-0.4707-2.3447c-0.3145-0.7246-0.7432-1.3584-1.2842-1.8994c-0.542-0.541-1.1748-0.9697-1.8994-1.2842
		c-0.7256-0.3145-1.5068-0.4717-2.3457-0.4717h-1.2832c-0.8389,0-1.6211,0.1572-2.3457,0.4717s-1.3623,0.7432-1.9121,1.2842
		c-0.5508,0.541-0.9824,1.1748-1.2969,1.8994s-0.4717,1.5068-0.4717,2.3447v1.834c0,0.8389,0.1572,1.6211,0.4717,2.3457
		s0.7461,1.3584,1.2969,1.8994c0.5498,0.541,1.1875,0.9697,1.9121,1.2832c0.7246,0.3145,1.5068,0.4717,2.3457,0.4717h1.2832
		c0.8389,0,1.6201-0.1572,2.3457-0.4717c0.7246-0.3135,1.3574-0.7422,1.8994-1.2832c0.541-0.541,0.9697-1.1748,1.2842-1.8994
		c0.3135-0.7246,0.4707-1.5068,0.4707-2.3457V38.135z M54.9145,55.1926c0-0.8389-0.1572-1.6201-0.4707-2.3457
		c-0.3145-0.7246-0.7432-1.3574-1.2842-1.8994c-0.542-0.541-1.1748-0.9697-1.8994-1.2842
		c-0.7256-0.3135-1.5068-0.4707-2.3457-0.4707h-1.2832c-0.8389,0-1.6211,0.1572-2.3457,0.4707
		c-0.7246,0.3145-1.3623,0.7432-1.9121,1.2842c-0.5508,0.542-0.9824,1.1748-1.2969,1.8994
		c-0.3145,0.7256-0.4717,1.5068-0.4717,2.3457v3.1172c0,0.8389,0.1572,1.6211,0.4717,2.3457s0.7461,1.3623,1.2969,1.9121
		c0.5498,0.5508,1.1875,0.9824,1.9121,1.2969s1.5068,0.4717,2.3457,0.4717h1.2832c0.8389,0,1.6201-0.1572,2.3457-0.4717
		c0.7246-0.3145,1.3574-0.7461,1.8994-1.2969c0.541-0.5498,0.9697-1.1875,1.2842-1.9121c0.3135-0.7246,0.4707-1.5068,0.4707-2.3457
		V55.1926z"/>
</g>
</svg>
