<?xml version="1.0" encoding="utf-8"?>
<!-- Generator: Adobe Illustrator 21.0.0, SVG Export Plug-In . SVG Version: 6.00 Build 0)  -->
<svg version="1.1" id="Capa_1" xmlns="http://www.w3.org/2000/svg" xmlns:xlink="http://www.w3.org/1999/xlink" x="0px" y="0px"
	 viewBox="0 0 97.9883 97.9883" style="enable-background:new 0 0 97.9883 97.9883;" xml:space="preserve">
<g>
	<path style="fill:#662D91;" d="M56.4361,94.9077c-4.1074,4.1075-10.7764,4.1075-14.8838,0L3.0805,56.4408
		c-4.1074-4.1113-4.1074-10.7851,0-14.8925L41.5522,3.0805c4.1074-4.1074,10.7764-4.1074,14.8838,0l38.4717,38.4678
		c4.1074,4.1074,4.1074,10.7812,0,14.8925L56.4361,94.9077z"/>
	<g>
		<path style="fill:#FFFFFF;" d="M5.1782,48.9947c0-2.6319,1.0244-5.1065,2.8828-6.9668L42.0249,8.0639
			c1.8632-1.8633,4.3379-2.8906,6.9697-2.8887c2.6309,0,5.1055,1.0254,6.9687,2.8887l33.9639,33.9639
			c1.8584,1.8603,2.8838,4.3349,2.8838,6.9668c0,2.6318-1.0254,5.1064-2.8838,6.9668L55.9633,89.9252
			c-1.8632,1.8613-4.3378,2.8858-6.9687,2.8877c-2.6318,0-5.1065-1.0244-6.9697-2.8877L8.0611,55.9614
			C6.2027,54.1011,5.1782,51.6264,5.1782,48.9947z M91.6988,48.9947c0-2.337-0.9072-4.5313-2.5615-6.1817L55.1734,8.849
			c-1.6504-1.6523-3.8428-2.5644-6.1787-2.5615c-2.3359-0.0029-4.5293,0.9092-6.1787,2.5615L8.8511,42.813
			c-1.6543,1.6504-2.5615,3.8447-2.5615,6.1817c0,2.3359,0.9072,4.5302,2.5615,6.1806l33.9649,33.9649
			c1.6494,1.6523,3.8428,2.5605,6.1787,2.5605c2.3359,0,4.5283-0.9082,6.1787-2.5605l33.9639-33.9649
			C90.7915,53.5248,91.6988,51.3306,91.6988,48.9947z"/>
	</g>
</g>
<g>
	<path style="fill:#FFFFFF;stroke:#FFFFFF;stroke-width:1.0732;stroke-miterlimit:10;" d="M57.8312,59.8432
		c-0.4805,1.1182-1.1396,2.0967-1.9785,2.9346c-0.8379,0.8389-1.8164,1.498-2.9336,1.9785
		c-1.1182,0.4805-2.3154,0.7207-3.5898,0.7207h-1.625c-1.2754,0-2.4717-0.2402-3.5889-0.7207
		c-1.1182-0.4805-2.0967-1.1396-2.9346-1.9785c-0.8389-0.8379-1.498-1.8164-1.9785-2.9346
		c-0.4805-1.1172-0.7207-2.3145-0.7207-3.5898v-0.9688l3.3799-0.5244v1.4932c0,0.8389,0.1572,1.6211,0.4717,2.3457
		s0.7422,1.3623,1.2842,1.9121c0.541,0.5508,1.1748,0.9824,1.8994,1.2969s1.5068,0.4717,2.3447,0.4717h1.2842
		c0.8389,0,1.6201-0.1572,2.3447-0.4717s1.3623-0.7461,1.9131-1.2969c0.5498-0.5498,0.9824-1.1875,1.2969-1.9121
		s0.4717-1.5068,0.4717-2.3457v-9.3271c-0.874,0.9434-1.9043,1.6992-3.0918,2.2666c-1.1885,0.5674-2.4629,0.8516-3.8252,0.8516
		h-0.5508c-1.2754,0-2.4717-0.2402-3.5889-0.7207c-1.1182-0.4805-2.0967-1.1396-2.9346-1.9785
		c-0.8389-0.8379-1.498-1.8213-1.9785-2.9473c-0.4805-1.127-0.7207-2.3271-0.7207-3.6025v-4.7168
		c0-1.2744,0.2402-2.4717,0.7207-3.5889c0.4805-1.1182,1.1396-2.0967,1.9785-2.9346c0.8379-0.8389,1.8164-1.498,2.9346-1.9785
		c1.1172-0.4805,2.3135-0.7207,3.5889-0.7207h1.625c1.2744,0,2.4717,0.2402,3.5898,0.7207
		c1.1172,0.4805,2.0957,1.1396,2.9336,1.9785c0.8389,0.8379,1.498,1.8164,1.9785,2.9346c0.4805,1.1172,0.7207,2.3145,0.7207,3.5889
		v20.1748C58.5519,57.5288,58.3116,58.7261,57.8312,59.8432z M55.172,36.0786c0-0.8379-0.1572-1.6201-0.4717-2.3447
		s-0.7471-1.3584-1.2969-1.8994c-0.5508-0.541-1.1885-0.9697-1.9131-1.2842s-1.5059-0.4717-2.3447-0.4717h-1.2842
		c-0.8379,0-1.6201,0.1572-2.3447,0.4717s-1.3584,0.7432-1.8994,1.2842c-0.542,0.541-0.9697,1.1748-1.2842,1.8994
		s-0.4717,1.5068-0.4717,2.3447v4.7168c0,0.8379,0.1572,1.6201,0.4717,2.3447s0.7422,1.3623,1.2842,1.9131
		c0.541,0.5498,1.1748,0.9824,1.8994,1.2969s1.5068,0.4717,2.3447,0.4717h1.2842c0.8389,0,1.6201-0.1572,2.3447-0.4717
		s1.3623-0.7471,1.9131-1.2969c0.5498-0.5508,0.9824-1.1885,1.2969-1.9131s0.4717-1.5068,0.4717-2.3447V36.0786z"/>
</g>
</svg>
