<?xml version="1.0" encoding="utf-8"?>
<!-- Generator: Adobe Illustrator 21.0.0, SVG Export Plug-In . SVG Version: 6.00 Build 0)  -->
<svg version="1.1" id="Capa_1" xmlns="http://www.w3.org/2000/svg" xmlns:xlink="http://www.w3.org/1999/xlink" x="0px" y="0px"
	 viewBox="0 0 196.3 197.1" style="enable-background:new 0 0 196.3 197.1;" xml:space="preserve">
<style type="text/css">
	.st0{fill:#FFD652;}
	.st1{fill:#FB9D46;}
	.st2{fill:#458FDE;}
	.st3{fill:#FF7452;}
	.st4{fill:#E24642;}
</style>
<g>
	<polygon class="st0" points="186,167.6 161.8,169.9 159.5,194.1 101.5,136 127.9,109.6 	"/>
	<polygon class="st1" points="132.7,154.4 137.2,139.3 152.8,141.6 152.9,134.5 127.9,109.6 101.5,136 116.3,150.9 118.3,147.8 	"/>
	<polygon class="st0" points="10.4,167.6 34.5,169.9 36.8,194.1 94.9,136 68.4,109.6 	"/>
	<polygon class="st1" points="68.4,109.6 42.9,135.1 42.9,141.1 58.5,138.9 62.9,154.1 77.3,147.6 79.7,151.2 94.9,136 	"/>
	<polygon class="st2" points="35.6,37.2 49.5,35.3 49.6,21.3 63.4,23.3 67.5,9.9 80.2,15.7 87.9,4 98.5,13.2 109.1,4.1 116.7,15.9 
		129.5,10.1 133.4,23.6 147.3,21.7 147.2,35.8 161.1,37.8 157.1,51.3 169.9,57.2 162.2,69 172.8,78.2 162.1,87.4 169.7,99.3 
		156.9,105 160.8,118.5 146.8,120.5 146.8,134.5 132.9,132.5 128.8,145.9 116.1,140 108.4,151.8 97.9,142.6 87.2,151.7 79.6,139.9 
		66.8,145.6 62.9,132.1 49,134.1 49.1,120 35.2,117.9 39.2,104.5 26.5,98.6 34.1,86.8 23.5,77.5 34.2,68.4 26.6,56.5 39.4,50.7 	"/>
	<circle class="st1" cx="98.2" cy="77.9" r="58.5"/>
	<circle class="st0" cx="98.2" cy="77.9" r="50.4"/>
	<polygon class="st3" points="124.2,44.5 72.1,44.5 55.1,70.5 98.2,121.7 141.2,70.5 	"/>
	<g>
		<polygon class="st4" points="97.8,44.5 72.1,44.5 55.1,70.5 98.2,121.7 99.3,120.3 84.3,69.7 		"/>
		<path class="st4" d="M172.1,13.6c-4.7,6-11.5,7.1-13,7.3c1.5,0.2,8.3,1.3,13,7.3c3.3,4.2,3.9,8.7,4.1,10.6
			c0.1-1.9,0.7-6.3,4.1-10.6c4.7-6,11.5-7.1,13-7.3c-1.5-0.2-8.3-1.3-13-7.3c-3.3-4.2-3.9-8.7-4.1-10.6
			C176.1,4.9,175.4,9.4,172.1,13.6z"/>
		<path class="st4" d="M24.2,13.6c4.7,6,11.5,7.1,13,7.3c-1.5,0.2-8.3,1.3-13,7.3c-3.3,4.2-3.9,8.7-4.1,10.6
			c-0.1-1.9-0.7-6.3-4.1-10.6c-4.7-6-11.5-7.1-13-7.3c1.5-0.2,8.3-1.3,13-7.3C19.4,9.4,20,4.9,20.1,3C20.3,4.9,20.9,9.4,24.2,13.6z"
			/>
		<path class="st4" d="M102.2,167.3c4.7,6,11.5,7.1,13,7.3c-1.5,0.2-8.3,1.3-13,7.3c-3.3,4.2-3.9,8.7-4.1,10.6
			c-0.1-1.9-0.7-6.3-4.1-10.6c-4.7-6-11.5-7.1-13-7.3c1.5-0.2,8.3-1.3,13-7.3c3.3-4.2,3.9-8.7,4.1-10.6
			C98.3,158.6,98.9,163,102.2,167.3z"/>
	</g>
	<path d="M150.3,127.7c-0.1-0.1-0.3-0.3-0.5-0.4l0-4.2l11.3-1.6c0.9-0.1,1.7-0.6,2.1-1.4c0.5-0.7,0.6-1.7,0.4-2.5l-3.2-11l10.4-4.7
		c0.8-0.4,1.4-1.1,1.7-1.9c0.3-0.8,0.1-1.8-0.3-2.5l-6.1-9.6l8.6-7.4c0.7-0.6,1.1-1.4,1.1-2.3c0-0.9-0.4-1.7-1-2.3l-8.6-7.5l6.2-9.6
		c0.5-0.7,0.6-1.7,0.4-2.5c-0.2-0.8-0.8-1.5-1.6-1.9l-10.3-4.8l3.3-10.9c0.3-0.8,0.1-1.8-0.3-2.5c-0.5-0.7-1.2-1.2-2.1-1.4
		l-11.3-1.7l0-11.4c0-0.9-0.4-1.7-1-2.3c-0.7-0.6-1.5-0.8-2.4-0.7l-11.3,1.6l-3.2-11c-0.2-0.8-0.8-1.5-1.6-1.9
		C130,7,129,7,128.2,7.4L117.8,12l-6.1-9.6c-0.5-0.7-1.2-1.2-2.1-1.4c-0.9-0.1-1.8,0.1-2.4,0.7l-8.7,7.4l-8.6-7.5
		c-0.7-0.6-1.5-0.8-2.4-0.7c-0.9,0.1-1.7,0.6-2.1,1.4l-6.2,9.6L68.8,7.1c-0.8-0.4-1.7-0.4-2.5,0c-0.8,0.4-1.4,1.1-1.7,1.9l-3.3,10.9
		L50,18.2c-0.9-0.1-1.8,0.1-2.4,0.7c-0.7,0.6-1.1,1.4-1.1,2.3l-0.1,11.4l-11.3,1.6c-0.9,0.1-1.7,0.6-2.1,1.4
		c-0.5,0.7-0.6,1.7-0.4,2.5l3.2,11l-10.4,4.7c-0.8,0.4-1.4,1.1-1.7,1.9c-0.3,0.8-0.1,1.8,0.3,2.5l6.1,9.6l-8.6,7.4
		c-0.7,0.6-1.1,1.4-1.1,2.3c0,0.9,0.4,1.7,1,2.3l8.6,7.5l-6.2,9.6c-0.5,0.7-0.6,1.7-0.4,2.5c0.2,0.8,0.8,1.5,1.6,1.9l10.3,4.8
		l-3.3,10.9c-0.3,0.8-0.1,1.8,0.3,2.5c0.5,0.7,1.2,1.2,2.1,1.4l11.3,1.7l0,5.1c-0.1,0.1-0.3,0.2-0.4,0.3l-8.9,8.9
		c-1.2,1.2-1.2,3.1,0,4.3c0.6,0.6,1.4,0.9,2.2,0.9c0.8,0,1.6-0.3,2.2-0.9l5.5-5.5c0.1,0.2,0.3,0.4,0.5,0.6c0.7,0.6,1.5,0.8,2.4,0.7
		l11.3-1.6l3.2,11c0.2,0.8,0.8,1.5,1.6,1.9c0.8,0.4,1.7,0.4,2.5,0l10.4-4.7l1.7,2.7l-41,41l-1.7-17.7c-0.1-1.5-1.3-2.6-2.7-2.7
		l-17.7-1.7l13.7-13.7c1.2-1.2,1.2-3.1,0-4.3c-1.2-1.2-3.1-1.2-4.3,0L8.2,165.5c-0.8,0.8-1.1,2.1-0.7,3.2c0.4,1.1,1.4,1.9,2.6,2
		l21.6,2.1l2.1,21.6c0.2,2.5,3.4,3.7,5.2,1.9l44.6-44.6l1.1,1.7c0.5,0.7,1.2,1.2,2.1,1.4c0.9,0.1,1.8-0.1,2.4-0.7l8.7-7.4l8.6,7.5
		c0.6,0.5,1.3,0.8,2,0.8c0.1,0,0.3,0,0.4,0c0.9-0.1,1.7-0.6,2.1-1.4l1.4-2.2l44.9,44.9c1.8,1.8,5,0.6,5.2-1.9l2.1-21.6l21.6-2.1
		c1.2-0.1,2.2-0.9,2.6-2c0.4-1.1,0.1-2.4-0.7-3.2L150.3,127.7z M107.8,147.2l-7.9-6.9c-0.6-0.5-1.3-0.8-2-0.8c-0.7,0-1.4,0.2-2,0.7
		l-8,6.9l-0.5-0.8c0-0.7-0.3-1.4-0.9-1.9c-0.2-0.2-0.4-0.4-0.7-0.5l-3.6-5.7c-0.8-1.3-2.4-1.8-3.8-1.1l-9.6,4.3l-2.9-10.1
		c-0.4-1.5-1.8-2.4-3.3-2.2l-10.4,1.4l0-10.5c0-1.5-1.1-2.8-2.6-3l-10.4-1.6l3-10.1c0.4-1.5-0.3-3-1.6-3.6l-9.6-4.4l5.7-8.8
		c0.8-1.3,0.6-3-0.5-3.9l-7.9-6.9l8-6.9c1.1-1,1.4-2.7,0.6-3.9l-5.6-8.9l9.6-4.3c1.4-0.6,2.1-2.2,1.7-3.6l-2.9-10.1l10.4-1.5
		c1.5-0.2,2.6-1.5,2.6-3l0.1-10.5L63,26.3c1.5,0.2,2.9-0.7,3.4-2.1l3-10.1l9.6,4.4c1.4,0.6,3,0.2,3.8-1.1l5.7-8.8l7.9,6.9
		c1.1,1,2.8,1,4,0l8-6.9l5.7,8.9c0.8,1.3,2.4,1.8,3.8,1.1l9.6-4.3l2.9,10.1c0.4,1.5,1.8,2.4,3.3,2.2l10.4-1.4l0,10.5
		c0,1.5,1.1,2.8,2.6,3l10.4,1.6l-3,10.1c-0.4,1.5,0.3,3,1.6,3.6l9.6,4.4l-5.7,8.8c-0.8,1.3-0.6,3,0.5,3.9l7.9,6.9l-8,6.9
		c-1.1,1-1.4,2.7-0.6,3.9l5.6,8.9l-9.6,4.3c-1.4,0.6-2.1,2.2-1.7,3.6l2.9,10.1l-10.4,1.5c-1.5,0.2-2.6,1.5-2.6,3l-0.1,10.5
		l-10.4-1.5c-1.5-0.2-2.9,0.7-3.4,2.1l-3,10.1l-9.6-4.4c-1.4-0.6-3-0.2-3.8,1.1L107.8,147.2z M161.5,166.9c-1.5,0.1-2.6,1.3-2.7,2.7
		l-1.7,17.7l-41.3-41.3l1.4-2.2l10.4,4.8c0.8,0.4,1.7,0.4,2.5,0c0.8-0.4,1.4-1.1,1.7-1.9l3.3-10.9l11.3,1.7c0.9,0.1,1.8-0.1,2.4-0.7
		c0.4-0.3,0.7-0.8,0.9-1.2l29.6,29.6L161.5,166.9z"/>
	<path d="M153.4,105.2c0.7-1.5,0.1-3.3-1.4-4.1c-1.5-0.7-3.3-0.1-4.1,1.4c-9.4,19-28.5,30.9-49.7,30.9c-30.6,0-55.5-24.9-55.5-55.5
		s24.9-55.5,55.5-55.5s55.5,24.9,55.5,55.5c0,3.6-0.3,7.2-1,10.7c-0.3,1.7,0.8,3.3,2.4,3.6c1.7,0.3,3.3-0.8,3.6-2.4
		c0.8-3.9,1.2-7.9,1.2-11.9c0-34-27.6-61.6-61.6-61.6S36.6,43.9,36.6,77.9s27.6,61.6,61.6,61.6c11.7,0,23.1-3.3,32.9-9.5
		C140.6,123.9,148.3,115.3,153.4,105.2z"/>
	<path d="M124.2,41.5h-52c-1,0-2,0.5-2.5,1.4l-17.1,26c-0.7,1.1-0.7,2.6,0.2,3.6l43.1,51.2c0.6,0.7,1.4,1.1,2.3,1.1s1.8-0.4,2.3-1.1
		l43.1-51.2c0.9-1,1-2.5,0.2-3.6l-17.1-26C126.2,42,125.2,41.5,124.2,41.5z M71.6,50.8l8.4,15.8H61.3L71.6,50.8z M107.2,72.8
		l-9.1,34.5l-9.1-34.5H107.2z M90.2,66.7l7.9-14.9l7.9,14.9H90.2z M102.8,47.6h16.4l-8,15.6L102.8,47.6z M85.2,63.2l-8.4-15.7h16.7
		L85.2,63.2z M82.8,72.8l9.9,37.8L60.9,72.8H82.8z M113.5,72.8h21.9l-31.8,37.8L113.5,72.8z M116.2,66.7l8.3-16.1l10.6,16.1H116.2z"
		/>
	<path d="M193.7,17.9c-2.1-0.3-7.3-1.4-11-6.2c-2.6-3.4-3.3-7-3.4-8.9c-0.1-1.6-1.4-2.8-3-2.8s-2.9,1.2-3,2.8
		c-0.1,1.9-0.8,5.5-3.4,8.9c-3.7,4.7-8.9,5.9-11,6.2c-1.5,0.2-2.6,1.5-2.6,3s1.1,2.8,2.6,3c2.1,0.3,7.3,1.4,11,6.2
		c2.6,3.4,3.3,7,3.4,8.9c0.1,1.6,1.4,2.8,3,2.8s2.9-1.2,3-2.8c0.1-1.9,0.8-5.5,3.4-8.9c3.7-4.7,8.9-5.9,11-6.2
		c1.5-0.2,2.6-1.5,2.6-3S195.2,18.1,193.7,17.9z M177.9,26.4c-0.6,0.8-1.2,1.6-1.7,2.4c-0.5-0.8-1-1.6-1.7-2.4
		c-1.9-2.4-4.1-4.2-6.2-5.4c2.1-1.2,4.3-3,6.2-5.4l0,0c0.6-0.8,1.2-1.6,1.7-2.4c0.5,0.8,1,1.6,1.7,2.4c1.9,2.4,4.1,4.2,6.2,5.4
		C182,22.2,179.8,23.9,177.9,26.4z"/>
	<path d="M13.7,30.1c2.6,3.4,3.3,7,3.4,8.9c0.1,1.6,1.4,2.8,3,2.8s2.9-1.2,3-2.8c0.1-1.9,0.8-5.5,3.4-8.9c3.7-4.7,8.9-5.9,11-6.2
		c1.5-0.2,2.6-1.5,2.6-3s-1.1-2.8-2.6-3c-2.1-0.3-7.3-1.4-11-6.2c-2.6-3.4-3.3-7-3.4-8.9C23,1.2,21.7,0,20.1,0s-2.9,1.2-3,2.8
		c-0.1,1.9-0.8,5.5-3.4,8.9c-3.7,4.7-8.9,5.9-11,6.2c-1.5,0.2-2.6,1.5-2.6,3s1.1,2.8,2.6,3C4.7,24.2,9.9,25.4,13.7,30.1z M18.5,15.5
		c0.6-0.8,1.2-1.6,1.7-2.4c0.5,0.8,1,1.6,1.7,2.4l0,0c1.9,2.4,4.1,4.2,6.2,5.4c-2.1,1.2-4.3,3-6.2,5.4c-0.6,0.8-1.2,1.6-1.7,2.4
		c-0.5-0.8-1-1.6-1.7-2.4c-1.9-2.4-4.1-4.2-6.2-5.4C14.3,19.7,16.5,17.9,18.5,15.5z"/>
	<path d="M115.6,171.5c-2.1-0.3-7.3-1.4-11-6.2c-2.6-3.4-3.3-7-3.4-8.9c-0.1-1.6-1.4-2.8-3-2.8s-2.9,1.2-3,2.8
		c-0.1,1.9-0.8,5.5-3.4,8.9c-3.7,4.7-8.9,5.9-11,6.2c-1.5,0.2-2.6,1.5-2.6,3s1.1,2.8,2.6,3c2.1,0.3,7.3,1.4,11,6.2
		c2.6,3.4,3.3,7,3.4,8.9c0.1,1.6,1.4,2.8,3,2.8s2.9-1.2,3-2.8c0.1-1.9,0.8-5.5,3.4-8.9c3.7-4.7,8.9-5.9,11-6.2
		c1.5-0.2,2.6-1.5,2.6-3S117.1,171.8,115.6,171.5z M99.8,180c-0.6,0.8-1.2,1.6-1.7,2.4c-0.5-0.8-1-1.6-1.7-2.4
		c-1.9-2.4-4.1-4.2-6.2-5.4c2.1-1.2,4.3-3,6.2-5.4c0.6-0.8,1.2-1.6,1.7-2.4c0.5,0.8,1,1.6,1.7,2.4l0,0c1.9,2.4,4.1,4.2,6.2,5.4
		C103.9,175.8,101.7,177.6,99.8,180z"/>
</g>
</svg>
