<?xml version="1.0" encoding="utf-8"?>
<!-- Generator: Adobe Illustrator 21.0.0, SVG Export Plug-In . SVG Version: 6.00 Build 0)  -->
<svg version="1.1" id="Capa_1" xmlns="http://www.w3.org/2000/svg" xmlns:xlink="http://www.w3.org/1999/xlink" x="0px" y="0px"
	 viewBox="0 0 473.9443 71.9775" style="enable-background:new 0 0 473.9443 71.9775;" xml:space="preserve">
<g>
	<g>
		<path style="fill:#B0BEC5;" d="M11.5996,51.9795c-0.3999,0-0.77-0.1602-1.0596-0.4395c-0.1401-0.1406-0.25-0.3105-0.3203-0.4902
			c-0.0801-0.1797-0.1201-0.3701-0.1201-0.5703c0-0.3994,0.1602-0.7793,0.4404-1.0596c0.0698-0.0703,0.1499-0.1396,0.23-0.1904
			c0.0796-0.0498,0.1699-0.0996,0.2598-0.1396s0.1899-0.0703,0.2803-0.0801c0.4897-0.0996,1.0098,0.0596,1.3599,0.4102
			c0.27,0.2695,0.4297,0.6602,0.4297,1.0596c0,0.4004-0.1499,0.7803-0.4297,1.0605c-0.1499,0.1396-0.3101,0.25-0.4902,0.3193
			C12,51.9395,11.7998,51.9795,11.5996,51.9795z"/>
		<path style="fill:none;stroke:#B0BEC5;stroke-width:3;stroke-linecap:round;stroke-miterlimit:10;stroke-dasharray:0,9.2099;" d="
			M43.8388,58.7822"/>
		<path style="fill:#B0BEC5;" d="M48.4399,60.2803c-0.1899,0-0.3901-0.04-0.5703-0.1104c-0.1797-0.0801-0.3496-0.1904-0.4897-0.3301
			s-0.25-0.2998-0.3198-0.4805c-0.0801-0.1797-0.1201-0.3799-0.1201-0.5791c0-0.0908,0.0098-0.1904,0.0298-0.29
			c0.02-0.1006,0.0503-0.1904,0.0903-0.2803c0.0396-0.0898,0.0796-0.1797,0.1396-0.2598c0.0503-0.0801,0.1104-0.1602,0.1802-0.2305
			s0.1499-0.1299,0.23-0.1895c0.0801-0.0508,0.1699-0.1006,0.2598-0.1309c0.0903-0.04,0.1904-0.0693,0.2803-0.0898
			c0.4897-0.0996,1.0098,0.0605,1.3501,0.4102c0.0698,0.0703,0.1396,0.1504,0.1899,0.2305
			c0.0601,0.0801,0.1001,0.1699,0.1396,0.2598c0.04,0.0898,0.0703,0.1797,0.0801,0.2803c0.02,0.0996,0.0303,0.1992,0.0303,0.29
			c0,0.1992-0.0303,0.3994-0.1104,0.5791c-0.0698,0.1807-0.1797,0.3408-0.3296,0.4805c-0.1401,0.1396-0.3003,0.25-0.48,0.3301
			C48.8398,60.2402,48.6396,60.2803,48.4399,60.2803z"/>
		<path style="fill:#B0BEC5;" d="M46.9399,65.1299c0-0.8301,0.6797-1.5,1.5-1.5l0,0c0.8301,0,1.5,0.6699,1.5,1.5l0,0
			c0,0.8301-0.6699,1.5-1.5,1.5l0,0C47.6196,66.6299,46.9399,65.96,46.9399,65.1299z"/>
	</g>
</g>
<g>
	
		<linearGradient id="SVGID_1_" gradientUnits="userSpaceOnUse" x1="508.21" y1="52.0889" x2="53.5969" y2="52.0889" gradientTransform="matrix(1 0 0 -1 0 74)">
		<stop  offset="0" style="stop-color:#FFFFFF"/>
		<stop  offset="1" style="stop-color:#B0BEC5"/>
	</linearGradient>
	<rect y="1" style="fill:url(#SVGID_1_);" width="473.9443" height="41.8222"/>
	<rect y="1" style="fill:#C1272D;" width="7.4248" height="41.8222"/>
</g>
<rect x="13.9443" y="13.9775" style="fill:none;" width="468" height="13"/>
<text transform="matrix(1 0 0 1 13.9443 25.4335)" style="font-family:'ArialMT'; font-size:16px;">Agiliza los tiempos de desarrollo de un sistema de información.</text>
<g>
	<g>
		<path style="fill:#B0BEC5;" d="M11.5996,59.2803c-0.3999,0-0.77-0.1504-1.0596-0.4404c-0.1401-0.1396-0.25-0.2998-0.3203-0.4805
			c-0.0801-0.1797-0.1201-0.3799-0.1201-0.5791c0-0.1006,0.0103-0.1904,0.0303-0.29c0.02-0.1006,0.0498-0.1904,0.0898-0.2803
			s0.0801-0.1797,0.1401-0.2598c0.0498-0.0801,0.1201-0.1602,0.1802-0.2305c0.0698-0.0703,0.1499-0.1299,0.23-0.1895
			c0.0796-0.0508,0.1699-0.1006,0.2598-0.1309c0.0898-0.04,0.1899-0.0693,0.2803-0.0898c0.1997-0.04,0.3999-0.04,0.5898,0
			c0.0898,0.0205,0.1899,0.0498,0.2798,0.0898c0.0903,0.0303,0.1802,0.0801,0.2603,0.1309
			c0.0801,0.0596,0.1597,0.1191,0.2197,0.1895c0.2803,0.2803,0.4502,0.6699,0.4502,1.0605c0,0.1992-0.04,0.3994-0.1201,0.5791
			c-0.0698,0.1807-0.1797,0.3408-0.3301,0.4805C12.3799,59.1299,12.0098,59.2803,11.5996,59.2803z"/>
		<path style="fill:#B0BEC5;" d="M37.73,57.7803c0-0.8301,0.6699-1.5,1.5-1.5l0,0c0.8301,0,1.5,0.6699,1.5,1.5l0,0
			c0,0.8291-0.6699,1.5-1.5,1.5l0,0C38.3999,59.2803,37.73,58.6094,37.73,57.7803z M28.52,57.7803c0-0.8301,0.6797-1.5,1.5-1.5l0,0
			c0.8296,0,1.5,0.6699,1.5,1.5l0,0c0,0.8291-0.6704,1.5-1.5,1.5l0,0C29.1997,59.2803,28.52,58.6094,28.52,57.7803z
			 M19.3198,57.7803c0-0.8301,0.6699-1.5,1.4902-1.5l0,0c0.8296,0,1.5,0.6699,1.5,1.5l0,0c0,0.8291-0.6704,1.5-1.5,1.5l0,0
			C19.9897,59.2803,19.3198,58.6094,19.3198,57.7803z"/>
		<path style="fill:#B0BEC5;" d="M48.4399,71.9795c-0.3999,0-0.77-0.1602-1.0601-0.4395c-0.1401-0.1406-0.25-0.3105-0.3198-0.4902
			c-0.0801-0.1797-0.1201-0.3701-0.1201-0.5703c0-0.3994,0.1597-0.79,0.4399-1.0596c0.3501-0.3506,0.8701-0.5098,1.3599-0.4102
			c0.0898,0.0205,0.1899,0.0498,0.2803,0.0801c0.0898,0.04,0.1797,0.0898,0.2598,0.1396c0.0801,0.0605,0.1602,0.1201,0.23,0.1904
			c0.0601,0.0703,0.1299,0.1396,0.1802,0.2295c0.0601,0.0801,0.1001,0.1602,0.1396,0.25c0.04,0.0908,0.0703,0.1904,0.0903,0.2803
			c0.02,0.1006,0.0298,0.2002,0.0298,0.2998c0,0.2002-0.04,0.3906-0.1201,0.5703c-0.0698,0.1797-0.1797,0.3496-0.3198,0.4902
			C49.2197,71.8193,48.8398,71.9795,48.4399,71.9795z"/>
	</g>
</g>
<g>
	
		<linearGradient id="SVGID_2_" gradientUnits="userSpaceOnUse" x1="508.21" y1="53.0889" x2="53.5969" y2="53.0889" gradientTransform="matrix(1 0 0 -1 0 74)">
		<stop  offset="0" style="stop-color:#FFFFFF"/>
		<stop  offset="1" style="stop-color:#B0BEC5"/>
	</linearGradient>
	<rect style="fill:url(#SVGID_2_);" width="473.9443" height="41.8222"/>
	<rect style="fill:#C1272D;" width="7.4248" height="41.8222"/>
</g>
<g>
	<path d="M13.9211,24.4338l4.3984-11.4531h1.6328l4.6875,11.4531h-1.7266l-1.3359-3.4688h-4.7891l-1.2578,3.4688H13.9211z
		 M17.2258,19.7306h3.8828l-1.1953-3.1719c-0.3643-0.9639-0.6357-1.7549-0.8125-2.375c-0.1455,0.7344-0.3516,1.4639-0.6172,2.1875
		L17.2258,19.7306z"/>
	<path d="M25.4133,25.1213l1.3672,0.2031c0.0576,0.4219,0.2158,0.7295,0.4766,0.9219c0.3486,0.2607,0.8252,0.3906,1.4297,0.3906
		c0.6514,0,1.1533-0.1299,1.5078-0.3906s0.5938-0.625,0.7188-1.0938c0.0732-0.2861,0.1064-0.8877,0.1016-1.8047
		c-0.6143,0.7236-1.3799,1.0859-2.2969,1.0859c-1.1406,0-2.0234-0.4111-2.6484-1.2344s-0.9375-1.8096-0.9375-2.9609
		c0-0.792,0.1436-1.5225,0.4297-2.1914s0.7021-1.1865,1.2461-1.5508s1.1836-0.5469,1.918-0.5469
		c0.9795,0,1.7861,0.3955,2.4219,1.1875v-1h1.2969v7.1719c0,1.292-0.1318,2.207-0.3945,2.7461
		c-0.2627,0.5391-0.6797,0.9648-1.25,1.2773s-1.2725,0.4688-2.1055,0.4688c-0.9893,0-1.7891-0.2227-2.3984-0.668
		S25.3928,26.0168,25.4133,25.1213z M26.5774,20.1369c0,1.0889,0.2158,1.8828,0.6484,2.3828s0.9736,0.75,1.625,0.75
		c0.6455,0,1.1875-0.249,1.625-0.7461s0.6563-1.2773,0.6563-2.3398c0-1.0156-0.2256-1.7813-0.6758-2.2969
		s-0.9932-0.7734-1.6289-0.7734c-0.625,0-1.1563,0.2539-1.5938,0.7617S26.5774,19.1369,26.5774,20.1369z"/>
	<path d="M34.5774,14.5978v-1.6172h1.4063v1.6172H34.5774z M34.5774,24.4338v-8.2969h1.4063v8.2969H34.5774z"/>
	<path d="M38.093,24.4338V12.9806h1.4063v11.4531L38.093,24.4338L38.093,24.4338z"/>
	<path d="M41.6868,14.5978v-1.6172h1.4063v1.6172H41.6868z M41.6868,24.4338v-8.2969h1.4063v8.2969H41.6868z"/>
	<path d="M44.4914,24.4338v-1.1406l5.2813-6.0625c-0.5986,0.0313-1.1279,0.0469-1.5859,0.0469H44.804V16.137h6.7813v0.9297
		l-4.4922,5.2656l-0.8672,0.9609c0.6299-0.0469,1.2217-0.0703,1.7734-0.0703h3.8359v1.2109H44.4914z"/>
	<path d="M58.6477,23.4103c-0.5205,0.4424-1.0225,0.7549-1.5039,0.9375s-0.999,0.2734-1.5508,0.2734
		c-0.9111,0-1.6123-0.2227-2.1016-0.668s-0.7344-1.0146-0.7344-1.707c0-0.4063,0.0928-0.7773,0.2773-1.1133
		s0.4268-0.6055,0.7266-0.8086s0.6367-0.3564,1.0117-0.4609c0.2764-0.0732,0.6924-0.1436,1.25-0.2109
		c1.1357-0.1357,1.9717-0.2969,2.5078-0.4844c0.0049-0.1924,0.0078-0.3154,0.0078-0.3672c0-0.5732-0.1328-0.9766-0.3984-1.2109
		c-0.3594-0.3174-0.8936-0.4766-1.6016-0.4766c-0.6611,0-1.1494,0.1162-1.4648,0.3477s-0.5479,0.6416-0.6992,1.2305l-1.375-0.1875
		c0.125-0.5889,0.3311-1.0635,0.6172-1.4258s0.7002-0.6406,1.2422-0.8359s1.1689-0.293,1.8828-0.293
		c0.708,0,1.2842,0.083,1.7266,0.25s0.7686,0.376,0.9766,0.6289s0.3545,0.5713,0.4375,0.957
		c0.0469,0.2393,0.0703,0.6719,0.0703,1.2969v1.875c0,1.3076,0.0303,2.1338,0.0898,2.4805s0.1787,0.6787,0.3555,0.9961h-1.4688
		C58.7834,24.1418,58.6897,23.8009,58.6477,23.4103z M58.5305,20.2697c-0.5107,0.208-1.2764,0.3857-2.2969,0.5313
		c-0.5781,0.083-0.9873,0.1768-1.2266,0.2813s-0.4248,0.2568-0.5547,0.457s-0.1953,0.4229-0.1953,0.668
		c0,0.375,0.1416,0.6875,0.4258,0.9375s0.6992,0.375,1.2461,0.375c0.542,0,1.0234-0.1182,1.4453-0.3555s0.7314-0.5615,0.9297-0.9727
		c0.1514-0.3174,0.2266-0.7861,0.2266-1.4063V20.2697z"/>
	<path d="M66.5461,24.4338V12.9806h1.4063v11.4531L66.5461,24.4338L66.5461,24.4338z"/>
	<path d="M69.6086,20.2853c0-1.5361,0.4268-2.6748,1.2813-3.4141c0.7139-0.6143,1.583-0.9219,2.6094-0.9219
		c1.1406,0,2.0732,0.374,2.7969,1.1211s1.0859,1.7803,1.0859,3.0977c0,1.0674-0.1602,1.9072-0.4805,2.5195
		s-0.7861,1.0869-1.3984,1.4258s-1.2803,0.5078-2.0039,0.5078c-1.1611,0-2.1006-0.3721-2.8164-1.1172
		S69.6086,21.6867,69.6086,20.2853z M71.0539,20.2853c0,1.0625,0.2314,1.8584,0.6953,2.3867s1.0469,0.793,1.75,0.793
		c0.6982,0,1.2783-0.2656,1.7422-0.7969s0.6953-1.3408,0.6953-2.4297c0-1.0264-0.2334-1.8037-0.6992-2.332
		s-1.0459-0.793-1.7383-0.793c-0.7031,0-1.2861,0.2627-1.75,0.7891S71.0539,19.2228,71.0539,20.2853z"/>
	<path d="M78.468,21.9572l1.3906-0.2188c0.0781,0.5576,0.2959,0.9844,0.6523,1.2813s0.8555,0.4453,1.4961,0.4453
		c0.6455,0,1.125-0.1318,1.4375-0.3945s0.4688-0.5713,0.4688-0.9258c0-0.3174-0.1377-0.5674-0.4141-0.75
		c-0.1924-0.125-0.6719-0.2842-1.4375-0.4766c-1.0313-0.2607-1.7461-0.4854-2.1445-0.6758s-0.7002-0.4531-0.9063-0.7891
		s-0.3086-0.707-0.3086-1.1133c0-0.3701,0.085-0.7119,0.2539-1.0273s0.3994-0.5771,0.6914-0.7852
		c0.2188-0.1611,0.5166-0.2979,0.8945-0.4102s0.7822-0.168,1.2148-0.168c0.6514,0,1.2227,0.0938,1.7148,0.2813
		s0.8555,0.4414,1.0898,0.7617s0.3955,0.749,0.4844,1.2852l-1.375,0.1875c-0.0625-0.4268-0.2432-0.7607-0.543-1
		s-0.7227-0.3594-1.2695-0.3594c-0.6455,0-1.1064,0.1064-1.3828,0.3203s-0.4141,0.4639-0.4141,0.75
		c0,0.1826,0.0576,0.3467,0.1719,0.4922c0.1143,0.1514,0.2939,0.2764,0.5391,0.375c0.1406,0.0518,0.5547,0.1719,1.2422,0.3594
		c0.9951,0.2656,1.6885,0.4834,2.082,0.6523s0.7021,0.415,0.9258,0.7383s0.3359,0.7236,0.3359,1.2031
		c0,0.4688-0.1367,0.9102-0.4102,1.3242s-0.668,0.7344-1.1836,0.9609s-1.0986,0.3398-1.75,0.3398
		c-1.0781,0-1.8994-0.2236-2.4648-0.6719S78.6243,22.8371,78.468,21.9572z"/>
	<path d="M94.5461,23.1759l0.2031,1.2422c-0.3955,0.083-0.75,0.125-1.0625,0.125c-0.5107,0-0.9063-0.0811-1.1875-0.2422
		s-0.4795-0.374-0.5938-0.6367s-0.1719-0.8164-0.1719-1.6602v-4.7734h-1.0313v-1.0938h1.0313v-2.0547l1.3984-0.8438v2.8984h1.4141
		v1.0938h-1.4141v4.8516c0,0.4014,0.0244,0.6592,0.0742,0.7734s0.1299,0.2061,0.2422,0.2734s0.2725,0.1016,0.4805,0.1016
		C94.0852,23.2306,94.2912,23.2121,94.5461,23.1759z"/>
	<path d="M95.9289,14.5978v-1.6172h1.4063v1.6172H95.9289z M95.9289,24.4338v-8.2969h1.4063v8.2969H95.9289z"/>
	<path d="M105.1555,21.7619l1.4531,0.1797c-0.2295,0.8486-0.6533,1.5078-1.2734,1.9766s-1.4111,0.7031-2.375,0.7031
		c-1.2139,0-2.1758-0.374-2.8867-1.1211s-1.0664-1.7959-1.0664-3.1445c0-1.3955,0.3594-2.4795,1.0781-3.25
		s1.6514-1.1563,2.7969-1.1563c1.1094,0,2.0156,0.3779,2.7188,1.1328s1.0547,1.8174,1.0547,3.1875
		c0,0.083-0.0029,0.208-0.0078,0.375h-6.1875c0.0518,0.9111,0.3096,1.6094,0.7734,2.0938s1.042,0.7266,1.7344,0.7266
		c0.5156,0,0.9561-0.1357,1.3203-0.4063S104.9416,22.3556,105.1555,21.7619z M100.5383,19.4884h4.6328
		c-0.0625-0.6982-0.2393-1.2217-0.5313-1.5703c-0.4482-0.542-1.0283-0.8125-1.7422-0.8125c-0.6455,0-1.1885,0.2158-1.6289,0.6484
		S100.5852,18.7648,100.5383,19.4884z"/>
	<path d="M108.3743,24.4338v-8.2969h1.2578v1.1641c0.2607-0.4063,0.6064-0.7334,1.0391-0.9805s0.9248-0.3711,1.4766-0.3711
		c0.6143,0,1.1182,0.1279,1.5117,0.3828s0.6709,0.6123,0.832,1.0703c0.6563-0.9688,1.5107-1.4531,2.5625-1.4531
		c0.8232,0,1.4561,0.2275,1.8984,0.6836s0.6641,1.1572,0.6641,2.1055v5.6953h-1.3984v-5.2266c0-0.5625-0.0459-0.9678-0.1367-1.2148
		s-0.2568-0.4463-0.4961-0.5977s-0.5205-0.2266-0.8438-0.2266c-0.583,0-1.0674,0.1943-1.4531,0.582s-0.5781,1.0088-0.5781,1.8633
		v4.8203h-1.4063v-5.3906c0-0.625-0.1143-1.0938-0.3438-1.4063s-0.6045-0.4688-1.125-0.4688c-0.3955,0-0.7617,0.1045-1.0977,0.3125
		s-0.5791,0.5127-0.7305,0.9141s-0.2266,0.9795-0.2266,1.7344v4.3047L108.3743,24.4338L108.3743,24.4338z"/>
	<path d="M121.7024,27.6134V16.1369h1.2813v1.0781c0.3018-0.4219,0.6436-0.7383,1.0234-0.9492s0.8408-0.3164,1.3828-0.3164
		c0.708,0,1.333,0.1826,1.875,0.5469s0.9502,0.8789,1.2266,1.543s0.4141,1.3916,0.4141,2.1836c0,0.8486-0.1523,1.6133-0.457,2.293
		s-0.7471,1.2002-1.3281,1.5625s-1.1914,0.543-1.832,0.543c-0.4688,0-0.8896-0.0986-1.2617-0.2969s-0.6787-0.4482-0.918-0.75v4.0391
		h-1.4064V27.6134z M122.9758,20.3322c0,1.0674,0.2158,1.8564,0.6484,2.3672s0.9561,0.7656,1.5703,0.7656
		c0.625,0,1.1602-0.2646,1.6055-0.793s0.668-1.3477,0.668-2.457c0-1.0576-0.2178-1.8486-0.6523-2.375s-0.9541-0.7891-1.5586-0.7891
		c-0.5986,0-1.1289,0.2803-1.5898,0.8398S122.9758,19.2648,122.9758,20.3322z"/>
	<path d="M130.0774,20.2853c0-1.5361,0.4268-2.6748,1.2813-3.4141c0.7139-0.6143,1.583-0.9219,2.6094-0.9219
		c1.1406,0,2.0732,0.374,2.7969,1.1211s1.0859,1.7803,1.0859,3.0977c0,1.0674-0.1602,1.9072-0.4805,2.5195
		s-0.7861,1.0869-1.3984,1.4258s-1.2803,0.5078-2.0039,0.5078c-1.1611,0-2.1006-0.3721-2.8164-1.1172
		S130.0774,21.6867,130.0774,20.2853z M131.5227,20.2853c0,1.0625,0.2314,1.8584,0.6953,2.3867s1.0469,0.793,1.75,0.793
		c0.6982,0,1.2783-0.2656,1.7422-0.7969s0.6953-1.3408,0.6953-2.4297c0-1.0264-0.2334-1.8037-0.6992-2.332
		s-1.0459-0.793-1.7383-0.793c-0.7031,0-1.2861,0.2627-1.75,0.7891S131.5227,19.2228,131.5227,20.2853z"/>
	<path d="M138.9368,21.9572l1.3906-0.2188c0.0781,0.5576,0.2959,0.9844,0.6523,1.2813s0.8555,0.4453,1.4961,0.4453
		c0.6455,0,1.125-0.1318,1.4375-0.3945s0.4688-0.5713,0.4688-0.9258c0-0.3174-0.1377-0.5674-0.4141-0.75
		c-0.1924-0.125-0.6719-0.2842-1.4375-0.4766c-1.0313-0.2607-1.7461-0.4854-2.1445-0.6758s-0.7002-0.4531-0.9063-0.7891
		s-0.3086-0.707-0.3086-1.1133c0-0.3701,0.085-0.7119,0.2539-1.0273s0.3994-0.5771,0.6914-0.7852
		c0.2188-0.1611,0.5166-0.2979,0.8945-0.4102s0.7822-0.168,1.2148-0.168c0.6514,0,1.2227,0.0938,1.7148,0.2813
		s0.8555,0.4414,1.0898,0.7617s0.3955,0.749,0.4844,1.2852l-1.375,0.1875c-0.0625-0.4268-0.2432-0.7607-0.543-1
		s-0.7227-0.3594-1.2695-0.3594c-0.6455,0-1.1064,0.1064-1.3828,0.3203s-0.4141,0.4639-0.4141,0.75
		c0,0.1826,0.0576,0.3467,0.1719,0.4922c0.1143,0.1514,0.2939,0.2764,0.5391,0.375c0.1406,0.0518,0.5547,0.1719,1.2422,0.3594
		c0.9951,0.2656,1.6885,0.4834,2.082,0.6523s0.7021,0.415,0.9258,0.7383s0.3359,0.7236,0.3359,1.2031
		c0,0.4688-0.1367,0.9102-0.4102,1.3242s-0.668,0.7344-1.1836,0.9609s-1.0986,0.3398-1.75,0.3398
		c-1.0781,0-1.8994-0.2236-2.4648-0.6719S139.093,22.8371,138.9368,21.9572z"/>
	<path d="M157.3274,24.4338v-1.0469c-0.5264,0.8232-1.2998,1.2344-2.3203,1.2344c-0.6611,0-1.2695-0.1826-1.8242-0.5469
		s-0.9844-0.874-1.2891-1.5273s-0.457-1.4053-0.457-2.2539c0-0.8281,0.1377-1.5791,0.4141-2.2539s0.6904-1.1914,1.2422-1.5508
		s1.1689-0.5391,1.8516-0.5391c0.5,0,0.9453,0.1055,1.3359,0.3164s0.708,0.4854,0.9531,0.8242v-4.1094h1.3984v11.4531h-1.3047
		V24.4338z M152.8821,20.2931c0,1.0625,0.2236,1.8564,0.6719,2.3828s0.9766,0.7891,1.5859,0.7891
		c0.6143,0,1.1367-0.251,1.5664-0.7539s0.6445-1.2695,0.6445-2.3008c0-1.1357-0.2188-1.9688-0.6563-2.5
		s-0.9766-0.7969-1.6172-0.7969c-0.625,0-1.1475,0.2549-1.5664,0.7656S152.8821,19.1945,152.8821,20.2931z"/>
	<path d="M166.5227,21.7619l1.4531,0.1797c-0.2295,0.8486-0.6533,1.5078-1.2734,1.9766s-1.4111,0.7031-2.375,0.7031
		c-1.2139,0-2.1758-0.374-2.8867-1.1211s-1.0664-1.7959-1.0664-3.1445c0-1.3955,0.3594-2.4795,1.0781-3.25
		s1.6514-1.1563,2.7969-1.1563c1.1094,0,2.0156,0.3779,2.7188,1.1328s1.0547,1.8174,1.0547,3.1875
		c0,0.083-0.0029,0.208-0.0078,0.375h-6.1875c0.0518,0.9111,0.3096,1.6094,0.7734,2.0938s1.042,0.7266,1.7344,0.7266
		c0.5156,0,0.9561-0.1357,1.3203-0.4063S166.3088,22.3556,166.5227,21.7619z M161.9055,19.4884h4.6328
		c-0.0625-0.6982-0.2393-1.2217-0.5313-1.5703c-0.4482-0.542-1.0283-0.8125-1.7422-0.8125c-0.6455,0-1.1885,0.2158-1.6289,0.6484
		S161.9524,18.7648,161.9055,19.4884z"/>
	<path d="M179.5696,24.4338v-1.0469c-0.5264,0.8232-1.2998,1.2344-2.3203,1.2344c-0.6611,0-1.2695-0.1826-1.8242-0.5469
		s-0.9844-0.874-1.2891-1.5273s-0.457-1.4053-0.457-2.2539c0-0.8281,0.1377-1.5791,0.4141-2.2539s0.6904-1.1914,1.2422-1.5508
		s1.1689-0.5391,1.8516-0.5391c0.5,0,0.9453,0.1055,1.3359,0.3164s0.708,0.4854,0.9531,0.8242v-4.1094h1.3984v11.4531h-1.3047
		V24.4338z M175.1243,20.2931c0,1.0625,0.2236,1.8564,0.6719,2.3828s0.9766,0.7891,1.5859,0.7891
		c0.6143,0,1.1367-0.251,1.5664-0.7539s0.6445-1.2695,0.6445-2.3008c0-1.1357-0.2188-1.9688-0.6563-2.5
		s-0.9766-0.7969-1.6172-0.7969c-0.625,0-1.1475,0.2549-1.5664,0.7656S175.1243,19.1945,175.1243,20.2931z"/>
	<path d="M188.7649,21.7619l1.4531,0.1797c-0.2295,0.8486-0.6533,1.5078-1.2734,1.9766s-1.4111,0.7031-2.375,0.7031
		c-1.2139,0-2.1758-0.374-2.8867-1.1211s-1.0664-1.7959-1.0664-3.1445c0-1.3955,0.3594-2.4795,1.0781-3.25
		s1.6514-1.1563,2.7969-1.1563c1.1094,0,2.0156,0.3779,2.7188,1.1328s1.0547,1.8174,1.0547,3.1875
		c0,0.083-0.0029,0.208-0.0078,0.375h-6.1875c0.0518,0.9111,0.3096,1.6094,0.7734,2.0938s1.042,0.7266,1.7344,0.7266
		c0.5156,0,0.9561-0.1357,1.3203-0.4063S188.551,22.3556,188.7649,21.7619z M184.1477,19.4884h4.6328
		c-0.0625-0.6982-0.2393-1.2217-0.5313-1.5703c-0.4482-0.542-1.0283-0.8125-1.7422-0.8125c-0.6455,0-1.1885,0.2158-1.6289,0.6484
		S184.1946,18.7648,184.1477,19.4884z"/>
	<path d="M191.4211,21.9572l1.3906-0.2188c0.0781,0.5576,0.2959,0.9844,0.6523,1.2813s0.8555,0.4453,1.4961,0.4453
		c0.6455,0,1.125-0.1318,1.4375-0.3945s0.4688-0.5713,0.4688-0.9258c0-0.3174-0.1377-0.5674-0.4141-0.75
		c-0.1924-0.125-0.6719-0.2842-1.4375-0.4766c-1.0313-0.2607-1.7461-0.4854-2.1445-0.6758s-0.7002-0.4531-0.9063-0.7891
		s-0.3086-0.707-0.3086-1.1133c0-0.3701,0.085-0.7119,0.2539-1.0273s0.3994-0.5771,0.6914-0.7852
		c0.2188-0.1611,0.5166-0.2979,0.8945-0.4102s0.7822-0.168,1.2148-0.168c0.6514,0,1.2227,0.0938,1.7148,0.2813
		s0.8555,0.4414,1.0898,0.7617s0.3955,0.749,0.4844,1.2852l-1.375,0.1875c-0.0625-0.4268-0.2432-0.7607-0.543-1
		s-0.7227-0.3594-1.2695-0.3594c-0.6455,0-1.1064,0.1064-1.3828,0.3203s-0.4141,0.4639-0.4141,0.75
		c0,0.1826,0.0576,0.3467,0.1719,0.4922c0.1143,0.1514,0.2939,0.2764,0.5391,0.375c0.1406,0.0518,0.5547,0.1719,1.2422,0.3594
		c0.9951,0.2656,1.6885,0.4834,2.082,0.6523s0.7021,0.415,0.9258,0.7383s0.3359,0.7236,0.3359,1.2031
		c0,0.4688-0.1367,0.9102-0.4102,1.3242s-0.668,0.7344-1.1836,0.9609s-1.0986,0.3398-1.75,0.3398
		c-1.0781,0-1.8994-0.2236-2.4648-0.6719S191.5774,22.8371,191.4211,21.9572z"/>
	<path d="M205.3977,23.4103c-0.5205,0.4424-1.0225,0.7549-1.5039,0.9375s-0.999,0.2734-1.5508,0.2734
		c-0.9111,0-1.6123-0.2227-2.1016-0.668s-0.7344-1.0146-0.7344-1.707c0-0.4063,0.0928-0.7773,0.2773-1.1133
		s0.4268-0.6055,0.7266-0.8086s0.6367-0.3564,1.0117-0.4609c0.2764-0.0732,0.6924-0.1436,1.25-0.2109
		c1.1357-0.1357,1.9717-0.2969,2.5078-0.4844c0.0049-0.1924,0.0078-0.3154,0.0078-0.3672c0-0.5732-0.1328-0.9766-0.3984-1.2109
		c-0.3594-0.3174-0.8936-0.4766-1.6016-0.4766c-0.6611,0-1.1494,0.1162-1.4648,0.3477s-0.5479,0.6416-0.6992,1.2305l-1.375-0.1875
		c0.125-0.5889,0.3311-1.0635,0.6172-1.4258s0.7002-0.6406,1.2422-0.8359s1.1689-0.293,1.8828-0.293
		c0.708,0,1.2842,0.083,1.7266,0.25s0.7686,0.376,0.9766,0.6289s0.3545,0.5713,0.4375,0.957
		c0.0469,0.2393,0.0703,0.6719,0.0703,1.2969v1.875c0,1.3076,0.0303,2.1338,0.0898,2.4805s0.1787,0.6787,0.3555,0.9961h-1.4688
		C205.5334,24.1418,205.4397,23.8009,205.3977,23.4103z M205.2805,20.2697c-0.5107,0.208-1.2764,0.3857-2.2969,0.5313
		c-0.5781,0.083-0.9873,0.1768-1.2266,0.2813s-0.4248,0.2568-0.5547,0.457s-0.1953,0.4229-0.1953,0.668
		c0,0.375,0.1416,0.6875,0.4258,0.9375s0.6992,0.375,1.2461,0.375c0.542,0,1.0234-0.1182,1.4453-0.3555s0.7314-0.5615,0.9297-0.9727
		c0.1514-0.3174,0.2266-0.7861,0.2266-1.4063L205.2805,20.2697L205.2805,20.2697z"/>
	<path d="M208.8664,24.4338v-8.2969h1.2656v1.2578c0.3232-0.5889,0.6211-0.9766,0.8945-1.1641s0.5742-0.2813,0.9023-0.2813
		c0.4736,0,0.9561,0.1514,1.4453,0.4531l-0.4844,1.3047c-0.3438-0.2031-0.6875-0.3047-1.0313-0.3047
		c-0.3076,0-0.583,0.0928-0.8281,0.2773s-0.4189,0.4414-0.5234,0.7695c-0.1563,0.5-0.2344,1.0469-0.2344,1.6406v4.3438h-1.4061
		V24.4338z"/>
	<path d="M214.1946,24.4338v-8.2969h1.2656v1.2578c0.3232-0.5889,0.6211-0.9766,0.8945-1.1641s0.5742-0.2813,0.9023-0.2813
		c0.4736,0,0.9561,0.1514,1.4453,0.4531l-0.4844,1.3047c-0.3438-0.2031-0.6875-0.3047-1.0313-0.3047
		c-0.3076,0-0.583,0.0928-0.8281,0.2773s-0.4189,0.4414-0.5234,0.7695c-0.1563,0.5-0.2344,1.0469-0.2344,1.6406v4.3438h-1.4061
		V24.4338z"/>
	<path d="M219.0149,20.2853c0-1.5361,0.4268-2.6748,1.2813-3.4141c0.7139-0.6143,1.583-0.9219,2.6094-0.9219
		c1.1406,0,2.0732,0.374,2.7969,1.1211s1.0859,1.7803,1.0859,3.0977c0,1.0674-0.1602,1.9072-0.4805,2.5195
		s-0.7861,1.0869-1.3984,1.4258s-1.2803,0.5078-2.0039,0.5078c-1.1611,0-2.1006-0.3721-2.8164-1.1172
		S219.0149,21.6867,219.0149,20.2853z M220.4602,20.2853c0,1.0625,0.2314,1.8584,0.6953,2.3867s1.0469,0.793,1.75,0.793
		c0.6982,0,1.2783-0.2656,1.7422-0.7969s0.6953-1.3408,0.6953-2.4297c0-1.0264-0.2334-1.8037-0.6992-2.332
		s-1.0459-0.793-1.7383-0.793c-0.7031,0-1.2861,0.2627-1.75,0.7891S220.4602,19.2228,220.4602,20.2853z"/>
	<path d="M228.4055,24.4338V12.9806h1.4063v11.4531L228.4055,24.4338L228.4055,24.4338z"/>
	<path d="M231.9602,24.4338V12.9806h1.4063v11.4531L231.9602,24.4338L231.9602,24.4338z"/>
	<path d="M235.0227,20.2853c0-1.5361,0.4268-2.6748,1.2813-3.4141c0.7139-0.6143,1.583-0.9219,2.6094-0.9219
		c1.1406,0,2.0732,0.374,2.7969,1.1211s1.0859,1.7803,1.0859,3.0977c0,1.0674-0.1602,1.9072-0.4805,2.5195
		s-0.7861,1.0869-1.3984,1.4258s-1.2803,0.5078-2.0039,0.5078c-1.1611,0-2.1006-0.3721-2.8164-1.1172
		S235.0227,21.6867,235.0227,20.2853z M236.468,20.2853c0,1.0625,0.2314,1.8584,0.6953,2.3867s1.0469,0.793,1.75,0.793
		c0.6982,0,1.2783-0.2656,1.7422-0.7969s0.6953-1.3408,0.6953-2.4297c0-1.0264-0.2334-1.8037-0.6992-2.332
		s-1.0459-0.793-1.7383-0.793c-0.7031,0-1.2861,0.2627-1.75,0.7891S236.468,19.2228,236.468,20.2853z"/>
	<path d="M254.2727,24.4338v-1.0469c-0.5264,0.8232-1.2998,1.2344-2.3203,1.2344c-0.6611,0-1.2695-0.1826-1.8242-0.5469
		s-0.9844-0.874-1.2891-1.5273s-0.457-1.4053-0.457-2.2539c0-0.8281,0.1377-1.5791,0.4141-2.2539s0.6904-1.1914,1.2422-1.5508
		s1.1689-0.5391,1.8516-0.5391c0.5,0,0.9453,0.1055,1.3359,0.3164s0.708,0.4854,0.9531,0.8242v-4.1094h1.3984v11.4531h-1.3047
		V24.4338z M249.8274,20.2931c0,1.0625,0.2236,1.8564,0.6719,2.3828s0.9766,0.7891,1.5859,0.7891
		c0.6143,0,1.1367-0.251,1.5664-0.7539s0.6445-1.2695,0.6445-2.3008c0-1.1357-0.2188-1.9688-0.6563-2.5
		s-0.9766-0.7969-1.6172-0.7969c-0.625,0-1.1475,0.2549-1.5664,0.7656S249.8274,19.1945,249.8274,20.2931z"/>
	<path d="M263.468,21.7619l1.4531,0.1797c-0.2295,0.8486-0.6533,1.5078-1.2734,1.9766s-1.4111,0.7031-2.375,0.7031
		c-1.2139,0-2.1758-0.374-2.8867-1.1211s-1.0664-1.7959-1.0664-3.1445c0-1.3955,0.3594-2.4795,1.0781-3.25
		s1.6514-1.1563,2.7969-1.1563c1.1094,0,2.0156,0.3779,2.7188,1.1328s1.0547,1.8174,1.0547,3.1875
		c0,0.083-0.0029,0.208-0.0078,0.375h-6.1875c0.0518,0.9111,0.3096,1.6094,0.7734,2.0938s1.042,0.7266,1.7344,0.7266
		c0.5156,0,0.9561-0.1357,1.3203-0.4063S263.2541,22.3556,263.468,21.7619z M258.8508,19.4884h4.6328
		c-0.0625-0.6982-0.2393-1.2217-0.5313-1.5703c-0.4482-0.542-1.0283-0.8125-1.7422-0.8125c-0.6455,0-1.1885,0.2158-1.6289,0.6484
		S258.8977,18.7648,258.8508,19.4884z"/>
	<path d="M276.5695,24.4338V23.215c-0.6455,0.9375-1.5234,1.4063-2.6328,1.4063c-0.4893,0-0.9463-0.0938-1.3711-0.2813
		s-0.7393-0.4229-0.9453-0.707s-0.3506-0.6318-0.4336-1.043c-0.0576-0.2764-0.0859-0.7139-0.0859-1.3125v-5.1406h1.4063v4.6016
		c0,0.7344,0.0283,1.2295,0.0859,1.4844c0.0889,0.3701,0.2764,0.6602,0.5625,0.8711s0.6406,0.3164,1.0625,0.3164
		s0.8174-0.1084,1.1875-0.3242s0.6318-0.5107,0.7852-0.8828s0.2305-0.9131,0.2305-1.6211V16.137h1.4063v8.2969h-1.258V24.4338z"/>
	<path d="M280.0305,24.4338v-8.2969h1.2656v1.1797c0.6094-0.9111,1.4893-1.3672,2.6406-1.3672c0.5,0,0.96,0.0898,1.3789,0.2695
		s0.7334,0.415,0.9414,0.707s0.3545,0.6377,0.4375,1.0391c0.0518,0.2607,0.0781,0.7158,0.0781,1.3672v5.1016h-1.4063v-5.0469
		c0-0.5732-0.0547-1.001-0.1641-1.2852s-0.3037-0.5107-0.582-0.6797s-0.6055-0.2539-0.9805-0.2539
		c-0.5986,0-1.1162,0.1904-1.5508,0.5703s-0.6523,1.1016-0.6523,2.1641v4.5313C281.4366,24.4338,280.0305,24.4338,280.0305,24.4338z
		"/>
	<path d="M292.8117,21.9572l1.3906-0.2188c0.0781,0.5576,0.2959,0.9844,0.6523,1.2813s0.8555,0.4453,1.4961,0.4453
		c0.6455,0,1.125-0.1318,1.4375-0.3945s0.4688-0.5713,0.4688-0.9258c0-0.3174-0.1377-0.5674-0.4141-0.75
		c-0.1924-0.125-0.6719-0.2842-1.4375-0.4766c-1.0313-0.2607-1.7461-0.4854-2.1445-0.6758s-0.7002-0.4531-0.9063-0.7891
		s-0.3086-0.707-0.3086-1.1133c0-0.3701,0.085-0.7119,0.2539-1.0273s0.3994-0.5771,0.6914-0.7852
		c0.2188-0.1611,0.5166-0.2979,0.8945-0.4102s0.7822-0.168,1.2148-0.168c0.6514,0,1.2227,0.0938,1.7148,0.2813
		s0.8555,0.4414,1.0898,0.7617s0.3955,0.749,0.4844,1.2852l-1.375,0.1875c-0.0625-0.4268-0.2432-0.7607-0.543-1
		s-0.7227-0.3594-1.2695-0.3594c-0.6455,0-1.1064,0.1064-1.3828,0.3203s-0.4141,0.4639-0.4141,0.75
		c0,0.1826,0.0576,0.3467,0.1719,0.4922c0.1143,0.1514,0.2939,0.2764,0.5391,0.375c0.1406,0.0518,0.5547,0.1719,1.2422,0.3594
		c0.9951,0.2656,1.6885,0.4834,2.082,0.6523s0.7021,0.415,0.9258,0.7383s0.3359,0.7236,0.3359,1.2031
		c0,0.4688-0.1367,0.9102-0.4102,1.3242s-0.668,0.7344-1.1836,0.9609s-1.0986,0.3398-1.75,0.3398
		c-1.0781,0-1.8994-0.2236-2.4648-0.6719S292.968,22.8371,292.8117,21.9572z"/>
	<path d="M301.382,14.5978v-1.6172h1.4063v1.6172H301.382z M301.382,24.4338v-8.2969h1.4063v8.2969H301.382z"/>
	<path d="M304.3664,21.9572l1.3906-0.2188c0.0781,0.5576,0.2959,0.9844,0.6523,1.2813s0.8555,0.4453,1.4961,0.4453
		c0.6455,0,1.125-0.1318,1.4375-0.3945s0.4688-0.5713,0.4688-0.9258c0-0.3174-0.1377-0.5674-0.4141-0.75
		c-0.1924-0.125-0.6719-0.2842-1.4375-0.4766c-1.0313-0.2607-1.7461-0.4854-2.1445-0.6758s-0.7002-0.4531-0.9063-0.7891
		s-0.3086-0.707-0.3086-1.1133c0-0.3701,0.085-0.7119,0.2539-1.0273s0.3994-0.5771,0.6914-0.7852
		c0.2188-0.1611,0.5166-0.2979,0.8945-0.4102s0.7822-0.168,1.2148-0.168c0.6514,0,1.2227,0.0938,1.7148,0.2813
		s0.8555,0.4414,1.0898,0.7617s0.3955,0.749,0.4844,1.2852l-1.375,0.1875c-0.0625-0.4268-0.2432-0.7607-0.543-1
		s-0.7227-0.3594-1.2695-0.3594c-0.6455,0-1.1064,0.1064-1.3828,0.3203s-0.4141,0.4639-0.4141,0.75
		c0,0.1826,0.0576,0.3467,0.1719,0.4922c0.1143,0.1514,0.2939,0.2764,0.5391,0.375c0.1406,0.0518,0.5547,0.1719,1.2422,0.3594
		c0.9951,0.2656,1.6885,0.4834,2.082,0.6523s0.7021,0.415,0.9258,0.7383s0.3359,0.7236,0.3359,1.2031
		c0,0.4688-0.1367,0.9102-0.4102,1.3242s-0.668,0.7344-1.1836,0.9609s-1.0986,0.3398-1.75,0.3398
		c-1.0781,0-1.8994-0.2236-2.4648-0.6719S304.5227,22.8371,304.3664,21.9572z"/>
	<path d="M315.9992,23.1759l0.2031,1.2422c-0.3955,0.083-0.75,0.125-1.0625,0.125c-0.5107,0-0.9063-0.0811-1.1875-0.2422
		s-0.4795-0.374-0.5938-0.6367s-0.1719-0.8164-0.1719-1.6602v-4.7734h-1.0313v-1.0938h1.0313v-2.0547l1.3984-0.8438v2.8984h1.4141
		v1.0938h-1.4141v4.8516c0,0.4014,0.0244,0.6592,0.0742,0.7734s0.1299,0.2061,0.2422,0.2734s0.2725,0.1016,0.4805,0.1016
		C315.5383,23.2306,315.7444,23.2121,315.9992,23.1759z"/>
	<path d="M323.0539,21.7619l1.4531,0.1797c-0.2295,0.8486-0.6533,1.5078-1.2734,1.9766s-1.4111,0.7031-2.375,0.7031
		c-1.2139,0-2.1758-0.374-2.8867-1.1211s-1.0664-1.7959-1.0664-3.1445c0-1.3955,0.3594-2.4795,1.0781-3.25
		s1.6514-1.1563,2.7969-1.1563c1.1094,0,2.0156,0.3779,2.7188,1.1328s1.0547,1.8174,1.0547,3.1875
		c0,0.083-0.0029,0.208-0.0078,0.375h-6.1875c0.0518,0.9111,0.3096,1.6094,0.7734,2.0938s1.042,0.7266,1.7344,0.7266
		c0.5156,0,0.9561-0.1357,1.3203-0.4063S322.8401,22.3556,323.0539,21.7619z M318.4367,19.4884h4.6328
		c-0.0625-0.6982-0.2393-1.2217-0.5313-1.5703c-0.4482-0.542-1.0283-0.8125-1.7422-0.8125c-0.6455,0-1.1885,0.2158-1.6289,0.6484
		S318.4836,18.7648,318.4367,19.4884z"/>
	<path d="M326.2727,24.4338v-8.2969h1.2578v1.1641c0.2607-0.4063,0.6064-0.7334,1.0391-0.9805s0.9248-0.3711,1.4766-0.3711
		c0.6143,0,1.1182,0.1279,1.5117,0.3828s0.6709,0.6123,0.832,1.0703c0.6563-0.9688,1.5107-1.4531,2.5625-1.4531
		c0.8232,0,1.4561,0.2275,1.8984,0.6836s0.6641,1.1572,0.6641,2.1055v5.6953h-1.3984v-5.2266c0-0.5625-0.0459-0.9678-0.1367-1.2148
		s-0.2568-0.4463-0.4961-0.5977s-0.5205-0.2266-0.8438-0.2266c-0.583,0-1.0674,0.1943-1.4531,0.582s-0.5781,1.0088-0.5781,1.8633
		v4.8203h-1.4063v-5.3906c0-0.625-0.1143-1.0938-0.3438-1.4063s-0.6045-0.4688-1.125-0.4688c-0.3955,0-0.7617,0.1045-1.0977,0.3125
		s-0.5791,0.5127-0.7305,0.9141s-0.2266,0.9795-0.2266,1.7344v4.3047L326.2727,24.4338L326.2727,24.4338z"/>
	<path d="M345.0149,23.4103c-0.5205,0.4424-1.0225,0.7549-1.5039,0.9375s-0.999,0.2734-1.5508,0.2734
		c-0.9111,0-1.6123-0.2227-2.1016-0.668s-0.7344-1.0146-0.7344-1.707c0-0.4063,0.0928-0.7773,0.2773-1.1133
		s0.4268-0.6055,0.7266-0.8086s0.6367-0.3564,1.0117-0.4609c0.2764-0.0732,0.6924-0.1436,1.25-0.2109
		c1.1357-0.1357,1.9717-0.2969,2.5078-0.4844c0.0049-0.1924,0.0078-0.3154,0.0078-0.3672c0-0.5732-0.1328-0.9766-0.3984-1.2109
		c-0.3594-0.3174-0.8936-0.4766-1.6016-0.4766c-0.6611,0-1.1494,0.1162-1.4648,0.3477s-0.5479,0.6416-0.6992,1.2305l-1.375-0.1875
		c0.125-0.5889,0.3311-1.0635,0.6172-1.4258s0.7002-0.6406,1.2422-0.8359s1.1689-0.293,1.8828-0.293
		c0.708,0,1.2842,0.083,1.7266,0.25s0.7686,0.376,0.9766,0.6289s0.3545,0.5713,0.4375,0.957
		c0.0469,0.2393,0.0703,0.6719,0.0703,1.2969v1.875c0,1.3076,0.0303,2.1338,0.0898,2.4805s0.1787,0.6787,0.3555,0.9961h-1.4688
		C345.1506,24.1418,345.0569,23.8009,345.0149,23.4103z M344.8977,20.2697c-0.5107,0.208-1.2764,0.3857-2.2969,0.5313
		c-0.5781,0.083-0.9873,0.1768-1.2266,0.2813s-0.4248,0.2568-0.5547,0.457s-0.1953,0.4229-0.1953,0.668
		c0,0.375,0.1416,0.6875,0.4258,0.9375s0.6992,0.375,1.2461,0.375c0.542,0,1.0234-0.1182,1.4453-0.3555s0.7314-0.5615,0.9297-0.9727
		c0.1514-0.3174,0.2266-0.7861,0.2266-1.4063V20.2697z"/>
	<path d="M358.3274,24.4338v-1.0469c-0.5264,0.8232-1.2998,1.2344-2.3203,1.2344c-0.6611,0-1.2695-0.1826-1.8242-0.5469
		s-0.9844-0.874-1.2891-1.5273s-0.457-1.4053-0.457-2.2539c0-0.8281,0.1377-1.5791,0.4141-2.2539s0.6904-1.1914,1.2422-1.5508
		s1.1689-0.5391,1.8516-0.5391c0.5,0,0.9453,0.1055,1.3359,0.3164s0.708,0.4854,0.9531,0.8242v-4.1094h1.3984v11.4531h-1.3047
		V24.4338z M353.882,20.2931c0,1.0625,0.2236,1.8564,0.6719,2.3828s0.9766,0.7891,1.5859,0.7891
		c0.6143,0,1.1367-0.251,1.5664-0.7539s0.6445-1.2695,0.6445-2.3008c0-1.1357-0.2188-1.9688-0.6563-2.5
		s-0.9766-0.7969-1.6172-0.7969c-0.625,0-1.1475,0.2549-1.5664,0.7656S353.882,19.1945,353.882,20.2931z"/>
	<path d="M367.5227,21.7619l1.4531,0.1797c-0.2295,0.8486-0.6533,1.5078-1.2734,1.9766s-1.4111,0.7031-2.375,0.7031
		c-1.2139,0-2.1758-0.374-2.8867-1.1211s-1.0664-1.7959-1.0664-3.1445c0-1.3955,0.3594-2.4795,1.0781-3.25
		s1.6514-1.1563,2.7969-1.1563c1.1094,0,2.0156,0.3779,2.7188,1.1328s1.0547,1.8174,1.0547,3.1875
		c0,0.083-0.0029,0.208-0.0078,0.375h-6.1875c0.0518,0.9111,0.3096,1.6094,0.7734,2.0938s1.042,0.7266,1.7344,0.7266
		c0.5156,0,0.9561-0.1357,1.3203-0.4063S367.3088,22.3556,367.5227,21.7619z M362.9055,19.4884h4.6328
		c-0.0625-0.6982-0.2393-1.2217-0.5313-1.5703c-0.4482-0.542-1.0283-0.8125-1.7422-0.8125c-0.6455,0-1.1885,0.2158-1.6289,0.6484
		S362.9524,18.7648,362.9055,19.4884z"/>
	<path d="M375.1945,14.5978v-1.6172h1.4063v1.6172H375.1945z M375.1945,24.4338v-8.2969h1.4063v8.2969H375.1945z"/>
	<path d="M378.7414,24.4338v-8.2969h1.2656v1.1797c0.6094-0.9111,1.4893-1.3672,2.6406-1.3672c0.5,0,0.96,0.0898,1.3789,0.2695
		s0.7334,0.415,0.9414,0.707s0.3545,0.6377,0.4375,1.0391c0.0518,0.2607,0.0781,0.7158,0.0781,1.3672v5.1016h-1.4063v-5.0469
		c0-0.5732-0.0547-1.001-0.1641-1.2852s-0.3037-0.5107-0.582-0.6797s-0.6055-0.2539-0.9805-0.2539
		c-0.5986,0-1.1162,0.1904-1.5508,0.5703s-0.6523,1.1016-0.6523,2.1641v4.5313C380.1475,24.4338,378.7414,24.4338,378.7414,24.4338z
		"/>
	<path d="M387.9758,24.4338v-7.2031h-1.2422v-1.0938h1.2422v-0.8828c0-0.5576,0.0498-0.9717,0.1484-1.2422
		c0.1357-0.3643,0.374-0.6602,0.7148-0.8867s0.8193-0.3398,1.4336-0.3398c0.3955,0,0.833,0.0469,1.3125,0.1406l-0.2109,1.2266
		c-0.292-0.0518-0.5674-0.0781-0.8281-0.0781c-0.4268,0-0.7295,0.0908-0.9063,0.2734s-0.2656,0.5234-0.2656,1.0234v0.7656h1.6172
		v1.0938h-1.6172v7.2031H387.9758z"/>
	<path d="M391.5617,20.2853c0-1.5361,0.4268-2.6748,1.2813-3.4141c0.7139-0.6143,1.583-0.9219,2.6094-0.9219
		c1.1406,0,2.0732,0.374,2.7969,1.1211s1.0859,1.7803,1.0859,3.0977c0,1.0674-0.1602,1.9072-0.4805,2.5195
		s-0.7861,1.0869-1.3984,1.4258s-1.2803,0.5078-2.0039,0.5078c-1.1611,0-2.1006-0.3721-2.8164-1.1172
		S391.5617,21.6867,391.5617,20.2853z M393.007,20.2853c0,1.0625,0.2314,1.8584,0.6953,2.3867s1.0469,0.793,1.75,0.793
		c0.6982,0,1.2783-0.2656,1.7422-0.7969s0.6953-1.3408,0.6953-2.4297c0-1.0264-0.2334-1.8037-0.6992-2.332
		s-1.0459-0.793-1.7383-0.793c-0.7031,0-1.2861,0.2627-1.75,0.7891S393.007,19.2228,393.007,20.2853z"/>
	<path d="M400.968,24.4338v-8.2969h1.2656v1.2578c0.3232-0.5889,0.6211-0.9766,0.8945-1.1641s0.5742-0.2813,0.9023-0.2813
		c0.4736,0,0.9561,0.1514,1.4453,0.4531l-0.4844,1.3047c-0.3438-0.2031-0.6875-0.3047-1.0313-0.3047
		c-0.3076,0-0.583,0.0928-0.8281,0.2773s-0.4189,0.4414-0.5234,0.7695c-0.1563,0.5-0.2344,1.0469-0.2344,1.6406v4.3438h-1.4061
		V24.4338z"/>
	<path d="M406.3117,24.4338v-8.2969h1.2578v1.1641c0.2607-0.4063,0.6064-0.7334,1.0391-0.9805s0.9248-0.3711,1.4766-0.3711
		c0.6143,0,1.1182,0.1279,1.5117,0.3828s0.6709,0.6123,0.832,1.0703c0.6563-0.9688,1.5107-1.4531,2.5625-1.4531
		c0.8232,0,1.4561,0.2275,1.8984,0.6836s0.6641,1.1572,0.6641,2.1055v5.6953h-1.3984v-5.2266c0-0.5625-0.0459-0.9678-0.1367-1.2148
		s-0.2568-0.4463-0.4961-0.5977s-0.5205-0.2266-0.8438-0.2266c-0.583,0-1.0674,0.1943-1.4531,0.582s-0.5781,1.0088-0.5781,1.8633
		v4.8203h-1.4063v-5.3906c0-0.625-0.1143-1.0938-0.3438-1.4063s-0.6045-0.4688-1.125-0.4688c-0.3955,0-0.7617,0.1045-1.0977,0.3125
		s-0.5791,0.5127-0.7305,0.9141s-0.2266,0.9795-0.2266,1.7344v4.3047L406.3117,24.4338L406.3117,24.4338z"/>
	<path d="M425.0539,23.4103c-0.5205,0.4424-1.0225,0.7549-1.5039,0.9375s-0.999,0.2734-1.5508,0.2734
		c-0.9111,0-1.6123-0.2227-2.1016-0.668s-0.7344-1.0146-0.7344-1.707c0-0.4063,0.0928-0.7773,0.2773-1.1133
		s0.4268-0.6055,0.7266-0.8086s0.6367-0.3564,1.0117-0.4609c0.2764-0.0732,0.6924-0.1436,1.25-0.2109
		c1.1357-0.1357,1.9717-0.2969,2.5078-0.4844c0.0049-0.1924,0.0078-0.3154,0.0078-0.3672c0-0.5732-0.1328-0.9766-0.3984-1.2109
		c-0.3594-0.3174-0.8936-0.4766-1.6016-0.4766c-0.6611,0-1.1494,0.1162-1.4648,0.3477s-0.5479,0.6416-0.6992,1.2305l-1.375-0.1875
		c0.125-0.5889,0.3311-1.0635,0.6172-1.4258s0.7002-0.6406,1.2422-0.8359s1.1689-0.293,1.8828-0.293
		c0.708,0,1.2842,0.083,1.7266,0.25s0.7686,0.376,0.9766,0.6289s0.3545,0.5713,0.4375,0.957
		c0.0469,0.2393,0.0703,0.6719,0.0703,1.2969v1.875c0,1.3076,0.0303,2.1338,0.0898,2.4805s0.1787,0.6787,0.3555,0.9961h-1.4688
		C425.1897,24.1418,425.0959,23.8009,425.0539,23.4103z M424.9367,20.2697c-0.5107,0.208-1.2764,0.3857-2.2969,0.5313
		c-0.5781,0.083-0.9873,0.1768-1.2266,0.2813s-0.4248,0.2568-0.5547,0.457s-0.1953,0.4229-0.1953,0.668
		c0,0.375,0.1416,0.6875,0.4258,0.9375s0.6992,0.375,1.2461,0.375c0.542,0,1.0234-0.1182,1.4453-0.3555s0.7314-0.5615,0.9297-0.9727
		c0.1514-0.3174,0.2266-0.7861,0.2266-1.4063V20.2697z"/>
	<path d="M433.9524,21.3947l1.3828,0.1797c-0.1514,0.9531-0.5381,1.6992-1.1602,2.2383s-1.3867,0.8086-2.293,0.8086
		c-1.1357,0-2.0479-0.3711-2.7383-1.1133s-1.0352-1.8057-1.0352-3.1914c0-0.8955,0.1484-1.6797,0.4453-2.3516
		s0.749-1.1758,1.3555-1.5117s1.2666-0.5039,1.9805-0.5039c0.9014,0,1.6377,0.2275,2.2109,0.6836s0.9404,1.1025,1.1016,1.9414
		l-1.3672,0.2109c-0.1299-0.5576-0.3604-0.9766-0.6914-1.2578s-0.7305-0.4219-1.1992-0.4219c-0.708,0-1.2842,0.2539-1.7266,0.7617
		s-0.6641,1.3115-0.6641,2.4102c0,1.1143,0.2139,1.9248,0.6406,2.4297s0.9844,0.7578,1.6719,0.7578
		c0.5518,0,1.0127-0.1689,1.3828-0.5078S433.8537,22.0978,433.9524,21.3947z"/>
	<path d="M436.5461,14.5978v-1.6172h1.4063v1.6172H436.5461z M436.5461,24.4338v-8.2969h1.4063v8.2969H436.5461z"/>
	<path d="M439.5695,20.2853c0-1.5361,0.4268-2.6748,1.2813-3.4141c0.7139-0.6143,1.583-0.9219,2.6094-0.9219
		c1.1406,0,2.0732,0.374,2.7969,1.1211s1.0859,1.7803,1.0859,3.0977c0,1.0674-0.1602,1.9072-0.4805,2.5195
		s-0.7861,1.0869-1.3984,1.4258s-1.2803,0.5078-2.0039,0.5078c-1.1611,0-2.1006-0.3721-2.8164-1.1172
		S439.5695,21.6867,439.5695,20.2853z M441.0149,20.2853c0,1.0625,0.2314,1.8584,0.6953,2.3867s1.0469,0.793,1.75,0.793
		c0.6982,0,1.2783-0.2656,1.7422-0.7969s0.6953-1.3408,0.6953-2.4297c0-1.0264-0.2334-1.8037-0.6992-2.332
		s-1.0459-0.793-1.7383-0.793c-0.7031,0-1.2861,0.2627-1.75,0.7891S441.0149,19.2228,441.0149,20.2853z M442.6789,15.1056
		l1.0391-2.1875h1.8438l-1.7188,2.1875H442.6789z"/>
	<path d="M448.9914,24.4338v-8.2969h1.2656v1.1797c0.6094-0.9111,1.4893-1.3672,2.6406-1.3672c0.5,0,0.96,0.0898,1.3789,0.2695
		s0.7334,0.415,0.9414,0.707s0.3545,0.6377,0.4375,1.0391c0.0518,0.2607,0.0781,0.7158,0.0781,1.3672v5.1016h-1.4063v-5.0469
		c0-0.5732-0.0547-1.001-0.1641-1.2852s-0.3037-0.5107-0.582-0.6797s-0.6055-0.2539-0.9805-0.2539
		c-0.5986,0-1.1162,0.1904-1.5508,0.5703s-0.6523,1.1016-0.6523,2.1641v4.5313C450.3975,24.4338,448.9914,24.4338,448.9914,24.4338z
		"/>
	<path d="M458.2883,24.4338v-1.6016h1.6016v1.6016H458.2883z"/>
</g>
</svg>
