<?xml version="1.0" encoding="utf-8"?>
<!-- Generator: Adobe Illustrator 21.0.0, SVG Export Plug-In . SVG Version: 6.00 Build 0)  -->
<svg version="1.1" id="Capa_1" xmlns="http://www.w3.org/2000/svg" xmlns:xlink="http://www.w3.org/1999/xlink" x="0px" y="0px"
	 viewBox="0 0 407.9443 71.9775" style="enable-background:new 0 0 407.9443 71.9775;" xml:space="preserve">
<g>
	<g>
		<path style="fill:#B0BEC5;" d="M9.6099,50.9795c-0.4102,0-0.7803-0.1602-1.0698-0.4395c-0.1401-0.1406-0.25-0.3105-0.3203-0.4902
			c-0.0801-0.1797-0.1201-0.3701-0.1201-0.5703c0-0.3994,0.1602-0.7793,0.4404-1.0596c0.3496-0.3506,0.8696-0.5098,1.3599-0.4102
			c0.0898,0.0098,0.1899,0.04,0.2798,0.0801c0.0903,0.04,0.1802,0.0898,0.2603,0.1396c0.0801,0.0508,0.1597,0.1201,0.2197,0.1904
			c0.2803,0.2803,0.4502,0.6602,0.4502,1.0596c0,0.2002-0.04,0.3906-0.1201,0.5703c-0.0698,0.1797-0.1797,0.3496-0.3301,0.4902
			c-0.1396,0.1396-0.2998,0.25-0.48,0.3193C10,50.9395,9.7998,50.9795,9.6099,50.9795z"/>
		<path style="fill:#B0BEC5;" d="M9.6099,59.2803c-0.2002,0-0.3999-0.04-0.5801-0.1104c-0.1802-0.0801-0.3398-0.1904-0.4897-0.3301
			c-0.1401-0.1396-0.25-0.2998-0.3203-0.4805c-0.0801-0.1797-0.1201-0.3799-0.1201-0.5791c0-0.3906,0.1602-0.7803,0.4404-1.0605
			c0.3496-0.3496,0.8696-0.5,1.3599-0.4102c0.0898,0.0205,0.1899,0.0498,0.2798,0.0898c0.0903,0.0303,0.1802,0.0801,0.2603,0.1309
			c0.0801,0.0596,0.1597,0.1191,0.23,0.1895c0.27,0.2803,0.4297,0.6699,0.4297,1.0605c0,0.1992-0.0298,0.3994-0.1099,0.5791
			c-0.0698,0.1807-0.1797,0.3408-0.3198,0.4805c-0.1499,0.1396-0.3101,0.25-0.4902,0.3301C10,59.2402,9.7998,59.2803,9.6099,59.2803
			z"/>
		<path style="fill:#B0BEC5;" d="M35.73,57.7803c0-0.8301,0.6797-1.5,1.5-1.5l0,0c0.8301,0,1.5,0.6699,1.5,1.5l0,0
			c0,0.8291-0.6699,1.5-1.5,1.5l0,0C36.4097,59.2803,35.73,58.6094,35.73,57.7803z M26.5298,57.7803c0-0.8301,0.6699-1.5,1.4902-1.5
			l0,0c0.8296,0,1.5,0.6699,1.5,1.5l0,0c0,0.8291-0.6704,1.5-1.5,1.5l0,0C27.1997,59.2803,26.5298,58.6094,26.5298,57.7803z
			 M17.3101,57.7803c0-0.8301,0.6797-1.5,1.5-1.5l0,0c0.8296,0,1.5,0.6699,1.5,1.5l0,0c0,0.8291-0.6704,1.5-1.5,1.5l0,0
			C17.9897,59.2803,17.3101,58.6094,17.3101,57.7803z"/>
		<path style="fill:#B0BEC5;" d="M46.4399,59.2803c-0.3999,0-0.77-0.1504-1.0601-0.4404c-0.1401-0.1396-0.25-0.2998-0.3198-0.4805
			c-0.0801-0.1797-0.1104-0.3799-0.1104-0.5791c0-0.1006,0.0103-0.1904,0.02-0.29c0.02-0.1006,0.0503-0.1904,0.0903-0.2803
			c0.0396-0.0898,0.0796-0.1797,0.1396-0.2598c0.0503-0.0801,0.1104-0.1602,0.1802-0.2305s0.1499-0.1299,0.23-0.1895
			c0.0801-0.0508,0.1699-0.1006,0.2598-0.1309c0.0903-0.04,0.1904-0.0693,0.2803-0.0898c0.1899-0.04,0.3901-0.04,0.5898,0
			c0.0898,0.0205,0.1899,0.0498,0.2803,0.0898c0.0898,0.0303,0.1797,0.0801,0.2598,0.1309
			c0.0801,0.0596,0.1602,0.1191,0.2202,0.1895c0.0698,0.0703,0.1396,0.1504,0.1899,0.2305
			c0.0601,0.0801,0.1001,0.1699,0.1396,0.2598c0.04,0.0898,0.0703,0.1797,0.0801,0.2803c0.02,0.0996,0.0303,0.1895,0.0303,0.29
			c0,0.1992-0.0303,0.3994-0.1104,0.5791c-0.0698,0.1807-0.1797,0.3408-0.3296,0.4805
			C47.2197,59.1299,46.8496,59.2803,46.4399,59.2803z"/>
		<path style="fill:#B0BEC5;" d="M44.9497,64.1299c0-0.8301,0.6699-1.5,1.5-1.5l0,0c0.8203,0,1.5,0.6699,1.5,1.5l0,0
			c0,0.8301-0.6797,1.5-1.5,1.5l0,0C45.6196,65.6299,44.9497,64.96,44.9497,64.1299z"/>
		<path style="fill:#B0BEC5;" d="M46.4497,71.9795c-0.1997,0-0.3999-0.04-0.5801-0.1201C45.6899,71.79,45.52,71.6797,45.3799,71.54
			c-0.1401-0.1406-0.25-0.3105-0.3198-0.4902c-0.0801-0.1797-0.1201-0.3701-0.1201-0.5703c0-0.0996,0.0098-0.1992,0.0298-0.2998
			c0.02-0.0898,0.0503-0.1895,0.0903-0.2803c0.0396-0.0898,0.0796-0.1699,0.1396-0.25c0.0503-0.0898,0.1104-0.1592,0.1802-0.2295
			c0.5601-0.5605,1.5698-0.5605,2.1201,0c0.0698,0.0703,0.1396,0.1396,0.1899,0.2295c0.0601,0.0801,0.1001,0.1602,0.1396,0.25
			c0.04,0.0908,0.0703,0.1904,0.0903,0.2803c0.02,0.1006,0.02,0.2002,0.02,0.2998c0,0.2002-0.0303,0.3906-0.1104,0.5703
			c-0.0698,0.1797-0.1797,0.3496-0.3296,0.4902C47.2197,71.8193,46.8398,71.9795,46.4497,71.9795z"/>
	</g>
</g>
<g>
	
		<linearGradient id="SVGID_1_" gradientUnits="userSpaceOnUse" x1="402.0454" y1="53.0889" x2="10.1627" y2="53.0889" gradientTransform="matrix(1 0 0 -1 0 74)">
		<stop  offset="0" style="stop-color:#FFFFFF"/>
		<stop  offset="1" style="stop-color:#B0BEC5"/>
	</linearGradient>
	<rect style="fill:url(#SVGID_1_);" width="407.9443" height="41.8222"/>
	<rect style="fill:#FBB03B;" width="7.4248" height="41.8222"/>
</g>
<g>
	<path d="M18.6316,24.4338V12.9806h2.2813l2.7109,8.1094c0.25,0.7549,0.4326,1.3203,0.5469,1.6953
		c0.1299-0.417,0.333-1.0283,0.6094-1.8359l2.7422-7.9688h2.0391v11.4531h-1.4609v-9.5859l-3.3281,9.5859H23.405l-3.3125-9.75v9.75
		L18.6316,24.4338L18.6316,24.4338z"/>
	<path d="M37.5066,21.7619l1.4531,0.1797c-0.2295,0.8486-0.6533,1.5078-1.2734,1.9766s-1.4111,0.7031-2.375,0.7031
		c-1.2139,0-2.1758-0.374-2.8867-1.1211c-0.7109-0.7471-1.0664-1.7959-1.0664-3.1445c0-1.3955,0.3594-2.4795,1.0781-3.25
		c0.7188-0.7705,1.6514-1.1563,2.7969-1.1563c1.1094,0,2.0156,0.3779,2.7188,1.1328s1.0547,1.8174,1.0547,3.1875
		c0,0.083-0.0029,0.208-0.0078,0.375h-6.1875c0.0518,0.9111,0.3096,1.6094,0.7734,2.0938s1.042,0.7266,1.7344,0.7266
		c0.5156,0,0.9561-0.1357,1.3203-0.4063S37.2927,22.3556,37.5066,21.7619z M32.8894,19.4884h4.6328
		c-0.0625-0.6982-0.2393-1.2217-0.5313-1.5703c-0.4482-0.542-1.0283-0.8125-1.7422-0.8125c-0.6455,0-1.1885,0.2158-1.6289,0.6484
		S32.9363,18.7648,32.8894,19.4884z"/>
	<path d="M38.9363,27.6525l0.2656-1.1953c0.2813,0.0732,0.5029,0.1094,0.6641,0.1094c0.2861,0,0.5-0.0947,0.6406-0.2852
		s0.2109-0.665,0.2109-1.4258v-8.7188h1.4063v8.75c0,1.0205-0.1328,1.7314-0.3984,2.1328
		c-0.3389,0.5205-0.9014,0.7813-1.6875,0.7813C39.658,27.8009,39.2908,27.7511,38.9363,27.6525z M40.7175,14.6134v-1.6328h1.4063
		v1.6328H40.7175z"/>
	<path d="M43.7566,20.2853c0-1.5361,0.4268-2.6748,1.2813-3.4141c0.7139-0.6143,1.583-0.9219,2.6094-0.9219
		c1.1406,0,2.0732,0.374,2.7969,1.1211s1.0859,1.7803,1.0859,3.0977c0,1.0674-0.1602,1.9072-0.4805,2.5195
		s-0.7861,1.0869-1.3984,1.4258s-1.2803,0.5078-2.0039,0.5078c-1.1611,0-2.1006-0.3721-2.8164-1.1172
		S43.7566,21.6867,43.7566,20.2853z M45.2019,20.2853c0,1.0625,0.2314,1.8584,0.6953,2.3867s1.0469,0.793,1.75,0.793
		c0.6982,0,1.2783-0.2656,1.7422-0.7969s0.6953-1.3408,0.6953-2.4297c0-1.0264-0.2334-1.8037-0.6992-2.332
		s-1.0459-0.793-1.7383-0.793c-0.7031,0-1.2861,0.2627-1.75,0.7891S45.2019,19.2228,45.2019,20.2853z"/>
	<path d="M53.1628,24.4338v-8.2969h1.2656v1.2578c0.3232-0.5889,0.6211-0.9766,0.8945-1.1641s0.5742-0.2813,0.9023-0.2813
		c0.4736,0,0.9561,0.1514,1.4453,0.4531l-0.4844,1.3047c-0.3438-0.2031-0.6875-0.3047-1.0313-0.3047
		c-0.3076,0-0.583,0.0928-0.8281,0.2773s-0.4189,0.4414-0.5234,0.7695c-0.1563,0.5-0.2344,1.0469-0.2344,1.6406v4.3438h-1.4061
		V24.4338z"/>
	<path d="M63.9207,23.4103c-0.5205,0.4424-1.0225,0.7549-1.5039,0.9375s-0.999,0.2734-1.5508,0.2734
		c-0.9111,0-1.6123-0.2227-2.1016-0.668s-0.7344-1.0146-0.7344-1.707c0-0.4063,0.0928-0.7773,0.2773-1.1133
		s0.4268-0.6055,0.7266-0.8086s0.6367-0.3564,1.0117-0.4609c0.2764-0.0732,0.6924-0.1436,1.25-0.2109
		c1.1357-0.1357,1.9717-0.2969,2.5078-0.4844c0.0049-0.1924,0.0078-0.3154,0.0078-0.3672c0-0.5732-0.1328-0.9766-0.3984-1.2109
		c-0.3594-0.3174-0.8936-0.4766-1.6016-0.4766c-0.6611,0-1.1494,0.1162-1.4648,0.3477s-0.5479,0.6416-0.6992,1.2305l-1.375-0.1875
		c0.125-0.5889,0.3311-1.0635,0.6172-1.4258s0.7002-0.6406,1.2422-0.8359s1.1689-0.293,1.8828-0.293
		c0.708,0,1.2842,0.083,1.7266,0.25s0.7686,0.376,0.9766,0.6289s0.3545,0.5713,0.4375,0.957
		c0.0469,0.2393,0.0703,0.6719,0.0703,1.2969v1.875c0,1.3076,0.0303,2.1338,0.0898,2.4805s0.1787,0.6787,0.3555,0.9961h-1.4688
		C64.0564,24.1418,63.9626,23.8009,63.9207,23.4103z M63.8035,20.2697c-0.5107,0.208-1.2764,0.3857-2.2969,0.5313
		c-0.5781,0.083-0.9873,0.1768-1.2266,0.2813s-0.4248,0.2568-0.5547,0.457s-0.1953,0.4229-0.1953,0.668
		c0,0.375,0.1416,0.6875,0.4258,0.9375s0.6992,0.375,1.2461,0.375c0.542,0,1.0234-0.1182,1.4453-0.3555s0.7314-0.5615,0.9297-0.9727
		c0.1514-0.3174,0.2266-0.7861,0.2266-1.4063V20.2697z"/>
	<path d="M67.3894,24.4338v-8.2969h1.2656v1.2578c0.3232-0.5889,0.6211-0.9766,0.8945-1.1641s0.5742-0.2813,0.9023-0.2813
		c0.4736,0,0.9561,0.1514,1.4453,0.4531l-0.4844,1.3047c-0.3438-0.2031-0.6875-0.3047-1.0313-0.3047
		c-0.3076,0-0.583,0.0928-0.8281,0.2773s-0.4189,0.4414-0.5234,0.7695c-0.1563,0.5-0.2344,1.0469-0.2344,1.6406v4.3438h-1.4061
		V24.4338z"/>
	<path d="M77.1472,24.4338V12.9806h1.4063v11.4531L77.1472,24.4338L77.1472,24.4338z"/>
	<path d="M86.1472,23.4103c-0.5205,0.4424-1.0225,0.7549-1.5039,0.9375s-0.999,0.2734-1.5508,0.2734
		c-0.9111,0-1.6123-0.2227-2.1016-0.668s-0.7344-1.0146-0.7344-1.707c0-0.4063,0.0928-0.7773,0.2773-1.1133
		s0.4268-0.6055,0.7266-0.8086s0.6367-0.3564,1.0117-0.4609c0.2764-0.0732,0.6924-0.1436,1.25-0.2109
		c1.1357-0.1357,1.9717-0.2969,2.5078-0.4844c0.0049-0.1924,0.0078-0.3154,0.0078-0.3672c0-0.5732-0.1328-0.9766-0.3984-1.2109
		c-0.3594-0.3174-0.8936-0.4766-1.6016-0.4766c-0.6611,0-1.1494,0.1162-1.4648,0.3477s-0.5479,0.6416-0.6992,1.2305l-1.375-0.1875
		c0.125-0.5889,0.3311-1.0635,0.6172-1.4258s0.7002-0.6406,1.2422-0.8359s1.1689-0.293,1.8828-0.293
		c0.708,0,1.2842,0.083,1.7266,0.25s0.7686,0.376,0.9766,0.6289s0.3545,0.5713,0.4375,0.957
		c0.0469,0.2393,0.0703,0.6719,0.0703,1.2969v1.875c0,1.3076,0.0303,2.1338,0.0898,2.4805s0.1787,0.6787,0.3555,0.9961h-1.4688
		C86.283,24.1418,86.1892,23.8009,86.1472,23.4103z M86.03,20.2697c-0.5107,0.208-1.2764,0.3857-2.2969,0.5313
		c-0.5781,0.083-0.9873,0.1768-1.2266,0.2813s-0.4248,0.2568-0.5547,0.457s-0.1953,0.4229-0.1953,0.668
		c0,0.375,0.1416,0.6875,0.4258,0.9375s0.6992,0.375,1.2461,0.375c0.542,0,1.0234-0.1182,1.4453-0.3555s0.7314-0.5615,0.9297-0.9727
		c0.1514-0.3174,0.2266-0.7861,0.2266-1.4063V20.2697z"/>
	<path d="M99.4597,24.4338v-1.0469c-0.5264,0.8232-1.2998,1.2344-2.3203,1.2344c-0.6611,0-1.2695-0.1826-1.8242-0.5469
		s-0.9844-0.874-1.2891-1.5273s-0.457-1.4053-0.457-2.2539c0-0.8281,0.1377-1.5791,0.4141-2.2539s0.6904-1.1914,1.2422-1.5508
		s1.1689-0.5391,1.8516-0.5391c0.5,0,0.9453,0.1055,1.3359,0.3164s0.708,0.4854,0.9531,0.8242v-4.1094h1.3984v11.4531h-1.3047
		V24.4338z M95.0144,20.2931c0,1.0625,0.2236,1.8564,0.6719,2.3828s0.9766,0.7891,1.5859,0.7891
		c0.6143,0,1.1367-0.251,1.5664-0.7539s0.6445-1.2695,0.6445-2.3008c0-1.1357-0.2188-1.9688-0.6563-2.5
		s-0.9766-0.7969-1.6172-0.7969c-0.625,0-1.1475,0.2549-1.5664,0.7656S95.0144,19.1945,95.0144,20.2931z"/>
	<path d="M102.4519,20.2853c0-1.5361,0.4268-2.6748,1.2813-3.4141c0.7139-0.6143,1.583-0.9219,2.6094-0.9219
		c1.1406,0,2.0732,0.374,2.7969,1.1211s1.0859,1.7803,1.0859,3.0977c0,1.0674-0.1602,1.9072-0.4805,2.5195
		s-0.7861,1.0869-1.3984,1.4258s-1.2803,0.5078-2.0039,0.5078c-1.1611,0-2.1006-0.3721-2.8164-1.1172
		S102.4519,21.6867,102.4519,20.2853z M103.8972,20.2853c0,1.0625,0.2314,1.8584,0.6953,2.3867s1.0469,0.793,1.75,0.793
		c0.6982,0,1.2783-0.2656,1.7422-0.7969s0.6953-1.3408,0.6953-2.4297c0-1.0264-0.2334-1.8037-0.6992-2.332
		s-1.0459-0.793-1.7383-0.793c-0.7031,0-1.2861,0.2627-1.75,0.7891S103.8972,19.2228,103.8972,20.2853z"/>
	<path d="M117.2878,21.3947l1.3828,0.1797c-0.1514,0.9531-0.5381,1.6992-1.1602,2.2383s-1.3867,0.8086-2.293,0.8086
		c-1.1357,0-2.0479-0.3711-2.7383-1.1133s-1.0352-1.8057-1.0352-3.1914c0-0.8955,0.1484-1.6797,0.4453-2.3516
		s0.749-1.1758,1.3555-1.5117s1.2666-0.5039,1.9805-0.5039c0.9014,0,1.6377,0.2275,2.2109,0.6836s0.9404,1.1025,1.1016,1.9414
		l-1.3672,0.2109c-0.1299-0.5576-0.3604-0.9766-0.6914-1.2578s-0.7305-0.4219-1.1992-0.4219c-0.708,0-1.2842,0.2539-1.7266,0.7617
		s-0.6641,1.3115-0.6641,2.4102c0,1.1143,0.2139,1.9248,0.6406,2.4297s0.9844,0.7578,1.6719,0.7578
		c0.5518,0,1.0127-0.1689,1.3828-0.5078S117.1892,22.0978,117.2878,21.3947z"/>
	<path d="M125.3113,24.4338V23.215c-0.6455,0.9375-1.5234,1.4063-2.6328,1.4063c-0.4893,0-0.9463-0.0938-1.3711-0.2813
		s-0.7393-0.4229-0.9453-0.707s-0.3506-0.6318-0.4336-1.043c-0.0576-0.2764-0.0859-0.7139-0.0859-1.3125v-5.1406h1.4063v4.6016
		c0,0.7344,0.0283,1.2295,0.0859,1.4844c0.0889,0.3701,0.2764,0.6602,0.5625,0.8711s0.6406,0.3164,1.0625,0.3164
		s0.8174-0.1084,1.1875-0.3242s0.6318-0.5107,0.7852-0.8828s0.2305-0.9131,0.2305-1.6211V16.137h1.4063v8.2969h-1.258V24.4338z"/>
	<path d="M128.7722,24.4338v-8.2969h1.2578v1.1641c0.2607-0.4063,0.6064-0.7334,1.0391-0.9805s0.9248-0.3711,1.4766-0.3711
		c0.6143,0,1.1182,0.1279,1.5117,0.3828s0.6709,0.6123,0.832,1.0703c0.6563-0.9688,1.5107-1.4531,2.5625-1.4531
		c0.8232,0,1.4561,0.2275,1.8984,0.6836s0.6641,1.1572,0.6641,2.1055v5.6953h-1.3984v-5.2266c0-0.5625-0.0459-0.9678-0.1367-1.2148
		s-0.2568-0.4463-0.4961-0.5977s-0.5205-0.2266-0.8438-0.2266c-0.583,0-1.0674,0.1943-1.4531,0.582s-0.5781,1.0088-0.5781,1.8633
		v4.8203h-1.4063v-5.3906c0-0.625-0.1143-1.0938-0.3438-1.4063s-0.6045-0.4688-1.125-0.4688c-0.3955,0-0.7617,0.1045-1.0977,0.3125
		s-0.5791,0.5127-0.7305,0.9141s-0.2266,0.9795-0.2266,1.7344v4.3047L128.7722,24.4338L128.7722,24.4338z"/>
	<path d="M147.78,21.7619l1.4531,0.1797c-0.2295,0.8486-0.6533,1.5078-1.2734,1.9766s-1.4111,0.7031-2.375,0.7031
		c-1.2139,0-2.1758-0.374-2.8867-1.1211s-1.0664-1.7959-1.0664-3.1445c0-1.3955,0.3594-2.4795,1.0781-3.25
		s1.6514-1.1563,2.7969-1.1563c1.1094,0,2.0156,0.3779,2.7188,1.1328s1.0547,1.8174,1.0547,3.1875
		c0,0.083-0.0029,0.208-0.0078,0.375h-6.1875c0.0518,0.9111,0.3096,1.6094,0.7734,2.0938s1.042,0.7266,1.7344,0.7266
		c0.5156,0,0.9561-0.1357,1.3203-0.4063S147.5662,22.3556,147.78,21.7619z M143.1628,19.4884h4.6328
		c-0.0625-0.6982-0.2393-1.2217-0.5313-1.5703c-0.4482-0.542-1.0283-0.8125-1.7422-0.8125c-0.6455,0-1.1885,0.2158-1.6289,0.6484
		S143.2097,18.7648,143.1628,19.4884z"/>
	<path d="M150.9988,24.4338v-8.2969h1.2656v1.1797c0.6094-0.9111,1.4893-1.3672,2.6406-1.3672c0.5,0,0.96,0.0898,1.3789,0.2695
		s0.7334,0.415,0.9414,0.707s0.3545,0.6377,0.4375,1.0391c0.0518,0.2607,0.0781,0.7158,0.0781,1.3672v5.1016h-1.4063v-5.0469
		c0-0.5732-0.0547-1.001-0.1641-1.2852s-0.3037-0.5107-0.582-0.6797s-0.6055-0.2539-0.9805-0.2539
		c-0.5986,0-1.1162,0.1904-1.5508,0.5703s-0.6523,1.1016-0.6523,2.1641v4.5313C152.4049,24.4338,150.9988,24.4338,150.9988,24.4338z
		"/>
	<path d="M162.9675,23.1759l0.2031,1.2422c-0.3955,0.083-0.75,0.125-1.0625,0.125c-0.5107,0-0.9063-0.0811-1.1875-0.2422
		s-0.4795-0.374-0.5938-0.6367s-0.1719-0.8164-0.1719-1.6602v-4.7734h-1.0313v-1.0938h1.0313v-2.0547l1.3984-0.8438v2.8984h1.4141
		v1.0938h-1.4141v4.8516c0,0.4014,0.0244,0.6592,0.0742,0.7734s0.1299,0.2061,0.2422,0.2734s0.2725,0.1016,0.4805,0.1016
		C162.5066,23.2306,162.7126,23.2121,162.9675,23.1759z"/>
	<path d="M169.7566,23.4103c-0.5205,0.4424-1.0225,0.7549-1.5039,0.9375s-0.999,0.2734-1.5508,0.2734
		c-0.9111,0-1.6123-0.2227-2.1016-0.668s-0.7344-1.0146-0.7344-1.707c0-0.4063,0.0928-0.7773,0.2773-1.1133
		s0.4268-0.6055,0.7266-0.8086s0.6367-0.3564,1.0117-0.4609c0.2764-0.0732,0.6924-0.1436,1.25-0.2109
		c1.1357-0.1357,1.9717-0.2969,2.5078-0.4844c0.0049-0.1924,0.0078-0.3154,0.0078-0.3672c0-0.5732-0.1328-0.9766-0.3984-1.2109
		c-0.3594-0.3174-0.8936-0.4766-1.6016-0.4766c-0.6611,0-1.1494,0.1162-1.4648,0.3477s-0.5479,0.6416-0.6992,1.2305l-1.375-0.1875
		c0.125-0.5889,0.3311-1.0635,0.6172-1.4258s0.7002-0.6406,1.2422-0.8359s1.1689-0.293,1.8828-0.293
		c0.708,0,1.2842,0.083,1.7266,0.25s0.7686,0.376,0.9766,0.6289s0.3545,0.5713,0.4375,0.957
		c0.0469,0.2393,0.0703,0.6719,0.0703,1.2969v1.875c0,1.3076,0.0303,2.1338,0.0898,2.4805s0.1787,0.6787,0.3555,0.9961h-1.4688
		C169.8923,24.1418,169.7986,23.8009,169.7566,23.4103z M169.6394,20.2697c-0.5107,0.208-1.2764,0.3857-2.2969,0.5313
		c-0.5781,0.083-0.9873,0.1768-1.2266,0.2813s-0.4248,0.2568-0.5547,0.457s-0.1953,0.4229-0.1953,0.668
		c0,0.375,0.1416,0.6875,0.4258,0.9375s0.6992,0.375,1.2461,0.375c0.542,0,1.0234-0.1182,1.4453-0.3555s0.7314-0.5615,0.9297-0.9727
		c0.1514-0.3174,0.2266-0.7861,0.2266-1.4063L169.6394,20.2697L169.6394,20.2697z"/>
	<path d="M178.655,21.3947l1.3828,0.1797c-0.1514,0.9531-0.5381,1.6992-1.1602,2.2383s-1.3867,0.8086-2.293,0.8086
		c-1.1357,0-2.0479-0.3711-2.7383-1.1133s-1.0352-1.8057-1.0352-3.1914c0-0.8955,0.1484-1.6797,0.4453-2.3516
		s0.749-1.1758,1.3555-1.5117s1.2666-0.5039,1.9805-0.5039c0.9014,0,1.6377,0.2275,2.2109,0.6836s0.9404,1.1025,1.1016,1.9414
		l-1.3672,0.2109c-0.1299-0.5576-0.3604-0.9766-0.6914-1.2578s-0.7305-0.4219-1.1992-0.4219c-0.708,0-1.2842,0.2539-1.7266,0.7617
		s-0.6641,1.3115-0.6641,2.4102c0,1.1143,0.2139,1.9248,0.6406,2.4297s0.9844,0.7578,1.6719,0.7578
		c0.5518,0,1.0127-0.1689,1.3828-0.5078S178.5564,22.0978,178.655,21.3947z"/>
	<path d="M181.2488,14.5978v-1.6172h1.4063v1.6172H181.2488z M181.2488,24.4338v-8.2969h1.4063v8.2969H181.2488z"/>
	<path d="M184.2722,20.2853c0-1.5361,0.4268-2.6748,1.2813-3.4141c0.7139-0.6143,1.583-0.9219,2.6094-0.9219
		c1.1406,0,2.0732,0.374,2.7969,1.1211s1.0859,1.7803,1.0859,3.0977c0,1.0674-0.1602,1.9072-0.4805,2.5195
		s-0.7861,1.0869-1.3984,1.4258s-1.2803,0.5078-2.0039,0.5078c-1.1611,0-2.1006-0.3721-2.8164-1.1172
		S184.2722,21.6867,184.2722,20.2853z M185.7175,20.2853c0,1.0625,0.2314,1.8584,0.6953,2.3867s1.0469,0.793,1.75,0.793
		c0.6982,0,1.2783-0.2656,1.7422-0.7969s0.6953-1.3408,0.6953-2.4297c0-1.0264-0.2334-1.8037-0.6992-2.332
		s-1.0459-0.793-1.7383-0.793c-0.7031,0-1.2861,0.2627-1.75,0.7891S185.7175,19.2228,185.7175,20.2853z M187.3816,15.1056
		l1.0391-2.1875h1.8438l-1.7188,2.1875H187.3816z"/>
	<path d="M193.6941,24.4338v-8.2969h1.2656v1.1797c0.6094-0.9111,1.4893-1.3672,2.6406-1.3672c0.5,0,0.96,0.0898,1.3789,0.2695
		s0.7334,0.415,0.9414,0.707s0.3545,0.6377,0.4375,1.0391c0.0518,0.2607,0.0781,0.7158,0.0781,1.3672v5.1016H199.03v-5.0469
		c0-0.5732-0.0547-1.001-0.1641-1.2852s-0.3037-0.5107-0.582-0.6797s-0.6055-0.2539-0.9805-0.2539
		c-0.5986,0-1.1162,0.1904-1.5508,0.5703s-0.6523,1.1016-0.6523,2.1641v4.5313C195.1003,24.4338,193.6941,24.4338,193.6941,24.4338z
		"/>
	<path d="M212.4211,24.4338v-1.0469c-0.5264,0.8232-1.2998,1.2344-2.3203,1.2344c-0.6611,0-1.2695-0.1826-1.8242-0.5469
		s-0.9844-0.874-1.2891-1.5273s-0.457-1.4053-0.457-2.2539c0-0.8281,0.1377-1.5791,0.4141-2.2539s0.6904-1.1914,1.2422-1.5508
		s1.1689-0.5391,1.8516-0.5391c0.5,0,0.9453,0.1055,1.3359,0.3164s0.708,0.4854,0.9531,0.8242v-4.1094h1.3984v11.4531h-1.3047
		V24.4338z M207.9758,20.2931c0,1.0625,0.2236,1.8564,0.6719,2.3828s0.9766,0.7891,1.5859,0.7891
		c0.6143,0,1.1367-0.251,1.5664-0.7539s0.6445-1.2695,0.6445-2.3008c0-1.1357-0.2188-1.9688-0.6563-2.5
		s-0.9766-0.7969-1.6172-0.7969c-0.625,0-1.1475,0.2549-1.5664,0.7656S207.9758,19.1945,207.9758,20.2931z"/>
	<path d="M221.6165,21.7619l1.4531,0.1797c-0.2295,0.8486-0.6533,1.5078-1.2734,1.9766s-1.4111,0.7031-2.375,0.7031
		c-1.2139,0-2.1758-0.374-2.8867-1.1211s-1.0664-1.7959-1.0664-3.1445c0-1.3955,0.3594-2.4795,1.0781-3.25
		s1.6514-1.1563,2.7969-1.1563c1.1094,0,2.0156,0.3779,2.7188,1.1328s1.0547,1.8174,1.0547,3.1875
		c0,0.083-0.0029,0.208-0.0078,0.375h-6.1875c0.0518,0.9111,0.3096,1.6094,0.7734,2.0938s1.042,0.7266,1.7344,0.7266
		c0.5156,0,0.9561-0.1357,1.3203-0.4063S221.4026,22.3556,221.6165,21.7619z M216.9993,19.4884h4.6328
		c-0.0625-0.6982-0.2393-1.2217-0.5313-1.5703c-0.4482-0.542-1.0283-0.8125-1.7422-0.8125c-0.6455,0-1.1885,0.2158-1.6289,0.6484
		S217.0461,18.7648,216.9993,19.4884z"/>
	<path d="M229.2493,24.4338V12.9806h1.4063v11.4531L229.2493,24.4338L229.2493,24.4338z"/>
	<path d="M238.2493,23.4103c-0.5205,0.4424-1.0225,0.7549-1.5039,0.9375s-0.999,0.2734-1.5508,0.2734
		c-0.9111,0-1.6123-0.2227-2.1016-0.668s-0.7344-1.0146-0.7344-1.707c0-0.4063,0.0928-0.7773,0.2773-1.1133
		s0.4268-0.6055,0.7266-0.8086s0.6367-0.3564,1.0117-0.4609c0.2764-0.0732,0.6924-0.1436,1.25-0.2109
		c1.1357-0.1357,1.9717-0.2969,2.5078-0.4844c0.0049-0.1924,0.0078-0.3154,0.0078-0.3672c0-0.5732-0.1328-0.9766-0.3984-1.2109
		c-0.3594-0.3174-0.8936-0.4766-1.6016-0.4766c-0.6611,0-1.1494,0.1162-1.4648,0.3477s-0.5479,0.6416-0.6992,1.2305l-1.375-0.1875
		c0.125-0.5889,0.3311-1.0635,0.6172-1.4258s0.7002-0.6406,1.2422-0.8359s1.1689-0.293,1.8828-0.293
		c0.708,0,1.2842,0.083,1.7266,0.25s0.7686,0.376,0.9766,0.6289s0.3545,0.5713,0.4375,0.957
		c0.0469,0.2393,0.0703,0.6719,0.0703,1.2969v1.875c0,1.3076,0.0303,2.1338,0.0898,2.4805s0.1787,0.6787,0.3555,0.9961h-1.4688
		C238.385,24.1418,238.2913,23.8009,238.2493,23.4103z M238.1321,20.2697c-0.5107,0.208-1.2764,0.3857-2.2969,0.5313
		c-0.5781,0.083-0.9873,0.1768-1.2266,0.2813s-0.4248,0.2568-0.5547,0.457s-0.1953,0.4229-0.1953,0.668
		c0,0.375,0.1416,0.6875,0.4258,0.9375s0.6992,0.375,1.2461,0.375c0.542,0,1.0234-0.1182,1.4453-0.3555s0.7314-0.5615,0.9297-0.9727
		c0.1514-0.3174,0.2266-0.7861,0.2266-1.4063L238.1321,20.2697L238.1321,20.2697z"/>
	<path d="M241.1711,21.9572l1.3906-0.2188c0.0781,0.5576,0.2959,0.9844,0.6523,1.2813s0.8555,0.4453,1.4961,0.4453
		c0.6455,0,1.125-0.1318,1.4375-0.3945s0.4688-0.5713,0.4688-0.9258c0-0.3174-0.1377-0.5674-0.4141-0.75
		c-0.1924-0.125-0.6719-0.2842-1.4375-0.4766c-1.0313-0.2607-1.7461-0.4854-2.1445-0.6758s-0.7002-0.4531-0.9063-0.7891
		s-0.3086-0.707-0.3086-1.1133c0-0.3701,0.085-0.7119,0.2539-1.0273s0.3994-0.5771,0.6914-0.7852
		c0.2188-0.1611,0.5166-0.2979,0.8945-0.4102s0.7822-0.168,1.2148-0.168c0.6514,0,1.2227,0.0938,1.7148,0.2813
		s0.8555,0.4414,1.0898,0.7617s0.3955,0.749,0.4844,1.2852l-1.375,0.1875c-0.0625-0.4268-0.2432-0.7607-0.543-1
		s-0.7227-0.3594-1.2695-0.3594c-0.6455,0-1.1064,0.1064-1.3828,0.3203s-0.4141,0.4639-0.4141,0.75
		c0,0.1826,0.0576,0.3467,0.1719,0.4922c0.1143,0.1514,0.2939,0.2764,0.5391,0.375c0.1406,0.0518,0.5547,0.1719,1.2422,0.3594
		c0.9951,0.2656,1.6885,0.4834,2.082,0.6523s0.7021,0.415,0.9258,0.7383s0.3359,0.7236,0.3359,1.2031
		c0,0.4688-0.1367,0.9102-0.4102,1.3242s-0.668,0.7344-1.1836,0.9609s-1.0986,0.3398-1.75,0.3398
		c-1.0781,0-1.8994-0.2236-2.4648-0.6719S241.3274,22.8371,241.1711,21.9572z"/>
	<path d="M254.5149,24.4338v-7.2031h-1.2422v-1.0938h1.2422v-0.8828c0-0.5576,0.0498-0.9717,0.1484-1.2422
		c0.1357-0.3643,0.374-0.6602,0.7148-0.8867s0.8193-0.3398,1.4336-0.3398c0.3955,0,0.833,0.0469,1.3125,0.1406l-0.2109,1.2266
		c-0.292-0.0518-0.5674-0.0781-0.8281-0.0781c-0.4268,0-0.7295,0.0908-0.9063,0.2734s-0.2656,0.5234-0.2656,1.0234v0.7656h1.6172
		v1.0938h-1.6172v7.2031H254.5149z"/>
	<path d="M264.0383,23.4103c-0.5205,0.4424-1.0225,0.7549-1.5039,0.9375s-0.999,0.2734-1.5508,0.2734
		c-0.9111,0-1.6123-0.2227-2.1016-0.668s-0.7344-1.0146-0.7344-1.707c0-0.4063,0.0928-0.7773,0.2773-1.1133
		s0.4268-0.6055,0.7266-0.8086s0.6367-0.3564,1.0117-0.4609c0.2764-0.0732,0.6924-0.1436,1.25-0.2109
		c1.1357-0.1357,1.9717-0.2969,2.5078-0.4844c0.0049-0.1924,0.0078-0.3154,0.0078-0.3672c0-0.5732-0.1328-0.9766-0.3984-1.2109
		c-0.3594-0.3174-0.8936-0.4766-1.6016-0.4766c-0.6611,0-1.1494,0.1162-1.4648,0.3477s-0.5479,0.6416-0.6992,1.2305l-1.375-0.1875
		c0.125-0.5889,0.3311-1.0635,0.6172-1.4258s0.7002-0.6406,1.2422-0.8359s1.1689-0.293,1.8828-0.293
		c0.708,0,1.2842,0.083,1.7266,0.25s0.7686,0.376,0.9766,0.6289s0.3545,0.5713,0.4375,0.957
		c0.0469,0.2393,0.0703,0.6719,0.0703,1.2969v1.875c0,1.3076,0.0303,2.1338,0.0898,2.4805s0.1787,0.6787,0.3555,0.9961h-1.4688
		C264.1741,24.1418,264.0803,23.8009,264.0383,23.4103z M263.9211,20.2697c-0.5107,0.208-1.2764,0.3857-2.2969,0.5313
		c-0.5781,0.083-0.9873,0.1768-1.2266,0.2813s-0.4248,0.2568-0.5547,0.457s-0.1953,0.4229-0.1953,0.668
		c0,0.375,0.1416,0.6875,0.4258,0.9375s0.6992,0.375,1.2461,0.375c0.542,0,1.0234-0.1182,1.4453-0.3555s0.7314-0.5615,0.9297-0.9727
		c0.1514-0.3174,0.2266-0.7861,0.2266-1.4063V20.2697z"/>
	<path d="M266.9602,21.9572l1.3906-0.2188c0.0781,0.5576,0.2959,0.9844,0.6523,1.2813s0.8555,0.4453,1.4961,0.4453
		c0.6455,0,1.125-0.1318,1.4375-0.3945s0.4688-0.5713,0.4688-0.9258c0-0.3174-0.1377-0.5674-0.4141-0.75
		c-0.1924-0.125-0.6719-0.2842-1.4375-0.4766c-1.0313-0.2607-1.7461-0.4854-2.1445-0.6758s-0.7002-0.4531-0.9063-0.7891
		s-0.3086-0.707-0.3086-1.1133c0-0.3701,0.085-0.7119,0.2539-1.0273s0.3994-0.5771,0.6914-0.7852
		c0.2188-0.1611,0.5166-0.2979,0.8945-0.4102s0.7822-0.168,1.2148-0.168c0.6514,0,1.2227,0.0938,1.7148,0.2813
		s0.8555,0.4414,1.0898,0.7617s0.3955,0.749,0.4844,1.2852l-1.375,0.1875c-0.0625-0.4268-0.2432-0.7607-0.543-1
		s-0.7227-0.3594-1.2695-0.3594c-0.6455,0-1.1064,0.1064-1.3828,0.3203s-0.4141,0.4639-0.4141,0.75
		c0,0.1826,0.0576,0.3467,0.1719,0.4922c0.1143,0.1514,0.2939,0.2764,0.5391,0.375c0.1406,0.0518,0.5547,0.1719,1.2422,0.3594
		c0.9951,0.2656,1.6885,0.4834,2.082,0.6523s0.7021,0.415,0.9258,0.7383s0.3359,0.7236,0.3359,1.2031
		c0,0.4688-0.1367,0.9102-0.4102,1.3242s-0.668,0.7344-1.1836,0.9609s-1.0986,0.3398-1.75,0.3398
		c-1.0781,0-1.8994-0.2236-2.4648-0.6719S267.1165,22.8371,266.9602,21.9572z"/>
	<path d="M281.2024,21.7619l1.4531,0.1797c-0.2295,0.8486-0.6533,1.5078-1.2734,1.9766s-1.4111,0.7031-2.375,0.7031
		c-1.2139,0-2.1758-0.374-2.8867-1.1211s-1.0664-1.7959-1.0664-3.1445c0-1.3955,0.3594-2.4795,1.0781-3.25
		s1.6514-1.1563,2.7969-1.1563c1.1094,0,2.0156,0.3779,2.7188,1.1328s1.0547,1.8174,1.0547,3.1875
		c0,0.083-0.0029,0.208-0.0078,0.375h-6.1875c0.0518,0.9111,0.3096,1.6094,0.7734,2.0938s1.042,0.7266,1.7344,0.7266
		c0.5156,0,0.9561-0.1357,1.3203-0.4063S280.9885,22.3556,281.2024,21.7619z M276.5852,19.4884h4.6328
		c-0.0625-0.6982-0.2393-1.2217-0.5313-1.5703c-0.4482-0.542-1.0283-0.8125-1.7422-0.8125c-0.6455,0-1.1885,0.2158-1.6289,0.6484
		S276.6321,18.7648,276.5852,19.4884z"/>
	<path d="M283.8586,21.9572l1.3906-0.2188c0.0781,0.5576,0.2959,0.9844,0.6523,1.2813s0.8555,0.4453,1.4961,0.4453
		c0.6455,0,1.125-0.1318,1.4375-0.3945s0.4688-0.5713,0.4688-0.9258c0-0.3174-0.1377-0.5674-0.4141-0.75
		c-0.1924-0.125-0.6719-0.2842-1.4375-0.4766c-1.0313-0.2607-1.7461-0.4854-2.1445-0.6758s-0.7002-0.4531-0.9063-0.7891
		s-0.3086-0.707-0.3086-1.1133c0-0.3701,0.085-0.7119,0.2539-1.0273s0.3994-0.5771,0.6914-0.7852
		c0.2188-0.1611,0.5166-0.2979,0.8945-0.4102s0.7822-0.168,1.2148-0.168c0.6514,0,1.2227,0.0938,1.7148,0.2813
		s0.8555,0.4414,1.0898,0.7617s0.3955,0.749,0.4844,1.2852l-1.375,0.1875c-0.0625-0.4268-0.2432-0.7607-0.543-1
		s-0.7227-0.3594-1.2695-0.3594c-0.6455,0-1.1064,0.1064-1.3828,0.3203s-0.4141,0.4639-0.4141,0.75
		c0,0.1826,0.0576,0.3467,0.1719,0.4922c0.1143,0.1514,0.2939,0.2764,0.5391,0.375c0.1406,0.0518,0.5547,0.1719,1.2422,0.3594
		c0.9951,0.2656,1.6885,0.4834,2.082,0.6523s0.7021,0.415,0.9258,0.7383s0.3359,0.7236,0.3359,1.2031
		c0,0.4688-0.1367,0.9102-0.4102,1.3242s-0.668,0.7344-1.1836,0.9609s-1.0986,0.3398-1.75,0.3398
		c-1.0781,0-1.8994-0.2236-2.4648-0.6719S284.0149,22.8371,283.8586,21.9572z"/>
	<path d="M302.2493,24.4338v-1.0469c-0.5264,0.8232-1.2998,1.2344-2.3203,1.2344c-0.6611,0-1.2695-0.1826-1.8242-0.5469
		s-0.9844-0.874-1.2891-1.5273s-0.457-1.4053-0.457-2.2539c0-0.8281,0.1377-1.5791,0.4141-2.2539s0.6904-1.1914,1.2422-1.5508
		s1.1689-0.5391,1.8516-0.5391c0.5,0,0.9453,0.1055,1.3359,0.3164s0.708,0.4854,0.9531,0.8242v-4.1094h1.3984v11.4531h-1.3047
		V24.4338z M297.804,20.2931c0,1.0625,0.2236,1.8564,0.6719,2.3828s0.9766,0.7891,1.5859,0.7891
		c0.6143,0,1.1367-0.251,1.5664-0.7539s0.6445-1.2695,0.6445-2.3008c0-1.1357-0.2188-1.9688-0.6563-2.5
		s-0.9766-0.7969-1.6172-0.7969c-0.625,0-1.1475,0.2549-1.5664,0.7656S297.804,19.1945,297.804,20.2931z"/>
	<path d="M311.4446,21.7619l1.4531,0.1797c-0.2295,0.8486-0.6533,1.5078-1.2734,1.9766s-1.4111,0.7031-2.375,0.7031
		c-1.2139,0-2.1758-0.374-2.8867-1.1211s-1.0664-1.7959-1.0664-3.1445c0-1.3955,0.3594-2.4795,1.0781-3.25
		s1.6514-1.1563,2.7969-1.1563c1.1094,0,2.0156,0.3779,2.7188,1.1328s1.0547,1.8174,1.0547,3.1875
		c0,0.083-0.0029,0.208-0.0078,0.375h-6.1875c0.0518,0.9111,0.3096,1.6094,0.7734,2.0938s1.042,0.7266,1.7344,0.7266
		c0.5156,0,0.9561-0.1357,1.3203-0.4063S311.2307,22.3556,311.4446,21.7619z M306.8274,19.4884h4.6328
		c-0.0625-0.6982-0.2393-1.2217-0.5313-1.5703c-0.4482-0.542-1.0283-0.8125-1.7422-0.8125c-0.6455,0-1.1885,0.2158-1.6289,0.6484
		S306.8743,18.7648,306.8274,19.4884z"/>
	<path d="M324.4915,24.4338v-1.0469c-0.5264,0.8232-1.2998,1.2344-2.3203,1.2344c-0.6611,0-1.2695-0.1826-1.8242-0.5469
		s-0.9844-0.874-1.2891-1.5273s-0.457-1.4053-0.457-2.2539c0-0.8281,0.1377-1.5791,0.4141-2.2539s0.6904-1.1914,1.2422-1.5508
		s1.1689-0.5391,1.8516-0.5391c0.5,0,0.9453,0.1055,1.3359,0.3164s0.708,0.4854,0.9531,0.8242v-4.1094h1.3984v11.4531h-1.3047
		V24.4338z M320.0461,20.2931c0,1.0625,0.2236,1.8564,0.6719,2.3828s0.9766,0.7891,1.5859,0.7891
		c0.6143,0,1.1367-0.251,1.5664-0.7539s0.6445-1.2695,0.6445-2.3008c0-1.1357-0.2188-1.9688-0.6563-2.5
		s-0.9766-0.7969-1.6172-0.7969c-0.625,0-1.1475,0.2549-1.5664,0.7656S320.0461,19.1945,320.0461,20.2931z"/>
	<path d="M333.6868,21.7619l1.4531,0.1797c-0.2295,0.8486-0.6533,1.5078-1.2734,1.9766s-1.4111,0.7031-2.375,0.7031
		c-1.2139,0-2.1758-0.374-2.8867-1.1211s-1.0664-1.7959-1.0664-3.1445c0-1.3955,0.3594-2.4795,1.0781-3.25
		s1.6514-1.1563,2.7969-1.1563c1.1094,0,2.0156,0.3779,2.7188,1.1328s1.0547,1.8174,1.0547,3.1875
		c0,0.083-0.0029,0.208-0.0078,0.375h-6.1875c0.0518,0.9111,0.3096,1.6094,0.7734,2.0938s1.042,0.7266,1.7344,0.7266
		c0.5156,0,0.9561-0.1357,1.3203-0.4063S333.4729,22.3556,333.6868,21.7619z M329.0696,19.4884h4.6328
		c-0.0625-0.6982-0.2393-1.2217-0.5313-1.5703c-0.4482-0.542-1.0283-0.8125-1.7422-0.8125c-0.6455,0-1.1885,0.2158-1.6289,0.6484
		S329.1165,18.7648,329.0696,19.4884z"/>
	<path d="M336.343,21.9572l1.3906-0.2188c0.0781,0.5576,0.2959,0.9844,0.6523,1.2813s0.8555,0.4453,1.4961,0.4453
		c0.6455,0,1.125-0.1318,1.4375-0.3945s0.4688-0.5713,0.4688-0.9258c0-0.3174-0.1377-0.5674-0.4141-0.75
		c-0.1924-0.125-0.6719-0.2842-1.4375-0.4766c-1.0313-0.2607-1.7461-0.4854-2.1445-0.6758s-0.7002-0.4531-0.9063-0.7891
		s-0.3086-0.707-0.3086-1.1133c0-0.3701,0.085-0.7119,0.2539-1.0273s0.3994-0.5771,0.6914-0.7852
		c0.2188-0.1611,0.5166-0.2979,0.8945-0.4102s0.7822-0.168,1.2148-0.168c0.6514,0,1.2227,0.0938,1.7148,0.2813
		s0.8555,0.4414,1.0898,0.7617s0.3955,0.749,0.4844,1.2852l-1.375,0.1875c-0.0625-0.4268-0.2432-0.7607-0.543-1
		s-0.7227-0.3594-1.2695-0.3594c-0.6455,0-1.1064,0.1064-1.3828,0.3203s-0.4141,0.4639-0.4141,0.75
		c0,0.1826,0.0576,0.3467,0.1719,0.4922c0.1143,0.1514,0.2939,0.2764,0.5391,0.375c0.1406,0.0518,0.5547,0.1719,1.2422,0.3594
		c0.9951,0.2656,1.6885,0.4834,2.082,0.6523s0.7021,0.415,0.9258,0.7383s0.3359,0.7236,0.3359,1.2031
		c0,0.4688-0.1367,0.9102-0.4102,1.3242s-0.668,0.7344-1.1836,0.9609s-1.0986,0.3398-1.75,0.3398
		c-1.0781,0-1.8994-0.2236-2.4648-0.6719S336.4993,22.8371,336.343,21.9572z"/>
	<path d="M350.3196,23.4103c-0.5205,0.4424-1.0225,0.7549-1.5039,0.9375s-0.999,0.2734-1.5508,0.2734
		c-0.9111,0-1.6123-0.2227-2.1016-0.668s-0.7344-1.0146-0.7344-1.707c0-0.4063,0.0928-0.7773,0.2773-1.1133
		s0.4268-0.6055,0.7266-0.8086s0.6367-0.3564,1.0117-0.4609c0.2764-0.0732,0.6924-0.1436,1.25-0.2109
		c1.1357-0.1357,1.9717-0.2969,2.5078-0.4844c0.0049-0.1924,0.0078-0.3154,0.0078-0.3672c0-0.5732-0.1328-0.9766-0.3984-1.2109
		c-0.3594-0.3174-0.8936-0.4766-1.6016-0.4766c-0.6611,0-1.1494,0.1162-1.4648,0.3477s-0.5479,0.6416-0.6992,1.2305l-1.375-0.1875
		c0.125-0.5889,0.3311-1.0635,0.6172-1.4258s0.7002-0.6406,1.2422-0.8359s1.1689-0.293,1.8828-0.293
		c0.708,0,1.2842,0.083,1.7266,0.25s0.7686,0.376,0.9766,0.6289s0.3545,0.5713,0.4375,0.957
		c0.0469,0.2393,0.0703,0.6719,0.0703,1.2969v1.875c0,1.3076,0.0303,2.1338,0.0898,2.4805s0.1787,0.6787,0.3555,0.9961h-1.4688
		C350.4553,24.1418,350.3616,23.8009,350.3196,23.4103z M350.2024,20.2697c-0.5107,0.208-1.2764,0.3857-2.2969,0.5313
		c-0.5781,0.083-0.9873,0.1768-1.2266,0.2813s-0.4248,0.2568-0.5547,0.457s-0.1953,0.4229-0.1953,0.668
		c0,0.375,0.1416,0.6875,0.4258,0.9375s0.6992,0.375,1.2461,0.375c0.542,0,1.0234-0.1182,1.4453-0.3555s0.7314-0.5615,0.9297-0.9727
		c0.1514-0.3174,0.2266-0.7861,0.2266-1.4063V20.2697z"/>
	<path d="M353.7883,24.4338v-8.2969h1.2656v1.2578c0.3232-0.5889,0.6211-0.9766,0.8945-1.1641s0.5742-0.2813,0.9023-0.2813
		c0.4736,0,0.9561,0.1514,1.4453,0.4531l-0.4844,1.3047c-0.3438-0.2031-0.6875-0.3047-1.0313-0.3047
		c-0.3076,0-0.583,0.0928-0.8281,0.2773s-0.4189,0.4414-0.5234,0.7695c-0.1563,0.5-0.2344,1.0469-0.2344,1.6406v4.3438h-1.4061
		V24.4338z"/>
	<path d="M359.1165,24.4338v-8.2969h1.2656v1.2578c0.3232-0.5889,0.6211-0.9766,0.8945-1.1641s0.5742-0.2813,0.9023-0.2813
		c0.4736,0,0.9561,0.1514,1.4453,0.4531l-0.4844,1.3047c-0.3438-0.2031-0.6875-0.3047-1.0313-0.3047
		c-0.3076,0-0.583,0.0928-0.8281,0.2773s-0.4189,0.4414-0.5234,0.7695c-0.1563,0.5-0.2344,1.0469-0.2344,1.6406v4.3438h-1.4061
		V24.4338z"/>
	<path d="M363.9368,20.2853c0-1.5361,0.4268-2.6748,1.2813-3.4141c0.7139-0.6143,1.583-0.9219,2.6094-0.9219
		c1.1406,0,2.0732,0.374,2.7969,1.1211s1.0859,1.7803,1.0859,3.0977c0,1.0674-0.1602,1.9072-0.4805,2.5195
		s-0.7861,1.0869-1.3984,1.4258s-1.2803,0.5078-2.0039,0.5078c-1.1611,0-2.1006-0.3721-2.8164-1.1172
		S363.9368,21.6867,363.9368,20.2853z M365.3821,20.2853c0,1.0625,0.2314,1.8584,0.6953,2.3867s1.0469,0.793,1.75,0.793
		c0.6982,0,1.2783-0.2656,1.7422-0.7969s0.6953-1.3408,0.6953-2.4297c0-1.0264-0.2334-1.8037-0.6992-2.332
		s-1.0459-0.793-1.7383-0.793c-0.7031,0-1.2861,0.2627-1.75,0.7891S365.3821,19.2228,365.3821,20.2853z"/>
	<path d="M373.3274,24.4338V12.9806h1.4063v11.4531L373.3274,24.4338L373.3274,24.4338z"/>
	<path d="M376.8821,24.4338V12.9806h1.4063v11.4531L376.8821,24.4338L376.8821,24.4338z"/>
	<path d="M379.9446,20.2853c0-1.5361,0.4268-2.6748,1.2813-3.4141c0.7139-0.6143,1.583-0.9219,2.6094-0.9219
		c1.1406,0,2.0732,0.374,2.7969,1.1211s1.0859,1.7803,1.0859,3.0977c0,1.0674-0.1602,1.9072-0.4805,2.5195
		s-0.7861,1.0869-1.3984,1.4258s-1.2803,0.5078-2.0039,0.5078c-1.1611,0-2.1006-0.3721-2.8164-1.1172
		S379.9446,21.6867,379.9446,20.2853z M381.3899,20.2853c0,1.0625,0.2314,1.8584,0.6953,2.3867s1.0469,0.793,1.75,0.793
		c0.6982,0,1.2783-0.2656,1.7422-0.7969s0.6953-1.3408,0.6953-2.4297c0-1.0264-0.2334-1.8037-0.6992-2.332
		s-1.0459-0.793-1.7383-0.793c-0.7031,0-1.2861,0.2627-1.75,0.7891S381.3899,19.2228,381.3899,20.2853z"/>
	<path d="M389.7649,24.4338v-1.6016h1.6016v1.6016H389.7649z"/>
</g>
</svg>
