<?xml version="1.0" encoding="utf-8"?>
<!-- Generator: Adobe Illustrator 21.0.0, SVG Export Plug-In . SVG Version: 6.00 Build 0)  -->
<svg version="1.1" id="Capa_1" xmlns="http://www.w3.org/2000/svg" xmlns:xlink="http://www.w3.org/1999/xlink" x="0px" y="0px"
	 viewBox="0 0 379.9443 71.9775" style="enable-background:new 0 0 379.9443 71.9775;" xml:space="preserve">
<g>
	<g>
		<path style="fill:#B0BEC5;" d="M8.5996,50.9795c-0.1899,0-0.3896-0.04-0.5698-0.1201C7.8496,50.79,7.6899,50.6797,7.54,50.54
			c-0.2803-0.2803-0.4404-0.6602-0.4404-1.0605c0-0.3994,0.1704-0.79,0.4404-1.0596c0.3496-0.3506,0.8696-0.5098,1.3599-0.4102
			c0.0898,0.0098,0.1899,0.04,0.2798,0.0801c0.0903,0.04,0.1802,0.0898,0.2603,0.1396c0.0801,0.0508,0.1597,0.1201,0.23,0.1904
			c0.27,0.2803,0.4297,0.6602,0.4297,1.0596c0,0.2002-0.0298,0.3906-0.1099,0.5703c-0.0698,0.1797-0.1797,0.3496-0.3198,0.4902
			C9.3799,50.8193,9,50.9795,8.5996,50.9795z"/>
		<path style="fill:#B0BEC5;" d="M8.6099,59.2803c-0.2002,0-0.3999-0.04-0.5801-0.1104c-0.1802-0.0801-0.3398-0.1904-0.4897-0.3301
			c-0.1401-0.1396-0.25-0.2998-0.3203-0.4805c-0.0801-0.1797-0.1201-0.3799-0.1201-0.5791c0-0.3906,0.1602-0.7803,0.4404-1.0605
			c0.0698-0.0703,0.1499-0.1299,0.23-0.1895c0.0796-0.0508,0.1699-0.1006,0.2598-0.1309c0.0898-0.04,0.1899-0.0693,0.2803-0.0898
			c0.1997-0.04,0.3896-0.04,0.5898,0c0.0898,0.0205,0.1899,0.0498,0.2798,0.0898c0.0903,0.0303,0.1802,0.0801,0.2603,0.1309
			c0.0801,0.0596,0.1597,0.1191,0.23,0.1895c0.27,0.2803,0.4297,0.6699,0.4297,1.0605c0,0.1992-0.0298,0.3994-0.1099,0.5791
			c-0.0698,0.1807-0.1797,0.3408-0.3198,0.4805c-0.1499,0.1396-0.3101,0.25-0.4902,0.3301C9,59.2402,8.7998,59.2803,8.6099,59.2803z
			"/>
		<path style="fill:#B0BEC5;" d="M34.73,57.7803c0-0.8301,0.6797-1.5,1.5-1.5l0,0c0.8301,0,1.5,0.6699,1.5,1.5l0,0
			c0,0.8291-0.6699,1.5-1.5,1.5l0,0C35.4097,59.2803,34.73,58.6094,34.73,57.7803z M25.52,57.7803c0-0.8301,0.6797-1.5,1.5-1.5l0,0
			c0.8296,0,1.5,0.6699,1.5,1.5l0,0c0,0.8291-0.6704,1.5-1.5,1.5l0,0C26.1997,59.2803,25.52,58.6094,25.52,57.7803z
			 M16.3101,57.7803c0-0.8301,0.6797-1.5,1.5-1.5l0,0c0.8296,0,1.5,0.6699,1.5,1.5l0,0c0,0.8291-0.6704,1.5-1.5,1.5l0,0
			C16.9897,59.2803,16.3101,58.6094,16.3101,57.7803z"/>
		<path style="fill:#B0BEC5;" d="M45.4399,59.2803c-0.3999,0-0.77-0.1504-1.0601-0.4404c-0.1401-0.1396-0.25-0.2998-0.3198-0.4805
			c-0.0801-0.1797-0.1104-0.3799-0.1104-0.5791c0-0.1006,0.0103-0.1904,0.02-0.29c0.02-0.1006,0.0503-0.1904,0.0903-0.2803
			c0.0396-0.0898,0.0796-0.1797,0.1396-0.2598c0.0503-0.0801,0.1104-0.1602,0.1802-0.2305s0.1499-0.1299,0.23-0.1895
			c0.0801-0.0508,0.1699-0.1006,0.2598-0.1309c0.0903-0.04,0.1904-0.0693,0.2803-0.0898c0.4897-0.0898,1.0098,0.0605,1.3501,0.4102
			c0.0698,0.0703,0.1396,0.1504,0.1899,0.2305c0.0601,0.0801,0.1001,0.1699,0.1396,0.2598c0.04,0.0898,0.0703,0.1797,0.0801,0.2803
			c0.02,0.0996,0.0303,0.1895,0.0303,0.29c0,0.1992-0.0303,0.3994-0.1104,0.5791c-0.0698,0.1807-0.1797,0.3408-0.3296,0.4805
			C46.2197,59.1299,45.8496,59.2803,45.4399,59.2803z"/>
		<path style="fill:#B0BEC5;" d="M43.9497,64.1299c0-0.8301,0.6699-1.5,1.4902-1.5l0,0c0.8301,0,1.5,0.6699,1.5,1.5l0,0
			c0,0.8301-0.6699,1.5-1.5,1.5l0,0C44.6196,65.6299,43.9497,64.96,43.9497,64.1299z"/>
		<path style="fill:#B0BEC5;" d="M45.4399,71.9795c-0.1899,0-0.3901-0.04-0.5703-0.1201c-0.1797-0.0693-0.3398-0.1797-0.4897-0.3193
			c-0.2803-0.2803-0.4302-0.6602-0.4302-1.0605c0-0.3994,0.1499-0.79,0.4302-1.0596c0.0698-0.0703,0.1499-0.1299,0.23-0.1904
			c0.0801-0.0498,0.1699-0.0996,0.2598-0.1396c0.0903-0.0303,0.1904-0.0596,0.2803-0.0801
			c0.4897-0.0996,1.0098,0.0596,1.3501,0.4102c0.2798,0.2695,0.4399,0.6602,0.4399,1.0596c0,0.4004-0.1499,0.7803-0.4399,1.0605
			C46.2197,71.8193,45.8398,71.9795,45.4399,71.9795z"/>
	</g>
</g>
<g>
	
		<linearGradient id="SVGID_1_" gradientUnits="userSpaceOnUse" x1="370.7876" y1="53.0889" x2="11.8235" y2="53.0889" gradientTransform="matrix(1 0 0 -1 0 74)">
		<stop  offset="0" style="stop-color:#FFFFFF"/>
		<stop  offset="1" style="stop-color:#B0BEC5"/>
	</linearGradient>
	<rect style="fill:url(#SVGID_1_);" width="379.9443" height="41.8222"/>
	<rect style="fill:#D9E021;" width="7.4248" height="41.8222"/>
</g>
<g>
	<path d="M17.6316,23.4338V11.9806h2.2813l2.7109,8.1094c0.25,0.7549,0.4326,1.3203,0.5469,1.6953
		c0.1299-0.417,0.333-1.0283,0.6094-1.8359l2.7422-7.9688h2.0391v11.4531h-1.4609v-9.5859l-3.3281,9.5859H22.405l-3.3125-9.75v9.75
		L17.6316,23.4338L17.6316,23.4338z"/>
	<path d="M36.5066,20.7619l1.4531,0.1797c-0.2295,0.8486-0.6533,1.5078-1.2734,1.9766s-1.4111,0.7031-2.375,0.7031
		c-1.2139,0-2.1758-0.374-2.8867-1.1211s-1.0664-1.7959-1.0664-3.1445c0-1.3955,0.3594-2.4795,1.0781-3.25
		s1.6514-1.1563,2.7969-1.1563c1.1094,0,2.0156,0.3779,2.7188,1.1328c0.7032,0.7549,1.0547,1.8174,1.0547,3.1875
		c0,0.083-0.0029,0.208-0.0078,0.375h-6.1875c0.0518,0.9111,0.3096,1.6094,0.7734,2.0938s1.042,0.7266,1.7344,0.7266
		c0.5156,0,0.9561-0.1357,1.3203-0.4063S36.2927,21.3556,36.5066,20.7619z M31.8894,18.4884h4.6328
		c-0.0625-0.6982-0.2393-1.2217-0.5313-1.5703c-0.4482-0.542-1.0283-0.8125-1.7422-0.8125c-0.6455,0-1.1885,0.2158-1.6289,0.6484
		S31.9363,17.7648,31.8894,18.4884z"/>
	<path d="M37.9363,26.6525l0.2656-1.1953c0.2813,0.0732,0.5029,0.1094,0.6641,0.1094c0.2861,0,0.5-0.0947,0.6406-0.2852
		s0.2109-0.665,0.2109-1.4258v-8.7188h1.4063v8.75c0,1.0205-0.1328,1.7314-0.3984,2.1328
		c-0.3389,0.5205-0.9014,0.7813-1.6875,0.7813C38.658,26.8009,38.2908,26.7511,37.9363,26.6525z M39.7175,13.6134v-1.6328h1.4063
		v1.6328H39.7175z"/>
	<path d="M42.7566,19.2853c0-1.5361,0.4268-2.6748,1.2813-3.4141c0.7139-0.6143,1.583-0.9219,2.6094-0.9219
		c1.1406,0,2.0732,0.374,2.7969,1.1211s1.0859,1.7803,1.0859,3.0977c0,1.0674-0.1602,1.9072-0.4805,2.5195
		s-0.7861,1.0869-1.3984,1.4258s-1.2803,0.5078-2.0039,0.5078c-1.1611,0-2.1006-0.3721-2.8164-1.1172
		S42.7566,20.6867,42.7566,19.2853z M44.2019,19.2853c0,1.0625,0.2314,1.8584,0.6953,2.3867s1.0469,0.793,1.75,0.793
		c0.6982,0,1.2783-0.2656,1.7422-0.7969s0.6953-1.3408,0.6953-2.4297c0-1.0264-0.2334-1.8037-0.6992-2.332
		s-1.0459-0.793-1.7383-0.793c-0.7031,0-1.2861,0.2627-1.75,0.7891S44.2019,18.2228,44.2019,19.2853z"/>
	<path d="M52.1628,23.4338v-8.2969h1.2656v1.2578c0.3232-0.5889,0.6211-0.9766,0.8945-1.1641s0.5742-0.2813,0.9023-0.2813
		c0.4736,0,0.9561,0.1514,1.4453,0.4531l-0.4844,1.3047c-0.3438-0.2031-0.6875-0.3047-1.0313-0.3047
		c-0.3076,0-0.583,0.0928-0.8281,0.2773s-0.4189,0.4414-0.5234,0.7695c-0.1563,0.5-0.2344,1.0469-0.2344,1.6406v4.3438h-1.4061
		V23.4338z"/>
	<path d="M62.9207,22.4103c-0.5205,0.4424-1.0225,0.7549-1.5039,0.9375s-0.999,0.2734-1.5508,0.2734
		c-0.9111,0-1.6123-0.2227-2.1016-0.668s-0.7344-1.0146-0.7344-1.707c0-0.4063,0.0928-0.7773,0.2773-1.1133
		s0.4268-0.6055,0.7266-0.8086s0.6367-0.3564,1.0117-0.4609c0.2764-0.0732,0.6924-0.1436,1.25-0.2109
		c1.1357-0.1357,1.9717-0.2969,2.5078-0.4844c0.0049-0.1924,0.0078-0.3154,0.0078-0.3672c0-0.5732-0.1328-0.9766-0.3984-1.2109
		c-0.3594-0.3174-0.8936-0.4766-1.6016-0.4766c-0.6611,0-1.1494,0.1162-1.4648,0.3477s-0.5479,0.6416-0.6992,1.2305l-1.375-0.1875
		c0.125-0.5889,0.3311-1.0635,0.6172-1.4258s0.7002-0.6406,1.2422-0.8359s1.1689-0.293,1.8828-0.293
		c0.708,0,1.2842,0.083,1.7266,0.25s0.7686,0.376,0.9766,0.6289c0.208,0.2529,0.3545,0.5713,0.4375,0.957
		c0.0469,0.2393,0.0703,0.6719,0.0703,1.2969v1.875c0,1.3076,0.0303,2.1338,0.0898,2.4805s0.1787,0.6787,0.3555,0.9961h-1.4688
		C63.0564,23.1418,62.9627,22.8009,62.9207,22.4103z M62.8035,19.2697c-0.5107,0.208-1.2764,0.3857-2.2969,0.5313
		c-0.5781,0.083-0.9873,0.1768-1.2266,0.2813s-0.4248,0.2568-0.5547,0.457s-0.1953,0.4229-0.1953,0.668
		c0,0.375,0.1416,0.6875,0.4258,0.9375s0.6992,0.375,1.2461,0.375c0.542,0,1.0234-0.1182,1.4453-0.3555s0.7314-0.5615,0.9297-0.9727
		c0.1514-0.3174,0.2266-0.7861,0.2266-1.4063V19.2697z"/>
	<path d="M66.3894,23.4338v-8.2969h1.2656v1.2578c0.3232-0.5889,0.6211-0.9766,0.8945-1.1641s0.5742-0.2813,0.9023-0.2813
		c0.4736,0,0.9561,0.1514,1.4453,0.4531l-0.4844,1.3047c-0.3438-0.2031-0.6875-0.3047-1.0313-0.3047
		c-0.3076,0-0.583,0.0928-0.8281,0.2773s-0.4189,0.4414-0.5234,0.7695c-0.1563,0.5-0.2344,1.0469-0.2344,1.6406v4.3438h-1.4061
		V23.4338z"/>
	<path d="M76.1472,23.4338V11.9806h1.4063v11.4531L76.1472,23.4338L76.1472,23.4338z"/>
	<path d="M85.1472,22.4103c-0.5205,0.4424-1.0225,0.7549-1.5039,0.9375s-0.999,0.2734-1.5508,0.2734
		c-0.9111,0-1.6123-0.2227-2.1016-0.668s-0.7344-1.0146-0.7344-1.707c0-0.4063,0.0928-0.7773,0.2773-1.1133
		s0.4268-0.6055,0.7266-0.8086s0.6367-0.3564,1.0117-0.4609c0.2764-0.0732,0.6924-0.1436,1.25-0.2109
		c1.1357-0.1357,1.9717-0.2969,2.5078-0.4844c0.0049-0.1924,0.0078-0.3154,0.0078-0.3672c0-0.5732-0.1328-0.9766-0.3984-1.2109
		c-0.3594-0.3174-0.8936-0.4766-1.6016-0.4766c-0.6611,0-1.1494,0.1162-1.4648,0.3477s-0.5479,0.6416-0.6992,1.2305l-1.375-0.1875
		c0.125-0.5889,0.3311-1.0635,0.6172-1.4258s0.7002-0.6406,1.2422-0.8359s1.1689-0.293,1.8828-0.293
		c0.708,0,1.2842,0.083,1.7266,0.25s0.7686,0.376,0.9766,0.6289c0.208,0.2529,0.3545,0.5713,0.4375,0.957
		c0.0469,0.2393,0.0703,0.6719,0.0703,1.2969v1.875c0,1.3076,0.0303,2.1338,0.0898,2.4805s0.1787,0.6787,0.3555,0.9961h-1.4688
		C85.283,23.1418,85.1892,22.8009,85.1472,22.4103z M85.03,19.2697c-0.5107,0.208-1.2764,0.3857-2.2969,0.5313
		c-0.5781,0.083-0.9873,0.1768-1.2266,0.2813s-0.4248,0.2568-0.5547,0.457s-0.1953,0.4229-0.1953,0.668
		c0,0.375,0.1416,0.6875,0.4258,0.9375s0.6992,0.375,1.2461,0.375c0.542,0,1.0234-0.1182,1.4453-0.3555s0.7314-0.5615,0.9297-0.9727
		c0.1514-0.3174,0.2266-0.7861,0.2266-1.4063V19.2697z"/>
	<path d="M98.7566,20.7619l1.4531,0.1797c-0.2295,0.8486-0.6533,1.5078-1.2734,1.9766s-1.4111,0.7031-2.375,0.7031
		c-1.2139,0-2.1758-0.374-2.8867-1.1211s-1.0664-1.7959-1.0664-3.1445c0-1.3955,0.3594-2.4795,1.0781-3.25
		s1.6514-1.1563,2.7969-1.1563c1.1094,0,2.0156,0.3779,2.7188,1.1328c0.7032,0.7549,1.0547,1.8174,1.0547,3.1875
		c0,0.083-0.0029,0.208-0.0078,0.375h-6.1875c0.0518,0.9111,0.3096,1.6094,0.7734,2.0938s1.042,0.7266,1.7344,0.7266
		c0.5156,0,0.9561-0.1357,1.3203-0.4063S98.5427,21.3556,98.7566,20.7619z M94.1394,18.4884h4.6328
		c-0.0625-0.6982-0.2393-1.2217-0.5313-1.5703c-0.4482-0.542-1.0283-0.8125-1.7422-0.8125c-0.6455,0-1.1885,0.2158-1.6289,0.6484
		S94.1863,17.7648,94.1394,18.4884z"/>
	<path d="M102.3113,23.4338v-7.2031h-1.2422v-1.0938h1.2422v-0.8828c0-0.5576,0.0498-0.9717,0.1484-1.2422
		c0.1357-0.3643,0.374-0.6602,0.7148-0.8867s0.8193-0.3398,1.4336-0.3398c0.3955,0,0.833,0.0469,1.3125,0.1406l-0.2109,1.2266
		c-0.292-0.0518-0.5674-0.0781-0.8281-0.0781c-0.4268,0-0.7295,0.0908-0.9063,0.2734s-0.2656,0.5234-0.2656,1.0234v0.7656h1.6172
		v1.0938h-1.6172v7.2031C103.7097,23.4338,102.3113,23.4338,102.3113,23.4338z"/>
	<path d="M106.4285,13.5978v-1.6172h1.4063v1.6172H106.4285z M106.4285,23.4338v-8.2969h1.4063v8.2969H106.4285z"/>
	<path d="M115.3894,20.3947l1.3828,0.1797c-0.1514,0.9531-0.5381,1.6992-1.1602,2.2383s-1.3867,0.8086-2.293,0.8086
		c-1.1357,0-2.0479-0.3711-2.7383-1.1133s-1.0352-1.8057-1.0352-3.1914c0-0.8955,0.1484-1.6797,0.4453-2.3516
		s0.749-1.1758,1.3555-1.5117s1.2666-0.5039,1.9805-0.5039c0.9014,0,1.6377,0.2275,2.2109,0.6836s0.9404,1.1025,1.1016,1.9414
		l-1.3672,0.2109c-0.1299-0.5576-0.3604-0.9766-0.6914-1.2578s-0.7305-0.4219-1.1992-0.4219c-0.708,0-1.2842,0.2539-1.7266,0.7617
		s-0.6641,1.3115-0.6641,2.4102c0,1.1143,0.2139,1.9248,0.6406,2.4297s0.9844,0.7578,1.6719,0.7578
		c0.5518,0,1.0127-0.1689,1.3828-0.5078S115.2908,21.0978,115.3894,20.3947z"/>
	<path d="M117.9832,13.5978v-1.6172h1.4063v1.6172H117.9832z M117.9832,23.4338v-8.2969h1.4063v8.2969H117.9832z"/>
	<path d="M127.2097,20.7619l1.4531,0.1797c-0.2295,0.8486-0.6533,1.5078-1.2734,1.9766c-0.6201,0.4688-1.4111,0.7031-2.375,0.7031
		c-1.2139,0-2.1758-0.374-2.8867-1.1211s-1.0664-1.7959-1.0664-3.1445c0-1.3955,0.3594-2.4795,1.0781-3.25
		s1.6514-1.1563,2.7969-1.1563c1.1094,0,2.0156,0.3779,2.7188,1.1328c0.7031,0.7549,1.0547,1.8174,1.0547,3.1875
		c0,0.083-0.0029,0.208-0.0078,0.375h-6.1875c0.0518,0.9111,0.3096,1.6094,0.7734,2.0938s1.042,0.7266,1.7344,0.7266
		c0.5156,0,0.9561-0.1357,1.3203-0.4063S126.9959,21.3556,127.2097,20.7619z M122.5925,18.4884h4.6328
		c-0.0625-0.6982-0.2393-1.2217-0.5313-1.5703c-0.4482-0.542-1.0283-0.8125-1.7422-0.8125c-0.6455,0-1.1885,0.2158-1.6289,0.6484
		S122.6394,17.7648,122.5925,18.4884z"/>
	<path d="M130.4285,23.4338v-8.2969h1.2656v1.1797c0.6094-0.9111,1.4893-1.3672,2.6406-1.3672c0.5,0,0.96,0.0898,1.3789,0.2695
		s0.7334,0.415,0.9414,0.707c0.208,0.292,0.3545,0.6377,0.4375,1.0391c0.0518,0.2607,0.0781,0.7158,0.0781,1.3672v5.1016h-1.4063
		v-5.0469c0-0.5732-0.0547-1.001-0.1641-1.2852s-0.3037-0.5107-0.582-0.6797s-0.6055-0.2539-0.9805-0.2539
		c-0.5986,0-1.1162,0.1904-1.5508,0.5703s-0.6523,1.1016-0.6523,2.1641v4.5313H130.4285z"/>
	<path d="M144.741,20.3947l1.3828,0.1797c-0.1514,0.9531-0.5381,1.6992-1.1602,2.2383s-1.3867,0.8086-2.293,0.8086
		c-1.1357,0-2.0479-0.3711-2.7383-1.1133s-1.0352-1.8057-1.0352-3.1914c0-0.8955,0.1484-1.6797,0.4453-2.3516
		s0.749-1.1758,1.3555-1.5117s1.2666-0.5039,1.9805-0.5039c0.9014,0,1.6377,0.2275,2.2109,0.6836s0.9404,1.1025,1.1016,1.9414
		l-1.3672,0.2109c-0.1299-0.5576-0.3604-0.9766-0.6914-1.2578s-0.7305-0.4219-1.1992-0.4219c-0.708,0-1.2842,0.2539-1.7266,0.7617
		s-0.6641,1.3115-0.6641,2.4102c0,1.1143,0.2139,1.9248,0.6406,2.4297s0.9844,0.7578,1.6719,0.7578
		c0.5518,0,1.0127-0.1689,1.3828-0.5078S144.6423,21.0978,144.741,20.3947z"/>
	<path d="M147.3347,13.5978v-1.6172h1.4063v1.6172H147.3347z M147.3347,23.4338v-8.2969h1.4063v8.2969H147.3347z"/>
	<path d="M156.2957,22.4103c-0.5205,0.4424-1.0225,0.7549-1.5039,0.9375s-0.999,0.2734-1.5508,0.2734
		c-0.9111,0-1.6123-0.2227-2.1016-0.668s-0.7344-1.0146-0.7344-1.707c0-0.4063,0.0928-0.7773,0.2773-1.1133
		s0.4268-0.6055,0.7266-0.8086s0.6367-0.3564,1.0117-0.4609c0.2764-0.0732,0.6924-0.1436,1.25-0.2109
		c1.1357-0.1357,1.9717-0.2969,2.5078-0.4844c0.0049-0.1924,0.0078-0.3154,0.0078-0.3672c0-0.5732-0.1328-0.9766-0.3984-1.2109
		c-0.3594-0.3174-0.8936-0.4766-1.6016-0.4766c-0.6611,0-1.1494,0.1162-1.4648,0.3477s-0.5479,0.6416-0.6992,1.2305l-1.375-0.1875
		c0.125-0.5889,0.3311-1.0635,0.6172-1.4258s0.7002-0.6406,1.2422-0.8359s1.1689-0.293,1.8828-0.293
		c0.708,0,1.2842,0.083,1.7266,0.25s0.7686,0.376,0.9766,0.6289c0.208,0.2529,0.3545,0.5713,0.4375,0.957
		c0.0469,0.2393,0.0703,0.6719,0.0703,1.2969v1.875c0,1.3076,0.0303,2.1338,0.0898,2.4805s0.1787,0.6787,0.3555,0.9961h-1.4688
		C156.4314,23.1418,156.3376,22.8009,156.2957,22.4103z M156.1785,19.2697c-0.5107,0.208-1.2764,0.3857-2.2969,0.5313
		c-0.5781,0.083-0.9873,0.1768-1.2266,0.2813s-0.4248,0.2568-0.5547,0.457s-0.1953,0.4229-0.1953,0.668
		c0,0.375,0.1416,0.6875,0.4258,0.9375s0.6992,0.375,1.2461,0.375c0.542,0,1.0234-0.1182,1.4453-0.3555s0.7314-0.5615,0.9297-0.9727
		c0.1514-0.3174,0.2266-0.7861,0.2266-1.4063L156.1785,19.2697L156.1785,19.2697z"/>
	<path d="M164.1628,26.6291l-0.1563-1.3203c0.3076,0.083,0.5752,0.125,0.8047,0.125c0.3125,0,0.5625-0.0518,0.75-0.1563
		s0.3408-0.25,0.4609-0.4375c0.0889-0.1406,0.2314-0.4893,0.4297-1.0469c0.0264-0.0781,0.0674-0.1924,0.125-0.3438l-3.1484-8.3125
		h1.5156l1.7266,4.8047c0.2236,0.6094,0.4248,1.25,0.6016,1.9219c0.1611-0.6455,0.3545-1.2764,0.5781-1.8906l1.7734-4.8359h1.4063
		l-3.1563,8.4375c-0.3389,0.9111-0.6016,1.5391-0.7891,1.8828c-0.25,0.4639-0.5361,0.8037-0.8594,1.0195
		s-0.708,0.3242-1.1563,0.3242C164.7986,26.8009,164.4958,26.7433,164.1628,26.6291z"/>
	<path d="M176.6707,26.6134V15.1369h1.2813v1.0781c0.3018-0.4219,0.6436-0.7383,1.0234-0.9492s0.8408-0.3164,1.3828-0.3164
		c0.708,0,1.333,0.1826,1.875,0.5469s0.9502,0.8789,1.2266,1.543s0.4141,1.3916,0.4141,2.1836c0,0.8486-0.1523,1.6133-0.457,2.293
		s-0.7471,1.2002-1.3281,1.5625s-1.1914,0.543-1.832,0.543c-0.4688,0-0.8896-0.0986-1.2617-0.2969s-0.6787-0.4482-0.918-0.75v4.0391
		h-1.4064V26.6134z M177.9441,19.3322c0,1.0674,0.2158,1.8564,0.6484,2.3672s0.9561,0.7656,1.5703,0.7656
		c0.625,0,1.1602-0.2646,1.6055-0.793s0.668-1.3477,0.668-2.457c0-1.0576-0.2178-1.8486-0.6523-2.375s-0.9541-0.7891-1.5586-0.7891
		c-0.5986,0-1.1289,0.2803-1.5898,0.8398S177.9441,18.2648,177.9441,19.3322z"/>
	<path d="M185.5535,23.4338v-8.2969h1.2661v1.2578c0.3232-0.5889,0.6211-0.9766,0.8945-1.1641s0.5742-0.2813,0.9023-0.2813
		c0.4736,0,0.9561,0.1514,1.4453,0.4531l-0.4844,1.3047c-0.3438-0.2031-0.6875-0.3047-1.0313-0.3047
		c-0.3076,0-0.583,0.0928-0.8281,0.2773s-0.4189,0.4414-0.5234,0.7695c-0.1563,0.5-0.2344,1.0469-0.2344,1.6406v4.3438h-1.4066
		V23.4338z"/>
	<path d="M190.3743,19.2853c0-1.5361,0.4268-2.6748,1.2813-3.4141c0.7139-0.6143,1.583-0.9219,2.6094-0.9219
		c1.1406,0,2.0732,0.374,2.7969,1.1211s1.0859,1.7803,1.0859,3.0977c0,1.0674-0.1602,1.9072-0.4805,2.5195
		s-0.7861,1.0869-1.3984,1.4258s-1.2803,0.5078-2.0039,0.5078c-1.1611,0-2.1006-0.3721-2.8164-1.1172
		S190.3743,20.6867,190.3743,19.2853z M191.8196,19.2853c0,1.0625,0.2314,1.8584,0.6953,2.3867s1.0469,0.793,1.75,0.793
		c0.6982,0,1.2783-0.2656,1.7422-0.7969s0.6953-1.3408,0.6953-2.4297c0-1.0264-0.2334-1.8037-0.6992-2.332
		s-1.0459-0.793-1.7383-0.793c-0.7031,0-1.2861,0.2627-1.75,0.7891S191.8196,18.2228,191.8196,19.2853z"/>
	<path d="M205.179,23.4338v-1.0469c-0.5264,0.8232-1.2998,1.2344-2.3203,1.2344c-0.6611,0-1.2695-0.1826-1.8242-0.5469
		s-0.9844-0.874-1.2891-1.5273s-0.457-1.4053-0.457-2.2539c0-0.8281,0.1377-1.5791,0.4141-2.2539s0.6904-1.1914,1.2422-1.5508
		s1.1689-0.5391,1.8516-0.5391c0.5,0,0.9453,0.1055,1.3359,0.3164s0.708,0.4854,0.9531,0.8242v-4.1094h1.3984v11.4531h-1.3047
		V23.4338z M200.7336,19.2931c0,1.0625,0.2236,1.8564,0.6719,2.3828s0.9766,0.7891,1.5859,0.7891
		c0.6143,0,1.1367-0.251,1.5664-0.7539s0.6445-1.2695,0.6445-2.3008c0-1.1357-0.2188-1.9688-0.6563-2.5
		s-0.9766-0.7969-1.6172-0.7969c-0.625,0-1.1475,0.2549-1.5664,0.7656S200.7336,18.1945,200.7336,19.2931z"/>
	<path d="M214.1321,23.4338V22.215c-0.6455,0.9375-1.5234,1.4063-2.6328,1.4063c-0.4893,0-0.9463-0.0938-1.3711-0.2813
		s-0.7393-0.4229-0.9453-0.707s-0.3506-0.6318-0.4336-1.043c-0.0576-0.2764-0.0859-0.7139-0.0859-1.3125v-5.1406h1.4063v4.6016
		c0,0.7344,0.0283,1.2295,0.0859,1.4844c0.0889,0.3701,0.2764,0.6602,0.5625,0.8711s0.6406,0.3164,1.0625,0.3164
		s0.8174-0.1084,1.1875-0.3242s0.6318-0.5107,0.7852-0.8828s0.2305-0.9131,0.2305-1.6211V15.137h1.4063v8.2969h-1.258V23.4338z"/>
	<path d="M223.0071,20.3947l1.3828,0.1797c-0.1514,0.9531-0.5381,1.6992-1.1602,2.2383s-1.3867,0.8086-2.293,0.8086
		c-1.1357,0-2.0479-0.3711-2.7383-1.1133s-1.0352-1.8057-1.0352-3.1914c0-0.8955,0.1484-1.6797,0.4453-2.3516
		s0.749-1.1758,1.3555-1.5117s1.2666-0.5039,1.9805-0.5039c0.9014,0,1.6377,0.2275,2.2109,0.6836s0.9404,1.1025,1.1016,1.9414
		l-1.3672,0.2109c-0.1299-0.5576-0.3604-0.9766-0.6914-1.2578s-0.7305-0.4219-1.1992-0.4219c-0.708,0-1.2842,0.2539-1.7266,0.7617
		s-0.6641,1.3115-0.6641,2.4102c0,1.1143,0.2139,1.9248,0.6406,2.4297s0.9844,0.7578,1.6719,0.7578
		c0.5518,0,1.0127-0.1689,1.3828-0.5078S222.9084,21.0978,223.0071,20.3947z"/>
	<path d="M228.6633,22.1759l0.2031,1.2422c-0.3955,0.083-0.75,0.125-1.0625,0.125c-0.5107,0-0.9063-0.0811-1.1875-0.2422
		s-0.4795-0.374-0.5938-0.6367s-0.1719-0.8164-0.1719-1.6602v-4.7734h-1.0313v-1.0938h1.0313v-2.0547l1.3984-0.8438v2.8984h1.4141
		v1.0938h-1.4141v4.8516c0,0.4014,0.0244,0.6592,0.0742,0.7734s0.1299,0.2061,0.2422,0.2734s0.2725,0.1016,0.4805,0.1016
		C228.2024,22.2306,228.4084,22.2121,228.6633,22.1759z"/>
	<path d="M230.0461,13.5978v-1.6172h1.4063v1.6172H230.0461z M230.0461,23.4338v-8.2969h1.4063v8.2969H230.0461z"/>
	<path d="M235.8977,23.4338l-3.1563-8.2969h1.4844l1.7813,4.9688c0.1924,0.5361,0.3701,1.0938,0.5313,1.6719
		c0.125-0.4375,0.2998-0.9639,0.5234-1.5781l1.8438-5.0625h1.4453l-3.1406,8.2969L235.8977,23.4338L235.8977,23.4338z"/>
	<path d="M241.6008,13.5978v-1.6172h1.4063v1.6172H241.6008z M241.6008,23.4338v-8.2969h1.4063v8.2969H241.6008z"/>
	<path d="M250.5305,23.4338v-1.0469c-0.5264,0.8232-1.2998,1.2344-2.3203,1.2344c-0.6611,0-1.2695-0.1826-1.8242-0.5469
		s-0.9844-0.874-1.2891-1.5273s-0.457-1.4053-0.457-2.2539c0-0.8281,0.1377-1.5791,0.4141-2.2539s0.6904-1.1914,1.2422-1.5508
		s1.1689-0.5391,1.8516-0.5391c0.5,0,0.9453,0.1055,1.3359,0.3164s0.708,0.4854,0.9531,0.8242v-4.1094h1.3984v11.4531h-1.3047
		V23.4338z M246.0852,19.2931c0,1.0625,0.2236,1.8564,0.6719,2.3828s0.9766,0.7891,1.5859,0.7891
		c0.6143,0,1.1367-0.251,1.5664-0.7539s0.6445-1.2695,0.6445-2.3008c0-1.1357-0.2188-1.9688-0.6563-2.5
		s-0.9766-0.7969-1.6172-0.7969c-0.625,0-1.1475,0.2549-1.5664,0.7656S246.0852,18.1945,246.0852,19.2931z"/>
	<path d="M259.4602,22.4103c-0.5205,0.4424-1.0225,0.7549-1.5039,0.9375s-0.999,0.2734-1.5508,0.2734
		c-0.9111,0-1.6123-0.2227-2.1016-0.668s-0.7344-1.0146-0.7344-1.707c0-0.4063,0.0928-0.7773,0.2773-1.1133
		s0.4268-0.6055,0.7266-0.8086s0.6367-0.3564,1.0117-0.4609c0.2764-0.0732,0.6924-0.1436,1.25-0.2109
		c1.1357-0.1357,1.9717-0.2969,2.5078-0.4844c0.0049-0.1924,0.0078-0.3154,0.0078-0.3672c0-0.5732-0.1328-0.9766-0.3984-1.2109
		c-0.3594-0.3174-0.8936-0.4766-1.6016-0.4766c-0.6611,0-1.1494,0.1162-1.4648,0.3477s-0.5479,0.6416-0.6992,1.2305l-1.375-0.1875
		c0.125-0.5889,0.3311-1.0635,0.6172-1.4258s0.7002-0.6406,1.2422-0.8359c0.542-0.1953,1.1689-0.293,1.8828-0.293
		c0.708,0,1.2842,0.083,1.7266,0.25s0.7686,0.376,0.9766,0.6289c0.208,0.2529,0.3545,0.5713,0.4375,0.957
		c0.0469,0.2393,0.0703,0.6719,0.0703,1.2969v1.875c0,1.3076,0.0303,2.1338,0.0898,2.4805s0.1787,0.6787,0.3555,0.9961h-1.4688
		C259.5959,23.1418,259.5022,22.8009,259.4602,22.4103z M259.343,19.2697c-0.5107,0.208-1.2764,0.3857-2.2969,0.5313
		c-0.5781,0.083-0.9873,0.1768-1.2266,0.2813s-0.4248,0.2568-0.5547,0.457s-0.1953,0.4229-0.1953,0.668
		c0,0.375,0.1416,0.6875,0.4258,0.9375s0.6992,0.375,1.2461,0.375c0.542,0,1.0234-0.1182,1.4453-0.3555s0.7314-0.5615,0.9297-0.9727
		c0.1514-0.3174,0.2266-0.7861,0.2266-1.4063V19.2697z"/>
	<path d="M268.3274,23.4338v-1.0469c-0.5264,0.8232-1.2998,1.2344-2.3203,1.2344c-0.6611,0-1.2695-0.1826-1.8242-0.5469
		s-0.9844-0.874-1.2891-1.5273s-0.457-1.4053-0.457-2.2539c0-0.8281,0.1377-1.5791,0.4141-2.2539s0.6904-1.1914,1.2422-1.5508
		s1.1689-0.5391,1.8516-0.5391c0.5,0,0.9453,0.1055,1.3359,0.3164s0.708,0.4854,0.9531,0.8242v-4.1094h1.3984v11.4531h-1.3047
		V23.4338z M263.8821,19.2931c0,1.0625,0.2236,1.8564,0.6719,2.3828s0.9766,0.7891,1.5859,0.7891
		c0.6143,0,1.1367-0.251,1.5664-0.7539s0.6445-1.2695,0.6445-2.3008c0-1.1357-0.2188-1.9688-0.6563-2.5
		s-0.9766-0.7969-1.6172-0.7969c-0.625,0-1.1475,0.2549-1.5664,0.7656S263.8821,18.1945,263.8821,19.2931z"/>
	<path d="M272.2415,23.4338v-1.6016h1.6016v1.6016H272.2415z"/>
</g>
</svg>
