<?xml version="1.0" encoding="utf-8"?>
<!-- Generator: Adobe Illustrator 21.0.0, SVG Export Plug-In . SVG Version: 6.00 Build 0)  -->
<svg version="1.1" id="Capa_1" xmlns="http://www.w3.org/2000/svg" xmlns:xlink="http://www.w3.org/1999/xlink" x="0px" y="0px"
	 viewBox="0 0 346.9443 72.3413" style="enable-background:new 0 0 346.9443 72.3413;" xml:space="preserve">
<g>
	<g>
		<path style="fill:#B0BEC5;" d="M3.9399,51.0801c-0.3999,0-0.79-0.1602-1.0703-0.4404c-0.0698-0.0703-0.1299-0.1494-0.1899-0.2295
			c-0.0498-0.0801-0.1001-0.1699-0.1396-0.2607C2.5,50.0596,2.48,49.96,2.46,49.8594c-0.02-0.0898-0.0303-0.1895-0.0303-0.29
			c0-0.0996,0.0103-0.1992,0.0303-0.2998c0.02-0.0996,0.04-0.1895,0.0801-0.2793c0.0396-0.1006,0.0898-0.1807,0.1396-0.2705
			c0.0601-0.0801,0.1201-0.1602,0.1899-0.2295c0.5601-0.5605,1.5801-0.5605,2.1504,0c0.0698,0.0693,0.1299,0.1494,0.1899,0.2295
			c0.0498,0.0898,0.1001,0.1699,0.1396,0.2705c0.0303,0.0898,0.0601,0.1797,0.0801,0.2793c0.02,0.1006,0.0303,0.2002,0.0303,0.2998
			c0,0.1006-0.0103,0.2002-0.0303,0.29c-0.02,0.1006-0.0498,0.2002-0.0801,0.29c-0.0396,0.0908-0.0898,0.1807-0.1396,0.2607
			c-0.0601,0.0801-0.1201,0.1592-0.1899,0.2295C4.7397,50.9199,4.3398,51.0801,3.9399,51.0801z"/>
		<path style="fill:#B0BEC5;" d="M3.9399,59.4902c-0.3901,0-0.79-0.1602-1.0703-0.4404c-0.2798-0.29-0.4399-0.6797-0.4399-1.0801
			c0-0.0996,0.0103-0.2002,0.0303-0.29c0.02-0.0996,0.04-0.2002,0.0801-0.29c0.0396-0.0898,0.0898-0.1797,0.1396-0.2598
			c0.0601-0.0801,0.1201-0.1602,0.1899-0.2305c0.3501-0.3496,0.8804-0.5098,1.3701-0.4199c0.1001,0.0205,0.1899,0.0508,0.29,0.0898
			C4.6196,56.6094,4.71,56.6494,4.79,56.71c0.0796,0.0596,0.1597,0.1201,0.23,0.1895c0.0698,0.0703,0.1299,0.1504,0.1899,0.2305
			c0.0498,0.0801,0.1001,0.1699,0.1396,0.2598c0.0303,0.0898,0.0601,0.1904,0.0801,0.29c0.02,0.0898,0.0303,0.1904,0.0303,0.29
			s-0.0103,0.2002-0.0303,0.2998c-0.02,0.1006-0.0498,0.1904-0.0801,0.2803c-0.0396,0.0996-0.0898,0.1797-0.1396,0.2598
			c-0.0601,0.0898-0.1201,0.1699-0.1899,0.2402C4.73,59.3301,4.3398,59.4902,3.9399,59.4902z"/>
		<path style="fill:#B0BEC5;" d="M30.3896,57.9697c0-0.8398,0.6802-1.5195,1.52-1.5195l0,0c0.8403,0,1.52,0.6797,1.52,1.5195l0,0
			c0,0.8398-0.6797,1.5205-1.52,1.5205l0,0C31.0698,59.4902,30.3896,58.8096,30.3896,57.9697z M21.0698,57.9697
			c0-0.8398,0.6802-1.5195,1.52-1.5195l0,0c0.8398,0,1.52,0.6797,1.52,1.5195l0,0c0,0.8398-0.6802,1.5205-1.52,1.5205l0,0
			C21.75,59.4902,21.0698,58.8096,21.0698,57.9697z M11.75,57.9697c0-0.8398,0.6797-1.5195,1.52-1.5195l0,0
			c0.8398,0,1.5098,0.6797,1.5098,1.5195l0,0c0,0.8398-0.6699,1.5205-1.5098,1.5205l0,0
			C12.4297,59.4902,11.75,58.8096,11.75,57.9697z"/>
		<path style="fill:#B0BEC5;" d="M41.23,59.4902c-0.0903,0-0.1899-0.0107-0.29-0.0303c-0.1001-0.0205-0.1899-0.0498-0.29-0.0898
			c-0.0898-0.0303-0.1802-0.0801-0.2603-0.1406c-0.0796-0.0498-0.1597-0.1094-0.23-0.1797
			c-0.2798-0.2803-0.4399-0.6797-0.4399-1.0801c0-0.0996,0.0103-0.2002,0.0303-0.29c0.02-0.0996,0.04-0.2002,0.0796-0.29
			c0.04-0.0898,0.0903-0.1797,0.1401-0.2598c0.0601-0.0801,0.1201-0.1602,0.1899-0.2305c0.5703-0.5693,1.5801-0.5693,2.1504,0
			c0.0698,0.0703,0.1299,0.1504,0.1899,0.2305c0.0498,0.0801,0.0996,0.1699,0.1396,0.2598c0.0303,0.0898,0.0601,0.1904,0.0801,0.29
			c0.02,0.0898,0.0303,0.1904,0.0303,0.29c0,0.4004-0.1602,0.7998-0.4399,1.0801c-0.0703,0.0703-0.1504,0.1299-0.2305,0.1797
			C42,59.29,41.9097,59.3398,41.8198,59.3701c-0.1001,0.04-0.1899,0.0693-0.29,0.0898
			C41.4297,59.4795,41.3296,59.4902,41.23,59.4902z"/>
		<path style="fill:#B0BEC5;" d="M39.7197,64.3994c0-0.8398,0.6802-1.5195,1.52-1.5195l0,0c0.8301,0,1.5103,0.6797,1.5103,1.5195
			l0,0c0,0.8301-0.6802,1.5205-1.5103,1.5205l0,0C40.3999,65.9199,39.7197,65.2295,39.7197,64.3994z"/>
		<path style="fill:#B0BEC5;" d="M41.2397,72.3398c-0.1001,0-0.1997-0.0098-0.2998-0.0303c-0.1001-0.0195-0.1899-0.0498-0.29-0.0801
			c-0.0898-0.04-0.1802-0.0898-0.2603-0.1396c-0.0796-0.0596-0.1597-0.1201-0.23-0.1904c-0.0698-0.0693-0.1299-0.1494-0.1899-0.2295
			c-0.0498-0.0898-0.1001-0.1797-0.1401-0.2705c-0.0298-0.0898-0.0596-0.1797-0.0796-0.2793
			c-0.02-0.1006-0.0303-0.2002-0.0303-0.3008c0-0.3994,0.1602-0.7891,0.4399-1.0693c0.0703-0.0703,0.1504-0.1299,0.23-0.1904
			c0.0801-0.0498,0.1704-0.0996,0.2603-0.1396c0.1001-0.04,0.1899-0.0703,0.29-0.0898c0.1899-0.0303,0.3999-0.0303,0.5898,0
			c0.1001,0.0195,0.1899,0.0498,0.29,0.0898c0.0898,0.04,0.1802,0.0898,0.2598,0.1396c0.0801,0.0605,0.1602,0.1201,0.2305,0.1904
			c0.0698,0.0693,0.1299,0.1494,0.1899,0.2295c0.0498,0.0801,0.0996,0.1699,0.1396,0.2607c0.0303,0.0898,0.0601,0.1895,0.0801,0.29
			c0.02,0.0898,0.0303,0.1895,0.0303,0.2891c0,0.1006-0.0103,0.2002-0.0303,0.3008c-0.02,0.0996-0.0498,0.1895-0.0801,0.2793
			c-0.04,0.0908-0.0898,0.1807-0.1396,0.2705c-0.0601,0.0801-0.1201,0.1602-0.1899,0.2295
			c-0.0703,0.0703-0.1504,0.1309-0.2305,0.1904c-0.0796,0.0498-0.1699,0.0996-0.2598,0.1396
			c-0.1001,0.0303-0.1899,0.0605-0.29,0.0801C41.4297,72.3301,41.3296,72.3398,41.2397,72.3398z"/>
	</g>
</g>
<g>
	
		<linearGradient id="SVGID_1_" gradientUnits="userSpaceOnUse" x1="341.0913" y1="53.0889" x2="7.4326" y2="53.0889" gradientTransform="matrix(1 0 0 -1 0 74)">
		<stop  offset="0" style="stop-color:#FFFFFF"/>
		<stop  offset="1" style="stop-color:#B0BEC5"/>
	</linearGradient>
	<rect style="fill:url(#SVGID_1_);" width="346.9443" height="41.8222"/>
	<rect style="fill:#009245;" width="7.4248" height="41.8222"/>
</g>
<g>
	<path d="M12.116,25.2277V13.6349h3.9941c0.9014,0,1.5898,0.0547,2.0635,0.166c0.665,0.1523,1.2314,0.4297,1.7002,0.8301
		c0.6123,0.5166,1.0693,1.1768,1.3721,1.9805c0.3037,0.8047,0.4551,1.7227,0.4551,2.7568c0,0.8799-0.1025,1.6602-0.3086,2.3398
		c-0.2051,0.6807-0.4688,1.2432-0.791,1.6885c-0.3213,0.4463-0.6729,0.7969-1.0557,1.0518
		c-0.3818,0.2559-0.8428,0.4502-1.3838,0.582c-0.54,0.1318-1.1611,0.1973-1.8623,0.1973H12.116z M13.6502,23.8595h2.4756
		c0.7646,0,1.3643-0.0713,1.7988-0.2139c0.4355-0.1416,0.7822-0.3418,1.04-0.6006c0.3643-0.3633,0.6475-0.8525,0.8506-1.4668
		c0.2021-0.6143,0.3037-1.3594,0.3037-2.2344c0-1.2119-0.1982-2.1445-0.5967-2.7949c-0.3984-0.6514-0.8818-1.0879-1.4512-1.3096
		c-0.4111-0.1582-1.0732-0.2363-1.9844-0.2363h-2.4365v8.8565H13.6502z"/>
	<path d="M29.1111,24.1916c-0.5273,0.4482-1.0352,0.7646-1.5225,0.9492s-1.0107,0.2764-1.5693,0.2764
		c-0.9229,0-1.6318-0.2246-2.1279-0.6758c-0.4951-0.4512-0.7432-1.0264-0.7432-1.7275c0-0.4111,0.0938-0.7871,0.2813-1.127
		c0.1865-0.3408,0.4316-0.6133,0.7354-0.8184c0.3027-0.2061,0.6445-0.3613,1.0234-0.4668c0.2803-0.0742,0.7012-0.1455,1.2656-0.2139
		c1.1494-0.1367,1.9951-0.3008,2.5391-0.4902c0.0049-0.1953,0.0078-0.3193,0.0078-0.3721c0-0.5791-0.1348-0.9883-0.4033-1.2256
		c-0.3643-0.3213-0.9043-0.4824-1.6211-0.4824c-0.6699,0-1.1641,0.1182-1.4834,0.3525c-0.3184,0.2344-0.5547,0.6494-0.708,1.2451
		l-1.3916-0.1895c0.127-0.5957,0.335-1.0771,0.625-1.4434s0.709-0.6484,1.2578-0.8467c0.5479-0.1973,1.1826-0.2959,1.9053-0.2959
		c0.7168,0,1.2998,0.084,1.748,0.2529s0.7773,0.3809,0.9883,0.6367s0.3584,0.5781,0.4424,0.9688
		c0.0479,0.2422,0.0713,0.6797,0.0713,1.3125v1.8975c0,1.3242,0.0303,2.1611,0.0908,2.5117s0.1807,0.6865,0.3604,1.0078h-1.4863
		C29.2478,24.9328,29.1531,24.5871,29.1111,24.1916z M28.9929,21.0129c-0.5176,0.2109-1.292,0.3896-2.3252,0.5381
		c-0.585,0.084-0.999,0.1787-1.2422,0.2842c-0.2422,0.1055-0.4297,0.2598-0.5615,0.4629s-0.1973,0.4277-0.1973,0.6758
		c0,0.3799,0.1436,0.6963,0.4307,0.9492c0.2881,0.2529,0.708,0.3799,1.2617,0.3799c0.5479,0,1.0361-0.1201,1.4629-0.3604
		c0.4268-0.2393,0.7402-0.5684,0.9414-0.9844c0.1523-0.3213,0.2295-0.7959,0.2295-1.4238V21.0129z"/>
	<path d="M32.6218,25.2277v-8.3984h1.2813v1.2734c0.3271-0.5957,0.6289-0.9883,0.9053-1.1787
		c0.2764-0.1895,0.5811-0.2842,0.9131-0.2842c0.4805,0,0.9678,0.1523,1.4629,0.458l-0.4902,1.3213
		c-0.3477-0.2061-0.6953-0.3086-1.0439-0.3086c-0.3105,0-0.5898,0.0938-0.8379,0.2803c-0.248,0.1875-0.4248,0.4473-0.5293,0.7793
		c-0.1582,0.5059-0.2373,1.0596-0.2373,1.6611v4.3965C34.0458,25.2277,32.6218,25.2277,32.6218,25.2277z"/>
	<path d="M48.0115,22.1515l1.3994,0.1816c-0.1523,0.9648-0.5439,1.7197-1.1738,2.2656s-1.4043,0.8184-2.3213,0.8184
		c-1.1494,0-2.0732-0.375-2.7715-1.127c-0.6992-0.751-1.0479-1.8271-1.0479-3.2305c0-0.9063,0.1504-1.7002,0.4502-2.3799
		c0.3008-0.6797,0.7578-1.1904,1.3721-1.5303s1.2822-0.5098,2.0049-0.5098c0.9121,0,1.6582,0.2305,2.2383,0.6914
		c0.5801,0.4619,0.9512,1.1172,1.1152,1.9658l-1.3838,0.2129c-0.1318-0.5635-0.3652-0.9883-0.7002-1.2725
		c-0.335-0.2852-0.7393-0.4277-1.2139-0.4277c-0.7168,0-1.2998,0.2568-1.748,0.7715c-0.4482,0.5137-0.6719,1.3271-0.6719,2.4395
		c0,1.1279,0.2158,1.9482,0.6484,2.459c0.4326,0.5117,0.9961,0.7676,1.6924,0.7676c0.5586,0,1.0254-0.1709,1.3994-0.5137
		S47.9109,22.8634,48.0115,22.1515z"/>
	<path d="M56.1091,24.1916c-0.5273,0.4482-1.0352,0.7646-1.5225,0.9492s-1.0107,0.2764-1.5693,0.2764
		c-0.9229,0-1.6318-0.2246-2.1279-0.6758c-0.4951-0.4512-0.7432-1.0264-0.7432-1.7275c0-0.4111,0.0938-0.7871,0.2813-1.127
		c0.1865-0.3408,0.4316-0.6133,0.7354-0.8184c0.3027-0.2061,0.6445-0.3613,1.0234-0.4668c0.2803-0.0742,0.7012-0.1455,1.2656-0.2139
		c1.1494-0.1367,1.9951-0.3008,2.5391-0.4902c0.0049-0.1953,0.0078-0.3193,0.0078-0.3721c0-0.5791-0.1348-0.9883-0.4033-1.2256
		c-0.3643-0.3213-0.9043-0.4824-1.6211-0.4824c-0.6699,0-1.1641,0.1182-1.4834,0.3525c-0.3184,0.2344-0.5547,0.6494-0.708,1.2451
		l-1.3916-0.1895c0.127-0.5957,0.335-1.0771,0.625-1.4434s0.709-0.6484,1.2578-0.8467c0.5479-0.1973,1.1826-0.2959,1.9053-0.2959
		c0.7168,0,1.2998,0.084,1.748,0.2529s0.7773,0.3809,0.9883,0.6367s0.3584,0.5781,0.4424,0.9688
		c0.0479,0.2422,0.0713,0.6797,0.0713,1.3125v1.8975c0,1.3242,0.0303,2.1611,0.0908,2.5117s0.1807,0.6865,0.3604,1.0078h-1.4863
		C56.2459,24.9328,56.1511,24.5871,56.1091,24.1916z M55.991,21.0129c-0.5176,0.2109-1.292,0.3896-2.3252,0.5381
		c-0.585,0.084-0.999,0.1787-1.2422,0.2842c-0.2422,0.1055-0.4297,0.2598-0.5615,0.4629s-0.1973,0.4277-0.1973,0.6758
		c0,0.3799,0.1436,0.6963,0.4307,0.9492c0.2881,0.2529,0.708,0.3799,1.2617,0.3799c0.5479,0,1.0361-0.1201,1.4629-0.3604
		c0.4268-0.2393,0.7402-0.5684,0.9414-0.9844c0.1523-0.3213,0.2295-0.7959,0.2295-1.4238
		C55.991,21.5344,55.991,21.0129,55.991,21.0129z"/>
	<path d="M59.6043,25.2277V13.6349h1.4229v11.5928H59.6043z"/>
	<path d="M63.242,15.2717V13.635h1.4238v1.6367H63.242z M63.242,25.2277v-8.3984h1.4238v8.3984H63.242z"/>
	<path d="M72.281,25.2277v-1.0596c-0.5332,0.833-1.3154,1.249-2.3486,1.249c-0.6699,0-1.2852-0.1846-1.8467-0.5527
		c-0.5615-0.3691-0.9971-0.8848-1.3047-1.5469c-0.3086-0.6611-0.4629-1.4219-0.4629-2.2813c0-0.8379,0.1396-1.5986,0.4189-2.2813
		s0.6982-1.2061,1.2578-1.5693c0.5586-0.3643,1.1826-0.5459,1.874-0.5459c0.5059,0,0.957,0.1064,1.3516,0.3203
		c0.3955,0.2129,0.7178,0.4912,0.9648,0.834v-4.1592h1.416v11.5928H72.281V25.2277z M67.781,21.0363
		c0,1.0752,0.2266,1.8799,0.6797,2.4121c0.4541,0.5322,0.9893,0.7988,1.6055,0.7988c0.6221,0,1.1504-0.2549,1.5859-0.7637
		c0.4346-0.5078,0.6523-1.2842,0.6523-2.3281c0-1.1494-0.2217-1.9932-0.6641-2.5313c-0.4434-0.5371-0.9893-0.8066-1.6377-0.8066
		c-0.6318,0-1.1611,0.2588-1.585,0.7754C67.9929,19.1095,67.781,19.924,67.781,21.0363z"/>
	<path d="M81.3191,24.1916c-0.5273,0.4482-1.0352,0.7646-1.5225,0.9492s-1.0107,0.2764-1.5693,0.2764
		c-0.9229,0-1.6318-0.2246-2.1279-0.6758c-0.4951-0.4512-0.7432-1.0264-0.7432-1.7275c0-0.4111,0.0938-0.7871,0.2813-1.127
		c0.1865-0.3408,0.4316-0.6133,0.7354-0.8184c0.3027-0.2061,0.6445-0.3613,1.0234-0.4668c0.2803-0.0742,0.7012-0.1455,1.2656-0.2139
		c1.1494-0.1367,1.9951-0.3008,2.5391-0.4902c0.0049-0.1953,0.0078-0.3193,0.0078-0.3721c0-0.5791-0.1348-0.9883-0.4033-1.2256
		c-0.3643-0.3213-0.9043-0.4824-1.6211-0.4824c-0.6699,0-1.1641,0.1182-1.4834,0.3525c-0.3184,0.2344-0.5547,0.6494-0.708,1.2451
		l-1.3916-0.1895c0.127-0.5957,0.335-1.0771,0.625-1.4434s0.709-0.6484,1.2578-0.8467c0.5479-0.1973,1.1826-0.2959,1.9053-0.2959
		c0.7168,0,1.2998,0.084,1.748,0.2529s0.7773,0.3809,0.9883,0.6367s0.3584,0.5781,0.4424,0.9688
		c0.0479,0.2422,0.0713,0.6797,0.0713,1.3125v1.8975c0,1.3242,0.0303,2.1611,0.0908,2.5117s0.1807,0.6865,0.3604,1.0078h-1.4863
		C81.4558,24.9328,81.3611,24.5871,81.3191,24.1916z M81.2009,21.0129c-0.5176,0.2109-1.292,0.3896-2.3252,0.5381
		c-0.585,0.084-0.999,0.1787-1.2422,0.2842c-0.2422,0.1055-0.4297,0.2598-0.5615,0.4629s-0.1973,0.4277-0.1973,0.6758
		c0,0.3799,0.1436,0.6963,0.4307,0.9492c0.2881,0.2529,0.708,0.3799,1.2617,0.3799c0.5479,0,1.0361-0.1201,1.4629-0.3604
		c0.4268-0.2393,0.7402-0.5684,0.9414-0.9844c0.1523-0.3213,0.2295-0.7959,0.2295-1.4238
		C81.2009,21.5344,81.2009,21.0129,81.2009,21.0129z"/>
	<path d="M90.2947,25.2277v-1.0596c-0.5332,0.833-1.3154,1.249-2.3486,1.249c-0.6699,0-1.2852-0.1846-1.8467-0.5527
		c-0.5615-0.3691-0.9971-0.8848-1.3047-1.5469c-0.3086-0.6611-0.4629-1.4219-0.4629-2.2813c0-0.8379,0.1396-1.5986,0.4189-2.2813
		s0.6982-1.2061,1.2578-1.5693c0.5586-0.3643,1.1826-0.5459,1.874-0.5459c0.5059,0,0.957,0.1064,1.3516,0.3203
		c0.3955,0.2129,0.7178,0.4912,0.9648,0.834v-4.1592h1.416v11.5928h-1.3202V25.2277z M85.7947,21.0363
		c0,1.0752,0.2266,1.8799,0.6797,2.4121c0.4541,0.5322,0.9893,0.7988,1.6055,0.7988c0.6221,0,1.1504-0.2549,1.5859-0.7637
		c0.4346-0.5078,0.6523-1.2842,0.6523-2.3281c0-1.1494-0.2217-1.9932-0.6641-2.5313c-0.4434-0.5371-0.9893-0.8066-1.6377-0.8066
		c-0.6318,0-1.1611,0.2588-1.585,0.7754C86.0066,19.1095,85.7947,19.924,85.7947,21.0363z"/>
	<path d="M103.8328,24.1916c-0.5273,0.4482-1.0352,0.7646-1.5225,0.9492s-1.0107,0.2764-1.5693,0.2764
		c-0.9229,0-1.6318-0.2246-2.1279-0.6758c-0.4951-0.4512-0.7432-1.0264-0.7432-1.7275c0-0.4111,0.0938-0.7871,0.2813-1.127
		c0.1865-0.3408,0.4316-0.6133,0.7354-0.8184c0.3027-0.2061,0.6445-0.3613,1.0234-0.4668c0.2803-0.0742,0.7012-0.1455,1.2656-0.2139
		c1.1494-0.1367,1.9951-0.3008,2.5391-0.4902c0.0049-0.1953,0.0078-0.3193,0.0078-0.3721c0-0.5791-0.1348-0.9883-0.4033-1.2256
		c-0.3643-0.3213-0.9043-0.4824-1.6211-0.4824c-0.6699,0-1.1641,0.1182-1.4834,0.3525c-0.3184,0.2344-0.5547,0.6494-0.708,1.2451
		l-1.3916-0.1895c0.127-0.5957,0.335-1.0771,0.625-1.4434s0.709-0.6484,1.2578-0.8467c0.5479-0.1973,1.1826-0.2959,1.9053-0.2959
		c0.7168,0,1.2998,0.084,1.748,0.2529s0.7773,0.3809,0.9883,0.6367s0.3584,0.5781,0.4424,0.9688
		c0.0479,0.2422,0.0713,0.6797,0.0713,1.3125v1.8975c0,1.3242,0.0303,2.1611,0.0908,2.5117s0.1807,0.6865,0.3604,1.0078h-1.4863
		C103.9695,24.9328,103.8748,24.5871,103.8328,24.1916z M103.7146,21.0129c-0.5176,0.2109-1.292,0.3896-2.3252,0.5381
		c-0.585,0.084-0.999,0.1787-1.2422,0.2842c-0.2422,0.1055-0.4297,0.2598-0.5615,0.4629s-0.1973,0.4277-0.1973,0.6758
		c0,0.3799,0.1436,0.6963,0.4307,0.9492c0.2881,0.2529,0.708,0.3799,1.2617,0.3799c0.5479,0,1.0361-0.1201,1.4629-0.3604
		c0.4268-0.2393,0.7402-0.5684,0.9414-0.9844c0.1523-0.3213,0.2295-0.7959,0.2295-1.4238
		C103.7146,21.5344,103.7146,21.0129,103.7146,21.0129z"/>
	<path d="M107.3279,25.2277V13.6349h1.4229v11.5928H107.3279z"/>
	<path d="M115.4568,28.4465V16.8293h1.2969v1.0918c0.3057-0.4277,0.6514-0.748,1.0361-0.9609
		c0.3848-0.2139,0.8516-0.3203,1.3994-0.3203c0.7168,0,1.3496,0.1846,1.8984,0.5537c0.5479,0.3691,0.9619,0.8896,1.2412,1.5615
		s0.4189,1.4092,0.4189,2.21c0,0.8594-0.1543,1.6328-0.4619,2.3213c-0.3086,0.6875-0.7568,1.2148-1.3447,1.582
		c-0.5879,0.3662-1.2061,0.5488-1.8545,0.5488c-0.4746,0-0.9004-0.0996-1.2773-0.2998s-0.6865-0.4541-0.9287-0.7598v4.0889
		C116.8806,28.4465,115.4568,28.4465,115.4568,28.4465z M116.7459,21.0763c0,1.0801,0.2188,1.8789,0.6563,2.3955
		s0.9678,0.7754,1.5898,0.7754c0.6328,0,1.1738-0.2676,1.625-0.8027s0.6758-1.3643,0.6758-2.4873
		c0-1.0703-0.2197-1.8711-0.6602-2.4043c-0.4404-0.5322-0.9658-0.7979-1.5771-0.7979c-0.6064,0-1.1426,0.2832-1.6094,0.8496
		S116.7459,19.9953,116.7459,21.0763z"/>
	<path d="M124.448,25.2277v-8.3984h1.2813v1.2734c0.3271-0.5957,0.6289-0.9883,0.9053-1.1787
		c0.2764-0.1895,0.5811-0.2842,0.9131-0.2842c0.4805,0,0.9678,0.1523,1.4629,0.458l-0.4902,1.3213
		c-0.3477-0.2061-0.6953-0.3086-1.0439-0.3086c-0.3105,0-0.5898,0.0938-0.8379,0.2803c-0.248,0.1875-0.4248,0.4473-0.5293,0.7793
		c-0.1582,0.5059-0.2373,1.0596-0.2373,1.6611v4.3965C125.872,25.2277,124.448,25.2277,124.448,25.2277z"/>
	<path d="M129.3279,21.0285c0-1.5547,0.4316-2.707,1.2969-3.4561c0.7217-0.6221,1.6025-0.9326,2.6406-0.9326
		c1.1553,0,2.0986,0.3779,2.8311,1.1348c0.7334,0.7568,1.0996,1.8018,1.0996,3.1357c0,1.0801-0.1621,1.9307-0.4863,2.5498
		c-0.3242,0.6201-0.7959,1.1006-1.416,1.4434c-0.6191,0.3428-1.2949,0.5137-2.0283,0.5137c-1.1758,0-2.126-0.377-2.8506-1.1309
		S129.3279,22.4465,129.3279,21.0285z M130.7908,21.0285c0,1.0752,0.2344,1.8809,0.7031,2.416
		c0.4697,0.5352,1.0605,0.8027,1.7715,0.8027c0.707,0,1.2949-0.2686,1.7637-0.8066c0.4697-0.5381,0.7041-1.3574,0.7041-2.46
		c0-1.0381-0.2363-1.8252-0.708-2.3604s-1.0586-0.8027-1.7598-0.8027c-0.7109,0-1.3018,0.2666-1.7715,0.7988
		C131.0252,19.1496,130.7908,19.9533,130.7908,21.0285z"/>
	<path d="M144.3132,25.2277v-1.0596c-0.5332,0.833-1.3154,1.249-2.3486,1.249c-0.6699,0-1.2852-0.1846-1.8467-0.5527
		c-0.5615-0.3691-0.9971-0.8848-1.3047-1.5469c-0.3086-0.6611-0.4629-1.4219-0.4629-2.2813c0-0.8379,0.1396-1.5986,0.4189-2.2813
		s0.6982-1.2061,1.2578-1.5693c0.5586-0.3643,1.1826-0.5459,1.874-0.5459c0.5059,0,0.957,0.1064,1.3516,0.3203
		c0.3955,0.2129,0.7178,0.4912,0.9648,0.834v-4.1592h1.416v11.5928h-1.3202V25.2277z M139.8132,21.0363
		c0,1.0752,0.2266,1.8799,0.6797,2.4121c0.4541,0.5322,0.9893,0.7988,1.6055,0.7988c0.6221,0,1.1504-0.2549,1.5859-0.7637
		c0.4346-0.5078,0.6523-1.2842,0.6523-2.3281c0-1.1494-0.2217-1.9932-0.6641-2.5313c-0.4434-0.5371-0.9893-0.8066-1.6377-0.8066
		c-0.6318,0-1.1611,0.2588-1.585,0.7754C140.0252,19.1095,139.8132,19.924,139.8132,21.0363z"/>
	<path d="M153.3748,25.2277v-1.2334c-0.6533,0.9482-1.542,1.4229-2.665,1.4229c-0.4951,0-0.958-0.0947-1.3877-0.2842
		c-0.4297-0.1904-0.748-0.4287-0.957-0.7158c-0.208-0.2871-0.3545-0.6396-0.4385-1.0557c-0.0586-0.2793-0.0869-0.7227-0.0869-1.3291
		v-5.2031h1.4229v4.6582c0,0.7432,0.0293,1.2441,0.0869,1.502c0.0898,0.375,0.2803,0.6689,0.5703,0.8818
		c0.2891,0.2139,0.6484,0.3203,1.0752,0.3203s0.8271-0.1094,1.2021-0.3281c0.374-0.2188,0.6387-0.5166,0.7949-0.8936
		c0.1553-0.377,0.2324-0.9238,0.2324-1.6406v-4.5h1.4238v8.3984C154.6482,25.2277,153.3748,25.2277,153.3748,25.2277z"/>
	<path d="M162.3582,22.1515l1.3994,0.1816c-0.1523,0.9648-0.5439,1.7197-1.1738,2.2656s-1.4043,0.8184-2.3213,0.8184
		c-1.1494,0-2.0732-0.375-2.7715-1.127c-0.6992-0.751-1.0479-1.8271-1.0479-3.2305c0-0.9063,0.1504-1.7002,0.4502-2.3799
		c0.3008-0.6797,0.7578-1.1904,1.3721-1.5303s1.2822-0.5098,2.0049-0.5098c0.9121,0,1.6582,0.2305,2.2383,0.6914
		c0.5801,0.4619,0.9512,1.1172,1.1152,1.9658l-1.3838,0.2129c-0.1318-0.5635-0.3652-0.9883-0.7002-1.2725
		c-0.335-0.2852-0.7393-0.4277-1.2139-0.4277c-0.7168,0-1.2998,0.2568-1.748,0.7715c-0.4482,0.5137-0.6719,1.3271-0.6719,2.4395
		c0,1.1279,0.2158,1.9482,0.6484,2.459c0.4326,0.5117,0.9961,0.7676,1.6924,0.7676c0.5586,0,1.0254-0.1709,1.3994-0.5137
		S162.2576,22.8634,162.3582,22.1515z"/>
	<path d="M168.0838,23.9543l0.2051,1.2578c-0.4004,0.084-0.7588,0.126-1.0752,0.126c-0.5166,0-0.917-0.0811-1.2021-0.2451
		c-0.2852-0.1631-0.4854-0.3779-0.6006-0.6445c-0.1162-0.2656-0.1748-0.8262-0.1748-1.6797v-4.832h-1.043v-1.1074h1.043v-2.0801
		l1.416-0.8535v2.9336h1.4316v1.1074h-1.4316v4.9111c0,0.4053,0.0254,0.667,0.0752,0.7822c0.0498,0.1162,0.1318,0.209,0.2451,0.2773
		s0.2754,0.1025,0.4863,0.1025C167.617,24.0099,167.825,23.9914,168.0838,23.9543z"/>
	<path d="M168.9461,21.0285c0-1.5547,0.4321-2.707,1.2974-3.4561c0.7217-0.6221,1.6025-0.9326,2.6406-0.9326
		c1.1553,0,2.0986,0.3779,2.8311,1.1348c0.7334,0.7568,1.0996,1.8018,1.0996,3.1357c0,1.0801-0.1621,1.9307-0.4863,2.5498
		c-0.3242,0.6201-0.7959,1.1006-1.416,1.4434c-0.6191,0.3428-1.2949,0.5137-2.0283,0.5137c-1.1758,0-2.126-0.377-2.8506-1.1309
		S168.9461,22.4465,168.9461,21.0285z M170.4094,21.0285c0,1.0752,0.2344,1.8809,0.7031,2.416
		c0.4697,0.5352,1.0605,0.8027,1.7715,0.8027c0.707,0,1.2949-0.2686,1.7637-0.8066c0.4697-0.5381,0.7041-1.3574,0.7041-2.46
		c0-1.0381-0.2363-1.8252-0.708-2.3604s-1.0586-0.8027-1.7598-0.8027c-0.7109,0-1.3018,0.2666-1.7715,0.7988
		C170.6438,19.1496,170.4094,19.9533,170.4094,21.0285z"/>
	<path d="M182.4534,21.0285c0-1.5547,0.4316-2.707,1.2969-3.4561c0.7217-0.6221,1.6025-0.9326,2.6406-0.9326
		c1.1553,0,2.0986,0.3779,2.8311,1.1348c0.7334,0.7568,1.0996,1.8018,1.0996,3.1357c0,1.0801-0.1621,1.9307-0.4863,2.5498
		c-0.3242,0.6201-0.7959,1.1006-1.416,1.4434c-0.6191,0.3428-1.2949,0.5137-2.0283,0.5137c-1.1758,0-2.126-0.377-2.8506-1.1309
		S182.4534,22.4465,182.4534,21.0285z M183.9163,21.0285c0,1.0752,0.2344,1.8809,0.7031,2.416
		c0.4697,0.5352,1.0605,0.8027,1.7715,0.8027c0.707,0,1.2949-0.2686,1.7637-0.8066c0.4697-0.5381,0.7041-1.3574,0.7041-2.46
		c0-1.0381-0.2363-1.8252-0.708-2.3604s-1.0586-0.8027-1.7598-0.8027c-0.7109,0-1.3018,0.2666-1.7715,0.7988
		C184.1507,19.1496,183.9163,19.9533,183.9163,21.0285z"/>
	<path d="M195.9202,22.7209l1.4082-0.2217c0.0791,0.5645,0.2988,0.9971,0.6602,1.2969c0.3604,0.3008,0.8652,0.4512,1.5137,0.4512
		c0.6543,0,1.1396-0.1328,1.4551-0.3994c0.3164-0.2666,0.4746-0.5781,0.4746-0.9375c0-0.3213-0.1396-0.5742-0.4189-0.7588
		c-0.1953-0.127-0.6797-0.2871-1.4551-0.4824c-1.0439-0.2637-1.7676-0.4912-2.1709-0.6836s-0.709-0.459-0.917-0.7988
		c-0.208-0.3408-0.3125-0.7158-0.3125-1.127c0-0.375,0.0859-0.7207,0.2568-1.04c0.1719-0.3193,0.4053-0.584,0.7002-0.7949
		c0.2217-0.1631,0.5234-0.3018,0.9053-0.415s0.792-0.1699,1.2295-0.1699c0.6592,0,1.2383,0.0947,1.7363,0.2842
		c0.498,0.1904,0.8662,0.4473,1.1025,0.7715c0.2373,0.3242,0.4014,0.7578,0.4912,1.3008l-1.3926,0.1895
		c-0.0625-0.4316-0.2461-0.7695-0.5488-1.0117c-0.3037-0.2432-0.7324-0.3643-1.2852-0.3643c-0.6543,0-1.1211,0.1084-1.4004,0.3242
		c-0.2793,0.2168-0.4189,0.4697-0.4189,0.7598c0,0.1846,0.0576,0.3506,0.1738,0.498c0.1162,0.1523,0.2979,0.2793,0.5459,0.3799
		c0.1426,0.0527,0.5615,0.1738,1.2578,0.3633c1.0068,0.2686,1.709,0.4893,2.1074,0.6602c0.3975,0.1719,0.71,0.4209,0.9365,0.7471
		c0.2266,0.3271,0.3398,0.7334,0.3398,1.2178c0,0.4746-0.1377,0.9219-0.415,1.3408c-0.2764,0.4189-0.6758,0.7432-1.1982,0.9727
		c-0.5215,0.2295-1.1123,0.3438-1.7705,0.3438c-1.0918,0-1.9238-0.2266-2.4951-0.6797
		C196.4436,24.2843,196.0784,23.6115,195.9202,22.7209z"/>
	<path d="M210.3362,22.5236l1.4717,0.1816c-0.2324,0.8594-0.6621,1.5264-1.2891,2.001c-0.6279,0.4736-1.4287,0.7109-2.4043,0.7109
		c-1.2285,0-2.2021-0.3779-2.9219-1.1348c-0.7197-0.7559-1.0801-1.8174-1.0801-3.1826c0-1.4131,0.3643-2.5098,1.0918-3.29
		s1.6709-1.1699,2.8311-1.1699c1.123,0,2.04,0.3818,2.752,1.1465s1.0674,1.8398,1.0674,3.2266c0,0.084-0.0029,0.2109-0.0078,0.3799
		h-6.2627c0.0518,0.9219,0.3135,1.6289,0.7822,2.1191c0.4697,0.4902,1.0547,0.7354,1.7559,0.7354
		c0.5215,0,0.9678-0.1367,1.3359-0.4111C209.8274,23.5617,210.1204,23.1242,210.3362,22.5236z M205.6633,20.2218h4.6895
		c-0.0635-0.7061-0.2432-1.2363-0.5381-1.5898c-0.4531-0.5479-1.041-0.8223-1.7637-0.8223c-0.6533,0-1.2031,0.2188-1.6484,0.6563
		C205.9563,18.9045,205.7102,19.4894,205.6633,20.2218z"/>
	<path d="M213.5784,25.2277v-8.3984h1.2813v1.2734c0.3271-0.5957,0.6289-0.9883,0.9053-1.1787
		c0.2764-0.1895,0.5811-0.2842,0.9131-0.2842c0.4805,0,0.9678,0.1523,1.4629,0.458l-0.4902,1.3213
		c-0.3477-0.2061-0.6953-0.3086-1.0439-0.3086c-0.3105,0-0.5898,0.0938-0.8379,0.2803c-0.248,0.1875-0.4248,0.4473-0.5293,0.7793
		c-0.1582,0.5059-0.2373,1.0596-0.2373,1.6611v4.3965C215.0024,25.2277,213.5784,25.2277,213.5784,25.2277z"/>
	<path d="M221.3206,25.2277l-3.1943-8.3984h1.502l1.8027,5.0293c0.1953,0.543,0.375,1.1074,0.5381,1.6924
		c0.127-0.4424,0.3027-0.9746,0.5303-1.5967l1.8662-5.125h1.4629l-3.1797,8.3984H221.3206z"/>
	<path d="M227.093,15.2717V13.635h1.4238v1.6367H227.093z M227.093,25.2277v-8.3984h1.4238v8.3984H227.093z"/>
	<path d="M236.1643,22.1515l1.3994,0.1816c-0.1523,0.9648-0.5439,1.7197-1.1738,2.2656s-1.4043,0.8184-2.3213,0.8184
		c-1.1494,0-2.0732-0.375-2.7715-1.127c-0.6992-0.751-1.0479-1.8271-1.0479-3.2305c0-0.9063,0.1504-1.7002,0.4502-2.3799
		c0.3008-0.6797,0.7578-1.1904,1.3721-1.5303s1.2822-0.5098,2.0049-0.5098c0.9121,0,1.6582,0.2305,2.2383,0.6914
		c0.5801,0.4619,0.9512,1.1172,1.1152,1.9658l-1.3838,0.2129c-0.1318-0.5635-0.3652-0.9883-0.7002-1.2725
		c-0.335-0.2852-0.7393-0.4277-1.2139-0.4277c-0.7168,0-1.2998,0.2568-1.748,0.7715c-0.4482,0.5137-0.6719,1.3271-0.6719,2.4395
		c0,1.1279,0.2158,1.9482,0.6484,2.459c0.4326,0.5117,0.9961,0.7676,1.6924,0.7676c0.5586,0,1.0254-0.1709,1.3994-0.5137
		S236.0637,22.8634,236.1643,22.1515z"/>
	<path d="M238.7893,15.2717V13.635h1.4238v1.6367H238.7893z M238.7893,25.2277v-8.3984h1.4238v8.3984H238.7893z"/>
	<path d="M241.8499,21.0285c0-1.5547,0.4316-2.707,1.2969-3.4561c0.7217-0.6221,1.6025-0.9326,2.6406-0.9326
		c1.1553,0,2.0986,0.3779,2.8311,1.1348c0.7334,0.7568,1.0996,1.8018,1.0996,3.1357c0,1.0801-0.1621,1.9307-0.4863,2.5498
		c-0.3242,0.6201-0.7959,1.1006-1.416,1.4434c-0.6191,0.3428-1.2949,0.5137-2.0283,0.5137c-1.1758,0-2.126-0.377-2.8506-1.1309
		S241.8499,22.4465,241.8499,21.0285z M243.3128,21.0285c0,1.0752,0.2344,1.8809,0.7031,2.416
		c0.4697,0.5352,1.0605,0.8027,1.7715,0.8027c0.707,0,1.2949-0.2686,1.7637-0.8066c0.4697-0.5381,0.7041-1.3574,0.7041-2.46
		c0-1.0381-0.2363-1.8252-0.708-2.3604s-1.0586-0.8027-1.7598-0.8027c-0.7109,0-1.3018,0.2666-1.7715,0.7988
		C243.5471,19.1496,243.3128,19.9533,243.3128,21.0285z"/>
	<path d="M251.7893,25.2277v-1.6211h1.6211v1.6211H251.7893z"/>
</g>
</svg>
