<?xml version="1.0" encoding="utf-8"?>
<!-- Generator: Adobe Illustrator 21.0.0, SVG Export Plug-In . SVG Version: 6.00 Build 0)  -->
<svg version="1.1" id="Capa_1" xmlns="http://www.w3.org/2000/svg" xmlns:xlink="http://www.w3.org/1999/xlink" x="0px" y="0px"
	 viewBox="0 0 341.9443 70.9775" style="enable-background:new 0 0 341.9443 70.9775;" xml:space="preserve">
<g>
	<g>
		<path style="fill:#B0BEC5;" d="M6.6099,49.9795c-0.4102,0-0.7803-0.1602-1.0698-0.4395
			c-0.2803-0.2803-0.4302-0.6602-0.4302-1.0605c0-0.3994,0.1602-0.79,0.4302-1.0596c0.3496-0.3506,0.8696-0.5098,1.3599-0.4102
			c0.0898,0.0098,0.1899,0.04,0.2798,0.0801c0.0903,0.04,0.1802,0.0898,0.2603,0.1396c0.0801,0.0508,0.1597,0.1201,0.2197,0.1904
			c0.2803,0.2803,0.4399,0.6602,0.4399,1.0596c0,0.2002-0.0298,0.3906-0.1099,0.5703c-0.0698,0.1797-0.1797,0.3496-0.3301,0.4902
			c-0.1396,0.1396-0.2998,0.25-0.48,0.3193C7,49.9395,6.7998,49.9795,6.6099,49.9795z"/>
		<path style="fill:#B0BEC5;" d="M6.5996,58.2803c-0.3999,0-0.77-0.1504-1.0596-0.4404c-0.1401-0.1396-0.25-0.2998-0.3203-0.4805
			c-0.0801-0.1797-0.1099-0.3799-0.1099-0.5791c0-0.1006,0.0098-0.1904,0.02-0.29c0.02-0.1006,0.0498-0.1904,0.0898-0.2803
			s0.0801-0.1797,0.1401-0.2598C5.4097,55.8701,5.48,55.79,5.54,55.7197c0.0698-0.0703,0.1499-0.1299,0.23-0.1895
			c0.0796-0.0508,0.1699-0.1006,0.2598-0.1309c0.0898-0.04,0.1899-0.0693,0.2803-0.0898c0.1997-0.04,0.3896-0.04,0.5898,0
			c0.0898,0.0205,0.1899,0.0498,0.2798,0.0898c0.0903,0.0303,0.1802,0.0801,0.2603,0.1309
			c0.0801,0.0596,0.1597,0.1191,0.2197,0.1895C7.9399,56,8.1099,56.3896,8.1099,56.7803c0,0.1992-0.04,0.3994-0.1201,0.5791
			c-0.0698,0.1807-0.1797,0.3408-0.3301,0.4805C7.3799,58.1299,7.0098,58.2803,6.5996,58.2803z"/>
		<path style="fill:#B0BEC5;" d="M32.73,56.7803c0-0.8301,0.6797-1.5,1.5-1.5l0,0c0.8301,0,1.5,0.6699,1.5,1.5l0,0
			c0,0.8291-0.6699,1.5-1.5,1.5l0,0C33.4097,58.2803,32.73,57.6094,32.73,56.7803z M23.52,56.7803c0-0.8301,0.6797-1.5,1.5-1.5l0,0
			c0.8296,0,1.5,0.6699,1.5,1.5l0,0c0,0.8291-0.6704,1.5-1.5,1.5l0,0C24.1997,58.2803,23.52,57.6094,23.52,56.7803z
			 M14.3198,56.7803c0-0.8301,0.6699-1.5,1.4902-1.5l0,0c0.8296,0,1.5,0.6699,1.5,1.5l0,0c0,0.8291-0.6704,1.5-1.5,1.5l0,0
			C14.9897,58.2803,14.3198,57.6094,14.3198,56.7803z"/>
		<path style="fill:#B0BEC5;" d="M43.4399,58.2803c-0.2002,0-0.3901-0.04-0.5703-0.1104c-0.1797-0.0801-0.3398-0.1904-0.4897-0.3301
			c-0.1401-0.1396-0.25-0.2998-0.3198-0.4805c-0.0801-0.1797-0.1201-0.3799-0.1201-0.5791c0-0.1006,0.0098-0.1904,0.0298-0.29
			c0.02-0.1006,0.0503-0.1904,0.0903-0.2803c0.0396-0.0898,0.0796-0.1797,0.1396-0.2598c0.0503-0.0801,0.1104-0.1602,0.1802-0.2305
			c0.3501-0.3496,0.8701-0.5,1.3599-0.4102c0.0898,0.0205,0.1899,0.0498,0.2803,0.0898c0.0898,0.0303,0.1797,0.0801,0.2598,0.1309
			c0.0801,0.0596,0.1602,0.1191,0.23,0.1895c0.27,0.2803,0.4302,0.6699,0.4302,1.0605c0,0.1992-0.0303,0.3994-0.1104,0.5791
			c-0.0698,0.1807-0.1797,0.3408-0.3198,0.4805c-0.1499,0.1396-0.3101,0.25-0.4897,0.3301
			C43.8398,58.2402,43.6396,58.2803,43.4399,58.2803z"/>
		<path style="fill:#B0BEC5;" d="M41.9497,63.1299c0-0.8301,0.6699-1.5,1.4902-1.5l0,0c0.8301,0,1.5,0.6699,1.5,1.5l0,0
			c0,0.8301-0.6699,1.5-1.5,1.5l0,0C42.6196,64.6299,41.9497,63.96,41.9497,63.1299z"/>
		<path style="fill:#B0BEC5;" d="M43.4497,70.9795c-0.1997,0-0.3999-0.04-0.5801-0.1201C42.6899,70.79,42.52,70.6797,42.3799,70.54
			c-0.1401-0.1406-0.25-0.3105-0.3198-0.4902c-0.0801-0.1797-0.1201-0.3701-0.1201-0.5703c0-0.0996,0.0098-0.1992,0.0298-0.2998
			c0.02-0.0898,0.0503-0.1895,0.0903-0.2803c0.0396-0.0898,0.0796-0.1699,0.1396-0.25c0.0503-0.0898,0.1104-0.1592,0.1802-0.2295
			c0.5601-0.5605,1.5698-0.5605,2.1201,0c0.0698,0.0703,0.1396,0.1396,0.1899,0.2295c0.0601,0.0801,0.1001,0.1602,0.1396,0.25
			c0.04,0.0908,0.0703,0.1904,0.0903,0.2803c0.02,0.1006,0.02,0.2002,0.02,0.2998c0,0.2002-0.0303,0.3906-0.1104,0.5703
			c-0.0698,0.1797-0.1797,0.3496-0.3296,0.4902C44.2197,70.8193,43.8398,70.9795,43.4497,70.9795z"/>
	</g>
</g>
<g>
	
		<linearGradient id="SVGID_1_" gradientUnits="userSpaceOnUse" x1="329.5833" y1="51.0889" x2="13.0712" y2="51.0889" gradientTransform="matrix(1 0 0 -1 0 72)">
		<stop  offset="0" style="stop-color:#FFFFFF"/>
		<stop  offset="0.9858" style="stop-color:#B1BFC6"/>
		<stop  offset="1" style="stop-color:#B0BEC5"/>
	</linearGradient>
	<rect style="fill:url(#SVGID_1_);" width="341.9443" height="41.8222"/>
	<rect style="fill:#00A99D;" width="7.4248" height="41.8222"/>
</g>
<g>
	<path d="M17.7097,26.0431V14.59h8.2813v1.3516h-6.7656v3.5078h6.3359v1.3438h-6.3359v3.8984h7.0313v1.3516L17.7097,26.0431
		L17.7097,26.0431z"/>
	<path d="M30.4754,26.0431l-3.1563-8.2969h1.4844l1.7813,4.9688c0.1924,0.5361,0.3701,1.0938,0.5313,1.6719
		c0.125-0.4375,0.2998-0.9639,0.5234-1.5781l1.8438-5.0625h1.4453l-3.1406,8.2969L30.4754,26.0431L30.4754,26.0431z"/>
	<path d="M36.1785,16.2072V14.59h1.4063v1.6172C37.5848,16.2072,36.1785,16.2072,36.1785,16.2072z M36.1785,26.0431v-8.2969h1.4063
		v8.2969H36.1785z"/>
	<path d="M42.7957,24.7853l0.2031,1.2422c-0.3955,0.083-0.75,0.125-1.0625,0.125c-0.5107,0-0.9063-0.0811-1.1875-0.2422
		s-0.4795-0.374-0.5938-0.6367s-0.1719-0.8164-0.1719-1.6602V18.84h-1.0313v-1.0938h1.0313v-2.0547l1.3984-0.8438v2.8984h1.4141
		V18.84h-1.4141v4.8516c0,0.4014,0.0244,0.6592,0.0742,0.7734s0.1299,0.2061,0.2422,0.2734s0.2725,0.1016,0.4805,0.1016
		C42.3347,24.84,42.5408,24.8215,42.7957,24.7853z"/>
	<path d="M49.5847,25.0197c-0.5205,0.4424-1.0225,0.7549-1.5039,0.9375s-0.999,0.2734-1.5508,0.2734
		c-0.9111,0-1.6123-0.2227-2.1016-0.668s-0.7344-1.0146-0.7344-1.707c0-0.4063,0.0928-0.7773,0.2773-1.1133
		s0.4268-0.6055,0.7266-0.8086s0.6367-0.3564,1.0117-0.4609c0.2764-0.0732,0.6924-0.1436,1.25-0.2109
		c1.1357-0.1357,1.9717-0.2969,2.5078-0.4844c0.0049-0.1924,0.0078-0.3154,0.0078-0.3672c0-0.5732-0.1328-0.9766-0.3984-1.2109
		c-0.3594-0.3174-0.8936-0.4766-1.6016-0.4766c-0.6611,0-1.1494,0.1162-1.4648,0.3477s-0.5479,0.6416-0.6992,1.2305l-1.375-0.1875
		c0.125-0.5889,0.3311-1.0635,0.6172-1.4258s0.7002-0.6406,1.2422-0.8359s1.1689-0.293,1.8828-0.293
		c0.708,0,1.2842,0.083,1.7266,0.25s0.7686,0.376,0.9766,0.6289s0.3545,0.5713,0.4375,0.957
		c0.0469,0.2393,0.0703,0.6719,0.0703,1.2969v1.875c0,1.3076,0.0303,2.1338,0.0898,2.4805s0.1787,0.6787,0.3555,0.9961H49.866
		C49.7205,25.7511,49.6267,25.4103,49.5847,25.0197z M49.4676,21.8791c-0.5107,0.208-1.2764,0.3857-2.2969,0.5313
		c-0.5781,0.083-0.9873,0.1768-1.2266,0.2813s-0.4248,0.2568-0.5547,0.457s-0.1953,0.4229-0.1953,0.668
		c0,0.375,0.1416,0.6875,0.4258,0.9375s0.6992,0.375,1.2461,0.375c0.542,0,1.0234-0.1182,1.4453-0.3555s0.7314-0.5615,0.9297-0.9727
		c0.1514-0.3174,0.2266-0.7861,0.2266-1.4063V21.8791z"/>
	<path d="M53.0535,26.0431v-8.2969h1.2656v1.2578c0.3232-0.5889,0.6211-0.9766,0.8945-1.1641s0.5742-0.2813,0.9023-0.2813
		c0.4736,0,0.9561,0.1514,1.4453,0.4531l-0.4844,1.3047c-0.3438-0.2031-0.6875-0.3047-1.0313-0.3047
		c-0.3076,0-0.583,0.0928-0.8281,0.2773s-0.4189,0.4414-0.5234,0.7695c-0.1563,0.5-0.2344,1.0469-0.2344,1.6406v4.3438h-1.4061
		V26.0431z"/>
	<path d="M68.2566,23.0041l1.3828,0.1797c-0.1514,0.9531-0.5381,1.6992-1.1602,2.2383s-1.3867,0.8086-2.293,0.8086
		c-1.1357,0-2.0479-0.3711-2.7383-1.1133s-1.0352-1.8057-1.0352-3.1914c0-0.8955,0.1484-1.6797,0.4453-2.3516
		s0.749-1.1758,1.3555-1.5117c0.6065-0.3359,1.2666-0.5039,1.9805-0.5039c0.9014,0,1.6377,0.2275,2.2109,0.6836
		s0.9404,1.1025,1.1016,1.9414l-1.3672,0.2109c-0.1299-0.5576-0.3604-0.9766-0.6914-1.2578s-0.7305-0.4219-1.1992-0.4219
		c-0.708,0-1.2842,0.2539-1.7266,0.7617s-0.6641,1.3115-0.6641,2.4102c0,1.1143,0.2139,1.9248,0.6406,2.4297
		s0.9844,0.7578,1.6719,0.7578c0.5518,0,1.0127-0.1689,1.3828-0.5078S68.158,23.7072,68.2566,23.0041z"/>
	<path d="M70.3191,21.8947c0-1.5361,0.4268-2.6748,1.2813-3.4141c0.7139-0.6143,1.583-0.9219,2.6094-0.9219
		c1.1406,0,2.0732,0.374,2.7969,1.1211s1.0859,1.7803,1.0859,3.0977c0,1.0674-0.1602,1.9072-0.4805,2.5195
		s-0.7861,1.0869-1.3984,1.4258s-1.2803,0.5078-2.0039,0.5078c-1.1611,0-2.1006-0.3721-2.8164-1.1172
		S70.3191,23.2961,70.3191,21.8947z M71.7644,21.8947c0,1.0625,0.2314,1.8584,0.6953,2.3867s1.0469,0.793,1.75,0.793
		c0.6982,0,1.2783-0.2656,1.7422-0.7969s0.6953-1.3408,0.6953-2.4297c0-1.0264-0.2334-1.8037-0.6992-2.332
		s-1.0459-0.793-1.7383-0.793c-0.7031,0-1.2861,0.2627-1.75,0.7891S71.7644,20.8322,71.7644,21.8947z"/>
	<path d="M79.1785,23.5666l1.3906-0.2188c0.0781,0.5576,0.2959,0.9844,0.6523,1.2813s0.8555,0.4453,1.4961,0.4453
		c0.6455,0,1.125-0.1318,1.4375-0.3945s0.4688-0.5713,0.4688-0.9258c0-0.3174-0.1377-0.5674-0.4141-0.75
		c-0.1924-0.125-0.6719-0.2842-1.4375-0.4766c-1.0313-0.2607-1.7461-0.4854-2.1445-0.6758s-0.7002-0.4531-0.9063-0.7891
		s-0.3086-0.707-0.3086-1.1133c0-0.3701,0.085-0.7119,0.2539-1.0273s0.3994-0.5771,0.6914-0.7852
		c0.2188-0.1611,0.5166-0.2979,0.8945-0.4102s0.7822-0.168,1.2148-0.168c0.6514,0,1.2227,0.0938,1.7148,0.2813
		s0.8555,0.4414,1.0898,0.7617s0.3955,0.749,0.4844,1.2852l-1.375,0.1875c-0.0625-0.4268-0.2432-0.7607-0.543-1
		s-0.7227-0.3594-1.2695-0.3594c-0.6455,0-1.1064,0.1064-1.3828,0.3203s-0.4141,0.4639-0.4141,0.75
		c0,0.1826,0.0576,0.3467,0.1719,0.4922c0.1143,0.1514,0.2939,0.2764,0.5391,0.375c0.1406,0.0518,0.5547,0.1719,1.2422,0.3594
		c0.9951,0.2656,1.6885,0.4834,2.082,0.6523s0.7021,0.415,0.9258,0.7383s0.3359,0.7236,0.3359,1.2031
		c0,0.4688-0.1367,0.9102-0.4102,1.3242s-0.668,0.7344-1.1836,0.9609s-1.0986,0.3398-1.75,0.3398
		c-1.0781,0-1.8994-0.2236-2.4648-0.6719S79.3347,24.4465,79.1785,23.5666z"/>
	<path d="M90.8113,24.7853l0.2031,1.2422c-0.3955,0.083-0.75,0.125-1.0625,0.125c-0.5107,0-0.9063-0.0811-1.1875-0.2422
		s-0.4795-0.374-0.5938-0.6367s-0.1719-0.8164-0.1719-1.6602V18.84h-1.0313v-1.0938h1.0313v-2.0547l1.3984-0.8438v2.8984h1.4141
		V18.84h-1.4141v4.8516c0,0.4014,0.0244,0.6592,0.0742,0.7734s0.1299,0.2061,0.2422,0.2734S89.986,24.84,90.194,24.84
		C90.3504,24.84,90.5564,24.8215,90.8113,24.7853z"/>
	<path d="M91.6629,21.8947c0-1.5361,0.4268-2.6748,1.2813-3.4141c0.7139-0.6143,1.583-0.9219,2.6094-0.9219
		c1.1406,0,2.0732,0.374,2.7969,1.1211s1.0859,1.7803,1.0859,3.0977c0,1.0674-0.1602,1.9072-0.4805,2.5195
		s-0.7861,1.0869-1.3984,1.4258s-1.2803,0.5078-2.0039,0.5078c-1.1611,0-2.1006-0.3721-2.8164-1.1172
		S91.6629,23.2961,91.6629,21.8947z M93.1082,21.8947c0,1.0625,0.2314,1.8584,0.6953,2.3867s1.0469,0.793,1.75,0.793
		c0.6982,0,1.2783-0.2656,1.7422-0.7969s0.6953-1.3408,0.6953-2.4297c0-1.0264-0.2334-1.8037-0.6992-2.332
		s-1.0459-0.793-1.7383-0.793c-0.7031,0-1.2861,0.2627-1.75,0.7891S93.1082,20.8322,93.1082,21.8947z"/>
	<path d="M100.5222,23.5666l1.3906-0.2188c0.0781,0.5576,0.2959,0.9844,0.6523,1.2813s0.8555,0.4453,1.4961,0.4453
		c0.6455,0,1.125-0.1318,1.4375-0.3945s0.4688-0.5713,0.4688-0.9258c0-0.3174-0.1377-0.5674-0.4141-0.75
		c-0.1924-0.125-0.6719-0.2842-1.4375-0.4766c-1.0313-0.2607-1.7461-0.4854-2.1445-0.6758s-0.7002-0.4531-0.9063-0.7891
		s-0.3086-0.707-0.3086-1.1133c0-0.3701,0.085-0.7119,0.2539-1.0273s0.3994-0.5771,0.6914-0.7852
		c0.2188-0.1611,0.5166-0.2979,0.8945-0.4102s0.7822-0.168,1.2148-0.168c0.6514,0,1.2227,0.0938,1.7148,0.2813
		s0.8555,0.4414,1.0898,0.7617s0.3955,0.749,0.4844,1.2852l-1.375,0.1875c-0.0625-0.4268-0.2432-0.7607-0.543-1
		s-0.7227-0.3594-1.2695-0.3594c-0.6455,0-1.1064,0.1064-1.3828,0.3203s-0.4141,0.4639-0.4141,0.75
		c0,0.1826,0.0576,0.3467,0.1719,0.4922c0.1143,0.1514,0.2939,0.2764,0.5391,0.375c0.1406,0.0518,0.5547,0.1719,1.2422,0.3594
		c0.9951,0.2656,1.6885,0.4834,2.082,0.6523s0.7021,0.415,0.9258,0.7383s0.3359,0.7236,0.3359,1.2031
		c0,0.4688-0.1367,0.9102-0.4102,1.3242s-0.668,0.7344-1.1836,0.9609s-1.0986,0.3398-1.75,0.3398
		c-1.0781,0-1.8994-0.2236-2.4648-0.6719S100.6785,24.4465,100.5222,23.5666z"/>
	<path d="M118.9129,26.0431v-1.0469c-0.5264,0.8232-1.2998,1.2344-2.3203,1.2344c-0.6611,0-1.2695-0.1826-1.8242-0.5469
		s-0.9844-0.874-1.2891-1.5273s-0.457-1.4053-0.457-2.2539c0-0.8281,0.1377-1.5791,0.4141-2.2539s0.6904-1.1914,1.2422-1.5508
		s1.1689-0.5391,1.8516-0.5391c0.5,0,0.9453,0.1055,1.3359,0.3164s0.708,0.4854,0.9531,0.8242V14.59h1.3984v11.4531H118.9129z
		 M114.4676,21.9025c0,1.0625,0.2236,1.8564,0.6719,2.3828s0.9766,0.7891,1.5859,0.7891c0.6143,0,1.1367-0.251,1.5664-0.7539
		s0.6445-1.2695,0.6445-2.3008c0-1.1357-0.2188-1.9688-0.6563-2.5s-0.9766-0.7969-1.6172-0.7969
		c-0.625,0-1.1475,0.2549-1.5664,0.7656S114.4676,20.8039,114.4676,21.9025z"/>
	<path d="M128.1082,23.3713l1.4531,0.1797c-0.2295,0.8486-0.6533,1.5078-1.2734,1.9766c-0.6201,0.4688-1.4111,0.7031-2.375,0.7031
		c-1.2139,0-2.1758-0.374-2.8867-1.1211s-1.0664-1.7959-1.0664-3.1445c0-1.3955,0.3594-2.4795,1.0781-3.25
		s1.6514-1.1563,2.7969-1.1563c1.1094,0,2.0156,0.3779,2.7187,1.1328s1.0547,1.8174,1.0547,3.1875
		c0,0.083-0.0029,0.208-0.0078,0.375h-6.1875c0.0518,0.9111,0.3096,1.6094,0.7734,2.0938s1.042,0.7266,1.7344,0.7266
		c0.5156,0,0.9561-0.1357,1.3203-0.4063S127.8943,23.965,128.1082,23.3713z M123.491,21.0978h4.6328
		c-0.0625-0.6982-0.2393-1.2217-0.5312-1.5703c-0.4482-0.542-1.0283-0.8125-1.7422-0.8125c-0.6455,0-1.1885,0.2158-1.6289,0.6484
		S123.5379,20.3742,123.491,21.0978z"/>
	<path d="M135.5144,26.7306l1.3672,0.2031c0.0576,0.4219,0.2158,0.7295,0.4766,0.9219c0.3486,0.2607,0.8252,0.3906,1.4297,0.3906
		c0.6514,0,1.1533-0.1299,1.5078-0.3906s0.5938-0.625,0.7188-1.0938c0.0732-0.2861,0.1064-0.8877,0.1016-1.8047
		c-0.6143,0.7236-1.3799,1.0859-2.2969,1.0859c-1.1406,0-2.0234-0.4111-2.6484-1.2344s-0.9375-1.8096-0.9375-2.9609
		c0-0.792,0.1436-1.5225,0.4297-2.1914s0.7021-1.1865,1.2461-1.5508s1.1836-0.5469,1.918-0.5469
		c0.9795,0,1.7861,0.3955,2.4219,1.1875v-1h1.2969v7.1719c0,1.292-0.1318,2.207-0.3945,2.7461s-0.6797,0.9648-1.25,1.2773
		s-1.2725,0.4688-2.1055,0.4688c-0.9893,0-1.7891-0.2227-2.3984-0.668S135.4939,27.6261,135.5144,26.7306z M136.6785,21.7463
		c0,1.0889,0.2158,1.8828,0.6484,2.3828s0.9736,0.75,1.625,0.75c0.6455,0,1.1875-0.249,1.625-0.7461s0.6563-1.2773,0.6563-2.3398
		c0-1.0156-0.2256-1.7813-0.6758-2.2969s-0.9932-0.7734-1.6289-0.7734c-0.625,0-1.1563,0.2539-1.5938,0.7617
		S136.6785,20.7463,136.6785,21.7463z"/>
	<path d="M150.0847,25.0197c-0.5205,0.4424-1.0225,0.7549-1.5039,0.9375s-0.999,0.2734-1.5508,0.2734
		c-0.9111,0-1.6123-0.2227-2.1016-0.668s-0.7344-1.0146-0.7344-1.707c0-0.4063,0.0928-0.7773,0.2773-1.1133
		s0.4268-0.6055,0.7266-0.8086s0.6367-0.3564,1.0117-0.4609c0.2764-0.0732,0.6924-0.1436,1.25-0.2109
		c1.1357-0.1357,1.9717-0.2969,2.5078-0.4844c0.0049-0.1924,0.0078-0.3154,0.0078-0.3672c0-0.5732-0.1328-0.9766-0.3984-1.2109
		c-0.3594-0.3174-0.8936-0.4766-1.6016-0.4766c-0.6611,0-1.1494,0.1162-1.4648,0.3477s-0.5479,0.6416-0.6992,1.2305l-1.375-0.1875
		c0.125-0.5889,0.3311-1.0635,0.6172-1.4258s0.7002-0.6406,1.2422-0.8359s1.1689-0.293,1.8828-0.293
		c0.708,0,1.2842,0.083,1.7266,0.25s0.7686,0.376,0.9766,0.6289s0.3545,0.5713,0.4375,0.957
		c0.0469,0.2393,0.0703,0.6719,0.0703,1.2969v1.875c0,1.3076,0.0303,2.1338,0.0898,2.4805s0.1787,0.6787,0.3555,0.9961h-1.4688
		C150.2205,25.7511,150.1267,25.4103,150.0847,25.0197z M149.9675,21.8791c-0.5107,0.208-1.2764,0.3857-2.2969,0.5313
		c-0.5781,0.083-0.9873,0.1768-1.2266,0.2813s-0.4248,0.2568-0.5547,0.457s-0.1953,0.4229-0.1953,0.668
		c0,0.375,0.1416,0.6875,0.4258,0.9375s0.6992,0.375,1.2461,0.375c0.542,0,1.0234-0.1182,1.4453-0.3555s0.7314-0.5615,0.9297-0.9727
		c0.1514-0.3174,0.2266-0.7861,0.2266-1.4063L149.9675,21.8791L149.9675,21.8791z"/>
	<path d="M153.5535,26.0431v-8.2969h1.2656v1.2578c0.3232-0.5889,0.6211-0.9766,0.8945-1.1641s0.5742-0.2813,0.9023-0.2813
		c0.4736,0,0.9561,0.1514,1.4453,0.4531l-0.4844,1.3047c-0.3438-0.2031-0.6875-0.3047-1.0313-0.3047
		c-0.3076,0-0.583,0.0928-0.8281,0.2773s-0.4189,0.4414-0.5234,0.7695c-0.1563,0.5-0.2344,1.0469-0.2344,1.6406v4.3438h-1.4061
		V26.0431z"/>
	<path d="M164.3113,25.0197c-0.5205,0.4424-1.0225,0.7549-1.5039,0.9375s-0.999,0.2734-1.5508,0.2734
		c-0.9111,0-1.6123-0.2227-2.1016-0.668s-0.7344-1.0146-0.7344-1.707c0-0.4063,0.0928-0.7773,0.2773-1.1133
		s0.4268-0.6055,0.7266-0.8086s0.6367-0.3564,1.0117-0.4609c0.2764-0.0732,0.6924-0.1436,1.25-0.2109
		c1.1357-0.1357,1.9717-0.2969,2.5078-0.4844c0.0049-0.1924,0.0078-0.3154,0.0078-0.3672c0-0.5732-0.1328-0.9766-0.3984-1.2109
		c-0.3594-0.3174-0.8936-0.4766-1.6016-0.4766c-0.6611,0-1.1494,0.1162-1.4648,0.3477s-0.5479,0.6416-0.6992,1.2305l-1.375-0.1875
		c0.125-0.5889,0.3311-1.0635,0.6172-1.4258s0.7002-0.6406,1.2422-0.8359s1.1689-0.293,1.8828-0.293
		c0.708,0,1.2842,0.083,1.7266,0.25s0.7686,0.376,0.9766,0.6289s0.3545,0.5713,0.4375,0.957
		c0.0469,0.2393,0.0703,0.6719,0.0703,1.2969v1.875c0,1.3076,0.0303,2.1338,0.0898,2.4805s0.1787,0.6787,0.3555,0.9961h-1.4688
		C164.447,25.7511,164.3533,25.4103,164.3113,25.0197z M164.1941,21.8791c-0.5107,0.208-1.2764,0.3857-2.2969,0.5313
		c-0.5781,0.083-0.9873,0.1768-1.2266,0.2813s-0.4248,0.2568-0.5547,0.457s-0.1953,0.4229-0.1953,0.668
		c0,0.375,0.1416,0.6875,0.4258,0.9375s0.6992,0.375,1.2461,0.375c0.542,0,1.0234-0.1182,1.4453-0.3555s0.7314-0.5615,0.9297-0.9727
		c0.1514-0.3174,0.2266-0.7861,0.2266-1.4063L164.1941,21.8791L164.1941,21.8791z"/>
	<path d="M167.7962,26.0431v-8.2969h1.2656v1.1797c0.6094-0.9111,1.4893-1.3672,2.6406-1.3672c0.5,0,0.96,0.0898,1.3789,0.2695
		s0.7334,0.415,0.9414,0.707s0.3545,0.6377,0.4375,1.0391c0.0518,0.2607,0.0781,0.7158,0.0781,1.3672v5.1016h-1.4063v-5.0469
		c0-0.5732-0.0547-1.001-0.1641-1.2852s-0.3037-0.5107-0.582-0.6797s-0.6055-0.2539-0.9805-0.2539
		c-0.5986,0-1.1162,0.1904-1.5508,0.5703s-0.6523,1.1016-0.6523,2.1641v4.5313C169.2023,26.0431,167.7962,26.0431,167.7962,26.0431z
		"/>
	<path d="M179.7649,24.7853l0.2031,1.2422c-0.3955,0.083-0.75,0.125-1.0625,0.125c-0.5107,0-0.9063-0.0811-1.1875-0.2422
		s-0.4795-0.374-0.5938-0.6367s-0.1719-0.8164-0.1719-1.6602V18.84h-1.0313v-1.0938h1.0313v-2.0547l1.3984-0.8438v2.8984h1.4141
		V18.84h-1.4141v4.8516c0,0.4014,0.0244,0.6592,0.0742,0.7734s0.1299,0.2061,0.2422,0.2734s0.2725,0.1016,0.4805,0.1016
		C179.304,24.84,179.51,24.8215,179.7649,24.7853z"/>
	<path d="M181.5618,16.715l1.0391-2.1875h1.8438l-1.7188,2.1875H181.5618z M181.6321,26.0431v-8.2969h1.4063v8.2969H181.6321z"/>
	<path d="M190.9993,25.0197c-0.5205,0.4424-1.0225,0.7549-1.5039,0.9375s-0.999,0.2734-1.5508,0.2734
		c-0.9111,0-1.6123-0.2227-2.1016-0.668s-0.7344-1.0146-0.7344-1.707c0-0.4063,0.0928-0.7773,0.2773-1.1133
		s0.4268-0.6055,0.7266-0.8086s0.6367-0.3564,1.0117-0.4609c0.2764-0.0732,0.6924-0.1436,1.25-0.2109
		c1.1357-0.1357,1.9717-0.2969,2.5078-0.4844c0.0049-0.1924,0.0078-0.3154,0.0078-0.3672c0-0.5732-0.1328-0.9766-0.3984-1.2109
		c-0.3594-0.3174-0.8936-0.4766-1.6016-0.4766c-0.6611,0-1.1494,0.1162-1.4648,0.3477s-0.5479,0.6416-0.6992,1.2305l-1.375-0.1875
		c0.125-0.5889,0.3311-1.0635,0.6172-1.4258s0.7002-0.6406,1.2422-0.8359s1.1689-0.293,1.8828-0.293
		c0.708,0,1.2842,0.083,1.7266,0.25s0.7686,0.376,0.9766,0.6289s0.3545,0.5713,0.4375,0.957
		c0.0469,0.2393,0.0703,0.6719,0.0703,1.2969v1.875c0,1.3076,0.0303,2.1338,0.0898,2.4805s0.1787,0.6787,0.3555,0.9961h-1.4688
		C191.135,25.7511,191.0413,25.4103,190.9993,25.0197z M190.8821,21.8791c-0.5107,0.208-1.2764,0.3857-2.2969,0.5313
		c-0.5781,0.083-0.9873,0.1768-1.2266,0.2813s-0.4248,0.2568-0.5547,0.457s-0.1953,0.4229-0.1953,0.668
		c0,0.375,0.1416,0.6875,0.4258,0.9375s0.6992,0.375,1.2461,0.375c0.542,0,1.0234-0.1182,1.4453-0.3555s0.7314-0.5615,0.9297-0.9727
		c0.1514-0.3174,0.2266-0.7861,0.2266-1.4063L190.8821,21.8791L190.8821,21.8791z"/>
	<path d="M193.9212,23.5666l1.3906-0.2188c0.0781,0.5576,0.2959,0.9844,0.6523,1.2813s0.8555,0.4453,1.4961,0.4453
		c0.6455,0,1.125-0.1318,1.4375-0.3945s0.4688-0.5713,0.4688-0.9258c0-0.3174-0.1377-0.5674-0.4141-0.75
		c-0.1924-0.125-0.6719-0.2842-1.4375-0.4766c-1.0313-0.2607-1.7461-0.4854-2.1445-0.6758s-0.7002-0.4531-0.9063-0.7891
		s-0.3086-0.707-0.3086-1.1133c0-0.3701,0.085-0.7119,0.2539-1.0273s0.3994-0.5771,0.6914-0.7852
		c0.2188-0.1611,0.5166-0.2979,0.8945-0.4102s0.7822-0.168,1.2148-0.168c0.6514,0,1.2227,0.0938,1.7148,0.2813
		s0.8555,0.4414,1.0898,0.7617s0.3955,0.749,0.4844,1.2852l-1.375,0.1875c-0.0625-0.4268-0.2432-0.7607-0.543-1
		s-0.7227-0.3594-1.2695-0.3594c-0.6455,0-1.1064,0.1064-1.3828,0.3203s-0.4141,0.4639-0.4141,0.75
		c0,0.1826,0.0576,0.3467,0.1719,0.4922c0.1143,0.1514,0.2939,0.2764,0.5391,0.375c0.1406,0.0518,0.5547,0.1719,1.2422,0.3594
		c0.9951,0.2656,1.6885,0.4834,2.082,0.6523s0.7021,0.415,0.9258,0.7383s0.3359,0.7236,0.3359,1.2031
		c0,0.4688-0.1367,0.9102-0.4102,1.3242s-0.668,0.7344-1.1836,0.9609s-1.0986,0.3398-1.75,0.3398
		c-1.0781,0-1.8994-0.2236-2.4648-0.6719S194.0774,24.4465,193.9212,23.5666z"/>
	<path d="M206.8665,29.2385l-0.1563-1.3203c0.3076,0.083,0.5752,0.125,0.8047,0.125c0.3125,0,0.5625-0.0518,0.75-0.1563
		s0.3408-0.25,0.4609-0.4375c0.0889-0.1406,0.2314-0.4893,0.4297-1.0469c0.0264-0.0781,0.0674-0.1924,0.125-0.3438l-3.1484-8.3125
		h1.5156l1.7266,4.8047c0.2236,0.6094,0.4248,1.25,0.6016,1.9219c0.1611-0.6455,0.3545-1.2764,0.5781-1.8906l1.7734-4.8359h1.4063
		l-3.1563,8.4375c-0.3389,0.9111-0.6016,1.5391-0.7891,1.8828c-0.25,0.4639-0.5361,0.8037-0.8594,1.0195
		s-0.708,0.3242-1.1563,0.3242C207.5022,29.4103,207.1995,29.3527,206.8665,29.2385z"/>
	<path d="M219.3587,26.0431v-8.2969h1.2656v1.2578c0.3232-0.5889,0.6211-0.9766,0.8945-1.1641s0.5742-0.2813,0.9023-0.2813
		c0.4736,0,0.9561,0.1514,1.4453,0.4531l-0.4844,1.3047c-0.3438-0.2031-0.6875-0.3047-1.0313-0.3047
		c-0.3076,0-0.583,0.0928-0.8281,0.2773s-0.4189,0.4414-0.5234,0.7695c-0.1563,0.5-0.2344,1.0469-0.2344,1.6406v4.3438h-1.4061
		V26.0431z"/>
	<path d="M230.3821,23.3713l1.4531,0.1797c-0.2295,0.8486-0.6533,1.5078-1.2734,1.9766s-1.4111,0.7031-2.375,0.7031
		c-1.2139,0-2.1758-0.374-2.8867-1.1211s-1.0664-1.7959-1.0664-3.1445c0-1.3955,0.3594-2.4795,1.0781-3.25
		s1.6514-1.1563,2.7969-1.1563c1.1094,0,2.0156,0.3779,2.7188,1.1328s1.0547,1.8174,1.0547,3.1875
		c0,0.083-0.0029,0.208-0.0078,0.375h-6.1875c0.0518,0.9111,0.3096,1.6094,0.7734,2.0938s1.042,0.7266,1.7344,0.7266
		c0.5156,0,0.9561-0.1357,1.3203-0.4063S230.1682,23.965,230.3821,23.3713z M225.7649,21.0978h4.6328
		c-0.0625-0.6982-0.2393-1.2217-0.5313-1.5703c-0.4482-0.542-1.0283-0.8125-1.7422-0.8125c-0.6455,0-1.1885,0.2158-1.6289,0.6484
		S225.8118,20.3742,225.7649,21.0978z"/>
	<path d="M233.6008,29.2228V17.7463h1.2813v1.0781c0.3018-0.4219,0.6436-0.7383,1.0234-0.9492s0.8408-0.3164,1.3828-0.3164
		c0.708,0,1.333,0.1826,1.875,0.5469s0.9502,0.8789,1.2266,1.543s0.4141,1.3916,0.4141,2.1836c0,0.8486-0.1523,1.6133-0.457,2.293
		s-0.7471,1.2002-1.3281,1.5625s-1.1914,0.543-1.832,0.543c-0.4688,0-0.8896-0.0986-1.2617-0.2969s-0.6787-0.4482-0.918-0.75v4.0391
		h-1.4064V29.2228z M234.8743,21.9416c0,1.0674,0.2158,1.8564,0.6484,2.3672s0.9561,0.7656,1.5703,0.7656
		c0.625,0,1.1602-0.2646,1.6055-0.793s0.668-1.3477,0.668-2.457c0-1.0576-0.2178-1.8486-0.6523-2.375s-0.9541-0.7891-1.5586-0.7891
		c-0.5986,0-1.1289,0.2803-1.5898,0.8398S234.8743,20.8742,234.8743,21.9416z"/>
	<path d="M242.4837,26.0431v-8.2969h1.2656v1.2578c0.3232-0.5889,0.6211-0.9766,0.8945-1.1641s0.5742-0.2813,0.9023-0.2813
		c0.4736,0,0.9561,0.1514,1.4453,0.4531l-0.4844,1.3047c-0.3438-0.2031-0.6875-0.3047-1.0313-0.3047
		c-0.3076,0-0.583,0.0928-0.8281,0.2773s-0.4189,0.4414-0.5234,0.7695c-0.1563,0.5-0.2344,1.0469-0.2344,1.6406v4.3438h-1.4061
		V26.0431z"/>
	<path d="M247.304,21.8947c0-1.5361,0.4268-2.6748,1.2813-3.4141c0.7139-0.6143,1.583-0.9219,2.6094-0.9219
		c1.1406,0,2.0732,0.374,2.7969,1.1211s1.0859,1.7803,1.0859,3.0977c0,1.0674-0.1602,1.9072-0.4805,2.5195
		s-0.7861,1.0869-1.3984,1.4258s-1.2803,0.5078-2.0039,0.5078c-1.1611,0-2.1006-0.3721-2.8164-1.1172
		S247.304,23.2961,247.304,21.8947z M248.7493,21.8947c0,1.0625,0.2314,1.8584,0.6953,2.3867s1.0469,0.793,1.75,0.793
		c0.6982,0,1.2783-0.2656,1.7422-0.7969s0.6953-1.3408,0.6953-2.4297c0-1.0264-0.2334-1.8037-0.6992-2.332
		s-1.0459-0.793-1.7383-0.793c-0.7031,0-1.2861,0.2627-1.75,0.7891S248.7493,20.8322,248.7493,21.8947z"/>
	<path d="M262.1399,23.0041l1.3828,0.1797c-0.1514,0.9531-0.5381,1.6992-1.1602,2.2383s-1.3867,0.8086-2.293,0.8086
		c-1.1357,0-2.0479-0.3711-2.7383-1.1133s-1.0352-1.8057-1.0352-3.1914c0-0.8955,0.1484-1.6797,0.4453-2.3516
		s0.749-1.1758,1.3555-1.5117s1.2666-0.5039,1.9805-0.5039c0.9014,0,1.6377,0.2275,2.2109,0.6836s0.9404,1.1025,1.1016,1.9414
		l-1.3672,0.2109c-0.1299-0.5576-0.3604-0.9766-0.6914-1.2578s-0.7305-0.4219-1.1992-0.4219c-0.708,0-1.2842,0.2539-1.7266,0.7617
		s-0.6641,1.3115-0.6641,2.4102c0,1.1143,0.2139,1.9248,0.6406,2.4297s0.9844,0.7578,1.6719,0.7578
		c0.5518,0,1.0127-0.1689,1.3828-0.5078S262.0413,23.7072,262.1399,23.0041z"/>
	<path d="M270.4055,23.3713l1.4531,0.1797c-0.2295,0.8486-0.6533,1.5078-1.2734,1.9766s-1.4111,0.7031-2.375,0.7031
		c-1.2139,0-2.1758-0.374-2.8867-1.1211s-1.0664-1.7959-1.0664-3.1445c0-1.3955,0.3594-2.4795,1.0781-3.25
		s1.6514-1.1563,2.7969-1.1563c1.1094,0,2.0156,0.3779,2.7188,1.1328s1.0547,1.8174,1.0547,3.1875
		c0,0.083-0.0029,0.208-0.0078,0.375h-6.1875c0.0518,0.9111,0.3096,1.6094,0.7734,2.0938s1.042,0.7266,1.7344,0.7266
		c0.5156,0,0.9561-0.1357,1.3203-0.4063S270.1917,23.965,270.4055,23.3713z M265.7884,21.0978h4.6328
		c-0.0625-0.6982-0.2393-1.2217-0.5313-1.5703c-0.4482-0.542-1.0283-0.8125-1.7422-0.8125c-0.6455,0-1.1885,0.2158-1.6289,0.6484
		S265.8352,20.3742,265.7884,21.0978z"/>
	<path d="M273.0618,23.5666l1.3906-0.2188c0.0781,0.5576,0.2959,0.9844,0.6523,1.2813s0.8555,0.4453,1.4961,0.4453
		c0.6455,0,1.125-0.1318,1.4375-0.3945s0.4688-0.5713,0.4688-0.9258c0-0.3174-0.1377-0.5674-0.4141-0.75
		c-0.1924-0.125-0.6719-0.2842-1.4375-0.4766c-1.0313-0.2607-1.7461-0.4854-2.1445-0.6758s-0.7002-0.4531-0.9063-0.7891
		s-0.3086-0.707-0.3086-1.1133c0-0.3701,0.085-0.7119,0.2539-1.0273s0.3994-0.5771,0.6914-0.7852
		c0.2188-0.1611,0.5166-0.2979,0.8945-0.4102s0.7822-0.168,1.2148-0.168c0.6514,0,1.2227,0.0938,1.7148,0.2813
		s0.8555,0.4414,1.0898,0.7617s0.3955,0.749,0.4844,1.2852l-1.375,0.1875c-0.0625-0.4268-0.2432-0.7607-0.543-1
		s-0.7227-0.3594-1.2695-0.3594c-0.6455,0-1.1064,0.1064-1.3828,0.3203s-0.4141,0.4639-0.4141,0.75
		c0,0.1826,0.0576,0.3467,0.1719,0.4922c0.1143,0.1514,0.2939,0.2764,0.5391,0.375c0.1406,0.0518,0.5547,0.1719,1.2422,0.3594
		c0.9951,0.2656,1.6885,0.4834,2.082,0.6523s0.7021,0.415,0.9258,0.7383s0.3359,0.7236,0.3359,1.2031
		c0,0.4688-0.1367,0.9102-0.4102,1.3242s-0.668,0.7344-1.1836,0.9609s-1.0986,0.3398-1.75,0.3398
		c-1.0781,0-1.8994-0.2236-2.4648-0.6719S273.218,24.4465,273.0618,23.5666z"/>
	<path d="M281.1009,21.8947c0-1.5361,0.4268-2.6748,1.2813-3.4141c0.7139-0.6143,1.583-0.9219,2.6094-0.9219
		c1.1406,0,2.0732,0.374,2.7969,1.1211s1.0859,1.7803,1.0859,3.0977c0,1.0674-0.1602,1.9072-0.4805,2.5195
		s-0.7861,1.0869-1.3984,1.4258s-1.2803,0.5078-2.0039,0.5078c-1.1611,0-2.1006-0.3721-2.8164-1.1172
		S281.1009,23.2961,281.1009,21.8947z M282.5462,21.8947c0,1.0625,0.2314,1.8584,0.6953,2.3867s1.0469,0.793,1.75,0.793
		c0.6982,0,1.2783-0.2656,1.7422-0.7969s0.6953-1.3408,0.6953-2.4297c0-1.0264-0.2334-1.8037-0.6992-2.332
		s-1.0459-0.793-1.7383-0.793c-0.7031,0-1.2861,0.2627-1.75,0.7891S282.5462,20.8322,282.5462,21.8947z"/>
	<path d="M289.9602,23.5666l1.3906-0.2188c0.0781,0.5576,0.2959,0.9844,0.6523,1.2813s0.8555,0.4453,1.4961,0.4453
		c0.6455,0,1.125-0.1318,1.4375-0.3945s0.4688-0.5713,0.4688-0.9258c0-0.3174-0.1377-0.5674-0.4141-0.75
		c-0.1924-0.125-0.6719-0.2842-1.4375-0.4766c-1.0313-0.2607-1.7461-0.4854-2.1445-0.6758s-0.7002-0.4531-0.9063-0.7891
		s-0.3086-0.707-0.3086-1.1133c0-0.3701,0.085-0.7119,0.2539-1.0273s0.3994-0.5771,0.6914-0.7852
		c0.2188-0.1611,0.5166-0.2979,0.8945-0.4102s0.7822-0.168,1.2148-0.168c0.6514,0,1.2227,0.0938,1.7148,0.2813
		s0.8555,0.4414,1.0898,0.7617s0.3955,0.749,0.4844,1.2852l-1.375,0.1875c-0.0625-0.4268-0.2432-0.7607-0.543-1
		s-0.7227-0.3594-1.2695-0.3594c-0.6455,0-1.1064,0.1064-1.3828,0.3203s-0.4141,0.4639-0.4141,0.75
		c0,0.1826,0.0576,0.3467,0.1719,0.4922c0.1143,0.1514,0.2939,0.2764,0.5391,0.375c0.1406,0.0518,0.5547,0.1719,1.2422,0.3594
		c0.9951,0.2656,1.6885,0.4834,2.082,0.6523s0.7021,0.415,0.9258,0.7383s0.3359,0.7236,0.3359,1.2031
		c0,0.4688-0.1367,0.9102-0.4102,1.3242s-0.668,0.7344-1.1836,0.9609s-1.0986,0.3398-1.75,0.3398
		c-1.0781,0-1.8994-0.2236-2.4648-0.6719S290.1165,24.4465,289.9602,23.5666z"/>
	<path d="M298.9212,26.0431v-1.6016h1.6016v1.6016H298.9212z"/>
</g>
</svg>
