<?xml version="1.0" encoding="utf-8"?>
<!-- Generator: Adobe Illustrator 21.0.0, SVG Export Plug-In . SVG Version: 6.00 Build 0)  -->
<svg version="1.1" id="Capa_1" xmlns="http://www.w3.org/2000/svg" xmlns:xlink="http://www.w3.org/1999/xlink" x="0px" y="0px"
	 viewBox="0 0 345.9443 69.9775" style="enable-background:new 0 0 345.9443 69.9775;" xml:space="preserve">
<g>
	<g>
		<path style="fill:#B0BEC5;" d="M9.6099,48.9795c-0.4102,0-0.7803-0.1602-1.0698-0.4395c-0.1401-0.1406-0.25-0.3105-0.3203-0.4902
			c-0.0801-0.1797-0.1201-0.3701-0.1201-0.5703c0-0.3994,0.1602-0.7793,0.4404-1.0596c0.3496-0.3506,0.8696-0.5098,1.3599-0.4102
			c0.0898,0.0098,0.1899,0.04,0.2798,0.0801c0.0903,0.04,0.1802,0.0898,0.2603,0.1396c0.0801,0.0508,0.1597,0.1201,0.2197,0.1904
			c0.2803,0.2803,0.4502,0.6602,0.4502,1.0596c0,0.2002-0.04,0.3906-0.1201,0.5703c-0.0698,0.1797-0.1797,0.3496-0.3301,0.4902
			C10.3799,48.8193,10.0098,48.9795,9.6099,48.9795z"/>
		<path style="fill:#B0BEC5;" d="M9.5996,57.2803c-0.1997,0-0.3896-0.04-0.5698-0.1104c-0.1802-0.0801-0.3501-0.1904-0.4897-0.3301
			c-0.2803-0.2803-0.4404-0.6602-0.4404-1.0596c0-0.1006,0.0103-0.1904,0.0303-0.29c0.02-0.1006,0.0498-0.1904,0.0898-0.2803
			s0.0801-0.1797,0.1401-0.2598C8.4097,54.8701,8.48,54.79,8.54,54.7197c0.0698-0.0703,0.1499-0.1299,0.23-0.1895
			c0.0796-0.0508,0.1699-0.1006,0.2598-0.1309c0.0898-0.04,0.1899-0.0693,0.2803-0.0898c0.1997-0.04,0.3999-0.04,0.5898,0
			c0.0898,0.0205,0.1899,0.0498,0.2798,0.0898c0.0903,0.0303,0.1802,0.0801,0.2603,0.1309c0.0801,0.0596,0.1597,0.1191,0.23,0.1895
			c0.2798,0.2803,0.4399,0.6699,0.4399,1.0605c0,0.1992-0.04,0.3896-0.1201,0.5791c-0.0698,0.1807-0.1797,0.3408-0.3198,0.4805
			C10.3799,57.1299,10,57.2803,9.5996,57.2803z"/>
		<path style="fill:#B0BEC5;" d="M35.73,55.7803c0-0.8301,0.6797-1.5,1.5-1.5l0,0c0.8301,0,1.5,0.6699,1.5,1.5l0,0
			c0,0.8291-0.6699,1.5-1.5,1.5l0,0C36.4097,57.2803,35.73,56.6094,35.73,55.7803z M26.52,55.7803c0-0.8301,0.6797-1.5,1.5-1.5l0,0
			c0.8296,0,1.5,0.6699,1.5,1.5l0,0c0,0.8291-0.6704,1.5-1.5,1.5l0,0C27.1997,57.2803,26.52,56.6094,26.52,55.7803z
			 M17.3101,55.7803c0-0.8301,0.6797-1.5,1.5-1.5l0,0c0.8296,0,1.5,0.6699,1.5,1.5l0,0c0,0.8291-0.6704,1.5-1.5,1.5l0,0
			C17.9897,57.2803,17.3101,56.6094,17.3101,55.7803z"/>
		<path style="fill:#B0BEC5;" d="M46.4497,57.2803c-0.1997,0-0.3999-0.04-0.5801-0.1104c-0.1797-0.0801-0.3496-0.1904-0.4897-0.3301
			c-0.2803-0.2803-0.4399-0.6602-0.4399-1.0596c0-0.3906,0.1597-0.7803,0.4399-1.0605c0.3501-0.3496,0.8701-0.5098,1.3599-0.4102
			c0.0898,0.0205,0.1899,0.0498,0.2803,0.0898c0.0898,0.0303,0.1797,0.0801,0.2598,0.1309c0.0801,0.0596,0.1602,0.1191,0.23,0.1895
			c0.27,0.2803,0.4302,0.6699,0.4302,1.0605c0,0.1992-0.0303,0.3896-0.1104,0.5791c-0.0698,0.1807-0.1797,0.3408-0.3198,0.4805
			c-0.1499,0.1396-0.3101,0.25-0.4897,0.3301C46.8398,57.2402,46.6396,57.2803,46.4497,57.2803z"/>
		<path style="fill:#B0BEC5;" d="M44.9399,62.1299c0-0.8301,0.6797-1.5,1.5-1.5l0,0c0.8301,0,1.5,0.6699,1.5,1.5l0,0
			c0,0.8301-0.6699,1.5-1.5,1.5l0,0C45.6196,63.6299,44.9399,62.96,44.9399,62.1299z"/>
		<path style="fill:#B0BEC5;" d="M46.4399,69.9795c-0.1899,0-0.3901-0.04-0.5703-0.1201c-0.1797-0.0693-0.3398-0.1797-0.4897-0.3193
			c-0.1401-0.1406-0.25-0.3105-0.3198-0.4902c-0.0801-0.1797-0.1104-0.3701-0.1104-0.5703c0-0.3994,0.1499-0.79,0.4302-1.0596
			c0.0698-0.0703,0.1499-0.1299,0.23-0.1904c0.0801-0.0498,0.1699-0.0996,0.2598-0.1396c0.0903-0.0303,0.1904-0.0596,0.2803-0.0801
			c0.4897-0.0996,1.0098,0.0596,1.3501,0.4102c0.2798,0.2695,0.4399,0.6602,0.4399,1.0596c0,0.2002-0.0303,0.3906-0.1104,0.5703
			c-0.0698,0.1797-0.1797,0.3496-0.3296,0.4902C47.2197,69.8193,46.8398,69.9795,46.4399,69.9795z"/>
	</g>
</g>
<g>
	
		<linearGradient id="SVGID_1_" gradientUnits="userSpaceOnUse" x1="338.4408" y1="51.0889" x2="11.2422" y2="51.0889" gradientTransform="matrix(1 0 0 -1 0 72)">
		<stop  offset="0" style="stop-color:#FFFFFF"/>
		<stop  offset="0.9858" style="stop-color:#B1BFC6"/>
		<stop  offset="1" style="stop-color:#B0BEC5"/>
	</linearGradient>
	<rect style="fill:url(#SVGID_1_);" width="345.9443" height="41.8222"/>
	<rect style="fill:#0071BC;" width="7.4248" height="41.8222"/>
</g>
<g>
	<path d="M17.6785,26.0431V14.59h3.9453c0.8906,0,1.5703,0.0547,2.0391,0.1641c0.6563,0.1514,1.2158,0.4248,1.6797,0.8203
		c0.6045,0.5107,1.0557,1.1631,1.3555,1.957s0.4492,1.7021,0.4492,2.7227c0,0.8701-0.1016,1.6406-0.3047,2.3125
		s-0.4639,1.2275-0.7813,1.668s-0.665,0.7861-1.043,1.0391s-0.833,0.4443-1.3672,0.5742s-1.1475,0.1953-1.8398,0.1953
		L17.6785,26.0431L17.6785,26.0431z M19.1941,24.6916h2.4453c0.7549,0,1.3477-0.0703,1.7773-0.2109s0.7725-0.3389,1.0273-0.5938
		c0.3594-0.3594,0.6396-0.8428,0.8398-1.4492s0.3008-1.3428,0.3008-2.207c0-1.1982-0.1963-2.1182-0.5898-2.7617
		s-0.8711-1.0742-1.4336-1.293c-0.4063-0.1563-1.0596-0.2344-1.9609-0.2344H19.194L19.1941,24.6916L19.1941,24.6916z"/>
	<path d="M34.4676,25.0197c-0.5205,0.4424-1.0225,0.7549-1.5039,0.9375s-0.999,0.2734-1.5508,0.2734
		c-0.9111,0-1.6123-0.2227-2.1016-0.668s-0.7344-1.0146-0.7344-1.707c0-0.4063,0.0928-0.7773,0.2773-1.1133
		s0.4268-0.6055,0.7266-0.8086s0.6367-0.3564,1.0117-0.4609c0.2764-0.0732,0.6924-0.1436,1.25-0.2109
		c1.1357-0.1357,1.9717-0.2969,2.5078-0.4844c0.0049-0.1924,0.0078-0.3154,0.0078-0.3672c0-0.5732-0.1328-0.9766-0.3984-1.2109
		c-0.3594-0.3174-0.8936-0.4766-1.6016-0.4766c-0.6611,0-1.1494,0.1162-1.4648,0.3477s-0.5479,0.6416-0.6992,1.2305l-1.375-0.1875
		c0.125-0.5889,0.3311-1.0635,0.6172-1.4258s0.7002-0.6406,1.2422-0.8359s1.1689-0.293,1.8828-0.293
		c0.708,0,1.2842,0.083,1.7266,0.25s0.7686,0.376,0.9766,0.6289s0.3545,0.5713,0.4375,0.957
		c0.0469,0.2393,0.0703,0.6719,0.0703,1.2969v1.875c0,1.3076,0.0303,2.1338,0.0898,2.4805s0.1787,0.6787,0.3555,0.9961h-1.4688
		C34.6033,25.7512,34.5096,25.4103,34.4676,25.0197z M34.3504,21.8791c-0.5107,0.208-1.2764,0.3857-2.2969,0.5313
		c-0.5781,0.083-0.9873,0.1768-1.2266,0.2813s-0.4248,0.2568-0.5547,0.457s-0.1953,0.4229-0.1953,0.668
		c0,0.375,0.1416,0.6875,0.4258,0.9375s0.6992,0.375,1.2461,0.375c0.542,0,1.0234-0.1182,1.4453-0.3555s0.7314-0.5615,0.9297-0.9727
		c0.1514-0.3174,0.2266-0.7861,0.2266-1.4063C34.3504,22.3947,34.3504,21.8791,34.3504,21.8791z"/>
	<path d="M37.9363,26.0431v-8.2969h1.2656v1.2578c0.3232-0.5889,0.6211-0.9766,0.8945-1.1641s0.5742-0.2813,0.9023-0.2813
		c0.4736,0,0.9561,0.1514,1.4453,0.4531l-0.4844,1.3047c-0.3438-0.2031-0.6875-0.3047-1.0313-0.3047
		c-0.3076,0-0.583,0.0928-0.8281,0.2773s-0.4189,0.4414-0.5234,0.7695c-0.1563,0.5-0.2344,1.0469-0.2344,1.6406v4.3438h-1.4061
		V26.0431z"/>
	<path d="M53.1394,23.0041l1.3828,0.1797c-0.1514,0.9531-0.5381,1.6992-1.1602,2.2383s-1.3867,0.8086-2.293,0.8086
		c-1.1357,0-2.0479-0.3711-2.7383-1.1133s-1.0352-1.8057-1.0352-3.1914c0-0.8955,0.1484-1.6797,0.4453-2.3516
		s0.749-1.1758,1.3555-1.5117s1.2666-0.5039,1.9805-0.5039c0.9014,0,1.6377,0.2275,2.2109,0.6836s0.9404,1.1025,1.1016,1.9414
		l-1.3672,0.2109c-0.1299-0.5576-0.3604-0.9766-0.6914-1.2578s-0.7305-0.4219-1.1992-0.4219c-0.708,0-1.2842,0.2539-1.7266,0.7617
		s-0.6641,1.3115-0.6641,2.4102c0,1.1143,0.2139,1.9248,0.6406,2.4297s0.9844,0.7578,1.6719,0.7578
		c0.5518,0,1.0127-0.1689,1.3828-0.5078S53.0408,23.7072,53.1394,23.0041z"/>
	<path d="M61.1394,25.0197c-0.5205,0.4424-1.0225,0.7549-1.5039,0.9375s-0.999,0.2734-1.5508,0.2734
		c-0.9111,0-1.6123-0.2227-2.1016-0.668s-0.7344-1.0146-0.7344-1.707c0-0.4063,0.0928-0.7773,0.2773-1.1133
		s0.4268-0.6055,0.7266-0.8086s0.6367-0.3564,1.0117-0.4609c0.2764-0.0732,0.6924-0.1436,1.25-0.2109
		c1.1357-0.1357,1.9717-0.2969,2.5078-0.4844c0.0049-0.1924,0.0078-0.3154,0.0078-0.3672c0-0.5732-0.1328-0.9766-0.3984-1.2109
		c-0.3594-0.3174-0.8936-0.4766-1.6016-0.4766c-0.6611,0-1.1494,0.1162-1.4648,0.3477s-0.5479,0.6416-0.6992,1.2305l-1.375-0.1875
		c0.125-0.5889,0.3311-1.0635,0.6172-1.4258s0.7002-0.6406,1.2422-0.8359s1.1689-0.293,1.8828-0.293
		c0.708,0,1.2842,0.083,1.7266,0.25s0.7686,0.376,0.9766,0.6289s0.3545,0.5713,0.4375,0.957
		c0.0469,0.2393,0.0703,0.6719,0.0703,1.2969v1.875c0,1.3076,0.0303,2.1338,0.0898,2.4805s0.1787,0.6787,0.3555,0.9961h-1.4688
		C61.2752,25.7512,61.1814,25.4103,61.1394,25.0197z M61.0222,21.8791c-0.5107,0.208-1.2764,0.3857-2.2969,0.5313
		c-0.5781,0.083-0.9873,0.1768-1.2266,0.2813s-0.4248,0.2568-0.5547,0.457s-0.1953,0.4229-0.1953,0.668
		c0,0.375,0.1416,0.6875,0.4258,0.9375s0.6992,0.375,1.2461,0.375c0.542,0,1.0234-0.1182,1.4453-0.3555s0.7314-0.5615,0.9297-0.9727
		c0.1514-0.3174,0.2266-0.7861,0.2266-1.4063V21.8791z"/>
	<path d="M64.5926,26.0431V14.59h1.4063v11.4531H64.5926z"/>
	<path d="M68.1863,16.2072V14.59h1.4063v1.6172C69.5926,16.2072,68.1863,16.2072,68.1863,16.2072z M68.1863,26.0431v-8.2969h1.4063
		v8.2969H68.1863z"/>
	<path d="M77.116,26.0431v-1.0469c-0.5264,0.8232-1.2998,1.2344-2.3203,1.2344c-0.6611,0-1.2695-0.1826-1.8242-0.5469
		s-0.9844-0.874-1.2891-1.5273s-0.457-1.4053-0.457-2.2539c0-0.8281,0.1377-1.5791,0.4141-2.2539s0.6904-1.1914,1.2422-1.5508
		s1.1689-0.5391,1.8516-0.5391c0.5,0,0.9453,0.1055,1.3359,0.3164s0.708,0.4854,0.9531,0.8242V14.59h1.3984v11.4531H77.116z
		 M72.6707,21.9025c0,1.0625,0.2236,1.8564,0.6719,2.3828s0.9766,0.7891,1.5859,0.7891c0.6143,0,1.1367-0.251,1.5664-0.7539
		s0.6445-1.2695,0.6445-2.3008c0-1.1357-0.2188-1.9688-0.6563-2.5s-0.9766-0.7969-1.6172-0.7969
		c-0.625,0-1.1475,0.2549-1.5664,0.7656S72.6707,20.8039,72.6707,21.9025z"/>
	<path d="M86.0457,25.0197c-0.5205,0.4424-1.0225,0.7549-1.5039,0.9375s-0.999,0.2734-1.5508,0.2734
		c-0.9111,0-1.6123-0.2227-2.1016-0.668s-0.7344-1.0146-0.7344-1.707c0-0.4063,0.0928-0.7773,0.2773-1.1133
		s0.4268-0.6055,0.7266-0.8086s0.6367-0.3564,1.0117-0.4609c0.2764-0.0732,0.6924-0.1436,1.25-0.2109
		c1.1357-0.1357,1.9717-0.2969,2.5078-0.4844c0.0049-0.1924,0.0078-0.3154,0.0078-0.3672c0-0.5732-0.1328-0.9766-0.3984-1.2109
		c-0.3594-0.3174-0.8936-0.4766-1.6016-0.4766c-0.6611,0-1.1494,0.1162-1.4648,0.3477s-0.5479,0.6416-0.6992,1.2305l-1.375-0.1875
		c0.125-0.5889,0.3311-1.0635,0.6172-1.4258s0.7002-0.6406,1.2422-0.8359s1.1689-0.293,1.8828-0.293
		c0.708,0,1.2842,0.083,1.7266,0.25s0.7686,0.376,0.9766,0.6289s0.3545,0.5713,0.4375,0.957
		c0.0469,0.2393,0.0703,0.6719,0.0703,1.2969v1.875c0,1.3076,0.0303,2.1338,0.0898,2.4805s0.1787,0.6787,0.3555,0.9961h-1.4688
		C86.1814,25.7512,86.0877,25.4103,86.0457,25.0197z M85.9285,21.8791c-0.5107,0.208-1.2764,0.3857-2.2969,0.5313
		c-0.5781,0.083-0.9873,0.1768-1.2266,0.2813s-0.4248,0.2568-0.5547,0.457s-0.1953,0.4229-0.1953,0.668
		c0,0.375,0.1416,0.6875,0.4258,0.9375s0.6992,0.375,1.2461,0.375c0.542,0,1.0234-0.1182,1.4453-0.3555s0.7314-0.5615,0.9297-0.9727
		c0.1514-0.3174,0.2266-0.7861,0.2266-1.4063V21.8791z"/>
	<path d="M94.9129,26.0431v-1.0469c-0.5264,0.8232-1.2998,1.2344-2.3203,1.2344c-0.6611,0-1.2695-0.1826-1.8242-0.5469
		s-0.9844-0.874-1.2891-1.5273s-0.457-1.4053-0.457-2.2539c0-0.8281,0.1377-1.5791,0.4141-2.2539s0.6904-1.1914,1.2422-1.5508
		s1.1689-0.5391,1.8516-0.5391c0.5,0,0.9453,0.1055,1.3359,0.3164s0.708,0.4854,0.9531,0.8242V14.59h1.3984v11.4531H94.9129z
		 M90.4676,21.9025c0,1.0625,0.2236,1.8564,0.6719,2.3828s0.9766,0.7891,1.5859,0.7891c0.6143,0,1.1367-0.251,1.5664-0.7539
		s0.6445-1.2695,0.6445-2.3008c0-1.1357-0.2188-1.9688-0.6563-2.5s-0.9766-0.7969-1.6172-0.7969
		c-0.625,0-1.1475,0.2549-1.5664,0.7656S90.4676,20.8039,90.4676,21.9025z"/>
	<path d="M108.2879,25.0197c-0.5205,0.4424-1.0225,0.7549-1.5039,0.9375s-0.999,0.2734-1.5508,0.2734
		c-0.9111,0-1.6123-0.2227-2.1016-0.668s-0.7344-1.0146-0.7344-1.707c0-0.4063,0.0928-0.7773,0.2773-1.1133
		s0.4268-0.6055,0.7266-0.8086s0.6367-0.3564,1.0117-0.4609c0.2764-0.0732,0.6924-0.1436,1.25-0.2109
		c1.1357-0.1357,1.9717-0.2969,2.5078-0.4844c0.0049-0.1924,0.0078-0.3154,0.0078-0.3672c0-0.5732-0.1328-0.9766-0.3984-1.2109
		c-0.3594-0.3174-0.8936-0.4766-1.6016-0.4766c-0.6611,0-1.1494,0.1162-1.4648,0.3477s-0.5479,0.6416-0.6992,1.2305l-1.375-0.1875
		c0.125-0.5889,0.3311-1.0635,0.6172-1.4258s0.7002-0.6406,1.2422-0.8359s1.1689-0.293,1.8828-0.293
		c0.708,0,1.2842,0.083,1.7266,0.25s0.7686,0.376,0.9766,0.6289s0.3545,0.5713,0.4375,0.957
		c0.0469,0.2393,0.0703,0.6719,0.0703,1.2969v1.875c0,1.3076,0.0303,2.1338,0.0898,2.4805s0.1787,0.6787,0.3555,0.9961h-1.4688
		C108.4236,25.7512,108.3299,25.4103,108.2879,25.0197z M108.1707,21.8791c-0.5107,0.208-1.2764,0.3857-2.2969,0.5313
		c-0.5781,0.083-0.9873,0.1768-1.2266,0.2813s-0.4248,0.2568-0.5547,0.457s-0.1953,0.4229-0.1953,0.668
		c0,0.375,0.1416,0.6875,0.4258,0.9375s0.6992,0.375,1.2461,0.375c0.542,0,1.0234-0.1182,1.4453-0.3555s0.7314-0.5615,0.9297-0.9727
		c0.1514-0.3174,0.2266-0.7861,0.2266-1.4063V21.8791z"/>
	<path d="M111.741,26.0431V14.59h1.4063v11.4531H111.741z"/>
	<path d="M119.7722,29.2228V17.7463h1.2813v1.0781c0.3018-0.4219,0.6436-0.7383,1.0234-0.9492s0.8408-0.3164,1.3828-0.3164
		c0.708,0,1.333,0.1826,1.875,0.5469s0.9502,0.8789,1.2266,1.543s0.4141,1.3916,0.4141,2.1836c0,0.8486-0.1523,1.6133-0.457,2.293
		s-0.7471,1.2002-1.3281,1.5625s-1.1914,0.543-1.832,0.543c-0.4688,0-0.8896-0.0986-1.2617-0.2969s-0.6787-0.4482-0.918-0.75v4.0391
		h-1.4064V29.2228z M121.0457,21.9416c0,1.0674,0.2158,1.8564,0.6484,2.3672s0.9561,0.7656,1.5703,0.7656
		c0.625,0,1.1602-0.2646,1.6055-0.793s0.668-1.3477,0.668-2.457c0-1.0576-0.2178-1.8486-0.6523-2.375s-0.9541-0.7891-1.5586-0.7891
		c-0.5986,0-1.1289,0.2803-1.5898,0.8398S121.0457,20.8742,121.0457,21.9416z"/>
	<path d="M128.6551,26.0431v-8.2969h1.2656v1.2578c0.3232-0.5889,0.6211-0.9766,0.8945-1.1641s0.5742-0.2813,0.9023-0.2813
		c0.4736,0,0.9561,0.1514,1.4453,0.4531l-0.4844,1.3047c-0.3438-0.2031-0.6875-0.3047-1.0313-0.3047
		c-0.3076,0-0.583,0.0928-0.8281,0.2773s-0.4189,0.4414-0.5234,0.7695c-0.1563,0.5-0.2344,1.0469-0.2344,1.6406v4.3438h-1.4061
		V26.0431z"/>
	<path d="M133.4754,21.8947c0-1.5361,0.4268-2.6748,1.2813-3.4141c0.7139-0.6143,1.583-0.9219,2.6094-0.9219
		c1.1406,0,2.0732,0.374,2.7969,1.1211s1.0859,1.7803,1.0859,3.0977c0,1.0674-0.1602,1.9072-0.4805,2.5195
		s-0.7861,1.0869-1.3984,1.4258s-1.2803,0.5078-2.0039,0.5078c-1.1611,0-2.1006-0.3721-2.8164-1.1172
		S133.4754,23.2961,133.4754,21.8947z M134.9207,21.8947c0,1.0625,0.2314,1.8584,0.6953,2.3867s1.0469,0.793,1.75,0.793
		c0.6982,0,1.2783-0.2656,1.7422-0.7969s0.6953-1.3408,0.6953-2.4297c0-1.0264-0.2334-1.8037-0.6992-2.332
		s-1.0459-0.793-1.7383-0.793c-0.7031,0-1.2861,0.2627-1.75,0.7891S134.9207,20.8322,134.9207,21.8947z"/>
	<path d="M148.2801,26.0431v-1.0469c-0.5264,0.8232-1.2998,1.2344-2.3203,1.2344c-0.6611,0-1.2695-0.1826-1.8242-0.5469
		s-0.9844-0.874-1.2891-1.5273s-0.457-1.4053-0.457-2.2539c0-0.8281,0.1377-1.5791,0.4141-2.2539s0.6904-1.1914,1.2422-1.5508
		s1.1689-0.5391,1.8516-0.5391c0.5,0,0.9453,0.1055,1.3359,0.3164s0.708,0.4854,0.9531,0.8242V14.59h1.3984v11.4531H148.2801z
		 M143.8347,21.9025c0,1.0625,0.2236,1.8564,0.6719,2.3828s0.9766,0.7891,1.5859,0.7891c0.6143,0,1.1367-0.251,1.5664-0.7539
		s0.6445-1.2695,0.6445-2.3008c0-1.1357-0.2188-1.9688-0.6563-2.5s-0.9766-0.7969-1.6172-0.7969
		c-0.625,0-1.1475,0.2549-1.5664,0.7656S143.8347,20.8039,143.8347,21.9025z"/>
	<path d="M157.2332,26.0431v-1.2188c-0.6455,0.9375-1.5234,1.4063-2.6328,1.4063c-0.4893,0-0.9463-0.0938-1.3711-0.2813
		s-0.7393-0.4229-0.9453-0.707s-0.3506-0.6318-0.4336-1.043c-0.0576-0.2764-0.0859-0.7139-0.0859-1.3125v-5.1406h1.4063v4.6016
		c0,0.7344,0.0283,1.2295,0.0859,1.4844c0.0889,0.3701,0.2764,0.6602,0.5625,0.8711s0.6406,0.3164,1.0625,0.3164
		s0.8174-0.1084,1.1875-0.3242s0.6318-0.5107,0.7852-0.8828s0.2305-0.9131,0.2305-1.6211v-4.4453h1.4063v8.2969h-1.258V26.0431z"/>
	<path d="M166.1082,23.0041l1.3828,0.1797c-0.1514,0.9531-0.5381,1.6992-1.1602,2.2383s-1.3867,0.8086-2.293,0.8086
		c-1.1357,0-2.0479-0.3711-2.7383-1.1133s-1.0352-1.8057-1.0352-3.1914c0-0.8955,0.1484-1.6797,0.4453-2.3516
		s0.749-1.1758,1.3555-1.5117s1.2666-0.5039,1.9805-0.5039c0.9014,0,1.6377,0.2275,2.2109,0.6836s0.9404,1.1025,1.1016,1.9414
		l-1.3672,0.2109c-0.1299-0.5576-0.3604-0.9766-0.6914-1.2578s-0.7305-0.4219-1.1992-0.4219c-0.708,0-1.2842,0.2539-1.7266,0.7617
		s-0.6641,1.3115-0.6641,2.4102c0,1.1143,0.2139,1.9248,0.6406,2.4297s0.9844,0.7578,1.6719,0.7578
		c0.5518,0,1.0127-0.1689,1.3828-0.5078S166.0096,23.7072,166.1082,23.0041z"/>
	<path d="M171.7649,24.7853l0.2031,1.2422c-0.3955,0.083-0.75,0.125-1.0625,0.125c-0.5107,0-0.9063-0.0811-1.1875-0.2422
		s-0.48-0.374-0.5942-0.6367s-0.1719-0.8164-0.1719-1.6602V18.84h-1.0313v-1.0938h1.0313v-2.0547l1.3989-0.8438v2.8984h1.4141V18.84
		h-1.4141v4.8516c0,0.4014,0.0244,0.6592,0.0742,0.7734s0.1299,0.2061,0.2422,0.2734s0.2725,0.1016,0.4805,0.1016
		C171.304,24.84,171.51,24.8215,171.7649,24.7853z"/>
	<path d="M172.6165,21.8947c0-1.5361,0.4268-2.6748,1.2813-3.4141c0.7139-0.6143,1.583-0.9219,2.6094-0.9219
		c1.1406,0,2.0732,0.374,2.7969,1.1211s1.0859,1.7803,1.0859,3.0977c0,1.0674-0.1602,1.9072-0.4805,2.5195
		s-0.7861,1.0869-1.3984,1.4258s-1.2803,0.5078-2.0039,0.5078c-1.1611,0-2.1006-0.3721-2.8164-1.1172
		S172.6165,23.2961,172.6165,21.8947z M174.0618,21.8947c0,1.0625,0.2314,1.8584,0.6953,2.3867s1.0469,0.793,1.75,0.793
		c0.6982,0,1.2783-0.2656,1.7422-0.7969s0.6953-1.3408,0.6953-2.4297c0-1.0264-0.2334-1.8037-0.6992-2.332
		s-1.0459-0.793-1.7383-0.793c-0.7031,0-1.2861,0.2627-1.75,0.7891S174.0618,20.8322,174.0618,21.8947z"/>
	<path d="M185.9602,21.8947c0-1.5361,0.4268-2.6748,1.2813-3.4141c0.7139-0.6143,1.583-0.9219,2.6094-0.9219
		c1.1406,0,2.0732,0.374,2.7969,1.1211s1.0859,1.7803,1.0859,3.0977c0,1.0674-0.1602,1.9072-0.4805,2.5195
		s-0.7861,1.0869-1.3984,1.4258s-1.2803,0.5078-2.0039,0.5078c-1.1611,0-2.1006-0.3721-2.8164-1.1172
		S185.9602,23.2961,185.9602,21.8947z M187.4055,21.8947c0,1.0625,0.2314,1.8584,0.6953,2.3867s1.0469,0.793,1.75,0.793
		c0.6982,0,1.2783-0.2656,1.7422-0.7969s0.6953-1.3408,0.6953-2.4297c0-1.0264-0.2334-1.8037-0.6992-2.332
		s-1.0459-0.793-1.7383-0.793c-0.7031,0-1.2861,0.2627-1.75,0.7891S187.4055,20.8322,187.4055,21.8947z"/>
	<path d="M199.2649,23.5666l1.3906-0.2188c0.0781,0.5576,0.2959,0.9844,0.6523,1.2813s0.8555,0.4453,1.4961,0.4453
		c0.6455,0,1.125-0.1318,1.4375-0.3945s0.4688-0.5713,0.4688-0.9258c0-0.3174-0.1377-0.5674-0.4141-0.75
		c-0.1924-0.125-0.6719-0.2842-1.4375-0.4766c-1.0313-0.2607-1.7461-0.4854-2.1445-0.6758s-0.7002-0.4531-0.9063-0.7891
		s-0.3086-0.707-0.3086-1.1133c0-0.3701,0.085-0.7119,0.2539-1.0273s0.3994-0.5771,0.6914-0.7852
		c0.2188-0.1611,0.5166-0.2979,0.8945-0.4102s0.7822-0.168,1.2148-0.168c0.6514,0,1.2227,0.0938,1.7148,0.2813
		s0.8555,0.4414,1.0898,0.7617s0.3955,0.749,0.4844,1.2852l-1.375,0.1875c-0.0625-0.4268-0.2432-0.7607-0.543-1
		s-0.7227-0.3594-1.2695-0.3594c-0.6455,0-1.1064,0.1064-1.3828,0.3203s-0.4141,0.4639-0.4141,0.75
		c0,0.1826,0.0576,0.3467,0.1719,0.4922c0.1143,0.1514,0.2939,0.2764,0.5391,0.375c0.1406,0.0518,0.5547,0.1719,1.2422,0.3594
		c0.9951,0.2656,1.6885,0.4834,2.082,0.6523s0.7021,0.415,0.9258,0.7383s0.3359,0.7236,0.3359,1.2031
		c0,0.4688-0.1367,0.9102-0.4102,1.3242s-0.668,0.7344-1.1836,0.9609s-1.0986,0.3398-1.75,0.3398
		c-1.0781,0-1.8994-0.2236-2.4648-0.6719S199.4212,24.4465,199.2649,23.5666z"/>
	<path d="M213.5071,23.3713l1.4531,0.1797c-0.2295,0.8486-0.6533,1.5078-1.2734,1.9766s-1.4111,0.7031-2.375,0.7031
		c-1.2139,0-2.1758-0.374-2.8867-1.1211s-1.0664-1.7959-1.0664-3.1445c0-1.3955,0.3594-2.4795,1.0781-3.25
		s1.6514-1.1563,2.7969-1.1563c1.1094,0,2.0156,0.3779,2.7188,1.1328s1.0547,1.8174,1.0547,3.1875
		c0,0.083-0.0029,0.208-0.0078,0.375h-6.1875c0.0518,0.9111,0.3096,1.6094,0.7734,2.0938s1.042,0.7266,1.7344,0.7266
		c0.5156,0,0.9561-0.1357,1.3203-0.4063S213.2932,23.965,213.5071,23.3713z M208.8899,21.0978h4.6328
		c-0.0625-0.6982-0.2393-1.2217-0.5313-1.5703c-0.4482-0.542-1.0283-0.8125-1.7422-0.8125c-0.6455,0-1.1885,0.2158-1.6289,0.6484
		S208.9368,20.3742,208.8899,21.0978z"/>
	<path d="M216.7102,26.0431v-8.2969h1.2656v1.2578c0.3232-0.5889,0.6211-0.9766,0.8945-1.1641s0.5742-0.2813,0.9023-0.2813
		c0.4736,0,0.9561,0.1514,1.4453,0.4531l-0.4844,1.3047c-0.3438-0.2031-0.6875-0.3047-1.0313-0.3047
		c-0.3076,0-0.583,0.0928-0.8281,0.2773s-0.4189,0.4414-0.5234,0.7695c-0.1563,0.5-0.2344,1.0469-0.2344,1.6406v4.3438h-1.4061
		V26.0431z"/>
	<path d="M224.3587,26.0431l-3.1563-8.2969h1.4844l1.7813,4.9688c0.1924,0.5361,0.3701,1.0938,0.5313,1.6719
		c0.125-0.4375,0.2998-0.9639,0.5234-1.5781l1.8438-5.0625h1.4453l-3.1406,8.2969L224.3587,26.0431L224.3587,26.0431z"/>
	<path d="M230.0618,16.2072V14.59h1.4063v1.6172C231.4681,16.2072,230.0618,16.2072,230.0618,16.2072z M230.0618,26.0431v-8.2969
		h1.4063v8.2969H230.0618z"/>
	<path d="M239.0227,23.0041l1.3828,0.1797c-0.1514,0.9531-0.5381,1.6992-1.1602,2.2383s-1.3867,0.8086-2.293,0.8086
		c-1.1357,0-2.0479-0.3711-2.7383-1.1133s-1.0352-1.8057-1.0352-3.1914c0-0.8955,0.1484-1.6797,0.4453-2.3516
		s0.749-1.1758,1.3555-1.5117s1.2666-0.5039,1.9805-0.5039c0.9014,0,1.6377,0.2275,2.2109,0.6836s0.9404,1.1025,1.1016,1.9414
		l-1.3672,0.2109c-0.1299-0.5576-0.3604-0.9766-0.6914-1.2578s-0.7305-0.4219-1.1992-0.4219c-0.708,0-1.2842,0.2539-1.7266,0.7617
		s-0.6641,1.3115-0.6641,2.4102c0,1.1143,0.2139,1.9248,0.6406,2.4297s0.9844,0.7578,1.6719,0.7578
		c0.5518,0,1.0127-0.1689,1.3828-0.5078S238.9241,23.7072,239.0227,23.0041z"/>
	<path d="M241.6165,16.2072V14.59h1.4063v1.6172C243.0228,16.2072,241.6165,16.2072,241.6165,16.2072z M241.6165,26.0431v-8.2969
		h1.4063v8.2969H241.6165z"/>
	<path d="M244.6399,21.8947c0-1.5361,0.4268-2.6748,1.2813-3.4141c0.7139-0.6143,1.583-0.9219,2.6094-0.9219
		c1.1406,0,2.0732,0.374,2.7969,1.1211s1.0859,1.7803,1.0859,3.0977c0,1.0674-0.1602,1.9072-0.4805,2.5195
		s-0.7861,1.0869-1.3984,1.4258s-1.2803,0.5078-2.0039,0.5078c-1.1611,0-2.1006-0.3721-2.8164-1.1172
		S244.6399,23.2961,244.6399,21.8947z M246.0852,21.8947c0,1.0625,0.2314,1.8584,0.6953,2.3867s1.0469,0.793,1.75,0.793
		c0.6982,0,1.2783-0.2656,1.7422-0.7969s0.6953-1.3408,0.6953-2.4297c0-1.0264-0.2334-1.8037-0.6992-2.332
		s-1.0459-0.793-1.7383-0.793c-0.7031,0-1.2861,0.2627-1.75,0.7891S246.0852,20.8322,246.0852,21.8947z"/>
	<path d="M254.4602,26.0431v-1.6016h1.6016v1.6016H254.4602z"/>
</g>
</svg>
