<?xml version="1.0" encoding="utf-8"?>
<!-- Generator: Adobe Illustrator 22.1.0, SVG Export Plug-In . SVG Version: 6.00 Build 0)  -->
<svg version="1.1" id="Capa_1" xmlns="http://www.w3.org/2000/svg" xmlns:xlink="http://www.w3.org/1999/xlink" x="0px" y="0px"
	 viewBox="0 0 366.9 41.8" style="enable-background:new 0 0 366.9 41.8;" xml:space="preserve">
<style type="text/css">
	.st0{fill:url(#SVGID_1_);}
	.st1{fill:#662D91;}
</style>
<g>
	
		<linearGradient id="SVGID_1_" gradientUnits="userSpaceOnUse" x1="355.7613" y1="23.0889" x2="13.3061" y2="23.0889" gradientTransform="matrix(1 0 0 -1 0 44)">
		<stop  offset="0" style="stop-color:#FFFFFF"/>
		<stop  offset="0.9858" style="stop-color:#B1BFC6"/>
		<stop  offset="1" style="stop-color:#B0BEC5"/>
	</linearGradient>
	<rect class="st0" width="366.9" height="41.8"/>
	<rect class="st1" width="7.4" height="41.8"/>
</g>
<path d="M17.6,17V5.6h2.3l2.7,8.1c0.3,0.8,0.4,1.3,0.5,1.7c0.1-0.4,0.3-1,0.6-1.8l2.7-8h2V17h-1.5V7.5L23.8,17h-1.4l-3.3-9.8V17
	H17.6z"/>
<path d="M36.5,14.4l1.5,0.2c-0.6,2.3-3,3.2-5.1,2.4c-2.2-0.8-2.8-3.3-2.3-5.3c0.4-2.2,2.4-3.5,4.6-3c2.2,0.5,3,2.6,2.9,4.6h-6.2
	c0.1,1.2,0.6,2.5,1.9,2.8C35.1,16.3,36.1,15.6,36.5,14.4z M31.9,12.1h4.6c-0.1-0.7-0.2-1.2-0.5-1.6C34.5,8.8,32,10.1,31.9,12.1z"/>
<path d="M37.9,20.3l0.3-1.2c1.3,0.3,1.5-0.5,1.5-1.6V8.7h1.4v8.8c0,1-0.1,1.7-0.4,2.1c-0.3,0.5-0.9,0.8-1.7,0.8
	C38.7,20.4,38.3,20.4,37.9,20.3z M39.7,7.2V5.6h1.4v1.6C41.1,7.2,39.7,7.2,39.7,7.2z"/>
<path d="M42.8,12.9c0-1.5,0.4-2.7,1.3-3.4c1.2-1,3.1-1.2,4.5-0.5c1.5,0.8,2,2.4,2,3.9c0,1.6-0.5,3.1-2,3.8c-1.5,0.8-3.5,0.5-4.7-0.7
	C43.1,15.4,42.8,14.3,42.8,12.9z M44.2,12.9c0,1.5,0.7,3.2,2.4,3.2c1.8,0,2.4-1.7,2.4-3.2c0-1.5-0.7-3.1-2.4-3.1
	C44.9,9.7,44.2,11.4,44.2,12.9z"/>
<path d="M52.2,17V8.7h1.3V10c0.7-1.3,1.8-1.9,3.2-1l-0.5,1.3c-0.9-0.5-2-0.3-2.4,0.7c-0.2,0.5-0.2,1-0.2,1.6V17L52.2,17L52.2,17z"/>
<path d="M62.9,16c-1.3,1.1-3.7,1.9-5.2,0.5c-1.5-1.4-0.5-3.6,1.3-4.1c0.3-0.1,0.7-0.1,1.3-0.2c1.1-0.1,2-0.3,2.5-0.5
	c0-0.5,0-1.2-0.4-1.6c-1.3-1.1-3.4-0.5-3.8,1.1l-1.4-0.2c0.4-1.7,1.7-2.5,3.4-2.5c1.4-0.1,3.1,0.2,3.5,1.8c0,0.2,0.1,0.7,0.1,1.3
	v1.9c0,1.3,0,2.1,0.1,2.5c0.1,0.3,0.2,0.7,0.4,1h-1.5C63.1,16.8,63,16.4,62.9,16z M62.8,12.9c-0.5,0.2-1.3,0.4-2.3,0.5
	c-0.6,0.1-1.4,0.2-1.8,0.7c-0.3,0.5-0.2,1.2,0.2,1.6c1.1,0.9,3.1,0.2,3.6-1c0.2-0.3,0.2-0.8,0.2-1.4V12.9z"/>
<path d="M66.4,17V8.7h1.3V10c0.7-1.3,1.8-1.9,3.2-1l-0.5,1.3c-0.9-0.5-2-0.3-2.4,0.7c-0.2,0.5-0.2,1-0.2,1.6V17L66.4,17L66.4,17z"/>
<path d="M76.1,17V5.6h1.4V17H76.1z"/>
<path d="M85.1,16c-1.3,1.1-3.7,1.9-5.2,0.5c-1.5-1.4-0.5-3.6,1.3-4.1c0.3-0.1,0.7-0.1,1.3-0.2c1.1-0.1,2-0.3,2.5-0.5
	c0-0.5,0-1.2-0.4-1.6c-1.3-1.1-3.4-0.5-3.8,1.1l-1.4-0.2c0.4-1.7,1.7-2.5,3.4-2.5c1.4-0.1,3.1,0.2,3.5,1.8c0,0.2,0.1,0.7,0.1,1.3
	v1.9c0,1.3,0,2.1,0.1,2.5c0.1,0.3,0.2,0.7,0.4,1h-1.5C85.3,16.8,85.2,16.4,85.1,16z M85,12.9c-0.5,0.2-1.3,0.4-2.3,0.5
	c-0.6,0.1-1.4,0.2-1.8,0.7c-0.3,0.5-0.2,1.2,0.2,1.6c1.1,0.9,3.1,0.2,3.6-1C85,14.5,85,14,85,13.4V12.9z"/>
<path d="M98.5,16c-1.3,1.1-3.7,1.9-5.2,0.5c-1.5-1.4-0.5-3.6,1.3-4.1c0.3-0.1,0.7-0.1,1.3-0.2c1.1-0.1,2-0.3,2.5-0.5
	c0-0.5,0-1.2-0.4-1.6c-1.3-1.1-3.4-0.5-3.8,1.1l-1.4-0.2c0.4-1.7,1.7-2.5,3.4-2.5c1.4-0.1,3.1,0.2,3.5,1.8c0,0.2,0.1,0.7,0.1,1.3
	v1.9c0,1.3,0,2.1,0.1,2.5c0.1,0.3,0.2,0.7,0.4,1h-1.5C98.6,16.8,98.5,16.4,98.5,16z M98.4,12.9c-0.5,0.2-1.3,0.4-2.3,0.5
	c-0.6,0.1-1.4,0.2-1.8,0.7c-0.3,0.5-0.2,1.2,0.2,1.6c1.1,0.9,3.1,0.2,3.6-1c0.2-0.3,0.2-0.8,0.2-1.4V12.9z"/>
<path d="M107.4,14l1.4,0.2c-0.3,2-2,3.3-4.1,3c-2-0.3-3-1.9-3.2-3.8c-0.1-2,0.5-4.1,2.6-4.7c2-0.6,4.1,0.3,4.5,2.5l-1.4,0.2
	c-0.3-1.3-1.4-2-2.7-1.5c-1.3,0.5-1.6,2-1.5,3.2c0,1.2,0.3,2.5,1.6,2.9C106.1,16.4,107.2,15.4,107.4,14z"/>
<path d="M115.7,14.4l1.5,0.2c-0.6,2.3-3,3.2-5.1,2.4c-2.2-0.8-2.8-3.3-2.3-5.3c0.4-2.2,2.4-3.5,4.6-3c2.2,0.5,3,2.6,2.9,4.6H111
	c0.1,1.2,0.6,2.5,1.9,2.8C114.2,16.3,115.2,15.6,115.7,14.4z M111,12.1h4.6c-0.1-0.7-0.2-1.2-0.5-1.6C113.7,8.8,111.2,10.1,111,12.1
	z"/>
<path d="M118.9,20.2V8.7h1.3v1.1c0.9-1.3,2.6-1.6,4-0.9c1.3,0.7,1.8,2.2,1.9,3.6c0.1,1.5-0.3,3.1-1.5,4c-1.3,1-3.2,1-4.3-0.3v4
	L118.9,20.2L118.9,20.2z M120.1,12.9c0,1.5,0.7,3.4,2.5,3.1c1.6-0.2,2-2,2-3.4c0-1.3-0.6-3-2.2-3C120.7,9.7,120.1,11.6,120.1,12.9z"
	/>
<path d="M130.8,15.8L131,17c-0.7,0.2-1.7,0.3-2.4-0.2c-0.7-0.5-0.6-1.4-0.6-2.2V9.8h-1V8.7h1V6.7l1.4-0.8v2.9h1.4v1.1h-1.4v4.9
	C129.4,15.7,129.8,15.9,130.8,15.8z"/>
<path d="M137.6,16c-1.3,1.1-3.7,1.9-5.2,0.5c-1.5-1.4-0.5-3.6,1.3-4.1c0.3-0.1,0.7-0.1,1.3-0.2c1.1-0.1,2-0.3,2.5-0.5
	c0-0.5,0-1.2-0.4-1.6c-1.3-1.1-3.4-0.5-3.8,1.1l-1.4-0.2c0.4-1.7,1.7-2.5,3.4-2.5c1.4-0.1,3.1,0.2,3.5,1.8c0,0.2,0.1,0.7,0.1,1.3
	v1.9c0,1.3,0,2.1,0.1,2.5c0.1,0.3,0.2,0.7,0.4,1h-1.5C137.8,16.8,137.7,16.4,137.6,16z M137.5,12.9c-0.5,0.2-1.3,0.4-2.3,0.5
	c-0.9,0.1-2.3,0.5-1.9,1.8c0.4,1.2,2.2,1.1,3.1,0.6c0.4-0.2,0.7-0.6,0.9-1c0.2-0.3,0.2-0.8,0.2-1.4L137.5,12.9L137.5,12.9z"/>
<path d="M146.5,14l1.4,0.2c-0.3,2-2,3.3-4.1,3c-2-0.3-3-1.9-3.2-3.8c-0.1-2,0.5-4.1,2.6-4.7c2-0.6,4.1,0.3,4.5,2.5l-1.4,0.2
	c-0.3-1.3-1.4-2-2.7-1.5c-1.3,0.5-1.6,2-1.5,3.2c0,1.2,0.3,2.5,1.6,2.9C145.2,16.4,146.3,15.4,146.5,14z"/>
<path d="M149.1,7.2V5.6h1.4v1.6H149.1z M149.1,17V8.7h1.4V17L149.1,17L149.1,17z"/>
<path d="M152.1,12.9c0-1.5,0.4-2.7,1.3-3.4c1.2-1,3.1-1.2,4.5-0.5c1.5,0.8,2,2.4,2,3.9c0,1.6-0.5,3.1-2,3.8
	c-1.5,0.8-3.5,0.5-4.7-0.7C152.5,15.4,152.1,14.3,152.1,12.9z M153.6,12.9c0,1.5,0.7,3.2,2.4,3.2c1.8,0,2.4-1.7,2.4-3.2
	c0-1.5-0.7-3.1-2.4-3.1C154.3,9.7,153.6,11.4,153.6,12.9z M155.3,7.7l1-2.2h1.8l-1.7,2.2H155.3z"/>
<path d="M161.6,17V8.7h1.3v1.2c1.3-1.9,4.9-1.9,5.4,0.6c0.1,0.3,0.1,0.7,0.1,1.4V17h-1.4v-5c0-1.4-0.6-2.5-2.2-2.2
	c-1.4,0.2-1.8,1.4-1.8,2.7V17H161.6z"/>
<path d="M180.3,17v-1c-0.8,1.3-2.5,1.5-3.9,0.9c-1.4-0.7-2-2.3-2-3.8c0-1.5,0.4-3.1,1.7-4c1.3-0.9,3.2-0.7,4.1,0.6V5.6h1.4V17H180.3
	z M175.9,12.9c0,1,0.2,2.1,1.1,2.8c0.9,0.7,2.1,0.5,2.7-0.4c1-1.1,0.9-3.7,0-4.8c-0.7-0.8-1.8-1.1-2.7-0.5
	C176,10.7,175.9,11.9,175.9,12.9z"/>
<path d="M189.5,14.4l1.5,0.2c-0.6,2.3-3,3.2-5.1,2.4c-2.2-0.8-2.8-3.3-2.3-5.3c0.4-2.2,2.4-3.5,4.6-3c2.2,0.5,3,2.6,2.9,4.6h-6.2
	c0.1,1.2,0.6,2.5,1.9,2.8C188,16.3,189.1,15.6,189.5,14.4z M184.9,12.1h4.6c-0.1-0.7-0.2-1.2-0.5-1.6C187.5,8.8,185,10.1,184.9,12.1
	z"/>
<path d="M192.7,17V5.6h1.4V17H192.7z"/>
<path d="M206.1,14l1.4,0.2c-0.3,2-2,3.3-4.1,3c-2-0.3-3-1.9-3.2-3.8c-0.1-2,0.5-4.1,2.6-4.7c2-0.6,4.1,0.3,4.5,2.5l-1.4,0.2
	c-0.3-1.3-1.4-2-2.7-1.5c-1.3,0.5-1.6,2-1.5,3.2c0,1.2,0.3,2.5,1.6,2.9C204.8,16.4,205.9,15.4,206.1,14z"/>
<path d="M208.7,17V5.6h1.4V17H208.7z"/>
<path d="M212.3,7.2V5.6h1.4v1.6H212.3z M212.3,17V8.7h1.4V17L212.3,17L212.3,17z"/>
<path d="M221.5,14.4l1.5,0.2c-0.6,2.3-3,3.2-5.1,2.4c-2.2-0.8-2.8-3.3-2.3-5.3c0.4-2.2,2.4-3.5,4.6-3c2.2,0.5,3,2.6,2.9,4.6h-6.2
	c0.1,1.2,0.6,2.5,1.9,2.8C220.1,16.3,221.1,15.6,221.5,14.4z M216.9,12.1h4.6c-0.1-0.7-0.2-1.2-0.5-1.6
	C219.5,8.8,217,10.1,216.9,12.1z"/>
<path d="M224.7,17V8.7h1.3v1.2c1.3-1.9,4.9-1.9,5.4,0.6c0.1,0.3,0.1,0.7,0.1,1.4V17h-1.4v-5c0-1.4-0.6-2.5-2.2-2.2
	c-1.4,0.2-1.8,1.4-1.8,2.7V17H224.7z"/>
<path d="M236.7,15.8l0.2,1.2c-0.7,0.2-1.7,0.3-2.4-0.2c-0.7-0.5-0.6-1.4-0.6-2.2V9.8h-1V8.7h1V6.7l1.4-0.8v2.9h1.4v1.1h-1.4v4.9
	C235.3,15.7,235.7,15.9,236.7,15.8z"/>
<path d="M243.7,14.4l1.5,0.2c-0.6,2.3-3,3.2-5.1,2.4c-2.2-0.8-2.8-3.3-2.3-5.3c0.4-2.2,2.4-3.5,4.6-3c2.2,0.5,3,2.6,2.9,4.6H239
	c0.1,1.2,0.6,2.5,1.9,2.8C242.3,16.3,243.3,15.6,243.7,14.4z M239.1,12.1h4.6c-0.1-0.7-0.2-1.2-0.5-1.6
	C241.8,8.8,239.3,10.1,239.1,12.1z"/>
<path d="M251.3,20.2l-0.2-1.3c0.7,0.2,1.6,0.2,2-0.5c0.1-0.1,0.2-0.5,0.4-1c0-0.1,0.1-0.2,0.1-0.3l-3.1-8.3h1.5l1.7,4.8
	c0.2,0.6,0.4,1.3,0.6,1.9c0.2-0.6,0.4-1.3,0.6-1.9l1.8-4.8h1.4l-3.2,8.4c-0.3,0.9-0.6,1.5-0.8,1.9C253.7,20.2,252.6,20.7,251.3,20.2
	z"/>
<path d="M23.2,33.6l1.5,0.2c-0.6,2.3-3,3.2-5.1,2.4c-2.2-0.8-2.8-3.3-2.3-5.3c0.4-2.2,2.4-3.5,4.6-3c2.2,0.5,3,2.6,2.9,4.6h-6.2
	c0.1,1.2,0.6,2.5,1.9,2.8C21.7,35.5,22.7,34.8,23.2,33.6z M18.6,31.3h4.6c-0.1-0.7-0.2-1.2-0.5-1.6C21.2,28,18.7,29.3,18.6,31.3z"/>
<path d="M26.4,36.2v-8.3h1.3v1.2c1.3-1.9,4.9-1.9,5.4,0.6c0.1,0.3,0.1,0.7,0.1,1.4v5.1h-1.4v-5c0-1.4-0.6-2.5-2.2-2.2
	c-1.4,0.2-1.8,1.4-1.8,2.7v4.5C27.8,36.2,26.4,36.2,26.4,36.2z"/>
<path d="M39.7,36.2v-8.3H41v1.2c1-1.6,4.1-2,4.9,0.1c0.7-1.1,2-1.7,3.3-1.4c1.3,0.3,1.8,1.4,1.8,2.7v5.7h-1.4V31
	c0-1.2-0.5-2.3-1.9-2c-1.2,0.2-1.6,1.3-1.6,2.4v4.8h-1.4v-5.4c0-1.2-0.7-2.2-2-1.8c-1.3,0.4-1.5,1.7-1.5,2.9v4.3L39.7,36.2
	L39.7,36.2z"/>
<path d="M58.7,33.6l1.5,0.2c-0.6,2.3-3,3.2-5.1,2.4c-2.2-0.8-2.8-3.3-2.3-5.3c0.4-2.2,2.4-3.5,4.6-3c2.2,0.5,3,2.6,2.9,4.6h-6.2
	c0.1,1.2,0.6,2.5,1.9,2.8C57.3,35.5,58.3,34.8,58.7,33.6z M54.1,31.3h4.6c-0.1-0.7-0.2-1.2-0.5-1.6C56.8,28,54.3,29.3,54.1,31.3z"/>
<path d="M62,36.2v-8.3h1.3v1.3c0.7-1.3,1.8-1.9,3.2-1L66,29.5c-0.9-0.5-2-0.3-2.4,0.7c-0.2,0.5-0.2,1-0.2,1.6v4.3L62,36.2L62,36.2z"
	/>
<path d="M72.7,33.2l1.4,0.2c-0.3,2-2,3.3-4.1,3c-2-0.3-3-1.9-3.2-3.8c-0.1-2,0.5-4.1,2.6-4.7c2-0.6,4.1,0.3,4.5,2.5l-1.4,0.2
	c-0.3-1.3-1.4-2-2.7-1.5c-1.3,0.5-1.6,2-1.5,3.2c0,1.2,0.3,2.5,1.6,2.9C71.4,35.6,72.5,34.6,72.7,33.2z"/>
<path d="M80.7,35.2c-1.3,1.1-3.7,1.9-5.2,0.5c-1.5-1.4-0.5-3.6,1.3-4.1c0.3-0.1,0.7-0.1,1.3-0.2c1.1-0.1,2-0.3,2.5-0.5
	c0-0.5,0-1.2-0.4-1.6c-1.3-1.1-3.4-0.5-3.8,1.1l-1.4-0.2c0.4-1.7,1.7-2.5,3.4-2.5c1.4-0.1,3.1,0.2,3.5,1.8c0,0.2,0.1,0.7,0.1,1.3
	v1.9c0,1.1-0.1,2.4,0.4,3.5H81C80.8,36,80.8,35.6,80.7,35.2z M80.6,32.1c-0.5,0.2-1.3,0.4-2.3,0.5c-0.6,0.1-1.4,0.2-1.8,0.7
	c-0.3,0.5-0.2,1.2,0.2,1.6c1.1,0.9,3.1,0.2,3.6-1c0.2-0.3,0.2-0.8,0.2-1.4V32.1z"/>
<path d="M89.6,36.2v-1c-0.8,1.3-2.5,1.5-3.9,0.9c-1.4-0.7-2-2.3-2-3.8c0-1.5,0.4-3.1,1.7-4c1.3-0.9,3.2-0.7,4.1,0.6v-4.1h1.4v11.5
	L89.6,36.2L89.6,36.2z M85.1,32.1c0,1.4,0.6,3.2,2.3,3.2c1.8,0,2.3-1.9,2.2-3.4c-0.1-1.4-0.6-3-2.3-3C85.6,28.9,85.1,30.7,85.1,32.1
	z"/>
<path d="M92.6,32.1c0-1.5,0.4-2.7,1.3-3.4c1.4-1.2,3.8-1.3,5.2,0c1.4,1.2,1.6,3.5,1,5.2c-0.6,1.9-2.8,2.8-4.7,2.4
	C93.4,35.8,92.6,34,92.6,32.1z M94,32.1c0,1.5,0.7,3.2,2.4,3.2c1.8,0,2.4-1.7,2.4-3.2c0-1.5-0.7-3.1-2.4-3.1
	C94.7,28.9,94,30.6,94,32.1z"/>
<path d="M101.4,33.8l1.4-0.2c0.2,1.3,1.3,1.9,2.6,1.7c0.9-0.1,2.2-1.3,1-2c-0.2-0.1-0.7-0.3-1.4-0.5c-1-0.3-2.4-0.5-3.1-1.5
	c-0.6-1-0.3-2.3,0.6-2.9c1.8-1.3,5-0.6,5.4,1.8l-1.4,0.2c-0.2-1.1-1.1-1.4-2.1-1.4c-0.7,0-2,0.6-1.3,1.6c0.1,0.2,0.3,0.3,0.5,0.4
	c0.1,0.1,0.6,0.2,1.2,0.4c1,0.3,1.7,0.5,2.1,0.7c1,0.4,1.4,1.5,1.2,2.5c-0.3,1.1-1.2,1.7-2.2,2C104,36.8,101.8,36,101.4,33.8z"/>
<path d="M114.4,36.2v-8.3h1.3v1.2c1.3-1.9,4.9-1.9,5.4,0.6c0.1,0.3,0.1,0.7,0.1,1.4v5.1h-1.4v-5c0-1.4-0.6-2.5-2.2-2.2
	c-1.4,0.2-1.8,1.4-1.8,2.7v4.5C115.8,36.2,114.4,36.2,114.4,36.2z"/>
<path d="M128.7,35.2c-1.3,1.1-3.7,1.9-5.2,0.5c-1.5-1.4-0.5-3.6,1.3-4.1c0.3-0.1,0.7-0.1,1.3-0.2c1.1-0.1,2-0.3,2.5-0.5
	c0-0.5,0-1.2-0.4-1.6c-1.3-1.1-3.4-0.5-3.8,1.1l-1.4-0.2c0.4-1.7,1.7-2.5,3.4-2.5c1.4-0.1,3.1,0.2,3.5,1.8c0,0.2,0.1,0.7,0.1,1.3
	v1.9c0,1.1-0.1,2.4,0.4,3.5H129C128.9,36,128.8,35.6,128.7,35.2z M128.6,32.1c-0.5,0.2-1.3,0.4-2.3,0.5c-0.6,0.1-1.4,0.2-1.8,0.7
	c-0.3,0.5-0.2,1.2,0.2,1.6c1.1,0.9,3.1,0.2,3.6-1c0.2-0.3,0.2-0.8,0.2-1.4L128.6,32.1L128.6,32.1z"/>
<path d="M137.6,33.2l1.4,0.2c-0.3,2-2,3.3-4.1,3c-2-0.3-3-1.9-3.2-3.8c-0.1-2,0.5-4.1,2.6-4.7c2-0.6,4.1,0.3,4.5,2.5l-1.4,0.2
	c-0.3-1.3-1.4-2-2.7-1.5c-1.3,0.5-1.6,2-1.5,3.2c0,1.2,0.3,2.5,1.6,2.9C136.3,35.6,137.5,34.6,137.6,33.2z"/>
<path d="M140.2,26.4v-1.6h1.4v1.6H140.2z M140.2,36.2v-8.3h1.4v8.3H140.2z"/>
<path d="M143.3,32.1c0-1.5,0.4-2.7,1.3-3.4c1.4-1.2,3.8-1.3,5.2,0c1.4,1.2,1.6,3.5,1,5.2c-0.6,1.9-2.8,2.8-4.7,2.4
	C144.1,35.8,143.3,34,143.3,32.1z M144.7,32.1c0,1.5,0.7,3.2,2.4,3.2c1.8,0,2.4-1.7,2.4-3.2c0-1.5-0.7-3.1-2.4-3.1
	C145.4,28.9,144.7,30.6,144.7,32.1z"/>
<path d="M152.7,36.2v-8.3h1.3v1.2c1.3-1.9,4.9-1.9,5.4,0.6c0.1,0.3,0.1,0.7,0.1,1.4v5.1H158v-5c0-1.4-0.6-2.5-2.2-2.2
	c-1.4,0.2-1.8,1.4-1.8,2.7v4.5C154.1,36.2,152.7,36.2,152.7,36.2z"/>
<path d="M167,35.2c-1.2,1.1-3.2,1.7-4.7,0.8c-1.4-0.8-1.5-3-0.1-3.9c0.3-0.2,0.6-0.4,1-0.5c0.3-0.1,0.7-0.1,1.3-0.2
	c1.1-0.1,2-0.3,2.5-0.5c0-0.5,0-1.2-0.4-1.6c-1.3-1.1-3.4-0.5-3.8,1.1l-1.4-0.2c0.4-1.7,1.7-2.5,3.4-2.5c1.4-0.1,3.1,0.2,3.5,1.8
	c0,0.2,0.1,0.7,0.1,1.3v1.9c0,1.1-0.1,2.4,0.4,3.5h-1.5C167.1,36,167,35.6,167,35.2z M166.9,32.1c-0.5,0.2-1.3,0.4-2.3,0.5
	c-0.6,0.1-1.4,0.2-1.8,0.7c-0.3,0.5-0.2,1.2,0.2,1.6c1.1,0.9,3.1,0.2,3.6-1c0.2-0.3,0.2-0.8,0.2-1.4L166.9,32.1L166.9,32.1z"/>
<path d="M170.5,36.2V24.8h1.4v11.5H170.5z"/>
<path d="M179.7,33.6l1.5,0.2c-0.2,0.8-0.7,1.5-1.3,2c-1.2,0.9-3.2,0.9-4.5,0.2c-1.4-0.8-1.9-2.5-1.8-4.1c0.1-1.5,0.7-3,2.2-3.7
	c1.4-0.7,3.3-0.4,4.4,0.8c0.9,1,1.1,2.3,1,3.6H175c0.1,1.2,0.6,2.5,1.9,2.8C178.3,35.5,179.3,34.8,179.7,33.6z M175.1,31.3h4.6
	c-0.1-0.7-0.2-1.2-0.5-1.6C177.8,28,175.2,29.3,175.1,31.3z"/>
<path d="M182.4,33.8l1.4-0.2c0.2,1.3,1.3,1.9,2.6,1.7c0.9-0.1,2.2-1.3,1-2c-0.2-0.1-0.7-0.3-1.4-0.5c-1-0.3-2.4-0.5-3.1-1.5
	c-0.6-1-0.3-2.3,0.6-2.9c1.8-1.3,5-0.6,5.4,1.8l-1.4,0.2c-0.2-1.1-1.1-1.4-2.1-1.4c-0.7,0-2,0.6-1.3,1.6c0.1,0.2,0.3,0.3,0.5,0.4
	c0.1,0.1,0.6,0.2,1.2,0.4c1,0.3,1.7,0.5,2.1,0.7c1,0.4,1.4,1.5,1.2,2.5c-0.3,1.1-1.2,1.7-2.2,2C184.9,36.8,182.8,36,182.4,33.8z"/>
<path d="M200.8,33.2l1.4,0.2c-0.3,2-2,3.3-4.1,3c-2-0.3-3-1.9-3.2-3.8c-0.1-2,0.5-4.1,2.6-4.7c2-0.6,4.1,0.3,4.5,2.5l-1.4,0.2
	c-0.3-1.3-1.4-2-2.7-1.5c-1.3,0.5-1.6,2-1.5,3.2c0,1.2,0.3,2.5,1.6,2.9C199.5,35.6,200.6,34.6,200.8,33.2z"/>
<path d="M202.9,32.1c0-1.5,0.4-2.7,1.3-3.4c1.4-1.2,3.8-1.3,5.2,0c1.4,1.2,1.6,3.5,1,5.2c-0.6,1.9-2.8,2.8-4.7,2.4
	C203.7,35.8,202.9,34,202.9,32.1z M204.3,32.1c0,1.5,0.7,3.2,2.4,3.2c1.8,0,2.4-1.7,2.4-3.2c0-1.5-0.7-3.1-2.4-3.1
	C205,28.9,204.3,30.6,204.3,32.1z"/>
<path d="M212.3,36.2v-8.3h1.3v1.2c1-1.6,4.1-2,4.9,0.1c0.7-1.1,2-1.7,3.3-1.4c1.3,0.3,1.8,1.4,1.8,2.7v5.7h-1.4V31
	c0-1.2-0.5-2.3-1.9-2c-1.2,0.2-1.6,1.3-1.6,2.4v4.8h-1.4v-5.4c0-1.2-0.7-2.2-2-1.8c-1.3,0.4-1.5,1.7-1.5,2.9v4.3L212.3,36.2
	L212.3,36.2z"/>
<path d="M225.1,32.1c0-1.5,0.4-2.7,1.3-3.4c1.4-1.2,3.8-1.3,5.2,0c1.4,1.2,1.6,3.5,1,5.2c-0.6,1.9-2.8,2.8-4.7,2.4
	C225.9,35.8,225.1,34,225.1,32.1z M226.5,32.1c0,1.5,0.7,3.2,2.4,3.2c1.8,0,2.4-1.7,2.4-3.2c0-1.5-0.7-3.1-2.4-3.1
	C227.2,28.9,226.5,30.6,226.5,32.1z"/>
<path d="M239,26.4v-1.6h1.4v1.6H239z M239,36.2v-8.3h1.4v8.3H239z"/>
<path d="M242.5,36.2v-8.3h1.3v1.2c1.3-1.9,4.9-1.9,5.4,0.6c0.1,0.3,0.1,0.7,0.1,1.4v5.1h-1.4v-5c0-1.4-0.6-2.5-2.2-2.2
	c-1.4,0.2-1.8,1.4-1.8,2.7v4.5C243.9,36.2,242.5,36.2,242.5,36.2z"/>
<path d="M254.5,35l0.2,1.2c-0.7,0.2-1.7,0.3-2.4-0.2c-0.7-0.5-0.6-1.4-0.6-2.2V29h-1v-1.1h1v-2.1l1.4-0.8v2.9h1.4V29h-1.4v4.9
	c0,0.6,0.1,1.1,0.8,1.1C254,35,254.2,35,254.5,35z"/>
<path d="M261.5,33.6l1.5,0.2c-0.6,2.3-3,3.2-5.1,2.4c-2.2-0.8-2.8-3.3-2.3-5.3c0.4-2.2,2.4-3.5,4.6-3c2.2,0.5,3,2.6,2.9,4.6h-6.2
	c0.1,1.2,0.6,2.5,1.9,2.8C260.1,35.5,261.1,34.8,261.5,33.6z M256.9,31.3h4.6c-0.1-0.7-0.2-1.2-0.5-1.6
	C259.6,28,257,29.3,256.9,31.3z"/>
<path d="M264.7,36.2v-8.3h1.3v1.3c0.7-1.3,1.8-1.9,3.2-1l-0.5,1.3c-0.9-0.5-2-0.3-2.4,0.7c-0.2,0.5-0.2,1-0.2,1.6v4.3L264.7,36.2
	L264.7,36.2z"/>
<path d="M270.1,36.2v-8.3h1.3v1.2c1.3-1.9,4.9-1.9,5.4,0.6c0.1,0.3,0.1,0.7,0.1,1.4v5.1h-1.4v-5c0-1.4-0.6-2.5-2.2-2.2
	c-1.4,0.2-1.8,1.4-1.8,2.7v4.5C271.5,36.2,270.1,36.2,270.1,36.2z"/>
<path d="M284.4,35.2c-1.3,1.1-3.7,1.9-5.2,0.5c-1.5-1.4-0.5-3.6,1.3-4.1c0.3-0.1,0.7-0.1,1.3-0.2c1.1-0.1,2-0.3,2.5-0.5
	c0-0.5,0-1.2-0.4-1.6c-1.3-1.1-3.4-0.5-3.8,1.1l-1.4-0.2c0.4-1.7,1.7-2.5,3.4-2.5c1.4-0.1,3.1,0.2,3.5,1.8c0,0.2,0.1,0.7,0.1,1.3
	v1.9c0,1.1-0.1,2.4,0.4,3.5h-1.5C284.5,36,284.4,35.6,284.4,35.2z M284.3,32.1c-0.5,0.2-1.3,0.4-2.3,0.5c-0.6,0.1-1.4,0.2-1.8,0.7
	c-0.3,0.5-0.2,1.2,0.2,1.6c1.1,0.9,3.1,0.2,3.6-1c0.2-0.3,0.2-0.8,0.2-1.4V32.1z"/>
<path d="M293.3,33.2l1.4,0.2c-0.3,2-2,3.3-4.1,3c-2-0.3-3-1.9-3.2-3.8c-0.1-2,0.5-4.1,2.6-4.7c2-0.6,4.1,0.3,4.5,2.5l-1.4,0.2
	c-0.3-1.3-1.4-2-2.7-1.5c-1.3,0.5-1.6,2-1.5,3.2c0,1.2,0.3,2.5,1.6,2.9C292,35.6,293.1,34.6,293.3,33.2z"/>
<path d="M295.9,26.4v-1.6h1.4v1.6H295.9z M295.9,36.2v-8.3h1.4v8.3H295.9z"/>
<path d="M298.9,32.1c0-1.5,0.4-2.7,1.3-3.4c1.4-1.2,3.8-1.3,5.2,0c1.4,1.2,1.6,3.5,1,5.2c-0.6,1.9-2.8,2.8-4.7,2.4
	C299.8,35.8,298.9,34,298.9,32.1z M300.4,32.1c0,1.5,0.7,3.2,2.4,3.2c1.8,0,2.4-1.7,2.4-3.2c0-1.5-0.7-3.1-2.4-3.1
	C301,28.9,300.4,30.6,300.4,32.1z"/>
<path d="M308.3,36.2v-8.3h1.3v1.2c1.3-1.9,4.9-1.9,5.4,0.6c0.1,0.3,0.1,0.7,0.1,1.4v5.1h-1.4v-5c0-1.4-0.6-2.5-2.2-2.2
	c-1.4,0.2-1.8,1.4-1.8,2.7v4.5C309.7,36.2,308.3,36.2,308.3,36.2z"/>
<path d="M322.6,35.2c-1.3,1.1-3.7,1.9-5.2,0.5c-1.5-1.4-0.5-3.6,1.3-4.1c0.3-0.1,0.7-0.1,1.3-0.2c1.1-0.1,2-0.3,2.5-0.5
	c0-0.5,0-1.2-0.4-1.6c-1.3-1.1-3.4-0.5-3.8,1.1l-1.4-0.2c0.4-1.7,1.7-2.5,3.4-2.5c1.4-0.1,3.1,0.2,3.5,1.8c0,0.2,0.1,0.7,0.1,1.3
	v1.9c0,1.1-0.1,2.4,0.4,3.5h-1.5C322.8,36,322.7,35.6,322.6,35.2z M322.5,32.1c-0.5,0.2-1.3,0.4-2.3,0.5c-0.6,0.1-1.4,0.2-1.8,0.7
	c-0.3,0.5-0.2,1.2,0.2,1.6c1.1,0.9,3.1,0.2,3.6-1c0.2-0.3,0.2-0.8,0.2-1.4V32.1z"/>
<path d="M326.1,36.2V24.8h1.4v11.5H326.1z"/>
<path d="M335.4,33.6l1.5,0.2c-0.6,2.3-3,3.2-5.1,2.4c-2.2-0.8-2.8-3.3-2.3-5.3c0.4-2.2,2.4-3.5,4.6-3c2.2,0.5,3,2.6,2.9,4.6h-6.2
	c0.1,1.2,0.6,2.5,1.9,2.8C333.9,35.5,334.9,34.8,335.4,33.6z M330.7,31.3h4.6c-0.1-0.7-0.2-1.2-0.5-1.6
	C333.4,28,330.9,29.3,330.7,31.3z"/>
<path d="M338,33.8l1.4-0.2c0.2,1.3,1.3,1.9,2.6,1.7c0.9-0.1,2.2-1.3,1-2c-0.2-0.1-0.7-0.3-1.4-0.5c-1-0.3-2.4-0.5-3.1-1.5
	c-0.6-1-0.3-2.3,0.6-2.9c1.8-1.3,5-0.6,5.4,1.8l-1.4,0.2c-0.2-1.1-1.1-1.4-2.1-1.4c-0.7,0-2,0.6-1.3,1.6c0.1,0.2,0.3,0.3,0.5,0.4
	c0.1,0.1,0.6,0.2,1.2,0.4c1,0.3,1.7,0.5,2.1,0.7c1,0.4,1.4,1.5,1.2,2.5c-0.3,1.1-1.2,1.7-2.2,2C340.6,36.8,338.4,36,338,33.8z"/>
<path d="M347,36.2v-1.6h1.6v1.6H347z"/>
<g>
	<path d="M265.3,16.9V8.8h1.2V10c0.3-0.6,0.6-1,0.9-1.1c0.7-0.5,1.6-0.3,2.3,0.2l-0.5,1.3c-0.6-0.3-1.3-0.4-1.8,0
		c-0.2,0.2-0.4,0.4-0.5,0.8c-0.2,0.5-0.2,1-0.2,1.6v4.2H265.3z"/>
	<path d="M276.1,14.3l1.4,0.2c-0.2,0.8-0.6,1.5-1.2,1.9c-1.4,1.1-3.9,0.9-5.1-0.4c-1.5-1.5-1.4-4.7,0-6.2c1.4-1.5,4-1.5,5.4,0
		c0.9,0.9,1.1,2.2,1,3.5h-6c0.1,0.9,0.3,1.6,0.8,2c0.8,0.8,2.1,1,3,0.3C275.6,15.3,275.9,14.8,276.1,14.3z M271.5,12h4.5
		c-0.1-0.7-0.2-1.2-0.5-1.5c-0.8-1-2.4-1.1-3.3-0.2C271.8,10.8,271.6,11.3,271.5,12z"/>
	<path d="M284.5,13.9l1.4,0.2c-0.1,0.9-0.5,1.7-1.1,2.2c-1.4,1.2-3.8,1-5-0.4c-1.2-1.4-1.2-3.7-0.5-5.3c0.3-0.7,0.7-1.1,1.3-1.5
		c1.2-0.7,3-0.7,4.1,0.2c0.6,0.4,0.9,1.1,1.1,1.9l-1.3,0.2c-0.4-1.7-2.4-2.2-3.5-0.9c-1,1.1-1,3.6,0,4.7c0.7,0.9,2.1,1,3,0.2
		C284.2,15.1,284.4,14.6,284.5,13.9z"/>
	<path d="M292.6,14.3l1.4,0.2c-0.2,0.8-0.6,1.5-1.2,1.9c-1.4,1.1-3.9,0.9-5.1-0.4c-1.5-1.5-1.4-4.7,0-6.2c1.4-1.5,4-1.5,5.4,0
		c0.9,0.9,1.1,2.2,1,3.5h-6c0.1,0.9,0.3,1.6,0.8,2c0.8,0.8,2.1,1,3,0.3C292.1,15.3,292.4,14.8,292.6,14.3z M288.1,12h4.5
		c-0.1-0.7-0.2-1.2-0.5-1.5c-0.8-1-2.4-1.1-3.3-0.2C288.3,10.8,288.1,11.3,288.1,12z"/>
	<path d="M295.7,20V8.8h1.3v1.1c0.3-0.4,0.6-0.7,1-0.9c1-0.5,2.3-0.4,3.2,0.2c0.5,0.4,0.9,0.9,1.2,1.5c0.6,1.4,0.6,3,0,4.4
		c-0.3,0.7-0.7,1.2-1.3,1.5c-0.9,0.5-2.1,0.7-3,0.2c-0.4-0.2-0.7-0.4-0.9-0.7V20H295.7z M297,12.9c0,1,0.2,1.8,0.6,2.3
		c1.1,1.2,2.9,0.8,3.5-0.6c0.5-1.2,0.5-3.1-0.3-4.1c-0.9-1-2.2-1-3.1,0C297.2,11,297,11.8,297,12.9z"/>
	<path d="M307.4,15.6l0.2,1.2c-0.7,0.1-1.6,0.2-2.2-0.1c-0.8-0.5-0.7-1.4-0.7-2.2V9.8h-1V8.8h1v-2l1.4-0.8v2.8h1.4v1.1H306v4.7
		c0,0.4,0,0.6,0.1,0.8c0,0.1,0.1,0.2,0.2,0.3C306.6,15.8,307.1,15.7,307.4,15.6z"/>
	<path d="M308.7,7.3V5.7h1.4v1.6H308.7z M308.7,16.9V8.8h1.4v8.1H308.7z"/>
	<path d="M314.5,16.9l-3.1-8.1h1.4l1.7,4.9c0.2,0.5,0.4,1.1,0.5,1.6c0.1-0.4,0.3-0.9,0.5-1.5l1.8-4.9h1.4l-3.1,8.1H314.5z"/>
	<path d="M320,7.3V5.7h1.4v1.6H320z M320,16.9V8.8h1.4v8.1H320z"/>
	<path d="M328.8,16.9v-1c-0.9,1.4-2.7,1.5-4,0.7c-0.5-0.4-1-0.9-1.3-1.5c-0.6-1.3-0.6-3.1,0-4.4c0.3-0.7,0.7-1.2,1.2-1.5
		c1.3-0.8,3.1-0.7,4,0.6v-4h1.4v11.2H328.8z M324.4,12.8c0,1,0.2,1.8,0.7,2.3c0.8,1,2.2,1,3.1,0c0.9-1,0.8-3,0.3-4.2
		c-0.6-1.4-2.4-1.8-3.4-0.5C324.6,11,324.4,11.7,324.4,12.8z"/>
	<path d="M337.5,15.9c-0.5,0.4-1,0.7-1.5,0.9c-1.1,0.4-2.7,0.4-3.6-0.4c-0.8-0.7-0.9-1.9-0.4-2.8c0.2-0.3,0.4-0.6,0.7-0.8
		c0.3-0.2,0.6-0.3,1-0.5c0.3-0.1,0.7-0.1,1.2-0.2c1.1-0.1,1.9-0.3,2.4-0.5c0-0.5,0-1.2-0.4-1.5c-0.7-0.6-2.2-0.7-3-0.1
		c-0.3,0.2-0.5,0.6-0.7,1.2l-1.3-0.2c0.1-0.6,0.3-1,0.6-1.4c1-1.2,3.3-1.4,4.7-0.9c0.7,0.3,1.2,0.8,1.4,1.5c0,0.2,0.1,0.7,0.1,1.3
		v1.8c0,1.3,0,2.1,0.1,2.4c0.1,0.3,0.2,0.7,0.3,1h-1.4C337.6,16.6,337.5,16.2,337.5,15.9z M337.4,12.8c-0.5,0.2-1.2,0.4-2.2,0.5
		c-0.6,0.1-1.4,0.2-1.7,0.7c-0.3,0.5-0.2,1.2,0.2,1.6c1,0.9,3,0.2,3.5-0.9c0.1-0.3,0.2-0.8,0.2-1.4V12.8z"/>
	<path d="M346.1,16.9v-1c-0.9,1.4-2.7,1.5-4,0.7c-0.5-0.4-1-0.9-1.3-1.5c-0.6-1.3-0.6-3.1,0-4.4c0.3-0.7,0.7-1.2,1.2-1.5
		c1.3-0.8,3.1-0.7,4,0.6v-4h1.4v11.2H346.1z M341.8,12.8c0,1,0.2,1.8,0.7,2.3c0.8,1,2.2,1,3.1,0c0.9-1,0.8-3,0.3-4.2
		c-0.6-1.4-2.4-1.8-3.4-0.5C342,11,341.8,11.7,341.8,12.8z"/>
</g>
</svg>
