<?xml version="1.0" encoding="utf-8"?>
<!-- Generator: Adobe Illustrator 21.0.0, SVG Export Plug-In . SVG Version: 6.00 Build 0)  -->
<svg version="1.1" id="Capa_1" xmlns="http://www.w3.org/2000/svg" xmlns:xlink="http://www.w3.org/1999/xlink" x="0px" y="0px"
	 viewBox="0 0 34.5176 34.5178" style="enable-background:new 0 0 34.5176 34.5178;" xml:space="preserve">
<style type="text/css">
	.st0{fill:#FFFFFF;}
</style>
<g id="XMLID_14_">
	<path id="XMLID_5481_" class="st0" d="M22.9732,11.5442c0.9629,0.9629,0.9629,2.5249,0,3.4878l-2.1797,2.1797l2.1807,2.1797
		c0.9629,0.9633,0.9619,2.5244-0.001,3.4878c-0.9629,0.9628-2.5244,0.9633-3.4873,0l-2.1797-2.1797l-2.1797,2.1797
		c-0.9629,0.9628-2.5254,0.9628-3.4883,0c-0.9629-0.9634-0.9629-2.5249,0-3.4878l2.1797-2.1797l-2.1797-2.1797
		c-0.9629-0.9629-0.9629-2.5249,0-3.4878s2.5254-0.9629,3.4883,0l2.1797,2.1797l2.1797-2.1792
		C20.4488,10.5814,22.0103,10.5814,22.9732,11.5442L22.9732,11.5442z M22.9732,11.5442"/>
	<path id="XMLID_4686_" class="st0" d="M5.0494,29.4685c-6.7325-6.7324-6.7325-17.687,0-24.4194
		c6.7324-6.732,17.6865-6.7324,24.4189,0s6.7324,17.687,0,24.4194S11.7818,36.201,5.0494,29.4685L5.0494,29.4685z M26.7984,7.719
		c-5.2598-5.2598-13.8193-5.2598-19.0791,0c-5.2608,5.2607-5.2608,13.8193,0,19.0796c5.2598,5.2602,13.8193,5.2602,19.0791,0
		C32.0582,21.5383,32.0582,12.9797,26.7984,7.719L26.7984,7.719z M27.7496,6.7678"/>
</g>
</svg>
