<?xml version="1.0" encoding="utf-8"?>
<!-- Generator: Adobe Illustrator 21.0.0, SVG Export Plug-In . SVG Version: 6.00 Build 0)  -->
<svg version="1.1" id="Capa_1" xmlns="http://www.w3.org/2000/svg" xmlns:xlink="http://www.w3.org/1999/xlink" x="0px" y="0px"
	 viewBox="0 0 337 359" style="enable-background:new 0 0 337 359;" xml:space="preserve">
<g>
	<path style="fill:#FDFEFF;" d="M152.6137,235.9878h41.3229v-1.0832h-41.2609c-0.472-0.0598-5.651-0.8394-5.651-6.1601
		l-0.0004-0.0217c-0.0067-0.1871-0.1126-4.6013,4.2572-5.5969h15.1934l0.0217-0.0018c0.0551-0.0044,5.4918-0.5157,5.5072-6.6064
		c0.0314-0.3548,0.2331-3.3719-1.7372-5.5572c-1.3076-1.4504-3.2513-2.1858-5.7768-2.1858h-44.6633
		c-1.2174,0-2.383-0.3108-3.3708-0.8989c-1.8508-1.102-2.7714-2.8542-2.7363-5.208v-78.1905h-1.0832v78.1824
		c-0.0511,3.4415,1.7475,5.243,3.2655,6.1468c1.1553,0.6878,2.5124,1.0514,3.9248,1.0514h44.6633
		c2.2059,0,3.8788,0.615,4.9724,1.8278c1.7326,1.9218,1.4644,4.7222,1.4615,4.7503l-0.0029,0.0559
		c0,2.1629-0.7597,3.7525-2.2578,4.7243c-1.0465,0.6789-2.0873,0.8109-2.2357,0.8266H151.163l-0.0572,0.0126
		c-5.1722,1.1337-5.1705,6.3474-5.1642,6.6932c0.0024,6.4324,6.5761,7.2287,6.6426,7.236L152.6137,235.9878z"/>
	<path style="fill:#B5C8CA;" d="M143.9736,156.4419h19.1521h0.4099h19.1522c0,0,4.925,19.1516,6.8401,21.0669h-25.9923h-0.4099
		h-25.9923C139.049,175.5935,143.9736,156.4419,143.9736,156.4419z"/>
	<path style="fill:#F9F9F9;" d="M130.3622,178.2567c0,1.091,0.429,1.9759,0.9578,1.9759h64.0218
		c0.529,0,0.9576-0.8848,0.9576-1.9759l0,0c0-1.0896-0.4285-1.9749-0.9576-1.9749h-64.0218
		C130.7912,176.2817,130.3622,177.1671,130.3622,178.2567L130.3622,178.2567z"/>
	<path style="fill:#F9F9F9;" d="M256.957,144.9566v11.2303c0,2.9977-3.794,5.5651-8.3872,5.5651H78.1178
		c-4.5932,0-8.6336-2.5674-8.6336-5.5651v-11.2303H256.957z"/>
	<path style="fill:#33414C;" d="M69.4842,51.2872c0-5.4169,4.0404-9.6752,8.6336-9.6752h170.452
		c4.5932,0,8.3872,4.2583,8.3872,9.6752v93.6694H69.4842V51.2872z"/>
	<path style="fill:#F55F13;" d="M72.8985,54.7339c0-4.9711,3.7375-8.7938,8.1719-8.7938h164.5593
		c4.4344,0,8.133,3.8227,8.133,8.7938v85.8478H72.8985V54.7339z"/>
	<circle style="fill:#3D4D5D;" cx="162.9769" cy="154.5552" r="4.4174"/>
	<path style="opacity:0.06;fill:#020202;" d="M69.4842,123.8158l137.3923-82.1193H78.3584c-4.9011,0-8.8742,3.9731-8.8742,8.8741
		V123.8158z"/>
	<path style="fill:#FAFBFC;" d="M119.0879,118.5292h8.3995c23.3217,0,42.2278-18.906,42.2278-42.2278V42.2277
		C169.7152,18.906,150.8092,0,127.4874,0l-8.3996,0C95.7661,0,76.8601,18.906,76.8601,42.2277v34.0737
		C76.8601,99.6232,95.7661,118.5292,119.0879,118.5292z"/>
	<g>
		
			<rect x="123.7283" y="12.0588" transform="matrix(-1 -4.497437e-11 4.497437e-11 -1 288.1848 25.4789)" style="opacity:0.61;fill:#EB5A49;" width="40.7282" height="1.3613"/>
		
			<rect x="83.4976" y="12.0588" transform="matrix(-1 -4.485846e-11 4.485846e-11 -1 205.5173 25.4789)" style="opacity:0.61;fill:#EB5A49;" width="38.5221" height="1.3613"/>
		
			<rect x="149.6157" y="14.9587" transform="matrix(-1 -4.511292e-11 4.511292e-11 -1 314.2711 39.1228)" style="opacity:0.61;fill:#5884A5;" width="15.0398" height="9.2054"/>
		
			<rect x="132.9121" y="14.9587" transform="matrix(-1 -4.523372e-11 4.523372e-11 -1 280.8639 39.1228)" style="opacity:0.61;fill:#EB5A49;" width="15.0398" height="9.2054"/>
		
			<rect x="116.2085" y="14.9587" transform="matrix(-1 -4.450807e-11 4.450807e-11 -1 247.4567 39.1228)" style="opacity:0.61;fill:#415F79;" width="15.0398" height="9.2054"/>
		
			<rect x="149.2333" y="74.1207" transform="matrix(-1 -4.523372e-11 4.523372e-11 -1 313.5062 157.4468)" style="opacity:0.61;fill:#EB5A49;" width="15.0397" height="9.2053"/>
		
			<rect x="99.812" y="14.9587" transform="matrix(-1 -4.523372e-11 4.523372e-11 -1 214.6637 39.1228)" style="opacity:0.61;fill:#5884A5;" width="15.0398" height="9.2054"/>
		
			<rect x="83.1084" y="14.9587" transform="matrix(-1 -4.462887e-11 4.462887e-11 -1 181.2565 39.1228)" style="opacity:0.61;fill:#EB5A49;" width="15.0398" height="9.2054"/>
		<circle style="opacity:0.61;fill:#EB5A49;" cx="164.0027" cy="5.6409" r="1.6855"/>
		<circle style="opacity:0.61;fill:#5884A5;" cx="159.4565" cy="5.6409" r="1.6855"/>
		<circle style="opacity:0.61;fill:#415F79;" cx="154.9102" cy="5.6409" r="1.6855"/>
		
			<rect x="144.193" y="27.5026" transform="matrix(-1 -4.507340e-11 4.507340e-11 -1 308.8063 55.848)" style="opacity:0.61;fill:#5884A5;" width="20.4204" height="0.8427"/>
		
			<rect x="115.7125" y="29.5123" transform="matrix(-1 -4.478607e-11 4.478607e-11 -1 280.3259 59.7808)" style="opacity:0.61;fill:#5884A5;" width="48.9008" height="0.7563"/>
		
			<rect x="115.7125" y="31.241" transform="matrix(-1 -4.500901e-11 4.500901e-11 -1 280.3259 63.2382)" style="opacity:0.61;fill:#5884A5;" width="48.9008" height="0.7563"/>
		
			<rect x="115.7125" y="32.9697" transform="matrix(-1 -4.478607e-11 4.478607e-11 -1 280.3259 66.6956)" style="opacity:0.61;fill:#5884A5;" width="48.9008" height="0.7563"/>
		
			<rect x="124.4248" y="74.1207" transform="matrix(-1 -4.507340e-11 4.507340e-11 -1 269.27 149.0842)" style="opacity:0.61;fill:#5884A5;" width="20.4203" height="0.8427"/>
		
			<rect x="80.4153" y="76.1304" transform="matrix(-1 -4.500190e-11 4.500190e-11 -1 225.2605 153.017)" style="opacity:0.61;fill:#5884A5;" width="64.4298" height="0.7563"/>
		
			<rect x="80.4153" y="77.8591" transform="matrix(-1 -4.486113e-11 4.486113e-11 -1 225.2605 156.4744)" style="opacity:0.61;fill:#5884A5;" width="64.4298" height="0.7563"/>
		
			<rect x="80.4153" y="79.5878" transform="matrix(-1 -4.500190e-11 4.500190e-11 -1 225.2605 159.9319)" style="opacity:0.61;fill:#5884A5;" width="64.4298" height="0.7563"/>
		
			<rect x="80.4153" y="81.875" transform="matrix(-1 -4.500190e-11 4.500190e-11 -1 225.2605 164.5062)" style="opacity:0.61;fill:#5884A5;" width="64.4298" height="0.7563"/>
		
			<rect x="80.4153" y="83.6037" transform="matrix(-1 -4.486113e-11 4.486113e-11 -1 225.2605 167.9636)" style="opacity:0.61;fill:#5884A5;" width="64.4298" height="0.7563"/>
		
			<rect x="92.8322" y="29.577" transform="matrix(-1 -4.518487e-11 4.518487e-11 -1 206.9199 59.9969)" style="opacity:0.61;fill:#5884A5;" width="21.2556" height="0.8428"/>
		
			<rect x="80.4153" y="31.9325" transform="matrix(-1 -4.483670e-11 4.483670e-11 -1 194.5031 64.6212)" style="opacity:0.61;fill:#5884A5;" width="33.6724" height="0.7563"/>
		
			<rect x="80.4153" y="33.6612" transform="matrix(-1 -4.483670e-11 4.483670e-11 -1 194.5031 68.0786)" style="opacity:0.61;fill:#5884A5;" width="33.6724" height="0.7563"/>
		
			<rect x="80.4153" y="35.4762" transform="matrix(-1 -4.483670e-11 4.483670e-11 -1 194.5031 71.7089)" style="opacity:0.61;fill:#5884A5;" width="33.6724" height="0.7564"/>
		
			<rect x="80.4153" y="37.8208" transform="matrix(-1 -4.516089e-11 4.516089e-11 -1 194.5031 76.398)" style="opacity:0.61;fill:#415F79;" width="33.6724" height="0.7564"/>
		
			<rect x="80.4153" y="39.852" transform="matrix(-1 -4.483670e-11 4.483670e-11 -1 194.5031 80.4604)" style="opacity:0.61;fill:#415F79;" width="33.6724" height="0.7564"/>
		
			<rect x="80.4153" y="41.8833" transform="matrix(-1 -4.510715e-11 4.510715e-11 -1 194.5031 84.5229)" style="opacity:0.61;fill:#415F79;" width="33.6724" height="0.7564"/>
		
			<rect x="80.4153" y="43.9145" transform="matrix(-1 -4.510715e-11 4.510715e-11 -1 194.5031 88.5854)" style="opacity:0.61;fill:#415F79;" width="33.6724" height="0.7564"/>
		
			<rect x="80.4153" y="45.9457" transform="matrix(-1 -4.516089e-11 4.516089e-11 -1 194.5031 92.6478)" style="opacity:0.61;fill:#415F79;" width="33.6724" height="0.7564"/>
		
			<rect x="80.4153" y="98.5056" transform="matrix(-1 -4.495794e-11 4.495794e-11 -1 244.4614 197.7674)" style="opacity:0.61;fill:#415F79;" width="83.6307" height="0.7563"/>
		
			<rect x="80.4153" y="100.5368" transform="matrix(-1 -4.497970e-11 4.497970e-11 -1 244.4614 201.8298)" style="opacity:0.61;fill:#415F79;" width="83.6307" height="0.7563"/>
		
			<rect x="80.4153" y="102.568" transform="matrix(-1 -4.482737e-11 4.482737e-11 -1 244.4614 205.8923)" style="opacity:0.61;fill:#415F79;" width="83.6307" height="0.7563"/>
		
			<rect x="80.4153" y="104.5993" transform="matrix(-1 -4.495794e-11 4.495794e-11 -1 244.4614 209.9548)" style="opacity:0.61;fill:#415F79;" width="83.6307" height="0.7563"/>
		
			<rect x="80.4153" y="106.6305" transform="matrix(-1 -4.495794e-11 4.495794e-11 -1 244.4614 214.0173)" style="opacity:0.61;fill:#415F79;" width="83.6307" height="0.7563"/>
		
			<rect x="115.7125" y="35.4762" transform="matrix(-1 -4.478607e-11 4.478607e-11 -1 280.3259 71.7089)" style="opacity:0.61;fill:#EB5A49;" width="48.9008" height="0.7564"/>
		
			<rect x="115.7125" y="37.0753" transform="matrix(-1 -4.497215e-11 4.497215e-11 -1 280.3259 74.907)" style="opacity:0.61;fill:#F96E64;" width="48.9008" height="0.7564"/>
		
			<rect x="115.596" y="49.6733" transform="matrix(-1 -4.478607e-11 4.478607e-11 -1 280.0928 100.1029)" style="opacity:0.61;fill:#5884A5;" width="48.9008" height="0.7563"/>
		
			<rect x="115.5937" y="52.2359" transform="matrix(-1 -4.497215e-11 4.497215e-11 -1 280.0881 105.2281)" style="opacity:0.61;fill:#5884A5;" width="48.9007" height="0.7564"/>
		
			<rect x="80.4153" y="54.7985" transform="matrix(-1 -4.484913e-11 4.484913e-11 -1 244.9074 110.3533)" style="opacity:0.61;fill:#5884A5;" width="84.0768" height="0.7563"/>
		
			<rect x="80.4153" y="56.6048" transform="matrix(-1 -4.485180e-11 4.485180e-11 -1 244.9028 113.9659)" style="opacity:0.61;fill:#415F79;" width="84.0722" height="0.7564"/>
		
			<rect x="80.4153" y="58.3595" transform="matrix(-1 -4.483004e-11 4.483004e-11 -1 244.9028 117.4752)" style="opacity:0.61;fill:#415F79;" width="84.0722" height="0.7563"/>
		
			<rect x="80.4153" y="60.2221" transform="matrix(-1 -4.485180e-11 4.485180e-11 -1 244.9028 121.2006)" style="opacity:0.61;fill:#415F79;" width="84.0722" height="0.7564"/>
		
			<rect x="115.5937" y="39.1066" transform="matrix(-1 -4.478607e-11 4.478607e-11 -1 280.0881 78.9694)" style="opacity:0.61;fill:#F96E64;" width="48.9007" height="0.7563"/>
		
			<rect x="115.7125" y="40.9217" transform="matrix(-1 -4.477053e-11 4.477053e-11 -1 280.099 82.5997)" style="opacity:0.61;fill:#F96E64;" width="48.6739" height="0.7563"/>
		
			<rect x="115.7125" y="42.6396" transform="matrix(-1 -4.477053e-11 4.477053e-11 -1 280.099 86.0355)" style="opacity:0.61;fill:#F96E64;" width="48.6739" height="0.7563"/>
		
			<rect x="115.3722" y="86.5833" transform="matrix(-1 -4.478607e-11 4.478607e-11 -1 279.6452 173.9228)" style="opacity:0.61;fill:#EB5A49;" width="48.9007" height="0.7563"/>
		
			<rect x="115.3722" y="88.1823" transform="matrix(-1 -4.478607e-11 4.478607e-11 -1 279.6452 177.1209)" style="opacity:0.61;fill:#F96E64;" width="48.9007" height="0.7564"/>
		
			<rect x="115.2534" y="90.2135" transform="matrix(-1 -4.497215e-11 4.497215e-11 -1 279.4075 181.1833)" style="opacity:0.61;fill:#F96E64;" width="48.9007" height="0.7563"/>
		
			<rect x="115.3722" y="92.0287" transform="matrix(-1 -4.499480e-11 4.499480e-11 -1 279.4183 184.8137)" style="opacity:0.61;fill:#F96E64;" width="48.6739" height="0.7564"/>
		
			<rect x="80.4153" y="93.7466" transform="matrix(-1 -4.482737e-11 4.482737e-11 -1 244.4614 188.2494)" style="opacity:0.61;fill:#F96E64;" width="83.6307" height="0.7563"/>
		
			<rect x="149.1198" y="44.4223" transform="matrix(-1 -4.515689e-11 4.515689e-11 -1 313.5062 92.5398)" style="opacity:0.61;fill:#EB5A49;" width="15.2667" height="3.6952"/>
		
			<rect x="131.2306" y="44.4223" transform="matrix(-1 -4.456137e-11 4.456137e-11 -1 277.7279 92.5398)" style="opacity:0.61;fill:#EB5A49;" width="15.2666" height="3.6952"/>
		
			<rect x="115.7125" y="44.4223" transform="matrix(-1 -4.480206e-11 4.480206e-11 -1 245.0669 92.5398)" style="opacity:0.61;fill:#5884A5;" width="13.6419" height="3.6952"/>
		
			<rect x="149.1198" y="63.5363" transform="matrix(-1 -4.444191e-11 4.444191e-11 -1 313.5062 132.9758)" style="opacity:0.61;fill:#5884A5;" width="15.2667" height="5.9033"/>
		
			<rect x="130.8374" y="63.5501" transform="matrix(-1 -4.456137e-11 4.456137e-11 -1 276.9416 133.0034)" style="opacity:0.61;fill:#415F79;" width="15.2667" height="5.9033"/>
		
			<rect x="112.6853" y="63.5501" transform="matrix(-1 -4.515733e-11 4.515733e-11 -1 240.6372 133.0034)" style="opacity:0.61;fill:#415F79;" width="15.2666" height="5.9033"/>
		
			<rect x="98.1481" y="86.5035" transform="matrix(-1 -4.527635e-11 4.527635e-11 -1 211.5629 178.9104)" style="opacity:0.61;fill:#415F79;" width="15.2666" height="5.9033"/>
		
			<rect x="80.4153" y="86.5035" transform="matrix(-1 -4.515733e-11 4.515733e-11 -1 176.0973 178.9104)" style="opacity:0.61;fill:#415F79;" width="15.2666" height="5.9033"/>
		
			<rect x="94.533" y="63.5501" transform="matrix(-1 -4.456137e-11 4.456137e-11 -1 204.3327 133.0034)" style="opacity:0.61;fill:#415F79;" width="15.2666" height="5.9033"/>
		
			<rect x="80.4153" y="63.5501" transform="matrix(-1 -4.453472e-11 4.453472e-11 -1 172.0628 133.0034)" style="opacity:0.61;fill:#415F79;" width="11.2322" height="5.9033"/>
		
			<rect x="106.4544" y="48.3049" transform="matrix(-1 -4.432333e-11 4.432333e-11 -1 220.5422 102.513)" style="opacity:0.61;fill:#EB5A49;" width="7.6333" height="5.9032"/>
		
			<rect x="96.633" y="48.3049" transform="matrix(-1 -4.432333e-11 4.432333e-11 -1 200.8994 102.513)" style="opacity:0.61;fill:#EB5A49;" width="7.6333" height="5.9032"/>
		
			<rect x="86.8117" y="48.3049" transform="matrix(-1 -4.456137e-11 4.456137e-11 -1 181.2567 102.513)" style="opacity:0.61;fill:#EB5A49;" width="7.6333" height="5.9032"/>
		<path style="opacity:0.61;fill:#5884A5;" d="M83.4984,7.3264h65.3342c0.6807,0,1.2325-0.6675,1.2325-1.491l0,0
			c0-0.8234-0.5518-1.491-1.2325-1.491H83.4984c-0.6807,0-1.2325,0.6675-1.2325,1.491l0,0
			C82.2659,6.6589,82.8176,7.3264,83.4984,7.3264z"/>
	</g>
	
		<rect x="198.8598" y="85.0672" transform="matrix(4.493745e-11 -1 1 4.493745e-11 112.9988 290.1043)" style="fill:#33414C;" width="5.3836" height="6.971"/>
	<g>
		<g>
			<g>
				<g>
					<path style="fill:#4BA5A5;" d="M174.9962,64.8271c-13.1224,0-23.7602,10.5683-23.7602,23.6049s10.6378,23.6049,23.7602,23.6049
						c13.1223,0,23.7601-10.5683,23.7601-23.6049S188.1185,64.8271,174.9962,64.8271z M174.9962,68.8041
						c10.9114,0,19.7569,8.7877,19.7569,19.6279s-8.8455,19.6278-19.7569,19.6278c-10.9115,0-19.757-8.7877-19.757-19.6278
						S164.0846,68.8041,174.9962,68.8041z"/>
				</g>
			</g>
		</g>
	</g>
	<path style="fill:#52677A;" d="M241.8593,88.432L241.8593,88.432c0,2.3729-1.9236,4.2965-4.2964,4.2965h-33.5265v-8.593h33.5265
		C239.9357,84.1355,241.8593,86.059,241.8593,88.432z"/>
	<path style="fill:#FFFFFF;" d="M160.369,101.742c7.3451,8.109,19.8731,8.7284,27.9821,1.3831
		c8.109-7.3451,8.7284-19.8731,1.3832-27.9821c-7.3452-8.109-19.8732-8.7283-27.9821-1.3832
		C153.6431,81.105,153.0238,93.6329,160.369,101.742"/>
	<g>
		<g>
			<path style="fill:#52677A;" d="M181.11,95.2909c-0.0336-0.1746-0.2301-0.9254-0.0864-1.0357
				c0.2698-0.2074,0.3891-0.4315,0.8628-0.4176c0.3472,0.0103,0.6306,0.0437,0.9814,0.0024
				c-0.31-0.6234-0.1993-1.1449-0.5712-1.7501c-0.2942-0.4791,0.9238-0.2625,1.0803-0.2153
				c0.2765,0.0832,0.2118,0.2133,0.2538,0.4692c0.0294,0.1768,0.283,0.3705,0.2524,0.5174
				c0.1209-0.0283,0.2622-0.0147,0.4026-0.0008c0.2026,0.0201,0.4034,0.0398,0.5394-0.068
				c0.2376-0.1884,0.4074,0.0983,0.5754-0.2124c0.103-0.1904,0.089-0.4972,0.2047-0.6799c0.2568-0.4046,0.3575-1.222,0.0836-1.6282
				c-0.2405-0.3568,0.1558-0.7265-0.2249-1.0207c-0.1683-0.1306-0.365-0.6417-0.3644-0.9132
				c-0.3212-0.025-0.9281,0.3257-1.2065,0.3447c-0.0784,0.1818-0.5065,0.3779-0.5382,0.0935
				c-0.1006,0.0815-0.1963,0.2327-0.3484,0.126c0.01-0.1,0.0629-0.1629,0.1583-0.1895c-0.0521-0.0899-0.0621-0.1849-0.0308-0.2852
				c-0.2053-0.1184-0.4066,0.0548-0.5381,0.0621c-0.1548-0.074-0.2919-0.0441-0.4197-0.0147
				c-0.1077,0.0253-0.3627-0.1372-0.4622-0.1749c0.0368,0.2465-0.0887,0.4201-0.2297,0.3167
				c-0.2451-0.1807-0.2939,0.0878-0.4713,0.2576c-0.2551,0.2441,0.0726,0.7858-0.415,1.0664
				c0.0352,0.2108-0.2835,0.7773-0.3937,0.7634c-0.8642-0.1076,0.2904-2.0524,0.1448-2.5681
				c-0.0992-0.3505-0.2384-0.5092-0.5326-0.6704c-0.2567-0.141,0.0205-0.7277-0.2385-0.8143
				c-0.2704-0.0905-0.6781,0.0481-0.9353-0.0546c-0.1458-0.0583-0.2384-0.1466-0.062-0.2381
				c-0.048-0.0529-0.3696-0.26-0.3794-0.2542c0.0123-0.2,0.3175-0.5308,0.2867-0.6641c-0.0362,0.0187-0.1414-0.0605-0.1305-0.0192
				c-0.0419,0.1144-0.2565-0.2971-0.2717-0.3235c-0.1521-0.2626,0.2398-0.418,0.1777-0.6361
				c-0.126,0.0291-0.4876,0.1458-0.5698-0.0501c-0.0791-0.1891,0.1548-1.1704,0.2616-1.1582
				c-0.329-0.3715-1.152,0.6475-1.4572,0.3467c-0.2555,0.0206-0.3802,0.0475-0.3796-0.2227
				c0.1024-0.1147,0.2741-0.0015,0.3486-0.1575c-0.0436-0.2832-0.2534-0.3985-0.5404-0.4975
				c-0.1148-0.0437-0.1269-0.2201-0.1854-0.3274c-0.1707-0.0141-0.291-0.1237-0.4505-0.1854
				c-0.4418-0.1734-0.1348-0.1276-0.2769-0.1961c-0.0204-0.0056-0.7357-0.0626-0.696-0.1285
				c-0.0603,0.1266,0.51,0.292,0.4716,0.5535c-0.058,0.397-0.5184-0.1003-0.7608-0.1554c-0.2164-0.4466-0.7658-0.2104-1.2308-0.3069
				c-0.0414-0.1333,0.1228-0.0682,0.0953-0.1896c-0.2052,0.046-0.3927-0.055-0.4648-0.1555
				c-0.0674-0.0943-0.0335-0.1878,0.1808-0.1617c-0.004-0.1047,0.212-0.9796,0.5238-0.5911
				c0.1588,0.197-0.1143,0.5942-0.1128,0.8138c0.1316-0.044,0.2704-0.0363,0.4091-0.0288c0.0966,0.0052,0.1932,0.011,0.2873-0.0015
				c0.0922-0.144,0.1467-0.132,0.2975-0.1929c0.1218-0.049,0.2469-0.3914,0.3056-0.375c-0.0628-0.0895-0.1154-0.185-0.1576-0.2856
				c0.023-0.0224,0.3811-0.0825,0.4821-0.092c-0.2312,0.0079-0.8905-0.137-0.5625-0.4334c0.2368-0.214,0.5923,0.0303,0.8577,0.1183
				c0.2543,0.084,0.5055,0.2219,0.7251,0.3796c0.0697,0.05,0.358,0.0223,0.4915,0.0643c-0.0005-0.1698-0.4696-0.4885-0.606-0.5624
				c-0.2291-0.1245-0.3817-0.0303-0.5309-0.2958c-0.0379-0.2031-0.1555-0.2864-0.3531-0.2494
				c-0.257-0.0126-0.6558-0.1652-0.9397-0.1468c-0.4912,0.0315-0.8761,0.2342-1.3026,0.1056
				c-0.2101-0.0635-0.3378-0.2584-0.474-0.4127c-0.1902-0.0026-0.38-0.0137-0.5698-0.0329
				c-0.2634-0.0176-0.4731-0.2488-0.3943-0.444c0.0749-0.1858-0.0254-0.7943,0.4601-0.5373c0.0834-0.018,0.057-0.3067,0.3807-0.2522
				c-0.0923-0.0411-0.1765-0.094-0.2529-0.159c0.0953-0.1806,0.9435-0.247,1.1425-0.1614c0.0433-0.1122-0.1092-0.3242,0.1232-0.5024
				c0.1168-0.0891,0.4837-0.084,0.446-0.3135c-0.2116,0.2128-0.4908-0.1386-0.0308-0.2848c0.0155-0.094-0.3256-0.0293,0.0163-0.237
				c0.0776-0.0475,0.3329-0.2099,0.2846-0.2994c-0.0996-0.1832,0.6661-0.8824,0.8689-0.1171
				c0.0286,0.1073,0.8817,0.409,0.9493,0.2654c0.1069-0.2283,0.1633-0.1058,0.2751-0.0698
				c0.0791,0.0253,0.1993-0.0363,0.3293-0.1054c0.0377-0.1289-0.2148-0.0827-0.1432-0.414c0.0662-0.3079,0.0962-0.1946-0.054-0.4253
				c-0.1251-0.1926,0.8586-0.0362,0.77-0.3621c0.2536-0.1433,0.5091-0.4031,0.8068-0.2938
				c0.2458,0.0905,0.4333,0.2731,0.6949,0.2026c0.1886-0.0511,0.4366-0.2846,0.5953-0.111
				c0.1193,0.1302,0.1274,0.3021-0.0716,0.3654c0.0938,0.1092,0.1778,0.2256,0.2525,0.3487
				c-0.0686,0.0399-0.1427,0.0504-0.2214,0.031c0.0231,0.1048,0.0016,0.1997-0.0641,0.285c0.0453,0.0737,0.0603,0.2149,0.141,0.2466
				c0.0648,0.2993,0.4931,0.2869,0.0656,0.5131c-0.3188,0.1691-0.857,0.5363-0.6643,0.9301
				c0.1423,0.2906,1.0303,0.497,1.3701,0.5595c0.0372,0.2989-0.1612,0.2916-0.1666,0.5815
				c-0.0029,0.1582-0.0999,0.3402-0.0893,0.4943c0.0248,0.3639,0.1703,0.1949,0.3422,0.3639
				c0.1923,0.1889,0.3214-0.1725,0.4939-0.2534c0.2654-0.1249,0.3251-0.3132,0.2968-0.5649
				c-0.0275-0.2486-0.1018-0.6757,0.172-0.7308c0.4859-0.0971,1.0865,0.0648,1.5179-0.2461
				c0.2145-0.1549,0.3634-0.4355,0.6619-0.4893c0.1516-0.0273,0.3519,0.1491,0.4735,0.1902c0.1,0.0334,0.2552-0.037,0.3195,0.0629
				c-0.0919-0.1428,0.041-0.7138,0.3589-0.6998c0.3106,0.013,0.3642-0.3865,0.2927-0.5327
				c-0.0877-0.1789-0.6566-0.3661-0.6788-0.5402c-0.0083-0.0635-0.6013-0.5216-0.4103-0.5074
				c-0.5889-0.2049-0.4732-0.2123,0.0638-0.348c-0.0578-0.0571-0.2214-0.1688-0.3835-0.1585
				c-0.267,0.0168-0.5401,0.1558-0.407-0.1286c-0.3761,0.1238-0.7946-0.1525-0.9168-0.5087
				c0.0861-0.0308,0.876-0.0366,0.8236-0.1878c-0.3186,0.1082-0.644,0.2078-0.9303-0.0056
				c-0.2401-0.1794-0.4076-0.2458-0.1137-0.345c-0.2756-0.0757-0.591-0.0934-0.886-0.0656
				c0.0506-0.1276,0.1456-0.1904,0.2852-0.1892c-0.1389-0.1242-0.2791,0.0395-0.4052,0.0561
				c-0.2452,0.0331-0.4197-0.0591-0.5733-0.2305c-0.36-0.4026,0.427-0.2285,0.2938-0.5752
				c-0.0386-0.0401-0.2043-0.031-0.2647-0.0095c-0.0869,0.0301-0.1738,0.0605-0.1969-0.0898
				c-0.0338-0.2231,0.1809-0.1638,0.355-0.2077c0.2926-0.0733,1.2232,0.1852,0.6348,0.2964
				c0.0858,0.0628,0.1806,0.1052,0.2848,0.1271c0.0665,0.1403,0.1539,0.266,0.2626,0.3778
				c0.2123,0.2244,0.4024,0.2938,0.5912,0.0044c-0.0305-0.0546-0.4174-0.5636,0.0491-0.3982
				c0.1849,0.0659,0.2951,0.2663,0.4575,0.3675c-0.084-0.1207,0.1028-0.2777-0.0626-0.3483
				c0.079-0.0794,0.1891-0.0433,0.2954-0.0069c0.0638,0.0218,0.1268,0.0437,0.1794,0.04c0.0188-0.1829-0.2031-0.0967-0.2527-0.2223
				c0.1081-0.1615,0.304-0.0402,0.2586-0.2582c-0.0467-0.2239,0.4215-0.0551,0.4921-0.0256
				c0.2135,0.0895,0.3398,0.3055,0.5467,0.4452c-0.0354,0.0328-0.078,0.0433-0.1265,0.0312
				c0.0198,0.0882,0.2923,0.2412-0.007,0.2647c-0.1174,0.0096-0.2366-0.0137-0.3561-0.0366
				c-0.1004-0.0198-0.2017-0.0393-0.3021-0.0395c0.0011,0.0588,0.4209,0.2066,0.4426,0.2224
				c-0.0075,0.0911-0.0768,0.0687-0.1452,0.0469c-0.0404-0.0133-0.0808-0.0261-0.1081-0.016
				c0.0932,0.1777,0.3931,0.2418,0.532,0.3393c0.2303,0.1609,0.0158,0.1596,0.1312,0.3276c0.2604,0.0321,0.0975-0.1794,0.0641-0.285
				c0.1644-0.0516,0.6415-0.0398,0.6009,0.2232c0.1777,0.0834,0.9272,0.4449,1.1057,0.3496c0.3947-0.2106,0.9074,0.3426,1.143,0.619
				c-0.0008-0.0046-0.0025-0.0086-0.0035-0.0136c0.5181-0.0214,0.7877,0.43,1.2651,0.5094
				c-0.093-0.0865-0.1878-0.1715-0.2842-0.2539c0.1944-0.1426,1.0362,0.5835,1.1695,0.7311c0.599,0.6637,0.1872-0.117,0.8236-0.1879
				c0.0849,0.0785-0.1319,0.1444-0.0959,0.253c0.1052,0.0007,0.4095,0.1504,0.506,0.1911c0.1186,0.0496,0.3914,0.1187,0.5579,0.2399
				c0.0454,0.0555,0.0877,0.1067,0.1313,0.1633c0.0086,0.011,0.0236,0.0297,0.0236,0.0297
				c0.8444,1.0683,1.5645,2.1923,2.1562,3.3696c-0.2605,0.0032-0.5374,0.0116-0.5988,0.065
				c0.1069,0.3033-0.6823,0.2142-0.6624,0.3999c-0.0804-0.0359,0.0484,0.3681,0.0447,0.3583
				c0.0494,0.144,0.0891,0.2905,0.1084,0.4118c-0.1603-0.06-0.0372-0.3129-0.1894-0.38c-0.0163,0.0591,0.0166,0.5353,0.0276,0.5528
				c-0.0431,0.2387,0.1898,0.9108,0.1125,1.0145c-0.056,0.0747-0.3015,0.3738-0.2399,0.4582
				c0.1006,0.1373,0.0185,0.6253,0.0525,0.8122c0.0483,0.267,0.112,0.5314,0.1338,0.8026c0.0735,0.4126,0.1652,0.875,0.1059,1.2966
				c-0.0741,0.525-0.2506,0.9992-0.3948,1.5138c-0.1,0.3569-0.2786,0.1304-0.4177,0.4335c-0.1656,0.3601-0.2651,0.8608-0.444,1.2485
				c-0.0689,0.1497-0.5646,0.8294-0.1601,0.7594c0.0283,0.4227-0.5922,0.4356-0.6353,0.8216
				c-0.0505,0.4527-0.4147,0.5868-0.5404,1.0116c-0.3469,0.0132,0.0339-0.4817,0.0329-0.5698
				c0.2064-0.0119,0.3197-0.581,0.3506-0.8223c0.2032-0.0863,0.3026-0.5253,0.4082-0.708c0.1893-0.3273,0.3539-0.6074,0.3237-0.9995
				c-0.4131,0.1097-0.5063,0.4928-0.649,0.9028c-0.0631,0.182-0.1694,0.5091-0.2728,0.6145
				c-0.2438,0.1867-0.2535,0.3164-0.286,0.5692c-0.4629,0.2597-0.7583,0.9762-0.979,1.4276
				c-0.1283,0.2627,0.0688,0.4237-0.0841,0.671c-0.1415,0.2291-0.4187,0.3327-0.5262,0.5882
				c-0.4639,0.1372-0.9004,0.4626-1.3049,0.6897c-0.2361,0.1327-0.4523,0.293-0.7235,0.3499
				c-0.2146,0.0454-0.3708-0.1444-0.5751-0.1465c-0.4-0.0044-0.7689,0.6574-1.0728,0.8707
				c-0.1359,0.0022-1.1967,0.4479-1.2035,0.2822c-0.0516,0.0046-0.5441,0.7725-0.6988,0.853
				c-0.0422,0.1803,0.1323,0.2067-0.0817,0.362c0.0277-0.0199-0.0354,0.0292-0.1087,0.0721
				c-0.2117-0.0937-0.4337-0.1726-0.6549-0.2659C181.0652,95.6756,181.1495,95.4945,181.11,95.2909"/>
			<path style="fill:#52677A;" d="M165.9041,101.9225c0.0987-0.3591,0.7041-0.0289,0.9474-0.198
				c0.2088-0.145,0.4362-0.4087,0.7163-0.3857c0.3484,0.0288,0.5945-0.0552,0.9429-0.1209
				c0.2425-0.0457,0.3258,0.2517,0.5367,0.2493c-0.0475-0.3279,0.3126-0.4504,0.7009-0.3871
				c0.1237-0.1754,0.3759-0.1475,0.5899-0.0207c-0.0278-0.0574-0.045-0.1231-0.0547-0.1906c0.172-0.1459,0.3493,0.0188,0.547-0.0009
				c0.1738,0.1567,0.343,0.3344,0.655,0.352c-0.1295-0.3708-0.5213-0.4672-0.7152-0.7792
				c-0.1006-0.1617,0.2594-0.3493,0.3124-0.4929c0.1761-0.4772,0.14-0.4134,0.5468-0.6934c0.2584-0.178,0.6152-0.2957,0.948-0.3198
				c0.2947-0.0214,0.3219,0.1145,0.5932,0.0139c0.1717-0.0637,0.5454-0.1885,0.7911-0.1622
				c-0.103-0.5572,0.5577-0.672,0.8867-0.6289c-0.0702-0.0986-0.1544-0.1833-0.2527-0.2539
				c0.0669-0.0808,0.1513-0.1333,0.2537-0.1577c-0.1478-0.0311-0.0787-0.2873-0.1258-0.3802
				c0.2703-0.0426,0.4061,0.3866,0.5694,0.1913c-0.0478-0.0629-0.2043-0.0042-0.1896-0.1271
				c0.2373-0.1445,0.6823-0.0682,0.897,0.0822c0.2911,0.2039,0.5574-0.1616,0.8627-0.1281c0.2538,0.0278,0.354,0.0904,0.4858-0.1252
				c0.0969-0.1587,0.2731-0.1922,0.446-0.1706c0.0825-0.0653,0.1077-0.3723,0.2766-0.2596c0.0979,0.0655,0.1097,0.2221-0.055,0.2285
				c0.1349,0.1269,0.3857,0.065,0.506,0.1912c0.0602-0.0083,0.1508-0.2071,0.028-0.2384c-0.5127-0.1309,0.1773-0.2807,0.2783-0.4509
				c0.0737-0.1243,0.1727-0.2054,0.2871-0.2559c0.4008-0.1771,0.9932,0.022,1.3714,0.0635c0.119-0.1637,0.3125-0.3348,0.4541-0.5252
				c0.2212,0.0936,0.4432,0.1725,0.6551,0.2661c-0.0921,0.0538-0.1995,0.097-0.1588-0.0235
				c-0.1212,0.2819-0.3801,0.0833-0.381,0.4423c-0.0456,0.111-0.3445,0.1619-0.4123,0.1577
				c-0.0749-0.0047-0.1437,0.0082-0.2087,0.0322c-0.1141,0.042-0.2169,0.1183-0.3214,0.1962
				c-0.1666,0.1243-0.1565,0.0907-0.4199,0.0855c0.0295-0.1107,0.072-0.2161,0.1274-0.3163
				c-0.2712,0.0012-0.2692-0.1582-0.5697-0.0964c0.0116,0.1184-0.1902,0.3928-0.1278,0.4746
				c0.2553,0.0688,0.5487-0.0129,0.7304,0.1997c0.0773,0.0905,0.0742,0.4291,0.1938,0.444
				c0.1546,0.0192,0.2921,0.1793,0.3082,0.3407c0.0474-0.0658,0.1108-0.1078,0.1902-0.1262c0.1135,0.09-0.1634,0.171-0.0638,0.2531
				c0.0896,0.0217,0.1528,0.0747,0.1895,0.1588c0.016,0.1759-0.2055,0.3275-0.2228,0.506
				c-0.0188,0.1931-0.1085,0.6485-0.0244,0.7979c0.0421,0.0748,0.4767,0.3277,0.3382,0.3425
				c0.2107,0.015,0.053,0.2317,0.2895,0.2438c0.169-0.0391,0.2249,0.0349,0.168,0.2221c0.0321,0.1441,0.4278,0.6859,0.1093,0.8018
				c-0.0216,0.0079-0.2906,0.0381-0.3161,0.0096c0.0012,0.2838,0.3238,0.2377,0.4416,0.4339
				c0.0221,0.1909-0.3861,0.4106-0.096,0.4113c-0.079,0.1528-0.2716,0.1882-0.4121,0.2522
				c-0.0854,0.1464-0.1859,0.2818-0.3013,0.4059c-0.2263,0.2548-0.4697,0.4983-0.588,0.8265
				c-0.3277,0.2355-0.4298,0.6232-0.7094,0.8602c-0.2521,0.2138-0.556,0.3567-0.8612,0.4765
				c-0.3419,0.1343-0.6223,0.2757-0.9346,0.4616c-0.0533,0.1558-0.226,0.6839-0.0973,0.8233
				c0.0472,0.051,0.0826,1.0394,0.0295,1.0442c0.031,0.233,0.2478-0.1235,0.0454,0.2542c-0.0473,0.0515-0.0596,0.1043-0.0368,0.1582
				c0.001,0.0206,0.1813,0.3395,0.3381,0.2533c-0.0223,0.0642-0.0625,0.1093-0.1204,0.136
				c-1.4232,0.1933-2.8618,0.2314-4.2889,0.1157c0.1162-0.0506,0.1272-0.1592,0.3253-0.1349
				c-0.5196-0.0888-0.9684,0.1717-1.459-0.0807c-0.1127-0.0581-0.2854-0.2691-0.427-0.3532
				c0.0065,0.006,0.0132,0.0115,0.0193,0.0179c-0.2846,0.0126-0.9461-0.509-0.9689-0.7417
				c-0.0567-0.5779-0.9194-0.6545-1.1759-1.0522c-0.6107-0.077-0.9056,0.1333-1.3241-0.2328
				c-0.343-0.3001-0.4393-0.6081-0.6652-0.933c-0.1472-0.2119,0.236-0.7061,0.1075-0.9501
				c-0.2867-0.0784-0.746-0.1253-0.8699-0.3756C166.4455,103.0794,165.7379,102.5278,165.9041,101.9225z"/>
			<path style="fill:#52677A;" d="M188.7684,74.7316c-0.2961,0.036-0.2741,0.1599-0.4735,0.3493
				c-0.0367-0.0773-0.7188-0.8478-0.7895-0.7616c0.0641,0.0413,0.1167,0.0942,0.1578,0.1586
				c-0.0332-0.0191-0.0649-0.0191-0.0949-0.0002c0.0976,0.0636,0.1712,0.1483,0.221,0.2537
				c-0.2029,0.0033-0.5293-0.1434-0.6438-0.1993c-0.2916-0.1425-0.5615-0.325-0.8106-0.5322
				c-0.2047,0.0342-0.4079-0.258-0.66-0.2759c-0.2886-0.0204-0.6186-0.152-0.7946-0.3924c0.1085-0.1097,0.2505,0.1371,0.3163,0.0641
				c-0.1422-0.1338-0.6624-0.1716-0.6005-0.3813c0.2168-0.0704,0.4303,0.1281,0.6331,0.0015
				c-0.1425-0.1213-0.0719-0.2585-0.0623-0.4116c0.3938-0.0281,0.4797,0.2715,0.6319,0.5397
				c0.1169,0.0012,0.015-0.1591,0.0636-0.1582c0.2132,0.0309,0.3083,0.2268,0.474,0.3494c-0.0026,0.028,0.7516,0.3652,0.986,0.3378
				c0.2916-0.0341,0.3101-0.1947,0.6215-0.1612c0.0508,0.0054,0.1013,0.0116,0.1518,0.0178
				c0.1326,0.1168,0.264,0.2356,0.3941,0.3564c-0.0016,0.0359,0.0129,0.0816,0.0543,0.1468
				c0.1626,0.2562,0.1756,0.1464,0.1955,0.4477C188.7727,74.587,189.0823,74.6936,188.7684,74.7316z"/>
			<path style="fill:#52677A;" d="M189.6974,75.102c0.0652,0.0723,0.1504,0.1627,0.2197,0.2455
				c-0.1684-0.0705-0.3384-0.132-0.3972-0.1909C189.5483,75.1102,189.6139,75.0952,189.6974,75.102z"/>
			<path style="fill:#52677A;" d="M156.2398,82.9175c-0.0116-0.2231,0.0261-0.3969,0.0962-0.538
				C156.4327,82.5402,156.3784,82.8162,156.2398,82.9175z"/>
			<path style="fill:#52677A;" d="M159.5137,77.4172c0.0407-0.047,0.0085-0.2479-0.0629-0.1584
				c0.239,0.2463-0.5668,0.6363-0.5405,0.9484c0.0743-0.0389,0.1482-0.0388,0.2216,0.0005
				c-0.0398,0.0856-0.0823,0.1699-0.1272,0.2529c0.0511,0.0183,0.1039,0.0291,0.1582,0.0321
				c-0.0208,0.2631-0.3372,0.2182-0.4442,0.4105c0.0786-0.0206,0.1525-0.0521,0.2219-0.0945
				c0.158,0.5838,0.1868,0.1353-0.2543,0.4426c0.0119-0.0487,0.0015-0.091-0.0314-0.1268c-0.2373,0.0899-0.374,0.2087-0.6654,0.2517
				c-0.0198-0.0341,0.0189-0.3835,0.0327-0.4431c0.1036-0.256,0.3873-0.5487,0.547-0.7895c0.1753-0.2644,0.3857-0.5139,0.5648-0.759
				c0.0365-0.4845,0.2132-0.3102,0.413-0.6637c-0.0644-0.0032-0.1065-0.0349-0.1263-0.0953
				c0.1342-0.0892,0.2716-0.1734,0.4121-0.2523c0,0.0801-0.0214,0.1539-0.0639,0.2215c0.0227-0.0074,0.0438-0.0179,0.0634-0.0315
				C159.816,76.7198,159.6821,77.3842,159.5137,77.4172z"/>
			<path style="fill:#52677A;" d="M155.3995,85.7377c0.1121-0.2232,0.2385-0.4106,0.342-0.4303
				c0.2428-0.0458-0.17-1.1428,0.3055-1.1877c0.1308,0.1149,0.4278-0.0194,0.5913-0.0594c0.2794-0.0682,0.4677,0.0169,0.6431,0.1893
				c-0.0266,0.0781,0.7783,0.2215,0.9537-0.1331c0.1087-0.2193-0.3243-0.2056-0.4107-0.1993
				c-0.3627,0.0242-0.3065-0.2897-0.4652-0.5161c-0.1044-0.1491-0.0055-0.197,0.0834-0.3543
				c-0.0656-0.1427-0.1181-0.291-0.1572-0.4435c-0.5053,0.0588-0.0665-0.5006-0.2837-0.6336
				c-0.1019,0.1036-0.2178,0.188-0.3487,0.2525c-0.041-0.1014-0.1043-0.1859-0.1892-0.2537
				c-0.2468,0.3314-0.3202,0.7504-0.5092,1.1067c-0.003,0.0054-0.0064,0.0109-0.0094,0.0169
				c0.3903-1.4023,0.9366-2.768,1.6378-4.0699c0.0764,0.0683,0.1459,0.2072,0.1218,0.3536c0.2446-0.119,0.1995,0.186,0.319,0.2668
				c0.1219,0.0824,0.1545,0.016,0.1989-0.0502c0.0311-0.0467,0.0682-0.0935,0.1467-0.0886c-0.05,0.1114-0.0819,0.2275-0.0959,0.3479
				c0.2171-0.171,0.2613-0.1381,0.5384-0.1885c0.0356,0.2827-0.5665,0.7378-0.7404,0.9907
				c-0.1127,0.1636-0.2793,0.7637-0.1508,0.9696c0.2947-0.218,1.2092-0.558,1.4572-0.3126
				c0.0371,0.1541-0.1763,0.7401-0.2112,0.9209c-0.0302,0.1578,0.0181,0.5997,0.0804,0.7564
				c-0.442,0.2518,0.1186,0.7732-0.6344,0.6313c-0.3201,0.3819-0.3081,0.8816,0.0797,1.163
				c0.3429,0.2485,0.196,0.4214,0.3921,0.6824c0.2096,0.2779-0.1405,0.5793,0.14,0.906c0.1927,0.2243,0.4859,0.329,0.5717,0.587
				c0.1242,0.3745,0.479,0.5226,0.4839,0.9712c0.3495,0.1646,0.2637,0.4613,0.5048,0.6981
				c0.1856,0.1814,0.0295,0.4634,0.0618,0.6958c-0.049-0.0116-0.0911-0.001-0.1269,0.0316
				c-0.0757,0.1275-0.1132,0.7211-0.1013,0.862c0.0194,0.2239,0.071,0.7769,0.2109,0.9484c0.2725,0.3331-0.0431,0.4315,0.037,0.7385
				c0.0632,0.2431-0.0632,0.5838-0.3758,0.5212c0.1846,0.3716-0.5433,0.6087-0.4458,1.1068
				c-0.1016,0.3007-0.6199,0.6259-0.8835,0.8571c-0.2776,0.2436-0.4807,0.081-0.6897-0.0821
				c-0.1941-0.1511-0.3938-0.3023-0.6644-0.1293c-0.1006,0.0645-0.9568-0.6582-1.1176-0.7488
				c-0.1228,0.1236-0.0813,0.3539-0.1281,0.5061c-0.142-0.0335-0.258-0.1078-0.3476-0.2226
				c-0.1087,0.6088,0.3322,1.1006,0.2883,1.673c-0.0018,0.0204-0.0022,0.0404-0.0032,0.0605
				C155.3185,92.3289,154.9575,88.9852,155.3995,85.7377"/>
			<path style="fill:#52677A;" d="M160.2716,78.0838c-0.3192,0.524-1.252,0.44-0.759-0.2551
				c-0.2563-0.018,0.3182-0.667,0.4765-0.632c0.0645,0.0413,0.1172,0.0938,0.1579,0.1586c-0.0644,0.0029-0.107,0.0346-0.1271,0.0951
				c0.1145-0.0002,0.1905-0.0872,0.3169-0.0946C160.4199,77.5084,159.8884,78.1467,160.2716,78.0838"/>
			<path style="fill:#52677A;" d="M173.5968,68.662c0.1697,0.0242,0.3498,0.0208,0.5311,0.0174
				c0.3206-0.0056,0.6449-0.0117,0.9182,0.1333c-0.146-0.0056-0.2835,0.0261-0.4117,0.0939
				c0.0349,0.0039,0.0851-0.0007,0.1404-0.0052c0.1264-0.0103,0.2801-0.0206,0.3344,0.0698
				c-0.0882,0.0253-0.1358,0.0184-0.1575,0.012c-0.0332-0.0103-0.2876,0.1718-0.2516,0.2748
				c-0.8221,0.1083-1.3839-0.3176-2.0929,0.2136c0.0042,0.0392,0.3247,0.2633,0.2692,0.2968
				c-0.2386-0.0512-0.3012-0.0867-0.4915-0.0441c0.0467,0.0124,0.0888,0.0334,0.1267,0.0632
				c-0.1188,0.0104-0.2245,0.0523-0.317,0.1262c0.0081,0.0008,0.3256,0.0016,0.2846,0.0321
				c-0.0604-0.0197-0.1132-0.0092-0.1584,0.0316c0.0664,0.0099,0.1191,0.0416,0.1581,0.0952
				c-0.0391-0.009-0.0706,0.0015-0.0949,0.0313c0.0485-0.002,0.0965-0.001,0.1451,0.0033c0.1517,0.071-0.4025,0.1105-0.6272,0.0908
				c-0.0126-0.0328-0.042-0.0439-0.088-0.0322c-0.0133,0.0157,0.0241,0.0265,0.088,0.0322
				c0.0034,0.0089,0.0059,0.0191,0.0067,0.0315c-0.2164,0.074-0.5793,0.0531-0.6967,0.2195c0.077-0.0138,0.0578,0.013,0.039,0.0401
				c-0.0265,0.0387-0.0526,0.0774,0.1983-0.0038c0.2112-0.0679,0.5729-0.1973,0.7756-0.0339
				c-0.0562,0.0131-0.0985,0.045-0.1266,0.095c0.2005-0.0318,0.3241,0.4319,0.316,0.44c-0.1472,0.1456-0.9417,0.065-1.0763-0.2205
				c0.0921-0.0483,0.1871-0.0902,0.2851-0.1257c-0.1495,0.0243-0.2973,0.0558-0.4433,0.0938
				c0.0392-0.0089,0.0707,0.0018,0.0948,0.0317c-0.0095,0.0659-0.0673,0.0585-0.1171,0.0512
				c-0.0357-0.0052-0.0672-0.0104-0.0728,0.0117c-0.1082,0.3934,0.5254,0.286,0.7268,0.4133
				c-0.169,0.0315,0.1099,0.1411,0.1357,0.2255c0.0623,0.1121,0.0358,0.1559-0.0794,0.1313
				c0.0331,0.0192,0.0671,0.0376,0.1011,0.0551c-0.1169,0.1295-0.3733,0.0183-0.4753,0.1252
				c0.5661,0.0014,0.2086,0.3273-0.2423,0.3965c-0.0005,0.2396,0.1278,0.3122-0.1077,0.3624
				c0.1979-0.0063,0.1568,0.1067,0.0679,0.2202c-0.0867,0.1104-0.2185,0.2212-0.2185,0.2212
				c-0.0531,0.1582,0.0059,0.0775-0.1558,0.1924c-0.0559,0.0394-0.2925,0.0367-0.3284,0.0928
				c0.0531,0.1972,0.0418,0.3682,0.0093,0.5993c-0.2548,0.0814-0.4202-0.1815-0.5326,0.0029
				c-0.0163,0.0273-0.1288,0.1032-0.1641,0.1031l-0.0111-0.0103c-0.0005,0.0072,0.0038,0.0098,0.0111,0.0103
				c0.2097,0.1988-0.4022,0.1999-0.4861,0.2099c-0.0092,0.086-0.0552,0.1323-0.1387,0.138
				c-0.1191,0.0032-0.1154,0.0414,0.0113,0.115c-0.2341,0.0181-0.4375-0.0105-0.6647-0.0651
				c0.0497,0.0346,0.0598,0.0768,0.0317,0.1269c-0.2036,0.0477-0.1563-0.1557-0.1899-0.1588
				c-0.0261,0.0025-0.3418,0.0273-0.3483,0.0626c0.0851,0.027,0.1479,0.08,0.1894,0.1588
				c-0.1588,0.0281-0.3172,0.0596-0.4748,0.0938c0.1949,0.2243-0.0833,0.1241-0.2856,0.2206
				c-0.1059-0.045-0.2089-0.0406-0.3115-0.0361c-0.0958,0.004-0.1916,0.0076-0.2898-0.0285
				c-0.0591-0.1925,0.0077-0.1603,0.0472-0.1292c0.039,0.0405,0.0255,0.0205,0,0c-0.0242-0.0247-0.068-0.0716-0.1414-0.1561
				c0.0562-0.1586,0.2024-0.074,0.0955-0.3931c-0.1205-0.3587,0.1151-0.2721,0.2549-0.5556
				c-0.0655,0.002-0.1289-0.0088-0.1897-0.0319c-0.004-0.0758,0.0275-0.1285,0.0953-0.1581
				c-0.1621-0.0255-0.321,0.0179-0.4109-0.2542c0.1151-0.0611,0.2208-0.1344,0.3172-0.221
				c-0.0792,0.019-0.1528,0.0082-0.2216-0.0325c0.0675-0.0798,0.1416-0.1537,0.2222-0.2207
				c-0.0779,0.0138-0.1519,0.003-0.2216-0.0321c0.0113-0.0846,0.0535-0.148,0.1272-0.1899
				c-0.4136,0.1424-0.6968,0.3688-1.0815,0.3594c0.0214-0.0506,0.0376-0.5602,0.0373-0.6152
				c-0.084,0.0632-0.179,0.0945-0.2849,0.0943c-0.0612-0.2062,0.1027-0.4101-0.0936-0.5697
				c-0.138,0.0515-0.3477,0.146-0.4926,0.0639c-0.0017-0.0009-0.3169-0.0357-0.4611-0.1058
				C167.2715,69.8848,170.4153,68.8901,173.5968,68.662"/>
			<path style="fill:#52677A;" d="M155.7051,84.0464c0.0134-0.0154,0.0291-0.0195,0.0571,0.0096
				c-0.0071,0.1494-0.0659,0.2627-0.1396,0.3732C155.6488,84.3013,155.6763,84.1737,155.7051,84.0464z"/>
			<path style="fill:#52677A;" d="M156.0798,83.6135c0.0201-0.3457,0.0612-0.5026,0.2549-0.6642
				c-0.055,0.2248-0.0519,0.4992-0.1916,0.696C156.1436,83.5881,156.1226,83.5775,156.0798,83.6135z"/>
			<path style="fill:#52677A;" d="M179.1317,69.2953c-0.1884-0.049-0.3769-0.097-0.5727-0.0943
				C178.7033,69.2374,178.9184,69.26,179.1317,69.2953c0.1197,0.0312,0.2395,0.0627,0.3612,0.0821
				c0.1044,0.0337,0.1943,0.0767,0.2567,0.1335c-0.0399-0.0266-0.0257,0.0683,0.011,0.0979
				c-0.0696-0.0109-0.2097-0.0258-0.0945-0.0885c-0.1076-0.0316-0.6128-0.079-0.6964-0.0017
				c0.1599-0.0057,1.1137,0.0775,1.1388,0.3193c-0.1791-0.0131-0.6568-0.1458-0.7913-0.0335
				c0.1717,0.0583,1.6891,0.1551,1.6131,0.5737c-0.2579-0.0049-0.6039-0.1626-0.8709-0.2044
				c-0.2975-0.0463-0.6288-0.1299-0.9189-0.2169c-0.3307-0.0991-1.0549,0.0682-1.2791-0.3142
				c0.3318-0.0118,0.7212,0.1569,1.0445,0.0658c-0.2624-0.0712-0.5406-0.0361-0.8032-0.106
				c-0.1964-0.0522-0.2122-0.1569-0.4071-0.1754c-0.1674-0.0159-0.6702-0.1485-0.7509-0.3249
				c0.1816-0.0267,0.3968,0.0882,0.5697,0.033c-0.3249-0.1124-0.6976-0.0133-1.0126-0.1607
				c0.0693,0.0196,0.1327,0.0091,0.1899-0.0312c-0.2054,0.015-1.4182-0.2576-2.0216-0.3239
				c0.0396,0.0019,0.0757,0.0002,0.1058-0.007c0.5689-0.0071,1.1378,0.0101,1.7051,0.0517
				c0.5174,0.0703,1.0313,0.1714,1.5388,0.2892c0.4913,0.1141,1.1903,0.1539,1.6148,0.4403
				c-0.0477-0.003-0.0949-0.0087-0.1418-0.0162C179.3832,69.3419,179.2581,69.3162,179.1317,69.2953z"/>
			<path style="fill:#52677A;" d="M179.8245,69.4573c-0.0374-0.0154-0.0716-0.0339-0.0948-0.0635
				C179.772,69.389,179.9041,69.4439,179.8245,69.4573z"/>
			<path style="fill:#52677A;" d="M181.6842,70.2088c-0.0275,0.0028-0.0512-0.0176-0.07-0.0176h-0.0002
				c-0.0188,0-0.0326-0.0032-0.0413-0.0193c-0.3204-0.1006-0.7319-0.1807-0.9264-0.1811c-0.2063-0.171-0.5465-0.2804-0.7781-0.3814
				c0.0477,0.0207,0.1761-0.0439,0.1777-0.0582c-0.011-0.0157-0.0243-0.0272-0.0388-0.0376c0.0319,0.011,0.0723,0.0244,0.119,0.0389
				c0.0932-0.0009,0.2547,0.0819,0.347,0.097c-0.0046-0.0008-0.0101-0.0011-0.0101-0.0011
				c-0.0113-0.0007,0.0274,0.0282,0.0209,0.0282l-0.045-0.0291c-0.0393-0.0002,0.1191,0.0477,0.0656,0.0467
				c0.0535,0.001-0.1049-0.0469-0.0656-0.0467c0.6025,0.1815,1.5131,0.4586,1.4728,0.6627
				C181.8545,70.2797,181.7754,70.2406,181.6842,70.2088z"/>
			<path style="fill:#52677A;" d="M162.5624,73.4676c0.0139-0.1187,0.3209-0.3541,0.4245-0.4152
				c0.0708-0.0415,0.0746-0.0186,0.0878,0.0045c0.016,0.0277,0.0466,0.0558,0.2269-0.0314
				c0.0742-0.0356,0.6126-0.2223,0.6236-0.1879c-0.0487,0.036-0.0594,0.0782-0.0322,0.1267
				c0.004-0.0605,0.4968-0.4125,0.6659-0.4418c0.0386,0.0733-0.1208,0.1035-0.0634,0.1266c0.11-0.0423,0.3038-0.1337,0.3167,0.0323
				c-0.1091,0.2274-0.5219,0.0285-0.6026,0.2836c0.0349,0.0103,0.0894-0.004,0.1469-0.0183
				c0.0989-0.0245,0.2057-0.0493,0.2331,0.0508c-0.1624,0.1004-0.4207,0.0793-0.539,0.2519
				c0.0945-0.0283,0.1472,0.0033,0.1581,0.0952c-0.1862,0.0557-1.9907,0.7456-1.9634,0.4069c0,0,0.0333-0.071,0.0855-0.1424
				C162.3851,73.534,162.4645,73.4585,162.5624,73.4676"/>
			<path style="fill:#52677A;" d="M177.7745,92.4981c0.0038-0.2932,0.3274-0.2927,0.5388-0.2836
				c0.0121-0.0752-0.0988-0.0935-0.0312-0.1584c0.2088-0.0989,0.4406-0.1431,0.6653-0.1883
				c0.0581-0.1602,0.2218-0.2236,0.3701-0.2671c0.2724-0.0798,0.5121-0.3189,0.7675-0.3136
				c0.3417,0.0071,0.6093-0.1468,0.9848-0.0472c0.17,0.045,0.6567,0.3065,0.5051,0.571c-0.178,0.0399-0.6994-0.2833-0.8854-0.382
				c-0.0515,0.2987-0.4299,0.2351-0.7291,0.378c-0.2537,0.1213-0.448-0.0051-0.5598,0.2467
				c-0.0968,0.2183-0.2958,0.1421-0.4861,0.2573c0.0646,0.1107,0.217,0.0817,0.1894,0.2538
				C178.6639,92.4953,178.2153,92.5586,177.7745,92.4981z"/>
			<path style="fill:#52677A;" d="M179.128,93.2553c-0.0288,0.0163-0.6313,0.1404-0.5956-0.0273
				C178.6904,92.9366,179.6846,92.9405,179.128,93.2553z"/>
			<path style="fill:#52677A;" d="M177.3818,93.2035c-0.1319,0.0345-0.2654,0.0414-0.4005,0.0207
				c-0.0629,0.1106-0.1579,0.1737-0.2853,0.1892c-0.0707-0.6126-1.0941,0.0725-1.107-0.3825
				c0.2539-0.3058,0.7895-0.539,1.1213-0.5072c0.1771,0.017,0.8187-0.1532,0.874,0.0688c0,0-0.4049,0.4206-0.3809,0.4106
				c0.2408,0.1062,0.4592-0.1343,0.6965-0.03C177.9523,93.3422,177.5432,93.1748,177.3818,93.2035z"/>
			<path style="fill:#52677A;" d="M175.2212,93.1634c-0.0127,0.3117-0.6905,0.144-0.6455-0.0399
				C174.6552,93.1162,175.2338,92.8552,175.2212,93.1634z"/>
			<path style="fill:#52677A;" d="M186.641,72.9114c0.1264,0.0012,0.4641-0.0638,0.4713,0.1596
				c-0.2316,0.1939-1.0495-0.0805-0.9803-0.4139c0.0983-0.0123,0.1828-0.0543,0.2535-0.1261
				c0.1708-0.0049,0.3289,0.0377,0.4746,0.1279C186.9366,72.6649,186.6728,72.8959,186.641,72.9114z"/>
			<path style="fill:#52677A;" d="M181.8468,70.9817c-0.6059-0.0667-1.1612-0.3869-1.7587-0.3944
				c-0.1771-0.0022-0.4453-0.0433-0.5507-0.2128c-0.1363,0.1817-0.4146,0.058-0.5795,0.0207
				c-0.2275-0.0514-0.2977-0.1485-0.5279-0.2766c0.5401-0.1572,1.1855,0.0231,1.6952,0.2157
				c0.2326,0.0879,0.3779,0.0625,0.6124,0.1552c0.1486,0.0587,0.5593,0.0033,0.667,0.1111
				c-0.0728-0.1289-0.2603-0.0799-0.3479-0.1908c0.2917,0.0136,0.557,0.111,0.8226,0.2236c0.0083,0.1354-0.122,0.0291-0.1269,0.0946
				C181.8228,70.8427,181.8909,70.8226,181.8468,70.9817z"/>
			<path style="fill:#52677A;" d="M177.5069,72.2691c0.3339-0.1099,0.7599-0.0202,0.7587,0.3817
				C177.966,72.771,177.47,72.6786,177.5069,72.2691z"/>
			<path style="fill:#52677A;" d="M175.2845,71.4062c0.1404,0.0216,0.3072,0.0995,0.4514,0.067
				c-0.1212-0.0275-0.2374-0.0699-0.3478-0.1272c0.0339-0.1455,0.2714-0.13,0.4965-0.1141c0.2017,0.0136,0.523,0.1864,0.5514,0.0852
				c-0.1843-0.0086,0.2728-0.5118,0.4405-0.1573c0.0248-0.1949,0.1639-0.1562,0.3012-0.1181
				c0.0757,0.0215,0.1505,0.0426,0.2055,0.0244c-0.109-0.0284-0.2037-0.0814-0.2848-0.159
				c0.2204-0.1565,1.3831-0.2912,1.3926,0.1617c0.1373-0.0984,0.2334-0.0561,0.3277-0.0133
				c0.0834,0.0372,0.1658,0.0749,0.2736,0.0147c-0.0879-0.0841-0.1616-0.1791-0.2206-0.2856
				c0.3383-0.3244,0.9416-0.0428,1.2658,0.1614c-0.0604-0.0197-0.1131-0.0093-0.1584,0.0311
				c0.1409,0.0021,0.3801-0.0012,0.4111,0.1913c-0.0515,0.019-0.0938,0.0504-0.1271,0.0945c0.0971-0.0053,0.1604,0.037,0.19,0.1269
				c-0.0406,0.1033-0.229,0.0071-0.2536,0.1262c0.0982,0.0981,0.2138,0.1299,0.348,0.0957
				c-0.0797-0.0006-0.1429-0.0326-0.1901-0.0953c0.0992-0.1619,0.2929-0.1713,0.3176-0.3473
				c-0.1494-0.1702-0.3932-0.2044-0.5371-0.3814c0.3961,0.0495,1.5225,0.3391,1.3592,0.7949
				c0.1179,0.013,0.1918,0.0762,0.2213,0.1903c-0.0839,0.0062-0.1669-0.0042-0.2494-0.0146
				c-0.1285-0.0165-0.2561-0.0325-0.384,0.0131c0.1195,0.1016,0.4265-0.0006,0.4746,0.191
				c-0.1255,0.144-0.3858,0.0744-0.5333,0.0281c-0.1757-0.0549-0.1693-0.0294-0.2043-0.0039
				c-0.0291,0.0207-0.0861,0.0419-0.2964,0.0171c-0.4501-0.0527-0.8718-0.0932-1.3085-0.0785
				c-0.0289-0.1832-0.1256-0.1514-0.2563-0.1202c-0.0881,0.0211-0.1916,0.0421-0.3009-0.0016
				c-0.3334-0.1327,0.0634-0.1773,0.0831-0.2275c-0.1376-0.0888-0.9192,0.2842-1.0453,0.3456
				c0.1105,0.0492,0.2263,0.0708,0.348,0.0643c0.0466,0.2792-0.2953,0.109-0.43,0.07c-0.2867-0.0828-0.2408,0.0862-0.5052,0.1431
				c-0.7018,0.1507-0.1217,0.7003,0.2994,0.7983c0.0044,0.1154-0.2751,0.1921-0.222,0.2842
				c0.3698,0.0332,0.6365,0.0904,0.9914,0.1033c0.1681,0.0063,0.5452,0.1754,0.4948,0.4386
				c-0.2175,0.0127-1.0973-0.1354-1.11-0.3095c-0.007-0.0983-0.9545,0.4215-1.0748,0.5255
				c0.0733,0.0116,0.1153,0.0539,0.1265,0.1272c-0.2674,0.2074-0.6772,0.1708-0.8881,0.4763
				c-0.3769-0.0448-0.7389,0.0615-1.1076,0.0887c0.0003-0.5001,0.3539-0.5073,1.0081-0.652
				c-0.4045,0.0895-0.9691-0.0196-1.0382,0.0244c-0.1848,0.1175-0.1684,0.3386-0.3807,0.3415
				c-0.0131-0.0464-0.0238-0.3253,0.0009-0.3482c-0.0384,0.0241-0.081,0.0347-0.1269,0.0312
				c-0.0585-0.3001,0.1777-0.2902,0.3179-0.4737c-0.0588,0.0147-0.0903-0.0062-0.0948-0.0637
				c0.1622,0.0016,1.0406-0.5295,0.9829-0.599c-0.0814,0.0721-0.1764,0.0928-0.2852,0.0627
				c-0.0316-0.1597,0.1402-0.0979,0.1589-0.2214c-0.3036-0.1127-0.6722-0.1432-0.9161,0.0464
				c-0.1979,0.154-0.2694,0.5282-0.5097,0.5201c-0.0335-0.0954,0.1218-0.2116,0.0326-0.2851
				c-0.1315-0.0118-0.3115-0.0685-0.4434-0.064c-0.0982-0.0578,0.1059-0.1079,0.0004-0.1588
				c-0.2324,0.0228-0.4222-0.1564-0.1036-0.2671c0.2611-0.0908,0.2928,0.0199,0.4213-0.1433
				c0.1532,0.0067,0.3624,0.0954,0.5064,0.0012c-0.092,0.0295-0.1656,0.0086-0.2212-0.064
				c0.2265-0.3552,1.0838-0.2489,1.4572-0.4714c-0.045-0.0409-0.0978-0.0513-0.1582-0.0318
				c-0.033-0.0827,0.1628-0.1171,0.0952-0.1581c-0.1631,0.0608-0.3321,0.0817-0.5067,0.0622
				c-0.0213-0.1502,0.0962-0.1491,0.2175-0.1484c0.0957,0.0005,0.1936,0.0017,0.2266-0.0723
				C174.6388,71.5973,175.0684,71.3724,175.2845,71.4062"/>
			<path style="fill:#52677A;" d="M180.4506,74.3049c-0.1307-0.0029-0.9933,0.4945-0.9814-0.0024
				c0.1632-0.0634,0.3321-0.0841,0.5067-0.0621c-0.0899-0.2954,0.3563-0.0979,0.5576-0.1799
				c0.4487-0.1828,0.0425-0.131,0.3612-0.1661c-0.0094-0.1209,0.0436-0.1948,0.1588-0.2212
				c0.0871,0.1725,0.2403,0.2974,0.2941,0.489c0.093,0.3312,0.228,0.2281,0.3682,0.5255c-0.1739,0.0249-0.3476-0.1341-0.5063-0.0962
				c0.0173,0.0629,0.0172,0.1262-0.0005,0.1899c-0.2738-0.0109-0.4268-0.2646-0.6957-0.2865
				C180.439,74.4373,180.5634,74.3214,180.4506,74.3049z"/>
			<path style="fill:#52677A;" d="M183.3931,72.9797c0.1106,0.0102,0.3889-0.1424,0.5386-0.1569
				c0.0985,0.0932,0.4032,0.3322,0.4421,0.4442C184.019,73.2245,183.6308,73.3249,183.3931,72.9797z"/>
			<path style="fill:#52677A;" d="M180.0071,69.5144c-0.0332-0.0115-0.0576-0.021-0.0713-0.0281
				C179.9632,69.4901,179.9866,69.4999,180.0071,69.5144z"/>
			<path style="fill:#52677A;" d="M182.0185,71.0728c0.238-0.0857,2.085,0.2251,2.1134,0.4379
				C183.6228,71.4372,182.1663,71.9265,182.0185,71.0728z"/>
			<path style="fill:#52677A;" d="M170.9653,79.3925c0.0391,0.0001,0.0758,0.0039,0.1104,0.011
				c0.2399,0.0494,0.3754,0.2576,0.4809,0.4831c0.1049,0.2241,0.1801,0.4652,0.2988,0.5836
				c0.0102,0.0102,0.0207,0.0194,0.0317,0.0277c0.0908,0.0752,0.1016,0.1616,0.0322,0.2589
				c0.1182,0.0157,0.2075,0.0746,0.2676,0.1773c0.0144,0.0371,0.0184,0.0679,0.0145,0.0937c-0.0124,0.0803-0.104,0.1102-0.2109,0.12
				c-0.0359,0.0033-0.0738,0.0044-0.1108,0.0043c-0.0359-0.0001-0.0712-0.0012-0.1035-0.0024
				c-0.0341-0.0012-0.0647-0.0024-0.0898-0.0025c-0.0125-0.0001-0.0237,0.0002-0.0332,0.0009
				c-0.0179,0.0015-0.0481,0.002-0.0872,0.0019c-0.07-0.0002-0.1685-0.0024-0.275-0.0045
				c-0.1086-0.0023-0.2255-0.0045-0.3293-0.0048c-0.0768-0.0002-0.1464,0.0007-0.2002,0.0036
				c-0.0654,0.0035-0.1073,0.0099-0.1098,0.0208c0.0161,0.0069,0.032,0.0143,0.0473,0.0221
				c0.1079,0.0547,0.1974,0.1319,0.2687,0.2319c-0.054,0.0271-0.102,0.0383-0.1458,0.0382
				c-0.1064-0.0003-0.1875-0.0669-0.2672-0.1336c-0.0076-0.0063-0.0153-0.0127-0.023-0.019
				c-0.0724-0.0598-0.1458-0.1144-0.2375-0.1147c-0.0173,0-0.0354,0.0018-0.0541,0.006c0.027,0.27,0.0865,0.2632-0.2269,0.3638
				c-0.0436,0.0139-0.0787,0.0202-0.1073,0.0201c-0.1205-0.0002-0.1268-0.1141-0.1667-0.254
				c-0.0852-0.2991,0.3079-0.2508,0.3749-0.3205c0.0089-0.0882-0.0467-0.1156-0.1053-0.1399
				c-0.071-0.0294-0.1461-0.0542-0.1158-0.1773c0.025-0.0149,0.0473-0.0206,0.0683-0.0205c0.0325,0.0001,0.0617,0.014,0.0922,0.0277
				c0.03,0.0137,0.0616,0.0274,0.099,0.0275c0.0083,0,0.0167-0.0007,0.0256-0.0021c-0.0048-0.1549-0.2456-0.3394,0.0443-0.4046
				c0.047-0.0106,0.0896-0.0145,0.129-0.0144c0.0559,0.0002,0.1054,0.0082,0.1524,0.0163c0.0467,0.0081,0.0908,0.0163,0.1358,0.0163
				c0.0795,0.0002,0.162-0.0246,0.2674-0.1184c-0.3633-0.1067,0.0918-0.129,0.2411-0.1286
				c0.0236,0.0001,0.0396,0.0007,0.0435,0.0016c-0.0864-0.1242-0.2918-0.3587-0.3887-0.5305
				c-0.0295-0.0523-0.049-0.0987-0.0519-0.1346C170.8297,79.4024,170.9008,79.3924,170.9653,79.3925"/>
		</g>
	</g>
	<polygon style="fill:#FFFFFF;" points="160.4849,57.9225 159.6519,61.9165 188.5571,61.9165 188.5571,33.536 156.653,33.536 
		156.653,56.8124 	"/>
	
		<rect x="156.653" y="33.536" transform="matrix(-1 -4.509871e-11 4.509871e-11 -1 345.2101 70.5955)" style="fill:#4BA5A5;" width="31.904" height="3.5234"/>
	
		<rect x="161.8177" y="40.3898" transform="matrix(-1 -4.486290e-11 4.486290e-11 -1 345.0435 81.938)" style="fill:#4BA5A5;" width="21.4081" height="1.1584"/>
	
		<rect x="161.8177" y="44.589" transform="matrix(-1 -4.486290e-11 4.486290e-11 -1 345.0435 90.3363)" style="fill:#4BA5A5;" width="21.4081" height="1.1584"/>
	
		<rect x="161.8177" y="48.7881" transform="matrix(-1 -4.477764e-11 4.477764e-11 -1 345.0435 98.7346)" style="fill:#4BA5A5;" width="21.4081" height="1.1584"/>
	
		<rect x="161.8177" y="52.9873" transform="matrix(-1 -4.537272e-11 4.537272e-11 -1 345.0435 107.1329)" style="fill:#4BA5A5;" width="21.4081" height="1.1584"/>
	<polygon style="fill:#4BA5A5;" points="156.653,56.9089 159.5061,61.9768 161.0264,57.7173 	"/>
	
		<rect x="144.5458" y="122.3709" transform="matrix(-1 -4.493795e-11 4.493795e-11 -1 397.006 259.0067)" style="fill:#51677C;" width="107.9144" height="14.2648"/>
	<g>
		<path style="fill:#FFFFFF;" d="M117.2866,132.7578v-7.0354c0-3.2313,2.6289-5.8602,5.8603-5.8602h125.9617
			c3.2314,0,5.8603,2.6289,5.8603,5.8602v7.0354c0,3.2313-2.6289,5.8602-5.8603,5.8602H123.1469
			C119.9155,138.6179,117.2866,135.9891,117.2866,132.7578z M123.1469,122.3709c-1.8481,0-3.3515,1.5034-3.3515,3.3515v7.0354
			c0,1.8479,1.5034,3.3515,3.3515,3.3515h125.9617c1.8481,0,3.3515-1.5035,3.3515-3.3515v-7.0354
			c0-1.848-1.5034-3.3515-3.3515-3.3515H123.1469z"/>
	</g>
	
		<rect x="156.653" y="36.0893" transform="matrix(-1 -4.219970e-11 4.219970e-11 -1 314.2544 93.1121)" style="fill:#4BA5A5;" width="0.9483" height="20.9334"/>
	
		<rect x="187.6088" y="36.5386" transform="matrix(-1 -4.219970e-11 4.219970e-11 -1 376.1658 98.4551)" style="fill:#4BA5A5;" width="0.9483" height="25.3779"/>
	
		<rect x="173.1148" y="47.3214" transform="matrix(-4.603625e-11 1 -1 -4.603625e-11 235.0313 -112.1466)" style="fill:#4BA5A5;" width="0.9483" height="28.242"/>
	
		<rect x="119.4647" y="121.3444" transform="matrix(-1 -4.505253e-11 4.505253e-11 -1 264.8904 257.9802)" style="fill:#FFFFFF;" width="25.9611" height="15.2913"/>
	<g>
		<g>
			
				<rect x="130.8881" y="129.541" transform="matrix(0.6063 -0.7953 0.7953 0.6063 -51.6174 155.7564)" style="fill:#51677C;" width="1.2079" height="0.9329"/>
			<g>
				<g>
					<g>
						<path style="fill:#51677C;" d="M137.5514,128.8406c1.3787-1.8083,1.0399-4.3845-0.7566-5.7542
							c-1.7965-1.3696-4.3705-1.0139-5.7491,0.7944c-1.3786,1.8083-1.0398,4.3845,0.7567,5.7542
							C133.5989,131.0045,136.1728,130.6488,137.5514,128.8406z M137.0034,128.4227c-1.1463,1.5036-3.2866,1.7993-4.7804,0.6605
							c-1.4938-1.1388-1.7754-3.2811-0.6291-4.7847c1.1463-1.5036,3.2866-1.7993,4.7804-0.6605
							C137.8681,124.7769,138.1498,126.9191,137.0034,128.4227z"/>
					</g>
				</g>
			</g>
			<path style="fill:#51677C;" d="M127.274,135.5746L127.274,135.5746c-0.327-0.2492-0.39-0.7164-0.1407-1.0435l3.5223-4.6201
				l1.1841,0.9028l-3.5223,4.6201C128.0683,135.7609,127.6011,135.824,127.274,135.5746z"/>
		</g>
	</g>
	<circle style="fill:#FFFFFF;" cx="241.6072" cy="129.2401" r="2.5087"/>
	<circle style="fill:#FFFFFF;" cx="231.0148" cy="129.2401" r="2.5087"/>
	<circle style="fill:#FFFFFF;" cx="220.4224" cy="129.2401" r="2.5087"/>
	<g>
		<g>
			<line style="fill:#E4E4E4;" x1="88.4193" y1="83.517" x2="52.718" y2="138.3233"/>
			<g>
				
					<rect x="45.1328" y="122.3664" transform="matrix(0.5458 -0.8379 0.8379 0.5458 -76.0926 108.2791)" style="fill:#E4E4E4;" width="33.4017" height="3.9264"/>
				<g>
					<path style="fill:#E4E4E4;" d="M67.1027,116.2408l-16.5489-0.512l-0.0046-0.5795l20.2664-14.3265
						c5.8675-5.7691,11.7347-11.5378,17.6037-17.3057c-2.9054,7.6986-5.8106,15.3967-8.7144,23.0963l-4.9133,24.3277l-0.4662,0.2728
						L67.1027,116.2408z"/>
				</g>
			</g>
		</g>
		<path style="fill:#B3B2B3;" d="M88.2244,83.7087c-5.804,5.704-11.6063,11.4088-17.4088,17.114l-20.2664,14.3264l0.0047,0.5796
			l14.2523,0.4409l-13.7331,21.082l1.7104,1.1142l14.3308-22.1012l3.8415-5.9244l2.048-3.1583L88.4193,83.517
			C88.3543,83.5809,88.2893,83.6448,88.2244,83.7087z"/>
	</g>
</g>
<rect y="178" width="337" height="10"/>
<rect x="4" y="187" width="10" height="172"/>
<rect x="320" y="187" width="10" height="172"/>
</svg>
