<?xml version="1.0" encoding="utf-8"?>
<!-- Generator: Adobe Illustrator 21.0.0, SVG Export Plug-In . SVG Version: 6.00 Build 0)  -->
<svg version="1.1" id="Capa_1" xmlns="http://www.w3.org/2000/svg" xmlns:xlink="http://www.w3.org/1999/xlink" x="0px" y="0px"
	 viewBox="0 0 357.542 222.6182" style="enable-background:new 0 0 357.542 222.6182;" xml:space="preserve">
<rect x="69.7441" y="74.2286" style="opacity:0.35;fill:#D1D3D2;" width="268.3975" height="148.3896"/>
<rect x="61.2676" y="67.1338" style="fill:#FF7F00;" width="267.874" height="144.4844"/>
<g>
	<path style="opacity:0.35;fill:#D1D3D2;" d="M40.5029,66.3838h14.3653l12.5195,10.1533v-0.0048v0.0009h3.7949v-0.0019H357.542
		l-5.375-28.3115l5.375-28.9512H65.5049l0,0h-5.0654c-6.0342-7.75-15.4444-12.7412-26.0235-12.7412
		c-7.4238,0-14.1435,3.0107-19.0117,7.8721c-4.8623,4.8691-7.8721,11.5878-7.8721,19.0126c0,9.1084,3.6905,17.3516,9.6582,23.3125
		C23.1514,62.6924,31.3936,66.3838,40.5029,66.3838z"/>
	<g>
		<polygon style="fill:#FF7F00;" points="344.6348,41.6914 350.0098,70.0039 59.8555,70.0039 39.9473,12.7403 350.0098,12.7403 		
			"/>
		<path style="fill:#D66B09;" d="M63.6504,32.9727v37.0322h-3.7949L39.9502,12.7403h18.0225
			C61.5713,18.6436,63.6504,25.5645,63.6504,32.9727z"/>
		<g>
			<path style="fill:#FF7F00;" d="M59.8555,32.9707v37.0391L47.3359,59.8555H32.9707c-9.1084,0-17.3516-3.6914-23.3125-9.6582
				C3.6904,44.2354,0,35.9932,0,26.8838C0,19.46,3.0098,12.7403,7.8721,7.8721C12.7402,3.0098,19.46,0,26.8838,0
				C45.0898,0,59.8555,14.7647,59.8555,32.9707z"/>
		</g>
	</g>
</g>
<g>
	<path d="M76.2561,42.8029l4.3984-11.4531h1.6328l4.6875,11.4531h-1.7266l-1.3359-3.4688h-4.7891l-1.2578,3.4688H76.2561z
		 M79.5607,38.0998h3.8828l-1.1953-3.1719c-0.3643-0.9639-0.6357-1.7549-0.8125-2.375c-0.1455,0.7344-0.3516,1.4639-0.6172,2.1875
		L79.5607,38.0998z"/>
	<path d="M87.9748,42.8029V31.3498h1.4063v11.4531H87.9748z"/>
	<path d="M96.9748,39.7638l1.3828,0.1797c-0.1514,0.9531-0.5381,1.6992-1.1602,2.2383s-1.3867,0.8086-2.293,0.8086
		c-1.1357,0-2.0479-0.3711-2.7383-1.1133s-1.0352-1.8057-1.0352-3.1914c0-0.8955,0.1484-1.6797,0.4453-2.3516
		s0.749-1.1758,1.3555-1.5117s1.2666-0.5039,1.9805-0.5039c0.9014,0,1.6377,0.2275,2.2109,0.6836s0.9404,1.1025,1.1016,1.9414
		l-1.3672,0.2109c-0.1299-0.5576-0.3604-0.9766-0.6914-1.2578s-0.7305-0.4219-1.1992-0.4219c-0.708,0-1.2842,0.2539-1.7266,0.7617
		s-0.6641,1.3115-0.6641,2.4102c0,1.1143,0.2139,1.9248,0.6406,2.4297s0.9844,0.7578,1.6719,0.7578
		c0.5518,0,1.0127-0.1689,1.3828-0.5078S96.8762,40.4669,96.9748,39.7638z"/>
	<path d="M104.9748,41.7794c-0.5205,0.4424-1.0225,0.7549-1.5039,0.9375s-0.999,0.2734-1.5508,0.2734
		c-0.9111,0-1.6123-0.2227-2.1016-0.668s-0.7344-1.0146-0.7344-1.707c0-0.4063,0.0928-0.7773,0.2773-1.1133
		s0.4268-0.6055,0.7266-0.8086s0.6367-0.3564,1.0117-0.4609c0.2764-0.0732,0.6924-0.1436,1.25-0.2109
		c1.1357-0.1357,1.9717-0.2969,2.5078-0.4844c0.0049-0.1924,0.0078-0.3154,0.0078-0.3672c0-0.5732-0.1328-0.9766-0.3984-1.2109
		c-0.3594-0.3174-0.8936-0.4766-1.6016-0.4766c-0.6611,0-1.1494,0.1162-1.4648,0.3477s-0.5479,0.6416-0.6992,1.2305l-1.375-0.1875
		c0.125-0.5889,0.3311-1.0635,0.6172-1.4258s0.7002-0.6406,1.2422-0.8359s1.1689-0.293,1.8828-0.293
		c0.708,0,1.2842,0.083,1.7266,0.25s0.7686,0.376,0.9766,0.6289s0.3545,0.5713,0.4375,0.957
		c0.0469,0.2393,0.0703,0.6719,0.0703,1.2969v1.875c0,1.3076,0.0303,2.1338,0.0898,2.4805s0.1787,0.6787,0.3555,0.9961h-1.4688
		C105.1105,42.5109,105.0168,42.1701,104.9748,41.7794z M104.8576,38.6388c-0.5107,0.208-1.2764,0.3857-2.2969,0.5313
		c-0.5781,0.083-0.9873,0.1768-1.2266,0.2813s-0.4248,0.2568-0.5547,0.457s-0.1953,0.4229-0.1953,0.668
		c0,0.375,0.1416,0.6875,0.4258,0.9375s0.6992,0.375,1.2461,0.375c0.542,0,1.0234-0.1182,1.4453-0.3555s0.7314-0.5615,0.9297-0.9727
		c0.1514-0.3174,0.2266-0.7861,0.2266-1.4063V38.6388z"/>
	<path d="M108.4592,42.8029V34.506h1.2656v1.1797c0.6094-0.9111,1.4893-1.3672,2.6406-1.3672c0.5,0,0.96,0.0898,1.3789,0.2695
		s0.7334,0.415,0.9414,0.707s0.3545,0.6377,0.4375,1.0391c0.0518,0.2607,0.0781,0.7158,0.0781,1.3672v5.1016h-1.4063V37.756
		c0-0.5732-0.0547-1.001-0.1641-1.2852s-0.3037-0.5107-0.582-0.6797s-0.6055-0.2539-0.9805-0.2539
		c-0.5986,0-1.1162,0.1904-1.5508,0.5703s-0.6523,1.1016-0.6523,2.1641v4.5313H108.4592z"/>
	<path d="M122.7717,39.7638l1.3828,0.1797c-0.1514,0.9531-0.5381,1.6992-1.1602,2.2383s-1.3867,0.8086-2.293,0.8086
		c-1.1357,0-2.0479-0.3711-2.7383-1.1133s-1.0352-1.8057-1.0352-3.1914c0-0.8955,0.1484-1.6797,0.4453-2.3516
		s0.749-1.1758,1.3555-1.5117s1.2666-0.5039,1.9805-0.5039c0.9014,0,1.6377,0.2275,2.2109,0.6836s0.9404,1.1025,1.1016,1.9414
		l-1.3672,0.2109c-0.1299-0.5576-0.3604-0.9766-0.6914-1.2578s-0.7305-0.4219-1.1992-0.4219c-0.708,0-1.2842,0.2539-1.7266,0.7617
		s-0.6641,1.3115-0.6641,2.4102c0,1.1143,0.2139,1.9248,0.6406,2.4297s0.9844,0.7578,1.6719,0.7578
		c0.5518,0,1.0127-0.1689,1.3828-0.5078S122.673,40.4669,122.7717,39.7638z"/>
	<path d="M131.0373,40.131l1.4531,0.1797c-0.2295,0.8486-0.6533,1.5078-1.2734,1.9766s-1.4111,0.7031-2.375,0.7031
		c-1.2139,0-2.1758-0.374-2.8867-1.1211s-1.0664-1.7959-1.0664-3.1445c0-1.3955,0.3594-2.4795,1.0781-3.25
		s1.6514-1.1563,2.7969-1.1563c1.1094,0,2.0156,0.3779,2.7188,1.1328s1.0547,1.8174,1.0547,3.1875
		c0,0.083-0.0029,0.208-0.0078,0.375h-6.1875c0.0518,0.9111,0.3096,1.6094,0.7734,2.0938s1.042,0.7266,1.7344,0.7266
		c0.5156,0,0.9561-0.1357,1.3203-0.4063S130.8234,40.7248,131.0373,40.131z M126.4201,37.8576h4.6328
		c-0.0625-0.6982-0.2393-1.2217-0.5313-1.5703c-0.4482-0.542-1.0283-0.8125-1.7422-0.8125c-0.6455,0-1.1885,0.2158-1.6289,0.6484
		S126.467,37.1339,126.4201,37.8576z"/>
	<path d="M144.0842,42.8029V41.756c-0.5264,0.8232-1.2998,1.2344-2.3203,1.2344c-0.6611,0-1.2695-0.1826-1.8242-0.5469
		s-0.9844-0.874-1.2891-1.5273s-0.457-1.4053-0.457-2.2539c0-0.8281,0.1377-1.5791,0.4141-2.2539s0.6904-1.1914,1.2422-1.5508
		s1.1689-0.5391,1.8516-0.5391c0.5,0,0.9453,0.1055,1.3359,0.3164s0.708,0.4854,0.9531,0.8242v-4.1094h1.3984v11.4531H144.0842z
		 M139.6389,38.6623c0,1.0625,0.2236,1.8564,0.6719,2.3828s0.9766,0.7891,1.5859,0.7891c0.6143,0,1.1367-0.251,1.5664-0.7539
		s0.6445-1.2695,0.6445-2.3008c0-1.1357-0.2188-1.9688-0.6563-2.5s-0.9766-0.7969-1.6172-0.7969
		c-0.625,0-1.1475,0.2549-1.5664,0.7656S139.6389,37.5636,139.6389,38.6623z"/>
	<path d="M153.2795,40.131l1.4531,0.1797c-0.2295,0.8486-0.6533,1.5078-1.2734,1.9766s-1.4111,0.7031-2.375,0.7031
		c-1.2139,0-2.1758-0.374-2.8867-1.1211s-1.0664-1.7959-1.0664-3.1445c0-1.3955,0.3594-2.4795,1.0781-3.25
		s1.6514-1.1563,2.7969-1.1563c1.1094,0,2.0156,0.3779,2.7188,1.1328s1.0547,1.8174,1.0547,3.1875
		c0,0.083-0.0029,0.208-0.0078,0.375h-6.1875c0.0518,0.9111,0.3096,1.6094,0.7734,2.0938s1.042,0.7266,1.7344,0.7266
		c0.5156,0,0.9561-0.1357,1.3203-0.4063S153.0656,40.7248,153.2795,40.131z M148.6623,37.8576h4.6328
		c-0.0625-0.6982-0.2393-1.2217-0.5313-1.5703c-0.4482-0.542-1.0283-0.8125-1.7422-0.8125c-0.6455,0-1.1885,0.2158-1.6289,0.6484
		S148.7092,37.1339,148.6623,37.8576z"/>
	<path d="M160.9123,42.8029V31.3498h1.4063v11.4531H160.9123z"/>
	<path d="M169.9123,41.7794c-0.5205,0.4424-1.0225,0.7549-1.5039,0.9375s-0.999,0.2734-1.5508,0.2734
		c-0.9111,0-1.6123-0.2227-2.1016-0.668s-0.7344-1.0146-0.7344-1.707c0-0.4063,0.0928-0.7773,0.2773-1.1133
		s0.4268-0.6055,0.7266-0.8086s0.6367-0.3564,1.0117-0.4609c0.2764-0.0732,0.6924-0.1436,1.25-0.2109
		c1.1357-0.1357,1.9717-0.2969,2.5078-0.4844c0.0049-0.1924,0.0078-0.3154,0.0078-0.3672c0-0.5732-0.1328-0.9766-0.3984-1.2109
		c-0.3594-0.3174-0.8936-0.4766-1.6016-0.4766c-0.6611,0-1.1494,0.1162-1.4648,0.3477s-0.5479,0.6416-0.6992,1.2305l-1.375-0.1875
		c0.125-0.5889,0.3311-1.0635,0.6172-1.4258s0.7002-0.6406,1.2422-0.8359s1.1689-0.293,1.8828-0.293
		c0.708,0,1.2842,0.083,1.7266,0.25s0.7686,0.376,0.9766,0.6289s0.3545,0.5713,0.4375,0.957
		c0.0469,0.2393,0.0703,0.6719,0.0703,1.2969v1.875c0,1.3076,0.0303,2.1338,0.0898,2.4805s0.1787,0.6787,0.3555,0.9961h-1.4688
		C170.048,42.5109,169.9543,42.1701,169.9123,41.7794z M169.7951,38.6388c-0.5107,0.208-1.2764,0.3857-2.2969,0.5313
		c-0.5781,0.083-0.9873,0.1768-1.2266,0.2813s-0.4248,0.2568-0.5547,0.457s-0.1953,0.4229-0.1953,0.668
		c0,0.375,0.1416,0.6875,0.4258,0.9375s0.6992,0.375,1.2461,0.375c0.542,0,1.0234-0.1182,1.4453-0.3555s0.7314-0.5615,0.9297-0.9727
		c0.1514-0.3174,0.2266-0.7861,0.2266-1.4063V38.6388z"/>
	<path d="M177.842,42.8029V34.506h1.2656v1.1797c0.6094-0.9111,1.4893-1.3672,2.6406-1.3672c0.5,0,0.96,0.0898,1.3789,0.2695
		s0.7334,0.415,0.9414,0.707s0.3545,0.6377,0.4375,1.0391c0.0518,0.2607,0.0781,0.7158,0.0781,1.3672v5.1016h-1.4063V37.756
		c0-0.5732-0.0547-1.001-0.1641-1.2852s-0.3037-0.5107-0.582-0.6797s-0.6055-0.2539-0.9805-0.2539
		c-0.5986,0-1.1162,0.1904-1.5508,0.5703s-0.6523,1.1016-0.6523,2.1641v4.5313H177.842z"/>
	<path d="M186.217,38.6544c0-1.5361,0.4268-2.6748,1.2813-3.4141c0.7139-0.6143,1.583-0.9219,2.6094-0.9219
		c1.1406,0,2.0732,0.374,2.7969,1.1211s1.0859,1.7803,1.0859,3.0977c0,1.0674-0.1602,1.9072-0.4805,2.5195
		s-0.7861,1.0869-1.3984,1.4258s-1.2803,0.5078-2.0039,0.5078c-1.1611,0-2.1006-0.3721-2.8164-1.1172
		S186.217,40.0558,186.217,38.6544z M187.6623,38.6544c0,1.0625,0.2314,1.8584,0.6953,2.3867s1.0469,0.793,1.75,0.793
		c0.6982,0,1.2783-0.2656,1.7422-0.7969s0.6953-1.3408,0.6953-2.4297c0-1.0264-0.2334-1.8037-0.6992-2.332
		s-1.0459-0.793-1.7383-0.793c-0.7031,0-1.2861,0.2627-1.75,0.7891S187.6623,37.5919,187.6623,38.6544z"/>
	<path d="M195.6232,42.8029V34.506h1.2656v1.2578c0.3232-0.5889,0.6211-0.9766,0.8945-1.1641s0.5742-0.2813,0.9023-0.2813
		c0.4736,0,0.9561,0.1514,1.4453,0.4531l-0.4844,1.3047c-0.3438-0.2031-0.6875-0.3047-1.0313-0.3047
		c-0.3076,0-0.583,0.0928-0.8281,0.2773s-0.4189,0.4414-0.5234,0.7695c-0.1563,0.5-0.2344,1.0469-0.2344,1.6406v4.3438H195.6232z"/>
	<path d="M200.967,42.8029V34.506h1.2578v1.1641c0.2607-0.4063,0.6064-0.7334,1.0391-0.9805s0.9248-0.3711,1.4766-0.3711
		c0.6143,0,1.1182,0.1279,1.5117,0.3828s0.6709,0.6123,0.832,1.0703c0.6563-0.9688,1.5107-1.4531,2.5625-1.4531
		c0.8232,0,1.4561,0.2275,1.8984,0.6836s0.6641,1.1572,0.6641,2.1055v5.6953h-1.3984v-5.2266c0-0.5625-0.0459-0.9678-0.1367-1.2148
		s-0.2568-0.4463-0.4961-0.5977s-0.5205-0.2266-0.8438-0.2266c-0.583,0-1.0674,0.1943-1.4531,0.582s-0.5781,1.0088-0.5781,1.8633
		v4.8203h-1.4063v-5.3906c0-0.625-0.1143-1.0938-0.3438-1.4063s-0.6045-0.4688-1.125-0.4688c-0.3955,0-0.7617,0.1045-1.0977,0.3125
		s-0.5791,0.5127-0.7305,0.9141s-0.2266,0.9795-0.2266,1.7344v4.3047H200.967z"/>
	<path d="M219.7092,41.7794c-0.5205,0.4424-1.0225,0.7549-1.5039,0.9375s-0.999,0.2734-1.5508,0.2734
		c-0.9111,0-1.6123-0.2227-2.1016-0.668s-0.7344-1.0146-0.7344-1.707c0-0.4063,0.0928-0.7773,0.2773-1.1133
		s0.4268-0.6055,0.7266-0.8086s0.6367-0.3564,1.0117-0.4609c0.2764-0.0732,0.6924-0.1436,1.25-0.2109
		c1.1357-0.1357,1.9717-0.2969,2.5078-0.4844c0.0049-0.1924,0.0078-0.3154,0.0078-0.3672c0-0.5732-0.1328-0.9766-0.3984-1.2109
		c-0.3594-0.3174-0.8936-0.4766-1.6016-0.4766c-0.6611,0-1.1494,0.1162-1.4648,0.3477s-0.5479,0.6416-0.6992,1.2305l-1.375-0.1875
		c0.125-0.5889,0.3311-1.0635,0.6172-1.4258s0.7002-0.6406,1.2422-0.8359s1.1689-0.293,1.8828-0.293
		c0.708,0,1.2842,0.083,1.7266,0.25s0.7686,0.376,0.9766,0.6289s0.3545,0.5713,0.4375,0.957
		c0.0469,0.2393,0.0703,0.6719,0.0703,1.2969v1.875c0,1.3076,0.0303,2.1338,0.0898,2.4805s0.1787,0.6787,0.3555,0.9961h-1.4688
		C219.8449,42.5109,219.7512,42.1701,219.7092,41.7794z M219.592,38.6388c-0.5107,0.208-1.2764,0.3857-2.2969,0.5313
		c-0.5781,0.083-0.9873,0.1768-1.2266,0.2813s-0.4248,0.2568-0.5547,0.457s-0.1953,0.4229-0.1953,0.668
		c0,0.375,0.1416,0.6875,0.4258,0.9375s0.6992,0.375,1.2461,0.375c0.542,0,1.0234-0.1182,1.4453-0.3555s0.7314-0.5615,0.9297-0.9727
		c0.1514-0.3174,0.2266-0.7861,0.2266-1.4063V38.6388z"/>
	<path d="M223.5842,36.1076V34.506h1.6016v1.6016H223.5842z M223.5842,42.8029v-1.6016h1.6016v1.6016H223.5842z"/>
</g>
<g>
	<path style="fill:#E0E0E0;" d="M84.8516,83.128c-6.8311,0-12.3692,5.5381-12.3692,12.3691c0,6.832,5.5381,12.3701,12.3692,12.3701
		c6.832,0,12.3701-5.5381,12.3701-12.3701C97.2217,88.6661,91.6836,83.128,84.8516,83.128z M84.8516,102.7686
		c-4.0157,0-7.2705-3.2559-7.2705-7.2715s3.2548-7.2705,7.2705-7.2705c4.0156,0,7.2714,3.2549,7.2714,7.2705
		S88.8672,102.7686,84.8516,102.7686z"/>
	<g>
		<polygon style="fill:#4EA700;" points="83.9443,103.6368 73.126,92.8174 77.0391,88.9053 83.8066,95.6729 99.0957,79.2832 
			103.1416,83.0577 		"/>
	</g>
</g>
<g>
	<path style="fill:#E0E0E0;" d="M84.8516,141.128c-6.8311,0-12.3692,5.5381-12.3692,12.3691c0,6.832,5.5381,12.3701,12.3692,12.3701
		c6.832,0,12.3701-5.5381,12.3701-12.3701C97.2217,146.6661,91.6836,141.128,84.8516,141.128z M84.8516,160.7686
		c-4.0157,0-7.2705-3.2559-7.2705-7.2715s3.2548-7.2705,7.2705-7.2705c4.0156,0,7.2714,3.2549,7.2714,7.2705
		S88.8672,160.7686,84.8516,160.7686z"/>
	<g>
		<polygon style="fill:#4EA700;" points="83.9443,161.6368 73.126,150.8174 77.0391,146.9053 83.8066,153.6729 99.0957,137.2832 
			103.1416,141.0577 		"/>
	</g>
</g>
<g>
	<path style="fill:#E0E0E0;" d="M84.8516,176.128c-6.8311,0-12.3692,5.5381-12.3692,12.3691c0,6.832,5.5381,12.3701,12.3692,12.3701
		c6.832,0,12.3701-5.5381,12.3701-12.3701C97.2217,181.6661,91.6836,176.128,84.8516,176.128z M84.8516,195.7686
		c-4.0157,0-7.2705-3.2559-7.2705-7.2715s3.2548-7.2705,7.2705-7.2705c4.0156,0,7.2714,3.2549,7.2714,7.2705
		S88.8672,195.7686,84.8516,195.7686z"/>
	<g>
		<polygon style="fill:#4EA700;" points="83.9443,196.6368 73.126,185.8174 77.0391,181.9053 83.8066,188.6729 99.0957,172.2832 
			103.1416,176.0577 		"/>
	</g>
</g>
<g>
	<path d="M109.4611,98.5695V87.1164h3.9453c0.8906,0,1.5703,0.0547,2.0391,0.1641c0.6563,0.1514,1.2158,0.4248,1.6797,0.8203
		c0.6045,0.5107,1.0557,1.1631,1.3555,1.957s0.4492,1.7021,0.4492,2.7227c0,0.8701-0.1016,1.6406-0.3047,2.3125
		s-0.4639,1.2275-0.7813,1.668s-0.665,0.7861-1.043,1.0391s-0.833,0.4443-1.3672,0.5742s-1.1475,0.1953-1.8398,0.1953H109.4611z
		 M110.9768,97.2179h2.4453c0.7549,0,1.3477-0.0703,1.7773-0.2109s0.7725-0.3389,1.0273-0.5938
		c0.3594-0.3594,0.6396-0.8428,0.8398-1.4492s0.3008-1.3428,0.3008-2.207c0-1.1982-0.1963-2.1182-0.5898-2.7617
		s-0.8711-1.0742-1.4336-1.293c-0.4063-0.1563-1.0596-0.2344-1.9609-0.2344h-2.4063V97.2179z"/>
	<path d="M126.5158,95.8976l1.4531,0.1797c-0.2295,0.8486-0.6533,1.5078-1.2734,1.9766s-1.4111,0.7031-2.375,0.7031
		c-1.2139,0-2.1758-0.374-2.8867-1.1211s-1.0664-1.7959-1.0664-3.1445c0-1.3955,0.3594-2.4795,1.0781-3.25
		s1.6514-1.1563,2.7969-1.1563c1.1094,0,2.0156,0.3779,2.7188,1.1328s1.0547,1.8174,1.0547,3.1875
		c0,0.083-0.0029,0.208-0.0078,0.375h-6.1875c0.0518,0.9111,0.3096,1.6094,0.7734,2.0938s1.042,0.7266,1.7344,0.7266
		c0.5156,0,0.9561-0.1357,1.3203-0.4063S126.302,96.4914,126.5158,95.8976z M121.8986,93.6242h4.6328
		c-0.0625-0.6982-0.2393-1.2217-0.5313-1.5703c-0.4482-0.542-1.0283-0.8125-1.7422-0.8125c-0.6455,0-1.1885,0.2158-1.6289,0.6484
		S121.9455,92.9005,121.8986,93.6242z"/>
	<path d="M129.1721,96.0929l1.3906-0.2188c0.0781,0.5576,0.2959,0.9844,0.6523,1.2813s0.8555,0.4453,1.4961,0.4453
		c0.6455,0,1.125-0.1318,1.4375-0.3945s0.4688-0.5713,0.4688-0.9258c0-0.3174-0.1377-0.5674-0.4141-0.75
		c-0.1924-0.125-0.6719-0.2842-1.4375-0.4766c-1.0313-0.2607-1.7461-0.4854-2.1445-0.6758s-0.7002-0.4531-0.9063-0.7891
		s-0.3086-0.707-0.3086-1.1133c0-0.3701,0.085-0.7119,0.2539-1.0273s0.3994-0.5771,0.6914-0.7852
		c0.2188-0.1611,0.5166-0.2979,0.8945-0.4102s0.7822-0.168,1.2148-0.168c0.6514,0,1.2227,0.0938,1.7148,0.2813
		s0.8555,0.4414,1.0898,0.7617s0.3955,0.749,0.4844,1.2852l-1.375,0.1875c-0.0625-0.4268-0.2432-0.7607-0.543-1
		s-0.7227-0.3594-1.2695-0.3594c-0.6455,0-1.1064,0.1064-1.3828,0.3203s-0.4141,0.4639-0.4141,0.75
		c0,0.1826,0.0576,0.3467,0.1719,0.4922c0.1143,0.1514,0.2939,0.2764,0.5391,0.375c0.1406,0.0518,0.5547,0.1719,1.2422,0.3594
		c0.9951,0.2656,1.6885,0.4834,2.082,0.6523s0.7021,0.415,0.9258,0.7383s0.3359,0.7236,0.3359,1.2031
		c0,0.4688-0.1367,0.9102-0.4102,1.3242s-0.668,0.7344-1.1836,0.9609s-1.0986,0.3398-1.75,0.3398
		c-1.0781,0-1.8994-0.2236-2.4648-0.6719S129.3283,96.9728,129.1721,96.0929z"/>
	<path d="M143.1486,97.5461c-0.5205,0.4424-1.0225,0.7549-1.5039,0.9375s-0.999,0.2734-1.5508,0.2734
		c-0.9111,0-1.6123-0.2227-2.1016-0.668s-0.7344-1.0146-0.7344-1.707c0-0.4063,0.0928-0.7773,0.2773-1.1133
		s0.4268-0.6055,0.7266-0.8086s0.6367-0.3564,1.0117-0.4609c0.2764-0.0732,0.6924-0.1436,1.25-0.2109
		c1.1357-0.1357,1.9717-0.2969,2.5078-0.4844c0.0049-0.1924,0.0078-0.3154,0.0078-0.3672c0-0.5732-0.1328-0.9766-0.3984-1.2109
		c-0.3594-0.3174-0.8936-0.4766-1.6016-0.4766c-0.6611,0-1.1494,0.1162-1.4648,0.3477s-0.5479,0.6416-0.6992,1.2305l-1.375-0.1875
		c0.125-0.5889,0.3311-1.0635,0.6172-1.4258s0.7002-0.6406,1.2422-0.8359s1.1689-0.293,1.8828-0.293
		c0.708,0,1.2842,0.083,1.7266,0.25s0.7686,0.376,0.9766,0.6289s0.3545,0.5713,0.4375,0.957
		c0.0469,0.2393,0.0703,0.6719,0.0703,1.2969v1.875c0,1.3076,0.0303,2.1338,0.0898,2.4805s0.1787,0.6787,0.3555,0.9961h-1.4688
		C143.2844,98.2775,143.1906,97.9367,143.1486,97.5461z M143.0314,94.4054c-0.5107,0.208-1.2764,0.3857-2.2969,0.5313
		c-0.5781,0.083-0.9873,0.1768-1.2266,0.2813s-0.4248,0.2568-0.5547,0.457s-0.1953,0.4229-0.1953,0.668
		c0,0.375,0.1416,0.6875,0.4258,0.9375s0.6992,0.375,1.2461,0.375c0.542,0,1.0234-0.1182,1.4453-0.3555s0.7314-0.5615,0.9297-0.9727
		c0.1514-0.3174,0.2266-0.7861,0.2266-1.4063V94.4054z"/>
	<path d="M146.6174,98.5695v-8.2969h1.2656v1.2578c0.3232-0.5889,0.6211-0.9766,0.8945-1.1641s0.5742-0.2813,0.9023-0.2813
		c0.4736,0,0.9561,0.1514,1.4453,0.4531l-0.4844,1.3047c-0.3438-0.2031-0.6875-0.3047-1.0313-0.3047
		c-0.3076,0-0.583,0.0928-0.8281,0.2773s-0.4189,0.4414-0.5234,0.7695c-0.1563,0.5-0.2344,1.0469-0.2344,1.6406v4.3438H146.6174z"/>
	<path d="M151.9455,98.5695v-8.2969h1.2656v1.2578c0.3232-0.5889,0.6211-0.9766,0.8945-1.1641s0.5742-0.2813,0.9023-0.2813
		c0.4736,0,0.9561,0.1514,1.4453,0.4531l-0.4844,1.3047c-0.3438-0.2031-0.6875-0.3047-1.0313-0.3047
		c-0.3076,0-0.583,0.0928-0.8281,0.2773s-0.4189,0.4414-0.5234,0.7695c-0.1563,0.5-0.2344,1.0469-0.2344,1.6406v4.3438H151.9455z"/>
	<path d="M156.7658,94.4211c0-1.5361,0.4268-2.6748,1.2813-3.4141c0.7139-0.6143,1.583-0.9219,2.6094-0.9219
		c1.1406,0,2.0732,0.374,2.7969,1.1211s1.0859,1.7803,1.0859,3.0977c0,1.0674-0.1602,1.9072-0.4805,2.5195
		s-0.7861,1.0869-1.3984,1.4258s-1.2803,0.5078-2.0039,0.5078c-1.1611,0-2.1006-0.3721-2.8164-1.1172
		S156.7658,95.8224,156.7658,94.4211z M158.2111,94.4211c0,1.0625,0.2314,1.8584,0.6953,2.3867s1.0469,0.793,1.75,0.793
		c0.6982,0,1.2783-0.2656,1.7422-0.7969s0.6953-1.3408,0.6953-2.4297c0-1.0264-0.2334-1.8037-0.6992-2.332
		s-1.0459-0.793-1.7383-0.793c-0.7031,0-1.2861,0.2627-1.75,0.7891S158.2111,93.3586,158.2111,94.4211z"/>
	<path d="M166.1564,98.5695V87.1164h1.4063v11.4531H166.1564z"/>
	<path d="M169.7111,98.5695V87.1164h1.4063v11.4531H169.7111z"/>
	<path d="M172.7736,94.4211c0-1.5361,0.4268-2.6748,1.2813-3.4141c0.7139-0.6143,1.583-0.9219,2.6094-0.9219
		c1.1406,0,2.0732,0.374,2.7969,1.1211s1.0859,1.7803,1.0859,3.0977c0,1.0674-0.1602,1.9072-0.4805,2.5195
		s-0.7861,1.0869-1.3984,1.4258s-1.2803,0.5078-2.0039,0.5078c-1.1611,0-2.1006-0.3721-2.8164-1.1172
		S172.7736,95.8224,172.7736,94.4211z M174.2189,94.4211c0,1.0625,0.2314,1.8584,0.6953,2.3867s1.0469,0.793,1.75,0.793
		c0.6982,0,1.2783-0.2656,1.7422-0.7969s0.6953-1.3408,0.6953-2.4297c0-1.0264-0.2334-1.8037-0.6992-2.332
		s-1.0459-0.793-1.7383-0.793c-0.7031,0-1.2861,0.2627-1.75,0.7891S174.2189,93.3586,174.2189,94.4211z"/>
	<path d="M192.0236,98.5695v-1.0469c-0.5264,0.8232-1.2998,1.2344-2.3203,1.2344c-0.6611,0-1.2695-0.1826-1.8242-0.5469
		s-0.9844-0.874-1.2891-1.5273s-0.457-1.4053-0.457-2.2539c0-0.8281,0.1377-1.5791,0.4141-2.2539s0.6904-1.1914,1.2422-1.5508
		s1.1689-0.5391,1.8516-0.5391c0.5,0,0.9453,0.1055,1.3359,0.3164s0.708,0.4854,0.9531,0.8242v-4.1094h1.3984v11.4531H192.0236z
		 M187.5783,94.4289c0,1.0625,0.2236,1.8564,0.6719,2.3828s0.9766,0.7891,1.5859,0.7891c0.6143,0,1.1367-0.251,1.5664-0.7539
		s0.6445-1.2695,0.6445-2.3008c0-1.1357-0.2188-1.9688-0.6563-2.5s-0.9766-0.7969-1.6172-0.7969
		c-0.625,0-1.1475,0.2549-1.5664,0.7656S187.5783,93.3302,187.5783,94.4289z"/>
	<path d="M201.2189,95.8976l1.4531,0.1797c-0.2295,0.8486-0.6533,1.5078-1.2734,1.9766s-1.4111,0.7031-2.375,0.7031
		c-1.2139,0-2.1758-0.374-2.8867-1.1211s-1.0664-1.7959-1.0664-3.1445c0-1.3955,0.3594-2.4795,1.0781-3.25
		s1.6514-1.1563,2.7969-1.1563c1.1094,0,2.0156,0.3779,2.7188,1.1328s1.0547,1.8174,1.0547,3.1875
		c0,0.083-0.0029,0.208-0.0078,0.375h-6.1875c0.0518,0.9111,0.3096,1.6094,0.7734,2.0938s1.042,0.7266,1.7344,0.7266
		c0.5156,0,0.9561-0.1357,1.3203-0.4063S201.0051,96.4914,201.2189,95.8976z M196.6018,93.6242h4.6328
		c-0.0625-0.6982-0.2393-1.2217-0.5313-1.5703c-0.4482-0.542-1.0283-0.8125-1.7422-0.8125c-0.6455,0-1.1885,0.2158-1.6289,0.6484
		S196.6486,92.9005,196.6018,93.6242z"/>
	<path d="M208.3205,96.0929l1.3906-0.2188c0.0781,0.5576,0.2959,0.9844,0.6523,1.2813s0.8555,0.4453,1.4961,0.4453
		c0.6455,0,1.125-0.1318,1.4375-0.3945s0.4688-0.5713,0.4688-0.9258c0-0.3174-0.1377-0.5674-0.4141-0.75
		c-0.1924-0.125-0.6719-0.2842-1.4375-0.4766c-1.0313-0.2607-1.7461-0.4854-2.1445-0.6758s-0.7002-0.4531-0.9063-0.7891
		s-0.3086-0.707-0.3086-1.1133c0-0.3701,0.085-0.7119,0.2539-1.0273s0.3994-0.5771,0.6914-0.7852
		c0.2188-0.1611,0.5166-0.2979,0.8945-0.4102s0.7822-0.168,1.2148-0.168c0.6514,0,1.2227,0.0938,1.7148,0.2813
		s0.8555,0.4414,1.0898,0.7617s0.3955,0.749,0.4844,1.2852l-1.375,0.1875c-0.0625-0.4268-0.2432-0.7607-0.543-1
		s-0.7227-0.3594-1.2695-0.3594c-0.6455,0-1.1064,0.1064-1.3828,0.3203s-0.4141,0.4639-0.4141,0.75
		c0,0.1826,0.0576,0.3467,0.1719,0.4922c0.1143,0.1514,0.2939,0.2764,0.5391,0.375c0.1406,0.0518,0.5547,0.1719,1.2422,0.3594
		c0.9951,0.2656,1.6885,0.4834,2.082,0.6523s0.7021,0.415,0.9258,0.7383s0.3359,0.7236,0.3359,1.2031
		c0,0.4688-0.1367,0.9102-0.4102,1.3242s-0.668,0.7344-1.1836,0.9609s-1.0986,0.3398-1.75,0.3398
		c-1.0781,0-1.8994-0.2236-2.4648-0.6719S208.4768,96.9728,208.3205,96.0929z"/>
	<path d="M216.8908,88.7336v-1.6172h1.4063v1.6172H216.8908z M216.8908,98.5695v-8.2969h1.4063v8.2969H216.8908z"/>
	<path d="M219.8752,96.0929l1.3906-0.2188c0.0781,0.5576,0.2959,0.9844,0.6523,1.2813s0.8555,0.4453,1.4961,0.4453
		c0.6455,0,1.125-0.1318,1.4375-0.3945s0.4688-0.5713,0.4688-0.9258c0-0.3174-0.1377-0.5674-0.4141-0.75
		c-0.1924-0.125-0.6719-0.2842-1.4375-0.4766c-1.0313-0.2607-1.7461-0.4854-2.1445-0.6758s-0.7002-0.4531-0.9063-0.7891
		s-0.3086-0.707-0.3086-1.1133c0-0.3701,0.085-0.7119,0.2539-1.0273s0.3994-0.5771,0.6914-0.7852
		c0.2188-0.1611,0.5166-0.2979,0.8945-0.4102s0.7822-0.168,1.2148-0.168c0.6514,0,1.2227,0.0938,1.7148,0.2813
		s0.8555,0.4414,1.0898,0.7617s0.3955,0.749,0.4844,1.2852l-1.375,0.1875c-0.0625-0.4268-0.2432-0.7607-0.543-1
		s-0.7227-0.3594-1.2695-0.3594c-0.6455,0-1.1064,0.1064-1.3828,0.3203s-0.4141,0.4639-0.4141,0.75
		c0,0.1826,0.0576,0.3467,0.1719,0.4922c0.1143,0.1514,0.2939,0.2764,0.5391,0.375c0.1406,0.0518,0.5547,0.1719,1.2422,0.3594
		c0.9951,0.2656,1.6885,0.4834,2.082,0.6523s0.7021,0.415,0.9258,0.7383s0.3359,0.7236,0.3359,1.2031
		c0,0.4688-0.1367,0.9102-0.4102,1.3242s-0.668,0.7344-1.1836,0.9609s-1.0986,0.3398-1.75,0.3398
		c-1.0781,0-1.8994-0.2236-2.4648-0.6719S220.0314,96.9728,219.8752,96.0929z"/>
	<path d="M231.508,97.3117l0.2031,1.2422c-0.3955,0.083-0.75,0.125-1.0625,0.125c-0.5107,0-0.9063-0.0811-1.1875-0.2422
		s-0.4795-0.374-0.5938-0.6367s-0.1719-0.8164-0.1719-1.6602v-4.7734h-1.0313v-1.0938h1.0313v-2.0547l1.3984-0.8438v2.8984h1.4141
		v1.0938h-1.4141v4.8516c0,0.4014,0.0244,0.6592,0.0742,0.7734s0.1299,0.2061,0.2422,0.2734s0.2725,0.1016,0.4805,0.1016
		C231.0471,97.3664,231.2531,97.3478,231.508,97.3117z"/>
	<path d="M238.5627,95.8976l1.4531,0.1797c-0.2295,0.8486-0.6533,1.5078-1.2734,1.9766s-1.4111,0.7031-2.375,0.7031
		c-1.2139,0-2.1758-0.374-2.8867-1.1211s-1.0664-1.7959-1.0664-3.1445c0-1.3955,0.3594-2.4795,1.0781-3.25
		s1.6514-1.1563,2.7969-1.1563c1.1094,0,2.0156,0.3779,2.7188,1.1328s1.0547,1.8174,1.0547,3.1875
		c0,0.083-0.0029,0.208-0.0078,0.375h-6.1875c0.0518,0.9111,0.3096,1.6094,0.7734,2.0938s1.042,0.7266,1.7344,0.7266
		c0.5156,0,0.9561-0.1357,1.3203-0.4063S238.3488,96.4914,238.5627,95.8976z M233.9455,93.6242h4.6328
		c-0.0625-0.6982-0.2393-1.2217-0.5313-1.5703c-0.4482-0.542-1.0283-0.8125-1.7422-0.8125c-0.6455,0-1.1885,0.2158-1.6289,0.6484
		S233.9924,92.9005,233.9455,93.6242z"/>
	<path d="M241.7814,98.5695v-8.2969h1.2578v1.1641c0.2607-0.4063,0.6064-0.7334,1.0391-0.9805s0.9248-0.3711,1.4766-0.3711
		c0.6143,0,1.1182,0.1279,1.5117,0.3828s0.6709,0.6123,0.832,1.0703c0.6563-0.9688,1.5107-1.4531,2.5625-1.4531
		c0.8232,0,1.4561,0.2275,1.8984,0.6836s0.6641,1.1572,0.6641,2.1055v5.6953h-1.3984v-5.2266c0-0.5625-0.0459-0.9678-0.1367-1.2148
		s-0.2568-0.4463-0.4961-0.5977s-0.5205-0.2266-0.8438-0.2266c-0.583,0-1.0674,0.1943-1.4531,0.582s-0.5781,1.0088-0.5781,1.8633
		v4.8203h-1.4063v-5.3906c0-0.625-0.1143-1.0938-0.3438-1.4063s-0.6045-0.4688-1.125-0.4688c-0.3955,0-0.7617,0.1045-1.0977,0.3125
		s-0.5791,0.5127-0.7305,0.9141s-0.2266,0.9795-0.2266,1.7344v4.3047H241.7814z"/>
	<path d="M260.5236,97.5461c-0.5205,0.4424-1.0225,0.7549-1.5039,0.9375s-0.999,0.2734-1.5508,0.2734
		c-0.9111,0-1.6123-0.2227-2.1015-0.668s-0.7344-1.0146-0.7344-1.707c0-0.4063,0.0928-0.7773,0.2773-1.1133
		s0.4268-0.6055,0.7266-0.8086s0.6367-0.3564,1.0117-0.4609c0.2764-0.0732,0.6924-0.1436,1.25-0.2109
		c1.1357-0.1357,1.9717-0.2969,2.5078-0.4844c0.0049-0.1924,0.0078-0.3154,0.0078-0.3672c0-0.5732-0.1328-0.9766-0.3984-1.2109
		c-0.3594-0.3174-0.8936-0.4766-1.6016-0.4766c-0.6611,0-1.1494,0.1162-1.4648,0.3477s-0.5479,0.6416-0.6992,1.2305l-1.375-0.1875
		c0.125-0.5889,0.3311-1.0635,0.6172-1.4258s0.7002-0.6406,1.2422-0.8359s1.1689-0.293,1.8828-0.293
		c0.708,0,1.2842,0.083,1.7266,0.25s0.7686,0.376,0.9766,0.6289s0.3545,0.5713,0.4375,0.957
		c0.0469,0.2393,0.0703,0.6719,0.0703,1.2969v1.875c0,1.3076,0.0303,2.1338,0.0898,2.4805s0.1787,0.6787,0.3555,0.9961h-1.4688
		C260.6594,98.2775,260.5656,97.9367,260.5236,97.5461z M260.4064,94.4054c-0.5107,0.208-1.2764,0.3857-2.2969,0.5313
		c-0.5781,0.083-0.9873,0.1768-1.2266,0.2813s-0.4248,0.2568-0.5547,0.457s-0.1953,0.4229-0.1953,0.668
		c0,0.375,0.1416,0.6875,0.4258,0.9375s0.6992,0.375,1.2461,0.375c0.542,0,1.0234-0.1182,1.4453-0.3555s0.7314-0.5615,0.9297-0.9727
		c0.1514-0.3174,0.2266-0.7861,0.2266-1.4063V94.4054z"/>
	<path d="M263.4455,96.0929l1.3906-0.2188c0.0781,0.5576,0.2959,0.9844,0.6523,1.2813s0.8555,0.4453,1.4961,0.4453
		c0.6455,0,1.125-0.1318,1.4375-0.3945s0.4688-0.5713,0.4688-0.9258c0-0.3174-0.1377-0.5674-0.4141-0.75
		c-0.1924-0.125-0.6719-0.2842-1.4375-0.4766c-1.0313-0.2607-1.7461-0.4854-2.1445-0.6758s-0.7002-0.4531-0.9063-0.7891
		s-0.3086-0.707-0.3086-1.1133c0-0.3701,0.085-0.7119,0.2539-1.0273s0.3994-0.5771,0.6914-0.7852
		c0.2188-0.1611,0.5166-0.2979,0.8945-0.4102s0.7822-0.168,1.2148-0.168c0.6514,0,1.2227,0.0938,1.7148,0.2813
		s0.8555,0.4414,1.0898,0.7617s0.3955,0.749,0.4844,1.2852l-1.375,0.1875c-0.0625-0.4268-0.2432-0.7607-0.543-1
		s-0.7227-0.3594-1.2695-0.3594c-0.6455,0-1.1064,0.1064-1.3828,0.3203s-0.4141,0.4639-0.4141,0.75
		c0,0.1826,0.0576,0.3467,0.1719,0.4922c0.1143,0.1514,0.2939,0.2764,0.5391,0.375c0.1406,0.0518,0.5547,0.1719,1.2422,0.3594
		c0.9951,0.2656,1.6885,0.4834,2.082,0.6523s0.7021,0.415,0.9258,0.7383s0.3359,0.7236,0.3359,1.2031
		c0,0.4688-0.1367,0.9102-0.4102,1.3242s-0.668,0.7344-1.1836,0.9609s-1.0986,0.3398-1.75,0.3398
		c-1.0781,0-1.8994-0.2236-2.4648-0.6719S263.6017,96.9728,263.4455,96.0929z"/>
	<path d="M281.8361,98.5695v-1.0469c-0.5264,0.8232-1.2998,1.2344-2.3203,1.2344c-0.6611,0-1.2695-0.1826-1.8242-0.5469
		s-0.9844-0.874-1.2891-1.5273s-0.457-1.4053-0.457-2.2539c0-0.8281,0.1377-1.5791,0.4141-2.2539s0.6904-1.1914,1.2422-1.5508
		s1.1689-0.5391,1.8516-0.5391c0.5,0,0.9453,0.1055,1.3359,0.3164s0.708,0.4854,0.9531,0.8242v-4.1094h1.3984v11.4531H281.8361z
		 M277.3908,94.4289c0,1.0625,0.2236,1.8564,0.6719,2.3828s0.9766,0.7891,1.5859,0.7891c0.6143,0,1.1367-0.251,1.5664-0.7539
		s0.6445-1.2695,0.6445-2.3008c0-1.1357-0.2188-1.9688-0.6563-2.5s-0.9766-0.7969-1.6172-0.7969
		c-0.625,0-1.1475,0.2549-1.5664,0.7656S277.3908,93.3302,277.3908,94.4289z"/>
	<path d="M291.0314,95.8976l1.4531,0.1797c-0.2295,0.8486-0.6533,1.5078-1.2734,1.9766s-1.4111,0.7031-2.375,0.7031
		c-1.2139,0-2.1758-0.374-2.8867-1.1211s-1.0664-1.7959-1.0664-3.1445c0-1.3955,0.3594-2.4795,1.0781-3.25
		s1.6514-1.1563,2.7969-1.1563c1.1094,0,2.0156,0.3779,2.7188,1.1328s1.0547,1.8174,1.0547,3.1875
		c0,0.083-0.0029,0.208-0.0078,0.375h-6.1875c0.0518,0.9111,0.3096,1.6094,0.7734,2.0938s1.042,0.7266,1.7344,0.7266
		c0.5156,0,0.9561-0.1357,1.3203-0.4063S290.8176,96.4914,291.0314,95.8976z M286.4142,93.6242h4.6328
		c-0.0625-0.6982-0.2393-1.2217-0.5313-1.5703c-0.4482-0.542-1.0283-0.8125-1.7422-0.8125c-0.6455,0-1.1885,0.2158-1.6289,0.6484
		S286.4611,92.9005,286.4142,93.6242z"/>
	<path d="M109.2893,107.9337v-1.6172h1.4063v1.6172H109.2893z M109.2893,117.7697v-8.2969h1.4063v8.2969H109.2893z"/>
	<path d="M112.8361,117.7697v-8.2969h1.2656v1.1797c0.6094-0.9111,1.4893-1.3672,2.6406-1.3672c0.5,0,0.96,0.0898,1.3789,0.2695
		s0.7334,0.415,0.9414,0.707s0.3545,0.6377,0.4375,1.0391c0.0518,0.2607,0.0781,0.7158,0.0781,1.3672v5.1016h-1.4063v-5.0469
		c0-0.5732-0.0547-1.001-0.1641-1.2852s-0.3037-0.5107-0.582-0.6797s-0.6055-0.2539-0.9805-0.2539
		c-0.5986,0-1.1162,0.1904-1.5508,0.5703s-0.6523,1.1016-0.6523,2.1641v4.5313H112.8361z"/>
	<path d="M122.0705,117.7697v-7.2031h-1.2422v-1.0938h1.2422V108.59c0-0.5576,0.0498-0.9717,0.1484-1.2422
		c0.1357-0.3643,0.374-0.6602,0.7148-0.8867s0.8193-0.3398,1.4336-0.3398c0.3955,0,0.833,0.0469,1.3125,0.1406l-0.2109,1.2266
		c-0.292-0.0518-0.5674-0.0781-0.8281-0.0781c-0.4268,0-0.7295,0.0908-0.9063,0.2734s-0.2656,0.5234-0.2656,1.0234v0.7656h1.6172
		v1.0938h-1.6172v7.2031H122.0705z"/>
	<path d="M125.6564,113.6212c0-1.5361,0.4268-2.6748,1.2813-3.4141c0.7139-0.6143,1.583-0.9219,2.6094-0.9219
		c1.1406,0,2.0732,0.374,2.7969,1.1211s1.0859,1.7803,1.0859,3.0977c0,1.0674-0.1602,1.9072-0.4805,2.5195
		s-0.7861,1.0869-1.3984,1.4258s-1.2803,0.5078-2.0039,0.5078c-1.1611,0-2.1006-0.3721-2.8164-1.1172
		S125.6564,115.0226,125.6564,113.6212z M127.1018,113.6212c0,1.0625,0.2314,1.8584,0.6953,2.3867s1.0469,0.793,1.75,0.793
		c0.6982,0,1.2783-0.2656,1.7422-0.7969s0.6953-1.3408,0.6953-2.4297c0-1.0264-0.2334-1.8037-0.6992-2.332
		s-1.0459-0.793-1.7383-0.793c-0.7031,0-1.2861,0.2627-1.75,0.7891S127.1018,112.5587,127.1018,113.6212z"/>
	<path d="M135.0627,117.7697v-8.2969h1.2656v1.2578c0.3232-0.5889,0.6211-0.9766,0.8945-1.1641s0.5742-0.2813,0.9023-0.2813
		c0.4736,0,0.9561,0.1514,1.4453,0.4531l-0.4844,1.3047c-0.3438-0.2031-0.6875-0.3047-1.0313-0.3047
		c-0.3076,0-0.583,0.0928-0.8281,0.2773s-0.4189,0.4414-0.5234,0.7695c-0.1563,0.5-0.2344,1.0469-0.2344,1.6406v4.3438H135.0627z"/>
	<path d="M140.4064,117.7697v-8.2969h1.2578v1.1641c0.2607-0.4063,0.6064-0.7334,1.0391-0.9805s0.9248-0.3711,1.4766-0.3711
		c0.6143,0,1.1182,0.1279,1.5117,0.3828s0.6709,0.6123,0.832,1.0703c0.6563-0.9688,1.5107-1.4531,2.5625-1.4531
		c0.8232,0,1.4561,0.2275,1.8984,0.6836s0.6641,1.1572,0.6641,2.1055v5.6953h-1.3984v-5.2266c0-0.5625-0.0459-0.9678-0.1367-1.2148
		s-0.2568-0.4463-0.4961-0.5977s-0.5205-0.2266-0.8438-0.2266c-0.583,0-1.0674,0.1943-1.4531,0.582s-0.5781,1.0088-0.5781,1.8633
		v4.8203h-1.4063v-5.3906c0-0.625-0.1143-1.0938-0.3438-1.4063s-0.6045-0.4688-1.125-0.4688c-0.3955,0-0.7617,0.1045-1.0977,0.3125
		s-0.5791,0.5127-0.7305,0.9141s-0.2266,0.9795-0.2266,1.7344v4.3047H140.4064z"/>
	<path d="M159.1486,116.7462c-0.5205,0.4424-1.0225,0.7549-1.5039,0.9375s-0.999,0.2734-1.5508,0.2734
		c-0.9111,0-1.6123-0.2227-2.1016-0.668s-0.7344-1.0146-0.7344-1.707c0-0.4063,0.0928-0.7773,0.2773-1.1133
		s0.4268-0.6055,0.7266-0.8086s0.6367-0.3564,1.0117-0.4609c0.2764-0.0732,0.6924-0.1436,1.25-0.2109
		c1.1357-0.1357,1.9717-0.2969,2.5078-0.4844c0.0049-0.1924,0.0078-0.3154,0.0078-0.3672c0-0.5732-0.1328-0.9766-0.3984-1.2109
		c-0.3594-0.3174-0.8936-0.4766-1.6016-0.4766c-0.6611,0-1.1494,0.1162-1.4648,0.3477s-0.5479,0.6416-0.6992,1.2305l-1.375-0.1875
		c0.125-0.5889,0.3311-1.0635,0.6172-1.4258s0.7002-0.6406,1.2422-0.8359s1.1689-0.293,1.8828-0.293
		c0.708,0,1.2842,0.083,1.7266,0.25s0.7686,0.376,0.9766,0.6289s0.3545,0.5713,0.4375,0.957
		c0.0469,0.2393,0.0703,0.6719,0.0703,1.2969v1.875c0,1.3076,0.0303,2.1338,0.0898,2.4805s0.1787,0.6787,0.3555,0.9961h-1.4688
		C159.2844,117.4777,159.1906,117.1369,159.1486,116.7462z M159.0314,113.6056c-0.5107,0.208-1.2764,0.3857-2.2969,0.5313
		c-0.5781,0.083-0.9873,0.1768-1.2266,0.2813s-0.4248,0.2568-0.5547,0.457s-0.1953,0.4229-0.1953,0.668
		c0,0.375,0.1416,0.6875,0.4258,0.9375s0.6992,0.375,1.2461,0.375c0.542,0,1.0234-0.1182,1.4453-0.3555s0.7314-0.5615,0.9297-0.9727
		c0.1514-0.3174,0.2266-0.7861,0.2266-1.4063V113.6056z"/>
	<path d="M168.0471,114.7306l1.3828,0.1797c-0.1514,0.9531-0.5381,1.6992-1.1602,2.2383s-1.3867,0.8086-2.293,0.8086
		c-1.1357,0-2.0479-0.3711-2.7383-1.1133s-1.0352-1.8057-1.0352-3.1914c0-0.8955,0.1484-1.6797,0.4453-2.3516
		s0.749-1.1758,1.3555-1.5117s1.2666-0.5039,1.9805-0.5039c0.9014,0,1.6377,0.2275,2.2109,0.6836s0.9404,1.1025,1.1016,1.9414
		l-1.3672,0.2109c-0.1299-0.5576-0.3604-0.9766-0.6914-1.2578s-0.7305-0.4219-1.1992-0.4219c-0.708,0-1.2842,0.2539-1.7266,0.7617
		s-0.6641,1.3115-0.6641,2.4102c0,1.1143,0.2139,1.9248,0.6406,2.4297s0.9844,0.7578,1.6719,0.7578
		c0.5518,0,1.0127-0.1689,1.3828-0.5078S167.9484,115.4337,168.0471,114.7306z"/>
	<path d="M170.6408,107.9337v-1.6172h1.4063v1.6172H170.6408z M170.6408,117.7697v-8.2969h1.4063v8.2969H170.6408z"/>
	<path d="M173.6643,113.6212c0-1.5361,0.4268-2.6748,1.2813-3.4141c0.7139-0.6143,1.583-0.9219,2.6094-0.9219
		c1.1406,0,2.0732,0.374,2.7969,1.1211s1.0859,1.7803,1.0859,3.0977c0,1.0674-0.1602,1.9072-0.4805,2.5195
		s-0.7861,1.0869-1.3984,1.4258s-1.2803,0.5078-2.0039,0.5078c-1.1611,0-2.1006-0.3721-2.8164-1.1172
		S173.6643,115.0226,173.6643,113.6212z M175.1096,113.6212c0,1.0625,0.2314,1.8584,0.6953,2.3867s1.0469,0.793,1.75,0.793
		c0.6982,0,1.2783-0.2656,1.7422-0.7969s0.6953-1.3408,0.6953-2.4297c0-1.0264-0.2334-1.8037-0.6992-2.332
		s-1.0459-0.793-1.7383-0.793c-0.7031,0-1.2861,0.2627-1.75,0.7891S175.1096,112.5587,175.1096,113.6212z M176.7736,108.4416
		l1.0391-2.1875h1.8438l-1.7188,2.1875H176.7736z"/>
	<path d="M183.0861,117.7697v-8.2969h1.2656v1.1797c0.6094-0.9111,1.4893-1.3672,2.6406-1.3672c0.5,0,0.96,0.0898,1.3789,0.2695
		s0.7334,0.415,0.9414,0.707s0.3545,0.6377,0.4375,1.0391c0.0518,0.2607,0.0781,0.7158,0.0781,1.3672v5.1016h-1.4063v-5.0469
		c0-0.5732-0.0547-1.001-0.1641-1.2852s-0.3037-0.5107-0.582-0.6797s-0.6055-0.2539-0.9805-0.2539
		c-0.5986,0-1.1162,0.1904-1.5508,0.5703s-0.6523,1.1016-0.6523,2.1641v4.5313H183.0861z"/>
	<path d="M192.383,117.7697v-1.6016h1.6016v1.6016H192.383z"/>
	<path d="M109.4611,156.1691V144.716h4.3203c0.7607,0,1.3408,0.0361,1.7422,0.1094c0.5625,0.0938,1.0342,0.2725,1.4141,0.5352
		s0.6865,0.6318,0.918,1.1055s0.3477,0.9951,0.3477,1.5625c0,0.9736-0.3096,1.7979-0.9297,2.4727s-1.7393,1.0117-3.3594,1.0117
		h-2.9375v4.6563H109.4611z M110.9768,150.1613h2.9609c0.9795,0,1.6748-0.1826,2.0859-0.5469s0.6172-0.8779,0.6172-1.5391
		c0-0.4795-0.1211-0.8896-0.3633-1.2305s-0.5615-0.5664-0.957-0.6758c-0.2549-0.0674-0.7266-0.1016-1.4141-0.1016h-2.9297V150.1613z
		"/>
	<path d="M119.9377,156.1691v-8.2969h1.2656v1.2578c0.3232-0.5889,0.6211-0.9766,0.8945-1.1641s0.5742-0.2813,0.9023-0.2813
		c0.4736,0,0.9561,0.1514,1.4453,0.4531l-0.4844,1.3047c-0.3438-0.2031-0.6875-0.3047-1.0313-0.3047
		c-0.3076,0-0.583,0.0928-0.8281,0.2773s-0.4189,0.4414-0.5234,0.7695c-0.1563,0.5-0.2344,1.0469-0.2344,1.6406v4.3438H119.9377z"/>
	<path d="M124.758,152.0207c0-1.5361,0.4268-2.6748,1.2813-3.4141c0.7139-0.6143,1.583-0.9219,2.6094-0.9219
		c1.1406,0,2.0732,0.374,2.7969,1.1211s1.0859,1.7803,1.0859,3.0977c0,1.0674-0.1602,1.9072-0.4805,2.5195
		s-0.7861,1.0869-1.3984,1.4258s-1.2803,0.5078-2.0039,0.5078c-1.1611,0-2.1006-0.3721-2.8164-1.1172
		S124.758,153.422,124.758,152.0207z M126.2033,152.0207c0,1.0625,0.2314,1.8584,0.6953,2.3867s1.0469,0.793,1.75,0.793
		c0.6982,0,1.2783-0.2656,1.7422-0.7969s0.6953-1.3408,0.6953-2.4297c0-1.0264-0.2334-1.8037-0.6992-2.332
		s-1.0459-0.793-1.7383-0.793c-0.7031,0-1.2861,0.2627-1.75,0.7891S126.2033,150.9582,126.2033,152.0207z"/>
	<path d="M139.5939,153.13l1.3828,0.1797c-0.1514,0.9531-0.5381,1.6992-1.1602,2.2383s-1.3867,0.8086-2.293,0.8086
		c-1.1357,0-2.0479-0.3711-2.7383-1.1133s-1.0352-1.8057-1.0352-3.1914c0-0.8955,0.1484-1.6797,0.4453-2.3516
		s0.749-1.1758,1.3555-1.5117s1.2666-0.5039,1.9805-0.5039c0.9014,0,1.6377,0.2275,2.2109,0.6836s0.9404,1.1025,1.1016,1.9414
		l-1.3672,0.2109c-0.1299-0.5576-0.3604-0.9766-0.6914-1.2578s-0.7305-0.4219-1.1992-0.4219c-0.708,0-1.2842,0.2539-1.7266,0.7617
		s-0.6641,1.3115-0.6641,2.4102c0,1.1143,0.2139,1.9248,0.6406,2.4297s0.9844,0.7578,1.6719,0.7578
		c0.5518,0,1.0127-0.1689,1.3828-0.5078S139.4953,153.8332,139.5939,153.13z"/>
	<path d="M147.8596,153.4972l1.4531,0.1797c-0.2295,0.8486-0.6533,1.5078-1.2734,1.9766s-1.4111,0.7031-2.375,0.7031
		c-1.2139,0-2.1758-0.374-2.8867-1.1211s-1.0664-1.7959-1.0664-3.1445c0-1.3955,0.3594-2.4795,1.0781-3.25
		s1.6514-1.1563,2.7969-1.1563c1.1094,0,2.0156,0.3779,2.7188,1.1328s1.0547,1.8174,1.0547,3.1875
		c0,0.083-0.0029,0.208-0.0078,0.375h-6.1875c0.0518,0.9111,0.3096,1.6094,0.7734,2.0938s1.042,0.7266,1.7344,0.7266
		c0.5156,0,0.9561-0.1357,1.3203-0.4063S147.6457,154.091,147.8596,153.4972z M143.2424,151.2238h4.6328
		c-0.0625-0.6982-0.2393-1.2217-0.5313-1.5703c-0.4482-0.542-1.0283-0.8125-1.7422-0.8125c-0.6455,0-1.1885,0.2158-1.6289,0.6484
		S143.2893,150.5002,143.2424,151.2238z"/>
	<path d="M150.5158,153.6925l1.3906-0.2188c0.0781,0.5576,0.2959,0.9844,0.6523,1.2813s0.8555,0.4453,1.4961,0.4453
		c0.6455,0,1.125-0.1318,1.4375-0.3945s0.4688-0.5713,0.4688-0.9258c0-0.3174-0.1377-0.5674-0.4141-0.75
		c-0.1924-0.125-0.6719-0.2842-1.4375-0.4766c-1.0313-0.2607-1.7461-0.4854-2.1445-0.6758s-0.7002-0.4531-0.9063-0.7891
		s-0.3086-0.707-0.3086-1.1133c0-0.3701,0.085-0.7119,0.2539-1.0273s0.3994-0.5771,0.6914-0.7852
		c0.2188-0.1611,0.5166-0.2979,0.8945-0.4102s0.7822-0.168,1.2148-0.168c0.6514,0,1.2227,0.0938,1.7148,0.2813
		s0.8555,0.4414,1.0898,0.7617s0.3955,0.749,0.4844,1.2852l-1.375,0.1875c-0.0625-0.4268-0.2432-0.7607-0.543-1
		s-0.7227-0.3594-1.2695-0.3594c-0.6455,0-1.1064,0.1064-1.3828,0.3203s-0.4141,0.4639-0.4141,0.75
		c0,0.1826,0.0576,0.3467,0.1719,0.4922c0.1143,0.1514,0.2939,0.2764,0.5391,0.375c0.1406,0.0518,0.5547,0.1719,1.2422,0.3594
		c0.9951,0.2656,1.6885,0.4834,2.082,0.6523s0.7021,0.415,0.9258,0.7383s0.3359,0.7236,0.3359,1.2031
		c0,0.4688-0.1367,0.9102-0.4102,1.3242s-0.668,0.7344-1.1836,0.9609s-1.0986,0.3398-1.75,0.3398
		c-1.0781,0-1.8994-0.2236-2.4648-0.6719S150.6721,154.5724,150.5158,153.6925z"/>
	<path d="M158.5549,152.0207c0-1.5361,0.4268-2.6748,1.2813-3.4141c0.7139-0.6143,1.583-0.9219,2.6094-0.9219
		c1.1406,0,2.0732,0.374,2.7969,1.1211s1.0859,1.7803,1.0859,3.0977c0,1.0674-0.1602,1.9072-0.4805,2.5195
		s-0.7861,1.0869-1.3984,1.4258s-1.2803,0.5078-2.0039,0.5078c-1.1611,0-2.1006-0.3721-2.8164-1.1172
		S158.5549,153.422,158.5549,152.0207z M160.0002,152.0207c0,1.0625,0.2314,1.8584,0.6953,2.3867s1.0469,0.793,1.75,0.793
		c0.6982,0,1.2783-0.2656,1.7422-0.7969s0.6953-1.3408,0.6953-2.4297c0-1.0264-0.2334-1.8037-0.6992-2.332
		s-1.0459-0.793-1.7383-0.793c-0.7031,0-1.2861,0.2627-1.75,0.7891S160.0002,150.9582,160.0002,152.0207z"/>
	<path d="M167.4143,153.6925l1.3906-0.2188c0.0781,0.5576,0.2959,0.9844,0.6523,1.2813s0.8555,0.4453,1.4961,0.4453
		c0.6455,0,1.125-0.1318,1.4375-0.3945s0.4688-0.5713,0.4688-0.9258c0-0.3174-0.1377-0.5674-0.4141-0.75
		c-0.1924-0.125-0.6719-0.2842-1.4375-0.4766c-1.0313-0.2607-1.7461-0.4854-2.1445-0.6758s-0.7002-0.4531-0.9063-0.7891
		s-0.3086-0.707-0.3086-1.1133c0-0.3701,0.085-0.7119,0.2539-1.0273s0.3994-0.5771,0.6914-0.7852
		c0.2188-0.1611,0.5166-0.2979,0.8945-0.4102s0.7822-0.168,1.2148-0.168c0.6514,0,1.2227,0.0938,1.7148,0.2813
		s0.8555,0.4414,1.0898,0.7617s0.3955,0.749,0.4844,1.2852l-1.375,0.1875c-0.0625-0.4268-0.2432-0.7607-0.543-1
		s-0.7227-0.3594-1.2695-0.3594c-0.6455,0-1.1064,0.1064-1.3828,0.3203s-0.4141,0.4639-0.4141,0.75
		c0,0.1826,0.0576,0.3467,0.1719,0.4922c0.1143,0.1514,0.2939,0.2764,0.5391,0.375c0.1406,0.0518,0.5547,0.1719,1.2422,0.3594
		c0.9951,0.2656,1.6885,0.4834,2.082,0.6523s0.7021,0.415,0.9258,0.7383s0.3359,0.7236,0.3359,1.2031
		c0,0.4688-0.1367,0.9102-0.4102,1.3242s-0.668,0.7344-1.1836,0.9609s-1.0986,0.3398-1.75,0.3398
		c-1.0781,0-1.8994-0.2236-2.4648-0.6719S167.5705,154.5724,167.4143,153.6925z"/>
	<path d="M185.8049,156.1691v-1.0469c-0.5264,0.8232-1.2998,1.2344-2.3203,1.2344c-0.6611,0-1.2695-0.1826-1.8242-0.5469
		s-0.9844-0.874-1.2891-1.5273s-0.457-1.4053-0.457-2.2539c0-0.8281,0.1377-1.5791,0.4141-2.2539s0.6904-1.1914,1.2422-1.5508
		s1.1689-0.5391,1.8516-0.5391c0.5,0,0.9453,0.1055,1.3359,0.3164s0.708,0.4854,0.9531,0.8242v-4.1094h1.3984v11.4531H185.8049z
		 M181.3596,152.0285c0,1.0625,0.2236,1.8564,0.6719,2.3828s0.9766,0.7891,1.5859,0.7891c0.6143,0,1.1367-0.251,1.5664-0.7539
		s0.6445-1.2695,0.6445-2.3008c0-1.1357-0.2188-1.9688-0.6563-2.5s-0.9766-0.7969-1.6172-0.7969
		c-0.625,0-1.1475,0.2549-1.5664,0.7656S181.3596,150.9298,181.3596,152.0285z"/>
	<path d="M195.0002,153.4972l1.4531,0.1797c-0.2295,0.8486-0.6533,1.5078-1.2734,1.9766s-1.4111,0.7031-2.375,0.7031
		c-1.2139,0-2.1758-0.374-2.8867-1.1211s-1.0664-1.7959-1.0664-3.1445c0-1.3955,0.3594-2.4795,1.0781-3.25
		s1.6514-1.1563,2.7969-1.1563c1.1094,0,2.0156,0.3779,2.7188,1.1328s1.0547,1.8174,1.0547,3.1875
		c0,0.083-0.0029,0.208-0.0078,0.375h-6.1875c0.0518,0.9111,0.3096,1.6094,0.7734,2.0938s1.042,0.7266,1.7344,0.7266
		c0.5156,0,0.9561-0.1357,1.3203-0.4063S194.7863,154.091,195.0002,153.4972z M190.383,151.2238h4.6328
		c-0.0625-0.6982-0.2393-1.2217-0.5313-1.5703c-0.4482-0.542-1.0283-0.8125-1.7422-0.8125c-0.6455,0-1.1885,0.2158-1.6289,0.6484
		S190.4299,150.5002,190.383,151.2238z"/>
	<path d="M198.1877,156.1691V144.716h1.4063v11.4531H198.1877z"/>
	<path d="M211.633,153.13l1.3828,0.1797c-0.1514,0.9531-0.5381,1.6992-1.1602,2.2383s-1.3867,0.8086-2.293,0.8086
		c-1.1357,0-2.0479-0.3711-2.7383-1.1133s-1.0352-1.8057-1.0352-3.1914c0-0.8955,0.1484-1.6797,0.4453-2.3516
		s0.749-1.1758,1.3555-1.5117s1.2666-0.5039,1.9805-0.5039c0.9014,0,1.6377,0.2275,2.2109,0.6836s0.9404,1.1025,1.1016,1.9414
		l-1.3672,0.2109c-0.1299-0.5576-0.3604-0.9766-0.6914-1.2578s-0.7305-0.4219-1.1992-0.4219c-0.708,0-1.2842,0.2539-1.7266,0.7617
		s-0.6641,1.3115-0.6641,2.4102c0,1.1143,0.2139,1.9248,0.6406,2.4297s0.9844,0.7578,1.6719,0.7578
		c0.5518,0,1.0127-0.1689,1.3828-0.5078S211.5344,153.8332,211.633,153.13z"/>
	<path d="M214.2268,146.3332v-1.6172h1.4063v1.6172H214.2268z M214.2268,156.1691v-8.2969h1.4063v8.2969H214.2268z"/>
	<path d="M223.1877,153.13l1.3828,0.1797c-0.1514,0.9531-0.5381,1.6992-1.1602,2.2383s-1.3867,0.8086-2.293,0.8086
		c-1.1357,0-2.0479-0.3711-2.7383-1.1133s-1.0352-1.8057-1.0352-3.1914c0-0.8955,0.1484-1.6797,0.4453-2.3516
		s0.749-1.1758,1.3555-1.5117s1.2666-0.5039,1.9805-0.5039c0.9014,0,1.6377,0.2275,2.2109,0.6836s0.9404,1.1025,1.1016,1.9414
		l-1.3672,0.2109c-0.1299-0.5576-0.3604-0.9766-0.6914-1.2578s-0.7305-0.4219-1.1992-0.4219c-0.708,0-1.2842,0.2539-1.7266,0.7617
		s-0.6641,1.3115-0.6641,2.4102c0,1.1143,0.2139,1.9248,0.6406,2.4297s0.9844,0.7578,1.6719,0.7578
		c0.5518,0,1.0127-0.1689,1.3828-0.5078S223.0891,153.8332,223.1877,153.13z"/>
	<path d="M225.7424,156.1691V144.716h1.4063v11.4531H225.7424z"/>
	<path d="M228.8049,152.0207c0-1.5361,0.4268-2.6748,1.2813-3.4141c0.7139-0.6143,1.583-0.9219,2.6094-0.9219
		c1.1406,0,2.0732,0.374,2.7969,1.1211s1.0859,1.7803,1.0859,3.0977c0,1.0674-0.1602,1.9072-0.4805,2.5195
		s-0.7861,1.0869-1.3984,1.4258s-1.2803,0.5078-2.0039,0.5078c-1.1611,0-2.1006-0.3721-2.8164-1.1172
		S228.8049,153.422,228.8049,152.0207z M230.2502,152.0207c0,1.0625,0.2314,1.8584,0.6953,2.3867s1.0469,0.793,1.75,0.793
		c0.6982,0,1.2783-0.2656,1.7422-0.7969s0.6953-1.3408,0.6953-2.4297c0-1.0264-0.2334-1.8037-0.6992-2.332
		s-1.0459-0.793-1.7383-0.793c-0.7031,0-1.2861,0.2627-1.75,0.7891S230.2502,150.9582,230.2502,152.0207z"/>
	<path d="M248.0549,156.1691v-1.0469c-0.5264,0.8232-1.2998,1.2344-2.3203,1.2344c-0.6611,0-1.2695-0.1826-1.8242-0.5469
		s-0.9844-0.874-1.2891-1.5273s-0.457-1.4053-0.457-2.2539c0-0.8281,0.1377-1.5791,0.4141-2.2539s0.6904-1.1914,1.2422-1.5508
		s1.1689-0.5391,1.8516-0.5391c0.5,0,0.9453,0.1055,1.3359,0.3164s0.708,0.4854,0.9531,0.8242v-4.1094h1.3984v11.4531H248.0549z
		 M243.6096,152.0285c0,1.0625,0.2236,1.8564,0.6719,2.3828s0.9766,0.7891,1.5859,0.7891c0.6143,0,1.1367-0.251,1.5664-0.7539
		s0.6445-1.2695,0.6445-2.3008c0-1.1357-0.2188-1.9688-0.6563-2.5s-0.9766-0.7969-1.6172-0.7969
		c-0.625,0-1.1475,0.2549-1.5664,0.7656S243.6096,150.9298,243.6096,152.0285z"/>
	<path d="M257.2502,153.4972l1.4531,0.1797c-0.2295,0.8486-0.6533,1.5078-1.2734,1.9766s-1.4111,0.7031-2.375,0.7031
		c-1.2139,0-2.1758-0.374-2.8867-1.1211s-1.0664-1.7959-1.0664-3.1445c0-1.3955,0.3594-2.4795,1.0781-3.25
		s1.6514-1.1563,2.7969-1.1563c1.1094,0,2.0156,0.3779,2.7187,1.1328s1.0547,1.8174,1.0547,3.1875
		c0,0.083-0.0029,0.208-0.0078,0.375h-6.1875c0.0518,0.9111,0.3096,1.6094,0.7734,2.0938s1.042,0.7266,1.7344,0.7266
		c0.5156,0,0.956-0.1357,1.3203-0.4063S257.0363,154.091,257.2502,153.4972z M252.633,151.2238h4.6328
		c-0.0625-0.6982-0.2393-1.2217-0.5313-1.5703c-0.4482-0.542-1.0283-0.8125-1.7422-0.8125c-0.6455,0-1.1885,0.2158-1.6289,0.6484
		S252.6799,150.5002,252.633,151.2238z"/>
	<path d="M267.2189,156.1691l-3.1563-8.2969h1.4844l1.7813,4.9688c0.1924,0.5361,0.3701,1.0938,0.5313,1.6719
		c0.125-0.4375,0.2998-0.9639,0.5234-1.5781l1.8438-5.0625h1.4453l-3.1406,8.2969H267.2189z"/>
	<path d="M272.9221,146.3332v-1.6172h1.4063v1.6172H272.9221z M272.9221,156.1691v-8.2969h1.4063v8.2969H272.9221z"/>
	<path d="M281.8517,156.1691v-1.0469c-0.5264,0.8232-1.2998,1.2344-2.3203,1.2344c-0.6611,0-1.2695-0.1826-1.8242-0.5469
		s-0.9844-0.874-1.2891-1.5273s-0.457-1.4053-0.457-2.2539c0-0.8281,0.1377-1.5791,0.4141-2.2539s0.6904-1.1914,1.2422-1.5508
		s1.1689-0.5391,1.8516-0.5391c0.5,0,0.9453,0.1055,1.3359,0.3164s0.708,0.4854,0.9531,0.8242v-4.1094h1.3984v11.4531H281.8517z
		 M277.4064,152.0285c0,1.0625,0.2236,1.8564,0.6719,2.3828s0.9766,0.7891,1.5859,0.7891c0.6143,0,1.1367-0.251,1.5664-0.7539
		s0.6445-1.2695,0.6445-2.3008c0-1.1357-0.2188-1.9688-0.6563-2.5s-0.9766-0.7969-1.6172-0.7969
		c-0.625,0-1.1475,0.2549-1.5664,0.7656S277.4064,150.9298,277.4064,152.0285z"/>
	<path d="M290.7814,155.1457c-0.5205,0.4424-1.0225,0.7549-1.5039,0.9375s-0.999,0.2734-1.5508,0.2734
		c-0.9111,0-1.6123-0.2227-2.1016-0.668s-0.7344-1.0146-0.7344-1.707c0-0.4063,0.0928-0.7773,0.2773-1.1133
		s0.4268-0.6055,0.7266-0.8086s0.6367-0.3564,1.0117-0.4609c0.2764-0.0732,0.6924-0.1436,1.25-0.2109
		c1.1357-0.1357,1.9717-0.2969,2.5078-0.4844c0.0049-0.1924,0.0078-0.3154,0.0078-0.3672c0-0.5732-0.1328-0.9766-0.3984-1.2109
		c-0.3594-0.3174-0.8936-0.4766-1.6016-0.4766c-0.6611,0-1.1494,0.1162-1.4648,0.3477s-0.5479,0.6416-0.6992,1.2305l-1.375-0.1875
		c0.125-0.5889,0.3311-1.0635,0.6172-1.4258s0.7002-0.6406,1.2422-0.8359s1.1689-0.293,1.8828-0.293
		c0.708,0,1.2842,0.083,1.7266,0.25s0.7686,0.376,0.9766,0.6289s0.3545,0.5713,0.4375,0.957
		c0.0469,0.2393,0.0703,0.6719,0.0703,1.2969v1.875c0,1.3076,0.0303,2.1338,0.0898,2.4805s0.1787,0.6787,0.3555,0.9961h-1.4688
		C290.9172,155.8771,290.8234,155.5363,290.7814,155.1457z M290.6642,152.005c-0.5107,0.208-1.2764,0.3857-2.2969,0.5313
		c-0.5781,0.083-0.9873,0.1768-1.2266,0.2813s-0.4248,0.2568-0.5547,0.457s-0.1953,0.4229-0.1953,0.668
		c0,0.375,0.1416,0.6875,0.4258,0.9375s0.6992,0.375,1.2461,0.375c0.542,0,1.0234-0.1182,1.4453-0.3555s0.7314-0.5615,0.9297-0.9727
		c0.1514-0.3174,0.2266-0.7861,0.2266-1.4063V152.005z"/>
	<path d="M294.6642,156.1691v-1.6016h1.6016v1.6016H294.6642z"/>
	<path d="M117.633,190.5539l1.5156,0.3828c-0.3174,1.2451-0.8896,2.1943-1.7148,2.8477s-1.835,0.9805-3.0273,0.9805
		c-1.2344,0-2.2383-0.251-3.0117-0.7539s-1.3623-1.2305-1.7656-2.1836s-0.6055-1.9766-0.6055-3.0703
		c0-1.1924,0.2275-2.2334,0.6836-3.1211s1.1045-1.5625,1.9453-2.0234s1.7666-0.6914,2.7773-0.6914
		c1.1455,0,2.1094,0.292,2.8906,0.875s1.3252,1.4033,1.6328,2.4609l-1.4922,0.3516c-0.2656-0.833-0.6514-1.4404-1.1563-1.8203
		s-1.1406-0.5703-1.9063-0.5703c-0.8799,0-1.6162,0.2109-2.207,0.6328s-1.0068,0.9883-1.2461,1.6992s-0.3594,1.4443-0.3594,2.1992
		c0,0.9736,0.1416,1.8242,0.4258,2.5508s0.7256,1.2695,1.3242,1.6289s1.2471,0.5391,1.9453,0.5391
		c0.8486,0,1.5674-0.2451,2.1563-0.7344S117.425,191.5177,117.633,190.5539z"/>
	<path d="M126.2502,193.5461c-0.5205,0.4424-1.0225,0.7549-1.5039,0.9375s-0.999,0.2734-1.5508,0.2734
		c-0.9111,0-1.6123-0.2227-2.1016-0.668s-0.7344-1.0146-0.7344-1.707c0-0.4063,0.0928-0.7773,0.2773-1.1133
		s0.4268-0.6055,0.7266-0.8086s0.6367-0.3564,1.0117-0.4609c0.2764-0.0732,0.6924-0.1436,1.25-0.2109
		c1.1357-0.1357,1.9717-0.2969,2.5078-0.4844c0.0049-0.1924,0.0078-0.3154,0.0078-0.3672c0-0.5732-0.1328-0.9766-0.3984-1.2109
		c-0.3594-0.3174-0.8936-0.4766-1.6016-0.4766c-0.6611,0-1.1494,0.1162-1.4648,0.3477s-0.5479,0.6416-0.6992,1.2305l-1.375-0.1875
		c0.125-0.5889,0.3311-1.0635,0.6172-1.4258s0.7002-0.6406,1.2422-0.8359s1.1689-0.293,1.8828-0.293
		c0.708,0,1.2842,0.083,1.7266,0.25s0.7686,0.376,0.9766,0.6289s0.3545,0.5713,0.4375,0.957
		c0.0469,0.2393,0.0703,0.6719,0.0703,1.2969v1.875c0,1.3076,0.0303,2.1338,0.0898,2.4805s0.1787,0.6787,0.3555,0.9961h-1.4688
		C126.3859,194.2775,126.2922,193.9367,126.2502,193.5461z M126.133,190.4054c-0.5107,0.208-1.2764,0.3857-2.2969,0.5313
		c-0.5781,0.083-0.9873,0.1768-1.2266,0.2813s-0.4248,0.2568-0.5547,0.457s-0.1953,0.4229-0.1953,0.668
		c0,0.375,0.1416,0.6875,0.4258,0.9375s0.6992,0.375,1.2461,0.375c0.542,0,1.0234-0.1182,1.4453-0.3555s0.7314-0.5615,0.9297-0.9727
		c0.1514-0.3174,0.2266-0.7861,0.2266-1.4063V190.4054z"/>
	<path d="M129.7033,194.5695v-11.4531h1.4063v11.4531H129.7033z"/>
	<path d="M133.2971,184.7336v-1.6172h1.4063v1.6172H133.2971z M133.2971,194.5695v-8.2969h1.4063v8.2969H133.2971z"/>
	<path d="M142.2268,194.5695v-1.0469c-0.5264,0.8232-1.2998,1.2344-2.3203,1.2344c-0.6611,0-1.2695-0.1826-1.8242-0.5469
		s-0.9844-0.874-1.2891-1.5273s-0.457-1.4053-0.457-2.2539c0-0.8281,0.1377-1.5791,0.4141-2.2539s0.6904-1.1914,1.2422-1.5508
		s1.1689-0.5391,1.8516-0.5391c0.5,0,0.9453,0.1055,1.3359,0.3164s0.708,0.4854,0.9531,0.8242v-4.1094h1.3984v11.4531H142.2268z
		 M137.7814,190.4289c0,1.0625,0.2236,1.8564,0.6719,2.3828s0.9766,0.7891,1.5859,0.7891c0.6143,0,1.1367-0.251,1.5664-0.7539
		s0.6445-1.2695,0.6445-2.3008c0-1.1357-0.2188-1.9688-0.6563-2.5s-0.9766-0.7969-1.6172-0.7969
		c-0.625,0-1.1475,0.2549-1.5664,0.7656S137.7814,189.3302,137.7814,190.4289z"/>
	<path d="M151.1564,193.5461c-0.5205,0.4424-1.0225,0.7549-1.5039,0.9375s-0.999,0.2734-1.5508,0.2734
		c-0.9111,0-1.6123-0.2227-2.1016-0.668s-0.7344-1.0146-0.7344-1.707c0-0.4063,0.0928-0.7773,0.2773-1.1133
		s0.4268-0.6055,0.7266-0.8086s0.6367-0.3564,1.0117-0.4609c0.2764-0.0732,0.6924-0.1436,1.25-0.2109
		c1.1357-0.1357,1.9717-0.2969,2.5078-0.4844c0.0049-0.1924,0.0078-0.3154,0.0078-0.3672c0-0.5732-0.1328-0.9766-0.3984-1.2109
		c-0.3594-0.3174-0.8936-0.4766-1.6016-0.4766c-0.6611,0-1.1494,0.1162-1.4648,0.3477s-0.5479,0.6416-0.6992,1.2305l-1.375-0.1875
		c0.125-0.5889,0.3311-1.0635,0.6172-1.4258s0.7002-0.6406,1.2422-0.8359s1.1689-0.293,1.8828-0.293
		c0.708,0,1.2842,0.083,1.7266,0.25s0.7686,0.376,0.9766,0.6289s0.3545,0.5713,0.4375,0.957
		c0.0469,0.2393,0.0703,0.6719,0.0703,1.2969v1.875c0,1.3076,0.0303,2.1338,0.0898,2.4805s0.1787,0.6787,0.3555,0.9961h-1.4688
		C151.2922,194.2775,151.1984,193.9367,151.1564,193.5461z M151.0393,190.4054c-0.5107,0.208-1.2764,0.3857-2.2969,0.5313
		c-0.5781,0.083-0.9873,0.1768-1.2266,0.2813s-0.4248,0.2568-0.5547,0.457s-0.1953,0.4229-0.1953,0.668
		c0,0.375,0.1416,0.6875,0.4258,0.9375s0.6992,0.375,1.2461,0.375c0.542,0,1.0234-0.1182,1.4453-0.3555s0.7314-0.5615,0.9297-0.9727
		c0.1514-0.3174,0.2266-0.7861,0.2266-1.4063V190.4054z"/>
	<path d="M160.0236,194.5695v-1.0469c-0.5264,0.8232-1.2998,1.2344-2.3203,1.2344c-0.6611,0-1.2695-0.1826-1.8242-0.5469
		s-0.9844-0.874-1.2891-1.5273s-0.457-1.4053-0.457-2.2539c0-0.8281,0.1377-1.5791,0.4141-2.2539s0.6904-1.1914,1.2422-1.5508
		s1.1689-0.5391,1.8516-0.5391c0.5,0,0.9453,0.1055,1.3359,0.3164s0.708,0.4854,0.9531,0.8242v-4.1094h1.3984v11.4531H160.0236z
		 M155.5783,190.4289c0,1.0625,0.2236,1.8564,0.6719,2.3828s0.9766,0.7891,1.5859,0.7891c0.6143,0,1.1367-0.251,1.5664-0.7539
		s0.6445-1.2695,0.6445-2.3008c0-1.1357-0.2188-1.9688-0.6563-2.5s-0.9766-0.7969-1.6172-0.7969
		c-0.625,0-1.1475,0.2549-1.5664,0.7656S155.5783,189.3302,155.5783,190.4289z"/>
	<path d="M173.3674,194.5695v-1.0469c-0.5264,0.8232-1.2998,1.2344-2.3203,1.2344c-0.6611,0-1.2695-0.1826-1.8242-0.5469
		s-0.9844-0.874-1.2891-1.5273s-0.457-1.4053-0.457-2.2539c0-0.8281,0.1377-1.5791,0.4141-2.2539s0.6904-1.1914,1.2422-1.5508
		s1.1689-0.5391,1.8516-0.5391c0.5,0,0.9453,0.1055,1.3359,0.3164s0.708,0.4854,0.9531,0.8242v-4.1094h1.3984v11.4531H173.3674z
		 M168.9221,190.4289c0,1.0625,0.2236,1.8564,0.6719,2.3828s0.9766,0.7891,1.5859,0.7891c0.6143,0,1.1367-0.251,1.5664-0.7539
		s0.6445-1.2695,0.6445-2.3008c0-1.1357-0.2188-1.9688-0.6563-2.5s-0.9766-0.7969-1.6172-0.7969
		c-0.625,0-1.1475,0.2549-1.5664,0.7656S168.9221,189.3302,168.9221,190.4289z"/>
	<path d="M182.5627,191.8976l1.4531,0.1797c-0.2295,0.8486-0.6533,1.5078-1.2734,1.9766s-1.4111,0.7031-2.375,0.7031
		c-1.2139,0-2.1758-0.374-2.8867-1.1211s-1.0664-1.7959-1.0664-3.1445c0-1.3955,0.3594-2.4795,1.0781-3.25
		s1.6514-1.1563,2.7969-1.1563c1.1094,0,2.0156,0.3779,2.7188,1.1328s1.0547,1.8174,1.0547,3.1875
		c0,0.083-0.0029,0.208-0.0078,0.375h-6.1875c0.0518,0.9111,0.3096,1.6094,0.7734,2.0938s1.042,0.7266,1.7344,0.7266
		c0.5156,0,0.9561-0.1357,1.3203-0.4063S182.3488,192.4914,182.5627,191.8976z M177.9455,189.6242h4.6328
		c-0.0625-0.6982-0.2393-1.2217-0.5313-1.5703c-0.4482-0.542-1.0283-0.8125-1.7422-0.8125c-0.6455,0-1.1885,0.2158-1.6289,0.6484
		S177.9924,188.9005,177.9455,189.6242z"/>
	<path d="M189.6643,192.0929l1.3906-0.2188c0.0781,0.5576,0.2959,0.9844,0.6523,1.2813s0.8555,0.4453,1.4961,0.4453
		c0.6455,0,1.125-0.1318,1.4375-0.3945s0.4688-0.5713,0.4688-0.9258c0-0.3174-0.1377-0.5674-0.4141-0.75
		c-0.1924-0.125-0.6719-0.2842-1.4375-0.4766c-1.0313-0.2607-1.7461-0.4854-2.1445-0.6758s-0.7002-0.4531-0.9063-0.7891
		s-0.3086-0.707-0.3086-1.1133c0-0.3701,0.085-0.7119,0.2539-1.0273s0.3994-0.5771,0.6914-0.7852
		c0.2188-0.1611,0.5166-0.2979,0.8945-0.4102s0.7822-0.168,1.2148-0.168c0.6514,0,1.2227,0.0938,1.7148,0.2813
		s0.8555,0.4414,1.0898,0.7617s0.3955,0.749,0.4844,1.2852l-1.375,0.1875c-0.0625-0.4268-0.2432-0.7607-0.543-1
		s-0.7227-0.3594-1.2695-0.3594c-0.6455,0-1.1064,0.1064-1.3828,0.3203s-0.4141,0.4639-0.4141,0.75
		c0,0.1826,0.0576,0.3467,0.1719,0.4922c0.1143,0.1514,0.2939,0.2764,0.5391,0.375c0.1406,0.0518,0.5547,0.1719,1.2422,0.3594
		c0.9951,0.2656,1.6885,0.4834,2.082,0.6523s0.7021,0.415,0.9258,0.7383s0.3359,0.7236,0.3359,1.2031
		c0,0.4688-0.1367,0.9102-0.4102,1.3242s-0.668,0.7344-1.1836,0.9609s-1.0986,0.3398-1.75,0.3398
		c-1.0781,0-1.8994-0.2236-2.4648-0.6719S189.8205,192.9728,189.6643,192.0929z"/>
	<path d="M197.7033,190.4211c0-1.5361,0.4268-2.6748,1.2813-3.4141c0.7139-0.6143,1.583-0.9219,2.6094-0.9219
		c1.1406,0,2.0732,0.374,2.7969,1.1211s1.0859,1.7803,1.0859,3.0977c0,1.0674-0.1602,1.9072-0.4805,2.5195
		s-0.7861,1.0869-1.3984,1.4258s-1.2803,0.5078-2.0039,0.5078c-1.1611,0-2.1006-0.3721-2.8164-1.1172
		S197.7033,191.8224,197.7033,190.4211z M199.1486,190.4211c0,1.0625,0.2314,1.8584,0.6953,2.3867s1.0469,0.793,1.75,0.793
		c0.6982,0,1.2783-0.2656,1.7422-0.7969s0.6953-1.3408,0.6953-2.4297c0-1.0264-0.2334-1.8037-0.6992-2.332
		s-1.0459-0.793-1.7383-0.793c-0.7031,0-1.2861,0.2627-1.75,0.7891S199.1486,189.3586,199.1486,190.4211z"/>
	<path d="M207.4611,194.5695v-7.2031h-1.2422v-1.0938h1.2422v-0.8828c0-0.5576,0.0498-0.9717,0.1484-1.2422
		c0.1357-0.3643,0.374-0.6602,0.7148-0.8867s0.8193-0.3398,1.4336-0.3398c0.3955,0,0.833,0.0469,1.3125,0.1406l-0.2109,1.2266
		c-0.292-0.0518-0.5674-0.0781-0.8281-0.0781c-0.4268,0-0.7295,0.0908-0.9063,0.2734s-0.2656,0.5234-0.2656,1.0234v0.7656h1.6172
		v1.0938h-1.6172v7.2031H207.4611z"/>
	<path d="M214.6408,193.3117l0.2031,1.2422c-0.3955,0.083-0.75,0.125-1.0625,0.125c-0.5107,0-0.9063-0.0811-1.1875-0.2422
		s-0.4795-0.374-0.5938-0.6367s-0.1719-0.8164-0.1719-1.6602v-4.7734h-1.0313v-1.0938h1.0313v-2.0547l1.3984-0.8438v2.8984h1.4141
		v1.0938h-1.4141v4.8516c0,0.4014,0.0244,0.6592,0.0742,0.7734s0.1299,0.2061,0.2422,0.2734s0.2725,0.1016,0.4805,0.1016
		C214.1799,193.3664,214.3859,193.3478,214.6408,193.3117z"/>
	<path d="M217.5471,194.5695l-2.5391-8.2969h1.4531l1.3203,4.7891l0.4922,1.7813c0.0205-0.0889,0.1641-0.6592,0.4297-1.7109
		l1.3203-4.8594h1.4453l1.2422,4.8125l0.4141,1.5859l0.4766-1.6016l1.4219-4.7969h1.3672l-2.5938,8.2969h-1.4609l-1.3203-4.9688
		l-0.3203-1.4141l-1.6797,6.3828H217.5471z"/>
	<path d="M232.9846,193.5461c-0.5205,0.4424-1.0225,0.7549-1.5039,0.9375s-0.999,0.2734-1.5508,0.2734
		c-0.9111,0-1.6123-0.2227-2.1016-0.668s-0.7344-1.0146-0.7344-1.707c0-0.4063,0.0928-0.7773,0.2773-1.1133
		s0.4268-0.6055,0.7266-0.8086s0.6367-0.3564,1.0117-0.4609c0.2764-0.0732,0.6924-0.1436,1.25-0.2109
		c1.1357-0.1357,1.9717-0.2969,2.5078-0.4844c0.0049-0.1924,0.0078-0.3154,0.0078-0.3672c0-0.5732-0.1328-0.9766-0.3984-1.2109
		c-0.3594-0.3174-0.8936-0.4766-1.6016-0.4766c-0.6611,0-1.1494,0.1162-1.4648,0.3477s-0.5479,0.6416-0.6992,1.2305l-1.375-0.1875
		c0.125-0.5889,0.3311-1.0635,0.6172-1.4258s0.7002-0.6406,1.2422-0.8359s1.1689-0.293,1.8828-0.293
		c0.708,0,1.2842,0.083,1.7266,0.25s0.7686,0.376,0.9766,0.6289s0.3545,0.5713,0.4375,0.957
		c0.0469,0.2393,0.0703,0.6719,0.0703,1.2969v1.875c0,1.3076,0.0303,2.1338,0.0898,2.4805s0.1787,0.6787,0.3555,0.9961h-1.4688
		C233.1203,194.2775,233.0266,193.9367,232.9846,193.5461z M232.8674,190.4054c-0.5107,0.208-1.2764,0.3857-2.2969,0.5313
		c-0.5781,0.083-0.9873,0.1768-1.2266,0.2813s-0.4248,0.2568-0.5547,0.457s-0.1953,0.4229-0.1953,0.668
		c0,0.375,0.1416,0.6875,0.4258,0.9375s0.6992,0.375,1.2461,0.375c0.542,0,1.0234-0.1182,1.4453-0.3555s0.7314-0.5615,0.9297-0.9727
		c0.1514-0.3174,0.2266-0.7861,0.2266-1.4063V190.4054z"/>
	<path d="M236.4533,194.5695v-8.2969h1.2656v1.2578c0.3232-0.5889,0.6211-0.9766,0.8945-1.1641s0.5742-0.2813,0.9023-0.2813
		c0.4736,0,0.9561,0.1514,1.4453,0.4531l-0.4844,1.3047c-0.3438-0.2031-0.6875-0.3047-1.0313-0.3047
		c-0.3076,0-0.583,0.0928-0.8281,0.2773s-0.4189,0.4414-0.5234,0.7695c-0.1563,0.5-0.2344,1.0469-0.2344,1.6406v4.3438H236.4533z"/>
	<path d="M247.4768,191.8976l1.4531,0.1797c-0.2295,0.8486-0.6533,1.5078-1.2734,1.9766s-1.4111,0.7031-2.375,0.7031
		c-1.2139,0-2.1758-0.374-2.8867-1.1211s-1.0664-1.7959-1.0664-3.1445c0-1.3955,0.3594-2.4795,1.0781-3.25
		s1.6514-1.1563,2.7969-1.1563c1.1094,0,2.0156,0.3779,2.7188,1.1328s1.0547,1.8174,1.0547,3.1875
		c0,0.083-0.0029,0.208-0.0078,0.375h-6.1875c0.0518,0.9111,0.3096,1.6094,0.7734,2.0938s1.042,0.7266,1.7344,0.7266
		c0.5156,0,0.9561-0.1357,1.3203-0.4063S247.2629,192.4914,247.4768,191.8976z M242.8596,189.6242h4.6328
		c-0.0625-0.6982-0.2393-1.2217-0.5313-1.5703c-0.4482-0.542-1.0283-0.8125-1.7422-0.8125c-0.6455,0-1.1885,0.2158-1.6289,0.6484
		S242.9064,188.9005,242.8596,189.6242z"/>
	<path d="M251.0939,194.5695v-1.6016h1.6016v1.6016H251.0939z"/>
</g>
<g>
	<g>
		<path style="fill:#4ACFD9;stroke:#000000;stroke-width:0.3215;stroke-miterlimit:10;" d="M42.1094,42.0381
			c2.3398,0,4.2431-1.9043,4.2431-4.2441c0-2.3399-1.9033-4.2432-4.2431-4.2432c-2.3399,0-4.2432,1.9033-4.2432,4.2432
			C37.8662,40.1338,39.7695,42.0381,42.1094,42.0381z"/>
		<path style="fill:#4ACFD9;stroke:#000000;stroke-width:0.3215;stroke-miterlimit:10;" d="M42.2959,42.212
			c-2.8828,0-5.2285,2.3457-5.2285,5.2285c0,0.0058,0,0.0107,0,0.0156l0.0527,2.4775c0.0078,0.3799,0.3184,0.6846,0.6992,0.6846
			h9.0069c0.3857,0,0.6992-0.3125,0.6992-0.6992v-2.4785C47.5254,44.5577,45.1797,42.212,42.2959,42.212z"/>
	</g>
	<g>
		<path style="fill:#0295AA;stroke:#000000;stroke-width:0.3215;stroke-miterlimit:10;" d="M42.1094,33.5508
			c-2.3399,0-4.2432,1.9033-4.2432,4.2432c0,2.3398,1.9033,4.2441,4.2432,4.2441c0.0625,0,0.125-0.0019,0.1865-0.0049v-8.4775
			C42.2344,33.5528,42.1719,33.5508,42.1094,33.5508z"/>
		<path style="fill:#0295AA;stroke:#000000;stroke-width:0.3215;stroke-miterlimit:10;" d="M37.0674,47.4405
			c0,0.0058,0,0.0107,0,0.0156l0.0527,2.4775c0.0078,0.3799,0.3184,0.6846,0.6992,0.6846h4.4766V42.212
			C39.4131,42.212,37.0674,44.5577,37.0674,47.4405z"/>
	</g>
	<g>
		<path style="fill:#CDD4D5;stroke:#000000;stroke-width:0.3215;stroke-miterlimit:10;" d="M30.165,42.0381
			c2.3399,0,4.2442-1.9043,4.2442-4.2441c0-2.3399-1.9043-4.2432-4.2442-4.2432c-2.3398,0-4.2431,1.9033-4.2431,4.2432
			C25.9219,40.1338,27.8252,42.0381,30.165,42.0381z"/>
		<path style="fill:#CDD4D5;stroke:#000000;stroke-width:0.3215;stroke-miterlimit:10;" d="M30.3516,42.212
			c-2.8829,0-5.2286,2.3457-5.2286,5.2285c0,0.0058,0,0.0107,0,0.0156l0.0528,2.4775c0.0078,0.3799,0.3193,0.6846,0.6992,0.6846
			h9.0068c0.3858,0,0.6993-0.3125,0.6993-0.6992v-2.4785C35.5811,44.5577,33.2354,42.212,30.3516,42.212z"/>
	</g>
	<g>
		<path style="fill:#9BAAAB;stroke:#000000;stroke-width:0.3215;stroke-miterlimit:10;" d="M30.165,33.5508
			c-2.3398,0-4.2431,1.9033-4.2431,4.2432c0,2.3398,1.9033,4.2441,4.2431,4.2441c0.0625,0,0.125-0.0019,0.1866-0.0049v-8.4775
			C30.29,33.5528,30.2275,33.5508,30.165,33.5508z"/>
		<path style="fill:#9BAAAB;stroke:#000000;stroke-width:0.3215;stroke-miterlimit:10;" d="M25.123,47.4405
			c0,0.0058,0,0.0107,0,0.0156l0.0528,2.4775c0.0078,0.3799,0.3193,0.6846,0.6992,0.6846h4.4766V42.212
			C27.4687,42.212,25.123,44.5577,25.123,47.4405z"/>
	</g>
	<g>
		<path style="fill:#FF8C29;stroke:#000000;stroke-width:0.3215;stroke-miterlimit:10;" d="M17.8545,42.0381
			c2.3398,0,4.2432-1.9043,4.2432-4.2441c0-2.3399-1.9034-4.2432-4.2432-4.2432c-2.3399,0-4.2441,1.9033-4.2441,4.2432
			C13.6104,40.1338,15.5146,42.0381,17.8545,42.0381z"/>
		<path style="fill:#FF8C29;stroke:#000000;stroke-width:0.3215;stroke-miterlimit:10;" d="M18.041,42.212
			c-2.8838,0-5.2295,2.3457-5.2295,5.2285c0,0.0058,0,0.0107,0,0.0156l0.0537,2.4775c0.0078,0.3799,0.3184,0.6846,0.6993,0.6846
			h9.0058c0.3867,0,0.7002-0.3125,0.7002-0.6992v-2.4785C23.2705,44.5577,20.9248,42.212,18.041,42.212z"/>
	</g>
	<g>
		<path style="fill:#FD6A33;stroke:#000000;stroke-width:0.3215;stroke-miterlimit:10;" d="M17.8545,33.5508
			c-2.3399,0-4.2441,1.9033-4.2441,4.2432c0,2.3398,1.9042,4.2441,4.2441,4.2441c0.0625,0,0.125-0.0019,0.1865-0.0049v-8.4775
			C17.9795,33.5528,17.917,33.5508,17.8545,33.5508z"/>
		<path style="fill:#FD6A33;stroke:#000000;stroke-width:0.3215;stroke-miterlimit:10;" d="M12.8115,47.4405
			c0,0.0058,0,0.0107,0,0.0156l0.0537,2.4775c0.0078,0.3799,0.3184,0.6846,0.6993,0.6846h4.4765V42.212
			C15.1572,42.212,12.8115,44.5577,12.8115,47.4405z"/>
	</g>
	<path style="fill:#365558;stroke:#000000;stroke-width:0.3215;stroke-miterlimit:10;" d="M41.5498,29.0743H30.6846v-6.7618
		c0-0.3867-0.3125-0.6992-0.6992-0.6992c-0.3868,0-0.6993,0.3125-0.6993,0.6992v6.7618H17.6748
		c-0.3867,0-0.7002,0.3134-0.7002,0.6992v1.8652c0,0.3867,0.3135,0.7002,0.7002,0.7002c0.3857,0,0.6992-0.3135,0.6992-0.7002v-1.165
		h10.9121v1.165c0,0.3867,0.3125,0.7002,0.6993,0.7002c0.3867,0,0.6992-0.3135,0.6992-0.7002v-1.165h10.166v1.165
		c0,0.3867,0.3135,0.7002,0.6992,0.7002c0.3867,0,0.6992-0.3135,0.6992-0.7002v-1.8652
		C42.249,29.3877,41.9365,29.0743,41.5498,29.0743z"/>
	<g>
		<path style="fill:#4ACFD9;stroke:#000000;stroke-width:0.3215;stroke-miterlimit:10;" d="M18.7266,12.2002h-2.9014
			c-0.3867,0-0.6992-0.3134-0.6992-0.6992c0-0.3867,0.3125-0.7002,0.6992-0.7002h2.9014c0.3867,0,0.6992,0.3135,0.6992,0.7002
			C19.4258,11.8868,19.1133,12.2002,18.7266,12.2002z"/>
		<path style="fill:#4ACFD9;stroke:#000000;stroke-width:0.3215;stroke-miterlimit:10;" d="M17.6904,16.4209
			c-0.1787,0-0.3584-0.0683-0.4951-0.205c-0.2724-0.2735-0.2724-0.7159,0-0.9893l1.8467-1.8467
			c0.2734-0.2734,0.7168-0.2734,0.9892,0c0.2735,0.2735,0.2735,0.7158,0,0.9893l-1.8466,1.8467
			C18.0479,16.3526,17.8691,16.4209,17.6904,16.4209z"/>
		<path style="fill:#4ACFD9;stroke:#000000;stroke-width:0.3215;stroke-miterlimit:10;" d="M19.5176,9.8252
			c-0.1787,0-0.3574-0.0674-0.4942-0.2041l-1.8466-1.8466c-0.2735-0.2735-0.2735-0.7159,0-0.9893
			c0.2734-0.2734,0.7158-0.2734,0.9892,0l1.8467,1.8467c0.2734,0.2734,0.2734,0.7158,0,0.9892
			C19.876,9.7578,19.6973,9.8252,19.5176,9.8252z"/>
		<path style="fill:#4ACFD9;stroke:#000000;stroke-width:0.3215;stroke-miterlimit:10;" d="M44.8916,12.2002h-2.9023
			c-0.3858,0-0.6993-0.3134-0.6993-0.6992c0-0.3867,0.3135-0.7002,0.6993-0.7002h2.9023c0.3867,0,0.6992,0.3135,0.6992,0.7002
			C45.5908,11.8868,45.2783,12.2002,44.8916,12.2002z"/>
		<path style="fill:#4ACFD9;stroke:#000000;stroke-width:0.3215;stroke-miterlimit:10;" d="M43.0264,16.4209
			c-0.1797,0-0.3584-0.0683-0.4952-0.205l-1.8466-1.8467c-0.2725-0.2735-0.2725-0.7158,0-0.9893
			c0.2734-0.2734,0.7168-0.2734,0.9892,0l1.8467,1.8467c0.2734,0.2734,0.2734,0.7158,0,0.9893
			C43.3838,16.3526,43.2051,16.4209,43.0264,16.4209z"/>
		<path style="fill:#4ACFD9;stroke:#000000;stroke-width:0.3215;stroke-miterlimit:10;" d="M41.1982,9.8252
			c-0.1787,0-0.3584-0.0674-0.4941-0.2041c-0.2734-0.2734-0.2734-0.7158,0-0.9892l1.8457-1.8467
			c0.2734-0.2734,0.7168-0.2734,0.9893,0c0.2734,0.2734,0.2734,0.7158,0,0.9893l-1.8457,1.8466
			C41.5566,9.7578,41.377,9.8252,41.1982,9.8252z"/>
	</g>
	<path style="fill:#FF8C29;stroke:#000000;stroke-width:0.3215;stroke-miterlimit:10;" d="M29.9385,5.6182
		c-2.1797,0-4.2295,0.8486-5.7705,2.3906c-1.541,1.541-2.3907,3.5899-2.3907,5.7696c0,2.1796,0.8497,4.2294,2.3907,5.7714
		c1.541,1.5411,3.5908,2.3897,5.7705,2.3897s4.2295-0.8486,5.7705-2.3897c1.541-1.542,2.3896-3.5918,2.3896-5.7714
		c0-2.1797-0.8486-4.2286-2.3896-5.7696C34.168,6.4668,32.1182,5.6182,29.9385,5.6182z"/>
	<g>
		<path style="fill:#FFFFFF;stroke:#000000;stroke-width:0.3215;stroke-miterlimit:10;" d="M34.541,13.7325
			c-0.3369,0-0.6338-0.2452-0.6894-0.5879c-0.0352-0.2159-0.0879-0.4287-0.1573-0.6338c-0.124-0.3653,0.0723-0.7627,0.4375-0.8867
			c0.3662-0.1241,0.7637,0.0722,0.8877,0.4375c0.0938,0.2793,0.166,0.5683,0.2129,0.8593c0.0615,0.3809-0.1972,0.7403-0.5791,0.8018
			C34.6162,13.7295,34.5781,13.7325,34.541,13.7325z"/>
		<path style="fill:#FFFFFF;stroke:#000000;stroke-width:0.3215;stroke-miterlimit:10;" d="M33.5195,11.4932
			c-0.2002,0-0.3994-0.085-0.5381-0.25c-0.7568-0.9082-1.8662-1.4277-3.0429-1.4277c-0.3867,0-0.6992-0.3135-0.6992-0.7002
			c0-0.3858,0.3125-0.6992,0.6992-0.6992c1.5927,0,3.0937,0.7031,4.1172,1.9296c0.248,0.2969,0.208,0.7373-0.0889,0.9854
			C33.8369,11.4405,33.6777,11.4932,33.5195,11.4932z"/>
	</g>
	<path style="fill:#F0353D;stroke:#000000;stroke-width:0.3215;stroke-miterlimit:10;" d="M33.2959,13.8252h-0.793v-0.4199
		c0-0.3857-0.3125-0.6992-0.6992-0.6992s-0.6992,0.3135-0.6992,0.6992v0.4199h-2.332v-0.4199c0-0.3857-0.3125-0.6992-0.6993-0.6992
		c-0.3867,0-0.6992,0.3135-0.6992,0.6992v0.4199h-0.7929c-0.3868,0-0.6993,0.3135-0.6993,0.6993
		c0,0.3867,0.3125,0.7001,0.6993,0.7001h0.7929v5.2686c0,0.3867,0.3125,0.7002,0.6992,0.7002c0.3868,0,0.6993-0.3135,0.6993-0.7002
		v-5.2686h2.332v5.2686c0,0.3867,0.3125,0.7002,0.6992,0.7002s0.6992-0.3135,0.6992-0.7002v-5.2686h0.793
		c0.3867,0,0.7002-0.3134,0.7002-0.7001C33.9961,14.1387,33.6826,13.8252,33.2959,13.8252z"/>
	<path style="fill:#CDD4D5;stroke:#000000;stroke-width:0.3215;stroke-miterlimit:10;" d="M32.9229,20.5401h-5.9688
		c-0.3867,0-0.6992,0.3135-0.6992,0.6992v5.2236c0,0.3858,0.3125,0.6992,0.6992,0.6992h5.9688c0.1933,0,0.3681-0.0781,0.4951-0.205
		c0.1259-0.126,0.2041-0.3018,0.2041-0.4942v-5.2236C33.6221,20.8536,33.3096,20.5401,32.9229,20.5401z"/>
	<path style="fill:#9BAAAB;stroke:#000000;stroke-width:0.3215;stroke-miterlimit:10;" d="M29.9385,20.5401v6.622h2.9844
		c0.1933,0,0.3681-0.0781,0.4941-0.205c0.1269-0.126,0.2051-0.3018,0.2051-0.4942v-5.2236c0-0.3857-0.3125-0.6992-0.6992-0.6992
		H29.9385z"/>
	
		<rect x="26.2539" y="23.1514" style="fill:#687F82;stroke:#000000;stroke-width:0.3215;stroke-miterlimit:10;" width="7.3682" height="1.3994"/>
	
		<rect x="26.2539" y="23.1514" style="fill:#9BAAAB;stroke:#000000;stroke-width:0.3215;stroke-miterlimit:10;" width="3.6846" height="1.3994"/>
</g>
</svg>
