<?xml version="1.0" encoding="utf-8"?>
<!-- Generator: Adobe Illustrator 21.0.0, SVG Export Plug-In . SVG Version: 6.00 Build 0)  -->
<svg version="1.1" id="Capa_1" xmlns="http://www.w3.org/2000/svg" xmlns:xlink="http://www.w3.org/1999/xlink" x="0px" y="0px"
	 viewBox="0 0 419.0469 297.1992" style="enable-background:new 0 0 419.0469 297.1992;" xml:space="preserve">
<g>
	<g>
		<path style="fill:#F15A24;" d="M102.9688,178.7011H37.1387C16.627,178.7011,0,162.0722,0,141.5615V96.5439
			c0-8.668,7.0264-15.6943,15.6924-15.6943h65.832c20.5118,0,37.1387,16.6269,37.1387,37.1396v45.0176
			C118.6631,171.6748,111.6358,178.7011,102.9688,178.7011z"/>
	</g>
	<g>
		<g>
			<path style="fill:#FFFFFF;" d="M25.5783,134.5078v-11.4531h3.9453c0.8906,0,1.5703,0.0547,2.0391,0.1641
				c0.6563,0.1514,1.2158,0.4248,1.6797,0.8203c0.6045,0.5107,1.0557,1.1631,1.3555,1.957s0.4492,1.7021,0.4492,2.7227
				c0,0.8701-0.1016,1.6406-0.3047,2.3125s-0.4639,1.2275-0.7813,1.668s-0.665,0.7861-1.043,1.0391s-0.833,0.4443-1.3672,0.5742
				s-1.1475,0.1953-1.8398,0.1953H25.5783z M27.0939,133.1563h2.4453c0.7549,0,1.3477-0.0703,1.7773-0.2109
				s0.7725-0.3389,1.0273-0.5938c0.3594-0.3594,0.6396-0.8428,0.8398-1.4492s0.3008-1.3428,0.3008-2.207
				c0-1.1982-0.1963-2.1182-0.5898-2.7617s-0.8711-1.0742-1.4336-1.293c-0.4063-0.1563-1.0596-0.2344-1.9609-0.2344h-2.4063
				V133.1563z"/>
			<path style="fill:#FFFFFF;" d="M42.633,131.8359l1.4531,0.1797c-0.2295,0.8486-0.6533,1.5078-1.2734,1.9766
				s-1.4111,0.7031-2.375,0.7031c-1.2139,0-2.1758-0.374-2.8867-1.1211s-1.0664-1.7959-1.0664-3.1445
				c0-1.3955,0.3594-2.4795,1.0781-3.25s1.6514-1.1563,2.7969-1.1563c1.1094,0,2.0156,0.3779,2.7188,1.1328
				s1.0547,1.8174,1.0547,3.1875c0,0.083-0.0029,0.208-0.0078,0.375h-6.1875c0.0518,0.9111,0.3096,1.6094,0.7734,2.0938
				s1.042,0.7266,1.7344,0.7266c0.5156,0,0.9561-0.1357,1.3203-0.4063S42.4191,132.4297,42.633,131.8359z M38.0158,129.5625h4.6328
				c-0.0625-0.6982-0.2393-1.2217-0.5313-1.5703c-0.4482-0.542-1.0283-0.8125-1.7422-0.8125c-0.6455,0-1.1885,0.2158-1.6289,0.6484
				S38.0626,128.8389,38.0158,129.5625z"/>
			<path style="fill:#FFFFFF;" d="M45.2892,132.0313l1.3906-0.2188c0.0781,0.5576,0.2959,0.9844,0.6523,1.2813
				s0.8555,0.4453,1.4961,0.4453c0.6455,0,1.125-0.1318,1.4375-0.3945s0.4688-0.5713,0.4688-0.9258
				c0-0.3174-0.1377-0.5674-0.4141-0.75c-0.1924-0.125-0.6719-0.2842-1.4375-0.4766c-1.0313-0.2607-1.7461-0.4854-2.1445-0.6758
				s-0.7002-0.4531-0.9063-0.7891s-0.3086-0.707-0.3086-1.1133c0-0.3701,0.085-0.7119,0.2539-1.0273s0.3994-0.5771,0.6914-0.7852
				c0.2188-0.1611,0.5166-0.2979,0.8945-0.4102s0.7822-0.168,1.2148-0.168c0.6514,0,1.2227,0.0938,1.7148,0.2813
				s0.8555,0.4414,1.0898,0.7617s0.3955,0.749,0.4844,1.2852l-1.375,0.1875c-0.0625-0.4268-0.2432-0.7607-0.543-1
				s-0.7227-0.3594-1.2695-0.3594c-0.6455,0-1.1064,0.1064-1.3828,0.3203s-0.4141,0.4639-0.4141,0.75
				c0,0.1826,0.0576,0.3467,0.1719,0.4922c0.1143,0.1514,0.2939,0.2764,0.5391,0.375c0.1406,0.0518,0.5547,0.1719,1.2422,0.3594
				c0.9951,0.2656,1.6885,0.4834,2.082,0.6523s0.7021,0.415,0.9258,0.7383s0.3359,0.7236,0.3359,1.2031
				c0,0.4688-0.1367,0.9102-0.4102,1.3242s-0.668,0.7344-1.1836,0.9609s-1.0986,0.3398-1.75,0.3398
				c-1.0781,0-1.8994-0.2236-2.4648-0.6719S45.4455,132.9111,45.2892,132.0313z"/>
			<path style="fill:#FFFFFF;" d="M59.2658,133.4844c-0.5205,0.4424-1.0225,0.7549-1.5039,0.9375s-0.999,0.2734-1.5508,0.2734
				c-0.9111,0-1.6123-0.2227-2.1016-0.668s-0.7344-1.0146-0.7344-1.707c0-0.4063,0.0928-0.7773,0.2773-1.1133
				s0.4268-0.6055,0.7266-0.8086s0.6367-0.3564,1.0117-0.4609c0.2764-0.0732,0.6924-0.1436,1.25-0.2109
				c1.1357-0.1357,1.9717-0.2969,2.5078-0.4844c0.0049-0.1924,0.0078-0.3154,0.0078-0.3672c0-0.5732-0.1328-0.9766-0.3984-1.2109
				c-0.3594-0.3174-0.8936-0.4766-1.6016-0.4766c-0.6611,0-1.1494,0.1162-1.4648,0.3477s-0.5479,0.6416-0.6992,1.2305l-1.375-0.1875
				c0.125-0.5889,0.3311-1.0635,0.6172-1.4258s0.7002-0.6406,1.2422-0.8359s1.1689-0.293,1.8828-0.293
				c0.708,0,1.2842,0.083,1.7266,0.25s0.7686,0.376,0.9766,0.6289s0.3545,0.5713,0.4375,0.957
				c0.0469,0.2393,0.0703,0.6719,0.0703,1.2969v1.875c0,1.3076,0.0303,2.1338,0.0898,2.4805s0.1787,0.6787,0.3555,0.9961H59.547
				C59.4015,134.2158,59.3078,133.875,59.2658,133.4844z M59.1486,130.3438c-0.5107,0.208-1.2764,0.3857-2.2969,0.5313
				c-0.5781,0.083-0.9873,0.1768-1.2266,0.2813s-0.4248,0.2568-0.5547,0.457s-0.1953,0.4229-0.1953,0.668
				c0,0.375,0.1416,0.6875,0.4258,0.9375s0.6992,0.375,1.2461,0.375c0.542,0,1.0234-0.1182,1.4453-0.3555
				s0.7314-0.5615,0.9297-0.9727c0.1514-0.3174,0.2266-0.7861,0.2266-1.4063V130.3438z"/>
			<path style="fill:#FFFFFF;" d="M62.7345,134.5078v-8.2969h1.2656v1.2578c0.3232-0.5889,0.6211-0.9766,0.8945-1.1641
				s0.5742-0.2813,0.9023-0.2813c0.4736,0,0.9561,0.1514,1.4453,0.4531l-0.4844,1.3047c-0.3438-0.2031-0.6875-0.3047-1.0313-0.3047
				c-0.3076,0-0.583,0.0928-0.8281,0.2773s-0.4189,0.4414-0.5234,0.7695c-0.1563,0.5-0.2344,1.0469-0.2344,1.6406v4.3438H62.7345z"
				/>
			<path style="fill:#FFFFFF;" d="M68.0626,134.5078v-8.2969h1.2656v1.2578c0.3232-0.5889,0.6211-0.9766,0.8945-1.1641
				s0.5742-0.2813,0.9023-0.2813c0.4736,0,0.9561,0.1514,1.4453,0.4531l-0.4844,1.3047c-0.3438-0.2031-0.6875-0.3047-1.0313-0.3047
				c-0.3076,0-0.583,0.0928-0.8281,0.2773s-0.4189,0.4414-0.5234,0.7695c-0.1563,0.5-0.2344,1.0469-0.2344,1.6406v4.3438H68.0626z"
				/>
			<path style="fill:#FFFFFF;" d="M72.883,130.3594c0-1.5361,0.4268-2.6748,1.2813-3.4141c0.7139-0.6143,1.583-0.9219,2.6094-0.9219
				c1.1406,0,2.0732,0.374,2.7969,1.1211s1.0859,1.7803,1.0859,3.0977c0,1.0674-0.1602,1.9072-0.4805,2.5195
				s-0.7861,1.0869-1.3984,1.4258s-1.2803,0.5078-2.0039,0.5078c-1.1611,0-2.1006-0.3721-2.8164-1.1172
				S72.883,131.7607,72.883,130.3594z M74.3283,130.3594c0,1.0625,0.2314,1.8584,0.6953,2.3867s1.0469,0.793,1.75,0.793
				c0.6982,0,1.2783-0.2656,1.7422-0.7969s0.6953-1.3408,0.6953-2.4297c0-1.0264-0.2334-1.8037-0.6992-2.332
				s-1.0459-0.793-1.7383-0.793c-0.7031,0-1.2861,0.2627-1.75,0.7891S74.3283,129.2969,74.3283,130.3594z"/>
			<path style="fill:#FFFFFF;" d="M82.2736,134.5078v-11.4531h1.4063v11.4531H82.2736z"/>
			<path style="fill:#FFFFFF;" d="M85.8283,134.5078v-11.4531h1.4063v11.4531H85.8283z"/>
			<path style="fill:#FFFFFF;" d="M88.8908,130.3594c0-1.5361,0.4268-2.6748,1.2813-3.4141
				c0.7139-0.6143,1.583-0.9219,2.6094-0.9219c1.1406,0,2.0732,0.374,2.7969,1.1211s1.0859,1.7803,1.0859,3.0977
				c0,1.0674-0.1602,1.9072-0.4805,2.5195s-0.7861,1.0869-1.3984,1.4258s-1.2803,0.5078-2.0039,0.5078
				c-1.1611,0-2.1006-0.3721-2.8164-1.1172S88.8908,131.7607,88.8908,130.3594z M90.3361,130.3594
				c0,1.0625,0.2314,1.8584,0.6953,2.3867s1.0469,0.793,1.75,0.793c0.6982,0,1.2783-0.2656,1.7422-0.7969
				s0.6953-1.3408,0.6953-2.4297c0-1.0264-0.2334-1.8037-0.6992-2.332s-1.0459-0.793-1.7383-0.793
				c-0.7031,0-1.2861,0.2627-1.75,0.7891S90.3361,129.2969,90.3361,130.3594z"/>
		</g>
	</g>
	<g>
		<path style="fill:#FFAF25;" d="M251.6856,97.8515h-65.8301c-20.5117,0-37.1387-16.6289-37.1387-37.1396V15.6943
			C148.7168,7.0263,155.7432,0,164.4092,0h65.832c20.5118,0,37.1387,16.6269,37.1387,37.1396v45.0176
			C267.3799,90.8252,260.3526,97.8515,251.6856,97.8515z"/>
	</g>
	<g>
		<g>
			<path style="fill:#FFFFFF;" d="M153.6535,49.9258V38.4727h1.5156v11.4531H153.6535z"/>
			<path style="fill:#FFFFFF;" d="M157.6613,49.9258v-8.2969h1.2578v1.1641c0.2607-0.4063,0.6064-0.7334,1.0391-0.9805
				s0.9248-0.3711,1.4766-0.3711c0.6143,0,1.1182,0.1279,1.5117,0.3828s0.6709,0.6123,0.832,1.0703
				c0.6563-0.9688,1.5107-1.4531,2.5625-1.4531c0.8232,0,1.4561,0.2275,1.8984,0.6836s0.6641,1.1572,0.6641,2.1055v5.6953h-1.3984
				v-5.2266c0-0.5625-0.0459-0.9678-0.1367-1.2148s-0.2568-0.4463-0.4961-0.5977s-0.5205-0.2266-0.8438-0.2266
				c-0.583,0-1.0674,0.1943-1.4531,0.582s-0.5781,1.0088-0.5781,1.8633v4.8203h-1.4063v-5.3906c0-0.625-0.1143-1.0938-0.3438-1.4063
				s-0.6045-0.4688-1.125-0.4688c-0.3955,0-0.7617,0.1045-1.0977,0.3125s-0.5791,0.5127-0.7305,0.9141s-0.2266,0.9795-0.2266,1.7344
				v4.3047H157.6613z"/>
			<path style="fill:#FFFFFF;" d="M170.9894,53.1055V41.6289h1.2813v1.0781c0.3018-0.4219,0.6436-0.7383,1.0234-0.9492
				s0.8408-0.3164,1.3828-0.3164c0.708,0,1.333,0.1826,1.875,0.5469s0.9502,0.8789,1.2266,1.543s0.4141,1.3916,0.4141,2.1836
				c0,0.8486-0.1523,1.6133-0.457,2.293s-0.7471,1.2002-1.3281,1.5625s-1.1914,0.543-1.832,0.543
				c-0.4688,0-0.8896-0.0986-1.2617-0.2969s-0.6787-0.4482-0.918-0.75v4.0391H170.9894z M172.2628,45.8242
				c0,1.0674,0.2158,1.8564,0.6484,2.3672s0.9561,0.7656,1.5703,0.7656c0.625,0,1.1602-0.2646,1.6055-0.793
				s0.668-1.3477,0.668-2.457c0-1.0576-0.2178-1.8486-0.6523-2.375s-0.9541-0.7891-1.5586-0.7891
				c-0.5986,0-1.1289,0.2803-1.5898,0.8398S172.2628,44.7568,172.2628,45.8242z"/>
			<path style="fill:#FFFFFF;" d="M179.8566,49.9258V38.4727h1.4063v11.4531H179.8566z"/>
			<path style="fill:#FFFFFF;" d="M189.1222,47.2539l1.4531,0.1797c-0.2295,0.8486-0.6533,1.5078-1.2734,1.9766
				s-1.4111,0.7031-2.375,0.7031c-1.2139,0-2.1758-0.374-2.8867-1.1211s-1.0664-1.7959-1.0664-3.1445
				c0-1.3955,0.3594-2.4795,1.0781-3.25s1.6514-1.1563,2.7969-1.1563c1.1094,0,2.0156,0.3779,2.7188,1.1328
				s1.0547,1.8174,1.0547,3.1875c0,0.083-0.0029,0.208-0.0078,0.375h-6.1875c0.0518,0.9111,0.3096,1.6094,0.7734,2.0938
				s1.042,0.7266,1.7344,0.7266c0.5156,0,0.9561-0.1357,1.3203-0.4063S188.9083,47.8477,189.1222,47.2539z M184.505,44.9805h4.6328
				c-0.0625-0.6982-0.2393-1.2217-0.5313-1.5703c-0.4482-0.542-1.0283-0.8125-1.7422-0.8125c-0.6455,0-1.1885,0.2158-1.6289,0.6484
				S184.5519,44.2568,184.505,44.9805z"/>
			<path style="fill:#FFFFFF;" d="M192.341,49.9258v-8.2969h1.2578v1.1641c0.2607-0.4063,0.6064-0.7334,1.0391-0.9805
				s0.9248-0.3711,1.4766-0.3711c0.6143,0,1.1182,0.1279,1.5117,0.3828s0.6709,0.6123,0.832,1.0703
				c0.6563-0.9688,1.5107-1.4531,2.5625-1.4531c0.8232,0,1.4561,0.2275,1.8984,0.6836s0.6641,1.1572,0.6641,2.1055v5.6953h-1.3984
				v-5.2266c0-0.5625-0.0459-0.9678-0.1367-1.2148s-0.2568-0.4463-0.4961-0.5977s-0.5205-0.2266-0.8438-0.2266
				c-0.583,0-1.0674,0.1943-1.4531,0.582s-0.5781,1.0088-0.5781,1.8633v4.8203h-1.4063v-5.3906c0-0.625-0.1143-1.0938-0.3438-1.4063
				s-0.6045-0.4688-1.125-0.4688c-0.3955,0-0.7617,0.1045-1.0977,0.3125s-0.5791,0.5127-0.7305,0.9141s-0.2266,0.9795-0.2266,1.7344
				v4.3047H192.341z"/>
			<path style="fill:#FFFFFF;" d="M211.3488,47.2539l1.4531,0.1797c-0.2295,0.8486-0.6533,1.5078-1.2734,1.9766
				s-1.4111,0.7031-2.375,0.7031c-1.2139,0-2.1758-0.374-2.8867-1.1211s-1.0664-1.7959-1.0664-3.1445
				c0-1.3955,0.3594-2.4795,1.0781-3.25s1.6514-1.1563,2.7969-1.1563c1.1094,0,2.0156,0.3779,2.7188,1.1328
				s1.0547,1.8174,1.0547,3.1875c0,0.083-0.0029,0.208-0.0078,0.375h-6.1875c0.0518,0.9111,0.3096,1.6094,0.7734,2.0938
				s1.042,0.7266,1.7344,0.7266c0.5156,0,0.9561-0.1357,1.3203-0.4063S211.1349,47.8477,211.3488,47.2539z M206.7316,44.9805h4.6328
				c-0.0625-0.6982-0.2393-1.2217-0.5313-1.5703c-0.4482-0.542-1.0283-0.8125-1.7422-0.8125c-0.6455,0-1.1885,0.2158-1.6289,0.6484
				S206.7785,44.2568,206.7316,44.9805z"/>
			<path style="fill:#FFFFFF;" d="M214.5675,49.9258v-8.2969h1.2656v1.1797c0.6094-0.9111,1.4893-1.3672,2.6406-1.3672
				c0.5,0,0.96,0.0898,1.3789,0.2695s0.7334,0.415,0.9414,0.707s0.3545,0.6377,0.4375,1.0391
				c0.0518,0.2607,0.0781,0.7158,0.0781,1.3672v5.1016h-1.4063v-5.0469c0-0.5732-0.0547-1.001-0.1641-1.2852
				s-0.3037-0.5107-0.582-0.6797s-0.6055-0.2539-0.9805-0.2539c-0.5986,0-1.1162,0.1904-1.5508,0.5703s-0.6523,1.1016-0.6523,2.1641
				v4.5313H214.5675z"/>
			<path style="fill:#FFFFFF;" d="M226.5363,48.668l0.2031,1.2422c-0.3955,0.083-0.75,0.125-1.0625,0.125
				c-0.5107,0-0.9063-0.0811-1.1875-0.2422s-0.4795-0.374-0.5938-0.6367s-0.1719-0.8164-0.1719-1.6602v-4.7734h-1.0313v-1.0938
				h1.0313v-2.0547l1.3984-0.8438v2.8984h1.4141v1.0938h-1.4141v4.8516c0,0.4014,0.0244,0.6592,0.0742,0.7734
				s0.1299,0.2061,0.2422,0.2734s0.2725,0.1016,0.4805,0.1016C226.0753,48.7227,226.2814,48.7041,226.5363,48.668z"/>
			<path style="fill:#FFFFFF;" d="M233.3253,48.9023c-0.5205,0.4424-1.0225,0.7549-1.5039,0.9375s-0.999,0.2734-1.5508,0.2734
				c-0.9111,0-1.6123-0.2227-2.1016-0.668s-0.7344-1.0146-0.7344-1.707c0-0.4063,0.0928-0.7773,0.2773-1.1133
				s0.4268-0.6055,0.7266-0.8086s0.6367-0.3564,1.0117-0.4609c0.2764-0.0732,0.6924-0.1436,1.25-0.2109
				c1.1357-0.1357,1.9717-0.2969,2.5078-0.4844c0.0049-0.1924,0.0078-0.3154,0.0078-0.3672c0-0.5732-0.1328-0.9766-0.3984-1.2109
				c-0.3594-0.3174-0.8936-0.4766-1.6016-0.4766c-0.6611,0-1.1494,0.1162-1.4648,0.3477s-0.5479,0.6416-0.6992,1.2305l-1.375-0.1875
				c0.125-0.5889,0.3311-1.0635,0.6172-1.4258s0.7002-0.6406,1.2422-0.8359s1.1689-0.293,1.8828-0.293
				c0.708,0,1.2842,0.083,1.7266,0.25s0.7686,0.376,0.9766,0.6289s0.3545,0.5713,0.4375,0.957
				c0.0469,0.2393,0.0703,0.6719,0.0703,1.2969v1.875c0,1.3076,0.0303,2.1338,0.0898,2.4805s0.1787,0.6787,0.3555,0.9961h-1.4688
				C233.4611,49.6338,233.3673,49.293,233.3253,48.9023z M233.2081,45.7617c-0.5107,0.208-1.2764,0.3857-2.2969,0.5313
				c-0.5781,0.083-0.9873,0.1768-1.2266,0.2813s-0.4248,0.2568-0.5547,0.457s-0.1953,0.4229-0.1953,0.668
				c0,0.375,0.1416,0.6875,0.4258,0.9375s0.6992,0.375,1.2461,0.375c0.542,0,1.0234-0.1182,1.4453-0.3555
				s0.7314-0.5615,0.9297-0.9727c0.1514-0.3174,0.2266-0.7861,0.2266-1.4063V45.7617z"/>
			<path style="fill:#FFFFFF;" d="M242.2238,46.8867l1.3828,0.1797c-0.1514,0.9531-0.5381,1.6992-1.1602,2.2383
				s-1.3867,0.8086-2.293,0.8086c-1.1357,0-2.0479-0.3711-2.7383-1.1133s-1.0352-1.8057-1.0352-3.1914
				c0-0.8955,0.1484-1.6797,0.4453-2.3516s0.749-1.1758,1.3555-1.5117s1.2666-0.5039,1.9805-0.5039
				c0.9014,0,1.6377,0.2275,2.2109,0.6836s0.9404,1.1025,1.1016,1.9414l-1.3672,0.2109c-0.1299-0.5576-0.3604-0.9766-0.6914-1.2578
				s-0.7305-0.4219-1.1992-0.4219c-0.708,0-1.2842,0.2539-1.7266,0.7617s-0.6641,1.3115-0.6641,2.4102
				c0,1.1143,0.2139,1.9248,0.6406,2.4297s0.9844,0.7578,1.6719,0.7578c0.5518,0,1.0127-0.1689,1.3828-0.5078
				S242.1251,47.5898,242.2238,46.8867z"/>
			<path style="fill:#FFFFFF;" d="M244.8175,40.0898v-1.6172h1.4063v1.6172H244.8175z M244.8175,49.9258v-8.2969h1.4063v8.2969
				H244.8175z"/>
			<path style="fill:#FFFFFF;" d="M247.841,45.7773c0-1.5361,0.4268-2.6748,1.2813-3.4141c0.7139-0.6143,1.583-0.9219,2.6094-0.9219
				c1.1406,0,2.0732,0.374,2.7969,1.1211s1.0859,1.7803,1.0859,3.0977c0,1.0674-0.1602,1.9072-0.4805,2.5195
				s-0.7861,1.0869-1.3984,1.4258s-1.2803,0.5078-2.0039,0.5078c-1.1611,0-2.1006-0.3721-2.8164-1.1172
				S247.841,47.1787,247.841,45.7773z M249.2863,45.7773c0,1.0625,0.2314,1.8584,0.6953,2.3867s1.0469,0.793,1.75,0.793
				c0.6982,0,1.2783-0.2656,1.7422-0.7969s0.6953-1.3408,0.6953-2.4297c0-1.0264-0.2334-1.8037-0.6992-2.332
				s-1.0459-0.793-1.7383-0.793c-0.7031,0-1.2861,0.2627-1.75,0.7891S249.2863,44.7148,249.2863,45.7773z M250.9503,40.5977
				l1.0391-2.1875h1.8438l-1.7188,2.1875H250.9503z"/>
			<path style="fill:#FFFFFF;" d="M257.2628,49.9258v-8.2969h1.2656v1.1797c0.6094-0.9111,1.4893-1.3672,2.6406-1.3672
				c0.5,0,0.96,0.0898,1.3789,0.2695s0.7334,0.415,0.9414,0.707s0.3545,0.6377,0.4375,1.0391
				c0.0518,0.2607,0.0781,0.7158,0.0781,1.3672v5.1016h-1.4063v-5.0469c0-0.5732-0.0547-1.001-0.1641-1.2852
				s-0.3037-0.5107-0.582-0.6797s-0.6055-0.2539-0.9805-0.2539c-0.5986,0-1.1162,0.1904-1.5508,0.5703s-0.6523,1.1016-0.6523,2.1641
				v4.5313H257.2628z"/>
		</g>
	</g>
	<g>
		<path style="fill:#54EAB4;" d="M403.3526,178.7011h-65.8301c-20.5117,0-37.1387-16.6289-37.1387-37.1396V96.5439
			c0-8.668,7.0264-15.6943,15.6924-15.6943h65.832c20.5117,0,37.1387,16.6269,37.1387,37.1396v45.0176
			C419.0469,171.6748,412.0196,178.7011,403.3526,178.7011z"/>
	</g>
	<g>
		<g>
			<path style="fill:#333333;" d="M308.4298,123.2949v-11.4531h2.2813l2.7109,8.1094c0.25,0.7549,0.4326,1.3203,0.5469,1.6953
				c0.1299-0.417,0.333-1.0283,0.6094-1.8359l2.7422-7.9688h2.0391v11.4531h-1.4609v-9.5859l-3.3281,9.5859h-1.3672l-3.3125-9.75
				v9.75H308.4298z"/>
			<path style="fill:#333333;" d="M327.0392,122.2715c-0.5205,0.4424-1.0225,0.7549-1.5039,0.9375s-0.999,0.2734-1.5508,0.2734
				c-0.9111,0-1.6123-0.2227-2.1016-0.668s-0.7344-1.0146-0.7344-1.707c0-0.4063,0.0928-0.7773,0.2773-1.1133
				s0.4268-0.6055,0.7266-0.8086s0.6367-0.3564,1.0117-0.4609c0.2764-0.0732,0.6924-0.1436,1.25-0.2109
				c1.1357-0.1357,1.9717-0.2969,2.5078-0.4844c0.0049-0.1924,0.0078-0.3154,0.0078-0.3672c0-0.5732-0.1328-0.9766-0.3984-1.2109
				c-0.3594-0.3174-0.8936-0.4766-1.6016-0.4766c-0.6611,0-1.1494,0.1162-1.4648,0.3477s-0.5479,0.6416-0.6992,1.2305l-1.375-0.1875
				c0.125-0.5889,0.3311-1.0635,0.6172-1.4258s0.7002-0.6406,1.2422-0.8359s1.1689-0.293,1.8828-0.293
				c0.708,0,1.2842,0.083,1.7266,0.25s0.7686,0.376,0.9766,0.6289s0.3545,0.5713,0.4375,0.957
				c0.0469,0.2393,0.0703,0.6719,0.0703,1.2969v1.875c0,1.3076,0.0303,2.1338,0.0898,2.4805s0.1787,0.6787,0.3555,0.9961h-1.4688
				C327.175,123.0029,327.0812,122.6621,327.0392,122.2715z M326.922,119.1309c-0.5107,0.208-1.2764,0.3857-2.2969,0.5313
				c-0.5781,0.083-0.9873,0.1768-1.2266,0.2813s-0.4248,0.2568-0.5547,0.457s-0.1953,0.4229-0.1953,0.668
				c0,0.375,0.1416,0.6875,0.4258,0.9375s0.6992,0.375,1.2461,0.375c0.542,0,1.0234-0.1182,1.4453-0.3555
				s0.7314-0.5615,0.9297-0.9727c0.1514-0.3174,0.2266-0.7861,0.2266-1.4063V119.1309z"/>
			<path style="fill:#333333;" d="M330.5236,123.2949v-8.2969h1.2656v1.1797c0.6094-0.9111,1.4893-1.3672,2.6406-1.3672
				c0.5,0,0.96,0.0898,1.3789,0.2695s0.7334,0.415,0.9414,0.707s0.3545,0.6377,0.4375,1.0391
				c0.0518,0.2607,0.0781,0.7158,0.0781,1.3672v5.1016h-1.4063v-5.0469c0-0.5732-0.0547-1.001-0.1641-1.2852
				s-0.3037-0.5107-0.582-0.6797s-0.6055-0.2539-0.9805-0.2539c-0.5986,0-1.1162,0.1904-1.5508,0.5703s-0.6523,1.1016-0.6523,2.1641
				v4.5313H330.5236z"/>
			<path style="fill:#333333;" d="M342.4923,122.0371l0.2031,1.2422c-0.3955,0.083-0.75,0.125-1.0625,0.125
				c-0.5107,0-0.9063-0.0811-1.1875-0.2422s-0.4795-0.374-0.5938-0.6367s-0.1719-0.8164-0.1719-1.6602v-4.7734h-1.0313v-1.0938
				h1.0313v-2.0547l1.3984-0.8438v2.8984h1.4141v1.0938h-1.4141v4.8516c0,0.4014,0.0244,0.6592,0.0742,0.7734
				s0.1299,0.2061,0.2422,0.2734s0.2725,0.1016,0.4805,0.1016C342.0314,122.0918,342.2375,122.0732,342.4923,122.0371z"/>
			<path style="fill:#333333;" d="M349.547,120.623l1.4531,0.1797c-0.2295,0.8486-0.6533,1.5078-1.2734,1.9766
				s-1.4111,0.7031-2.375,0.7031c-1.2139,0-2.1758-0.374-2.8867-1.1211s-1.0664-1.7959-1.0664-3.1445
				c0-1.3955,0.3594-2.4795,1.0781-3.25s1.6514-1.1563,2.7969-1.1563c1.1094,0,2.0156,0.3779,2.7188,1.1328
				s1.0547,1.8174,1.0547,3.1875c0,0.083-0.0029,0.208-0.0078,0.375h-6.1875c0.0518,0.9111,0.3096,1.6094,0.7734,2.0938
				s1.042,0.7266,1.7344,0.7266c0.5156,0,0.9561-0.1357,1.3203-0.4063S349.3332,121.2168,349.547,120.623z M344.9298,118.3496
				h4.6328c-0.0625-0.6982-0.2393-1.2217-0.5313-1.5703c-0.4482-0.542-1.0283-0.8125-1.7422-0.8125
				c-0.6455,0-1.1885,0.2158-1.6289,0.6484S344.9767,117.626,344.9298,118.3496z"/>
			<path style="fill:#333333;" d="M352.7658,123.2949v-8.2969h1.2656v1.1797c0.6094-0.9111,1.4893-1.3672,2.6406-1.3672
				c0.5,0,0.96,0.0898,1.3789,0.2695s0.7334,0.415,0.9414,0.707s0.3545,0.6377,0.4375,1.0391
				c0.0518,0.2607,0.0781,0.7158,0.0781,1.3672v5.1016h-1.4063v-5.0469c0-0.5732-0.0547-1.001-0.1641-1.2852
				s-0.3037-0.5107-0.582-0.6797s-0.6055-0.2539-0.9805-0.2539c-0.5986,0-1.1162,0.1904-1.5508,0.5703s-0.6523,1.1016-0.6523,2.1641
				v4.5313H352.7658z"/>
			<path style="fill:#333333;" d="M361.672,113.459v-1.6172h1.4063v1.6172H361.672z M361.672,123.2949v-8.2969h1.4063v8.2969
				H361.672z"/>
			<path style="fill:#333333;" d="M365.2189,123.2949v-8.2969h1.2578v1.1641c0.2607-0.4063,0.6064-0.7334,1.0391-0.9805
				s0.9248-0.3711,1.4766-0.3711c0.6143,0,1.1182,0.1279,1.5117,0.3828s0.6709,0.6123,0.832,1.0703
				c0.6563-0.9688,1.5107-1.4531,2.5625-1.4531c0.8232,0,1.4561,0.2275,1.8984,0.6836s0.6641,1.1572,0.6641,2.1055v5.6953h-1.3984
				v-5.2266c0-0.5625-0.0459-0.9678-0.1367-1.2148s-0.2568-0.4463-0.4961-0.5977s-0.5205-0.2266-0.8438-0.2266
				c-0.583,0-1.0674,0.1943-1.4531,0.582s-0.5781,1.0088-0.5781,1.8633v4.8203h-1.4063v-5.3906c0-0.625-0.1143-1.0938-0.3438-1.4063
				s-0.6045-0.4688-1.125-0.4688c-0.3955,0-0.7617,0.1045-1.0977,0.3125s-0.5791,0.5127-0.7305,0.9141s-0.2266,0.9795-0.2266,1.7344
				v4.3047H365.2189z"/>
			<path style="fill:#333333;" d="M378.5548,113.459v-1.6172h1.4063v1.6172H378.5548z M378.5548,123.2949v-8.2969h1.4063v8.2969
				H378.5548z"/>
			<path style="fill:#333333;" d="M387.7814,120.623l1.4531,0.1797c-0.2295,0.8486-0.6533,1.5078-1.2734,1.9766
				s-1.4111,0.7031-2.375,0.7031c-1.2139,0-2.1758-0.374-2.8867-1.1211s-1.0664-1.7959-1.0664-3.1445
				c0-1.3955,0.3594-2.4795,1.0781-3.25s1.6514-1.1563,2.7969-1.1563c1.1094,0,2.0156,0.3779,2.7188,1.1328
				s1.0547,1.8174,1.0547,3.1875c0,0.083-0.0029,0.208-0.0078,0.375h-6.1875c0.0518,0.9111,0.3096,1.6094,0.7734,2.0938
				s1.042,0.7266,1.7344,0.7266c0.5156,0,0.9561-0.1357,1.3203-0.4063S387.5675,121.2168,387.7814,120.623z M383.1642,118.3496
				h4.6328c-0.0625-0.6982-0.2393-1.2217-0.5313-1.5703c-0.4482-0.542-1.0283-0.8125-1.7422-0.8125
				c-0.6455,0-1.1885,0.2158-1.6289,0.6484S383.2111,117.626,383.1642,118.3496z"/>
			<path style="fill:#333333;" d="M391.0002,123.2949v-8.2969h1.2656v1.1797c0.6094-0.9111,1.4893-1.3672,2.6406-1.3672
				c0.5,0,0.96,0.0898,1.3789,0.2695s0.7334,0.415,0.9414,0.707s0.3545,0.6377,0.4375,1.0391
				c0.0518,0.2607,0.0781,0.7158,0.0781,1.3672v5.1016h-1.4063v-5.0469c0-0.5732-0.0547-1.001-0.1641-1.2852
				s-0.3037-0.5107-0.582-0.6797s-0.6055-0.2539-0.9805-0.2539c-0.5986,0-1.1162,0.1904-1.5508,0.5703s-0.6523,1.1016-0.6523,2.1641
				v4.5313H391.0002z"/>
			<path style="fill:#333333;" d="M402.9689,122.0371l0.2031,1.2422c-0.3955,0.083-0.75,0.125-1.0625,0.125
				c-0.5107,0-0.9063-0.0811-1.1875-0.2422s-0.4795-0.374-0.5938-0.6367s-0.1719-0.8164-0.1719-1.6602v-4.7734h-1.0313v-1.0938
				h1.0313v-2.0547l1.3984-0.8438v2.8984h1.4141v1.0938h-1.4141v4.8516c0,0.4014,0.0244,0.6592,0.0742,0.7734
				s0.1299,0.2061,0.2422,0.2734s0.2725,0.1016,0.4805,0.1016C402.508,122.0918,402.714,122.0732,402.9689,122.0371z"/>
			<path style="fill:#333333;" d="M403.8205,119.1465c0-1.5361,0.4268-2.6748,1.2813-3.4141
				c0.7139-0.6143,1.583-0.9219,2.6094-0.9219c1.1406,0,2.0732,0.374,2.7969,1.1211s1.0859,1.7803,1.0859,3.0977
				c0,1.0674-0.1602,1.9072-0.4805,2.5195s-0.7861,1.0869-1.3984,1.4258s-1.2803,0.5078-2.0039,0.5078
				c-1.1611,0-2.1006-0.3721-2.8164-1.1172S403.8205,120.5479,403.8205,119.1465z M405.2658,119.1465
				c0,1.0625,0.2314,1.8584,0.6953,2.3867s1.0469,0.793,1.75,0.793c0.6982,0,1.2783-0.2656,1.7422-0.7969
				s0.6953-1.3408,0.6953-2.4297c0-1.0264-0.2334-1.8037-0.6992-2.332s-1.0459-0.793-1.7383-0.793
				c-0.7031,0-1.2861,0.2627-1.75,0.7891S405.2658,118.084,405.2658,119.1465z"/>
			<path style="fill:#333333;" d="M324.797,142.4951v-1.0469c-0.5264,0.8232-1.2998,1.2344-2.3203,1.2344
				c-0.6611,0-1.2695-0.1826-1.8242-0.5469s-0.9844-0.874-1.2891-1.5273s-0.457-1.4053-0.457-2.2539
				c0-0.8281,0.1377-1.5791,0.4141-2.2539s0.6904-1.1914,1.2422-1.5508s1.1689-0.5391,1.8516-0.5391
				c0.5,0,0.9453,0.1055,1.3359,0.3164s0.708,0.4854,0.9531,0.8242v-4.1094h1.3984v11.4531H324.797z M320.3517,138.3545
				c0,1.0625,0.2236,1.8564,0.6719,2.3828s0.9766,0.7891,1.5859,0.7891c0.6143,0,1.1367-0.251,1.5664-0.7539
				s0.6445-1.2695,0.6445-2.3008c0-1.1357-0.2188-1.9688-0.6563-2.5s-0.9766-0.7969-1.6172-0.7969
				c-0.625,0-1.1475,0.2549-1.5664,0.7656S320.3517,137.2559,320.3517,138.3545z"/>
			<path style="fill:#333333;" d="M333.9923,139.8232l1.4531,0.1797c-0.2295,0.8486-0.6533,1.5078-1.2734,1.9766
				s-1.4111,0.7031-2.375,0.7031c-1.2139,0-2.1758-0.374-2.8867-1.1211s-1.0664-1.7959-1.0664-3.1445
				c0-1.3955,0.3594-2.4795,1.0781-3.25s1.6514-1.1563,2.7969-1.1563c1.1094,0,2.0156,0.3779,2.7188,1.1328
				s1.0547,1.8174,1.0547,3.1875c0,0.083-0.0029,0.208-0.0078,0.375h-6.1875c0.0518,0.9111,0.3096,1.6094,0.7734,2.0938
				s1.042,0.7266,1.7344,0.7266c0.5156,0,0.9561-0.1357,1.3203-0.4063S333.7785,140.417,333.9923,139.8232z M329.3752,137.5498
				h4.6328c-0.0625-0.6982-0.2393-1.2217-0.5313-1.5703c-0.4482-0.542-1.0283-0.8125-1.7422-0.8125
				c-0.6455,0-1.1885,0.2158-1.6289,0.6484S329.422,136.8262,329.3752,137.5498z"/>
			<path style="fill:#333333;" d="M341.0939,140.0186l1.3906-0.2188c0.0781,0.5576,0.2959,0.9844,0.6523,1.2813
				s0.8555,0.4453,1.4961,0.4453c0.6455,0,1.125-0.1318,1.4375-0.3945s0.4688-0.5713,0.4688-0.9258
				c0-0.3174-0.1377-0.5674-0.4141-0.75c-0.1924-0.125-0.6719-0.2842-1.4375-0.4766c-1.0313-0.2607-1.7461-0.4854-2.1445-0.6758
				s-0.7002-0.4531-0.9063-0.7891s-0.3086-0.707-0.3086-1.1133c0-0.3701,0.085-0.7119,0.2539-1.0273s0.3994-0.5771,0.6914-0.7852
				c0.2188-0.1611,0.5166-0.2979,0.8945-0.4102s0.7822-0.168,1.2148-0.168c0.6514,0,1.2227,0.0938,1.7148,0.2813
				s0.8555,0.4414,1.0898,0.7617s0.3955,0.749,0.4844,1.2852l-1.375,0.1875c-0.0625-0.4268-0.2432-0.7607-0.543-1
				s-0.7227-0.3594-1.2695-0.3594c-0.6455,0-1.1064,0.1064-1.3828,0.3203s-0.4141,0.4639-0.4141,0.75
				c0,0.1826,0.0576,0.3467,0.1719,0.4922c0.1143,0.1514,0.2939,0.2764,0.5391,0.375c0.1406,0.0518,0.5547,0.1719,1.2422,0.3594
				c0.9951,0.2656,1.6885,0.4834,2.082,0.6523s0.7021,0.415,0.9258,0.7383s0.3359,0.7236,0.3359,1.2031
				c0,0.4688-0.1367,0.9102-0.4102,1.3242s-0.668,0.7344-1.1836,0.9609s-1.0986,0.3398-1.75,0.3398
				c-1.0781,0-1.8994-0.2236-2.4648-0.6719S341.2502,140.8984,341.0939,140.0186z"/>
			<path style="fill:#333333;" d="M349.133,138.3467c0-1.5361,0.4268-2.6748,1.2813-3.4141
				c0.7139-0.6143,1.583-0.9219,2.6094-0.9219c1.1406,0,2.0732,0.374,2.7969,1.1211s1.0859,1.7803,1.0859,3.0977
				c0,1.0674-0.1602,1.9072-0.4805,2.5195s-0.7861,1.0869-1.3984,1.4258s-1.2803,0.5078-2.0039,0.5078
				c-1.1611,0-2.1006-0.3721-2.8164-1.1172S349.133,139.748,349.133,138.3467z M350.5783,138.3467
				c0,1.0625,0.2314,1.8584,0.6953,2.3867s1.0469,0.793,1.75,0.793c0.6982,0,1.2783-0.2656,1.7422-0.7969
				s0.6953-1.3408,0.6953-2.4297c0-1.0264-0.2334-1.8037-0.6992-2.332s-1.0459-0.793-1.7383-0.793
				c-0.7031,0-1.2861,0.2627-1.75,0.7891S350.5783,137.2842,350.5783,138.3467z"/>
			<path style="fill:#333333;" d="M358.8908,142.4951v-7.2031h-1.2422v-1.0938h1.2422v-0.8828c0-0.5576,0.0498-0.9717,0.1484-1.2422
				c0.1357-0.3643,0.374-0.6602,0.7148-0.8867s0.8193-0.3398,1.4336-0.3398c0.3955,0,0.833,0.0469,1.3125,0.1406l-0.2109,1.2266
				c-0.292-0.0518-0.5674-0.0781-0.8281-0.0781c-0.4268,0-0.7295,0.0908-0.9063,0.2734s-0.2656,0.5234-0.2656,1.0234v0.7656h1.6172
				v1.0938h-1.6172v7.2031H358.8908z"/>
			<path style="fill:#333333;" d="M366.0705,141.2373l0.2031,1.2422c-0.3955,0.083-0.75,0.125-1.0625,0.125
				c-0.5107,0-0.9063-0.0811-1.1875-0.2422s-0.4795-0.374-0.5938-0.6367s-0.1719-0.8164-0.1719-1.6602v-4.7734h-1.0313v-1.0938
				h1.0313v-2.0547l1.3984-0.8438v2.8984h1.4141v1.0938h-1.4141v4.8516c0,0.4014,0.0244,0.6592,0.0742,0.7734
				s0.1299,0.2061,0.2422,0.2734s0.2725,0.1016,0.4805,0.1016C365.6095,141.292,365.8156,141.2734,366.0705,141.2373z"/>
			<path style="fill:#333333;" d="M368.9767,142.4951l-2.5391-8.2969h1.4531l1.3203,4.7891l0.4922,1.7813
				c0.0205-0.0889,0.1641-0.6592,0.4297-1.7109l1.3203-4.8594h1.4453l1.2422,4.8125l0.4141,1.5859l0.4766-1.6016l1.4219-4.7969
				h1.3672l-2.5938,8.2969h-1.4609l-1.3203-4.9688l-0.3203-1.4141l-1.6797,6.3828H368.9767z"/>
			<path style="fill:#333333;" d="M384.4142,141.4717c-0.5205,0.4424-1.0225,0.7549-1.5039,0.9375s-0.999,0.2734-1.5508,0.2734
				c-0.9111,0-1.6123-0.2227-2.1016-0.668s-0.7344-1.0146-0.7344-1.707c0-0.4063,0.0928-0.7773,0.2773-1.1133
				s0.4268-0.6055,0.7266-0.8086s0.6367-0.3564,1.0117-0.4609c0.2764-0.0732,0.6924-0.1436,1.25-0.2109
				c1.1357-0.1357,1.9717-0.2969,2.5078-0.4844c0.0049-0.1924,0.0078-0.3154,0.0078-0.3672c0-0.5732-0.1328-0.9766-0.3984-1.2109
				c-0.3594-0.3174-0.8936-0.4766-1.6016-0.4766c-0.6611,0-1.1494,0.1162-1.4648,0.3477s-0.5479,0.6416-0.6992,1.2305l-1.375-0.1875
				c0.125-0.5889,0.3311-1.0635,0.6172-1.4258s0.7002-0.6406,1.2422-0.8359s1.1689-0.293,1.8828-0.293
				c0.708,0,1.2842,0.083,1.7266,0.25s0.7686,0.376,0.9766,0.6289s0.3545,0.5713,0.4375,0.957
				c0.0469,0.2393,0.0703,0.6719,0.0703,1.2969v1.875c0,1.3076,0.0303,2.1338,0.0898,2.4805s0.1787,0.6787,0.3555,0.9961h-1.4688
				C384.55,142.2031,384.4562,141.8623,384.4142,141.4717z M384.297,138.3311c-0.5107,0.208-1.2764,0.3857-2.2969,0.5313
				c-0.5781,0.083-0.9873,0.1768-1.2266,0.2813s-0.4248,0.2568-0.5547,0.457s-0.1953,0.4229-0.1953,0.668
				c0,0.375,0.1416,0.6875,0.4258,0.9375s0.6992,0.375,1.2461,0.375c0.542,0,1.0234-0.1182,1.4453-0.3555
				s0.7314-0.5615,0.9297-0.9727c0.1514-0.3174,0.2266-0.7861,0.2266-1.4063V138.3311z"/>
			<path style="fill:#333333;" d="M387.883,142.4951v-8.2969h1.2656v1.2578c0.3232-0.5889,0.6211-0.9766,0.8945-1.1641
				s0.5742-0.2813,0.9023-0.2813c0.4736,0,0.9561,0.1514,1.4453,0.4531l-0.4844,1.3047c-0.3438-0.2031-0.6875-0.3047-1.0313-0.3047
				c-0.3076,0-0.583,0.0928-0.8281,0.2773s-0.4189,0.4414-0.5234,0.7695c-0.1563,0.5-0.2344,1.0469-0.2344,1.6406v4.3438H387.883z"
				/>
			<path style="fill:#333333;" d="M398.9064,139.8232l1.4531,0.1797c-0.2295,0.8486-0.6533,1.5078-1.2734,1.9766
				s-1.4111,0.7031-2.375,0.7031c-1.2139,0-2.1758-0.374-2.8867-1.1211s-1.0664-1.7959-1.0664-3.1445
				c0-1.3955,0.3594-2.4795,1.0781-3.25s1.6514-1.1563,2.7969-1.1563c1.1094,0,2.0156,0.3779,2.7188,1.1328
				s1.0547,1.8174,1.0547,3.1875c0,0.083-0.0029,0.208-0.0078,0.375h-6.1875c0.0518,0.9111,0.3096,1.6094,0.7734,2.0938
				s1.042,0.7266,1.7344,0.7266c0.5156,0,0.9561-0.1357,1.3203-0.4063S398.6925,140.417,398.9064,139.8232z M394.2892,137.5498
				h4.6328c-0.0625-0.6982-0.2393-1.2217-0.5313-1.5703c-0.4482-0.542-1.0283-0.8125-1.7422-0.8125
				c-0.6455,0-1.1885,0.2158-1.6289,0.6484S394.3361,136.8262,394.2892,137.5498z"/>
		</g>
	</g>
	<circle style="fill:#F75D52;" cx="210.8936" cy="236.0678" r="61.1319"/>
	<g>
		<g>
			<path d="M188.1085,219.9453v-11.4531h1.5547l6.0156,8.9922v-8.9922h1.4531v11.4531h-1.5547l-6.0156-9v9H188.1085z"/>
			<path d="M198.9757,215.7969c0-1.5361,0.4268-2.6748,1.2813-3.4141c0.7139-0.6143,1.583-0.9219,2.6094-0.9219
				c1.1406,0,2.0732,0.374,2.7969,1.1211s1.0859,1.7803,1.0859,3.0977c0,1.0674-0.1602,1.9072-0.4805,2.5195
				s-0.7861,1.0869-1.3984,1.4258s-1.2803,0.5078-2.0039,0.5078c-1.1611,0-2.1006-0.3721-2.8164-1.1172
				S198.9757,217.1982,198.9757,215.7969z M200.421,215.7969c0,1.0625,0.2314,1.8584,0.6953,2.3867s1.0469,0.793,1.75,0.793
				c0.6982,0,1.2783-0.2656,1.7422-0.7969s0.6953-1.3408,0.6953-2.4297c0-1.0264-0.2334-1.8037-0.6992-2.332
				s-1.0459-0.793-1.7383-0.793c-0.7031,0-1.2861,0.2627-1.75,0.7891S200.421,214.7344,200.421,215.7969z"/>
			<path d="M208.382,219.9453v-8.2969h1.2656v1.2578c0.3232-0.5889,0.6211-0.9766,0.8945-1.1641s0.5742-0.2813,0.9023-0.2813
				c0.4736,0,0.9561,0.1514,1.4453,0.4531l-0.4844,1.3047c-0.3438-0.2031-0.6875-0.3047-1.0313-0.3047
				c-0.3076,0-0.583,0.0928-0.8281,0.2773s-0.4189,0.4414-0.5234,0.7695c-0.1563,0.5-0.2344,1.0469-0.2344,1.6406v4.3438H208.382z"
				/>
			<path d="M213.7257,219.9453v-8.2969h1.2578v1.1641c0.2607-0.4063,0.6064-0.7334,1.0391-0.9805s0.9248-0.3711,1.4766-0.3711
				c0.6143,0,1.1182,0.1279,1.5117,0.3828s0.6709,0.6123,0.832,1.0703c0.6563-0.9688,1.5107-1.4531,2.5625-1.4531
				c0.8232,0,1.4561,0.2275,1.8984,0.6836s0.6641,1.1572,0.6641,2.1055v5.6953h-1.3984v-5.2266
				c0-0.5625-0.0459-0.9678-0.1367-1.2148s-0.2568-0.4463-0.4961-0.5977s-0.5205-0.2266-0.8438-0.2266
				c-0.583,0-1.0674,0.1943-1.4531,0.582s-0.5781,1.0088-0.5781,1.8633v4.8203h-1.4063v-5.3906c0-0.625-0.1143-1.0938-0.3438-1.4063
				s-0.6045-0.4688-1.125-0.4688c-0.3955,0-0.7617,0.1045-1.0977,0.3125s-0.5791,0.5127-0.7305,0.9141s-0.2266,0.9795-0.2266,1.7344
				v4.3047H213.7257z"/>
			<path d="M232.4679,218.9219c-0.5205,0.4424-1.0225,0.7549-1.5039,0.9375s-0.999,0.2734-1.5508,0.2734
				c-0.9111,0-1.6123-0.2227-2.1016-0.668s-0.7344-1.0146-0.7344-1.707c0-0.4063,0.0928-0.7773,0.2773-1.1133
				s0.4268-0.6055,0.7266-0.8086s0.6367-0.3564,1.0117-0.4609c0.2764-0.0732,0.6924-0.1436,1.25-0.2109
				c1.1357-0.1357,1.9717-0.2969,2.5078-0.4844c0.0049-0.1924,0.0078-0.3154,0.0078-0.3672c0-0.5732-0.1328-0.9766-0.3984-1.2109
				c-0.3594-0.3174-0.8936-0.4766-1.6016-0.4766c-0.6611,0-1.1494,0.1162-1.4648,0.3477s-0.5479,0.6416-0.6992,1.2305l-1.375-0.1875
				c0.125-0.5889,0.3311-1.0635,0.6172-1.4258s0.7002-0.6406,1.2422-0.8359s1.1689-0.293,1.8828-0.293
				c0.708,0,1.2842,0.083,1.7266,0.25s0.7686,0.376,0.9766,0.6289s0.3545,0.5713,0.4375,0.957
				c0.0469,0.2393,0.0703,0.6719,0.0703,1.2969v1.875c0,1.3076,0.0303,2.1338,0.0898,2.4805s0.1787,0.6787,0.3555,0.9961h-1.4688
				C232.6037,219.6533,232.5099,219.3125,232.4679,218.9219z M232.3507,215.7813c-0.5107,0.208-1.2764,0.3857-2.2969,0.5313
				c-0.5781,0.083-0.9873,0.1768-1.2266,0.2813s-0.4248,0.2568-0.5547,0.457s-0.1953,0.4229-0.1953,0.668
				c0,0.375,0.1416,0.6875,0.4258,0.9375s0.6992,0.375,1.2461,0.375c0.542,0,1.0234-0.1182,1.4453-0.3555
				s0.7314-0.5615,0.9297-0.9727c0.1514-0.3174,0.2266-0.7861,0.2266-1.4063V215.7813z"/>
			<path d="M198.6046,239.1455v-11.4531h1.5156v11.4531H198.6046z"/>
			<path d="M202.2765,235.4658l1.4297-0.125c0.0674,0.5732,0.2256,1.043,0.4727,1.4102s0.6318,0.6641,1.1523,0.8906
				s1.1064,0.3398,1.7578,0.3398c0.5781,0,1.0889-0.0859,1.5313-0.2578s0.7725-0.4072,0.9883-0.707s0.3242-0.626,0.3242-0.9805
				c0-0.3594-0.1045-0.6729-0.3125-0.9414s-0.5518-0.4932-1.0313-0.6758c-0.3076-0.1201-0.9873-0.3057-2.0391-0.5586
				s-1.7891-0.4912-2.2109-0.7148c-0.5469-0.2861-0.9541-0.6416-1.2227-1.0664s-0.4023-0.8994-0.4023-1.4258
				c0-0.5781,0.1641-1.1182,0.4922-1.6211s0.8076-0.8838,1.4375-1.1445s1.3311-0.3906,2.1016-0.3906
				c0.8486,0,1.5977,0.1367,2.2461,0.4102s1.1475,0.6758,1.4961,1.207s0.5361,1.1328,0.5625,1.8047l-1.4531,0.1094
				c-0.0781-0.7236-0.3428-1.2705-0.793-1.6406s-1.1162-0.5547-1.9961-0.5547c-0.917,0-1.585,0.168-2.0039,0.5039
				s-0.6289,0.7412-0.6289,1.2148c0,0.4111,0.1484,0.75,0.4453,1.0156c0.292,0.2656,1.0537,0.5381,2.2852,0.8164
				s2.0771,0.5225,2.5352,0.7305c0.667,0.3076,1.1592,0.6963,1.4766,1.168s0.4766,1.0146,0.4766,1.6289
				c0,0.6094-0.1748,1.1836-0.5234,1.7227s-0.8506,0.958-1.5039,1.2578s-1.3896,0.4492-2.207,0.4492
				c-1.0361,0-1.9053-0.1514-2.6055-0.4531s-1.25-0.7568-1.6484-1.3633S202.297,236.2314,202.2765,235.4658z"/>
			<path d="M213.0031,233.5674c0-1.9014,0.5107-3.3896,1.5313-4.4648s2.3389-1.6133,3.9531-1.6133
				c1.0576,0,2.0107,0.2529,2.8594,0.7578s1.4961,1.21,1.9414,2.1133s0.668,1.9287,0.668,3.0742
				c0,1.1611-0.2344,2.2002-0.7031,3.1172s-1.1328,1.6104-1.9922,2.082s-1.7861,0.707-2.7813,0.707
				c-1.0781,0-2.042-0.2607-2.8906-0.7813s-1.4922-1.2314-1.9297-2.1328S213.0031,234.5723,213.0031,233.5674z M214.5656,233.5908
				c0,1.3799,0.3711,2.4678,1.1133,3.2617s1.6729,1.1914,2.793,1.1914c1.1406,0,2.0791-0.4014,2.8164-1.2031
				s1.1055-1.9404,1.1055-3.4141c0-0.9326-0.1572-1.7461-0.4727-2.4414s-0.7764-1.2344-1.3828-1.6172s-1.2881-0.5742-2.043-0.5742
				c-1.0732,0-1.9961,0.3682-2.7695,1.1055S214.5656,231.8672,214.5656,233.5908z"/>
			<path d="M186.8585,255.6973l1.3516-0.125c0.1143,0.6357,0.333,1.0967,0.6563,1.3828s0.7373,0.4297,1.2422,0.4297
				c0.4326,0,0.8115-0.0986,1.1367-0.2969s0.5928-0.4619,0.8008-0.793s0.3828-0.7773,0.5234-1.3398s0.2109-1.1357,0.2109-1.7188
				c0-0.0625-0.0029-0.1563-0.0078-0.2813c-0.2813,0.4482-0.665,0.8115-1.1523,1.0898s-1.0146,0.418-1.582,0.418
				c-0.9482,0-1.75-0.3438-2.4063-1.0313s-0.9844-1.5938-0.9844-2.7188c0-1.1611,0.3428-2.0967,1.0273-2.8047
				s1.543-1.0625,2.5742-1.0625c0.7451,0,1.4258,0.2002,2.043,0.6016s1.0859,0.9727,1.4063,1.7148s0.4805,1.8164,0.4805,3.2227
				c0,1.4639-0.1592,2.6289-0.4766,3.4961s-0.79,1.5273-1.418,1.9805s-1.3633,0.6797-2.207,0.6797
				c-0.8955,0-1.6279-0.249-2.1953-0.7461S186.9728,256.5986,186.8585,255.6973z M192.6163,250.6426
				c0-0.8076-0.2148-1.4482-0.6445-1.9219s-0.9463-0.7109-1.5508-0.7109c-0.625,0-1.1689,0.2549-1.6328,0.7656
				s-0.6953,1.1719-0.6953,1.9844c0,0.7295,0.2197,1.3213,0.6602,1.7773s0.9834,0.6836,1.6289,0.6836
				c0.6514,0,1.1865-0.2275,1.6055-0.6836S192.6163,251.4502,192.6163,250.6426z"/>
			<path d="M195.546,252.6973c0-1.3545,0.1396-2.4443,0.418-3.2695s0.6924-1.4619,1.2422-1.9102s1.2412-0.6719,2.0742-0.6719
				c0.6143,0,1.1533,0.124,1.6172,0.3711s0.8467,0.6045,1.1484,1.0703s0.5391,1.0342,0.7109,1.7031s0.2578,1.5713,0.2578,2.707
				c0,1.3438-0.1377,2.4287-0.4141,3.2539s-0.6885,1.4639-1.2383,1.9141s-1.2432,0.6758-2.082,0.6758
				c-1.1045,0-1.9717-0.3955-2.6016-1.1875C195.924,256.4004,195.546,254.8486,195.546,252.6973z M196.9913,252.6973
				c0,1.8799,0.2197,3.1318,0.6602,3.7539s0.9834,0.9336,1.6289,0.9336s1.1885-0.3125,1.6289-0.9375s0.6602-1.875,0.6602-3.75
				c0-1.8857-0.2197-3.1377-0.6602-3.7578s-0.9883-0.9297-1.6445-0.9297c-0.6455,0-1.1611,0.2734-1.5469,0.8203
				C197.2335,249.5283,196.9913,250.8174,196.9913,252.6973z"/>
			<path d="M204.4445,252.6973c0-1.3545,0.1396-2.4443,0.418-3.2695s0.6924-1.4619,1.2422-1.9102s1.2412-0.6719,2.0742-0.6719
				c0.6143,0,1.1533,0.124,1.6172,0.3711s0.8467,0.6045,1.1484,1.0703s0.5391,1.0342,0.7109,1.7031s0.2578,1.5713,0.2578,2.707
				c0,1.3438-0.1377,2.4287-0.4141,3.2539s-0.6885,1.4639-1.2383,1.9141s-1.2432,0.6758-2.082,0.6758
				c-1.1045,0-1.9717-0.3955-2.6016-1.1875C204.8224,256.4004,204.4445,254.8486,204.4445,252.6973z M205.8898,252.6973
				c0,1.8799,0.2197,3.1318,0.6602,3.7539s0.9834,0.9336,1.6289,0.9336s1.1885-0.3125,1.6289-0.9375s0.6602-1.875,0.6602-3.75
				c0-1.8857-0.2197-3.1377-0.6602-3.7578s-0.9883-0.9297-1.6445-0.9297c-0.6455,0-1.1611,0.2734-1.5469,0.8203
				C206.132,249.5283,205.8898,250.8174,205.8898,252.6973z"/>
			<path d="M213.3429,252.6973c0-1.3545,0.1396-2.4443,0.418-3.2695s0.6924-1.4619,1.2422-1.9102s1.2412-0.6719,2.0742-0.6719
				c0.6143,0,1.1533,0.124,1.6172,0.3711s0.8467,0.6045,1.1484,1.0703s0.5391,1.0342,0.7109,1.7031s0.2578,1.5713,0.2578,2.707
				c0,1.3438-0.1377,2.4287-0.4141,3.2539s-0.6885,1.4639-1.2383,1.9141s-1.2432,0.6758-2.082,0.6758
				c-1.1045,0-1.9717-0.3955-2.6016-1.1875C213.7208,256.4004,213.3429,254.8486,213.3429,252.6973z M214.7882,252.6973
				c0,1.8799,0.2197,3.1318,0.6602,3.7539s0.9834,0.9336,1.6289,0.9336s1.1885-0.3125,1.6289-0.9375s0.6602-1.875,0.6602-3.75
				c0-1.8857-0.2197-3.1377-0.6602-3.7578s-0.9883-0.9297-1.6445-0.9297c-0.6455,0-1.1611,0.2734-1.5469,0.8203
				C215.0304,249.5283,214.7882,250.8174,214.7882,252.6973z"/>
			<path d="M222.0851,254.9082v-1.4141h4.3203v1.4141H222.0851z"/>
			<path d="M227.5773,255.3223l1.4063-0.1875c0.1611,0.7969,0.4365,1.3711,0.8242,1.7227s0.8604,0.5273,1.418,0.5273
				c0.6611,0,1.2197-0.2295,1.6758-0.6875s0.6836-1.0264,0.6836-1.7031c0-0.6455-0.2109-1.1787-0.6328-1.5977
				s-0.958-0.6289-1.6094-0.6289c-0.2656,0-0.5967,0.0518-0.9922,0.1563l0.1563-1.2344c0.0938,0.0107,0.1689,0.0156,0.2266,0.0156
				c0.5986,0,1.1377-0.1563,1.6172-0.4688s0.7188-0.7939,0.7188-1.4453c0-0.5156-0.1748-0.9424-0.5234-1.2813
				s-0.7998-0.5078-1.3516-0.5078c-0.5469,0-1.0029,0.1719-1.3672,0.5156s-0.5986,0.8594-0.7031,1.5469l-1.4063-0.25
				c0.1719-0.9424,0.5625-1.6729,1.1719-2.1914s1.3672-0.7773,2.2734-0.7773c0.625,0,1.2002,0.1338,1.7266,0.4023
				s0.9287,0.6338,1.207,1.0977s0.418,0.9561,0.418,1.4766c0,0.4951-0.1328,0.9453-0.3984,1.3516s-0.6592,0.7295-1.1797,0.9688
				c0.6768,0.1563,1.2031,0.4805,1.5781,0.9727s0.5625,1.1084,0.5625,1.8477c0,1-0.3643,1.8477-1.0938,2.543
				s-1.6514,1.043-2.7656,1.043c-1.0049,0-1.8398-0.2998-2.5039-0.8984S227.671,256.2754,227.5773,255.3223z"/>
		</g>
	</g>
	<polygon style="fill:#FFAF25;" points="222.501,150.0439 222.501,110.0439 200.501,110.0439 200.501,150.0439 193.501,150.0439 
		211.501,168.0439 228.9492,150.0439 	"/>
	<polygon style="fill:#F15A24;" points="148.8545,183.7705 129.6992,167.4902 115.2451,184.0752 134.4004,200.3564 
		129.8008,205.6337 155.1973,203.8896 153.0908,178.9091 	"/>
	<polygon style="fill:#F15A24;" points="270.5889,183.7705 289.7442,167.4902 304.1983,184.0752 285.043,200.3564 
		289.6426,205.6337 264.2461,203.8896 266.3526,178.9091 	"/>
</g>
</svg>
