<?xml version="1.0" encoding="utf-8"?>
<!-- Generator: Adobe Illustrator 21.0.0, SVG Export Plug-In . SVG Version: 6.00 Build 0)  -->
<svg version="1.1" id="Capa_1" xmlns="http://www.w3.org/2000/svg" xmlns:xlink="http://www.w3.org/1999/xlink" x="0px" y="0px"
	 viewBox="0 0 410.2246 276.3037" style="enable-background:new 0 0 410.2246 276.3037;" xml:space="preserve">
<g>
	<path d="M25.7002,5.2979l0.8789-0.1172c0.1006,0.498,0.2725,0.8564,0.5156,1.0771c0.2422,0.2188,0.5371,0.3291,0.8857,0.3291
		c0.4131,0,0.7627-0.1436,1.0479-0.4297c0.2842-0.2861,0.4268-0.6416,0.4268-1.0645c0-0.4033-0.1318-0.7363-0.3955-0.999
		c-0.2637-0.2617-0.5986-0.3926-1.0059-0.3926c-0.166,0-0.373,0.0322-0.6201,0.0977l0.0977-0.7715
		c0.0586,0.0068,0.1055,0.0098,0.1416,0.0098c0.374,0,0.7109-0.0977,1.0107-0.293s0.4492-0.4961,0.4492-0.9033
		c0-0.3223-0.1094-0.5889-0.3271-0.8008s-0.5-0.3174-0.8447-0.3174c-0.3418,0-0.627,0.1074-0.8545,0.3223
		s-0.374,0.5371-0.4395,0.9668l-0.8789-0.1563c0.1074-0.5889,0.3516-1.0459,0.7324-1.3691C26.9014,0.1621,27.375,0,27.9414,0
		c0.3906,0,0.75,0.084,1.0791,0.252c0.3291,0.167,0.5801,0.3955,0.7539,0.6855c0.1748,0.29,0.2617,0.5977,0.2617,0.9229
		c0,0.3096-0.083,0.5908-0.249,0.8447s-0.4121,0.4561-0.7373,0.6055c0.4229,0.0977,0.752,0.3008,0.9863,0.6074
		c0.2344,0.3086,0.3516,0.6934,0.3516,1.1553c0,0.625-0.2275,1.1553-0.6836,1.5889c-0.4561,0.4355-1.0322,0.6523-1.7285,0.6523
		c-0.6279,0-1.1504-0.1875-1.5645-0.5615C25.9951,6.3789,25.7588,5.8936,25.7002,5.2979z"/>
	<path d="M31.2568,5.3125l0.9229-0.0781c0.0684,0.4492,0.2266,0.7871,0.4766,1.0137c0.248,0.2256,0.5488,0.3389,0.9004,0.3389
		c0.4229,0,0.7813-0.1592,1.0742-0.4785s0.4395-0.7422,0.4395-1.2695c0-0.501-0.1406-0.8965-0.4219-1.1865
		c-0.2822-0.29-0.6504-0.4346-1.1064-0.4346c-0.2832,0-0.5391,0.0645-0.7666,0.1924c-0.2275,0.1289-0.4072,0.2959-0.5371,0.501
		l-0.8252-0.1074l0.6934-3.6768h3.5596v0.8398h-2.8564l-0.3857,1.9238c0.4297-0.2998,0.8809-0.4492,1.3525-0.4492
		c0.625,0,1.1523,0.2168,1.582,0.6494s0.6445,0.9893,0.6445,1.6699c0,0.6475-0.1885,1.208-0.5664,1.6797
		c-0.459,0.5791-1.0859,0.8691-1.8799,0.8691c-0.6514,0-1.1826-0.1826-1.5938-0.5469C31.5508,6.3984,31.3154,5.915,31.2568,5.3125z"
		/>
</g>
<g>
	<path style="fill:#333333;" d="M47.8848,5.7832h-6c-0.5522,0-1-0.4478-1-1s0.4478-1,1-1h6c0.5522,0,1,0.4478,1,1
		S48.437,5.7832,47.8848,5.7832z"/>
	<path style="fill:#333333;" d="M300.4072,5.7832h-11.4785c-0.5527,0-1-0.4478-1-1s0.4473-1,1-1h11.4785c0.5527,0,1,0.4478,1,1
		S300.96,5.7832,300.4072,5.7832z M277.4502,5.7832h-11.4785c-0.5527,0-1-0.4478-1-1s0.4473-1,1-1h11.4785c0.5527,0,1,0.4478,1,1
		S278.0029,5.7832,277.4502,5.7832z M254.4941,5.7832h-11.4785c-0.5527,0-1-0.4478-1-1s0.4473-1,1-1h11.4785c0.5527,0,1,0.4478,1,1
		S255.0469,5.7832,254.4941,5.7832z M231.5371,5.7832h-11.4785c-0.5527,0-1-0.4478-1-1s0.4473-1,1-1h11.4785c0.5527,0,1,0.4478,1,1
		S232.0898,5.7832,231.5371,5.7832z M208.5811,5.7832h-11.4785c-0.5527,0-1-0.4478-1-1s0.4473-1,1-1h11.4785c0.5527,0,1,0.4478,1,1
		S209.1338,5.7832,208.5811,5.7832z M185.624,5.7832h-11.4785c-0.5527,0-1-0.4478-1-1s0.4473-1,1-1h11.4785c0.5527,0,1,0.4478,1,1
		S186.1768,5.7832,185.624,5.7832z M162.6675,5.7832h-11.478c-0.5522,0-1-0.4478-1-1s0.4478-1,1-1h11.478c0.5522,0,1,0.4478,1,1
		S163.2197,5.7832,162.6675,5.7832z M139.7109,5.7832h-11.478c-0.5522,0-1-0.4478-1-1s0.4478-1,1-1h11.478c0.5522,0,1,0.4478,1,1
		S140.2632,5.7832,139.7109,5.7832z M116.7544,5.7832h-11.478c-0.5522,0-1-0.4478-1-1s0.4478-1,1-1h11.478c0.5522,0,1,0.4478,1,1
		S117.3066,5.7832,116.7544,5.7832z M93.7979,5.7832h-11.478c-0.5522,0-1-0.4478-1-1s0.4478-1,1-1h11.478c0.5522,0,1,0.4478,1,1
		S94.3501,5.7832,93.7979,5.7832z M70.8413,5.7832h-11.478c-0.5522,0-1-0.4478-1-1s0.4478-1,1-1h11.478c0.5522,0,1,0.4478,1,1
		S71.3936,5.7832,70.8413,5.7832z"/>
	<path style="fill:#333333;" d="M317.8848,5.7832h-6c-0.5527,0-1-0.4478-1-1s0.4473-1,1-1h6c0.5527,0,1,0.4478,1,1
		S318.4375,5.7832,317.8848,5.7832z"/>
</g>
<g>
	<path d="M25.7002,36.2979l0.8789-0.1172c0.1006,0.498,0.2725,0.8564,0.5156,1.0771c0.2422,0.2188,0.5371,0.3291,0.8857,0.3291
		c0.4131,0,0.7627-0.1436,1.0479-0.4297c0.2842-0.2861,0.4268-0.6416,0.4268-1.0645c0-0.4033-0.1318-0.7363-0.3955-0.999
		c-0.2637-0.2617-0.5986-0.3926-1.0059-0.3926c-0.166,0-0.373,0.0322-0.6201,0.0977l0.0977-0.7715
		c0.0586,0.0068,0.1055,0.0098,0.1416,0.0098c0.374,0,0.7109-0.0977,1.0107-0.293s0.4492-0.4961,0.4492-0.9033
		c0-0.3223-0.1094-0.5889-0.3271-0.8008s-0.5-0.3174-0.8447-0.3174c-0.3418,0-0.627,0.1074-0.8545,0.3223
		s-0.374,0.5371-0.4395,0.9668l-0.8789-0.1563c0.1074-0.5889,0.3516-1.0459,0.7324-1.3691C26.9014,31.1621,27.375,31,27.9414,31
		c0.3906,0,0.75,0.084,1.0791,0.252c0.3291,0.167,0.5801,0.3955,0.7539,0.6855c0.1748,0.29,0.2617,0.5977,0.2617,0.9229
		c0,0.3096-0.083,0.5908-0.249,0.8447s-0.4121,0.4561-0.7373,0.6055c0.4229,0.0977,0.752,0.3008,0.9863,0.6074
		c0.2344,0.3086,0.3516,0.6934,0.3516,1.1553c0,0.625-0.2275,1.1553-0.6836,1.5889c-0.4561,0.4355-1.0322,0.6523-1.7285,0.6523
		c-0.6279,0-1.1504-0.1875-1.5645-0.5615C25.9951,37.3789,25.7588,36.8936,25.7002,36.2979z"/>
	<path d="M31.2568,34.6572c0-0.8467,0.0869-1.5273,0.2607-2.0439c0.1748-0.5156,0.4336-0.9131,0.7773-1.1934
		C32.6377,31.1396,33.0703,31,33.5908,31c0.3838,0,0.7207,0.0771,1.0107,0.2324c0.29,0.1543,0.5293,0.377,0.7178,0.668
		c0.1885,0.292,0.3369,0.6465,0.4443,1.0645c0.1074,0.4189,0.1611,0.9824,0.1611,1.6924c0,0.8398-0.0859,1.5176-0.2588,2.0342
		c-0.1729,0.5156-0.4307,0.9141-0.7734,1.1953c-0.3438,0.2822-0.7773,0.4229-1.3018,0.4229c-0.6904,0-1.2324-0.2471-1.626-0.7422
		C31.4932,36.9717,31.2568,36.002,31.2568,34.6572z M32.1602,34.6572c0,1.1748,0.1377,1.957,0.4121,2.3467
		c0.2754,0.3887,0.6152,0.583,1.0186,0.583s0.7432-0.1953,1.0186-0.5859c0.2744-0.3906,0.4121-1.1719,0.4121-2.3438
		c0-1.1787-0.1377-1.9609-0.4121-2.3486c-0.2754-0.3877-0.6182-0.5811-1.0283-0.5811c-0.4033,0-0.7256,0.1709-0.9668,0.5127
		C32.3115,32.6768,32.1602,33.4824,32.1602,34.6572z"/>
</g>
<g>
	<path style="fill:#333333;" d="M47.8848,36.7832h-6c-0.5522,0-1-0.4478-1-1s0.4478-1,1-1h6c0.5522,0,1,0.4478,1,1
		S48.437,36.7832,47.8848,36.7832z"/>
	<path style="fill:#333333;" d="M300.4072,36.7832h-11.4785c-0.5527,0-1-0.4478-1-1s0.4473-1,1-1h11.4785c0.5527,0,1,0.4478,1,1
		S300.96,36.7832,300.4072,36.7832z M277.4502,36.7832h-11.4785c-0.5527,0-1-0.4478-1-1s0.4473-1,1-1h11.4785c0.5527,0,1,0.4478,1,1
		S278.0029,36.7832,277.4502,36.7832z M254.4941,36.7832h-11.4785c-0.5527,0-1-0.4478-1-1s0.4473-1,1-1h11.4785
		c0.5527,0,1,0.4478,1,1S255.0469,36.7832,254.4941,36.7832z M231.5371,36.7832h-11.4785c-0.5527,0-1-0.4478-1-1s0.4473-1,1-1
		h11.4785c0.5527,0,1,0.4478,1,1S232.0898,36.7832,231.5371,36.7832z M208.5811,36.7832h-11.4785c-0.5527,0-1-0.4478-1-1
		s0.4473-1,1-1h11.4785c0.5527,0,1,0.4478,1,1S209.1338,36.7832,208.5811,36.7832z M185.624,36.7832h-11.4785
		c-0.5527,0-1-0.4478-1-1s0.4473-1,1-1h11.4785c0.5527,0,1,0.4478,1,1S186.1768,36.7832,185.624,36.7832z M162.6675,36.7832h-11.478
		c-0.5522,0-1-0.4478-1-1s0.4478-1,1-1h11.478c0.5522,0,1,0.4478,1,1S163.2197,36.7832,162.6675,36.7832z M139.7109,36.7832h-11.478
		c-0.5522,0-1-0.4478-1-1s0.4478-1,1-1h11.478c0.5522,0,1,0.4478,1,1S140.2632,36.7832,139.7109,36.7832z M116.7544,36.7832h-11.478
		c-0.5522,0-1-0.4478-1-1s0.4478-1,1-1h11.478c0.5522,0,1,0.4478,1,1S117.3066,36.7832,116.7544,36.7832z M93.7979,36.7832h-11.478
		c-0.5522,0-1-0.4478-1-1s0.4478-1,1-1h11.478c0.5522,0,1,0.4478,1,1S94.3501,36.7832,93.7979,36.7832z M70.8413,36.7832h-11.478
		c-0.5522,0-1-0.4478-1-1s0.4478-1,1-1h11.478c0.5522,0,1,0.4478,1,1S71.3936,36.7832,70.8413,36.7832z"/>
	<path style="fill:#333333;" d="M317.8848,36.7832h-6c-0.5527,0-1-0.4478-1-1s0.4473-1,1-1h6c0.5527,0,1,0.4478,1,1
		S318.4375,36.7832,317.8848,36.7832z"/>
</g>
<g>
	<path d="M30.3145,68.3428v0.8447H25.583c-0.0068-0.2119,0.0273-0.415,0.1025-0.6104c0.1201-0.3223,0.3135-0.6396,0.5791-0.9521
		c0.2646-0.3125,0.6484-0.6738,1.1494-1.084c0.7783-0.6377,1.3037-1.1436,1.5771-1.5156c0.2734-0.373,0.4102-0.7256,0.4102-1.0576
		c0-0.3486-0.125-0.6416-0.373-0.8818c-0.25-0.2383-0.5742-0.3584-0.9746-0.3584c-0.4229,0-0.7617,0.127-1.0156,0.3809
		s-0.3828,0.6055-0.3857,1.0547l-0.9033-0.0928c0.0615-0.6738,0.2949-1.1875,0.6982-1.541C26.8506,62.1768,27.3926,62,28.0732,62
		c0.6865,0,1.2305,0.1904,1.6309,0.5713s0.6006,0.8525,0.6006,1.416c0,0.2861-0.0586,0.5684-0.1758,0.8447
		s-0.3115,0.5684-0.583,0.874c-0.2725,0.3057-0.7236,0.7256-1.3555,1.2598c-0.5273,0.4424-0.8662,0.7432-1.0156,0.9014
		c-0.1494,0.1572-0.2734,0.3164-0.3711,0.4756H30.3145z"/>
	<path d="M31.2568,67.3125l0.9229-0.0781c0.0684,0.4492,0.2266,0.7871,0.4766,1.0137c0.248,0.2256,0.5488,0.3389,0.9004,0.3389
		c0.4229,0,0.7813-0.1592,1.0742-0.4785s0.4395-0.7422,0.4395-1.2695c0-0.501-0.1406-0.8965-0.4219-1.1865
		c-0.2822-0.29-0.6504-0.4346-1.1064-0.4346c-0.2832,0-0.5391,0.0645-0.7666,0.1924c-0.2275,0.1289-0.4072,0.2959-0.5371,0.501
		l-0.8252-0.1074l0.6934-3.6768h3.5596v0.8398h-2.8564l-0.3857,1.9238c0.4297-0.2998,0.8809-0.4492,1.3525-0.4492
		c0.625,0,1.1523,0.2168,1.582,0.6494s0.6445,0.9893,0.6445,1.6699c0,0.6475-0.1885,1.208-0.5664,1.6797
		c-0.459,0.5791-1.0859,0.8691-1.8799,0.8691c-0.6514,0-1.1826-0.1826-1.5938-0.5469
		C31.5508,68.3984,31.3154,67.915,31.2568,67.3125z"/>
</g>
<g>
	<path style="fill:#333333;" d="M47.8848,67.7832h-6c-0.5522,0-1-0.4478-1-1s0.4478-1,1-1h6c0.5522,0,1,0.4478,1,1
		S48.437,67.7832,47.8848,67.7832z"/>
	<path style="fill:#333333;" d="M300.4072,67.7832h-11.4785c-0.5527,0-1-0.4478-1-1s0.4473-1,1-1h11.4785c0.5527,0,1,0.4478,1,1
		S300.96,67.7832,300.4072,67.7832z M277.4502,67.7832h-11.4785c-0.5527,0-1-0.4478-1-1s0.4473-1,1-1h11.4785c0.5527,0,1,0.4478,1,1
		S278.0029,67.7832,277.4502,67.7832z M254.4941,67.7832h-11.4785c-0.5527,0-1-0.4478-1-1s0.4473-1,1-1h11.4785
		c0.5527,0,1,0.4478,1,1S255.0469,67.7832,254.4941,67.7832z M231.5371,67.7832h-11.4785c-0.5527,0-1-0.4478-1-1s0.4473-1,1-1
		h11.4785c0.5527,0,1,0.4478,1,1S232.0898,67.7832,231.5371,67.7832z M208.5811,67.7832h-11.4785c-0.5527,0-1-0.4478-1-1
		s0.4473-1,1-1h11.4785c0.5527,0,1,0.4478,1,1S209.1338,67.7832,208.5811,67.7832z M185.624,67.7832h-11.4785
		c-0.5527,0-1-0.4478-1-1s0.4473-1,1-1h11.4785c0.5527,0,1,0.4478,1,1S186.1768,67.7832,185.624,67.7832z M162.6675,67.7832h-11.478
		c-0.5522,0-1-0.4478-1-1s0.4478-1,1-1h11.478c0.5522,0,1,0.4478,1,1S163.2197,67.7832,162.6675,67.7832z M139.7109,67.7832h-11.478
		c-0.5522,0-1-0.4478-1-1s0.4478-1,1-1h11.478c0.5522,0,1,0.4478,1,1S140.2632,67.7832,139.7109,67.7832z M116.7544,67.7832h-11.478
		c-0.5522,0-1-0.4478-1-1s0.4478-1,1-1h11.478c0.5522,0,1,0.4478,1,1S117.3066,67.7832,116.7544,67.7832z M93.7979,67.7832h-11.478
		c-0.5522,0-1-0.4478-1-1s0.4478-1,1-1h11.478c0.5522,0,1,0.4478,1,1S94.3501,67.7832,93.7979,67.7832z M70.8413,67.7832h-11.478
		c-0.5522,0-1-0.4478-1-1s0.4478-1,1-1h11.478c0.5522,0,1,0.4478,1,1S71.3936,67.7832,70.8413,67.7832z"/>
	<path style="fill:#333333;" d="M317.8848,67.7832h-6c-0.5527,0-1-0.4478-1-1s0.4473-1,1-1h6c0.5527,0,1,0.4478,1,1
		S318.4375,67.7832,317.8848,67.7832z"/>
</g>
<g>
	<path d="M30.3145,99.3428v0.8447H25.583c-0.0068-0.2119,0.0273-0.415,0.1025-0.6104c0.1201-0.3223,0.3135-0.6396,0.5791-0.9521
		c0.2646-0.3125,0.6484-0.6738,1.1494-1.084c0.7783-0.6377,1.3037-1.1436,1.5771-1.5156c0.2734-0.373,0.4102-0.7256,0.4102-1.0576
		c0-0.3486-0.125-0.6416-0.373-0.8818c-0.25-0.2383-0.5742-0.3584-0.9746-0.3584c-0.4229,0-0.7617,0.127-1.0156,0.3809
		s-0.3828,0.6055-0.3857,1.0547l-0.9033-0.0928c0.0615-0.6738,0.2949-1.1875,0.6982-1.541C26.8506,93.1768,27.3926,93,28.0732,93
		c0.6865,0,1.2305,0.1904,1.6309,0.5713s0.6006,0.8525,0.6006,1.416c0,0.2861-0.0586,0.5684-0.1758,0.8447
		s-0.3115,0.5684-0.583,0.874c-0.2725,0.3057-0.7236,0.7256-1.3555,1.2598c-0.5273,0.4424-0.8662,0.7432-1.0156,0.9014
		c-0.1494,0.1572-0.2734,0.3164-0.3711,0.4756H30.3145z"/>
	<path d="M31.2568,96.6572c0-0.8467,0.0869-1.5273,0.2607-2.0439c0.1748-0.5156,0.4336-0.9131,0.7773-1.1934
		C32.6377,93.1396,33.0703,93,33.5908,93c0.3838,0,0.7207,0.0771,1.0107,0.2324c0.29,0.1543,0.5293,0.377,0.7178,0.668
		c0.1885,0.292,0.3369,0.6465,0.4443,1.0645c0.1074,0.4189,0.1611,0.9824,0.1611,1.6924c0,0.8398-0.0859,1.5176-0.2588,2.0342
		c-0.1729,0.5156-0.4307,0.9141-0.7734,1.1953c-0.3438,0.2822-0.7773,0.4229-1.3018,0.4229c-0.6904,0-1.2324-0.2471-1.626-0.7422
		C31.4932,98.9717,31.2568,98.002,31.2568,96.6572z M32.1602,96.6572c0,1.1748,0.1377,1.957,0.4121,2.3467
		c0.2754,0.3887,0.6152,0.583,1.0186,0.583s0.7432-0.1953,1.0186-0.5859c0.2744-0.3906,0.4121-1.1719,0.4121-2.3438
		c0-1.1787-0.1377-1.9609-0.4121-2.3486c-0.2754-0.3877-0.6182-0.5811-1.0283-0.5811c-0.4033,0-0.7256,0.1709-0.9668,0.5127
		C32.3115,94.6768,32.1602,95.4824,32.1602,96.6572z"/>
</g>
<g>
	<path style="fill:#333333;" d="M47.8848,98.7832h-6c-0.5522,0-1-0.4478-1-1s0.4478-1,1-1h6c0.5522,0,1,0.4478,1,1
		S48.437,98.7832,47.8848,98.7832z"/>
	<path style="fill:#333333;" d="M300.4072,98.7832h-11.4785c-0.5527,0-1-0.4478-1-1s0.4473-1,1-1h11.4785c0.5527,0,1,0.4478,1,1
		S300.96,98.7832,300.4072,98.7832z M277.4502,98.7832h-11.4785c-0.5527,0-1-0.4478-1-1s0.4473-1,1-1h11.4785c0.5527,0,1,0.4478,1,1
		S278.0029,98.7832,277.4502,98.7832z M254.4941,98.7832h-11.4785c-0.5527,0-1-0.4478-1-1s0.4473-1,1-1h11.4785
		c0.5527,0,1,0.4478,1,1S255.0469,98.7832,254.4941,98.7832z M231.5371,98.7832h-11.4785c-0.5527,0-1-0.4478-1-1s0.4473-1,1-1
		h11.4785c0.5527,0,1,0.4478,1,1S232.0898,98.7832,231.5371,98.7832z M208.5811,98.7832h-11.4785c-0.5527,0-1-0.4478-1-1
		s0.4473-1,1-1h11.4785c0.5527,0,1,0.4478,1,1S209.1338,98.7832,208.5811,98.7832z M185.624,98.7832h-11.4785
		c-0.5527,0-1-0.4478-1-1s0.4473-1,1-1h11.4785c0.5527,0,1,0.4478,1,1S186.1768,98.7832,185.624,98.7832z M162.6675,98.7832h-11.478
		c-0.5522,0-1-0.4478-1-1s0.4478-1,1-1h11.478c0.5522,0,1,0.4478,1,1S163.2197,98.7832,162.6675,98.7832z M139.7109,98.7832h-11.478
		c-0.5522,0-1-0.4478-1-1s0.4478-1,1-1h11.478c0.5522,0,1,0.4478,1,1S140.2632,98.7832,139.7109,98.7832z M116.7544,98.7832h-11.478
		c-0.5522,0-1-0.4478-1-1s0.4478-1,1-1h11.478c0.5522,0,1,0.4478,1,1S117.3066,98.7832,116.7544,98.7832z M93.7979,98.7832h-11.478
		c-0.5522,0-1-0.4478-1-1s0.4478-1,1-1h11.478c0.5522,0,1,0.4478,1,1S94.3501,98.7832,93.7979,98.7832z M70.8413,98.7832h-11.478
		c-0.5522,0-1-0.4478-1-1s0.4478-1,1-1h11.478c0.5522,0,1,0.4478,1,1S71.3936,98.7832,70.8413,98.7832z"/>
	<path style="fill:#333333;" d="M317.8848,98.7832h-6c-0.5527,0-1-0.4478-1-1s0.4473-1,1-1h6c0.5527,0,1,0.4478,1,1
		S318.4375,98.7832,317.8848,98.7832z"/>
</g>
<g>
	<path d="M29.0059,131.1875H28.127v-5.6006c-0.2119,0.2021-0.4893,0.4033-0.833,0.6055c-0.3428,0.2021-0.6514,0.3535-0.9248,0.4541
		v-0.8496c0.4912-0.2314,0.9209-0.5107,1.2891-0.8398s0.6279-0.6475,0.7813-0.957h0.5664V131.1875z"/>
	<path d="M31.2568,129.3125l0.9229-0.0781c0.0684,0.4492,0.2266,0.7871,0.4766,1.0137c0.248,0.2256,0.5488,0.3389,0.9004,0.3389
		c0.4229,0,0.7813-0.1592,1.0742-0.4785s0.4395-0.7422,0.4395-1.2695c0-0.501-0.1406-0.8965-0.4219-1.1865
		c-0.2822-0.29-0.6504-0.4346-1.1064-0.4346c-0.2832,0-0.5391,0.0645-0.7666,0.1924c-0.2275,0.1289-0.4072,0.2959-0.5371,0.501
		l-0.8252-0.1074l0.6934-3.6768h3.5596v0.8398h-2.8564l-0.3857,1.9238c0.4297-0.2998,0.8809-0.4492,1.3525-0.4492
		c0.625,0,1.1523,0.2168,1.582,0.6494s0.6445,0.9893,0.6445,1.6699c0,0.6475-0.1885,1.208-0.5664,1.6797
		c-0.459,0.5791-1.0859,0.8691-1.8799,0.8691c-0.6514,0-1.1826-0.1826-1.5938-0.5469
		C31.5508,130.3984,31.3154,129.915,31.2568,129.3125z"/>
</g>
<g>
	<path d="M4.6484,137.8779l0.4443-1.4014c0.7813,0.2148,1.3613,0.5723,1.7402,1.0723c0.3799,0.499,0.5693,1.1328,0.5693,1.9014
		c0,0.9502-0.3252,1.7314-0.9736,2.3438c-0.6504,0.6123-1.5381,0.918-2.6641,0.918c-1.1914,0-2.1172-0.3076-2.7754-0.9229
		C0.3291,141.1738,0,140.3652,0,139.3623c0-0.876,0.2588-1.5869,0.7764-2.1338c0.3057-0.3252,0.7451-0.5693,1.3184-0.7324
		l0.3418,1.4307c-0.3711,0.085-0.6641,0.2607-0.8789,0.5303c-0.2148,0.2676-0.3223,0.5947-0.3223,0.9785
		c0,0.5303,0.1904,0.9609,0.5713,1.291c0.3809,0.3311,0.998,0.4961,1.8506,0.4961c0.9053,0,1.5498-0.1631,1.9336-0.4883
		s0.5762-0.749,0.5762-1.2695c0-0.3838-0.1221-0.7148-0.3662-0.9912S5.1729,137.998,4.6484,137.8779z"/>
	<path d="M4.6143,135.5635c-0.4561,0-0.8965-0.1123-1.3232-0.3369s-0.752-0.543-0.9766-0.9541
		c-0.2246-0.4121-0.3369-0.8721-0.3369-1.3799c0-0.7842,0.2549-1.4277,0.7637-1.9287c0.5098-0.501,1.1533-0.752,1.9316-0.752
		c0.7842,0,1.4346,0.2529,1.9512,0.7598c0.5156,0.5059,0.7734,1.1426,0.7734,1.9111c0,0.4756-0.1074,0.9287-0.3223,1.3604
		c-0.2148,0.4307-0.5293,0.7588-0.9453,0.9834C5.7158,135.4512,5.21,135.5635,4.6143,135.5635z M4.6875,134.1572
		c0.5146,0,0.9082-0.1221,1.1816-0.3662s0.4102-0.5449,0.4102-0.9033s-0.1367-0.6582-0.4102-0.9004
		c-0.2734-0.2432-0.6709-0.3643-1.1914-0.3643c-0.5078,0-0.8984,0.1211-1.1719,0.3643c-0.2734,0.2422-0.4102,0.542-0.4102,0.9004
		s0.1367,0.6592,0.4102,0.9033S4.1729,134.1572,4.6875,134.1572z"/>
	<path d="M5.8008,129.6211l-0.21-1.377c0.2666-0.0586,0.4697-0.1777,0.6074-0.3564c0.1387-0.1787,0.208-0.4297,0.208-0.752
		c0-0.3545-0.0654-0.6221-0.1953-0.8008c-0.0908-0.1201-0.2129-0.1807-0.3662-0.1807c-0.1045,0-0.1904,0.0322-0.2588,0.0977
		c-0.0654,0.0684-0.125,0.2217-0.1807,0.459c-0.2441,1.1064-0.4668,1.8086-0.6689,2.1045c-0.2803,0.4102-0.6689,0.6152-1.167,0.6152
		c-0.4492,0-0.8271-0.1777-1.1328-0.5322s-0.459-0.9053-0.459-1.6504c0-0.71,0.1152-1.2373,0.3467-1.582s0.5732-0.583,1.0254-0.7129
		l0.2393,1.2939c-0.2021,0.0557-0.3564,0.1602-0.4639,0.3154c-0.1074,0.1543-0.1611,0.375-0.1611,0.6611
		c0,0.3613,0.0508,0.6201,0.1514,0.7764c0.0713,0.1045,0.1641,0.1563,0.2783,0.1563c0.0977,0,0.1807-0.0459,0.249-0.1367
		c0.0908-0.124,0.2197-0.5508,0.3857-1.2813c0.166-0.7314,0.3691-1.2412,0.6104-1.5313c0.2441-0.2861,0.584-0.4297,1.0205-0.4297
		c0.4756,0,0.8838,0.1982,1.2256,0.5957s0.5127,0.9844,0.5127,1.7627c0,0.7061-0.1436,1.2656-0.4297,1.6768
		C6.6816,129.2246,6.292,129.4941,5.8008,129.6211z"/>
	<path d="M2.0947,121.1982h1.0938v0.9375h2.0898c0.4229,0,0.6699-0.0088,0.7402-0.0273c0.0693-0.0176,0.127-0.0586,0.1729-0.1211
		c0.0459-0.0645,0.0684-0.1416,0.0684-0.2324c0-0.127-0.0439-0.3105-0.1318-0.5518l1.0645-0.1172
		c0.1367,0.3193,0.2051,0.6807,0.2051,1.084c0,0.2471-0.041,0.4707-0.125,0.6689c-0.082,0.1982-0.1895,0.3438-0.3223,0.4375
		c-0.1309,0.0918-0.3096,0.1563-0.5342,0.1924c-0.1592,0.0293-0.4814,0.0439-0.9668,0.0439H3.1885v0.6299H2.0947v-0.6299H1.0645
		l-0.8008-1.377h1.8311V121.1982z"/>
	<path d="M4.6143,120.5635c-0.4561,0-0.8965-0.1123-1.3232-0.3369s-0.752-0.543-0.9766-0.9541
		c-0.2246-0.4121-0.3369-0.8721-0.3369-1.3799c0-0.7842,0.2549-1.4277,0.7637-1.9287c0.5098-0.501,1.1533-0.752,1.9316-0.752
		c0.7842,0,1.4346,0.2529,1.9512,0.7598c0.5156,0.5059,0.7734,1.1426,0.7734,1.9111c0,0.4756-0.1074,0.9287-0.3223,1.3604
		c-0.2148,0.4307-0.5293,0.7588-0.9453,0.9834C5.7158,120.4512,5.21,120.5635,4.6143,120.5635z M4.6875,119.1572
		c0.5146,0,0.9082-0.1221,1.1816-0.3662s0.4102-0.5449,0.4102-0.9033s-0.1367-0.6582-0.4102-0.9004
		c-0.2734-0.2432-0.6709-0.3643-1.1914-0.3643c-0.5078,0-0.8984,0.1211-1.1719,0.3643c-0.2734,0.2422-0.4102,0.542-0.4102,0.9004
		s0.1367,0.6592,0.4102,0.9033S4.1729,119.1572,4.6875,119.1572z"/>
</g>
<g>
	<path d="M242.0078,276.1865v-7.1582h5.3076v1.2109h-3.8623v1.5869h3.5938v1.2061h-3.5938v1.9482h3.999v1.2061H242.0078z"/>
	<path d="M248.1846,274.707l1.377-0.21c0.0586,0.2666,0.1777,0.4697,0.3564,0.6074c0.1787,0.1387,0.4297,0.208,0.752,0.208
		c0.3545,0,0.6221-0.0654,0.8008-0.1953c0.1201-0.0908,0.1807-0.2129,0.1807-0.3662c0-0.1045-0.0322-0.1904-0.0977-0.2588
		c-0.0684-0.0654-0.2217-0.125-0.459-0.1807c-1.1064-0.2441-1.8086-0.4668-2.1045-0.6689c-0.4102-0.2803-0.6152-0.6689-0.6152-1.167
		c0-0.4492,0.1777-0.8271,0.5322-1.1328s0.9053-0.459,1.6504-0.459c0.71,0,1.2373,0.1152,1.582,0.3467s0.583,0.5732,0.7129,1.0254
		l-1.2939,0.2393c-0.0557-0.2021-0.1602-0.3564-0.3154-0.4639c-0.1543-0.1074-0.375-0.1611-0.6611-0.1611
		c-0.3613,0-0.6201,0.0508-0.7764,0.1514c-0.1045,0.0713-0.1563,0.1641-0.1563,0.2783c0,0.0977,0.0459,0.1807,0.1367,0.249
		c0.124,0.0908,0.5508,0.2197,1.2813,0.3857c0.7314,0.166,1.2412,0.3691,1.5313,0.6104c0.2861,0.2441,0.4297,0.584,0.4297,1.0205
		c0,0.4756-0.1982,0.8838-0.5957,1.2256s-0.9844,0.5127-1.7627,0.5127c-0.7061,0-1.2656-0.1436-1.6768-0.4297
		C248.5811,275.5879,248.3115,275.1982,248.1846,274.707z"/>
	<path d="M253.6289,271.001h0.7617v-0.3906c0-0.4365,0.0469-0.7617,0.1387-0.9766c0.0938-0.2148,0.2637-0.3896,0.5137-0.5254
		c0.248-0.1348,0.5635-0.2021,0.9443-0.2021c0.3906,0,0.7734,0.0586,1.1475,0.1758l-0.1855,0.957
		c-0.2178-0.0518-0.4277-0.0781-0.6299-0.0781c-0.1982,0-0.3408,0.0459-0.4268,0.1396c-0.0869,0.0918-0.1299,0.2705-0.1299,0.5342
		v0.3662h1.0254v1.0791h-1.0254v4.1064h-1.3721v-4.1064h-0.7617V271.001z"/>
	<path d="M260.9727,276.1865v-0.7764c-0.1885,0.2764-0.4375,0.4951-0.7441,0.6543c-0.3086,0.1592-0.6328,0.2393-0.9746,0.2393
		c-0.3486,0-0.6611-0.0762-0.9375-0.2295s-0.4766-0.3682-0.6006-0.6445s-0.1855-0.6592-0.1855-1.1475v-3.2813h1.3721v2.3828
		c0,0.7295,0.0254,1.1758,0.0762,1.3398c0.0498,0.165,0.1416,0.2949,0.2754,0.3906c0.1338,0.0967,0.3027,0.1445,0.5078,0.1445
		c0.2344,0,0.4443-0.0645,0.6299-0.1934c0.1855-0.1279,0.3125-0.2871,0.3809-0.4785c0.0684-0.1895,0.1025-0.6563,0.1025-1.3984
		v-2.1875h1.3721v5.1855H260.9727z"/>
	<path d="M266.6709,274.5361l1.3672,0.2295c-0.1758,0.501-0.4531,0.8828-0.832,1.1455c-0.3799,0.2617-0.8545,0.3926-1.4238,0.3926
		c-0.9014,0-1.5693-0.2949-2.002-0.8838c-0.3418-0.4717-0.5127-1.0674-0.5127-1.7871c0-0.8594,0.2246-1.5322,0.6738-2.0186
		c0.4492-0.4873,1.0176-0.7305,1.7041-0.7305c0.7715,0,1.3799,0.2549,1.8262,0.7637c0.4463,0.5098,0.6592,1.29,0.6396,2.3418
		h-3.4375c0.0098,0.4072,0.1201,0.7236,0.332,0.9492c0.2119,0.2266,0.4756,0.3398,0.791,0.3398c0.2148,0,0.3955-0.0586,0.542-0.1758
		S266.5957,274.7969,266.6709,274.5361z M266.749,273.1494c-0.0098-0.3975-0.1123-0.6992-0.3076-0.9063
		c-0.1953-0.2061-0.4326-0.3096-0.7129-0.3096c-0.2998,0-0.5469,0.1094-0.7422,0.3271s-0.291,0.5146-0.2881,0.8887H266.749z"/>
	<path d="M270.543,276.1865h-1.3721v-5.1855h1.2744v0.7373c0.2178-0.3486,0.4141-0.5781,0.5879-0.6885
		c0.1748-0.1104,0.3721-0.166,0.5938-0.166c0.3125,0,0.6133,0.0859,0.9033,0.2588l-0.4248,1.1963
		c-0.2314-0.1494-0.4463-0.2246-0.6445-0.2246c-0.1924,0-0.3545,0.0527-0.4883,0.1582c-0.1338,0.1064-0.2383,0.2979-0.3145,0.5742
		c-0.0771,0.2764-0.1152,0.8564-0.1152,1.7383V276.1865z"/>
	<path d="M272.5693,276.1865v-1.0693l1.9434-2.2314c0.3193-0.3643,0.5547-0.623,0.708-0.7764
		c-0.1592,0.0098-0.3691,0.0166-0.6299,0.0195l-1.8311,0.0098v-1.1377h4.2871v0.9717l-1.9824,2.2852l-0.6982,0.7568
		c0.3809-0.0225,0.6172-0.0342,0.708-0.0342h2.124v1.2061H272.5693z"/>
	<path d="M277.8037,273.5205c0-0.4561,0.1123-0.8965,0.3369-1.3232s0.543-0.752,0.9541-0.9766
		c0.4121-0.2246,0.8721-0.3369,1.3799-0.3369c0.7842,0,1.4277,0.2549,1.9287,0.7637c0.501,0.5098,0.752,1.1533,0.752,1.9316
		c0,0.7842-0.2529,1.4346-0.7598,1.9512c-0.5059,0.5156-1.1426,0.7734-1.9111,0.7734c-0.4756,0-0.9287-0.1074-1.3604-0.3223
		c-0.4307-0.2148-0.7588-0.5293-0.9834-0.9453C277.916,274.6221,277.8037,274.1162,277.8037,273.5205z M279.21,273.5938
		c0,0.5146,0.1221,0.9082,0.3662,1.1816s0.5449,0.4102,0.9033,0.4102s0.6582-0.1367,0.9004-0.4102
		c0.2432-0.2734,0.3643-0.6709,0.3643-1.1914c0-0.5078-0.1211-0.8984-0.3643-1.1719c-0.2422-0.2734-0.542-0.4102-0.9004-0.4102
		s-0.6592,0.1367-0.9033,0.4102S279.21,273.0791,279.21,273.5938z"/>
</g>
<g>
	<path style="fill:#333333;" d="M47.8848,129.7832h-6c-0.5522,0-1-0.4473-1-1s0.4478-1,1-1h6c0.5522,0,1,0.4473,1,1
		S48.437,129.7832,47.8848,129.7832z"/>
	<path style="fill:#333333;" d="M300.4072,129.7832h-11.4785c-0.5527,0-1-0.4473-1-1s0.4473-1,1-1h11.4785c0.5527,0,1,0.4473,1,1
		S300.96,129.7832,300.4072,129.7832z M277.4502,129.7832h-11.4785c-0.5527,0-1-0.4473-1-1s0.4473-1,1-1h11.4785
		c0.5527,0,1,0.4473,1,1S278.0029,129.7832,277.4502,129.7832z M254.4941,129.7832h-11.4785c-0.5527,0-1-0.4473-1-1s0.4473-1,1-1
		h11.4785c0.5527,0,1,0.4473,1,1S255.0469,129.7832,254.4941,129.7832z M231.5371,129.7832h-11.4785c-0.5527,0-1-0.4473-1-1
		s0.4473-1,1-1h11.4785c0.5527,0,1,0.4473,1,1S232.0898,129.7832,231.5371,129.7832z M208.5811,129.7832h-11.4785
		c-0.5527,0-1-0.4473-1-1s0.4473-1,1-1h11.4785c0.5527,0,1,0.4473,1,1S209.1338,129.7832,208.5811,129.7832z M185.624,129.7832
		h-11.4785c-0.5527,0-1-0.4473-1-1s0.4473-1,1-1h11.4785c0.5527,0,1,0.4473,1,1S186.1768,129.7832,185.624,129.7832z
		 M162.6675,129.7832h-11.478c-0.5522,0-1-0.4473-1-1s0.4478-1,1-1h11.478c0.5522,0,1,0.4473,1,1
		S163.2197,129.7832,162.6675,129.7832z M139.7109,129.7832h-11.478c-0.5522,0-1-0.4473-1-1s0.4478-1,1-1h11.478
		c0.5522,0,1,0.4473,1,1S140.2632,129.7832,139.7109,129.7832z M116.7544,129.7832h-11.478c-0.5522,0-1-0.4473-1-1s0.4478-1,1-1
		h11.478c0.5522,0,1,0.4473,1,1S117.3066,129.7832,116.7544,129.7832z M93.7979,129.7832h-11.478c-0.5522,0-1-0.4473-1-1
		s0.4478-1,1-1h11.478c0.5522,0,1,0.4473,1,1S94.3501,129.7832,93.7979,129.7832z M70.8413,129.7832h-11.478c-0.5522,0-1-0.4473-1-1
		s0.4478-1,1-1h11.478c0.5522,0,1,0.4473,1,1S71.3936,129.7832,70.8413,129.7832z"/>
	<path style="fill:#333333;" d="M317.8848,129.7832h-6c-0.5527,0-1-0.4473-1-1s0.4473-1,1-1h6c0.5527,0,1,0.4473,1,1
		S318.4375,129.7832,317.8848,129.7832z"/>
</g>
<g>
	<path d="M29.0059,162.1875H28.127v-5.6006c-0.2119,0.2021-0.4893,0.4033-0.833,0.6055c-0.3428,0.2021-0.6514,0.3535-0.9248,0.4541
		v-0.8496c0.4912-0.2314,0.9209-0.5107,1.2891-0.8398s0.6279-0.6475,0.7813-0.957h0.5664V162.1875z"/>
	<path d="M31.2568,158.6572c0-0.8467,0.0869-1.5273,0.2607-2.0439c0.1748-0.5156,0.4336-0.9131,0.7773-1.1934
		C32.6377,155.1396,33.0703,155,33.5908,155c0.3838,0,0.7207,0.0771,1.0107,0.2324c0.29,0.1543,0.5293,0.377,0.7178,0.668
		c0.1885,0.292,0.3369,0.6465,0.4443,1.0645c0.1074,0.4189,0.1611,0.9824,0.1611,1.6924c0,0.8398-0.0859,1.5176-0.2588,2.0342
		c-0.1729,0.5156-0.4307,0.9141-0.7734,1.1953c-0.3438,0.2822-0.7773,0.4229-1.3018,0.4229c-0.6904,0-1.2324-0.2471-1.626-0.7422
		C31.4932,160.9717,31.2568,160.002,31.2568,158.6572z M32.1602,158.6572c0,1.1748,0.1377,1.957,0.4121,2.3467
		c0.2754,0.3887,0.6152,0.583,1.0186,0.583s0.7432-0.1953,1.0186-0.5859c0.2744-0.3906,0.4121-1.1719,0.4121-2.3438
		c0-1.1787-0.1377-1.9609-0.4121-2.3486c-0.2754-0.3877-0.6182-0.5811-1.0283-0.5811c-0.4033,0-0.7256,0.1709-0.9668,0.5127
		C32.3115,156.6768,32.1602,157.4824,32.1602,158.6572z"/>
</g>
<g>
	<path style="fill:#333333;" d="M47.8848,160.7832h-6c-0.5522,0-1-0.4473-1-1s0.4478-1,1-1h6c0.5522,0,1,0.4473,1,1
		S48.437,160.7832,47.8848,160.7832z"/>
	<path style="fill:#333333;" d="M300.4072,160.7832h-11.4785c-0.5527,0-1-0.4473-1-1s0.4473-1,1-1h11.4785c0.5527,0,1,0.4473,1,1
		S300.96,160.7832,300.4072,160.7832z M277.4502,160.7832h-11.4785c-0.5527,0-1-0.4473-1-1s0.4473-1,1-1h11.4785
		c0.5527,0,1,0.4473,1,1S278.0029,160.7832,277.4502,160.7832z M254.4941,160.7832h-11.4785c-0.5527,0-1-0.4473-1-1s0.4473-1,1-1
		h11.4785c0.5527,0,1,0.4473,1,1S255.0469,160.7832,254.4941,160.7832z M231.5371,160.7832h-11.4785c-0.5527,0-1-0.4473-1-1
		s0.4473-1,1-1h11.4785c0.5527,0,1,0.4473,1,1S232.0898,160.7832,231.5371,160.7832z M208.5811,160.7832h-11.4785
		c-0.5527,0-1-0.4473-1-1s0.4473-1,1-1h11.4785c0.5527,0,1,0.4473,1,1S209.1338,160.7832,208.5811,160.7832z M185.624,160.7832
		h-11.4785c-0.5527,0-1-0.4473-1-1s0.4473-1,1-1h11.4785c0.5527,0,1,0.4473,1,1S186.1768,160.7832,185.624,160.7832z
		 M162.6675,160.7832h-11.478c-0.5522,0-1-0.4473-1-1s0.4478-1,1-1h11.478c0.5522,0,1,0.4473,1,1
		S163.2197,160.7832,162.6675,160.7832z M139.7109,160.7832h-11.478c-0.5522,0-1-0.4473-1-1s0.4478-1,1-1h11.478
		c0.5522,0,1,0.4473,1,1S140.2632,160.7832,139.7109,160.7832z M116.7544,160.7832h-11.478c-0.5522,0-1-0.4473-1-1s0.4478-1,1-1
		h11.478c0.5522,0,1,0.4473,1,1S117.3066,160.7832,116.7544,160.7832z M93.7979,160.7832h-11.478c-0.5522,0-1-0.4473-1-1
		s0.4478-1,1-1h11.478c0.5522,0,1,0.4473,1,1S94.3501,160.7832,93.7979,160.7832z M70.8413,160.7832h-11.478c-0.5522,0-1-0.4473-1-1
		s0.4478-1,1-1h11.478c0.5522,0,1,0.4473,1,1S71.3936,160.7832,70.8413,160.7832z"/>
	<path style="fill:#333333;" d="M317.8848,160.7832h-6c-0.5527,0-1-0.4473-1-1s0.4473-1,1-1h6c0.5527,0,1,0.4473,1,1
		S318.4375,160.7832,317.8848,160.7832z"/>
</g>
<g>
	<path d="M25.6953,191.3125l0.9229-0.0781c0.0684,0.4492,0.2266,0.7871,0.4766,1.0137c0.248,0.2256,0.5488,0.3389,0.9004,0.3389
		c0.4229,0,0.7813-0.1592,1.0742-0.4785s0.4395-0.7422,0.4395-1.2695c0-0.501-0.1406-0.8965-0.4219-1.1865
		c-0.2822-0.29-0.6504-0.4346-1.1064-0.4346c-0.2832,0-0.5391,0.0645-0.7666,0.1924c-0.2275,0.1289-0.4072,0.2959-0.5371,0.501
		l-0.8252-0.1074l0.6934-3.6768h3.5596v0.8398H27.248l-0.3857,1.9238c0.4297-0.2998,0.8809-0.4492,1.3525-0.4492
		c0.625,0,1.1523,0.2168,1.582,0.6494s0.6445,0.9893,0.6445,1.6699c0,0.6475-0.1885,1.208-0.5664,1.6797
		c-0.459,0.5791-1.0859,0.8691-1.8799,0.8691c-0.6514,0-1.1826-0.1826-1.5938-0.5469
		C25.9893,192.3984,25.7539,191.915,25.6953,191.3125z"/>
</g>
<g>
	<path style="fill:#333333;" d="M47.8848,191.7832h-6c-0.5522,0-1-0.4473-1-1s0.4478-1,1-1h6c0.5522,0,1,0.4473,1,1
		S48.437,191.7832,47.8848,191.7832z"/>
	<path style="fill:#333333;" d="M300.4072,191.7832h-11.4785c-0.5527,0-1-0.4473-1-1s0.4473-1,1-1h11.4785c0.5527,0,1,0.4473,1,1
		S300.96,191.7832,300.4072,191.7832z M277.4502,191.7832h-11.4785c-0.5527,0-1-0.4473-1-1s0.4473-1,1-1h11.4785
		c0.5527,0,1,0.4473,1,1S278.0029,191.7832,277.4502,191.7832z M254.4941,191.7832h-11.4785c-0.5527,0-1-0.4473-1-1s0.4473-1,1-1
		h11.4785c0.5527,0,1,0.4473,1,1S255.0469,191.7832,254.4941,191.7832z M231.5371,191.7832h-11.4785c-0.5527,0-1-0.4473-1-1
		s0.4473-1,1-1h11.4785c0.5527,0,1,0.4473,1,1S232.0898,191.7832,231.5371,191.7832z M208.5811,191.7832h-11.4785
		c-0.5527,0-1-0.4473-1-1s0.4473-1,1-1h11.4785c0.5527,0,1,0.4473,1,1S209.1338,191.7832,208.5811,191.7832z M185.624,191.7832
		h-11.4785c-0.5527,0-1-0.4473-1-1s0.4473-1,1-1h11.4785c0.5527,0,1,0.4473,1,1S186.1768,191.7832,185.624,191.7832z
		 M162.6675,191.7832h-11.478c-0.5522,0-1-0.4473-1-1s0.4478-1,1-1h11.478c0.5522,0,1,0.4473,1,1
		S163.2197,191.7832,162.6675,191.7832z M139.7109,191.7832h-11.478c-0.5522,0-1-0.4473-1-1s0.4478-1,1-1h11.478
		c0.5522,0,1,0.4473,1,1S140.2632,191.7832,139.7109,191.7832z M116.7544,191.7832h-11.478c-0.5522,0-1-0.4473-1-1s0.4478-1,1-1
		h11.478c0.5522,0,1,0.4473,1,1S117.3066,191.7832,116.7544,191.7832z M93.7979,191.7832h-11.478c-0.5522,0-1-0.4473-1-1
		s0.4478-1,1-1h11.478c0.5522,0,1,0.4473,1,1S94.3501,191.7832,93.7979,191.7832z M70.8413,191.7832h-11.478c-0.5522,0-1-0.4473-1-1
		s0.4478-1,1-1h11.478c0.5522,0,1,0.4473,1,1S71.3936,191.7832,70.8413,191.7832z"/>
	<path style="fill:#333333;" d="M317.8848,191.7832h-6c-0.5527,0-1-0.4473-1-1s0.4473-1,1-1h6c0.5527,0,1,0.4473,1,1
		S318.4375,191.7832,317.8848,191.7832z"/>
</g>
<g>
	<path d="M25.6953,220.6572c0-0.8467,0.0869-1.5273,0.2607-2.0439c0.1748-0.5156,0.4336-0.9131,0.7773-1.1934
		C27.0762,217.1396,27.5088,217,28.0293,217c0.3838,0,0.7207,0.0771,1.0107,0.2324c0.29,0.1543,0.5293,0.377,0.7178,0.668
		c0.1885,0.292,0.3369,0.6465,0.4443,1.0645c0.1074,0.4189,0.1611,0.9824,0.1611,1.6924c0,0.8398-0.0859,1.5176-0.2588,2.0342
		c-0.1729,0.5156-0.4307,0.9141-0.7734,1.1953c-0.3438,0.2822-0.7773,0.4229-1.3018,0.4229c-0.6904,0-1.2324-0.2471-1.626-0.7422
		C25.9316,222.9717,25.6953,222.002,25.6953,220.6572z M26.5986,220.6572c0,1.1748,0.1377,1.957,0.4121,2.3467
		c0.2754,0.3887,0.6152,0.583,1.0186,0.583s0.7432-0.1953,1.0186-0.5859c0.2744-0.3906,0.4121-1.1719,0.4121-2.3438
		c0-1.1787-0.1377-1.9609-0.4121-2.3486c-0.2754-0.3877-0.6182-0.5811-1.0283-0.5811c-0.4033,0-0.7256,0.1709-0.9668,0.5127
		C26.75,218.6768,26.5986,219.4824,26.5986,220.6572z"/>
</g>
<g>
	<path d="M25.5977,253.0391v-0.8838h2.7002v0.8838H25.5977z"/>
	<path d="M29.0254,253.3125l0.9229-0.0781c0.0684,0.4492,0.2266,0.7871,0.4766,1.0137c0.248,0.2256,0.5488,0.3389,0.9004,0.3389
		c0.4229,0,0.7813-0.1592,1.0742-0.4785s0.4395-0.7422,0.4395-1.2695c0-0.501-0.1406-0.8965-0.4219-1.1865
		c-0.2822-0.29-0.6504-0.4346-1.1064-0.4346c-0.2832,0-0.5391,0.0645-0.7666,0.1924c-0.2275,0.1289-0.4072,0.2959-0.5371,0.501
		l-0.8252-0.1074l0.6934-3.6768h3.5596v0.8398h-2.8564l-0.3857,1.9238c0.4297-0.2998,0.8809-0.4492,1.3525-0.4492
		c0.625,0,1.1523,0.2168,1.582,0.6494s0.6445,0.9893,0.6445,1.6699c0,0.6475-0.1885,1.208-0.5664,1.6797
		c-0.459,0.5791-1.0859,0.8691-1.8799,0.8691c-0.6514,0-1.1826-0.1826-1.5938-0.5469
		C29.3193,254.3984,29.084,253.915,29.0254,253.3125z"/>
</g>
<g>
	<path d="M57.0059,237.1875H56.127v-5.6006c-0.2119,0.2021-0.4893,0.4033-0.833,0.6055c-0.3428,0.2021-0.6514,0.3535-0.9248,0.4541
		v-0.8496c0.4912-0.2314,0.9209-0.5107,1.2891-0.8398s0.6279-0.6475,0.7813-0.957h0.5664V237.1875z"/>
</g>
<g>
	<path d="M86.3145,236.3428v0.8447H81.583c-0.0068-0.2119,0.0273-0.415,0.1025-0.6104c0.1201-0.3223,0.3135-0.6396,0.5791-0.9521
		c0.2646-0.3125,0.6484-0.6738,1.1494-1.084c0.7783-0.6377,1.3037-1.1436,1.5771-1.5156c0.2734-0.373,0.4102-0.7256,0.4102-1.0576
		c0-0.3486-0.125-0.6416-0.373-0.8818c-0.25-0.2383-0.5742-0.3584-0.9746-0.3584c-0.4229,0-0.7617,0.127-1.0156,0.3809
		s-0.3828,0.6055-0.3857,1.0547l-0.9033-0.0928c0.0615-0.6738,0.2949-1.1875,0.6982-1.541c0.4033-0.3525,0.9453-0.5293,1.626-0.5293
		c0.6865,0,1.2305,0.1904,1.6309,0.5713s0.6006,0.8525,0.6006,1.416c0,0.2861-0.0586,0.5684-0.1758,0.8447
		s-0.3115,0.5684-0.583,0.874c-0.2725,0.3057-0.7236,0.7256-1.3555,1.2598c-0.5273,0.4424-0.8662,0.7432-1.0156,0.9014
		c-0.1494,0.1572-0.2734,0.3164-0.3711,0.4756H86.3145z"/>
</g>
<g>
	<path d="M109.7002,235.2979l0.8789-0.1172c0.1006,0.498,0.2725,0.8564,0.5156,1.0771c0.2422,0.2188,0.5371,0.3291,0.8857,0.3291
		c0.4131,0,0.7627-0.1436,1.0479-0.4297c0.2842-0.2861,0.4268-0.6416,0.4268-1.0645c0-0.4033-0.1318-0.7363-0.3955-0.999
		c-0.2637-0.2617-0.5986-0.3926-1.0059-0.3926c-0.166,0-0.373,0.0322-0.6201,0.0977l0.0977-0.7715
		c0.0586,0.0068,0.1055,0.0098,0.1416,0.0098c0.374,0,0.7109-0.0977,1.0107-0.293s0.4492-0.4961,0.4492-0.9033
		c0-0.3223-0.1094-0.5889-0.3271-0.8008s-0.5-0.3174-0.8447-0.3174c-0.3418,0-0.627,0.1074-0.8545,0.3223
		s-0.374,0.5371-0.4395,0.9668l-0.8789-0.1563c0.1074-0.5889,0.3516-1.0459,0.7324-1.3691
		c0.3809-0.3242,0.8545-0.4863,1.4209-0.4863c0.3906,0,0.75,0.084,1.0791,0.252c0.3291,0.167,0.5801,0.3955,0.7539,0.6855
		c0.1748,0.29,0.2617,0.5977,0.2617,0.9229c0,0.3096-0.083,0.5908-0.249,0.8447s-0.4121,0.4561-0.7373,0.6055
		c0.4229,0.0977,0.752,0.3008,0.9863,0.6074c0.2344,0.3086,0.3516,0.6934,0.3516,1.1553c0,0.625-0.2275,1.1553-0.6836,1.5889
		c-0.4561,0.4355-1.0322,0.6523-1.7285,0.6523c-0.6279,0-1.1504-0.1875-1.5645-0.5615
		C109.9951,236.3789,109.7588,235.8936,109.7002,235.2979z"/>
</g>
<g>
	<path d="M140.5127,237.1875v-1.7139h-3.1055v-0.8057l3.2666-4.6387h0.7178v4.6387h0.9668v0.8057h-0.9668v1.7139H140.5127z
		 M140.5127,234.668v-3.2275l-2.2412,3.2275H140.5127z"/>
</g>
<g>
	<path d="M165.6953,235.3125l0.9229-0.0781c0.0684,0.4492,0.2266,0.7871,0.4766,1.0137c0.248,0.2256,0.5488,0.3389,0.9004,0.3389
		c0.4229,0,0.7813-0.1592,1.0742-0.4785s0.4395-0.7422,0.4395-1.2695c0-0.501-0.1406-0.8965-0.4219-1.1865
		c-0.2822-0.29-0.6504-0.4346-1.1064-0.4346c-0.2832,0-0.5391,0.0645-0.7666,0.1924c-0.2275,0.1289-0.4072,0.2959-0.5371,0.501
		l-0.8252-0.1074l0.6934-3.6768h3.5596v0.8398h-2.8564l-0.3857,1.9238c0.4297-0.2998,0.8809-0.4492,1.3525-0.4492
		c0.625,0,1.1523,0.2168,1.582,0.6494s0.6445,0.9893,0.6445,1.6699c0,0.6475-0.1885,1.208-0.5664,1.6797
		c-0.459,0.5791-1.0859,0.8691-1.8799,0.8691c-0.6514,0-1.1826-0.1826-1.5938-0.5469
		C165.9893,236.3984,165.7539,235.915,165.6953,235.3125z"/>
</g>
<g>
	<path d="M198.2559,231.7822l-0.874,0.0684c-0.0781-0.3447-0.1885-0.5957-0.332-0.752c-0.2373-0.251-0.5303-0.376-0.8789-0.376
		c-0.2803,0-0.5254,0.0781-0.7373,0.2344c-0.2764,0.2021-0.4951,0.4961-0.6543,0.8838s-0.2422,0.9395-0.249,1.6553
		c0.2119-0.3223,0.4707-0.5615,0.7764-0.7178s0.627-0.2344,0.9619-0.2344c0.5859,0,1.085,0.2158,1.4961,0.6475
		c0.4121,0.4307,0.6182,0.9883,0.6182,1.6719c0,0.4492-0.0967,0.8672-0.29,1.252c-0.1943,0.3867-0.46,0.6816-0.7988,0.8867
		s-0.7227,0.3076-1.1523,0.3076c-0.7324,0-1.3301-0.2695-1.792-0.8076c-0.4619-0.5391-0.6934-1.4268-0.6934-2.6641
		c0-1.3838,0.2559-2.3896,0.7666-3.0176c0.4463-0.5469,1.0469-0.8203,1.8018-0.8203c0.5635,0,1.0244,0.1582,1.3838,0.4736
		C197.9688,230.7891,198.1846,231.2256,198.2559,231.7822z M194.667,234.8682c0,0.3027,0.0645,0.5928,0.1934,0.8691
		c0.1279,0.2764,0.3076,0.4873,0.5391,0.6318c0.2314,0.1455,0.4736,0.2178,0.7275,0.2178c0.3711,0,0.6904-0.1494,0.957-0.4492
		s0.4004-0.7061,0.4004-1.2207c0-0.4951-0.1318-0.8848-0.3955-1.1689c-0.2637-0.2852-0.5957-0.4277-0.9961-0.4277
		c-0.3975,0-0.7344,0.1426-1.0107,0.4277C194.8057,234.0322,194.667,234.4063,194.667,234.8682z"/>
</g>
<g>
	<path d="M221.7539,230.9668v-0.8447h4.6338v0.6836c-0.4561,0.4854-0.9072,1.1299-1.3555,1.9336
		c-0.4473,0.8037-0.793,1.6309-1.0371,2.4805c-0.1758,0.5986-0.2881,1.2549-0.3369,1.9678h-0.9033
		c0.0098-0.5635,0.1201-1.2432,0.332-2.041s0.5156-1.5664,0.9102-2.3066c0.3965-0.7412,0.8164-1.3652,1.2627-1.873H221.7539z"/>
</g>
<g>
	<path d="M251.0479,233.3057c-0.3643-0.1338-0.6348-0.3242-0.8105-0.5713s-0.2637-0.5439-0.2637-0.8887
		c0-0.5205,0.1875-0.959,0.5615-1.3135S251.4072,230,252.0293,230c0.625,0,1.1279,0.1816,1.5088,0.5449
		c0.3809,0.3623,0.5713,0.8047,0.5713,1.3252c0,0.332-0.0869,0.6211-0.2607,0.8662c-0.1748,0.2461-0.4395,0.4355-0.7939,0.5693
		c0.4395,0.1436,0.7744,0.374,1.0029,0.6934c0.2305,0.3193,0.3447,0.7002,0.3447,1.1426c0,0.6123-0.2168,1.126-0.6494,1.543
		s-1.0029,0.625-1.709,0.625s-1.2764-0.209-1.709-0.6279c-0.4326-0.418-0.6494-0.9395-0.6494-1.5645
		c0-0.4658,0.1182-0.8555,0.3545-1.1699C250.2754,233.6338,250.6113,233.4199,251.0479,233.3057z M250.5889,235.1221
		c0,0.251,0.0596,0.4932,0.1777,0.7275c0.1191,0.2344,0.2959,0.416,0.5303,0.5449c0.2344,0.1279,0.4863,0.1924,0.7568,0.1924
		c0.4199,0,0.7666-0.1348,1.04-0.4053s0.4102-0.6133,0.4102-1.0303c0-0.4229-0.1406-0.7734-0.4229-1.0498
		c-0.2813-0.2764-0.6338-0.415-1.0566-0.415c-0.4131,0-0.7559,0.1367-1.0273,0.4102
		C250.7246,234.3701,250.5889,234.7119,250.5889,235.1221z M250.8721,231.8164c0,0.3389,0.1094,0.6152,0.3271,0.8301
		s0.501,0.3223,0.8496,0.3223c0.3389,0,0.6162-0.1064,0.833-0.3203c0.2158-0.2129,0.3242-0.4736,0.3242-0.7832
		c0-0.3223-0.1113-0.5938-0.334-0.8125c-0.2236-0.2207-0.501-0.3301-0.833-0.3301c-0.335,0-0.6133,0.1074-0.835,0.3223
		S250.8721,231.5166,250.8721,231.8164z"/>
</g>
<g>
	<path d="M277.8271,235.5322l0.8447-0.0781c0.0713,0.3975,0.208,0.6855,0.4102,0.8643s0.4609,0.2686,0.7764,0.2686
		c0.2705,0,0.5068-0.0615,0.7109-0.1855c0.2031-0.124,0.3701-0.2891,0.5-0.4951c0.1299-0.207,0.2393-0.4863,0.3271-0.8379
		s0.1318-0.71,0.1318-1.0742c0-0.0391-0.002-0.0977-0.0049-0.1758c-0.1758,0.2803-0.416,0.5068-0.7197,0.6816
		c-0.3047,0.1738-0.6348,0.2607-0.9893,0.2607c-0.5928,0-1.0938-0.2148-1.5039-0.6445s-0.6152-0.9961-0.6152-1.6992
		c0-0.7256,0.2139-1.3105,0.6416-1.7529c0.4287-0.4424,0.9648-0.6641,1.6094-0.6641c0.4658,0,0.8906,0.125,1.2773,0.376
		c0.3848,0.251,0.6777,0.6084,0.8789,1.0713c0.1992,0.4648,0.2998,1.1357,0.2998,2.0146c0,0.915-0.0996,1.6436-0.2979,2.1846
		c-0.1982,0.543-0.4941,0.9551-0.8867,1.2383c-0.3916,0.2832-0.8516,0.4248-1.3789,0.4248c-0.5596,0-1.0176-0.1553-1.3721-0.4658
		C278.1123,236.5322,277.8984,236.0957,277.8271,235.5322z M281.4258,232.373c0-0.5049-0.1338-0.9053-0.4033-1.2012
		c-0.2676-0.2959-0.5908-0.4443-0.9688-0.4443c-0.3906,0-0.7305,0.1592-1.0205,0.4785s-0.4346,0.7324-0.4346,1.2402
		c0,0.4561,0.1377,0.8262,0.4121,1.1104c0.2754,0.2852,0.6152,0.4277,1.0186,0.4277c0.4072,0,0.7412-0.1426,1.0029-0.4277
		C281.2949,233.2725,281.4258,232.8779,281.4258,232.373z"/>
</g>
<g>
	<path d="M308.0059,237.1875h-0.8789v-5.6006c-0.2119,0.2021-0.4893,0.4033-0.833,0.6055
		c-0.3428,0.2021-0.6514,0.3535-0.9248,0.4541v-0.8496c0.4912-0.2314,0.9209-0.5107,1.2891-0.8398s0.6279-0.6475,0.7813-0.957
		h0.5664V237.1875z"/>
	<path d="M310.2568,233.6572c0-0.8467,0.0869-1.5273,0.2607-2.0439c0.1748-0.5156,0.4336-0.9131,0.7773-1.1934
		c0.3428-0.2803,0.7754-0.4199,1.2959-0.4199c0.3838,0,0.7207,0.0771,1.0107,0.2324c0.29,0.1543,0.5293,0.377,0.7178,0.668
		c0.1885,0.292,0.3369,0.6465,0.4443,1.0645c0.1074,0.4189,0.1611,0.9824,0.1611,1.6924c0,0.8398-0.0859,1.5176-0.2588,2.0342
		c-0.1729,0.5156-0.4307,0.9141-0.7734,1.1953c-0.3438,0.2822-0.7773,0.4229-1.3018,0.4229c-0.6904,0-1.2324-0.2471-1.626-0.7422
		C310.4932,235.9717,310.2568,235.002,310.2568,233.6572z M311.1602,233.6572c0,1.1748,0.1377,1.957,0.4121,2.3467
		c0.2754,0.3887,0.6152,0.583,1.0186,0.583s0.7432-0.1953,1.0186-0.5859c0.2744-0.3906,0.4121-1.1719,0.4121-2.3438
		c0-1.1787-0.1377-1.9609-0.4121-2.3486c-0.2754-0.3877-0.6182-0.5811-1.0283-0.5811c-0.4033,0-0.7256,0.1709-0.9668,0.5127
		C311.3115,231.6768,311.1602,232.4824,311.1602,233.6572z"/>
</g>
<g>
	<path d="M351.3232,114.2881l0.8643,0.1123c-0.0947,0.5957-0.3359,1.0625-0.7256,1.3984c-0.3887,0.3379-0.8662,0.5059-1.4326,0.5059
		c-0.71,0-1.2803-0.2324-1.7119-0.6953c-0.4307-0.4648-0.6465-1.1289-0.6465-1.9951c0-0.5596,0.0928-1.0498,0.2783-1.4697
		s0.4678-0.7344,0.8467-0.9453c0.3799-0.209,0.792-0.3145,1.2383-0.3145c0.5635,0,1.0234,0.1426,1.3818,0.4277
		c0.3584,0.2842,0.5879,0.6885,0.6885,1.2129l-0.8545,0.1318c-0.0811-0.3486-0.2256-0.6104-0.4326-0.7861
		c-0.2061-0.1758-0.4561-0.2637-0.749-0.2637c-0.4424,0-0.8027,0.1582-1.0791,0.4766c-0.2764,0.3164-0.415,0.8193-0.415,1.5059
		c0,0.6963,0.1338,1.2031,0.4004,1.5186s0.6152,0.4736,1.0449,0.4736c0.3447,0,0.6328-0.1055,0.8643-0.3174
		S351.2617,114.7275,351.3232,114.2881z"/>
	<path d="M352.6123,113.5947c0-0.96,0.2666-1.6719,0.8008-2.1338c0.4463-0.3838,0.9893-0.5762,1.6309-0.5762
		c0.7129,0,1.2959,0.2334,1.748,0.7012c0.4521,0.4668,0.6787,1.1123,0.6787,1.9355c0,0.667-0.1006,1.1924-0.2998,1.5742
		c-0.2012,0.3828-0.4922,0.6797-0.875,0.8916c-0.3818,0.2119-0.7998,0.3174-1.252,0.3174c-0.7256,0-1.3125-0.2324-1.7598-0.6982
		C352.8359,115.1406,352.6123,114.4707,352.6123,113.5947z M353.5156,113.5947c0,0.6641,0.1445,1.1611,0.4346,1.4912
		c0.29,0.3311,0.6543,0.4961,1.0938,0.4961c0.4365,0,0.7988-0.166,1.0889-0.498s0.4346-0.8379,0.4346-1.5186
		c0-0.6416-0.1455-1.127-0.4375-1.458c-0.291-0.3301-0.6533-0.4951-1.0859-0.4951c-0.4395,0-0.8037,0.1641-1.0938,0.4932
		S353.5156,112.9307,353.5156,113.5947z"/>
	<path d="M358.1494,114.6396l0.8691-0.1367c0.0488,0.3486,0.1846,0.6152,0.4072,0.8008c0.2236,0.1855,0.5352,0.2783,0.9355,0.2783
		c0.4033,0,0.7031-0.082,0.8984-0.2461c0.1953-0.165,0.293-0.3574,0.293-0.5791c0-0.1982-0.0859-0.3545-0.2588-0.4688
		c-0.1201-0.0781-0.4199-0.1777-0.8984-0.2979c-0.6445-0.1631-1.0908-0.3037-1.3408-0.4219
		c-0.248-0.1191-0.4375-0.2832-0.5664-0.4941c-0.1279-0.209-0.1924-0.4414-0.1924-0.6953c0-0.2314,0.0527-0.4453,0.1592-0.6426
		c0.1055-0.1963,0.249-0.3604,0.4316-0.4902c0.1367-0.1006,0.3232-0.1865,0.5586-0.2559c0.2363-0.0703,0.4893-0.1055,0.7598-0.1055
		c0.4072,0,0.7637,0.0586,1.0723,0.1758c0.3066,0.1172,0.5342,0.2754,0.6807,0.4766c0.1465,0.1992,0.2471,0.4678,0.3027,0.8027
		l-0.8594,0.1172c-0.0391-0.2666-0.1523-0.4756-0.3389-0.625c-0.1875-0.1494-0.4521-0.2246-0.7939-0.2246
		c-0.4033,0-0.6914,0.0664-0.8643,0.2002s-0.2588,0.29-0.2588,0.4688c0,0.1143,0.0361,0.2168,0.1074,0.3076
		c0.0713,0.0947,0.1836,0.1729,0.3369,0.2344c0.0879,0.0322,0.3467,0.1074,0.7764,0.2246c0.6221,0.166,1.0557,0.3018,1.3018,0.4082
		c0.2451,0.1055,0.4385,0.2588,0.5781,0.4609s0.21,0.4521,0.21,0.752c0,0.293-0.085,0.5684-0.2568,0.8281
		c-0.1699,0.2578-0.417,0.459-0.7393,0.5996c-0.3223,0.1426-0.6865,0.2129-1.0938,0.2129c-0.6738,0-1.1875-0.1396-1.54-0.4199
		C358.4727,115.6045,358.2471,115.1895,358.1494,114.6396z"/>
	<path d="M365.4199,115.4014l0.127,0.7764c-0.2471,0.0518-0.4688,0.0781-0.6641,0.0781c-0.3193,0-0.5664-0.0508-0.7422-0.1514
		s-0.2998-0.2334-0.3711-0.3975c-0.0713-0.165-0.1074-0.5107-0.1074-1.0381v-2.9834h-0.6445v-0.6836h0.6445v-1.2842l0.874-0.5273
		v1.8115h0.8838v0.6836h-0.8838v3.0322c0,0.251,0.0156,0.4121,0.0459,0.4834c0.0313,0.0713,0.082,0.1289,0.1523,0.1709
		c0.0693,0.042,0.1699,0.0635,0.2998,0.0635C365.1318,115.4355,365.2607,115.4238,365.4199,115.4014z"/>
	<path d="M365.9521,113.5947c0-0.96,0.2666-1.6719,0.8008-2.1338c0.4463-0.3838,0.9893-0.5762,1.6309-0.5762
		c0.7129,0,1.2959,0.2334,1.748,0.7012c0.4521,0.4668,0.6787,1.1123,0.6787,1.9355c0,0.667-0.1006,1.1924-0.2998,1.5742
		c-0.2012,0.3828-0.4922,0.6797-0.875,0.8916c-0.3818,0.2119-0.7998,0.3174-1.252,0.3174c-0.7256,0-1.3125-0.2324-1.7598-0.6982
		C366.1758,115.1406,365.9521,114.4707,365.9521,113.5947z M366.8555,113.5947c0,0.6641,0.1445,1.1611,0.4346,1.4912
		c0.29,0.3311,0.6543,0.4961,1.0938,0.4961c0.4365,0,0.7988-0.166,1.0889-0.498s0.4346-0.8379,0.4346-1.5186
		c0-0.6416-0.1455-1.127-0.4375-1.458c-0.291-0.3301-0.6533-0.4951-1.0859-0.4951c-0.4395,0-0.8037,0.1641-1.0938,0.4932
		S366.8555,112.9307,366.8555,113.5947z"/>
	<path d="M374.6191,118.1748v-7.1729h0.8008v0.6738c0.1885-0.2637,0.4023-0.4609,0.6396-0.5938
		c0.2373-0.1309,0.5254-0.1973,0.8643-0.1973c0.4424,0,0.833,0.1143,1.1719,0.3418s0.5938,0.5488,0.7666,0.9648
		c0.1729,0.4141,0.2588,0.8691,0.2588,1.3643c0,0.5303-0.0947,1.0088-0.2861,1.4326c-0.1895,0.4258-0.4668,0.751-0.8301,0.9766
		c-0.3623,0.2266-0.7441,0.3398-1.1445,0.3398c-0.293,0-0.5557-0.0615-0.7891-0.1855c-0.2324-0.124-0.4238-0.2803-0.5732-0.4688
		v2.5244H374.6191z M375.415,113.624c0,0.667,0.1348,1.1602,0.4053,1.4795s0.5977,0.4785,0.9814,0.4785
		c0.3906,0,0.7246-0.165,1.0039-0.4961c0.2773-0.3301,0.417-0.8418,0.417-1.5352c0-0.6611-0.1357-1.1553-0.4072-1.4844
		c-0.2725-0.3291-0.5967-0.4932-0.9746-0.4932c-0.374,0-0.7051,0.1748-0.9941,0.5244
		C375.5596,112.4482,375.415,112.957,375.415,113.624z"/>
	<path d="M380.1709,116.1875v-5.1855h0.791v0.7861c0.2021-0.3682,0.3877-0.6104,0.5596-0.7275
		c0.1699-0.1172,0.3584-0.1758,0.5635-0.1758c0.2959,0,0.5977,0.0947,0.9033,0.2832l-0.3027,0.8154
		c-0.2148-0.127-0.4297-0.1904-0.6445-0.1904c-0.1924,0-0.3643,0.0576-0.5176,0.1738c-0.1533,0.1152-0.2617,0.2754-0.3271,0.4805
		c-0.0977,0.3125-0.1465,0.6543-0.1465,1.0254v2.7148H380.1709z"/>
	<path d="M387.0605,114.5176l0.9082,0.1123c-0.1436,0.5303-0.4082,0.9424-0.7959,1.2354s-0.8818,0.4395-1.4844,0.4395
		c-0.7588,0-1.3604-0.2334-1.8037-0.7012c-0.4453-0.4668-0.667-1.1221-0.667-1.9648c0-0.8721,0.2246-1.5498,0.6738-2.0313
		s1.0322-0.7227,1.748-0.7227c0.6934,0,1.2598,0.2363,1.6992,0.708s0.6592,1.1357,0.6592,1.9922
		c0,0.0518-0.002,0.1299-0.0049,0.2344h-3.8672c0.0322,0.5693,0.1934,1.0059,0.4834,1.3086s0.6514,0.4541,1.084,0.4541
		c0.3223,0,0.5977-0.085,0.8252-0.2539S386.9268,114.8887,387.0605,114.5176z M384.1748,113.0967h2.8955
		c-0.0391-0.4365-0.1494-0.7637-0.332-0.9814c-0.2803-0.3389-0.6426-0.5078-1.0889-0.5078c-0.4033,0-0.7432,0.1348-1.0186,0.4053
		C384.3564,112.2832,384.2041,112.6445,384.1748,113.0967z"/>
	<path d="M390.5127,116.1875l-1.9727-5.1855h0.9277l1.1133,3.1055c0.1201,0.335,0.2314,0.6836,0.332,1.0449
		c0.0781-0.2734,0.1875-0.6025,0.3271-0.9863l1.1523-3.1641h0.9033l-1.9629,5.1855H390.5127z"/>
	<path d="M397.6221,114.5176l0.9082,0.1123c-0.1436,0.5303-0.4082,0.9424-0.7959,1.2354s-0.8818,0.4395-1.4844,0.4395
		c-0.7588,0-1.3604-0.2334-1.8037-0.7012c-0.4453-0.4668-0.667-1.1221-0.667-1.9648c0-0.8721,0.2246-1.5498,0.6738-2.0313
		s1.0322-0.7227,1.748-0.7227c0.6934,0,1.2598,0.2363,1.6992,0.708s0.6592,1.1357,0.6592,1.9922
		c0,0.0518-0.002,0.1299-0.0049,0.2344h-3.8672c0.0322,0.5693,0.1934,1.0059,0.4834,1.3086s0.6514,0.4541,1.084,0.4541
		c0.3223,0,0.5977-0.085,0.8252-0.2539S397.4883,114.8887,397.6221,114.5176z M394.7363,113.0967h2.8955
		c-0.0391-0.4365-0.1494-0.7637-0.332-0.9814c-0.2803-0.3389-0.6426-0.5078-1.0889-0.5078c-0.4033,0-0.7432,0.1348-1.0186,0.4053
		C394.918,112.2832,394.7656,112.6445,394.7363,113.0967z"/>
	<path d="M399.6338,116.1875v-5.1855h0.791v0.7373c0.3809-0.5693,0.9307-0.8545,1.6504-0.8545c0.3125,0,0.5996,0.0566,0.8623,0.168
		c0.2617,0.1133,0.458,0.2598,0.5879,0.4424s0.2217,0.3984,0.2734,0.6494c0.0322,0.1631,0.0488,0.4473,0.0488,0.8545v3.1885h-0.8789
		v-3.1543c0-0.3584-0.0342-0.626-0.1025-0.8027c-0.0684-0.1777-0.1895-0.3193-0.3643-0.4258
		c-0.1738-0.1055-0.3779-0.1582-0.6123-0.1582c-0.374,0-0.6973,0.1191-0.9697,0.3564c-0.2715,0.2373-0.4072,0.6885-0.4072,1.3525
		v2.832H399.6338z"/>
	<path d="M405.2002,110.04v-1.0107h0.8789v1.0107H405.2002z M405.2002,116.1875v-5.1855h0.8789v5.1855H405.2002z"/>
	<path d="M407.4072,116.1875v-5.1855h0.791v0.7861c0.2021-0.3682,0.3877-0.6104,0.5596-0.7275
		c0.1699-0.1172,0.3584-0.1758,0.5635-0.1758c0.2959,0,0.5977,0.0947,0.9033,0.2832l-0.3027,0.8154
		c-0.2148-0.127-0.4297-0.1904-0.6445-0.1904c-0.1924,0-0.3643,0.0576-0.5176,0.1738c-0.1533,0.1152-0.2617,0.2754-0.3271,0.4805
		c-0.0977,0.3125-0.1465,0.6543-0.1465,1.0254v2.7148H407.4072z"/>
</g>
<g>
	<path d="M351.3232,129.2881l0.8643,0.1123c-0.0947,0.5957-0.3359,1.0625-0.7256,1.3984c-0.3887,0.3379-0.8662,0.5059-1.4326,0.5059
		c-0.71,0-1.2803-0.2324-1.7119-0.6953c-0.4307-0.4648-0.6465-1.1289-0.6465-1.9951c0-0.5596,0.0928-1.0498,0.2783-1.4697
		s0.4678-0.7344,0.8467-0.9453c0.3799-0.209,0.792-0.3145,1.2383-0.3145c0.5635,0,1.0234,0.1426,1.3818,0.4277
		c0.3584,0.2842,0.5879,0.6885,0.6885,1.2129l-0.8545,0.1318c-0.0811-0.3486-0.2256-0.6104-0.4326-0.7861
		c-0.2061-0.1758-0.4561-0.2637-0.749-0.2637c-0.4424,0-0.8027,0.1582-1.0791,0.4766c-0.2764,0.3164-0.415,0.8193-0.415,1.5059
		c0,0.6963,0.1338,1.2031,0.4004,1.5186s0.6152,0.4736,1.0449,0.4736c0.3447,0,0.6328-0.1055,0.8643-0.3174
		S351.2617,129.7275,351.3232,129.2881z"/>
	<path d="M352.6123,128.5947c0-0.96,0.2666-1.6719,0.8008-2.1338c0.4463-0.3838,0.9893-0.5762,1.6309-0.5762
		c0.7129,0,1.2959,0.2334,1.748,0.7012c0.4521,0.4668,0.6787,1.1123,0.6787,1.9355c0,0.667-0.1006,1.1924-0.2998,1.5742
		c-0.2012,0.3828-0.4922,0.6797-0.875,0.8916c-0.3818,0.2119-0.7998,0.3174-1.252,0.3174c-0.7256,0-1.3125-0.2324-1.7598-0.6982
		C352.8359,130.1406,352.6123,129.4707,352.6123,128.5947z M353.5156,128.5947c0,0.6641,0.1445,1.1611,0.4346,1.4912
		c0.29,0.3311,0.6543,0.4961,1.0938,0.4961c0.4365,0,0.7988-0.166,1.0889-0.498s0.4346-0.8379,0.4346-1.5186
		c0-0.6416-0.1455-1.127-0.4375-1.458c-0.291-0.3301-0.6533-0.4951-1.0859-0.4951c-0.4395,0-0.8037,0.1641-1.0938,0.4932
		S353.5156,127.9307,353.5156,128.5947z"/>
	<path d="M358.1494,129.6396l0.8691-0.1367c0.0488,0.3486,0.1846,0.6152,0.4072,0.8008c0.2236,0.1855,0.5352,0.2783,0.9355,0.2783
		c0.4033,0,0.7031-0.082,0.8984-0.2461c0.1953-0.165,0.293-0.3574,0.293-0.5791c0-0.1982-0.0859-0.3545-0.2588-0.4688
		c-0.1201-0.0781-0.4199-0.1777-0.8984-0.2979c-0.6445-0.1631-1.0908-0.3037-1.3408-0.4219
		c-0.248-0.1191-0.4375-0.2832-0.5664-0.4941c-0.1279-0.209-0.1924-0.4414-0.1924-0.6953c0-0.2314,0.0527-0.4453,0.1592-0.6426
		c0.1055-0.1963,0.249-0.3604,0.4316-0.4902c0.1367-0.1006,0.3232-0.1865,0.5586-0.2559c0.2363-0.0703,0.4893-0.1055,0.7598-0.1055
		c0.4072,0,0.7637,0.0586,1.0723,0.1758c0.3066,0.1172,0.5342,0.2754,0.6807,0.4766c0.1465,0.1992,0.2471,0.4678,0.3027,0.8027
		l-0.8594,0.1172c-0.0391-0.2666-0.1523-0.4756-0.3389-0.625c-0.1875-0.1494-0.4521-0.2246-0.7939-0.2246
		c-0.4033,0-0.6914,0.0664-0.8643,0.2002s-0.2588,0.29-0.2588,0.4688c0,0.1143,0.0361,0.2168,0.1074,0.3076
		c0.0713,0.0947,0.1836,0.1729,0.3369,0.2344c0.0879,0.0322,0.3467,0.1074,0.7764,0.2246c0.6221,0.166,1.0557,0.3018,1.3018,0.4082
		c0.2451,0.1055,0.4385,0.2588,0.5781,0.4609s0.21,0.4521,0.21,0.752c0,0.293-0.085,0.5684-0.2568,0.8281
		c-0.1699,0.2578-0.417,0.459-0.7393,0.5996c-0.3223,0.1426-0.6865,0.2129-1.0938,0.2129c-0.6738,0-1.1875-0.1396-1.54-0.4199
		C358.4727,130.6045,358.2471,130.1895,358.1494,129.6396z"/>
	<path d="M365.4199,130.4014l0.127,0.7764c-0.2471,0.0518-0.4688,0.0781-0.6641,0.0781c-0.3193,0-0.5664-0.0508-0.7422-0.1514
		s-0.2998-0.2334-0.3711-0.3975c-0.0713-0.165-0.1074-0.5107-0.1074-1.0381v-2.9834h-0.6445v-0.6836h0.6445v-1.2842l0.874-0.5273
		v1.8115h0.8838v0.6836h-0.8838v3.0322c0,0.251,0.0156,0.4121,0.0459,0.4834c0.0313,0.0713,0.082,0.1289,0.1523,0.1709
		c0.0693,0.042,0.1699,0.0635,0.2998,0.0635C365.1318,130.4355,365.2607,130.4238,365.4199,130.4014z"/>
	<path d="M365.9521,128.5947c0-0.96,0.2666-1.6719,0.8008-2.1338c0.4463-0.3838,0.9893-0.5762,1.6309-0.5762
		c0.7129,0,1.2959,0.2334,1.748,0.7012c0.4521,0.4668,0.6787,1.1123,0.6787,1.9355c0,0.667-0.1006,1.1924-0.2998,1.5742
		c-0.2012,0.3828-0.4922,0.6797-0.875,0.8916c-0.3818,0.2119-0.7998,0.3174-1.252,0.3174c-0.7256,0-1.3125-0.2324-1.7598-0.6982
		C366.1758,130.1406,365.9521,129.4707,365.9521,128.5947z M366.8555,128.5947c0,0.6641,0.1445,1.1611,0.4346,1.4912
		c0.29,0.3311,0.6543,0.4961,1.0938,0.4961c0.4365,0,0.7988-0.166,1.0889-0.498s0.4346-0.8379,0.4346-1.5186
		c0-0.6416-0.1455-1.127-0.4375-1.458c-0.291-0.3301-0.6533-0.4951-1.0859-0.4951c-0.4395,0-0.8037,0.1641-1.0938,0.4932
		S366.8555,127.9307,366.8555,128.5947z"/>
	<path d="M378.0029,129.2881l0.8643,0.1123c-0.0947,0.5957-0.3359,1.0625-0.7256,1.3984c-0.3887,0.3379-0.8662,0.5059-1.4326,0.5059
		c-0.71,0-1.2803-0.2324-1.7119-0.6953c-0.4307-0.4648-0.6465-1.1289-0.6465-1.9951c0-0.5596,0.0928-1.0498,0.2783-1.4697
		s0.4678-0.7344,0.8467-0.9453c0.3799-0.209,0.792-0.3145,1.2383-0.3145c0.5635,0,1.0234,0.1426,1.3818,0.4277
		c0.3584,0.2842,0.5879,0.6885,0.6885,1.2129l-0.8545,0.1318c-0.0811-0.3486-0.2256-0.6104-0.4326-0.7861
		c-0.2061-0.1758-0.4561-0.2637-0.749-0.2637c-0.4424,0-0.8027,0.1582-1.0791,0.4766c-0.2764,0.3164-0.415,0.8193-0.415,1.5059
		c0,0.6963,0.1338,1.2031,0.4004,1.5186s0.6152,0.4736,1.0449,0.4736c0.3447,0,0.6328-0.1055,0.8643-0.3174
		S377.9414,129.7275,378.0029,129.2881z"/>
	<path d="M379.292,128.5947c0-0.96,0.2666-1.6719,0.8008-2.1338c0.4463-0.3838,0.9893-0.5762,1.6309-0.5762
		c0.7129,0,1.2959,0.2334,1.748,0.7012c0.4521,0.4668,0.6787,1.1123,0.6787,1.9355c0,0.667-0.1006,1.1924-0.2998,1.5742
		c-0.2012,0.3828-0.4922,0.6797-0.875,0.8916c-0.3818,0.2119-0.7998,0.3174-1.252,0.3174c-0.7256,0-1.3125-0.2324-1.7598-0.6982
		C379.5156,130.1406,379.292,129.4707,379.292,128.5947z M380.1953,128.5947c0,0.6641,0.1445,1.1611,0.4346,1.4912
		c0.29,0.3311,0.6543,0.4961,1.0938,0.4961c0.4365,0,0.7988-0.166,1.0889-0.498s0.4346-0.8379,0.4346-1.5186
		c0-0.6416-0.1455-1.127-0.4375-1.458c-0.291-0.3301-0.6533-0.4951-1.0859-0.4951c-0.4395,0-0.8037,0.1641-1.0938,0.4932
		S380.1953,127.9307,380.1953,128.5947z"/>
	<path d="M385.1709,131.1875v-5.1855h0.791v0.7861c0.2021-0.3682,0.3877-0.6104,0.5596-0.7275
		c0.1699-0.1172,0.3584-0.1758,0.5635-0.1758c0.2959,0,0.5977,0.0947,0.9033,0.2832l-0.3027,0.8154
		c-0.2148-0.127-0.4297-0.1904-0.6445-0.1904c-0.1924,0-0.3643,0.0576-0.5176,0.1738c-0.1533,0.1152-0.2617,0.2754-0.3271,0.4805
		c-0.0977,0.3125-0.1465,0.6543-0.1465,1.0254v2.7148H385.1709z"/>
	<path d="M388.501,131.1875v-5.1855h0.791v0.7861c0.2021-0.3682,0.3877-0.6104,0.5596-0.7275
		c0.1699-0.1172,0.3584-0.1758,0.5635-0.1758c0.2959,0,0.5977,0.0947,0.9033,0.2832l-0.3027,0.8154
		c-0.2148-0.127-0.4297-0.1904-0.6445-0.1904c-0.1924,0-0.3643,0.0576-0.5176,0.1738c-0.1533,0.1152-0.2617,0.2754-0.3271,0.4805
		c-0.0977,0.3125-0.1465,0.6543-0.1465,1.0254v2.7148H388.501z"/>
	<path d="M395.3906,129.5176l0.9082,0.1123c-0.1436,0.5303-0.4082,0.9424-0.7959,1.2354s-0.8818,0.4395-1.4844,0.4395
		c-0.7588,0-1.3604-0.2334-1.8037-0.7012c-0.4453-0.4668-0.667-1.1221-0.667-1.9648c0-0.8721,0.2246-1.5498,0.6738-2.0313
		s1.0322-0.7227,1.748-0.7227c0.6934,0,1.2598,0.2363,1.6992,0.708s0.6592,1.1357,0.6592,1.9922
		c0,0.0518-0.002,0.1299-0.0049,0.2344h-3.8672c0.0322,0.5693,0.1934,1.0059,0.4834,1.3086s0.6514,0.4541,1.084,0.4541
		c0.3223,0,0.5977-0.085,0.8252-0.2539S395.2568,129.8887,395.3906,129.5176z M392.5049,128.0967h2.8955
		c-0.0391-0.4365-0.1494-0.7637-0.332-0.9814c-0.2803-0.3389-0.6426-0.5078-1.0889-0.5078c-0.4033,0-0.7432,0.1348-1.0186,0.4053
		C392.6865,127.2832,392.5342,127.6445,392.5049,128.0967z"/>
	<path d="M397.2412,131.6172l0.8545,0.127c0.0361,0.2637,0.1348,0.4561,0.2979,0.5762c0.2178,0.1631,0.5156,0.2441,0.8936,0.2441
		c0.4072,0,0.7207-0.0811,0.9424-0.2441s0.3711-0.3906,0.4492-0.6836c0.0459-0.1787,0.0664-0.5547,0.0635-1.1279
		c-0.3838,0.4521-0.8623,0.6787-1.4355,0.6787c-0.7129,0-1.2646-0.2568-1.6553-0.7715s-0.5859-1.1309-0.5859-1.8506
		c0-0.4951,0.0898-0.9512,0.2686-1.3701c0.1787-0.418,0.4385-0.7412,0.7783-0.9688c0.3408-0.2275,0.7402-0.3418,1.1992-0.3418
		c0.6123,0,1.1162,0.2471,1.5137,0.7422v-0.625h0.8105v4.4824c0,0.8076-0.082,1.3789-0.2461,1.7168
		c-0.165,0.3359-0.4258,0.6025-0.7813,0.7979c-0.3574,0.1953-0.7959,0.293-1.3164,0.293c-0.6182,0-1.1182-0.1396-1.499-0.417
		C397.4121,132.5957,397.2285,132.1768,397.2412,131.6172z M397.9688,128.502c0,0.6807,0.1348,1.1768,0.4053,1.4893
		s0.6084,0.4688,1.0156,0.4688c0.4033,0,0.7422-0.1553,1.0156-0.4658c0.2734-0.3115,0.4102-0.7988,0.4102-1.4629
		c0-0.6348-0.1406-1.1133-0.4219-1.4355c-0.2822-0.3223-0.6211-0.4834-1.0186-0.4834c-0.3906,0-0.7227,0.1592-0.9961,0.4756
		C398.1055,127.4063,397.9688,127.877,397.9688,128.502z"/>
	<path d="M402.9688,125.04v-1.0107h0.8789v1.0107H402.9688z M402.9688,131.1875v-5.1855h0.8789v5.1855H402.9688z"/>
	<path d="M405.1758,131.1875v-5.1855h0.791v0.7861c0.2021-0.3682,0.3877-0.6104,0.5596-0.7275
		c0.1699-0.1172,0.3584-0.1758,0.5635-0.1758c0.2959,0,0.5977,0.0947,0.9033,0.2832l-0.3027,0.8154
		c-0.2148-0.127-0.4297-0.1904-0.6445-0.1904c-0.1924,0-0.3643,0.0576-0.5176,0.1738c-0.1533,0.1152-0.2617,0.2754-0.3271,0.4805
		c-0.0977,0.3125-0.1465,0.6543-0.1465,1.0254v2.7148H405.1758z"/>
</g>
<g>
	<path d="M351.3232,144.2881l0.8643,0.1123c-0.0947,0.5957-0.3359,1.0625-0.7256,1.3984c-0.3887,0.3379-0.8662,0.5059-1.4326,0.5059
		c-0.71,0-1.2803-0.2324-1.7119-0.6953c-0.4307-0.4648-0.6465-1.1289-0.6465-1.9951c0-0.5596,0.0928-1.0498,0.2783-1.4697
		s0.4678-0.7344,0.8467-0.9453c0.3799-0.209,0.792-0.3145,1.2383-0.3145c0.5635,0,1.0234,0.1426,1.3818,0.4277
		c0.3584,0.2842,0.5879,0.6885,0.6885,1.2129l-0.8545,0.1318c-0.0811-0.3486-0.2256-0.6104-0.4326-0.7861
		c-0.2061-0.1758-0.4561-0.2637-0.749-0.2637c-0.4424,0-0.8027,0.1582-1.0791,0.4766c-0.2764,0.3164-0.415,0.8193-0.415,1.5059
		c0,0.6963,0.1338,1.2031,0.4004,1.5186s0.6152,0.4736,1.0449,0.4736c0.3447,0,0.6328-0.1055,0.8643-0.3174
		S351.2617,144.7275,351.3232,144.2881z"/>
	<path d="M352.6123,143.5947c0-0.96,0.2666-1.6719,0.8008-2.1338c0.4463-0.3838,0.9893-0.5762,1.6309-0.5762
		c0.7129,0,1.2959,0.2334,1.748,0.7012c0.4521,0.4668,0.6787,1.1123,0.6787,1.9355c0,0.667-0.1006,1.1924-0.2998,1.5742
		c-0.2012,0.3828-0.4922,0.6797-0.875,0.8916c-0.3818,0.2119-0.7998,0.3174-1.252,0.3174c-0.7256,0-1.3125-0.2324-1.7598-0.6982
		C352.8359,145.1406,352.6123,144.4707,352.6123,143.5947z M353.5156,143.5947c0,0.6641,0.1445,1.1611,0.4346,1.4912
		c0.29,0.3311,0.6543,0.4961,1.0938,0.4961c0.4365,0,0.7988-0.166,1.0889-0.498s0.4346-0.8379,0.4346-1.5186
		c0-0.6416-0.1455-1.127-0.4375-1.458c-0.291-0.3301-0.6533-0.4951-1.0859-0.4951c-0.4395,0-0.8037,0.1641-1.0938,0.4932
		S353.5156,142.9307,353.5156,143.5947z"/>
	<path d="M358.1494,144.6396l0.8691-0.1367c0.0488,0.3486,0.1846,0.6152,0.4072,0.8008c0.2236,0.1855,0.5352,0.2783,0.9355,0.2783
		c0.4033,0,0.7031-0.082,0.8984-0.2461c0.1953-0.165,0.293-0.3574,0.293-0.5791c0-0.1982-0.0859-0.3545-0.2588-0.4688
		c-0.1201-0.0781-0.4199-0.1777-0.8984-0.2979c-0.6445-0.1631-1.0908-0.3037-1.3408-0.4219
		c-0.248-0.1191-0.4375-0.2832-0.5664-0.4941c-0.1279-0.209-0.1924-0.4414-0.1924-0.6953c0-0.2314,0.0527-0.4453,0.1592-0.6426
		c0.1055-0.1963,0.249-0.3604,0.4316-0.4902c0.1367-0.1006,0.3232-0.1865,0.5586-0.2559c0.2363-0.0703,0.4893-0.1055,0.7598-0.1055
		c0.4072,0,0.7637,0.0586,1.0723,0.1758c0.3066,0.1172,0.5342,0.2754,0.6807,0.4766c0.1465,0.1992,0.2471,0.4678,0.3027,0.8027
		l-0.8594,0.1172c-0.0391-0.2666-0.1523-0.4756-0.3389-0.625c-0.1875-0.1494-0.4521-0.2246-0.7939-0.2246
		c-0.4033,0-0.6914,0.0664-0.8643,0.2002s-0.2588,0.29-0.2588,0.4688c0,0.1143,0.0361,0.2168,0.1074,0.3076
		c0.0713,0.0947,0.1836,0.1729,0.3369,0.2344c0.0879,0.0322,0.3467,0.1074,0.7764,0.2246c0.6221,0.166,1.0557,0.3018,1.3018,0.4082
		c0.2451,0.1055,0.4385,0.2588,0.5781,0.4609s0.21,0.4521,0.21,0.752c0,0.293-0.085,0.5684-0.2568,0.8281
		c-0.1699,0.2578-0.417,0.459-0.7393,0.5996c-0.3223,0.1426-0.6865,0.2129-1.0938,0.2129c-0.6738,0-1.1875-0.1396-1.54-0.4199
		C358.4727,145.6045,358.2471,145.1895,358.1494,144.6396z"/>
	<path d="M365.4199,145.4014l0.127,0.7764c-0.2471,0.0518-0.4688,0.0781-0.6641,0.0781c-0.3193,0-0.5664-0.0508-0.7422-0.1514
		s-0.2998-0.2334-0.3711-0.3975c-0.0713-0.165-0.1074-0.5107-0.1074-1.0381v-2.9834h-0.6445v-0.6836h0.6445v-1.2842l0.874-0.5273
		v1.8115h0.8838v0.6836h-0.8838v3.0322c0,0.251,0.0156,0.4121,0.0459,0.4834c0.0313,0.0713,0.082,0.1289,0.1523,0.1709
		c0.0693,0.042,0.1699,0.0635,0.2998,0.0635C365.1318,145.4355,365.2607,145.4238,365.4199,145.4014z"/>
	<path d="M365.9521,143.5947c0-0.96,0.2666-1.6719,0.8008-2.1338c0.4463-0.3838,0.9893-0.5762,1.6309-0.5762
		c0.7129,0,1.2959,0.2334,1.748,0.7012c0.4521,0.4668,0.6787,1.1123,0.6787,1.9355c0,0.667-0.1006,1.1924-0.2998,1.5742
		c-0.2012,0.3828-0.4922,0.6797-0.875,0.8916c-0.3818,0.2119-0.7998,0.3174-1.252,0.3174c-0.7256,0-1.3125-0.2324-1.7598-0.6982
		C366.1758,145.1406,365.9521,144.4707,365.9521,143.5947z M366.8555,143.5947c0,0.6641,0.1445,1.1611,0.4346,1.4912
		c0.29,0.3311,0.6543,0.4961,1.0938,0.4961c0.4365,0,0.7988-0.166,1.0889-0.498s0.4346-0.8379,0.4346-1.5186
		c0-0.6416-0.1455-1.127-0.4375-1.458c-0.291-0.3301-0.6533-0.4951-1.0859-0.4951c-0.4395,0-0.8037,0.1641-1.0938,0.4932
		S366.8555,142.9307,366.8555,143.5947z"/>
	<path d="M376.5381,145.4014l0.127,0.7764c-0.2471,0.0518-0.4688,0.0781-0.6641,0.0781c-0.3193,0-0.5664-0.0508-0.7422-0.1514
		s-0.2998-0.2334-0.3711-0.3975c-0.0713-0.165-0.1074-0.5107-0.1074-1.0381v-2.9834h-0.6445v-0.6836h0.6445v-1.2842l0.874-0.5273
		v1.8115h0.8838v0.6836h-0.8838v3.0322c0,0.251,0.0156,0.4121,0.0459,0.4834c0.0313,0.0713,0.082,0.1289,0.1523,0.1709
		c0.0693,0.042,0.1699,0.0635,0.2998,0.0635C376.25,145.4355,376.3789,145.4238,376.5381,145.4014z"/>
	<path d="M377.0703,143.5947c0-0.96,0.2666-1.6719,0.8008-2.1338c0.4463-0.3838,0.9893-0.5762,1.6309-0.5762
		c0.7129,0,1.2959,0.2334,1.748,0.7012c0.4521,0.4668,0.6787,1.1123,0.6787,1.9355c0,0.667-0.1006,1.1924-0.2998,1.5742
		c-0.2012,0.3828-0.4922,0.6797-0.875,0.8916c-0.3818,0.2119-0.7998,0.3174-1.252,0.3174c-0.7256,0-1.3125-0.2324-1.7598-0.6982
		C377.2939,145.1406,377.0703,144.4707,377.0703,143.5947z M377.9736,143.5947c0,0.6641,0.1445,1.1611,0.4346,1.4912
		c0.29,0.3311,0.6543,0.4961,1.0938,0.4961c0.4365,0,0.7988-0.166,1.0889-0.498s0.4346-0.8379,0.4346-1.5186
		c0-0.6416-0.1455-1.127-0.4375-1.458c-0.291-0.3301-0.6533-0.4951-1.0859-0.4951c-0.4395,0-0.8037,0.1641-1.0938,0.4932
		S377.9736,142.9307,377.9736,143.5947z"/>
	<path d="M384.8779,145.4014l0.127,0.7764c-0.2471,0.0518-0.4688,0.0781-0.6641,0.0781c-0.3193,0-0.5664-0.0508-0.7422-0.1514
		s-0.2998-0.2334-0.3711-0.3975c-0.0713-0.165-0.1074-0.5107-0.1074-1.0381v-2.9834h-0.6445v-0.6836h0.6445v-1.2842l0.874-0.5273
		v1.8115h0.8838v0.6836h-0.8838v3.0322c0,0.251,0.0156,0.4121,0.0459,0.4834c0.0313,0.0713,0.082,0.1289,0.1523,0.1709
		c0.0693,0.042,0.1699,0.0635,0.2998,0.0635C384.5898,145.4355,384.7188,145.4238,384.8779,145.4014z"/>
	<path d="M389.1211,145.5479c-0.3252,0.2764-0.6387,0.4717-0.9395,0.5859c-0.3018,0.1143-0.625,0.1709-0.9697,0.1709
		c-0.5693,0-1.0078-0.1387-1.3135-0.418c-0.3057-0.2773-0.459-0.6338-0.459-1.0664c0-0.2539,0.0576-0.4863,0.1738-0.6953
		c0.1152-0.2109,0.2666-0.3789,0.4531-0.5059c0.1875-0.127,0.3984-0.2227,0.6328-0.2881c0.1729-0.0459,0.4326-0.0898,0.7813-0.1318
		c0.71-0.085,1.2324-0.1855,1.5674-0.3027c0.0029-0.1201,0.0049-0.1973,0.0049-0.2295c0-0.3584-0.083-0.6104-0.249-0.7568
		c-0.2246-0.1982-0.5586-0.2979-1.001-0.2979c-0.4131,0-0.7188,0.0723-0.916,0.2178c-0.1963,0.1445-0.3418,0.4004-0.4365,0.7686
		l-0.8594-0.1172c0.0781-0.3682,0.207-0.665,0.3857-0.8916c0.1787-0.2256,0.4375-0.4004,0.7764-0.5215
		c0.3389-0.123,0.7305-0.1836,1.1768-0.1836c0.4424,0,0.8027,0.0518,1.0791,0.1563s0.4805,0.2354,0.6104,0.3926
		c0.1299,0.1582,0.2217,0.3574,0.2734,0.5986c0.0293,0.1494,0.0439,0.4199,0.0439,0.8105v1.1719
		c0,0.8174,0.0186,1.334,0.0557,1.5498c0.0381,0.2168,0.1123,0.4248,0.2227,0.623h-0.918
		C389.2061,146.0049,389.1475,145.792,389.1211,145.5479z M389.0479,143.585c-0.3193,0.1299-0.7979,0.2412-1.4355,0.332
		c-0.3613,0.0518-0.6172,0.1104-0.7666,0.1758s-0.2656,0.1602-0.3467,0.2861c-0.0811,0.125-0.1221,0.2637-0.1221,0.417
		c0,0.2344,0.0889,0.4297,0.2656,0.5859c0.1777,0.1563,0.4375,0.2344,0.7793,0.2344c0.3389,0,0.6396-0.0742,0.9033-0.2217
		c0.2637-0.1484,0.457-0.3516,0.5811-0.6084c0.0947-0.1982,0.1416-0.4912,0.1416-0.8789V143.585z"/>
	<path d="M391.2793,146.1875v-7.1582h0.8789v7.1582H391.2793z"/>
</g>
<g>
	<path style="fill:#333333;" d="M47.8848,222.7832h-6c-0.5522,0-1-0.4473-1-1s0.4478-1,1-1h6c0.5522,0,1,0.4473,1,1
		S48.437,222.7832,47.8848,222.7832z"/>
	<path style="fill:#333333;" d="M300.4072,222.7832h-11.4785c-0.5527,0-1-0.4473-1-1s0.4473-1,1-1h11.4785c0.5527,0,1,0.4473,1,1
		S300.96,222.7832,300.4072,222.7832z M277.4502,222.7832h-11.4785c-0.5527,0-1-0.4473-1-1s0.4473-1,1-1h11.4785
		c0.5527,0,1,0.4473,1,1S278.0029,222.7832,277.4502,222.7832z M254.4941,222.7832h-11.4785c-0.5527,0-1-0.4473-1-1s0.4473-1,1-1
		h11.4785c0.5527,0,1,0.4473,1,1S255.0469,222.7832,254.4941,222.7832z M231.5371,222.7832h-11.4785c-0.5527,0-1-0.4473-1-1
		s0.4473-1,1-1h11.4785c0.5527,0,1,0.4473,1,1S232.0898,222.7832,231.5371,222.7832z M208.5811,222.7832h-11.4785
		c-0.5527,0-1-0.4473-1-1s0.4473-1,1-1h11.4785c0.5527,0,1,0.4473,1,1S209.1338,222.7832,208.5811,222.7832z M185.624,222.7832
		h-11.4785c-0.5527,0-1-0.4473-1-1s0.4473-1,1-1h11.4785c0.5527,0,1,0.4473,1,1S186.1768,222.7832,185.624,222.7832z
		 M162.6675,222.7832h-11.478c-0.5522,0-1-0.4473-1-1s0.4478-1,1-1h11.478c0.5522,0,1,0.4473,1,1
		S163.2197,222.7832,162.6675,222.7832z M139.7109,222.7832h-11.478c-0.5522,0-1-0.4473-1-1s0.4478-1,1-1h11.478
		c0.5522,0,1,0.4473,1,1S140.2632,222.7832,139.7109,222.7832z M116.7544,222.7832h-11.478c-0.5522,0-1-0.4473-1-1s0.4478-1,1-1
		h11.478c0.5522,0,1,0.4473,1,1S117.3066,222.7832,116.7544,222.7832z M93.7979,222.7832h-11.478c-0.5522,0-1-0.4473-1-1
		s0.4478-1,1-1h11.478c0.5522,0,1,0.4473,1,1S94.3501,222.7832,93.7979,222.7832z M70.8413,222.7832h-11.478c-0.5522,0-1-0.4473-1-1
		s0.4478-1,1-1h11.478c0.5522,0,1,0.4473,1,1S71.3936,222.7832,70.8413,222.7832z"/>
	<path style="fill:#333333;" d="M317.8848,222.7832h-6c-0.5527,0-1-0.4473-1-1s0.4473-1,1-1h6c0.5527,0,1,0.4473,1,1
		S318.4375,222.7832,317.8848,222.7832z"/>
</g>
<g>
	<path style="fill:#333333;" d="M47.8848,255.7832h-6c-0.5522,0-1-0.4473-1-1s0.4478-1,1-1h6c0.5522,0,1,0.4473,1,1
		S48.437,255.7832,47.8848,255.7832z"/>
	<path style="fill:#333333;" d="M300.4072,255.7832h-11.4785c-0.5527,0-1-0.4473-1-1s0.4473-1,1-1h11.4785c0.5527,0,1,0.4473,1,1
		S300.96,255.7832,300.4072,255.7832z M277.4502,255.7832h-11.4785c-0.5527,0-1-0.4473-1-1s0.4473-1,1-1h11.4785
		c0.5527,0,1,0.4473,1,1S278.0029,255.7832,277.4502,255.7832z M254.4941,255.7832h-11.4785c-0.5527,0-1-0.4473-1-1s0.4473-1,1-1
		h11.4785c0.5527,0,1,0.4473,1,1S255.0469,255.7832,254.4941,255.7832z M231.5371,255.7832h-11.4785c-0.5527,0-1-0.4473-1-1
		s0.4473-1,1-1h11.4785c0.5527,0,1,0.4473,1,1S232.0898,255.7832,231.5371,255.7832z M208.5811,255.7832h-11.4785
		c-0.5527,0-1-0.4473-1-1s0.4473-1,1-1h11.4785c0.5527,0,1,0.4473,1,1S209.1338,255.7832,208.5811,255.7832z M185.624,255.7832
		h-11.4785c-0.5527,0-1-0.4473-1-1s0.4473-1,1-1h11.4785c0.5527,0,1,0.4473,1,1S186.1768,255.7832,185.624,255.7832z
		 M162.6675,255.7832h-11.478c-0.5522,0-1-0.4473-1-1s0.4478-1,1-1h11.478c0.5522,0,1,0.4473,1,1
		S163.2197,255.7832,162.6675,255.7832z M139.7109,255.7832h-11.478c-0.5522,0-1-0.4473-1-1s0.4478-1,1-1h11.478
		c0.5522,0,1,0.4473,1,1S140.2632,255.7832,139.7109,255.7832z M116.7544,255.7832h-11.478c-0.5522,0-1-0.4473-1-1s0.4478-1,1-1
		h11.478c0.5522,0,1,0.4473,1,1S117.3066,255.7832,116.7544,255.7832z M93.7979,255.7832h-11.478c-0.5522,0-1-0.4473-1-1
		s0.4478-1,1-1h11.478c0.5522,0,1,0.4473,1,1S94.3501,255.7832,93.7979,255.7832z M70.8413,255.7832h-11.478c-0.5522,0-1-0.4473-1-1
		s0.4478-1,1-1h11.478c0.5522,0,1,0.4473,1,1S71.3936,255.7832,70.8413,255.7832z"/>
	<path style="fill:#333333;" d="M317.8848,255.7832h-6c-0.5527,0-1-0.4473-1-1s0.4473-1,1-1h6c0.5527,0,1,0.4473,1,1
		S318.4375,255.7832,317.8848,255.7832z"/>
</g>
<path style="fill:#C1272D;" d="M53.0654,227.7842c-0.1206,0-0.187-0.001-0.1992-0.001c-0.5522-0.0107-0.9912-0.4658-0.981-1.0186
	c0.0098-0.5518,0.46-0.9492,1.0176-0.9814c0.2725-0.0059,27.4224,0.3018,71.7017-15.3633
	c40.874-14.4609,105.1084-45.8691,179.001-113.375c0.4082-0.3716,1.04-0.3452,1.4131,0.064c0.3721,0.4077,0.3438,1.04-0.0635,1.4126
	c-74.1982,67.7832-138.7368,99.3145-179.8125,113.8291C82.563,227.3975,55.6328,227.7842,53.0654,227.7842z"/>
<path style="fill:#0071BC;" d="M302.3994,207.8301c-17.4844,0-103.876-13.4658-107.6689-14.0586l-24.0098-4.002
	c-0.04-0.0068-0.0791-0.0156-0.1182-0.0273l-34-10c-0.085-0.0244-0.1665-0.0605-0.2417-0.1074l-26-16
	c-0.0815-0.0498-0.1553-0.1113-0.2192-0.1826l-27-30c-0.1021-0.1133-0.1768-0.248-0.2183-0.3945
	c-0.2456-0.8584-6.0225-21.0957-7.019-26.0781c-1.2017-6.0088-16.1782-63.5605-18.5269-68.3345
	c-0.4497-0.2642-0.624-0.8354-0.3872-1.3091c0.1919-0.3823,0.6714-0.6465,1.0894-0.5879
	c0.9507,0.1274,1.6372,0.2192,10.4937,33.4868c4.3008,16.1553,8.7788,33.7856,9.292,36.3521
	c0.9258,4.6299,6.2725,23.4346,6.9175,25.6992l26.749,29.7207l25.7632,15.8545l33.8135,9.9453l23.9404,3.9902
	c0.9492,0.1484,96.0566,14.9668,108.7588,13.9893c0.5674-0.04,1.0322,0.3701,1.0742,0.9199
	c0.042,0.5508-0.3701,1.0322-0.9199,1.0742C303.5273,207.8135,303.0039,207.8301,302.3994,207.8301z"/>
<path style="fill:#7CB342;" d="M142.1528,160.7832c-6.2988,0-29.4878-4.8164-30.4722-5.0215
	c-0.1641-0.0342-0.3164-0.1084-0.4443-0.2168l-28.6885-24.4248c-0.1553-0.1328-0.2666-0.3096-0.3188-0.5078l-7.3584-27.9941
	c-0.1401-0.5342,0.1787-1.0811,0.7129-1.2207c0.5352-0.1406,1.0811,0.1787,1.2217,0.7129l7.2783,27.6904l28.2544,24.0547
	c2.5664,0.5303,24.0586,4.9277,29.8149,4.9277c5.9097,0,23.1704-2.7617,24.4927-2.9746c8.6924-2.8965,23.1025-7.6533,25.0674-8.0049
	v-0.002c1.7031-0.4619,27.2686-13.6621,38.5283-19.8936c10.6689-5.9053,72.4443-49.5024,73.0664-49.9419
	c0.4531-0.3188,1.0752-0.2104,1.3945,0.2402c0.3184,0.4512,0.2109,1.0752-0.2402,1.3936
	c-2.5469,1.7979-62.4883,44.1001-73.252,50.0581c-6.9053,3.8213-37.7295,20.125-39.3252,20.125
	c-1.083,0.1641-15.7266,4.9629-24.6836,7.9482c-0.0513,0.0176-0.103,0.0303-0.1563,0.0391
	C166.2881,157.8936,148.4297,160.7832,142.1528,160.7832z"/>
<path style="fill:#7CB342;" d="M342.8848,144.7832h-13c-0.5527,0-1-0.4473-1-1s0.4473-1,1-1h13c0.5527,0,1,0.4473,1,1
	S343.4375,144.7832,342.8848,144.7832z"/>
<path style="fill:#C1272D;" d="M342.8848,131.7832h-13c-0.5527,0-1-0.4473-1-1s0.4473-1,1-1h13c0.5527,0,1,0.4473,1,1
	S343.4375,131.7832,342.8848,131.7832z"/>
<path style="fill:#0071BC;" d="M342.8848,115.7832h-13c-0.5527,0-1-0.4473-1-1s0.4473-1,1-1h13c0.5527,0,1,0.4473,1,1
	S343.4375,115.7832,342.8848,115.7832z"/>
</svg>
