<?xml version="1.0" encoding="utf-8"?>
<!-- Generator: Adobe Illustrator 21.0.0, SVG Export Plug-In . SVG Version: 6.00 Build 0)  -->
<svg version="1.1" id="Capa_1" xmlns="http://www.w3.org/2000/svg" xmlns:xlink="http://www.w3.org/1999/xlink" x="0px" y="0px"
	 viewBox="0 0 355.7439 263.695" style="enable-background:new 0 0 355.7439 263.695;" xml:space="preserve">
<g>
	<g>
		<g>
			<path style="fill:#1A1A1A;" d="M37.6365,71.2892l2.2422,0.7109c-0.3438,1.25-0.915,2.1787-1.7148,2.7852
				s-1.8135,0.9102-3.043,0.9102c-1.5205,0-2.7705-0.5195-3.75-1.5586s-1.4688-2.46-1.4688-4.2617
				c0-1.9063,0.4922-3.3867,1.4766-4.4414s2.2783-1.582,3.8828-1.582c1.4014,0,2.5391,0.4141,3.4141,1.2422
				c0.5205,0.4893,0.9111,1.1924,1.1719,2.1094l-2.2891,0.5469c-0.1357-0.5938-0.418-1.0625-0.8477-1.4063
				s-0.9521-0.5156-1.5664-0.5156c-0.8486,0-1.5381,0.3047-2.0664,0.9141s-0.793,1.5967-0.793,2.9609
				c0,1.4482,0.2607,2.4795,0.7813,3.0938s1.1982,0.9219,2.0313,0.9219c0.6143,0,1.1436-0.1953,1.5859-0.5859
				S37.4441,72.1281,37.6365,71.2892z"/>
		</g>
		<g>
			<path style="fill:#1A1A1A;" d="M41.3396,71.2345c0-0.7295,0.1797-1.4346,0.5391-2.1172s0.8682-1.2031,1.5273-1.5625
				s1.3945-0.5391,2.207-0.5391c1.2549,0,2.2842,0.4072,3.0859,1.2227s1.2031,1.8447,1.2031,3.0898
				c0,1.2549-0.4053,2.2959-1.2148,3.1211s-1.8291,1.2383-3.0586,1.2383c-0.7607,0-1.4854-0.1719-2.1758-0.5156
				s-1.2148-0.8477-1.5742-1.5117S41.3396,72.1876,41.3396,71.2345z M43.5896,71.3517c0,0.8232,0.1953,1.4531,0.5859,1.8906
				s0.8721,0.6563,1.4453,0.6563s1.0537-0.2188,1.4414-0.6563s0.582-1.0732,0.582-1.9063c0-0.8125-0.1943-1.4375-0.582-1.875
				s-0.8682-0.6563-1.4414-0.6563s-1.0547,0.2188-1.4453,0.6563S43.5896,70.5285,43.5896,71.3517z"/>
		</g>
		<g>
			<path style="fill:#1A1A1A;" d="M50.8474,73.1329l2.2031-0.3359c0.0938,0.4268,0.2842,0.751,0.5703,0.9727
				s0.6875,0.332,1.2031,0.332c0.5674,0,0.9951-0.1045,1.2813-0.3125c0.1924-0.1455,0.2891-0.3408,0.2891-0.5859
				c0-0.167-0.0518-0.3047-0.1563-0.4141c-0.1094-0.1045-0.3545-0.2002-0.7344-0.2891c-1.7705-0.3906-2.8936-0.7471-3.3672-1.0703
				c-0.6563-0.4482-0.9844-1.0703-0.9844-1.8672c0-0.7188,0.2842-1.3232,0.8516-1.8125s1.4482-0.7344,2.6406-0.7344
				c1.1357,0,1.9795,0.1846,2.5313,0.5547s0.9326,0.917,1.1406,1.6406l-2.0703,0.3828c-0.0889-0.3232-0.2568-0.5703-0.5039-0.7422
				s-0.6006-0.2578-1.0586-0.2578c-0.5781,0-0.9922,0.0811-1.2422,0.2422c-0.167,0.1143-0.25,0.2627-0.25,0.4453
				c0,0.1563,0.0732,0.2891,0.2188,0.3984c0.1982,0.1455,0.8818,0.3516,2.0508,0.6172s1.9854,0.5908,2.4492,0.9766
				c0.458,0.3906,0.6875,0.9346,0.6875,1.6328c0,0.7607-0.3174,1.4141-0.9531,1.9609s-1.5752,0.8203-2.8203,0.8203
				c-1.1299,0-2.0244-0.2295-2.6836-0.6875S51.0505,73.9191,50.8474,73.1329z"/>
		</g>
		<g>
			<path style="fill:#1A1A1A;" d="M64.324,67.2033v1.75h-1.5v3.3438c0,0.6768,0.0146,1.0713,0.043,1.1836
				s0.0938,0.2041,0.1953,0.2773s0.2256,0.1094,0.3711,0.1094c0.2031,0,0.4971-0.0703,0.8828-0.2109l0.1875,1.7031
				c-0.5107,0.2188-1.0889,0.3281-1.7344,0.3281c-0.3955,0-0.7529-0.0664-1.0703-0.1992s-0.5508-0.3047-0.6992-0.5156
				s-0.251-0.4961-0.3086-0.8555c-0.0469-0.2549-0.0703-0.7705-0.0703-1.5469v-3.6172H59.613v-1.75h1.0078v-1.6484l2.2031-1.2813
				v2.9297H64.324z"/>
		</g>
		<g>
			<path style="fill:#1A1A1A;" d="M65.3396,71.2345c0-0.7295,0.1797-1.4346,0.5391-2.1172s0.8682-1.2031,1.5273-1.5625
				s1.3945-0.5391,2.207-0.5391c1.2549,0,2.2842,0.4072,3.0859,1.2227s1.2031,1.8447,1.2031,3.0898
				c0,1.2549-0.4053,2.2959-1.2148,3.1211s-1.8291,1.2383-3.0586,1.2383c-0.7607,0-1.4854-0.1719-2.1758-0.5156
				s-1.2148-0.8477-1.5742-1.5117S65.3396,72.1876,65.3396,71.2345z M67.5896,71.3517c0,0.8232,0.1953,1.4531,0.5859,1.8906
				s0.8721,0.6563,1.4453,0.6563s1.0537-0.2188,1.4414-0.6563s0.582-1.0732,0.582-1.9063c0-0.8125-0.1943-1.4375-0.582-1.875
				s-0.8682-0.6563-1.4414-0.6563s-1.0547,0.2188-1.4453,0.6563S67.5896,70.5285,67.5896,71.3517z"/>
		</g>
		<g>
			<path style="fill:#1A1A1A;" d="M74.8474,73.1329l2.2031-0.3359c0.0938,0.4268,0.2842,0.751,0.5703,0.9727
				s0.6875,0.332,1.2031,0.332c0.5674,0,0.9951-0.1045,1.2813-0.3125c0.1924-0.1455,0.2891-0.3408,0.2891-0.5859
				c0-0.167-0.0518-0.3047-0.1563-0.4141c-0.1094-0.1045-0.3545-0.2002-0.7344-0.2891c-1.7705-0.3906-2.8936-0.7471-3.3672-1.0703
				c-0.6563-0.4482-0.9844-1.0703-0.9844-1.8672c0-0.7188,0.2842-1.3232,0.8516-1.8125s1.4482-0.7344,2.6406-0.7344
				c1.1357,0,1.9795,0.1846,2.5313,0.5547s0.9326,0.917,1.1406,1.6406l-2.0703,0.3828c-0.0889-0.3232-0.2568-0.5703-0.5039-0.7422
				s-0.6006-0.2578-1.0586-0.2578c-0.5781,0-0.9922,0.0811-1.2422,0.2422c-0.167,0.1143-0.25,0.2627-0.25,0.4453
				c0,0.1563,0.0732,0.2891,0.2188,0.3984c0.1982,0.1455,0.8818,0.3516,2.0508,0.6172s1.9854,0.5908,2.4492,0.9766
				c0.458,0.3906,0.6875,0.9346,0.6875,1.6328c0,0.7607-0.3174,1.4141-0.9531,1.9609s-1.5752,0.8203-2.8203,0.8203
				c-1.1299,0-2.0244-0.2295-2.6836-0.6875S75.0505,73.9191,74.8474,73.1329z"/>
		</g>
	</g>
	<g>
		<g>
			<g>
				<path style="fill:#1A1A1A;" d="M29.6814,96.2833V84.8302h4.3203c0.7607,0,1.3408,0.0361,1.7422,0.1094
					c0.5625,0.0938,1.0342,0.2725,1.4141,0.5352s0.6865,0.6318,0.918,1.1055s0.3477,0.9951,0.3477,1.5625
					c0,0.9736-0.3096,1.7979-0.9297,2.4727s-1.7393,1.0117-3.3594,1.0117H31.197v4.6563H29.6814z M31.197,90.2755h2.9609
					c0.9795,0,1.6748-0.1826,2.0859-0.5469s0.6172-0.8779,0.6172-1.5391c0-0.4795-0.1211-0.8896-0.3633-1.2305
					s-0.5615-0.5664-0.957-0.6758c-0.2549-0.0674-0.7266-0.1016-1.4141-0.1016H31.197V90.2755z"/>
			</g>
			<g>
				<path style="fill:#1A1A1A;" d="M40.158,96.2833v-8.2969h1.2656v1.2578c0.3232-0.5889,0.6211-0.9766,0.8945-1.1641
					s0.5742-0.2813,0.9023-0.2813c0.4736,0,0.9561,0.1514,1.4453,0.4531l-0.4844,1.3047c-0.3438-0.2031-0.6875-0.3047-1.0313-0.3047
					c-0.3076,0-0.583,0.0928-0.8281,0.2773s-0.4189,0.4414-0.5234,0.7695c-0.1563,0.5-0.2344,1.0469-0.2344,1.6406v4.3438H40.158z"
					/>
			</g>
			<g>
				<path style="fill:#1A1A1A;" d="M51.1814,93.6115l1.4531,0.1797c-0.2295,0.8486-0.6533,1.5078-1.2734,1.9766
					s-1.4111,0.7031-2.375,0.7031c-1.2139,0-2.1758-0.374-2.8867-1.1211s-1.0664-1.7959-1.0664-3.1445
					c0-1.3955,0.3594-2.4795,1.0781-3.25s1.6514-1.1563,2.7969-1.1563c1.1094,0,2.0156,0.3779,2.7188,1.1328
					s1.0547,1.8174,1.0547,3.1875c0,0.083-0.0029,0.208-0.0078,0.375h-6.1875c0.0518,0.9111,0.3096,1.6094,0.7734,2.0938
					s1.042,0.7266,1.7344,0.7266c0.5156,0,0.9561-0.1357,1.3203-0.4063S50.9675,94.2052,51.1814,93.6115z M46.5642,91.338h4.6328
					c-0.0625-0.6982-0.2393-1.2217-0.5313-1.5703c-0.4482-0.542-1.0283-0.8125-1.7422-0.8125c-0.6455,0-1.1885,0.2158-1.6289,0.6484
					S46.6111,90.6144,46.5642,91.338z"/>
			</g>
			<g>
				<path style="fill:#1A1A1A;" d="M56.7048,96.2833l-3.1563-8.2969h1.4844l1.7813,4.9688
					c0.1924,0.5361,0.3701,1.0938,0.5313,1.6719c0.125-0.4375,0.2998-0.9639,0.5234-1.5781l1.8438-5.0625h1.4453l-3.1406,8.2969
					H56.7048z"/>
			</g>
			<g>
				<path style="fill:#1A1A1A;" d="M68.0798,93.6115l1.4531,0.1797c-0.2295,0.8486-0.6533,1.5078-1.2734,1.9766
					s-1.4111,0.7031-2.375,0.7031c-1.2139,0-2.1758-0.374-2.8867-1.1211s-1.0664-1.7959-1.0664-3.1445
					c0-1.3955,0.3594-2.4795,1.0781-3.25s1.6514-1.1563,2.7969-1.1563c1.1094,0,2.0156,0.3779,2.7188,1.1328
					s1.0547,1.8174,1.0547,3.1875c0,0.083-0.0029,0.208-0.0078,0.375h-6.1875c0.0518,0.9111,0.3096,1.6094,0.7734,2.0938
					s1.042,0.7266,1.7344,0.7266c0.5156,0,0.9561-0.1357,1.3203-0.4063S67.866,94.2052,68.0798,93.6115z M63.4627,91.338h4.6328
					c-0.0625-0.6982-0.2393-1.2217-0.5313-1.5703c-0.4482-0.542-1.0283-0.8125-1.7422-0.8125c-0.6455,0-1.1885,0.2158-1.6289,0.6484
					S63.5095,90.6144,63.4627,91.338z"/>
			</g>
			<g>
				<path style="fill:#1A1A1A;" d="M71.2986,96.2833v-8.2969h1.2656v1.1797c0.6094-0.9111,1.4893-1.3672,2.6406-1.3672
					c0.5,0,0.96,0.0898,1.3789,0.2695s0.7334,0.415,0.9414,0.707s0.3545,0.6377,0.4375,1.0391
					c0.0518,0.2607,0.0781,0.7158,0.0781,1.3672v5.1016h-1.4063v-5.0469c0-0.5732-0.0547-1.001-0.1641-1.2852
					s-0.3037-0.5107-0.582-0.6797s-0.6055-0.2539-0.9805-0.2539c-0.5986,0-1.1162,0.1904-1.5508,0.5703
					s-0.6523,1.1016-0.6523,2.1641v4.5313H71.2986z"/>
			</g>
			<g>
				<path style="fill:#1A1A1A;" d="M80.2048,86.4474v-1.6172h1.4063v1.6172H80.2048z M80.2048,96.2833v-8.2969h1.4063v8.2969
					H80.2048z"/>
			</g>
			<g>
				<path style="fill:#1A1A1A;" d="M83.7361,96.2833v-8.2969h1.2656v1.2578c0.3232-0.5889,0.6211-0.9766,0.8945-1.1641
					s0.5742-0.2813,0.9023-0.2813c0.4736,0,0.9561,0.1514,1.4453,0.4531l-0.4844,1.3047c-0.3438-0.2031-0.6875-0.3047-1.0313-0.3047
					c-0.3076,0-0.583,0.0928-0.8281,0.2773s-0.4189,0.4414-0.5234,0.7695c-0.1563,0.5-0.2344,1.0469-0.2344,1.6406v4.3438H83.7361z"
					/>
			</g>
			<g>
				<path style="fill:#1A1A1A;" d="M29.7127,115.4835v-11.4531h8.2813v1.3516h-6.7656v3.5078h6.3359v1.3438h-6.3359v3.8984h7.0313
					v1.3516H29.7127z"/>
			</g>
			<g>
				<path style="fill:#1A1A1A;" d="M42.4783,115.4835l-3.1563-8.2969h1.4844l1.7813,4.9688
					c0.1924,0.5361,0.3701,1.0938,0.5313,1.6719c0.125-0.4375,0.2998-0.9639,0.5234-1.5781l1.8438-5.0625h1.4453l-3.1406,8.2969
					H42.4783z"/>
			</g>
			<g>
				<path style="fill:#1A1A1A;" d="M53.5877,114.4601c-0.5205,0.4424-1.0225,0.7549-1.5039,0.9375s-0.999,0.2734-1.5508,0.2734
					c-0.9111,0-1.6123-0.2227-2.1016-0.668s-0.7344-1.0146-0.7344-1.707c0-0.4063,0.0928-0.7773,0.2773-1.1133
					s0.4268-0.6055,0.7266-0.8086s0.6367-0.3564,1.0117-0.4609c0.2764-0.0732,0.6924-0.1436,1.25-0.2109
					c1.1357-0.1357,1.9717-0.2969,2.5078-0.4844c0.0049-0.1924,0.0078-0.3154,0.0078-0.3672c0-0.5732-0.1328-0.9766-0.3984-1.2109
					c-0.3594-0.3174-0.8936-0.4766-1.6016-0.4766c-0.6611,0-1.1494,0.1162-1.4648,0.3477s-0.5479,0.6416-0.6992,1.2305
					l-1.375-0.1875c0.125-0.5889,0.3311-1.0635,0.6172-1.4258s0.7002-0.6406,1.2422-0.8359s1.1689-0.293,1.8828-0.293
					c0.708,0,1.2842,0.083,1.7266,0.25s0.7686,0.376,0.9766,0.6289s0.3545,0.5713,0.4375,0.957
					c0.0469,0.2393,0.0703,0.6719,0.0703,1.2969v1.875c0,1.3076,0.0303,2.1338,0.0898,2.4805s0.1787,0.6787,0.3555,0.9961h-1.4688
					C53.7234,115.1915,53.6296,114.8507,53.5877,114.4601z M53.4705,111.3195c-0.5107,0.208-1.2764,0.3857-2.2969,0.5313
					c-0.5781,0.083-0.9873,0.1768-1.2266,0.2813s-0.4248,0.2568-0.5547,0.457s-0.1953,0.4229-0.1953,0.668
					c0,0.375,0.1416,0.6875,0.4258,0.9375s0.6992,0.375,1.2461,0.375c0.542,0,1.0234-0.1182,1.4453-0.3555
					s0.7314-0.5615,0.9297-0.9727c0.1514-0.3174,0.2266-0.7861,0.2266-1.4063V111.3195z"/>
			</g>
			<g>
				<path style="fill:#1A1A1A;" d="M57.0408,115.4835v-11.4531h1.4063v11.4531H57.0408z"/>
			</g>
			<g>
				<path style="fill:#1A1A1A;" d="M66.0642,115.4835v-1.2188c-0.6455,0.9375-1.5234,1.4063-2.6328,1.4063
					c-0.4893,0-0.9463-0.0938-1.3711-0.2813s-0.7393-0.4229-0.9453-0.707s-0.3506-0.6318-0.4336-1.043
					c-0.0576-0.2764-0.0859-0.7139-0.0859-1.3125v-5.1406h1.4063v4.6016c0,0.7344,0.0283,1.2295,0.0859,1.4844
					c0.0889,0.3701,0.2764,0.6602,0.5625,0.8711s0.6406,0.3164,1.0625,0.3164s0.8174-0.1084,1.1875-0.3242
					s0.6318-0.5107,0.7852-0.8828s0.2305-0.9131,0.2305-1.6211v-4.4453h1.4063v8.2969H66.0642z"/>
			</g>
			<g>
				<path style="fill:#1A1A1A;" d="M74.9392,114.4601c-0.5205,0.4424-1.0225,0.7549-1.5039,0.9375s-0.999,0.2734-1.5508,0.2734
					c-0.9111,0-1.6123-0.2227-2.1016-0.668s-0.7344-1.0146-0.7344-1.707c0-0.4063,0.0928-0.7773,0.2773-1.1133
					s0.4268-0.6055,0.7266-0.8086s0.6367-0.3564,1.0117-0.4609c0.2764-0.0732,0.6924-0.1436,1.25-0.2109
					c1.1357-0.1357,1.9717-0.2969,2.5078-0.4844c0.0049-0.1924,0.0078-0.3154,0.0078-0.3672c0-0.5732-0.1328-0.9766-0.3984-1.2109
					c-0.3594-0.3174-0.8936-0.4766-1.6016-0.4766c-0.6611,0-1.1494,0.1162-1.4648,0.3477s-0.5479,0.6416-0.6992,1.2305
					l-1.375-0.1875c0.125-0.5889,0.3311-1.0635,0.6172-1.4258s0.7002-0.6406,1.2422-0.8359s1.1689-0.293,1.8828-0.293
					c0.708,0,1.2842,0.083,1.7266,0.25s0.7686,0.376,0.9766,0.6289s0.3545,0.5713,0.4375,0.957
					c0.0469,0.2393,0.0703,0.6719,0.0703,1.2969v1.875c0,1.3076,0.0303,2.1338,0.0898,2.4805s0.1787,0.6787,0.3555,0.9961h-1.4688
					C75.075,115.1915,74.9812,114.8507,74.9392,114.4601z M74.822,111.3195c-0.5107,0.208-1.2764,0.3857-2.2969,0.5313
					c-0.5781,0.083-0.9873,0.1768-1.2266,0.2813s-0.4248,0.2568-0.5547,0.457s-0.1953,0.4229-0.1953,0.668
					c0,0.375,0.1416,0.6875,0.4258,0.9375s0.6992,0.375,1.2461,0.375c0.542,0,1.0234-0.1182,1.4453-0.3555
					s0.7314-0.5615,0.9297-0.9727c0.1514-0.3174,0.2266-0.7861,0.2266-1.4063V111.3195z"/>
			</g>
			<g>
				<path style="fill:#1A1A1A;" d="M78.408,115.4835v-8.2969h1.2656v1.2578c0.3232-0.5889,0.6211-0.9766,0.8945-1.1641
					s0.5742-0.2813,0.9023-0.2813c0.4736,0,0.9561,0.1514,1.4453,0.4531l-0.4844,1.3047c-0.3438-0.2031-0.6875-0.3047-1.0313-0.3047
					c-0.3076,0-0.583,0.0928-0.8281,0.2773s-0.4189,0.4414-0.5234,0.7695c-0.1563,0.5-0.2344,1.0469-0.2344,1.6406v4.3438H78.408z"
					/>
			</g>
			<g>
				<path style="fill:#1A1A1A;" d="M29.7595,134.6837v-11.4531h7.7266v1.3516h-6.2109v3.5469h5.375v1.3516h-5.375v5.2031H29.7595z"
					/>
			</g>
			<g>
				<path style="fill:#1A1A1A;" d="M44.6892,133.6603c-0.5205,0.4424-1.0225,0.7549-1.5039,0.9375s-0.999,0.2734-1.5508,0.2734
					c-0.9111,0-1.6123-0.2227-2.1016-0.668s-0.7344-1.0146-0.7344-1.707c0-0.4063,0.0928-0.7773,0.2773-1.1133
					s0.4268-0.6055,0.7266-0.8086s0.6367-0.3564,1.0117-0.4609c0.2764-0.0732,0.6924-0.1436,1.25-0.2109
					c1.1357-0.1357,1.9717-0.2969,2.5078-0.4844c0.0049-0.1924,0.0078-0.3154,0.0078-0.3672c0-0.5732-0.1328-0.9766-0.3984-1.2109
					c-0.3594-0.3174-0.8936-0.4766-1.6016-0.4766c-0.6611,0-1.1494,0.1162-1.4648,0.3477s-0.5479,0.6416-0.6992,1.2305
					l-1.375-0.1875c0.125-0.5889,0.3311-1.0635,0.6172-1.4258s0.7002-0.6406,1.2422-0.8359s1.1689-0.293,1.8828-0.293
					c0.708,0,1.2842,0.083,1.7266,0.25s0.7686,0.376,0.9766,0.6289s0.3545,0.5713,0.4375,0.957
					c0.0469,0.2393,0.0703,0.6719,0.0703,1.2969v1.875c0,1.3076,0.0303,2.1338,0.0898,2.4805s0.1787,0.6787,0.3555,0.9961h-1.4688
					C44.825,134.3917,44.7312,134.0509,44.6892,133.6603z M44.572,130.5197c-0.5107,0.208-1.2764,0.3857-2.2969,0.5313
					c-0.5781,0.083-0.9873,0.1768-1.2266,0.2813s-0.4248,0.2568-0.5547,0.457s-0.1953,0.4229-0.1953,0.668
					c0,0.375,0.1416,0.6875,0.4258,0.9375s0.6992,0.375,1.2461,0.375c0.542,0,1.0234-0.1182,1.4453-0.3555
					s0.7314-0.5615,0.9297-0.9727c0.1514-0.3174,0.2266-0.7861,0.2266-1.4063V130.5197z"/>
			</g>
			<g>
				<path style="fill:#1A1A1A;" d="M48.1423,134.6837v-11.4531h1.4063v11.4531H48.1423z"/>
			</g>
			<g>
				<path style="fill:#1A1A1A;" d="M51.697,134.6837v-11.4531h1.4063v11.4531H51.697z"/>
			</g>
			<g>
				<path style="fill:#1A1A1A;" d="M60.697,133.6603c-0.5205,0.4424-1.0225,0.7549-1.5039,0.9375s-0.999,0.2734-1.5508,0.2734
					c-0.9111,0-1.6123-0.2227-2.1016-0.668s-0.7344-1.0146-0.7344-1.707c0-0.4063,0.0928-0.7773,0.2773-1.1133
					s0.4268-0.6055,0.7266-0.8086s0.6367-0.3564,1.0117-0.4609c0.2764-0.0732,0.6924-0.1436,1.25-0.2109
					c1.1357-0.1357,1.9717-0.2969,2.5078-0.4844c0.0049-0.1924,0.0078-0.3154,0.0078-0.3672c0-0.5732-0.1328-0.9766-0.3984-1.2109
					c-0.3594-0.3174-0.8936-0.4766-1.6016-0.4766c-0.6611,0-1.1494,0.1162-1.4648,0.3477s-0.5479,0.6416-0.6992,1.2305
					l-1.375-0.1875c0.125-0.5889,0.3311-1.0635,0.6172-1.4258s0.7002-0.6406,1.2422-0.8359s1.1689-0.293,1.8828-0.293
					c0.708,0,1.2842,0.083,1.7266,0.25s0.7686,0.376,0.9766,0.6289s0.3545,0.5713,0.4375,0.957
					c0.0469,0.2393,0.0703,0.6719,0.0703,1.2969v1.875c0,1.3076,0.0303,2.1338,0.0898,2.4805s0.1787,0.6787,0.3555,0.9961h-1.4688
					C60.8328,134.3917,60.739,134.0509,60.697,133.6603z M60.5798,130.5197c-0.5107,0.208-1.2764,0.3857-2.2969,0.5313
					c-0.5781,0.083-0.9873,0.1768-1.2266,0.2813s-0.4248,0.2568-0.5547,0.457s-0.1953,0.4229-0.1953,0.668
					c0,0.375,0.1416,0.6875,0.4258,0.9375s0.6992,0.375,1.2461,0.375c0.542,0,1.0234-0.1182,1.4453-0.3555
					s0.7314-0.5615,0.9297-0.9727c0.1514-0.3174,0.2266-0.7861,0.2266-1.4063V130.5197z"/>
			</g>
			<g>
				<path style="fill:#1A1A1A;" d="M63.6189,132.2072l1.3906-0.2188c0.0781,0.5576,0.2959,0.9844,0.6523,1.2813
					s0.8555,0.4453,1.4961,0.4453c0.6455,0,1.125-0.1318,1.4375-0.3945s0.4688-0.5713,0.4688-0.9258
					c0-0.3174-0.1377-0.5674-0.4141-0.75c-0.1924-0.125-0.6719-0.2842-1.4375-0.4766c-1.0313-0.2607-1.7461-0.4854-2.1445-0.6758
					s-0.7002-0.4531-0.9063-0.7891s-0.3086-0.707-0.3086-1.1133c0-0.3701,0.085-0.7119,0.2539-1.0273s0.3994-0.5771,0.6914-0.7852
					c0.2188-0.1611,0.5166-0.2979,0.8945-0.4102s0.7822-0.168,1.2148-0.168c0.6514,0,1.2227,0.0938,1.7148,0.2813
					s0.8555,0.4414,1.0898,0.7617s0.3955,0.749,0.4844,1.2852l-1.375,0.1875c-0.0625-0.4268-0.2432-0.7607-0.543-1
					s-0.7227-0.3594-1.2695-0.3594c-0.6455,0-1.1064,0.1064-1.3828,0.3203s-0.4141,0.4639-0.4141,0.75
					c0,0.1826,0.0576,0.3467,0.1719,0.4922c0.1143,0.1514,0.2939,0.2764,0.5391,0.375c0.1406,0.0518,0.5547,0.1719,1.2422,0.3594
					c0.9951,0.2656,1.6885,0.4834,2.082,0.6523s0.7021,0.415,0.9258,0.7383s0.3359,0.7236,0.3359,1.2031
					c0,0.4688-0.1367,0.9102-0.4102,1.3242s-0.668,0.7344-1.1836,0.9609s-1.0986,0.3398-1.75,0.3398
					c-1.0781,0-1.8994-0.2236-2.4648-0.6719S63.7752,133.0871,63.6189,132.2072z"/>
			</g>
		</g>
	</g>
	<g>
		<circle style="fill:#1A1A1A;" cx="20.8122" cy="90.8136" r="2.3017"/>
	</g>
	<g>
		<circle style="fill:#1A1A1A;" cx="20.8122" cy="109.8136" r="2.3017"/>
	</g>
	<g>
		<circle style="fill:#1A1A1A;" cx="20.8122" cy="128.8136" r="2.3017"/>
	</g>
</g>
<g>
	<g>
		<g>
			<path style="fill:#1A1A1A;" d="M219.9109,92.547h4.5781c0.9063,0,1.582,0.0381,2.0273,0.1133s0.8438,0.2334,1.1953,0.4727
				s0.6445,0.5586,0.8789,0.957s0.3516,0.8447,0.3516,1.3398c0,0.5361-0.1445,1.0283-0.4336,1.4766s-0.6807,0.7842-1.1758,1.0078
				c0.6982,0.2031,1.2344,0.5498,1.6094,1.0391s0.5625,1.0654,0.5625,1.7266c0,0.5205-0.1211,1.0273-0.3633,1.5195
				s-0.5732,0.8857-0.9922,1.1797s-0.9365,0.4756-1.5508,0.543c-0.3857,0.042-1.3154,0.0674-2.7891,0.0781h-3.8984V92.547z
				 M222.2234,94.4533v2.6484h1.5156c0.9014,0,1.4609-0.0127,1.6797-0.0391c0.3955-0.0469,0.707-0.1836,0.9336-0.4102
				s0.3398-0.5244,0.3398-0.8945c0-0.3545-0.0977-0.6416-0.293-0.8633s-0.4854-0.3555-0.8711-0.4023
				c-0.2295-0.0264-0.8877-0.0391-1.9766-0.0391H222.2234z M222.2234,99.0079v3.0625h2.1406c0.833,0,1.3623-0.0234,1.5859-0.0703
				c0.3438-0.0625,0.624-0.2148,0.8398-0.457s0.3242-0.5664,0.3242-0.9727c0-0.3438-0.083-0.6357-0.25-0.875
				s-0.4072-0.4141-0.7227-0.5234s-0.999-0.1641-2.0508-0.1641H222.2234z"/>
		</g>
		<g>
			<path style="fill:#1A1A1A;" d="M236.2468,101.3595l2.1875,0.3672c-0.2813,0.8018-0.7256,1.4131-1.332,1.832
				s-1.3662,0.6289-2.2773,0.6289c-1.4424,0-2.5107-0.4717-3.2031-1.4141c-0.5469-0.7549-0.8203-1.708-0.8203-2.8594
				c0-1.375,0.3594-2.4521,1.0781-3.2305s1.6279-1.168,2.7266-1.168c1.2344,0,2.208,0.4072,2.9219,1.2227
				s1.0547,2.0635,1.0234,3.7461h-5.5c0.0156,0.6514,0.1924,1.1572,0.5313,1.5195s0.7607,0.543,1.2656,0.543
				c0.3438,0,0.6328-0.0938,0.8672-0.2813S236.1267,101.7765,236.2468,101.3595z M236.3718,99.1408
				c-0.0156-0.6357-0.1797-1.1182-0.4922-1.4492s-0.6924-0.4961-1.1406-0.4961c-0.4795,0-0.875,0.1748-1.1875,0.5234
				s-0.4658,0.8232-0.4609,1.4219H236.3718z"/>
		</g>
		<g>
			<path style="fill:#1A1A1A;" d="M247.8875,104.0001h-2.1953v-4.2344c0-0.8955-0.0469-1.4756-0.1406-1.7383
				s-0.2461-0.4678-0.457-0.6133s-0.4648-0.2188-0.7617-0.2188c-0.3799,0-0.7217,0.1045-1.0234,0.3125s-0.5088,0.4844-0.6211,0.8281
				s-0.168,0.9795-0.168,1.9063v3.7578h-2.1953v-8.2969h2.0391v1.2188c0.7236-0.9375,1.6357-1.4063,2.7344-1.4063
				c0.4844,0,0.9268,0.0869,1.3281,0.2617s0.7041,0.3975,0.9102,0.668s0.3486,0.5781,0.4297,0.9219s0.1211,0.8359,0.1211,1.4766
				V104.0001z"/>
		</g>
		<g>
			<path style="fill:#1A1A1A;" d="M254.9187,101.3595l2.1875,0.3672c-0.2813,0.8018-0.7256,1.4131-1.332,1.832
				c-0.6064,0.4189-1.3662,0.6289-2.2773,0.6289c-1.4424,0-2.5107-0.4717-3.2031-1.4141c-0.5469-0.7549-0.8203-1.708-0.8203-2.8594
				c0-1.375,0.3594-2.4521,1.0781-3.2305s1.6279-1.168,2.7266-1.168c1.2344,0,2.208,0.4072,2.9219,1.2227
				c0.7139,0.8154,1.0547,2.0635,1.0234,3.7461h-5.5c0.0156,0.6514,0.1924,1.1572,0.5313,1.5195s0.7607,0.543,1.2656,0.543
				c0.3438,0,0.6328-0.0938,0.8672-0.2813S254.7986,101.7765,254.9187,101.3595z M255.0437,99.1408
				c-0.0156-0.6357-0.1797-1.1182-0.4922-1.4492s-0.6924-0.4961-1.1406-0.4961c-0.4795,0-0.875,0.1748-1.1875,0.5234
				s-0.4658,0.8232-0.4609,1.4219H255.0437z"/>
		</g>
		<g>
			<path style="fill:#1A1A1A;" d="M258.0515,95.7033h1.2188v-0.625c0-0.6982,0.0742-1.2188,0.2227-1.5625
				s0.4219-0.624,0.8203-0.8398s0.9023-0.3242,1.5117-0.3242c0.625,0,1.2373,0.0938,1.8359,0.2813l-0.2969,1.5313
				c-0.3486-0.083-0.6846-0.125-1.0078-0.125c-0.3174,0-0.5459,0.0742-0.6836,0.2227s-0.207,0.4336-0.207,0.8555v0.5859h1.6406
				v1.7266h-1.6406v6.5703h-2.1953v-6.5703h-1.2188V95.7033z"/>
		</g>
		<g>
			<path style="fill:#1A1A1A;" d="M264.3406,94.5783V92.547h2.1953v2.0313H264.3406z M264.3406,104.0001v-8.2969h2.1953v8.2969
				H264.3406z"/>
		</g>
		<g>
			<path style="fill:#1A1A1A;" d="M276.0203,98.1564l-2.1641,0.3906c-0.0732-0.4326-0.2383-0.7578-0.4961-0.9766
				s-0.5928-0.3281-1.0039-0.3281c-0.5469,0-0.9834,0.1885-1.3086,0.5664s-0.4883,1.0088-0.4883,1.8945
				c0,0.9844,0.165,1.6797,0.4961,2.0859s0.7744,0.6094,1.332,0.6094c0.417,0,0.7578-0.1182,1.0234-0.3555
				s0.4531-0.6445,0.5625-1.2227l2.1563,0.3672c-0.2236,0.9893-0.6533,1.7373-1.2891,2.2422s-1.4873,0.7578-2.5547,0.7578
				c-1.2139,0-2.1807-0.3828-2.9023-1.1484s-1.082-1.8252-1.082-3.1797c0-1.3701,0.3623-2.4365,1.0859-3.1992
				s1.7031-1.1445,2.9375-1.1445c1.0107,0,1.8135,0.2178,2.4102,0.6523S275.7595,97.2658,276.0203,98.1564z"/>
		</g>
		<g>
			<path style="fill:#1A1A1A;" d="M277.6843,94.5783V92.547h2.1953v2.0313H277.6843z M277.6843,104.0001v-8.2969h2.1953v8.2969
				H277.6843z"/>
		</g>
		<g>
			<path style="fill:#1A1A1A;" d="M281.6218,99.7345c0-0.7295,0.1797-1.4346,0.5391-2.1172s0.8682-1.2031,1.5273-1.5625
				s1.3945-0.5391,2.207-0.5391c1.2549,0,2.2842,0.4072,3.0859,1.2227s1.2031,1.8447,1.2031,3.0898
				c0,1.2549-0.4053,2.2959-1.2148,3.1211s-1.8291,1.2383-3.0586,1.2383c-0.7607,0-1.4854-0.1719-2.1758-0.5156
				s-1.2148-0.8477-1.5742-1.5117S281.6218,100.6876,281.6218,99.7345z M283.8718,99.8517c0,0.8232,0.1953,1.4531,0.5859,1.8906
				s0.8721,0.6563,1.4453,0.6563s1.0537-0.2188,1.4414-0.6563s0.582-1.0732,0.582-1.9063c0-0.8125-0.1943-1.4375-0.582-1.875
				s-0.8682-0.6563-1.4414-0.6563s-1.0547,0.2188-1.4453,0.6563S283.8718,99.0285,283.8718,99.8517z"/>
		</g>
		<g>
			<path style="fill:#1A1A1A;" d="M291.1296,101.6329l2.2031-0.3359c0.0938,0.4268,0.2842,0.751,0.5703,0.9727
				s0.6875,0.332,1.2031,0.332c0.5674,0,0.9951-0.1045,1.2813-0.3125c0.1924-0.1455,0.2891-0.3408,0.2891-0.5859
				c0-0.167-0.0518-0.3047-0.1563-0.4141c-0.1094-0.1045-0.3545-0.2002-0.7344-0.2891c-1.7705-0.3906-2.8936-0.7471-3.3672-1.0703
				c-0.6563-0.4482-0.9844-1.0703-0.9844-1.8672c0-0.7188,0.2842-1.3232,0.8516-1.8125s1.4482-0.7344,2.6406-0.7344
				c1.1357,0,1.9795,0.1846,2.5313,0.5547s0.9326,0.917,1.1406,1.6406l-2.0703,0.3828c-0.0889-0.3232-0.2568-0.5703-0.5039-0.7422
				s-0.6006-0.2578-1.0586-0.2578c-0.5781,0-0.9922,0.0811-1.2422,0.2422c-0.167,0.1143-0.25,0.2627-0.25,0.4453
				c0,0.1563,0.0732,0.2891,0.2188,0.3984c0.1982,0.1455,0.8818,0.3516,2.0508,0.6172s1.9854,0.5908,2.4492,0.9766
				c0.458,0.3906,0.6875,0.9346,0.6875,1.6328c0,0.7607-0.3174,1.4141-0.9531,1.9609s-1.5752,0.8203-2.8203,0.8203
				c-1.1299,0-2.0244-0.2295-2.6836-0.6875S291.3328,102.4191,291.1296,101.6329z"/>
		</g>
	</g>
	<g>
		<g>
			<g>
				<path style="fill:#1A1A1A;" d="M220.7048,124.7833v-11.4531h5.0781c1.0205,0,1.7969,0.1025,2.3281,0.3086
					s0.9561,0.5693,1.2734,1.0898s0.4766,1.0967,0.4766,1.7266c0,0.8125-0.2627,1.4971-0.7891,2.0547s-1.3389,0.9111-2.4375,1.0625
					c0.4014,0.1924,0.7061,0.3828,0.9141,0.5703c0.4424,0.4063,0.8623,0.9141,1.2578,1.5234l1.9922,3.1172h-1.9063l-1.5156-2.3828
					c-0.4424-0.6875-0.8076-1.2139-1.0938-1.5781s-0.543-0.6201-0.7695-0.7656s-0.457-0.2471-0.6914-0.3047
					c-0.1719-0.0361-0.4531-0.0547-0.8438-0.0547h-1.7578v5.0859H220.7048z M222.2205,118.3849h3.2578
					c0.6924,0,1.2344-0.0713,1.625-0.2148s0.6875-0.3721,0.8906-0.6875s0.3047-0.6572,0.3047-1.0273
					c0-0.542-0.1963-0.9873-0.5898-1.3359s-1.0146-0.5234-1.8633-0.5234h-3.625V118.3849z"/>
			</g>
			<g>
				<path style="fill:#1A1A1A;" d="M237.7361,122.1115l1.4531,0.1797c-0.2295,0.8486-0.6533,1.5078-1.2734,1.9766
					s-1.4111,0.7031-2.375,0.7031c-1.2139,0-2.1758-0.374-2.8867-1.1211s-1.0664-1.7959-1.0664-3.1445
					c0-1.3955,0.3594-2.4795,1.0781-3.25s1.6514-1.1563,2.7969-1.1563c1.1094,0,2.0156,0.3779,2.7188,1.1328
					s1.0547,1.8174,1.0547,3.1875c0,0.083-0.0029,0.208-0.0078,0.375h-6.1875c0.0518,0.9111,0.3096,1.6094,0.7734,2.0938
					s1.042,0.7266,1.7344,0.7266c0.5156,0,0.9561-0.1357,1.3203-0.4063S237.5222,122.7052,237.7361,122.1115z M233.1189,119.838
					h4.6328c-0.0625-0.6982-0.2393-1.2217-0.5313-1.5703c-0.4482-0.542-1.0283-0.8125-1.7422-0.8125
					c-0.6455,0-1.1885,0.2158-1.6289,0.6484S233.1658,119.1144,233.1189,119.838z"/>
			</g>
			<g>
				<path style="fill:#1A1A1A;" d="M244.8533,121.3458v-1.4141h4.3203v1.4141H244.8533z"/>
			</g>
			<g>
				<path style="fill:#1A1A1A;" d="M255.1736,127.963v-11.4766h1.2812v1.0781c0.3018-0.4219,0.6436-0.7383,1.0234-0.9492
					s0.8408-0.3164,1.3828-0.3164c0.708,0,1.333,0.1826,1.875,0.5469s0.9502,0.8789,1.2266,1.543s0.4141,1.3916,0.4141,2.1836
					c0,0.8486-0.1523,1.6133-0.457,2.293s-0.7471,1.2002-1.3281,1.5625s-1.1914,0.543-1.832,0.543
					c-0.4688,0-0.8896-0.0986-1.2617-0.2969s-0.6787-0.4482-0.918-0.75v4.0391H255.1736z M256.447,120.6818
					c0,1.0674,0.2158,1.8564,0.6484,2.3672s0.9561,0.7656,1.5703,0.7656c0.625,0,1.1602-0.2646,1.6055-0.793
					s0.668-1.3477,0.668-2.457c0-1.0576-0.2178-1.8486-0.6523-2.375s-0.9541-0.7891-1.5586-0.7891
					c-0.5986,0-1.1289,0.2803-1.5898,0.8398S256.447,119.6144,256.447,120.6818z"/>
			</g>
			<g>
				<path style="fill:#1A1A1A;" d="M264.0564,124.7833v-8.2969h1.2656v1.2578c0.3232-0.5889,0.6211-0.9766,0.8945-1.1641
					s0.5742-0.2813,0.9023-0.2813c0.4736,0,0.9561,0.1514,1.4453,0.4531l-0.4844,1.3047c-0.3438-0.2031-0.6875-0.3047-1.0313-0.3047
					c-0.3076,0-0.583,0.0928-0.8281,0.2773s-0.4189,0.4414-0.5234,0.7695c-0.1563,0.5-0.2344,1.0469-0.2344,1.6406v4.3438H264.0564z
					"/>
			</g>
			<g>
				<path style="fill:#1A1A1A;" d="M268.8767,120.6349c0-1.5361,0.4268-2.6748,1.2813-3.4141
					c0.7139-0.6143,1.583-0.9219,2.6094-0.9219c1.1406,0,2.0732,0.374,2.7969,1.1211s1.0859,1.7803,1.0859,3.0977
					c0,1.0674-0.1602,1.9072-0.4805,2.5195s-0.7861,1.0869-1.3984,1.4258s-1.2803,0.5078-2.0039,0.5078
					c-1.1611,0-2.1006-0.3721-2.8164-1.1172S268.8767,122.0363,268.8767,120.6349z M270.322,120.6349
					c0,1.0625,0.2314,1.8584,0.6953,2.3867s1.0469,0.793,1.75,0.793c0.6982,0,1.2783-0.2656,1.7422-0.7969
					s0.6953-1.3408,0.6953-2.4297c0-1.0264-0.2334-1.8037-0.6992-2.332s-1.0459-0.793-1.7383-0.793
					c-0.7031,0-1.2861,0.2627-1.75,0.7891S270.322,119.5724,270.322,120.6349z"/>
			</g>
			<g>
				<path style="fill:#1A1A1A;" d="M283.7126,121.7443l1.3828,0.1797c-0.1514,0.9531-0.5381,1.6992-1.1602,2.2383
					s-1.3867,0.8086-2.293,0.8086c-1.1357,0-2.0479-0.3711-2.7383-1.1133s-1.0352-1.8057-1.0352-3.1914
					c0-0.8955,0.1484-1.6797,0.4453-2.3516s0.749-1.1758,1.3555-1.5117s1.2666-0.5039,1.9805-0.5039
					c0.9014,0,1.6377,0.2275,2.2109,0.6836s0.9404,1.1025,1.1016,1.9414l-1.3672,0.2109c-0.1299-0.5576-0.3604-0.9766-0.6914-1.2578
					s-0.7305-0.4219-1.1992-0.4219c-0.708,0-1.2842,0.2539-1.7266,0.7617s-0.6641,1.3115-0.6641,2.4102
					c0,1.1143,0.2139,1.9248,0.6406,2.4297s0.9844,0.7578,1.6719,0.7578c0.5518,0,1.0127-0.1689,1.3828-0.5078
					S283.614,122.4474,283.7126,121.7443z"/>
			</g>
			<g>
				<path style="fill:#1A1A1A;" d="M291.9783,122.1115l1.4531,0.1797c-0.2295,0.8486-0.6533,1.5078-1.2734,1.9766
					s-1.4111,0.7031-2.375,0.7031c-1.2139,0-2.1758-0.374-2.8867-1.1211s-1.0664-1.7959-1.0664-3.1445
					c0-1.3955,0.3594-2.4795,1.0781-3.25s1.6514-1.1563,2.7969-1.1563c1.1094,0,2.0156,0.3779,2.7188,1.1328
					s1.0547,1.8174,1.0547,3.1875c0,0.083-0.0029,0.208-0.0078,0.375h-6.1875c0.0518,0.9111,0.3096,1.6094,0.7734,2.0938
					s1.042,0.7266,1.7344,0.7266c0.5156,0,0.9561-0.1357,1.3203-0.4063S291.7644,122.7052,291.9783,122.1115z M287.3611,119.838
					h4.6328c-0.0625-0.6982-0.2393-1.2217-0.5313-1.5703c-0.4482-0.542-1.0283-0.8125-1.7422-0.8125
					c-0.6455,0-1.1885,0.2158-1.6289,0.6484S287.408,119.1144,287.3611,119.838z"/>
			</g>
			<g>
				<path style="fill:#1A1A1A;" d="M294.6345,122.3068l1.3906-0.2188c0.0781,0.5576,0.2959,0.9844,0.6523,1.2813
					s0.8555,0.4453,1.4961,0.4453c0.6455,0,1.125-0.1318,1.4375-0.3945s0.4688-0.5713,0.4688-0.9258
					c0-0.3174-0.1377-0.5674-0.4141-0.75c-0.1924-0.125-0.6719-0.2842-1.4375-0.4766c-1.0313-0.2607-1.7461-0.4854-2.1445-0.6758
					s-0.7002-0.4531-0.9063-0.7891s-0.3086-0.707-0.3086-1.1133c0-0.3701,0.085-0.7119,0.2539-1.0273s0.3994-0.5771,0.6914-0.7852
					c0.2188-0.1611,0.5166-0.2979,0.8945-0.4102s0.7822-0.168,1.2148-0.168c0.6514,0,1.2227,0.0938,1.7148,0.2813
					s0.8555,0.4414,1.0898,0.7617s0.3955,0.749,0.4844,1.2852l-1.375,0.1875c-0.0625-0.4268-0.2432-0.7607-0.543-1
					s-0.7227-0.3594-1.2695-0.3594c-0.6455,0-1.1064,0.1064-1.3828,0.3203s-0.4141,0.4639-0.4141,0.75
					c0,0.1826,0.0576,0.3467,0.1719,0.4922c0.1143,0.1514,0.2939,0.2764,0.5391,0.375c0.1406,0.0518,0.5547,0.1719,1.2422,0.3594
					c0.9951,0.2656,1.6885,0.4834,2.082,0.6523s0.7021,0.415,0.9258,0.7383s0.3359,0.7236,0.3359,1.2031
					c0,0.4688-0.1367,0.9102-0.4102,1.3242s-0.668,0.7344-1.1836,0.9609s-1.0986,0.3398-1.75,0.3398
					c-1.0781,0-1.8994-0.2236-2.4648-0.6719S294.7908,123.1867,294.6345,122.3068z"/>
			</g>
			<g>
				<path style="fill:#1A1A1A;" d="M302.6736,120.6349c0-1.5361,0.4268-2.6748,1.2813-3.4141
					c0.7139-0.6143,1.583-0.9219,2.6094-0.9219c1.1406,0,2.0732,0.374,2.7969,1.1211s1.0859,1.7803,1.0859,3.0977
					c0,1.0674-0.1602,1.9072-0.4805,2.5195s-0.7861,1.0869-1.3984,1.4258s-1.2803,0.5078-2.0039,0.5078
					c-1.1611,0-2.1006-0.3721-2.8164-1.1172S302.6736,122.0363,302.6736,120.6349z M304.1189,120.6349
					c0,1.0625,0.2314,1.8584,0.6953,2.3867s1.0469,0.793,1.75,0.793c0.6982,0,1.2783-0.2656,1.7422-0.7969
					s0.6953-1.3408,0.6953-2.4297c0-1.0264-0.2334-1.8037-0.6992-2.332s-1.0459-0.793-1.7383-0.793
					c-0.7031,0-1.2861,0.2627-1.75,0.7891S304.1189,119.5724,304.1189,120.6349z"/>
			</g>
			<g>
				<path style="fill:#1A1A1A;" d="M311.533,122.3068l1.3906-0.2188c0.0781,0.5576,0.2959,0.9844,0.6523,1.2813
					s0.8555,0.4453,1.4961,0.4453c0.6455,0,1.125-0.1318,1.4375-0.3945s0.4688-0.5713,0.4688-0.9258
					c0-0.3174-0.1377-0.5674-0.4141-0.75c-0.1924-0.125-0.6719-0.2842-1.4375-0.4766c-1.0313-0.2607-1.7461-0.4854-2.1445-0.6758
					s-0.7002-0.4531-0.9063-0.7891s-0.3086-0.707-0.3086-1.1133c0-0.3701,0.085-0.7119,0.2539-1.0273s0.3994-0.5771,0.6914-0.7852
					c0.2188-0.1611,0.5166-0.2979,0.8945-0.4102s0.7822-0.168,1.2148-0.168c0.6514,0,1.2227,0.0938,1.7148,0.2813
					s0.8555,0.4414,1.0898,0.7617s0.3955,0.749,0.4844,1.2852l-1.375,0.1875c-0.0625-0.4268-0.2432-0.7607-0.543-1
					s-0.7227-0.3594-1.2695-0.3594c-0.6455,0-1.1064,0.1064-1.3828,0.3203s-0.4141,0.4639-0.4141,0.75
					c0,0.1826,0.0576,0.3467,0.1719,0.4922c0.1143,0.1514,0.2939,0.2764,0.5391,0.375c0.1406,0.0518,0.5547,0.1719,1.2422,0.3594
					c0.9951,0.2656,1.6885,0.4834,2.082,0.6523s0.7021,0.415,0.9258,0.7383s0.3359,0.7236,0.3359,1.2031
					c0,0.4688-0.1367,0.9102-0.4102,1.3242s-0.668,0.7344-1.1836,0.9609s-1.0986,0.3398-1.75,0.3398
					c-1.0781,0-1.8994-0.2236-2.4648-0.6719S311.6892,123.1867,311.533,122.3068z"/>
			</g>
			<g>
				<path style="fill:#1A1A1A;" d="M220.6814,143.9835v-11.4531h3.9453c0.8906,0,1.5703,0.0547,2.0391,0.1641
					c0.6563,0.1514,1.2158,0.4248,1.6797,0.8203c0.6045,0.5107,1.0557,1.1631,1.3555,1.957s0.4492,1.7021,0.4492,2.7227
					c0,0.8701-0.1016,1.6406-0.3047,2.3125s-0.4639,1.2275-0.7813,1.668s-0.665,0.7861-1.043,1.0391s-0.833,0.4443-1.3672,0.5742
					s-1.1475,0.1953-1.8398,0.1953H220.6814z M222.197,142.632h2.4453c0.7549,0,1.3477-0.0703,1.7773-0.2109
					s0.7725-0.3389,1.0273-0.5938c0.3594-0.3594,0.6396-0.8428,0.8398-1.4492s0.3008-1.3428,0.3008-2.207
					c0-1.1982-0.1963-2.1182-0.5898-2.7617s-0.8711-1.0742-1.4336-1.293c-0.4063-0.1563-1.0596-0.2344-1.9609-0.2344h-2.4063
					V142.632z"/>
			</g>
			<g>
				<path style="fill:#1A1A1A;" d="M237.7361,141.3117l1.4531,0.1797c-0.2295,0.8486-0.6533,1.5078-1.2734,1.9766
					s-1.4111,0.7031-2.375,0.7031c-1.2139,0-2.1758-0.374-2.8867-1.1211s-1.0664-1.7959-1.0664-3.1445
					c0-1.3955,0.3594-2.4795,1.0781-3.25s1.6514-1.1563,2.7969-1.1563c1.1094,0,2.0156,0.3779,2.7188,1.1328
					s1.0547,1.8174,1.0547,3.1875c0,0.083-0.0029,0.208-0.0078,0.375h-6.1875c0.0518,0.9111,0.3096,1.6094,0.7734,2.0938
					s1.042,0.7266,1.7344,0.7266c0.5156,0,0.9561-0.1357,1.3203-0.4063S237.5222,141.9054,237.7361,141.3117z M233.1189,139.0382
					h4.6328c-0.0625-0.6982-0.2393-1.2217-0.5313-1.5703c-0.4482-0.542-1.0283-0.8125-1.7422-0.8125
					c-0.6455,0-1.1885,0.2158-1.6289,0.6484S233.1658,138.3146,233.1189,139.0382z"/>
			</g>
			<g>
				<path style="fill:#1A1A1A;" d="M241.2908,143.9835v-7.2031h-1.2422v-1.0938h1.2422v-0.8828
					c0-0.5576,0.0498-0.9717,0.1484-1.2422c0.1357-0.3643,0.374-0.6602,0.7148-0.8867s0.8193-0.3398,1.4336-0.3398
					c0.3955,0,0.833,0.0469,1.3125,0.1406l-0.2109,1.2266c-0.292-0.0518-0.5674-0.0781-0.8281-0.0781
					c-0.4268,0-0.7295,0.0908-0.9063,0.2734s-0.2656,0.5234-0.2656,1.0234v0.7656h1.6172v1.0938h-1.6172v7.2031H241.2908z"/>
			</g>
			<g>
				<path style="fill:#1A1A1A;" d="M251.0798,141.3117l1.4531,0.1797c-0.2295,0.8486-0.6533,1.5078-1.2734,1.9766
					s-1.4111,0.7031-2.375,0.7031c-1.2139,0-2.1758-0.374-2.8867-1.1211s-1.0664-1.7959-1.0664-3.1445
					c0-1.3955,0.3594-2.4795,1.0781-3.25s1.6514-1.1563,2.7969-1.1563c1.1094,0,2.0156,0.3779,2.7188,1.1328
					s1.0547,1.8174,1.0547,3.1875c0,0.083-0.0029,0.208-0.0078,0.375h-6.1875c0.0518,0.9111,0.3096,1.6094,0.7734,2.0938
					s1.042,0.7266,1.7344,0.7266c0.5156,0,0.9561-0.1357,1.3203-0.4063S250.866,141.9054,251.0798,141.3117z M246.4627,139.0382
					h4.6328c-0.0625-0.6982-0.2393-1.2217-0.5313-1.5703c-0.4482-0.542-1.0283-0.8125-1.7422-0.8125
					c-0.6455,0-1.1885,0.2158-1.6289,0.6484S246.5095,138.3146,246.4627,139.0382z"/>
			</g>
			<g>
				<path style="fill:#1A1A1A;" d="M259.7126,140.9445l1.3828,0.1797c-0.1514,0.9531-0.5381,1.6992-1.1602,2.2383
					s-1.3867,0.8086-2.293,0.8086c-1.1357,0-2.0478-0.3711-2.7383-1.1133s-1.0352-1.8057-1.0352-3.1914
					c0-0.8955,0.1484-1.6797,0.4453-2.3516s0.749-1.1758,1.3555-1.5117c0.6064-0.3359,1.2666-0.5039,1.9805-0.5039
					c0.9014,0,1.6377,0.2275,2.2109,0.6836s0.9404,1.1025,1.1016,1.9414l-1.3672,0.2109c-0.1299-0.5576-0.3604-0.9766-0.6914-1.2578
					s-0.7305-0.4219-1.1992-0.4219c-0.708,0-1.2842,0.2539-1.7265,0.7617c-0.4424,0.5078-0.6641,1.3115-0.6641,2.4102
					c0,1.1143,0.2139,1.9248,0.6406,2.4297c0.4267,0.5049,0.9844,0.7578,1.6719,0.7578c0.5518,0,1.0127-0.1689,1.3828-0.5078
					S259.614,141.6476,259.7126,140.9445z"/>
			</g>
			<g>
				<path style="fill:#1A1A1A;" d="M265.3689,142.7257l0.2031,1.2422c-0.3955,0.083-0.75,0.125-1.0625,0.125
					c-0.5107,0-0.9063-0.0811-1.1875-0.2422s-0.4795-0.374-0.5938-0.6367s-0.1719-0.8164-0.1719-1.6602v-4.7734h-1.0313v-1.0938
					h1.0313v-2.0547l1.3984-0.8438v2.8984h1.4141v1.0938h-1.4141v4.8516c0,0.4014,0.0244,0.6592,0.0742,0.7734
					s0.1299,0.2061,0.2422,0.2734s0.2725,0.1016,0.4805,0.1016C264.908,142.7804,265.114,142.7619,265.3689,142.7257z"/>
			</g>
			<g>
				<path style="fill:#1A1A1A;" d="M266.2205,139.8351c0-1.5361,0.4268-2.6748,1.2813-3.4141
					c0.7139-0.6143,1.583-0.9219,2.6094-0.9219c1.1406,0,2.0732,0.374,2.7969,1.1211s1.0859,1.7803,1.0859,3.0977
					c0,1.0674-0.1602,1.9072-0.4805,2.5195s-0.7861,1.0869-1.3984,1.4258s-1.2803,0.5078-2.0039,0.5078
					c-1.1611,0-2.1006-0.3721-2.8164-1.1172S266.2205,141.2365,266.2205,139.8351z M267.6658,139.8351
					c0,1.0625,0.2314,1.8584,0.6953,2.3867s1.0469,0.793,1.75,0.793c0.6982,0,1.2783-0.2656,1.7422-0.7969
					s0.6953-1.3408,0.6953-2.4297c0-1.0264-0.2334-1.8037-0.6992-2.332s-1.0459-0.793-1.7383-0.793
					c-0.7031,0-1.2861,0.2627-1.75,0.7891S267.6658,138.7726,267.6658,139.8351z"/>
			</g>
			<g>
				<path style="fill:#1A1A1A;" d="M275.0798,141.507l1.3906-0.2188c0.0781,0.5576,0.2959,0.9844,0.6523,1.2813
					s0.8555,0.4453,1.4961,0.4453c0.6455,0,1.125-0.1318,1.4375-0.3945s0.4688-0.5713,0.4688-0.9258
					c0-0.3174-0.1377-0.5674-0.4141-0.75c-0.1924-0.125-0.6719-0.2842-1.4375-0.4766c-1.0313-0.2607-1.7461-0.4854-2.1445-0.6758
					s-0.7002-0.4531-0.9063-0.7891s-0.3086-0.707-0.3086-1.1133c0-0.3701,0.085-0.7119,0.2539-1.0273s0.3994-0.5771,0.6914-0.7852
					c0.2188-0.1611,0.5166-0.2979,0.8945-0.4102s0.7822-0.168,1.2148-0.168c0.6514,0,1.2227,0.0938,1.7148,0.2813
					s0.8555,0.4414,1.0898,0.7617s0.3955,0.749,0.4844,1.2852l-1.375,0.1875c-0.0625-0.4268-0.2432-0.7607-0.543-1
					s-0.7227-0.3594-1.2695-0.3594c-0.6455,0-1.1064,0.1064-1.3828,0.3203s-0.4141,0.4639-0.4141,0.75
					c0,0.1826,0.0576,0.3467,0.1719,0.4922c0.1143,0.1514,0.2939,0.2764,0.5391,0.375c0.1406,0.0518,0.5547,0.1719,1.2422,0.3594
					c0.9951,0.2656,1.6885,0.4834,2.082,0.6523s0.7021,0.415,0.9258,0.7383s0.3359,0.7236,0.3359,1.2031
					c0,0.4688-0.1367,0.9102-0.4102,1.3242s-0.668,0.7344-1.1836,0.9609s-1.0986,0.3398-1.75,0.3398
					c-1.0781,0-1.8994-0.2236-2.4648-0.6719S275.2361,142.3869,275.0798,141.507z"/>
			</g>
			<g>
				<path style="fill:#1A1A1A;" d="M220.6814,163.1837v-11.4531h4.3203c0.7607,0,1.3408,0.0361,1.7422,0.1094
					c0.5625,0.0938,1.0342,0.2725,1.4141,0.5352s0.6865,0.6318,0.918,1.1055s0.3477,0.9951,0.3477,1.5625
					c0,0.9736-0.3096,1.7979-0.9297,2.4727s-1.7393,1.0117-3.3594,1.0117h-2.9375v4.6563H220.6814z M222.197,157.1759h2.9609
					c0.9795,0,1.6748-0.1826,2.0859-0.5469s0.6172-0.8779,0.6172-1.5391c0-0.4795-0.1211-0.8896-0.3633-1.2305
					s-0.5615-0.5664-0.957-0.6758c-0.2549-0.0674-0.7266-0.1016-1.4141-0.1016h-2.9297V157.1759z"/>
			</g>
			<g>
				<path style="fill:#1A1A1A;" d="M231.158,163.1837v-8.2969h1.2656v1.2578c0.3232-0.5889,0.6211-0.9766,0.8945-1.1641
					s0.5742-0.2813,0.9023-0.2813c0.4736,0,0.9561,0.1514,1.4453,0.4531l-0.4844,1.3047c-0.3438-0.2031-0.6875-0.3047-1.0313-0.3047
					c-0.3076,0-0.583,0.0928-0.8281,0.2773s-0.4189,0.4414-0.5234,0.7695c-0.1563,0.5-0.2344,1.0469-0.2344,1.6406v4.3438H231.158z"
					/>
			</g>
			<g>
				<path style="fill:#1A1A1A;" d="M235.9783,159.0353c0-1.5361,0.4268-2.6748,1.2813-3.4141
					c0.7139-0.6143,1.583-0.9219,2.6094-0.9219c1.1406,0,2.0732,0.374,2.7969,1.1211s1.0859,1.7803,1.0859,3.0977
					c0,1.0674-0.1602,1.9072-0.4805,2.5195s-0.7861,1.0869-1.3984,1.4258s-1.2803,0.5078-2.0039,0.5078
					c-1.1611,0-2.1006-0.3721-2.8164-1.1172S235.9783,160.4367,235.9783,159.0353z M237.4236,159.0353
					c0,1.0625,0.2314,1.8584,0.6953,2.3867s1.0469,0.793,1.75,0.793c0.6982,0,1.2783-0.2656,1.7422-0.7969
					s0.6953-1.3408,0.6953-2.4297c0-1.0264-0.2334-1.8037-0.6992-2.332s-1.0459-0.793-1.7383-0.793
					c-0.7031,0-1.2861,0.2627-1.75,0.7891S237.4236,157.9728,237.4236,159.0353z"/>
			</g>
			<g>
				<path style="fill:#1A1A1A;" d="M250.783,163.1837v-1.0469c-0.5264,0.8232-1.2998,1.2344-2.3203,1.2344
					c-0.6611,0-1.2695-0.1826-1.8242-0.5469s-0.9844-0.874-1.2891-1.5273s-0.457-1.4053-0.457-2.2539
					c0-0.8281,0.1377-1.5791,0.4141-2.2539s0.6904-1.1914,1.2422-1.5508s1.1689-0.5391,1.8516-0.5391
					c0.5,0,0.9453,0.1055,1.3359,0.3164s0.708,0.4854,0.9531,0.8242v-4.1094h1.3984v11.4531H250.783z M246.3377,159.0431
					c0,1.0625,0.2236,1.8564,0.6719,2.3828s0.9766,0.7891,1.5859,0.7891c0.6143,0,1.1367-0.251,1.5664-0.7539
					s0.6445-1.2695,0.6445-2.3008c0-1.1357-0.2188-1.9688-0.6563-2.5s-0.9766-0.7969-1.6172-0.7969
					c-0.625,0-1.1475,0.2549-1.5664,0.7656S246.3377,157.9445,246.3377,159.0431z"/>
			</g>
			<g>
				<path style="fill:#1A1A1A;" d="M259.7361,163.1837v-1.2188c-0.6455,0.9375-1.5234,1.4063-2.6328,1.4063
					c-0.4893,0-0.9463-0.0938-1.3711-0.2813c-0.4248-0.1875-0.7393-0.4229-0.9453-0.707s-0.3506-0.6318-0.4336-1.043
					c-0.0576-0.2764-0.0859-0.7139-0.0859-1.3125v-5.1406h1.4063v4.6016c0,0.7344,0.0283,1.2295,0.0859,1.4844
					c0.0889,0.3701,0.2764,0.6602,0.5625,0.8711s0.6406,0.3164,1.0625,0.3164s0.8174-0.1084,1.1875-0.3242
					s0.6318-0.5107,0.7852-0.8828s0.2305-0.9131,0.2305-1.6211v-4.4453h1.4063v8.2969H259.7361z"/>
			</g>
			<g>
				<path style="fill:#1A1A1A;" d="M268.6111,160.1447l1.3828,0.1797c-0.1514,0.9531-0.5381,1.6992-1.1602,2.2383
					s-1.3867,0.8086-2.293,0.8086c-1.1357,0-2.0479-0.3711-2.7383-1.1133s-1.0352-1.8057-1.0352-3.1914
					c0-0.8955,0.1484-1.6797,0.4453-2.3516s0.749-1.1758,1.3555-1.5117s1.2666-0.5039,1.9805-0.5039
					c0.9014,0,1.6377,0.2275,2.2109,0.6836s0.9404,1.1025,1.1016,1.9414l-1.3672,0.2109c-0.1299-0.5576-0.3604-0.9766-0.6914-1.2578
					s-0.7305-0.4219-1.1992-0.4219c-0.708,0-1.2842,0.2539-1.7266,0.7617s-0.6641,1.3115-0.6641,2.4102
					c0,1.1143,0.2139,1.9248,0.6406,2.4297s0.9844,0.7578,1.6719,0.7578c0.5518,0,1.0127-0.1689,1.3828-0.5078
					S268.5125,160.8478,268.6111,160.1447z"/>
			</g>
			<g>
				<path style="fill:#1A1A1A;" d="M274.2673,161.9259l0.2031,1.2422c-0.3955,0.083-0.75,0.125-1.0625,0.125
					c-0.5107,0-0.9063-0.0811-1.1875-0.2422s-0.4795-0.374-0.5938-0.6367s-0.1719-0.8164-0.1719-1.6602v-4.7734h-1.0313v-1.0938
					h1.0313v-2.0547l1.3984-0.8438v2.8984h1.4141v1.0938h-1.4141v4.8516c0,0.4014,0.0244,0.6592,0.0742,0.7734
					s0.1299,0.2061,0.2422,0.2734s0.2725,0.1016,0.4805,0.1016C273.8064,161.9806,274.0125,161.9621,274.2673,161.9259z"/>
			</g>
			<g>
				<path style="fill:#1A1A1A;" d="M275.6501,153.3478v-1.6172h1.4063v1.6172H275.6501z M275.6501,163.1837v-8.2969h1.4063v8.2969
					H275.6501z"/>
			</g>
			<g>
				<path style="fill:#1A1A1A;" d="M281.5017,163.1837l-3.1563-8.2969h1.4844l1.7813,4.9688
					c0.1924,0.5361,0.3701,1.0938,0.5313,1.6719c0.125-0.4375,0.2998-0.9639,0.5234-1.5781l1.8438-5.0625h1.4453l-3.1406,8.2969
					H281.5017z"/>
			</g>
			<g>
				<path style="fill:#1A1A1A;" d="M287.2048,153.3478v-1.6172h1.4063v1.6172H287.2048z M287.2048,163.1837v-8.2969h1.4063v8.2969
					H287.2048z"/>
			</g>
			<g>
				<path style="fill:#1A1A1A;" d="M296.1345,163.1837v-1.0469c-0.5264,0.8232-1.2998,1.2344-2.3203,1.2344
					c-0.6611,0-1.2695-0.1826-1.8242-0.5469s-0.9844-0.874-1.2891-1.5273s-0.457-1.4053-0.457-2.2539
					c0-0.8281,0.1377-1.5791,0.4141-2.2539s0.6904-1.1914,1.2422-1.5508s1.1689-0.5391,1.8516-0.5391
					c0.5,0,0.9453,0.1055,1.3359,0.3164s0.708,0.4854,0.9531,0.8242v-4.1094h1.3984v11.4531H296.1345z M291.6892,159.0431
					c0,1.0625,0.2236,1.8564,0.6719,2.3828s0.9766,0.7891,1.5859,0.7891c0.6143,0,1.1367-0.251,1.5664-0.7539
					s0.6445-1.2695,0.6445-2.3008c0-1.1357-0.2188-1.9688-0.6563-2.5s-0.9766-0.7969-1.6172-0.7969
					c-0.625,0-1.1475,0.2549-1.5664,0.7656S291.6892,157.9445,291.6892,159.0431z"/>
			</g>
			<g>
				<path style="fill:#1A1A1A;" d="M305.0642,162.1603c-0.5205,0.4424-1.0225,0.7549-1.5039,0.9375s-0.999,0.2734-1.5508,0.2734
					c-0.9111,0-1.6123-0.2227-2.1016-0.668s-0.7344-1.0146-0.7344-1.707c0-0.4063,0.0928-0.7773,0.2773-1.1133
					s0.4268-0.6055,0.7266-0.8086s0.6367-0.3564,1.0117-0.4609c0.2764-0.0732,0.6924-0.1436,1.25-0.2109
					c1.1357-0.1357,1.9717-0.2969,2.5078-0.4844c0.0049-0.1924,0.0078-0.3154,0.0078-0.3672c0-0.5732-0.1328-0.9766-0.3984-1.2109
					c-0.3594-0.3174-0.8936-0.4766-1.6016-0.4766c-0.6611,0-1.1494,0.1162-1.4648,0.3477s-0.5479,0.6416-0.6992,1.2305
					l-1.375-0.1875c0.125-0.5889,0.3311-1.0635,0.6172-1.4258s0.7002-0.6406,1.2422-0.8359s1.1689-0.293,1.8828-0.293
					c0.708,0,1.2842,0.083,1.7266,0.25s0.7686,0.376,0.9766,0.6289s0.3545,0.5713,0.4375,0.957
					c0.0469,0.2393,0.0703,0.6719,0.0703,1.2969v1.875c0,1.3076,0.0303,2.1338,0.0898,2.4805s0.1787,0.6787,0.3555,0.9961h-1.4688
					C305.2,162.8917,305.1062,162.5509,305.0642,162.1603z M304.947,159.0197c-0.5107,0.208-1.2764,0.3857-2.2969,0.5313
					c-0.5781,0.083-0.9873,0.1768-1.2266,0.2813s-0.4248,0.2568-0.5547,0.457s-0.1953,0.4229-0.1953,0.668
					c0,0.375,0.1416,0.6875,0.4258,0.9375s0.6992,0.375,1.2461,0.375c0.542,0,1.0234-0.1182,1.4453-0.3555
					s0.7314-0.5615,0.9297-0.9727c0.1514-0.3174,0.2266-0.7861,0.2266-1.4063V159.0197z"/>
			</g>
			<g>
				<path style="fill:#1A1A1A;" d="M313.9314,163.1837v-1.0469c-0.5264,0.8232-1.2998,1.2344-2.3203,1.2344
					c-0.6611,0-1.2695-0.1826-1.8242-0.5469s-0.9844-0.874-1.2891-1.5273s-0.457-1.4053-0.457-2.2539
					c0-0.8281,0.1377-1.5791,0.4141-2.2539s0.6904-1.1914,1.2422-1.5508s1.1689-0.5391,1.8516-0.5391
					c0.5,0,0.9453,0.1055,1.3359,0.3164s0.708,0.4854,0.9531,0.8242v-4.1094h1.3984v11.4531H313.9314z M309.4861,159.0431
					c0,1.0625,0.2236,1.8564,0.6719,2.3828s0.9766,0.7891,1.5859,0.7891c0.6143,0,1.1367-0.251,1.5664-0.7539
					s0.6445-1.2695,0.6445-2.3008c0-1.1357-0.2188-1.9688-0.6563-2.5s-0.9766-0.7969-1.6172-0.7969
					c-0.625,0-1.1475,0.2549-1.5664,0.7656S309.4861,157.9445,309.4861,159.0431z"/>
			</g>
			<g>
				<path style="fill:#1A1A1A;" d="M220.1658,178.7033l1.4297-0.125c0.0674,0.5732,0.2256,1.043,0.4727,1.4102
					s0.6318,0.6641,1.1523,0.8906s1.1064,0.3398,1.7578,0.3398c0.5781,0,1.0889-0.0859,1.5313-0.2578s0.7725-0.4072,0.9883-0.707
					s0.3242-0.626,0.3242-0.9805c0-0.3594-0.1045-0.6729-0.3125-0.9414s-0.5518-0.4932-1.0313-0.6758
					c-0.3076-0.1201-0.9873-0.3057-2.0391-0.5586s-1.7891-0.4912-2.2109-0.7148c-0.5469-0.2861-0.9541-0.6416-1.2227-1.0664
					s-0.4023-0.8994-0.4023-1.4258c0-0.5781,0.1641-1.1182,0.4922-1.6211s0.8076-0.8838,1.4375-1.1445s1.3311-0.3906,2.1016-0.3906
					c0.8486,0,1.5977,0.1367,2.2461,0.4102s1.1475,0.6758,1.4961,1.207s0.5361,1.1328,0.5625,1.8047l-1.4531,0.1094
					c-0.0781-0.7236-0.3428-1.2705-0.793-1.6406s-1.1162-0.5547-1.9961-0.5547c-0.917,0-1.585,0.168-2.0039,0.5039
					s-0.6289,0.7412-0.6289,1.2148c0,0.4111,0.1484,0.75,0.4453,1.0156c0.292,0.2656,1.0537,0.5381,2.2852,0.8164
					s2.0771,0.5225,2.5352,0.7305c0.667,0.3076,1.1592,0.6963,1.4766,1.168s0.4766,1.0146,0.4766,1.6289
					c0,0.6094-0.1748,1.1836-0.5234,1.7227s-0.8506,0.958-1.5039,1.2578s-1.3896,0.4492-2.207,0.4492
					c-1.0361,0-1.9053-0.1514-2.6055-0.4531s-1.25-0.7568-1.6484-1.3633S220.1863,179.4689,220.1658,178.7033z"/>
			</g>
			<g>
				<path style="fill:#1A1A1A;" d="M236.5877,181.3595c-0.5205,0.4424-1.0225,0.7549-1.5039,0.9375s-0.999,0.2734-1.5508,0.2734
					c-0.9111,0-1.6123-0.2227-2.1016-0.668s-0.7344-1.0146-0.7344-1.707c0-0.4063,0.0928-0.7773,0.2773-1.1133
					s0.4268-0.6055,0.7266-0.8086s0.6367-0.3564,1.0117-0.4609c0.2764-0.0732,0.6924-0.1436,1.25-0.2109
					c1.1357-0.1357,1.9717-0.2969,2.5078-0.4844c0.0049-0.1924,0.0078-0.3154,0.0078-0.3672c0-0.5732-0.1328-0.9766-0.3984-1.2109
					c-0.3594-0.3174-0.8936-0.4766-1.6016-0.4766c-0.6611,0-1.1494,0.1162-1.4648,0.3477s-0.5479,0.6416-0.6992,1.2305
					l-1.375-0.1875c0.125-0.5889,0.3311-1.0635,0.6172-1.4258s0.7002-0.6406,1.2422-0.8359s1.1689-0.293,1.8828-0.293
					c0.708,0,1.2842,0.083,1.7266,0.25s0.7686,0.376,0.9766,0.6289s0.3545,0.5713,0.4375,0.957
					c0.0469,0.2393,0.0703,0.6719,0.0703,1.2969v1.875c0,1.3076,0.0303,2.1338,0.0898,2.4805s0.1787,0.6787,0.3555,0.9961h-1.4688
					C236.7234,182.091,236.6297,181.7501,236.5877,181.3595z M236.4705,178.2189c-0.5107,0.208-1.2764,0.3857-2.2969,0.5313
					c-0.5781,0.083-0.9873,0.1768-1.2266,0.2813s-0.4248,0.2568-0.5547,0.457s-0.1953,0.4229-0.1953,0.668
					c0,0.375,0.1416,0.6875,0.4258,0.9375s0.6992,0.375,1.2461,0.375c0.542,0,1.0234-0.1182,1.4453-0.3555
					s0.7314-0.5615,0.9297-0.9727c0.1514-0.3174,0.2266-0.7861,0.2266-1.4063V178.2189z"/>
			</g>
			<g>
				<path style="fill:#1A1A1A;" d="M243.1423,181.1251l0.2031,1.2422c-0.3955,0.083-0.75,0.125-1.0625,0.125
					c-0.5107,0-0.9063-0.0811-1.1875-0.2422s-0.4795-0.374-0.5938-0.6367s-0.1719-0.8164-0.1719-1.6602v-4.7734h-1.0313v-1.0938
					h1.0313v-2.0547l1.3984-0.8438v2.8984h1.4141v1.0938h-1.4141v4.8516c0,0.4014,0.0244,0.6592,0.0742,0.7734
					s0.1299,0.2061,0.2422,0.2734s0.2725,0.1016,0.4805,0.1016C242.6814,181.1798,242.8875,181.1613,243.1423,181.1251z"/>
			</g>
			<g>
				<path style="fill:#1A1A1A;" d="M244.5252,172.547v-1.6172h1.4063v1.6172H244.5252z M244.5252,182.3829v-8.2969h1.4063v8.2969
					H244.5252z"/>
			</g>
			<g>
				<path style="fill:#1A1A1A;" d="M247.5095,179.9064l1.3906-0.2188c0.0781,0.5576,0.2959,0.9844,0.6523,1.2813
					s0.8555,0.4453,1.4961,0.4453c0.6455,0,1.125-0.1318,1.4375-0.3945s0.4688-0.5713,0.4688-0.9258
					c0-0.3174-0.1377-0.5674-0.4141-0.75c-0.1924-0.125-0.6719-0.2842-1.4375-0.4766c-1.0313-0.2607-1.7461-0.4854-2.1445-0.6758
					s-0.7002-0.4531-0.9063-0.7891s-0.3086-0.707-0.3086-1.1133c0-0.3701,0.085-0.7119,0.2539-1.0273s0.3994-0.5771,0.6914-0.7852
					c0.2188-0.1611,0.5166-0.2979,0.8945-0.4102s0.7822-0.168,1.2148-0.168c0.6514,0,1.2227,0.0938,1.7148,0.2813
					s0.8555,0.4414,1.0898,0.7617s0.3955,0.749,0.4844,1.2852l-1.375,0.1875c-0.0625-0.4268-0.2432-0.7607-0.543-1
					s-0.7227-0.3594-1.2695-0.3594c-0.6455,0-1.1064,0.1064-1.3828,0.3203s-0.4141,0.4639-0.4141,0.75
					c0,0.1826,0.0576,0.3467,0.1719,0.4922c0.1143,0.1514,0.2939,0.2764,0.5391,0.375c0.1406,0.0518,0.5547,0.1719,1.2422,0.3594
					c0.9951,0.2656,1.6885,0.4834,2.082,0.6523s0.7021,0.415,0.9258,0.7383s0.3359,0.7236,0.3359,1.2031
					c0,0.4688-0.1367,0.9102-0.4102,1.3242s-0.668,0.7344-1.1836,0.9609s-1.0986,0.3398-1.75,0.3398
					c-1.0781,0-1.8994-0.2236-2.4648-0.6719S247.6658,180.7863,247.5095,179.9064z"/>
			</g>
			<g>
				<path style="fill:#1A1A1A;" d="M256.408,182.3829v-7.2031h-1.2422v-1.0938h1.2422v-0.8828c0-0.5576,0.0498-0.9717,0.1484-1.2422
					c0.1357-0.3643,0.374-0.6602,0.7148-0.8867s0.8193-0.3398,1.4336-0.3398c0.3955,0,0.833,0.0469,1.3125,0.1406l-0.2109,1.2266
					c-0.292-0.0518-0.5674-0.0781-0.8281-0.0781c-0.4268,0-0.7295,0.0908-0.9063,0.2734s-0.2656,0.5234-0.2656,1.0234v0.7656h1.6172
					v1.0938h-1.6172v7.2031H256.408z"/>
			</g>
			<g>
				<path style="fill:#1A1A1A;" d="M265.9314,181.3595c-0.5205,0.4424-1.0225,0.7549-1.5039,0.9375s-0.999,0.2734-1.5508,0.2734
					c-0.9111,0-1.6123-0.2227-2.1016-0.668s-0.7344-1.0146-0.7344-1.707c0-0.4063,0.0928-0.7773,0.2773-1.1133
					s0.4268-0.6055,0.7266-0.8086s0.6367-0.3564,1.0117-0.4609c0.2764-0.0732,0.6924-0.1436,1.25-0.2109
					c1.1357-0.1357,1.9717-0.2969,2.5078-0.4844c0.0049-0.1924,0.0078-0.3154,0.0078-0.3672c0-0.5732-0.1328-0.9766-0.3984-1.2109
					c-0.3594-0.3174-0.8936-0.4766-1.6016-0.4766c-0.6611,0-1.1494,0.1162-1.4648,0.3477s-0.5479,0.6416-0.6992,1.2305
					l-1.375-0.1875c0.125-0.5889,0.3311-1.0635,0.6172-1.4258s0.7002-0.6406,1.2422-0.8359s1.1689-0.293,1.8828-0.293
					c0.708,0,1.2842,0.083,1.7266,0.25s0.7686,0.376,0.9766,0.6289s0.3545,0.5713,0.4375,0.957
					c0.0469,0.2393,0.0703,0.6719,0.0703,1.2969v1.875c0,1.3076,0.0303,2.1338,0.0898,2.4805s0.1787,0.6787,0.3555,0.9961h-1.4688
					C266.0671,182.091,265.9734,181.7501,265.9314,181.3595z M265.8142,178.2189c-0.5107,0.208-1.2764,0.3857-2.2969,0.5313
					c-0.5781,0.083-0.9873,0.1768-1.2266,0.2813s-0.4248,0.2568-0.5547,0.457s-0.1953,0.4229-0.1953,0.668
					c0,0.375,0.1416,0.6875,0.4258,0.9375s0.6992,0.375,1.2461,0.375c0.542,0,1.0234-0.1182,1.4453-0.3555
					s0.7314-0.5615,0.9297-0.9727c0.1514-0.3174,0.2266-0.7861,0.2266-1.4063V178.2189z"/>
			</g>
			<g>
				<path style="fill:#1A1A1A;" d="M274.8298,179.3439l1.3828,0.1797c-0.1514,0.9531-0.5381,1.6992-1.1602,2.2383
					s-1.3867,0.8086-2.293,0.8086c-1.1357,0-2.0479-0.3711-2.7383-1.1133s-1.0352-1.8057-1.0352-3.1914
					c0-0.8955,0.1484-1.6797,0.4453-2.3516s0.749-1.1758,1.3555-1.5117s1.2666-0.5039,1.9805-0.5039
					c0.9014,0,1.6377,0.2275,2.2109,0.6836s0.9404,1.1025,1.1016,1.9414l-1.3672,0.2109c-0.1299-0.5576-0.3604-0.9766-0.6914-1.2578
					s-0.7305-0.4219-1.1992-0.4219c-0.708,0-1.2842,0.2539-1.7266,0.7617s-0.6641,1.3115-0.6641,2.4102
					c0,1.1143,0.2139,1.9248,0.6406,2.4297s0.9844,0.7578,1.6719,0.7578c0.5518,0,1.0127-0.1689,1.3828-0.5078
					S274.7312,180.047,274.8298,179.3439z"/>
			</g>
			<g>
				<path style="fill:#1A1A1A;" d="M282.8298,179.3439l1.3828,0.1797c-0.1514,0.9531-0.5381,1.6992-1.1602,2.2383
					s-1.3867,0.8086-2.293,0.8086c-1.1357,0-2.0479-0.3711-2.7383-1.1133s-1.0352-1.8057-1.0352-3.1914
					c0-0.8955,0.1484-1.6797,0.4453-2.3516s0.749-1.1758,1.3555-1.5117s1.2666-0.5039,1.9805-0.5039
					c0.9014,0,1.6377,0.2275,2.2109,0.6836s0.9404,1.1025,1.1016,1.9414l-1.3672,0.2109c-0.1299-0.5576-0.3604-0.9766-0.6914-1.2578
					s-0.7305-0.4219-1.1992-0.4219c-0.708,0-1.2842,0.2539-1.7266,0.7617s-0.6641,1.3115-0.6641,2.4102
					c0,1.1143,0.2139,1.9248,0.6406,2.4297s0.9844,0.7578,1.6719,0.7578c0.5518,0,1.0127-0.1689,1.3828-0.5078
					S282.7312,180.047,282.8298,179.3439z"/>
			</g>
			<g>
				<path style="fill:#1A1A1A;" d="M285.4236,172.547v-1.6172h1.4063v1.6172H285.4236z M285.4236,182.3829v-8.2969h1.4063v8.2969
					H285.4236z"/>
			</g>
			<g>
				<path style="fill:#1A1A1A;" d="M288.447,178.2345c0-1.5361,0.4268-2.6748,1.2813-3.4141
					c0.7139-0.6143,1.583-0.9219,2.6094-0.9219c1.1406,0,2.0732,0.374,2.7969,1.1211s1.0859,1.7803,1.0859,3.0977
					c0,1.0674-0.1602,1.9072-0.4805,2.5195s-0.7861,1.0869-1.3984,1.4258s-1.2803,0.5078-2.0039,0.5078
					c-1.1611,0-2.1006-0.3721-2.8164-1.1172S288.447,179.6359,288.447,178.2345z M289.8923,178.2345
					c0,1.0625,0.2314,1.8584,0.6953,2.3867s1.0469,0.793,1.75,0.793c0.6982,0,1.2783-0.2656,1.7422-0.7969
					s0.6953-1.3408,0.6953-2.4297c0-1.0264-0.2334-1.8037-0.6992-2.332s-1.0459-0.793-1.7383-0.793
					c-0.7031,0-1.2861,0.2627-1.75,0.7891S289.8923,177.172,289.8923,178.2345z M291.5564,173.0548l1.0391-2.1875h1.8438
					l-1.7188,2.1875H291.5564z"/>
			</g>
			<g>
				<path style="fill:#1A1A1A;" d="M297.8689,182.3829v-8.2969h1.2656v1.1797c0.6094-0.9111,1.4893-1.3672,2.6406-1.3672
					c0.5,0,0.96,0.0898,1.3789,0.2695s0.7334,0.415,0.9414,0.707s0.3545,0.6377,0.4375,1.0391
					c0.0518,0.2607,0.0781,0.7158,0.0781,1.3672v5.1016h-1.4063v-5.0469c0-0.5732-0.0547-1.001-0.1641-1.2852
					s-0.3037-0.5107-0.582-0.6797s-0.6055-0.2539-0.9805-0.2539c-0.5986,0-1.1162,0.1904-1.5508,0.5703
					s-0.6523,1.1016-0.6523,2.1641v4.5313H297.8689z"/>
			</g>
			<g>
				<path style="fill:#1A1A1A;" d="M316.6267,179.3439l1.3828,0.1797c-0.1514,0.9531-0.5381,1.6992-1.1602,2.2383
					s-1.3867,0.8086-2.293,0.8086c-1.1357,0-2.0479-0.3711-2.7383-1.1133s-1.0352-1.8057-1.0352-3.1914
					c0-0.8955,0.1484-1.6797,0.4453-2.3516s0.749-1.1758,1.3555-1.5117s1.2666-0.5039,1.9805-0.5039
					c0.9014,0,1.6377,0.2275,2.2109,0.6836s0.9404,1.1025,1.1016,1.9414l-1.3672,0.2109c-0.1299-0.5576-0.3604-0.9766-0.6914-1.2578
					s-0.7305-0.4219-1.1992-0.4219c-0.708,0-1.2842,0.2539-1.7266,0.7617s-0.6641,1.3115-0.6641,2.4102
					c0,1.1143,0.2139,1.9248,0.6406,2.4297s0.9844,0.7578,1.6719,0.7578c0.5518,0,1.0127-0.1689,1.3828-0.5078
					S316.5281,180.047,316.6267,179.3439z"/>
			</g>
			<g>
				<path style="fill:#1A1A1A;" d="M319.1814,182.3829v-11.4531h1.4063v11.4531H319.1814z"/>
			</g>
			<g>
				<path style="fill:#1A1A1A;" d="M322.7751,172.547v-1.6172h1.4063v1.6172H322.7751z M322.7751,182.3829v-8.2969h1.4063v8.2969
					H322.7751z"/>
			</g>
			<g>
				<path style="fill:#1A1A1A;" d="M332.0017,179.7111l1.4531,0.1797c-0.2295,0.8486-0.6533,1.5078-1.2734,1.9766
					s-1.4111,0.7031-2.375,0.7031c-1.2139,0-2.1758-0.374-2.8867-1.1211s-1.0664-1.7959-1.0664-3.1445
					c0-1.3955,0.3594-2.4795,1.0781-3.25s1.6514-1.1563,2.7969-1.1563c1.1094,0,2.0156,0.3779,2.7188,1.1328
					s1.0547,1.8174,1.0547,3.1875c0,0.083-0.0029,0.208-0.0078,0.375h-6.1875c0.0518,0.9111,0.3096,1.6094,0.7734,2.0938
					s1.042,0.7266,1.7344,0.7266c0.5156,0,0.9561-0.1357,1.3203-0.4063S331.7878,180.3048,332.0017,179.7111z M327.3845,177.4376
					h4.6328c-0.0625-0.6982-0.2393-1.2217-0.5313-1.5703c-0.4482-0.542-1.0283-0.8125-1.7422-0.8125
					c-0.6455,0-1.1885,0.2158-1.6289,0.6484S327.4314,176.714,327.3845,177.4376z"/>
			</g>
			<g>
				<path style="fill:#1A1A1A;" d="M335.2205,182.3829v-8.2969h1.2656v1.1797c0.6094-0.9111,1.4893-1.3672,2.6406-1.3672
					c0.5,0,0.96,0.0898,1.3789,0.2695s0.7334,0.415,0.9414,0.707s0.3545,0.6377,0.4375,1.0391
					c0.0518,0.2607,0.0781,0.7158,0.0781,1.3672v5.1016h-1.4063v-5.0469c0-0.5732-0.0547-1.001-0.1641-1.2852
					s-0.3037-0.5107-0.582-0.6797s-0.6055-0.2539-0.9805-0.2539c-0.5986,0-1.1162,0.1904-1.5508,0.5703
					s-0.6523,1.1016-0.6523,2.1641v4.5313H335.2205z"/>
			</g>
			<g>
				<path style="fill:#1A1A1A;" d="M347.1892,181.1251l0.2031,1.2422c-0.3955,0.083-0.75,0.125-1.0625,0.125
					c-0.5107,0-0.9063-0.0811-1.1875-0.2422s-0.4795-0.374-0.5938-0.6367s-0.1719-0.8164-0.1719-1.6602v-4.7734h-1.0313v-1.0938
					h1.0313v-2.0547l1.3984-0.8438v2.8984h1.4141v1.0938h-1.4141v4.8516c0,0.4014,0.0244,0.6592,0.0742,0.7734
					s0.1299,0.2061,0.2422,0.2734s0.2725,0.1016,0.4805,0.1016C346.7283,181.1798,346.9343,181.1613,347.1892,181.1251z"/>
			</g>
			<g>
				<path style="fill:#1A1A1A;" d="M354.2439,179.7111l1.4531,0.1797c-0.2295,0.8486-0.6533,1.5078-1.2734,1.9766
					s-1.4111,0.7031-2.375,0.7031c-1.2139,0-2.1758-0.374-2.8867-1.1211s-1.0664-1.7959-1.0664-3.1445
					c0-1.3955,0.3594-2.4795,1.0781-3.25s1.6514-1.1563,2.7969-1.1563c1.1094,0,2.0156,0.3779,2.7188,1.1328
					s1.0547,1.8174,1.0547,3.1875c0,0.083-0.0029,0.208-0.0078,0.375h-6.1875c0.0518,0.9111,0.3096,1.6094,0.7734,2.0938
					s1.042,0.7266,1.7344,0.7266c0.5156,0,0.9561-0.1357,1.3203-0.4063S354.03,180.3048,354.2439,179.7111z M349.6267,177.4376
					h4.6328c-0.0625-0.6982-0.2393-1.2217-0.5313-1.5703c-0.4482-0.542-1.0283-0.8125-1.7422-0.8125
					c-0.6455,0-1.1885,0.2158-1.6289,0.6484S349.6736,176.714,349.6267,177.4376z"/>
			</g>
			<g>
				<path style="fill:#1A1A1A;" d="M220.7048,201.5831V190.13h5.0781c1.0205,0,1.7969,0.1025,2.3281,0.3086
					s0.9561,0.5693,1.2734,1.0898s0.4766,1.0967,0.4766,1.7266c0,0.8125-0.2627,1.4971-0.7891,2.0547s-1.3389,0.9111-2.4375,1.0625
					c0.4014,0.1924,0.7061,0.3828,0.9141,0.5703c0.4424,0.4063,0.8623,0.9141,1.2578,1.5234l1.9922,3.1172h-1.9063l-1.5156-2.3828
					c-0.4424-0.6875-0.8076-1.2139-1.0938-1.5781s-0.543-0.6201-0.7695-0.7656s-0.457-0.2471-0.6914-0.3047
					c-0.1719-0.0361-0.4531-0.0547-0.8438-0.0547h-1.7578v5.0859H220.7048z M222.2205,195.1847h3.2578
					c0.6924,0,1.2344-0.0713,1.625-0.2148s0.6875-0.3721,0.8906-0.6875s0.3047-0.6572,0.3047-1.0273
					c0-0.542-0.1963-0.9873-0.5898-1.3359s-1.0146-0.5234-1.8633-0.5234h-3.625V195.1847z"/>
			</g>
			<g>
				<path style="fill:#1A1A1A;" d="M237.7361,198.9113l1.4531,0.1797c-0.2295,0.8486-0.6533,1.5078-1.2734,1.9766
					s-1.4111,0.7031-2.375,0.7031c-1.2139,0-2.1758-0.374-2.8867-1.1211s-1.0664-1.7959-1.0664-3.1445
					c0-1.3955,0.3594-2.4795,1.0781-3.25s1.6514-1.1563,2.7969-1.1563c1.1094,0,2.0156,0.3779,2.7188,1.1328
					s1.0547,1.8174,1.0547,3.1875c0,0.083-0.0029,0.208-0.0078,0.375h-6.1875c0.0518,0.9111,0.3096,1.6094,0.7734,2.0938
					s1.042,0.7266,1.7344,0.7266c0.5156,0,0.9561-0.1357,1.3203-0.4063S237.5222,199.505,237.7361,198.9113z M233.1189,196.6378
					h4.6328c-0.0625-0.6982-0.2393-1.2217-0.5313-1.5703c-0.4482-0.542-1.0283-0.8125-1.7422-0.8125
					c-0.6455,0-1.1885,0.2158-1.6289,0.6484S233.1658,195.9142,233.1189,196.6378z"/>
			</g>
			<g>
				<path style="fill:#1A1A1A;" d="M240.9548,201.5831v-8.2969h1.2656v1.1797c0.6094-0.9111,1.4893-1.3672,2.6406-1.3672
					c0.5,0,0.96,0.0898,1.3789,0.2695s0.7334,0.415,0.9414,0.707s0.3545,0.6377,0.4375,1.0391
					c0.0518,0.2607,0.0781,0.7158,0.0781,1.3672v5.1016h-1.4063v-5.0469c0-0.5732-0.0547-1.001-0.1641-1.2852
					s-0.3037-0.5107-0.582-0.6797s-0.6055-0.2539-0.9805-0.2539c-0.5986,0-1.1162,0.1904-1.5508,0.5703
					s-0.6523,1.1016-0.6523,2.1641v4.5313H240.9548z"/>
			</g>
			<g>
				<path style="fill:#1A1A1A;" d="M252.9236,200.3253l0.2031,1.2422c-0.3955,0.083-0.75,0.125-1.0625,0.125
					c-0.5107,0-0.9063-0.0811-1.1875-0.2422s-0.4795-0.374-0.5938-0.6367s-0.1719-0.8164-0.1719-1.6602V194.38h-1.0313v-1.0938
					h1.0313v-2.0547l1.3984-0.8438v2.8984h1.4141v1.0938h-1.4141v4.8516c0,0.4014,0.0244,0.6592,0.0742,0.7734
					s0.1299,0.2061,0.2422,0.2734s0.2725,0.1016,0.4805,0.1016C252.4627,200.38,252.6687,200.3615,252.9236,200.3253z"/>
			</g>
			<g>
				<path style="fill:#1A1A1A;" d="M259.7126,200.5597c-0.5205,0.4424-1.0225,0.7549-1.5039,0.9375s-0.999,0.2734-1.5508,0.2734
					c-0.9111,0-1.6123-0.2227-2.1015-0.668s-0.7344-1.0146-0.7344-1.707c0-0.4063,0.0928-0.7773,0.2773-1.1133
					s0.4268-0.6055,0.7266-0.8086s0.6367-0.3564,1.0117-0.4609c0.2764-0.0732,0.6924-0.1436,1.25-0.2109
					c1.1357-0.1357,1.9717-0.2969,2.5078-0.4844c0.0049-0.1924,0.0078-0.3154,0.0078-0.3672c0-0.5732-0.1328-0.9766-0.3984-1.2109
					c-0.3594-0.3174-0.8936-0.4766-1.6016-0.4766c-0.6611,0-1.1494,0.1162-1.4648,0.3477
					c-0.3154,0.2314-0.5478,0.6416-0.6992,1.2305l-1.375-0.1875c0.125-0.5889,0.3311-1.0635,0.6172-1.4258
					s0.7002-0.6406,1.2422-0.8359c0.542-0.1953,1.1689-0.293,1.8828-0.293c0.708,0,1.2842,0.083,1.7266,0.25
					s0.7686,0.376,0.9766,0.6289s0.3545,0.5713,0.4375,0.957c0.0469,0.2393,0.0703,0.6719,0.0703,1.2969v1.875
					c0,1.3076,0.0303,2.1338,0.0898,2.4805s0.1787,0.6787,0.3555,0.9961h-1.4688
					C259.8484,201.2912,259.7546,200.9503,259.7126,200.5597z M259.5955,197.4191c-0.5107,0.208-1.2764,0.3857-2.2969,0.5313
					c-0.5781,0.083-0.9873,0.1768-1.2266,0.2813c-0.2392,0.1045-0.4248,0.2568-0.5547,0.457s-0.1953,0.4229-0.1953,0.668
					c0,0.375,0.1416,0.6875,0.4258,0.9375c0.2842,0.25,0.6992,0.375,1.2461,0.375c0.542,0,1.0234-0.1182,1.4453-0.3555
					s0.7314-0.5615,0.9297-0.9727c0.1514-0.3174,0.2266-0.7861,0.2266-1.4063V197.4191z"/>
			</g>
			<g>
				<path style="fill:#1A1A1A;" d="M264.4939,201.5831h-1.3047V190.13h1.4063v4.0859c0.5938-0.7451,1.3516-1.1172,2.2734-1.1172
					c0.5107,0,0.9932,0.1025,1.4492,0.3086s0.8311,0.4951,1.125,0.8672s0.5244,0.8213,0.6914,1.3477s0.25,1.0889,0.25,1.6875
					c0,1.4219-0.3516,2.5205-1.0547,3.2969s-1.5469,1.1641-2.5313,1.1641c-0.9795,0-1.7471-0.4092-2.3047-1.2266V201.5831z
					 M264.4783,197.3722c0,0.9951,0.1357,1.7139,0.4063,2.1563c0.4424,0.7236,1.042,1.0859,1.7969,1.0859
					c0.6143,0,1.1455-0.2666,1.5938-0.8008s0.6719-1.3291,0.6719-2.3867c0-1.083-0.2148-1.8828-0.6445-2.3984
					s-0.9492-0.7734-1.5586-0.7734c-0.6143,0-1.1455,0.2666-1.5938,0.8008S264.4783,196.3615,264.4783,197.3722z"/>
			</g>
			<g>
				<path style="fill:#1A1A1A;" d="M272.1033,191.7472V190.13h1.4063v1.6172H272.1033z M272.1033,201.5831v-8.2969h1.4063v8.2969
					H272.1033z"/>
			</g>
			<g>
				<path style="fill:#1A1A1A;" d="M275.6189,201.5831V190.13h1.4063v11.4531H275.6189z"/>
			</g>
			<g>
				<path style="fill:#1A1A1A;" d="M279.2126,191.7472V190.13h1.4063v1.6172H279.2126z M279.2126,201.5831v-8.2969h1.4063v8.2969
					H279.2126z"/>
			</g>
			<g>
				<path style="fill:#1A1A1A;" d="M288.1423,201.5831v-1.0469c-0.5264,0.8232-1.2998,1.2344-2.3203,1.2344
					c-0.6611,0-1.2695-0.1826-1.8242-0.5469s-0.9844-0.874-1.2891-1.5273s-0.457-1.4053-0.457-2.2539
					c0-0.8281,0.1377-1.5791,0.4141-2.2539s0.6904-1.1914,1.2422-1.5508s1.1689-0.5391,1.8516-0.5391
					c0.5,0,0.9453,0.1055,1.3359,0.3164s0.708,0.4854,0.9531,0.8242V190.13h1.3984v11.4531H288.1423z M283.697,197.4425
					c0,1.0625,0.2236,1.8564,0.6719,2.3828s0.9766,0.7891,1.5859,0.7891c0.6143,0,1.1367-0.251,1.5664-0.7539
					s0.6445-1.2695,0.6445-2.3008c0-1.1357-0.2188-1.9688-0.6563-2.5s-0.9766-0.7969-1.6172-0.7969
					c-0.625,0-1.1475,0.2549-1.5664,0.7656S283.697,196.3439,283.697,197.4425z"/>
			</g>
			<g>
				<path style="fill:#1A1A1A;" d="M297.072,200.5597c-0.5205,0.4424-1.0225,0.7549-1.5039,0.9375s-0.999,0.2734-1.5508,0.2734
					c-0.9111,0-1.6123-0.2227-2.1016-0.668s-0.7344-1.0146-0.7344-1.707c0-0.4063,0.0928-0.7773,0.2773-1.1133
					s0.4268-0.6055,0.7266-0.8086s0.6367-0.3564,1.0117-0.4609c0.2764-0.0732,0.6924-0.1436,1.25-0.2109
					c1.1357-0.1357,1.9717-0.2969,2.5078-0.4844c0.0049-0.1924,0.0078-0.3154,0.0078-0.3672c0-0.5732-0.1328-0.9766-0.3984-1.2109
					c-0.3594-0.3174-0.8936-0.4766-1.6016-0.4766c-0.6611,0-1.1494,0.1162-1.4648,0.3477s-0.5479,0.6416-0.6992,1.2305
					l-1.375-0.1875c0.125-0.5889,0.3311-1.0635,0.6172-1.4258s0.7002-0.6406,1.2422-0.8359s1.1689-0.293,1.8828-0.293
					c0.708,0,1.2842,0.083,1.7266,0.25s0.7686,0.376,0.9766,0.6289s0.3545,0.5713,0.4375,0.957
					c0.0469,0.2393,0.0703,0.6719,0.0703,1.2969v1.875c0,1.3076,0.0303,2.1338,0.0898,2.4805s0.1787,0.6787,0.3555,0.9961h-1.4688
					C297.2078,201.2912,297.114,200.9503,297.072,200.5597z M296.9548,197.4191c-0.5107,0.208-1.2764,0.3857-2.2969,0.5313
					c-0.5781,0.083-0.9873,0.1768-1.2266,0.2813s-0.4248,0.2568-0.5547,0.457s-0.1953,0.4229-0.1953,0.668
					c0,0.375,0.1416,0.6875,0.4258,0.9375s0.6992,0.375,1.2461,0.375c0.542,0,1.0234-0.1182,1.4453-0.3555
					s0.7314-0.5615,0.9297-0.9727c0.1514-0.3174,0.2266-0.7861,0.2266-1.4063V197.4191z"/>
			</g>
			<g>
				<path style="fill:#1A1A1A;" d="M305.9392,201.5831v-1.0469c-0.5264,0.8232-1.2998,1.2344-2.3203,1.2344
					c-0.6611,0-1.2695-0.1826-1.8242-0.5469s-0.9844-0.874-1.2891-1.5273s-0.457-1.4053-0.457-2.2539
					c0-0.8281,0.1377-1.5791,0.4141-2.2539s0.6904-1.1914,1.2422-1.5508s1.1689-0.5391,1.8516-0.5391
					c0.5,0,0.9453,0.1055,1.3359,0.3164s0.708,0.4854,0.9531,0.8242V190.13h1.3984v11.4531H305.9392z M301.4939,197.4425
					c0,1.0625,0.2236,1.8564,0.6719,2.3828s0.9766,0.7891,1.5859,0.7891c0.6143,0,1.1367-0.251,1.5664-0.7539
					s0.6445-1.2695,0.6445-2.3008c0-1.1357-0.2188-1.9688-0.6563-2.5s-0.9766-0.7969-1.6172-0.7969
					c-0.625,0-1.1475,0.2549-1.5664,0.7656S301.4939,196.3439,301.4939,197.4425z"/>
			</g>
		</g>
	</g>
	<g>
		<line style="fill:#1A1A1A;" x1="211.8054" y1="124.1183" x2="211.8054" y2="113.1183"/>
		<g>
			
				<line style="fill:none;stroke:#000000;stroke-linecap:round;stroke-linejoin:round;" x1="211.8054" y1="123.0338" x2="211.8054" y2="113.1183"/>
			<g>
				<polygon points="215.8952,119.7203 215.1628,119.0381 211.8064,122.6499 208.4489,119.0381 207.7165,119.7203 
					211.8064,124.1183 				"/>
			</g>
		</g>
	</g>
	<g>
		<line style="fill:#1A1A1A;" x1="211.8054" y1="144.1183" x2="211.8054" y2="133.1183"/>
		<g>
			
				<line style="fill:none;stroke:#000000;stroke-linecap:round;stroke-linejoin:round;" x1="211.8054" y1="143.0338" x2="211.8054" y2="133.1182"/>
			<g>
				<polygon points="215.8952,139.7203 215.1628,139.0382 211.8064,142.65 208.4489,139.0382 207.7165,139.7203 211.8064,144.1182 
									"/>
			</g>
		</g>
	</g>
	<g>
		<line style="fill:#1A1A1A;" x1="211.8054" y1="164.1183" x2="211.8054" y2="153.1183"/>
		<g>
			
				<line style="fill:none;stroke:#000000;stroke-linecap:round;stroke-linejoin:round;" x1="211.8054" y1="163.0338" x2="211.8054" y2="153.1182"/>
			<g>
				<polygon points="215.8952,159.7203 215.1628,159.0382 211.8064,162.65 208.4489,159.0382 207.7165,159.7203 211.8064,164.1182 
									"/>
			</g>
		</g>
	</g>
	<g>
		<line style="fill:#1A1A1A;" x1="211.8054" y1="184.1183" x2="211.8054" y2="173.1183"/>
		<g>
			
				<line style="fill:none;stroke:#000000;stroke-linecap:round;stroke-linejoin:round;" x1="211.8054" y1="183.0338" x2="211.8054" y2="173.1182"/>
			<g>
				<polygon points="215.8952,179.7203 215.1628,179.0382 211.8064,182.65 208.4489,179.0382 207.7165,179.7203 211.8064,184.1182 
									"/>
			</g>
		</g>
	</g>
</g>
<path id="XMLID_3252_" style="fill:#3C3C3B;" d="M58.9634,7.4628l2.9515,0.6665l-0.4316,1.911c0,0-3.0149-0.3861-2.7674-1.4818
	S58.9634,7.4628,58.9634,7.4628z"/>
<path id="XMLID_3251_" style="fill:#3C3C3B;" d="M163.391,58.5189l-24.4165-5.514c-0.406-0.0917-0.7756-0.302-1.062-0.6037
	L76.5319,11.9437L60.1383,8.2415c-1.1327-0.2558-1.8435-1.3816-1.5877-2.514c0.2557-1.1324,1.3813-1.8435,2.514-1.5877
	l17.0162,3.8428c0.406,0.0917,0.7756,0.302,1.062,0.6037l61.3806,40.4575l23.7939,5.3734c1.1327,0.2558,1.8435,1.3816,1.5877,2.514
	S164.5237,58.7747,163.391,58.5189z"/>
<path id="XMLID_3249_" style="fill:#3C3C3B;" d="M282.409,51.4213l-2.9829-0.5079l-0.3289,1.9313c0,0,2.9346,0.7914,3.1232-0.316
	C282.409,51.4213,282.409,51.4213,282.409,51.4213z"/>
<path id="XMLID_3248_" style="fill:#3C3C3B;" d="M166.3896,58.8568l24.6762,4.2018c0.4103,0.0699,0.8322,0.0161,1.2119-0.1537
	l72.1636-14.0282l16.568,2.8211c1.1448,0.1949,2.2307-0.5753,2.4256-1.7198c0.1949-1.1445-0.575-2.2307-1.7198-2.4256
	l-17.1971-2.9283c-0.4103-0.0699-0.8322-0.0161-1.2119,0.1537l-72.1636,14.0282l-24.047-4.0946
	c-1.1448-0.1949-2.2307,0.5753-2.4256,1.7198C164.475,57.5757,165.2448,58.6619,166.3896,58.8568z"/>
<path id="XMLID_3247_" style="fill:#3C3C3B;" d="M10.9387,161.7872h89.8832c0,0,10.1544-2.6037,10.1544-10.1544l-4.1659-2.0829
	H2.6069C2.6069,149.5499,1.305,158.4025,10.9387,161.7872z"/>
<rect id="XMLID_3246_" x="0.5239" y="147.467" style="fill:#3C3C3B;" width="112.0145" height="4.1659"/>
<rect id="XMLID_3245_" x="160.969" y="78.8311" style="fill:#3C3C3B;" width="8.6255" height="176.668"/>
<path id="XMLID_3244_" style="fill:#3C3C3B;" d="M169.6581,79.8925h-8.6255v3.9183c0,0,1.0009,1.8914,4.2491,1.8914
	s4.3764-1.8914,4.3764-1.8914V79.8925z"/>
<path id="XMLID_3243_" style="fill:#3C3C3B;" d="M165.1891,82.5208L165.1891,82.5208c-3.1505,0-5.7281-2.5776-5.7281-5.7281V60.6498
	c0-3.1504,2.5776-5.7281,5.7281-5.7281h0c3.1505,0,5.7281,2.5776,5.7281,5.7281v16.1428
	C170.9172,79.9431,168.3395,82.5208,165.1891,82.5208z"/>
<polygon id="XMLID_3242_" style="fill:#3C3C3B;" points="131.1608,259.2687 131.1608,263.695 200.1584,263.695 200.1584,259.2687 
	169.1746,253.2803 161.8843,253.2803 "/>
<path id="XMLID_3241_" style="fill:#3C3C3B;" d="M94.8334,262.0383H17.1875c-1.7184,0-3.1244-1.406-3.1244-3.1244l0,0
	c0-1.7184,1.406-3.1244,3.1244-3.1244h77.6459c1.7184,0,3.1244,1.406,3.1244,3.1244l0,0
	C97.9579,260.6323,96.5519,262.0383,94.8334,262.0383z"/>
<path id="XMLID_3240_" style="fill:#3C3C3B;" d="M229.2851,225.7872h89.8832c0,0,10.1544-2.6037,10.1544-10.1544l-4.1659-2.0829
	H220.9533C220.9533,213.5499,219.6515,222.4025,229.2851,225.7872z"/>
<rect id="XMLID_3239_" x="218.8703" y="211.467" style="fill:#3C3C3B;" width="112.0145" height="4.1659"/>
<path id="XMLID_3238_" style="fill:#3C3C3B;" d="M313.1798,262.0383h-77.6459c-1.7184,0-3.1244-1.406-3.1244-3.1244l0,0
	c0-1.7184,1.406-3.1244,3.1244-3.1244h77.6459c1.7184,0,3.1244,1.406,3.1244,3.1244l0,0
	C316.3043,260.6323,314.8983,262.0383,313.1798,262.0383z"/>
<circle id="XMLID_3237_" style="fill:#3C3C3B;" cx="165.5832" cy="58.8267" r="2.8936"/>
<rect id="XMLID_3236_" x="160.969" y="249.362" style="fill:#3C3C3B;" width="8.6255" height="3.9183"/>
<line id="XMLID_3235_" style="fill:#3C3C3B;stroke:#1D70B7;stroke-width:3;stroke-linecap:square;stroke-linejoin:round;stroke-miterlimit:10;" x1="144.8343" y1="57.2948" x2="153.2108" y2="59.1864"/>
<line id="XMLID_3234_" style="fill:#3C3C3B;stroke:#1D70B7;stroke-width:3;stroke-linecap:square;stroke-linejoin:round;stroke-miterlimit:10;" x1="175.6151" y1="63.363" x2="184.0807" y2="64.8045"/>
<line id="XMLID_3233_" style="fill:#3C3C3B;stroke:#1D70B7;stroke-width:3;stroke-linecap:square;stroke-linejoin:round;stroke-miterlimit:10;" x1="274.6322" y1="52.2817" x2="274.6322" y2="60.8691"/>
<line id="XMLID_3232_" style="fill:#3C3C3B;stroke:#1D70B7;stroke-width:3;stroke-linecap:square;stroke-linejoin:round;stroke-miterlimit:10;" x1="65.0034" y1="11.5679" x2="65.1401" y2="20.1542"/>
<rect id="XMLID_3227_" x="58.6101" y="7.153" style="fill:#3C3C3B;" width="2.9942" height="54.3923"/>
<path id="XMLID_3226_" style="fill:#868686;" d="M59.3494,3.3751l2.9515,0.6665l-0.4316,1.911c0,0-3.0149-0.3861-2.7674-1.4818
	S59.3494,3.3751,59.3494,3.3751z"/>
<path id="XMLID_3225_" style="fill:#3C3C3B;" d="M163.777,54.4312l-24.4165-5.514c-0.406-0.0917-0.7756-0.302-1.062-0.6037
	L76.9179,7.856L60.5243,4.1539c-1.1327-0.2558-1.8435-1.3816-1.5877-2.514c0.2557-1.1324,1.3813-1.8435,2.514-1.5877l17.0162,3.8428
	c0.406,0.0917,0.7756,0.302,1.062,0.6037l61.3806,40.4575l23.7939,5.3734c1.1327,0.2558,1.8435,1.3816,1.5877,2.514
	C166.0352,53.976,164.9097,54.687,163.777,54.4312z"/>
<rect id="XMLID_3224_" x="276.6559" y="50.153" transform="matrix(-1 4.495459e-11 -4.495459e-11 -1 556.306 135.7712)" style="fill:#3C3C3B;" width="2.9942" height="35.4653"/>
<path id="XMLID_3223_" style="fill:#868686;" d="M282.5761,47.3189l-2.9829-0.5079l-0.3289,1.9313c0,0,2.9347,0.7914,3.1232-0.316
	S282.5761,47.3189,282.5761,47.3189z"/>
<path id="XMLID_3222_" style="fill:#3C3C3B;" d="M166.5567,54.7543l24.6762,4.2018c0.4103,0.0699,0.8322,0.0161,1.2119-0.1537
	l72.1637-14.0282l16.5679,2.8211c1.1448,0.1949,2.2307-0.5753,2.4256-1.7198c0.1949-1.1445-0.575-2.2307-1.7198-2.4256
	l-17.1971-2.9283c-0.4103-0.0699-0.8322-0.0161-1.2119,0.1537l-72.1637,14.0282l-24.047-4.0946
	c-1.1448-0.1949-2.2307,0.5753-2.4256,1.7198C164.642,53.4732,165.4119,54.5594,166.5567,54.7543z"/>
<path id="XMLID_3221_" style="fill:#1D1D1B;" d="M10.4147,157.7149h89.8832c0,0,10.1544-2.6037,10.1544-10.1544l-4.1659-2.0829
	H2.0829C2.0829,145.4776,0.7811,154.3302,10.4147,157.7149z"/>
<rect id="XMLID_3220_" y="143.3947" style="fill:#3C3C3B;" width="112.0145" height="4.1659"/>
<rect id="XMLID_3219_" x="160.4451" y="74.7588" style="fill:#3C3C3B;" width="8.6255" height="176.668"/>
<path id="XMLID_3218_" style="fill:#868686;" d="M169.1342,75.8202h-8.6255v3.9183c0,0,1.0009,1.8914,4.2491,1.8914
	c3.2482,0,4.3764-1.8914,4.3764-1.8914V75.8202z"/>
<path id="XMLID_3217_" style="fill:#3C3C3B;" d="M164.6651,78.4484L164.6651,78.4484c-3.1505,0-5.7281-2.5776-5.7281-5.7281V56.5775
	c0-3.1505,2.5776-5.7281,5.7281-5.7281h0c3.1505,0,5.7281,2.5776,5.7281,5.7281v16.1428
	C170.3932,75.8708,167.8156,78.4484,164.6651,78.4484z"/>
<polygon id="XMLID_3216_" style="fill:#3C3C3B;" points="130.6369,255.1964 130.6369,259.6227 199.6344,259.6227 199.6344,255.1964 
	168.6506,249.2079 161.3603,249.2079 "/>
<path id="XMLID_3212_" style="fill:#1D70B7;" d="M94.3095,257.966h-77.646c-1.7184,0-3.1244-1.406-3.1244-3.1244v0
	c0-1.7184,1.406-3.1244,3.1244-3.1244h77.646c1.7184,0,3.1244,1.406,3.1244,3.1244v0
	C97.4339,256.56,96.0279,257.966,94.3095,257.966z"/>
<path id="XMLID_3211_" style="fill:#1D1D1B;" d="M228.7611,221.7149h89.8832c0,0,10.1544-2.6037,10.1544-10.1544l-4.1659-2.0829
	H220.4294C220.4294,209.4776,219.1275,218.3302,228.7611,221.7149z"/>
<rect id="XMLID_3210_" x="218.3464" y="207.3947" style="fill:#3C3C3B;" width="112.0145" height="4.1659"/>
<path id="XMLID_3209_" style="fill:#1D70B7;" d="M312.6559,257.966H235.01c-1.7184,0-3.1244-1.406-3.1244-3.1244v0
	c0-1.7184,1.406-3.1244,3.1244-3.1244h77.646c1.7184,0,3.1244,1.406,3.1244,3.1244v0
	C315.7803,256.56,314.3743,257.966,312.6559,257.966z"/>
<circle id="XMLID_3208_" style="fill:#575756;" cx="165.0592" cy="54.7543" r="2.8936"/>
<rect id="XMLID_3207_" x="160.4451" y="245.2896" style="fill:#868686;" width="8.6255" height="3.9183"/>
<line id="XMLID_3206_" style="fill:none;stroke:#1D70B7;stroke-width:3;stroke-linecap:round;stroke-linejoin:round;stroke-miterlimit:10;" x1="145.2203" y1="53.2071" x2="153.5968" y2="55.0987"/>
<line id="XMLID_3205_" style="fill:none;stroke:#1D70B7;stroke-width:3;stroke-linecap:round;stroke-linejoin:round;stroke-miterlimit:10;" x1="175.7822" y1="59.2605" x2="184.2477" y2="60.702"/>
<line id="XMLID_3182_" style="fill:none;stroke:#1D70B7;stroke-width:3;stroke-linecap:round;stroke-linejoin:round;stroke-miterlimit:10;" x1="274.1082" y1="54.2094" x2="274.1082" y2="62.7968"/>
<line id="XMLID_3181_" style="fill:none;stroke:#1D70B7;stroke-width:3;stroke-linecap:round;stroke-linejoin:round;stroke-miterlimit:10;" x1="64.4146" y1="7.5044" x2="64.5514" y2="16.0908"/>
</svg>
