<?xml version="1.0" encoding="utf-8"?>
<!-- Generator: Adobe Illustrator 21.0.0, SVG Export Plug-In . SVG Version: 6.00 Build 0)  -->
<svg version="1.1" id="Capa_1" xmlns="http://www.w3.org/2000/svg" xmlns:xlink="http://www.w3.org/1999/xlink" x="0px" y="0px"
	 viewBox="0 0 40 40" style="enable-background:new 0 0 40 40;" xml:space="preserve">
<g id="XMLID_1660_">
	<g id="XMLID_1669_">
		<rect x="0.5" y="0.5" style="fill:#FFFFFF;" width="39" height="39"/>
		<path style="fill:#2A4690;" d="M39,1v38H1V1H39 M40,0H0v40h40V0L40,0z"/>
	</g>
	<g id="XMLID_1662_">
		<g id="XMLID_2344_">
			<path id="XMLID_2345_" style="fill:#2A4690;" d="M28.8652,19.2593l-8.4599-6.9785c-0.3916-0.3228-0.9571-0.3228-1.3487,0
				l-8.4599,6.9785c-0.2442,0.2016-0.3858,0.5019-0.3858,0.8174v10.5307c0,0.5845,0.4747,1.0591,1.0596,1.0591h16.9199
				c0.585,0,1.0596-0.4746,1.0596-1.0591V20.0767C29.25,19.7612,29.1094,19.4609,28.8652,19.2593L28.8652,19.2593z M20.8506,29.5479
				h-2.2402v-5.8658h2.2402V29.5479z M27.1309,29.5479h-4.1612v-6.9253c0-0.5855-0.4746-1.0591-1.0595-1.0591h-4.3584
				c-0.586,0-1.0596,0.4736-1.0596,1.0591v6.9253h-4.1621v-8.9717l7.4004-6.105l7.4004,6.105V29.5479z"/>
			<path id="XMLID_2350_" style="fill:#2A4690;" d="M31.8018,17.1343c-2.3604-1.8902-4.585-3.6973-7.001-5.687
				c-0.7217-0.649-1.4795-1.2627-2.2149-1.8565c-0.7177-0.582-1.4609-1.1836-2.1464-1.8008c-0.4034-0.3623-1.0147-0.3623-1.418,0
				c-0.6856,0.6172-1.4287,1.2188-2.1465,1.8008c-0.7344,0.5938-1.4932,1.2075-2.2148,1.8565c-2.4161,1.9897-4.6407,3.7968-7,5.687
				C7.2031,17.5,7.1289,18.167,7.4951,18.6235c0.3653,0.4566,1.0332,0.5308,1.4893,0.1651c2.373-1.9009,4.6103-3.7193,7.041-5.7202
				c0.0117-0.0103,0.0234-0.0201,0.0352-0.0303c0.6855-0.6172,1.4287-1.2188,2.1474-1.8008
				c0.5029-0.4062,1.0166-0.8227,1.5225-1.2534c0.5058,0.4307,1.0205,0.8472,1.5234,1.2534
				c0.7188,0.582,1.4619,1.1836,2.1475,1.8008c0.0117,0.0102,0.0224,0.02,0.0351,0.0303c2.4307,2.0009,4.667,3.8193,7.041,5.7202
				c0.1954,0.1557,0.4297,0.2324,0.6622,0.2324c0.3095,0,0.6171-0.1362,0.8261-0.3975C32.332,18.167,32.2588,17.5,31.8018,17.1343
				L31.8018,17.1343z"/>
		</g>
	</g>
</g>
</svg>
