<?xml version="1.0" encoding="utf-8"?>
<!-- Generator: Adobe Illustrator 21.0.0, SVG Export Plug-In . SVG Version: 6.00 Build 0)  -->
<svg version="1.1" id="Capa_1" xmlns="http://www.w3.org/2000/svg" xmlns:xlink="http://www.w3.org/1999/xlink" x="0px" y="0px"
	 viewBox="0 0 107.0363 125.181" style="enable-background:new 0 0 107.0363 125.181;" xml:space="preserve">
<style type="text/css">
	.st0{fill:#065381;}
	.st1{fill:#FFFFFF;}
</style>
<g id="XMLID_1459_">
	<g id="XMLID_1628_">
		<path id="XMLID_1630_" class="st0" d="M83.0655,37.7873v79.2369c0,3.1628-2.4969,5.6598-5.6598,5.6598H8.1567
			c-3.1628,0-5.6598-2.497-5.6598-5.6598V26.4678c0-3.1628,2.497-5.6598,5.6598-5.6598h58.096L83.0655,37.7873z"/>
		<path id="XMLID_1629_" class="st1" d="M77.4057,125.181H8.1567C3.6622,125.181,0,121.5188,0,117.0242V26.4678
			c0-4.4946,3.6622-8.1568,8.1567-8.1568h59.0947l18.4775,18.4775v80.2357C85.5625,121.5187,81.9003,125.181,77.4057,125.181z
			 M8.1567,23.305c-1.6646,0-3.1628,1.4981-3.1628,3.1628v90.5564c0,1.6647,1.4982,3.1628,3.1628,3.1628h69.4155
			c1.6646,0,3.1628-1.4981,3.1628-3.1628V38.7861L65.2539,23.305H8.1567z"/>
	</g>
	<g id="XMLID_1625_">
		<path id="XMLID_1627_" class="st0" d="M93.8857,28.6318v79.2369c0,3.1628-2.497,5.6598-5.6598,5.6598H18.8104
			c-3.1628,0-5.6598-2.497-5.6598-5.6598V17.3123c0-3.1629,2.497-5.6598,5.6598-5.6598h58.096L93.8857,28.6318z"/>
		<path id="XMLID_1626_" class="st1" d="M88.2259,116.0254H18.8104c-4.4945,0-8.1567-3.6622-8.1567-8.1567V17.3123
			c0-4.4946,3.6622-8.1568,8.1567-8.1568h59.0947L96.3826,27.633v80.2357C96.3826,112.3632,92.7204,116.0254,88.2259,116.0254z
			 M18.8104,14.1494c-1.6646,0-3.1628,1.4982-3.1628,3.1629v90.5564c0,1.6646,1.4982,3.1628,3.1628,3.1628h69.4155
			c1.6647,0,3.1628-1.4982,3.1628-3.1628V29.6306L75.9076,14.1494H18.8104z"/>
	</g>
	<g id="XMLID_1622_">
		<path id="XMLID_1624_" class="st0" d="M104.5394,19.4763v79.2369c0,3.1628-2.497,5.6597-5.6598,5.6597H29.4641
			c-3.1628,0-5.6598-2.4969-5.6598-5.6597V8.1567c0-3.1628,2.497-5.6597,5.6598-5.6597H87.56L104.5394,19.4763z"/>
		<path id="XMLID_1623_" class="st1" d="M98.8796,106.8699H29.4641c-4.4945,0-8.1567-3.6622-8.1567-8.1567V8.1567
			C21.3074,3.6622,24.9696,0,29.4641,0h59.0947l18.4775,18.4775v80.2357C107.0363,103.2077,103.3741,106.8699,98.8796,106.8699z
			 M29.4641,4.9939c-1.6646,0-3.1628,1.4982-3.1628,3.1628v90.5565c0,1.6646,1.4982,3.1628,3.1628,3.1628h69.4155
			c1.6646,0,3.1628-1.4982,3.1628-3.1628V20.4751L86.5613,4.9939H29.4641z"/>
	</g>
	<path id="XMLID_1621_" class="st1" d="M104.5394,19.4763H93.2198c-3.1628,0-5.6598-2.497-5.6598-5.6598V2.497L104.5394,19.4763z"/>
	<g id="XMLID_1460_">
		<path id="XMLID_1620_" class="st1" d="M37.7873,18.8104c0,1.4982-0.4994,2.497-1.6646,2.497
			c-0.8324,0-1.4982-0.8323-1.4982-2.3305s0.6658-2.3305,1.6646-2.3305C37.2879,16.4799,37.7873,17.3123,37.7873,18.8104z
			 M35.2903,18.9769c0,1.1652,0.333,1.8311,0.9988,1.8311c0.6659,0,0.9988-0.6659,0.9988-1.9976
			c0-1.1652-0.3329-1.8311-0.9988-1.8311C35.6233,16.9793,35.2903,17.6452,35.2903,18.9769z"/>
		<path id="XMLID_1619_" class="st1" d="M39.7849,17.1458L39.7849,17.1458l-0.8324,0.4994l-0.1664-0.4994l0.9988-0.4994h0.4994
			v4.661h-0.4994V17.1458z"/>
		<path id="XMLID_1618_" class="st1" d="M45.1117,18.8104c0,1.4982-0.4994,2.497-1.6646,2.497
			c-0.8323,0-1.4982-0.8323-1.4982-2.3305s0.6659-2.3305,1.6646-2.3305C44.4459,16.4799,45.1117,17.3123,45.1117,18.8104z
			 M42.6148,18.9769c0,1.1652,0.3329,1.8311,0.9987,1.8311c0.6659,0,0.9988-0.6659,0.9988-1.9976
			c0-1.1652-0.3329-1.8311-0.9988-1.8311C42.9477,16.9793,42.6148,17.6452,42.6148,18.9769z"/>
		<path id="XMLID_1617_" class="st1" d="M48.6075,18.8104c0,1.4982-0.4994,2.497-1.6647,2.497
			c-0.8323,0-1.4982-0.8323-1.4982-2.3305s0.6659-2.3305,1.6647-2.3305C48.1081,16.4799,48.6075,17.3123,48.6075,18.8104z
			 M46.1105,18.9769c0,1.1652,0.3329,1.8311,0.9988,1.8311c0.6658,0,0.9988-0.6659,0.9988-1.9976
			c0-1.1652-0.333-1.8311-0.9988-1.8311C46.6099,16.9793,46.1105,17.6452,46.1105,18.9769z"/>
		<path id="XMLID_1616_" class="st1" d="M52.2697,18.8104c0,1.4982-0.4994,2.497-1.6647,2.497
			c-0.8323,0-1.4981-0.8323-1.4981-2.3305s0.6658-2.3305,1.6646-2.3305C51.7703,16.4799,52.2697,17.3123,52.2697,18.8104z
			 M49.7727,18.9769c0,1.1652,0.3329,1.8311,0.9988,1.8311c0.6658,0,0.9988-0.6659,0.9988-1.9976
			c0-1.1652-0.333-1.8311-0.9988-1.8311C50.2721,16.9793,49.7727,17.6452,49.7727,18.9769z"/>
		<path id="XMLID_1615_" class="st1" d="M54.2672,17.1458L54.2672,17.1458l-0.8323,0.4994l-0.1664-0.4994l0.9987-0.4994h0.4994
			v4.661h-0.6658v-4.1616H54.2672z"/>
		<path id="XMLID_1614_" class="st1" d="M57.9295,17.1458L57.9295,17.1458l-0.8324,0.4994l-0.1664-0.4994l0.9988-0.4994h0.4993
			v4.661H57.763v-4.1616H57.9295z"/>
		<path id="XMLID_1613_" class="st1" d="M61.4252,17.1458L61.4252,17.1458l-0.8323,0.4994l-0.1665-0.4994l0.9988-0.4994h0.4994
			v4.661h-0.4994V17.1458z"/>
		<path id="XMLID_1612_" class="st1" d="M68.2502,18.8104c0,1.4982-0.4994,2.497-1.6646,2.497
			c-0.8323,0-1.4982-0.8323-1.4982-2.3305s0.6659-2.3305,1.6646-2.3305C67.7508,16.4799,68.2502,17.3123,68.2502,18.8104z
			 M65.7533,18.9769c0,1.1652,0.3329,1.8311,0.9987,1.8311c0.6659,0,0.9988-0.6659,0.9988-1.9976
			c0-1.1652-0.3329-1.8311-0.9988-1.8311C66.2527,16.9793,65.7533,17.6452,65.7533,18.9769z"/>
		<path id="XMLID_1611_" class="st1" d="M70.2478,17.1458L70.2478,17.1458l-0.8323,0.4994l-0.1665-0.4994l0.9988-0.4994h0.4994
			v4.661h-0.6659v-4.1616H70.2478z"/>
		<path id="XMLID_1610_" class="st1" d="M73.91,17.1458L73.91,17.1458l-0.8323,0.4994l-0.1665-0.4994l0.9988-0.4994h0.4994v4.661
			h-0.6659v-4.1616H73.91z"/>
		<path id="XMLID_1609_" class="st1" d="M79.2368,18.8104c0,1.4982-0.4994,2.497-1.6646,2.497
			c-0.8323,0-1.4982-0.8323-1.4982-2.3305s0.6659-2.3305,1.6647-2.3305C78.7375,16.4799,79.2368,17.3123,79.2368,18.8104z
			 M76.7399,18.9769c0,1.1652,0.3329,1.8311,0.9988,1.8311c0.6658,0,0.9987-0.6659,0.9987-1.9976
			c0-1.1652-0.3329-1.8311-0.9987-1.8311C77.0728,16.9793,76.7399,17.6452,76.7399,18.9769z"/>
		<path id="XMLID_1608_" class="st1" d="M82.8991,18.8104c0,1.4982-0.4994,2.497-1.6647,2.497
			c-0.8323,0-1.4982-0.8323-1.4982-2.3305s0.6659-2.3305,1.6647-2.3305C82.2332,16.4799,82.8991,17.3123,82.8991,18.8104z
			 M80.4021,18.9769c0,1.1652,0.3329,1.8311,0.9988,1.8311c0.6658,0,0.9988-0.6659,0.9988-1.9976
			c0-1.1652-0.333-1.8311-0.9988-1.8311C80.735,16.9793,80.4021,17.6452,80.4021,18.9769z"/>
		<path id="XMLID_1607_" class="st1" d="M84.7302,17.1458L84.7302,17.1458l-0.8324,0.4994l-0.1664-0.4994l0.9988-0.4994h0.4994
			v4.661h-0.4994V17.1458z"/>
		<path id="XMLID_1606_" class="st1" d="M90.057,18.8104c0,1.4982-0.4994,2.497-1.6646,2.497c-0.8324,0-1.4982-0.8323-1.4982-2.3305
			s0.6658-2.3305,1.6646-2.3305C89.5576,16.4799,90.057,17.3123,90.057,18.8104z M87.56,18.9769
			c0,1.1652,0.333,1.8311,0.9988,1.8311c0.6659,0,0.9988-0.6659,0.9988-1.9976c0-1.1652-0.3329-1.8311-0.9988-1.8311
			C88.0594,16.9793,87.56,17.6452,87.56,18.9769z"/>
		<path id="XMLID_1605_" class="st1" d="M92.0546,17.1458L92.0546,17.1458l-0.8323,0.4994l-0.1665-0.4994l0.9988-0.4994h0.4994
			v4.661h-0.6659v-4.1616H92.0546z"/>
		<path id="XMLID_1604_" class="st1" d="M37.7873,27.3001c0,1.4982-0.4994,2.497-1.6646,2.497
			c-0.8324,0-1.4982-0.8324-1.4982-2.3305c0-1.4982,0.6658-2.3305,1.6646-2.3305C37.2879,24.9696,37.7873,25.8019,37.7873,27.3001z
			 M35.2903,27.4666c0,1.1652,0.333,1.8311,0.9988,1.8311c0.6659,0,0.9988-0.6659,0.9988-1.9976
			c0-1.1653-0.3329-1.8311-0.9988-1.8311C35.6233,25.469,35.2903,26.1349,35.2903,27.4666z"/>
		<path id="XMLID_1603_" class="st1" d="M39.7849,25.6355L39.7849,25.6355l-0.8324,0.4994l-0.1664-0.4994l0.9988-0.4994h0.4994
			v4.661h-0.4994V25.6355z"/>
		<path id="XMLID_1602_" class="st1" d="M43.2806,25.6355L43.2806,25.6355l-0.8323,0.4994v-0.4994l0.9988-0.4994h0.4994v4.661
			h-0.6659V25.6355z"/>
		<path id="XMLID_1601_" class="st1" d="M46.9428,25.6355L46.9428,25.6355l-0.8323,0.4994v-0.4994l0.9988-0.4994h0.4994v4.661
			h-0.6659V25.6355z"/>
		<path id="XMLID_1600_" class="st1" d="M52.2697,27.3001c0,1.4982-0.4994,2.497-1.6647,2.497
			c-0.8323,0-1.4981-0.8324-1.4981-2.3305c0-1.4982,0.6658-2.3305,1.6646-2.3305C51.7703,24.9696,52.2697,25.8019,52.2697,27.3001z
			 M49.7727,27.4666c0,1.1652,0.3329,1.8311,0.9988,1.8311c0.6658,0,0.9988-0.6659,0.9988-1.9976
			c0-1.1653-0.333-1.8311-0.9988-1.8311C50.2721,25.469,49.7727,26.1349,49.7727,27.4666z"/>
		<path id="XMLID_1599_" class="st1" d="M55.9319,27.3001c0,1.4982-0.4994,2.497-1.6647,2.497
			c-0.8323,0-1.4981-0.8324-1.4981-2.3305c0-1.4982,0.6658-2.3305,1.6646-2.3305C55.4325,24.9696,55.9319,25.8019,55.9319,27.3001z
			 M53.4349,27.4666c0,1.1652,0.3329,1.8311,0.9988,1.8311s0.9988-0.6659,0.9988-1.9976c0-1.1653-0.3329-1.8311-0.9988-1.8311
			S53.4349,26.1349,53.4349,27.4666z"/>
		<path id="XMLID_1598_" class="st1" d="M57.9295,25.6355L57.9295,25.6355l-0.8324,0.4994l-0.1664-0.4994l0.9987-0.4994h0.4994
			v4.661H57.763v-4.1616H57.9295z"/>
		<path id="XMLID_1597_" class="st1" d="M61.4252,25.6355L61.4252,25.6355l-0.8323,0.4994v-0.4994l0.9988-0.4994h0.4994v4.661
			h-0.6659V25.6355z"/>
		<path id="XMLID_1596_" class="st1" d="M68.2502,27.3001c0,1.4982-0.4994,2.497-1.6646,2.497
			c-0.8323,0-1.4982-0.8324-1.4982-2.3305c0-1.4982,0.6659-2.3305,1.6646-2.3305C67.7508,24.9696,68.2502,25.8019,68.2502,27.3001z
			 M65.7533,27.4666c0,1.1652,0.3329,1.8311,0.9987,1.8311c0.6659,0,0.9988-0.6659,0.9988-1.9976
			c0-1.1653-0.3329-1.8311-0.9988-1.8311C66.2527,25.469,65.7533,26.1349,65.7533,27.4666z"/>
		<path id="XMLID_1595_" class="st1" d="M70.2478,25.6355L70.2478,25.6355l-0.8323,0.4994l-0.1665-0.4994l0.9988-0.4994h0.4994
			v4.661h-0.6659v-4.1616H70.2478z"/>
		<path id="XMLID_1594_" class="st1" d="M73.91,25.6355L73.91,25.6355l-0.8323,0.4994l-0.1665-0.4994l0.9988-0.4994h0.4994v4.661
			h-0.6659v-4.1616H73.91z"/>
		<path id="XMLID_1593_" class="st1" d="M77.5722,25.6355L77.5722,25.6355l-0.8323,0.4994l-0.1665-0.4994l0.9988-0.4994h0.4994
			v4.661h-0.6659v-4.1616H77.5722z"/>
		<path id="XMLID_1592_" class="st1" d="M82.8991,27.3001c0,1.4982-0.4994,2.497-1.6647,2.497
			c-0.8323,0-1.4982-0.8324-1.4982-2.3305c0-1.4982,0.6659-2.3305,1.6647-2.3305C82.2332,24.9696,82.8991,25.8019,82.8991,27.3001z
			 M80.4021,27.4666c0,1.1652,0.3329,1.8311,0.9988,1.8311c0.6658,0,0.9988-0.6659,0.9988-1.9976
			c0-1.1653-0.333-1.8311-0.9988-1.8311C80.735,25.469,80.4021,26.1349,80.4021,27.4666z"/>
		<path id="XMLID_1591_" class="st1" d="M84.7302,25.6355L84.7302,25.6355l-0.8324,0.4994v-0.4994l0.9988-0.4994h0.4994v4.661
			h-0.6658V25.6355z"/>
		<path id="XMLID_1590_" class="st1" d="M90.057,27.3001c0,1.4982-0.4994,2.497-1.6646,2.497c-0.8324,0-1.4982-0.8324-1.4982-2.3305
			c0-1.4982,0.6658-2.3305,1.6646-2.3305C89.5576,24.9696,90.057,25.8019,90.057,27.3001z M87.56,27.4666
			c0,1.1652,0.333,1.8311,0.9988,1.8311c0.6659,0,0.9988-0.6659,0.9988-1.9976c0-1.1653-0.3329-1.8311-0.9988-1.8311
			C88.0594,25.469,87.56,26.1349,87.56,27.4666z"/>
		<path id="XMLID_1589_" class="st1" d="M93.7192,27.3001c0,1.4982-0.4994,2.497-1.6646,2.497
			c-0.8323,0-1.4982-0.8324-1.4982-2.3305c0-1.4982,0.6659-2.3305,1.6646-2.3305C93.2198,24.9696,93.7192,25.8019,93.7192,27.3001z
			 M91.2223,27.4666c0,1.1652,0.3329,1.8311,0.9987,1.8311c0.6659,0,0.9988-0.6659,0.9988-1.9976
			c0-1.1653-0.3329-1.8311-0.9988-1.8311C91.7216,25.469,91.2223,26.1349,91.2223,27.4666z"/>
		<path id="XMLID_1588_" class="st1" d="M37.7873,35.7898c0,1.4981-0.4994,2.4969-1.6646,2.4969
			c-0.8324,0-1.4982-0.8323-1.4982-2.3305s0.6658-2.3305,1.6646-2.3305C37.2879,33.4593,37.7873,34.2916,37.7873,35.7898z
			 M35.2903,35.9562c0,1.1653,0.333,1.8311,0.9988,1.8311c0.6659,0,0.9988-0.6658,0.9988-1.9975
			c0-1.1653-0.3329-1.8311-0.9988-1.8311C35.6233,33.9587,35.2903,34.6245,35.2903,35.9562z"/>
		<path id="XMLID_1587_" class="st1" d="M39.7849,34.1251L39.7849,34.1251l-0.8324,0.4994l-0.1664-0.4994l0.9988-0.4994h0.4994
			v4.661h-0.4994V34.1251z"/>
		<path id="XMLID_1586_" class="st1" d="M43.2806,34.1251L43.2806,34.1251l-0.8323,0.4994l-0.1665-0.4994l0.9988-0.4994H43.78v4.661
			h-0.6659v-4.1616H43.2806z"/>
		<path id="XMLID_1585_" class="st1" d="M48.6075,35.7898c0,1.4981-0.4994,2.4969-1.6647,2.4969
			c-0.8323,0-1.4982-0.8323-1.4982-2.3305s0.6659-2.3305,1.6647-2.3305C48.1081,33.4593,48.6075,34.2916,48.6075,35.7898z
			 M46.1105,35.9562c0,1.1653,0.3329,1.8311,0.9988,1.8311c0.6658,0,0.9988-0.6658,0.9988-1.9975
			c0-1.1653-0.333-1.8311-0.9988-1.8311C46.6099,33.9587,46.1105,34.6245,46.1105,35.9562z"/>
		<path id="XMLID_1584_" class="st1" d="M50.605,34.1251L50.605,34.1251l-0.8323,0.4994l-0.1665-0.4994l0.9988-0.4994h0.4994v4.661
			h-0.6658v-4.1616H50.605z"/>
		<path id="XMLID_1583_" class="st1" d="M55.9319,35.7898c0,1.4981-0.4994,2.4969-1.6647,2.4969
			c-0.8323,0-1.4981-0.8323-1.4981-2.3305s0.6658-2.3305,1.6646-2.3305C55.4325,33.4593,55.9319,34.2916,55.9319,35.7898z
			 M53.4349,35.9562c0,1.1653,0.3329,1.8311,0.9988,1.8311s0.9988-0.6658,0.9988-1.9975c0-1.1653-0.3329-1.8311-0.9988-1.8311
			S53.4349,34.6245,53.4349,35.9562z"/>
		<path id="XMLID_1582_" class="st1" d="M59.5941,35.7898c0,1.4981-0.4994,2.4969-1.6646,2.4969
			c-0.8324,0-1.4982-0.8323-1.4982-2.3305s0.6658-2.3305,1.6646-2.3305C59.0947,33.4593,59.5941,34.2916,59.5941,35.7898z
			 M57.0971,35.9562c0,1.1653,0.333,1.8311,0.9988,1.8311c0.6659,0,0.9988-0.6658,0.9988-1.9975
			c0-1.1653-0.3329-1.8311-0.9988-1.8311C57.4301,33.9587,57.0971,34.6245,57.0971,35.9562z"/>
		<path id="XMLID_1581_" class="st1" d="M61.4252,34.1251L61.4252,34.1251l-0.8323,0.4994l-0.1665-0.4994l0.9988-0.4994h0.4994
			v4.661h-0.4994V34.1251z"/>
		<path id="XMLID_1580_" class="st1" d="M68.2502,35.7898c0,1.4981-0.4994,2.4969-1.6646,2.4969
			c-0.8323,0-1.4982-0.8323-1.4982-2.3305s0.6659-2.3305,1.6646-2.3305C67.7508,33.4593,68.2502,34.2916,68.2502,35.7898z
			 M65.7533,35.9562c0,1.1653,0.3329,1.8311,0.9987,1.8311c0.6659,0,0.9988-0.6658,0.9988-1.9975
			c0-1.1653-0.3329-1.8311-0.9988-1.8311C66.2527,33.9587,65.7533,34.6245,65.7533,35.9562z"/>
		<path id="XMLID_1579_" class="st1" d="M70.2478,34.1251L70.2478,34.1251l-0.8323,0.4994l-0.1665-0.4994l0.9988-0.4994h0.4994
			v4.661h-0.6659v-4.1616H70.2478z"/>
		<path id="XMLID_1578_" class="st1" d="M73.91,34.1251L73.91,34.1251l-0.8323,0.4994l-0.1665-0.4994l0.9988-0.4994h0.4994v4.661
			h-0.6659v-4.1616H73.91z"/>
		<path id="XMLID_1577_" class="st1" d="M79.2368,35.7898c0,1.4981-0.4994,2.4969-1.6646,2.4969
			c-0.8323,0-1.4982-0.8323-1.4982-2.3305s0.6659-2.3305,1.6647-2.3305C78.7375,33.4593,79.2368,34.2916,79.2368,35.7898z
			 M76.7399,35.9562c0,1.1653,0.3329,1.8311,0.9988,1.8311c0.6658,0,0.9987-0.6658,0.9987-1.9975
			c0-1.1653-0.3329-1.8311-0.9987-1.8311C77.0728,33.9587,76.7399,34.6245,76.7399,35.9562z"/>
		<path id="XMLID_1576_" class="st1" d="M81.068,34.1251L81.068,34.1251l-0.8324,0.4994l-0.1664-0.4994l0.9988-0.4994h0.4994v4.661
			h-0.6659v-4.1616H81.068z"/>
		<path id="XMLID_1575_" class="st1" d="M84.7302,34.1251L84.7302,34.1251l-0.8324,0.4994l-0.1664-0.4994l0.9988-0.4994h0.4994
			v4.661h-0.4994V34.1251z"/>
		<path id="XMLID_1574_" class="st1" d="M88.3924,34.1251L88.3924,34.1251L87.56,34.6245l-0.1664-0.4994l0.9988-0.4994h0.4994v4.661
			h-0.6659v-4.1616H88.3924z"/>
		<path id="XMLID_1573_" class="st1" d="M92.0546,34.1251L92.0546,34.1251l-0.8323,0.4994l-0.1665-0.4994l0.9988-0.4994h0.4994
			v4.661h-0.6659v-4.1616H92.0546z"/>
		<path id="XMLID_1572_" class="st1" d="M37.7873,44.2794c0,1.4982-0.4994,2.497-1.6646,2.497
			c-0.8324,0-1.4982-0.8323-1.4982-2.3305s0.6658-2.3305,1.6646-2.3305C37.2879,41.9489,37.7873,42.7813,37.7873,44.2794z
			 M35.2903,44.4459c0,1.1652,0.333,1.8311,0.9988,1.8311c0.6659,0,0.9988-0.6659,0.9988-1.9976
			c0-1.1652-0.3329-1.8311-0.9988-1.8311C35.6233,42.4483,35.2903,43.1142,35.2903,44.4459z"/>
		<path id="XMLID_1571_" class="st1" d="M39.7849,42.6148L39.7849,42.6148l-0.8324,0.4994l-0.1664-0.4994l0.9988-0.4994h0.4994
			v4.661h-0.4994V42.6148z"/>
		<path id="XMLID_1570_" class="st1" d="M43.2806,42.6148L43.2806,42.6148l-0.8323,0.4994l-0.1665-0.4994l0.9988-0.4994H43.78v4.661
			h-0.6659v-4.1616H43.2806z"/>
		<path id="XMLID_1569_" class="st1" d="M48.6075,44.2794c0,1.4982-0.4994,2.497-1.6647,2.497
			c-0.8323,0-1.4982-0.8323-1.4982-2.3305s0.6659-2.3305,1.6647-2.3305C48.1081,41.9489,48.6075,42.7813,48.6075,44.2794z
			 M46.1105,44.4459c0,1.1652,0.3329,1.8311,0.9988,1.8311c0.6658,0,0.9988-0.6659,0.9988-1.9976
			c0-1.1652-0.333-1.8311-0.9988-1.8311C46.6099,42.4483,46.1105,43.1142,46.1105,44.4459z"/>
		<path id="XMLID_1568_" class="st1" d="M50.605,42.6148L50.605,42.6148l-0.8323,0.4994l-0.1665-0.4994l0.9988-0.4994h0.4994v4.661
			h-0.6658v-4.1616H50.605z"/>
		<path id="XMLID_1567_" class="st1" d="M54.2672,42.6148L54.2672,42.6148l-0.8323,0.4994l-0.1664-0.4994l0.9987-0.4994h0.4994
			v4.661h-0.6658v-4.1616H54.2672z"/>
		<path id="XMLID_1566_" class="st1" d="M57.9295,42.6148L57.9295,42.6148l-0.8324,0.4994l-0.1664-0.4994l0.9988-0.4994h0.4993
			v4.661H57.763v-4.1616H57.9295z"/>
		<path id="XMLID_1565_" class="st1" d="M63.2563,44.2794c0,1.4982-0.4994,2.497-1.6646,2.497
			c-0.8324,0-1.4982-0.8323-1.4982-2.3305s0.6658-2.3305,1.6646-2.3305C62.5904,41.9489,63.2563,42.7813,63.2563,44.2794z
			 M60.7593,44.4459c0,1.1652,0.333,1.8311,0.9988,1.8311c0.6659,0,0.9988-0.6659,0.9988-1.9976
			c0-1.1652-0.3329-1.8311-0.9988-1.8311C61.0923,42.4483,60.7593,43.1142,60.7593,44.4459z"/>
		<path id="XMLID_1564_" class="st1" d="M68.2502,44.2794c0,1.4982-0.4994,2.497-1.6646,2.497
			c-0.8323,0-1.4982-0.8323-1.4982-2.3305s0.6659-2.3305,1.6646-2.3305C67.7508,41.9489,68.2502,42.7813,68.2502,44.2794z
			 M65.7533,44.4459c0,1.1652,0.3329,1.8311,0.9987,1.8311c0.6659,0,0.9988-0.6659,0.9988-1.9976
			c0-1.1652-0.3329-1.8311-0.9988-1.8311C66.2527,42.4483,65.7533,43.1142,65.7533,44.4459z"/>
		<path id="XMLID_1563_" class="st1" d="M71.9124,44.2794c0,1.4982-0.4994,2.497-1.6646,2.497
			c-0.8323,0-1.4982-0.8323-1.4982-2.3305s0.6659-2.3305,1.6647-2.3305C71.413,41.9489,71.9124,42.7813,71.9124,44.2794z
			 M69.4155,44.4459c0,1.1652,0.3329,1.8311,0.9988,1.8311c0.6658,0,0.9987-0.6659,0.9987-1.9976
			c0-1.1652-0.3329-1.8311-0.9987-1.8311C69.9149,42.4483,69.4155,43.1142,69.4155,44.4459z"/>
		<path id="XMLID_1562_" class="st1" d="M73.91,42.6148L73.91,42.6148l-0.8323,0.4994l-0.1665-0.4994l0.9988-0.4994h0.4994v4.661
			h-0.6659v-4.1616H73.91z"/>
		<path id="XMLID_1561_" class="st1" d="M79.2368,44.2794c0,1.4982-0.4994,2.497-1.6646,2.497
			c-0.8323,0-1.4982-0.8323-1.4982-2.3305s0.6659-2.3305,1.6647-2.3305C78.7375,41.9489,79.2368,42.7813,79.2368,44.2794z
			 M76.7399,44.4459c0,1.1652,0.3329,1.8311,0.9988,1.8311c0.6658,0,0.9987-0.6659,0.9987-1.9976
			c0-1.1652-0.3329-1.8311-0.9987-1.8311C77.0728,42.4483,76.7399,43.1142,76.7399,44.4459z"/>
		<path id="XMLID_1560_" class="st1" d="M82.8991,44.2794c0,1.4982-0.4994,2.497-1.6647,2.497
			c-0.8323,0-1.4982-0.8323-1.4982-2.3305s0.6659-2.3305,1.6647-2.3305C82.2332,41.9489,82.8991,42.7813,82.8991,44.2794z
			 M80.4021,44.4459c0,1.1652,0.3329,1.8311,0.9988,1.8311c0.6658,0,0.9988-0.6659,0.9988-1.9976
			c0-1.1652-0.333-1.8311-0.9988-1.8311C80.735,42.4483,80.4021,43.1142,80.4021,44.4459z"/>
		<path id="XMLID_1559_" class="st1" d="M86.5613,44.2794c0,1.4982-0.4994,2.497-1.6647,2.497
			c-0.8323,0-1.4982-0.8323-1.4982-2.3305s0.6659-2.3305,1.6647-2.3305C85.8954,41.9489,86.5613,42.7813,86.5613,44.2794z
			 M84.0643,44.4459c0,1.1652,0.3329,1.8311,0.9988,1.8311c0.6658,0,0.9988-0.6659,0.9988-1.9976
			c0-1.1652-0.333-1.8311-0.9988-1.8311C84.3972,42.4483,84.0643,43.1142,84.0643,44.4459z"/>
		<path id="XMLID_1558_" class="st1" d="M90.057,44.2794c0,1.4982-0.4994,2.497-1.6646,2.497c-0.8324,0-1.4982-0.8323-1.4982-2.3305
			s0.6658-2.3305,1.6646-2.3305C89.5576,41.9489,90.057,42.7813,90.057,44.2794z M87.56,44.4459
			c0,1.1652,0.333,1.8311,0.9988,1.8311c0.6659,0,0.9988-0.6659,0.9988-1.9976c0-1.1652-0.3329-1.8311-0.9988-1.8311
			C88.0594,42.4483,87.56,43.1142,87.56,44.4459z"/>
		<path id="XMLID_1557_" class="st1" d="M93.7192,44.2794c0,1.4982-0.4994,2.497-1.6646,2.497
			c-0.8323,0-1.4982-0.8323-1.4982-2.3305s0.6659-2.3305,1.6646-2.3305C93.2198,41.9489,93.7192,42.7813,93.7192,44.2794z
			 M91.2223,44.4459c0,1.1652,0.3329,1.8311,0.9987,1.8311c0.6659,0,0.9988-0.6659,0.9988-1.9976
			c0-1.1652-0.3329-1.8311-0.9988-1.8311C91.7216,42.4483,91.2223,43.1142,91.2223,44.4459z"/>
		<path id="XMLID_1556_" class="st1" d="M37.7873,52.7691c0,1.4982-0.4994,2.497-1.6646,2.497
			c-0.8324,0-1.4982-0.8324-1.4982-2.3305c0-1.4982,0.6658-2.3305,1.6646-2.3305C37.2879,50.4386,37.7873,51.2709,37.7873,52.7691z
			 M35.2903,52.9356c0,1.1652,0.333,1.8311,0.9988,1.8311c0.6659,0,0.9988-0.6659,0.9988-1.9976
			c0-1.1653-0.3329-1.8311-0.9988-1.8311C35.6233,50.938,35.2903,51.6038,35.2903,52.9356z"/>
		<path id="XMLID_1555_" class="st1" d="M39.7849,51.1045L39.7849,51.1045l-0.8324,0.4993l-0.1664-0.4993l0.9988-0.4994h0.4994
			v4.661h-0.4994V51.1045z"/>
		<path id="XMLID_1554_" class="st1" d="M43.2806,51.1045L43.2806,51.1045l-0.8323,0.4993l-0.1665-0.4993l0.9988-0.4994H43.78v4.661
			h-0.6659v-4.1616H43.2806z"/>
		<path id="XMLID_1553_" class="st1" d="M48.6075,52.7691c0,1.4982-0.4994,2.497-1.6647,2.497
			c-0.8323,0-1.4982-0.8324-1.4982-2.3305c0-1.4982,0.6659-2.3305,1.6647-2.3305C48.1081,50.4386,48.6075,51.2709,48.6075,52.7691z
			 M46.1105,52.9356c0,1.1652,0.3329,1.8311,0.9988,1.8311c0.6658,0,0.9988-0.6659,0.9988-1.9976
			c0-1.1653-0.333-1.8311-0.9988-1.8311C46.6099,50.938,46.1105,51.6038,46.1105,52.9356z"/>
		<path id="XMLID_1552_" class="st1" d="M52.2697,52.7691c0,1.4982-0.4994,2.497-1.6647,2.497
			c-0.8323,0-1.4981-0.8324-1.4981-2.3305c0-1.4982,0.6658-2.3305,1.6646-2.3305C51.7703,50.4386,52.2697,51.2709,52.2697,52.7691z
			 M49.7727,52.9356c0,1.1652,0.3329,1.8311,0.9988,1.8311c0.6658,0,0.9988-0.6659,0.9988-1.9976
			c0-1.1653-0.333-1.8311-0.9988-1.8311C50.2721,50.938,49.7727,51.6038,49.7727,52.9356z"/>
		<path id="XMLID_1551_" class="st1" d="M54.2672,51.1045L54.2672,51.1045l-0.8323,0.4993l-0.1664-0.4993l0.9987-0.4994h0.4994
			v4.661h-0.6658v-4.1616H54.2672z"/>
		<path id="XMLID_1550_" class="st1" d="M59.5941,52.7691c0,1.4982-0.4994,2.497-1.6646,2.497
			c-0.8324,0-1.4982-0.8324-1.4982-2.3305c0-1.4982,0.6658-2.3305,1.6646-2.3305C59.0947,50.4386,59.5941,51.2709,59.5941,52.7691z
			 M57.0971,52.9356c0,1.1652,0.333,1.8311,0.9988,1.8311c0.6659,0,0.9988-0.6659,0.9988-1.9976
			c0-1.1653-0.3329-1.8311-0.9988-1.8311C57.4301,50.938,57.0971,51.6038,57.0971,52.9356z"/>
		<path id="XMLID_1549_" class="st1" d="M63.2563,52.7691c0,1.4982-0.4994,2.497-1.6646,2.497
			c-0.8324,0-1.4982-0.8324-1.4982-2.3305c0-1.4982,0.6658-2.3305,1.6646-2.3305C62.5904,50.4386,63.2563,51.2709,63.2563,52.7691z
			 M60.7593,52.9356c0,1.1652,0.333,1.8311,0.9988,1.8311c0.6659,0,0.9988-0.6659,0.9988-1.9976
			c0-1.1653-0.3329-1.8311-0.9988-1.8311C61.0923,50.938,60.7593,51.6038,60.7593,52.9356z"/>
		<path id="XMLID_1548_" class="st1" d="M68.2502,52.7691c0,1.4982-0.4994,2.497-1.6646,2.497
			c-0.8323,0-1.4982-0.8324-1.4982-2.3305c0-1.4982,0.6659-2.3305,1.6646-2.3305C67.7508,50.4386,68.2502,51.2709,68.2502,52.7691z
			 M65.7533,52.9356c0,1.1652,0.3329,1.8311,0.9987,1.8311c0.6659,0,0.9988-0.6659,0.9988-1.9976
			c0-1.1653-0.3329-1.8311-0.9988-1.8311C66.2527,50.938,65.7533,51.6038,65.7533,52.9356z"/>
		<path id="XMLID_1547_" class="st1" d="M70.2478,51.1045L70.2478,51.1045l-0.8323,0.4993l-0.1665-0.4993l0.9988-0.4994h0.4994
			v4.661h-0.6659v-4.1616H70.2478z"/>
		<path id="XMLID_1546_" class="st1" d="M73.91,51.1045L73.91,51.1045l-0.8323,0.4993l-0.1665-0.4993l0.9988-0.4994h0.4994v4.661
			h-0.6659v-4.1616H73.91z"/>
		<path id="XMLID_1545_" class="st1" d="M79.2368,52.7691c0,1.4982-0.4994,2.497-1.6646,2.497
			c-0.8323,0-1.4982-0.8324-1.4982-2.3305c0-1.4982,0.6659-2.3305,1.6647-2.3305C78.7375,50.4386,79.2368,51.2709,79.2368,52.7691z
			 M76.7399,52.9356c0,1.1652,0.3329,1.8311,0.9988,1.8311c0.6658,0,0.9987-0.6659,0.9987-1.9976
			c0-1.1653-0.3329-1.8311-0.9987-1.8311C77.0728,50.938,76.7399,51.6038,76.7399,52.9356z"/>
		<path id="XMLID_1544_" class="st1" d="M82.8991,52.7691c0,1.4982-0.4994,2.497-1.6647,2.497
			c-0.8323,0-1.4982-0.8324-1.4982-2.3305c0-1.4982,0.6659-2.3305,1.6647-2.3305C82.2332,50.4386,82.8991,51.2709,82.8991,52.7691z
			 M80.4021,52.9356c0,1.1652,0.3329,1.8311,0.9988,1.8311c0.6658,0,0.9988-0.6659,0.9988-1.9976
			c0-1.1653-0.333-1.8311-0.9988-1.8311C80.735,50.938,80.4021,51.6038,80.4021,52.9356z"/>
		<path id="XMLID_1543_" class="st1" d="M84.7302,51.1045L84.7302,51.1045l-0.8324,0.4993l-0.1664-0.4993l0.9988-0.4994h0.4994
			v4.661h-0.4994V51.1045z"/>
		<path id="XMLID_1542_" class="st1" d="M90.057,52.7691c0,1.4982-0.4994,2.497-1.6646,2.497c-0.8324,0-1.4982-0.8324-1.4982-2.3305
			c0-1.4982,0.6658-2.3305,1.6646-2.3305C89.5576,50.4386,90.057,51.2709,90.057,52.7691z M87.56,52.9356
			c0,1.1652,0.333,1.8311,0.9988,1.8311c0.6659,0,0.9988-0.6659,0.9988-1.9976c0-1.1653-0.3329-1.8311-0.9988-1.8311
			C88.0594,50.938,87.56,51.6038,87.56,52.9356z"/>
		<path id="XMLID_1541_" class="st1" d="M92.0546,51.1045L92.0546,51.1045l-0.8323,0.4993l-0.1665-0.4993l0.9988-0.4994h0.4994
			v4.661h-0.6659v-4.1616H92.0546z"/>
		<path id="XMLID_1540_" class="st1" d="M37.7873,61.2588c0,1.4981-0.4994,2.4969-1.6646,2.4969
			c-0.8324,0-1.4982-0.8323-1.4982-2.3305c0-1.4982,0.6658-2.3305,1.6646-2.3305C37.2879,58.9283,37.7873,59.7606,37.7873,61.2588z
			 M35.2903,61.4252c0,1.1653,0.333,1.8311,0.9988,1.8311c0.6659,0,0.9988-0.6658,0.9988-1.9975
			c0-1.1653-0.3329-1.8311-0.9988-1.8311C35.6233,59.4277,35.2903,60.0935,35.2903,61.4252z"/>
		<path id="XMLID_1539_" class="st1" d="M41.4495,61.2588c0,1.4981-0.4994,2.4969-1.6646,2.4969
			c-0.8324,0-1.4982-0.8323-1.4982-2.3305c0-1.4982,0.6658-2.3305,1.6646-2.3305C40.7836,58.9283,41.4495,59.7606,41.4495,61.2588z
			 M38.9525,61.4252c0,1.1653,0.333,1.8311,0.9988,1.8311c0.6659,0,0.9988-0.6658,0.9988-1.9975
			c0-1.1653-0.3329-1.8311-0.9988-1.8311C39.2855,59.4277,38.9525,60.0935,38.9525,61.4252z"/>
		<path id="XMLID_1538_" class="st1" d="M43.2806,59.5941L43.2806,59.5941l-0.8323,0.4994l-0.1665-0.4994l0.9988-0.4994H43.78v4.661
			h-0.6659v-4.1616H43.2806z"/>
		<path id="XMLID_1537_" class="st1" d="M48.6075,61.2588c0,1.4981-0.4994,2.4969-1.6647,2.4969
			c-0.8323,0-1.4982-0.8323-1.4982-2.3305c0-1.4982,0.6659-2.3305,1.6647-2.3305C48.1081,58.9283,48.6075,59.7606,48.6075,61.2588z
			 M46.1105,61.4252c0,1.1653,0.3329,1.8311,0.9988,1.8311c0.6658,0,0.9988-0.6658,0.9988-1.9975
			c0-1.1653-0.333-1.8311-0.9988-1.8311C46.6099,59.4277,46.1105,60.0935,46.1105,61.4252z"/>
		<path id="XMLID_1536_" class="st1" d="M52.2697,61.2588c0,1.4981-0.4994,2.4969-1.6647,2.4969
			c-0.8323,0-1.4981-0.8323-1.4981-2.3305c0-1.4982,0.6658-2.3305,1.6646-2.3305C51.7703,58.9283,52.2697,59.7606,52.2697,61.2588z
			 M49.7727,61.4252c0,1.1653,0.3329,1.8311,0.9988,1.8311c0.6658,0,0.9988-0.6658,0.9988-1.9975
			c0-1.1653-0.333-1.8311-0.9988-1.8311C50.2721,59.4277,49.7727,60.0935,49.7727,61.4252z"/>
		<path id="XMLID_1535_" class="st1" d="M55.9319,61.2588c0,1.4981-0.4994,2.4969-1.6647,2.4969
			c-0.8323,0-1.4981-0.8323-1.4981-2.3305c0-1.4982,0.6658-2.3305,1.6646-2.3305C55.4325,58.9283,55.9319,59.7606,55.9319,61.2588z
			 M53.4349,61.4252c0,1.1653,0.3329,1.8311,0.9988,1.8311s0.9988-0.6658,0.9988-1.9975c0-1.1653-0.3329-1.8311-0.9988-1.8311
			S53.4349,60.0935,53.4349,61.4252z"/>
		<path id="XMLID_1534_" class="st1" d="M59.5941,61.2588c0,1.4981-0.4994,2.4969-1.6646,2.4969
			c-0.8324,0-1.4982-0.8323-1.4982-2.3305c0-1.4982,0.6658-2.3305,1.6646-2.3305C59.0947,58.9283,59.5941,59.7606,59.5941,61.2588z
			 M57.0971,61.4252c0,1.1653,0.333,1.8311,0.9988,1.8311c0.6659,0,0.9988-0.6658,0.9988-1.9975
			c0-1.1653-0.3329-1.8311-0.9988-1.8311C57.4301,59.4277,57.0971,60.0935,57.0971,61.4252z"/>
		<path id="XMLID_1533_" class="st1" d="M63.2563,61.2588c0,1.4981-0.4994,2.4969-1.6646,2.4969
			c-0.8324,0-1.4982-0.8323-1.4982-2.3305c0-1.4982,0.6658-2.3305,1.6646-2.3305C62.5904,58.9283,63.2563,59.7606,63.2563,61.2588z
			 M60.7593,61.4252c0,1.1653,0.333,1.8311,0.9988,1.8311c0.6659,0,0.9988-0.6658,0.9988-1.9975
			c0-1.1653-0.3329-1.8311-0.9988-1.8311C61.0923,59.4277,60.7593,60.0935,60.7593,61.4252z"/>
		<path id="XMLID_1532_" class="st1" d="M68.2502,61.2588c0,1.4981-0.4994,2.4969-1.6646,2.4969
			c-0.8323,0-1.4982-0.8323-1.4982-2.3305c0-1.4982,0.6659-2.3305,1.6646-2.3305C67.7508,58.9283,68.2502,59.7606,68.2502,61.2588z
			 M65.7533,61.4252c0,1.1653,0.3329,1.8311,0.9987,1.8311c0.6659,0,0.9988-0.6658,0.9988-1.9975
			c0-1.1653-0.3329-1.8311-0.9988-1.8311C66.2527,59.4277,65.7533,60.0935,65.7533,61.4252z"/>
		<path id="XMLID_1531_" class="st1" d="M70.2478,59.5941L70.2478,59.5941l-0.8323,0.4994l-0.1665-0.4994l0.9988-0.4994h0.4994
			v4.661h-0.6659v-4.1616H70.2478z"/>
		<path id="XMLID_1530_" class="st1" d="M73.91,59.5941L73.91,59.5941l-0.8323,0.4994l-0.1665-0.4994l0.9988-0.4994h0.4994v4.661
			h-0.6659v-4.1616H73.91z"/>
		<path id="XMLID_1529_" class="st1" d="M79.2368,61.2588c0,1.4981-0.4994,2.4969-1.6646,2.4969
			c-0.8323,0-1.4982-0.8323-1.4982-2.3305c0-1.4982,0.6659-2.3305,1.6647-2.3305C78.7375,58.9283,79.2368,59.7606,79.2368,61.2588z
			 M76.7399,61.4252c0,1.1653,0.3329,1.8311,0.9988,1.8311c0.6658,0,0.9987-0.6658,0.9987-1.9975
			c0-1.1653-0.3329-1.8311-0.9987-1.8311C77.0728,59.4277,76.7399,60.0935,76.7399,61.4252z"/>
		<path id="XMLID_1528_" class="st1" d="M82.8991,61.2588c0,1.4981-0.4994,2.4969-1.6647,2.4969
			c-0.8323,0-1.4982-0.8323-1.4982-2.3305c0-1.4982,0.6659-2.3305,1.6647-2.3305C82.2332,58.9283,82.8991,59.7606,82.8991,61.2588z
			 M80.4021,61.4252c0,1.1653,0.3329,1.8311,0.9988,1.8311c0.6658,0,0.9988-0.6658,0.9988-1.9975
			c0-1.1653-0.333-1.8311-0.9988-1.8311C80.735,59.4277,80.4021,60.0935,80.4021,61.4252z"/>
		<path id="XMLID_1527_" class="st1" d="M86.5613,61.2588c0,1.4981-0.4994,2.4969-1.6647,2.4969
			c-0.8323,0-1.4982-0.8323-1.4982-2.3305c0-1.4982,0.6659-2.3305,1.6647-2.3305C85.8954,58.9283,86.5613,59.7606,86.5613,61.2588z
			 M84.0643,61.4252c0,1.1653,0.3329,1.8311,0.9988,1.8311c0.6658,0,0.9988-0.6658,0.9988-1.9975
			c0-1.1653-0.333-1.8311-0.9988-1.8311C84.3972,59.4277,84.0643,60.0935,84.0643,61.4252z"/>
		<path id="XMLID_1526_" class="st1" d="M90.057,61.2588c0,1.4981-0.4994,2.4969-1.6646,2.4969
			c-0.8324,0-1.4982-0.8323-1.4982-2.3305c0-1.4982,0.6658-2.3305,1.6646-2.3305C89.5576,58.9283,90.057,59.7606,90.057,61.2588z
			 M87.56,61.4252c0,1.1653,0.333,1.8311,0.9988,1.8311c0.6659,0,0.9988-0.6658,0.9988-1.9975c0-1.1653-0.3329-1.8311-0.9988-1.8311
			C88.0594,59.4277,87.56,60.0935,87.56,61.4252z"/>
		<path id="XMLID_1525_" class="st1" d="M92.0546,59.5941L92.0546,59.5941l-0.8323,0.4994l-0.1665-0.4994l0.9988-0.4994h0.4994
			v4.661h-0.6659v-4.1616H92.0546z"/>
		<path id="XMLID_1524_" class="st1" d="M37.7873,69.7484c0,1.4982-0.4994,2.497-1.6646,2.497
			c-0.8324,0-1.4982-0.8323-1.4982-2.3305s0.6658-2.3305,1.6646-2.3305C37.2879,67.4179,37.7873,68.2503,37.7873,69.7484z
			 M35.2903,69.9149c0,1.1652,0.333,1.8311,0.9988,1.8311c0.6659,0,0.9988-0.6659,0.9988-1.9976
			c0-1.1652-0.3329-1.8311-0.9988-1.8311C35.6233,67.9173,35.2903,68.5832,35.2903,69.9149z"/>
		<path id="XMLID_1523_" class="st1" d="M39.7849,68.0838L39.7849,68.0838l-0.8324,0.4994l-0.1664-0.4994l0.9988-0.4994h0.4994
			v4.661h-0.4994V68.0838z"/>
		<path id="XMLID_1522_" class="st1" d="M43.2806,68.0838L43.2806,68.0838l-0.8323,0.4994l-0.1665-0.4994l0.9988-0.4994H43.78v4.661
			h-0.6659v-4.1616H43.2806z"/>
		<path id="XMLID_1521_" class="st1" d="M46.9428,68.0838L46.9428,68.0838l-0.8323,0.4994l-0.1665-0.4994l0.9988-0.4994h0.4994
			v4.661h-0.6658v-4.1616H46.9428z"/>
		<path id="XMLID_1520_" class="st1" d="M52.2697,69.7484c0,1.4982-0.4994,2.497-1.6647,2.497
			c-0.8323,0-1.4981-0.8323-1.4981-2.3305s0.6658-2.3305,1.6646-2.3305C51.7703,67.4179,52.2697,68.2503,52.2697,69.7484z
			 M49.7727,69.9149c0,1.1652,0.3329,1.8311,0.9988,1.8311c0.6658,0,0.9988-0.6659,0.9988-1.9976
			c0-1.1652-0.333-1.8311-0.9988-1.8311C50.2721,67.9173,49.7727,68.5832,49.7727,69.9149z"/>
		<path id="XMLID_1519_" class="st1" d="M55.9319,69.7484c0,1.4982-0.4994,2.497-1.6647,2.497
			c-0.8323,0-1.4981-0.8323-1.4981-2.3305s0.6658-2.3305,1.6646-2.3305C55.4325,67.4179,55.9319,68.2503,55.9319,69.7484z
			 M53.4349,69.9149c0,1.1652,0.3329,1.8311,0.9988,1.8311s0.9988-0.6659,0.9988-1.9976c0-1.1652-0.3329-1.8311-0.9988-1.8311
			S53.4349,68.5832,53.4349,69.9149z"/>
		<path id="XMLID_1518_" class="st1" d="M57.9295,68.0838L57.9295,68.0838l-0.8324,0.4994l-0.1664-0.4994l0.9988-0.4994h0.4993
			v4.661H57.763v-4.1616H57.9295z"/>
		<path id="XMLID_1517_" class="st1" d="M63.2563,69.7484c0,1.4982-0.4994,2.497-1.6646,2.497
			c-0.8324,0-1.4982-0.8323-1.4982-2.3305s0.6658-2.3305,1.6646-2.3305C62.5904,67.4179,63.2563,68.2503,63.2563,69.7484z
			 M60.7593,69.9149c0,1.1652,0.333,1.8311,0.9988,1.8311c0.6659,0,0.9988-0.6659,0.9988-1.9976
			c0-1.1652-0.3329-1.8311-0.9988-1.8311C61.0923,67.9173,60.7593,68.5832,60.7593,69.9149z"/>
		<path id="XMLID_1516_" class="st1" d="M68.2502,69.7484c0,1.4982-0.4994,2.497-1.6646,2.497
			c-0.8323,0-1.4982-0.8323-1.4982-2.3305s0.6659-2.3305,1.6646-2.3305C67.7508,67.4179,68.2502,68.2503,68.2502,69.7484z
			 M65.7533,69.9149c0,1.1652,0.3329,1.8311,0.9987,1.8311c0.6659,0,0.9988-0.6659,0.9988-1.9976
			c0-1.1652-0.3329-1.8311-0.9988-1.8311C66.2527,67.9173,65.7533,68.5832,65.7533,69.9149z"/>
		<path id="XMLID_1515_" class="st1" d="M70.2478,68.0838L70.2478,68.0838l-0.8323,0.4994l-0.1665-0.4994l0.9988-0.4994h0.4994
			v4.661h-0.6659v-4.1616H70.2478z"/>
		<path id="XMLID_1514_" class="st1" d="M73.91,68.0838L73.91,68.0838l-0.8323,0.4994l-0.1665-0.4994l0.9988-0.4994h0.4994v4.661
			h-0.6659v-4.1616H73.91z"/>
		<path id="XMLID_1513_" class="st1" d="M79.2368,69.7484c0,1.4982-0.4994,2.497-1.6646,2.497
			c-0.8323,0-1.4982-0.8323-1.4982-2.3305s0.6659-2.3305,1.6647-2.3305C78.7375,67.4179,79.2368,68.2503,79.2368,69.7484z
			 M76.7399,69.9149c0,1.1652,0.3329,1.8311,0.9988,1.8311c0.6658,0,0.9987-0.6659,0.9987-1.9976
			c0-1.1652-0.3329-1.8311-0.9987-1.8311C77.0728,67.9173,76.7399,68.5832,76.7399,69.9149z"/>
		<path id="XMLID_1512_" class="st1" d="M82.8991,69.7484c0,1.4982-0.4994,2.497-1.6647,2.497
			c-0.8323,0-1.4982-0.8323-1.4982-2.3305s0.6659-2.3305,1.6647-2.3305C82.2332,67.4179,82.8991,68.2503,82.8991,69.7484z
			 M80.4021,69.9149c0,1.1652,0.3329,1.8311,0.9988,1.8311c0.6658,0,0.9988-0.6659,0.9988-1.9976
			c0-1.1652-0.333-1.8311-0.9988-1.8311C80.735,67.9173,80.4021,68.5832,80.4021,69.9149z"/>
		<path id="XMLID_1511_" class="st1" d="M86.5613,69.7484c0,1.4982-0.4994,2.497-1.6647,2.497
			c-0.8323,0-1.4982-0.8323-1.4982-2.3305s0.6659-2.3305,1.6647-2.3305C85.8954,67.4179,86.5613,68.2503,86.5613,69.7484z
			 M84.0643,69.9149c0,1.1652,0.3329,1.8311,0.9988,1.8311c0.6658,0,0.9988-0.6659,0.9988-1.9976
			c0-1.1652-0.333-1.8311-0.9988-1.8311C84.3972,67.9173,84.0643,68.5832,84.0643,69.9149z"/>
		<path id="XMLID_1510_" class="st1" d="M88.3924,68.0838L88.3924,68.0838L87.56,68.5832l-0.1664-0.4994l0.9988-0.4994h0.4994v4.661
			h-0.6659v-4.1616H88.3924z"/>
		<path id="XMLID_1509_" class="st1" d="M92.0546,68.0838L92.0546,68.0838l-0.8323,0.4994l-0.1665-0.4994l0.9988-0.4994h0.4994
			v4.661h-0.6659v-4.1616H92.0546z"/>
		<path id="XMLID_1508_" class="st1" d="M37.7873,78.2381c0,1.4982-0.4994,2.497-1.6646,2.497
			c-0.8324,0-1.4982-0.8324-1.4982-2.3305c0-1.4982,0.6658-2.3305,1.6646-2.3305C37.2879,75.9076,37.7873,76.7399,37.7873,78.2381z
			 M35.2903,78.4046c0,1.1652,0.333,1.8311,0.9988,1.8311c0.6659,0,0.9988-0.6659,0.9988-1.9976
			c0-1.1652-0.3329-1.8311-0.9988-1.8311C35.6233,76.407,35.2903,77.0729,35.2903,78.4046z"/>
		<path id="XMLID_1507_" class="st1" d="M39.7849,76.5735L39.7849,76.5735l-0.8324,0.4994l-0.1664-0.4994l0.9988-0.4994h0.4994
			v4.4945h-0.4994V76.5735z"/>
		<path id="XMLID_1506_" class="st1" d="M43.2806,76.5735L43.2806,76.5735l-0.8323,0.4994l-0.1665-0.4994l0.9988-0.4994H43.78
			v4.4945h-0.6659v-3.9951H43.2806z"/>
		<path id="XMLID_1505_" class="st1" d="M48.6075,78.2381c0,1.4982-0.4994,2.497-1.6647,2.497
			c-0.8323,0-1.4982-0.8324-1.4982-2.3305c0-1.4982,0.6659-2.3305,1.6647-2.3305C48.1081,75.9076,48.6075,76.7399,48.6075,78.2381z
			 M46.1105,78.4046c0,1.1652,0.3329,1.8311,0.9988,1.8311c0.6658,0,0.9988-0.6659,0.9988-1.9976
			c0-1.1652-0.333-1.8311-0.9988-1.8311C46.6099,76.407,46.1105,77.0729,46.1105,78.4046z"/>
		<path id="XMLID_1504_" class="st1" d="M50.605,76.5735L50.605,76.5735l-0.8323,0.4994l-0.1665-0.4994l0.9988-0.4994h0.4994v4.4945
			h-0.6658v-3.9951H50.605z"/>
		<path id="XMLID_1503_" class="st1" d="M55.9319,78.2381c0,1.4982-0.4994,2.497-1.6647,2.497
			c-0.8323,0-1.4981-0.8324-1.4981-2.3305c0-1.4982,0.6658-2.3305,1.6646-2.3305C55.4325,75.9076,55.9319,76.7399,55.9319,78.2381z
			 M53.4349,78.4046c0,1.1652,0.3329,1.8311,0.9988,1.8311s0.9988-0.6659,0.9988-1.9976c0-1.1652-0.3329-1.8311-0.9988-1.8311
			S53.4349,77.0729,53.4349,78.4046z"/>
		<path id="XMLID_1502_" class="st1" d="M59.5941,78.2381c0,1.4982-0.4994,2.497-1.6646,2.497
			c-0.8324,0-1.4982-0.8324-1.4982-2.3305c0-1.4982,0.6658-2.3305,1.6646-2.3305C59.0947,75.9076,59.5941,76.7399,59.5941,78.2381z
			 M57.0971,78.4046c0,1.1652,0.333,1.8311,0.9988,1.8311c0.6659,0,0.9988-0.6659,0.9988-1.9976
			c0-1.1652-0.3329-1.8311-0.9988-1.8311C57.4301,76.407,57.0971,77.0729,57.0971,78.4046z"/>
		<path id="XMLID_1501_" class="st1" d="M63.2563,78.2381c0,1.4982-0.4994,2.497-1.6646,2.497
			c-0.8324,0-1.4982-0.8324-1.4982-2.3305c0-1.4982,0.6658-2.3305,1.6646-2.3305C62.5904,75.9076,63.2563,76.7399,63.2563,78.2381z
			 M60.7593,78.4046c0,1.1652,0.333,1.8311,0.9988,1.8311c0.6659,0,0.9988-0.6659,0.9988-1.9976
			c0-1.1652-0.3329-1.8311-0.9988-1.8311C61.0923,76.407,60.7593,77.0729,60.7593,78.4046z"/>
		<path id="XMLID_1500_" class="st1" d="M68.2502,78.2381c0,1.4982-0.4994,2.497-1.6646,2.497
			c-0.8323,0-1.4982-0.8324-1.4982-2.3305c0-1.4982,0.6659-2.3305,1.6646-2.3305C67.7508,75.9076,68.2502,76.7399,68.2502,78.2381z
			 M65.7533,78.4046c0,1.1652,0.3329,1.8311,0.9987,1.8311c0.6659,0,0.9988-0.6659,0.9988-1.9976
			c0-1.1652-0.3329-1.8311-0.9988-1.8311C66.2527,76.407,65.7533,77.0729,65.7533,78.4046z"/>
		<path id="XMLID_1499_" class="st1" d="M70.2478,76.5735L70.2478,76.5735l-0.8323,0.4994l-0.1665-0.4994l0.9988-0.4994h0.4994
			v4.4945h-0.6659v-3.9951H70.2478z"/>
		<path id="XMLID_1498_" class="st1" d="M73.91,76.5735L73.91,76.5735l-0.8323,0.4994l-0.1665-0.4994l0.9988-0.4994h0.4994v4.4945
			h-0.6659v-3.9951H73.91z"/>
		<path id="XMLID_1497_" class="st1" d="M79.2368,78.2381c0,1.4982-0.4994,2.497-1.6646,2.497
			c-0.8323,0-1.4982-0.8324-1.4982-2.3305c0-1.4982,0.6659-2.3305,1.6647-2.3305C78.7375,75.9076,79.2368,76.7399,79.2368,78.2381z
			 M76.7399,78.4046c0,1.1652,0.3329,1.8311,0.9988,1.8311c0.6658,0,0.9987-0.6659,0.9987-1.9976
			c0-1.1652-0.3329-1.8311-0.9987-1.8311C77.0728,76.407,76.7399,77.0729,76.7399,78.4046z"/>
		<path id="XMLID_1496_" class="st1" d="M81.068,76.5735L81.068,76.5735l-0.8324,0.4994l-0.1664-0.4994l0.9988-0.4994h0.4994v4.4945
			h-0.6659v-3.9951H81.068z"/>
		<path id="XMLID_1495_" class="st1" d="M86.5613,78.2381c0,1.4982-0.4994,2.497-1.6647,2.497
			c-0.8323,0-1.4982-0.8324-1.4982-2.3305c0-1.4982,0.6659-2.3305,1.6647-2.3305C85.8954,75.9076,86.5613,76.7399,86.5613,78.2381z
			 M84.0643,78.4046c0,1.1652,0.3329,1.8311,0.9988,1.8311c0.6658,0,0.9988-0.6659,0.9988-1.9976
			c0-1.1652-0.333-1.8311-0.9988-1.8311C84.3972,76.407,84.0643,77.0729,84.0643,78.4046z"/>
		<path id="XMLID_1494_" class="st1" d="M90.057,78.2381c0,1.4982-0.4994,2.497-1.6646,2.497c-0.8324,0-1.4982-0.8324-1.4982-2.3305
			c0-1.4982,0.6658-2.3305,1.6646-2.3305C89.5576,75.9076,90.057,76.7399,90.057,78.2381z M87.56,78.4046
			c0,1.1652,0.333,1.8311,0.9988,1.8311c0.6659,0,0.9988-0.6659,0.9988-1.9976c0-1.1652-0.3329-1.8311-0.9988-1.8311
			C88.0594,76.407,87.56,77.0729,87.56,78.4046z"/>
		<path id="XMLID_1493_" class="st1" d="M92.0546,76.5735L92.0546,76.5735l-0.8323,0.4994l-0.1665-0.4994l0.9988-0.4994h0.4994
			v4.4945h-0.6659v-3.9951H92.0546z"/>
		<path id="XMLID_1492_" class="st1" d="M37.7873,86.7278c0,1.4981-0.4994,2.4969-1.6646,2.4969
			c-0.8324,0-1.4982-0.8323-1.4982-2.3305s0.6658-2.3305,1.6646-2.3305C37.2879,84.3973,37.7873,85.2296,37.7873,86.7278z
			 M35.2903,86.8942c0,1.1653,0.333,1.8311,0.9988,1.8311c0.6659,0,0.9988-0.6658,0.9988-1.9975
			c0-1.1653-0.3329-1.8311-0.9988-1.8311C35.6233,84.8967,35.2903,85.5625,35.2903,86.8942z"/>
		<path id="XMLID_1491_" class="st1" d="M39.7849,85.0631L39.7849,85.0631l-0.8324,0.4994l-0.1664-0.4994l0.9988-0.4994h0.4994
			v4.661h-0.4994V85.0631z"/>
		<path id="XMLID_1490_" class="st1" d="M43.2806,85.0631L43.2806,85.0631l-0.8323,0.4994l-0.1665-0.4994l0.9988-0.4994H43.78v4.661
			h-0.6659v-4.1616H43.2806z"/>
		<path id="XMLID_1489_" class="st1" d="M46.9428,85.0631L46.9428,85.0631l-0.8323,0.4994l-0.1665-0.4994l0.9988-0.4994h0.4994
			v4.661h-0.6658v-4.1616H46.9428z"/>
		<path id="XMLID_1488_" class="st1" d="M52.2697,86.7278c0,1.4981-0.4994,2.4969-1.6647,2.4969
			c-0.8323,0-1.4981-0.8323-1.4981-2.3305s0.6658-2.3305,1.6646-2.3305C51.7703,84.3973,52.2697,85.2296,52.2697,86.7278z
			 M49.7727,86.8942c0,1.1653,0.3329,1.8311,0.9988,1.8311c0.6658,0,0.9988-0.6658,0.9988-1.9975
			c0-1.1653-0.333-1.8311-0.9988-1.8311C50.2721,84.8967,49.7727,85.5625,49.7727,86.8942z"/>
		<path id="XMLID_1487_" class="st1" d="M54.2672,85.0631L54.2672,85.0631l-0.8323,0.4994l-0.1664-0.4994l0.9987-0.4994h0.4994
			v4.661h-0.6658v-4.1616H54.2672z"/>
		<path id="XMLID_1486_" class="st1" d="M57.9295,85.0631L57.9295,85.0631l-0.8324,0.4994l-0.1664-0.4994l0.9988-0.4994h0.4993
			v4.661H57.763v-4.1616H57.9295z"/>
		<path id="XMLID_1485_" class="st1" d="M63.2563,86.7278c0,1.4981-0.4994,2.4969-1.6646,2.4969
			c-0.8324,0-1.4982-0.8323-1.4982-2.3305s0.6658-2.3305,1.6646-2.3305C62.5904,84.3973,63.2563,85.2296,63.2563,86.7278z
			 M60.7593,86.8942c0,1.1653,0.333,1.8311,0.9988,1.8311c0.6659,0,0.9988-0.6658,0.9988-1.9975
			c0-1.1653-0.3329-1.8311-0.9988-1.8311C61.0923,84.8967,60.7593,85.5625,60.7593,86.8942z"/>
		<path id="XMLID_1484_" class="st1" d="M68.2502,86.7278c0,1.4981-0.4994,2.4969-1.6646,2.4969
			c-0.8323,0-1.4982-0.8323-1.4982-2.3305s0.6659-2.3305,1.6646-2.3305C67.7508,84.3973,68.2502,85.2296,68.2502,86.7278z
			 M65.7533,86.8942c0,1.1653,0.3329,1.8311,0.9987,1.8311c0.6659,0,0.9988-0.6658,0.9988-1.9975
			c0-1.1653-0.3329-1.8311-0.9988-1.8311C66.2527,84.8967,65.7533,85.5625,65.7533,86.8942z"/>
		<path id="XMLID_1483_" class="st1" d="M70.2478,85.0631L70.2478,85.0631l-0.8323,0.4994l-0.1665-0.4994l0.9988-0.4994h0.4994
			v4.661h-0.6659v-4.1616H70.2478z"/>
		<path id="XMLID_1482_" class="st1" d="M73.91,85.0631L73.91,85.0631l-0.8323,0.4994l-0.1665-0.4994l0.9988-0.4994h0.4994v4.661
			h-0.6659v-4.1616H73.91z"/>
		<path id="XMLID_1481_" class="st1" d="M79.2368,86.7278c0,1.4981-0.4994,2.4969-1.6646,2.4969
			c-0.8323,0-1.4982-0.8323-1.4982-2.3305s0.6659-2.3305,1.6647-2.3305C78.7375,84.3973,79.2368,85.2296,79.2368,86.7278z
			 M76.7399,86.8942c0,1.1653,0.3329,1.8311,0.9988,1.8311c0.6658,0,0.9987-0.6658,0.9987-1.9975
			c0-1.1653-0.3329-1.8311-0.9987-1.8311C77.0728,84.8967,76.7399,85.5625,76.7399,86.8942z"/>
		<path id="XMLID_1480_" class="st1" d="M81.068,85.0631L81.068,85.0631l-0.6659,0.4994l-0.1665-0.4994l0.9988-0.4994h0.4994v4.661
			H81.068V85.0631z"/>
		<path id="XMLID_1479_" class="st1" d="M84.7302,85.0631L84.7302,85.0631l-0.8324,0.4994l-0.1664-0.4994l0.9988-0.4994h0.4994
			v4.661h-0.4994V85.0631z"/>
		<path id="XMLID_1478_" class="st1" d="M88.3924,85.0631L88.3924,85.0631L87.56,85.5625l-0.1664-0.4994l0.9988-0.4994h0.4994v4.661
			h-0.6659v-4.1616H88.3924z"/>
		<path id="XMLID_1477_" class="st1" d="M92.0546,85.0631L92.0546,85.0631l-0.8323,0.4994l-0.1665-0.4994l0.9988-0.4994h0.4994
			v4.661h-0.6659v-4.1616H92.0546z"/>
		<path id="XMLID_1476_" class="st1" d="M37.7873,95.2174c0,1.4982-0.4994,2.497-1.6646,2.497
			c-0.8324,0-1.4982-0.8323-1.4982-2.3305c0-1.4982,0.6658-2.3305,1.6646-2.3305C37.2879,92.8869,37.7873,93.8857,37.7873,95.2174z
			 M35.2903,95.3839c0,1.1652,0.333,1.8311,0.9988,1.8311c0.6659,0,0.9988-0.6659,0.9988-1.9976
			c0-1.1652-0.3329-1.8311-0.9988-1.8311C35.6233,93.3863,35.2903,94.0522,35.2903,95.3839z"/>
		<path id="XMLID_1475_" class="st1" d="M39.7849,93.5528L39.7849,93.5528l-0.8324,0.4994l-0.1664-0.4994l0.9988-0.4994h0.4994
			v4.661h-0.4994V93.5528z"/>
		<path id="XMLID_1474_" class="st1" d="M43.2806,93.5528L43.2806,93.5528l-0.8323,0.4994l-0.1665-0.4994l0.9988-0.4994H43.78v4.661
			h-0.6659v-4.1616H43.2806z"/>
		<path id="XMLID_1473_" class="st1" d="M46.9428,93.5528L46.9428,93.5528l-0.8323,0.4994l-0.1665-0.4994l0.9988-0.4994h0.4994
			v4.661h-0.6658v-4.1616H46.9428z"/>
		<path id="XMLID_1472_" class="st1" d="M52.2697,95.2174c0,1.4982-0.4994,2.497-1.6647,2.497
			c-0.8323,0-1.4981-0.8323-1.4981-2.3305c0-1.4982,0.6658-2.3305,1.6646-2.3305C51.7703,92.8869,52.2697,93.8857,52.2697,95.2174z
			 M49.7727,95.3839c0,1.1652,0.3329,1.8311,0.9988,1.8311c0.6658,0,0.9988-0.6659,0.9988-1.9976
			c0-1.1652-0.333-1.8311-0.9988-1.8311C50.2721,93.3863,49.7727,94.0522,49.7727,95.3839z"/>
		<path id="XMLID_1471_" class="st1" d="M55.9319,95.2174c0,1.4982-0.4994,2.497-1.6647,2.497
			c-0.8323,0-1.4981-0.8323-1.4981-2.3305c0-1.4982,0.6658-2.3305,1.6646-2.3305C55.4325,92.8869,55.9319,93.8857,55.9319,95.2174z
			 M53.4349,95.3839c0,1.1652,0.3329,1.8311,0.9988,1.8311s0.9988-0.6659,0.9988-1.9976c0-1.1652-0.3329-1.8311-0.9988-1.8311
			S53.4349,94.0522,53.4349,95.3839z"/>
		<path id="XMLID_1470_" class="st1" d="M57.9295,93.5528L57.9295,93.5528l-0.8324,0.4994l-0.1664-0.4994l0.9988-0.4994h0.4993
			v4.661H57.763v-4.1616H57.9295z"/>
		<path id="XMLID_1469_" class="st1" d="M61.4252,93.5528L61.4252,93.5528l-0.8323,0.4994l-0.1665-0.4994l0.9988-0.4994h0.4994
			v4.661h-0.4994V93.5528z"/>
		<path id="XMLID_1468_" class="st1" d="M68.2502,95.2174c0,1.4982-0.4994,2.497-1.6646,2.497
			c-0.8323,0-1.4982-0.8323-1.4982-2.3305c0-1.4982,0.6659-2.3305,1.6646-2.3305C67.7508,92.8869,68.2502,93.8857,68.2502,95.2174z
			 M65.7533,95.3839c0,1.1652,0.3329,1.8311,0.9987,1.8311c0.6659,0,0.9988-0.6659,0.9988-1.9976
			c0-1.1652-0.3329-1.8311-0.9988-1.8311C66.2527,93.3863,65.7533,94.0522,65.7533,95.3839z"/>
		<path id="XMLID_1467_" class="st1" d="M70.2478,93.5528L70.2478,93.5528l-0.8323,0.4994l-0.1665-0.4994l0.9988-0.4994h0.4994
			v4.661h-0.6659v-4.1616H70.2478z"/>
		<path id="XMLID_1466_" class="st1" d="M75.5746,95.2174c0,1.4982-0.4994,2.497-1.6646,2.497
			c-0.8323,0-1.4982-0.8323-1.4982-2.3305c0-1.4982,0.6659-2.3305,1.6647-2.3305C75.0752,92.8869,75.5746,93.8857,75.5746,95.2174z
			 M73.0777,95.3839c0,1.1652,0.3329,1.8311,0.9988,1.8311c0.6658,0,0.9987-0.6659,0.9987-1.9976
			c0-1.1652-0.3329-1.8311-0.9987-1.8311C73.4106,93.3863,73.0777,94.0522,73.0777,95.3839z"/>
		<path id="XMLID_1465_" class="st1" d="M79.2368,95.2174c0,1.4982-0.4994,2.497-1.6646,2.497
			c-0.8323,0-1.4982-0.8323-1.4982-2.3305c0-1.4982,0.6659-2.3305,1.6647-2.3305C78.7375,92.8869,79.2368,93.8857,79.2368,95.2174z
			 M76.7399,95.3839c0,1.1652,0.3329,1.8311,0.9988,1.8311c0.6658,0,0.9987-0.6659,0.9987-1.9976
			c0-1.1652-0.3329-1.8311-0.9987-1.8311C77.0728,93.3863,76.7399,94.0522,76.7399,95.3839z"/>
		<path id="XMLID_1464_" class="st1" d="M82.8991,95.2174c0,1.4982-0.4994,2.497-1.6647,2.497
			c-0.8323,0-1.4982-0.8323-1.4982-2.3305c0-1.4982,0.6659-2.3305,1.6647-2.3305C82.2332,92.8869,82.8991,93.8857,82.8991,95.2174z
			 M80.4021,95.3839c0,1.1652,0.3329,1.8311,0.9988,1.8311c0.6658,0,0.9988-0.6659,0.9988-1.9976
			c0-1.1652-0.333-1.8311-0.9988-1.8311C80.735,93.3863,80.4021,94.0522,80.4021,95.3839z"/>
		<path id="XMLID_1463_" class="st1" d="M84.7302,93.5528L84.7302,93.5528l-0.8324,0.4994l-0.1664-0.4994l0.9988-0.4994h0.4994
			v4.661h-0.4994V93.5528z"/>
		<path id="XMLID_1462_" class="st1" d="M88.3924,93.5528L88.3924,93.5528L87.56,94.0522l-0.1664-0.4994l0.9988-0.4994h0.4994v4.661
			h-0.6659v-4.1616H88.3924z"/>
		<path id="XMLID_1461_" class="st1" d="M92.0546,93.5528L92.0546,93.5528l-0.8323,0.4994l-0.1665-0.4994l0.9988-0.4994h0.4994
			v4.661h-0.6659v-4.1616H92.0546z"/>
	</g>
</g>
</svg>
