<?xml version="1.0" encoding="utf-8"?>
<!-- Generator: Adobe Illustrator 21.0.0, SVG Export Plug-In . SVG Version: 6.00 Build 0)  -->
<svg version="1.1" id="Capa_1" xmlns="http://www.w3.org/2000/svg" xmlns:xlink="http://www.w3.org/1999/xlink" x="0px" y="0px"
	 viewBox="0 0 237.9451 237.9466" style="enable-background:new 0 0 237.9451 237.9466;" xml:space="preserve">
<g>
	
		<linearGradient id="XMLID_2_" gradientUnits="userSpaceOnUse" x1="-1.2935" y1="121.0266" x2="246.3336" y2="121.0266" gradientTransform="matrix(1 0 0 -1 0 240)">
		<stop  offset="0" style="stop-color:#EEBE47"/>
		<stop  offset="0.1204" style="stop-color:#F8DB77"/>
		<stop  offset="0.2097" style="stop-color:#FFEE96"/>
		<stop  offset="0.4462" style="stop-color:#A2621E"/>
		<stop  offset="0.6667" style="stop-color:#EEA54C"/>
		<stop  offset="1" style="stop-color:#EEBE47"/>
	</linearGradient>
	<path id="XMLID_1830_" style="fill:url(#XMLID_2_);" d="M165.1711,228.078c-6.106,7.4795-18.5777,11.0459-27.7139,7.9297
		c-9.1377-3.1191-24-2.8672-33.0273,0.5537c-9.0288,3.4239-21.6123,0.2793-27.9673-6.9922
		c-6.3516-7.2675-19.3462-14.4804-28.877-16.0293c-9.5307-1.5537-18.8569-10.5683-20.7231-20.04
		c-1.8662-9.4756-9.5156-22.2197-16.9942-28.3262c-7.4799-6.1084-11.0483-18.5791-7.9301-27.7158
		c3.1191-9.1367,2.8686-23.999-0.5547-33.0264c-3.4219-9.0273-0.2739-21.6142,6.9931-27.9707
		c7.2696-6.3505,14.4849-19.3476,16.0337-28.8789c1.5503-9.5244,10.5664-18.8496,20.0386-20.7226
		c9.4717-1.8682,22.2178-9.5147,28.3232-16.9932c6.106-7.4756,18.5806-11.042,27.7173-7.9258
		c9.1363,3.1192,23.9986,2.8692,33.0259-0.5566c9.0274-3.4209,21.6138-0.2773,27.9712,6.9912
		c6.3545,7.2715,19.3462,14.4854,28.877,16.0342c9.5293,1.5488,18.8544,10.5683,20.7221,20.041
		c1.8672,9.4736,9.5166,22.2168,16.9922,28.3242c7.4785,6.1084,11.0459,18.5781,7.9287,27.7158s-2.8681,24,0.5537,33.0274
		c3.4234,9.0273,0.2784,21.6103-6.9922,27.9658c-7.2661,6.3555-14.4819,19.3525-16.0293,28.8779
		c-1.5502,9.5284-10.5693,18.8565-20.041,20.7237C184.0256,212.9579,171.2785,220.6034,165.1711,228.078z"/>
	
		<linearGradient id="XMLID_3_" gradientUnits="userSpaceOnUse" x1="-2539.5898" y1="2685.2451" x2="-2324.6367" y2="2470.292" gradientTransform="matrix(-1 0 0 1 -2334.064 -2479.7175)">
		<stop  offset="0" style="stop-color:#EEBE47"/>
		<stop  offset="0.1204" style="stop-color:#F8DB77"/>
		<stop  offset="0.2097" style="stop-color:#FFEE96"/>
		<stop  offset="0.4462" style="stop-color:#A2621E"/>
		<stop  offset="0.6667" style="stop-color:#EEA54C"/>
		<stop  offset="1" style="stop-color:#EEBE47"/>
	</linearGradient>
	<circle id="XMLID_1828_" style="fill:url(#XMLID_3_);" cx="118.9719" cy="118.9737" r="111.4206"/>
	
		<radialGradient id="XMLID_4_" cx="81.4431" cy="198.9453" r="212.3294" gradientTransform="matrix(1 0 0 -1 0 240)" gradientUnits="userSpaceOnUse">
		<stop  offset="0" style="stop-color:#304053"/>
		<stop  offset="0.2258" style="stop-color:#2C3C4F"/>
		<stop  offset="0.5161" style="stop-color:#0D1D30"/>
		<stop  offset="1" style="stop-color:#060D29"/>
	</radialGradient>
	<circle id="XMLID_1827_" style="fill:url(#XMLID_4_);" cx="118.9721" cy="118.974" r="109.7437"/>
	
		<linearGradient id="XMLID_5_" gradientUnits="userSpaceOnUse" x1="-2533.811" y1="2665.8691" x2="-2374.1821" y2="2533.1113" gradientTransform="matrix(-1 0 0 1 -2334.064 -2479.7175)">
		<stop  offset="0" style="stop-color:#EEBE47"/>
		<stop  offset="0.1204" style="stop-color:#F8DB77"/>
		<stop  offset="0.2097" style="stop-color:#FFEE96"/>
		<stop  offset="0.4462" style="stop-color:#A2621E"/>
		<stop  offset="0.6667" style="stop-color:#EEA54C"/>
		<stop  offset="1" style="stop-color:#EEBE47"/>
	</linearGradient>
	<circle id="XMLID_1826_" style="fill:url(#XMLID_5_);" cx="118.9719" cy="118.9737" r="105.7537"/>
	
		<linearGradient id="XMLID_6_" gradientUnits="userSpaceOnUse" x1="60.7316" y1="207.7396" x2="180.4529" y2="29.4883" gradientTransform="matrix(1 0 0 -1 0 240)">
		<stop  offset="0" style="stop-color:#EEBE47"/>
		<stop  offset="0.1204" style="stop-color:#F8DB77"/>
		<stop  offset="0.2097" style="stop-color:#FFEE96"/>
		<stop  offset="0.4462" style="stop-color:#A2621E"/>
		<stop  offset="0.6667" style="stop-color:#EEA54C"/>
		<stop  offset="1" style="stop-color:#EEBE47"/>
	</linearGradient>
	<circle id="XMLID_1825_" style="fill:url(#XMLID_6_);" cx="118.9722" cy="118.974" r="103.6242"/>
	
		<radialGradient id="XMLID_7_" cx="69.2318" cy="147.8292" r="135.7324" gradientTransform="matrix(1 0 0 -1 0 240)" gradientUnits="userSpaceOnUse">
		<stop  offset="0" style="stop-color:#304053"/>
		<stop  offset="0.2258" style="stop-color:#2C3C4F"/>
		<stop  offset="0.5161" style="stop-color:#0D1D30"/>
		<stop  offset="1" style="stop-color:#060D29"/>
	</radialGradient>
	<circle id="XMLID_1824_" style="fill:url(#XMLID_7_);" cx="118.9719" cy="118.9737" r="73.4289"/>
	
		<linearGradient id="XMLID_8_" gradientUnits="userSpaceOnUse" x1="79.4657" y1="181.669" x2="171.3841" y2="40.575" gradientTransform="matrix(1 0 0 -1 0 240)">
		<stop  offset="0" style="stop-color:#EEBE47"/>
		<stop  offset="0.1204" style="stop-color:#F8DB77"/>
		<stop  offset="0.2097" style="stop-color:#FFEE96"/>
		<stop  offset="0.4462" style="stop-color:#A2621E"/>
		<stop  offset="0.6667" style="stop-color:#EEA54C"/>
		<stop  offset="1" style="stop-color:#EEBE47"/>
	</linearGradient>
	<circle id="XMLID_1823_" style="fill:url(#XMLID_8_);" cx="118.9725" cy="118.9737" r="70.3021"/>
	<g id="XMLID_1729_" style="opacity:0.6;">
		
			<linearGradient id="XMLID_9_" gradientUnits="userSpaceOnUse" x1="-2.6919" y1="146.1003" x2="185.6528" y2="6.4378" gradientTransform="matrix(1 0 0 -1 0 240)">
			<stop  offset="0" style="stop-color:#EEBE47"/>
			<stop  offset="0.1204" style="stop-color:#F8DB77"/>
			<stop  offset="0.2097" style="stop-color:#FFEE96"/>
			<stop  offset="0.4462" style="stop-color:#A2621E"/>
			<stop  offset="0.6667" style="stop-color:#EEA54C"/>
			<stop  offset="1" style="stop-color:#EEBE47"/>
		</linearGradient>
		<polygon id="XMLID_1755_" style="fill:url(#XMLID_9_);" points="37.3561,125.8739 32.1589,122.7958 26.9631,125.8788 
			28.2839,119.9833 23.7453,115.995 29.7599,115.4296 32.1535,109.8798 34.5505,115.4267 40.5656,115.9872 36.0309,119.9804 		"/>
		
			<linearGradient id="XMLID_10_" gradientUnits="userSpaceOnUse" x1="60.3446" y1="231.1396" x2="248.7203" y2="91.4542" gradientTransform="matrix(1 0 0 -1 0 240)">
			<stop  offset="0" style="stop-color:#EEBE47"/>
			<stop  offset="0.1204" style="stop-color:#F8DB77"/>
			<stop  offset="0.2097" style="stop-color:#FFEE96"/>
			<stop  offset="0.4462" style="stop-color:#A2621E"/>
			<stop  offset="0.6667" style="stop-color:#EEA54C"/>
			<stop  offset="1" style="stop-color:#EEBE47"/>
		</linearGradient>
		<polygon id="XMLID_1754_" style="fill:url(#XMLID_10_);" points="215.0763,125.8739 209.8776,122.7958 204.6804,125.8788 
			206.0026,119.9833 201.464,115.995 207.4762,115.4296 209.8718,109.8798 212.2692,115.4267 218.2844,115.9872 213.7497,119.9804 
					"/>
	</g>
	<g id="XMLID_1636_">
		
			<radialGradient id="XMLID_11_" cx="57.5297" cy="178.8257" r="463.616" gradientTransform="matrix(1 0 0 -1 0 240)" gradientUnits="userSpaceOnUse">
			<stop  offset="0.0591" style="stop-color:#2C3C4F"/>
			<stop  offset="0.5161" style="stop-color:#0D1D30"/>
			<stop  offset="1" style="stop-color:#060D29"/>
		</radialGradient>
		<polygon id="XMLID_1662_" style="fill:url(#XMLID_11_);" points="36.3581,125.1435 31.1608,122.0644 25.965,125.1474 
			27.2858,119.2519 22.7458,115.2646 28.7619,114.6982 31.155,109.1483 33.5539,114.6952 39.5676,115.2558 35.0344,119.2489 		"/>
		
			<radialGradient id="XMLID_12_" cx="57.512" cy="178.8257" r="463.6404" gradientTransform="matrix(1 0 0 -1 0 240)" gradientUnits="userSpaceOnUse">
			<stop  offset="0.0591" style="stop-color:#2C3C4F"/>
			<stop  offset="0.5161" style="stop-color:#0D1D30"/>
			<stop  offset="1" style="stop-color:#060D29"/>
		</radialGradient>
		<polygon id="XMLID_1661_" style="fill:url(#XMLID_12_);" points="214.0783,125.1435 208.8796,122.0644 203.6838,125.1474 
			205.0046,119.2519 200.4645,115.2646 206.4811,114.6982 208.8752,109.1483 211.2712,114.6952 217.2863,115.2558 
			212.7516,119.2489 		"/>
	</g>
	<g>
		
			<linearGradient id="SVGID_1_" gradientUnits="userSpaceOnUse" x1="54.612" y1="121.8927" x2="65.2609" y2="121.8927" gradientTransform="matrix(1 0 0 -1 0 240)">
			<stop  offset="0" style="stop-color:#EEBE47"/>
			<stop  offset="0.1204" style="stop-color:#F8DB77"/>
			<stop  offset="0.2097" style="stop-color:#FFEE96"/>
			<stop  offset="0.4462" style="stop-color:#A2621E"/>
			<stop  offset="0.6667" style="stop-color:#EEA54C"/>
			<stop  offset="1" style="stop-color:#EEBE47"/>
		</linearGradient>
		<path style="fill:url(#SVGID_1_);" d="M64.8981,124.7314c-0.2422,0.5634-0.5742,1.0566-0.9966,1.4785
			c-0.4223,0.4218-0.9169,0.7539-1.4843,0.9961c-0.5669,0.2422-1.1724,0.3632-1.8145,0.3632H54.612v-18.9238h5.9907
			c0.6421,0,1.2476,0.1221,1.8145,0.3643c0.5674,0.2412,1.062,0.5742,1.4843,0.9961c0.4224,0.4228,0.7544,0.917,0.9966,1.4853
			c0.2417,0.5674,0.3628,1.1709,0.3628,1.8145v9.6181C65.2609,123.5673,65.1398,124.1689,64.8981,124.7314z M63.5583,113.3056
			c0-0.4229-0.0791-0.8164-0.2368-1.1817c-0.1587-0.3652-0.376-0.6865-0.6538-0.9629c-0.2764-0.2783-0.5982-0.4951-0.9629-0.6543
			c-0.3658-0.1582-0.7593-0.2363-1.1812-0.2363h-4.209v15.6758h4.209c0.4219,0,0.8154-0.0801,1.1812-0.2383
			c0.3647-0.1582,0.6865-0.373,0.9629-0.6465c0.2778-0.2734,0.4951-0.5918,0.6538-0.957c0.1577-0.3643,0.2368-0.7578,0.2368-1.1807
			C63.5583,122.9237,63.5583,113.3056,63.5583,113.3056z"/>
		
			<linearGradient id="SVGID_2_" gradientUnits="userSpaceOnUse" x1="69.3122" y1="121.8927" x2="79.9611" y2="121.8927" gradientTransform="matrix(1 0 0 -1 0 240)">
			<stop  offset="0" style="stop-color:#EEBE47"/>
			<stop  offset="0.1204" style="stop-color:#F8DB77"/>
			<stop  offset="0.2097" style="stop-color:#FFEE96"/>
			<stop  offset="0.4462" style="stop-color:#A2621E"/>
			<stop  offset="0.6667" style="stop-color:#EEA54C"/>
			<stop  offset="1" style="stop-color:#EEBE47"/>
		</linearGradient>
		<path style="fill:url(#SVGID_2_);" d="M69.3122,127.5692v-18.9238h10.6489v1.625h-8.9468v7.0332h7.2442v1.6231h-7.2442v7.0195
			h8.9468v1.623C79.9611,127.5692,69.3122,127.5692,69.3122,127.5692z"/>
		
			<linearGradient id="SVGID_3_" gradientUnits="userSpaceOnUse" x1="82.6657" y1="121.8917" x2="93.5783" y2="121.8917" gradientTransform="matrix(1 0 0 -1 0 240)">
			<stop  offset="0" style="stop-color:#EEBE47"/>
			<stop  offset="0.1204" style="stop-color:#F8DB77"/>
			<stop  offset="0.2097" style="stop-color:#FFEE96"/>
			<stop  offset="0.4462" style="stop-color:#A2621E"/>
			<stop  offset="0.6667" style="stop-color:#EEA54C"/>
			<stop  offset="1" style="stop-color:#EEBE47"/>
		</linearGradient>
		<path style="fill:url(#SVGID_3_);" d="M93.5783,123.1884c0,0.6406-0.1294,1.2451-0.3887,1.8066
			c-0.2602,0.5635-0.6074,1.0557-1.0429,1.4795c-0.4356,0.4219-0.9414,0.7529-1.5171,0.9951
			c-0.5767,0.2422-1.1856,0.3633-1.8277,0.3633H87.443c-0.6425,0-1.2519-0.1211-1.8276-0.3633
			c-0.5767-0.2422-1.082-0.5732-1.5176-0.9951c-0.4355-0.4238-0.7832-0.916-1.0424-1.4795
			c-0.2598-0.5615-0.3897-1.166-0.3897-1.8066v-0.752l1.7026-0.2773v1.0293c0,0.4219,0.0855,0.8164,0.2574,1.1806
			c0.1709,0.3653,0.4023,0.6866,0.6923,0.9629c0.2901,0.2774,0.627,0.4952,1.0093,0.6534c0.3833,0.1591,0.7857,0.2373,1.208,0.2373
			h1.1875c0.4219,0,0.8223-0.0782,1.2007-0.2373c0.3779-0.1582,0.7124-0.376,1.0029-0.6534
			c0.2901-0.2763,0.5206-0.5976,0.6929-0.9629c0.1709-0.3642,0.2569-0.7587,0.2569-1.1806V122.62
			c0-0.6513-0.128-1.1924-0.3824-1.623c-0.2558-0.4297-0.5937-0.7979-1.0161-1.1016c-0.4219-0.3027-0.8994-0.5605-1.4321-0.7715
			c-0.5318-0.2109-1.0801-0.4218-1.6426-0.6347c-0.563-0.211-1.1103-0.4424-1.6431-0.6983
			c-0.5317-0.2549-1.0092-0.5732-1.4316-0.956c-0.4219-0.3828-0.7607-0.8516-1.0161-1.4063
			c-0.2549-0.5537-0.3823-1.2363-0.3823-2.0449v-0.3574c0-0.6406,0.1211-1.2432,0.3628-1.8067
			c0.2417-0.5625,0.5737-1.0556,0.996-1.4775c0.4219-0.4229,0.917-0.7549,1.4844-0.9971s1.1724-0.3613,1.8145-0.3613h1.2143
			c0.6421,0,1.2447,0.1191,1.8081,0.3613c0.5625,0.2422,1.0552,0.5742,1.4771,0.9971c0.4224,0.4219,0.7544,0.915,0.9961,1.4775
			c0.2422,0.5635,0.3638,1.1661,0.3638,1.8067v0.4902l-1.7027,0.2764v-0.7666c0-0.4219-0.0791-0.8145-0.2378-1.1797
			c-0.1577-0.3643-0.374-0.6846-0.6465-0.957c-0.2724-0.2725-0.5913-0.4883-0.956-0.6456
			c-0.3657-0.1591-0.7593-0.2382-1.1812-0.2382h-1.0561c-0.4224,0-0.8159,0.0791-1.1807,0.2382
			c-0.3652,0.1573-0.686,0.3731-0.9629,0.6456c-0.2778,0.2724-0.4951,0.5927-0.6538,0.957
			c-0.1587,0.3652-0.2373,0.7578-0.2373,1.1797v0.3574c0,0.6074,0.1275,1.1182,0.3828,1.5303
			c0.2554,0.414,0.5933,0.7675,1.0156,1.0625c0.4229,0.2949,0.8995,0.5508,1.4322,0.7656c0.5317,0.2158,1.0801,0.4346,1.6426,0.6602
			c0.5629,0.2236,1.1103,0.4697,1.643,0.7382c0.5318,0.2686,1.0093,0.5987,1.4312,0.9893c0.4223,0.3916,0.7612,0.8691,1.0166,1.4336
			c0.2549,0.5615,0.3823,1.248,0.3823,2.0566V123.1884z"/>
		
			<linearGradient id="SVGID_4_" gradientUnits="userSpaceOnUse" x1="95.3337" y1="121.8927" x2="107.3415" y2="121.8927" gradientTransform="matrix(1 0 0 -1 0 240)">
			<stop  offset="0" style="stop-color:#EEBE47"/>
			<stop  offset="0.1204" style="stop-color:#F8DB77"/>
			<stop  offset="0.2097" style="stop-color:#FFEE96"/>
			<stop  offset="0.4462" style="stop-color:#A2621E"/>
			<stop  offset="0.6667" style="stop-color:#EEA54C"/>
			<stop  offset="1" style="stop-color:#EEBE47"/>
		</linearGradient>
		<path style="fill:url(#SVGID_4_);" d="M104.3327,123.161H98.342l-1.2403,4.4082h-1.768l5.542-18.9238h0.8974l5.5684,18.9238
			h-1.7549L104.3327,123.161z M98.8039,121.538h5.0801l-2.4937-8.7227l-0.0527-0.6982l-0.0528,0.6982L98.8039,121.538z"/>
		
			<linearGradient id="SVGID_5_" gradientUnits="userSpaceOnUse" x1="109.4924" y1="121.8927" x2="120.6291" y2="121.8927" gradientTransform="matrix(1 0 0 -1 0 240)">
			<stop  offset="0" style="stop-color:#EEBE47"/>
			<stop  offset="0.1204" style="stop-color:#F8DB77"/>
			<stop  offset="0.2097" style="stop-color:#FFEE96"/>
			<stop  offset="0.4462" style="stop-color:#A2621E"/>
			<stop  offset="0.6667" style="stop-color:#EEA54C"/>
			<stop  offset="1" style="stop-color:#EEBE47"/>
		</linearGradient>
		<path style="fill:url(#SVGID_5_);" d="M118.6628,127.5692l-5.1328-8.0761h-2.336v8.0761h-1.7016v-18.9238h6.0034
			c0.6416,0,1.2451,0.1221,1.8076,0.3643c0.5635,0.2412,1.0562,0.5742,1.4785,0.9961c0.4219,0.4228,0.7539,0.917,0.9956,1.4853
			c0.2422,0.5674,0.3628,1.1709,0.3628,1.8145v1.5302c0,0.6416-0.1206,1.2471-0.3628,1.8145
			c-0.2417,0.5674-0.5737,1.0625-0.9956,1.4844c-0.4223,0.4218-0.915,0.7529-1.4785,0.9951
			c-0.5625,0.2422-1.166,0.3633-1.8076,0.3633l5.1333,8.0761H118.6628z M118.4387,113.3056c0-0.4229-0.0791-0.8164-0.2378-1.1817
			c-0.1582-0.3652-0.3741-0.6865-0.6465-0.9629c-0.2725-0.2783-0.5923-0.4951-0.9571-0.6543
			c-0.3647-0.1582-0.7583-0.2363-1.1801-0.2363h-4.2232v7.5996h4.2232c0.4218,0,0.8154-0.0791,1.1801-0.2373
			c0.3648-0.1572,0.6846-0.376,0.9571-0.6533c0.2724-0.2773,0.4883-0.5977,0.6465-0.9629c0.1587-0.3652,0.2378-0.7588,0.2378-1.1807
			V113.3056z"/>
		
			<linearGradient id="SVGID_6_" gradientUnits="userSpaceOnUse" x1="123.5978" y1="121.8927" x2="134.735" y2="121.8927" gradientTransform="matrix(1 0 0 -1 0 240)">
			<stop  offset="0" style="stop-color:#EEBE47"/>
			<stop  offset="0.1204" style="stop-color:#F8DB77"/>
			<stop  offset="0.2097" style="stop-color:#FFEE96"/>
			<stop  offset="0.4462" style="stop-color:#A2621E"/>
			<stop  offset="0.6667" style="stop-color:#EEA54C"/>
			<stop  offset="1" style="stop-color:#EEBE47"/>
		</linearGradient>
		<path style="fill:url(#SVGID_6_);" d="M132.7687,127.5692l-5.1328-8.0761H125.3v8.0761h-1.7022v-18.9238h6.0039
			c0.6416,0,1.2447,0.1221,1.8077,0.3643c0.5634,0.2412,1.0561,0.5742,1.478,0.9961c0.4223,0.4228,0.7544,0.917,0.9961,1.4853
			c0.2417,0.5674,0.3628,1.1709,0.3628,1.8145v1.5302c0,0.6416-0.1211,1.2471-0.3628,1.8145s-0.5738,1.0625-0.9961,1.4844
			c-0.4219,0.4218-0.9146,0.7529-1.478,0.9951c-0.563,0.2422-1.1661,0.3633-1.8077,0.3633l5.1333,8.0761H132.7687z
			 M132.5441,113.3056c0-0.4229-0.0786-0.8164-0.2373-1.1817c-0.1582-0.3652-0.374-0.6865-0.6465-0.9629
			c-0.2729-0.2783-0.5923-0.4951-0.957-0.6543c-0.3647-0.1582-0.7583-0.2363-1.1807-0.2363H125.3v7.5996h4.2226
			c0.4224,0,0.816-0.0791,1.1807-0.2373c0.3647-0.1572,0.6841-0.376,0.957-0.6533c0.2725-0.2773,0.4883-0.5977,0.6465-0.9629
			c0.1587-0.3652,0.2373-0.7588,0.2373-1.1807V113.3056z"/>
		
			<linearGradient id="SVGID_7_" gradientUnits="userSpaceOnUse" x1="137.7038" y1="121.8917" x2="148.3522" y2="121.8917" gradientTransform="matrix(1 0 0 -1 0 240)">
			<stop  offset="0" style="stop-color:#EEBE47"/>
			<stop  offset="0.1204" style="stop-color:#F8DB77"/>
			<stop  offset="0.2097" style="stop-color:#FFEE96"/>
			<stop  offset="0.4462" style="stop-color:#A2621E"/>
			<stop  offset="0.6667" style="stop-color:#EEA54C"/>
			<stop  offset="1" style="stop-color:#EEBE47"/>
		</linearGradient>
		<path style="fill:url(#SVGID_7_);" d="M147.9894,124.995c-0.2417,0.5635-0.5737,1.0557-0.9961,1.4795
			c-0.4223,0.4219-0.915,0.7529-1.478,0.9951s-1.166,0.3633-1.8076,0.3633h-1.3462c-0.6421,0-1.2471-0.1211-1.8144-0.3633
			c-0.5674-0.2422-1.0625-0.5732-1.4844-0.9951c-0.4224-0.4238-0.7544-0.916-0.9961-1.4795
			c-0.2417-0.5615-0.3628-1.166-0.3628-1.8066v-10.1621c0-0.6406,0.1211-1.2432,0.3628-1.8067
			c0.2417-0.5625,0.5737-1.0556,0.9961-1.4775c0.4219-0.4229,0.917-0.7549,1.4844-0.9971c0.5673-0.2422,1.1723-0.3613,1.8144-0.3613
			h1.3462c0.6416,0,1.2446,0.1191,1.8076,0.3613c0.563,0.2422,1.0557,0.5742,1.478,0.9971c0.4224,0.4219,0.7544,0.915,0.9961,1.4775
			c0.2417,0.5635,0.3628,1.1661,0.3628,1.8067v10.1621C148.3522,123.829,148.2311,124.4335,147.9894,124.995z M146.6501,113.0263
			c0-0.4219-0.0791-0.8145-0.2378-1.1797c-0.1577-0.3643-0.3736-0.6846-0.6465-0.957c-0.2725-0.2725-0.5918-0.4883-0.9565-0.6456
			c-0.3648-0.1591-0.7583-0.2382-1.1807-0.2382h-1.188c-0.4224,0-0.8159,0.0791-1.1807,0.2382
			c-0.3652,0.1573-0.686,0.3731-0.9628,0.6456c-0.2779,0.2724-0.4952,0.5927-0.6539,0.957
			c-0.1586,0.3652-0.2373,0.7578-0.2373,1.1797v10.1621c0,0.4219,0.0787,0.8164,0.2373,1.1806
			c0.1587,0.3653,0.376,0.6866,0.6539,0.9629c0.2768,0.2774,0.5976,0.4952,0.9628,0.6534c0.3648,0.1591,0.7583,0.2373,1.1807,0.2373
			h1.188c0.4224,0,0.8159-0.0782,1.1807-0.2373c0.3647-0.1582,0.684-0.376,0.9565-0.6534c0.2729-0.2763,0.4888-0.5976,0.6465-0.9629
			c0.1587-0.3642,0.2378-0.7587,0.2378-1.1806V113.0263z"/>
		
			<linearGradient id="SVGID_8_" gradientUnits="userSpaceOnUse" x1="152.1398" y1="121.8927" x2="161.0861" y2="121.8927" gradientTransform="matrix(1 0 0 -1 0 240)">
			<stop  offset="0" style="stop-color:#EEBE47"/>
			<stop  offset="0.1204" style="stop-color:#F8DB77"/>
			<stop  offset="0.2097" style="stop-color:#FFEE96"/>
			<stop  offset="0.4462" style="stop-color:#A2621E"/>
			<stop  offset="0.6667" style="stop-color:#EEA54C"/>
			<stop  offset="1" style="stop-color:#EEBE47"/>
		</linearGradient>
		<path style="fill:url(#SVGID_8_);" d="M152.1398,127.5692v-18.9238h1.7017v17.3008h7.2446v1.623H152.1398z"/>
		
			<linearGradient id="SVGID_9_" gradientUnits="userSpaceOnUse" x1="163.5138" y1="121.8927" x2="172.4601" y2="121.8927" gradientTransform="matrix(1 0 0 -1 0 240)">
			<stop  offset="0" style="stop-color:#EEBE47"/>
			<stop  offset="0.1204" style="stop-color:#F8DB77"/>
			<stop  offset="0.2097" style="stop-color:#FFEE96"/>
			<stop  offset="0.4462" style="stop-color:#A2621E"/>
			<stop  offset="0.6667" style="stop-color:#EEA54C"/>
			<stop  offset="1" style="stop-color:#EEBE47"/>
		</linearGradient>
		<path style="fill:url(#SVGID_9_);" d="M163.5138,127.5692v-18.9238h1.7022v17.3008h7.2441v1.623H163.5138z"/>
		
			<linearGradient id="SVGID_10_" gradientUnits="userSpaceOnUse" x1="174.8884" y1="121.8917" x2="185.5368" y2="121.8917" gradientTransform="matrix(1 0 0 -1 0 240)">
			<stop  offset="0" style="stop-color:#EEBE47"/>
			<stop  offset="0.1204" style="stop-color:#F8DB77"/>
			<stop  offset="0.2097" style="stop-color:#FFEE96"/>
			<stop  offset="0.4462" style="stop-color:#A2621E"/>
			<stop  offset="0.6667" style="stop-color:#EEA54C"/>
			<stop  offset="1" style="stop-color:#EEBE47"/>
		</linearGradient>
		<path style="fill:url(#SVGID_10_);" d="M185.174,124.995c-0.2417,0.5635-0.5737,1.0557-0.9961,1.4795
			c-0.4219,0.4219-0.915,0.7529-1.478,0.9951s-1.166,0.3633-1.8076,0.3633h-1.3462c-0.6421,0-1.2471-0.1211-1.8145-0.3633
			c-0.5674-0.2422-1.0625-0.5732-1.4844-0.9951c-0.4223-0.4238-0.7543-0.916-0.996-1.4795
			c-0.2417-0.5615-0.3628-1.166-0.3628-1.8066v-10.1621c0-0.6406,0.1211-1.2432,0.3628-1.8067
			c0.2417-0.5625,0.5737-1.0556,0.996-1.4775c0.4219-0.4229,0.917-0.7549,1.4844-0.9971s1.1724-0.3613,1.8145-0.3613h1.3462
			c0.6416,0,1.2446,0.1191,1.8076,0.3613c0.563,0.2422,1.0561,0.5742,1.478,0.9971c0.4224,0.4219,0.7544,0.915,0.9961,1.4775
			c0.2417,0.5635,0.3628,1.1661,0.3628,1.8067v10.1621C185.5368,123.829,185.4157,124.4335,185.174,124.995z M183.8346,113.0263
			c0-0.4219-0.0786-0.8145-0.2373-1.1797c-0.1582-0.3643-0.374-0.6846-0.6464-0.957c-0.273-0.2725-0.5923-0.4883-0.9571-0.6456
			c-0.3647-0.1591-0.7583-0.2382-1.1806-0.2382h-1.188c-0.4224,0-0.8159,0.0791-1.1807,0.2382
			c-0.3657,0.1573-0.6865,0.3731-0.9629,0.6456c-0.2778,0.2724-0.4951,0.5927-0.6538,0.957
			c-0.1587,0.3652-0.2373,0.7578-0.2373,1.1797v10.1621c0,0.4219,0.0786,0.8164,0.2373,1.1806
			c0.1587,0.3653,0.376,0.6866,0.6538,0.9629c0.2764,0.2774,0.5972,0.4952,0.9629,0.6534c0.3648,0.1591,0.7583,0.2373,1.1807,0.2373
			h1.188c0.4223,0,0.8159-0.0782,1.1806-0.2373c0.3648-0.1582,0.6841-0.376,0.9571-0.6534
			c0.2724-0.2763,0.4882-0.5976,0.6464-0.9629c0.1587-0.3642,0.2373-0.7587,0.2373-1.1806V113.0263z"/>
	</g>
	<g>
		<path d="M64.8982,123.3009c-0.2422,0.5625-0.5742,1.0557-0.9961,1.4775c-0.4229,0.4229-0.917,0.7549-1.4844,0.9961
			c-0.5674,0.2422-1.1729,0.3633-1.8145,0.3633H54.612v-18.9219h5.9912c0.6416,0,1.2471,0.1211,1.8145,0.3623
			c0.5674,0.2422,1.0615,0.5742,1.4844,0.9961c0.4219,0.4229,0.7539,0.917,0.9961,1.4844s0.3633,1.1729,0.3633,1.8145v9.6201
			C65.2615,122.1349,65.1404,122.7384,64.8982,123.3009z M63.5584,111.8732c0-0.4219-0.0791-0.8154-0.2373-1.1807
			s-0.376-0.6865-0.6533-0.9629c-0.2764-0.2773-0.5977-0.4951-0.9629-0.6533s-0.7588-0.2373-1.1807-0.2373h-4.21v15.6758h4.21
			c0.4219,0,0.8154-0.0791,1.1807-0.2373s0.6865-0.374,0.9629-0.6465c0.2773-0.2725,0.4951-0.5918,0.6533-0.957
			s0.2373-0.7588,0.2373-1.1807V111.8732z"/>
		<path d="M69.3123,126.1378v-18.9219h10.6484v1.623h-8.9463v7.0332h7.2441v1.623h-7.2441v7.0195h8.9463v1.623H69.3123V126.1378z"/>
		<path d="M93.5789,121.757c0,0.6426-0.1299,1.2451-0.3896,1.8076c-0.2598,0.5635-0.6064,1.0557-1.042,1.4775
			c-0.4355,0.4229-0.9414,0.7549-1.5176,0.9971c-0.5762,0.2412-1.1855,0.3623-1.8281,0.3623h-1.3584
			c-0.6426,0-1.252-0.1211-1.8281-0.3623c-0.5762-0.2422-1.082-0.5742-1.5176-0.9971c-0.4355-0.4219-0.7832-0.9141-1.042-1.4775
			c-0.2598-0.5625-0.3896-1.165-0.3896-1.8076v-0.752l1.7021-0.2773v1.0293c0,0.4219,0.0859,0.8164,0.2578,1.1807
			c0.1709,0.3652,0.4023,0.6865,0.6924,0.9639c0.29,0.2764,0.627,0.4941,1.0098,0.6533c0.3828,0.1582,0.7852,0.2373,1.207,0.2373
			h1.1875c0.4229,0,0.8223-0.0791,1.2012-0.2373c0.3779-0.1592,0.7129-0.377,1.0029-0.6533c0.29-0.2773,0.5215-0.5986,0.6924-0.9639
			c0.1719-0.3643,0.2578-0.7588,0.2578-1.1807v-0.5674c0-0.6514-0.1279-1.1924-0.3828-1.623
			c-0.2559-0.4307-0.5938-0.7988-1.0166-1.1016c-0.4219-0.3037-0.8994-0.5615-1.4316-0.7725s-1.0801-0.4219-1.6426-0.6328
			c-0.5625-0.2119-1.1104-0.4443-1.6426-0.6992c-0.5322-0.2559-1.0098-0.5742-1.4316-0.957
			c-0.4229-0.3828-0.7617-0.8516-1.0166-1.4053c-0.2549-0.5547-0.3828-1.2363-0.3828-2.0459v-0.3555
			c0-0.6426,0.1211-1.2451,0.3633-1.8086c0.2422-0.5625,0.5742-1.0547,0.9961-1.4775c0.4229-0.4219,0.917-0.7539,1.4844-0.9961
			s1.1729-0.3633,1.8145-0.3633h1.2139c0.6426,0,1.2451,0.1211,1.8086,0.3633c0.5625,0.2422,1.0557,0.5742,1.4775,0.9961
			c0.4219,0.4229,0.7539,0.915,0.9961,1.4775c0.2422,0.5635,0.3633,1.166,0.3633,1.8086v0.4883l-1.7021,0.2764v-0.7646
			c0-0.4229-0.0791-0.8164-0.2383-1.1816c-0.1582-0.3643-0.374-0.6836-0.6465-0.9561s-0.5918-0.4883-0.9561-0.6465
			c-0.3652-0.1592-0.7588-0.2383-1.1816-0.2383H87.667c-0.4219,0-0.8154,0.0791-1.1807,0.2383
			c-0.3652,0.1582-0.6865,0.374-0.9629,0.6465c-0.2773,0.2725-0.4951,0.5918-0.6533,0.9561
			c-0.1582,0.3652-0.2373,0.7588-0.2373,1.1816v0.3555c0,0.6074,0.127,1.1182,0.3818,1.5313
			c0.2559,0.4131,0.5938,0.7676,1.0166,1.0625c0.4219,0.2949,0.8994,0.5498,1.4316,0.7646
			c0.5322,0.2158,1.0801,0.4355,1.6426,0.6602c0.5635,0.2246,1.1104,0.4707,1.6426,0.7393
			c0.5322,0.2676,1.0098,0.5977,1.4316,0.9893c0.4229,0.3916,0.7617,0.8691,1.0166,1.4316c0.2549,0.5635,0.3828,1.249,0.3828,2.0586
			L93.5789,121.757L93.5789,121.757z"/>
		<path d="M104.3328,121.7306h-5.9912l-1.2402,4.4072h-1.7686l5.543-18.9219h0.8965l5.5693,18.9219h-1.7559L104.3328,121.7306z
			 M98.8035,120.1075h5.0801l-2.4932-8.7227l-0.0527-0.6992l-0.0537,0.6992L98.8035,120.1075z"/>
		<path d="M118.6629,126.1378l-5.1328-8.0752h-2.3359v8.0752h-1.7021v-18.9219h6.0039c0.6416,0,1.2451,0.1211,1.8076,0.3623
			c0.5635,0.2422,1.0557,0.5742,1.4785,0.9961c0.4219,0.4229,0.7539,0.917,0.9961,1.4844c0.2412,0.5674,0.3623,1.1729,0.3623,1.8145
			v1.5313c0,0.6416-0.1211,1.2471-0.3623,1.8145c-0.2422,0.5674-0.5742,1.0615-0.9961,1.4844
			c-0.4229,0.4219-0.915,0.7539-1.4785,0.9961c-0.5625,0.2422-1.166,0.3633-1.8076,0.3633l5.1328,8.0752h-1.9659V126.1378z
			 M118.4383,111.8732c0-0.4219-0.0791-0.8154-0.2373-1.1807s-0.374-0.6865-0.6465-0.9629
			c-0.2725-0.2773-0.5918-0.4951-0.957-0.6533s-0.7588-0.2373-1.1807-0.2373h-4.2227v7.6006h4.2227
			c0.4219,0,0.8154-0.0791,1.1807-0.2383c0.3652-0.1582,0.6846-0.376,0.957-0.6523c0.2725-0.2773,0.4883-0.5986,0.6465-0.9639
			s0.2373-0.7588,0.2373-1.1807V111.8732z"/>
		<path d="M132.7683,126.1378l-5.1328-8.0752h-2.335v8.0752h-1.7031v-18.9219h6.0049c0.6416,0,1.2441,0.1211,1.8076,0.3623
			c0.5625,0.2422,1.0557,0.5742,1.4775,0.9961c0.4219,0.4229,0.7539,0.917,0.9961,1.4844s0.3633,1.1729,0.3633,1.8145v1.5313
			c0,0.6416-0.1211,1.2471-0.3633,1.8145s-0.5742,1.0615-0.9961,1.4844c-0.4219,0.4219-0.915,0.7539-1.4775,0.9961
			c-0.5635,0.2422-1.166,0.3633-1.8076,0.3633l5.1328,8.0752h-1.9668V126.1378z M132.5447,111.8732
			c0-0.4219-0.0791-0.8154-0.2383-1.1807c-0.1582-0.3652-0.373-0.6865-0.6465-0.9629c-0.2725-0.2773-0.5918-0.4951-0.9561-0.6533
			c-0.3652-0.1582-0.7588-0.2373-1.1816-0.2373h-4.2217v7.6006h4.2217c0.4229,0,0.8164-0.0791,1.1816-0.2383
			c0.3643-0.1582,0.6836-0.376,0.9561-0.6523c0.2734-0.2773,0.4883-0.5986,0.6465-0.9639c0.1592-0.3652,0.2383-0.7588,0.2383-1.1807
			V111.8732z"/>
		<path d="M147.99,123.5646c-0.2422,0.5635-0.5742,1.0557-0.9961,1.4775c-0.4229,0.4229-0.915,0.7549-1.4785,0.9971
			c-0.5625,0.2412-1.166,0.3623-1.8076,0.3623h-1.3457c-0.6426,0-1.2471-0.1211-1.8145-0.3623
			c-0.5674-0.2422-1.0625-0.5742-1.4844-0.9971c-0.4229-0.4219-0.7549-0.9141-0.9961-1.4775
			c-0.2422-0.5625-0.3633-1.165-0.3633-1.8076v-10.1602c0-0.6426,0.1211-1.2451,0.3633-1.8086
			c0.2412-0.5625,0.5732-1.0547,0.9961-1.4775c0.4219-0.4219,0.917-0.7539,1.4844-0.9961s1.1719-0.3633,1.8145-0.3633h1.3457
			c0.6416,0,1.2451,0.1211,1.8076,0.3633c0.5635,0.2422,1.0557,0.5742,1.4785,0.9961c0.4219,0.4229,0.7539,0.915,0.9961,1.4775
			c0.2412,0.5635,0.3623,1.166,0.3623,1.8086v10.1602C148.3523,122.3995,148.2312,123.0021,147.99,123.5646z M146.6502,111.5968
			c0-0.4229-0.0791-0.8164-0.2373-1.1816c-0.1582-0.3643-0.374-0.6836-0.6465-0.9561s-0.5918-0.4883-0.957-0.6465
			c-0.3652-0.1592-0.7588-0.2383-1.1807-0.2383h-1.1875c-0.4229,0-0.8164,0.0791-1.1807,0.2383
			c-0.3652,0.1582-0.6865,0.374-0.9639,0.6465s-0.4951,0.5918-0.6533,0.9561c-0.1582,0.3652-0.2373,0.7588-0.2373,1.1816v10.1602
			c0,0.4219,0.0791,0.8164,0.2373,1.1807c0.1582,0.3652,0.376,0.6865,0.6533,0.9639c0.2773,0.2764,0.5986,0.4941,0.9639,0.6533
			c0.3643,0.1582,0.7578,0.2373,1.1807,0.2373h1.1875c0.4219,0,0.8154-0.0791,1.1807-0.2373
			c0.3652-0.1592,0.6846-0.377,0.957-0.6533c0.2725-0.2773,0.4883-0.5986,0.6465-0.9639c0.1582-0.3643,0.2373-0.7588,0.2373-1.1807
			V111.5968z"/>
		<path d="M152.1394,126.1378v-18.9219h1.7031v17.2988h7.2441v1.623L152.1394,126.1378L152.1394,126.1378z"/>
		<path d="M163.5144,126.1378v-18.9219h1.7021v17.2988h7.2441v1.623L163.5144,126.1378L163.5144,126.1378z"/>
		<path d="M185.1746,123.5646c-0.2422,0.5635-0.5742,1.0557-0.9961,1.4775c-0.4229,0.4229-0.915,0.7549-1.4785,0.9971
			c-0.5625,0.2412-1.166,0.3623-1.8076,0.3623h-1.3457c-0.6426,0-1.2471-0.1211-1.8145-0.3623
			c-0.5674-0.2422-1.0625-0.5742-1.4844-0.9971c-0.4229-0.4219-0.7549-0.9141-0.9961-1.4775
			c-0.2422-0.5625-0.3633-1.165-0.3633-1.8076v-10.1602c0-0.6426,0.1211-1.2451,0.3633-1.8086
			c0.2412-0.5625,0.5732-1.0547,0.9961-1.4775c0.4219-0.4219,0.917-0.7539,1.4844-0.9961s1.1719-0.3633,1.8145-0.3633h1.3457
			c0.6416,0,1.2451,0.1211,1.8076,0.3633c0.5635,0.2422,1.0557,0.5742,1.4785,0.9961c0.4219,0.4229,0.7539,0.915,0.9961,1.4775
			c0.2412,0.5635,0.3623,1.166,0.3623,1.8086v10.1602C185.5369,122.3995,185.4158,123.0021,185.1746,123.5646z M183.8347,111.5968
			c0-0.4229-0.0791-0.8164-0.2373-1.1816c-0.1582-0.3643-0.374-0.6836-0.6465-0.9561s-0.5918-0.4883-0.957-0.6465
			c-0.3652-0.1592-0.7588-0.2383-1.1807-0.2383h-1.1875c-0.4229,0-0.8164,0.0791-1.1807,0.2383
			c-0.3652,0.1582-0.6865,0.374-0.9639,0.6465s-0.4951,0.5918-0.6533,0.9561c-0.1582,0.3652-0.2373,0.7588-0.2373,1.1816v10.1602
			c0,0.4219,0.0791,0.8164,0.2373,1.1807c0.1582,0.3652,0.376,0.6865,0.6533,0.9639c0.2773,0.2764,0.5986,0.4941,0.9639,0.6533
			c0.3643,0.1582,0.7578,0.2373,1.1807,0.2373h1.1875c0.4219,0,0.8154-0.0791,1.1807-0.2373
			c0.3652-0.1592,0.6846-0.377,0.957-0.6533c0.2725-0.2773,0.4883-0.5986,0.6465-0.9639c0.1582-0.3643,0.2373-0.7588,0.2373-1.1807
			V111.5968z"/>
	</g>
</g>
</svg>
