<?xml version="1.0" encoding="utf-8"?>
<!-- Generator: Adobe Illustrator 21.0.0, SVG Export Plug-In . SVG Version: 6.00 Build 0)  -->
<svg version="1.1" id="Capa_1" xmlns="http://www.w3.org/2000/svg" xmlns:xlink="http://www.w3.org/1999/xlink" x="0px" y="0px"
	 viewBox="0 0 227.771 227.7715" style="enable-background:new 0 0 227.771 227.7715;" xml:space="preserve">
<g>
	<defs>
		<circle id="XMLID_907_" cx="113.8857" cy="113.8853" r="113.8856"/>
	</defs>
	<use xlink:href="#XMLID_907_"  style="overflow:visible;fill:#FD6D4C;"/>
	<clipPath id="XMLID_2_">
		<use xlink:href="#XMLID_907_"  style="overflow:visible;"/>
	</clipPath>
	<g style="clip-path:url(#XMLID_2_);">
		<path style="fill:#D14028;" d="M36.7588,166.3203L117.7173,251l118-28.4375l-0.3262-101.7969l-84.6401-75.001
			c0,0-74.4209-21.8007-89.1577,40.7178l-0.543,13.7305l-18.2212-9.3936l-6.0898,15.6963l8.1001,9.4102l-7.6216,53.5664"/>
		<g>
			<g>
				<path style="fill:#FFFFFF;" d="M90.3491,44.7344c20.2173-11.9336,47.5508-9.9629,65.7959,4.8886
					c8.7232,6.9346,15.4737,16.3497,19.0503,26.8956c5.1089,14.5976,4.0874,31.2382-2.8095,45.1054
					c-8.6504,17.9541-27.0049,30.7627-46.857,32.5518c-0.0737,3.2109,0,6.4219-0.0376,9.6338c1.9336-0.0362,3.9048-0.0362,5.8399,0
					c0,7.0068,0.0727,14.0136-0.0367,21.0205c-7.7729,0-15.5463,0-23.3193,0c0-7.0069,0-14.0137,0-21.0205
					c1.9341,0,3.8687,0,5.8023-0.0362c0.0727-3.2119,0-6.4238,0-9.5976c-23.0274-1.9707-43.7178-19.0137-50.2867-41.127
					c-4.4887-14.416-3.1753-30.5449,3.7583-43.9746C72.395,58.9668,80.4956,50.3906,90.3491,44.7344 M115.0918,50.6094
					c-13.831,1.2773-26.8218,9.4511-34.0122,21.3476c-7.5161,11.8604-8.8311,27.2969-3.6128,40.3243
					c3.8696,9.9257,11.3872,18.3203,20.7642,23.3554c9.8896,5.3653,21.8593,6.8613,32.7353,3.9414
					c12.4072-3.1377,23.2818-11.8593,29.0474-23.2822c7.0063-13.3564,6.5688-30.2158-1.0943-43.208
					C150.3794,57.8711,132.4614,48.6016,115.0918,50.6094L115.0918,50.6094z"/>
				<path style="fill:#FFFFFF;" d="M116.1494,69.5488c6.0586-1.4599,12.8457,1.0586,16.4219,6.167
					c4.1968,5.4737,4.1606,13.7217-0.1455,19.1221c-3.0298,4.0879-8.0649,6.5684-13.1372,6.3867
					c-7.7007,0-14.707-6.3496-15.5464-14.0137C102.5381,79.2559,108.231,71.0449,116.1494,69.5488L116.1494,69.5488z"/>
				<path style="fill:#FFFFFF;" d="M92.9038,111.9531c5.8023-1.2402,11.604-2.3711,17.4434-3.5039
					c3.0654,4.8184,15.5102,4.7442,18.6846,0c5.8017,1.1328,11.6049,2.2266,17.3701,3.5039
					c-0.0362,3.2852,0.1108,6.5694-0.1099,9.8164c-7.6631,8.0655-19.1577,12.2618-30.2515,11.1309
					c-8.6494-0.8399-17.0424-4.8174-23.0273-11.1309C92.7212,118.5225,93.0132,115.2012,92.9038,111.9531L92.9038,111.9531z"/>
				<path style="fill:#FFFFFF;" d="M70.0596,145.6719c4.7807,4.708,10.2178,8.7959,16.1289,12.0068
					c-0.3281,4.1611-0.9487,8.2842-1.313,12.4443c-4.0503-0.0371-8.1382,0.1094-12.2256-0.0732
					C71.8477,161.9121,70.8618,153.8105,70.0596,145.6719L70.0596,145.6719z"/>
				<path style="fill:#FFFFFF;" d="M153.1177,157.6787c5.9111-3.1748,11.2392-7.3711,16.1289-11.9326
					c-0.8032,8.1367-1.8247,16.2393-2.5913,24.3398c-4.0864,0.0743-8.1367,0.1104-12.2256,0
					C154.0288,165.9258,153.481,161.8027,153.1177,157.6787L153.1177,157.6787z"/>
			</g>
			<path style="fill:#FFFFFF;" d="M44.9766,109.5518c3.8867-0.4444,7.2749-3.6094,7.9966-7.46
				c0.6479-3.0352-0.3516-6.3496-2.5547-8.5137c-1.9434-2-4.8125-3.0176-7.5894-2.7588c-3.5903,0.333-6.8667,2.8506-7.9966,6.294
				c-1.1474,3.165-0.3886,6.9414,1.9068,9.4023C38.7569,108.8115,41.959,109.9961,44.9766,109.5518z"/>
			<path style="fill:#FFFFFF;" d="M59.4331,115.9014c-3.4057-0.6299-6.7749-1.3701-10.1806-2.0176
				c-1.8877,2.7764-9.1626,2.832-10.9952,0c-3.4248,0.666-6.8305,1.3506-10.2368,2.0537c-0.0185,7.6826,0,15.3652-0.0185,23.0469
				c1.2241,0.9824,2.4858,1.9219,3.726,2.8828l1.6895-16.5254c0,0,0.9307,15.2207,1.9126,27.793
				c0.4858,4.3945,0.9463,8.791,1.4287,13.1855c0.3374,1.7481,0.523,2.9326,0.459,3.1719
				c4.2983,0.8486,8.7759,0.8974,13.0713,0.0156c0.8384-6.5351,1.4917-13.1015,2.2099-19.6592
				c0.8838-11.7881,1.6617-24.5068,1.6617-24.5068l1.6816,16.4531c1.1987-0.9385,2.3979-1.875,3.6099-2.8105
				C59.4522,131.3027,59.4707,123.6016,59.4331,115.9014z"/>
			<path style="fill:#FFFFFF;" d="M196.8047,109.8965c3.8872-0.4444,7.2754-3.6094,7.9971-7.459
				c0.6479-3.0371-0.3516-6.3496-2.5547-8.5156c-1.9434-1.999-4.8125-3.0176-7.5894-2.7578
				c-3.5908,0.333-6.8672,2.8505-7.9966,6.2929c-1.1474,3.166-0.3886,6.9424,1.9068,9.4043
				C190.5855,109.1563,193.7876,110.3418,196.8047,109.8965z"/>
			<path style="fill:#FFFFFF;" d="M211.2617,116.2461c-3.4057-0.6289-6.7749-1.3701-10.1806-2.0176
				c-1.8877,2.7764-9.1626,2.832-10.9951,0c-3.4249,0.666-6.8311,1.3516-10.2369,2.0547c-0.0185,7.6816,0,15.3633-0.0185,23.0449
				c1.2241,0.9844,2.4858,1.9219,3.7261,2.8848l1.6889-16.5254c0,0,0.9312,15.2197,1.9131,27.793
				c0.4854,4.3925,0.9463,8.791,1.4287,13.1855c0.3374,1.7461,0.5225,2.9317,0.459,3.1699
				c4.2983,0.8496,8.7759,0.8985,13.0713,0.0176c0.8379-6.5351,1.4917-13.1015,2.21-19.6601
				c0.8837-11.7891,1.6616-24.5059,1.6616-24.5059l1.6816,16.4521c1.1983-0.9384,2.398-1.8759,3.6099-2.8115
				C211.2808,131.6465,211.2993,123.9463,211.2617,116.2461z"/>
		</g>
	</g>
</g>
</svg>
