<?xml version="1.0" encoding="utf-8"?>
<!-- Generator: Adobe Illustrator 21.0.0, SVG Export Plug-In . SVG Version: 6.00 Build 0)  -->
<svg version="1.1" id="Capa_1" xmlns="http://www.w3.org/2000/svg" xmlns:xlink="http://www.w3.org/1999/xlink" x="0px" y="0px"
	 viewBox="0 0 227.771 227.7715" style="enable-background:new 0 0 227.771 227.7715;" xml:space="preserve">
<g id="XMLID_1458_">
	<circle id="XMLID_1631_" style="fill:#2D70BA;" cx="113.8857" cy="113.8853" r="113.8856"/>
	<g id="XMLID_467_">
		<g id="XMLID_730_">
			<path id="XMLID_732_" style="fill:#065381;" d="M148.1255,88.2051v88.5781c0,3.5352-2.791,6.3262-6.3267,6.3262H64.3867
				c-3.5361,0-6.3271-2.791-6.3271-6.3262V75.5508c0-3.5352,2.791-6.3262,6.3271-6.3262h64.9444L148.1255,88.2051z"/>
			<path id="XMLID_731_" style="fill:#FFFFFF;" d="M141.7988,185.9014H64.3867c-5.0244,0-9.1186-4.0948-9.1186-9.1182V75.5508
				c0-5.0235,4.0942-9.1172,9.1186-9.1172h66.0606l20.6557,20.6553v89.6943C150.917,181.8066,146.8233,185.9014,141.7988,185.9014z
				 M64.3867,72.0156c-1.8608,0-3.5361,1.6748-3.5361,3.5352v101.2324c0,1.8613,1.6753,3.5352,3.5361,3.5352h77.5982
				c1.8608,0,3.5356-1.6739,3.5356-3.5352V89.3223l-17.3061-17.3067H64.3867z"/>
		</g>
		<g id="XMLID_727_">
			<path id="XMLID_729_" style="fill:#065381;" d="M160.2212,77.9707v88.5781c0,3.5352-2.791,6.3262-6.3267,6.3262H76.2959
				c-3.5356,0-6.3266-2.791-6.3266-6.3262V65.3164c0-3.5351,2.791-6.3262,6.3266-6.3262h64.9448L160.2212,77.9707z"/>
			<path id="XMLID_728_" style="fill:#FFFFFF;" d="M153.8945,175.666H76.2959c-5.0244,0-9.1182-4.0937-9.1182-9.1172V65.3164
				c0-5.0244,4.0938-9.1182,9.1182-9.1182h66.061l20.6558,20.6553v89.6953C163.0127,171.5723,158.919,175.666,153.8945,175.666z
				 M76.2959,61.7813c-1.8608,0-3.5356,1.6738-3.5356,3.5351v101.2324c0,1.8594,1.6748,3.5352,3.5356,3.5352h77.5986
				c1.8609,0,3.5357-1.6758,3.5357-3.5352V79.0869L140.124,61.7813H76.2959z"/>
		</g>
		<g id="XMLID_724_">
			<path id="XMLID_726_" style="fill:#065381;" d="M172.1309,67.7363v88.5772c0,3.5361-2.791,6.3271-6.3267,6.3271H88.2056
				c-3.5357,0-6.3267-2.791-6.3267-6.3271V55.082c0-3.5361,2.791-6.3271,6.3267-6.3271h64.9443L172.1309,67.7363z"/>
			<path id="XMLID_725_" style="fill:#FFFFFF;" d="M165.8042,165.4316H88.2056c-5.0244,0-9.1182-4.0937-9.1182-9.1181V55.082
				c0-5.0244,4.0938-9.1191,9.1182-9.1191h66.061l20.6558,20.6562v89.6944C174.9224,161.3379,170.8286,165.4316,165.8042,165.4316z
				 M88.2056,51.5459c-1.8609,0-3.5357,1.6748-3.5357,3.5361v101.2315c0,1.8603,1.6748,3.5361,3.5357,3.5361h77.5986
				c1.8609,0,3.5357-1.6758,3.5357-3.5361v-87.461l-17.3062-17.3066H88.2056z"/>
		</g>
		<path id="XMLID_723_" style="fill:#FFFFFF;" d="M172.1309,67.7363h-12.6538c-3.5357,0-6.3272-2.792-6.3272-6.3281V48.7549
			L172.1309,67.7363z"/>
		<g id="XMLID_562_">
			<path id="XMLID_722_" style="fill:#FFFFFF;" d="M97.5103,66.9912c0,1.6748-0.5586,2.792-1.8609,2.792
				c-0.9306,0-1.6748-0.9307-1.6748-2.6055c0-1.6748,0.7442-2.6054,1.8609-2.6054C96.9517,64.3867,97.5103,65.3164,97.5103,66.9912z
				 M94.7188,67.1777c0,1.3028,0.372,2.0469,1.1167,2.0469c0.7441,0,1.1162-0.7441,1.1162-2.2334
				c0-1.3017-0.3721-2.0469-1.1162-2.0469C95.0908,64.9443,94.7188,65.6895,94.7188,67.1777z"/>
			<path id="XMLID_721_" style="fill:#FFFFFF;" d="M99.7432,65.1309L99.7432,65.1309l-0.9307,0.5586l-0.186-0.5586l1.1167-0.5586
				h0.5581v5.2109h-0.5581V65.1309z"/>
			<path id="XMLID_720_" style="fill:#FFFFFF;" d="M105.6978,66.9912c0,1.6748-0.5581,2.792-1.8609,2.792
				c-0.9301,0-1.6748-0.9307-1.6748-2.6055c0-1.6748,0.7447-2.6054,1.8609-2.6054
				C104.9536,64.3867,105.6978,65.3164,105.6978,66.9912z M102.9068,67.1777c0,1.3028,0.372,2.0469,1.1162,2.0469
				c0.7446,0,1.1167-0.7441,1.1167-2.2334c0-1.3017-0.3721-2.0469-1.1167-2.0469
				C103.2788,64.9443,102.9068,65.6895,102.9068,67.1777z"/>
			<path id="XMLID_719_" style="fill:#FFFFFF;" d="M109.6055,66.9912c0,1.6748-0.5581,2.792-1.8609,2.792
				c-0.9301,0-1.6748-0.9307-1.6748-2.6055c0-1.6748,0.7447-2.6054,1.8614-2.6054
				C109.0474,64.3867,109.6055,65.3164,109.6055,66.9912z M106.8145,67.1777c0,1.3028,0.372,2.0469,1.1167,2.0469
				c0.7441,0,1.1162-0.7441,1.1162-2.2334c0-1.3017-0.3721-2.0469-1.1162-2.0469
				C107.3726,64.9443,106.8145,65.6895,106.8145,67.1777z"/>
			<path id="XMLID_718_" style="fill:#FFFFFF;" d="M113.6997,66.9912c0,1.6748-0.5581,2.792-1.8608,2.792
				c-0.9307,0-1.6748-0.9307-1.6748-2.6055c0-1.6748,0.7441-2.6054,1.8608-2.6054
				C113.1416,64.3867,113.6997,65.3164,113.6997,66.9912z M110.9082,67.1777c0,1.3028,0.3721,2.0469,1.1167,2.0469
				c0.7442,0,1.1167-0.7441,1.1167-2.2334c0-1.3017-0.3725-2.0469-1.1167-2.0469
				C111.4668,64.9443,110.9082,65.6895,110.9082,67.1777z"/>
			<path id="XMLID_717_" style="fill:#FFFFFF;" d="M115.9326,65.1309L115.9326,65.1309l-0.9301,0.5586l-0.1861-0.5586l1.1162-0.5586
				h0.5581v5.2109h-0.7441v-4.6523H115.9326z"/>
			<path id="XMLID_716_" style="fill:#FFFFFF;" d="M120.0264,65.1309L120.0264,65.1309l-0.9302,0.5586l-0.186-0.5586l1.1162-0.5586
				h0.5586v5.2109h-0.7447v-4.6523H120.0264z"/>
			<path id="XMLID_715_" style="fill:#FFFFFF;" d="M123.9346,65.1309L123.9346,65.1309l-0.9307,0.5586l-0.186-0.5586l1.1167-0.5586
				h0.5581v5.2109h-0.5581V65.1309z"/>
			<path id="XMLID_714_" style="fill:#FFFFFF;" d="M131.564,66.9912c0,1.6748-0.5581,2.792-1.8609,2.792
				c-0.9301,0-1.6748-0.9307-1.6748-2.6055c0-1.6748,0.7447-2.6054,1.8609-2.6054C131.0059,64.3867,131.564,65.3164,131.564,66.9912
				z M128.773,67.1777c0,1.3028,0.372,2.0469,1.1162,2.0469c0.7441,0,1.1167-0.7441,1.1167-2.2334
				c0-1.3017-0.3726-2.0469-1.1167-2.0469C129.3311,64.9443,128.773,65.6895,128.773,67.1777z"/>
			<path id="XMLID_713_" style="fill:#FFFFFF;" d="M133.7969,65.1309L133.7969,65.1309l-0.9302,0.5586l-0.186-0.5586l1.1162-0.5586
				h0.5586v5.2109h-0.7446v-4.6523H133.7969z"/>
			<path id="XMLID_712_" style="fill:#FFFFFF;" d="M137.8911,65.1309L137.8911,65.1309l-0.9306,0.5586l-0.1861-0.5586l1.1167-0.5586
				h0.5581v5.2109h-0.7446v-4.6523H137.8911z"/>
			<path id="XMLID_711_" style="fill:#FFFFFF;" d="M143.8457,66.9912c0,1.6748-0.5581,2.792-1.8608,2.792
				c-0.9307,0-1.6748-0.9307-1.6748-2.6055c0-1.6748,0.7441-2.6054,1.8608-2.6054
				C143.2876,64.3867,143.8457,65.3164,143.8457,66.9912z M141.0542,67.1777c0,1.3028,0.3726,2.0469,1.1167,2.0469
				c0.7442,0,1.1167-0.7441,1.1167-2.2334c0-1.3017-0.3725-2.0469-1.1167-2.0469
				C141.4268,64.9443,141.0542,65.6895,141.0542,67.1777z"/>
			<path id="XMLID_710_" style="fill:#FFFFFF;" d="M147.94,66.9912c0,1.6748-0.5586,2.792-1.8614,2.792
				c-0.9301,0-1.6748-0.9307-1.6748-2.6055c0-1.6748,0.7447-2.6054,1.8614-2.6054C147.1953,64.3867,147.94,65.3164,147.94,66.9912z
				 M145.1485,67.1777c0,1.3028,0.372,2.0469,1.1167,2.0469c0.7441,0,1.1162-0.7441,1.1162-2.2334
				c0-1.3017-0.3721-2.0469-1.1162-2.0469C145.5205,64.9443,145.1485,65.6895,145.1485,67.1777z"/>
			<path id="XMLID_709_" style="fill:#FFFFFF;" d="M149.9868,65.1309L149.9868,65.1309l-0.9306,0.5586l-0.1861-0.5586l1.1167-0.5586
				h0.5581v5.2109h-0.5581V65.1309z"/>
			<path id="XMLID_708_" style="fill:#FFFFFF;" d="M155.9414,66.9912c0,1.6748-0.5581,2.792-1.8608,2.792
				c-0.9307,0-1.6748-0.9307-1.6748-2.6055c0-1.6748,0.7441-2.6054,1.8608-2.6054
				C155.3833,64.3867,155.9414,65.3164,155.9414,66.9912z M153.1499,67.1777c0,1.3028,0.3726,2.0469,1.1167,2.0469
				c0.7446,0,1.1167-0.7441,1.1167-2.2334c0-1.3017-0.3721-2.0469-1.1167-2.0469
				C153.7085,64.9443,153.1499,65.6895,153.1499,67.1777z"/>
			<path id="XMLID_707_" style="fill:#FFFFFF;" d="M158.1743,65.1309L158.1743,65.1309l-0.9301,0.5586l-0.1861-0.5586l1.1162-0.5586
				h0.5586v5.2109h-0.7446v-4.6523H158.1743z"/>
			<path id="XMLID_706_" style="fill:#FFFFFF;" d="M97.5103,76.4824c0,1.6739-0.5586,2.791-1.8609,2.791
				c-0.9306,0-1.6748-0.9306-1.6748-2.6054s0.7442-2.6055,1.8609-2.6055C96.9517,73.877,97.5103,74.8066,97.5103,76.4824z
				 M94.7188,76.668c0,1.3027,0.372,2.0468,1.1167,2.0468c0.7441,0,1.1162-0.7441,1.1162-2.2324
				c0-1.3027-0.3721-2.0469-1.1162-2.0469C95.0908,74.4355,94.7188,75.1797,94.7188,76.668z"/>
			<path id="XMLID_705_" style="fill:#FFFFFF;" d="M99.7432,74.6211L99.7432,74.6211l-0.9307,0.5586l-0.186-0.5586l1.1167-0.5586
				h0.5581v5.2109h-0.5581V74.6211z"/>
			<path id="XMLID_704_" style="fill:#FFFFFF;" d="M103.6509,74.6211L103.6509,74.6211l-0.9302,0.5586v-0.5586l1.1162-0.5586h0.5581
				v5.2109h-0.7441V74.6211z"/>
			<path id="XMLID_703_" style="fill:#FFFFFF;" d="M107.7446,74.6211L107.7446,74.6211l-0.9301,0.5586v-0.5586l1.1167-0.5586h0.5581
				v5.2109h-0.7447V74.6211z"/>
			<path id="XMLID_702_" style="fill:#FFFFFF;" d="M113.6997,76.4824c0,1.6739-0.5581,2.791-1.8608,2.791
				c-0.9307,0-1.6748-0.9306-1.6748-2.6054s0.7441-2.6055,1.8608-2.6055C113.1416,73.877,113.6997,74.8066,113.6997,76.4824z
				 M110.9082,76.668c0,1.3027,0.3721,2.0468,1.1167,2.0468c0.7442,0,1.1167-0.7441,1.1167-2.2324
				c0-1.3027-0.3725-2.0469-1.1167-2.0469C111.4668,74.4355,110.9082,75.1797,110.9082,76.668z"/>
			<path id="XMLID_701_" style="fill:#FFFFFF;" d="M117.7935,76.4824c0,1.6739-0.5581,2.791-1.8609,2.791
				c-0.9301,0-1.6748-0.9306-1.6748-2.6054s0.7447-2.6055,1.8609-2.6055C117.2354,73.877,117.7935,74.8066,117.7935,76.4824z
				 M115.0025,76.668c0,1.3027,0.372,2.0468,1.1162,2.0468c0.7446,0,1.1167-0.7441,1.1167-2.2324
				c0-1.3027-0.3721-2.0469-1.1167-2.0469C115.3745,74.4355,115.0025,75.1797,115.0025,76.668z"/>
			<path id="XMLID_700_" style="fill:#FFFFFF;" d="M120.0264,74.6211L120.0264,74.6211l-0.9302,0.5586l-0.186-0.5586l1.1162-0.5586
				h0.5586v5.2109h-0.7447v-4.6523H120.0264z"/>
			<path id="XMLID_699_" style="fill:#FFFFFF;" d="M123.9346,74.6211L123.9346,74.6211l-0.9307,0.5586v-0.5586l1.1167-0.5586h0.5581
				v5.2109h-0.7441V74.6211z"/>
			<path id="XMLID_698_" style="fill:#FFFFFF;" d="M131.564,76.4824c0,1.6739-0.5581,2.791-1.8609,2.791
				c-0.9301,0-1.6748-0.9306-1.6748-2.6054s0.7447-2.6055,1.8609-2.6055C131.0059,73.877,131.564,74.8066,131.564,76.4824z
				 M128.773,76.668c0,1.3027,0.372,2.0468,1.1162,2.0468c0.7441,0,1.1167-0.7441,1.1167-2.2324
				c0-1.3027-0.3726-2.0469-1.1167-2.0469C129.3311,74.4355,128.773,75.1797,128.773,76.668z"/>
			<path id="XMLID_697_" style="fill:#FFFFFF;" d="M133.7969,74.6211L133.7969,74.6211l-0.9302,0.5586l-0.186-0.5586l1.1162-0.5586
				h0.5586v5.2109h-0.7446v-4.6523H133.7969z"/>
			<path id="XMLID_696_" style="fill:#FFFFFF;" d="M137.8911,74.6211L137.8911,74.6211l-0.9306,0.5586l-0.1861-0.5586l1.1167-0.5586
				h0.5581v5.2109h-0.7446v-4.6523H137.8911z"/>
			<path id="XMLID_695_" style="fill:#FFFFFF;" d="M141.9849,74.6211L141.9849,74.6211l-0.9307,0.5586l-0.186-0.5586l1.1167-0.5586
				h0.5581v5.2109h-0.7442v-4.6523H141.9849z"/>
			<path id="XMLID_694_" style="fill:#FFFFFF;" d="M147.94,76.4824c0,1.6739-0.5586,2.791-1.8614,2.791
				c-0.9301,0-1.6748-0.9306-1.6748-2.6054s0.7447-2.6055,1.8614-2.6055C147.1953,73.877,147.94,74.8066,147.94,76.4824z
				 M145.1485,76.668c0,1.3027,0.372,2.0468,1.1167,2.0468c0.7441,0,1.1162-0.7441,1.1162-2.2324
				c0-1.3027-0.3721-2.0469-1.1162-2.0469C145.5205,74.4355,145.1485,75.1797,145.1485,76.668z"/>
			<path id="XMLID_693_" style="fill:#FFFFFF;" d="M149.9868,74.6211L149.9868,74.6211l-0.9306,0.5586v-0.5586l1.1167-0.5586h0.5581
				v5.2109h-0.7442V74.6211z"/>
			<path id="XMLID_692_" style="fill:#FFFFFF;" d="M155.9414,76.4824c0,1.6739-0.5581,2.791-1.8608,2.791
				c-0.9307,0-1.6748-0.9306-1.6748-2.6054s0.7441-2.6055,1.8608-2.6055C155.3833,73.877,155.9414,74.8066,155.9414,76.4824z
				 M153.1499,76.668c0,1.3027,0.3726,2.0468,1.1167,2.0468c0.7446,0,1.1167-0.7441,1.1167-2.2324
				c0-1.3027-0.3721-2.0469-1.1167-2.0469C153.7085,74.4355,153.1499,75.1797,153.1499,76.668z"/>
			<path id="XMLID_691_" style="fill:#FFFFFF;" d="M160.0352,76.4824c0,1.6739-0.5581,2.791-1.8609,2.791
				c-0.9301,0-1.6748-0.9306-1.6748-2.6054s0.7447-2.6055,1.8609-2.6055C159.4771,73.877,160.0352,74.8066,160.0352,76.4824z
				 M157.2442,76.668c0,1.3027,0.372,2.0468,1.1162,2.0468c0.7446,0,1.1167-0.7441,1.1167-2.2324
				c0-1.3027-0.3721-2.0469-1.1167-2.0469C157.8023,74.4355,157.2442,75.1797,157.2442,76.668z"/>
			<path id="XMLID_690_" style="fill:#FFFFFF;" d="M97.5103,85.9727c0,1.6748-0.5586,2.791-1.8609,2.791
				c-0.9306,0-1.6748-0.9307-1.6748-2.6055c0-1.6748,0.7442-2.6055,1.8609-2.6055C96.9517,83.3672,97.5103,84.2969,97.5103,85.9727z
				 M94.7188,86.1582c0,1.3027,0.372,2.0469,1.1167,2.0469c0.7441,0,1.1162-0.7442,1.1162-2.2324
				c0-1.3028-0.3721-2.0469-1.1162-2.0469C95.0908,83.9258,94.7188,84.6699,94.7188,86.1582z"/>
			<path id="XMLID_689_" style="fill:#FFFFFF;" d="M99.7432,84.1113L99.7432,84.1113l-0.9307,0.5586l-0.186-0.5586l1.1167-0.5586
				h0.5581v5.211h-0.5581V84.1113z"/>
			<path id="XMLID_688_" style="fill:#FFFFFF;" d="M103.6509,84.1113L103.6509,84.1113l-0.9302,0.5586l-0.1865-0.5586l1.1167-0.5586
				h0.5581v5.211h-0.7441v-4.6524H103.6509z"/>
			<path id="XMLID_687_" style="fill:#FFFFFF;" d="M109.6055,85.9727c0,1.6748-0.5581,2.791-1.8609,2.791
				c-0.9301,0-1.6748-0.9307-1.6748-2.6055c0-1.6748,0.7447-2.6055,1.8614-2.6055
				C109.0474,83.3672,109.6055,84.2969,109.6055,85.9727z M106.8145,86.1582c0,1.3027,0.372,2.0469,1.1167,2.0469
				c0.7441,0,1.1162-0.7442,1.1162-2.2324c0-1.3028-0.3721-2.0469-1.1162-2.0469
				C107.3726,83.9258,106.8145,84.6699,106.8145,86.1582z"/>
			<path id="XMLID_686_" style="fill:#FFFFFF;" d="M111.8389,84.1113L111.8389,84.1113l-0.9307,0.5586l-0.186-0.5586l1.1167-0.5586
				h0.5581v5.211h-0.7442v-4.6524H111.8389z"/>
			<path id="XMLID_685_" style="fill:#FFFFFF;" d="M117.7935,85.9727c0,1.6748-0.5581,2.791-1.8609,2.791
				c-0.9301,0-1.6748-0.9307-1.6748-2.6055c0-1.6748,0.7447-2.6055,1.8609-2.6055
				C117.2354,83.3672,117.7935,84.2969,117.7935,85.9727z M115.0025,86.1582c0,1.3027,0.372,2.0469,1.1162,2.0469
				c0.7446,0,1.1167-0.7442,1.1167-2.2324c0-1.3028-0.3721-2.0469-1.1167-2.0469
				C115.3745,83.9258,115.0025,84.6699,115.0025,86.1582z"/>
			<path id="XMLID_684_" style="fill:#FFFFFF;" d="M121.8877,85.9727c0,1.6748-0.5586,2.791-1.8613,2.791
				c-0.9302,0-1.6743-0.9307-1.6743-2.6055c0-1.6748,0.7441-2.6055,1.8603-2.6055
				C121.3291,83.3672,121.8877,84.2969,121.8877,85.9727z M119.0962,86.1582c0,1.3027,0.3721,2.0469,1.1162,2.0469
				c0.7446,0,1.1167-0.7442,1.1167-2.2324c0-1.3028-0.3721-2.0469-1.1167-2.0469
				C119.4683,83.9258,119.0962,84.6699,119.0962,86.1582z"/>
			<path id="XMLID_683_" style="fill:#FFFFFF;" d="M123.9346,84.1113L123.9346,84.1113l-0.9307,0.5586l-0.186-0.5586l1.1167-0.5586
				h0.5581v5.211h-0.5581V84.1113z"/>
			<path id="XMLID_682_" style="fill:#FFFFFF;" d="M131.564,85.9727c0,1.6748-0.5581,2.791-1.8609,2.791
				c-0.9301,0-1.6748-0.9307-1.6748-2.6055c0-1.6748,0.7447-2.6055,1.8609-2.6055C131.0059,83.3672,131.564,84.2969,131.564,85.9727
				z M128.773,86.1582c0,1.3027,0.372,2.0469,1.1162,2.0469c0.7441,0,1.1167-0.7442,1.1167-2.2324
				c0-1.3028-0.3726-2.0469-1.1167-2.0469C129.3311,83.9258,128.773,84.6699,128.773,86.1582z"/>
			<path id="XMLID_681_" style="fill:#FFFFFF;" d="M133.7969,84.1113L133.7969,84.1113l-0.9302,0.5586l-0.186-0.5586l1.1162-0.5586
				h0.5586v5.211h-0.7446v-4.6524H133.7969z"/>
			<path id="XMLID_680_" style="fill:#FFFFFF;" d="M137.8911,84.1113L137.8911,84.1113l-0.9306,0.5586l-0.1861-0.5586l1.1167-0.5586
				h0.5581v5.211h-0.7446v-4.6524H137.8911z"/>
			<path id="XMLID_679_" style="fill:#FFFFFF;" d="M143.8457,85.9727c0,1.6748-0.5581,2.791-1.8608,2.791
				c-0.9307,0-1.6748-0.9307-1.6748-2.6055c0-1.6748,0.7441-2.6055,1.8608-2.6055
				C143.2876,83.3672,143.8457,84.2969,143.8457,85.9727z M141.0542,86.1582c0,1.3027,0.3726,2.0469,1.1167,2.0469
				c0.7442,0,1.1167-0.7442,1.1167-2.2324c0-1.3028-0.3725-2.0469-1.1167-2.0469
				C141.4268,83.9258,141.0542,84.6699,141.0542,86.1582z"/>
			<path id="XMLID_678_" style="fill:#FFFFFF;" d="M145.8926,84.1113L145.8926,84.1113l-0.9302,0.5586l-0.186-0.5586l1.1162-0.5586
				h0.5586v5.211h-0.7446v-4.6524H145.8926z"/>
			<path id="XMLID_677_" style="fill:#FFFFFF;" d="M149.9868,84.1113L149.9868,84.1113l-0.9306,0.5586l-0.1861-0.5586l1.1167-0.5586
				h0.5581v5.211h-0.5581V84.1113z"/>
			<path id="XMLID_676_" style="fill:#FFFFFF;" d="M154.0806,84.1113L154.0806,84.1113l-0.9307,0.5586l-0.186-0.5586l1.1167-0.5586
				h0.5581v5.211h-0.7442v-4.6524H154.0806z"/>
			<path id="XMLID_675_" style="fill:#FFFFFF;" d="M158.1743,84.1113L158.1743,84.1113l-0.9301,0.5586l-0.1861-0.5586l1.1162-0.5586
				h0.5586v5.211h-0.7446v-4.6524H158.1743z"/>
			<path id="XMLID_674_" style="fill:#FFFFFF;" d="M97.5103,95.4629c0,1.6748-0.5586,2.791-1.8609,2.791
				c-0.9306,0-1.6748-0.9297-1.6748-2.6055c0-1.6738,0.7442-2.6054,1.8609-2.6054C96.9517,92.8574,97.5103,93.7881,97.5103,95.4629z
				 M94.7188,95.6484c0,1.3028,0.372,2.0469,1.1167,2.0469c0.7441,0,1.1162-0.7441,1.1162-2.2324
				c0-1.3027-0.3721-2.0469-1.1162-2.0469C95.0908,93.416,94.7188,94.1602,94.7188,95.6484z"/>
			<path id="XMLID_673_" style="fill:#FFFFFF;" d="M99.7432,93.6016L99.7432,93.6016l-0.9307,0.5586l-0.186-0.5586l1.1167-0.5586
				h0.5581v5.2109h-0.5581V93.6016z"/>
			<path id="XMLID_672_" style="fill:#FFFFFF;" d="M103.6509,93.6016L103.6509,93.6016l-0.9302,0.5586l-0.1865-0.5586l1.1167-0.5586
				h0.5581v5.2109h-0.7441v-4.6523H103.6509z"/>
			<path id="XMLID_671_" style="fill:#FFFFFF;" d="M109.6055,95.4629c0,1.6748-0.5581,2.791-1.8609,2.791
				c-0.9301,0-1.6748-0.9297-1.6748-2.6055c0-1.6738,0.7447-2.6054,1.8614-2.6054
				C109.0474,92.8574,109.6055,93.7881,109.6055,95.4629z M106.8145,95.6484c0,1.3028,0.372,2.0469,1.1167,2.0469
				c0.7441,0,1.1162-0.7441,1.1162-2.2324c0-1.3027-0.3721-2.0469-1.1162-2.0469C107.3726,93.416,106.8145,94.1602,106.8145,95.6484
				z"/>
			<path id="XMLID_670_" style="fill:#FFFFFF;" d="M111.8389,93.6016L111.8389,93.6016l-0.9307,0.5586l-0.186-0.5586l1.1167-0.5586
				h0.5581v5.2109h-0.7442v-4.6523H111.8389z"/>
			<path id="XMLID_669_" style="fill:#FFFFFF;" d="M115.9326,93.6016L115.9326,93.6016l-0.9301,0.5586l-0.1861-0.5586l1.1162-0.5586
				h0.5581v5.2109h-0.7441v-4.6523H115.9326z"/>
			<path id="XMLID_668_" style="fill:#FFFFFF;" d="M120.0264,93.6016L120.0264,93.6016l-0.9302,0.5586l-0.186-0.5586l1.1162-0.5586
				h0.5586v5.2109h-0.7447v-4.6523H120.0264z"/>
			<path id="XMLID_667_" style="fill:#FFFFFF;" d="M125.9815,95.4629c0,1.6748-0.5581,2.791-1.8609,2.791
				c-0.9306,0-1.6748-0.9297-1.6748-2.6055c0-1.6738,0.7442-2.6054,1.8609-2.6054
				C125.2368,92.8574,125.9815,93.7881,125.9815,95.4629z M123.19,95.6484c0,1.3028,0.372,2.0469,1.1167,2.0469
				c0.7441,0,1.1167-0.7441,1.1167-2.2324c0-1.3027-0.3726-2.0469-1.1167-2.0469C123.562,93.416,123.19,94.1602,123.19,95.6484z"/>
			<path id="XMLID_666_" style="fill:#FFFFFF;" d="M131.564,95.4629c0,1.6748-0.5581,2.791-1.8609,2.791
				c-0.9301,0-1.6748-0.9297-1.6748-2.6055c0-1.6738,0.7447-2.6054,1.8609-2.6054C131.0059,92.8574,131.564,93.7881,131.564,95.4629
				z M128.773,95.6484c0,1.3028,0.372,2.0469,1.1162,2.0469c0.7441,0,1.1167-0.7441,1.1167-2.2324
				c0-1.3027-0.3726-2.0469-1.1167-2.0469C129.3311,93.416,128.773,94.1602,128.773,95.6484z"/>
			<path id="XMLID_665_" style="fill:#FFFFFF;" d="M135.6577,95.4629c0,1.6748-0.5581,2.791-1.8608,2.791
				c-0.9302,0-1.6748-0.9297-1.6748-2.6055c0-1.6738,0.7446-2.6054,1.8613-2.6054
				C135.0996,92.8574,135.6577,93.7881,135.6577,95.4629z M132.8667,95.6484c0,1.3028,0.3721,2.0469,1.1167,2.0469
				c0.7442,0,1.1162-0.7441,1.1162-2.2324c0-1.3027-0.372-2.0469-1.1162-2.0469C133.4248,93.416,132.8667,94.1602,132.8667,95.6484z
				"/>
			<path id="XMLID_664_" style="fill:#FFFFFF;" d="M137.8911,93.6016L137.8911,93.6016l-0.9306,0.5586l-0.1861-0.5586l1.1167-0.5586
				h0.5581v5.2109h-0.7446v-4.6523H137.8911z"/>
			<path id="XMLID_663_" style="fill:#FFFFFF;" d="M143.8457,95.4629c0,1.6748-0.5581,2.791-1.8608,2.791
				c-0.9307,0-1.6748-0.9297-1.6748-2.6055c0-1.6738,0.7441-2.6054,1.8608-2.6054
				C143.2876,92.8574,143.8457,93.7881,143.8457,95.4629z M141.0542,95.6484c0,1.3028,0.3726,2.0469,1.1167,2.0469
				c0.7442,0,1.1167-0.7441,1.1167-2.2324c0-1.3027-0.3725-2.0469-1.1167-2.0469C141.4268,93.416,141.0542,94.1602,141.0542,95.6484
				z"/>
			<path id="XMLID_662_" style="fill:#FFFFFF;" d="M147.94,95.4629c0,1.6748-0.5586,2.791-1.8614,2.791
				c-0.9301,0-1.6748-0.9297-1.6748-2.6055c0-1.6738,0.7447-2.6054,1.8614-2.6054C147.1953,92.8574,147.94,93.7881,147.94,95.4629z
				 M145.1485,95.6484c0,1.3028,0.372,2.0469,1.1167,2.0469c0.7441,0,1.1162-0.7441,1.1162-2.2324
				c0-1.3027-0.3721-2.0469-1.1162-2.0469C145.5205,93.416,145.1485,94.1602,145.1485,95.6484z"/>
			<path id="XMLID_661_" style="fill:#FFFFFF;" d="M152.0337,95.4629c0,1.6748-0.5581,2.791-1.8608,2.791
				c-0.9307,0-1.6748-0.9297-1.6748-2.6055c0-1.6738,0.7441-2.6054,1.8608-2.6054
				C151.2891,92.8574,152.0337,93.7881,152.0337,95.4629z M149.2422,95.6484c0,1.3028,0.3721,2.0469,1.1167,2.0469
				c0.7441,0,1.1167-0.7441,1.1167-2.2324c0-1.3027-0.3726-2.0469-1.1167-2.0469C149.6143,93.416,149.2422,94.1602,149.2422,95.6484
				z"/>
			<path id="XMLID_660_" style="fill:#FFFFFF;" d="M155.9414,95.4629c0,1.6748-0.5581,2.791-1.8608,2.791
				c-0.9307,0-1.6748-0.9297-1.6748-2.6055c0-1.6738,0.7441-2.6054,1.8608-2.6054
				C155.3833,92.8574,155.9414,93.7881,155.9414,95.4629z M153.1499,95.6484c0,1.3028,0.3726,2.0469,1.1167,2.0469
				c0.7446,0,1.1167-0.7441,1.1167-2.2324c0-1.3027-0.3721-2.0469-1.1167-2.0469C153.7085,93.416,153.1499,94.1602,153.1499,95.6484
				z"/>
			<path id="XMLID_659_" style="fill:#FFFFFF;" d="M160.0352,95.4629c0,1.6748-0.5581,2.791-1.8609,2.791
				c-0.9301,0-1.6748-0.9297-1.6748-2.6055c0-1.6738,0.7447-2.6054,1.8609-2.6054
				C159.4771,92.8574,160.0352,93.7881,160.0352,95.4629z M157.2442,95.6484c0,1.3028,0.372,2.0469,1.1162,2.0469
				c0.7446,0,1.1167-0.7441,1.1167-2.2324c0-1.3027-0.3721-2.0469-1.1167-2.0469C157.8023,93.416,157.2442,94.1602,157.2442,95.6484
				z"/>
			<path id="XMLID_658_" style="fill:#FFFFFF;" d="M97.5103,104.9531c0,1.6758-0.5586,2.791-1.8609,2.791
				c-0.9306,0-1.6748-0.9296-1.6748-2.6054c0-1.6739,0.7442-2.6045,1.8609-2.6045
				C96.9517,102.3477,97.5103,103.2783,97.5103,104.9531z M94.7188,105.1387c0,1.3027,0.372,2.0478,1.1167,2.0478
				c0.7441,0,1.1162-0.7451,1.1162-2.2334c0-1.3027-0.3721-2.0468-1.1162-2.0468
				C95.0908,102.9063,94.7188,103.6504,94.7188,105.1387z"/>
			<path id="XMLID_657_" style="fill:#FFFFFF;" d="M99.7432,103.0918L99.7432,103.0918l-0.9307,0.5586l-0.186-0.5586l1.1167-0.5576
				h0.5581v5.2099h-0.5581V103.0918z"/>
			<path id="XMLID_656_" style="fill:#FFFFFF;" d="M103.6509,103.0918L103.6509,103.0918l-0.9302,0.5586l-0.1865-0.5586
				l1.1167-0.5576h0.5581v5.2099h-0.7441v-4.6523H103.6509z"/>
			<path id="XMLID_655_" style="fill:#FFFFFF;" d="M109.6055,104.9531c0,1.6758-0.5581,2.791-1.8609,2.791
				c-0.9301,0-1.6748-0.9296-1.6748-2.6054c0-1.6739,0.7447-2.6045,1.8614-2.6045
				C109.0474,102.3477,109.6055,103.2783,109.6055,104.9531z M106.8145,105.1387c0,1.3027,0.372,2.0478,1.1167,2.0478
				c0.7441,0,1.1162-0.7451,1.1162-2.2334c0-1.3027-0.3721-2.0468-1.1162-2.0468
				C107.3726,102.9063,106.8145,103.6504,106.8145,105.1387z"/>
			<path id="XMLID_654_" style="fill:#FFFFFF;" d="M113.6997,104.9531c0,1.6758-0.5581,2.791-1.8608,2.791
				c-0.9307,0-1.6748-0.9296-1.6748-2.6054c0-1.6739,0.7441-2.6045,1.8608-2.6045
				C113.1416,102.3477,113.6997,103.2783,113.6997,104.9531z M110.9082,105.1387c0,1.3027,0.3721,2.0478,1.1167,2.0478
				c0.7442,0,1.1167-0.7451,1.1167-2.2334c0-1.3027-0.3725-2.0468-1.1167-2.0468
				C111.4668,102.9063,110.9082,103.6504,110.9082,105.1387z"/>
			<path id="XMLID_653_" style="fill:#FFFFFF;" d="M115.9326,103.0918L115.9326,103.0918l-0.9301,0.5586l-0.1861-0.5586
				l1.1162-0.5576h0.5581v5.2099h-0.7441v-4.6523H115.9326z"/>
			<path id="XMLID_652_" style="fill:#FFFFFF;" d="M121.8877,104.9531c0,1.6758-0.5586,2.791-1.8613,2.791
				c-0.9302,0-1.6743-0.9296-1.6743-2.6054c0-1.6739,0.7441-2.6045,1.8603-2.6045
				C121.3291,102.3477,121.8877,103.2783,121.8877,104.9531z M119.0962,105.1387c0,1.3027,0.3721,2.0478,1.1162,2.0478
				c0.7446,0,1.1167-0.7451,1.1167-2.2334c0-1.3027-0.3721-2.0468-1.1167-2.0468
				C119.4683,102.9063,119.0962,103.6504,119.0962,105.1387z"/>
			<path id="XMLID_651_" style="fill:#FFFFFF;" d="M125.9815,104.9531c0,1.6758-0.5581,2.791-1.8609,2.791
				c-0.9306,0-1.6748-0.9296-1.6748-2.6054c0-1.6739,0.7442-2.6045,1.8609-2.6045
				C125.2368,102.3477,125.9815,103.2783,125.9815,104.9531z M123.19,105.1387c0,1.3027,0.372,2.0478,1.1167,2.0478
				c0.7441,0,1.1167-0.7451,1.1167-2.2334c0-1.3027-0.3726-2.0468-1.1167-2.0468C123.562,102.9063,123.19,103.6504,123.19,105.1387z
				"/>
			<path id="XMLID_650_" style="fill:#FFFFFF;" d="M131.564,104.9531c0,1.6758-0.5581,2.791-1.8609,2.791
				c-0.9301,0-1.6748-0.9296-1.6748-2.6054c0-1.6739,0.7447-2.6045,1.8609-2.6045
				C131.0059,102.3477,131.564,103.2783,131.564,104.9531z M128.773,105.1387c0,1.3027,0.372,2.0478,1.1162,2.0478
				c0.7441,0,1.1167-0.7451,1.1167-2.2334c0-1.3027-0.3726-2.0468-1.1167-2.0468
				C129.3311,102.9063,128.773,103.6504,128.773,105.1387z"/>
			<path id="XMLID_649_" style="fill:#FFFFFF;" d="M133.7969,103.0918L133.7969,103.0918l-0.9302,0.5586l-0.186-0.5586
				l1.1162-0.5576h0.5586v5.2099h-0.7446v-4.6523H133.7969z"/>
			<path id="XMLID_648_" style="fill:#FFFFFF;" d="M137.8911,103.0918L137.8911,103.0918l-0.9306,0.5586l-0.1861-0.5586
				l1.1167-0.5576h0.5581v5.2099h-0.7446v-4.6523H137.8911z"/>
			<path id="XMLID_647_" style="fill:#FFFFFF;" d="M143.8457,104.9531c0,1.6758-0.5581,2.791-1.8608,2.791
				c-0.9307,0-1.6748-0.9296-1.6748-2.6054c0-1.6739,0.7441-2.6045,1.8608-2.6045
				C143.2876,102.3477,143.8457,103.2783,143.8457,104.9531z M141.0542,105.1387c0,1.3027,0.3726,2.0478,1.1167,2.0478
				c0.7442,0,1.1167-0.7451,1.1167-2.2334c0-1.3027-0.3725-2.0468-1.1167-2.0468
				C141.4268,102.9063,141.0542,103.6504,141.0542,105.1387z"/>
			<path id="XMLID_646_" style="fill:#FFFFFF;" d="M147.94,104.9531c0,1.6758-0.5586,2.791-1.8614,2.791
				c-0.9301,0-1.6748-0.9296-1.6748-2.6054c0-1.6739,0.7447-2.6045,1.8614-2.6045
				C147.1953,102.3477,147.94,103.2783,147.94,104.9531z M145.1485,105.1387c0,1.3027,0.372,2.0478,1.1167,2.0478
				c0.7441,0,1.1162-0.7451,1.1162-2.2334c0-1.3027-0.3721-2.0468-1.1162-2.0468
				C145.5205,102.9063,145.1485,103.6504,145.1485,105.1387z"/>
			<path id="XMLID_645_" style="fill:#FFFFFF;" d="M149.9868,103.0918L149.9868,103.0918l-0.9306,0.5586l-0.1861-0.5586
				l1.1167-0.5576h0.5581v5.2099h-0.5581V103.0918z"/>
			<path id="XMLID_644_" style="fill:#FFFFFF;" d="M155.9414,104.9531c0,1.6758-0.5581,2.791-1.8608,2.791
				c-0.9307,0-1.6748-0.9296-1.6748-2.6054c0-1.6739,0.7441-2.6045,1.8608-2.6045
				C155.3833,102.3477,155.9414,103.2783,155.9414,104.9531z M153.1499,105.1387c0,1.3027,0.3726,2.0478,1.1167,2.0478
				c0.7446,0,1.1167-0.7451,1.1167-2.2334c0-1.3027-0.3721-2.0468-1.1167-2.0468
				C153.7085,102.9063,153.1499,103.6504,153.1499,105.1387z"/>
			<path id="XMLID_643_" style="fill:#FFFFFF;" d="M158.1743,103.0918L158.1743,103.0918l-0.9301,0.5586l-0.1861-0.5586
				l1.1162-0.5576h0.5586v5.2099h-0.7446v-4.6523H158.1743z"/>
			<path id="XMLID_642_" style="fill:#FFFFFF;" d="M97.5103,114.4434c0,1.6748-0.5586,2.791-1.8609,2.791
				c-0.9306,0-1.6748-0.9297-1.6748-2.6045c0-1.6748,0.7442-2.6055,1.8609-2.6055
				C96.9517,111.8379,97.5103,112.7695,97.5103,114.4434z M94.7188,114.6299c0,1.3027,0.372,2.0469,1.1167,2.0469
				c0.7441,0,1.1162-0.7442,1.1162-2.2334c0-1.3028-0.3721-2.0469-1.1162-2.0469
				C95.0908,112.3965,94.7188,113.1406,94.7188,114.6299z"/>
			<path id="XMLID_641_" style="fill:#FFFFFF;" d="M101.604,114.4434c0,1.6748-0.5581,2.791-1.8608,2.791
				c-0.9307,0-1.6748-0.9297-1.6748-2.6045c0-1.6748,0.7441-2.6055,1.8608-2.6055
				C100.8594,111.8379,101.604,112.7695,101.604,114.4434z M98.8125,114.6299c0,1.3027,0.3721,2.0469,1.1167,2.0469
				c0.7442,0,1.1167-0.7442,1.1167-2.2334c0-1.3028-0.3725-2.0469-1.1167-2.0469
				C99.1846,112.3965,98.8125,113.1406,98.8125,114.6299z"/>
			<path id="XMLID_640_" style="fill:#FFFFFF;" d="M103.6509,112.582L103.6509,112.582l-0.9302,0.5586l-0.1865-0.5586l1.1167-0.5576
				h0.5581v5.21h-0.7441v-4.6524H103.6509z"/>
			<path id="XMLID_639_" style="fill:#FFFFFF;" d="M109.6055,114.4434c0,1.6748-0.5581,2.791-1.8609,2.791
				c-0.9301,0-1.6748-0.9297-1.6748-2.6045c0-1.6748,0.7447-2.6055,1.8614-2.6055
				C109.0474,111.8379,109.6055,112.7695,109.6055,114.4434z M106.8145,114.6299c0,1.3027,0.372,2.0469,1.1167,2.0469
				c0.7441,0,1.1162-0.7442,1.1162-2.2334c0-1.3028-0.3721-2.0469-1.1162-2.0469
				C107.3726,112.3965,106.8145,113.1406,106.8145,114.6299z"/>
			<path id="XMLID_638_" style="fill:#FFFFFF;" d="M113.6997,114.4434c0,1.6748-0.5581,2.791-1.8608,2.791
				c-0.9307,0-1.6748-0.9297-1.6748-2.6045c0-1.6748,0.7441-2.6055,1.8608-2.6055
				C113.1416,111.8379,113.6997,112.7695,113.6997,114.4434z M110.9082,114.6299c0,1.3027,0.3721,2.0469,1.1167,2.0469
				c0.7442,0,1.1167-0.7442,1.1167-2.2334c0-1.3028-0.3725-2.0469-1.1167-2.0469
				C111.4668,112.3965,110.9082,113.1406,110.9082,114.6299z"/>
			<path id="XMLID_637_" style="fill:#FFFFFF;" d="M117.7935,114.4434c0,1.6748-0.5581,2.791-1.8609,2.791
				c-0.9301,0-1.6748-0.9297-1.6748-2.6045c0-1.6748,0.7447-2.6055,1.8609-2.6055
				C117.2354,111.8379,117.7935,112.7695,117.7935,114.4434z M115.0025,114.6299c0,1.3027,0.372,2.0469,1.1162,2.0469
				c0.7446,0,1.1167-0.7442,1.1167-2.2334c0-1.3028-0.3721-2.0469-1.1167-2.0469
				C115.3745,112.3965,115.0025,113.1406,115.0025,114.6299z"/>
			<path id="XMLID_636_" style="fill:#FFFFFF;" d="M121.8877,114.4434c0,1.6748-0.5586,2.791-1.8613,2.791
				c-0.9302,0-1.6743-0.9297-1.6743-2.6045c0-1.6748,0.7441-2.6055,1.8603-2.6055
				C121.3291,111.8379,121.8877,112.7695,121.8877,114.4434z M119.0962,114.6299c0,1.3027,0.3721,2.0469,1.1162,2.0469
				c0.7446,0,1.1167-0.7442,1.1167-2.2334c0-1.3028-0.3721-2.0469-1.1167-2.0469
				C119.4683,112.3965,119.0962,113.1406,119.0962,114.6299z"/>
			<path id="XMLID_635_" style="fill:#FFFFFF;" d="M125.9815,114.4434c0,1.6748-0.5581,2.791-1.8609,2.791
				c-0.9306,0-1.6748-0.9297-1.6748-2.6045c0-1.6748,0.7442-2.6055,1.8609-2.6055
				C125.2368,111.8379,125.9815,112.7695,125.9815,114.4434z M123.19,114.6299c0,1.3027,0.372,2.0469,1.1167,2.0469
				c0.7441,0,1.1167-0.7442,1.1167-2.2334c0-1.3028-0.3726-2.0469-1.1167-2.0469C123.562,112.3965,123.19,113.1406,123.19,114.6299z
				"/>
			<path id="XMLID_634_" style="fill:#FFFFFF;" d="M131.564,114.4434c0,1.6748-0.5581,2.791-1.8609,2.791
				c-0.9301,0-1.6748-0.9297-1.6748-2.6045c0-1.6748,0.7447-2.6055,1.8609-2.6055
				C131.0059,111.8379,131.564,112.7695,131.564,114.4434z M128.773,114.6299c0,1.3027,0.372,2.0469,1.1162,2.0469
				c0.7441,0,1.1167-0.7442,1.1167-2.2334c0-1.3028-0.3726-2.0469-1.1167-2.0469
				C129.3311,112.3965,128.773,113.1406,128.773,114.6299z"/>
			<path id="XMLID_633_" style="fill:#FFFFFF;" d="M133.7969,112.582L133.7969,112.582l-0.9302,0.5586l-0.186-0.5586l1.1162-0.5576
				h0.5586v5.21h-0.7446v-4.6524H133.7969z"/>
			<path id="XMLID_632_" style="fill:#FFFFFF;" d="M137.8911,112.582L137.8911,112.582l-0.9306,0.5586l-0.1861-0.5586l1.1167-0.5576
				h0.5581v5.21h-0.7446v-4.6524H137.8911z"/>
			<path id="XMLID_631_" style="fill:#FFFFFF;" d="M143.8457,114.4434c0,1.6748-0.5581,2.791-1.8608,2.791
				c-0.9307,0-1.6748-0.9297-1.6748-2.6045c0-1.6748,0.7441-2.6055,1.8608-2.6055
				C143.2876,111.8379,143.8457,112.7695,143.8457,114.4434z M141.0542,114.6299c0,1.3027,0.3726,2.0469,1.1167,2.0469
				c0.7442,0,1.1167-0.7442,1.1167-2.2334c0-1.3028-0.3725-2.0469-1.1167-2.0469
				C141.4268,112.3965,141.0542,113.1406,141.0542,114.6299z"/>
			<path id="XMLID_630_" style="fill:#FFFFFF;" d="M147.94,114.4434c0,1.6748-0.5586,2.791-1.8614,2.791
				c-0.9301,0-1.6748-0.9297-1.6748-2.6045c0-1.6748,0.7447-2.6055,1.8614-2.6055
				C147.1953,111.8379,147.94,112.7695,147.94,114.4434z M145.1485,114.6299c0,1.3027,0.372,2.0469,1.1167,2.0469
				c0.7441,0,1.1162-0.7442,1.1162-2.2334c0-1.3028-0.3721-2.0469-1.1162-2.0469
				C145.5205,112.3965,145.1485,113.1406,145.1485,114.6299z"/>
			<path id="XMLID_629_" style="fill:#FFFFFF;" d="M152.0337,114.4434c0,1.6748-0.5581,2.791-1.8608,2.791
				c-0.9307,0-1.6748-0.9297-1.6748-2.6045c0-1.6748,0.7441-2.6055,1.8608-2.6055
				C151.2891,111.8379,152.0337,112.7695,152.0337,114.4434z M149.2422,114.6299c0,1.3027,0.3721,2.0469,1.1167,2.0469
				c0.7441,0,1.1167-0.7442,1.1167-2.2334c0-1.3028-0.3726-2.0469-1.1167-2.0469
				C149.6143,112.3965,149.2422,113.1406,149.2422,114.6299z"/>
			<path id="XMLID_628_" style="fill:#FFFFFF;" d="M155.9414,114.4434c0,1.6748-0.5581,2.791-1.8608,2.791
				c-0.9307,0-1.6748-0.9297-1.6748-2.6045c0-1.6748,0.7441-2.6055,1.8608-2.6055
				C155.3833,111.8379,155.9414,112.7695,155.9414,114.4434z M153.1499,114.6299c0,1.3027,0.3726,2.0469,1.1167,2.0469
				c0.7446,0,1.1167-0.7442,1.1167-2.2334c0-1.3028-0.3721-2.0469-1.1167-2.0469
				C153.7085,112.3965,153.1499,113.1406,153.1499,114.6299z"/>
			<path id="XMLID_627_" style="fill:#FFFFFF;" d="M158.1743,112.582L158.1743,112.582l-0.9301,0.5586l-0.1861-0.5586l1.1162-0.5576
				h0.5586v5.21h-0.7446v-4.6524H158.1743z"/>
			<path id="XMLID_626_" style="fill:#FFFFFF;" d="M97.5103,123.9336c0,1.6758-0.5586,2.792-1.8609,2.792
				c-0.9306,0-1.6748-0.9307-1.6748-2.6055c0-1.6748,0.7442-2.6045,1.8609-2.6045
				C96.9517,121.3281,97.5103,122.2598,97.5103,123.9336z M94.7188,124.1201c0,1.3028,0.372,2.0469,1.1167,2.0469
				c0.7441,0,1.1162-0.7441,1.1162-2.2334c0-1.3027-0.3721-2.0469-1.1162-2.0469
				C95.0908,121.8867,94.7188,122.6309,94.7188,124.1201z"/>
			<path id="XMLID_625_" style="fill:#FFFFFF;" d="M99.7432,122.0732L99.7432,122.0732l-0.9307,0.5577l-0.186-0.5577l1.1167-0.5576
				h0.5581v5.21h-0.5581V122.0732z"/>
			<path id="XMLID_624_" style="fill:#FFFFFF;" d="M103.6509,122.0732L103.6509,122.0732l-0.9302,0.5577l-0.1865-0.5577
				l1.1167-0.5576h0.5581v5.21h-0.7441v-4.6524H103.6509z"/>
			<path id="XMLID_623_" style="fill:#FFFFFF;" d="M107.7446,122.0732L107.7446,122.0732l-0.9301,0.5577l-0.1861-0.5577
				l1.1162-0.5576h0.5586v5.21h-0.7446v-4.6524H107.7446z"/>
			<path id="XMLID_622_" style="fill:#FFFFFF;" d="M113.6997,123.9336c0,1.6758-0.5581,2.792-1.8608,2.792
				c-0.9307,0-1.6748-0.9307-1.6748-2.6055c0-1.6748,0.7441-2.6045,1.8608-2.6045
				C113.1416,121.3281,113.6997,122.2598,113.6997,123.9336z M110.9082,124.1201c0,1.3028,0.3721,2.0469,1.1167,2.0469
				c0.7442,0,1.1167-0.7441,1.1167-2.2334c0-1.3027-0.3725-2.0469-1.1167-2.0469
				C111.4668,121.8867,110.9082,122.6309,110.9082,124.1201z"/>
			<path id="XMLID_621_" style="fill:#FFFFFF;" d="M117.7935,123.9336c0,1.6758-0.5581,2.792-1.8609,2.792
				c-0.9301,0-1.6748-0.9307-1.6748-2.6055c0-1.6748,0.7447-2.6045,1.8609-2.6045
				C117.2354,121.3281,117.7935,122.2598,117.7935,123.9336z M115.0025,124.1201c0,1.3028,0.372,2.0469,1.1162,2.0469
				c0.7446,0,1.1167-0.7441,1.1167-2.2334c0-1.3027-0.3721-2.0469-1.1167-2.0469
				C115.3745,121.8867,115.0025,122.6309,115.0025,124.1201z"/>
			<path id="XMLID_620_" style="fill:#FFFFFF;" d="M120.0264,122.0732L120.0264,122.0732l-0.9302,0.5577l-0.186-0.5577
				l1.1162-0.5576h0.5586v5.21h-0.7447v-4.6524H120.0264z"/>
			<path id="XMLID_619_" style="fill:#FFFFFF;" d="M125.9815,123.9336c0,1.6758-0.5581,2.792-1.8609,2.792
				c-0.9306,0-1.6748-0.9307-1.6748-2.6055c0-1.6748,0.7442-2.6045,1.8609-2.6045
				C125.2368,121.3281,125.9815,122.2598,125.9815,123.9336z M123.19,124.1201c0,1.3028,0.372,2.0469,1.1167,2.0469
				c0.7441,0,1.1167-0.7441,1.1167-2.2334c0-1.3027-0.3726-2.0469-1.1167-2.0469C123.562,121.8867,123.19,122.6309,123.19,124.1201z
				"/>
			<path id="XMLID_618_" style="fill:#FFFFFF;" d="M131.564,123.9336c0,1.6758-0.5581,2.792-1.8609,2.792
				c-0.9301,0-1.6748-0.9307-1.6748-2.6055c0-1.6748,0.7447-2.6045,1.8609-2.6045
				C131.0059,121.3281,131.564,122.2598,131.564,123.9336z M128.773,124.1201c0,1.3028,0.372,2.0469,1.1162,2.0469
				c0.7441,0,1.1167-0.7441,1.1167-2.2334c0-1.3027-0.3726-2.0469-1.1167-2.0469
				C129.3311,121.8867,128.773,122.6309,128.773,124.1201z"/>
			<path id="XMLID_617_" style="fill:#FFFFFF;" d="M133.7969,122.0732L133.7969,122.0732l-0.9302,0.5577l-0.186-0.5577
				l1.1162-0.5576h0.5586v5.21h-0.7446v-4.6524H133.7969z"/>
			<path id="XMLID_616_" style="fill:#FFFFFF;" d="M137.8911,122.0732L137.8911,122.0732l-0.9306,0.5577l-0.1861-0.5577
				l1.1167-0.5576h0.5581v5.21h-0.7446v-4.6524H137.8911z"/>
			<path id="XMLID_615_" style="fill:#FFFFFF;" d="M143.8457,123.9336c0,1.6758-0.5581,2.792-1.8608,2.792
				c-0.9307,0-1.6748-0.9307-1.6748-2.6055c0-1.6748,0.7441-2.6045,1.8608-2.6045
				C143.2876,121.3281,143.8457,122.2598,143.8457,123.9336z M141.0542,124.1201c0,1.3028,0.3726,2.0469,1.1167,2.0469
				c0.7442,0,1.1167-0.7441,1.1167-2.2334c0-1.3027-0.3725-2.0469-1.1167-2.0469
				C141.4268,121.8867,141.0542,122.6309,141.0542,124.1201z"/>
			<path id="XMLID_614_" style="fill:#FFFFFF;" d="M147.94,123.9336c0,1.6758-0.5586,2.792-1.8614,2.792
				c-0.9301,0-1.6748-0.9307-1.6748-2.6055c0-1.6748,0.7447-2.6045,1.8614-2.6045
				C147.1953,121.3281,147.94,122.2598,147.94,123.9336z M145.1485,124.1201c0,1.3028,0.372,2.0469,1.1167,2.0469
				c0.7441,0,1.1162-0.7441,1.1162-2.2334c0-1.3027-0.3721-2.0469-1.1162-2.0469
				C145.5205,121.8867,145.1485,122.6309,145.1485,124.1201z"/>
			<path id="XMLID_613_" style="fill:#FFFFFF;" d="M152.0337,123.9336c0,1.6758-0.5581,2.792-1.8608,2.792
				c-0.9307,0-1.6748-0.9307-1.6748-2.6055c0-1.6748,0.7441-2.6045,1.8608-2.6045
				C151.2891,121.3281,152.0337,122.2598,152.0337,123.9336z M149.2422,124.1201c0,1.3028,0.3721,2.0469,1.1167,2.0469
				c0.7441,0,1.1167-0.7441,1.1167-2.2334c0-1.3027-0.3726-2.0469-1.1167-2.0469
				C149.6143,121.8867,149.2422,122.6309,149.2422,124.1201z"/>
			<path id="XMLID_612_" style="fill:#FFFFFF;" d="M154.0806,122.0732L154.0806,122.0732l-0.9307,0.5577l-0.186-0.5577
				l1.1167-0.5576h0.5581v5.21h-0.7442v-4.6524H154.0806z"/>
			<path id="XMLID_611_" style="fill:#FFFFFF;" d="M158.1743,122.0732L158.1743,122.0732l-0.9301,0.5577l-0.1861-0.5577
				l1.1162-0.5576h0.5586v5.21h-0.7446v-4.6524H158.1743z"/>
			<path id="XMLID_610_" style="fill:#FFFFFF;" d="M97.5103,133.4238c0,1.6758-0.5586,2.792-1.8609,2.792
				c-0.9306,0-1.6748-0.9306-1.6748-2.6045c0-1.6758,0.7442-2.6054,1.8609-2.6054C96.9517,130.8193,97.5103,131.75,97.5103,133.4238
				z M94.7188,133.6113c0,1.3018,0.372,2.0469,1.1167,2.0469c0.7441,0,1.1162-0.7451,1.1162-2.2344
				c0-1.3017-0.3721-2.0468-1.1162-2.0468C95.0908,131.377,94.7188,132.1221,94.7188,133.6113z"/>
			<path id="XMLID_609_" style="fill:#FFFFFF;" d="M99.7432,131.5635L99.7432,131.5635l-0.9307,0.5586l-0.186-0.5586l1.1167-0.5576
				h0.5581v5.0234h-0.5581V131.5635z"/>
			<path id="XMLID_608_" style="fill:#FFFFFF;" d="M103.6509,131.5635L103.6509,131.5635l-0.9302,0.5586l-0.1865-0.5586
				l1.1167-0.5576h0.5581v5.0234h-0.7441v-4.4658H103.6509z"/>
			<path id="XMLID_607_" style="fill:#FFFFFF;" d="M109.6055,133.4238c0,1.6758-0.5581,2.792-1.8609,2.792
				c-0.9301,0-1.6748-0.9306-1.6748-2.6045c0-1.6758,0.7447-2.6054,1.8614-2.6054
				C109.0474,130.8193,109.6055,131.75,109.6055,133.4238z M106.8145,133.6113c0,1.3018,0.372,2.0469,1.1167,2.0469
				c0.7441,0,1.1162-0.7451,1.1162-2.2344c0-1.3017-0.3721-2.0468-1.1162-2.0468
				C107.3726,131.377,106.8145,132.1221,106.8145,133.6113z"/>
			<path id="XMLID_606_" style="fill:#FFFFFF;" d="M111.8389,131.5635L111.8389,131.5635l-0.9307,0.5586l-0.186-0.5586
				l1.1167-0.5576h0.5581v5.0234h-0.7442v-4.4658H111.8389z"/>
			<path id="XMLID_605_" style="fill:#FFFFFF;" d="M117.7935,133.4238c0,1.6758-0.5581,2.792-1.8609,2.792
				c-0.9301,0-1.6748-0.9306-1.6748-2.6045c0-1.6758,0.7447-2.6054,1.8609-2.6054
				C117.2354,130.8193,117.7935,131.75,117.7935,133.4238z M115.0025,133.6113c0,1.3018,0.372,2.0469,1.1162,2.0469
				c0.7446,0,1.1167-0.7451,1.1167-2.2344c0-1.3017-0.3721-2.0468-1.1167-2.0468
				C115.3745,131.377,115.0025,132.1221,115.0025,133.6113z"/>
			<path id="XMLID_604_" style="fill:#FFFFFF;" d="M121.8877,133.4238c0,1.6758-0.5586,2.792-1.8613,2.792
				c-0.9302,0-1.6743-0.9306-1.6743-2.6045c0-1.6758,0.7441-2.6054,1.8603-2.6054
				C121.3291,130.8193,121.8877,131.75,121.8877,133.4238z M119.0962,133.6113c0,1.3018,0.3721,2.0469,1.1162,2.0469
				c0.7446,0,1.1167-0.7451,1.1167-2.2344c0-1.3017-0.3721-2.0468-1.1167-2.0468
				C119.4683,131.377,119.0962,132.1221,119.0962,133.6113z"/>
			<path id="XMLID_603_" style="fill:#FFFFFF;" d="M125.9815,133.4238c0,1.6758-0.5581,2.792-1.8609,2.792
				c-0.9306,0-1.6748-0.9306-1.6748-2.6045c0-1.6758,0.7442-2.6054,1.8609-2.6054
				C125.2368,130.8193,125.9815,131.75,125.9815,133.4238z M123.19,133.6113c0,1.3018,0.372,2.0469,1.1167,2.0469
				c0.7441,0,1.1167-0.7451,1.1167-2.2344c0-1.3017-0.3726-2.0468-1.1167-2.0468C123.562,131.377,123.19,132.1221,123.19,133.6113z"
				/>
			<path id="XMLID_602_" style="fill:#FFFFFF;" d="M131.564,133.4238c0,1.6758-0.5581,2.792-1.8609,2.792
				c-0.9301,0-1.6748-0.9306-1.6748-2.6045c0-1.6758,0.7447-2.6054,1.8609-2.6054
				C131.0059,130.8193,131.564,131.75,131.564,133.4238z M128.773,133.6113c0,1.3018,0.372,2.0469,1.1162,2.0469
				c0.7441,0,1.1167-0.7451,1.1167-2.2344c0-1.3017-0.3726-2.0468-1.1167-2.0468
				C129.3311,131.377,128.773,132.1221,128.773,133.6113z"/>
			<path id="XMLID_601_" style="fill:#FFFFFF;" d="M133.7969,131.5635L133.7969,131.5635l-0.9302,0.5586l-0.186-0.5586
				l1.1162-0.5576h0.5586v5.0234h-0.7446v-4.4658H133.7969z"/>
			<path id="XMLID_600_" style="fill:#FFFFFF;" d="M137.8911,131.5635L137.8911,131.5635l-0.9306,0.5586l-0.1861-0.5586
				l1.1167-0.5576h0.5581v5.0234h-0.7446v-4.4658H137.8911z"/>
			<path id="XMLID_599_" style="fill:#FFFFFF;" d="M143.8457,133.4238c0,1.6758-0.5581,2.792-1.8608,2.792
				c-0.9307,0-1.6748-0.9306-1.6748-2.6045c0-1.6758,0.7441-2.6054,1.8608-2.6054
				C143.2876,130.8193,143.8457,131.75,143.8457,133.4238z M141.0542,133.6113c0,1.3018,0.3726,2.0469,1.1167,2.0469
				c0.7442,0,1.1167-0.7451,1.1167-2.2344c0-1.3017-0.3725-2.0468-1.1167-2.0468
				C141.4268,131.377,141.0542,132.1221,141.0542,133.6113z"/>
			<path id="XMLID_598_" style="fill:#FFFFFF;" d="M145.8926,131.5635L145.8926,131.5635l-0.9302,0.5586l-0.186-0.5586
				l1.1162-0.5576h0.5586v5.0234h-0.7446v-4.4658H145.8926z"/>
			<path id="XMLID_597_" style="fill:#FFFFFF;" d="M152.0337,133.4238c0,1.6758-0.5581,2.792-1.8608,2.792
				c-0.9307,0-1.6748-0.9306-1.6748-2.6045c0-1.6758,0.7441-2.6054,1.8608-2.6054
				C151.2891,130.8193,152.0337,131.75,152.0337,133.4238z M149.2422,133.6113c0,1.3018,0.3721,2.0469,1.1167,2.0469
				c0.7441,0,1.1167-0.7451,1.1167-2.2344c0-1.3017-0.3726-2.0468-1.1167-2.0468
				C149.6143,131.377,149.2422,132.1221,149.2422,133.6113z"/>
			<path id="XMLID_596_" style="fill:#FFFFFF;" d="M155.9414,133.4238c0,1.6758-0.5581,2.792-1.8608,2.792
				c-0.9307,0-1.6748-0.9306-1.6748-2.6045c0-1.6758,0.7441-2.6054,1.8608-2.6054
				C155.3833,130.8193,155.9414,131.75,155.9414,133.4238z M153.1499,133.6113c0,1.3018,0.3726,2.0469,1.1167,2.0469
				c0.7446,0,1.1167-0.7451,1.1167-2.2344c0-1.3017-0.3721-2.0468-1.1167-2.0468
				C153.7085,131.377,153.1499,132.1221,153.1499,133.6113z"/>
			<path id="XMLID_595_" style="fill:#FFFFFF;" d="M158.1743,131.5635L158.1743,131.5635l-0.9301,0.5586l-0.1861-0.5586
				l1.1162-0.5576h0.5586v5.0234h-0.7446v-4.4658H158.1743z"/>
			<path id="XMLID_594_" style="fill:#FFFFFF;" d="M97.5103,142.915c0,1.6748-0.5586,2.792-1.8609,2.792
				c-0.9306,0-1.6748-0.9316-1.6748-2.6054c0-1.6758,0.7442-2.6055,1.8609-2.6055
				C96.9517,140.3096,97.5103,141.2402,97.5103,142.915z M94.7188,143.1016c0,1.3027,0.372,2.0468,1.1167,2.0468
				c0.7441,0,1.1162-0.7441,1.1162-2.2334c0-1.3027-0.3721-2.0468-1.1162-2.0468
				C95.0908,140.8682,94.7188,141.6123,94.7188,143.1016z"/>
			<path id="XMLID_593_" style="fill:#FFFFFF;" d="M99.7432,141.0547L99.7432,141.0547l-0.9307,0.5576l-0.186-0.5576l1.1167-0.5586
				h0.5581v5.2109h-0.5581V141.0547z"/>
			<path id="XMLID_592_" style="fill:#FFFFFF;" d="M103.6509,141.0547L103.6509,141.0547l-0.9302,0.5576l-0.1865-0.5576
				l1.1167-0.5586h0.5581v5.2109h-0.7441v-4.6523H103.6509z"/>
			<path id="XMLID_591_" style="fill:#FFFFFF;" d="M107.7446,141.0547L107.7446,141.0547l-0.9301,0.5576l-0.1861-0.5576
				l1.1162-0.5586h0.5586v5.2109h-0.7446v-4.6523H107.7446z"/>
			<path id="XMLID_590_" style="fill:#FFFFFF;" d="M113.6997,142.915c0,1.6748-0.5581,2.792-1.8608,2.792
				c-0.9307,0-1.6748-0.9316-1.6748-2.6054c0-1.6758,0.7441-2.6055,1.8608-2.6055
				C113.1416,140.3096,113.6997,141.2402,113.6997,142.915z M110.9082,143.1016c0,1.3027,0.3721,2.0468,1.1167,2.0468
				c0.7442,0,1.1167-0.7441,1.1167-2.2334c0-1.3027-0.3725-2.0468-1.1167-2.0468
				C111.4668,140.8682,110.9082,141.6123,110.9082,143.1016z"/>
			<path id="XMLID_589_" style="fill:#FFFFFF;" d="M115.9326,141.0547L115.9326,141.0547l-0.9301,0.5576l-0.1861-0.5576
				l1.1162-0.5586h0.5581v5.2109h-0.7441v-4.6523H115.9326z"/>
			<path id="XMLID_588_" style="fill:#FFFFFF;" d="M120.0264,141.0547L120.0264,141.0547l-0.9302,0.5576l-0.186-0.5576
				l1.1162-0.5586h0.5586v5.2109h-0.7447v-4.6523H120.0264z"/>
			<path id="XMLID_587_" style="fill:#FFFFFF;" d="M125.9815,142.915c0,1.6748-0.5581,2.792-1.8609,2.792
				c-0.9306,0-1.6748-0.9316-1.6748-2.6054c0-1.6758,0.7442-2.6055,1.8609-2.6055
				C125.2368,140.3096,125.9815,141.2402,125.9815,142.915z M123.19,143.1016c0,1.3027,0.372,2.0468,1.1167,2.0468
				c0.7441,0,1.1167-0.7441,1.1167-2.2334c0-1.3027-0.3726-2.0468-1.1167-2.0468C123.562,140.8682,123.19,141.6123,123.19,143.1016z
				"/>
			<path id="XMLID_586_" style="fill:#FFFFFF;" d="M131.564,142.915c0,1.6748-0.5581,2.792-1.8609,2.792
				c-0.9301,0-1.6748-0.9316-1.6748-2.6054c0-1.6758,0.7447-2.6055,1.8609-2.6055
				C131.0059,140.3096,131.564,141.2402,131.564,142.915z M128.773,143.1016c0,1.3027,0.372,2.0468,1.1162,2.0468
				c0.7441,0,1.1167-0.7441,1.1167-2.2334c0-1.3027-0.3726-2.0468-1.1167-2.0468
				C129.3311,140.8682,128.773,141.6123,128.773,143.1016z"/>
			<path id="XMLID_585_" style="fill:#FFFFFF;" d="M133.7969,141.0547L133.7969,141.0547l-0.9302,0.5576l-0.186-0.5576
				l1.1162-0.5586h0.5586v5.2109h-0.7446v-4.6523H133.7969z"/>
			<path id="XMLID_584_" style="fill:#FFFFFF;" d="M137.8911,141.0547L137.8911,141.0547l-0.9306,0.5576l-0.1861-0.5576
				l1.1167-0.5586h0.5581v5.2109h-0.7446v-4.6523H137.8911z"/>
			<path id="XMLID_583_" style="fill:#FFFFFF;" d="M143.8457,142.915c0,1.6748-0.5581,2.792-1.8608,2.792
				c-0.9307,0-1.6748-0.9316-1.6748-2.6054c0-1.6758,0.7441-2.6055,1.8608-2.6055
				C143.2876,140.3096,143.8457,141.2402,143.8457,142.915z M141.0542,143.1016c0,1.3027,0.3726,2.0468,1.1167,2.0468
				c0.7442,0,1.1167-0.7441,1.1167-2.2334c0-1.3027-0.3725-2.0468-1.1167-2.0468
				C141.4268,140.8682,141.0542,141.6123,141.0542,143.1016z"/>
			<path id="XMLID_582_" style="fill:#FFFFFF;" d="M145.8926,141.0547L145.8926,141.0547l-0.7441,0.5576l-0.1861-0.5576
				l1.1162-0.5586h0.5586v5.2109h-0.7446V141.0547z"/>
			<path id="XMLID_581_" style="fill:#FFFFFF;" d="M149.9868,141.0547L149.9868,141.0547l-0.9306,0.5576l-0.1861-0.5576
				l1.1167-0.5586h0.5581v5.2109h-0.5581V141.0547z"/>
			<path id="XMLID_580_" style="fill:#FFFFFF;" d="M154.0806,141.0547L154.0806,141.0547l-0.9307,0.5576l-0.186-0.5576
				l1.1167-0.5586h0.5581v5.2109h-0.7442v-4.6523H154.0806z"/>
			<path id="XMLID_579_" style="fill:#FFFFFF;" d="M158.1743,141.0547L158.1743,141.0547l-0.9301,0.5576l-0.1861-0.5576
				l1.1162-0.5586h0.5586v5.2109h-0.7446v-4.6523H158.1743z"/>
			<path id="XMLID_578_" style="fill:#FFFFFF;" d="M97.5103,152.4053c0,1.6748-0.5586,2.792-1.8609,2.792
				c-0.9306,0-1.6748-0.9317-1.6748-2.6055c0-1.6758,0.7442-2.6055,1.8609-2.6055
				C96.9517,149.8008,97.5103,150.916,97.5103,152.4053z M94.7188,152.5918c0,1.3027,0.372,2.0469,1.1167,2.0469
				c0.7441,0,1.1162-0.7442,1.1162-2.2334c0-1.3018-0.3721-2.0469-1.1162-2.0469
				C95.0908,150.3584,94.7188,151.1035,94.7188,152.5918z"/>
			<path id="XMLID_577_" style="fill:#FFFFFF;" d="M99.7432,150.5449L99.7432,150.5449l-0.9307,0.5586l-0.186-0.5586l1.1167-0.5586
				h0.5581v5.211h-0.5581V150.5449z"/>
			<path id="XMLID_576_" style="fill:#FFFFFF;" d="M103.6509,150.5449L103.6509,150.5449l-0.9302,0.5586l-0.1865-0.5586
				l1.1167-0.5586h0.5581v5.211h-0.7441v-4.6524H103.6509z"/>
			<path id="XMLID_575_" style="fill:#FFFFFF;" d="M107.7446,150.5449L107.7446,150.5449l-0.9301,0.5586l-0.1861-0.5586
				l1.1162-0.5586h0.5586v5.211h-0.7446v-4.6524H107.7446z"/>
			<path id="XMLID_574_" style="fill:#FFFFFF;" d="M113.6997,152.4053c0,1.6748-0.5581,2.792-1.8608,2.792
				c-0.9307,0-1.6748-0.9317-1.6748-2.6055c0-1.6758,0.7441-2.6055,1.8608-2.6055
				C113.1416,149.8008,113.6997,150.916,113.6997,152.4053z M110.9082,152.5918c0,1.3027,0.3721,2.0469,1.1167,2.0469
				c0.7442,0,1.1167-0.7442,1.1167-2.2334c0-1.3018-0.3725-2.0469-1.1167-2.0469
				C111.4668,150.3584,110.9082,151.1035,110.9082,152.5918z"/>
			<path id="XMLID_573_" style="fill:#FFFFFF;" d="M117.7935,152.4053c0,1.6748-0.5581,2.792-1.8609,2.792
				c-0.9301,0-1.6748-0.9317-1.6748-2.6055c0-1.6758,0.7447-2.6055,1.8609-2.6055
				C117.2354,149.8008,117.7935,150.916,117.7935,152.4053z M115.0025,152.5918c0,1.3027,0.372,2.0469,1.1162,2.0469
				c0.7446,0,1.1167-0.7442,1.1167-2.2334c0-1.3018-0.3721-2.0469-1.1167-2.0469
				C115.3745,150.3584,115.0025,151.1035,115.0025,152.5918z"/>
			<path id="XMLID_572_" style="fill:#FFFFFF;" d="M120.0264,150.5449L120.0264,150.5449l-0.9302,0.5586l-0.186-0.5586
				l1.1162-0.5586h0.5586v5.211h-0.7447v-4.6524H120.0264z"/>
			<path id="XMLID_571_" style="fill:#FFFFFF;" d="M123.9346,150.5449L123.9346,150.5449l-0.9307,0.5586l-0.186-0.5586
				l1.1167-0.5586h0.5581v5.211h-0.5581V150.5449z"/>
			<path id="XMLID_570_" style="fill:#FFFFFF;" d="M131.564,152.4053c0,1.6748-0.5581,2.792-1.8609,2.792
				c-0.9301,0-1.6748-0.9317-1.6748-2.6055c0-1.6758,0.7447-2.6055,1.8609-2.6055
				C131.0059,149.8008,131.564,150.916,131.564,152.4053z M128.773,152.5918c0,1.3027,0.372,2.0469,1.1162,2.0469
				c0.7441,0,1.1167-0.7442,1.1167-2.2334c0-1.3018-0.3726-2.0469-1.1167-2.0469
				C129.3311,150.3584,128.773,151.1035,128.773,152.5918z"/>
			<path id="XMLID_569_" style="fill:#FFFFFF;" d="M133.7969,150.5449L133.7969,150.5449l-0.9302,0.5586l-0.186-0.5586
				l1.1162-0.5586h0.5586v5.211h-0.7446v-4.6524H133.7969z"/>
			<path id="XMLID_568_" style="fill:#FFFFFF;" d="M139.752,152.4053c0,1.6748-0.5586,2.792-1.8609,2.792
				c-0.9306,0-1.6748-0.9317-1.6748-2.6055c0-1.6758,0.7442-2.6055,1.8609-2.6055
				C139.1934,149.8008,139.752,150.916,139.752,152.4053z M136.9605,152.5918c0,1.3027,0.372,2.0469,1.1167,2.0469
				c0.7441,0,1.1162-0.7442,1.1162-2.2334c0-1.3018-0.3721-2.0469-1.1162-2.0469
				C137.3325,150.3584,136.9605,151.1035,136.9605,152.5918z"/>
			<path id="XMLID_567_" style="fill:#FFFFFF;" d="M143.8457,152.4053c0,1.6748-0.5581,2.792-1.8608,2.792
				c-0.9307,0-1.6748-0.9317-1.6748-2.6055c0-1.6758,0.7441-2.6055,1.8608-2.6055
				C143.2876,149.8008,143.8457,150.916,143.8457,152.4053z M141.0542,152.5918c0,1.3027,0.3726,2.0469,1.1167,2.0469
				c0.7442,0,1.1167-0.7442,1.1167-2.2334c0-1.3018-0.3725-2.0469-1.1167-2.0469
				C141.4268,150.3584,141.0542,151.1035,141.0542,152.5918z"/>
			<path id="XMLID_566_" style="fill:#FFFFFF;" d="M147.94,152.4053c0,1.6748-0.5586,2.792-1.8614,2.792
				c-0.9301,0-1.6748-0.9317-1.6748-2.6055c0-1.6758,0.7447-2.6055,1.8614-2.6055C147.1953,149.8008,147.94,150.916,147.94,152.4053
				z M145.1485,152.5918c0,1.3027,0.372,2.0469,1.1167,2.0469c0.7441,0,1.1162-0.7442,1.1162-2.2334
				c0-1.3018-0.3721-2.0469-1.1162-2.0469C145.5205,150.3584,145.1485,151.1035,145.1485,152.5918z"/>
			<path id="XMLID_565_" style="fill:#FFFFFF;" d="M149.9868,150.5449L149.9868,150.5449l-0.9306,0.5586l-0.1861-0.5586
				l1.1167-0.5586h0.5581v5.211h-0.5581V150.5449z"/>
			<path id="XMLID_564_" style="fill:#FFFFFF;" d="M154.0806,150.5449L154.0806,150.5449l-0.9307,0.5586l-0.186-0.5586
				l1.1167-0.5586h0.5581v5.211h-0.7442v-4.6524H154.0806z"/>
			<path id="XMLID_563_" style="fill:#FFFFFF;" d="M158.1743,150.5449L158.1743,150.5449l-0.9301,0.5586l-0.1861-0.5586
				l1.1162-0.5586h0.5586v5.211h-0.7446v-4.6524H158.1743z"/>
		</g>
	</g>
</g>
</svg>
