<?xml version="1.0" encoding="utf-8"?>
<!-- Generator: Adobe Illustrator 21.0.0, SVG Export Plug-In . SVG Version: 6.00 Build 0)  -->
<svg version="1.1" id="Capa_1" xmlns="http://www.w3.org/2000/svg" xmlns:xlink="http://www.w3.org/1999/xlink" x="0px" y="0px"
	 viewBox="0 0 229.3398 229.3398" style="enable-background:new 0 0 229.3398 229.3398;" xml:space="preserve">
<g>
	<circle style="fill:#84DBFF;" cx="114.6699" cy="114.6699" r="114.6699"/>
	<path style="fill:#54C0EB;" d="M36.1165,198.099c20.5864,19.3223,48.2155,31.2408,78.5534,31.2408s57.967-11.9184,78.5534-31.2408
		H36.1165z"/>
	<g>
		
			<rect x="149.4884" y="89.9364" transform="matrix(0.4362 -0.8998 0.8998 0.4362 15.7009 206.5579)" style="fill:#FFFFFF;" width="46.4076" height="1.6252"/>
		
			<rect x="192.0593" y="67.5312" transform="matrix(0.8999 -0.4361 0.4361 0.8999 -20.2632 93.1941)" style="fill:#FFFFFF;" width="1.6252" height="46.4098"/>
		<rect x="182.0272" y="69.8854" style="fill:#FFFFFF;" width="1.6252" height="41.3534"/>
	</g>
	<path style="fill:#324A5E;" d="M197.1961,122.6155h-28.8932c-3.7922,0-6.8621-3.0699-6.8621-6.8621v-4.6951h42.798v4.5146
		C204.2388,119.5456,200.9884,122.6155,197.1961,122.6155z"/>
	<g>
		
			<rect x="13.162" y="89.9128" transform="matrix(0.4363 -0.8998 0.8998 0.4363 -61.1349 83.8648)" style="fill:#FFFFFF;" width="46.4097" height="1.6252"/>
		
			<rect x="55.7636" y="67.4672" transform="matrix(0.8999 -0.4361 0.4361 0.8999 -33.8787 33.7493)" style="fill:#FFFFFF;" width="1.6252" height="46.4098"/>
		<rect x="45.6874" y="69.8854" style="fill:#FFFFFF;" width="1.6252" height="41.3534"/>
	</g>
	<path style="fill:#324A5E;" d="M61.0369,122.6155H32.1437c-3.7922,0-6.8621-3.0699-6.8621-6.8621v-4.6951h42.7981v4.5146
		C67.899,119.5456,64.8291,122.6155,61.0369,122.6155z"/>
	<g>
		<path style="fill:#FFFFFF;" d="M110.3359,90.6524c1.0835,1.8058,1.2641,3.6116,1.8058,5.4175
			c0.3612,1.8058,0.7223,3.7922,0.7223,5.5981c0,1.9864-0.1806,3.7922-0.3612,5.7786c-0.5417,3.9728-1.8058,7.9456-2.8893,11.9184
			c-1.2641,3.9728-1.8058,7.9456-1.6253,11.9184c0,3.9728,0.7223,7.765,1.4447,11.5573c0.9029,3.7922,1.6252,7.4039,1.9864,10.6544
			c0.3612,3.4311,0.5417,6.6815,0.9029,9.5709c0.1806,2.8893,0.3612,5.7786,0.3612,8.1262s0.1806,4.5146,0.1806,6.3204
			c0,1.4447,0,2.7087,0,3.6116h4.334c0-0.9029,0-2.167,0-3.6116c0-1.8058,0-3.7922,0.1806-6.3204
			c0.1806-2.3476,0.1806-5.2369,0.3612-8.1262c0.1806-2.8893,0.5418-6.1398,0.9029-9.5709
			c0.3612-3.4311,1.2641-7.0427,1.9864-10.6544c0.9029-3.7922,1.4447-7.5845,1.4447-11.5573c0-3.9728-0.5418-7.9456-1.6252-11.9184
			c-1.0835-3.9728-2.5282-7.9456-2.8893-11.9184c-0.1806-1.9864-0.3612-3.9728-0.3612-5.7786c0-1.9864,0.3612-3.7922,0.7223-5.5981
			c0.5417-1.8058,0.7223-3.6116,1.8058-5.4175c0.9029-1.8058,2.5282-3.6116,3.0699-5.2369
			c0.7223-1.6252,0.7223-3.4311,0.1806-5.0563c-0.5417-1.6252-1.8058-3.0699-2.5282-4.6951
			c-0.3612-0.7223-0.7223-1.4447-0.9029-2.167c-0.1806-0.7223-0.3612-1.4447-0.5418-2.167
			c-0.3612-1.4447-0.5417-2.7087-0.7223-3.7922c-0.3612-2.3476-0.7223-4.5146-0.7223-6.3204
			c-0.1806-1.8058-0.1806-3.0699-0.1806-3.9728s0-1.4447,0-1.4447c0-0.1806,0-0.3612,0-0.5417
			c-0.1806-1.4447-1.2641-2.3476-2.3476-2.167c-1.2641,0.1806-2.167,1.2641-1.9864,2.7087c0,0,0,0.5417,0,1.4447
			s0,2.3476-0.1806,3.9728c-0.1806,1.8058-0.3612,3.7922-0.7223,6.3204c-0.1806,1.2641-0.3612,2.5282-0.7223,3.7922
			c-0.1806,0.7223-0.3612,1.4447-0.5417,2.167c-0.1806,0.7223-0.5417,1.4447-0.9029,2.167
			c-0.9029,1.4447-1.9864,3.0699-2.5282,4.6951c-0.5417,1.6252-0.5417,3.2505,0.1806,5.0563
			C107.9883,87.2214,109.433,88.8466,110.3359,90.6524z"/>
		<path style="fill:#FFFFFF;" d="M183.6524,69.7048c0,0-0.5418,0-1.6252,0.1806c-1.0835,0.1806-2.5282,0.3612-4.334,0.7223
			c-1.8058,0.3612-4.1534,0.9029-6.6815,1.8058c-2.5282,0.7223-5.2369,1.8058-8.1262,3.2505
			c-2.8893,1.2641-5.9592,3.0699-9.7514,4.5146c-3.6116,1.4447-7.5845,2.5282-11.7379,3.4311
			c-4.1534,0.9029-8.4874,1.6252-12.8214,1.9864c-4.334,0.3612-8.8485,0.7223-13.3631,0.7223h-3.2505l-3.4311-0.1806
			c-2.167-0.1806-4.5146-0.3612-6.6815-0.5417c-4.334-0.3612-8.668-1.0835-12.8214-1.9864
			c-4.1534-0.9029-8.1262-1.9864-11.7379-3.4311c-1.8058-0.7223-3.6116-1.4447-5.2369-2.3476
			c-1.6252-0.7223-3.0699-1.6252-4.5146-2.167c-2.8893-1.2641-5.7786-2.3476-8.1262-3.2505
			c-2.5282-0.7223-4.6951-1.4447-6.6816-1.8058c-1.8058-0.3612-3.4311-0.7223-4.334-0.7223
			c-1.0835-0.1806-1.6252-0.1806-1.6252-0.1806s0.5417,0,1.6252-0.1806c1.0835,0,2.5282-0.1806,4.5146-0.1806
			c3.9728,0,9.5709,0.7223,16.0718,2.7087c1.6252,0.5417,3.2505,1.0835,5.0563,1.6252c1.6252,0.5417,3.2505,1.0835,5.0563,1.6252
			c3.4311,0.9029,7.4039,1.6252,11.1961,2.3476c3.9728,0.7223,8.1262,0.9029,12.2796,1.2641
			c2.167,0.1806,4.1534,0.1806,6.3204,0.3612h3.2505h3.2505c4.1534,0,8.668-0.1806,12.8214-0.3612
			c4.1534-0.3612,8.3068-0.7223,12.2796-1.2641c3.9728-0.7223,7.765-1.2641,11.1961-2.3476
			c3.4311-0.9029,6.6815-2.3476,9.932-3.2505c6.501-1.9864,12.099-2.7087,16.0719-2.7087c1.9864,0,3.4311,0,4.5146,0.1806
			C183.1107,69.5243,183.6524,69.7048,183.6524,69.7048z"/>
	</g>
	<path style="fill:#2B3B4E;" d="M127.4913,181.3049h-24.7398c-3.6116,0-6.3204,2.8893-6.3204,6.3204v1.9864h37.5611v-1.9864
		C133.8116,184.0136,130.9223,181.3049,127.4913,181.3049z"/>
	<g>
		<path style="fill:#324A5E;" d="M139.5903,189.6116H90.6524c-4.6951,0-8.4874,3.7922-8.4874,8.4874l0,0h65.732l0,0
			C147.8971,193.4039,144.1049,189.6116,139.5903,189.6116z"/>
		<circle style="fill:#324A5E;" cx="182.7495" cy="69.8854" r="4.334"/>
		<circle style="fill:#324A5E;" cx="46.5903" cy="69.8854" r="4.334"/>
	</g>
	<circle style="fill:#E6E9EE;" cx="115.0311" cy="82.8874" r="10.1126"/>
</g>
</svg>
