<?xml version="1.0" encoding="utf-8"?>
<!-- Generator: Adobe Illustrator 21.0.0, SVG Export Plug-In . SVG Version: 6.00 Build 0)  -->
<svg version="1.1" id="Capa_1" xmlns="http://www.w3.org/2000/svg" xmlns:xlink="http://www.w3.org/1999/xlink" x="0px" y="0px"
	 viewBox="0 0 233.6 413.6" style="enable-background:new 0 0 233.6 413.6;" xml:space="preserve">
<style type="text/css">
	.st0{opacity:0.5;fill:#FFFFFF;}
	.st1{fill-rule:evenodd;clip-rule:evenodd;fill:#FFFFFF;}
	.st2{fill-rule:evenodd;clip-rule:evenodd;}
</style>
<g>
	<g>
		<path id="XMLID_8138_" class="st0" d="M114.7,413.5c46.6,2.1,108.5-20.8,117.8-24.3c0.6-0.2,1-0.7,1.1-1.4V376
			c0,0.6-0.3,1.2-0.8,1.5c-33,22.7-72.9,36-116,36c-0.8,0-1.7,0-2.5,0C114.4,413.5,114.6,413.5,114.7,413.5z"/>
		<g>
			<g id="XMLID_2453_">
				<path class="st1" d="M116.8,413.1c43.4,0,83.7-13.5,116.8-36.5V0H0v376.5C33.1,399.6,73.4,413.1,116.8,413.1z"/>
			</g>
			<path id="XMLID_8141_" class="st0" d="M119.2,413.5c-46.6,2.1-108.5-20.8-117.8-24.3c-0.6-0.2-1-0.7-1.1-1.4V376
				c0,0.6,0.3,1.2,0.8,1.5c33,22.7,72.9,36,116,36c0.8,0,1.7,0,2.5,0C119.5,413.5,119.3,413.5,119.2,413.5z"/>
		</g>
	</g>
	<g id="XMLID_8116_">
		<path id="XMLID_8117_" class="st2" d="M116.8,185.7c4.5,0,8.2,3.7,8.2,8.3c0,4.6-3.7,8.3-8.2,8.3c-4.5,0-8.2-3.7-8.2-8.3
			C108.6,189.4,112.3,185.7,116.8,185.7"/>
		<path id="XMLID_8118_" class="st2" d="M86.9,212.4L86.9,212.4l0,0.3c0,0.4,0.2,0.7,0.7,1c0.5,0.2,1.2,0.3,2.3,0.3
			c0.8,0,1.4-0.1,1.8-0.3c0.4-0.2,0.7-0.4,0.7-0.7c0-0.5-0.9-0.8-2.6-1.1c-0.2,0-0.4-0.1-0.5-0.1c-0.1,0-0.3,0-0.5-0.1
			c-2.8-0.5-4.5-0.9-5.3-1.5c-0.4-0.3-0.7-0.6-0.9-0.9c-0.2-0.4-0.3-0.8-0.3-1.2c0-1.1,0.6-1.9,1.9-2.5c1.3-0.6,3.1-0.8,5.6-0.8
			c2.4,0,4.2,0.3,5.4,0.8c1.2,0.5,1.7,1.4,1.7,2.4v0.1h-4.6v0c0-0.4-0.2-0.7-0.7-0.9c-0.5-0.2-1.1-0.3-2-0.3c-0.7,0-1.2,0.1-1.6,0.2
			c-0.4,0.1-0.6,0.3-0.6,0.6c0,0.5,1,0.8,3,1.2c0.4,0.1,0.7,0.1,0.9,0.1c1.4,0.2,2.4,0.4,3,0.6c0.6,0.2,1.1,0.4,1.6,0.6
			c0.5,0.3,0.9,0.6,1.1,1c0.3,0.4,0.4,0.9,0.4,1.3c0,1.1-0.7,2-2.1,2.6c-1.4,0.6-3.4,0.9-6,0.9c-2.6,0-4.4-0.3-5.6-0.9
			c-1.2-0.6-1.7-1.5-1.7-2.8v-0.2H86.9z M99.4,216v-11h13.1v2.4h-8.2v1.7h7.5v2.3h-7.5v2.1h8.5v2.4H99.4z M114.8,216v-11h6.2
			l6.6,7.4v-7.4h4.7v11h-6.4l-6.4-7.4v7.4H114.8z M145.1,211.6l-2.3-4l-2.5,4H145.1z M137.6,216h-4.9l7.6-11h5.4l7.2,11h-5.5l-1.1-2
			h-7.6L137.6,216z"/>
		<path id="XMLID_8124_" class="st2" d="M92.9,254.7l-4.4-4.1l13.3-23.1c0.7-1.3-0.2-2.8-1.6-2.8H78.4v-5.8h35.1L92.9,254.7z"/>
		<path id="XMLID_8125_" class="st2" d="M140.4,254.7l4.4-4.1l-13.3-23.1c-0.7-1.3,0.2-2.8,1.6-2.8h21.8v-5.8h-35.1L140.4,254.7z"/>
		<path id="XMLID_8126_" class="st2" d="M116.6,224.9L116.6,224.9l19.8,32.6l-5.3,2.7l-12.8-21.4c-0.8-1.3-2.6-1.3-3.3,0
			c-4.3,7.2-12.7,21.4-12.7,21.4l-5.1-2.5C97.3,257.7,115.5,226.7,116.6,224.9"/>
	</g>
</g>
</svg>
