<?xml version="1.0" encoding="utf-8"?>
<!-- Generator: Adobe Illustrator 21.0.0, SVG Export Plug-In . SVG Version: 6.00 Build 0)  -->
<svg version="1.1" id="Capa_1" xmlns="http://www.w3.org/2000/svg" xmlns:xlink="http://www.w3.org/1999/xlink" x="0px" y="0px"
	 viewBox="0 0 233.6103 125.646" style="enable-background:new 0 0 233.6103 125.646;" xml:space="preserve">
<g id="XMLID_1404_">
	<path style="fill-rule:evenodd;clip-rule:evenodd;fill:#FFFFFF;" d="M116.8056,0.5396C73.3906,0.5396,33.1367,14.0513,0,37.0865
		v88.5596h233.6103V37.0865C200.4736,14.0513,160.2197,0.5396,116.8056,0.5396z"/>
</g>
<g id="XMLID_1366_">
	<path id="XMLID_1376_" style="fill-rule:evenodd;clip-rule:evenodd;" d="M116.9961,31.2593c4.5313,0,8.2246,3.7178,8.2246,8.2744
		c0,4.5567-3.6933,8.2725-8.2246,8.2725c-4.5303,0-8.2275-3.7158-8.2275-8.2725C108.7686,34.9771,112.4658,31.2593,116.9961,31.2593
		"/>
	<path id="XMLID_1370_" style="fill-rule:evenodd;clip-rule:evenodd;" d="M87.0352,57.9625v0.0302l-0.0391,0.3047
		c0,0.4258,0.2412,0.7442,0.7256,0.9531c0.4893,0.2071,1.2422,0.3116,2.2617,0.3116c0.7764,0,1.3828-0.0869,1.8237-0.2569
		c0.4429-0.1709,0.6636-0.4052,0.6636-0.7031c0-0.4531-0.875-0.8164-2.6152-1.1016c-0.2027-0.0322-0.3555-0.0566-0.4541-0.0722
		c-0.1123-0.0205-0.2754-0.0479-0.4893-0.0821c-2.7646-0.4521-4.5449-0.9433-5.3301-1.4716
		c-0.3828-0.2608-0.6757-0.5625-0.873-0.9151c-0.1904-0.3515-0.2891-0.7509-0.2891-1.1884c0-1.0821,0.6348-1.9053,1.9053-2.4707
		c1.2705-0.5645,3.1309-0.8477,5.5781-0.8477c2.419,0,4.211,0.2646,5.376,0.793c1.1641,0.5322,1.7485,1.3505,1.7485,2.4472v0.128
		h-4.5815v-0.0498c0-0.3799-0.2285-0.6631-0.6924-0.8575c-0.4638-0.1963-1.1445-0.2949-2.0386-0.2949
		c-0.6938,0-1.2309,0.0684-1.603,0.207c-0.3789,0.1387-0.5674,0.3389-0.5674,0.5938c0,0.458,0.9991,0.8467,2.9961,1.1699
		c0.3838,0.0567,0.6856,0.1045,0.9043,0.1387c1.4229,0.2373,2.4365,0.4433,3.0391,0.6142c0.6035,0.169,1.1221,0.3721,1.5615,0.6045
		c0.4854,0.2666,0.8672,0.6045,1.1299,1.0118c0.2646,0.4072,0.3979,0.8515,0.3979,1.3388c0,1.1143-0.6948,1.9707-2.0776,2.5713
		c-1.3838,0.6006-3.3789,0.9014-5.9766,0.9014c-2.5693,0-4.4292-0.2891-5.58-0.8653c-1.1504-0.58-1.7188-1.5039-1.7188-2.7802
		v-0.1621H87.0352z M99.584,61.5855V50.6177h13.0566v2.3643h-8.1543v1.748h7.5411v2.333h-7.5411v2.128h8.4649v2.3945H99.584z
		 M114.9971,61.5855V50.6177h6.206l6.6407,7.3584v-7.3584h4.7109v10.9678h-6.4351l-6.4262-7.3848v7.3848H114.9971z
		 M145.2227,57.2115l-2.3467-3.9863l-2.4805,3.9863H145.2227z M137.752,61.5855h-4.916l7.5898-10.9678h5.4394l7.2403,10.9678h-5.46
		l-1.1054-1.9795h-7.6065L137.752,61.5855z"/>
	<path id="XMLID_1369_" style="fill-rule:evenodd;clip-rule:evenodd;" d="M93.0635,100.2505l-4.3799-4.1171l13.334-23.1416
		c0.727-1.2627-0.1826-2.8389-1.6397-2.8389H78.5498v-5.7891h35.1328L93.0635,100.2505z"/>
	<path id="XMLID_1368_" style="fill-rule:evenodd;clip-rule:evenodd;" d="M140.5459,100.2505l4.3799-4.1171l-13.334-23.1416
		c-0.7266-1.2627,0.1836-2.8389,1.6401-2.8389h21.8287v-5.7891h-35.1338L140.5459,100.2505z"/>
	<path id="XMLID_1367_" style="fill-rule:evenodd;clip-rule:evenodd;" d="M116.7568,70.4819l0.0479-0.082l19.7979,32.7246
		l-5.2569,2.7343l-12.7568-21.3652c-0.752-1.2588-2.5752-1.2607-3.3233,0c-4.2519,7.168-12.6728,21.3652-12.6728,21.3652
		l-5.1465-2.5449C97.4463,103.3139,115.6992,72.2808,116.7568,70.4819"/>
</g>
<path id="XMLID_1354_" style="opacity:0.5;fill:#FFFFFF;" d="M118.8994,0.1353C72.3144-1.9614,10.3588,20.9605,1.1387,24.4849
	C0.542,24.7134,0.1309,25.231,0,25.8404v11.8291c0-0.6182,0.3027-1.1992,0.8125-1.5498
	C33.7929,13.4273,73.7451,0.1353,116.8056,0.1353c0.8496,0,1.6953,0.0147,2.543,0.0244
	C119.1972,0.1519,119.0537,0.1421,118.8994,0.1353z"/>
<path id="XMLID_1351_" style="opacity:0.5;fill:#FFFFFF;" d="M114.4189,0.1353c46.585-2.0967,108.542,20.8252,117.7607,24.3496
	c0.5967,0.2285,1.0083,0.7461,1.1387,1.3555v11.8291c0-0.6182-0.3027-1.1992-0.8125-1.5498
	C199.5253,13.4273,159.5742,0.1353,116.5127,0.1353c-0.8497,0-1.6954,0.0147-2.543,0.0244
	C114.1211,0.1519,114.2646,0.1421,114.4189,0.1353z"/>
</svg>
