<?xml version="1.0" encoding="utf-8"?>
<!-- Generator: Adobe Illustrator 21.0.0, SVG Export Plug-In . SVG Version: 6.00 Build 0)  -->
<svg version="1.1" id="Capa_1" xmlns="http://www.w3.org/2000/svg" xmlns:xlink="http://www.w3.org/1999/xlink" x="0px" y="0px"
	 viewBox="0 0 161.7 141.4" style="enable-background:new 0 0 161.7 141.4;" xml:space="preserve">
<style type="text/css">
	.st0{opacity:0.35;fill:#D1D3D2;}
	.st1{fill:#FFFFFF;}
	.st2{fill:#54EAB4;}
	.st3{fill:#29ABE2;}
</style>
<polygon class="st0" points="161.7,66.5 161.7,9.7 33.3,9.7 11.2,9.7 11.2,66.5 11.2,141.4 161.7,141.4 "/>
<rect class="st1" width="150.6" height="131.7"/>
<rect class="st2" width="150.6" height="56.8"/>
<g>
	<path class="st3" d="M131.5,50.9H33.8c-16.3,0-29.5-13.2-29.5-29.5v-2.9c0-6.9,5.6-12.5,12.5-12.5h97.8c16.3,0,29.5,13.2,29.5,29.5
		v2.9C144,45.3,138.4,50.9,131.5,50.9z"/>
</g>
<g>
	<g>
		<path class="st1" d="M50.9,24.6V13.1h2.3l4.7,7.6v-7.6H60v11.5h-2.3l-4.6-7.5v7.5H50.9z"/>
		<path class="st1" d="M62.4,15.2v-2h2.2v2H62.4z M62.4,24.6v-8.3h2.2v8.3H62.4z"/>
		<path class="st1" d="M69.2,24.6l-3.3-8.3h2.3l1.6,4.2l0.5,1.4c0.1-0.4,0.2-0.6,0.2-0.7c0.1-0.2,0.2-0.5,0.2-0.7l1.6-4.2h2.3
			l-3.3,8.3H69.2z"/>
		<path class="st1" d="M80.6,21.9l2.2,0.4c-0.3,0.8-0.7,1.4-1.3,1.8s-1.4,0.6-2.3,0.6c-1.4,0-2.5-0.5-3.2-1.4
			c-0.5-0.8-0.8-1.7-0.8-2.9c0-1.4,0.4-2.5,1.1-3.2s1.6-1.2,2.7-1.2c1.2,0,2.2,0.4,2.9,1.2s1.1,2.1,1,3.7h-5.5
			c0,0.7,0.2,1.2,0.5,1.5s0.8,0.5,1.3,0.5c0.3,0,0.6-0.1,0.9-0.3S80.5,22.4,80.6,21.9z M80.7,19.7c0-0.6-0.2-1.1-0.5-1.4
			s-0.7-0.5-1.1-0.5c-0.5,0-0.9,0.2-1.2,0.5s-0.5,0.8-0.5,1.4H80.7z"/>
		<path class="st1" d="M84.7,24.6V13.1h2.2v11.5H84.7z"/>
		<path class="st1" d="M93.1,21.6l2.2-0.2c0.1,0.5,0.2,0.9,0.6,1.2s0.7,0.4,1.1,0.4c0.5,0,0.8-0.2,1.2-0.6s0.5-0.9,0.5-1.7
			c0-0.7-0.2-1.2-0.5-1.6s-0.7-0.5-1.2-0.5c-0.6,0-1.2,0.3-1.7,0.8l-1.8-0.3l1.1-6h5.8v2.1h-4.1l-0.3,1.9c0.5-0.2,1-0.4,1.5-0.4
			c1,0,1.8,0.4,2.5,1.1s1,1.6,1,2.8c0,0.9-0.3,1.8-0.8,2.5c-0.7,1-1.8,1.5-3.1,1.5c-1.1,0-1.9-0.3-2.6-0.9S93.3,22.6,93.1,21.6z"/>
		<path class="st1" d="M34.9,34.1c0-1.2,0.2-2.1,0.5-2.9c0.3-0.6,0.6-1.1,1.1-1.6s0.9-0.8,1.5-1c0.7-0.3,1.5-0.5,2.5-0.5
			c1.7,0,3,0.5,4.1,1.6s1.5,2.5,1.5,4.4c0,1.8-0.5,3.3-1.5,4.3s-2.3,1.6-4,1.6c-1.7,0-3.1-0.5-4.1-1.6S34.9,36,34.9,34.1z M37.3,34
			c0,1.3,0.3,2.3,0.9,2.9s1.4,1,2.3,1s1.7-0.3,2.3-1s0.9-1.7,0.9-3c0-1.3-0.3-2.3-0.9-2.9s-1.3-1-2.3-1s-1.7,0.3-2.3,1
			S37.3,32.7,37.3,34z"/>
		<path class="st1" d="M47.7,31.5h2v1.2c0.3-0.4,0.6-0.8,1.1-1s1-0.4,1.5-0.4c1,0,1.8,0.4,2.5,1.1s1,1.8,1,3.2c0,1.4-0.3,2.5-1,3.2
			S53.3,40,52.3,40c-0.5,0-0.9-0.1-1.2-0.3s-0.8-0.5-1.2-0.9v4.2h-2.2V31.5z M49.9,35.5c0,0.9,0.2,1.6,0.6,2.1s0.8,0.7,1.4,0.7
			c0.5,0,0.9-0.2,1.3-0.6s0.5-1.1,0.5-2c0-0.9-0.2-1.5-0.5-1.9S52.3,33,51.8,33c-0.5,0-1,0.2-1.3,0.6S49.9,34.7,49.9,35.5z"/>
		<path class="st1" d="M61.4,31.5v1.8h-1.5v3.3c0,0.7,0,1.1,0,1.2S60,38,60.1,38s0.2,0.1,0.4,0.1c0.2,0,0.5-0.1,0.9-0.2l0.2,1.7
			C61,39.9,60.5,40,59.8,40c-0.4,0-0.8-0.1-1.1-0.2s-0.6-0.3-0.7-0.5s-0.3-0.5-0.3-0.9c0-0.3-0.1-0.8-0.1-1.5v-3.6h-1v-1.8h1v-1.6
			l2.2-1.3v2.9H61.4z"/>
		<path class="st1" d="M62.9,30.4v-2h2.2v2H62.9z M62.9,39.8v-8.3h2.2v8.3H62.9z"/>
		<path class="st1" d="M67.2,31.5h2v1.1c0.7-0.9,1.6-1.3,2.6-1.3c0.5,0,1,0.1,1.4,0.3s0.7,0.5,1,1c0.4-0.4,0.8-0.8,1.2-1
			s0.9-0.3,1.4-0.3c0.6,0,1.1,0.1,1.5,0.4s0.7,0.6,0.9,1.1c0.2,0.4,0.2,0.9,0.2,1.7v5.3h-2.2V35c0-0.8-0.1-1.4-0.2-1.6
			C76.8,33.1,76.4,33,76,33c-0.3,0-0.6,0.1-0.9,0.3s-0.5,0.5-0.6,0.8s-0.2,0.9-0.2,1.7v4h-2.2v-4.5c0-0.8,0-1.3-0.1-1.6
			s-0.2-0.4-0.4-0.5S71.3,33,71,33c-0.3,0-0.6,0.1-0.9,0.3s-0.5,0.4-0.6,0.8s-0.2,0.9-0.2,1.7v4h-2.2V31.5z"/>
		<path class="st1" d="M81.6,30.4v-2h2.2v2H81.6z M81.6,39.8v-8.3h2.2v8.3H81.6z"/>
		<path class="st1" d="M85.1,39.8v-1.7l3.1-3.6c0.5-0.6,0.9-1,1.1-1.2c-0.3,0-0.6,0-1,0l-2.9,0v-1.8h6.9V33l-3.2,3.7L88,37.9
			c0.6,0,1-0.1,1.1-0.1h3.4v1.9H85.1z"/>
		<path class="st1" d="M95.7,34l-2-0.4c0.2-0.8,0.6-1.4,1.2-1.8s1.4-0.6,2.4-0.6c1,0,1.7,0.1,2.2,0.3s0.8,0.5,1,0.9s0.3,1,0.3,2
			l0,2.6c0,0.7,0,1.3,0.1,1.6s0.2,0.7,0.4,1.1H99c-0.1-0.1-0.1-0.4-0.2-0.6c0-0.1-0.1-0.2-0.1-0.3c-0.4,0.4-0.8,0.6-1.2,0.8
			S96.7,40,96.2,40c-0.9,0-1.5-0.2-2-0.7s-0.7-1-0.7-1.8c0-0.5,0.1-0.9,0.3-1.3s0.5-0.6,0.9-0.8s1-0.4,1.7-0.5
			c1-0.2,1.7-0.4,2.1-0.5v-0.2c0-0.4-0.1-0.7-0.3-0.9S97.7,33,97.1,33c-0.4,0-0.7,0.1-0.9,0.2S95.8,33.6,95.7,34z M98.6,35.8
			c-0.3,0.1-0.7,0.2-1.3,0.3s-1,0.3-1.2,0.4c-0.3,0.2-0.4,0.5-0.4,0.8c0,0.3,0.1,0.6,0.3,0.8s0.5,0.3,0.9,0.3c0.4,0,0.8-0.1,1.1-0.4
			c0.3-0.2,0.4-0.4,0.5-0.7c0.1-0.2,0.1-0.5,0.1-1.1V35.8z"/>
		<path class="st1" d="M110.5,39.8h-2v-1.2c-0.3,0.5-0.7,0.8-1.2,1.1s-0.9,0.3-1.4,0.3c-1,0-1.8-0.4-2.4-1.2s-1-1.8-1-3.2
			c0-1.4,0.3-2.5,1-3.2s1.5-1.1,2.5-1.1c0.9,0,1.7,0.4,2.4,1.2v-4.1h2.2V39.8z M104.7,35.5c0,0.9,0.1,1.5,0.4,1.9
			c0.4,0.6,0.8,0.9,1.5,0.9c0.5,0,0.9-0.2,1.3-0.6s0.5-1.1,0.5-1.9c0-1-0.2-1.6-0.5-2.1S107,33,106.5,33c-0.5,0-1,0.2-1.3,0.6
			S104.7,34.6,104.7,35.5z"/>
		<path class="st1" d="M112.2,35.5c0-0.7,0.2-1.4,0.5-2.1s0.9-1.2,1.5-1.6s1.4-0.5,2.2-0.5c1.3,0,2.3,0.4,3.1,1.2s1.2,1.8,1.2,3.1
			c0,1.3-0.4,2.3-1.2,3.1s-1.8,1.2-3.1,1.2c-0.8,0-1.5-0.2-2.2-0.5s-1.2-0.8-1.6-1.5S112.2,36.5,112.2,35.5z M114.4,35.6
			c0,0.8,0.2,1.5,0.6,1.9s0.9,0.7,1.4,0.7s1.1-0.2,1.4-0.7s0.6-1.1,0.6-1.9c0-0.8-0.2-1.4-0.6-1.9s-0.9-0.7-1.4-0.7
			s-1.1,0.2-1.4,0.7S114.4,34.8,114.4,35.6z"/>
	</g>
</g>
<g>
	<path d="M21.6,78.4V67h2.3l2.7,8.1c0.3,0.8,0.4,1.3,0.5,1.7c0.1-0.4,0.3-1,0.6-1.8l2.7-8h2v11.5H31v-9.6l-3.3,9.6h-1.4L23,68.7v9.8
		H21.6z"/>
	<path d="M40.4,75.7l1.5,0.2c-0.2,0.8-0.7,1.5-1.3,2s-1.4,0.7-2.4,0.7c-1.2,0-2.2-0.4-2.9-1.1s-1.1-1.8-1.1-3.1
		c0-1.4,0.4-2.5,1.1-3.3s1.7-1.2,2.8-1.2c1.1,0,2,0.4,2.7,1.1s1.1,1.8,1.1,3.2c0,0.1,0,0.2,0,0.4h-6.2c0.1,0.9,0.3,1.6,0.8,2.1
		s1,0.7,1.7,0.7c0.5,0,1-0.1,1.3-0.4S40.2,76.3,40.4,75.7z M35.8,73.5h4.6c-0.1-0.7-0.2-1.2-0.5-1.6c-0.4-0.5-1-0.8-1.7-0.8
		c-0.6,0-1.2,0.2-1.6,0.6S35.9,72.7,35.8,73.5z"/>
	<path d="M41.9,81.6l0.3-1.2c0.3,0.1,0.5,0.1,0.7,0.1c0.3,0,0.5-0.1,0.6-0.3s0.2-0.7,0.2-1.4v-8.7H45v8.8c0,1-0.1,1.7-0.4,2.1
		c-0.3,0.5-0.9,0.8-1.7,0.8C42.6,81.8,42.2,81.7,41.9,81.6z M43.6,68.6V67H45v1.6H43.6z"/>
	<path d="M46.7,74.3c0-1.5,0.4-2.7,1.3-3.4c0.7-0.6,1.6-0.9,2.6-0.9c1.1,0,2.1,0.4,2.8,1.1s1.1,1.8,1.1,3.1c0,1.1-0.2,1.9-0.5,2.5
		s-0.8,1.1-1.4,1.4s-1.3,0.5-2,0.5c-1.2,0-2.1-0.4-2.8-1.1S46.7,75.7,46.7,74.3z M48.1,74.3c0,1.1,0.2,1.9,0.7,2.4s1,0.8,1.8,0.8
		c0.7,0,1.3-0.3,1.7-0.8s0.7-1.3,0.7-2.4c0-1-0.2-1.8-0.7-2.3s-1-0.8-1.7-0.8c-0.7,0-1.3,0.3-1.8,0.8S48.1,73.2,48.1,74.3z"/>
	<path d="M56.1,78.4v-8.3h1.3v1.3c0.3-0.6,0.6-1,0.9-1.2s0.6-0.3,0.9-0.3c0.5,0,1,0.2,1.4,0.5l-0.5,1.3c-0.3-0.2-0.7-0.3-1-0.3
		c-0.3,0-0.6,0.1-0.8,0.3s-0.4,0.4-0.5,0.8c-0.2,0.5-0.2,1-0.2,1.6v4.3H56.1z"/>
	<path d="M66.8,77.4c-0.5,0.4-1,0.8-1.5,0.9s-1,0.3-1.6,0.3c-0.9,0-1.6-0.2-2.1-0.7s-0.7-1-0.7-1.7c0-0.4,0.1-0.8,0.3-1.1
		s0.4-0.6,0.7-0.8s0.6-0.4,1-0.5c0.3-0.1,0.7-0.1,1.3-0.2c1.1-0.1,2-0.3,2.5-0.5c0-0.2,0-0.3,0-0.4c0-0.6-0.1-1-0.4-1.2
		c-0.4-0.3-0.9-0.5-1.6-0.5c-0.7,0-1.1,0.1-1.5,0.3s-0.5,0.6-0.7,1.2l-1.4-0.2c0.1-0.6,0.3-1.1,0.6-1.4s0.7-0.6,1.2-0.8
		s1.2-0.3,1.9-0.3c0.7,0,1.3,0.1,1.7,0.3s0.8,0.4,1,0.6s0.4,0.6,0.4,1c0,0.2,0.1,0.7,0.1,1.3v1.9c0,1.3,0,2.1,0.1,2.5s0.2,0.7,0.4,1
		h-1.5C67,78.1,66.9,77.8,66.8,77.4z M66.7,74.3c-0.5,0.2-1.3,0.4-2.3,0.5c-0.6,0.1-1,0.2-1.2,0.3s-0.4,0.3-0.6,0.5
		s-0.2,0.4-0.2,0.7c0,0.4,0.1,0.7,0.4,0.9s0.7,0.4,1.2,0.4c0.5,0,1-0.1,1.4-0.4s0.7-0.6,0.9-1c0.2-0.3,0.2-0.8,0.2-1.4V74.3z"/>
	<path d="M70.3,78.4v-8.3h1.3v1.2c0.3-0.4,0.6-0.7,1-1s0.9-0.4,1.5-0.4c0.6,0,1.1,0.1,1.5,0.4s0.7,0.6,0.8,1.1
		c0.7-1,1.5-1.5,2.6-1.5c0.8,0,1.5,0.2,1.9,0.7s0.7,1.2,0.7,2.1v5.7h-1.4v-5.2c0-0.6,0-1-0.1-1.2s-0.3-0.4-0.5-0.6s-0.5-0.2-0.8-0.2
		c-0.6,0-1.1,0.2-1.5,0.6s-0.6,1-0.6,1.9v4.8h-1.4V73c0-0.6-0.1-1.1-0.3-1.4s-0.6-0.5-1.1-0.5c-0.4,0-0.8,0.1-1.1,0.3
		S72.1,72,72,72.4s-0.2,1-0.2,1.7v4.3H70.3z"/>
	<path d="M83.7,68.6V67h1.4v1.6H83.7z M83.7,78.4v-8.3h1.4v8.3H83.7z"/>
	<path d="M92.9,75.7l1.5,0.2c-0.2,0.8-0.7,1.5-1.3,2s-1.4,0.7-2.4,0.7c-1.2,0-2.2-0.4-2.9-1.1s-1.1-1.8-1.1-3.1
		c0-1.4,0.4-2.5,1.1-3.3s1.7-1.2,2.8-1.2c1.1,0,2,0.4,2.7,1.1s1.1,1.8,1.1,3.2c0,0.1,0,0.2,0,0.4h-6.2c0.1,0.9,0.3,1.6,0.8,2.1
		s1,0.7,1.7,0.7c0.5,0,1-0.1,1.3-0.4S92.7,76.3,92.9,75.7z M88.3,73.5h4.6c-0.1-0.7-0.2-1.2-0.5-1.6c-0.4-0.5-1-0.8-1.7-0.8
		c-0.6,0-1.2,0.2-1.6,0.6S88.3,72.7,88.3,73.5z"/>
	<path d="M96.1,78.4v-8.3h1.3v1.2c0.6-0.9,1.5-1.4,2.6-1.4c0.5,0,1,0.1,1.4,0.3s0.7,0.4,0.9,0.7s0.4,0.6,0.4,1
		c0.1,0.3,0.1,0.7,0.1,1.4v5.1h-1.4v-5c0-0.6-0.1-1-0.2-1.3s-0.3-0.5-0.6-0.7s-0.6-0.3-1-0.3c-0.6,0-1.1,0.2-1.6,0.6
		s-0.7,1.1-0.7,2.2v4.5H96.1z"/>
	<path d="M108.1,77.2l0.2,1.2c-0.4,0.1-0.8,0.1-1.1,0.1c-0.5,0-0.9-0.1-1.2-0.2s-0.5-0.4-0.6-0.6s-0.2-0.8-0.2-1.7v-4.8h-1v-1.1h1
		v-2.1l1.4-0.8v2.9h1.4v1.1h-1.4v4.9c0,0.4,0,0.7,0.1,0.8s0.1,0.2,0.2,0.3s0.3,0.1,0.5,0.1C107.6,77.2,107.8,77.2,108.1,77.2z"/>
	<path d="M108.9,74.3c0-1.5,0.4-2.7,1.3-3.4c0.7-0.6,1.6-0.9,2.6-0.9c1.1,0,2.1,0.4,2.8,1.1s1.1,1.8,1.1,3.1c0,1.1-0.2,1.9-0.5,2.5
		s-0.8,1.1-1.4,1.4s-1.3,0.5-2,0.5c-1.2,0-2.1-0.4-2.8-1.1S108.9,75.7,108.9,74.3z M110.4,74.3c0,1.1,0.2,1.9,0.7,2.4s1,0.8,1.8,0.8
		c0.7,0,1.3-0.3,1.7-0.8s0.7-1.3,0.7-2.4c0-1-0.2-1.8-0.7-2.3s-1-0.8-1.7-0.8c-0.7,0-1.3,0.3-1.8,0.8S110.4,73.2,110.4,74.3z"/>
	<path d="M128.5,75.7l1.5,0.2c-0.2,0.8-0.7,1.5-1.3,2s-1.4,0.7-2.4,0.7c-1.2,0-2.2-0.4-2.9-1.1s-1.1-1.8-1.1-3.1
		c0-1.4,0.4-2.5,1.1-3.3s1.7-1.2,2.8-1.2c1.1,0,2,0.4,2.7,1.1s1.1,1.8,1.1,3.2c0,0.1,0,0.2,0,0.4h-6.2c0.1,0.9,0.3,1.6,0.8,2.1
		s1,0.7,1.7,0.7c0.5,0,1-0.1,1.3-0.4S128.3,76.3,128.5,75.7z M123.9,73.5h4.6c-0.1-0.7-0.2-1.2-0.5-1.6c-0.4-0.5-1-0.8-1.7-0.8
		c-0.6,0-1.2,0.2-1.6,0.6S123.9,72.7,123.9,73.5z"/>
	<path d="M38.3,97.6V86.2h1.5v11.5H38.3z"/>
	<path d="M42.3,97.6v-8.3h1.3v1.2c0.6-0.9,1.5-1.4,2.6-1.4c0.5,0,1,0.1,1.4,0.3s0.7,0.4,0.9,0.7s0.4,0.6,0.4,1
		c0.1,0.3,0.1,0.7,0.1,1.4v5.1h-1.4v-5c0-0.6-0.1-1-0.2-1.3s-0.3-0.5-0.6-0.7s-0.6-0.3-1-0.3c-0.6,0-1.1,0.2-1.6,0.6
		s-0.7,1.1-0.7,2.2v4.5H42.3z"/>
	<path d="M51.2,97.6v-8.3h1.3v1.2c0.6-0.9,1.5-1.4,2.6-1.4c0.5,0,1,0.1,1.4,0.3s0.7,0.4,0.9,0.7s0.4,0.6,0.4,1
		c0.1,0.3,0.1,0.7,0.1,1.4v5.1h-1.4v-5c0-0.6-0.1-1-0.2-1.3s-0.3-0.5-0.6-0.7s-0.6-0.3-1-0.3c-0.6,0-1.1,0.2-1.6,0.6
		s-0.7,1.1-0.7,2.2v4.5H51.2z"/>
	<path d="M59.6,93.5c0-1.5,0.4-2.7,1.3-3.4c0.7-0.6,1.6-0.9,2.6-0.9c1.1,0,2.1,0.4,2.8,1.1s1.1,1.8,1.1,3.1c0,1.1-0.2,1.9-0.5,2.5
		s-0.8,1.1-1.4,1.4s-1.3,0.5-2,0.5c-1.2,0-2.1-0.4-2.8-1.1S59.6,94.9,59.6,93.5z M61,93.5c0,1.1,0.2,1.9,0.7,2.4s1,0.8,1.8,0.8
		c0.7,0,1.3-0.3,1.7-0.8s0.7-1.3,0.7-2.4c0-1-0.2-1.8-0.7-2.3s-1-0.8-1.7-0.8c-0.7,0-1.3,0.3-1.8,0.8S61,92.4,61,93.5z"/>
	<path d="M71.3,97.6l-3.2-8.3h1.5l1.8,5c0.2,0.5,0.4,1.1,0.5,1.7c0.1-0.4,0.3-1,0.5-1.6l1.8-5.1h1.4l-3.1,8.3H71.3z"/>
	<path d="M82.4,96.6c-0.5,0.4-1,0.8-1.5,0.9s-1,0.3-1.6,0.3c-0.9,0-1.6-0.2-2.1-0.7s-0.7-1-0.7-1.7c0-0.4,0.1-0.8,0.3-1.1
		s0.4-0.6,0.7-0.8s0.6-0.4,1-0.5c0.3-0.1,0.7-0.1,1.3-0.2c1.1-0.1,2-0.3,2.5-0.5c0-0.2,0-0.3,0-0.4c0-0.6-0.1-1-0.4-1.2
		c-0.4-0.3-0.9-0.5-1.6-0.5c-0.7,0-1.1,0.1-1.5,0.3s-0.5,0.6-0.7,1.2l-1.4-0.2c0.1-0.6,0.3-1.1,0.6-1.4s0.7-0.6,1.2-0.8
		s1.2-0.3,1.9-0.3c0.7,0,1.3,0.1,1.7,0.3s0.8,0.4,1,0.6s0.4,0.6,0.4,1c0,0.2,0.1,0.7,0.1,1.3v1.9c0,1.3,0,2.1,0.1,2.5s0.2,0.7,0.4,1
		h-1.5C82.6,97.3,82.5,97,82.4,96.6z M82.3,93.5C81.8,93.7,81,93.8,80,94c-0.6,0.1-1,0.2-1.2,0.3s-0.4,0.3-0.6,0.5S78,95.1,78,95.4
		c0,0.4,0.1,0.7,0.4,0.9s0.7,0.4,1.2,0.4c0.5,0,1-0.1,1.4-0.4s0.7-0.6,0.9-1c0.2-0.3,0.2-0.8,0.2-1.4V93.5z"/>
	<path d="M91.3,94.6l1.4,0.2c-0.2,1-0.5,1.7-1.2,2.2s-1.4,0.8-2.3,0.8c-1.1,0-2-0.4-2.7-1.1s-1-1.8-1-3.2c0-0.9,0.1-1.7,0.4-2.4
		s0.7-1.2,1.4-1.5s1.3-0.5,2-0.5c0.9,0,1.6,0.2,2.2,0.7s0.9,1.1,1.1,1.9L91.2,92c-0.1-0.6-0.4-1-0.7-1.3s-0.7-0.4-1.2-0.4
		c-0.7,0-1.3,0.3-1.7,0.8s-0.7,1.3-0.7,2.4c0,1.1,0.2,1.9,0.6,2.4s1,0.8,1.7,0.8c0.6,0,1-0.2,1.4-0.5S91.2,95.3,91.3,94.6z"/>
	<path d="M93.9,87.8v-1.6h1.4v1.6H93.9z M93.9,97.6v-8.3h1.4v8.3H93.9z"/>
	<path d="M96.9,93.5c0-1.5,0.4-2.7,1.3-3.4c0.7-0.6,1.6-0.9,2.6-0.9c1.1,0,2.1,0.4,2.8,1.1s1.1,1.8,1.1,3.1c0,1.1-0.2,1.9-0.5,2.5
		s-0.8,1.1-1.4,1.4s-1.3,0.5-2,0.5c-1.2,0-2.1-0.4-2.8-1.1S96.9,94.9,96.9,93.5z M98.4,93.5c0,1.1,0.2,1.9,0.7,2.4s1,0.8,1.8,0.8
		c0.7,0,1.3-0.3,1.7-0.8s0.7-1.3,0.7-2.4c0-1-0.2-1.8-0.7-2.3s-1-0.8-1.7-0.8c-0.7,0-1.3,0.3-1.8,0.8S98.4,92.4,98.4,93.5z
		 M100,88.3l1-2.2h1.8l-1.7,2.2H100z"/>
	<path d="M106.4,97.6v-8.3h1.3v1.2c0.6-0.9,1.5-1.4,2.6-1.4c0.5,0,1,0.1,1.4,0.3s0.7,0.4,0.9,0.7s0.4,0.6,0.4,1
		c0.1,0.3,0.1,0.7,0.1,1.4v5.1h-1.4v-5c0-0.6-0.1-1-0.2-1.3s-0.3-0.5-0.6-0.7s-0.6-0.3-1-0.3c-0.6,0-1.1,0.2-1.6,0.6
		s-0.7,1.1-0.7,2.2v4.5H106.4z"/>
	<path d="M45.5,113.8l1.4,0.2c-0.2,1-0.5,1.7-1.2,2.2s-1.4,0.8-2.3,0.8c-1.1,0-2-0.4-2.7-1.1s-1-1.8-1-3.2c0-0.9,0.1-1.7,0.4-2.4
		s0.7-1.2,1.4-1.5s1.3-0.5,2-0.5c0.9,0,1.6,0.2,2.2,0.7s0.9,1.1,1.1,1.9l-1.4,0.2c-0.1-0.6-0.4-1-0.7-1.3s-0.7-0.4-1.2-0.4
		c-0.7,0-1.3,0.3-1.7,0.8s-0.7,1.3-0.7,2.4c0,1.1,0.2,1.9,0.6,2.4s1,0.8,1.7,0.8c0.6,0,1-0.2,1.4-0.5S45.4,114.5,45.5,113.8z"/>
	<path d="M47.6,112.7c0-1.5,0.4-2.7,1.3-3.4c0.7-0.6,1.6-0.9,2.6-0.9c1.1,0,2.1,0.4,2.8,1.1s1.1,1.8,1.1,3.1c0,1.1-0.2,1.9-0.5,2.5
		s-0.8,1.1-1.4,1.4s-1.3,0.5-2,0.5c-1.2,0-2.1-0.4-2.8-1.1S47.6,114.1,47.6,112.7z M49,112.7c0,1.1,0.2,1.9,0.7,2.4s1,0.8,1.8,0.8
		c0.7,0,1.3-0.3,1.7-0.8s0.7-1.3,0.7-2.4c0-1-0.2-1.8-0.7-2.3s-1-0.8-1.7-0.8c-0.7,0-1.3,0.3-1.8,0.8S49,111.6,49,112.7z"/>
	<path d="M57,116.8v-8.3h1.3v1.2c0.6-0.9,1.5-1.4,2.6-1.4c0.5,0,1,0.1,1.4,0.3s0.7,0.4,0.9,0.7s0.4,0.6,0.4,1
		c0.1,0.3,0.1,0.7,0.1,1.4v5.1h-1.4v-5c0-0.6-0.1-1-0.2-1.3s-0.3-0.5-0.6-0.7s-0.6-0.3-1-0.3c-0.6,0-1.1,0.2-1.6,0.6
		s-0.7,1.1-0.7,2.2v4.5H57z"/>
	<path d="M69,115.6l0.2,1.2c-0.4,0.1-0.8,0.1-1.1,0.1c-0.5,0-0.9-0.1-1.2-0.2s-0.5-0.4-0.6-0.6s-0.2-0.8-0.2-1.7v-4.8h-1v-1.1h1
		v-2.1l1.4-0.8v2.9H69v1.1h-1.4v4.9c0,0.4,0,0.7,0.1,0.8s0.1,0.2,0.2,0.3s0.3,0.1,0.5,0.1C68.5,115.6,68.7,115.6,69,115.6z"/>
	<path d="M70.3,107v-1.6h1.4v1.6H70.3z M70.3,116.8v-8.3h1.4v8.3H70.3z"/>
	<path d="M73.9,116.8v-8.3h1.3v1.2c0.6-0.9,1.5-1.4,2.6-1.4c0.5,0,1,0.1,1.4,0.3s0.7,0.4,0.9,0.7s0.4,0.6,0.4,1
		c0.1,0.3,0.1,0.7,0.1,1.4v5.1h-1.4v-5c0-0.6-0.1-1-0.2-1.3s-0.3-0.5-0.6-0.7s-0.6-0.3-1-0.3c-0.6,0-1.1,0.2-1.6,0.6
		s-0.7,1.1-0.7,2.2v4.5H73.9z"/>
	<path d="M88.2,116.8v-1.2c-0.6,0.9-1.5,1.4-2.6,1.4c-0.5,0-0.9-0.1-1.4-0.3s-0.7-0.4-0.9-0.7s-0.4-0.6-0.4-1
		c-0.1-0.3-0.1-0.7-0.1-1.3v-5.1h1.4v4.6c0,0.7,0,1.2,0.1,1.5c0.1,0.4,0.3,0.7,0.6,0.9s0.6,0.3,1.1,0.3s0.8-0.1,1.2-0.3
		s0.6-0.5,0.8-0.9s0.2-0.9,0.2-1.6v-4.4h1.4v8.3H88.2z"/>
	<path d="M91.2,112.7c0-1.5,0.4-2.7,1.3-3.4c0.7-0.6,1.6-0.9,2.6-0.9c1.1,0,2.1,0.4,2.8,1.1s1.1,1.8,1.1,3.1c0,1.1-0.2,1.9-0.5,2.5
		s-0.8,1.1-1.4,1.4s-1.3,0.5-2,0.5c-1.2,0-2.1-0.4-2.8-1.1S91.2,114.1,91.2,112.7z M92.6,112.7c0,1.1,0.2,1.9,0.7,2.4s1,0.8,1.8,0.8
		c0.7,0,1.3-0.3,1.7-0.8s0.7-1.3,0.7-2.4c0-1-0.2-1.8-0.7-2.3s-1-0.8-1.7-0.8c-0.7,0-1.3,0.3-1.8,0.8S92.6,111.6,92.6,112.7z"/>
	<path d="M100,114.3l1.4-0.2c0.1,0.6,0.3,1,0.7,1.3s0.9,0.4,1.5,0.4c0.6,0,1.1-0.1,1.4-0.4s0.5-0.6,0.5-0.9c0-0.3-0.1-0.6-0.4-0.8
		c-0.2-0.1-0.7-0.3-1.4-0.5c-1-0.3-1.7-0.5-2.1-0.7s-0.7-0.5-0.9-0.8s-0.3-0.7-0.3-1.1c0-0.4,0.1-0.7,0.3-1s0.4-0.6,0.7-0.8
		c0.2-0.2,0.5-0.3,0.9-0.4s0.8-0.2,1.2-0.2c0.7,0,1.2,0.1,1.7,0.3s0.9,0.4,1.1,0.8s0.4,0.7,0.5,1.3l-1.4,0.2c-0.1-0.4-0.2-0.8-0.5-1
		s-0.7-0.4-1.3-0.4c-0.6,0-1.1,0.1-1.4,0.3s-0.4,0.5-0.4,0.8c0,0.2,0.1,0.3,0.2,0.5c0.1,0.2,0.3,0.3,0.5,0.4
		c0.1,0.1,0.6,0.2,1.2,0.4c1,0.3,1.7,0.5,2.1,0.7s0.7,0.4,0.9,0.7s0.3,0.7,0.3,1.2c0,0.5-0.1,0.9-0.4,1.3s-0.7,0.7-1.2,1
		s-1.1,0.3-1.8,0.3c-1.1,0-1.9-0.2-2.5-0.7S100.2,115.2,100,114.3z"/>
	<path d="M109,116.8v-1.6h1.6v1.6H109z"/>
</g>
</svg>
