<?xml version="1.0" encoding="utf-8"?>
<!-- Generator: Adobe Illustrator 21.0.0, SVG Export Plug-In . SVG Version: 6.00 Build 0)  -->
<svg version="1.1" id="Capa_1" xmlns="http://www.w3.org/2000/svg" xmlns:xlink="http://www.w3.org/1999/xlink" x="0px" y="0px"
	 viewBox="0 0 178.7 141.4" style="enable-background:new 0 0 178.7 141.4;" xml:space="preserve">
<style type="text/css">
	.st0{opacity:0.35;fill:#D1D3D2;}
	.st1{fill:#2D70BA;}
	.st2{fill:#5A9AEF;}
	.st3{fill:#FFFFFF;}
</style>
<g>
	<g>
		<path class="st0" d="M11.2,9.7v56.8v74.9h167.6V66.5V9.7H149C143.2-4.3,11.2,9.7,11.2,9.7z"/>
		<rect class="st1" width="167.6" height="56.8"/>
		<g>
			<path class="st2" d="M150.6,50.9H39.7c-16.3,0-33.4-13.2-33.4-29.5v-2.9c0-6.9,5.6-12.5,12.5-12.5h114.8
				c16.3,0,29.5,13.2,29.5,29.5v2.9C163,45.3,157.4,50.9,150.6,50.9z"/>
		</g>
		<g>
			<path class="st3" d="M60.4,23.6V12.1h2.3l4.7,7.6v-7.6h2.1v11.5h-2.3l-4.6-7.5v7.5H60.4z"/>
			<path class="st3" d="M71.9,14.2v-2h2.2v2H71.9z M71.9,23.6v-8.3h2.2v8.3H71.9z"/>
			<path class="st3" d="M78.6,23.6l-3.3-8.3h2.3l1.6,4.2l0.5,1.4c0.1-0.4,0.2-0.6,0.2-0.7c0.1-0.2,0.2-0.5,0.2-0.7l1.6-4.2h2.3
				l-3.3,8.3H78.6z"/>
			<path class="st3" d="M90,20.9l2.2,0.4c-0.3,0.8-0.7,1.4-1.3,1.8s-1.4,0.6-2.3,0.6c-1.4,0-2.5-0.5-3.2-1.4
				c-0.5-0.8-0.8-1.7-0.8-2.9c0-1.4,0.4-2.5,1.1-3.2s1.6-1.2,2.7-1.2c1.2,0,2.2,0.4,2.9,1.2s1.1,2.1,1,3.7h-5.5
				c0,0.7,0.2,1.2,0.5,1.5s0.8,0.5,1.3,0.5c0.3,0,0.6-0.1,0.9-0.3S89.9,21.4,90,20.9z M90.2,18.7c0-0.6-0.2-1.1-0.5-1.4
				s-0.7-0.5-1.1-0.5c-0.5,0-0.9,0.2-1.2,0.5s-0.5,0.8-0.5,1.4H90.2z"/>
			<path class="st3" d="M94.1,23.6V12.1h2.2v11.5H94.1z"/>
			<path class="st3" d="M102.5,20.5l2.1-0.3c0.1,0.5,0.3,1,0.5,1.2s0.7,0.4,1.1,0.4c0.5,0,0.8-0.2,1.1-0.5s0.5-0.8,0.5-1.4
				c0-0.6-0.1-1-0.4-1.3s-0.7-0.5-1.1-0.5c-0.3,0-0.6,0.1-1,0.2l0.2-1.8c0.6,0,1-0.1,1.4-0.4s0.5-0.6,0.5-1.1c0-0.4-0.1-0.7-0.3-0.9
				s-0.5-0.3-0.9-0.3c-0.4,0-0.7,0.1-1,0.4s-0.4,0.6-0.5,1.1l-2-0.3c0.1-0.7,0.4-1.2,0.6-1.7s0.7-0.7,1.2-1s1.1-0.4,1.7-0.4
				c1.1,0,1.9,0.3,2.6,1c0.5,0.6,0.8,1.2,0.8,1.9c0,1-0.5,1.8-1.6,2.4c0.7,0.1,1.2,0.5,1.6,0.9s0.6,1.1,0.6,1.8c0,1-0.4,1.9-1.1,2.6
				s-1.6,1.1-2.7,1.1c-1,0-1.9-0.3-2.6-0.9S102.6,21.5,102.5,20.5z"/>
			<path class="st3" d="M54.1,27.3h4.2c1,0,1.7,0.1,2.2,0.2c0.7,0.2,1.2,0.5,1.7,1.1s0.8,1.1,1.1,1.9s0.4,1.6,0.4,2.7
				c0,0.9-0.1,1.8-0.4,2.4c-0.3,0.8-0.7,1.5-1.2,2c-0.4,0.4-0.9,0.7-1.6,0.9c-0.5,0.2-1.2,0.2-2,0.2h-4.4V27.3z M56.5,29.3v7.6h1.7
				c0.6,0,1.1,0,1.4-0.1c0.4-0.1,0.7-0.3,0.9-0.5s0.4-0.6,0.6-1.1s0.2-1.2,0.2-2.1s-0.1-1.6-0.2-2s-0.4-0.8-0.7-1.1
				s-0.6-0.4-1.1-0.5c-0.3-0.1-1-0.1-1.9-0.1H56.5z"/>
			<path class="st3" d="M70.5,36.1l2.2,0.4c-0.3,0.8-0.7,1.4-1.3,1.8S70,39,69.1,39c-1.4,0-2.5-0.5-3.2-1.4
				c-0.5-0.8-0.8-1.7-0.8-2.9c0-1.4,0.4-2.5,1.1-3.2c0.7-0.8,1.6-1.2,2.7-1.2c1.2,0,2.2,0.4,2.9,1.2c0.7,0.8,1.1,2.1,1,3.7h-5.5
				c0,0.7,0.2,1.2,0.5,1.5s0.8,0.5,1.3,0.5c0.3,0,0.6-0.1,0.9-0.3S70.4,36.6,70.5,36.1z M70.6,33.9c0-0.6-0.2-1.1-0.5-1.4
				S69.4,32,69,32c-0.5,0-0.9,0.2-1.2,0.5s-0.5,0.8-0.5,1.4H70.6z"/>
			<path class="st3" d="M73.6,30.5h1.2v-0.6c0-0.7,0.1-1.2,0.2-1.6s0.4-0.6,0.8-0.8s0.9-0.3,1.5-0.3c0.6,0,1.2,0.1,1.8,0.3l-0.3,1.5
				c-0.3-0.1-0.7-0.1-1-0.1c-0.3,0-0.5,0.1-0.7,0.2S77,29.5,77,29.9v0.6h1.6v1.7H77v6.6h-2.2v-6.6h-1.2V30.5z"/>
			<path class="st3" d="M79.9,29.4v-2h2.2v2H79.9z M79.9,38.8v-8.3h2.2v8.3H79.9z"/>
			<path class="st3" d="M91.9,38.8h-2.2v-4.2c0-0.9,0-1.5-0.1-1.7s-0.2-0.5-0.5-0.6S88.6,32,88.3,32c-0.4,0-0.7,0.1-1,0.3
				s-0.5,0.5-0.6,0.8s-0.2,1-0.2,1.9v3.8h-2.2v-8.3h2v1.2c0.7-0.9,1.6-1.4,2.7-1.4c0.5,0,0.9,0.1,1.3,0.3s0.7,0.4,0.9,0.7
				s0.3,0.6,0.4,0.9c0.1,0.3,0.1,0.8,0.1,1.5V38.8z"/>
			<path class="st3" d="M94.1,29.4v-2h2.2v2H94.1z M94.1,38.8v-8.3h2.2v8.3H94.1z"/>
			<path class="st3" d="M106.2,38.8h-2v-1.2c-0.3,0.5-0.7,0.8-1.2,1.1S102,39,101.6,39c-1,0-1.8-0.4-2.4-1.2s-1-1.8-1-3.2
				c0-1.4,0.3-2.5,1-3.2c0.7-0.7,1.5-1.1,2.5-1.1c0.9,0,1.7,0.4,2.4,1.2v-4.1h2.2V38.8z M100.3,34.5c0,0.9,0.1,1.5,0.4,1.9
				c0.4,0.6,0.8,0.9,1.5,0.9c0.5,0,0.9-0.2,1.3-0.6s0.5-1.1,0.5-1.9c0-1-0.2-1.6-0.5-2.1s-0.8-0.6-1.3-0.6c-0.5,0-1,0.2-1.3,0.6
				S100.3,33.6,100.3,34.5z"/>
			<path class="st3" d="M107.8,34.5c0-0.7,0.2-1.4,0.5-2.1c0.4-0.7,0.9-1.2,1.5-1.6s1.4-0.5,2.2-0.5c1.3,0,2.3,0.4,3.1,1.2
				c0.8,0.8,1.2,1.8,1.2,3.1c0,1.3-0.4,2.3-1.2,3.1s-1.8,1.2-3.1,1.2c-0.8,0-1.5-0.2-2.2-0.5s-1.2-0.8-1.6-1.5
				S107.8,35.5,107.8,34.5z M110.1,34.6c0,0.8,0.2,1.5,0.6,1.9s0.9,0.7,1.4,0.7s1.1-0.2,1.4-0.7s0.6-1.1,0.6-1.9
				c0-0.8-0.2-1.4-0.6-1.9s-0.9-0.7-1.4-0.7s-1.1,0.2-1.4,0.7S110.1,33.8,110.1,34.6z"/>
		</g>
		<g>
			<rect x="2.7" y="56.5" class="st3" width="165" height="77"/>
		</g>
	</g>
	<g>
		<path d="M9.5,70.9V59.5h4.3c0.8,0,1.3,0,1.7,0.1c0.6,0.1,1,0.3,1.4,0.5s0.7,0.6,0.9,1.1s0.3,1,0.3,1.6c0,1-0.3,1.8-0.9,2.5
			s-1.7,1-3.4,1H11v4.7H9.5z M11,64.9h3c1,0,1.7-0.2,2.1-0.5s0.6-0.9,0.6-1.5c0-0.5-0.1-0.9-0.4-1.2s-0.6-0.6-1-0.7
			c-0.3-0.1-0.7-0.1-1.4-0.1H11V64.9z"/>
		<path d="M19.7,70.9v-8.3h1.3v1.3c0.3-0.6,0.6-1,0.9-1.2s0.6-0.3,0.9-0.3c0.5,0,1,0.2,1.4,0.5l-0.5,1.3c-0.3-0.2-0.7-0.3-1-0.3
			c-0.3,0-0.6,0.1-0.8,0.3s-0.4,0.4-0.5,0.8c-0.2,0.5-0.2,1-0.2,1.6v4.3H19.7z"/>
		<path d="M24.2,66.8c0-1.5,0.4-2.7,1.3-3.4c0.7-0.6,1.6-0.9,2.6-0.9c1.1,0,2.1,0.4,2.8,1.1s1.1,1.8,1.1,3.1c0,1.1-0.2,1.9-0.5,2.5
			s-0.8,1.1-1.4,1.4s-1.3,0.5-2,0.5c-1.2,0-2.1-0.4-2.8-1.1S24.2,68.2,24.2,66.8z M25.6,66.8c0,1.1,0.2,1.9,0.7,2.4s1,0.8,1.8,0.8
			c0.7,0,1.3-0.3,1.7-0.8s0.7-1.3,0.7-2.4c0-1-0.2-1.8-0.7-2.3s-1-0.8-1.7-0.8c-0.7,0-1.3,0.3-1.8,0.8S25.6,65.7,25.6,66.8z"/>
		<path d="M38.7,67.9l1.4,0.2c-0.2,1-0.5,1.7-1.2,2.2s-1.4,0.8-2.3,0.8c-1.1,0-2-0.4-2.7-1.1s-1-1.8-1-3.2c0-0.9,0.1-1.7,0.4-2.4
			s0.7-1.2,1.4-1.5s1.3-0.5,2-0.5c0.9,0,1.6,0.2,2.2,0.7s0.9,1.1,1.1,1.9l-1.4,0.2c-0.1-0.6-0.4-1-0.7-1.3s-0.7-0.4-1.2-0.4
			c-0.7,0-1.3,0.3-1.7,0.8s-0.7,1.3-0.7,2.4c0,1.1,0.2,1.9,0.6,2.4s1,0.8,1.7,0.8c0.6,0,1-0.2,1.4-0.5S38.6,68.6,38.7,67.9z"/>
		<path d="M46.6,68.3l1.5,0.2c-0.2,0.8-0.7,1.5-1.3,2s-1.4,0.7-2.4,0.7c-1.2,0-2.2-0.4-2.9-1.1s-1.1-1.8-1.1-3.1
			c0-1.4,0.4-2.5,1.1-3.3s1.7-1.2,2.8-1.2c1.1,0,2,0.4,2.7,1.1s1.1,1.8,1.1,3.2c0,0.1,0,0.2,0,0.4h-6.2c0.1,0.9,0.3,1.6,0.8,2.1
			s1,0.7,1.7,0.7c0.5,0,1-0.1,1.3-0.4S46.4,68.9,46.6,68.3z M42,66h4.6c-0.1-0.7-0.2-1.2-0.5-1.6c-0.4-0.5-1-0.8-1.7-0.8
			c-0.6,0-1.2,0.2-1.6,0.6S42.1,65.3,42,66z"/>
		<path d="M49,68.5l1.4-0.2c0.1,0.6,0.3,1,0.7,1.3s0.9,0.4,1.5,0.4c0.6,0,1.1-0.1,1.4-0.4s0.5-0.6,0.5-0.9c0-0.3-0.1-0.6-0.4-0.8
			c-0.2-0.1-0.7-0.3-1.4-0.5c-1-0.3-1.7-0.5-2.1-0.7s-0.7-0.5-0.9-0.8s-0.3-0.7-0.3-1.1c0-0.4,0.1-0.7,0.3-1s0.4-0.6,0.7-0.8
			c0.2-0.2,0.5-0.3,0.9-0.4s0.8-0.2,1.2-0.2c0.7,0,1.2,0.1,1.7,0.3s0.9,0.4,1.1,0.8s0.4,0.7,0.5,1.3L54.2,65c-0.1-0.4-0.2-0.8-0.5-1
			s-0.7-0.4-1.3-0.4c-0.6,0-1.1,0.1-1.4,0.3s-0.4,0.5-0.4,0.8c0,0.2,0.1,0.3,0.2,0.5c0.1,0.2,0.3,0.3,0.5,0.4
			c0.1,0.1,0.6,0.2,1.2,0.4c1,0.3,1.7,0.5,2.1,0.7s0.7,0.4,0.9,0.7s0.3,0.7,0.3,1.2c0,0.5-0.1,0.9-0.4,1.3s-0.7,0.7-1.2,1
			s-1.1,0.3-1.8,0.3c-1.1,0-1.9-0.2-2.5-0.7S49.1,69.3,49,68.5z"/>
		<path d="M56.7,66.8c0-1.5,0.4-2.7,1.3-3.4c0.7-0.6,1.6-0.9,2.6-0.9c1.1,0,2.1,0.4,2.8,1.1s1.1,1.8,1.1,3.1c0,1.1-0.2,1.9-0.5,2.5
			s-0.8,1.1-1.4,1.4s-1.3,0.5-2,0.5c-1.2,0-2.1-0.4-2.8-1.1S56.7,68.2,56.7,66.8z M58.1,66.8c0,1.1,0.2,1.9,0.7,2.4s1,0.8,1.8,0.8
			c0.7,0,1.3-0.3,1.7-0.8s0.7-1.3,0.7-2.4c0-1-0.2-1.8-0.7-2.3s-1-0.8-1.7-0.8c-0.7,0-1.3,0.3-1.8,0.8S58.1,65.7,58.1,66.8z"/>
		<path d="M65.2,68.5l1.4-0.2c0.1,0.6,0.3,1,0.7,1.3s0.9,0.4,1.5,0.4c0.6,0,1.1-0.1,1.4-0.4s0.5-0.6,0.5-0.9c0-0.3-0.1-0.6-0.4-0.8
			c-0.2-0.1-0.7-0.3-1.4-0.5c-1-0.3-1.7-0.5-2.1-0.7S66,66.3,65.8,66s-0.3-0.7-0.3-1.1c0-0.4,0.1-0.7,0.3-1s0.4-0.6,0.7-0.8
			c0.2-0.2,0.5-0.3,0.9-0.4s0.8-0.2,1.2-0.2c0.7,0,1.2,0.1,1.7,0.3s0.9,0.4,1.1,0.8s0.4,0.7,0.5,1.3L70.4,65c-0.1-0.4-0.2-0.8-0.5-1
			s-0.7-0.4-1.3-0.4c-0.6,0-1.1,0.1-1.4,0.3s-0.4,0.5-0.4,0.8c0,0.2,0.1,0.3,0.2,0.5c0.1,0.2,0.3,0.3,0.5,0.4
			c0.1,0.1,0.6,0.2,1.2,0.4c1,0.3,1.7,0.5,2.1,0.7s0.7,0.4,0.9,0.7s0.3,0.7,0.3,1.2c0,0.5-0.1,0.9-0.4,1.3s-0.7,0.7-1.2,1
			s-1.1,0.3-1.8,0.3c-1.1,0-1.9-0.2-2.5-0.7S65.4,69.3,65.2,68.5z"/>
		<path d="M83,70.9v-1c-0.5,0.8-1.3,1.2-2.3,1.2c-0.7,0-1.3-0.2-1.8-0.5s-1-0.9-1.3-1.5s-0.5-1.4-0.5-2.3c0-0.8,0.1-1.6,0.4-2.3
			s0.7-1.2,1.2-1.6s1.2-0.5,1.9-0.5c0.5,0,0.9,0.1,1.3,0.3s0.7,0.5,1,0.8v-4.1h1.4v11.5H83z M78.5,66.8c0,1.1,0.2,1.9,0.7,2.4
			s1,0.8,1.6,0.8c0.6,0,1.1-0.3,1.6-0.8s0.6-1.3,0.6-2.3c0-1.1-0.2-2-0.7-2.5s-1-0.8-1.6-0.8c-0.6,0-1.1,0.3-1.6,0.8
			S78.5,65.7,78.5,66.8z"/>
		<path d="M91.9,68.3l1.5,0.2c-0.2,0.8-0.7,1.5-1.3,2s-1.4,0.7-2.4,0.7c-1.2,0-2.2-0.4-2.9-1.1s-1.1-1.8-1.1-3.1
			c0-1.4,0.4-2.5,1.1-3.3s1.7-1.2,2.8-1.2c1.1,0,2,0.4,2.7,1.1s1.1,1.8,1.1,3.2c0,0.1,0,0.2,0,0.4h-6.2c0.1,0.9,0.3,1.6,0.8,2.1
			s1,0.7,1.7,0.7c0.5,0,1-0.1,1.3-0.4S91.6,68.9,91.9,68.3z M87.2,66h4.6c-0.1-0.7-0.2-1.2-0.5-1.6c-0.4-0.5-1-0.8-1.7-0.8
			c-0.6,0-1.2,0.2-1.6,0.6S87.3,65.3,87.2,66z"/>
		<path d="M104.4,66.4v-1.3l4.9,0v4.3c-0.7,0.6-1.5,1-2.3,1.3s-1.6,0.4-2.4,0.4c-1.1,0-2.1-0.2-3.1-0.7s-1.6-1.2-2.1-2.1
			s-0.7-1.9-0.7-3.1c0-1.1,0.2-2.2,0.7-3.1s1.1-1.7,2-2.2s1.9-0.7,3-0.7c0.8,0,1.6,0.1,2.2,0.4s1.2,0.6,1.6,1.1s0.7,1.1,0.9,1.9
			l-1.4,0.4c-0.2-0.6-0.4-1-0.6-1.4s-0.6-0.6-1.1-0.8s-1-0.3-1.6-0.3c-0.7,0-1.3,0.1-1.8,0.3s-0.9,0.5-1.2,0.8s-0.6,0.7-0.7,1.1
			c-0.3,0.7-0.4,1.5-0.4,2.3c0,1,0.2,1.9,0.5,2.6s0.9,1.2,1.5,1.5s1.4,0.5,2.1,0.5c0.7,0,1.3-0.1,1.9-0.4s1.1-0.5,1.4-0.8v-2.1
			H104.4z"/>
		<path d="M116.7,68.3l1.5,0.2c-0.2,0.8-0.7,1.5-1.3,2s-1.4,0.7-2.4,0.7c-1.2,0-2.2-0.4-2.9-1.1s-1.1-1.8-1.1-3.1
			c0-1.4,0.4-2.5,1.1-3.3s1.7-1.2,2.8-1.2c1.1,0,2,0.4,2.7,1.1s1.1,1.8,1.1,3.2c0,0.1,0,0.2,0,0.4H112c0.1,0.9,0.3,1.6,0.8,2.1
			s1,0.7,1.7,0.7c0.5,0,1-0.1,1.3-0.4S116.5,68.9,116.7,68.3z M112.1,66h4.6c-0.1-0.7-0.2-1.2-0.5-1.6c-0.4-0.5-1-0.8-1.7-0.8
			c-0.6,0-1.2,0.2-1.6,0.6S112.1,65.3,112.1,66z"/>
		<path d="M119.6,70.9v-8.3h1.3v1.3c0.3-0.6,0.6-1,0.9-1.2s0.6-0.3,0.9-0.3c0.5,0,1,0.2,1.4,0.5l-0.5,1.3c-0.3-0.2-0.7-0.3-1-0.3
			c-0.3,0-0.6,0.1-0.8,0.3s-0.4,0.4-0.5,0.8c-0.2,0.5-0.2,1-0.2,1.6v4.3H119.6z"/>
		<path d="M130.3,68.3l1.5,0.2c-0.2,0.8-0.7,1.5-1.3,2s-1.4,0.7-2.4,0.7c-1.2,0-2.2-0.4-2.9-1.1s-1.1-1.8-1.1-3.1
			c0-1.4,0.4-2.5,1.1-3.3s1.7-1.2,2.8-1.2c1.1,0,2,0.4,2.7,1.1s1.1,1.8,1.1,3.2c0,0.1,0,0.2,0,0.4h-6.2c0.1,0.9,0.3,1.6,0.8,2.1
			s1,0.7,1.7,0.7c0.5,0,1-0.1,1.3-0.4S130.1,68.9,130.3,68.3z M125.7,66h4.6c-0.1-0.7-0.2-1.2-0.5-1.6c-0.4-0.5-1-0.8-1.7-0.8
			c-0.6,0-1.2,0.2-1.6,0.6S125.7,65.3,125.7,66z"/>
		<path d="M133.2,70.9v-8.3h1.3v1.2c0.6-0.9,1.5-1.4,2.6-1.4c0.5,0,1,0.1,1.4,0.3s0.7,0.4,0.9,0.7s0.4,0.6,0.4,1
			c0.1,0.3,0.1,0.7,0.1,1.4v5.1h-1.4v-5c0-0.6-0.1-1-0.2-1.3s-0.3-0.5-0.6-0.7s-0.6-0.3-1-0.3c-0.6,0-1.1,0.2-1.6,0.6
			s-0.7,1.1-0.7,2.2v4.5H133.2z"/>
		<path d="M147.2,67.9l1.4,0.2c-0.2,1-0.5,1.7-1.2,2.2s-1.4,0.8-2.3,0.8c-1.1,0-2-0.4-2.7-1.1s-1-1.8-1-3.2c0-0.9,0.1-1.7,0.4-2.4
			s0.7-1.2,1.4-1.5s1.3-0.5,2-0.5c0.9,0,1.6,0.2,2.2,0.7s0.9,1.1,1.1,1.9l-1.4,0.2c-0.1-0.6-0.4-1-0.7-1.3s-0.7-0.4-1.2-0.4
			c-0.7,0-1.3,0.3-1.7,0.8s-0.7,1.3-0.7,2.4c0,1.1,0.2,1.9,0.6,2.4s1,0.8,1.7,0.8c0.6,0,1-0.2,1.4-0.5S147.1,68.6,147.2,67.9z"/>
		<path d="M149.4,61.1v-1.6h1.4v1.6H149.4z M149.4,70.9v-8.3h1.4v8.3H149.4z"/>
		<path d="M158.1,69.9c-0.5,0.4-1,0.8-1.5,0.9s-1,0.3-1.6,0.3c-0.9,0-1.6-0.2-2.1-0.7s-0.7-1-0.7-1.7c0-0.4,0.1-0.8,0.3-1.1
			s0.4-0.6,0.7-0.8s0.6-0.4,1-0.5c0.3-0.1,0.7-0.1,1.3-0.2c1.1-0.1,2-0.3,2.5-0.5c0-0.2,0-0.3,0-0.4c0-0.6-0.1-1-0.4-1.2
			c-0.4-0.3-0.9-0.5-1.6-0.5c-0.7,0-1.1,0.1-1.5,0.3s-0.5,0.6-0.7,1.2l-1.4-0.2c0.1-0.6,0.3-1.1,0.6-1.4s0.7-0.6,1.2-0.8
			s1.2-0.3,1.9-0.3c0.7,0,1.3,0.1,1.7,0.3s0.8,0.4,1,0.6s0.4,0.6,0.4,1c0,0.2,0.1,0.7,0.1,1.3v1.9c0,1.3,0,2.1,0.1,2.5
			s0.2,0.7,0.4,1h-1.5C158.2,70.6,158.1,70.3,158.1,69.9z M158,66.8c-0.5,0.2-1.3,0.4-2.3,0.5c-0.6,0.1-1,0.2-1.2,0.3
			s-0.4,0.3-0.6,0.5s-0.2,0.4-0.2,0.7c0,0.4,0.1,0.7,0.4,0.9s0.7,0.4,1.2,0.4c0.5,0,1-0.1,1.4-0.4s0.7-0.6,0.9-1
			c0.2-0.3,0.2-0.8,0.2-1.4V66.8z"/>
		<path d="M45.9,90.1v-1c-0.5,0.8-1.3,1.2-2.3,1.2c-0.7,0-1.3-0.2-1.8-0.5s-1-0.9-1.3-1.5S40,86.8,40,86c0-0.8,0.1-1.6,0.4-2.3
			s0.7-1.2,1.2-1.6s1.2-0.5,1.9-0.5c0.5,0,0.9,0.1,1.3,0.3s0.7,0.5,1,0.8v-4.1h1.4v11.5H45.9z M41.5,86c0,1.1,0.2,1.9,0.7,2.4
			s1,0.8,1.6,0.8c0.6,0,1.1-0.3,1.6-0.8s0.6-1.3,0.6-2.3c0-1.1-0.2-2-0.7-2.5s-1-0.8-1.6-0.8c-0.6,0-1.1,0.3-1.6,0.8
			S41.5,84.9,41.5,86z"/>
		<path d="M54.8,87.5l1.5,0.2c-0.2,0.8-0.7,1.5-1.3,2s-1.4,0.7-2.4,0.7c-1.2,0-2.2-0.4-2.9-1.1s-1.1-1.8-1.1-3.1
			c0-1.4,0.4-2.5,1.1-3.3s1.7-1.2,2.8-1.2c1.1,0,2,0.4,2.7,1.1s1.1,1.8,1.1,3.2c0,0.1,0,0.2,0,0.4h-6.2c0.1,0.9,0.3,1.6,0.8,2.1
			s1,0.7,1.7,0.7c0.5,0,1-0.1,1.3-0.4S54.6,88.1,54.8,87.5z M50.2,85.2h4.6c-0.1-0.7-0.2-1.2-0.5-1.6c-0.4-0.5-1-0.8-1.7-0.8
			c-0.6,0-1.2,0.2-1.6,0.6S50.2,84.5,50.2,85.2z"/>
		<path d="M62,90.1V78.7h4.3c0.8,0,1.3,0,1.7,0.1c0.6,0.1,1,0.3,1.4,0.5s0.7,0.6,0.9,1.1s0.3,1,0.3,1.6c0,1-0.3,1.8-0.9,2.5
			s-1.7,1-3.4,1h-2.9v4.7H62z M63.5,84.1h3c1,0,1.7-0.2,2.1-0.5s0.6-0.9,0.6-1.5c0-0.5-0.1-0.9-0.4-1.2s-0.6-0.6-1-0.7
			c-0.3-0.1-0.7-0.1-1.4-0.1h-2.9V84.1z"/>
		<path d="M72.1,90.1v-8.3h1.3v1.3c0.3-0.6,0.6-1,0.9-1.2s0.6-0.3,0.9-0.3c0.5,0,1,0.2,1.4,0.5l-0.5,1.3c-0.3-0.2-0.7-0.3-1-0.3
			c-0.3,0-0.6,0.1-0.8,0.3s-0.4,0.4-0.5,0.8c-0.2,0.5-0.2,1-0.2,1.6v4.3H72.1z"/>
		<path d="M76.6,86c0-1.5,0.4-2.7,1.3-3.4c0.7-0.6,1.6-0.9,2.6-0.9c1.1,0,2.1,0.4,2.8,1.1s1.1,1.8,1.1,3.1c0,1.1-0.2,1.9-0.5,2.5
			s-0.8,1.1-1.4,1.4s-1.3,0.5-2,0.5c-1.2,0-2.1-0.4-2.8-1.1S76.6,87.4,76.6,86z M78.1,86c0,1.1,0.2,1.9,0.7,2.4s1,0.8,1.8,0.8
			c0.7,0,1.3-0.3,1.7-0.8S83,87,83,85.9c0-1-0.2-1.8-0.7-2.3s-1-0.8-1.7-0.8c-0.7,0-1.3,0.3-1.8,0.8S78.1,84.9,78.1,86z"/>
		<path d="M85.7,93.3L85.5,92c0.3,0.1,0.6,0.1,0.8,0.1c0.3,0,0.6-0.1,0.8-0.2s0.3-0.3,0.5-0.4c0.1-0.1,0.2-0.5,0.4-1
			c0-0.1,0.1-0.2,0.1-0.3l-3.1-8.3h1.5l1.7,4.8c0.2,0.6,0.4,1.3,0.6,1.9c0.2-0.6,0.4-1.3,0.6-1.9l1.8-4.8h1.4l-3.2,8.4
			c-0.3,0.9-0.6,1.5-0.8,1.9c-0.3,0.5-0.5,0.8-0.9,1s-0.7,0.3-1.2,0.3C86.3,93.5,86,93.5,85.7,93.3z"/>
		<path d="M99.1,87.5l1.5,0.2c-0.2,0.8-0.7,1.5-1.3,2s-1.4,0.7-2.4,0.7c-1.2,0-2.2-0.4-2.9-1.1S93,87.4,93,86.1
			c0-1.4,0.4-2.5,1.1-3.3s1.7-1.2,2.8-1.2c1.1,0,2,0.4,2.7,1.1s1.1,1.8,1.1,3.2c0,0.1,0,0.2,0,0.4h-6.2c0.1,0.9,0.3,1.6,0.8,2.1
			s1,0.7,1.7,0.7c0.5,0,1-0.1,1.3-0.4S98.9,88.1,99.1,87.5z M94.5,85.2h4.6c-0.1-0.7-0.2-1.2-0.5-1.6c-0.4-0.5-1-0.8-1.7-0.8
			c-0.6,0-1.2,0.2-1.6,0.6S94.5,84.5,94.5,85.2z"/>
		<path d="M107.4,87.1l1.4,0.2c-0.2,1-0.5,1.7-1.2,2.2s-1.4,0.8-2.3,0.8c-1.1,0-2-0.4-2.7-1.1s-1-1.8-1-3.2c0-0.9,0.1-1.7,0.4-2.4
			s0.7-1.2,1.4-1.5s1.3-0.5,2-0.5c0.9,0,1.6,0.2,2.2,0.7s0.9,1.1,1.1,1.9l-1.4,0.2c-0.1-0.6-0.4-1-0.7-1.3s-0.7-0.4-1.2-0.4
			c-0.7,0-1.3,0.3-1.7,0.8S103,84.9,103,86c0,1.1,0.2,1.9,0.6,2.4s1,0.8,1.7,0.8c0.6,0,1-0.2,1.4-0.5S107.3,87.8,107.4,87.1z"/>
		<path d="M112.7,88.9l0.2,1.2c-0.4,0.1-0.8,0.1-1.1,0.1c-0.5,0-0.9-0.1-1.2-0.2s-0.5-0.4-0.6-0.6s-0.2-0.8-0.2-1.7v-4.8h-1v-1.1h1
			v-2.1l1.4-0.8v2.9h1.4v1.1h-1.4v4.9c0,0.4,0,0.7,0.1,0.8s0.1,0.2,0.2,0.3s0.3,0.1,0.5,0.1C112.3,88.9,112.5,88.9,112.7,88.9z"/>
		<path d="M113.3,86c0-1.5,0.4-2.7,1.3-3.4c0.7-0.6,1.6-0.9,2.6-0.9c1.1,0,2.1,0.4,2.8,1.1s1.1,1.8,1.1,3.1c0,1.1-0.2,1.9-0.5,2.5
			s-0.8,1.1-1.4,1.4s-1.3,0.5-2,0.5c-1.2,0-2.1-0.4-2.8-1.1S113.3,87.4,113.3,86z M114.7,86c0,1.1,0.2,1.9,0.7,2.4s1,0.8,1.8,0.8
			c0.7,0,1.3-0.3,1.7-0.8s0.7-1.3,0.7-2.4c0-1-0.2-1.8-0.7-2.3s-1-0.8-1.7-0.8c-0.7,0-1.3,0.3-1.8,0.8S114.7,84.9,114.7,86z"/>
		<path d="M121.8,87.7l1.4-0.2c0.1,0.6,0.3,1,0.7,1.3s0.9,0.4,1.5,0.4c0.6,0,1.1-0.1,1.4-0.4s0.5-0.6,0.5-0.9c0-0.3-0.1-0.6-0.4-0.8
			c-0.2-0.1-0.7-0.3-1.4-0.5c-1-0.3-1.7-0.5-2.1-0.7s-0.7-0.5-0.9-0.8s-0.3-0.7-0.3-1.1c0-0.4,0.1-0.7,0.3-1s0.4-0.6,0.7-0.8
			c0.2-0.2,0.5-0.3,0.9-0.4s0.8-0.2,1.2-0.2c0.7,0,1.2,0.1,1.7,0.3s0.9,0.4,1.1,0.8c0.2,0.3,0.4,0.7,0.5,1.3l-1.4,0.2
			c-0.1-0.4-0.2-0.8-0.5-1s-0.7-0.4-1.3-0.4c-0.6,0-1.1,0.1-1.4,0.3s-0.4,0.5-0.4,0.8c0,0.2,0.1,0.3,0.2,0.5
			c0.1,0.2,0.3,0.3,0.5,0.4c0.1,0.1,0.6,0.2,1.2,0.4c1,0.3,1.7,0.5,2.1,0.7s0.7,0.4,0.9,0.7s0.3,0.7,0.3,1.2c0,0.5-0.1,0.9-0.4,1.3
			s-0.7,0.7-1.2,1s-1.1,0.3-1.8,0.3c-1.1,0-1.9-0.2-2.5-0.7S122,88.5,121.8,87.7z"/>
		<path d="M14.2,109.3V97.9h1.5v11.5H14.2z"/>
		<path d="M17.9,109.3V101h1.3v1.2c0.6-0.9,1.5-1.4,2.6-1.4c0.5,0,1,0.1,1.4,0.3s0.7,0.4,0.9,0.7s0.4,0.6,0.4,1
			c0.1,0.3,0.1,0.7,0.1,1.4v5.1h-1.4v-5c0-0.6-0.1-1-0.2-1.3s-0.3-0.5-0.6-0.7s-0.6-0.3-1-0.3c-0.6,0-1.1,0.2-1.6,0.6
			s-0.7,1.1-0.7,2.2v4.5H17.9z"/>
		<path d="M29.6,108.1l0.2,1.2c-0.4,0.1-0.8,0.1-1.1,0.1c-0.5,0-0.9-0.1-1.2-0.2s-0.5-0.4-0.6-0.6s-0.2-0.8-0.2-1.7v-4.8h-1V101h1
			V99l1.4-0.8v2.9h1.4v1.1h-1.4v4.9c0,0.4,0,0.7,0.1,0.8s0.1,0.2,0.2,0.3s0.3,0.1,0.5,0.1C29.1,108.1,29.3,108.1,29.6,108.1z"/>
		<path d="M36.3,106.7l1.5,0.2c-0.2,0.8-0.7,1.5-1.3,2s-1.4,0.7-2.4,0.7c-1.2,0-2.2-0.4-2.9-1.1s-1.1-1.8-1.1-3.1
			c0-1.4,0.4-2.5,1.1-3.3s1.7-1.2,2.8-1.2c1.1,0,2,0.4,2.7,1.1s1.1,1.8,1.1,3.2c0,0.1,0,0.2,0,0.4h-6.2c0.1,0.9,0.3,1.6,0.8,2.1
			c0.5,0.5,1,0.7,1.7,0.7c0.5,0,1-0.1,1.3-0.4S36.1,107.3,36.3,106.7z M31.7,104.4h4.6c-0.1-0.7-0.2-1.2-0.5-1.6
			c-0.4-0.5-1-0.8-1.7-0.8c-0.6,0-1.2,0.2-1.6,0.6C32,103.1,31.7,103.7,31.7,104.4z"/>
		<path d="M38.9,110l1.4,0.2c0.1,0.4,0.2,0.7,0.5,0.9c0.3,0.3,0.8,0.4,1.4,0.4c0.7,0,1.2-0.1,1.5-0.4s0.6-0.6,0.7-1.1
			c0.1-0.3,0.1-0.9,0.1-1.8c-0.6,0.7-1.4,1.1-2.3,1.1c-1.1,0-2-0.4-2.6-1.2s-0.9-1.8-0.9-3c0-0.8,0.1-1.5,0.4-2.2s0.7-1.2,1.2-1.6
			s1.2-0.5,1.9-0.5c1,0,1.8,0.4,2.4,1.2v-1H46v7.2c0,1.3-0.1,2.2-0.4,2.7s-0.7,1-1.3,1.3s-1.3,0.5-2.1,0.5c-1,0-1.8-0.2-2.4-0.7
			S38.9,110.9,38.9,110z M40.1,105c0,1.1,0.2,1.9,0.6,2.4s1,0.8,1.6,0.8c0.6,0,1.2-0.2,1.6-0.7s0.7-1.3,0.7-2.3c0-1-0.2-1.8-0.7-2.3
			s-1-0.8-1.6-0.8c-0.6,0-1.2,0.3-1.6,0.8S40.1,104,40.1,105z"/>
		<path d="M47.8,109.3V101H49v1.3c0.3-0.6,0.6-1,0.9-1.2s0.6-0.3,0.9-0.3c0.5,0,1,0.2,1.4,0.5l-0.5,1.3c-0.3-0.2-0.7-0.3-1-0.3
			c-0.3,0-0.6,0.1-0.8,0.3s-0.4,0.4-0.5,0.8c-0.2,0.5-0.2,1-0.2,1.6v4.3H47.8z"/>
		<path d="M58.2,108.3c-0.5,0.4-1,0.8-1.5,0.9s-1,0.3-1.6,0.3c-0.9,0-1.6-0.2-2.1-0.7s-0.7-1-0.7-1.7c0-0.4,0.1-0.8,0.3-1.1
			s0.4-0.6,0.7-0.8s0.6-0.4,1-0.5c0.3-0.1,0.7-0.1,1.3-0.2c1.1-0.1,2-0.3,2.5-0.5c0-0.2,0-0.3,0-0.4c0-0.6-0.1-1-0.4-1.2
			c-0.4-0.3-0.9-0.5-1.6-0.5c-0.7,0-1.1,0.1-1.5,0.3s-0.5,0.6-0.7,1.2l-1.4-0.2c0.1-0.6,0.3-1.1,0.6-1.4s0.7-0.6,1.2-0.8
			s1.2-0.3,1.9-0.3c0.7,0,1.3,0.1,1.7,0.3s0.8,0.4,1,0.6s0.4,0.6,0.4,1c0,0.2,0.1,0.7,0.1,1.3v1.9c0,1.3,0,2.1,0.1,2.5
			s0.2,0.7,0.4,1h-1.5C58.3,109,58.2,108.7,58.2,108.3z M58.1,105.2c-0.5,0.2-1.3,0.4-2.3,0.5c-0.6,0.1-1,0.2-1.2,0.3
			s-0.4,0.3-0.6,0.5s-0.2,0.4-0.2,0.7c0,0.4,0.1,0.7,0.4,0.9s0.7,0.4,1.2,0.4c0.5,0,1-0.1,1.4-0.4s0.7-0.6,0.9-1
			c0.2-0.3,0.2-0.8,0.2-1.4V105.2z"/>
		<path d="M66.7,109.3v-1c-0.5,0.8-1.3,1.2-2.3,1.2c-0.7,0-1.3-0.2-1.8-0.5s-1-0.9-1.3-1.5s-0.5-1.4-0.5-2.3c0-0.8,0.1-1.6,0.4-2.3
			s0.7-1.2,1.2-1.6s1.2-0.5,1.9-0.5c0.5,0,0.9,0.1,1.3,0.3s0.7,0.5,1,0.8v-4.1H68v11.5H66.7z M62.3,105.2c0,1.1,0.2,1.9,0.7,2.4
			s1,0.8,1.6,0.8c0.6,0,1.1-0.3,1.6-0.8s0.6-1.3,0.6-2.3c0-1.1-0.2-2-0.7-2.5s-1-0.8-1.6-0.8c-0.6,0-1.1,0.3-1.6,0.8
			S62.3,104.1,62.3,105.2z"/>
		<path d="M69.4,105.2c0-1.5,0.4-2.7,1.3-3.4c0.7-0.6,1.6-0.9,2.6-0.9c1.1,0,2.1,0.4,2.8,1.1s1.1,1.8,1.1,3.1c0,1.1-0.2,1.9-0.5,2.5
			s-0.8,1.1-1.4,1.4s-1.3,0.5-2,0.5c-1.2,0-2.1-0.4-2.8-1.1S69.4,106.6,69.4,105.2z M70.9,105.2c0,1.1,0.2,1.9,0.7,2.4
			s1,0.8,1.8,0.8c0.7,0,1.3-0.3,1.7-0.8s0.7-1.3,0.7-2.4c0-1-0.2-1.8-0.7-2.3s-1-0.8-1.7-0.8c-0.7,0-1.3,0.3-1.8,0.8
			S70.9,104.1,70.9,105.2z"/>
		<path d="M77.9,106.9l1.4-0.2c0.1,0.6,0.3,1,0.7,1.3s0.9,0.4,1.5,0.4c0.6,0,1.1-0.1,1.4-0.4s0.5-0.6,0.5-0.9c0-0.3-0.1-0.6-0.4-0.8
			c-0.2-0.1-0.7-0.3-1.4-0.5c-1-0.3-1.7-0.5-2.1-0.7s-0.7-0.5-0.9-0.8s-0.3-0.7-0.3-1.1c0-0.4,0.1-0.7,0.3-1s0.4-0.6,0.7-0.8
			c0.2-0.2,0.5-0.3,0.9-0.4s0.8-0.2,1.2-0.2c0.7,0,1.2,0.1,1.7,0.3s0.9,0.4,1.1,0.8s0.4,0.7,0.5,1.3l-1.4,0.2
			c-0.1-0.4-0.2-0.8-0.5-1s-0.7-0.4-1.3-0.4c-0.6,0-1.1,0.1-1.4,0.3s-0.4,0.5-0.4,0.8c0,0.2,0.1,0.3,0.2,0.5
			c0.1,0.2,0.3,0.3,0.5,0.4c0.1,0.1,0.6,0.2,1.2,0.4c1,0.3,1.7,0.5,2.1,0.7s0.7,0.4,0.9,0.7s0.3,0.7,0.3,1.2c0,0.5-0.1,0.9-0.4,1.3
			s-0.7,0.7-1.2,1s-1.1,0.3-1.8,0.3c-1.1,0-1.9-0.2-2.5-0.7S78.1,107.7,77.9,106.9z"/>
		<path d="M86.6,109.3v-1.6h1.6v1.6c0,0.6-0.1,1.1-0.3,1.4s-0.5,0.6-1,0.8l-0.4-0.6c0.3-0.1,0.5-0.3,0.7-0.6s0.2-0.6,0.2-1.1H86.6z"
			/>
		<path d="M94.4,112.5V101h1.3v1.1c0.3-0.4,0.6-0.7,1-0.9s0.8-0.3,1.4-0.3c0.7,0,1.3,0.2,1.9,0.5s1,0.9,1.2,1.5s0.4,1.4,0.4,2.2
			c0,0.8-0.2,1.6-0.5,2.3s-0.7,1.2-1.3,1.6s-1.2,0.5-1.8,0.5c-0.5,0-0.9-0.1-1.3-0.3s-0.7-0.4-0.9-0.8v4H94.4z M95.7,105.2
			c0,1.1,0.2,1.9,0.6,2.4s1,0.8,1.6,0.8c0.6,0,1.2-0.3,1.6-0.8s0.7-1.3,0.7-2.5c0-1.1-0.2-1.8-0.7-2.4s-1-0.8-1.6-0.8
			c-0.6,0-1.1,0.3-1.6,0.8S95.7,104.2,95.7,105.2z"/>
		<path d="M103,109.3V101h1.3v1.3c0.3-0.6,0.6-1,0.9-1.2s0.6-0.3,0.9-0.3c0.5,0,1,0.2,1.4,0.5l-0.5,1.3c-0.3-0.2-0.7-0.3-1-0.3
			c-0.3,0-0.6,0.1-0.8,0.3s-0.4,0.4-0.5,0.8c-0.2,0.5-0.2,1-0.2,1.6v4.3H103z"/>
		<path d="M107.5,105.2c0-1.5,0.4-2.7,1.3-3.4c0.7-0.6,1.6-0.9,2.6-0.9c1.1,0,2.1,0.4,2.8,1.1s1.1,1.8,1.1,3.1
			c0,1.1-0.2,1.9-0.5,2.5s-0.8,1.1-1.4,1.4s-1.3,0.5-2,0.5c-1.2,0-2.1-0.4-2.8-1.1S107.5,106.6,107.5,105.2z M108.9,105.2
			c0,1.1,0.2,1.9,0.7,2.4s1,0.8,1.8,0.8c0.7,0,1.3-0.3,1.7-0.8s0.7-1.3,0.7-2.4c0-1-0.2-1.8-0.7-2.3s-1-0.8-1.7-0.8
			c-0.7,0-1.3,0.3-1.8,0.8S108.9,104.1,108.9,105.2z"/>
		<path d="M122,106.3l1.4,0.2c-0.2,1-0.5,1.7-1.2,2.2s-1.4,0.8-2.3,0.8c-1.1,0-2-0.4-2.7-1.1s-1-1.8-1-3.2c0-0.9,0.1-1.7,0.4-2.4
			s0.7-1.2,1.4-1.5s1.3-0.5,2-0.5c0.9,0,1.6,0.2,2.2,0.7s0.9,1.1,1.1,1.9l-1.4,0.2c-0.1-0.6-0.4-1-0.7-1.3s-0.7-0.4-1.2-0.4
			c-0.7,0-1.3,0.3-1.7,0.8s-0.7,1.3-0.7,2.4c0,1.1,0.2,1.9,0.6,2.4s1,0.8,1.7,0.8c0.6,0,1-0.2,1.4-0.5S121.9,107,122,106.3z"/>
		<path d="M130,106.7l1.5,0.2c-0.2,0.8-0.7,1.5-1.3,2s-1.4,0.7-2.4,0.7c-1.2,0-2.2-0.4-2.9-1.1s-1.1-1.8-1.1-3.1
			c0-1.4,0.4-2.5,1.1-3.3s1.7-1.2,2.8-1.2c1.1,0,2,0.4,2.7,1.1s1.1,1.8,1.1,3.2c0,0.1,0,0.2,0,0.4h-6.2c0.1,0.9,0.3,1.6,0.8,2.1
			s1,0.7,1.7,0.7c0.5,0,1-0.1,1.3-0.4S129.8,107.3,130,106.7z M125.3,104.4h4.6c-0.1-0.7-0.2-1.2-0.5-1.6c-0.4-0.5-1-0.8-1.7-0.8
			c-0.6,0-1.2,0.2-1.6,0.6S125.4,103.7,125.3,104.4z"/>
		<path d="M132.3,106.9l1.4-0.2c0.1,0.6,0.3,1,0.7,1.3s0.9,0.4,1.5,0.4c0.6,0,1.1-0.1,1.4-0.4s0.5-0.6,0.5-0.9
			c0-0.3-0.1-0.6-0.4-0.8c-0.2-0.1-0.7-0.3-1.4-0.5c-1-0.3-1.7-0.5-2.1-0.7s-0.7-0.5-0.9-0.8s-0.3-0.7-0.3-1.1c0-0.4,0.1-0.7,0.3-1
			s0.4-0.6,0.7-0.8c0.2-0.2,0.5-0.3,0.9-0.4s0.8-0.2,1.2-0.2c0.7,0,1.2,0.1,1.7,0.3s0.9,0.4,1.1,0.8s0.4,0.7,0.5,1.3l-1.4,0.2
			c-0.1-0.4-0.2-0.8-0.5-1s-0.7-0.4-1.3-0.4c-0.6,0-1.1,0.1-1.4,0.3s-0.4,0.5-0.4,0.8c0,0.2,0.1,0.3,0.2,0.5
			c0.1,0.2,0.3,0.3,0.5,0.4c0.1,0.1,0.6,0.2,1.2,0.4c1,0.3,1.7,0.5,2.1,0.7s0.7,0.4,0.9,0.7s0.3,0.7,0.3,1.2c0,0.5-0.1,0.9-0.4,1.3
			s-0.7,0.7-1.2,1s-1.1,0.3-1.8,0.3c-1.1,0-1.9-0.2-2.5-0.7S132.5,107.7,132.3,106.9z"/>
		<path d="M140,105.2c0-1.5,0.4-2.7,1.3-3.4c0.7-0.6,1.6-0.9,2.6-0.9c1.1,0,2.1,0.4,2.8,1.1s1.1,1.8,1.1,3.1c0,1.1-0.2,1.9-0.5,2.5
			s-0.8,1.1-1.4,1.4s-1.3,0.5-2,0.5c-1.2,0-2.1-0.4-2.8-1.1S140,106.6,140,105.2z M141.5,105.2c0,1.1,0.2,1.9,0.7,2.4s1,0.8,1.8,0.8
			c0.7,0,1.3-0.3,1.7-0.8s0.7-1.3,0.7-2.4c0-1-0.2-1.8-0.7-2.3s-1-0.8-1.7-0.8c-0.7,0-1.3,0.3-1.8,0.8S141.5,104.1,141.5,105.2z"/>
		<path d="M148.6,106.9l1.4-0.2c0.1,0.6,0.3,1,0.7,1.3s0.9,0.4,1.5,0.4c0.6,0,1.1-0.1,1.4-0.4s0.5-0.6,0.5-0.9
			c0-0.3-0.1-0.6-0.4-0.8c-0.2-0.1-0.7-0.3-1.4-0.5c-1-0.3-1.7-0.5-2.1-0.7s-0.7-0.5-0.9-0.8s-0.3-0.7-0.3-1.1c0-0.4,0.1-0.7,0.3-1
			s0.4-0.6,0.7-0.8c0.2-0.2,0.5-0.3,0.9-0.4s0.8-0.2,1.2-0.2c0.7,0,1.2,0.1,1.7,0.3s0.9,0.4,1.1,0.8s0.4,0.7,0.5,1.3l-1.4,0.2
			c-0.1-0.4-0.2-0.8-0.5-1s-0.7-0.4-1.3-0.4c-0.6,0-1.1,0.1-1.4,0.3s-0.4,0.5-0.4,0.8c0,0.2,0.1,0.3,0.2,0.5
			c0.1,0.2,0.3,0.3,0.5,0.4c0.1,0.1,0.6,0.2,1.2,0.4c1,0.3,1.7,0.5,2.1,0.7s0.7,0.4,0.9,0.7s0.3,0.7,0.3,1.2c0,0.5-0.1,0.9-0.4,1.3
			s-0.7,0.7-1.2,1s-1.1,0.3-1.8,0.3c-1.1,0-1.9-0.2-2.5-0.7S148.7,107.7,148.6,106.9z"/>
		<path d="M11.8,128.5v-1c-0.5,0.8-1.3,1.2-2.3,1.2c-0.7,0-1.3-0.2-1.8-0.5c-0.6-0.4-1-0.9-1.3-1.5s-0.5-1.4-0.5-2.3
			c0-0.8,0.1-1.6,0.4-2.3s0.7-1.2,1.2-1.6s1.2-0.5,1.9-0.5c0.5,0,0.9,0.1,1.3,0.3s0.7,0.5,1,0.8v-4.1h1.4v11.5H11.8z M7.3,124.4
			c0,1.1,0.2,1.9,0.7,2.4s1,0.8,1.6,0.8c0.6,0,1.1-0.3,1.6-0.8s0.6-1.3,0.6-2.3c0-1.1-0.2-2-0.7-2.5s-1-0.8-1.6-0.8
			c-0.6,0-1.1,0.3-1.6,0.8S7.3,123.3,7.3,124.4z"/>
		<path d="M20.7,125.9l1.5,0.2c-0.2,0.8-0.7,1.5-1.3,2c-0.6,0.5-1.4,0.7-2.4,0.7c-1.2,0-2.2-0.4-2.9-1.1c-0.7-0.7-1.1-1.8-1.1-3.1
			c0-1.4,0.4-2.5,1.1-3.3s1.7-1.2,2.8-1.2c1.1,0,2,0.4,2.7,1.1s1.1,1.8,1.1,3.2c0,0.1,0,0.2,0,0.4H16c0.1,0.9,0.3,1.6,0.8,2.1
			s1,0.7,1.7,0.7c0.5,0,1-0.1,1.3-0.4S20.4,126.5,20.7,125.9z M16,123.6h4.6c-0.1-0.7-0.2-1.2-0.5-1.6c-0.4-0.5-1-0.8-1.7-0.8
			c-0.6,0-1.2,0.2-1.6,0.6S16.1,122.9,16,123.6z"/>
		<path d="M27.7,118.7v-1.6h1.4v1.6H27.7z M27.7,128.5v-8.3h1.4v8.3H27.7z"/>
		<path d="M30.9,128.5v-8.3h1.3v1.2c0.6-0.9,1.5-1.4,2.6-1.4c0.5,0,1,0.1,1.4,0.3s0.7,0.4,0.9,0.7s0.4,0.6,0.4,1
			c0.1,0.3,0.1,0.7,0.1,1.4v5.1h-1.4v-5c0-0.6-0.1-1-0.2-1.3s-0.3-0.5-0.6-0.7s-0.6-0.3-1-0.3c-0.6,0-1.1,0.2-1.6,0.6
			s-0.7,1.1-0.7,2.2v4.5H30.9z"/>
		<path d="M39.2,129.2l1.4,0.2c0.1,0.4,0.2,0.7,0.5,0.9c0.3,0.3,0.8,0.4,1.4,0.4c0.7,0,1.2-0.1,1.5-0.4s0.6-0.6,0.7-1.1
			c0.1-0.3,0.1-0.9,0.1-1.8c-0.6,0.7-1.4,1.1-2.3,1.1c-1.1,0-2-0.4-2.6-1.2c-0.6-0.8-0.9-1.8-0.9-3c0-0.8,0.1-1.5,0.4-2.2
			s0.7-1.2,1.2-1.6s1.2-0.5,1.9-0.5c1,0,1.8,0.4,2.4,1.2v-1h1.3v7.2c0,1.3-0.1,2.2-0.4,2.7s-0.7,1-1.3,1.3s-1.3,0.5-2.1,0.5
			c-1,0-1.8-0.2-2.4-0.7S39.2,130.1,39.2,129.2z M40.4,124.2c0,1.1,0.2,1.9,0.6,2.4s1,0.8,1.6,0.8c0.6,0,1.2-0.2,1.6-0.7
			s0.7-1.3,0.7-2.3c0-1-0.2-1.8-0.7-2.3s-1-0.8-1.6-0.8c-0.6,0-1.2,0.3-1.6,0.8S40.4,123.2,40.4,124.2z"/>
		<path d="M53.8,125.9l1.5,0.2c-0.2,0.8-0.7,1.5-1.3,2c-0.6,0.5-1.4,0.7-2.4,0.7c-1.2,0-2.2-0.4-2.9-1.1c-0.7-0.7-1.1-1.8-1.1-3.1
			c0-1.4,0.4-2.5,1.1-3.3s1.7-1.2,2.8-1.2c1.1,0,2,0.4,2.7,1.1s1.1,1.8,1.1,3.2c0,0.1,0,0.2,0,0.4h-6.2c0.1,0.9,0.3,1.6,0.8,2.1
			s1,0.7,1.7,0.7c0.5,0,1-0.1,1.3-0.4S53.5,126.5,53.8,125.9z M49.1,123.6h4.6c-0.1-0.7-0.2-1.2-0.5-1.6c-0.4-0.5-1-0.8-1.7-0.8
			c-0.6,0-1.2,0.2-1.6,0.6S49.2,122.9,49.1,123.6z"/>
		<path d="M56.7,128.5v-8.3h1.3v1.2c0.6-0.9,1.5-1.4,2.6-1.4c0.5,0,1,0.1,1.4,0.3s0.7,0.4,0.9,0.7s0.4,0.6,0.4,1
			c0.1,0.3,0.1,0.7,0.1,1.4v5.1H62v-5c0-0.6-0.1-1-0.2-1.3s-0.3-0.5-0.6-0.7s-0.6-0.3-1-0.3c-0.6,0-1.1,0.2-1.6,0.6
			s-0.7,1.1-0.7,2.2v4.5H56.7z"/>
		<path d="M65.2,118.7v-1.6h1.4v1.6H65.2z M65.2,128.5v-8.3h1.4v8.3H65.2z"/>
		<path d="M74.1,125.9l1.5,0.2c-0.2,0.8-0.7,1.5-1.3,2c-0.6,0.5-1.4,0.7-2.4,0.7c-1.2,0-2.2-0.4-2.9-1.1c-0.7-0.7-1.1-1.8-1.1-3.1
			c0-1.4,0.4-2.5,1.1-3.3s1.7-1.2,2.8-1.2c1.1,0,2,0.4,2.7,1.1s1.1,1.8,1.1,3.2c0,0.1,0,0.2,0,0.4h-6.2c0.1,0.9,0.3,1.6,0.8,2.1
			s1,0.7,1.7,0.7c0.5,0,1-0.1,1.3-0.4S73.9,126.5,74.1,125.9z M69.5,123.6h4.6c-0.1-0.7-0.2-1.2-0.5-1.6c-0.4-0.5-1-0.8-1.7-0.8
			c-0.6,0-1.2,0.2-1.6,0.6S69.6,122.9,69.5,123.6z"/>
		<path d="M77,128.5v-8.3h1.3v1.3c0.3-0.6,0.6-1,0.9-1.2s0.6-0.3,0.9-0.3c0.5,0,1,0.2,1.4,0.5l-0.5,1.3c-0.3-0.2-0.7-0.3-1-0.3
			c-0.3,0-0.6,0.1-0.8,0.3s-0.4,0.4-0.5,0.8c-0.2,0.5-0.2,1-0.2,1.6v4.3H77z"/>
		<path d="M82.5,119.2l1-2.2h1.8l-1.7,2.2H82.5z M82.5,128.5v-8.3H84v8.3H82.5z"/>
		<path d="M91.6,127.5c-0.5,0.4-1,0.8-1.5,0.9s-1,0.3-1.6,0.3c-0.9,0-1.6-0.2-2.1-0.7c-0.5-0.4-0.7-1-0.7-1.7c0-0.4,0.1-0.8,0.3-1.1
			s0.4-0.6,0.7-0.8s0.6-0.4,1-0.5c0.3-0.1,0.7-0.1,1.3-0.2c1.1-0.1,2-0.3,2.5-0.5c0-0.2,0-0.3,0-0.4c0-0.6-0.1-1-0.4-1.2
			c-0.4-0.3-0.9-0.5-1.6-0.5c-0.7,0-1.1,0.1-1.5,0.3s-0.5,0.6-0.7,1.2l-1.4-0.2c0.1-0.6,0.3-1.1,0.6-1.4s0.7-0.6,1.2-0.8
			s1.2-0.3,1.9-0.3c0.7,0,1.3,0.1,1.7,0.3s0.8,0.4,1,0.6s0.4,0.6,0.4,1c0,0.2,0.1,0.7,0.1,1.3v1.9c0,1.3,0,2.1,0.1,2.5
			s0.2,0.7,0.4,1h-1.5C91.7,128.2,91.6,127.9,91.6,127.5z M91.5,124.4c-0.5,0.2-1.3,0.4-2.3,0.5c-0.6,0.1-1,0.2-1.2,0.3
			s-0.4,0.3-0.6,0.5s-0.2,0.4-0.2,0.7c0,0.4,0.1,0.7,0.4,0.9s0.7,0.4,1.2,0.4c0.5,0,1-0.1,1.4-0.4s0.7-0.6,0.9-1
			c0.2-0.3,0.2-0.8,0.2-1.4V124.4z"/>
		<path d="M104.3,128.5v-1c-0.5,0.8-1.3,1.2-2.3,1.2c-0.7,0-1.3-0.2-1.8-0.5c-0.6-0.4-1-0.9-1.3-1.5s-0.5-1.4-0.5-2.3
			c0-0.8,0.1-1.6,0.4-2.3s0.7-1.2,1.2-1.6s1.2-0.5,1.9-0.5c0.5,0,0.9,0.1,1.3,0.3s0.7,0.5,1,0.8v-4.1h1.4v11.5H104.3z M99.8,124.4
			c0,1.1,0.2,1.9,0.7,2.4s1,0.8,1.6,0.8c0.6,0,1.1-0.3,1.6-0.8s0.6-1.3,0.6-2.3c0-1.1-0.2-2-0.7-2.5s-1-0.8-1.6-0.8
			c-0.6,0-1.1,0.3-1.6,0.8S99.8,123.3,99.8,124.4z"/>
		<path d="M113.1,125.9l1.5,0.2c-0.2,0.8-0.7,1.5-1.3,2c-0.6,0.5-1.4,0.7-2.4,0.7c-1.2,0-2.2-0.4-2.9-1.1c-0.7-0.7-1.1-1.8-1.1-3.1
			c0-1.4,0.4-2.5,1.1-3.3s1.7-1.2,2.8-1.2c1.1,0,2,0.4,2.7,1.1s1.1,1.8,1.1,3.2c0,0.1,0,0.2,0,0.4h-6.2c0.1,0.9,0.3,1.6,0.8,2.1
			s1,0.7,1.7,0.7c0.5,0,1-0.1,1.3-0.4S112.9,126.5,113.1,125.9z M108.5,123.6h4.6c-0.1-0.7-0.2-1.2-0.5-1.6c-0.4-0.5-1-0.8-1.7-0.8
			c-0.6,0-1.2,0.2-1.6,0.6S108.6,122.9,108.5,123.6z"/>
		<path d="M116.4,128.5v-7.2h-1.2v-1.1h1.2v-0.9c0-0.6,0-1,0.1-1.2c0.1-0.4,0.4-0.7,0.7-0.9s0.8-0.3,1.4-0.3c0.4,0,0.8,0,1.3,0.1
			l-0.2,1.2c-0.3-0.1-0.6-0.1-0.8-0.1c-0.4,0-0.7,0.1-0.9,0.3s-0.3,0.5-0.3,1v0.8h1.6v1.1h-1.6v7.2H116.4z"/>
		<path d="M120.2,118.7v-1.6h1.4v1.6H120.2z M120.2,128.5v-8.3h1.4v8.3H120.2z"/>
		<path d="M123.4,128.5v-8.3h1.3v1.2c0.6-0.9,1.5-1.4,2.6-1.4c0.5,0,1,0.1,1.4,0.3s0.7,0.4,0.9,0.7s0.4,0.6,0.4,1
			c0.1,0.3,0.1,0.7,0.1,1.4v5.1h-1.4v-5c0-0.6-0.1-1-0.2-1.3s-0.3-0.5-0.6-0.7c-0.3-0.2-0.6-0.3-1-0.3c-0.6,0-1.1,0.2-1.6,0.6
			s-0.7,1.1-0.7,2.2v4.5H123.4z"/>
		<path d="M132,118.7v-1.6h1.4v1.6H132z M132,128.5v-8.3h1.4v8.3H132z"/>
		<path d="M140.6,128.5v-1c-0.5,0.8-1.3,1.2-2.3,1.2c-0.7,0-1.3-0.2-1.8-0.5c-0.6-0.4-1-0.9-1.3-1.5s-0.5-1.4-0.5-2.3
			c0-0.8,0.1-1.6,0.4-2.3s0.7-1.2,1.2-1.6s1.2-0.5,1.9-0.5c0.5,0,0.9,0.1,1.3,0.3s0.7,0.5,1,0.8v-4.1h1.4v11.5H140.6z M136.2,124.4
			c0,1.1,0.2,1.9,0.7,2.4s1,0.8,1.6,0.8c0.6,0,1.1-0.3,1.6-0.8s0.6-1.3,0.6-2.3c0-1.1-0.2-2-0.7-2.5s-1-0.8-1.6-0.8
			c-0.6,0-1.1,0.3-1.6,0.8S136.2,123.3,136.2,124.4z"/>
		<path d="M143.3,124.4c0-1.5,0.4-2.7,1.3-3.4c0.7-0.6,1.6-0.9,2.6-0.9c1.1,0,2.1,0.4,2.8,1.1s1.1,1.8,1.1,3.1
			c0,1.1-0.2,1.9-0.5,2.5s-0.8,1.1-1.4,1.4c-0.6,0.3-1.3,0.5-2,0.5c-1.2,0-2.1-0.4-2.8-1.1C143.6,126.9,143.3,125.8,143.3,124.4z
			 M144.7,124.4c0,1.1,0.2,1.9,0.7,2.4s1,0.8,1.8,0.8c0.7,0,1.3-0.3,1.7-0.8s0.7-1.3,0.7-2.4c0-1-0.2-1.8-0.7-2.3s-1-0.8-1.7-0.8
			c-0.7,0-1.3,0.3-1.8,0.8S144.7,123.3,144.7,124.4z"/>
		<path d="M151.8,126.1l1.4-0.2c0.1,0.6,0.3,1,0.7,1.3s0.9,0.4,1.5,0.4c0.6,0,1.1-0.1,1.4-0.4s0.5-0.6,0.5-0.9
			c0-0.3-0.1-0.6-0.4-0.8c-0.2-0.1-0.7-0.3-1.4-0.5c-1-0.3-1.7-0.5-2.1-0.7s-0.7-0.5-0.9-0.8s-0.3-0.7-0.3-1.1c0-0.4,0.1-0.7,0.3-1
			s0.4-0.6,0.7-0.8c0.2-0.2,0.5-0.3,0.9-0.4s0.8-0.2,1.2-0.2c0.7,0,1.2,0.1,1.7,0.3s0.9,0.4,1.1,0.8s0.4,0.7,0.5,1.3l-1.4,0.2
			c-0.1-0.4-0.2-0.8-0.5-1s-0.7-0.4-1.3-0.4c-0.6,0-1.1,0.1-1.4,0.3s-0.4,0.5-0.4,0.8c0,0.2,0.1,0.3,0.2,0.5
			c0.1,0.2,0.3,0.3,0.5,0.4c0.1,0.1,0.6,0.2,1.2,0.4c1,0.3,1.7,0.5,2.1,0.7s0.7,0.4,0.9,0.7s0.3,0.7,0.3,1.2c0,0.5-0.1,0.9-0.4,1.3
			s-0.7,0.7-1.2,1s-1.1,0.3-1.8,0.3c-1.1,0-1.9-0.2-2.5-0.7C152.3,127.6,152,126.9,151.8,126.1z"/>
		<path d="M160.5,128.5v-1.6h1.6v1.6H160.5z"/>
	</g>
</g>
</svg>
