<?xml version="1.0" encoding="utf-8"?>
<!-- Generator: Adobe Illustrator 21.0.0, SVG Export Plug-In . SVG Version: 6.00 Build 0)  -->
<svg version="1.1" id="Capa_1" xmlns="http://www.w3.org/2000/svg" xmlns:xlink="http://www.w3.org/1999/xlink" x="0px" y="0px"
	 viewBox="0 0 161.7 141.4" style="enable-background:new 0 0 161.7 141.4;" xml:space="preserve">
<style type="text/css">
	.st0{opacity:0.35;fill:#D1D3D2;}
	.st1{fill:#FFFFFF;}
	.st2{fill:#D4145A;}
	.st3{fill:#9E005D;}
</style>
<polygon class="st0" points="33.3,9.7 11.2,9.7 11.2,66.5 11.2,141.4 161.7,141.4 161.7,66.5 161.7,9.7 "/>
<rect class="st1" width="150.6" height="131.7"/>
<rect class="st2" width="150.6" height="56.8"/>
<g>
	<path class="st3" d="M132.7,50.9H34.9c-16.3,0-29.5-13.2-29.5-29.5v-2.9c0-6.9,5.6-12.5,12.5-12.5h97.8c16.3,0,29.5,13.2,29.5,29.5
		v2.9C145.2,45.3,139.6,50.9,132.7,50.9z"/>
</g>
<g>
	<g>
		<path class="st1" d="M49.3,26.6V15.1h2.3l4.7,7.6v-7.6h2.1v11.5H56l-4.6-7.5v7.5H49.3z"/>
		<path class="st1" d="M60.8,17.2v-2H63v2H60.8z M60.8,26.6v-8.3H63v8.3H60.8z"/>
		<path class="st1" d="M67.5,26.6l-3.3-8.3h2.3l1.6,4.2l0.5,1.4c0.1-0.4,0.2-0.6,0.2-0.7c0.1-0.2,0.2-0.5,0.2-0.7l1.6-4.2h2.3
			l-3.3,8.3H67.5z"/>
		<path class="st1" d="M78.9,23.9l2.2,0.4c-0.3,0.8-0.7,1.4-1.3,1.8s-1.4,0.6-2.3,0.6c-1.4,0-2.5-0.5-3.2-1.4
			c-0.5-0.8-0.8-1.7-0.8-2.9c0-1.4,0.4-2.5,1.1-3.2s1.6-1.2,2.7-1.2c1.2,0,2.2,0.4,2.9,1.2s1.1,2.1,1,3.7h-5.5
			c0,0.7,0.2,1.2,0.5,1.5s0.8,0.5,1.3,0.5c0.3,0,0.6-0.1,0.9-0.3S78.8,24.4,78.9,23.9z M79.1,21.7c0-0.6-0.2-1.1-0.5-1.4
			s-0.7-0.5-1.1-0.5c-0.5,0-0.9,0.2-1.2,0.5s-0.5,0.8-0.5,1.4H79.1z"/>
		<path class="st1" d="M83,26.6V15.1h2.2v11.5H83z"/>
		<path class="st1" d="M95.8,26.6v-2.3h-4.7v-1.9l5-7.3h1.8v7.3h1.4v1.9h-1.4v2.3H95.8z M95.8,22.3v-3.9l-2.6,3.9H95.8z"/>
		<path class="st1" d="M36,41.8h-2.5l-1-2.6H28L27,41.8h-2.5L29,30.3h2.4L36,41.8z M31.8,37.3L30.2,33l-1.5,4.3H31.8z"/>
		<path class="st1" d="M44.9,41.8h-2v-1.2c-0.3,0.5-0.7,0.8-1.2,1.1S40.7,42,40.2,42c-1,0-1.8-0.4-2.4-1.2s-1-1.8-1-3.2
			c0-1.4,0.3-2.5,1-3.2s1.5-1.1,2.5-1.1c0.9,0,1.7,0.4,2.4,1.2v-4.1h2.2V41.8z M39,37.5c0,0.9,0.1,1.5,0.4,1.9
			c0.4,0.6,0.8,0.9,1.5,0.9c0.5,0,0.9-0.2,1.3-0.6s0.5-1.1,0.5-1.9c0-1-0.2-1.6-0.5-2.1S41.4,35,40.8,35c-0.5,0-1,0.2-1.3,0.6
			S39,36.6,39,37.5z"/>
		<path class="st1" d="M46.9,33.5h2v1.1c0.7-0.9,1.6-1.3,2.6-1.3c0.5,0,1,0.1,1.4,0.3s0.7,0.5,1,1c0.4-0.4,0.8-0.8,1.2-1
			s0.9-0.3,1.4-0.3c0.6,0,1.1,0.1,1.5,0.4s0.7,0.6,0.9,1.1c0.2,0.4,0.2,0.9,0.2,1.7v5.3h-2.2V37c0-0.8-0.1-1.4-0.2-1.6
			c-0.2-0.3-0.5-0.5-0.9-0.5c-0.3,0-0.6,0.1-0.9,0.3s-0.5,0.5-0.6,0.8s-0.2,0.9-0.2,1.7v4h-2.2v-4.5c0-0.8,0-1.3-0.1-1.6
			s-0.2-0.4-0.4-0.5S51,35,50.7,35c-0.3,0-0.6,0.1-0.9,0.3s-0.5,0.4-0.6,0.8s-0.2,0.9-0.2,1.7v4h-2.2V33.5z"/>
		<path class="st1" d="M61.3,32.4v-2h2.2v2H61.3z M61.3,41.8v-8.3h2.2v8.3H61.3z"/>
		<path class="st1" d="M73.2,41.8h-2.2v-4.2c0-0.9,0-1.5-0.1-1.7s-0.2-0.5-0.5-0.6S70,35,69.7,35c-0.4,0-0.7,0.1-1,0.3
			s-0.5,0.5-0.6,0.8s-0.2,1-0.2,1.9v3.8h-2.2v-8.3h2v1.2c0.7-0.9,1.6-1.4,2.7-1.4c0.5,0,0.9,0.1,1.3,0.3s0.7,0.4,0.9,0.7
			s0.3,0.6,0.4,0.9s0.1,0.8,0.1,1.5V41.8z"/>
		<path class="st1" d="M75.5,32.4v-2h2.2v2H75.5z M75.5,41.8v-8.3h2.2v8.3H75.5z"/>
		<path class="st1" d="M79.1,39.4l2.2-0.3c0.1,0.4,0.3,0.8,0.6,1s0.7,0.3,1.2,0.3c0.6,0,1-0.1,1.3-0.3c0.2-0.1,0.3-0.3,0.3-0.6
			c0-0.2-0.1-0.3-0.2-0.4c-0.1-0.1-0.4-0.2-0.7-0.3c-1.8-0.4-2.9-0.7-3.4-1.1c-0.7-0.4-1-1.1-1-1.9c0-0.7,0.3-1.3,0.9-1.8
			s1.4-0.7,2.6-0.7c1.1,0,2,0.2,2.5,0.6s0.9,0.9,1.1,1.6l-2.1,0.4c-0.1-0.3-0.3-0.6-0.5-0.7s-0.6-0.3-1.1-0.3c-0.6,0-1,0.1-1.2,0.2
			c-0.2,0.1-0.3,0.3-0.3,0.4c0,0.2,0.1,0.3,0.2,0.4c0.2,0.1,0.9,0.4,2.1,0.6s2,0.6,2.4,1c0.5,0.4,0.7,0.9,0.7,1.6c0,0.8-0.3,1.4-1,2
			S84.4,42,83.1,42c-1.1,0-2-0.2-2.7-0.7S79.3,40.2,79.1,39.4z"/>
		<path class="st1" d="M92.6,33.5v1.8h-1.5v3.3c0,0.7,0,1.1,0,1.2s0.1,0.2,0.2,0.3s0.2,0.1,0.4,0.1c0.2,0,0.5-0.1,0.9-0.2l0.2,1.7
			c-0.5,0.2-1.1,0.3-1.7,0.3c-0.4,0-0.8-0.1-1.1-0.2s-0.6-0.3-0.7-0.5S89,40.8,89,40.4c0-0.3-0.1-0.8-0.1-1.5v-3.6h-1v-1.8h1v-1.6
			l2.2-1.3v2.9H92.6z"/>
		<path class="st1" d="M96.2,41.8h-2.2v-8.3h2v1.2c0.3-0.6,0.7-0.9,0.9-1.1s0.6-0.3,0.9-0.3c0.5,0,1,0.1,1.4,0.4l-0.7,1.9
			c-0.4-0.2-0.7-0.4-1-0.4c-0.3,0-0.6,0.1-0.8,0.3s-0.4,0.5-0.5,0.9s-0.2,1.4-0.2,2.8V41.8z"/>
		<path class="st1" d="M102,36l-2-0.4c0.2-0.8,0.6-1.4,1.2-1.8s1.4-0.6,2.4-0.6c1,0,1.7,0.1,2.2,0.3s0.8,0.5,1,0.9s0.3,1,0.3,2
			l0,2.6c0,0.7,0,1.3,0.1,1.6s0.2,0.7,0.4,1.1h-2.2c-0.1-0.1-0.1-0.4-0.2-0.6c0-0.1-0.1-0.2-0.1-0.3c-0.4,0.4-0.8,0.6-1.2,0.8
			S103,42,102.6,42c-0.9,0-1.5-0.2-2-0.7s-0.7-1-0.7-1.8c0-0.5,0.1-0.9,0.3-1.3s0.5-0.6,0.9-0.8s1-0.4,1.7-0.5
			c1-0.2,1.7-0.4,2.1-0.5v-0.2c0-0.4-0.1-0.7-0.3-0.9S104,35,103.5,35c-0.4,0-0.7,0.1-0.9,0.2S102.1,35.6,102,36z M105,37.8
			c-0.3,0.1-0.7,0.2-1.3,0.3s-1,0.3-1.2,0.4c-0.3,0.2-0.4,0.5-0.4,0.8c0,0.3,0.1,0.6,0.3,0.8s0.5,0.3,0.9,0.3c0.4,0,0.8-0.1,1.1-0.4
			c0.3-0.2,0.4-0.4,0.5-0.7c0.1-0.2,0.1-0.5,0.1-1.1V37.8z"/>
		<path class="st1" d="M116.9,41.8h-2v-1.2c-0.3,0.5-0.7,0.8-1.2,1.1s-0.9,0.3-1.4,0.3c-1,0-1.8-0.4-2.4-1.2s-1-1.8-1-3.2
			c0-1.4,0.3-2.5,1-3.2s1.5-1.1,2.5-1.1c0.9,0,1.7,0.4,2.4,1.2v-4.1h2.2V41.8z M111,37.5c0,0.9,0.1,1.5,0.4,1.9
			c0.4,0.6,0.8,0.9,1.5,0.9c0.5,0,0.9-0.2,1.3-0.6s0.5-1.1,0.5-1.9c0-1-0.2-1.6-0.5-2.1s-0.8-0.6-1.3-0.6c-0.5,0-1,0.2-1.3,0.6
			S111,36.6,111,37.5z"/>
		<path class="st1" d="M118.5,37.5c0-0.7,0.2-1.4,0.5-2.1s0.9-1.2,1.5-1.6s1.4-0.5,2.2-0.5c1.3,0,2.3,0.4,3.1,1.2s1.2,1.8,1.2,3.1
			c0,1.3-0.4,2.3-1.2,3.1s-1.8,1.2-3.1,1.2c-0.8,0-1.5-0.2-2.2-0.5s-1.2-0.8-1.6-1.5S118.5,38.5,118.5,37.5z M120.8,37.6
			c0,0.8,0.2,1.5,0.6,1.9s0.9,0.7,1.4,0.7s1.1-0.2,1.4-0.7s0.6-1.1,0.6-1.9c0-0.8-0.2-1.4-0.6-1.9s-0.9-0.7-1.4-0.7
			s-1.1,0.2-1.4,0.7S120.8,36.8,120.8,37.6z"/>
	</g>
</g>
<g>
	<path d="M36.8,78.4V67h4.3c0.8,0,1.3,0,1.7,0.1c0.6,0.1,1,0.3,1.4,0.5s0.7,0.6,0.9,1.1s0.3,1,0.3,1.6c0,1-0.3,1.8-0.9,2.5
		s-1.7,1-3.4,1h-2.9v4.7H36.8z M38.3,72.4h3c1,0,1.7-0.2,2.1-0.5S44,71,44,70.3c0-0.5-0.1-0.9-0.4-1.2s-0.6-0.6-1-0.7
		c-0.3-0.1-0.7-0.1-1.4-0.1h-2.9V72.4z"/>
	<path d="M47.3,78.4v-8.3h1.3v1.3c0.3-0.6,0.6-1,0.9-1.2s0.6-0.3,0.9-0.3c0.5,0,1,0.2,1.4,0.5l-0.5,1.3c-0.3-0.2-0.7-0.3-1-0.3
		c-0.3,0-0.6,0.1-0.8,0.3s-0.4,0.4-0.5,0.8c-0.2,0.5-0.2,1-0.2,1.6v4.3H47.3z"/>
	<path d="M52.1,74.3c0-1.5,0.4-2.7,1.3-3.4c0.7-0.6,1.6-0.9,2.6-0.9c1.1,0,2.1,0.4,2.8,1.1s1.1,1.8,1.1,3.1c0,1.1-0.2,1.9-0.5,2.5
		s-0.8,1.1-1.4,1.4s-1.3,0.5-2,0.5c-1.2,0-2.1-0.4-2.8-1.1S52.1,75.7,52.1,74.3z M53.5,74.3c0,1.1,0.2,1.9,0.7,2.4s1,0.8,1.8,0.8
		c0.7,0,1.3-0.3,1.7-0.8s0.7-1.3,0.7-2.4c0-1-0.2-1.8-0.7-2.3s-1-0.8-1.7-0.8c-0.7,0-1.3,0.3-1.8,0.8S53.5,73.2,53.5,74.3z"/>
	<path d="M61.5,81.6l-0.2-1.3c0.3,0.1,0.6,0.1,0.8,0.1c0.3,0,0.6-0.1,0.8-0.2s0.3-0.3,0.5-0.4c0.1-0.1,0.2-0.5,0.4-1
		c0-0.1,0.1-0.2,0.1-0.3l-3.1-8.3h1.5l1.7,4.8c0.2,0.6,0.4,1.3,0.6,1.9c0.2-0.6,0.4-1.3,0.6-1.9l1.8-4.8h1.4l-3.2,8.4
		c-0.3,0.9-0.6,1.5-0.8,1.9c-0.3,0.5-0.5,0.8-0.9,1s-0.7,0.3-1.2,0.3C62.1,81.8,61.8,81.7,61.5,81.6z"/>
	<path d="M75.2,75.7l1.5,0.2c-0.2,0.8-0.7,1.5-1.3,2S74,78.6,73,78.6c-1.2,0-2.2-0.4-2.9-1.1s-1.1-1.8-1.1-3.1
		c0-1.4,0.4-2.5,1.1-3.3s1.7-1.2,2.8-1.2c1.1,0,2,0.4,2.7,1.1s1.1,1.8,1.1,3.2c0,0.1,0,0.2,0,0.4h-6.2c0.1,0.9,0.3,1.6,0.8,2.1
		s1,0.7,1.7,0.7c0.5,0,1-0.1,1.3-0.4S75,76.3,75.2,75.7z M70.6,73.5h4.6c-0.1-0.7-0.2-1.2-0.5-1.6c-0.4-0.5-1-0.8-1.7-0.8
		c-0.6,0-1.2,0.2-1.6,0.6S70.6,72.7,70.6,73.5z"/>
	<path d="M83.8,75.4l1.4,0.2c-0.2,1-0.5,1.7-1.2,2.2s-1.4,0.8-2.3,0.8c-1.1,0-2-0.4-2.7-1.1s-1-1.8-1-3.2c0-0.9,0.1-1.7,0.4-2.4
		s0.7-1.2,1.4-1.5s1.3-0.5,2-0.5c0.9,0,1.6,0.2,2.2,0.7s0.9,1.1,1.1,1.9l-1.4,0.2c-0.1-0.6-0.4-1-0.7-1.3s-0.7-0.4-1.2-0.4
		c-0.7,0-1.3,0.3-1.7,0.8s-0.7,1.3-0.7,2.4c0,1.1,0.2,1.9,0.6,2.4s1,0.8,1.7,0.8c0.6,0,1-0.2,1.4-0.5S83.7,76.1,83.8,75.4z"/>
	<path d="M89.5,77.2l0.2,1.2c-0.4,0.1-0.8,0.1-1.1,0.1c-0.5,0-0.9-0.1-1.2-0.2s-0.5-0.4-0.6-0.6s-0.2-0.8-0.2-1.7v-4.8h-1v-1.1h1
		v-2.1l1.4-0.8v2.9h1.4v1.1h-1.4v4.9c0,0.4,0,0.7,0.1,0.8s0.1,0.2,0.2,0.3s0.3,0.1,0.5,0.1C89,77.2,89.2,77.2,89.5,77.2z"/>
	<path d="M90.3,74.3c0-1.5,0.4-2.7,1.3-3.4c0.7-0.6,1.6-0.9,2.6-0.9c1.1,0,2.1,0.4,2.8,1.1s1.1,1.8,1.1,3.1c0,1.1-0.2,1.9-0.5,2.5
		s-0.8,1.1-1.4,1.4s-1.3,0.5-2,0.5c-1.2,0-2.1-0.4-2.8-1.1S90.3,75.7,90.3,74.3z M91.8,74.3c0,1.1,0.2,1.9,0.7,2.4s1,0.8,1.8,0.8
		c0.7,0,1.3-0.3,1.7-0.8s0.7-1.3,0.7-2.4c0-1-0.2-1.8-0.7-2.3s-1-0.8-1.7-0.8c-0.7,0-1.3,0.3-1.8,0.8S91.8,73.2,91.8,74.3z"/>
	<path d="M99.2,75.9l1.4-0.2c0.1,0.6,0.3,1,0.7,1.3s0.9,0.4,1.5,0.4c0.6,0,1.1-0.1,1.4-0.4s0.5-0.6,0.5-0.9c0-0.3-0.1-0.6-0.4-0.8
		c-0.2-0.1-0.7-0.3-1.4-0.5c-1-0.3-1.7-0.5-2.1-0.7s-0.7-0.5-0.9-0.8s-0.3-0.7-0.3-1.1c0-0.4,0.1-0.7,0.3-1s0.4-0.6,0.7-0.8
		c0.2-0.2,0.5-0.3,0.9-0.4s0.8-0.2,1.2-0.2c0.7,0,1.2,0.1,1.7,0.3s0.9,0.4,1.1,0.8s0.4,0.7,0.5,1.3l-1.4,0.2c-0.1-0.4-0.2-0.8-0.5-1
		s-0.7-0.4-1.3-0.4c-0.6,0-1.1,0.1-1.4,0.3s-0.4,0.5-0.4,0.8c0,0.2,0.1,0.3,0.2,0.5c0.1,0.2,0.3,0.3,0.5,0.4
		c0.1,0.1,0.6,0.2,1.2,0.4c1,0.3,1.7,0.5,2.1,0.7s0.7,0.4,0.9,0.7s0.3,0.7,0.3,1.2c0,0.5-0.1,0.9-0.4,1.3s-0.7,0.7-1.2,1
		s-1.1,0.3-1.8,0.3c-1.1,0-1.9-0.2-2.5-0.7S99.4,76.8,99.2,75.9z"/>
	<path d="M112.1,81.6l-0.2-1.3c0.3,0.1,0.6,0.1,0.8,0.1c0.3,0,0.6-0.1,0.8-0.2s0.3-0.3,0.5-0.4c0.1-0.1,0.2-0.5,0.4-1
		c0-0.1,0.1-0.2,0.1-0.3l-3.1-8.3h1.5l1.7,4.8c0.2,0.6,0.4,1.3,0.6,1.9c0.2-0.6,0.4-1.3,0.6-1.9l1.8-4.8h1.4l-3.2,8.4
		c-0.3,0.9-0.6,1.5-0.8,1.9c-0.3,0.5-0.5,0.8-0.9,1s-0.7,0.3-1.2,0.3C112.8,81.8,112.5,81.7,112.1,81.6z"/>
	<path d="M32.5,93.5c0-1.5,0.4-2.7,1.3-3.4c0.7-0.6,1.6-0.9,2.6-0.9c1.1,0,2.1,0.4,2.8,1.1s1.1,1.8,1.1,3.1c0,1.1-0.2,1.9-0.5,2.5
		S39,97,38.4,97.3s-1.3,0.5-2,0.5c-1.2,0-2.1-0.4-2.8-1.1S32.5,94.9,32.5,93.5z M34,93.5c0,1.1,0.2,1.9,0.7,2.4s1,0.8,1.8,0.8
		c0.7,0,1.3-0.3,1.7-0.8s0.7-1.3,0.7-2.4c0-1-0.2-1.8-0.7-2.3s-1-0.8-1.7-0.8c-0.7,0-1.3,0.3-1.8,0.8S34,92.4,34,93.5z"/>
	<path d="M41.9,97.6v-8.3h1.3v1.3c0.3-0.6,0.6-1,0.9-1.2s0.6-0.3,0.9-0.3c0.5,0,1,0.2,1.4,0.5L46,90.9c-0.3-0.2-0.7-0.3-1-0.3
		c-0.3,0-0.6,0.1-0.8,0.3s-0.4,0.4-0.5,0.8c-0.2,0.5-0.2,1-0.2,1.6v4.3H41.9z"/>
	<path d="M47,98.3l1.4,0.2c0.1,0.4,0.2,0.7,0.5,0.9c0.3,0.3,0.8,0.4,1.4,0.4c0.7,0,1.2-0.1,1.5-0.4s0.6-0.6,0.7-1.1
		c0.1-0.3,0.1-0.9,0.1-1.8c-0.6,0.7-1.4,1.1-2.3,1.1c-1.1,0-2-0.4-2.6-1.2s-0.9-1.8-0.9-3c0-0.8,0.1-1.5,0.4-2.2s0.7-1.2,1.2-1.6
		s1.2-0.5,1.9-0.5c1,0,1.8,0.4,2.4,1.2v-1h1.3v7.2c0,1.3-0.1,2.2-0.4,2.7s-0.7,1-1.3,1.3s-1.3,0.5-2.1,0.5c-1,0-1.8-0.2-2.4-0.7
		S47,99.2,47,98.3z M48.2,93.3c0,1.1,0.2,1.9,0.6,2.4s1,0.8,1.6,0.8c0.6,0,1.2-0.2,1.6-0.7s0.7-1.3,0.7-2.3c0-1-0.2-1.8-0.7-2.3
		s-1-0.8-1.6-0.8c-0.6,0-1.2,0.3-1.6,0.8S48.2,92.3,48.2,93.3z"/>
	<path d="M61.6,96.6c-0.5,0.4-1,0.8-1.5,0.9s-1,0.3-1.6,0.3c-0.9,0-1.6-0.2-2.1-0.7s-0.7-1-0.7-1.7c0-0.4,0.1-0.8,0.3-1.1
		s0.4-0.6,0.7-0.8s0.6-0.4,1-0.5c0.3-0.1,0.7-0.1,1.3-0.2c1.1-0.1,2-0.3,2.5-0.5c0-0.2,0-0.3,0-0.4c0-0.6-0.1-1-0.4-1.2
		c-0.4-0.3-0.9-0.5-1.6-0.5c-0.7,0-1.1,0.1-1.5,0.3s-0.5,0.6-0.7,1.2l-1.4-0.2c0.1-0.6,0.3-1.1,0.6-1.4s0.7-0.6,1.2-0.8
		s1.2-0.3,1.9-0.3c0.7,0,1.3,0.1,1.7,0.3s0.8,0.4,1,0.6s0.4,0.6,0.4,1c0,0.2,0.1,0.7,0.1,1.3v1.9c0,1.3,0,2.1,0.1,2.5s0.2,0.7,0.4,1
		h-1.5C61.7,97.3,61.6,97,61.6,96.6z M61.5,93.5c-0.5,0.2-1.3,0.4-2.3,0.5c-0.6,0.1-1,0.2-1.2,0.3s-0.4,0.3-0.6,0.5
		s-0.2,0.4-0.2,0.7c0,0.4,0.1,0.7,0.4,0.9s0.7,0.4,1.2,0.4c0.5,0,1-0.1,1.4-0.4s0.7-0.6,0.9-1c0.2-0.3,0.2-0.8,0.2-1.4V93.5z"/>
	<path d="M65.1,97.6v-8.3h1.3v1.2c0.6-0.9,1.5-1.4,2.6-1.4c0.5,0,1,0.1,1.4,0.3s0.7,0.4,0.9,0.7s0.4,0.6,0.4,1
		c0.1,0.3,0.1,0.7,0.1,1.4v5.1h-1.4v-5c0-0.6-0.1-1-0.2-1.3s-0.3-0.5-0.6-0.7s-0.6-0.3-1-0.3c-0.6,0-1.1,0.2-1.6,0.6
		s-0.7,1.1-0.7,2.2v4.5H65.1z"/>
	<path d="M74,87.8v-1.6h1.4v1.6H74z M74,97.6v-8.3h1.4v8.3H74z"/>
	<path d="M76.8,97.6v-1.1l5.3-6.1c-0.6,0-1.1,0-1.6,0h-3.4v-1.1h6.8v0.9l-4.5,5.3l-0.9,1c0.6,0,1.2-0.1,1.8-0.1h3.8v1.2H76.8z"/>
	<path d="M90.9,96.6c-0.5,0.4-1,0.8-1.5,0.9s-1,0.3-1.6,0.3c-0.9,0-1.6-0.2-2.1-0.7s-0.7-1-0.7-1.7c0-0.4,0.1-0.8,0.3-1.1
		s0.4-0.6,0.7-0.8s0.6-0.4,1-0.5c0.3-0.1,0.7-0.1,1.3-0.2c1.1-0.1,2-0.3,2.5-0.5c0-0.2,0-0.3,0-0.4c0-0.6-0.1-1-0.4-1.2
		c-0.4-0.3-0.9-0.5-1.6-0.5c-0.7,0-1.1,0.1-1.5,0.3s-0.5,0.6-0.7,1.2l-1.4-0.2c0.1-0.6,0.3-1.1,0.6-1.4s0.7-0.6,1.2-0.8
		s1.2-0.3,1.9-0.3c0.7,0,1.3,0.1,1.7,0.3s0.8,0.4,1,0.6s0.4,0.6,0.4,1c0,0.2,0.1,0.7,0.1,1.3v1.9c0,1.3,0,2.1,0.1,2.5s0.2,0.7,0.4,1
		h-1.5C91.1,97.3,91,97,90.9,96.6z M90.8,93.5c-0.5,0.2-1.3,0.4-2.3,0.5c-0.6,0.1-1,0.2-1.2,0.3s-0.4,0.3-0.6,0.5s-0.2,0.4-0.2,0.7
		c0,0.4,0.1,0.7,0.4,0.9s0.7,0.4,1.2,0.4c0.5,0,1-0.1,1.4-0.4s0.7-0.6,0.9-1c0.2-0.3,0.2-0.8,0.2-1.4V93.5z"/>
	<path d="M99.8,94.6l1.4,0.2c-0.2,1-0.5,1.7-1.2,2.2s-1.4,0.8-2.3,0.8c-1.1,0-2-0.4-2.7-1.1s-1-1.8-1-3.2c0-0.9,0.1-1.7,0.4-2.4
		s0.7-1.2,1.4-1.5s1.3-0.5,2-0.5c0.9,0,1.6,0.2,2.2,0.7s0.9,1.1,1.1,1.9L99.7,92c-0.1-0.6-0.4-1-0.7-1.3s-0.7-0.4-1.2-0.4
		c-0.7,0-1.3,0.3-1.7,0.8s-0.7,1.3-0.7,2.4c0,1.1,0.2,1.9,0.6,2.4s1,0.8,1.7,0.8c0.6,0,1-0.2,1.4-0.5S99.7,95.3,99.8,94.6z"/>
	<path d="M102.4,87.8v-1.6h1.4v1.6H102.4z M102.4,97.6v-8.3h1.4v8.3H102.4z"/>
	<path d="M105.5,93.5c0-1.5,0.4-2.7,1.3-3.4c0.7-0.6,1.6-0.9,2.6-0.9c1.1,0,2.1,0.4,2.8,1.1s1.1,1.8,1.1,3.1c0,1.1-0.2,1.9-0.5,2.5
		s-0.8,1.1-1.4,1.4s-1.3,0.5-2,0.5c-1.2,0-2.1-0.4-2.8-1.1S105.5,94.9,105.5,93.5z M106.9,93.5c0,1.1,0.2,1.9,0.7,2.4s1,0.8,1.8,0.8
		c0.7,0,1.3-0.3,1.7-0.8s0.7-1.3,0.7-2.4c0-1-0.2-1.8-0.7-2.3s-1-0.8-1.7-0.8c-0.7,0-1.3,0.3-1.8,0.8S106.9,92.4,106.9,93.5z
		 M108.6,88.3l1-2.2h1.8l-1.7,2.2H108.6z"/>
	<path d="M114.9,97.6v-8.3h1.3v1.2c0.6-0.9,1.5-1.4,2.6-1.4c0.5,0,1,0.1,1.4,0.3s0.7,0.4,0.9,0.7s0.4,0.6,0.4,1
		c0.1,0.3,0.1,0.7,0.1,1.4v5.1h-1.4v-5c0-0.6-0.1-1-0.2-1.3s-0.3-0.5-0.6-0.7s-0.6-0.3-1-0.3c-0.6,0-1.1,0.2-1.6,0.6
		s-0.7,1.1-0.7,2.2v4.5H114.9z"/>
	<path d="M18.9,113.8l1.4,0.2c-0.2,1-0.5,1.7-1.2,2.2s-1.4,0.8-2.3,0.8c-1.1,0-2-0.4-2.7-1.1s-1-1.8-1-3.2c0-0.9,0.1-1.7,0.4-2.4
		s0.7-1.2,1.4-1.5s1.3-0.5,2-0.5c0.9,0,1.6,0.2,2.2,0.7s0.9,1.1,1.1,1.9l-1.4,0.2c-0.1-0.6-0.4-1-0.7-1.3s-0.7-0.4-1.2-0.4
		c-0.7,0-1.3,0.3-1.7,0.8s-0.7,1.3-0.7,2.4c0,1.1,0.2,1.9,0.6,2.4s1,0.8,1.7,0.8c0.6,0,1-0.2,1.4-0.5S18.8,114.5,18.9,113.8z"/>
	<path d="M26.9,116.8v-1.2c-0.6,0.9-1.5,1.4-2.6,1.4c-0.5,0-0.9-0.1-1.4-0.3s-0.7-0.4-0.9-0.7s-0.4-0.6-0.4-1
		c-0.1-0.3-0.1-0.7-0.1-1.3v-5.1h1.4v4.6c0,0.7,0,1.2,0.1,1.5c0.1,0.4,0.3,0.7,0.6,0.9s0.6,0.3,1.1,0.3s0.8-0.1,1.2-0.3
		s0.6-0.5,0.8-0.9s0.2-0.9,0.2-1.6v-4.4h1.4v8.3H26.9z"/>
	<path d="M35.8,115.8c-0.5,0.4-1,0.8-1.5,0.9s-1,0.3-1.6,0.3c-0.9,0-1.6-0.2-2.1-0.7s-0.7-1-0.7-1.7c0-0.4,0.1-0.8,0.3-1.1
		s0.4-0.6,0.7-0.8s0.6-0.4,1-0.5c0.3-0.1,0.7-0.1,1.3-0.2c1.1-0.1,2-0.3,2.5-0.5c0-0.2,0-0.3,0-0.4c0-0.6-0.1-1-0.4-1.2
		c-0.4-0.3-0.9-0.5-1.6-0.5c-0.7,0-1.1,0.1-1.5,0.3s-0.5,0.6-0.7,1.2l-1.4-0.2c0.1-0.6,0.3-1.1,0.6-1.4s0.7-0.6,1.2-0.8
		s1.2-0.3,1.9-0.3c0.7,0,1.3,0.1,1.7,0.3s0.8,0.4,1,0.6s0.4,0.6,0.4,1c0,0.2,0.1,0.7,0.1,1.3v1.9c0,1.3,0,2.1,0.1,2.5s0.2,0.7,0.4,1
		h-1.5C35.9,116.5,35.8,116.2,35.8,115.8z M35.7,112.7c-0.5,0.2-1.3,0.4-2.3,0.5c-0.6,0.1-1,0.2-1.2,0.3s-0.4,0.3-0.6,0.5
		s-0.2,0.4-0.2,0.7c0,0.4,0.1,0.7,0.4,0.9s0.7,0.4,1.2,0.4c0.5,0,1-0.1,1.4-0.4s0.7-0.6,0.9-1c0.2-0.3,0.2-0.8,0.2-1.4V112.7z"/>
	<path d="M39.3,116.8v-8.3h1.3v1.2c0.6-0.9,1.5-1.4,2.6-1.4c0.5,0,1,0.1,1.4,0.3s0.7,0.4,0.9,0.7s0.4,0.6,0.4,1
		c0.1,0.3,0.1,0.7,0.1,1.4v5.1h-1.4v-5c0-0.6-0.1-1-0.2-1.3s-0.3-0.5-0.6-0.7s-0.6-0.3-1-0.3c-0.6,0-1.1,0.2-1.6,0.6
		s-0.7,1.1-0.7,2.2v4.5H39.3z"/>
	<path d="M51.3,115.6l0.2,1.2c-0.4,0.1-0.8,0.1-1.1,0.1c-0.5,0-0.9-0.1-1.2-0.2s-0.5-0.4-0.6-0.6s-0.2-0.8-0.2-1.7v-4.8h-1v-1.1h1
		v-2.1l1.4-0.8v2.9h1.4v1.1h-1.4v4.9c0,0.4,0,0.7,0.1,0.8s0.1,0.2,0.2,0.3s0.3,0.1,0.5,0.1C50.8,115.6,51,115.6,51.3,115.6z"/>
	<path d="M52.6,107v-1.6H54v1.6H52.6z M52.6,116.8v-8.3H54v8.3H52.6z"/>
	<path d="M59.3,115.6l0.2,1.2c-0.4,0.1-0.8,0.1-1.1,0.1c-0.5,0-0.9-0.1-1.2-0.2s-0.5-0.4-0.6-0.6s-0.2-0.8-0.2-1.7v-4.8h-1v-1.1h1
		v-2.1l1.4-0.8v2.9h1.4v1.1h-1.4v4.9c0,0.4,0,0.7,0.1,0.8s0.1,0.2,0.2,0.3s0.3,0.1,0.5,0.1C58.8,115.6,59,115.6,59.3,115.6z"/>
	<path d="M66,115.8c-0.5,0.4-1,0.8-1.5,0.9s-1,0.3-1.6,0.3c-0.9,0-1.6-0.2-2.1-0.7s-0.7-1-0.7-1.7c0-0.4,0.1-0.8,0.3-1.1
		s0.4-0.6,0.7-0.8s0.6-0.4,1-0.5c0.3-0.1,0.7-0.1,1.3-0.2c1.1-0.1,2-0.3,2.5-0.5c0-0.2,0-0.3,0-0.4c0-0.6-0.1-1-0.4-1.2
		c-0.4-0.3-0.9-0.5-1.6-0.5c-0.7,0-1.1,0.1-1.5,0.3s-0.5,0.6-0.7,1.2l-1.4-0.2c0.1-0.6,0.3-1.1,0.6-1.4s0.7-0.6,1.2-0.8
		s1.2-0.3,1.9-0.3c0.7,0,1.3,0.1,1.7,0.3s0.8,0.4,1,0.6s0.4,0.6,0.4,1c0,0.2,0.1,0.7,0.1,1.3v1.9c0,1.3,0,2.1,0.1,2.5s0.2,0.7,0.4,1
		h-1.5C66.2,116.5,66.1,116.2,66,115.8z M65.9,112.7c-0.5,0.2-1.3,0.4-2.3,0.5c-0.6,0.1-1,0.2-1.2,0.3s-0.4,0.3-0.6,0.5
		s-0.2,0.4-0.2,0.7c0,0.4,0.1,0.7,0.4,0.9s0.7,0.4,1.2,0.4c0.5,0,1-0.1,1.4-0.4s0.7-0.6,0.9-1c0.2-0.3,0.2-0.8,0.2-1.4V112.7z"/>
	<path d="M72.6,115.6l0.2,1.2c-0.4,0.1-0.8,0.1-1.1,0.1c-0.5,0-0.9-0.1-1.2-0.2s-0.5-0.4-0.6-0.6s-0.2-0.8-0.2-1.7v-4.8h-1v-1.1h1
		v-2.1l1.4-0.8v2.9h1.4v1.1h-1.4v4.9c0,0.4,0,0.7,0.1,0.8s0.1,0.2,0.2,0.3s0.3,0.1,0.5,0.1C72.1,115.6,72.3,115.6,72.6,115.6z"/>
	<path d="M74,107v-1.6h1.4v1.6H74z M74,116.8v-8.3h1.4v8.3H74z"/>
	<path d="M79.8,116.8l-3.2-8.3h1.5l1.8,5c0.2,0.5,0.4,1.1,0.5,1.7c0.1-0.4,0.3-1,0.5-1.6l1.8-5.1h1.4l-3.1,8.3H79.8z"/>
	<path d="M90.9,115.8c-0.5,0.4-1,0.8-1.5,0.9s-1,0.3-1.6,0.3c-0.9,0-1.6-0.2-2.1-0.7s-0.7-1-0.7-1.7c0-0.4,0.1-0.8,0.3-1.1
		s0.4-0.6,0.7-0.8s0.6-0.4,1-0.5c0.3-0.1,0.7-0.1,1.3-0.2c1.1-0.1,2-0.3,2.5-0.5c0-0.2,0-0.3,0-0.4c0-0.6-0.1-1-0.4-1.2
		c-0.4-0.3-0.9-0.5-1.6-0.5c-0.7,0-1.1,0.1-1.5,0.3s-0.5,0.6-0.7,1.2l-1.4-0.2c0.1-0.6,0.3-1.1,0.6-1.4s0.7-0.6,1.2-0.8
		s1.2-0.3,1.9-0.3c0.7,0,1.3,0.1,1.7,0.3s0.8,0.4,1,0.6s0.4,0.6,0.4,1c0,0.2,0.1,0.7,0.1,1.3v1.9c0,1.3,0,2.1,0.1,2.5s0.2,0.7,0.4,1
		h-1.5C91.1,116.5,91,116.2,90.9,115.8z M90.8,112.7c-0.5,0.2-1.3,0.4-2.3,0.5c-0.6,0.1-1,0.2-1.2,0.3s-0.4,0.3-0.6,0.5
		s-0.2,0.4-0.2,0.7c0,0.4,0.1,0.7,0.4,0.9s0.7,0.4,1.2,0.4c0.5,0,1-0.1,1.4-0.4s0.7-0.6,0.9-1c0.2-0.3,0.2-0.8,0.2-1.4V112.7z"/>
	<path d="M94.4,116.8v-8.3h1.3v1.2c0.3-0.4,0.6-0.7,1-1s0.9-0.4,1.5-0.4c0.6,0,1.1,0.1,1.5,0.4s0.7,0.6,0.8,1.1
		c0.7-1,1.5-1.5,2.6-1.5c0.8,0,1.5,0.2,1.9,0.7s0.7,1.2,0.7,2.1v5.7h-1.4v-5.2c0-0.6,0-1-0.1-1.2s-0.3-0.4-0.5-0.6s-0.5-0.2-0.8-0.2
		c-0.6,0-1.1,0.2-1.5,0.6s-0.6,1-0.6,1.9v4.8h-1.4v-5.4c0-0.6-0.1-1.1-0.3-1.4s-0.6-0.5-1.1-0.5c-0.4,0-0.8,0.1-1.1,0.3
		s-0.6,0.5-0.7,0.9s-0.2,1-0.2,1.7v4.3H94.4z"/>
	<path d="M113.4,114.1l1.5,0.2c-0.2,0.8-0.7,1.5-1.3,2s-1.4,0.7-2.4,0.7c-1.2,0-2.2-0.4-2.9-1.1s-1.1-1.8-1.1-3.1
		c0-1.4,0.4-2.5,1.1-3.3s1.7-1.2,2.8-1.2c1.1,0,2,0.4,2.7,1.1s1.1,1.8,1.1,3.2c0,0.1,0,0.2,0,0.4h-6.2c0.1,0.9,0.3,1.6,0.8,2.1
		s1,0.7,1.7,0.7c0.5,0,1-0.1,1.3-0.4S113.2,114.7,113.4,114.1z M108.8,111.9h4.6c-0.1-0.7-0.2-1.2-0.5-1.6c-0.4-0.5-1-0.8-1.7-0.8
		c-0.6,0-1.2,0.2-1.6,0.6S108.9,111.1,108.8,111.9z"/>
	<path d="M116.7,116.8v-8.3h1.3v1.2c0.6-0.9,1.5-1.4,2.6-1.4c0.5,0,1,0.1,1.4,0.3s0.7,0.4,0.9,0.7s0.4,0.6,0.4,1
		c0.1,0.3,0.1,0.7,0.1,1.4v5.1H122v-5c0-0.6-0.1-1-0.2-1.3s-0.3-0.5-0.6-0.7s-0.6-0.3-1-0.3c-0.6,0-1.1,0.2-1.6,0.6
		s-0.7,1.1-0.7,2.2v4.5H116.7z"/>
	<path d="M128.6,115.6l0.2,1.2c-0.4,0.1-0.8,0.1-1.1,0.1c-0.5,0-0.9-0.1-1.2-0.2s-0.5-0.4-0.6-0.6s-0.2-0.8-0.2-1.7v-4.8h-1v-1.1h1
		v-2.1l1.4-0.8v2.9h1.4v1.1h-1.4v4.9c0,0.4,0,0.7,0.1,0.8s0.1,0.2,0.2,0.3s0.3,0.1,0.5,0.1C128.2,115.6,128.4,115.6,128.6,115.6z"/>
	<path d="M135.7,114.1l1.5,0.2c-0.2,0.8-0.7,1.5-1.3,2s-1.4,0.7-2.4,0.7c-1.2,0-2.2-0.4-2.9-1.1s-1.1-1.8-1.1-3.1
		c0-1.4,0.4-2.5,1.1-3.3s1.7-1.2,2.8-1.2c1.1,0,2,0.4,2.7,1.1s1.1,1.8,1.1,3.2c0,0.1,0,0.2,0,0.4H131c0.1,0.9,0.3,1.6,0.8,2.1
		s1,0.7,1.7,0.7c0.5,0,1-0.1,1.3-0.4S135.5,114.7,135.7,114.1z M131.1,111.9h4.6c-0.1-0.7-0.2-1.2-0.5-1.6c-0.4-0.5-1-0.8-1.7-0.8
		c-0.6,0-1.2,0.2-1.6,0.6S131.1,111.1,131.1,111.9z"/>
	<path d="M139.3,116.8v-1.6h1.6v1.6H139.3z"/>
</g>
</svg>
