<?xml version="1.0" encoding="utf-8"?>
<!-- Generator: Adobe Illustrator 21.0.0, SVG Export Plug-In . SVG Version: 6.00 Build 0)  -->
<svg version="1.1" id="Capa_1" xmlns="http://www.w3.org/2000/svg" xmlns:xlink="http://www.w3.org/1999/xlink" x="0px" y="0px"
	 viewBox="0 0 161.7295 141.3711" style="enable-background:new 0 0 161.7295 141.3711;" xml:space="preserve">
<g>
	<polygon style="opacity:0.35;fill:#D1D3D2;" points="161.7295,66.4805 161.7295,9.6699 50.3271,9.6699 11.1572,9.6699 
		11.1572,66.4805 11.1572,141.3711 161.7295,141.3711 	"/>
	<rect style="fill:#FFFFFF;" width="150.5722" height="131.7022"/>
	<rect style="fill:#D14028;" width="150.5722" height="56.8115"/>
	<g>
		<path style="fill:#FFCF48;" d="M131.542,50.8946H36.5029c-16.2812,0-32.2207-13.1983-32.2207-29.4786v-2.9072
			c0-6.8799,5.5771-12.457,12.457-12.457h97.7803c16.2813,0,29.4795,13.1982,29.4795,29.4795v2.9062
			C143.999,45.3174,138.4218,50.8946,131.542,50.8946z"/>
	</g>
	<g>
		<path style="fill:#F15A24;" d="M53.924,23.5841V12.131h2.25l4.6875,7.6484V12.131h2.1484v11.4531h-2.3203l-4.6172-7.4688v7.4688
			H53.924z"/>
		<path style="fill:#F15A24;" d="M65.4396,14.1622V12.131h2.1953v2.0313H65.4396z M65.4396,23.5841v-8.2969h2.1953v8.2969H65.4396z"
			/>
		<path style="fill:#F15A24;" d="M72.1662,23.5841l-3.3438-8.2969h2.3047l1.5625,4.2344l0.4531,1.4141
			c0.1201-0.3594,0.1953-0.5967,0.2266-0.7109c0.0732-0.2344,0.1514-0.4688,0.2344-0.7031l1.5781-4.2344h2.2578l-3.2969,8.2969
			H72.1662z"/>
		<path style="fill:#F15A24;" d="M83.5881,20.9435l2.1875,0.3672c-0.2813,0.8018-0.7256,1.4131-1.332,1.832
			s-1.3662,0.6289-2.2773,0.6289c-1.4424,0-2.5107-0.4717-3.2031-1.4141c-0.5469-0.7549-0.8203-1.708-0.8203-2.8594
			c0-1.375,0.3594-2.4521,1.0781-3.2305c0.7188-0.7783,1.6279-1.168,2.7266-1.168c1.2344,0,2.208,0.4072,2.9219,1.2227
			c0.7139,0.8154,1.0547,2.0635,1.0234,3.7461h-5.5c0.0156,0.6514,0.1924,1.1572,0.5313,1.5195s0.7607,0.543,1.2656,0.543
			c0.3438,0,0.6328-0.0938,0.8672-0.2813S83.4679,21.3605,83.5881,20.9435z M83.7131,18.7247
			c-0.0156-0.6357-0.1797-1.1182-0.4922-1.4492s-0.6924-0.4961-1.1406-0.4961c-0.4795,0-0.875,0.1748-1.1875,0.5234
			s-0.4658,0.8232-0.4609,1.4219H83.7131z"/>
		<path style="fill:#F15A24;" d="M87.6818,23.5841V12.131h2.1953v11.4531H87.6818z"/>
		<path style="fill:#F15A24;" d="M103.5177,21.5451v2.0391h-7.6953c0.083-0.7705,0.333-1.501,0.75-2.1914
			s1.2393-1.6055,2.4688-2.7461c0.9893-0.9219,1.5967-1.5469,1.8203-1.875c0.3018-0.4531,0.4531-0.9014,0.4531-1.3437
			c0-0.4893-0.1318-0.8662-0.3945-1.1289s-0.626-0.3945-1.0898-0.3945c-0.458,0-0.8232,0.1377-1.0938,0.4141
			s-0.4268,0.7344-0.4688,1.375l-2.1875-0.2188c0.1299-1.208,0.5391-2.0752,1.2266-2.6016s1.5469-0.7891,2.5781-0.7891
			c1.1299,0,2.0186,0.3047,2.6641,0.9141s0.9688,1.3672,0.9688,2.2734c0,0.5156-0.0928,1.0068-0.2773,1.4727
			s-0.4775,0.9541-0.8789,1.4648c-0.2656,0.3389-0.7451,0.8252-1.4375,1.4609s-1.1318,1.0576-1.3164,1.2656
			s-0.335,0.4111-0.4492,0.6094H103.5177z"/>
		<path style="fill:#F15A24;" d="M45.9162,38.7843V27.3312h4.8672c1.2236,0,2.1133,0.1025,2.668,0.3086s0.999,0.5713,1.332,1.0977
			s0.5,1.1279,0.5,1.8047c0,0.8594-0.2529,1.5693-0.7578,2.1289s-1.2607,0.9131-2.2656,1.0586
			c0.5,0.292,0.9131,0.6123,1.2383,0.9609s0.7646,0.9688,1.3164,1.8594l1.3984,2.2344h-2.7656l-1.6719-2.4922
			c-0.5938-0.8906-1-1.4521-1.2188-1.6836s-0.4502-0.3906-0.6953-0.4766s-0.6328-0.1289-1.1641-0.1289h-0.4688v4.7813H45.9162z
			 M48.2287,32.1749h1.7109c1.1094,0,1.8018-0.0469,2.0781-0.1406s0.4922-0.2549,0.6484-0.4844s0.2344-0.5156,0.2344-0.8594
			c0-0.3857-0.1025-0.6963-0.3086-0.9336s-0.4961-0.3867-0.8711-0.4492c-0.1875-0.0264-0.75-0.0391-1.6875-0.0391h-1.8047V32.1749z"
			/>
		<path style="fill:#F15A24;" d="M62.2521,36.1437l2.1875,0.3672c-0.2813,0.8018-0.7256,1.4131-1.332,1.832
			s-1.3662,0.6289-2.2773,0.6289c-1.4424,0-2.5107-0.4717-3.2031-1.4141c-0.5469-0.7549-0.8203-1.708-0.8203-2.8594
			c0-1.375,0.3594-2.4521,1.0781-3.2305s1.6279-1.168,2.7266-1.168c1.2344,0,2.208,0.4072,2.9219,1.2227
			c0.7139,0.8154,1.0547,2.0635,1.0234,3.7461h-5.5c0.0156,0.6514,0.1924,1.1572,0.5313,1.5195s0.7607,0.543,1.2656,0.543
			c0.3438,0,0.6328-0.0938,0.8672-0.2813S62.132,36.5607,62.2521,36.1437z M62.3771,33.9249
			c-0.0156-0.6357-0.1797-1.1182-0.4922-1.4492s-0.6924-0.4961-1.1406-0.4961c-0.4795,0-0.875,0.1748-1.1875,0.5234
			s-0.4658,0.8232-0.4609,1.4219H62.3771z"/>
		<path style="fill:#F15A24;" d="M66.2834,30.4874h2.0469v1.2188c0.2656-0.417,0.625-0.7549,1.0781-1.0156
			s0.9561-0.3906,1.5078-0.3906c0.9639,0,1.7813,0.3779,2.4531,1.1328s1.0078,1.8076,1.0078,3.1563
			c0,1.3857-0.3389,2.4619-1.0156,3.2305s-1.4971,1.1523-2.4609,1.1523c-0.458,0-0.874-0.0908-1.2461-0.2734
			s-0.7646-0.4951-1.1758-0.9375v4.1797h-2.1953V30.4874z M68.4552,34.4953c0,0.9326,0.1846,1.6211,0.5547,2.0664
			s0.8203,0.668,1.3516,0.668c0.5107,0,0.9346-0.2041,1.2734-0.6133s0.5078-1.0791,0.5078-2.0117
			c0-0.8701-0.1748-1.5156-0.5234-1.9375s-0.7813-0.6328-1.2969-0.6328c-0.5361,0-0.9814,0.207-1.3359,0.6211
			S68.4552,33.6828,68.4552,34.4953z"/>
		<path style="fill:#F15A24;" d="M80.924,36.1437l2.1875,0.3672c-0.2813,0.8018-0.7256,1.4131-1.332,1.832
			s-1.3662,0.6289-2.2773,0.6289c-1.4424,0-2.5107-0.4717-3.2031-1.4141c-0.5469-0.7549-0.8203-1.708-0.8203-2.8594
			c0-1.375,0.3594-2.4521,1.0781-3.2305s1.6279-1.168,2.7266-1.168c1.2344,0,2.208,0.4072,2.9219,1.2227
			s1.0547,2.0635,1.0234,3.7461h-5.5c0.0156,0.6514,0.1924,1.1572,0.5313,1.5195s0.7607,0.543,1.2656,0.543
			c0.3438,0,0.6328-0.0938,0.8672-0.2813S80.8039,36.5607,80.924,36.1437z M81.049,33.9249
			c-0.0156-0.6357-0.1797-1.1182-0.4922-1.4492s-0.6924-0.4961-1.1406-0.4961c-0.4795,0-0.875,0.1748-1.1875,0.5234
			s-0.4658,0.8232-0.4609,1.4219H81.049z"/>
		<path style="fill:#F15A24;" d="M88.8224,30.4874v1.75h-1.5v3.3438c0,0.6768,0.0146,1.0713,0.043,1.1836
			s0.0938,0.2041,0.1953,0.2773s0.2256,0.1094,0.3711,0.1094c0.2031,0,0.4971-0.0703,0.8828-0.2109l0.1875,1.7031
			c-0.5107,0.2188-1.0889,0.3281-1.7344,0.3281c-0.3955,0-0.7529-0.0664-1.0703-0.1992s-0.5508-0.3047-0.6992-0.5156
			s-0.251-0.4961-0.3086-0.8555c-0.0469-0.2549-0.0703-0.7705-0.0703-1.5469v-3.6172h-1.0078v-1.75h1.0078V28.839l2.2031-1.2813
			v2.9297H88.8224z"/>
		<path style="fill:#F15A24;" d="M90.3459,29.3624v-2.0313h2.1953v2.0313H90.3459z M90.3459,38.7843v-8.2969h2.1953v8.2969H90.3459z
			"/>
		<path style="fill:#F15A24;" d="M94.6974,38.7843V27.3312h2.1953v4.125c0.6768-0.7705,1.4795-1.1563,2.4063-1.1563
			c1.0107,0,1.8467,0.3662,2.5078,1.0977s0.9922,1.7822,0.9922,3.1523c0,1.417-0.3369,2.5078-1.0117,3.2734
			s-1.4932,1.1484-2.457,1.1484c-0.4736,0-0.9414-0.1182-1.4023-0.3555s-0.8584-0.5869-1.1914-1.0508v1.2188H94.6974z
			 M96.8771,34.4562c0,0.8594,0.1357,1.4951,0.4063,1.9063c0.3799,0.583,0.8857,0.875,1.5156,0.875
			c0.4844,0,0.8975-0.207,1.2383-0.6211s0.5117-1.0664,0.5117-1.957c0-0.9482-0.1719-1.6318-0.5156-2.0508
			s-0.7842-0.6289-1.3203-0.6289c-0.5264,0-0.9639,0.2041-1.3125,0.6133S96.8771,33.6232,96.8771,34.4562z"/>
		<path style="fill:#F15A24;" d="M104.5646,38.7843V27.3312h2.1953v11.4531H104.5646z"/>
		<path style="fill:#F15A24;" d="M113.8146,36.1437l2.1875,0.3672c-0.2813,0.8018-0.7256,1.4131-1.332,1.832
			s-1.3662,0.6289-2.2773,0.6289c-1.4424,0-2.5107-0.4717-3.2031-1.4141c-0.5469-0.7549-0.8203-1.708-0.8203-2.8594
			c0-1.375,0.3594-2.4521,1.0781-3.2305s1.6279-1.168,2.7266-1.168c1.2344,0,2.208,0.4072,2.9219,1.2227
			s1.0547,2.0635,1.0234,3.7461h-5.5c0.0156,0.6514,0.1924,1.1572,0.5313,1.5195s0.7607,0.543,1.2656,0.543
			c0.3438,0,0.6328-0.0938,0.8672-0.2813S113.6945,36.5607,113.8146,36.1437z M113.9396,33.9249
			c-0.0156-0.6357-0.1797-1.1182-0.4922-1.4492s-0.6924-0.4961-1.1406-0.4961c-0.4795,0-0.875,0.1748-1.1875,0.5234
			s-0.4658,0.8232-0.4609,1.4219H113.9396z"/>
	</g>
	<g>
		<path d="M36.1154,77.4181V65.965h4.3203c0.7607,0,1.3408,0.0361,1.7422,0.1094c0.5625,0.0938,1.0342,0.2725,1.4141,0.5352
			s0.6865,0.6318,0.918,1.1055s0.3477,0.9951,0.3477,1.5625c0,0.9736-0.3096,1.7979-0.9297,2.4727s-1.7393,1.0117-3.3594,1.0117
			H37.631v4.6563H36.1154z M37.631,71.4103h2.9609c0.9795,0,1.6748-0.1826,2.0859-0.5469s0.6172-0.8779,0.6172-1.5391
			c0-0.4795-0.1211-0.8896-0.3633-1.2305s-0.5615-0.5664-0.957-0.6758c-0.2549-0.0674-0.7266-0.1016-1.4141-0.1016H37.631V71.4103z"
			/>
		<path d="M46.592,77.4181v-8.2969h1.2656v1.2578c0.3232-0.5889,0.6211-0.9766,0.8945-1.1641s0.5742-0.2813,0.9023-0.2813
			c0.4736,0,0.9561,0.1514,1.4453,0.4531l-0.4844,1.3047c-0.3438-0.2031-0.6875-0.3047-1.0313-0.3047
			c-0.3076,0-0.583,0.0928-0.8281,0.2773s-0.4189,0.4414-0.5234,0.7695c-0.1563,0.5-0.2344,1.0469-0.2344,1.6406v4.3438H46.592z"/>
		<path d="M51.4123,73.2697c0-1.5361,0.4268-2.6748,1.2813-3.4141c0.7139-0.6143,1.583-0.9219,2.6094-0.9219
			c1.1406,0,2.0732,0.374,2.7969,1.1211s1.0859,1.7803,1.0859,3.0977c0,1.0674-0.1602,1.9072-0.4805,2.5195
			s-0.7861,1.0869-1.3984,1.4258s-1.2803,0.5078-2.0039,0.5078c-1.1611,0-2.1006-0.3721-2.8164-1.1172
			S51.4123,74.671,51.4123,73.2697z M52.8576,73.2697c0,1.0625,0.2314,1.8584,0.6953,2.3867s1.0469,0.793,1.75,0.793
			c0.6982,0,1.2783-0.2656,1.7422-0.7969s0.6953-1.3408,0.6953-2.4297c0-1.0264-0.2334-1.8037-0.6992-2.332
			s-1.0459-0.793-1.7383-0.793c-0.7031,0-1.2861,0.2627-1.75,0.7891S52.8576,72.2072,52.8576,73.2697z"/>
		<path d="M66.2482,74.379l1.3828,0.1797c-0.1514,0.9531-0.5381,1.6992-1.1602,2.2383s-1.3867,0.8086-2.293,0.8086
			c-1.1357,0-2.0478-0.3711-2.7383-1.1133s-1.0352-1.8057-1.0352-3.1914c0-0.8955,0.1484-1.6797,0.4453-2.3516
			s0.749-1.1758,1.3555-1.5117s1.2666-0.5039,1.9805-0.5039c0.9014,0,1.6377,0.2275,2.2109,0.6836s0.9404,1.1025,1.1016,1.9414
			l-1.3672,0.2109c-0.1299-0.5576-0.3604-0.9766-0.6914-1.2578S64.7092,70.09,64.2404,70.09c-0.708,0-1.2842,0.2539-1.7266,0.7617
			s-0.6641,1.3115-0.6641,2.4102c0,1.1143,0.2139,1.9248,0.6406,2.4297s0.9844,0.7578,1.6719,0.7578
			c0.5518,0,1.0127-0.1689,1.3828-0.5078S66.1496,75.0822,66.2482,74.379z"/>
		<path d="M74.5138,74.7462l1.4531,0.1797c-0.2295,0.8486-0.6533,1.5078-1.2734,1.9766s-1.4111,0.7031-2.375,0.7031
			c-1.2139,0-2.1758-0.374-2.8867-1.1211s-1.0664-1.7959-1.0664-3.1445c0-1.3955,0.3594-2.4795,1.0781-3.25
			s1.6514-1.1563,2.7969-1.1563c1.1094,0,2.0156,0.3779,2.7188,1.1328s1.0547,1.8174,1.0547,3.1875
			c0,0.083-0.0029,0.208-0.0078,0.375h-6.1875c0.0518,0.9111,0.3096,1.6094,0.7734,2.0938s1.042,0.7266,1.7344,0.7266
			c0.5156,0,0.9561-0.1357,1.3203-0.4063S74.3,75.34,74.5138,74.7462z M69.8967,72.4728h4.6328
			c-0.0625-0.6982-0.2393-1.2217-0.5313-1.5703C73.55,70.3605,72.9699,70.09,72.256,70.09c-0.6455,0-1.1885,0.2158-1.6289,0.6484
			S69.9435,71.7492,69.8967,72.4728z"/>
		<path d="M77.1701,74.9415l1.3906-0.2188c0.0781,0.5576,0.2959,0.9844,0.6523,1.2813s0.8555,0.4453,1.4961,0.4453
			c0.6455,0,1.125-0.1318,1.4375-0.3945s0.4688-0.5713,0.4688-0.9258c0-0.3174-0.1377-0.5674-0.4141-0.75
			c-0.1924-0.125-0.6719-0.2842-1.4375-0.4766c-1.0313-0.2607-1.7461-0.4854-2.1445-0.6758s-0.7002-0.4531-0.9063-0.7891
			s-0.3086-0.707-0.3086-1.1133c0-0.3701,0.085-0.7119,0.2539-1.0273s0.3994-0.5771,0.6914-0.7852
			c0.2188-0.1611,0.5166-0.2979,0.8945-0.4102s0.7822-0.168,1.2148-0.168c0.6514,0,1.2227,0.0938,1.7148,0.2813
			s0.8555,0.4414,1.0898,0.7617s0.3955,0.749,0.4844,1.2852l-1.375,0.1875c-0.0625-0.4268-0.2432-0.7607-0.543-1
			S81.1076,70.09,80.5607,70.09c-0.6455,0-1.1064,0.1064-1.3828,0.3203s-0.4141,0.4639-0.4141,0.75
			c0,0.1826,0.0576,0.3467,0.1719,0.4922c0.1143,0.1514,0.2939,0.2764,0.5391,0.375c0.1406,0.0518,0.5547,0.1719,1.2422,0.3594
			c0.9951,0.2656,1.6885,0.4834,2.082,0.6523s0.7021,0.415,0.9258,0.7383s0.3359,0.7236,0.3359,1.2031
			c0,0.4688-0.1367,0.9102-0.4102,1.3242s-0.668,0.7344-1.1836,0.9609s-1.0986,0.3398-1.75,0.3398
			c-1.0781,0-1.8994-0.2236-2.4648-0.6719S77.3263,75.8214,77.1701,74.9415z"/>
		<path d="M85.2092,73.2697c0-1.5361,0.4268-2.6748,1.2813-3.4141c0.7139-0.6143,1.583-0.9219,2.6094-0.9219
			c1.1406,0,2.0732,0.374,2.7969,1.1211s1.0859,1.7803,1.0859,3.0977c0,1.0674-0.1602,1.9072-0.4805,2.5195
			s-0.7861,1.0869-1.3984,1.4258s-1.2803,0.5078-2.0039,0.5078c-1.1611,0-2.1006-0.3721-2.8164-1.1172
			S85.2092,74.671,85.2092,73.2697z M86.6545,73.2697c0,1.0625,0.2314,1.8584,0.6953,2.3867s1.0469,0.793,1.75,0.793
			c0.6982,0,1.2783-0.2656,1.7422-0.7969s0.6953-1.3408,0.6953-2.4297c0-1.0264-0.2334-1.8037-0.6992-2.332
			s-1.0459-0.793-1.7383-0.793c-0.7031,0-1.2861,0.2627-1.75,0.7891S86.6545,72.2072,86.6545,73.2697z"/>
		<path d="M94.0685,74.9415l1.3906-0.2188c0.0781,0.5576,0.2959,0.9844,0.6523,1.2813s0.8555,0.4453,1.4961,0.4453
			c0.6455,0,1.125-0.1318,1.4375-0.3945s0.4688-0.5713,0.4688-0.9258c0-0.3174-0.1377-0.5674-0.4141-0.75
			c-0.1924-0.125-0.6719-0.2842-1.4375-0.4766c-1.0313-0.2607-1.7461-0.4854-2.1445-0.6758s-0.7002-0.4531-0.9063-0.7891
			s-0.3086-0.707-0.3086-1.1133c0-0.3701,0.085-0.7119,0.2539-1.0273s0.3994-0.5771,0.6914-0.7852
			c0.2188-0.1611,0.5166-0.2979,0.8945-0.4102s0.7822-0.168,1.2148-0.168c0.6514,0,1.2227,0.0938,1.7148,0.2813
			s0.8555,0.4414,1.0898,0.7617s0.3955,0.749,0.4844,1.2852l-1.375,0.1875c-0.0625-0.4268-0.2432-0.7607-0.543-1
			S98.006,70.09,97.4592,70.09c-0.6455,0-1.1064,0.1064-1.3828,0.3203s-0.4141,0.4639-0.4141,0.75
			c0,0.1826,0.0576,0.3467,0.1719,0.4922c0.1143,0.1514,0.2939,0.2764,0.5391,0.375c0.1406,0.0518,0.5547,0.1719,1.2422,0.3594
			c0.9951,0.2656,1.6885,0.4834,2.082,0.6523s0.7021,0.415,0.9258,0.7383s0.3359,0.7236,0.3359,1.2031
			c0,0.4688-0.1367,0.9102-0.4102,1.3242s-0.668,0.7344-1.1836,0.9609s-1.0986,0.3398-1.75,0.3398
			c-1.0781,0-1.8994-0.2236-2.4648-0.6719S94.2248,75.8214,94.0685,74.9415z"/>
		<path d="M112.4592,77.4181v-1.0469c-0.5264,0.8232-1.2998,1.2344-2.3203,1.2344c-0.6611,0-1.2695-0.1826-1.8242-0.5469
			s-0.9844-0.874-1.2891-1.5273s-0.457-1.4053-0.457-2.2539c0-0.8281,0.1377-1.5791,0.4141-2.2539s0.6904-1.1914,1.2422-1.5508
			s1.1689-0.5391,1.8516-0.5391c0.5,0,0.9453,0.1055,1.3359,0.3164s0.708,0.4854,0.9531,0.8242V65.965h1.3984v11.4531H112.4592z
			 M108.0138,73.2775c0,1.0625,0.2236,1.8564,0.6719,2.3828s0.9766,0.7891,1.5859,0.7891c0.6143,0,1.1367-0.251,1.5664-0.7539
			s0.6445-1.2695,0.6445-2.3008c0-1.1357-0.2188-1.9688-0.6563-2.5s-0.9766-0.7969-1.6172-0.7969
			c-0.625,0-1.1475,0.2549-1.5664,0.7656S108.0138,72.1788,108.0138,73.2775z"/>
		<path d="M121.6545,74.7462l1.4531,0.1797c-0.2295,0.8486-0.6533,1.5078-1.2734,1.9766s-1.4111,0.7031-2.375,0.7031
			c-1.2139,0-2.1758-0.374-2.8867-1.1211s-1.0664-1.7959-1.0664-3.1445c0-1.3955,0.3594-2.4795,1.0781-3.25
			s1.6514-1.1563,2.7969-1.1563c1.1094,0,2.0156,0.3779,2.7188,1.1328s1.0547,1.8174,1.0547,3.1875
			c0,0.083-0.0029,0.208-0.0078,0.375h-6.1875c0.0518,0.9111,0.3096,1.6094,0.7734,2.0938s1.042,0.7266,1.7344,0.7266
			c0.5156,0,0.9561-0.1357,1.3203-0.4063S121.4406,75.34,121.6545,74.7462z M117.0373,72.4728h4.6328
			c-0.0625-0.6982-0.2393-1.2217-0.5313-1.5703c-0.4482-0.542-1.0283-0.8125-1.7422-0.8125c-0.6455,0-1.1885,0.2158-1.6289,0.6484
			S117.0842,71.7492,117.0373,72.4728z"/>
		<path d="M53.4826,92.1261v-1.3438l4.8516-0.0078v4.25c-0.7451,0.5938-1.5127,1.04-2.3047,1.3398s-1.6045,0.4492-2.4375,0.4492
			c-1.125,0-2.1475-0.2412-3.0664-0.7227s-1.6133-1.1787-2.082-2.0898s-0.7031-1.9297-0.7031-3.0547
			c0-1.1143,0.2334-2.1553,0.6992-3.1211s1.1367-1.6836,2.0117-2.1523s1.8828-0.7031,3.0234-0.7031
			c0.8281,0,1.5771,0.1338,2.2461,0.4023s1.1943,0.6416,1.5742,1.1211s0.6689,1.1045,0.8672,1.875l-1.3672,0.375
			c-0.1719-0.583-0.3857-1.042-0.6406-1.375s-0.6201-0.6006-1.0938-0.8008s-1-0.3008-1.5781-0.3008
			c-0.6924,0-1.292,0.1055-1.7969,0.3164s-0.9131,0.4883-1.2227,0.832s-0.5508,0.7217-0.7227,1.1328
			c-0.292,0.708-0.4375,1.4766-0.4375,2.3047c0,1.0205,0.1758,1.875,0.5273,2.5625s0.8633,1.1982,1.5352,1.5313
			s1.3857,0.5,2.1406,0.5c0.6563,0,1.2969-0.126,1.9219-0.3789s1.0986-0.5225,1.4219-0.8086v-2.1328H53.4826z"/>
		<path d="M66.0685,93.9464l1.4531,0.1797c-0.2295,0.8486-0.6533,1.5078-1.2734,1.9766s-1.4111,0.7031-2.375,0.7031
			c-1.2139,0-2.1758-0.374-2.8867-1.1211s-1.0664-1.7959-1.0664-3.1445c0-1.3955,0.3594-2.4795,1.0781-3.25
			s1.6514-1.1563,2.7969-1.1563c1.1094,0,2.0156,0.3779,2.7187,1.1328s1.0547,1.8174,1.0547,3.1875
			c0,0.083-0.0029,0.208-0.0078,0.375h-6.1875c0.0518,0.9111,0.3096,1.6094,0.7734,2.0938s1.042,0.7266,1.7344,0.7266
			c0.5156,0,0.9561-0.1357,1.3203-0.4063S65.8547,94.5402,66.0685,93.9464z M61.4513,91.673h4.6328
			c-0.0625-0.6982-0.2393-1.2217-0.5313-1.5703c-0.4482-0.542-1.0283-0.8125-1.7422-0.8125c-0.6455,0-1.1885,0.2158-1.6289,0.6484
			S61.4982,90.9494,61.4513,91.673z"/>
		<path d="M69.2717,96.6183v-8.2969h1.2656v1.2578c0.3232-0.5889,0.6211-0.9766,0.8945-1.1641s0.5742-0.2813,0.9023-0.2813
			c0.4736,0,0.9561,0.1514,1.4453,0.4531l-0.4844,1.3047c-0.3438-0.2031-0.6875-0.3047-1.0313-0.3047
			c-0.3076,0-0.583,0.0928-0.8281,0.2773s-0.4189,0.4414-0.5234,0.7695c-0.1563,0.5-0.2344,1.0469-0.2344,1.6406v4.3438H69.2717z"/>
		<path d="M80.2951,93.9464l1.4531,0.1797c-0.2295,0.8486-0.6533,1.5078-1.2734,1.9766s-1.4111,0.7031-2.375,0.7031
			c-1.2139,0-2.1758-0.374-2.8867-1.1211s-1.0664-1.7959-1.0664-3.1445c0-1.3955,0.3594-2.4795,1.0781-3.25
			s1.6514-1.1563,2.7969-1.1563c1.1094,0,2.0156,0.3779,2.7188,1.1328s1.0547,1.8174,1.0547,3.1875
			c0,0.083-0.0029,0.208-0.0078,0.375h-6.1875c0.0518,0.9111,0.3096,1.6094,0.7734,2.0938s1.042,0.7266,1.7344,0.7266
			c0.5156,0,0.9561-0.1357,1.3203-0.4063S80.0812,94.5402,80.2951,93.9464z M75.6779,91.673h4.6328
			c-0.0625-0.6982-0.2393-1.2217-0.5313-1.5703c-0.4482-0.542-1.0283-0.8125-1.7422-0.8125c-0.6455,0-1.1885,0.2158-1.6289,0.6484
			S75.7248,90.9494,75.6779,91.673z"/>
		<path d="M83.5138,96.6183v-8.2969h1.2656v1.1797c0.6094-0.9111,1.4893-1.3672,2.6406-1.3672c0.5,0,0.96,0.0898,1.3789,0.2695
			s0.7334,0.415,0.9414,0.707s0.3545,0.6377,0.4375,1.0391c0.0518,0.2607,0.0781,0.7158,0.0781,1.3672v5.1016h-1.4063v-5.0469
			c0-0.5732-0.0547-1.001-0.1641-1.2852s-0.3037-0.5107-0.582-0.6797s-0.6055-0.2539-0.9805-0.2539
			c-0.5986,0-1.1162,0.1904-1.5508,0.5703s-0.6523,1.1016-0.6523,2.1641v4.5313H83.5138z"/>
		<path d="M97.8263,93.5792l1.3828,0.1797c-0.1514,0.9531-0.5381,1.6992-1.1602,2.2383s-1.3867,0.8086-2.293,0.8086
			c-1.1357,0-2.0479-0.3711-2.7383-1.1133s-1.0352-1.8057-1.0352-3.1914c0-0.8955,0.1484-1.6797,0.4453-2.3516
			s0.749-1.1758,1.3555-1.5117s1.2666-0.5039,1.9805-0.5039c0.9014,0,1.6377,0.2275,2.2109,0.6836s0.9404,1.1025,1.1016,1.9414
			l-1.3672,0.2109c-0.1299-0.5576-0.3604-0.9766-0.6914-1.2578s-0.7305-0.4219-1.1992-0.4219c-0.708,0-1.2842,0.2539-1.7266,0.7617
			s-0.6641,1.3115-0.6641,2.4102c0,1.1143,0.2139,1.9248,0.6406,2.4297s0.9844,0.7578,1.6719,0.7578
			c0.5518,0,1.0127-0.1689,1.3828-0.5078S97.7277,94.2824,97.8263,93.5792z"/>
		<path d="M100.4201,86.7824v-1.6172h1.4063v1.6172H100.4201z M100.4201,96.6183v-8.2969h1.4063v8.2969H100.4201z"/>
		<path d="M109.381,95.5949c-0.5205,0.4424-1.0225,0.7549-1.5039,0.9375s-0.999,0.2734-1.5508,0.2734
			c-0.9111,0-1.6123-0.2227-2.1016-0.668s-0.7344-1.0146-0.7344-1.707c0-0.4063,0.0928-0.7773,0.2773-1.1133
			s0.4268-0.6055,0.7266-0.8086s0.6367-0.3564,1.0117-0.4609c0.2764-0.0732,0.6924-0.1436,1.25-0.2109
			c1.1357-0.1357,1.9717-0.2969,2.5078-0.4844c0.0049-0.1924,0.0078-0.3154,0.0078-0.3672c0-0.5732-0.1328-0.9766-0.3984-1.2109
			c-0.3594-0.3174-0.8936-0.4766-1.6016-0.4766c-0.6611,0-1.1494,0.1162-1.4648,0.3477s-0.5479,0.6416-0.6992,1.2305l-1.375-0.1875
			c0.125-0.5889,0.3311-1.0635,0.6172-1.4258s0.7002-0.6406,1.2422-0.8359s1.1689-0.293,1.8828-0.293
			c0.708,0,1.2842,0.083,1.7266,0.25s0.7686,0.376,0.9766,0.6289s0.3545,0.5713,0.4375,0.957
			c0.0469,0.2393,0.0703,0.6719,0.0703,1.2969v1.875c0,1.3076,0.0303,2.1338,0.0898,2.4805s0.1787,0.6787,0.3555,0.9961h-1.4688
			C109.5168,96.3263,109.423,95.9855,109.381,95.5949z M109.2638,92.4542c-0.5107,0.208-1.2764,0.3857-2.2969,0.5313
			c-0.5781,0.083-0.9873,0.1768-1.2266,0.2813s-0.4248,0.2568-0.5547,0.457s-0.1953,0.4229-0.1953,0.668
			c0,0.375,0.1416,0.6875,0.4258,0.9375s0.6992,0.375,1.2461,0.375c0.542,0,1.0234-0.1182,1.4453-0.3555
			s0.7314-0.5615,0.9297-0.9727c0.1514-0.3174,0.2266-0.7861,0.2266-1.4063V92.4542z"/>
		<path d="M50.2873,115.8175v-11.4531h4.2969c0.875,0,1.5771,0.1162,2.1055,0.3477s0.9424,0.5889,1.2422,1.0703
			s0.4492,0.9854,0.4492,1.5117c0,0.4893-0.1328,0.9502-0.3984,1.3828s-0.667,0.7813-1.2031,1.0469
			c0.6924,0.2031,1.2256,0.5498,1.5977,1.0391s0.5586,1.0674,0.5586,1.7344c0,0.5361-0.1133,1.0352-0.3398,1.4961
			s-0.5068,0.8164-0.8398,1.0664s-0.751,0.4385-1.2539,0.5664s-1.1182,0.1914-1.8477,0.1914H50.2873z M51.8029,109.1769h2.4766
			c0.6719,0,1.1533-0.0439,1.4453-0.1328c0.3857-0.1143,0.6758-0.3047,0.8711-0.5703s0.293-0.5986,0.293-1
			c0-0.3799-0.0908-0.7148-0.2734-1.0039s-0.4424-0.4873-0.7813-0.5938s-0.9189-0.1602-1.7422-0.1602h-2.2891V109.1769z
			 M51.8029,114.466h2.8516c0.4893,0,0.833-0.0186,1.0313-0.0547c0.3486-0.0625,0.6406-0.167,0.875-0.3125
			s0.4268-0.3584,0.5781-0.6367s0.2266-0.6006,0.2266-0.9648c0-0.4268-0.1094-0.7979-0.3281-1.1133s-0.5225-0.5361-0.9102-0.6641
			s-0.9463-0.1914-1.6758-0.1914h-2.6484V114.466z"/>
		<path d="M66.256,114.7941c-0.5205,0.4424-1.0225,0.7549-1.5039,0.9375s-0.999,0.2734-1.5508,0.2734
			c-0.9111,0-1.6123-0.2227-2.1016-0.668s-0.7344-1.0146-0.7344-1.707c0-0.4063,0.0928-0.7773,0.2773-1.1133
			s0.4268-0.6055,0.7266-0.8086s0.6367-0.3564,1.0117-0.4609c0.2764-0.0732,0.6924-0.1436,1.25-0.2109
			c1.1357-0.1357,1.9717-0.2969,2.5078-0.4844c0.0049-0.1924,0.0078-0.3154,0.0078-0.3672c0-0.5732-0.1328-0.9766-0.3984-1.2109
			c-0.3594-0.3174-0.8936-0.4766-1.6016-0.4766c-0.6611,0-1.1494,0.1162-1.4648,0.3477s-0.5479,0.6416-0.6992,1.2305l-1.375-0.1875
			c0.125-0.5889,0.3311-1.0635,0.6172-1.4258s0.7002-0.6406,1.2422-0.8359s1.1689-0.293,1.8828-0.293
			c0.708,0,1.2842,0.083,1.7266,0.25s0.7686,0.376,0.9766,0.6289s0.3545,0.5713,0.4375,0.957
			c0.0469,0.2393,0.0703,0.6719,0.0703,1.2969v1.875c0,1.3076,0.0303,2.1338,0.0898,2.4805s0.1787,0.6787,0.3555,0.9961h-1.4688
			C66.3918,115.5255,66.298,115.1847,66.256,114.7941z M66.1388,111.6535c-0.5107,0.208-1.2764,0.3857-2.2969,0.5313
			c-0.5781,0.083-0.9873,0.1768-1.2266,0.2813s-0.4248,0.2568-0.5547,0.457s-0.1953,0.4229-0.1953,0.668
			c0,0.375,0.1416,0.6875,0.4258,0.9375s0.6992,0.375,1.2461,0.375c0.542,0,1.0234-0.1182,1.4453-0.3555
			s0.7314-0.5615,0.9297-0.9727c0.1514-0.3174,0.2266-0.7861,0.2266-1.4063V111.6535z M63.4045,106.4894l1.0391-2.1875h1.8438
			l-1.7188,2.1875H63.4045z"/>
		<path d="M69.1779,113.341l1.3906-0.2188c0.0781,0.5576,0.2959,0.9844,0.6523,1.2813s0.8555,0.4453,1.4961,0.4453
			c0.6455,0,1.125-0.1318,1.4375-0.3945s0.4688-0.5713,0.4688-0.9258c0-0.3174-0.1377-0.5674-0.4141-0.75
			c-0.1924-0.125-0.6719-0.2842-1.4375-0.4766c-1.0313-0.2607-1.7461-0.4854-2.1445-0.6758s-0.7002-0.4531-0.9063-0.7891
			s-0.3086-0.707-0.3086-1.1133c0-0.3701,0.085-0.7119,0.2539-1.0273s0.3994-0.5771,0.6914-0.7852
			c0.2188-0.1611,0.5166-0.2979,0.8945-0.4102s0.7822-0.168,1.2148-0.168c0.6514,0,1.2227,0.0938,1.7148,0.2813
			s0.8555,0.4414,1.0898,0.7617s0.3955,0.749,0.4844,1.2852l-1.375,0.1875c-0.0625-0.4268-0.2432-0.7607-0.543-1
			s-0.7227-0.3594-1.2695-0.3594c-0.6455,0-1.1064,0.1064-1.3828,0.3203s-0.4141,0.4639-0.4141,0.75
			c0,0.1826,0.0576,0.3467,0.1719,0.4922c0.1143,0.1514,0.2939,0.2764,0.5391,0.375c0.1406,0.0518,0.5547,0.1719,1.2422,0.3594
			c0.9951,0.2656,1.6885,0.4834,2.082,0.6523s0.7021,0.415,0.9258,0.7383s0.3359,0.7236,0.3359,1.2031
			c0,0.4688-0.1367,0.9102-0.4102,1.3242s-0.668,0.7344-1.1836,0.9609s-1.0986,0.3398-1.75,0.3398
			c-1.0781,0-1.8994-0.2236-2.4648-0.6719S69.3342,114.2208,69.1779,113.341z"/>
		<path d="M77.7482,105.9816v-1.6172h1.4063v1.6172H77.7482z M77.7482,115.8175v-8.2969h1.4063v8.2969H77.7482z"/>
		<path d="M86.7092,112.7785l1.3828,0.1797c-0.1514,0.9531-0.5381,1.6992-1.1602,2.2383s-1.3867,0.8086-2.293,0.8086
			c-1.1357,0-2.0479-0.3711-2.7383-1.1133s-1.0352-1.8057-1.0352-3.1914c0-0.8955,0.1484-1.6797,0.4453-2.3516
			s0.749-1.1758,1.3555-1.5117s1.2666-0.5039,1.9805-0.5039c0.9014,0,1.6377,0.2275,2.2109,0.6836s0.9404,1.1025,1.1016,1.9414
			l-1.3672,0.2109c-0.1299-0.5576-0.3604-0.9766-0.6914-1.2578s-0.7305-0.4219-1.1992-0.4219c-0.708,0-1.2842,0.2539-1.7266,0.7617
			s-0.6641,1.3115-0.6641,2.4102c0,1.1143,0.2139,1.9248,0.6406,2.4297s0.9844,0.7578,1.6719,0.7578
			c0.5518,0,1.0127-0.1689,1.3828-0.5078S86.6105,113.4816,86.7092,112.7785z"/>
		<path d="M88.7717,111.6691c0-1.5361,0.4268-2.6748,1.2813-3.4141c0.7139-0.6143,1.583-0.9219,2.6094-0.9219
			c1.1406,0,2.0732,0.374,2.7969,1.1211s1.0859,1.7803,1.0859,3.0977c0,1.0674-0.1602,1.9072-0.4805,2.5195
			s-0.7861,1.0869-1.3984,1.4258s-1.2803,0.5078-2.0039,0.5078c-1.1611,0-2.1006-0.3721-2.8164-1.1172
			S88.7717,113.0704,88.7717,111.6691z M90.217,111.6691c0,1.0625,0.2314,1.8584,0.6953,2.3867s1.0469,0.793,1.75,0.793
			c0.6982,0,1.2783-0.2656,1.7422-0.7969s0.6953-1.3408,0.6953-2.4297c0-1.0264-0.2334-1.8037-0.6992-2.332
			s-1.0459-0.793-1.7383-0.793c-0.7031,0-1.2861,0.2627-1.75,0.7891S90.217,110.6066,90.217,111.6691z"/>
		<path d="M97.631,113.341l1.3906-0.2188c0.0781,0.5576,0.2959,0.9844,0.6523,1.2813s0.8555,0.4453,1.4961,0.4453
			c0.6455,0,1.125-0.1318,1.4375-0.3945s0.4688-0.5713,0.4688-0.9258c0-0.3174-0.1377-0.5674-0.4141-0.75
			c-0.1924-0.125-0.6719-0.2842-1.4375-0.4766c-1.0313-0.2607-1.7461-0.4854-2.1445-0.6758s-0.7002-0.4531-0.9063-0.7891
			s-0.3086-0.707-0.3086-1.1133c0-0.3701,0.085-0.7119,0.2539-1.0273s0.3994-0.5771,0.6914-0.7852
			c0.2188-0.1611,0.5166-0.2979,0.8945-0.4102s0.7822-0.168,1.2148-0.168c0.6514,0,1.2227,0.0938,1.7148,0.2813
			s0.8555,0.4414,1.0898,0.7617s0.3955,0.749,0.4844,1.2852l-1.375,0.1875c-0.0625-0.4268-0.2432-0.7607-0.543-1
			s-0.7227-0.3594-1.2695-0.3594c-0.6455,0-1.1064,0.1064-1.3828,0.3203s-0.4141,0.4639-0.4141,0.75
			c0,0.1826,0.0576,0.3467,0.1719,0.4922c0.1143,0.1514,0.2939,0.2764,0.5391,0.375c0.1406,0.0518,0.5547,0.1719,1.2422,0.3594
			c0.9951,0.2656,1.6885,0.4834,2.082,0.6523s0.7021,0.415,0.9258,0.7383s0.3359,0.7236,0.3359,1.2031
			c0,0.4688-0.1367,0.9102-0.4102,1.3242s-0.668,0.7344-1.1836,0.9609s-1.0986,0.3398-1.75,0.3398
			c-1.0781,0-1.8994-0.2236-2.4648-0.6719S97.7873,114.2208,97.631,113.341z"/>
		<path d="M106.592,115.8175v-1.6016h1.6016v1.6016H106.592z"/>
	</g>
</g>
</svg>
