<?xml version="1.0" encoding="utf-8"?>
<!-- Generator: Adobe Illustrator 21.0.0, SVG Export Plug-In . SVG Version: 6.00 Build 0)  -->
<svg version="1.1" id="Capa_1" xmlns="http://www.w3.org/2000/svg" xmlns:xlink="http://www.w3.org/1999/xlink" x="0px" y="0px"
	 viewBox="0 0 144.7295 141.3711" style="enable-background:new 0 0 144.7295 141.3711;" xml:space="preserve">
<g>
	<polygon style="opacity:0.35;fill:#D1D3D2;" points="33.3271,9.6699 11.1572,9.6699 11.1572,66.4805 11.1572,141.3711 
		144.7295,141.3711 144.7295,66.4805 144.7295,9.6699 	"/>
	<rect style="fill:#FFFFFF;" width="133.5723" height="131.7022"/>
	<rect style="fill:#D66B09;" width="133.5723" height="56.8115"/>
	<g>
		<path style="fill:#FFCF48;" d="M115.7012,50.8946H34.9209c-16.2813,0-29.4785-13.1983-29.4785-29.4786v-2.9072
			c0-6.8799,5.5771-12.457,12.457-12.457h80.7803c16.2803,0,29.4795,13.1982,29.4795,29.4795v2.9062
			C128.1592,45.3174,122.5811,50.8946,115.7012,50.8946z"/>
	</g>
	<g>
		<path style="fill:#F15A24;" d="M39.506,24.5841V13.1309h2.25l4.6875,7.6484v-7.6484h2.1484v11.4531h-2.3203l-4.6172-7.4688v7.4688
			H39.506z"/>
		<path style="fill:#F15A24;" d="M51.0216,15.1622v-2.0313h2.1953v2.0313H51.0216z M51.0216,24.5841v-8.2969h2.1953v8.2969H51.0216z
			"/>
		<path style="fill:#F15A24;" d="M57.7482,24.5841l-3.3438-8.2969h2.3047l1.5625,4.2344l0.4531,1.4141
			c0.1201-0.3594,0.1953-0.5967,0.2266-0.7109c0.0732-0.2344,0.1514-0.4688,0.2344-0.7031l1.5781-4.2344h2.2578l-3.2969,8.2969
			H57.7482z"/>
		<path style="fill:#F15A24;" d="M69.1701,21.9434l2.1875,0.3672c-0.2813,0.8018-0.7256,1.4131-1.332,1.832
			s-1.3662,0.6289-2.2773,0.6289c-1.4424,0-2.5107-0.4717-3.2031-1.4141c-0.5469-0.7549-0.8203-1.708-0.8203-2.8594
			c0-1.375,0.3594-2.4521,1.0781-3.2305s1.6279-1.168,2.7266-1.168c1.2344,0,2.208,0.4072,2.9219,1.2227
			s1.0547,2.0635,1.0234,3.7461h-5.5c0.0156,0.6514,0.1924,1.1572,0.5313,1.5195s0.7607,0.543,1.2656,0.543
			c0.3438,0,0.6328-0.0938,0.8672-0.2813S69.05,22.3604,69.1701,21.9434z M69.2951,19.7247
			c-0.0156-0.6357-0.1797-1.1182-0.4922-1.4492s-0.6924-0.4961-1.1406-0.4961c-0.4795,0-0.875,0.1748-1.1875,0.5234
			s-0.4658,0.8232-0.4609,1.4219H69.2951z"/>
		<path style="fill:#F15A24;" d="M73.2638,24.5841V13.1309h2.1953v11.4531H73.2638z"/>
		<path style="fill:#F15A24;" d="M87.3029,24.5841h-2.1953v-8.2734c-0.8018,0.75-1.7471,1.3047-2.8359,1.6641v-1.9922
			c0.5732-0.1875,1.1953-0.543,1.8672-1.0664s1.1328-1.1338,1.3828-1.832h1.7813V24.5841z"/>
		<path style="fill:#F15A24;" d="M42.5295,39.7842V28.3311h2.3125v11.4531H42.5295z"/>
		<path style="fill:#F15A24;" d="M54.5763,39.7842H52.381v-4.2344c0-0.8955-0.0469-1.4756-0.1406-1.7383
			s-0.2461-0.4678-0.457-0.6133s-0.4648-0.2188-0.7617-0.2188c-0.3799,0-0.7217,0.1045-1.0234,0.3125s-0.5088,0.4844-0.6211,0.8281
			s-0.168,0.9795-0.168,1.9063v3.7578h-2.1953v-8.2969h2.0391v1.2188c0.7236-0.9375,1.6357-1.4063,2.7344-1.4063
			c0.4844,0,0.9268,0.0869,1.3281,0.2617s0.7041,0.3975,0.9102,0.668c0.2061,0.2705,0.3486,0.5781,0.4297,0.9219
			s0.1211,0.8359,0.1211,1.4766V39.7842z"/>
		<path style="fill:#F15A24;" d="M56.8029,30.3624v-2.0313h2.1953v2.0313H56.8029z M56.8029,39.7842v-8.2969h2.1953v8.2969H56.8029z
			"/>
		<path style="fill:#F15A24;" d="M68.4826,33.9405l-2.1641,0.3906c-0.0732-0.4326-0.2383-0.7578-0.4961-0.9766
			s-0.5928-0.3281-1.0039-0.3281c-0.5469,0-0.9834,0.1885-1.3086,0.5664s-0.4883,1.0088-0.4883,1.8945
			c0,0.9844,0.165,1.6797,0.4961,2.0859s0.7744,0.6094,1.332,0.6094c0.417,0,0.7578-0.1182,1.0234-0.3555
			s0.4531-0.6445,0.5625-1.2227l2.1563,0.3672c-0.2236,0.9893-0.6533,1.7373-1.2891,2.2422s-1.4873,0.7578-2.5547,0.7578
			c-1.2139,0-2.1807-0.3828-2.9023-1.1484s-1.082-1.8252-1.082-3.1797c0-1.3701,0.3623-2.4365,1.0859-3.1992
			c0.7236-0.7627,1.7031-1.1445,2.9375-1.1445c1.0107,0,1.8135,0.2178,2.4102,0.6523
			C67.7941,32.3868,68.2218,33.0499,68.4826,33.9405z"/>
		<path style="fill:#F15A24;" d="M70.1466,30.3624v-2.0313h2.1953v2.0313H70.1466z M70.1466,39.7842v-8.2969h2.1953v8.2969H70.1466z
			"/>
		<path style="fill:#F15A24;" d="M76.2326,34.0186l-1.9922-0.3594c0.2236-0.8018,0.6094-1.3955,1.1563-1.7813
			c0.5469-0.3857,1.3594-0.5781,2.4375-0.5781c0.9795,0,1.708,0.1162,2.1875,0.3477s0.8164,0.5264,1.0117,0.8828
			s0.293,1.0117,0.293,1.9648l-0.0234,2.5625c0,0.7295,0.0352,1.2666,0.1055,1.6133s0.2021,0.7178,0.3945,1.1133H79.631
			c-0.0576-0.1455-0.1279-0.3623-0.2109-0.6484c-0.0361-0.1299-0.0625-0.2158-0.0781-0.2578
			c-0.375,0.3643-0.7764,0.6377-1.2031,0.8203s-0.8828,0.2734-1.3672,0.2734c-0.8545,0-1.5273-0.2314-2.0195-0.6953
			s-0.7383-1.0498-0.7383-1.7578c0-0.4688,0.1123-0.8867,0.3359-1.2539s0.5381-0.6484,0.9414-0.8438s0.9854-0.3662,1.7461-0.5117
			c1.0264-0.1924,1.7373-0.3721,2.1328-0.5391v-0.2188c0-0.4219-0.1045-0.7227-0.3125-0.9023s-0.6016-0.2695-1.1797-0.2695
			c-0.3906,0-0.6953,0.0771-0.9141,0.2305S76.3683,33.6329,76.2326,34.0186z M79.1701,35.7999
			c-0.2813,0.0938-0.7266,0.2061-1.3359,0.3359s-1.0078,0.2578-1.1953,0.3828c-0.2861,0.2031-0.4297,0.4609-0.4297,0.7734
			c0,0.3076,0.1143,0.5732,0.3438,0.7969s0.5205,0.3359,0.875,0.3359c0.3955,0,0.7734-0.1299,1.1328-0.3906
			c0.2656-0.1982,0.4404-0.4404,0.5234-0.7266c0.0576-0.1875,0.0859-0.5439,0.0859-1.0703V35.7999z"/>
		<path style="fill:#F15A24;" d="M83.4904,39.7842V28.3311h2.1953v11.4531H83.4904z"/>
	</g>
	<g>
		<path d="M37.5959,73.418V61.9649h4.3203c0.7607,0,1.3408,0.0361,1.7422,0.1094c0.5625,0.0938,1.0342,0.2725,1.4141,0.5352
			s0.6865,0.6318,0.918,1.1055s0.3477,0.9951,0.3477,1.5625c0,0.9736-0.3096,1.7979-0.9297,2.4727s-1.7393,1.0117-3.3594,1.0117
			h-2.9375v4.6563H37.5959z M39.1115,67.4102h2.9609c0.9795,0,1.6748-0.1826,2.0859-0.5469s0.6172-0.8779,0.6172-1.5391
			c0-0.4795-0.1211-0.8896-0.3633-1.2305s-0.5615-0.5664-0.957-0.6758c-0.2549-0.0674-0.7266-0.1016-1.4141-0.1016h-2.9297V67.4102z
			"/>
		<path d="M48.0724,73.418v-8.2969h1.2656v1.2578c0.3232-0.5889,0.6211-0.9766,0.8945-1.1641s0.5742-0.2813,0.9023-0.2813
			c0.4736,0,0.9561,0.1514,1.4453,0.4531l-0.4844,1.3047c-0.3438-0.2031-0.6875-0.3047-1.0313-0.3047
			c-0.3076,0-0.583,0.0928-0.8281,0.2773s-0.4189,0.4414-0.5234,0.7695c-0.1563,0.5-0.2344,1.0469-0.2344,1.6406v4.3438H48.0724z"/>
		<path d="M52.8927,69.2696c0-1.5361,0.4268-2.6748,1.2813-3.4141c0.7139-0.6143,1.583-0.9219,2.6094-0.9219
			c1.1406,0,2.0732,0.374,2.7969,1.1211s1.0859,1.7803,1.0859,3.0977c0,1.0674-0.1602,1.9072-0.4805,2.5195
			s-0.7861,1.0869-1.3984,1.4258s-1.2803,0.5078-2.0039,0.5078c-1.1611,0-2.1006-0.3721-2.8164-1.1172
			S52.8927,70.671,52.8927,69.2696z M54.338,69.2696c0,1.0625,0.2314,1.8584,0.6953,2.3867s1.0469,0.793,1.75,0.793
			c0.6982,0,1.2783-0.2656,1.7422-0.7969s0.6953-1.3408,0.6953-2.4297c0-1.0264-0.2334-1.8037-0.6992-2.332
			s-1.0459-0.793-1.7383-0.793c-0.7031,0-1.2861,0.2627-1.75,0.7891S54.338,68.2071,54.338,69.2696z"/>
		<path d="M67.7287,70.379l1.3828,0.1797c-0.1514,0.9531-0.5381,1.6992-1.1602,2.2383s-1.3867,0.8086-2.293,0.8086
			c-1.1357,0-2.0478-0.3711-2.7383-1.1133s-1.0352-1.8057-1.0352-3.1914c0-0.8955,0.1484-1.6797,0.4453-2.3516
			s0.749-1.1758,1.3555-1.5117c0.6064-0.3359,1.2666-0.5039,1.9805-0.5039c0.9014,0,1.6377,0.2275,2.2109,0.6836
			s0.9404,1.1025,1.1016,1.9414l-1.3672,0.2109c-0.1299-0.5576-0.3604-0.9766-0.6914-1.2578s-0.7305-0.4219-1.1992-0.4219
			c-0.708,0-1.2842,0.2539-1.7266,0.7617c-0.4424,0.5078-0.6641,1.3115-0.6641,2.4102c0,1.1143,0.2139,1.9248,0.6406,2.4297
			c0.4268,0.5049,0.9844,0.7578,1.6719,0.7578c0.5518,0,1.0127-0.1689,1.3828-0.5078S67.63,71.0821,67.7287,70.379z"/>
		<path d="M75.9943,70.7462l1.4531,0.1797c-0.2295,0.8486-0.6533,1.5078-1.2734,1.9766s-1.4111,0.7031-2.375,0.7031
			c-1.2139,0-2.1758-0.374-2.8867-1.1211s-1.0664-1.7959-1.0664-3.1445c0-1.3955,0.3594-2.4795,1.0781-3.25
			s1.6514-1.1563,2.7969-1.1563c1.1094,0,2.0156,0.3779,2.7188,1.1328s1.0547,1.8174,1.0547,3.1875
			c0,0.083-0.0029,0.208-0.0078,0.375H71.299c0.0518,0.9111,0.3096,1.6094,0.7734,2.0938s1.042,0.7266,1.7344,0.7266
			c0.5156,0,0.9561-0.1357,1.3203-0.4063S75.7804,71.3399,75.9943,70.7462z M71.3771,68.4727h4.6328
			c-0.0625-0.6982-0.2393-1.2217-0.5313-1.5703c-0.4482-0.542-1.0283-0.8125-1.7422-0.8125c-0.6455,0-1.1885,0.2158-1.6289,0.6484
			S71.424,67.7491,71.3771,68.4727z"/>
		<path d="M78.6505,70.9415l1.3906-0.2188c0.0781,0.5576,0.2959,0.9844,0.6523,1.2813s0.8555,0.4453,1.4961,0.4453
			c0.6455,0,1.125-0.1318,1.4375-0.3945s0.4688-0.5713,0.4688-0.9258c0-0.3174-0.1377-0.5674-0.4141-0.75
			c-0.1924-0.125-0.6719-0.2842-1.4375-0.4766c-1.0313-0.2607-1.7461-0.4854-2.1445-0.6758s-0.7002-0.4531-0.9063-0.7891
			s-0.3086-0.707-0.3086-1.1133c0-0.3701,0.085-0.7119,0.2539-1.0273s0.3994-0.5771,0.6914-0.7852
			c0.2188-0.1611,0.5166-0.2979,0.8945-0.4102s0.7822-0.168,1.2148-0.168c0.6514,0,1.2227,0.0938,1.7148,0.2813
			s0.8555,0.4414,1.0898,0.7617s0.3955,0.749,0.4844,1.2852l-1.375,0.1875c-0.0625-0.4268-0.2432-0.7607-0.543-1
			s-0.7227-0.3594-1.2695-0.3594c-0.6455,0-1.1064,0.1064-1.3828,0.3203s-0.4141,0.4639-0.4141,0.75
			c0,0.1826,0.0576,0.3467,0.1719,0.4922c0.1143,0.1514,0.2939,0.2764,0.5391,0.375c0.1406,0.0518,0.5547,0.1719,1.2422,0.3594
			c0.9951,0.2656,1.6885,0.4834,2.082,0.6523s0.7021,0.415,0.9258,0.7383s0.3359,0.7236,0.3359,1.2031
			c0,0.4688-0.1367,0.9102-0.4102,1.3242s-0.668,0.7344-1.1836,0.9609s-1.0986,0.3398-1.75,0.3398
			c-1.0781,0-1.8994-0.2236-2.4648-0.6719S78.8068,71.8214,78.6505,70.9415z"/>
		<path d="M86.6896,69.2696c0-1.5361,0.4268-2.6748,1.2813-3.4141c0.7139-0.6143,1.583-0.9219,2.6094-0.9219
			c1.1406,0,2.0732,0.374,2.7969,1.1211s1.0859,1.7803,1.0859,3.0977c0,1.0674-0.1602,1.9072-0.4805,2.5195
			s-0.7861,1.0869-1.3984,1.4258s-1.2803,0.5078-2.0039,0.5078c-1.1611,0-2.1006-0.3721-2.8164-1.1172
			S86.6896,70.671,86.6896,69.2696z M88.1349,69.2696c0,1.0625,0.2314,1.8584,0.6953,2.3867s1.0469,0.793,1.75,0.793
			c0.6982,0,1.2783-0.2656,1.7422-0.7969s0.6953-1.3408,0.6953-2.4297c0-1.0264-0.2334-1.8037-0.6992-2.332
			s-1.0459-0.793-1.7383-0.793c-0.7031,0-1.2861,0.2627-1.75,0.7891S88.1349,68.2071,88.1349,69.2696z"/>
		<path d="M95.549,70.9415l1.3906-0.2188c0.0781,0.5576,0.2959,0.9844,0.6523,1.2813s0.8555,0.4453,1.4961,0.4453
			c0.6455,0,1.125-0.1318,1.4375-0.3945s0.4688-0.5713,0.4688-0.9258c0-0.3174-0.1377-0.5674-0.4141-0.75
			c-0.1924-0.125-0.6719-0.2842-1.4375-0.4766c-1.0313-0.2607-1.7461-0.4854-2.1445-0.6758s-0.7002-0.4531-0.9063-0.7891
			s-0.3086-0.707-0.3086-1.1133c0-0.3701,0.085-0.7119,0.2539-1.0273s0.3994-0.5771,0.6914-0.7852
			c0.2188-0.1611,0.5166-0.2979,0.8945-0.4102s0.7822-0.168,1.2148-0.168c0.6514,0,1.2227,0.0938,1.7148,0.2813
			s0.8555,0.4414,1.0898,0.7617s0.3955,0.749,0.4844,1.2852l-1.375,0.1875c-0.0625-0.4268-0.2432-0.7607-0.543-1
			s-0.7227-0.3594-1.2695-0.3594c-0.6455,0-1.1064,0.1064-1.3828,0.3203s-0.4141,0.4639-0.4141,0.75
			c0,0.1826,0.0576,0.3467,0.1719,0.4922c0.1143,0.1514,0.2939,0.2764,0.5391,0.375c0.1406,0.0518,0.5547,0.1719,1.2422,0.3594
			c0.9951,0.2656,1.6885,0.4834,2.082,0.6523s0.7021,0.415,0.9258,0.7383s0.3359,0.7236,0.3359,1.2031
			c0,0.4688-0.1367,0.9102-0.4102,1.3242s-0.668,0.7344-1.1836,0.9609s-1.0986,0.3398-1.75,0.3398
			c-1.0781,0-1.8994-0.2236-2.4648-0.6719S95.7052,71.8214,95.549,70.9415z"/>
		<path d="M25.3927,92.6182v-8.2969h1.2656v1.2578c0.3232-0.5889,0.6211-0.9766,0.8945-1.1641s0.5742-0.2813,0.9023-0.2813
			c0.4736,0,0.9561,0.1514,1.4453,0.4531l-0.4844,1.3047c-0.3438-0.2031-0.6875-0.3047-1.0313-0.3047
			c-0.3076,0-0.583,0.0928-0.8281,0.2773s-0.4189,0.4414-0.5234,0.7695c-0.1563,0.5-0.2344,1.0469-0.2344,1.6406v4.3438H25.3927z"/>
		<path d="M36.4162,89.9464l1.4531,0.1797c-0.2295,0.8486-0.6533,1.5078-1.2734,1.9766s-1.4111,0.7031-2.375,0.7031
			c-1.2139,0-2.1758-0.374-2.8867-1.1211s-1.0664-1.7959-1.0664-3.1445c0-1.3955,0.3594-2.4795,1.0781-3.25
			s1.6514-1.1563,2.7969-1.1563c1.1094,0,2.0156,0.3779,2.7188,1.1328s1.0547,1.8174,1.0547,3.1875
			c0,0.083-0.0029,0.208-0.0078,0.375h-6.1875c0.0518,0.9111,0.3096,1.6094,0.7734,2.0938s1.042,0.7266,1.7344,0.7266
			c0.5156,0,0.9561-0.1357,1.3203-0.4063S36.2023,90.5401,36.4162,89.9464z M31.799,87.6729h4.6328
			c-0.0625-0.6982-0.2393-1.2217-0.5313-1.5703c-0.4482-0.542-1.0283-0.8125-1.7422-0.8125c-0.6455,0-1.1885,0.2158-1.6289,0.6484
			S31.8459,86.9493,31.799,87.6729z"/>
		<path d="M45.049,91.5948c-0.5205,0.4424-1.0225,0.7549-1.5039,0.9375s-0.999,0.2734-1.5508,0.2734
			c-0.9111,0-1.6123-0.2227-2.1016-0.668s-0.7344-1.0146-0.7344-1.707c0-0.4063,0.0928-0.7773,0.2773-1.1133
			s0.4268-0.6055,0.7266-0.8086s0.6367-0.3564,1.0117-0.4609c0.2764-0.0732,0.6924-0.1436,1.25-0.2109
			c1.1357-0.1357,1.9717-0.2969,2.5078-0.4844c0.0049-0.1924,0.0078-0.3154,0.0078-0.3672c0-0.5732-0.1328-0.9766-0.3984-1.2109
			c-0.3594-0.3174-0.8936-0.4766-1.6016-0.4766c-0.6611,0-1.1494,0.1162-1.4648,0.3477s-0.5479,0.6416-0.6992,1.2305l-1.375-0.1875
			c0.125-0.5889,0.3311-1.0635,0.6172-1.4258s0.7002-0.6406,1.2422-0.8359s1.1689-0.293,1.8828-0.293
			c0.708,0,1.2842,0.083,1.7266,0.25s0.7686,0.376,0.9766,0.6289s0.3545,0.5713,0.4375,0.957
			c0.0469,0.2393,0.0703,0.6719,0.0703,1.2969v1.875c0,1.3076,0.0303,2.1338,0.0898,2.4805s0.1787,0.6787,0.3555,0.9961h-1.4688
			C45.1847,92.3262,45.091,91.9854,45.049,91.5948z M44.9318,88.4542c-0.5107,0.208-1.2764,0.3857-2.2969,0.5313
			c-0.5781,0.083-0.9873,0.1768-1.2266,0.2813s-0.4248,0.2568-0.5547,0.457s-0.1953,0.4229-0.1953,0.668
			c0,0.375,0.1416,0.6875,0.4258,0.9375s0.6992,0.375,1.2461,0.375c0.542,0,1.0234-0.1182,1.4453-0.3555
			s0.7314-0.5615,0.9297-0.9727c0.1514-0.3174,0.2266-0.7861,0.2266-1.4063V88.4542z"/>
		<path d="M53.9474,89.5792l1.3828,0.1797c-0.1514,0.9531-0.5381,1.6992-1.1602,2.2383s-1.3867,0.8086-2.293,0.8086
			c-1.1357,0-2.0479-0.3711-2.7383-1.1133s-1.0352-1.8057-1.0352-3.1914c0-0.8955,0.1484-1.6797,0.4453-2.3516
			s0.749-1.1758,1.3555-1.5117s1.2666-0.5039,1.9805-0.5039c0.9014,0,1.6377,0.2275,2.2109,0.6836s0.9404,1.1025,1.1016,1.9414
			l-1.3672,0.2109c-0.1299-0.5576-0.3604-0.9766-0.6914-1.2578s-0.7305-0.4219-1.1992-0.4219c-0.708,0-1.2842,0.2539-1.7266,0.7617
			s-0.6641,1.3115-0.6641,2.4102c0,1.1143,0.2139,1.9248,0.6406,2.4297s0.9844,0.7578,1.6719,0.7578
			c0.5518,0,1.0127-0.1689,1.3828-0.5078S53.8488,90.2823,53.9474,89.5792z"/>
		<path d="M59.6037,91.3604l0.2031,1.2422c-0.3955,0.083-0.75,0.125-1.0625,0.125c-0.5107,0-0.9063-0.0811-1.1875-0.2422
			s-0.4795-0.374-0.5938-0.6367s-0.1719-0.8164-0.1719-1.6602v-4.7734h-1.0313v-1.0938h1.0313v-2.0547l1.3984-0.8438v2.8984h1.4141
			v1.0938h-1.4141v4.8516c0,0.4014,0.0244,0.6592,0.0742,0.7734s0.1299,0.2061,0.2422,0.2734s0.2725,0.1016,0.4805,0.1016
			C59.1427,91.4151,59.3488,91.3966,59.6037,91.3604z"/>
		<path d="M60.9865,82.7823v-1.6172h1.4063v1.6172H60.9865z M60.9865,92.6182v-8.2969h1.4063v8.2969H60.9865z"/>
		<path d="M66.838,92.6182l-3.1562-8.2969h1.4844l1.7813,4.9688c0.1924,0.5361,0.3701,1.0938,0.5313,1.6719
			c0.125-0.4375,0.2998-0.9639,0.5234-1.5781l1.8438-5.0625h1.4453l-3.1406,8.2969H66.838z"/>
		<path d="M72.0099,88.4698c0-1.5361,0.4268-2.6748,1.2813-3.4141c0.7139-0.6143,1.583-0.9219,2.6094-0.9219
			c1.1406,0,2.0732,0.374,2.7969,1.1211s1.0859,1.7803,1.0859,3.0977c0,1.0674-0.1602,1.9072-0.4805,2.5195
			s-0.7861,1.0869-1.3984,1.4258s-1.2803,0.5078-2.0039,0.5078c-1.1611,0-2.1006-0.3721-2.8164-1.1172
			S72.0099,89.8712,72.0099,88.4698z M73.4552,88.4698c0,1.0625,0.2314,1.8584,0.6953,2.3867s1.0469,0.793,1.75,0.793
			c0.6982,0,1.2783-0.2656,1.7422-0.7969s0.6953-1.3408,0.6953-2.4297c0-1.0264-0.2334-1.8037-0.6992-2.332
			s-1.0459-0.793-1.7383-0.793c-0.7031,0-1.2861,0.2627-1.75,0.7891S73.4552,87.4073,73.4552,88.4698z"/>
		<path d="M80.8693,90.1417l1.3906-0.2188c0.0781,0.5576,0.2959,0.9844,0.6523,1.2813s0.8555,0.4453,1.4961,0.4453
			c0.6455,0,1.125-0.1318,1.4375-0.3945s0.4688-0.5713,0.4688-0.9258c0-0.3174-0.1377-0.5674-0.4141-0.75
			c-0.1924-0.125-0.6719-0.2842-1.4375-0.4766c-1.0313-0.2607-1.7461-0.4854-2.1445-0.6758s-0.7002-0.4531-0.9063-0.7891
			s-0.3086-0.707-0.3086-1.1133c0-0.3701,0.085-0.7119,0.2539-1.0273S81.757,84.92,82.049,84.712
			c0.2188-0.1611,0.5166-0.2979,0.8945-0.4102s0.7822-0.168,1.2148-0.168c0.6514,0,1.2227,0.0938,1.7148,0.2813
			s0.8555,0.4414,1.0898,0.7617s0.3955,0.749,0.4844,1.2852l-1.375,0.1875c-0.0625-0.4268-0.2432-0.7607-0.543-1
			s-0.7227-0.3594-1.2695-0.3594c-0.6455,0-1.1064,0.1064-1.3828,0.3203s-0.4141,0.4639-0.4141,0.75
			c0,0.1826,0.0576,0.3467,0.1719,0.4922c0.1143,0.1514,0.2939,0.2764,0.5391,0.375c0.1406,0.0518,0.5547,0.1719,1.2422,0.3594
			c0.9951,0.2656,1.6885,0.4834,2.082,0.6523s0.7021,0.415,0.9258,0.7383s0.3359,0.7236,0.3359,1.2031
			c0,0.4688-0.1367,0.9102-0.4102,1.3242s-0.668,0.7344-1.1836,0.9609s-1.0986,0.3398-1.75,0.3398
			c-1.0781,0-1.8994-0.2236-2.4648-0.6719S81.0255,91.0216,80.8693,90.1417z"/>
		<path d="M89.799,92.6182v-1.6016h1.6016v1.6016c0,0.5889-0.1045,1.0635-0.3125,1.4258s-0.5391,0.6416-0.9922,0.8398
			l-0.3906-0.6016c0.2969-0.1299,0.5156-0.3213,0.6563-0.5742s0.2188-0.6162,0.2344-1.0898H89.799z"/>
		<path d="M98.3224,92.6182v-8.2969h1.2656v1.1797c0.6094-0.9111,1.4893-1.3672,2.6406-1.3672c0.5,0,0.96,0.0898,1.3789,0.2695
			s0.7334,0.415,0.9414,0.707s0.3545,0.6377,0.4375,1.0391c0.0518,0.2607,0.0781,0.7158,0.0781,1.3672v5.1016h-1.4063v-5.0469
			c0-0.5732-0.0547-1.001-0.1641-1.2852s-0.3037-0.5107-0.582-0.6797s-0.6055-0.2539-0.9805-0.2539
			c-0.5986,0-1.1162,0.1904-1.5508,0.5703s-0.6523,1.1016-0.6523,2.1641v4.5313H98.3224z"/>
		<path d="M106.6974,88.4698c0-1.5361,0.4268-2.6748,1.2813-3.4141c0.7139-0.6143,1.583-0.9219,2.6094-0.9219
			c1.1406,0,2.0732,0.374,2.7969,1.1211s1.0859,1.7803,1.0859,3.0977c0,1.0674-0.1602,1.9072-0.4805,2.5195
			s-0.7861,1.0869-1.3984,1.4258s-1.2803,0.5078-2.0039,0.5078c-1.1611,0-2.1006-0.3721-2.8164-1.1172
			S106.6974,89.8712,106.6974,88.4698z M108.1427,88.4698c0,1.0625,0.2314,1.8584,0.6953,2.3867s1.0469,0.793,1.75,0.793
			c0.6982,0,1.2783-0.2656,1.7422-0.7969s0.6953-1.3408,0.6953-2.4297c0-1.0264-0.2334-1.8037-0.6992-2.332
			s-1.0459-0.793-1.7383-0.793c-0.7031,0-1.2861,0.2627-1.75,0.7891S108.1427,87.4073,108.1427,88.4698z"/>
		<path d="M31.6193,114.9971v-11.4766h1.2813v1.0781c0.3018-0.4219,0.6436-0.7383,1.0234-0.9492s0.8408-0.3164,1.3828-0.3164
			c0.708,0,1.333,0.1826,1.875,0.5469s0.9502,0.8789,1.2266,1.543s0.4141,1.3916,0.4141,2.1836c0,0.8486-0.1523,1.6133-0.457,2.293
			s-0.7471,1.2002-1.3281,1.5625s-1.1914,0.543-1.832,0.543c-0.4688,0-0.8896-0.0986-1.2617-0.2969s-0.6787-0.4482-0.918-0.75
			v4.0391H31.6193z M32.8927,107.7159c0,1.0674,0.2158,1.8564,0.6484,2.3672s0.9561,0.7656,1.5703,0.7656
			c0.625,0,1.1602-0.2646,1.6055-0.793s0.668-1.3477,0.668-2.457c0-1.0576-0.2178-1.8486-0.6523-2.375s-0.9541-0.7891-1.5586-0.7891
			c-0.5986,0-1.1289,0.2803-1.5898,0.8398S32.8927,106.6485,32.8927,107.7159z"/>
		<path d="M40.4865,111.8175v-11.4531h1.4063v11.4531H40.4865z"/>
		<path d="M49.4865,110.794c-0.5205,0.4424-1.0225,0.7549-1.5039,0.9375s-0.999,0.2734-1.5508,0.2734
			c-0.9111,0-1.6123-0.2227-2.1016-0.668s-0.7344-1.0146-0.7344-1.707c0-0.4063,0.0928-0.7773,0.2773-1.1133
			s0.4268-0.6055,0.7266-0.8086s0.6367-0.3564,1.0117-0.4609c0.2764-0.0732,0.6924-0.1436,1.25-0.2109
			c1.1357-0.1357,1.9717-0.2969,2.5078-0.4844c0.0049-0.1924,0.0078-0.3154,0.0078-0.3672c0-0.5732-0.1328-0.9766-0.3984-1.2109
			c-0.3594-0.3174-0.8936-0.4766-1.6016-0.4766c-0.6611,0-1.1494,0.1162-1.4648,0.3477s-0.5479,0.6416-0.6992,1.2305l-1.375-0.1875
			c0.125-0.5889,0.3311-1.0635,0.6172-1.4258s0.7002-0.6406,1.2422-0.8359s1.1689-0.293,1.8828-0.293
			c0.708,0,1.2842,0.083,1.7266,0.25s0.7686,0.376,0.9766,0.6289s0.3545,0.5713,0.4375,0.957
			c0.0469,0.2393,0.0703,0.6719,0.0703,1.2969v1.875c0,1.3076,0.0303,2.1338,0.0898,2.4805s0.1787,0.6787,0.3555,0.9961h-1.4688
			C49.6222,111.5255,49.5285,111.1846,49.4865,110.794z M49.3693,107.6534c-0.5107,0.208-1.2764,0.3857-2.2969,0.5313
			c-0.5781,0.083-0.9873,0.1768-1.2266,0.2813s-0.4248,0.2568-0.5547,0.457s-0.1953,0.4229-0.1953,0.668
			c0,0.375,0.1416,0.6875,0.4258,0.9375s0.6992,0.375,1.2461,0.375c0.542,0,1.0234-0.1182,1.4453-0.3555
			s0.7314-0.5615,0.9297-0.9727c0.1514-0.3174,0.2266-0.7861,0.2266-1.4063V107.6534z"/>
		<path d="M52.9709,111.8175v-8.2969h1.2656v1.1797c0.6094-0.9111,1.4893-1.3672,2.6406-1.3672c0.5,0,0.96,0.0898,1.3789,0.2695
			s0.7334,0.415,0.9414,0.707s0.3545,0.6377,0.4375,1.0391c0.0518,0.2607,0.0781,0.7158,0.0781,1.3672v5.1016h-1.4063v-5.0469
			c0-0.5732-0.0547-1.001-0.1641-1.2852s-0.3037-0.5107-0.582-0.6797s-0.6055-0.2539-0.9805-0.2539
			c-0.5986,0-1.1162,0.1904-1.5508,0.5703s-0.6523,1.1016-0.6523,2.1641v4.5313H52.9709z"/>
		<path d="M67.549,109.1456l1.4531,0.1797c-0.2295,0.8486-0.6533,1.5078-1.2734,1.9766s-1.4111,0.7031-2.375,0.7031
			c-1.2139,0-2.1758-0.374-2.8867-1.1211s-1.0664-1.7959-1.0664-3.1445c0-1.3955,0.3594-2.4795,1.0781-3.25
			s1.6514-1.1563,2.7969-1.1563c1.1094,0,2.0156,0.3779,2.7188,1.1328s1.0547,1.8174,1.0547,3.1875
			c0,0.083-0.0029,0.208-0.0078,0.375h-6.1875c0.0518,0.9111,0.3096,1.6094,0.7734,2.0938c0.4639,0.4844,1.042,0.7266,1.7344,0.7266
			c0.5156,0,0.9561-0.1357,1.3203-0.4063S67.3351,109.7393,67.549,109.1456z M62.9318,106.8721h4.6328
			c-0.0625-0.6982-0.2393-1.2217-0.5313-1.5703c-0.4482-0.542-1.0283-0.8125-1.7422-0.8125c-0.6455,0-1.1885,0.2158-1.6289,0.6484
			C63.2218,105.5704,62.9787,106.1485,62.9318,106.8721z"/>
		<path d="M76.1818,110.794c-0.5205,0.4424-1.0225,0.7549-1.5039,0.9375s-0.999,0.2734-1.5508,0.2734
			c-0.9111,0-1.6123-0.2227-2.1016-0.668s-0.7344-1.0146-0.7344-1.707c0-0.4063,0.0928-0.7773,0.2773-1.1133
			s0.4268-0.6055,0.7266-0.8086s0.6367-0.3564,1.0117-0.4609c0.2764-0.0732,0.6924-0.1436,1.25-0.2109
			c1.1357-0.1357,1.9717-0.2969,2.5078-0.4844c0.0049-0.1924,0.0078-0.3154,0.0078-0.3672c0-0.5732-0.1328-0.9766-0.3984-1.2109
			c-0.3594-0.3174-0.8936-0.4766-1.6016-0.4766c-0.6611,0-1.1494,0.1162-1.4648,0.3477s-0.5479,0.6416-0.6992,1.2305l-1.375-0.1875
			c0.125-0.5889,0.3311-1.0635,0.6172-1.4258s0.7002-0.6406,1.2422-0.8359s1.1689-0.293,1.8828-0.293
			c0.708,0,1.2842,0.083,1.7266,0.25s0.7686,0.376,0.9766,0.6289s0.3545,0.5713,0.4375,0.957
			c0.0469,0.2393,0.0703,0.6719,0.0703,1.2969v1.875c0,1.3076,0.0303,2.1338,0.0898,2.4805s0.1787,0.6787,0.3555,0.9961H76.463
			C76.3175,111.5255,76.2238,111.1846,76.1818,110.794z M76.0646,107.6534c-0.5107,0.208-1.2764,0.3857-2.2969,0.5313
			c-0.5781,0.083-0.9873,0.1768-1.2266,0.2813s-0.4248,0.2568-0.5547,0.457s-0.1953,0.4229-0.1953,0.668
			c0,0.375,0.1416,0.6875,0.4258,0.9375s0.6992,0.375,1.2461,0.375c0.542,0,1.0234-0.1182,1.4453-0.3555
			s0.7314-0.5615,0.9297-0.9727c0.1514-0.3174,0.2266-0.7861,0.2266-1.4063V107.6534z"/>
		<path d="M85.049,111.8175v-1.0469c-0.5264,0.8232-1.2998,1.2344-2.3203,1.2344c-0.6611,0-1.2695-0.1826-1.8242-0.5469
			s-0.9844-0.874-1.2891-1.5273s-0.457-1.4053-0.457-2.2539c0-0.8281,0.1377-1.5791,0.4141-2.2539s0.6904-1.1914,1.2422-1.5508
			s1.1689-0.5391,1.8516-0.5391c0.5,0,0.9453,0.1055,1.3359,0.3164s0.708,0.4854,0.9531,0.8242v-4.1094h1.3984v11.4531H85.049z
			 M80.6037,107.6768c0,1.0625,0.2236,1.8564,0.6719,2.3828s0.9766,0.7891,1.5859,0.7891c0.6143,0,1.1367-0.251,1.5664-0.7539
			s0.6445-1.2695,0.6445-2.3008c0-1.1357-0.2188-1.9688-0.6563-2.5s-0.9766-0.7969-1.6172-0.7969
			c-0.625,0-1.1475,0.2549-1.5664,0.7656S80.6037,106.5782,80.6037,107.6768z"/>
		<path d="M88.0412,107.669c0-1.5361,0.4268-2.6748,1.2813-3.4141c0.7139-0.6143,1.583-0.9219,2.6094-0.9219
			c1.1406,0,2.0732,0.374,2.7969,1.1211s1.0859,1.7803,1.0859,3.0977c0,1.0674-0.1602,1.9072-0.4805,2.5195
			s-0.7861,1.0869-1.3984,1.4258s-1.2803,0.5078-2.0039,0.5078c-1.1611,0-2.1006-0.3721-2.8164-1.1172
			S88.0412,109.0704,88.0412,107.669z M89.4865,107.669c0,1.0625,0.2314,1.8584,0.6953,2.3867s1.0469,0.793,1.75,0.793
			c0.6982,0,1.2783-0.2656,1.7422-0.7969s0.6953-1.3408,0.6953-2.4297c0-1.0264-0.2334-1.8037-0.6992-2.332
			s-1.0459-0.793-1.7383-0.793c-0.7031,0-1.2861,0.2627-1.75,0.7891S89.4865,106.6065,89.4865,107.669z"/>
		<path d="M96.9005,109.3409l1.3906-0.2188c0.0781,0.5576,0.2959,0.9844,0.6523,1.2813s0.8555,0.4453,1.4961,0.4453
			c0.6455,0,1.125-0.1318,1.4375-0.3945s0.4688-0.5713,0.4688-0.9258c0-0.3174-0.1377-0.5674-0.4141-0.75
			c-0.1924-0.125-0.6719-0.2842-1.4375-0.4766c-1.0313-0.2607-1.7461-0.4854-2.1445-0.6758s-0.7002-0.4531-0.9063-0.7891
			s-0.3086-0.707-0.3086-1.1133c0-0.3701,0.085-0.7119,0.2539-1.0273s0.3994-0.5771,0.6914-0.7852
			c0.2188-0.1611,0.5166-0.2979,0.8945-0.4102s0.7822-0.168,1.2148-0.168c0.6514,0,1.2227,0.0938,1.7148,0.2813
			s0.8555,0.4414,1.0898,0.7617s0.3955,0.749,0.4844,1.2852l-1.375,0.1875c-0.0625-0.4268-0.2432-0.7607-0.543-1
			s-0.7227-0.3594-1.2695-0.3594c-0.6455,0-1.1064,0.1064-1.3828,0.3203s-0.4141,0.4639-0.4141,0.75
			c0,0.1826,0.0576,0.3467,0.1719,0.4922c0.1143,0.1514,0.2939,0.2764,0.5391,0.375c0.1406,0.0518,0.5547,0.1719,1.2422,0.3594
			c0.9951,0.2656,1.6885,0.4834,2.082,0.6523s0.7021,0.415,0.9258,0.7383s0.3359,0.7236,0.3359,1.2031
			c0,0.4688-0.1367,0.9102-0.4102,1.3242s-0.668,0.7344-1.1836,0.9609s-1.0986,0.3398-1.75,0.3398
			c-1.0781,0-1.8994-0.2236-2.4648-0.6719S97.0568,110.2208,96.9005,109.3409z"/>
		<path d="M105.8615,111.8175v-1.6016h1.6016v1.6016H105.8615z"/>
	</g>
</g>
</svg>
