<?xml version="1.0" encoding="utf-8"?>
<!-- Generator: Adobe Illustrator 21.0.0, SVG Export Plug-In . SVG Version: 6.00 Build 0)  -->
<svg version="1.1" id="Capa_1" xmlns="http://www.w3.org/2000/svg" xmlns:xlink="http://www.w3.org/1999/xlink" x="0px" y="0px"
	 viewBox="0 0 401.8409 465.657" style="enable-background:new 0 0 401.8409 465.657;" xml:space="preserve">
<g>
	<g>
		
			<radialGradient id="SVGID_1_" cx="495.7593" cy="3668.5798" r="155.2564" gradientTransform="matrix(0.8612 0 0 0.1151 -293.2399 22.8476)" gradientUnits="userSpaceOnUse">
			<stop  offset="0" style="stop-color:#000000"/>
			<stop  offset="1" style="stop-color:#000000;stop-opacity:0"/>
		</radialGradient>
		<path style="opacity:0.3;fill:url(#SVGID_1_);enable-background:new    ;" d="M267.4162,445.1007
			c0,9.8706-59.87,17.8703-133.7081,17.8703C59.8555,462.9709,0,454.9722,0,445.1007c0-9.867,59.8555-17.8694,133.7081-17.8694
			C207.5461,427.2322,267.4162,435.2337,267.4162,445.1007z"/>
		<g>
			<path style="opacity:0.15;enable-background:new    ;" d="M67.0437,451.8057c0,0-1.3558-3.6114-0.6027-4.3654
				c0.7522-0.7513,29.5115-0.9054,29.5115-0.9054l28.8058-12.5439c0,0,0.5562,4.2643,0.4048,5.3182
				c-0.1504,1.0531-3.9324,3.6862-10.5407,5.1186c-9.0354,1.9566-10.0867,4.6682-17.1637,7.3779
				C90.3836,454.5145,77.5817,453.9127,67.0437,451.8057"/>
			<path style="opacity:0.15;enable-background:new    ;" d="M178.3729,424.062c0,0-0.7941,10.5252,4.567,16.0851
				c5.3638,5.5598,15.2891,8.4391,16.6814,13.4036c1.3886,4.9627-0.2006,6.4515-1.1935,7.7444
				c-0.9929,1.2901-12.1108,5.4605-23.6307,3.2741c-11.5163-2.1818-10.1268-9.7284-15.487-11.9129
				c-5.362-2.1846-7.2995-4.7375-7.2995-4.7375s-1.7159-4.2177-0.1267-7.9915c1.5883-3.7728,3.6543-17.057,3.6543-17.057
				L178.3729,424.062z"/>
			<path style="fill:#534741;" d="M178.3729,420.488c0,0-0.7941,10.5234,4.567,16.0833c5.3638,5.5608,15.2891,7.945,16.6814,12.9095
				c1.3886,4.9608,0.3966,7.9413,0.3966,7.9413s-13.7,5.7586-25.2199,3.575c-11.5163-2.1845-10.1268-9.7302-15.487-11.9147
				c-5.362-2.1836-7.3478-8.7355-7.3478-8.7355s0-9.5323,1.5892-13.3052c1.5883-3.7728,1.9876-7.7444,1.9876-7.7444
				L178.3729,420.488z"/>
			
				<path style="fill:none;stroke:#3D3530;stroke-width:0.9117;stroke-linecap:round;stroke-linejoin:round;stroke-miterlimit:10;" d="
				M178.3729,420.488c0,0-0.7941,10.5234,4.567,16.0833c5.3638,5.5608,15.2891,7.945,16.6814,12.9095
				c1.3886,4.9608,0.3966,7.9413,0.3966,7.9413s-13.7,5.7586-25.2199,3.575c-11.5163-2.1845-10.1268-9.7302-15.487-11.9147
				c-5.362-2.1836-7.3478-8.7355-7.3478-8.7355s0-9.5323,1.5892-13.3052c1.5883-3.7728,1.9876-7.7444,1.9876-7.7444
				L178.3729,420.488z"/>
			<path style="fill:#534741;" d="M97.3074,421.2529c0,0-1.2026,6.4753-7.5274,9.4868c-6.323,3.0115-23.1138,4.7183-24.144,10.073
				c-0.3136,1.6247,0.4057,6.4415,0.4057,6.4415s14.702,3.5112,24.3392,2.3067c9.6363-1.2062,11.1425-5.7212,16.7133-6.9257
				c5.5699-1.2062,16.262-3.4646,17.315-8.1319c-0.4477-5.6756-2.862-9.7858-2.862-9.7858l-1.9575-5.2708L97.3074,421.2529z"/>
			
				<path style="fill:none;stroke:#3D3530;stroke-width:0.9117;stroke-linecap:round;stroke-linejoin:round;stroke-miterlimit:10;" d="
				M97.3074,421.2529c0,0-1.2026,6.4753-7.5274,9.4868c-6.323,3.0115-23.1138,4.7183-24.144,10.073
				c-0.3136,1.6247,0.4057,6.4415,0.4057,6.4415s14.702,3.5112,24.3392,2.3067c9.6363-1.2062,11.1425-5.7212,16.7133-6.9257
				c5.5699-1.2062,16.262-3.4646,17.315-8.1319c-0.4477-5.6756-2.862-9.7858-2.862-9.7858l-1.9575-5.2708L97.3074,421.2529z"/>
			<path style="fill:#293842;" d="M79.4818,202.8497c0,0-2.9787,42.297,0,72.6783c2.9787,30.3813,6.5537,66.1256,9.5323,80.4236
				c2.9787,14.2971,8.3398,33.3582,4.1703,36.935c-4.1703,3.574-4.1703,8.936-1.1926,15.4888
				c2.9796,6.5536,4.1703,16.0842,4.1703,16.0842s7.1472-6.5518,16.0833,0.5954c8.937,7.149,13.7027,7.7453,13.7027,7.7453
				s-0.5963-5.9574-0.5963-10.724c0-4.7656-4.1694-9.5323-2.3824-21.4453c1.7889-11.9146,2.9796-19.0647-0.5945-30.9784
				c-3.5741-11.9147,1.787-37.5303,0-50.0396c-1.7889-12.5128-2.3824-70.8913-2.3824-70.8913l-6.5546-41.1062
				C113.4381,207.6163,96.1631,212.3802,79.4818,202.8497"/>
			<g style="opacity:0.4;">
				<g>
					<g>
						<g>
							<defs>
								<rect id="SVGID_2_" x="100.3344" y="207.6145" width="25.6147" height="225.1857"/>
							</defs>
							<clipPath id="SVGID_3_">
								<use xlink:href="#SVGID_2_"  style="overflow:visible;"/>
							</clipPath>
							<path style="opacity:0.2;clip-path:url(#SVGID_3_);enable-background:new    ;" d="M116.4177,372.6312
								c1.787,15.4879,0,30.3831,2.3833,45.871c0.5936,1.787,2.3815,2.9796,2.3815,5.3611
								c-0.2881,2.8757,0.2635,5.4714,1.3731,7.7918c2.2374,0.9975,3.3935,1.1452,3.3935,1.1452s-0.5963-5.9574-0.5963-10.724
								c0-4.7666-4.1694-9.5323-2.3824-21.4453c1.7888-11.9137,2.9796-19.0647-0.5964-30.9784
								c-3.5722-11.9147,1.7889-37.5294,0-50.0396c-1.787-12.5119-2.3805-70.8913-2.3805-70.8913l-6.5546-41.1071
								c0,0-1.9165,0.5261-5.0794,0.8789c-3.0207,9.9189-1.6276,20.2108,3.2914,29.5033c-4.7648,0.5954-13.7,3.5741-10.7222,7.149
								c2.9795,3.5759,11.9138-3.575,14.8925,2.3824c3.574,7.7453,3.574,17.8712,1.7889,25.0221
								c-1.7889,5.9546-4.1713,14.2962-2.3842,20.2536c2.3842,5.9565,2.9796,13.1046,2.9796,19.6582
								C116.4177,332.7175,112.8427,352.3757,116.4177,372.6312"/>
						</g>
					</g>
				</g>
			</g>
			<path style="opacity:0.2;enable-background:new    ;" d="M118.7135,429.6183c-1.8281-1.0996-3.9853-2.5766-6.468-4.5633
				c-8.9361-7.1481-16.0833-0.5954-16.0833-0.5954s-1.1917-9.5305-4.1703-16.0842c-2.9787-6.5536-2.9787-11.9148,1.1926-15.4888
				c4.1694-3.5768-1.1926-22.6378-4.1703-36.935c-2.9796-14.298-6.5537-50.0423-9.5323-80.4218c-2.9787-30.3831,0-72.6801,0-72.6801
				l6.4023,2.9978c-1.3312,23.6645-9.6901,45.8902-4.0172,70.2758c3.5713,16.0851,0.5926,30.9767,4.7639,46.4673
				c1.7888,4.7657,3.5759,9.5314,4.1694,14.2971c2.9805,19.0638,1.7861,36.3396,8.937,54.2117
				c1.787,4.1676-1.787,7.1481-4.1694,10.7231c-4.1703,5.3602,0,11.9129,3.5741,16.0851
				c4.1685,4.7657,12.5092-1.7889,16.6796,5.3611L118.7135,429.6183z"/>
			<path style="opacity:0.2;fill:none;stroke:#000000;stroke-width:0.9117;stroke-miterlimit:10;enable-background:new    ;" d="
				M79.4818,202.8497c0,0-2.9787,42.297,0,72.6783c2.9787,30.3813,6.5537,66.1256,9.5323,80.4236
				c2.9787,14.2971,8.3398,33.3582,4.1703,36.935c-4.1703,3.574-4.1703,8.936-1.1926,15.4888
				c2.9796,6.5536,4.1703,16.0842,4.1703,16.0842s7.1472-6.5518,16.0833,0.5954c8.937,7.149,13.7027,7.7453,13.7027,7.7453
				s-0.5963-5.9574-0.5963-10.724c0-4.7656-4.1694-9.5323-2.3824-21.4453c1.7889-11.9146,2.9796-19.0647-0.5945-30.9784
				c-3.5741-11.9147,1.787-37.5303,0-50.0396c-1.7889-12.5128-2.3824-70.8913-2.3824-70.8913l-6.5546-41.1062
				C113.4381,207.6163,96.1631,212.3802,79.4818,202.8497z"/>
			<path style="fill:#293842;" d="M114.7018,206.1548c-6.1707,1.529-6.1051,25.3576,1.8782,33.8113
				c0,0,7.5137,31.9313,7.9833,45.5492c0.4686,13.6197,13.1483,38.9764,14.0865,72.3182
				c0.9409,33.339,6.1051,22.5403,6.1051,28.6435c0,6.1042-6.1051,10.8024-4.6955,19.2543
				c1.4086,8.4511,10.3292,15.4961,9.3919,20.1925c-0.9391,4.6946,2.3487,8.9206,2.3487,8.9206s2.3487-7.5119,14.0856-8.9206
				c11.7406-1.4086,13.1502,0.9382,13.1502,0.9382s4.2269-13.6179,1.8782-18.7848c-2.3487-5.165-5.166-4.225-5.166-9.8606
				c0-5.6374-7.5128-55.8839-8.9206-73.2563c-1.4077-17.3761-6.5755-92.9821-6.5755-92.9821l-10.2617-33.2752
				C149.9901,198.7058,118.9013,205.1145,114.7018,206.1548"/>
			<g style="opacity:0.4;">
				<g>
					<g>
						<g>
							<defs>
								<rect id="SVGID_4_" x="110.3099" y="211.267" width="44.105" height="223.5783"/>
							</defs>
							<clipPath id="SVGID_5_">
								<use xlink:href="#SVGID_4_"  style="overflow:visible;"/>
							</clipPath>
							<path style="opacity:0.2;clip-path:url(#SVGID_5_);enable-background:new    ;" d="M148.5869,403.6078
								c-1.787,0.5963-2.9805-1.7861-4.7675-1.1907c-0.5954-2.9796-1.1908-5.9556,0.5954-8.3407
								c4.1712-4.7675,2.3842-10.7231,0.5963-16.0842c-8.3398-25.6174-2.3824-54.8071-14.2971-80.4218
								c-0.5972-1.7888,0.5954-4.7666,0-6.5546c-1.1926-2.3842-4.1694-4.7648-4.1694-7.149
								c-1.1935-14.2981-5.3629-28.5934-4.1722-42.297c0-2.3833,5.9583-1.7861,9.5333-3.5741
								c-3.575-3.5741-9.5333,0.5955-11.9138-2.9787c-1.7879-1.787-2.9787-5.3611-4.1712-8.3389
								c-2.8146-4.6909-3.7819-10.1195-4.6472-15.414c-2.0633,7.8401-0.4887,22.4582,5.4067,28.701
								c0,0,7.5137,31.9313,7.9833,45.5492c0.4686,13.6197,13.1483,38.9764,14.0865,72.3181
								c0.9409,33.3391,6.1051,22.5403,6.1051,28.6436c0,6.1042-6.1051,10.8023-4.6955,19.2543
								c1.4086,8.451,10.3319,15.4961,9.3919,20.1925c-0.9382,4.6946,2.3487,8.9206,2.3487,8.9206s0.5808-1.8609,2.6103-3.9023
								c-1.0813-4.2305-3.0753-8.5932-4.0372-12.4408C149.1814,414.3318,149.1814,408.9698,148.5869,403.6078"/>
						</g>
					</g>
				</g>
			</g>
			<g style="opacity:0.4;">
				<g>
					<g>
						<g>
							<defs>
								<rect id="SVGID_6_" x="144.8296" y="198.7021" width="36.7964" height="228.1608"/>
							</defs>
							<clipPath id="SVGID_7_">
								<use xlink:href="#SVGID_6_"  style="overflow:visible;"/>
							</clipPath>
							<path style="opacity:0.2;clip-path:url(#SVGID_7_);enable-background:new    ;" d="M180.9139,408.0791
								c-2.3487-5.1651-5.166-4.2269-5.166-9.8615s-7.5128-55.882-8.9206-73.2545c-1.4096-17.3761-6.5755-92.9821-6.5755-92.9821
								l-10.2617-33.2752c0,0-2.0496,0.4212-5.1605,1.0667c1.6959,7.8082,6.2956,13.9835,7.9258,22.1391
								c4.1712,21.4462,10.7231,41.1071,6.5536,62.5515c-1.7861,11.9156-0.5954,24.4249,4.1685,35.1498
								c1.7888,3.5722-0.5945,8.9352-2.3815,12.5092c-1.787,7.149,4.1703,13.7027,6.5527,20.2536
								c1.1917,2.3824-1.7861,5.3611-1.7861,7.7444c-1.1926,15.4888,4.7657,29.1897,6.5536,44.6794
								c0.5936,2.3833,4.1703,4.1703,5.9565,6.5537c3.0234,4.7529-1.7807,10.1286-2.6067,14.3181
								c2.7808,0.3811,3.2704,1.1926,3.2704,1.1926S183.2626,413.246,180.9139,408.0791"/>
						</g>
					</g>
				</g>
			</g>
			<path style="opacity:0.2;fill:none;stroke:#000000;stroke-width:0.9117;stroke-miterlimit:10;enable-background:new    ;" d="
				M114.7018,206.1548c-6.1707,1.529-6.1051,25.3576,1.8782,33.8113c0,0,7.5137,31.9313,7.9833,45.5492
				c0.4686,13.6197,13.1483,38.9764,14.0865,72.3182c0.9409,33.339,6.1051,22.5403,6.1051,28.6435
				c0,6.1042-6.1051,10.8024-4.6955,19.2543c1.4086,8.4511,10.3292,15.4961,9.3919,20.1925
				c-0.9391,4.6946,2.3487,8.9206,2.3487,8.9206s2.3487-7.5119,14.0856-8.9206c11.7406-1.4086,13.1502,0.9382,13.1502,0.9382
				s4.2269-13.6179,1.8782-18.7848c-2.3487-5.165-5.166-4.225-5.166-9.8606c0-5.6374-7.5128-55.8839-8.9206-73.2563
				c-1.4077-17.3761-6.5755-92.9821-6.5755-92.9821l-10.2617-33.2752C149.9901,198.7058,118.9013,205.1145,114.7018,206.1548z"/>
			<path style="opacity:0.2;fill:none;stroke:#000000;stroke-width:0.9117;stroke-miterlimit:10;enable-background:new    ;" d="
				M105.6964,242.7634c0,0,17.8694-4.7666,23.8268-4.1703"/>
			<path style="fill:#DEE0E2;" d="M96.5434,91.1613l12.7289,21.9978c0,0,3.6397,84.253,2.4973,92.6274
				c-1.1415,8.3753-36.5429-4.1849-36.5429-4.1849l-5.7103-97.8791L96.5434,91.1613z"/>
			<path style="fill:none;stroke:#575A5B;stroke-width:0.9117;stroke-miterlimit:10;" d="M96.5434,91.1613l12.7289,21.9978
				c0,0,3.6397,84.253,2.4973,92.6274c-1.1415,8.3753-36.5429-4.1849-36.5429-4.1849l-5.7103-97.8791L96.5434,91.1613z"/>
			<path style="fill:#DEE0E2;" d="M126.0676,90.565l-16.303,21.9978c0,0,0.4814,83.7086,1.6229,92.0812
				c1.1433,8.3763,38.9746-3.0425,38.9746-3.0425l-5.4769-99.4008L126.0676,90.565z"/>
			<path style="fill:none;stroke:#575A5B;stroke-width:0.9117;stroke-miterlimit:10;" d="M126.0676,90.565l-16.303,21.9978
				c0,0,0.4814,83.7086,1.6229,92.0812c1.1433,8.3763,38.9746-3.0425,38.9746-3.0425l-5.4769-99.4008L126.0676,90.565z"/>
			<path style="fill:#534741;" d="M79.1116,198.8508c-0.9263-0.5981-1.1579,3.7591-0.2899,4.3408
				c0.8689,0.5762,12.5858,7.8082,35.1516,5.3501c22.5649-2.4599,34.2818-6.3649,36.0178-9.836
				c1.7351-3.4729,0.1441-5.9309-0.5799-5.352c-0.7221,0.578-7.9477,8.9671-34.8607,10.559
				C90.1064,205.3607,83.5956,201.7428,79.1116,198.8508"/>
			
				<path style="fill:none;stroke:#3D3530;stroke-width:0.9117;stroke-linecap:round;stroke-linejoin:round;stroke-miterlimit:10;" d="
				M79.1116,198.8508c-0.9263-0.5981-1.1579,3.7591-0.2899,4.3408c0.8689,0.5762,12.5858,7.8082,35.1516,5.3501
				c22.5649-2.4599,34.2818-6.3649,36.0178-9.836c1.7351-3.4729,0.1441-5.9309-0.5799-5.352
				c-0.7221,0.578-7.9477,8.9671-34.8607,10.559C90.1064,205.3607,83.5956,201.7428,79.1116,198.8508z"/>
			<g style="opacity:0.4;">
				<g>
					<g>
						<g>
							<defs>
								<rect id="SVGID_8_" x="58.0365" y="87.8152" width="48.7968" height="172.5322"/>
							</defs>
							<clipPath id="SVGID_9_">
								<use xlink:href="#SVGID_8_"  style="overflow:visible;"/>
							</clipPath>
							<path style="clip-path:url(#SVGID_9_);fill:#545454;" d="M105.0974,189.1488c-2.9778-34.8516-5.7376-88.2592-4.1694-95.317
								c1.5709-7.0542-4.3737-5.9492-4.3737-5.9492c-0.8224,0.5553-1.6694,1.1032-2.5301,1.6475
								c0,0-34.5198,20.8937-35.9895,21.7388c0.1176,0.9728,0.4942,2.0688,1.271,3.2732
								c3.5303,5.4906,15.291,52.9325,14.8989,67.4394c-0.3921,14.5078,1.3074,75.874,1.3074,75.874s23.7857,8.4237,27.7063-5.6921
								C107.1397,238.0469,108.0296,223.458,105.0974,189.1488"/>
						</g>
					</g>
				</g>
			</g>
			<path style="fill:#6FC2D8;" d="M94.171,84.3067c-14.5078,9.8022-36.0734,18.0344-36.0734,18.0344s-4.7037,3.1364-1.1743,8.627
				c3.5257,5.4887,15.29,52.9307,14.8989,67.4376c-0.3921,14.5069-1.5709,78.808-1.5709,78.808s26.6641,5.4887,30.5856-8.6261
				c3.9196-14.1157,6.271-33.7192,1.5664-67.8287c-4.7046-34.1104-9.4093-83.9047-7.841-90.9634
				C96.1312,82.7385,94.171,84.3067,94.171,84.3067"/>
			<path style="fill:none;stroke:#2F4A56;stroke-width:0.9117;stroke-miterlimit:10;" d="M94.171,84.3067
				c-14.5078,9.8022-36.0734,18.0344-36.0734,18.0344s-4.7037,3.1364-1.1743,8.627c3.5257,5.4887,15.29,52.9307,14.8989,67.4376
				c-0.3921,14.5069-1.5709,78.808-1.5709,78.808s26.6641,5.4887,30.5856-8.6261c3.9196-14.1157,6.271-33.7192,1.5664-67.8287
				c-4.7046-34.1104-9.4093-83.9047-7.841-90.9634C96.1312,82.7385,94.171,84.3067,94.171,84.3067z"/>
			<g style="opacity:0.4;">
				<g>
					<g>
						<g>
							<defs>
								<rect id="SVGID_10_" x="119.8969" y="85.947" width="48.2644" height="171.2986"/>
							</defs>
							<clipPath id="SVGID_11_">
								<use xlink:href="#SVGID_10_"  style="overflow:visible;"/>
							</clipPath>
							<path style="clip-path:url(#SVGID_11_);fill:#545454;" d="M129.6016,86.0938c14.5078,9.8013,36.0706,20.4195,36.0706,20.4195
								s4.7046,3.1355,1.1752,8.6242c-3.5276,5.4906-17.9387,53.2471-14.8971,67.4376c3.1492,14.701,7.3742,42.8978,8.9488,63.2864
								c0,0-28.6472,20.549-32.5686,6.4333c-3.9214-14.113-11.6695-33.2542-6.9649-67.3655
								c4.7065-34.1113,9.4111-86.2898,7.8429-93.3458S129.6016,86.0938,129.6016,86.0938"/>
						</g>
					</g>
				</g>
			</g>
			<path style="fill:#6FC2D8;" d="M130.1978,81.329c14.505,9.8013,36.0697,20.4186,36.0697,20.4186s4.7065,3.1373,1.1771,8.6251
				c-3.5285,5.4915-15.29,52.9307-14.898,67.4385c0.3902,14.5068,11.0212,62.9353,11.0212,62.9353s-30.7187,20.8982-34.6401,6.7825
				c-3.9196-14.1148-11.6704-33.2552-6.9639-67.3665c4.7046-34.1113,9.4083-86.288,7.842-93.3467
				C128.2367,79.7608,130.1978,81.329,130.1978,81.329"/>
			<path style="fill:none;stroke:#2F4A56;stroke-width:0.9117;stroke-miterlimit:10;" d="M130.1978,81.329
				c14.505,9.8013,36.0697,20.4186,36.0697,20.4186s4.7065,3.1373,1.1771,8.6251c-3.5285,5.4915-15.29,52.9307-14.898,67.4385
				c0.3902,14.5068,11.0212,62.9353,11.0212,62.9353s-30.7187,20.8982-34.6401,6.7825
				c-3.9196-14.1148-11.6704-33.2552-6.9639-67.3665c4.7046-34.1113,9.4083-86.288,7.842-93.3467
				C128.2367,79.7608,130.1978,81.329,130.1978,81.329z"/>
			<g style="opacity:0.4;">
				<g>
					<g>
						<g>
							<defs>
								<rect id="SVGID_12_" x="120.1075" y="82.1176" width="20.9949" height="132.6459"/>
							</defs>
							<clipPath id="SVGID_13_">
								<use xlink:href="#SVGID_12_"  style="overflow:visible;"/>
							</clipPath>
							<path style="clip-path:url(#SVGID_13_);fill:#545454;" d="M125.7494,82.1176c5.1642,8.5367,17.2786,31.573,15.0931,50.0405
								c-2.1836,18.4666-20.2563,70.4947-19.6601,82.6082c0,0-0.1988-29.9856-0.9938-50.242
								c-0.7941-20.2545,4.5697-41.5001,3.9725-59.5728C123.5649,86.8824,125.7494,82.1176,125.7494,82.1176"/>
						</g>
					</g>
				</g>
			</g>
			<path style="opacity:0.2;enable-background:new    ;" d="M129.204,82.94c-0.0966-2.4827,0.9938-1.612,0.9938-1.612
				c14.5059,9.8013,36.0697,20.4186,36.0697,20.4186s4.7065,3.1373,1.1771,8.6252c-0.2553,0.4021-0.558,1.0266-0.8908,1.8417
				l-0.6902-6.7643c0,0-12.5119-5.0639-23.2332-11.0185C135.4632,90.4483,131.229,85.6725,129.204,82.94"/>
			<path style="fill:#2C6882;" d="M124.5578,79.1389c5.1623,8.5358,17.2758,31.5712,15.0904,50.0396
				c-2.1836,18.4684-19.3592,69.3021-18.7638,81.4156c0,0-1.0914-28.7931-1.8855-49.0485
				c-0.7941-20.2527,4.5669-41.501,3.9707-59.571C122.3732,83.9037,124.5578,79.1389,124.5578,79.1389"/>
			<path style="fill:none;stroke:#2F4A56;stroke-width:0.9117;stroke-miterlimit:10;" d="M124.5578,79.1389
				c5.1623,8.5358,17.2758,31.5712,15.0904,50.0396c-2.1836,18.4684-19.3592,69.3021-18.7638,81.4156
				c0,0-1.0914-28.7931-1.8855-49.0485c-0.7941-20.2527,4.5669-41.501,3.9707-59.571
				C122.3732,83.9037,124.5578,79.1389,124.5578,79.1389z"/>
			<g style="opacity:0.4;">
				<g>
					<g>
						<g>
							<defs>
								<rect id="SVGID_14_" x="80.3844" y="80.4327" width="24.4613" height="129.4958"/>
							</defs>
							<clipPath id="SVGID_15_">
								<use xlink:href="#SVGID_14_"  style="overflow:visible;"/>
							</clipPath>
							<path style="clip-path:url(#SVGID_15_);fill:#545454;" d="M97.9502,80.43c0,0-21.0988,14.5734-17.0506,43.3254
								c0.4121,2.9404,10.1642,0.32,10.1642,0.32s-9.5378,4.7329-9.2898,6.3467c4.9827,32.5331,17.1983,54.2527,19.1841,71.3298
								c0.1559,1.3412,3.4492,7.697,3.5576,8.0152c1.2746,3.7272-1.3904-58.517-3.5877-73.3393
								C98.8637,122.4899,97.9502,80.43,97.9502,80.43"/>
						</g>
					</g>
				</g>
			</g>
			<path style="fill:#FFA96A;" d="M124.1621,68.4159l0.1988,24.0273c-6.3458,6.9804-12.3278,13.9416-15.0885,20.7168
				c-3.3224-7.5812-7.0332-12.2831-11.1243-14.1631l0.3966-24.2261L124.1621,68.4159z"/>
			<path style="fill:none;stroke:#6B4429;stroke-width:0.9117;stroke-miterlimit:10;" d="M124.1621,68.4159l0.1988,24.0273
				c-6.3458,6.9804-12.3278,13.9416-15.0885,20.7168c-3.3224-7.5812-7.0332-12.2831-11.1243-14.1631l0.3966-24.2261
				L124.1621,68.4159z"/>
			<path style="fill:#2C6882;" d="M97.9502,78.6411c0,0-19.909,14.5716-15.8608,43.3263c0.4167,2.9413,10.166,0.3191,10.166,0.3191
				s-9.5378,4.7356-9.2898,6.3467c4.9827,32.5349,18.9571,59.5227,20.9429,76.6006c0.1559,1.3412,0.4996,2.4262,0.6081,2.7462
				c1.2746,3.7281-1.3904-58.5161-3.5877-73.3393C98.8637,120.7038,97.9502,78.6411,97.9502,78.6411"/>
			<path style="fill:none;stroke:#2F4A56;stroke-width:0.9117;stroke-miterlimit:10;" d="M97.9502,78.6411
				c0,0-19.909,14.5716-15.8608,43.3263c0.4167,2.9413,10.166,0.3191,10.166,0.3191s-9.5378,4.7356-9.2898,6.3467
				c4.9827,32.5349,18.9571,59.5227,20.9429,76.6006c0.1559,1.3412,0.4996,2.4262,0.6081,2.7462
				c1.2746,3.7281-1.3904-58.5161-3.5877-73.3393C98.8637,120.7038,97.9502,78.6411,97.9502,78.6411z"/>
			<g style="opacity:0.4;">
				<g>
					<g>
						<g>
							<defs>
								<rect id="SVGID_16_" x="88.3659" y="129.524" width="55.573" height="66.2951"/>
							</defs>
							<clipPath id="SVGID_17_">
								<use xlink:href="#SVGID_16_"  style="overflow:visible;"/>
							</clipPath>
							<path style="clip-path:url(#SVGID_17_);fill:#545454;" d="M112.0823,129.7137l29.93,11.3084
								c1.6412,0.6182,2.3933,2.511,1.6284,4.0874l-23.8003,49.0303c-0.672,1.3868-2.2876,2.0296-3.7281,1.488l-25.8144-9.701
								c-1.5518-0.5853-2.3323-2.3204-1.7287-3.8658l19.6838-50.6404C108.8456,129.8988,110.5524,129.1384,112.0823,129.7137"/>
						</g>
					</g>
				</g>
			</g>
			<path style="fill:#DEE0E2;" d="M99.7299,78.487c0,0,0,16.1981,3.0635,18.9097c3.0626,2.7161,5.858,11.5418,6.4753,17.284
				c0,0-3.7601-10.2782-14.6172-15.8818C89.8155,96.3045,95.5249,80.6771,99.7299,78.487"/>
			<path style="fill:none;stroke:#575A5B;stroke-width:0.9117;stroke-miterlimit:10;" d="M99.7299,78.487
				c0,0,0,16.1981,3.0635,18.9097c3.0626,2.7161,5.858,11.5418,6.4753,17.284c0,0-3.7601-10.2782-14.6172-15.8818
				C89.8155,96.3045,95.5249,80.6771,99.7299,78.487z"/>
			<path style="fill:#518496;" d="M133.9926,112.23c-1.2591,2.407-4.2333-2.0514-6.2209-5.7149
				c-1.9922-3.6625-4.5031-4.122-4.5031-4.122l-0.1377-2.2949c0,0,10.2827-7.5484,10.383-6.8372
				C134.5706,100.7839,135.2471,109.8221,133.9926,112.23"/>
			<path style="fill:#9DB2AA;" d="M111.8288,128.0379l29.9318,11.3057c1.6393,0.6209,2.3933,2.511,1.6275,4.0883l-23.8003,49.0312
				c-0.672,1.384-2.2867,2.0286-3.7263,1.4871l-25.8153-9.6992c-1.5518-0.5844-2.3286-2.3222-1.7287-3.8686l19.6819-50.6377
				C108.5921,128.2202,110.3017,127.4589,111.8288,128.0379"/>
			<path style="fill:none;stroke:#6F7B7F;stroke-width:0.9117;stroke-miterlimit:10;" d="M111.8288,128.0379l29.9318,11.3057
				c1.6393,0.6209,2.3933,2.511,1.6275,4.0883l-23.8003,49.0312c-0.672,1.384-2.2867,2.0286-3.7263,1.4871l-25.8153-9.6992
				c-1.5518-0.5844-2.3286-2.3222-1.7287-3.8686l19.6819-50.6377C108.5921,128.2202,110.3017,127.4589,111.8288,128.0379z"/>
			<path style="fill:#CE8757;" d="M171.5275,250.5023c1.002,2.955-0.0219,6.7925,0.0702,8.3252
				c0.0948,1.5336-3.7072,5.8644-4.184,7.5921c-0.4741,1.7323-0.7786,6.4123,1.7633,4.1603
				c2.5438-2.2566,6.4971-8.0708,6.4971-8.0708s1.136-4.8642,1.3631-6.6795"/>
			<path style="fill:none;stroke:#6B4429;stroke-width:0.8607;stroke-miterlimit:10;" d="M171.5275,250.5023
				c1.002,2.955-0.0219,6.7925,0.0702,8.3252c0.0948,1.5336-3.7072,5.8644-4.184,7.5921c-0.4741,1.7323-0.7786,6.4123,1.7633,4.1603
				c2.5438-2.2566,6.4971-8.0708,6.4971-8.0708s1.136-4.8642,1.3631-6.6795"/>
			<path style="fill:#CE8757;" d="M174.3904,250.3199c0.5699,3.585,0.5352,8.9324,0.341,10.7094
				c-0.1933,1.777-5.4049,5.9966-6.2865,7.8903c-0.8844,1.8891-2.1526,7.1992,1.2072,5.1104
				c3.3571-2.0843,8.9215-8.7628,8.9215-8.7628s2.7207-3.616,3.3343-5.6537"/>
			<path style="fill:none;stroke:#6B4429;stroke-width:0.9117;stroke-miterlimit:10;" d="M174.3904,250.3199
				c0.5699,3.585,0.5352,8.9324,0.341,10.7094c-0.1933,1.777-5.4049,5.9966-6.2865,7.8903
				c-0.8844,1.8891-2.1526,7.1992,1.2072,5.1104c3.3571-2.0843,8.9215-8.7628,8.9215-8.7628s2.7207-3.616,3.3343-5.6537"/>
			<path style="fill:#EA9860;" d="M175.7726,258.6415c-0.2352,2.8027-0.6966,4.9718-1.3029,6.5546
				c-0.641,1.6658-5.3638,6.0349-6.2318,7.9331c-0.8716,1.8965-2.1025,7.2147,1.2409,5.1049
				c3.3425-2.1107,8.8595-8.8276,8.8595-8.8276s2.6988-3.6342,3.296-5.6756"/>
			<path style="fill:none;stroke:#6B4429;stroke-width:0.9117;stroke-miterlimit:10;" d="M175.7726,258.6415
				c-0.2352,2.8027-0.6966,4.9718-1.3029,6.5546c-0.641,1.6658-5.3638,6.0349-6.2318,7.9331
				c-0.8716,1.8965-2.1025,7.2147,1.2409,5.1049c3.3425-2.1107,8.8595-8.8276,8.8595-8.8276s2.6988-3.6342,3.296-5.6756"/>
			<path style="fill:#CC8352;" d="M170.148,244.6261c0,0,3.1227,14.2324,9.1813,17.9077c6.0622,3.6725,5.879-4.9599,5.5124-8.8176
				c-0.3674-3.8585-2.2046-9.4603-6.0613-9.6417C174.9246,243.8903,170.148,244.6261,170.148,244.6261"/>
			<path style="fill:#FFA96A;" d="M168.1713,238.2812c0,0-1.9238,7.7991-1.849,9.9846c0.0729,2.1864-3.7737,9.1768-4.721,11.3969
				c-0.9446,2.221,2.7188,2.6815,4.9818,0.5589c2.263-2.118,4.7539-10.3757,7.2238-10.7495c0,0,0.8315,3.0352,1.6895,6.8008
				c0.858,3.7655,1.1971,9.443,1.1151,11.3422c-0.0811,1.901-5.3164,6.7479-6.1187,8.8193
				c-0.8078,2.0697-1.7807,7.7936,1.6384,5.3419c3.42-2.4489,8.8577-9.9308,8.8577-9.9308s2.6359-4.0307,3.1437-6.2364
				c0.5088-2.2083,1.8481-9.9854,0.6656-14.7621c-1.1844-4.7748-4.0354-11.3896-3.3498-16.9576L168.1713,238.2812z"/>
			<path style="fill:none;stroke:#6B4429;stroke-width:0.9117;stroke-miterlimit:10;" d="M168.1713,238.2812
				c0,0-1.9238,7.7991-1.849,9.9846c0.0729,2.1864-3.7737,9.1768-4.721,11.3969c-0.9446,2.221,2.7188,2.6815,4.9818,0.5589
				c2.263-2.118,4.7539-10.3757,7.2238-10.7495c0,0,0.8315,3.0352,1.6895,6.8008c0.858,3.7655,1.1971,9.443,1.1151,11.3422
				c-0.0811,1.901-5.3164,6.7479-6.1187,8.8193c-0.8078,2.0697-1.7807,7.7936,1.6384,5.3419
				c3.42-2.4489,8.8577-9.9308,8.8577-9.9308s2.6359-4.0307,3.1437-6.2364c0.5088-2.2083,1.8481-9.9854,0.6656-14.7621
				c-1.1844-4.7748-4.0354-11.3896-3.3498-16.9576L168.1713,238.2812z"/>
			<path style="fill:#DEE0E2;" d="M182.8532,230.0855c0,0,2.1672,11.84-0.021,12.3569c-2.19,0.5161-17.192,0.5863-18.1338-1.1488
				c-0.9418-1.7323,0.4613-12.3706,0.4613-12.3706L182.8532,230.0855z"/>
			<path style="fill:none;stroke:#6C6D6D;stroke-width:0.9117;stroke-miterlimit:10;" d="M182.8532,230.0855
				c0,0,2.1672,11.84-0.021,12.3569c-2.19,0.5161-17.192,0.5863-18.1338-1.1488c-0.9418-1.7323,0.4613-12.3706,0.4613-12.3706
				L182.8532,230.0855z"/>
			<path style="fill:#6FC2D8;" d="M167.141,106.3009c0,0,6.7014,27.4455,7.8447,48.1477
				c1.1479,20.7022,8.1629,32.379,9.5843,48.2188c1.4205,15.8371,0.2407,33.0892,0.2407,33.0892s-16.6449,3.6552-20.7615-0.6191
				c-4.1193-4.2725-5.0848-45.7224-7.087-52.7155c-2.0004-6.9931-2.7653-28.4667-5.1031-34.6711
				c-2.469-6.5573-1.9502-22.3752,3.9634-29.5243"/>
			<path style="fill:none;stroke:#2F4A56;stroke-width:0.9117;stroke-miterlimit:10;" d="M167.141,106.3009
				c0,0,6.7014,27.4455,7.8447,48.1477c1.1479,20.7022,8.1629,32.379,9.5843,48.2188c1.4205,15.8371,0.2407,33.0892,0.2407,33.0892
				s-16.6449,3.6552-20.7615-0.6191c-4.1193-4.2725-5.0848-45.7224-7.087-52.7155c-2.0004-6.9931-2.7653-28.4667-5.1031-34.6711
				c-2.469-6.5573-1.9502-22.3752,3.9634-29.5243"/>
			<path style="fill:#CE8452;" d="M98.5437,74.7689l-0.0866,5.3356c1.8116,1.8509,3.6835,3.0598,5.3465,3.1683
				c4.7046,0.3036,18.3663,0.454,19.8816-1.6703c0.1514-0.2106,0.3483-0.5197,0.5781-0.9081l-0.1012-12.2785L98.5437,74.7689z"/>
			<path style="opacity:0.2;enable-background:new    ;" d="M92.0767,88.3923l-0.4349-2.4371
				c-14.3528,9.0582-33.5442,16.3869-33.5442,16.3869s-2.8602,1.9092-2.4453,5.3529c1.467-0.8461,2.4945-2.1016,4.0673-2.1526
				C64.4115,105.3773,92.0767,88.3923,92.0767,88.3923"/>
			<path style="fill:#DEE0E2;" d="M124.1621,74.9677c0,0,5.8762-0.0957,8.0763,6.9174c2.1982,7.0141,2.3022,25.1251,1.0458,27.5303
				c-1.2573,2.4088-2.9322-0.6273-4.9207-4.2898c-1.9885-3.6661-5.2353-5.0274-5.2353-5.0274s-7.3259,2.7216-13.3963,12.8776
				c0,0,0.5252-9.0026,6.6995-14.0291C122.6066,93.9248,124.6471,80.616,124.1621,74.9677"/>
			<path style="fill:none;stroke:#575A5B;stroke-width:0.9117;stroke-miterlimit:10;" d="M124.1621,74.9677
				c0,0,5.8762-0.0957,8.0763,6.9174c2.1982,7.0141,2.3022,25.1251,1.0458,27.5303c-1.2573,2.4088-2.9322-0.6273-4.9207-4.2898
				c-1.9885-3.6661-5.2353-5.0274-5.2353-5.0274s-7.3259,2.7216-13.3963,12.8776c0,0,0.5252-9.0026,6.6995-14.0291
				C122.6066,93.9248,124.6471,80.616,124.1621,74.9677z"/>
			<path style="fill:#D3D3D3;" d="M99.7664,80.0954c0,0,0,14.8925,2.8173,17.3862c2.8191,2.4964,5.8443,10.7659,6.4105,16.045
				c0,0-3.9151-9.6035-13.8951-14.7567C90.6525,96.475,95.9051,82.1076,99.7664,80.0954"/>
			<path style="fill:#DEE0E2;" d="M98.5437,74.7689c0,0-10.5234,8.3389-11.7151,12.1126c-1.1907,3.7728,0.5963,6.1561,0.796,11.5172
				c0.1988,5.3629,0.7941,13.3061,3.9698,13.7009c0.7613,0.5443,1.5108-8.771,3.2832-13.1055c0.2516-0.62-0.6501-6.354,1.4342-9.928
				C98.3951,85.492,101.1267,76.1593,98.5437,74.7689"/>
			<path style="fill:none;stroke:#575A5B;stroke-width:0.9117;stroke-miterlimit:10;" d="M98.5437,74.7689
				c0,0-10.5234,8.3389-11.7151,12.1126c-1.1907,3.7728,0.5963,6.1561,0.796,11.5172c0.1988,5.3629,0.7941,13.3061,3.9698,13.7009
				c0.7613,0.5443,1.5108-8.771,3.2832-13.1055c0.2516-0.62-0.6501-6.354,1.4342-9.928
				C98.3951,85.492,101.1267,76.1593,98.5437,74.7689z"/>
			<path style="fill:#EDEEEF;" d="M91.402,85.306c2.6888-2.6869,7.1691-9.4111,7.1691-9.4111l-1.5509,0.1222
				c-2.9577,2.4672-9.2834,7.9915-10.1915,10.8653c-1.1907,3.7728,0.5963,6.1561,0.7932,11.5172
				c0.2015,5.3629,0.7969,13.3052,3.9716,13.7027c0.2899,0.207,0.579-1.0239,0.9227-2.8611
				c-1.3786-2.6732-2.2019-7.2566-3.131-12.057C88.0404,90.2358,88.7114,87.9966,91.402,85.306"/>
			<path style="fill:#FFA96A;" d="M88.4962,49.0658c0,0-2.6742-5.2526-4.4931-3.7054c-2.8829,2.4535,0.3547,9.432,1.4779,12.801
				c1.1224,3.3689,2.79,1.6858,2.79,1.6858"/>
			<path style="fill:none;stroke:#6B4429;stroke-width:0.6747;stroke-miterlimit:10;" d="M88.4962,49.0658
				c0,0-2.6742-5.2526-4.4931-3.7054c-2.8829,2.4535,0.3547,9.432,1.4779,12.801c1.1224,3.3689,2.79,1.6858,2.79,1.6858"/>
			<path style="fill:#FFA96A;" d="M128.2996,46.904c0,0,3.1118-4.463,5.4714-2.5547c2.3569,1.9101,0.2216,10.7814-2.2456,13.2514
				c-2.4708,2.4708-3.482-0.5616-3.482-0.5616"/>
			<path style="fill:none;stroke:#6B4429;stroke-width:0.6747;stroke-miterlimit:10;" d="M128.2996,46.904
				c0,0,3.1118-4.463,5.4714-2.5547c2.3569,1.9101,0.2216,10.7814-2.2456,13.2514c-2.4708,2.4708-3.482-0.5616-3.482-0.5616"/>
			<path style="fill:#FFA96A;" d="M107.7943,6.3631c-11.6859,0.3647-20.642,3.6415-20.9465,12.294
				c-0.3045,8.6507,0.7604,20.6429,1.9721,24.1331c1.2154,3.492-2.4271,13.5094-0.454,21.0997
				c1.9739,7.5885,8.3471,16.6969,13.0526,16.9996c4.7055,0.3045,18.3663,0.454,19.8853-1.6685
				c1.5172-2.1262,7.5876-14.1157,7.8921-20.4916c0.3018-6.375,0.062-13.462-1.3111-18.958
				c-1.3403-5.362,3.285-19.4449,0.0966-24.6045C124.7948,10.0046,117.509,6.0586,107.7943,6.3631"/>
			<path style="fill:none;stroke:#6B4429;stroke-width:0.9117;stroke-miterlimit:10;" d="M107.7943,6.3631
				c-11.6859,0.3647-20.642,3.6415-20.9465,12.294c-0.3045,8.6507,0.7604,20.6429,1.9721,24.1331
				c1.2154,3.492-2.4271,13.5094-0.454,21.0997c1.9739,7.5885,8.3471,16.6969,13.0526,16.9996
				c4.7055,0.3045,18.3663,0.454,19.8853-1.6685c1.5172-2.1262,7.5876-14.1157,7.8921-20.4916
				c0.3018-6.375,0.062-13.462-1.3111-18.958c-1.3403-5.362,3.285-19.4449,0.0966-24.6045
				C124.7948,10.0046,117.509,6.0586,107.7943,6.3631z"/>
			<g style="opacity:0.4;">
				<g>
					<g>
						<g>
							<defs>
								<rect id="SVGID_18_" x="99.078" y="14.4056" width="24.9838" height="17.7718"/>
							</defs>
							<clipPath id="SVGID_19_">
								<use xlink:href="#SVGID_18_"  style="overflow:visible;"/>
							</clipPath>
							<path style="clip-path:url(#SVGID_19_);fill:#3F4142;" d="M99.078,18.5541c3.8722-2.0788,9.1494-4.8478,15.5517-3.9907
								c6.405,0.857,15.043,8.193,4.4685,17.6114c0,0-0.2972-0.6136,0-1.8344c0.2963-1.2236,4.9143-12.9651-5.8097-13.3307
								C102.5673,16.6422,99.078,18.5541,99.078,18.5541"/>
						</g>
					</g>
				</g>
			</g>
			<path style="fill:#564F4C;" d="M100.3581,33.9882c0,0-1.3658-1.9739-5.7686-1.6712c-4.4019,0.3036-5.1605,4.5542-5.1605,4.5542
				s0.7586,0.3045,1.973-0.3027c1.2154-0.6072,4.8578-2.1262,6.375-1.8226C99.2941,35.0504,100.3581,33.9882,100.3581,33.9882"/>
			<path style="fill:none;stroke:#473F3D;stroke-width:0.9117;stroke-miterlimit:10;" d="M100.3581,33.9882
				c0,0-1.3658-1.9739-5.7686-1.6712c-4.4019,0.3036-5.1605,4.5542-5.1605,4.5542s0.7586,0.3045,1.973-0.3027
				c1.2154-0.6072,4.8578-2.1262,6.375-1.8226C99.2941,35.0504,100.3581,33.9882,100.3581,33.9882z"/>
			<path style="fill:#564F4C;" d="M111.7422,33.2287c-0.6674-1.4688,4.7055-1.8226,5.9191-1.6694
				c1.2135,0.1523,1.3676,1.6694,3.1875,1.9721c1.8226,0.3054,2.1244,1.519,1.6703,1.973
				c-0.4568,0.4559-3.4902,0.1523-5.4641-1.2126C115.082,32.9251,112.5008,34.899,111.7422,33.2287"/>
			<path style="fill:none;stroke:#473F3D;stroke-width:0.9117;stroke-miterlimit:10;" d="M111.7422,33.2287
				c-0.6674-1.4688,4.7055-1.8226,5.9191-1.6694c1.2135,0.1523,1.3676,1.6694,3.1875,1.9721
				c1.8226,0.3054,2.1244,1.519,1.6703,1.973c-0.4568,0.4559-3.4902,0.1523-5.4641-1.2126
				C115.082,32.9251,112.5008,34.899,111.7422,33.2287z"/>
			<path style="fill:#CE8452;" d="M100.38,58.3538c0.1003,0.9537,0.6337,3.6014,4.1713,3.6279
				c4.0783,0.0319,6.1105-3.7281,6.1105-3.7281"/>
			<path style="fill:#FFA96A;" d="M104.3397,40.7999c0,0,0.0875,7.0615-1.8563,10.9456c-1.9402,3.8841-3.3516,7.2366-0.2635,8.3398
				c3.089,1.1041,5.145,0.3063,6.9721-0.8835c1.312-0.8507,1.5454-1.2783,1.5454-1.2783"/>
			
				<path style="fill:none;stroke:#6B4429;stroke-width:0.9117;stroke-linecap:round;stroke-linejoin:round;stroke-miterlimit:10;" d="
				M104.3397,40.7999c0,0,0.0875,7.0615-1.8563,10.9456c-1.9402,3.8841-3.3516,7.2366-0.2635,8.3398
				c3.089,1.1041,5.145,0.3063,6.9721-0.8835c1.312-0.8507,1.5454-1.2783,1.5454-1.2783"/>
			<path style="fill:#FFA96A;" d="M101.3747,66.9799c2.1317,3.5859,11.53,1.6439,13.4082,0.3009"/>
			
				<path style="fill:none;stroke:#6B4429;stroke-width:0.8188;stroke-linecap:round;stroke-linejoin:round;stroke-miterlimit:10;" d="
				M101.3747,66.9799c2.1317,3.5859,11.53,1.6439,13.4082,0.3009"/>
			<path style="fill:#CE8452;" d="M105.5943,72.1887c1.6895-0.8935,5.362-2.7827,8.637-1.2929"/>
			<path style="fill:#FFA96A;" d="M86.1777,49.384c-1.7524-0.5388-1.2135,3.2358,0.1368,4.0445
				c1.3466,0.8078,0.8078,2.696,0.6729,3.5066"/>
			<path style="fill:none;stroke:#6B4429;stroke-width:0.6747;stroke-miterlimit:10;" d="M86.1777,49.384
				c-1.7524-0.5388-1.2135,3.2358,0.1368,4.0445c1.3466,0.8078,0.8078,2.696,0.6729,3.5066"/>
			<path style="fill:#FFA96A;" d="M131.1835,48.1905c1.7533-0.5398,1.2154,3.2367-0.134,4.0463
				c-1.3476,0.8078-0.8069,2.697-0.6729,3.5048"/>
			<path style="fill:none;stroke:#6B4429;stroke-width:0.6747;stroke-miterlimit:10;" d="M131.1835,48.1905
				c1.7533-0.5398,1.2154,3.2367-0.134,4.0463c-1.3476,0.8078-0.8069,2.697-0.6729,3.5048"/>
			<path style="fill:#FCBD92;" d="M90.4018,64.8427c-1.9721-7.5912,1.4223-17.3697,0.2079-20.8608
				c-0.8871-2.552-0.7941-10.6976-0.7039-17.3652c0.0346-2.4544-0.7759-1.8436-0.692-4.1713
				c0.0474-1.3603,1.7314-2.5684,2.1827-3.6734c-0.4659,0.2206-2.3377-0.9883-2.8219-0.7805
				c-0.6018,0.2589-1.1816,0.2252-1.6822,0.0237c-0.0191,0.2134-0.0365,0.4249-0.0438,0.6428
				c-0.3045,8.6507,0.7604,20.6429,1.9721,24.134c1.2154,3.4911-2.4271,13.5085-0.454,21.0988
				c1.446,5.5617,5.2581,11.9366,9.0455,15.0658c0.7412,0.5425,2.831,1.8053,4.3572,1.6703
				C95.0453,77.8607,91.051,67.33,90.4018,64.8427"/>
			<path style="fill:#CE8452;" d="M127.8209,34.0119c-0.1377-0.7185-0.3063-1.4305-0.5872-2.1216
				c-0.1504-0.3647-0.2744-0.7239-0.3848-1.0813c-0.3811,3.1328-0.6109,5.9537-0.1568,7.7708
				c1.374,5.4969,1.6138,12.5803,1.312,18.9562c-0.3036,6.3759-6.375,18.3672-7.8921,20.4907
				c-1.2655,1.7724-13.0955,2.6067-19.7284,2.6605c0.3519,0.1085,0.6993,0.1814,1.0348,0.2024
				c4.7055,0.3045,18.3663,0.454,19.8853-1.6685c1.5172-2.1262,7.5876-14.1157,7.8921-20.4916
				c0.3018-6.375,0.062-13.462-1.3111-18.958C127.5301,38.3536,127.5939,36.3223,127.8209,34.0119"/>
			<path style="fill:#564F4C;" d="M87.4258,14.402c0,0-3.5759,6.157-6.157,7.5456c-2.5812,1.3904-1.5874,3.575,0.796,6.7524
				c2.3815,3.1765,6.3549,20.2545,6.3549,20.2545s1.3868-4.37,0.5945-7.346C88.22,38.6281,88.22,34.0593,89.8064,30.488
				c1.5901-3.575-3.1756-4.4193-1.9831-9.0364C88.8546,17.4518,89.1627,15.1961,87.4258,14.402"/>
			<path style="fill:#473F3D;" d="M87.4258,14.402c0,0-3.5759,6.157-6.157,7.5456c-2.5812,1.3904-1.5874,3.575,0.796,6.7524
				c2.3815,3.1765,6.3549,20.2545,6.3549,20.2545s1.3868-4.37,0.5945-7.346C88.22,38.6281,88.22,34.0593,89.8064,30.488
				c1.5901-3.575-3.1756-4.4193-1.9831-9.0364C88.8546,17.4518,89.1627,15.1961,87.4258,14.402z"/>
			<path style="fill:#564F4C;" d="M126.2828,13.6644c0,0,2.4116,5.7504,5.1222,6.8618c2.7143,1.1114,1.9539,3.389-0.0821,6.7971
				c-2.0387,3.4081-2.4161,20.808-2.4161,20.808s-0.878-4.2013-1.3603-7.2448c-0.351-2.2092-0.6856-6.8947-1.9521-10.9766
				c-1.1598-3.7345,2.6979-4.7265,1.0312-9.1923C125.1796,16.8473,124.638,14.6372,126.2828,13.6644"/>
			<path style="fill:none;stroke:#473F3D;stroke-width:0.9117;stroke-miterlimit:10;" d="M126.2828,13.6644
				c0,0,2.4116,5.7504,5.1222,6.8618c2.7143,1.1114,1.9539,3.389-0.0821,6.7971c-2.0387,3.4081-2.4161,20.808-2.4161,20.808
				s-0.878-4.2013-1.3603-7.2448c-0.351-2.2092-0.6856-6.8947-1.9521-10.9766c-1.1598-3.7345,2.6979-4.7265,1.0312-9.1923
				C125.1796,16.8473,124.638,14.6372,126.2828,13.6644z"/>
			<g style="opacity:0.4;">
				<g>
					<g>
						<g>
							<defs>
								<rect id="SVGID_20_" x="117.1607" y="10.4441" width="12.6934" height="22.523"/>
							</defs>
							<clipPath id="SVGID_21_">
								<use xlink:href="#SVGID_20_"  style="overflow:visible;"/>
							</clipPath>
							<path style="clip-path:url(#SVGID_21_);fill:#3F4142;" d="M117.1607,11.1762c0,0,4.3199-0.1495,5.9583,7.1472
								c1.6393,7.2986,0.9427,10.0302,0.3465,14.6473c2.4316-0.4367,7.7699-7.945,6.0568-14.1002
								C128.254,14.3117,120.7366,8.348,117.1607,11.1762"/>
						</g>
					</g>
				</g>
			</g>
			<path style="fill:#474241;" d="M131.323,27.3233c2.035-3.4081,2.7954-5.6857,0.0821-6.7971
				c-0.0711-0.0292-0.1413-0.0766-0.2134-0.1112c0.1322,2.0296-0.2389,3.8139-1.074,5.8042
				c-0.9792,2.3359-2.1873,9.4804-2.4517,15.394c0.496,2.945,1.2418,6.5181,1.2418,6.5181S129.2843,30.7323,131.323,27.3233"/>
			<path style="fill:#726A67;" d="M89.0141,41.6095C88.22,38.6299,88.22,34.062,89.8083,30.488
				c1.5874-3.5741-3.1765-4.4202-1.9849-9.0354c0.7759-3.0051,1.1397-5.0219,0.5388-6.178l-1.2345,0.7166l-0.1988,4.4703
				c0,0-2.1846,3.3735-0.3975,5.5589c1.7888,2.1846,2.5821,3.3753,1.3895,6.6512c-1.1898,3.2768,0.8935,8.3416,0.4987,11.0212
				c-0.1203,0.8033-0.3547,1.7734-0.6072,2.7562c0.3775,1.5254,0.6072,2.5064,0.6072,2.5064S89.8083,44.5855,89.0141,41.6095"/>
			<path style="fill:#564F4C;" d="M123.119,19.516c-1.043-0.8935,1.4889-6.85,3.4264-7.2967
				c1.9347-0.4458,1.6667,0.9309,3.6023,4.3554c1.9366,3.4254,0.3246,10.1487-0.5398,9.8232
				C123.8329,24.2334,124.1621,20.4095,123.119,19.516"/>
			
				<path style="fill:none;stroke:#473F3D;stroke-width:0.9117;stroke-linecap:round;stroke-linejoin:round;stroke-miterlimit:10;" d="
				M123.119,19.516c-1.043-0.8935,1.4889-6.85,3.4264-7.2967c1.9347-0.4458,1.6667,0.9309,3.6023,4.3554
				c1.9366,3.4254,0.3246,10.1487-0.5398,9.8232C123.8329,24.2334,124.1621,20.4095,123.119,19.516z"/>
			<path style="fill:#564F4C;" d="M85.5896,23.183c0,0-2.5319-13.6762,5.9565-18.721c8.4875-5.0429,15.786-6.6366,26.6577-0.3975
				c10.8726,6.24,9.3828,6.5044,9.8296,8.4948c0.4458,1.9922-3.9351,5.1505-6.7661,4.0883
				c-2.831-1.0622-10.8954-3.6661-19.2352,0.0511C93.6923,20.4168,88.4197,25.9712,85.5896,23.183"/>
			<path style="fill:#473F3D;" d="M85.5896,23.183c0,0-2.5319-13.6762,5.9565-18.721c8.4875-5.0429,15.786-6.6366,26.6577-0.3975
				c10.8726,6.24,9.3828,6.5044,9.8296,8.4948c0.4458,1.9922-3.9351,5.1505-6.7661,4.0883
				c-2.831-1.0622-10.8954-3.6661-19.2352,0.0511C93.6923,20.4168,88.4197,25.9712,85.5896,23.183z"/>
			<path style="fill:#726A67;" d="M95.638,19.8615c1.8244-1.1105,3.8786-2.2903,6.1835-3.3169
				c2.0141-0.899,4.009-1.3585,5.9182-1.5308c0.0119-0.0219,0.0255-0.0429,0.0392-0.062c4.3727-7.046,12.3059-7.1098,18.3845-5.8288
				c-1.0941-0.8899-2.9021-2.0906-5.9163-3.8722C112.0012,6.178,97.5299,9.309,95.638,19.8615"/>
			<path style="fill:#726A67;" d="M92.7359,21.324c0,0-3.8704-9.959,4.618-14.6035c5.0338-2.7553,12.0014-4.1567,18.1146-4.0956
				c-1.0139-0.4851-1.9995-0.899-2.9577-1.2455c-9.5032,0.1422-18.9753,2.6477-21.7106,6.2692
				c-4.0381,5.3465-1.6421,12.9241-0.6574,15.4624c0.7941-0.3902,1.6621-0.8962,2.6094-1.4734
				C92.7413,21.4398,92.7359,21.324,92.7359,21.324"/>
			<path style="fill:#564F4C;" d="M92.7359,21.324c0,0,0.0055,0.1158,0.0173,0.3136c0.8908-0.5425,1.8509-1.1497,2.8848-1.7761
				C97.5299,9.3099,112.0012,6.178,120.247,5.2517c-0.6282-0.3702-1.3056-0.764-2.0423-1.188
				c-0.9373-0.5379-1.8472-1.013-2.7353-1.4387c-6.1133-0.0611-13.0818,1.3403-18.1146,4.0956
				C88.8655,11.3649,92.7359,21.324,92.7359,21.324"/>
			<path style="fill:#726A67;" d="M100.0344,18.0271c3.8731-2.531,8.7865-5.3611,15.1907-4.318
				c6.405,1.0412,15.043,9.9773,4.4667,21.4453c0,0-0.2972-0.7449,0-2.2338c0.3-1.4907,4.9162-16.9786-5.806-17.4244
				C103.1617,15.0475,100.0344,18.0271,100.0344,18.0271"/>
			
				<path style="fill:none;stroke:#473F3D;stroke-width:0.9117;stroke-linecap:round;stroke-linejoin:round;stroke-miterlimit:10;" d="
				M100.0344,18.0271c3.8731-2.531,8.7865-5.3611,15.1907-4.318c6.405,1.0412,15.043,9.9773,4.4667,21.4453
				c0,0-0.2972-0.7449,0-2.2338c0.3-1.4907,4.9162-16.9786-5.806-17.4244C103.1617,15.0475,100.0344,18.0271,100.0344,18.0271z"/>
			<g style="opacity:0.4;">
				<g>
					<g>
						<g>
							<defs>
								<rect id="SVGID_22_" x="78.0932" y="135.7395" width="47.5687" height="46.8694"/>
							</defs>
							<clipPath id="SVGID_23_">
								<use xlink:href="#SVGID_22_"  style="overflow:visible;"/>
							</clipPath>
							<path style="clip-path:url(#SVGID_23_);fill:#545454;" d="M79.2839,173.8579c0,0,3.575,0.7941,6.5537,0.9929
								c2.9778,0.1988,6.8828-1.7642,11.8464-1.5646c4.9645,0.1969,5.0319-3.5996,7.2156-10.1514
								c2.1845-6.5537,0.6957-12.4098-3.8722-12.8083c-4.5679-0.3966-8.4382-0.496-13.9999,4.4676
								c-5.5589,4.9636-8.9333,4.5679-8.9333,4.5679L79.2839,173.8579z"/>
						</g>
					</g>
					<g>
						<g>
							<defs>
								<rect id="SVGID_24_" x="78.0932" y="135.7395" width="47.5687" height="46.8694"/>
							</defs>
							<clipPath id="SVGID_25_">
								<use xlink:href="#SVGID_24_"  style="overflow:visible;"/>
							</clipPath>
							<path style="clip-path:url(#SVGID_25_);fill:#545454;" d="M97.5527,150.4268c3.7929-0.0511,15.5991-1.0686,16.9941,0.5653
								c1.3922,1.6375,7.8447,5.692,10.8307,8.7163c1.5928,1.6111-3.9059,2.4626-6.2154,1.5372
								c-2.3095-0.9282-6.0604-3.8822-8.1018-4.2387c-2.0414-0.3592-8.0042-0.0511-8.0042-0.0511"/>
						</g>
					</g>
					<g>
						<g>
							<defs>
								<rect id="SVGID_26_" x="78.0932" y="135.7395" width="47.5687" height="46.8694"/>
							</defs>
							<clipPath id="SVGID_27_">
								<use xlink:href="#SVGID_26_"  style="overflow:visible;"/>
							</clipPath>
							<path style="clip-path:url(#SVGID_27_);fill:#545454;" d="M102.5691,156.2493c4.721,0.9455,11.1689,2.4681,11.964,3.7974
								c1.1014,1.8427,6.7898,6.9165,9.2315,10.394c1.3011,1.8545-4.2633,1.777-6.3868,0.4814
								c-2.1226-1.2992-5.3301-4.8368-7.2831-5.5288c-1.3503-0.4787-4.6016-0.9574-6.4798-1.2063"/>
						</g>
					</g>
					<g>
						<g>
							<defs>
								<rect id="SVGID_28_" x="78.0932" y="135.7395" width="47.5687" height="46.8694"/>
							</defs>
							<clipPath id="SVGID_29_">
								<use xlink:href="#SVGID_28_"  style="overflow:visible;"/>
							</clipPath>
							<path style="clip-path:url(#SVGID_29_);fill:#545454;" d="M101.465,160.3084c4.2487,1.2035,9.2652,2.8857,9.8852,4.1175
								c0.9145,1.8126,6.0622,8.1055,8.1264,11.5537c1.0996,1.8344-4.1412,1.3859-6.0558,0.0164
								c-1.9128-1.3685-4.8259-6.044-6.622-6.8281c-0.8962-0.3939-4.4658-1.2327-6.0759-1.5965"/>
						</g>
					</g>
					<g>
						<g>
							<defs>
								<rect id="SVGID_30_" x="78.0932" y="135.7395" width="47.5687" height="46.8694"/>
							</defs>
							<clipPath id="SVGID_31_">
								<use xlink:href="#SVGID_30_"  style="overflow:visible;"/>
							</clipPath>
							<path style="clip-path:url(#SVGID_31_);fill:#545454;" d="M100.493,167.4993c3.5321,1.1442,7.3669,2.6113,7.8493,3.6406
								c0.7622,1.6284,5.1641,7.3277,6.9038,10.4313c0.9272,1.6557-3.7017,1.1233-5.3611-0.1368
								c-1.6603-1.2591-4.122-5.4705-5.6921-6.2136c-1.5709-0.7403-6.4525-1.8135-6.4525-1.8135"/>
						</g>
					</g>
					<g>
						<g>
							<defs>
								<rect id="SVGID_32_" x="78.0932" y="135.7395" width="47.5687" height="46.8694"/>
							</defs>
							<clipPath id="SVGID_33_">
								<use xlink:href="#SVGID_32_"  style="overflow:visible;"/>
							</clipPath>
							<path style="clip-path:url(#SVGID_33_);fill:#545454;" d="M84.7918,156.7288c3.1729-1.8764,1.8399-9.0819,4.8168-11.0695
								c2.9796-1.9858,5.3629-1.1917,10.724-8.338c4.0436-5.3939,5.3638,4.3673,0.9938,8.7364
								c-2.1435,2.1426-4.7675,4.3682-4.7675,4.3682"/>
						</g>
					</g>
				</g>
			</g>
			<path style="fill:#564F4C;" d="M98.2474,18.6216c0,0,7.8921-6.7023,18.0207-6.5537c10.1277,0.1504,13.255,4.319,13.255,11.9157
				c0,7.594-5.5088,12.0634-5.5088,12.0634s3.8713-14.5962-2.5328-19.2115C115.0774,12.2193,103.1617,15.7924,98.2474,18.6216"/>
			
				<path style="fill:none;stroke:#473F3D;stroke-width:0.9117;stroke-linecap:round;stroke-linejoin:round;stroke-miterlimit:10;" d="
				M98.2474,18.6216c0,0,7.8921-6.7023,18.0207-6.5537c10.1277,0.1504,13.255,4.319,13.255,11.9157
				c0,7.594-5.5088,12.0634-5.5088,12.0634s3.8713-14.5962-2.5328-19.2115C115.0774,12.2193,103.1617,15.7924,98.2474,18.6216z"/>
			<path style="fill:#D3D3D3;" d="M124.1621,74.9677c0.4851,5.6483-1.5554,18.9571-7.7307,23.9799
				c-6.1735,5.0265-6.6995,14.0291-6.6995,14.0291c6.0704-10.156,13.3963-12.8775,13.3963-12.8775
				S126.3959,91.2506,124.1621,74.9677"/>
			<g style="opacity:0.4;">
				<g>
					<g>
						<g>
							<defs>
								<rect id="SVGID_34_" x="69.51" y="113.9705" width="7.3122" height="43.6555"/>
							</defs>
							<clipPath id="SVGID_35_">
								<use xlink:href="#SVGID_34_"  style="overflow:visible;"/>
							</clipPath>
							<path style="clip-path:url(#SVGID_35_);fill:#545454;" d="M69.9513,156.9796c0.899-0.4449,5.5106-0.2726,6.6175,0.6136
								c0.0128,0.01,0.021,0.021,0.0319,0.031c0.7057-13.3571-0.4942-19.5096-0.4942-19.5096
								c0-13.8996-6.1224-23.9681-6.1224-23.9681l-0.4741-0.1778c2.2821,2.9559,0.2024,9.6727,0.2398,16.0039
								C69.7498,129.9726,70.7199,142.7964,69.9513,156.9796"/>
						</g>
					</g>
				</g>
			</g>
			<path style="fill:#6FC2D8;" d="M56.4647,107.24c0,0-9.5378,65.7508-9.1968,72.2252c0.3392,6.4743,14.991,4.9426,14.991,4.9426
				s7.8328,1.8737,9.1959-3.5777c1.364-5.4523,3.409-52.4685,3.409-52.4685c-0.0656-10.1769-7.8602-17.191-7.8602-17.191"/>
			<path style="fill:none;stroke:#2F4A56;stroke-width:0.9117;stroke-miterlimit:10;" d="M56.4647,107.24
				c0,0-9.5378,65.7508-9.1968,72.2252c0.3392,6.4743,14.991,4.9426,14.991,4.9426s7.8328,1.8737,9.1959-3.5777
				c1.364-5.4523,3.409-52.4685,3.409-52.4685c-0.0656-10.1769-7.8602-17.191-7.8602-17.191"/>
			<g style="opacity:0.4;">
				<g>
					<g>
						<g>
							<defs>
								<rect id="SVGID_36_" x="69.148" y="156.4872" width="16.4434" height="31.3824"/>
							</defs>
							<clipPath id="SVGID_37_">
								<use xlink:href="#SVGID_36_"  style="overflow:visible;"/>
							</clipPath>
							<path style="clip-path:url(#SVGID_37_);fill:#545454;" d="M81.5277,182.783c3.9306-4.0837,4.3436-8.265,3.9424-12.2931
								c-0.4039-4.0272-2.3487-14.6071-5.2854-13.9215c-1.9803-0.1185-4.4001-0.1349-9.3272,0.1532
								c-0.5872,0.0347-1.1552,0.0976-1.7104,0.1751c1.6895,8.9005,2.8,16.882,2.676,21.5091
								c-0.0638,2.4171-0.1514,4.804-0.2516,9.464C74.9832,187.8696,80.9625,183.3683,81.5277,182.783"/>
						</g>
					</g>
				</g>
			</g>
			<path style="fill:#273F49;" d="M83.6731,168.1129c-0.403-4.0272-1.6229-14.02-4.5578-13.3334
				c-5.3246,1.9639-5.9273,10.4705-5.7668,15.7496c0.2489,8.0963,2.4635,10.4833,5.6419,11.2145
				c0.6948,0.1586,1.6503-0.713,2.2137-1.2974C85.1346,176.3625,84.0761,172.1411,83.6731,168.1129"/>
			
				<path style="fill:none;stroke:#2F4A56;stroke-width:0.9117;stroke-linecap:round;stroke-linejoin:round;stroke-miterlimit:10;" d="
				M83.6731,168.1129c-0.403-4.0272-1.6229-14.02-4.5578-13.3334c-5.3246,1.9639-5.9273,10.4705-5.7668,15.7496
				c0.2489,8.0963,2.4635,10.4833,5.6419,11.2145c0.6948,0.1586,1.6503-0.713,2.2137-1.2974
				C85.1346,176.3625,84.0761,172.1411,83.6731,168.1129z"/>
			<path style="fill:#FFA96A;" d="M79.8784,172.6671c0,0,3.5759,0.7941,6.5537,0.9938c2.9787,0.1978,6.8828-1.7661,11.8473-1.5664
				c4.9636,0.1988,5.031-3.5968,7.2156-10.1496c2.1846-6.5537,0.6957-12.4126-3.8722-12.8101
				c-4.567-0.3984-8.4382-0.4951-13.9999,4.4694c-5.558,4.9617-8.9351,4.566-8.9351,4.566L79.8784,172.6671z"/>
			
				<path style="fill:none;stroke:#6B4429;stroke-width:0.9117;stroke-linecap:round;stroke-linejoin:round;stroke-miterlimit:10;" d="
				M79.8784,172.6671c0,0,3.5759,0.7941,6.5537,0.9938c2.9787,0.1978,6.8828-1.7661,11.8473-1.5664
				c4.9636,0.1988,5.031-3.5968,7.2156-10.1496c2.1846-6.5537,0.6957-12.4126-3.8722-12.8101
				c-4.567-0.3984-8.4382-0.4951-13.9999,4.4694c-5.558,4.9617-8.9351,4.566-8.9351,4.566L79.8784,172.6671z"/>
			<path style="fill:#FFA96A;" d="M98.1471,149.2343c3.7947-0.0492,15.6009-1.0667,16.9941,0.568
				c1.3932,1.632,7.8474,5.6893,10.8343,8.7136c1.5892,1.612-3.9087,2.4645-6.22,1.5381c-2.3058-0.9263-6.0568-3.8804-8.1-4.2387
				c-2.0414-0.3574-8.0033-0.0501-8.0033-0.0501"/>
			
				<path style="fill:none;stroke:#6B4429;stroke-width:0.9117;stroke-linecap:round;stroke-linejoin:round;stroke-miterlimit:10;" d="
				M98.1471,149.2343c3.7947-0.0492,15.6009-1.0667,16.9941,0.568c1.3932,1.632,7.8474,5.6893,10.8343,8.7136
				c1.5892,1.612-3.9087,2.4645-6.22,1.5381c-2.3058-0.9263-6.0568-3.8804-8.1-4.2387c-2.0414-0.3574-8.0033-0.0501-8.0033-0.0501"
				/>
			<path style="fill:#FFA96A;" d="M103.1636,155.0576c4.7229,0.9437,11.1708,2.4672,11.9676,3.7965
				c1.1014,1.8427,6.7871,6.9156,9.2287,10.394c1.3002,1.8536-4.2643,1.7788-6.3877,0.4814
				c-2.1216-1.2965-5.3274-4.8359-7.2812-5.5289c-1.3494-0.4778-4.6034-0.9564-6.4816-1.2062"/>
			
				<path style="fill:none;stroke:#6B4429;stroke-width:0.9117;stroke-linecap:round;stroke-linejoin:round;stroke-miterlimit:10;" d="
				M103.1636,155.0576c4.7229,0.9437,11.1708,2.4672,11.9676,3.7965c1.1014,1.8427,6.7871,6.9156,9.2287,10.394
				c1.3002,1.8536-4.2643,1.7788-6.3877,0.4814c-2.1216-1.2965-5.3274-4.8359-7.2812-5.5289
				c-1.3494-0.4778-4.6034-0.9564-6.4816-1.2062"/>
			<path style="fill:#FFA96A;" d="M102.0622,159.1167c4.2497,1.2017,9.2634,2.8839,9.8843,4.1184
				c0.9136,1.8135,6.0613,8.1045,8.1264,11.5519c1.0987,1.8372-4.1412,1.3858-6.0558,0.0164
				c-1.9138-1.3667-4.8277-6.0431-6.6229-6.8281c-0.8972-0.3948-4.4648-1.2336-6.0759-1.5947"/>
			
				<path style="fill:none;stroke:#6B4429;stroke-width:0.9117;stroke-linecap:round;stroke-linejoin:round;stroke-miterlimit:10;" d="
				M102.0622,159.1167c4.2497,1.2017,9.2634,2.8839,9.8843,4.1184c0.9136,1.8135,6.0613,8.1045,8.1264,11.5519
				c1.0987,1.8372-4.1412,1.3858-6.0558,0.0164c-1.9138-1.3667-4.8277-6.0431-6.6229-6.8281
				c-0.8972-0.3948-4.4648-1.2336-6.0759-1.5947"/>
			<path style="fill:#FFA96A;" d="M101.0857,166.3086c3.5358,1.1433,7.3697,2.6122,7.852,3.6397
				c0.7631,1.6302,5.1632,7.3286,6.9038,10.4313c0.9282,1.6548-3.7017,1.1251-5.3611-0.1349
				c-1.6603-1.261-4.122-5.4723-5.6911-6.2145c-1.5709-0.7403-6.4534-1.8153-6.4534-1.8153"/>
			
				<path style="fill:none;stroke:#6B4429;stroke-width:0.9117;stroke-linecap:round;stroke-linejoin:round;stroke-miterlimit:10;" d="
				M101.0857,166.3086c3.5358,1.1433,7.3697,2.6122,7.852,3.6397c0.7631,1.6302,5.1632,7.3286,6.9038,10.4313
				c0.9282,1.6548-3.7017,1.1251-5.3611-0.1349c-1.6603-1.261-4.122-5.4723-5.6911-6.2145
				c-1.5709-0.7403-6.4534-1.8153-6.4534-1.8153"/>
			<path style="fill:#FFA96A;" d="M85.3863,155.5354c2.9039-1.715,2.046-7.3988,4.7703-9.215
				c2.7261-1.8162,4.5433-1.9977,9.4457-8.5395c3.7026-4.9307,4.907,3.9989,0.9099,7.9942
				c-1.9603,1.9612-3.1692,3.9971-3.1692,3.9971"/>
			
				<path style="fill:none;stroke:#6B4429;stroke-width:0.8343;stroke-linecap:round;stroke-linejoin:round;stroke-miterlimit:10;" d="
				M85.3863,155.5354c2.9039-1.715,2.046-7.3988,4.7703-9.215c2.7261-1.8162,4.5433-1.9977,9.4457-8.5395
				c3.7026-4.9307,4.907,3.9989,0.9099,7.9942c-1.9603,1.9612-3.1692,3.9971-3.1692,3.9971"/>
			<path style="fill:#DEE0E2;" d="M72.1404,155.9311c0,0,3.5996,0.1997,5.6118,0.8033c2.0141,0.6063,3.8412,0.7741,3.8412,0.7741
				s-2.4307,3.0972-1.354,9.2123c0.7294,4.1485,2.0715,6.426,4.4867,6.8308c2.4171,0.403-0.2644,1.2154-2.2766,2.2229
				c-2.015,1.0066-11.2127,3.8175-17.1527,2.8109C59.3558,177.5769,72.1404,155.9311,72.1404,155.9311"/>
			<path style="fill:none;stroke:#575A5B;stroke-width:0.9117;stroke-miterlimit:10;" d="M72.1404,155.9311
				c0,0,3.5996,0.1997,5.6118,0.8033c2.0141,0.6063,3.8412,0.7741,3.8412,0.7741s-2.4307,3.0972-1.354,9.2123
				c0.7294,4.1485,2.0715,6.426,4.4867,6.8308c2.4171,0.403-0.2644,1.2154-2.2766,2.2229
				c-2.015,1.0066-11.2127,3.8175-17.1527,2.8109C59.3558,177.5769,72.1404,155.9311,72.1404,155.9311z"/>
			<path style="fill:#6FC2D8;" d="M48.9701,182.5295c0,0,2.386,3.7491,6.1324,4.7712c3.6889,1.0057,17.6022-0.7057,23.8869-5.5571
				c-3.1765-0.7312-5.3912-3.1182-5.6401-11.2145c-0.1605-5.2781,0.4422-13.7857,5.7668-15.7487
				c-1.9831-0.1167-5.1158-0.1349-10.0447,0.1559c-11.5847,0.6802-16.695,10.2198-16.695,10.2198"/>
			
				<path style="fill:none;stroke:#2F4A56;stroke-width:0.9117;stroke-linecap:round;stroke-linejoin:round;stroke-miterlimit:10;" d="
				M48.9701,182.5295c0,0,2.386,3.7491,6.1324,4.7712c3.6889,1.0057,17.6022-0.7057,23.8869-5.5571
				c-3.1765-0.7312-5.3912-3.1182-5.6401-11.2145c-0.1605-5.2781,0.4422-13.7857,5.7668-15.7487
				c-1.9831-0.1167-5.1158-0.1349-10.0447,0.1559c-11.5847,0.6802-16.695,10.2198-16.695,10.2198"/>
			<path style="opacity:0.2;enable-background:new    ;" d="M59.4443,110.2187l-2.9805-2.9796c0,0-9.5378,65.7508-9.1968,72.2252
				c0.1021,1.9639,1.5263,3.5166,3.4546,4.732c-0.2744-0.5452-0.1814-1.2017-0.4768-1.7542
				C47.1283,176.6114,58.4687,110.443,59.4443,110.2187"/>
			<path style="fill:#619BBC;" d="M79.1152,154.7804c-0.0948-0.0055-0.1988-0.01-0.2981-0.0173l-0.0346,0.1568
				C78.8901,154.8716,79.0013,154.8224,79.1152,154.7804"/>
			
				<path style="fill:none;stroke:#2F4A56;stroke-width:0.9117;stroke-linecap:round;stroke-linejoin:round;stroke-miterlimit:10;" d="
				M79.1152,154.7804c-0.0948-0.0055-0.1988-0.01-0.2981-0.0173l-0.0346,0.1568C78.8901,154.8716,79.0013,154.8224,79.1152,154.7804
				z"/>
			<path style="opacity:0.2;enable-background:new    ;" d="M66.059,157.1036c4.8496-0.9692,9.3418-1.2856,11.3868-1.3858
				c0.4057-0.3182,0.8498-0.5844,1.3366-0.7987l0.0346-0.1559c-1.994-0.0994-5.0556-0.1039-9.7457,0.1723
				c-11.5847,0.6802-16.695,10.2198-16.695,10.2198c-0.1906-0.2279-1.0567,1.0741-1.3102,3.0927
				c-0.124,0.9929,1.075-1.198,1.075-1.198S59.4534,158.4265,66.059,157.1036"/>
			<g style="opacity:0.4;">
				<g>
					<g>
						<g>
							<defs>
								<rect id="SVGID_38_" x="150.4624" y="116.962" width="17.1217" height="118.6442"/>
							</defs>
							<clipPath id="SVGID_39_">
								<use xlink:href="#SVGID_38_"  style="overflow:visible;"/>
							</clipPath>
							<path style="opacity:0.2;clip-path:url(#SVGID_39_);enable-background:new    ;" d="M167.0252,235.1375
								c-2.1855-2.2702-5.0146-13.9388-5.703-26.0113c-0.6091-10.6429,0.9728-21.5984-1.3822-26.7042
								c-4.4129-9.5624-4.5542-28.4667-6.8919-34.6711c-2.1098-5.6036-0.2489-17.9651,3.5065-25.9037
								c-0.207-1.6275-0.4094-3.2577-0.6665-4.8842l-0.0666,0.0739c-5.9127,7.1481-6.4323,22.9651-3.9634,29.5243
								c2.3368,6.2036,3.0999,27.6771,5.1031,34.6711c2.0022,6.9904,2.9687,48.4422,7.087,52.7146
								c0.7878,0.8187,2.035,1.3448,3.5358,1.6621C167.3808,235.4593,167.1903,235.3089,167.0252,235.1375"/>
						</g>
					</g>
				</g>
			</g>
			<g style="opacity:0.4;">
				<g>
					<g>
						<g>
							<defs>
								<rect id="SVGID_40_" x="164.6055" y="106.3009" width="20.6657" height="130.909"/>
							</defs>
							<clipPath id="SVGID_41_">
								<use xlink:href="#SVGID_40_"  style="overflow:visible;"/>
							</clipPath>
							<path style="opacity:0.2;clip-path:url(#SVGID_41_);enable-background:new    ;" d="M184.57,202.6673
								c-1.4232-15.8398-8.4373-27.5166-9.5852-48.2179c-1.1433-20.7031-7.8447-48.1486-7.8447-48.1486l-2.1709,2.2839
								c1.8198,8.0298,6.8491,40.055,7.0396,44.6721c0.8516,20.7177,7.0259,23.628,8.4464,39.4651
								c1.4223,15.8398,1.3768,41.842,1.3768,41.842s-10.8845,2.3879-17.2275,1.0449c4.8678,3.513,20.2062,0.1477,20.2062,0.1477
								S185.9896,218.5044,184.57,202.6673"/>
						</g>
					</g>
				</g>
			</g>
			<path style="fill:#452109;" d="M122.5674,43.4239c0,0-0.2735-4.3035-4.2779-3.8676c-4.0044,0.4367-7.6149,0.506-7.4991,4.8669
				C110.7128,45.7726,118.1828,45.7333,122.5674,43.4239"/>
			<path style="fill:#FFFFFF;" d="M122.6294,44.3429c0,0-0.5926-3.8248-4.598-3.3899c-4.0053,0.4376-7.4654,1.5071-7.284,4.1858
				C110.6718,46.4883,118.2448,46.6542,122.6294,44.3429"/>
			<g>
				<g>
					<g>
						<defs>
							<path id="SVGID_42_" d="M118.0315,40.953c-4.0053,0.4376-7.4654,1.5089-7.2858,4.1858
								c-0.0739,1.3485,7.5001,1.5153,11.8837-0.796c0,0-0.5297-3.4236-3.978-3.4236
								C118.4536,40.9193,118.2476,40.9303,118.0315,40.953"/>
						</defs>
						<clipPath id="SVGID_43_">
							<use xlink:href="#SVGID_42_"  style="overflow:visible;"/>
						</clipPath>
						<path style="clip-path:url(#SVGID_43_);fill:#A85715;" d="M119.4866,43.5597c0.1185,1.7816-1.2281,3.3215-3.0088,3.44
							c-1.7816,0.1203-3.3206-1.2281-3.4391-3.0097c-0.1194-1.7788,1.2263-3.3197,3.0079-3.4391
							C117.8263,40.4324,119.3681,41.78,119.4866,43.5597"/>
					</g>
				</g>
				<g>
					<g>
						<defs>
							<path id="SVGID_44_" d="M118.0315,40.953c-4.0053,0.4376-7.4654,1.5089-7.2858,4.1858
								c-0.0739,1.3485,7.5001,1.5153,11.8837-0.796c0,0-0.5297-3.4236-3.978-3.4236
								C118.4536,40.9193,118.2476,40.9303,118.0315,40.953"/>
						</defs>
						<clipPath id="SVGID_45_">
							<use xlink:href="#SVGID_44_"  style="overflow:visible;"/>
						</clipPath>
						<path style="clip-path:url(#SVGID_45_);fill:#3D1800;" d="M118.1372,43.65c0.0684,1.0376-0.7148,1.9311-1.7496,2.0013
							c-1.0358,0.0702-1.9329-0.7139-2.0004-1.7487c-0.0702-1.0357,0.7139-1.9338,1.7496-2.0022
							C117.1726,41.832,118.067,42.6152,118.1372,43.65"/>
					</g>
				</g>
				<g>
					<g>
						<defs>
							<path id="SVGID_46_" d="M118.0315,40.953c-4.0053,0.4376-7.4654,1.5089-7.2858,4.1858
								c-0.0739,1.3485,7.5001,1.5153,11.8837-0.796c0,0-0.5297-3.4236-3.978-3.4236
								C118.4536,40.9193,118.2476,40.9303,118.0315,40.953"/>
						</defs>
						<clipPath id="SVGID_47_">
							<use xlink:href="#SVGID_46_"  style="overflow:visible;"/>
						</clipPath>
						<path style="clip-path:url(#SVGID_47_);fill:#FFFFFF;" d="M115.1339,43.6482c0.0292,0.4595-0.3173,0.8561-0.7768,0.889
							c-0.4595,0.0292-0.8561-0.3182-0.8871-0.7768c-0.031-0.4604,0.3164-0.857,0.775-0.888
							C114.7045,42.8413,115.1038,43.1868,115.1339,43.6482"/>
					</g>
				</g>
			</g>
			<path style="fill:#452109;" d="M90.8422,45.0459c0,0-0.3-4.2688,3.6962-4.3691c3.998-0.1003,7.5566-0.5124,8.0179,3.7929
				C102.8125,45.7871,95.4584,46.7354,90.8422,45.0459"/>
			<path style="fill:#FFFFFF;" d="M90.9033,45.9585c0,0,0.0748-3.8421,4.0728-3.9415c3.9962-0.1012,7.542,0.4951,7.718,3.151
				C102.9484,46.4846,95.5213,47.6508,90.9033,45.9585"/>
			<g>
				<g>
					<g>
						<defs>
							<path id="SVGID_48_" d="M94.9761,42.0161c-3.9953,0.1003-4.0728,3.9424-4.0728,3.9424
								c4.6171,1.6922,12.0451,0.5261,11.7907-0.7905c-0.1632-2.4754-3.2559-3.1629-6.912-3.1629
								C95.5176,42.0052,95.2477,42.0089,94.9761,42.0161"/>
						</defs>
						<clipPath id="SVGID_49_">
							<use xlink:href="#SVGID_48_"  style="overflow:visible;"/>
						</clipPath>
						<path style="clip-path:url(#SVGID_49_);fill:#A85715;" d="M93.8902,44.7724c0.1176,1.767,1.6466,3.1036,3.4145,2.9842
							c1.7679-0.1194,3.1018-1.6475,2.9842-3.4136c-0.1176-1.7661-1.6457-3.1036-3.4136-2.9842
							C95.1083,41.4764,93.7735,43.0045,93.8902,44.7724"/>
					</g>
				</g>
				<g>
					<g>
						<defs>
							<path id="SVGID_50_" d="M94.9761,42.0161c-3.9953,0.1003-4.0728,3.9424-4.0728,3.9424
								c4.6171,1.6922,12.0451,0.5261,11.7907-0.7905c-0.1632-2.4754-3.2559-3.1629-6.912-3.1629
								C95.5176,42.0052,95.2477,42.0089,94.9761,42.0161"/>
						</defs>
						<clipPath id="SVGID_51_">
							<use xlink:href="#SVGID_50_"  style="overflow:visible;"/>
						</clipPath>
						<path style="clip-path:url(#SVGID_51_);fill:#3D1800;" d="M95.2286,44.6821c0.0693,1.0266,0.961,1.8034,1.984,1.736
							c1.0294-0.0675,1.8062-0.9573,1.7387-1.9858c-0.0702-1.0285-0.9592-1.8044-1.9876-1.7351
							C95.9389,42.7674,95.1602,43.6555,95.2286,44.6821"/>
					</g>
				</g>
				<g>
					<g>
						<defs>
							<path id="SVGID_52_" d="M94.9761,42.0161c-3.9953,0.1003-4.0728,3.9424-4.0728,3.9424
								c4.6171,1.6922,12.0451,0.5261,11.7907-0.7905c-0.1632-2.4754-3.2559-3.1629-6.912-3.1629
								C95.5176,42.0052,95.2477,42.0089,94.9761,42.0161"/>
						</defs>
						<clipPath id="SVGID_53_">
							<use xlink:href="#SVGID_52_"  style="overflow:visible;"/>
						</clipPath>
						<path style="clip-path:url(#SVGID_53_);fill:#FFFFFF;" d="M98.1836,44.2809c0.0301,0.4568,0.4258,0.8014,0.8807,0.7713
							c0.4541-0.0301,0.8005-0.4258,0.7704-0.8808c-0.031-0.455-0.4267-0.8005-0.8808-0.7695
							C98.4963,43.4312,98.1498,43.826,98.1836,44.2809"/>
					</g>
				</g>
			</g>
		</g>
	</g>
	<g>
		<rect x="232.4597" y="121.5389" style="fill:#2F3F4E;" width="169.3812" height="320.9158"/>
		<g>
			<path style="fill:#2F3F4E;" d="M232.1087,121.6092v321.6096h169.7322V121.6092H232.1087z M393.4482,432.9534H240.505V131.8736
				h152.9433V432.9534L393.4482,432.9534z"/>
			<rect x="240.505" y="131.8736" style="fill:#01637C;" width="152.9433" height="301.0798"/>
		</g>
		<g>
			<rect x="250.5251" y="147.9423" style="fill:#B2BCC5;" width="132.5191" height="2.5894"/>
			<rect x="250.2023" y="176.3542" style="fill:#B2BCC5;" width="132.5182" height="2.5912"/>
			<rect x="250.2023" y="204.5838" style="fill:#B2BCC5;" width="132.5182" height="2.5921"/>
			<circle style="fill:#1C98FC;" cx="269.112" cy="157.5968" r="2.3751"/>
			<circle style="fill:#1C98FC;" cx="269.1558" cy="213.4497" r="2.3751"/>
			<path style="fill:#1C98FC;" d="M271.6239,185.4526c0,1.3111-1.0622,2.3742-2.376,2.3742c-1.3102,0-2.3742-1.0631-2.3742-2.3742
				c0-1.312,1.064-2.3769,2.3742-2.3769C270.5617,183.0757,271.6239,184.1397,271.6239,185.4526z"/>
			<circle style="fill:#8FBC5F;" cx="264.763" cy="157.7345" r="2.3751"/>
			<circle style="fill:#8FBC5F;" cx="264.8076" cy="213.5874" r="2.376"/>
			<circle style="fill:#8FBC5F;" cx="264.8988" cy="185.5903" r="2.3742"/>
			<circle style="fill:#E23C4A;" cx="260.2662" cy="157.3589" r="2.4143"/>
			<circle style="fill:#E23C4A;" cx="260.3136" cy="213.7232" r="2.4143"/>
			<path style="fill:#E23C4A;" d="M262.8228,185.6796c0,1.3339-1.0841,2.4171-2.418,2.4171c-1.333,0-2.4134-1.0841-2.4134-2.4171
				s1.0813-2.4143,2.4134-2.4143C261.7387,183.2644,262.8228,184.3466,262.8228,185.6796z"/>
			<circle style="fill:#B2BCC5;" cx="262.9668" cy="146.6349" r="6.344"/>
			<circle style="fill:#B2BCC5;" cx="262.3195" cy="202.5361" r="6.343"/>
			<circle style="fill:#B2BCC5;" cx="262.6441" cy="174.4478" r="6.344"/>
			<path style="fill:#2F3F4E;" d="M259.0427,136.2719c-3.13,0-5.6456,2.5219-5.6456,5.651v14.8715
				c0,3.13,2.5164,5.6693,5.6456,5.6693h57.7812v-26.1909h-57.7812V136.2719z M260.4568,158.6909
				c-0.7121,0-1.2865-0.578-1.2865-1.2892c0-0.7103,0.5744-1.2874,1.2865-1.2874s1.2883,0.5771,1.2883,1.2874
				C261.7451,158.1129,261.1689,158.6909,260.4568,158.6909z M264.6308,158.6909c-0.7093,0-1.2856-0.578-1.2856-1.2892
				c0-0.7103,0.5762-1.2874,1.2856-1.2874c0.7121,0,1.2892,0.5771,1.2892,1.2874
				C265.92,158.1129,265.3429,158.6909,264.6308,158.6909z M262.6067,150.0694c-2.1855,0-3.9588-1.7715-3.9588-3.9579
				c0-2.1846,1.7724-3.9579,3.9588-3.9579c2.1846,0,3.9561,1.7724,3.9561,3.9579
				C266.5628,148.2979,264.7913,150.0694,262.6067,150.0694z M268.9224,158.6909c-0.7103,0-1.2865-0.578-1.2865-1.2892
				c0-0.7103,0.5762-1.2874,1.2865-1.2874c0.7112,0,1.2874,0.5771,1.2874,1.2874
				C270.2098,158.1129,269.6335,158.6909,268.9224,158.6909z"/>
			<path style="fill:#344453;" d="M380.1741,156.7936v-14.8706c0-3.13-2.5447-5.651-5.6747-5.651h-57.6755v26.1909h57.6755
				C377.6294,162.4628,380.1741,159.9236,380.1741,156.7936z"/>
			<path style="fill:#2F3F4E;" d="M253.3971,170.0586v14.8716c0,3.1291,2.5164,5.6693,5.6456,5.6693h57.7811v-26.1927h-57.7811
				C255.9135,164.4067,253.3971,166.9295,253.3971,170.0586z M260.4568,186.8275c-0.7121,0-1.2865-0.578-1.2865-1.2874
				c0-0.7112,0.5744-1.2883,1.2865-1.2883s1.2883,0.5771,1.2883,1.2883C261.7451,186.2495,261.1689,186.8275,260.4568,186.8275z
				 M264.6308,186.8275c-0.7093,0-1.2856-0.578-1.2856-1.2874c0-0.7112,0.5762-1.2883,1.2856-1.2883
				c0.7121,0,1.2892,0.5771,1.2892,1.2883C265.92,186.2495,265.3429,186.8275,264.6308,186.8275z M268.9224,184.2509
				c0.7112,0,1.2874,0.5771,1.2874,1.2883c0,0.7094-0.5762,1.2874-1.2874,1.2874c-0.7103,0-1.2865-0.578-1.2865-1.2874
				C267.6359,184.828,268.2121,184.2509,268.9224,184.2509z M262.6067,170.2902c2.1846,0,3.9561,1.7724,3.9561,3.9588
				s-1.7715,3.9561-3.9561,3.9561c-2.1855,0-3.9588-1.7697-3.9588-3.9561C258.6488,172.0627,260.4212,170.2902,262.6067,170.2902z"
				/>
			<path style="fill:#344453;" d="M374.4994,190.5985c3.13,0,5.6747-2.5401,5.6747-5.6693v-14.8716
				c0-3.13-2.5447-5.6519-5.6747-5.6519h-57.6755v26.1918h57.6755V190.5985z"/>
			<path style="fill:#344453;" d="M374.4994,218.736c3.13,0,5.6747-2.5383,5.6747-5.6693v-14.8715
				c0-3.1291-2.5447-5.651-5.6747-5.651h-57.6755v26.1927L374.4994,218.736L374.4994,218.736z"/>
			<path style="fill:#2F3F4E;" d="M253.3971,198.1943v14.8716c0,3.1309,2.5164,5.6693,5.6456,5.6693h57.7811v-26.1918h-57.7811
				C255.9135,192.5433,253.3971,195.0661,253.3971,198.1943z M260.4568,214.9641c-0.7121,0-1.2865-0.579-1.2865-1.2883
				c0-0.7112,0.5744-1.2883,1.2865-1.2883s1.2883,0.5771,1.2883,1.2883C261.7451,214.3851,261.1689,214.9641,260.4568,214.9641z
				 M264.6308,214.9641c-0.7093,0-1.2856-0.579-1.2856-1.2883c0-0.7112,0.5762-1.2883,1.2856-1.2883
				c0.7121,0,1.2892,0.5771,1.2892,1.2883C265.92,214.3851,265.3429,214.9641,264.6308,214.9641z M268.9224,212.3875
				c0.7112,0,1.2874,0.5771,1.2874,1.2883c0,0.7093-0.5762,1.2883-1.2874,1.2883c-0.7103,0-1.2865-0.579-1.2865-1.2883
				C267.6359,212.9646,268.2121,212.3875,268.9224,212.3875z M262.6067,198.4268c2.1846,0,3.9561,1.7724,3.9561,3.9579
				c0,2.1855-1.7715,3.9561-3.9561,3.9561c-2.1855,0-3.9588-1.7706-3.9588-3.9561
				C258.6479,200.1992,260.4212,198.4268,262.6067,198.4268z"/>
			<g>
				<path style="fill:#B2BCC5;" d="M247.7506,133.7755c-2.2055,0-3.9944,1.787-3.9944,3.9935v79.4663
					c0,2.2064,1.7888,3.9944,3.9944,3.9944c0.0611,0,0.124-0.0018,0.1842-0.0046v-87.4459
					C247.8746,133.7774,247.8126,133.7755,247.7506,133.7755z"/>
				<path style="fill:#D8E0E5;" d="M247.9357,133.7792v87.4459c2.1207-0.0966,3.8102-1.8445,3.8102-3.9898V137.769
					C251.745,135.6273,250.0565,133.8767,247.9357,133.7792z"/>
			</g>
			<g>
				<path style="fill:#B2BCC5;" d="M381.8271,137.769v79.4663c0,2.2064,1.7879,3.9944,3.9934,3.9944v-87.4541
					C383.615,133.7755,381.8271,135.5626,381.8271,137.769z"/>
				<path style="fill:#D8E0E5;" d="M385.8205,133.7755L385.8205,133.7755v87.4541l0,0c2.2065,0,3.9952-1.7879,3.9952-3.9944V137.769
					C389.8158,135.5626,388.027,133.7755,385.8205,133.7755z"/>
			</g>
		</g>
		<rect x="239.254" y="222.5617" style="fill:#2F3F4E;" width="155.7159" height="10.3529"/>
		<g>
			<rect x="250.5251" y="250.7393" style="fill:#B2BCC5;" width="132.5191" height="2.5921"/>
			<rect x="250.2023" y="279.154" style="fill:#B2BCC5;" width="132.5182" height="2.5912"/>
			<rect x="250.2023" y="307.3836" style="fill:#B2BCC5;" width="132.5182" height="2.5912"/>
			<circle style="fill:#1C98FC;" cx="269.112" cy="260.3948" r="2.3751"/>
			<circle style="fill:#1C98FC;" cx="269.1558" cy="316.2477" r="2.3751"/>
			<path style="fill:#1C98FC;" d="M271.6239,288.2505c0,1.312-1.0622,2.3751-2.376,2.3751c-1.3102,0-2.3742-1.0631-2.3742-2.3751
				c0-1.3111,1.064-2.376,2.3742-2.376C270.5617,285.8736,271.6239,286.9385,271.6239,288.2505z"/>
			<circle style="fill:#8FBC5F;" cx="264.763" cy="260.5352" r="2.3751"/>
			<circle style="fill:#8FBC5F;" cx="264.8076" cy="316.3871" r="2.376"/>
			<circle style="fill:#8FBC5F;" cx="264.8988" cy="288.3882" r="2.3742"/>
			<circle style="fill:#E23C4A;" cx="260.2662" cy="260.1568" r="2.4143"/>
			<circle style="fill:#E23C4A;" cx="260.3136" cy="316.5239" r="2.4143"/>
			<circle style="fill:#E23C4A;" cx="260.4066" cy="288.4785" r="2.4161"/>
			<circle style="fill:#B2BCC5;" cx="262.9668" cy="249.4337" r="6.344"/>
			<circle style="fill:#B2BCC5;" cx="262.3195" cy="305.3358" r="6.343"/>
			<circle style="fill:#B2BCC5;" cx="262.6441" cy="277.2457" r="6.344"/>
			<path style="fill:#2F3F4E;" d="M259.0427,239.0699c-3.13,0-5.6456,2.5237-5.6456,5.6528v14.8706
				c0,3.1291,2.5164,5.6693,5.6456,5.6693h57.7812v-26.1927H259.0427z M260.4568,261.4898c-0.7121,0-1.2865-0.5771-1.2865-1.2874
				c0-0.7112,0.5744-1.2865,1.2865-1.2865s1.2883,0.5753,1.2883,1.2865C261.7451,260.9127,261.1689,261.4898,260.4568,261.4898z
				 M264.6308,261.4898c-0.7093,0-1.2856-0.5771-1.2856-1.2874c0-0.7112,0.5762-1.2865,1.2856-1.2865
				c0.7121,0,1.2892,0.5753,1.2892,1.2865C265.92,260.9127,265.3429,261.4898,264.6308,261.4898z M262.6067,252.8674
				c-2.1855,0-3.9588-1.7706-3.9588-3.957c0-2.1855,1.7724-3.957,3.9588-3.957c2.1846,0,3.9561,1.7715,3.9561,3.957
				C266.5628,251.0968,264.7913,252.8674,262.6067,252.8674z M268.9224,261.4898c-0.7103,0-1.2865-0.5771-1.2865-1.2874
				c0-0.7112,0.5762-1.2865,1.2865-1.2865c0.7112,0,1.2874,0.5753,1.2874,1.2865
				C270.2098,260.9127,269.6335,261.4898,268.9224,261.4898z"/>
			<path style="fill:#344453;" d="M380.1741,259.5924v-14.8706c0-3.13-2.5447-5.6528-5.6747-5.6528h-57.6755v26.1927h57.6755
				C377.6294,265.2617,380.1741,262.7216,380.1741,259.5924z"/>
			<path style="fill:#2F3F4E;" d="M253.3971,272.8575v14.8716c0,3.1282,2.5164,5.6693,5.6456,5.6693h57.7811v-26.1927h-57.7811
				C255.9135,267.2055,253.3971,269.7284,253.3971,272.8575z M260.4568,289.6255c-0.7121,0-1.2865-0.5771-1.2865-1.2874
				c0-0.7112,0.5744-1.2874,1.2865-1.2874s1.2883,0.5762,1.2883,1.2874C261.7451,289.0483,261.1689,289.6255,260.4568,289.6255z
				 M264.6308,289.6255c-0.7093,0-1.2856-0.5771-1.2856-1.2874c0-0.7112,0.5762-1.2874,1.2856-1.2874
				c0.7121,0,1.2892,0.5762,1.2892,1.2874C265.92,289.0483,265.3429,289.6255,264.6308,289.6255z M268.9224,287.0507
				c0.7112,0,1.2874,0.5762,1.2874,1.2874c0,0.7103-0.5762,1.2874-1.2874,1.2874c-0.7103,0-1.2865-0.5771-1.2865-1.2874
				C267.6359,287.626,268.2121,287.0507,268.9224,287.0507z M262.6067,273.0882c2.1846,0,3.9561,1.7733,3.9561,3.9588
				s-1.7715,3.9579-3.9561,3.9579c-2.1855,0-3.9588-1.7715-3.9588-3.9579C258.6488,274.8615,260.4212,273.0882,262.6067,273.0882z"
				/>
			<path style="fill:#344453;" d="M374.4994,293.3983c3.13,0,5.6747-2.541,5.6747-5.6693v-14.8716
				c0-3.1291-2.5447-5.6519-5.6747-5.6519h-57.6755v26.1927H374.4994z"/>
			<path style="fill:#344453;" d="M374.4994,321.5349c3.13,0,5.6747-2.5392,5.6747-5.6693v-14.8705
				c0-3.1301-2.5447-5.653-5.6747-5.653h-57.6755v26.1937h57.6755V321.5349z"/>
			<path style="fill:#2F3F4E;" d="M253.3971,300.995v14.8706c0,3.13,2.5164,5.6693,5.6456,5.6693h57.7811v-26.1937h-57.7811
				C255.9135,295.3412,253.3971,297.865,253.3971,300.995z M260.4568,317.763c-0.7121,0-1.2865-0.5789-1.2865-1.2883
				c0-0.7112,0.5744-1.2874,1.2865-1.2874s1.2883,0.5762,1.2883,1.2874C261.7451,317.184,261.1689,317.763,260.4568,317.763z
				 M264.6308,317.763c-0.7093,0-1.2856-0.5789-1.2856-1.2883c0-0.7112,0.5762-1.2874,1.2856-1.2874
				c0.7121,0,1.2892,0.5762,1.2892,1.2874C265.92,317.184,265.3429,317.763,264.6308,317.763z M268.9224,315.1873
				c0.7112,0,1.2874,0.5762,1.2874,1.2874c0,0.7094-0.5762,1.2883-1.2874,1.2883c-0.7103,0-1.2865-0.5789-1.2865-1.2883
				C267.6359,315.7635,268.2121,315.1873,268.9224,315.1873z M262.6067,301.2266c2.1846,0,3.9561,1.7706,3.9561,3.9561
				s-1.7715,3.9579-3.9561,3.9579c-2.1855,0-3.9588-1.7715-3.9588-3.9579C258.6488,302.9981,260.4212,301.2266,262.6067,301.2266z"
				/>
			<g>
				<path style="fill:#B2BCC5;" d="M247.7506,236.5735c-2.2055,0-3.9944,1.7889-3.9944,3.9953v79.4654
					c0,2.2055,1.7888,3.9944,3.9944,3.9944c0.0611,0,0.124-0.0009,0.1842-0.0055V236.579
					C247.8746,236.5762,247.8126,236.5735,247.7506,236.5735z"/>
				<path style="fill:#D8E0E5;" d="M247.9357,236.579v87.4441c2.1207-0.0948,3.8102-1.8454,3.8102-3.9889v-79.4654
					C251.745,238.4253,250.0565,236.6747,247.9357,236.579z"/>
			</g>
			<g>
				<path style="fill:#B2BCC5;" d="M381.8271,240.5688v79.4654c0,2.2055,1.7879,3.9944,3.9934,3.9944v-87.455
					C383.615,236.5735,381.8271,238.3624,381.8271,240.5688z"/>
				<path style="fill:#D8E0E5;" d="M385.8205,236.5735L385.8205,236.5735v87.455l0,0c2.2065,0,3.9952-1.7888,3.9952-3.9944v-79.4654
					C389.8158,238.3624,388.027,236.5735,385.8205,236.5735z"/>
			</g>
		</g>
		<rect x="239.5011" y="325.3606" style="fill:#2F3F4E;" width="155.7168" height="10.352"/>
		<g>
			<rect x="250.5251" y="354.8456" style="fill:#B2BCC5;" width="132.5191" height="2.5903"/>
			<rect x="250.2023" y="383.2594" style="fill:#B2BCC5;" width="132.5182" height="2.5903"/>
			<rect x="250.2023" y="411.4872" style="fill:#B2BCC5;" width="132.5182" height="2.5921"/>
			<circle style="fill:#1C98FC;" cx="269.112" cy="364.4993" r="2.3751"/>
			<path style="fill:#1C98FC;" d="M271.5309,420.3539c0,1.312-1.0604,2.3742-2.3723,2.3742c-1.312,0-2.3779-1.0622-2.3779-2.3742
				c0-1.312,1.0668-2.3769,2.3779-2.3769C270.4705,417.9761,271.5309,419.041,271.5309,420.3539z"/>
			<path style="fill:#1C98FC;" d="M271.6239,392.3541c0,1.312-1.0622,2.3769-2.376,2.3769c-1.3102,0-2.3742-1.0649-2.3742-2.3769
				c0-1.3111,1.064-2.3742,2.3742-2.3742C270.5617,389.979,271.6239,391.043,271.6239,392.3541z"/>
			<circle style="fill:#8FBC5F;" cx="264.763" cy="364.6388" r="2.3751"/>
			<circle style="fill:#8FBC5F;" cx="264.8076" cy="420.4907" r="2.376"/>
			<circle style="fill:#8FBC5F;" cx="264.8988" cy="392.4936" r="2.3742"/>
			<circle style="fill:#E23C4A;" cx="260.2662" cy="364.2613" r="2.4143"/>
			<path style="fill:#E23C4A;" d="M262.728,420.6275c0,1.333-1.0832,2.4134-2.4161,2.4134s-2.4134-1.0814-2.4134-2.4134
				c0-1.3357,1.0804-2.4152,2.4134-2.4152C261.6457,418.2122,262.728,419.2918,262.728,420.6275z"/>
			<circle style="fill:#E23C4A;" cx="260.4066" cy="392.5839" r="2.4161"/>
			<circle style="fill:#B2BCC5;" cx="262.9668" cy="353.5382" r="6.344"/>
			<circle style="fill:#B2BCC5;" cx="262.3195" cy="409.4403" r="6.343"/>
			<circle style="fill:#B2BCC5;" cx="262.6441" cy="381.3493" r="6.344"/>
			<path style="fill:#2F3F4E;" d="M259.0427,343.1743c-3.13,0-5.6456,2.5228-5.6456,5.6519v14.8706
				c0,3.131,2.5164,5.6693,5.6456,5.6693h57.7812v-26.1918H259.0427z M260.4568,365.5943c-0.7121,0-1.2865-0.578-1.2865-1.2883
				s0.5744-1.2874,1.2865-1.2874s1.2883,0.5771,1.2883,1.2874S261.1689,365.5943,260.4568,365.5943z M264.6308,365.5943
				c-0.7093,0-1.2856-0.578-1.2856-1.2883s0.5762-1.2874,1.2856-1.2874c0.7121,0,1.2892,0.5771,1.2892,1.2874
				S265.3429,365.5943,264.6308,365.5943z M262.6067,356.9719c-2.1855,0-3.9588-1.7706-3.9588-3.957
				c0-2.1855,1.7724-3.957,3.9588-3.957c2.1846,0,3.9561,1.7706,3.9561,3.957S264.7913,356.9719,262.6067,356.9719z
				 M268.9224,365.5943c-0.7103,0-1.2865-0.578-1.2865-1.2883s0.5762-1.2874,1.2865-1.2874c0.7112,0,1.2874,0.5771,1.2874,1.2874
				S269.6335,365.5943,268.9224,365.5943z"/>
			<path style="fill:#344453;" d="M380.1741,363.6969v-14.8706c0-3.13-2.5447-5.6519-5.6747-5.6519h-57.6755v26.1918h57.6755
				C377.6294,369.3662,380.1741,366.8279,380.1741,363.6969z"/>
			<path style="fill:#2F3F4E;" d="M253.3971,376.9611v14.8734c0,3.1291,2.5164,5.6683,5.6456,5.6683h57.7811V371.31h-57.7811
				C255.9135,371.3091,253.3971,373.8329,253.3971,376.9611z M260.4568,393.729c-0.7121,0-1.2865-0.5762-1.2865-1.2883
				c0-0.7084,0.5744-1.2856,1.2865-1.2856s1.2883,0.5771,1.2883,1.2856C261.7451,393.1537,261.1689,393.729,260.4568,393.729z
				 M264.6308,393.729c-0.7093,0-1.2856-0.5762-1.2856-1.2883c0-0.7084,0.5762-1.2856,1.2856-1.2856
				c0.7121,0,1.2892,0.5771,1.2892,1.2856C265.92,393.1537,265.3429,393.729,264.6308,393.729z M268.9224,391.1552
				c0.7112,0,1.2874,0.5771,1.2874,1.2856c0,0.7121-0.5762,1.2883-1.2874,1.2883c-0.7103,0-1.2865-0.5762-1.2865-1.2883
				C267.6359,391.7323,268.2121,391.1552,268.9224,391.1552z M262.6067,377.1945c2.1846,0,3.9561,1.7715,3.9561,3.9579
				c0,2.1855-1.7715,3.957-3.9561,3.957c-2.1855,0-3.9588-1.7715-3.9588-3.957
				C258.6488,378.966,260.4212,377.1945,262.6067,377.1945z"/>
			<path style="fill:#344453;" d="M374.4994,397.5019c3.13,0,5.6747-2.5392,5.6747-5.6683v-14.8734
				c0-3.1282-2.5447-5.6519-5.6747-5.6519h-57.6755v26.1927h57.6755V397.5019z"/>
			<path style="fill:#344453;" d="M374.4994,425.6394c3.13,0,5.6747-2.5392,5.6747-5.6711v-14.8706
				c0-3.1282-2.5447-5.651-5.6747-5.651h-57.6755v26.1937h57.6755V425.6394z"/>
			<path style="fill:#2F3F4E;" d="M253.3971,405.0977v14.8706c0,3.1319,2.5164,5.6711,5.6456,5.6711h57.7811v-26.1927h-57.7811
				C255.9135,399.4466,253.3971,401.9703,253.3971,405.0977z M260.4568,421.8684c-0.7121,0-1.2865-0.579-1.2865-1.2892
				c0-0.7112,0.5744-1.2874,1.2865-1.2874s1.2883,0.5762,1.2883,1.2874C261.7451,421.2894,261.1689,421.8684,260.4568,421.8684z
				 M264.6308,421.8684c-0.7093,0-1.2856-0.579-1.2856-1.2892c0-0.7112,0.5762-1.2874,1.2856-1.2874
				c0.7121,0,1.2892,0.5762,1.2892,1.2874C265.92,421.2894,265.3429,421.8684,264.6308,421.8684z M268.9224,419.2909
				c0.7112,0,1.2874,0.5762,1.2874,1.2874c0,0.7103-0.5762,1.2892-1.2874,1.2892c-0.7103,0-1.2865-0.5789-1.2865-1.2892
				C267.6359,419.8671,268.2121,419.2909,268.9224,419.2909z M262.6067,405.3311c2.1846,0,3.9561,1.7697,3.9561,3.957
				c0,2.1845-1.7715,3.957-3.9561,3.957c-2.1855,0-3.9588-1.7715-3.9588-3.957
				C258.6488,407.1008,260.4212,405.3311,262.6067,405.3311z"/>
			<g>
				<path style="fill:#B2BCC5;" d="M247.7506,340.6789c-2.2055,0-3.9944,1.7879-3.9944,3.9935v79.4663
					c0,2.2064,1.7888,3.9944,3.9944,3.9944c0.0611,0,0.124-0.0009,0.1842-0.0045v-87.445
					C247.8746,340.6816,247.8126,340.6789,247.7506,340.6789z"/>
				<path style="fill:#D8E0E5;" d="M247.9357,340.6834v87.445c2.1207-0.0957,3.8102-1.8454,3.8102-3.9898v-79.4663
					C251.745,342.5279,250.0565,340.7792,247.9357,340.6834z"/>
			</g>
			<g>
				<path style="fill:#B2BCC5;" d="M381.8271,344.6724v79.4663c0,2.2064,1.7879,3.9944,3.9934,3.9944v-87.4541
					C383.615,340.6789,381.8271,342.4668,381.8271,344.6724z"/>
				<path style="fill:#D8E0E5;" d="M385.8205,340.6789L385.8205,340.6789v87.4541l0,0c2.2065,0,3.9952-1.7879,3.9952-3.9944
					v-79.4663C389.8158,342.4668,388.027,340.6789,385.8205,340.6789z"/>
			</g>
		</g>
		<path style="fill:#DDBB9D;" d="M185.8046,241.4614l-2.7352,5.1277c0,0-10.2581,1.2555-10.487,8.8941l-0.5708,4.1047
			c0,0-2.9632,3.5321-1.1397,5.1305c1.8235,1.5945,2.5073,0.9098,3.42,1.0238c0,0-1.1388,3.9898,1.0275,5.2445
			c2.1636,1.2537,5.0137,0,5.0137,0s0.4568,2.8492,2.1663,3.306c1.7095,0.4559,4.2187-0.2279,4.2187-0.2279
			s-0.1149,1.2546,1.4807,1.9384s4.7885-1.7104,4.7885-1.7104s9.2333-7.8647,5.8142-19.4941l-1.1397-3.3051l2.0505-7.2959
			L185.8046,241.4614z"/>
		<path style="fill:#FFA96A;" d="M196.4118,147.1071c0.3866,1.6494-0.6391,3.2978-2.2867,3.6835l0,0
			c-1.6485,0.3857-3.2969-0.6391-3.6817-2.2867l-1.1552-4.9417c-0.3866-1.6494,0.6364-3.2969,2.2867-3.6816l0,0
			c1.6494-0.3857,3.2969,0.6373,3.6816,2.2867L196.4118,147.1071z"/>
		
			<path style="fill:none;stroke:#6B4429;stroke-width:0.9117;stroke-linecap:round;stroke-linejoin:round;stroke-miterlimit:10;" d="
			M196.4118,147.1071c0.3866,1.6494-0.6391,3.2978-2.2867,3.6835l0,0c-1.6485,0.3857-3.2969-0.6391-3.6817-2.2867l-1.1552-4.9417
			c-0.3866-1.6494,0.6364-3.2969,2.2867-3.6816l0,0c1.6494-0.3857,3.2969,0.6373,3.6816,2.2867L196.4118,147.1071z"/>
		<g>
			<g>
				<path style="fill:#2F3F4E;" d="M154.5197,144.0464V465.657H324.251V144.0464H154.5197L154.5197,144.0464z M315.8583,455.3898
					H162.9142V154.3109h152.9433v301.0789H315.8583L315.8583,455.3898z"/>
				<rect x="162.9151" y="154.3109" style="fill:#01637C;" width="152.9433" height="301.0798"/>
			</g>
			<g>
				<rect x="172.937" y="170.3805" style="fill:#B2BCC5;" width="132.5182" height="2.5912"/>
				<rect x="172.6115" y="198.7933" style="fill:#B2BCC5;" width="132.5182" height="2.593"/>
				<rect x="172.6115" y="227.022" style="fill:#B2BCC5;" width="132.5182" height="2.593"/>
				<path style="fill:#1C98FC;" d="M193.8972,180.0359c0,1.3111-1.0631,2.3724-2.3751,2.3724c-1.3111,0-2.3751-1.0613-2.3751-2.3724
					c0-1.3129,1.064-2.376,2.3751-2.376C192.8341,177.6599,193.8972,178.7221,193.8972,180.0359z"/>
				<circle style="fill:#1C98FC;" cx="191.5668" cy="235.8879" r="2.3751"/>
				<circle style="fill:#1C98FC;" cx="191.6571" cy="207.8898" r="2.3751"/>
				<circle style="fill:#8FBC5F;" cx="187.1722" cy="180.1727" r="2.3751"/>
				<circle style="fill:#8FBC5F;" cx="187.2178" cy="236.0264" r="2.3751"/>
				<circle style="fill:#8FBC5F;" cx="187.3089" cy="208.0284" r="2.3751"/>
				<circle style="fill:#E23C4A;" cx="182.6754" cy="179.7979" r="2.4152"/>
				<circle style="fill:#E23C4A;" cx="182.7238" cy="236.1623" r="2.4152"/>
				<circle style="fill:#E23C4A;" cx="182.8149" cy="208.1178" r="2.4143"/>
				<circle style="fill:#B2BCC5;" cx="185.3769" cy="169.0721" r="6.3449"/>
				<circle style="fill:#B2BCC5;" cx="184.7305" cy="224.976" r="6.343"/>
				<circle style="fill:#B2BCC5;" cx="185.0533" cy="196.8859" r="6.3458"/>
				<path style="fill:#2F3F4E;" d="M181.4519,158.7092c-3.1291,0-5.6456,2.5246-5.6456,5.6519v14.8697
					c0,3.131,2.5173,5.6693,5.6456,5.6693h57.7831v-26.1918L181.4519,158.7092L181.4519,158.7092z M182.866,181.1291
					c-0.7112,0-1.2865-0.5771-1.2865-1.2883c0-0.7103,0.5753-1.2865,1.2865-1.2865c0.713,0,1.2883,0.5762,1.2883,1.2865
					C184.1543,180.5519,183.5799,181.1291,182.866,181.1291z M187.0418,181.1291c-0.7093,0-1.2874-0.5771-1.2874-1.2883
					c0-0.7103,0.578-1.2865,1.2874-1.2865c0.7112,0,1.2883,0.5762,1.2883,1.2865
					C188.331,180.5519,187.7539,181.1291,187.0418,181.1291z M185.0168,172.5085c-2.1855,0-3.9588-1.7724-3.9588-3.9588
					c0-2.1845,1.7724-3.9552,3.9588-3.9552c2.1846,0,3.9561,1.7706,3.9561,3.9552
					C188.9729,170.7351,187.2014,172.5085,185.0168,172.5085z M191.3334,181.1291c-0.7103,0-1.2874-0.5771-1.2874-1.2883
					c0-0.7103,0.5771-1.2865,1.2874-1.2865s1.2883,0.5762,1.2883,1.2865C192.6217,180.5519,192.0437,181.1291,191.3334,181.1291z"/>
				<path style="fill:#344453;" d="M302.5851,179.2317v-14.8706c0-3.1282-2.5474-5.6519-5.6756-5.6519H239.234v26.1918h57.6755
					C300.0377,184.9001,302.5851,182.3618,302.5851,179.2317z"/>
				<path style="fill:#2F3F4E;" d="M175.8054,192.4977v14.8697c0,3.131,2.5173,5.6702,5.6456,5.6702h57.7831v-26.1936h-57.7831
					C178.3227,186.8439,175.8054,189.3686,175.8054,192.4977z M182.866,209.2657c-0.7112,0-1.2865-0.5771-1.2865-1.2874
					c0-0.7112,0.5753-1.2874,1.2865-1.2874c0.713,0,1.2883,0.5762,1.2883,1.2874
					C184.1543,208.6885,183.5799,209.2657,182.866,209.2657z M187.0418,209.2657c-0.7093,0-1.2874-0.5771-1.2874-1.2874
					c0-0.7112,0.578-1.2874,1.2874-1.2874c0.7112,0,1.2883,0.5762,1.2883,1.2874
					C188.331,208.6885,187.7539,209.2657,187.0418,209.2657z M191.3334,206.6909c0.7103,0,1.2883,0.5762,1.2883,1.2874
					c0,0.7103-0.578,1.2874-1.2883,1.2874s-1.2874-0.5771-1.2874-1.2874C190.0451,207.2671,190.6222,206.6909,191.3334,206.6909z
					 M185.0168,192.7284c2.1846,0,3.9561,1.7715,3.9561,3.9579c0,2.1855-1.7706,3.9579-3.9561,3.9579
					c-2.1855,0-3.9588-1.7715-3.9588-3.9579C181.058,194.5008,182.8304,192.7284,185.0168,192.7284z"/>
				<path style="fill:#344453;" d="M296.9095,213.0376c3.1282,0,5.6756-2.5392,5.6756-5.6702v-14.8697
					c0-3.1291-2.5474-5.6528-5.6756-5.6528H239.234v26.1936h57.6755V213.0376z"/>
				<path style="fill:#344453;" d="M296.9095,241.1742c3.1282,0,5.6756-2.5401,5.6756-5.6702v-14.8706
					c0-3.13-2.5474-5.6519-5.6756-5.6519H239.234v26.1927H296.9095z"/>
				<path style="fill:#2F3F4E;" d="M175.8054,220.6343v14.8707c0,3.1301,2.5173,5.6702,5.6456,5.6702h57.7831v-26.1927h-57.7831
					C178.3227,214.9823,175.8054,217.5042,175.8054,220.6343z M182.866,237.4014c-0.7112,0-1.2865-0.5771-1.2865-1.2883
					c0-0.7093,0.5753-1.2865,1.2865-1.2865c0.713,0,1.2883,0.5771,1.2883,1.2865
					C184.1543,236.8251,183.5799,237.4014,182.866,237.4014z M187.0418,237.4014c-0.7093,0-1.2874-0.5771-1.2874-1.2883
					c0-0.7093,0.578-1.2865,1.2874-1.2865c0.7112,0,1.2883,0.5771,1.2883,1.2865
					C188.331,236.8251,187.7539,237.4014,187.0418,237.4014z M191.3334,234.8266c0.7103,0,1.2883,0.5771,1.2883,1.2865
					c0,0.7112-0.578,1.2883-1.2883,1.2883s-1.2874-0.5771-1.2874-1.2883C190.0451,235.4037,190.6222,234.8266,191.3334,234.8266z
					 M185.0168,220.8668c2.1846,0,3.9561,1.7715,3.9561,3.9561c0,2.1864-1.7706,3.9579-3.9561,3.9579
					c-2.1855,0-3.9588-1.7706-3.9588-3.9579C181.058,222.6383,182.8304,220.8668,185.0168,220.8668z"/>
				<g>
					<path style="fill:#B2BCC5;" d="M170.1608,156.2137c-2.2055,0-3.9953,1.7888-3.9953,3.9935v79.4654
						c0,2.2073,1.7898,3.9962,3.9953,3.9962c0.0611,0,0.124-0.0036,0.1823-0.0055v-87.4468
						C170.2847,156.2146,170.2218,156.2137,170.1608,156.2137z"/>
					<path style="fill:#D8E0E5;" d="M170.3431,156.2164v87.4468c2.1235-0.0957,3.812-1.8436,3.812-3.9907v-79.4654
						C174.1551,158.0646,172.4666,156.3149,170.3431,156.2164z"/>
				</g>
				<g>
					<path style="fill:#B2BCC5;" d="M304.2372,160.2072v79.4654c0,2.2073,1.787,3.9962,3.9935,3.9962v-87.455
						C306.0251,156.2137,304.2372,158.0025,304.2372,160.2072z"/>
					<path style="fill:#D8E0E5;" d="M308.2307,156.2137L308.2307,156.2137v87.455l0,0c2.2064,0,3.9944-1.7889,3.9944-3.9962
						v-79.4654C312.225,158.0025,310.4371,156.2137,308.2307,156.2137z"/>
				</g>
			</g>
			<rect x="161.6642" y="244.9999" style="fill:#2F3F4E;" width="155.7159" height="10.352"/>
			<g>
				<rect x="172.937" y="273.1802" style="fill:#B2BCC5;" width="132.5182" height="2.5903"/>
				<rect x="172.6115" y="301.5931" style="fill:#B2BCC5;" width="132.5182" height="2.5912"/>
				<rect x="172.6115" y="329.8209" style="fill:#B2BCC5;" width="132.5182" height="2.5921"/>
				<circle style="fill:#1C98FC;" cx="191.5221" cy="282.8329" r="2.3751"/>
				<circle style="fill:#1C98FC;" cx="191.5668" cy="338.6876" r="2.3751"/>
				<circle style="fill:#1C98FC;" cx="191.6571" cy="310.6887" r="2.3751"/>
				<circle style="fill:#8FBC5F;" cx="187.1722" cy="282.9724" r="2.3751"/>
				<circle style="fill:#8FBC5F;" cx="187.2178" cy="338.8253" r="2.3751"/>
				<circle style="fill:#8FBC5F;" cx="187.3089" cy="310.8273" r="2.3751"/>
				<circle style="fill:#E23C4A;" cx="182.6754" cy="282.5959" r="2.4152"/>
				<circle style="fill:#E23C4A;" cx="182.7238" cy="338.9612" r="2.4152"/>
				<circle style="fill:#E23C4A;" cx="182.8149" cy="310.9167" r="2.4143"/>
				<circle style="fill:#B2BCC5;" cx="185.3769" cy="271.871" r="6.3449"/>
				<circle style="fill:#B2BCC5;" cx="184.7305" cy="327.774" r="6.343"/>
				<circle style="fill:#B2BCC5;" cx="185.0533" cy="299.6848" r="6.3458"/>
				<path style="fill:#2F3F4E;" d="M181.4519,261.5071c-3.1291,0-5.6456,2.5237-5.6456,5.6537v14.8698
					c0,3.1309,2.5173,5.6693,5.6456,5.6693h57.7831V261.508L181.4519,261.5071L181.4519,261.5071z M182.866,283.9279
					c-0.7112,0-1.2865-0.5762-1.2865-1.2883c0-0.7103,0.5753-1.2865,1.2865-1.2865c0.713,0,1.2883,0.5762,1.2883,1.2865
					C184.1543,283.3517,183.5799,283.9279,182.866,283.9279z M187.0418,283.9279c-0.7093,0-1.2874-0.5762-1.2874-1.2883
					c0-0.7103,0.578-1.2865,1.2874-1.2865c0.7112,0,1.2883,0.5762,1.2883,1.2865
					C188.331,283.3517,187.7539,283.9279,187.0418,283.9279z M185.0168,275.3073c-2.1855,0-3.9588-1.7724-3.9588-3.9579
					c0-2.1855,1.7724-3.957,3.9588-3.957c2.1846,0,3.9561,1.7706,3.9561,3.957
					C188.9729,273.534,187.2014,275.3073,185.0168,275.3073z M191.3334,283.9279c-0.7103,0-1.2874-0.5762-1.2874-1.2883
					c0-0.7103,0.5771-1.2865,1.2874-1.2865s1.2883,0.5762,1.2883,1.2865C192.6217,283.3517,192.0437,283.9279,191.3334,283.9279z"/>
				<path style="fill:#344453;" d="M302.5851,282.0306v-14.8698c0-3.131-2.5474-5.6537-5.6756-5.6537H239.234v26.1918h57.6755
					C300.0377,287.6989,302.5851,285.1606,302.5851,282.0306z"/>
				<path style="fill:#2F3F4E;" d="M175.8054,295.2957v14.8715c0,3.1292,2.5173,5.6693,5.6456,5.6693h57.7831v-26.1937h-57.7831
					C178.3227,289.6428,175.8054,292.1674,175.8054,295.2957z M182.866,312.0627c-0.7112,0-1.2865-0.5753-1.2865-1.2865
					c0-0.7112,0.5753-1.2883,1.2865-1.2883c0.713,0,1.2883,0.5771,1.2883,1.2883
					C184.1543,311.4874,183.5799,312.0627,182.866,312.0627z M187.0418,312.0627c-0.7093,0-1.2874-0.5753-1.2874-1.2865
					c0-0.7112,0.578-1.2883,1.2874-1.2883c0.7112,0,1.2883,0.5771,1.2883,1.2883
					C188.3301,311.4874,187.7539,312.0627,187.0418,312.0627z M191.3334,309.4879c0.7103,0,1.2883,0.5771,1.2883,1.2883
					c0,0.7112-0.578,1.2865-1.2883,1.2865s-1.2874-0.5753-1.2874-1.2865C190.046,310.0651,190.6222,309.4879,191.3334,309.4879z
					 M185.0168,295.5281c2.1846,0,3.9561,1.7706,3.9561,3.9561c0,2.1873-1.7706,3.9588-3.9561,3.9588
					c-2.1855,0-3.9588-1.7706-3.9588-3.9588C181.058,297.2997,182.8304,295.5281,185.0168,295.5281z"/>
				<path style="fill:#344453;" d="M296.9095,315.8365c3.1282,0,5.6756-2.5401,5.6756-5.6693v-14.8715
					c0-3.1282-2.5474-5.6519-5.6756-5.6519H239.234v26.1937h57.6755V315.8365z"/>
				<path style="fill:#344453;" d="M296.9095,343.9721c3.1282,0,5.6756-2.5374,5.6756-5.6693v-14.8706
					c0-3.1282-2.5474-5.6528-5.6756-5.6528H239.234v26.1927H296.9095z"/>
				<path style="fill:#2F3F4E;" d="M175.8054,323.4331v14.8706c0,3.1319,2.5173,5.6693,5.6456,5.6693h57.7831v-26.1927h-57.7831
					C178.3227,317.7803,175.8054,320.3049,175.8054,323.4331z M182.866,340.2002c-0.7112,0-1.2865-0.5771-1.2865-1.2874
					c0-0.7112,0.5753-1.2865,1.2865-1.2865c0.713,0,1.2883,0.5753,1.2883,1.2865
					C184.1543,339.624,183.5799,340.2002,182.866,340.2002z M187.0418,340.2002c-0.7093,0-1.2874-0.5771-1.2874-1.2874
					c0-0.7112,0.578-1.2865,1.2874-1.2865c0.7112,0,1.2883,0.5753,1.2883,1.2865
					C188.331,339.624,187.7539,340.2002,187.0418,340.2002z M191.3334,337.6263c0.7103,0,1.2883,0.5753,1.2883,1.2865
					c0,0.7102-0.578,1.2874-1.2883,1.2874s-1.2874-0.5771-1.2874-1.2874C190.0451,338.2017,190.6222,337.6263,191.3334,337.6263z
					 M185.0168,323.6647c2.1846,0,3.9561,1.7724,3.9561,3.9588c0,2.1837-1.7706,3.9553-3.9561,3.9553
					c-2.1855,0-3.9588-1.7706-3.9588-3.9553C181.058,325.4372,182.8304,323.6647,185.0168,323.6647z"/>
				<g>
					<path style="fill:#B2BCC5;" d="M170.1608,259.0117c-2.2055,0-3.9953,1.7898-3.9953,3.9962v79.4654
						c0,2.2055,1.7898,3.9944,3.9953,3.9944c0.0611,0,0.124-0.0009,0.1823-0.0055V259.018
						C170.2847,259.0144,170.2218,259.0117,170.1608,259.0117z"/>
					<path style="fill:#D8E0E5;" d="M170.3431,259.0171v87.4441c2.1235-0.0957,3.812-1.8445,3.812-3.9889v-79.4654
						C174.1551,260.8625,172.4666,259.1147,170.3431,259.0171z"/>
				</g>
				<g>
					<path style="fill:#B2BCC5;" d="M304.2372,263.0069v79.4654c0,2.2055,1.787,3.9944,3.9935,3.9944v-87.4559
						C306.0251,259.0117,304.2372,260.8005,304.2372,263.0069z"/>
					<path style="fill:#D8E0E5;" d="M308.2307,259.0117L308.2307,259.0117v87.4559l0,0c2.2064,0,3.9944-1.7888,3.9944-3.9944
						v-79.4654C312.225,260.8005,310.4371,259.0117,308.2307,259.0117z"/>
				</g>
			</g>
			<rect x="161.914" y="347.7987" style="fill:#2F3F4E;" width="155.7132" height="10.352"/>
			<g>
				<rect x="172.937" y="377.2838" style="fill:#B2BCC5;" width="132.5182" height="2.5903"/>
				<rect x="172.6115" y="405.6967" style="fill:#B2BCC5;" width="132.5182" height="2.593"/>
				<rect x="172.6115" y="433.9244" style="fill:#B2BCC5;" width="132.5182" height="2.5939"/>
				<circle style="fill:#1C98FC;" cx="191.5221" cy="386.9383" r="2.3751"/>
				<circle style="fill:#1C98FC;" cx="191.5668" cy="442.7921" r="2.3751"/>
				<circle style="fill:#1C98FC;" cx="191.6571" cy="414.7941" r="2.3751"/>
				<circle style="fill:#8FBC5F;" cx="187.1722" cy="387.0769" r="2.3751"/>
				<circle style="fill:#8FBC5F;" cx="187.2178" cy="442.9289" r="2.3751"/>
				<circle style="fill:#8FBC5F;" cx="187.3089" cy="414.9318" r="2.3751"/>
				<circle style="fill:#E23C4A;" cx="182.6754" cy="386.7004" r="2.4152"/>
				<circle style="fill:#E23C4A;" cx="182.7238" cy="443.0666" r="2.4152"/>
				<circle style="fill:#E23C4A;" cx="182.8149" cy="415.0211" r="2.4143"/>
				<circle style="fill:#B2BCC5;" cx="185.3769" cy="375.9764" r="6.3449"/>
				<circle style="fill:#B2BCC5;" cx="184.7305" cy="431.8776" r="6.343"/>
				<circle style="fill:#B2BCC5;" cx="185.0533" cy="403.7902" r="6.3458"/>
				<path style="fill:#2F3F4E;" d="M181.4519,365.6125c-3.1291,0-5.6456,2.5219-5.6456,5.651v14.8716
					c0,3.13,2.5173,5.6684,5.6456,5.6684h57.7831v-26.1918L181.4519,365.6125L181.4519,365.6125z M182.866,388.0324
					c-0.7112,0-1.2865-0.5771-1.2865-1.2892c0-0.7094,0.5753-1.2865,1.2865-1.2865c0.713,0,1.2883,0.5771,1.2883,1.2865
					C184.1543,387.4562,183.5799,388.0324,182.866,388.0324z M187.0418,388.0324c-0.7093,0-1.2874-0.5771-1.2874-1.2892
					c0-0.7094,0.578-1.2865,1.2874-1.2865c0.7112,0,1.2883,0.5771,1.2883,1.2865
					C188.331,387.4562,187.7539,388.0324,187.0418,388.0324z M185.0168,379.4118c-2.1855,0-3.9588-1.7724-3.9588-3.9588
					c0-2.1846,1.7724-3.9579,3.9588-3.9579c2.1846,0,3.9561,1.7733,3.9561,3.9579
					C188.9729,377.6394,187.2014,379.4118,185.0168,379.4118z M191.3334,388.0324c-0.7103,0-1.2874-0.5771-1.2874-1.2892
					c0-0.7094,0.5771-1.2865,1.2874-1.2865s1.2883,0.5771,1.2883,1.2865C192.6217,387.4562,192.0437,388.0324,191.3334,388.0324z"/>
				<path style="fill:#344453;" d="M302.5851,386.136v-14.8716c0-3.13-2.5474-5.651-5.6756-5.651H239.234v26.1918h57.6755
					C300.0377,391.8044,302.5851,389.266,302.5851,386.136z"/>
				<path style="fill:#2F3F4E;" d="M175.8054,399.4001v14.8725c0,3.1291,2.5173,5.6693,5.6456,5.6693h57.7831v-26.1936h-57.7831
					C178.3227,393.7482,175.8054,396.2719,175.8054,399.4001z M182.866,416.1681c-0.7112,0-1.2865-0.5771-1.2865-1.2874
					c0-0.7094,0.5753-1.2873,1.2865-1.2873c0.713,0,1.2883,0.5781,1.2883,1.2873
					C184.1543,415.591,183.5799,416.1681,182.866,416.1681z M187.0418,416.1681c-0.7093,0-1.2874-0.5771-1.2874-1.2874
					c0-0.7094,0.578-1.2873,1.2874-1.2873c0.7112,0,1.2883,0.5781,1.2883,1.2873
					C188.331,415.591,187.7539,416.1681,187.0418,416.1681z M191.3334,413.5924c0.7103,0,1.2883,0.5781,1.2883,1.2874
					c0,0.7102-0.578,1.2874-1.2883,1.2874s-1.2874-0.5771-1.2874-1.2874C190.0451,414.1705,190.6222,413.5924,191.3334,413.5924z
					 M185.0168,399.6326c2.1846,0,3.9561,1.7706,3.9561,3.957c0,2.1864-1.7706,3.9579-3.9561,3.9579
					c-2.1855,0-3.9588-1.7706-3.9588-3.9579C181.058,401.4032,182.8304,399.6326,185.0168,399.6326z"/>
				<path style="fill:#344453;" d="M296.9095,419.9409c3.1282,0,5.6756-2.5402,5.6756-5.6693v-14.8725
					c0-3.1291-2.5474-5.6519-5.6756-5.6519H239.234v26.1937H296.9095z"/>
				<path style="fill:#344453;" d="M296.9095,448.0775c3.1282,0,5.6756-2.5392,5.6756-5.6693v-14.8716
					c0-3.1291-2.5474-5.6501-5.6756-5.6501H239.234v26.1918h57.6755V448.0775z"/>
				<path style="fill:#2F3F4E;" d="M175.8054,427.5358v14.8716c0,3.13,2.5173,5.6693,5.6456,5.6693h57.7831v-26.1918h-57.7831
					C178.3227,421.8857,175.8054,424.4076,175.8054,427.5358z M182.866,444.3056c-0.7112,0-1.2865-0.579-1.2865-1.2874
					c0-0.7112,0.5753-1.2892,1.2865-1.2892c0.713,0,1.2883,0.5781,1.2883,1.2892
					C184.1543,443.7267,183.5799,444.3056,182.866,444.3056z M187.0418,444.3056c-0.7093,0-1.2874-0.579-1.2874-1.2874
					c0-0.7112,0.578-1.2892,1.2874-1.2892c0.7112,0,1.2883,0.5781,1.2883,1.2892
					C188.331,443.7267,187.7539,444.3056,187.0418,444.3056z M191.3334,441.729c0.7103,0,1.2883,0.5781,1.2883,1.2892
					c0,0.7084-0.578,1.2874-1.2883,1.2874s-1.2874-0.579-1.2874-1.2874C190.0451,442.3071,190.6222,441.729,191.3334,441.729z
					 M185.0168,427.7683c2.1846,0,3.9561,1.7733,3.9561,3.957c0,2.1864-1.7706,3.9588-3.9561,3.9588
					c-2.1855,0-3.9588-1.7715-3.9588-3.9588C181.058,429.5426,182.8304,427.7683,185.0168,427.7683z"/>
				<g>
					<path style="fill:#B2BCC5;" d="M170.1608,363.117c-2.2055,0-3.9953,1.788-3.9953,3.9944v79.4654
						c0,2.2065,1.7898,3.9944,3.9953,3.9944c0.0611,0,0.124-0.0018,0.1823-0.0055v-87.445
						C170.2847,363.118,170.2218,363.117,170.1608,363.117z"/>
					<path style="fill:#D8E0E5;" d="M170.3431,363.1207v87.445c2.1235-0.0957,3.812-1.8445,3.812-3.9889v-79.4654
						C174.1551,364.967,172.4666,363.2183,170.3431,363.1207z"/>
				</g>
				<g>
					<path style="fill:#B2BCC5;" d="M304.2372,367.1114v79.4654c0,2.2065,1.787,3.9944,3.9935,3.9944V363.117
						C306.0251,363.117,304.2372,364.905,304.2372,367.1114z"/>
					<path style="fill:#D8E0E5;" d="M308.2307,363.117L308.2307,363.117v87.4541l0,0c2.2064,0,3.9944-1.7879,3.9944-3.9944v-79.4654
						C312.225,364.905,310.4371,363.117,308.2307,363.117z"/>
				</g>
			</g>
		</g>
		<path style="fill:#FFA96A;" d="M200.1427,147.7663c0,1.5181-1.2318,2.748-2.7498,2.748l0,0c-1.5153,0-2.7471-1.2299-2.7471-2.748
			v-10.146c0-1.519,1.2318-2.7498,2.7471-2.7498l0,0c1.5181,0,2.7498,1.2309,2.7498,2.7498V147.7663z"/>
		<path style="fill:#FFA96A;" d="M205.729,149.3455c-0.0365,1.5181-1.2965,2.7188-2.8128,2.6833l0,0
			c-1.519-0.0383-2.7188-1.2974-2.6824-2.8146l0.2434-10.1441c0.0346-1.5162,1.2965-2.7179,2.8127-2.6805l0,0
			c1.5172,0.0365,2.7197,1.2956,2.6815,2.8118L205.729,149.3455z"/>
		<path style="fill:#FFA96A;" d="M211.453,149.4011c0,1.374-1.1853,2.4873-2.6432,2.4873l0,0c-1.4588,0-2.6422-1.1133-2.6422-2.4873
			v-9.1868c0-1.3731,1.1844-2.4882,2.6422-2.4882l0,0c1.4588,0,2.6432,1.116,2.6432,2.4882V149.4011z"/>
		<path style="fill:#FFA96A;" d="M216.928,149.6537c0,1.2938-1.1816,2.3386-2.6413,2.3386l0,0
			c-1.4606,0-2.6423-1.0449-2.6423-2.3386v-8.6324c0-1.2892,1.1825-2.3368,2.6423-2.3368l0,0c1.4606,0,2.6413,1.0476,2.6413,2.3368
			V149.6537z"/>
		
			<path style="fill:none;stroke:#6B4429;stroke-width:0.9117;stroke-linecap:round;stroke-linejoin:round;stroke-miterlimit:10;" d="
			M200.1427,147.7663c0,1.5181-1.2318,2.748-2.7498,2.748l0,0c-1.5153,0-2.7471-1.2299-2.7471-2.748v-10.146
			c0-1.519,1.2318-2.7498,2.7471-2.7498l0,0c1.5181,0,2.7498,1.2309,2.7498,2.7498V147.7663z"/>
		
			<path style="fill:none;stroke:#6B4429;stroke-width:0.9117;stroke-linecap:round;stroke-linejoin:round;stroke-miterlimit:10;" d="
			M205.729,149.3455c-0.0365,1.5181-1.2965,2.7188-2.8128,2.6833l0,0c-1.519-0.0383-2.7188-1.2974-2.6824-2.8146l0.2434-10.1441
			c0.0346-1.5162,1.2965-2.7179,2.8127-2.6805l0,0c1.5172,0.0365,2.7197,1.2956,2.6815,2.8118L205.729,149.3455z"/>
		
			<path style="fill:none;stroke:#6B4429;stroke-width:0.9117;stroke-linecap:round;stroke-linejoin:round;stroke-miterlimit:10;" d="
			M211.453,149.4011c0,1.374-1.1853,2.4873-2.6432,2.4873l0,0c-1.4588,0-2.6422-1.1133-2.6422-2.4873v-9.1868
			c0-1.3731,1.1844-2.4882,2.6422-2.4882l0,0c1.4588,0,2.6432,1.116,2.6432,2.4882V149.4011z"/>
		
			<path style="fill:none;stroke:#6B4429;stroke-width:0.9117;stroke-linecap:round;stroke-linejoin:round;stroke-miterlimit:10;" d="
			M216.928,149.6537c0,1.2938-1.1816,2.3386-2.6413,2.3386l0,0c-1.4606,0-2.6423-1.0449-2.6423-2.3386v-8.6324
			c0-1.2892,1.1825-2.3368,2.6423-2.3368l0,0c1.4606,0,2.6413,1.0476,2.6413,2.3368V149.6537z"/>
	</g>
</g>
</svg>
