<?xml version="1.0" encoding="utf-8"?>
<!-- Generator: Adobe Illustrator 21.0.0, SVG Export Plug-In . SVG Version: 6.00 Build 0)  -->
<svg version="1.1" id="Capa_1" xmlns="http://www.w3.org/2000/svg" xmlns:xlink="http://www.w3.org/1999/xlink" x="0px" y="0px"
	 viewBox="0 0 170.7432 517.1144" style="enable-background:new 0 0 170.7432 517.1144;" xml:space="preserve">
<g>
	<path style="fill:#593A11;" d="M22.3073,502.2417c0,0-1.5059-4.0146-0.669-4.8506c0.8359-0.8369,32.7861-1.0039,32.7861-1.0039
		l32-13.9375c0,0,0.6192,4.7373,0.4522,5.9082c-0.168,1.1709-4.3672,4.0967-11.71,5.6875
		c-10.0361,2.1748-11.207,5.1856-19.0693,8.1963C48.235,505.2525,34.0162,504.5835,22.3073,502.2417z"/>
	<path style="fill:#593A11;" d="M145.9879,471.4204c0,0-0.8818,11.6914,5.0742,17.8682c5.9561,6.1768,16.9864,9.376,18.5303,14.8916
		c1.5449,5.5146-0.2207,7.1689-1.3232,8.6035c-1.1035,1.4336-13.4571,6.0664-26.252,3.6397
		c-12.7949-2.4268-11.251-10.8096-17.207-13.2364c-5.9561-2.4267-8.1084-5.2627-8.1084-5.2627s-1.9063-4.6865-0.1416-8.8779
		c1.7646-4.1914,4.0586-18.9502,4.0586-18.9502L145.9879,471.4204z"/>
	<path style="fill:#76531E;stroke:#664614;stroke-width:0.6552;stroke-miterlimit:10;" d="M145.9879,467.4487
		c0,0-0.8818,11.6924,5.0742,17.8692c5.9561,6.1767,16.9864,8.8242,18.5303,14.3389c1.5449,5.5156,0.4414,8.8242,0.4414,8.8242
		s-15.2217,6.3984-28.0166,3.9717c-12.7949-2.4268-11.251-10.8096-17.207-13.2364c-5.9561-2.4267-8.1621-9.707-8.1621-9.707
		s0-10.5889,1.7646-14.7803c1.7647-4.1914,2.2061-8.6035,2.2061-8.6035L145.9879,467.4487z"/>
	<path style="fill:#76531E;stroke:#664614;stroke-width:0.6552;stroke-miterlimit:10;" d="M55.9303,468.2993
		c0,0-1.3389,7.1934-8.3643,10.5381c-7.0253,3.3457-25.6767,5.2412-26.8212,11.1914c-0.3467,1.8067,0.4521,7.1553,0.4521,7.1553
		s16.333,3.9014,27.0381,2.5635c10.706-1.3389,12.3789-6.3565,18.5684-7.6953c6.1894-1.3379,18.0654-3.8467,19.2363-9.0323
		c-0.4971-6.3056-3.1778-10.873-3.1778-10.873l-2.1748-5.8555L55.9303,468.2993z"/>
	<path style="fill:#C39145;stroke:#664614;stroke-width:0.6552;stroke-miterlimit:10;" d="M36.1266,225.6655
		c0,0-3.3086,46.9893,0,80.7413c3.3096,33.7529,7.2803,73.4619,10.5889,89.3457c3.3095,15.8828,9.2656,37.0615,4.6328,41.0322
		s-4.6328,9.9267-1.3233,17.207c3.3086,7.2803,4.6328,17.8701,4.6328,17.8701s7.9414-7.2802,17.8682,0.6612
		c9.9277,7.9414,15.2227,8.6035,15.2227,8.6035s-0.6621-6.6182-0.6621-11.9131c0-5.2939-4.6329-10.5889-2.6475-23.8252
		c1.9853-13.2353,3.3096-21.1777-0.6611-34.4141c-3.9717-13.2363,1.9843-41.6943,0-55.5927
		c-1.9864-13.8985-2.6485-78.7559-2.6485-78.7559l-7.2793-45.666C73.8502,230.9595,54.6578,236.2544,36.1266,225.6655z"/>
	<path style="opacity:0.4;fill:#545454;" d="M77.1588,414.2827c1.9863,17.208,0,33.753,2.6475,50.96
		c0.6621,1.9853,2.6474,3.3096,2.6474,5.957c-0.3193,3.1944,0.293,6.0782,1.5264,8.6563c2.4834,1.1084,3.7686,1.2705,3.7686,1.2705
		s-0.6621-6.6182-0.6621-11.9131c0-5.2939-4.6329-10.5889-2.6475-23.8252c1.9853-13.2353,3.3096-21.1777-0.6611-34.4141
		c-3.9717-13.2363,1.9843-41.6943,0-55.5927c-1.9864-13.8985-2.6485-78.7559-2.6485-78.7559l-7.2793-45.666
		c0,0-2.1279,0.585-5.6435,0.9766c-3.3575,11.0175-1.8067,22.4541,3.6582,32.7763c-5.2949,0.6621-15.2217,3.9717-11.9131,7.9424
		c3.3096,3.9707,13.2363-3.9707,16.5449,2.6465c3.9717,8.6035,3.9717,19.8555,1.9863,27.7969
		c-1.9863,6.6181-4.6328,15.8838-2.6474,22.5019c2.6474,6.6172,3.3095,14.5596,3.3095,21.8399
		C77.1588,369.9419,73.1881,391.7818,77.1588,414.2827z"/>
	<path style="fill:#CFAC81;" d="M79.7086,477.5933c-2.0273-1.2237-4.4248-2.8643-7.1826-5.0703
		c-9.9268-7.9414-17.8682-0.6612-17.8682-0.6612s-1.3242-10.5898-4.6328-17.8701c-3.3095-7.2803-3.3095-13.2363,1.3233-17.207
		s-1.3233-25.1494-4.6328-41.0322c-3.3086-15.8838-7.2793-55.5928-10.5889-89.3457c-3.3086-33.752,0-80.7413,0-80.7413
		l7.1123,3.3291c-1.4785,26.2891-10.7656,50.9825-4.4648,78.0743c3.9707,17.8691,0.6621,34.414,5.2949,51.6211
		c1.9844,5.2949,3.9707,10.5898,4.6328,15.8847c3.3086,21.1778,1.9844,40.3701,9.9267,60.2246
		c1.9854,4.6328-1.9853,7.9414-4.6328,11.9121c-4.6328,5.9571,0,13.2373,3.9707,17.8702c4.6328,5.2939,13.8985-1.9854,18.5303,5.956
		L79.7086,477.5933z"/>
	<path style="fill:#C39145;stroke:#664614;stroke-width:0.6552;stroke-miterlimit:10;" d="M75.2535,229.3364
		c-6.8554,1.6983-6.7822,28.1719,2.087,37.5625c0,0,8.3476,35.4747,8.8691,50.6036s14.6074,43.3007,15.6504,80.3398
		c1.043,37.04,6.7822,25.041,6.7822,31.8232c0,6.7823-6.7822,11.9991-5.2168,21.3897c1.5645,9.3906,11.4766,17.2158,10.4336,22.4326
		c-1.0439,5.2168,2.6084,9.9121,2.6084,9.9121s2.6084-8.3467,15.6504-9.9121c13.043-1.5654,14.6074,1.044,14.6074,1.044
		s4.6953-15.1289,2.0869-20.8682s-5.7382-4.6953-5.7382-10.9551c0-6.2607-8.3477-62.081-9.9122-81.3838
		c-1.5654-19.3027-7.3037-103.2949-7.3037-103.2949l-11.4023-36.9687C114.4557,221.0611,79.9205,228.1812,75.2535,229.3364z"/>
	<path style="opacity:0.4;fill:#545454;" d="M112.8971,448.6978c-1.9854,0.6621-3.3086-1.9864-5.2939-1.3242
		c-0.6622-3.3086-1.3243-6.6182,0.6611-9.2657c4.6328-5.2939,2.6474-11.9121,0.6621-17.8681
		c-9.2656-28.458-2.6475-60.8877-15.8838-89.3457c-0.6611-1.9854,0.6621-5.294,0-7.2803c-1.3232-2.6465-4.6328-5.294-4.6328-7.9414
		c-1.3232-15.8838-5.9561-31.7676-4.6318-46.9883c0-2.6475,6.6171-1.9863,10.5888-3.9717
		c-3.9717-3.9707-10.5888,0.6621-13.2373-3.3086c-1.9844-1.9853-3.3086-5.956-4.6328-9.2656
		c-3.125-5.21-4.2002-11.2412-5.1621-17.123c-2.291,8.7099-0.543,24.9492,6.0059,31.8837c0,0,8.3476,35.4747,8.8691,50.6036
		s14.6074,43.3007,15.6504,80.3398c1.043,37.04,6.7822,25.041,6.7822,31.8232c0,6.7823-6.7822,11.9991-5.2168,21.3897
		c1.5645,9.3906,11.4766,17.2158,10.4336,22.4326c-1.0439,5.2168,2.6084,9.9121,2.6084,9.9121s0.6475-2.0664,2.9024-4.3359
		c-1.2032-4.7002-3.419-9.5479-4.4873-13.8213C113.5592,460.6099,113.5592,454.6538,112.8971,448.6978z"/>
	<path style="opacity:0.4;fill:#545454;" d="M148.8121,453.6636c-2.6084-5.7393-5.7382-4.6953-5.7382-10.9561
		c0-6.2597-8.3477-62.08-9.9122-81.3828c-1.5654-19.3027-7.3037-103.2949-7.3037-103.2949l-11.4023-36.9687
		c0,0-2.2754,0.4687-5.7334,1.1855c1.8867,8.6748,6.9961,15.5371,8.8076,24.5967c4.6328,23.8252,11.9131,45.665,7.2803,69.4912
		c-1.9854,13.2363-0.6621,27.1348,4.6328,39.0469c1.9854,3.9707-0.6621,9.9277-2.6475,13.8984
		c-1.9853,7.9414,4.6329,15.2217,7.2803,22.502c1.3233,2.6464-1.9853,5.956-1.9853,8.6035
		c-1.3243,17.207,5.2939,32.4287,7.2793,49.6357c0.6621,2.6475,4.6328,4.6328,6.6181,7.2803
		c3.3594,5.2793-1.9775,11.2529-2.8955,15.9053c3.0899,0.4248,3.6328,1.3252,3.6328,1.3252S151.4205,459.4029,148.8121,453.6636z"/>
	<path style="fill:none;stroke:#664614;stroke-width:0.6552;stroke-miterlimit:10;" d="M65.2467,270.0073
		c0,0,19.8545-5.2949,26.4727-4.6328"/>
	<path style="fill:#DEE0E2;stroke:#575A5B;stroke-width:0.6552;stroke-miterlimit:10;" d="M55.0807,101.5845l14.1406,24.4385
		c0,0,4.043,93.6015,2.7744,102.9052c-1.2685,9.3028-40.5966-4.6523-40.5966-4.6523l-6.3438-108.7363L55.0807,101.5845z"/>
	<path style="fill:#DEE0E2;stroke:#575A5B;stroke-width:0.6552;stroke-miterlimit:10;" d="M87.8825,100.9224l-18.1124,24.4385
		c0,0,0.5342,92.9951,1.8028,102.2988c1.2685,9.3037,43.3008-3.3838,43.3008-3.3838l-6.087-110.4277L87.8825,100.9224z"/>
	<path style="fill:#76531E;stroke:#664614;stroke-width:0.6552;stroke-miterlimit:10;" d="M35.7145,221.2212
		c-1.0283-0.6631-1.2861,4.1787-0.3213,4.8213c0.9639,0.6426,13.9805,8.6777,39.0488,5.9463
		c25.0694-2.7324,38.086-7.0713,40.0137-10.9277c1.9287-3.8565,0.1611-6.5889-0.6426-5.9463
		c-0.8027,0.6435-8.8281,9.9619-38.7275,11.7314C47.9274,228.4527,40.6959,224.4351,35.7145,221.2212z"/>
	<path style="opacity:0.4;fill:#545454;" d="M64.5846,210.4439c-3.3086-38.7168-6.375-98.0508-4.6328-105.8907
		c1.7422-7.8398-4.8594-6.6113-4.8594-6.6113c-0.9131,0.6162-1.8525,1.2266-2.8096,1.8301c0,0-38.3505,23.2119-39.9824,24.1514
		c0.1299,1.08,0.5488,2.2949,1.4121,3.6377c3.92,6.0976,16.9873,58.8027,16.5518,74.9189
		c-0.4356,16.1162,1.4502,84.293,1.4502,84.293s26.4267,9.3564,30.7822-6.3243C66.8522,264.7681,67.8424,248.5591,64.5846,210.4439z
		"/>
	<path style="fill:#619BBC;stroke:#2F4A56;stroke-width:0.6552;stroke-miterlimit:10;" d="M52.445,93.9712
		c-16.1163,10.8887-40.0733,20.0361-40.0733,20.0361s-5.2266,3.4844-1.3066,9.5831c3.9199,6.0976,16.9873,58.8027,16.5517,74.9189
		c-0.4355,16.1162-1.7422,87.5508-1.7422,87.5508s29.6192,6.0986,33.9746-9.583c4.3565-15.6797,6.9698-37.459,1.7422-75.3545
		c-5.2265-37.8955-10.4531-93.2139-8.7109-101.0537C54.6227,92.228,52.445,93.9712,52.445,93.9712z"/>
	<path style="opacity:0.4;fill:#545454;" d="M91.8063,95.9566c16.1162,10.8896,40.0732,22.6836,40.0732,22.6836
		s5.2266,3.4843,1.3067,9.583c-3.92,6.0976-19.9297,59.1543-16.5518,74.9189c3.499,16.3291,8.1934,47.6563,9.9424,70.3057
		c0,0-31.8252,22.8291-36.1817,7.1484c-4.3554-15.6807-12.9628-36.9453-7.7363-74.8408
		c5.2276-37.8955,10.4541-95.8604,8.7119-103.7012S91.8063,95.9566,91.8063,95.9566z"/>
	<path style="fill:#619BBC;stroke:#2F4A56;stroke-width:0.6552;stroke-miterlimit:10;" d="M92.4684,90.6616
		c16.1162,10.8897,40.0732,22.6836,40.0732,22.6836s5.2266,3.4854,1.3067,9.583c-3.9199,6.0977-16.9873,58.8028-16.5518,74.919
		c0.4356,16.1162,12.2451,69.9189,12.2451,69.9189s-34.1289,23.2168-38.4843,7.5352c-4.3555-15.6807-12.9629-36.9453-7.7364-74.8399
		c5.2276-37.8955,10.4541-95.8613,8.7119-103.7011C90.2907,88.9195,92.4684,90.6616,92.4684,90.6616z"/>
	<path style="opacity:0.4;fill:#545454;" d="M87.528,91.5376c5.7353,9.4863,19.1923,35.0762,16.7656,55.5918
		c-2.4268,20.5166-22.502,78.3154-21.8399,91.7725c0,0-0.2207-33.3115-1.1025-55.8135c-0.8828-22.502,5.0732-46.1064,4.4111-66.1816
		C85.1012,96.8316,87.528,91.5376,87.528,91.5376z"/>
	<path style="fill:#95B9FF;" d="M91.3649,92.4517c-0.1065-2.7559,1.1035-1.7901,1.1035-1.7901
		c16.1162,10.8897,40.0732,22.6836,40.0732,22.6836s5.2266,3.4854,1.3067,9.583c-0.2852,0.4434-0.6201,1.1407-0.9932,2.045
		l-0.7646-7.5147c0,0-13.8985-5.625-25.8116-12.2431C98.319,100.7925,93.6139,95.4878,91.3649,92.4517z"/>
	<path style="fill:#619BBC;stroke:#2F4A56;stroke-width:0.6552;stroke-miterlimit:10;" d="M86.2037,88.228
		c5.7364,9.4864,19.1934,35.0772,16.7666,55.5928c-2.4267,20.5166-21.5087,76.9912-20.8476,90.4483
		c0,0-1.2129-31.9873-2.0957-54.4893c-0.8819-22.5019,5.0742-46.1064,4.4121-66.1816C83.778,93.523,86.2037,88.228,86.2037,88.228z"
		/>
	<path style="opacity:0.4;fill:#545454;" d="M56.6432,89.6626c0,0-23.4395,16.1895-18.9424,48.1328
		c0.46,3.2666,11.293,0.3535,11.293,0.3535s-10.5967,5.2608-10.3223,7.0518c5.5361,36.1436,19.1074,60.2725,21.3135,79.2451
		c0.1728,1.4883,3.831,8.5498,3.9521,8.9024c1.417,4.1425-1.5459-65.0088-3.9853-81.4746
		C57.6588,136.3911,56.6432,89.6626,56.6432,89.6626z"/>
	<path style="fill:#FFA96A;stroke:#6B4429;stroke-width:0.6552;stroke-miterlimit:10;" d="M85.7623,76.3159l0.2207,26.6924
		c-7.0478,7.7559-13.6933,15.4873-16.7617,23.0147c-3.6904-8.4229-7.8125-13.6446-12.3574-15.7344l0.4414-26.9131L85.7623,76.3159z"
		/>
	<path style="fill:#619BBC;stroke:#2F4A56;stroke-width:0.6552;stroke-miterlimit:10;" d="M56.6432,87.6773
		c0,0-22.1162,16.1894-17.6191,48.1328c0.4599,3.2666,11.2929,0.3535,11.2929,0.3535s-10.5957,5.2607-10.3222,7.0518
		c5.5371,36.1425,21.0605,66.125,23.2666,85.0976c0.1728,1.4893,0.5546,2.6973,0.6757,3.0498
		c1.417,4.1436-1.5459-65.0088-3.9853-81.4756C57.6588,134.4058,56.6432,87.6773,56.6432,87.6773z"/>
	<path style="opacity:0.4;fill:#545454;" d="M72.3424,144.4165l33.2529,12.5615c1.8204,0.6875,2.6573,2.7901,1.8077,4.5411
		l-26.4414,54.4716c-0.7461,1.5381-2.5401,2.2539-4.1407,1.6524l-28.6787-10.7774c-1.7236-0.6474-2.5869-2.5791-1.9199-4.2959
		l21.8662-56.2568C68.7467,144.6206,70.6442,143.7739,72.3424,144.4165z"/>
	<path style="fill:#DEE0E2;stroke:#575A5B;stroke-width:0.6552;stroke-miterlimit:10;" d="M58.6198,87.5064
		c0,0,0,17.9941,3.4043,21.0088c3.4043,3.0156,6.5078,12.8222,7.1933,19.2021c0,0-4.1777-11.4209-16.2383-17.6455
		C47.6051,107.2984,53.9518,89.938,58.6198,87.5064z"/>
	<path style="fill:#518496;" d="M96.6832,124.9907c-1.3955,2.6748-4.7002-2.2773-6.9101-6.3476
		c-2.209-4.0703-5.003-4.5801-5.003-4.5801l-0.1533-2.5469c0,0,11.4229-8.3886,11.5342-7.5966
		C97.3268,112.2759,98.0787,122.3159,96.6832,124.9907z"/>
	<path style="fill:#9DB2AA;stroke:#6F7B7F;stroke-width:0.6552;stroke-miterlimit:10;" d="M72.0631,142.5523l33.2529,12.5625
		c1.8204,0.6875,2.6573,2.79,1.8077,4.54l-26.4414,54.4727c-0.7461,1.538-2.5411,2.2539-4.1407,1.6523l-28.6787-10.7773
		c-1.7246-0.6475-2.5879-2.5791-1.9199-4.2959l21.8662-56.2569C68.4664,142.7573,70.3649,141.9107,72.0631,142.5523z"/>
	<g>
		<path style="fill:#CE8757;stroke:#6B4429;stroke-width:0.6186;stroke-miterlimit:10;" d="M138.3825,278.604
			c1.1132,3.2813-0.0235,7.5449,0.08,9.249c0.1035,1.7032-4.1201,6.5147-4.6474,8.4366c-0.5274,1.9228-0.8662,7.122,1.959,4.6181
			c2.8251-2.5048,7.2158-8.9658,7.2158-8.9658s1.2636-5.4043,1.5136-7.4199"/>
		<path style="fill:#CE8757;stroke:#6B4429;stroke-width:0.6552;stroke-miterlimit:10;" d="M141.5641,278.4029
			c0.6338,3.9824,0.5957,9.9228,0.3799,11.8964c-0.2158,1.9737-6.0039,6.6631-6.9864,8.7647
			c-0.9814,2.1015-2.3896,7.998,1.3409,5.6806c3.7314-2.3183,9.9121-9.7373,9.9121-9.7373s3.0244-4.0166,3.706-6.2802"/>
		<path style="fill:#EA9860;stroke:#6B4429;stroke-width:0.6552;stroke-miterlimit:10;" d="M143.1012,287.647
			c-0.2627,3.1152-0.7744,5.5234-1.4492,7.2812c-0.711,1.8536-5.957,6.7051-6.9238,8.8135
			c-0.9668,2.1084-2.334,8.0147,1.3808,5.6709c3.7149-2.3437,9.8428-9.8066,9.8428-9.8066s2.9961-4.0371,3.6621-6.3067"/>
		<path style="fill:#CC8352;" d="M136.8522,272.0747c0,0,3.4687,15.8135,10.2021,19.8946c6.7334,4.081,6.5293-5.5088,6.1211-9.794
			c-0.4082-4.2851-2.4482-10.5088-6.7334-10.7119C142.1569,271.2583,136.8522,272.0747,136.8522,272.0747z"/>
		<path style="fill:#FFA96A;stroke:#6B4429;stroke-width:0.6552;stroke-miterlimit:10;" d="M134.6569,265.0269
			c0,0-2.1377,8.665-2.0547,11.0937c0.082,2.4287-4.1934,10.1934-5.2442,12.6612c-1.0517,2.4677,3.0186,2.9775,5.5332,0.623
			c2.5137-2.3555,5.2823-11.5283,8.0235-11.9453c0,0,0.9258,3.373,1.8779,7.5557c0.9531,4.1826,1.3291,10.4921,1.2393,12.6025
			c-0.0909,2.1113-5.9063,7.4961-6.8008,9.7969c-0.8945,2.2988-1.9756,8.6582,1.8232,5.9355
			c3.7979-2.7226,9.8389-11.0332,9.8389-11.0332s2.9277-4.4765,3.4932-6.9277c0.5654-2.4512,2.0546-11.0938,0.7392-16.3994
			c-1.3144-5.3047-4.4824-12.6553-3.7197-18.8409L134.6569,265.0269z"/>
		<path style="fill:#DEE0E2;stroke:#6C6D6D;stroke-width:0.6552;stroke-miterlimit:10;" d="M150.9655,255.9224
			c0,0,2.4082,13.1562-0.0235,13.7285c-2.4316,0.5732-19.0986,0.6484-20.1445-1.2764c-1.0459-1.9258,0.5137-13.7451,0.5137-13.7451
			L150.9655,255.9224z"/>
		<path style="fill:#619BBC;stroke:#2F4A56;stroke-width:0.6552;stroke-miterlimit:10;" d="M133.5104,118.4048
			c0,0,7.4463,30.4902,8.7178,53.4902c1.2714,22.9991,9.0664,35.9707,10.6445,53.5664c1.5781,17.5957,0.2685,36.7608,0.2685,36.7608
			s-18.4921,4.0605-23.0664-0.6865c-4.5732-4.7481-5.6474-50.7959-7.872-58.5645c-2.2256-7.7685-3.0752-31.626-5.67-38.5195
			c-2.7431-7.2852-2.1669-24.8565,4.4034-32.7988"/>
	</g>
	<path style="fill:#CE8452;" d="M57.3053,83.3755l-0.0977,5.9258c2.0127,2.0557,4.0909,3.4004,5.9385,3.5195
		c5.2276,0.3369,20.4033,0.5059,22.0899-1.8554c0.167-0.2334,0.3847-0.5782,0.6396-1.0098l-0.1133-13.6397L57.3053,83.3755z"/>
	<path style="fill:#95B9FF;" d="M50.1188,98.5083l-0.4834-2.707c-15.9453,10.0644-37.2637,18.206-37.2637,18.206
		s-3.1787,2.1202-2.7187,5.9454c1.6318-0.9395,2.7734-2.3331,4.5205-2.3936C19.3854,117.3794,50.1188,98.5083,50.1188,98.5083z"/>
	<path style="fill:#DEE0E2;stroke:#575A5B;stroke-width:0.6552;stroke-miterlimit:10;" d="M85.7623,83.5962
		c0,0,6.5303-0.1074,8.9727,7.6846c2.4414,7.792,2.5586,27.9111,1.1631,30.5849c-1.3955,2.6758-3.2569-0.6972-5.4668-4.7675
		c-2.209-4.0703-5.8145-5.5821-5.8145-5.5821s-8.1406,3.0235-14.8857,14.3037c0,0,0.582-10.0009,7.4433-15.583
		C84.0358,104.6548,86.3043,89.8706,85.7623,83.5962z"/>
	<path style="fill:#D3D3D3;" d="M58.6617,89.2915c0,0,0,16.544,3.1299,19.3164c3.1299,2.7725,6.4922,11.959,7.1221,17.8242
		c0,0-4.3496-10.6699-15.4385-16.3935C48.5348,107.4888,54.3698,91.5279,58.6617,89.2915z"/>
	<path style="fill:#DEE0E2;stroke:#575A5B;stroke-width:0.6552;stroke-miterlimit:10;" d="M57.3053,83.3755
		c0,0-11.6924,9.2647-13.0156,13.4561c-1.3242,4.1923,0.6611,6.8388,0.8818,12.7959c0.2207,5.956,0.8819,14.7802,4.4121,15.2216
		c0.8428,0.6016,1.6768-9.747,3.6455-14.5605c0.2813-0.6875-0.7226-7.0596,1.5938-11.0303
		C57.1393,95.2876,60.1725,84.9195,57.3053,83.3755z"/>
	<path style="fill:#EDEEEF;" d="M49.3688,95.0816c2.9873-2.9873,7.9668-10.4561,7.9668-10.4561l-1.7237,0.1338
		c-3.289,2.7412-10.3144,8.8779-11.3222,12.0723c-1.3242,4.1923,0.6611,6.8388,0.8818,12.7959
		c0.2207,5.956,0.8819,14.7802,4.4121,15.2216c0.3213,0.2295,0.6416-1.1377,1.0244-3.1787
		c-1.5341-2.9687-2.4482-8.0605-3.4804-13.3935C45.6344,100.5591,46.3815,98.0698,49.3688,95.0816z"/>
	<path style="fill:#FFA96A;stroke:#6B4429;stroke-width:0.4847;stroke-miterlimit:10;" d="M46.1393,54.8198
		c0,0-2.9697-5.8349-4.9893-4.1162c-3.2031,2.7246,0.3926,10.4785,1.6397,14.2217c1.248,3.7422,3.1006,1.8711,3.1006,1.8711"/>
	<path style="fill:#FFA96A;stroke:#6B4429;stroke-width:0.4847;stroke-miterlimit:10;" d="M90.359,52.4185
		c0,0,3.459-4.959,6.0791-2.8379c2.6192,2.1211,0.249,11.9765-2.4951,14.7207c-2.7451,2.7441-3.8682-0.624-3.8682-0.624"/>
	<path style="fill:#FFA96A;stroke:#6B4429;stroke-width:0.6552;stroke-miterlimit:10;" d="M67.5807,7.3784
		c-12.9815,0.4063-22.9326,4.0479-23.2695,13.6592c-0.3379,9.6113,0.8427,22.9326,2.1914,26.8106
		c1.3496,3.8789-2.6973,15.0078-0.5059,23.4394c2.1924,8.4307,9.2744,18.5488,14.502,18.8858
		c5.2275,0.3369,20.4033,0.5058,22.0898-1.8545c1.6865-2.3614,8.4316-15.6827,8.7686-22.7647
		c0.3369-7.083,0.0693-14.9531-1.458-21.0605c-1.4893-5.9571,3.6494-21.6016,0.1084-27.335
		C86.4664,11.4263,78.3727,7.0415,67.5807,7.3784z"/>
	<path style="opacity:0.4;fill:#3F4142;" d="M57.8961,20.9243c4.3018-2.3105,10.1631-5.3857,17.2774-4.4345
		c7.1142,0.9511,16.7109,9.1035,4.9638,19.5654c0,0-0.331-0.6797,0-2.0381c0.3311-1.3584,5.46-14.4023-6.4531-14.8096
		C61.7721,18.7993,57.8961,20.9243,57.8961,20.9243z"/>
	<path style="fill:#564F4C;stroke:#473F3D;stroke-width:0.6552;stroke-miterlimit:10;" d="M59.318,38.0689
		c0,0-1.5176-2.1924-6.4072-1.8555c-4.8907,0.3379-5.7334,5.0586-5.7334,5.0586s0.8427,0.3379,2.1924-0.3369
		c1.3486-0.6748,5.3955-2.3604,7.082-2.0235C58.1373,39.2486,59.318,38.0689,59.318,38.0689z"/>
	<path style="fill:#564F4C;stroke:#473F3D;stroke-width:0.6552;stroke-miterlimit:10;" d="M71.9655,37.2251
		c-0.7422-1.6318,5.2265-2.0234,6.5761-1.8545c1.3487,0.168,1.5176,1.8545,3.541,2.1924c2.0235,0.3369,2.3604,1.6856,1.8545,2.1914
		c-0.5058,0.5059-3.8779,0.169-6.0703-1.3486S72.8082,39.0806,71.9655,37.2251z"/>
	<path style="fill:#CE8452;" d="M59.3414,65.1372c0.1143,1.0615,0.7061,4.001,4.6358,4.0323c4.5303,0.0351,6.79-4.1416,6.79-4.1416"
		/>
	
		<path style="fill:#FFA96A;stroke:#6B4429;stroke-width:0.6552;stroke-linecap:round;stroke-linejoin:round;stroke-miterlimit:10;" d="
		M63.7409,45.6372c0,0,0.0976,7.8438-2.0596,12.1582c-2.1563,4.3145-3.7256,8.0401-0.294,9.2657
		c3.4317,1.2255,5.7149,0.3398,7.7461-0.9805c1.4571-0.9463,1.7158-1.4219,1.7158-1.4219"/>
	
		<path style="fill:#FFA96A;stroke:#6B4429;stroke-width:0.5884;stroke-linecap:round;stroke-linejoin:round;stroke-miterlimit:10;" d="
		M60.4489,74.7212c2.3662,3.9834,12.8076,1.8272,14.8945,0.3359"/>
	<path style="fill:#CE8452;" d="M65.1364,80.5073c1.875-0.9931,5.956-3.0888,9.5957-1.4345"/>
	<path style="fill:#FFA96A;stroke:#6B4429;stroke-width:0.4847;stroke-miterlimit:10;" d="M43.5651,55.1714
		c-1.9473-0.5986-1.3477,3.5947,0.1504,4.4932c1.497,0.8984,0.8984,2.9961,0.749,3.8945"/>
	<path style="fill:#FFA96A;stroke:#6B4429;stroke-width:0.4847;stroke-miterlimit:10;" d="M93.5651,53.8482
		c1.9472-0.5996,1.3476,3.5947-0.1494,4.4931c-1.4981,0.8985-0.8985,2.9951-0.7491,3.8946"/>
	<path style="fill:#FCBD92;" d="M48.2604,72.3443c-2.1924-8.4307,1.5771-19.294,0.2285-23.1719
		c-0.9863-2.836-0.8818-11.8848-0.7803-19.294c0.0371-2.7255-0.8633-2.0478-0.7724-4.6328c0.0527-1.5107,1.9238-2.8545,2.4267-4.081
		c-0.5185,0.2441-2.6006-1.0977-3.1328-0.8682c-0.6719,0.2891-1.3154,0.251-1.8711,0.0283c-0.0205,0.2344-0.04,0.4707-0.0478,0.7129
		c-0.3379,9.6113,0.8427,22.9326,2.1914,26.8106c1.3496,3.8789-2.6973,15.0078-0.5059,23.4394
		c1.6074,6.1797,5.8418,13.2617,10.0469,16.7373c0.8262,0.6016,3.1484,2.0069,4.8437,1.8565
		C53.4166,86.8081,48.9791,75.1109,48.2604,72.3443z"/>
	<path style="fill:#CE8452;" d="M89.8268,38.0943c-0.1504-0.7979-0.3389-1.5879-0.6504-2.3555
		c-0.166-0.4063-0.3047-0.8057-0.4258-1.2031c-0.4228,3.4824-0.6797,6.6152-0.1748,8.6338
		c1.5264,6.1084,1.7949,13.9785,1.457,21.0615c-0.3369,7.082-7.082,20.4023-8.7675,22.7636
		c-1.4063,1.9678-14.5498,2.8956-21.9161,2.9551c0.3907,0.1192,0.7754,0.1992,1.1495,0.2237
		c5.2275,0.3369,20.4033,0.5058,22.0898-1.8555c1.6865-2.3604,8.4316-15.6817,8.7686-22.7637
		c0.3369-7.083,0.0693-14.9531-1.458-21.0605C89.5055,42.9185,89.5768,40.6616,89.8268,38.0943z"/>
	
		<path style="fill:#564F4C;stroke:#473F3D;stroke-width:0.6552;stroke-linecap:round;stroke-linejoin:round;stroke-miterlimit:10;" d="
		M44.9508,16.3111c0,0-3.9707,6.8388-6.8389,8.3828c-2.8681,1.5449-1.7646,3.9707,0.8829,7.5009
		c2.6464,3.5293,7.0586,22.501,7.0586,22.501s1.5449-4.8525,0.6621-8.1621c-0.8819-3.3086-0.8819-8.3828,0.8828-12.3535
		c1.7646-3.9707-3.5293-4.9082-2.2061-10.0371C46.5397,19.6978,46.8815,17.1939,44.9508,16.3111z"/>
	<path style="fill:#564F4C;stroke:#473F3D;stroke-width:0.6552;stroke-miterlimit:10;" d="M88.1198,15.4907
		c0,0,2.6787,6.3868,5.6914,7.6231c3.0136,1.2353,2.1709,3.7646-0.0928,7.5517c-2.2637,3.7862-2.6836,23.1163-2.6836,23.1163
		s-0.9746-4.6661-1.5107-8.0489c-0.3897-2.455-0.7627-7.6592-2.17-12.1933c-1.2871-4.1504,2.9981-5.251,1.1455-10.2139
		C86.8942,19.0259,86.2926,16.5708,88.1198,15.4907z"/>
	<path style="opacity:0.4;fill:#3F4142;" d="M77.9869,12.7261c0,0,4.7979-0.165,6.6172,7.9424
		c1.8203,8.1064,1.0489,11.1406,0.3868,16.2695c2.6992-0.4844,8.6308-8.8242,6.7285-15.6631
		C90.3092,16.2085,81.9576,9.5825,77.9869,12.7261z"/>
	<path style="fill:#474241;" d="M93.7184,30.6655c2.2637-3.7871,3.1064-6.3164,0.0928-7.5517
		c-0.0801-0.0332-0.1582-0.084-0.2383-0.124c0.1455,2.2548-0.2656,4.2382-1.1914,6.4472
		c-1.0899,2.5967-2.4317,10.5352-2.7256,17.1045c0.5508,3.2705,1.3789,7.2403,1.3789,7.2403S91.4547,34.4517,93.7184,30.6655z"/>
	<path style="fill:#726A67;" d="M46.7155,46.5337c-0.8819-3.3086-0.8819-8.3828,0.8828-12.3535
		c1.7646-3.9707-3.5293-4.9082-2.2061-10.0371c0.8613-3.3379,1.2686-5.5801,0.6006-6.8652l-1.373,0.7978l-0.2207,4.9639
		c0,0-2.4268,3.75-0.4415,6.1767c1.9864,2.4268,2.8682,3.751,1.545,7.3907c-1.3242,3.6396,0.9922,9.2656,0.5508,12.2431
		c-0.1319,0.8916-0.3926,1.9717-0.6719,3.0615c0.4189,1.6954,0.6719,2.7842,0.6719,2.7842S47.5983,49.8433,46.7155,46.5337z"/>
	
		<path style="fill:#564F4C;stroke:#473F3D;stroke-width:0.6552;stroke-linecap:round;stroke-linejoin:round;stroke-miterlimit:10;" d="
		M84.6041,21.9917c-1.1582-0.9931,1.6553-7.6113,3.8057-8.1074c2.1514-0.4961,1.8525,1.0342,4.0039,4.8389
		c2.1504,3.8056,0.3594,11.2744-0.5996,10.914C85.4,27.2329,85.7623,22.9849,84.6041,21.9917z"/>
	
		<path style="fill:#564F4C;stroke:#473F3D;stroke-width:0.6186;stroke-linecap:round;stroke-linejoin:round;stroke-miterlimit:10;" d="
		M42.9108,26.065c0,0-2.8135-15.1924,6.6172-20.7969c9.4316-5.6045,17.538-7.375,29.6171-0.4424
		c12.0782,6.9316,10.4239,7.2275,10.92,9.4395c0.4961,2.2119-4.3731,5.7197-7.5166,4.54
		c-3.1436-1.1797-12.1035-4.0723-21.3692,0.0586C51.9147,22.9927,46.0534,29.1626,42.9108,26.065z"/>
	<path style="fill:#726A67;" d="M54.0739,22.3745c2.0293-1.2334,4.3105-2.5429,6.8711-3.6845
		c2.2363-0.9971,4.4531-1.5098,6.5751-1.7012c0.0137-0.0234,0.0284-0.0449,0.043-0.0684
		c4.8574-7.8281,13.6699-7.8984,20.4238-6.4746c-1.2148-0.9883-3.2226-2.3232-6.5742-4.3008
		C72.2526,7.1743,56.1764,10.6519,54.0739,22.3745z"/>
	<path style="fill:#726A67;" d="M50.8522,23.9995c0,0-4.3018-11.0615,5.1289-16.2236c5.5908-3.0605,13.334-4.6172,20.126-4.5488
		c-1.128-0.5391-2.2227-1-3.2871-1.3828C62.2604,2.0005,51.7399,4.7857,48.7018,8.8081
		c-4.4863,5.9375-1.8262,14.3584-0.7334,17.1768c0.8838-0.4317,1.8486-0.9942,2.9004-1.6367
		C50.8571,24.1294,50.8522,23.9995,50.8522,23.9995z"/>
	<path style="fill:#564F4C;" d="M50.8522,23.9995c0,0,0.0049,0.1299,0.0166,0.3487c0.9902-0.6036,2.0576-1.2754,3.2051-1.9737
		C56.1764,10.6519,72.2526,7.1743,81.4127,6.145c-0.6982-0.4121-1.4492-0.8496-2.2676-1.3193
		c-1.0419-0.5986-2.0527-1.127-3.038-1.5986c-6.792-0.0684-14.5352,1.4883-20.126,4.5488
		C46.5504,12.938,50.8522,23.9995,50.8522,23.9995z"/>
	
		<path style="fill:#726A67;stroke:#473F3D;stroke-width:0.6552;stroke-linecap:round;stroke-linejoin:round;stroke-miterlimit:10;" d="
		M58.9596,20.3374c4.3018-2.8135,9.7617-5.957,16.876-4.7988c7.1142,1.1582,16.7109,11.0859,4.9638,23.8252
		c0,0-0.331-0.8272,0-2.4815c0.3301-1.6543,5.46-18.8613-6.4531-19.3584C62.4332,17.0279,58.9596,20.3374,58.9596,20.3374z"/>
	<g style="opacity:0.4;">
		<path style="fill:#545454;" d="M35.9059,193.4575c0,0,3.9707,0.8819,7.2803,1.1026c3.3086,0.2207,7.6455-1.96,13.1611-1.7393
			c5.5146,0.2197,5.5898-3.9961,8.0166-11.2763c2.4268-7.2803,0.7725-13.7881-4.3018-14.2295
			c-5.0732-0.4405-9.3759-0.5508-15.5527,4.9638c-6.1768,5.5157-9.9268,5.0742-9.9268,5.0742L35.9059,193.4575z"/>
		<path style="fill:#545454;" d="M56.2018,167.4253c4.2148-0.0557,17.331-1.1846,18.8789,0.6309
			c1.5478,1.8154,8.7168,6.3203,12.0342,9.6797c1.7676,1.79-4.3408,2.7363-6.9063,1.708c-2.5654-1.0284-6.7324-4.3106-9.001-4.708
			c-2.2685-0.3975-8.8925-0.0557-8.8925-0.0557"/>
		<path style="fill:#545454;" d="M61.775,173.8941c5.2461,1.0488,12.4102,2.7412,13.292,4.2177
			c1.2246,2.0479,7.543,7.6836,10.2539,11.5489c1.4453,2.0586-4.7353,1.9755-7.0937,0.5341
			c-2.3584-1.4414-5.9199-5.372-8.0908-6.1416c-1.501-0.5312-5.1133-1.0625-7.2002-1.3388"/>
		<path style="fill:#545454;" d="M60.5494,178.4029c4.7207,1.3378,10.293,3.206,10.9815,4.5751
			c1.0146,2.0147,6.7353,9.0049,9.0283,12.835c1.2217,2.04-4.6016,1.5391-6.7266,0.0186c-2.1259-1.5205-5.3632-6.7139-7.3574-7.5879
			c-0.998-0.4366-4.9609-1.3682-6.75-1.7705"/>
		<path style="fill:#545454;" d="M59.4655,186.3931c3.9277,1.2715,8.1875,2.9023,8.7226,4.0449
			c0.8477,1.8096,5.7363,8.1406,7.6709,11.5889c1.0303,1.8379-4.1123,1.247-5.956-0.1514
			c-1.8438-1.4004-4.5801-6.0781-6.3233-6.9023c-1.7441-0.8243-7.1689-2.0176-7.1689-2.0176"/>
		<path style="fill:#545454;" d="M42.0241,174.4263c3.5273-2.083,2.0449-10.0889,5.3535-12.2949
			c3.3086-2.2061,5.956-1.3243,11.9131-9.2657c4.4921-5.9902,5.956,4.8536,1.1025,9.7071
			c-2.3809,2.3808-5.2949,4.8525-5.2949,4.8525"/>
	</g>
	
		<path style="fill:#564F4C;stroke:#473F3D;stroke-width:0.6552;stroke-linecap:round;stroke-linejoin:round;stroke-miterlimit:10;" d="
		M56.9742,20.9986c0,0,8.7686-7.4454,20.0196-7.2793c11.251,0.165,14.7256,4.7978,14.7256,13.2363
		c0,8.4375-6.1221,13.4014-6.1221,13.4014s4.3018-16.2139-2.8125-21.3438C75.6705,13.8843,62.4332,17.855,56.9742,20.9986z"/>
	<path style="fill:#D3D3D3;" d="M85.7623,83.5962c0.542,6.2744-1.7265,21.0586-8.5879,26.6406
		c-6.8613,5.5821-7.4423,15.583-7.4423,15.583c6.7441-11.2802,14.8847-14.3037,14.8847-14.3037S88.2448,101.6851,85.7623,83.5962z"
		/>
	<path style="opacity:0.4;fill:#545454;" d="M25.5377,174.7056c0.999-0.4942,6.1211-0.3008,7.3516,0.6826
		c0.0127,0.0107,0.0234,0.0225,0.0371,0.0342c0.7832-14.8399-0.5498-21.6738-0.5498-21.6738c0-15.4434-6.8027-26.627-6.8027-26.627
		l-0.5274-0.1963c2.5391,3.2842,0.2256,10.7451,0.2705,17.7783C25.317,144.7036,26.3922,158.9478,25.5377,174.7056z"/>
	<path style="fill:#619BBC;stroke:#2F4A56;stroke-width:0.6552;stroke-miterlimit:10;" d="M10.5563,119.4468
		c0,0-10.5967,73.0478-10.2188,80.2383c0.3789,7.1914,16.6534,5.4912,16.6534,5.4912s8.705,2.081,10.2187-3.9746
		c1.5146-6.0557,3.7852-58.2891,3.7852-58.2891c-0.0713-11.3076-8.7295-19.0996-8.7295-19.0996"/>
	<path style="opacity:0.4;fill:#545454;" d="M38.3981,203.3726c4.3672-4.5371,4.8261-9.1846,4.3789-13.6582
		c-0.4473-4.4737-2.6084-16.2295-5.8701-15.4668c-2.2012-0.1299-4.8868-0.1494-10.3614,0.1728
		c-0.6533,0.0381-1.2832,0.1075-1.9004,0.1944c1.875,9.8877,3.1104,18.7529,2.9717,23.8945
		c-0.0722,2.6875-0.1699,5.3379-0.2802,10.5137C31.1305,209.023,37.7721,204.022,38.3981,203.3726z"/>
	
		<path style="fill:#273F49;stroke:#2F4A56;stroke-width:0.6552;stroke-linecap:round;stroke-linejoin:round;stroke-miterlimit:10;" d="
		M40.7828,187.0747c-0.4472-4.4746-1.8027-15.5742-5.0644-14.8115c-5.9131,2.1807-6.584,11.6318-6.4043,17.4961
		c0.2754,8.9932,2.7353,11.6465,6.2656,12.458c0.7725,0.1777,1.833-0.791,2.459-1.4414
		C42.4059,196.2388,41.2301,191.5484,40.7828,187.0747z"/>
	<g>
		
			<path style="fill:#FFA96A;stroke:#6B4429;stroke-width:0.6552;stroke-linecap:round;stroke-linejoin:round;stroke-miterlimit:10;" d="
			M36.568,192.1333c0,0,3.9707,0.8828,7.2793,1.1035c3.3096,0.2207,7.6465-1.9609,13.1621-1.7402
			c5.5147,0.2207,5.5898-3.9961,8.0166-11.2754c2.4268-7.2803,0.7725-13.7881-4.3018-14.2295
			c-5.0742-0.4414-9.3759-0.5517-15.5527,4.9639c-6.1767,5.5146-9.9277,5.0742-9.9277,5.0742L36.568,192.1333z"/>
		
			<path style="fill:#FFA96A;stroke:#6B4429;stroke-width:0.6552;stroke-linecap:round;stroke-linejoin:round;stroke-miterlimit:10;" d="
			M56.8639,166.1021c4.2139-0.0557,17.3301-1.1856,18.8789,0.6308c1.5479,1.8155,8.7158,6.3203,12.0332,9.6797
			c1.7676,1.7891-4.3398,2.7363-6.9062,1.708c-2.5655-1.0283-6.7315-4.3115-9-4.708c-2.2686-0.3974-8.8926-0.0566-8.8926-0.0566"/>
		
			<path style="fill:#FFA96A;stroke:#6B4429;stroke-width:0.6552;stroke-linecap:round;stroke-linejoin:round;stroke-miterlimit:10;" d="
			M62.4362,172.5708c5.247,1.0479,12.4101,2.7412,13.2929,4.2168c1.2246,2.0488,7.542,7.6846,10.2539,11.5488
			c1.4444,2.0596-4.7363,1.9766-7.0937,0.5352c-2.3594-1.4414-5.9199-5.3721-8.0908-6.1416
			c-1.501-0.5322-5.1143-1.0625-7.2012-1.3398"/>
		
			<path style="fill:#FFA96A;stroke:#6B4429;stroke-width:0.6552;stroke-linecap:round;stroke-linejoin:round;stroke-miterlimit:10;" d="
			M61.2116,177.0786c4.7207,1.3389,10.2919,3.2071,10.9814,4.5762c1.0146,2.0147,6.7354,9.0039,9.0283,12.834
			c1.2207,2.041-4.6015,1.5391-6.7275,0.0185c-2.125-1.5205-5.3623-6.7128-7.3574-7.5869c-0.9971-0.4375-4.96-1.3691-6.75-1.7715"/>
		
			<path style="fill:#FFA96A;stroke:#6B4429;stroke-width:0.6552;stroke-linecap:round;stroke-linejoin:round;stroke-miterlimit:10;" d="
			M60.1276,185.0698c3.9277,1.2706,8.1875,2.9014,8.7226,4.044c0.8477,1.8096,5.7364,8.1416,7.6709,11.5898
			c1.0303,1.8369-4.1123,1.2471-5.956-0.1523c-1.8438-1.3994-4.5801-6.0781-6.3242-6.9024c-1.7442-0.8242-7.169-2.0166-7.169-2.0166
			"/>
		
			<path style="fill:#FFA96A;stroke:#6B4429;stroke-width:0.5994;stroke-linecap:round;stroke-linejoin:round;stroke-miterlimit:10;" d="
			M42.6862,173.1021c3.2265-1.9043,2.2734-8.2207,5.3007-10.2383c3.0274-2.0186,5.0459-2.2207,10.4952-9.4863
			c4.1103-5.4795,5.4492,4.4404,1.0088,8.8808c-2.1778,2.1778-3.5196,4.4395-3.5196,4.4395"/>
	</g>
	<path style="fill:#DEE0E2;stroke:#575A5B;stroke-width:0.6552;stroke-miterlimit:10;" d="M27.9723,173.5405
		c0,0,3.9961,0.2227,6.2334,0.8936c2.2363,0.6709,4.2676,0.8584,4.2676,0.8584s-2.7012,3.4424-1.5059,10.2354
		c0.8106,4.6074,2.3018,7.1396,4.9863,7.5869c2.6836,0.4472-0.2939,1.3506-2.5312,2.4697
		c-2.2363,1.1182-12.457,4.2412-19.0566,3.123C13.7672,197.5884,27.9723,173.5405,27.9723,173.5405z"/>
	
		<path style="fill:#619BBC;stroke:#2F4A56;stroke-width:0.6552;stroke-linecap:round;stroke-linejoin:round;stroke-miterlimit:10;" d="
		M2.2301,203.0923c0,0,2.6494,4.1621,6.8125,5.2979c4.0977,1.1181,19.5557-0.7832,26.5371-6.1729
		c-3.5303-0.8115-5.9902-3.4648-6.2656-12.458c-0.1797-5.8643,0.4912-15.3154,6.4043-17.4961
		c-2.2002-0.1299-5.6836-0.1504-11.1582,0.1709c-12.8682,0.7578-18.5449,11.3555-18.5449,11.3555"/>
	<path style="fill:#95B9FF;" d="M13.8659,122.7564l-3.3096-3.3096c0,0-10.5967,73.0478-10.2188,80.2383
		c0.1153,2.1816,1.6963,3.9072,3.8379,5.2578c-0.3037-0.6055-0.2012-1.335-0.5283-1.9483
		C0.1832,196.5142,12.7819,123.0064,13.8659,122.7564z"/>
	
		<path style="fill:#619BBC;stroke:#2F4A56;stroke-width:0.6552;stroke-linecap:round;stroke-linejoin:round;stroke-miterlimit:10;" d="
		M35.7184,172.2632c-0.1065-0.0059-0.2178-0.0117-0.3301-0.0176l-0.0391,0.1719C35.4713,172.3648,35.5924,172.3101,35.7184,172.2632
		z"/>
	<path style="fill:#95B9FF;" d="M21.2145,174.8452c5.3887-1.0771,10.3779-1.4297,12.6504-1.541
		c0.4511-0.3525,0.9443-0.6513,1.4843-0.8867l0.0391-0.1719c-2.2139-0.1133-5.6172-0.1172-10.8281,0.1885
		c-12.8682,0.7578-18.5449,11.3555-18.5449,11.3555c-0.2149-0.2539-1.1748,1.1924-1.4551,3.4355
		c-0.1377,1.1026,1.1924-1.332,1.1924-1.332S13.8766,176.313,21.2145,174.8452z"/>
	<path style="opacity:0.4;fill:#545454;" d="M133.3844,261.5357c-2.4307-2.5235-5.5713-15.4864-6.3379-28.8975
		c-0.6758-11.8232,1.082-23.9951-1.5351-29.667c-4.9024-10.625-5.0596-31.626-7.6553-38.5195
		c-2.3438-6.2246-0.2754-19.9561,3.8965-28.7774c-0.2315-1.8076-0.458-3.6181-0.7412-5.4257l-0.0752,0.08
		c-6.5703,7.9434-7.1465,25.5147-4.4034,32.7998c2.5948,6.8936,3.4444,30.751,5.67,38.5186
		c2.2246,7.7695,3.2988,53.8174,7.872,58.5644c0.875,0.9082,2.2618,1.4922,3.9287,1.8457
		C133.778,261.895,133.567,261.7251,133.3844,261.5357z"/>
	<path style="opacity:0.4;fill:#545454;" d="M152.8727,225.4614c-1.5781-17.5957-9.3731-30.5673-10.6445-53.5664
		c-1.2715-23-8.7178-53.4902-8.7178-53.4902l-2.4102,2.5381c2.0205,8.9199,7.6074,44.4971,7.8194,49.6279
		c0.9453,23.0147,7.8066,26.2481,9.3847,43.8438c1.5782,17.5957,1.5274,46.4843,1.5274,46.4843s-12.0918,2.6534-19.1377,1.1582
		c5.4082,3.9034,22.4472,0.1651,22.4472,0.1651S154.4508,243.0571,152.8727,225.4614z"/>
	<g>
		<path style="fill:#452109;" d="M83.9918,48.5513c0,0-0.3037-4.7803-4.7529-4.2959c-4.4492,0.4853-8.4609,0.5615-8.3301,5.4072
			C70.8229,51.1616,79.1217,51.1177,83.9918,48.5513z"/>
		<path style="fill:#FFFFFF;" d="M84.0602,49.5737c0,0-0.6572-4.2509-5.1074-3.7666c-4.4493,0.4844-8.294,1.6758-8.0918,4.6504
			C70.775,51.9575,79.1901,52.1402,84.0602,49.5737z"/>
		<g>
			<defs>
				<path id="SVGID_1_" d="M84.0602,49.5737c0,0-0.6572-4.2509-5.1074-3.7666c-4.4493,0.4844-8.294,1.6758-8.0918,4.6504
					C70.775,51.9575,79.1901,52.1402,84.0602,49.5737z"/>
			</defs>
			<clipPath id="SVGID_2_">
				<use xlink:href="#SVGID_1_"  style="overflow:visible;"/>
			</clipPath>
			
				<ellipse transform="matrix(0.9978 -0.0668 0.0668 0.9978 -3.0966 5.2506)" style="clip-path:url(#SVGID_2_);fill:#A85715;" cx="76.9869" cy="48.9432" rx="3.5901" ry="3.59"/>
			
				<ellipse transform="matrix(0.9978 -0.0669 0.0669 0.9978 -3.1014 5.2593)" style="clip-path:url(#SVGID_2_);fill:#3D1800;" cx="76.9869" cy="48.9429" rx="2.0877" ry="2.0877"/>
			
				<ellipse transform="matrix(0.9978 -0.067 0.067 0.9978 -3.1041 5.1192)" style="clip-path:url(#SVGID_2_);fill:#FFFFFF;" cx="74.8094" cy="48.8621" rx="0.9259" ry="0.9259"/>
		</g>
		<path style="fill:#452109;" d="M48.7467,50.3521c0,0-0.334-4.7403,4.1065-4.8526c4.4394-0.1123,8.3945-0.5674,8.9072,4.2149
			C62.0436,51.1782,53.8756,52.2329,48.7467,50.3521z"/>
		<path style="fill:#FFFFFF;" d="M48.8151,51.3677c0,0,0.0849-4.2686,4.5244-4.3809c4.4404-0.1113,8.3789,0.5518,8.5732,3.503
			C62.1959,51.9536,53.944,53.2476,48.8151,51.3677z"/>
		<g>
			<defs>
				<path id="SVGID_3_" d="M48.8151,51.3677c0,0,0.0849-4.2686,4.5244-4.3809c4.4404-0.1113,8.3789,0.5518,8.5732,3.503
					C62.1959,51.9536,53.944,53.2476,48.8151,51.3677z"/>
			</defs>
			<clipPath id="SVGID_4_">
				<use xlink:href="#SVGID_3_"  style="overflow:visible;"/>
			</clipPath>
			
				<ellipse transform="matrix(0.9978 -0.0669 0.0669 0.9978 -3.2064 3.8356)" style="clip-path:url(#SVGID_4_);fill:#A85715;" cx="55.6881" cy="49.8111" rx="3.5627" ry="3.5626"/>
			
				<ellipse transform="matrix(0.9978 -0.0669 0.0669 0.9978 -3.2098 3.8399)" style="clip-path:url(#SVGID_4_);fill:#3D1800;" cx="55.6881" cy="49.8113" rx="2.071" ry="2.0715"/>
			
				<ellipse transform="matrix(0.9978 -0.0664 0.0664 0.9978 -3.1568 3.95)" style="clip-path:url(#SVGID_4_);fill:#FFFFFF;" cx="57.8187" cy="49.4434" rx="0.919" ry="0.9185"/>
		</g>
	</g>
</g>
</svg>
