<?xml version="1.0" encoding="utf-8"?>
<!-- Generator: Adobe Illustrator 21.0.0, SVG Export Plug-In . SVG Version: 6.00 Build 0)  -->
<svg version="1.1" id="Capa_1" xmlns="http://www.w3.org/2000/svg" xmlns:xlink="http://www.w3.org/1999/xlink" x="0px" y="0px"
	 viewBox="0 0 259.7032 447.4781" style="enable-background:new 0 0 259.7032 447.4781;" xml:space="preserve">
<g>
	<g>
		<path style="fill:#50565B;stroke:#656C70;stroke-width:0.7213;stroke-miterlimit:10;" d="M222.2989,301.4739l-1.5362-2.8252
			c0,0,8.3555,2.334,8.416-2.8262c0.0625-5.1601,0.3077-46.6865,0.3077-46.6865l2.9482-0.3691l-0.3066,50.8642l-1.5967,3.1338
			l-4.086-0.3086L222.2989,301.4739"/>
		<path style="fill:#808589;stroke:#656C70;stroke-width:0.7213;stroke-miterlimit:10;" d="M222.2989,301.4739
			c0,0,8.7236,1.1914,8.7236-4.1953v-48.5117h7.125v48.5117c0,0,0.9629,10.497-7.4942,10.5234l-8.457,0.0254L222.2989,301.4739z"/>
		
			<rect x="169.8379" y="363.3069" transform="matrix(-1 -1.224647e-16 1.224647e-16 -1 347.6621 762.9468)" style="fill:#808589;stroke:#656C70;stroke-width:0.7213;stroke-miterlimit:10;" width="7.9863" height="36.333"/>
		<path style="fill:#252728;stroke:#000000;stroke-width:0.7213;stroke-miterlimit:10;" d="M168.7373,364.1233h10.4326
			c1.378,0,2.5137-1.083,2.5792-2.46l1.8496-38.8115h-19.2891l1.8486,38.8115
			C166.2237,363.0403,167.3584,364.1233,168.7373,364.1233z"/>
		<circle style="fill:#1A1B1C;stroke:#000000;stroke-width:0.7213;stroke-miterlimit:10;" cx="173.8311" cy="437.0774" r="10.04"/>
		<circle style="fill:#1A1B1C;stroke:#000000;stroke-width:0.7213;stroke-miterlimit:10;" cx="144.3021" cy="435.1116" r="9.5823"/>
		<circle style="fill:#1A1B1C;stroke:#000000;stroke-width:0.7213;stroke-miterlimit:10;" cx="203.3428" cy="435.1116" r="9.582"/>
		<circle style="fill:#A0A6AA;" cx="173.8309" cy="437.0774" r="7.0202"/>
		<circle style="fill:#A0A6AA;" cx="144.3023" cy="435.1116" r="6.2315"/>
		<circle style="fill:#A0A6AA;" cx="203.3428" cy="435.1116" r="6.2314"/>
		<circle style="fill:#1A1B1C;stroke:#000000;stroke-width:0.7213;stroke-miterlimit:10;" cx="173.8516" cy="436.0464" r="5.9895"/>
		<circle style="fill:#1A1B1C;stroke:#000000;stroke-width:0.7213;stroke-miterlimit:10;" cx="144.3021" cy="434.4624" r="5.2202"/>
		<circle style="fill:#1A1B1C;stroke:#000000;stroke-width:0.7213;stroke-miterlimit:10;" cx="203.3428" cy="434.4624" r="5.0549"/>
		<path style="fill:#A0A6AA;" d="M170.3701,366.4856c0,0,6.0811-2.3535,5.7022,3.79v26.6202c0,0,1.0244,1.4629-4.8018,2.1035h5.8164
			l0.2657-34.375h-7.044L170.3701,366.4856z"/>
		<path style="fill:#808589;stroke:#656C70;stroke-width:0.7213;stroke-miterlimit:10;" d="M139.0821,413.0305
			c1.4736-7.6992,16.2998-7.6172,16.2998-7.6172h8.5586v-4.2685c0-0.8311,0.6738-1.5049,1.5048-1.5049h17.0166
			c0.8311,0,1.5049,0.6738,1.5049,1.5049v4.2685h12.5313c13.1875,0,11.8261,9.6661,11.8261,9.6661v12.08
			c0,1.6006-1.2978,2.8975-2.8974,2.8975h-4.0547c-1.6006,0-2.8975-1.2969-2.8975-2.8975v-1.0976c0,0.0722,0-1.0196,0-4.5117
			c0-9.6661-6.3994-9.0918-6.3994-9.0918l-13.1972-0.0596v15.8506c0,0.998-0.8086,1.8076-1.8067,1.8076h-6.2353
			c-0.9981,0-1.8077-0.8096-1.8077-1.8076v-15.8946l-13.4834-0.0605c-5.039,0-5.9716,4.5352-6.1123,6.9668v8.7842
			c0,1.1103-0.9003,2.0117-2.0117,2.0117h-5.8261c-1.1104,0-2.0118-0.9014-2.0118-2.0117v-14.5586
			c0-0.0254,0.0069-0.0498,0.0078-0.0752L139.0821,413.0305z"/>
		<path style="fill:#A0A6AA;" d="M173.7227,407.9934c0,0,4.8379-0.4297,4.6543,3.9932l0.0049,15.1123
			c0,0,0.6093,2.8984-2.8926,2.3086c0,0,1.1055,0.0879,1.6582-2.6778l0.123-14.8046
			C177.2705,411.9251,176.6866,408.8538,173.7227,407.9934z"/>
		<path style="fill:#A0A6AA;" d="M173.8311,400.1926h7.5556c0,0,2.6416-0.6152,2.0274,2.5801l0.0928,3.1934l-2.4893-4.2383
			L173.8311,400.1926z"/>
		<path style="fill:#A0A6AA;" d="M200.8604,406.4583c0,0,7.125,0.6757,6.8183,9.706l0.0098,10.1358c0,0,1.1572,3.5019-4.3096,3.0712
			c0,0,2.3955-0.7978,2.1494-5.7744l-0.122-10.0742C205.4063,413.5227,205.5899,409.8977,200.8604,406.4583z"/>
		<path style="fill:#262C35;stroke:#161A1E;stroke-width:0.7213;stroke-miterlimit:10;" d="M204.5489,145.3958
			c0,0,3.2959-8.8262,27.0673-8.3496c0,0,25.0811-6.795,27.6973,48.3339v49.4082c0,0,1.9629,34.0899-26.3887,33.1368
			c0,0-30.0957,2.2714-29.6601-24.1338L204.5489,145.3958"/>
		<path style="fill:#181D23;" d="M218.9678,142.1116c0,0,22.0264-9.4522,27.043,41.8506l3.0527,56.2646
			c0,0,0.8721,21.0235-17.4473,21.501c-18.3193,0.4766-0.872,1.251-0.872,1.251s-23.9893,1.6084-25.1885-21.5157l-5.126-78.4326
			C200.4297,163.0305,203.2647,141.6946,218.9678,142.1116z"/>
		<path style="fill:#50565B;stroke:#656C70;stroke-width:0.7213;stroke-miterlimit:10;" d="M154.917,327.1067h40.7754
			c1.9297,0,3.5088-1.5801,3.5088-3.5098v-9.8105c0-1.2988-1.0615-2.3604-2.3604-2.3604h-43.0722
			c-1.2979,0-2.3594,1.0616-2.3594,2.3604v9.8105C151.4092,325.5266,152.9883,327.1067,154.917,327.1067z"/>
		<path style="fill:#262C35;stroke:#161A1E;stroke-width:0.7213;stroke-miterlimit:10;" d="M145.0498,316.7083
			c-4.0185-0.1739,10.8965,1.5234,33.3037,1.9668c8.9268,0.1757,26.2842-0.9834,26.2842-0.9834
			c4.168,0,20.0381-2.4571,20.0381-11.0577v-5.1601c0-9.419-15.8701-12.0401-20.0381-12.0401c0,0-17.166-0.2841-26.0234,0
			c-19.0449,0.6104-43.9736,1.9659-43.9736,1.9659c-4.168,0-10.669,5.1562-10.669,9.0918v6.1425
			C124.5137,312.5315,140.8819,316.7083,145.0498,316.7083z"/>
		<path style="fill:#181D23;" d="M224.5674,300.2239c0,0-50.8926,10.4121-99.7558-2.4004c-48.8624-12.8125,0,0,0,0
			s1.1035,12.0049,21.5322,14.708c0,0,48.0146,4.1768,66.8818,0c0,0,0.2578,3.4053-7.9394,5.1426c-8.1954,1.7373,0,0,0,0
			s16.4404-0.2998,19.2812-9.8467s0,0,0,0V300.2239"/>
	</g>
	<path style="fill:#C39145;" d="M122.2022,231.6106c12.2969,7.6123,53.1885,15.3008,69.9472,11.6582
		c0,0,10.2002,33.5156,2.9141,43.7168c-7.2861,10.2002-1.4697,8.8887-18.8437,14.3789
		c-14.3223,4.5264-47.5586-5.7314-50.4737-25.4043C122.8321,256.2883,122.2022,231.6106,122.2022,231.6106z"/>
	<g>
		<path style="fill:#593A11;" d="M1.2198,418.4055c5.3105,7.4336,21.9414,8.25,41.5507,7.0244
			c1.92-0.1201,10.42-1.4638,12.2364-1.5879c1.4638-0.1005,4.2031-3.0966,5.5898-3.1962c1.9805-0.1446,2.5986,2.0957,4.3633,2.4687
			c5.7246,1.2119,12.0088-2.0605,12.9756-3.5869c0,0,1.7529-11.7354-2.0713-17.8564c-3.8242-6.1211-33.0049-1.7168-33.0049-1.7168
			s-29.5596,8.913-41.8154,10.956C0.1143,412.0237-0.8222,415.5462,1.2198,418.4055z"/>
		<path style="fill:#76531E;stroke:#664614;stroke-width:0.7213;stroke-miterlimit:10;" d="M1.2198,413.7698
			c5.3105,7.4336,23.2871,7.3545,42.8964,6.1279c19.6094-1.2256,34.5489-5.7187,34.5489-5.7187s0.2949-15.1299-3.5293-21.251
			c-3.8242-6.1211-32.2764-1.7168-32.2764-1.7168s-21.0635,13.835-35.4629,13.3984C1.8028,404.4407-0.8222,410.9104,1.2198,413.7698
			z"/>
		<path style="fill:#C39145;stroke:#664614;stroke-width:0.7213;stroke-miterlimit:10;" d="M131.3389,252.3245
			c0,0-73.9072,10.1259-84.208,12.872c-10.3008,2.7471-15.7949,7.5547-11.3311,28.8428
			c4.4639,21.2881,5.2823,100.2959,5.2823,100.2959s3.6152-2.2344,6.5576-0.7285c4.2402,2.168,5.9961,6.5156,14.1045,5.502
			c13.7353-1.7168,16.0117-8.1739,16.0117-8.1739s-0.4854-34.4033-0.1416-45.0478c0.3437-10.6436-2.6631-33.3057-4.0361-36.0528
			c-1.3741-2.747,5.2255-7.2099,5.2255-7.2099s51.1612-3.9453,67.9864-1.542c16.8242,2.4033,22.3437-3.9522,20.6269-19.4043
			C165.7002,266.2268,131.3389,252.3245,131.3389,252.3245z"/>
		<path style="fill:#CFAC81;" d="M85.6729,267.9456c9.4717-2.1856,18.9433-2.1856,26.958-5.1006
			c7.4492-3.3858,21.8144-0.4844,23.8057-8.2481c-3.0792-1.455-5.0977-2.2724-5.0977-2.2724s-73.9072,10.1259-84.208,12.872
			c-10.3008,2.7471-15.7949,7.5547-11.3311,28.8428c4.4639,21.2881,5.2823,100.2959,5.2823,100.2959s3.6152-2.2344,6.5576-0.7285
			c0.8818,0.4502,1.6543,0.9961,2.4004,1.5684c1.1904-4.3096-2.9844-9.2852-2.9844-13.5645
			c0.7285-26.959,0.7285-54.6465-6.5576-80.1484c-2.1865-9.4727-3.6436-22.5879,0-28.416
			C49.2412,259.9309,69.6426,271.5891,85.6729,267.9456z"/>
		<path style="opacity:0.4;fill:#545454;" d="M126.876,266.0422c-22.5879,4.3711-48.2705,16.7188-50.7842,27.9063
			c-7.2861,0.7285-8.6347,7.5137-7.9062,12.6133c2.1855,29.1455,0,57.5615,3.6435,86.706c0.1553,0.9336,0.335,1.8545,0.5205,2.7725
			c4.4414-2.3809,5.4063-5.1055,5.4063-5.1055s-0.4844-34.4033-0.1416-45.0478c0.3437-10.6436-2.6631-33.3057-4.0361-36.0537
			c-1.3741-2.7461,5.2255-7.21,5.2255-7.21s30.9961-19.249,47.8204-16.8447C142.5694,288.0559,135.6905,264.2786,126.876,266.0422z"
			/>
	</g>
	<path style="fill:#C39145;" d="M122.2022,231.6106c12.2969,7.6123,53.1885,15.3008,69.9472,11.6582
		c0,0,10.2002,33.5156,2.9141,43.7168c-7.2861,10.2002-1.4697,8.8887-18.8437,14.3789
		c-14.3223,4.5264-13.1016-35.1777-32.9864-34.876C119.1885,266.8528,122.2022,231.6106,122.2022,231.6106z"/>
	<g>
		<path style="fill:#593A11;" d="M94.2832,397.1536c0,0,0.9707,12.873-5.5869,19.6728
			c-6.5566,6.8008-18.7012,10.3223-20.4004,16.3936c-1.7002,6.0722,0.2422,7.8945,1.4571,9.4726
			c1.2138,1.5782,14.8144,6.6787,28.9023,4.0069c14.0859-2.6709,12.3857-11.9004,18.9434-14.5723
			c6.5576-2.6709,8.9267-5.7939,8.9267-5.7939s2.0987-5.1592,0.1553-9.7735c-1.9434-4.6152-4.4678-20.8633-4.4678-20.8633
			L94.2832,397.1536z"/>
		<path style="fill:#76531E;stroke:#664614;stroke-width:0.7213;stroke-miterlimit:10;" d="M94.2832,392.7825
			c0,0,0.9707,12.872-5.5869,19.6719c-6.5566,6.8007-18.7012,9.7158-20.4004,15.7871c-1.7002,6.0722-0.4863,9.7148-0.4863,9.7148
			s16.7578,7.043,30.8457,4.3711c14.0859-2.6699,12.3857-11.9004,18.9434-14.5723c6.5576-2.6699,8.9863-10.6855,8.9863-10.6855
			s0-11.6582-1.9434-16.2734c-1.9424-4.6133-2.4287-9.4708-2.4287-9.4708L94.2832,392.7825z"/>
		<path style="fill:#C39145;stroke:#664614;stroke-width:0.7213;stroke-miterlimit:10;" d="M143.4756,265.5169
			c-13.4687,0.871-40.5742,10.0527-53.3848,16.5585c-9.5058,4.8272-15.038,8.1622-10.5742,29.4512
			c4.4639,21.2881,12.5684,90.0938,12.5684,90.0938s3.6152-2.2325,6.5586-0.7285c4.2402,2.1689,5.9961,6.5156,14.1035,5.5029
			c13.7353-1.7168,13.0977-8.1738,13.0977-8.1738s0.9726-34.4034,1.3164-45.0479c0.3427-10.6445-4.1211-33.3066-5.4942-36.0527
			c-1.374-2.7471,5.2256-7.211,5.2256-7.211s21.916-1.3711,38.8418-5.9121c16.415-4.4053,39.8301-6.8672,38.1133-22.3193"/>
		<path style="fill:#CFAC81;" d="M100.2451,397.6399c-2.1865-5.8291-4.372-11.6582-5.1005-16.7578
			c-0.7286-18.2168-5.1006-34.9746-8.7432-52.4609c-3.6436-13.8438-5.1006-31.3301,6.5566-40.0743
			c10.2012-6.5566,22.5879-8.7431,33.5166-13.1152c5.8291-2.1855,13.1153-1.457,18.2159-4.3711
			c2.2461-1.3477,5.0439-1.8672,7.2031-3.0898l-8.418-2.2539c-13.4687,0.871-40.5742,10.0527-53.3848,16.5585
			c-9.5058,4.8272-15.038,8.1622-10.5742,29.4512c4.4639,21.2881,12.5684,90.0938,12.5684,90.0938s3.6152-2.2325,6.5586-0.7285
			c0.5986,0.3066,1.1455,0.6591,1.6699,1.0312C100.5928,400.4407,100.6699,398.9163,100.2451,397.6399z"/>
		<path style="opacity:0.4;fill:#545454;" d="M163.2041,259.7571c-1.5049,5.9726,6.5371,11.1875,8.5479,15.084
			c1.2109,2.3476,7.291,15.7129,6.4638,19.6191c-11.3017,2.3184-23.6318-0.9541-34.9824,2.6309
			c-10.2011,2.914-20.4013,3.6426-29.873,8.0136c-4.3731,2.1856-5.8301,10.2012-2.1865,15.3008
			c0.7285,0.7295,5.1005-0.7285,5.1005,0c9.1866,28.2178,0.0577,56.4356,0.8125,85.1856c9.2461-2.3692,8.7579-7.3701,8.7579-7.3701
			s0.9726-34.4034,1.3164-45.0479c0.3427-10.6445-4.1211-33.3066-5.4942-36.0527c-1.374-2.7471,5.2256-7.211,5.2256-7.211
			s21.916-1.3711,38.8418-5.9121c4.708-1.2636,12.1035-3.0957,17.2061-4.3926C195.625,296.3821,163.2041,259.7571,163.2041,259.7571
			z"/>
	</g>
	<g>
		<path style="fill:#CE8452;stroke:#6B4429;stroke-width:0.7213;stroke-miterlimit:10;" d="M62.4385,120.886
			c0,0,3.0742,5.5781,3.8438,8.6016c0.7695,3.0244-6.3663,5.9609-7.1895,3.8789c-0.8242-2.0811-5.1436-9.1817-3.4629-9.9473
			C57.3116,122.6536,60.917,120.0608,62.4385,120.886z"/>
		
			<path style="fill:#FFA96A;stroke:#6B4429;stroke-width:0.7213;stroke-linecap:round;stroke-linejoin:round;stroke-miterlimit:10;" d="
			M99.3584,194.7883c-8.4814-16.9375-24.4599-26.4677-24.1367-39.0517c1.0615-4.0459,1.1533-9.5576-0.4482-15.7041
			c-1.6026-6.1446-1.5069-7.585-2.9795-8.7227c-1.4727-1.1377-4.1348-3.2363-10.8203-0.4687
			c-6.6846,2.7676-14.6436,7.414-12.875,14.1992c1.7695,6.7861,6.3291,15.5488,9.4599,18.25
			c6.1358,5.2959,17.459,45.3027,23.8858,51.4707C87.8701,220.9309,107.8408,211.7258,99.3584,194.7883z"/>
		
			<path style="fill:#FFA96A;stroke:#6B4429;stroke-width:0.7213;stroke-linecap:round;stroke-linejoin:round;stroke-miterlimit:10;" d="
			M63.9121,134.7239c-0.8662-3.3203-0.9463-9.6133-0.8398-11.4053c0.1191-2.0107-0.6592-5.8994-4.9434-4.7451
			c-2.9648,0.8008-3.247,2.8769-2.8007,5.9414c0.4296,2.9521,1.2021,10.209,2.4677,13.2998
			c0.6543-0.0225,1.6338-0.1768,3.0059-0.6875C62.6416,136.4426,63.5166,135.3967,63.9121,134.7239z"/>
		<path style="fill:#CE8452;stroke:#6B4429;stroke-width:0.7213;stroke-miterlimit:10;" d="M62.8194,141.5305
			c2.6797-0.9961,2.6406-2.9492,1.4453-5.7343c-0.1309-0.3028-0.2471-0.6661-0.3526-1.0723
			c-0.3955,0.6728-1.2705,1.7187-3.1103,2.4033c-1.3721,0.5107-2.3516,0.665-3.0059,0.6875
			c0.0479,0.1172,0.0957,0.2295,0.1455,0.334C59.293,141.0169,60.1407,142.5266,62.8194,141.5305z"/>
		
			<path style="fill:#FFA96A;stroke:#6B4429;stroke-width:0.7213;stroke-linecap:round;stroke-linejoin:round;stroke-miterlimit:10;" d="
			M52.6934,143.0891c-1.2861-2.3945-2.4199-7.3955-2.6348-8.8574c-0.2412-1.6406-1.5508-4.5156-4.9355-2.3281
			c-2.3428,1.5127-2.2256,3.2539-1.334,5.5683c0.8594,2.2305,2.7353,7.795,4.3164,9.8887c0.5439-0.2109,1.3359-0.623,2.3955-1.4355
			C51.9229,144.8352,52.4776,143.7424,52.6934,143.0891z"/>
		<path style="fill:#CE8452;stroke:#6B4429;stroke-width:0.7213;stroke-miterlimit:10;" d="M52.9336,148.845
			c2.0703-1.586,1.708-3.1328,0.2354-5.0039c-0.1602-0.2032-0.3184-0.459-0.4756-0.752c-0.2158,0.6533-0.7705,1.7461-2.1924,2.836
			c-1.0596,0.8125-1.8516,1.2246-2.3955,1.4355c0.0596,0.0801,0.1201,0.1563,0.1787,0.2246
			C49.8994,149.4758,50.8643,150.4319,52.9336,148.845z"/>
		
			<path style="fill:#FFA96A;stroke:#6B4429;stroke-width:0.7213;stroke-linecap:round;stroke-linejoin:round;stroke-miterlimit:10;" d="
			M58.5752,139.4133c-1.3164-3.1015-2.7129-10.9785-2.8584-12.7666c-0.1631-2.0068-1.4726-5.6865-5.5351-3.6943
			c-2.8125,1.3779-2.8008,3.4814-1.9346,6.4141c0.8359,2.8261,3.0498,11.5146,4.7275,14.3105c0.6426-0.1523,1.587-0.5,2.8682-1.2754
			C57.5616,141.3606,58.2793,140.1545,58.5752,139.4133z"/>
		<path style="fill:#CE8452;stroke:#6B4429;stroke-width:0.7213;stroke-miterlimit:10;" d="M58.4463,146.3411
			c2.5029-1.5157,2.1934-3.4326,0.626-5.9414c-0.1709-0.2715-0.3369-0.6075-0.4971-0.9864
			c-0.2959,0.7412-1.0136,1.9473-2.7324,2.9883c-1.2812,0.7754-2.2256,1.1231-2.8682,1.2754
			c0.0635,0.1055,0.127,0.207,0.1905,0.3008C54.8975,146.5364,55.9444,147.8577,58.4463,146.3411z"/>
		<path style="fill:#CE8452;" d="M67.0381,151.1301c0,0-1.7344-1.206-1.7939-2.5722c-0.0606-1.3653-1.92,1.0644-3.501,0.2226
			c-1.582-0.8398-3.0899-3.3613-3.0899-3.3613s7.7032-3.1934,10.4366-0.3545c2.7343,2.8389,3.0166,3.9199,3.0166,3.9199
			l-4.1758,1.8135L67.0381,151.1301z"/>
		
			<path style="fill:#FFA96A;stroke:#6B4429;stroke-width:0.7213;stroke-linecap:round;stroke-linejoin:round;stroke-miterlimit:10;" d="
			M68.7949,162.2004c0,0,5.8731-0.9209,7.6729-6.6464c1.7988-5.7256,2.3457-10.8438,0.8945-13.2539
			c-1.4511-2.4102-8.332-4.9063-10.4277-4.8282c-2.0957,0.0772-4.0869,2.3633-5.4473,3.0098
			c-1.3593,0.6455-5.0146,0.6016-5.7461,1.8564c-0.7304,1.2549,1.6016,6.1456,4.8028,5.7979
			c3.2011-0.3486,3.9463-2.4512,6.5234-1.584c0.584,0.1953,1.1006,0.4121,1.5508,0.6309c1.5371,0.7422,2.2959,1.498,2.2959,1.498
			s-1.6543-1.9629-2.8692-0.2461c-1.2148,1.7158-2.5361,4.3145-2.4453,7.3701"/>
		
			<path style="fill:#E8AD85;stroke:#7C5337;stroke-width:0.7213;stroke-linecap:round;stroke-linejoin:round;stroke-miterlimit:10;" d="
			M59.8828,142.4231c0.502,0.6231,0.7598,1.2559,0.6993,1.9063c0,0-2.5196,1.3808-3.9043-0.7129"/>
		
			<path style="fill:#FFA96A;stroke:#6B4429;stroke-width:0.7213;stroke-linecap:round;stroke-linejoin:round;stroke-miterlimit:10;" d="
			M73.2227,133.7278c0,0-2.3906-12.8516-3.2549-16.6406c-0.8652-3.7881-8.4365-20.3721-9.9531-22.8907
			c-1.5166-2.5185-2.5664,5.9707-0.584,11.6914c1.9824,5.7208,4.4746,14.336,4.4746,14.336s0.3057,5.2656,0.998,10.1201"/>
		<path style="fill:#CE8452;" d="M59.4307,105.8879c1.9824,5.7208,4.4736,14.336,4.4736,14.336s0.3067,5.2656,0.999,10.1201
			l0.9893,0.4023c0,0,0.3428-7.6308-0.4746-11.0429c-0.8184-3.4121-3.8564-11.3916-4.6836-14.4385
			c-0.8262-3.0479-1.083-6.3145-1.083-6.3145l-0.8193-2.5312C57.7803,97.7942,58.3741,102.8381,59.4307,105.8879z"/>
	</g>
	<path style="fill:#CE8452;" d="M57.5586,163.2903c6.1358,5.2959,17.459,45.3017,23.8848,51.4707
		c-5.6729-10.4365-13.3252-34.7637-14.544-35.8574c-1.4091-1.2637-1.3535-1.7295-2.2753-6.1475
		c-0.9229-4.418-2.9922-9.3965-4.336-12.8623c-1.1719-3.0215-3.4814-4.2676-10.7695-10.459
		C51.6944,155.1926,55.0752,161.1477,57.5586,163.2903z"/>
	<g>
		
			<path style="fill:#E1E9F5;stroke:#7788A1;stroke-width:0.4984;stroke-linecap:round;stroke-linejoin:round;stroke-miterlimit:10;" d="
			M76.2774,159.6614c2.542,1,3.6562,7.2988,3.6562,7.2988s-5.0976,10.7656-14.3359,11.6758
			c-2.292-0.9766-3.8633-8.8203-3.8633-8.8203C64.2227,169.9544,73.9746,167.3059,76.2774,159.6614z"/>
		<g>
			<path style="fill:#EDF2F9;" d="M78.0616,169.2249c1.1884-1.3194,1.872-2.2647,1.872-2.2647s-1.0928-6.2353-3.6162-7.2812
				l-0.0644,0.0537c-0.337,1.0908-0.8282,2.0517-1.4268,2.8984C77.1651,164.6194,78.2862,166.1624,78.0616,169.2249z"/>
			<path style="fill:#C7D7EE;" d="M61.751,169.9631c0,0,1.5566,7.7168,3.8467,8.6729c0.7021-0.0693,1.3799-0.2168,2.0371-0.417
				c-1.3174-0.9717-1.3848-1.5947-2.7188-5.5908c-0.3261-0.9785-0.7695-1.8233-1.082-2.8653
				C62.9522,169.928,62.2237,169.9885,61.751,169.9631z"/>
		</g>
	</g>
	<g>
		
			<path style="fill:#619BBC;stroke:#2F4A56;stroke-width:0.7213;stroke-linecap:round;stroke-linejoin:round;stroke-miterlimit:10;" d="
			M126.3692,130.5266c-0.7871-0.3086-1.2744-0.873-1.5196-1.5137c-0.2021-0.1279-0.3896-0.2792-0.5547-0.4492
			c-4.5205,6.7588-8.6142,15.5176-11.5849,22.7071c-1.9883,4.8134-13.0859,30.7871-15.3887,37.3955
			c-3.3769-6.6084-18.2734-29.8682-18.2734-29.8682c0,7.1641-16.9629,15.4492-16.9629,15.4492s11.3418,33.0293,21.9629,45.3242
			c8.041,9.3067,14.8086,7.9307,22.6367,3.1719c5.8857-3.5771,32.6689-43.8818,34.6279-53.833
			c0.7696-3.9072,0.9756-13.1201,0.4619-22.6162C138.6885,139.3938,134.0381,133.5305,126.3692,130.5266z"/>
		<path style="fill:#95B9FF;" d="M124.8438,128.9954c-0.0811-0.0518-0.166-0.0977-0.2422-0.1563
			c-4.6426,6.8164-8.8545,15.8096-11.8916,23.1602c-1.9883,4.8135-13.0859,30.7871-15.3887,37.3965
			c-3.3769-6.6094-18.2734-29.8692-18.2734-29.8692c0,0.9863-0.3301,1.9942-0.8848,2.9981c0.1094,0.3925,0.1826,0.8183,0.2119,1.289
			c0.2383,3.8721,6.5899,10.5244,10.5049,17.4317c3.9141,6.9082,6.4463,8.2216,8.0586,12.2851
			c1.6113,4.0625,2.5313,4.9834,2.0713,7.0557c0,0,1.3896-5.0713,0.3496-7.2549c-1.04-2.1855,1.0322-5.1777,4.7158-12.5469
			c3.6836-7.3672,13.3535-35.8252,16.8076-40.2461c2.1387-2.7363,3.4248-6.6543,5.2012-10.1582
			C125.4619,130.054,125.0547,129.5579,124.8438,128.9954z"/>
		<path style="opacity:0.4;fill:#545454;" d="M84.0479,219.1106c8.041,9.3076,14.8086,7.9316,22.6367,3.1729
			c5.8857-3.5772,32.6689-43.4219,34.6279-53.3731c0.2569-1.3086,0.4512-3.2158,0.5772-5.5264
			c-1.9229,1.7891-3.5196,3.2452-4.4864,4.0694c-4.6611,3.9736-17.4414,29.8711-23.4277,38.6201
			c-5.9863,8.75-9.4394,12.2187-15.6562,15.9023c-6.2168,3.6846-9.4317-0.2304-14.4971-5.7558s-17.6045-40.5684-19.1846-41.9717
			c-0.3603-0.3193-0.6328-0.5947-0.8545-0.8848c-1.0439,0.5635-1.6982,0.8838-1.6982,0.8838S73.4268,206.8157,84.0479,219.1106z"/>
	</g>
	<path style="fill:#DEE0E2;stroke:#575A5B;stroke-width:0.7213;stroke-miterlimit:10;" d="M189.5987,107.7454L156.21,145.1301
		c0,0-5.167,91.5391-3.7705,101.7813c9.4717,5.8281,45.4111,6.3896,45.4111,6.3896l8.8711-124.79L189.5987,107.7454z"/>
	<path style="fill:#DEE0E2;stroke:#575A5B;stroke-width:0.7213;stroke-miterlimit:10;" d="M151.711,115.76l4.499,29.3701
		c0,0-5.167,91.5391-3.7705,101.7813c-15.3018,0-22.5869-10.2012-22.5869-10.2012s-7.6504-104.1914-2.1866-108.1992
		C133.1309,124.5032,151.711,115.76,151.711,115.76z"/>
	
		<path style="fill:#619BBC;stroke:#2F4A56;stroke-width:0.7213;stroke-linecap:round;stroke-linejoin:round;stroke-miterlimit:10;" d="
		M193.7276,108.9602c0.873,3.582,28.0517,20.8867,34.2207,27.25c1.1201,6.1553-6.1377,32.3027-7.751,43.7617
		c-0.5059,3.5957-8.9014,36.9434-11.29,56.7383c-3.4004,28.1738,9.2285,36.917,11.6582,52.9473
		c2.0576,13.583-38.8594,9.7148-38.8594,9.7148c-5.8291-34.4883-21.3731-35.4599-20.5811-43.0566
		c-1.9092-6.3301,6.4522-57.1514,8.9102-74.0508C172.4932,165.3645,187.6699,119.4329,193.7276,108.9602z"/>
	<path style="opacity:0.4;fill:#545454;" d="M192.2705,106.7737c0.8731,3.583,4.0078,4.1289,10.1768,10.4922
		c1.1191,6.1553-1.0381,18.4599-2.6514,29.9189c-0.5058,3.5957-11.8437,6.1953-11.8437,6.1953l10.6142,10.0899
		c-12.29,18.1289-33.7841,60.2656-36.2129,81.1523c-0.1904,1.6397-1.2646-0.6035-1.2285-2.1504
		c0.1533-6.6103,10.0948-59.3379,12.5537-76.2363C176.1367,149.3352,186.2129,117.2473,192.2705,106.7737z"/>
	
		<path style="fill:#619BBC;stroke:#2F4A56;stroke-width:0.7213;stroke-linecap:round;stroke-linejoin:round;stroke-miterlimit:10;" d="
		M190.085,102.4016c0.873,3.583,4.0068,4.1289,10.1758,10.4922c1.1201,6.1563-1.7657,22.1035-3.3789,33.5625
		c-0.5059,3.5957-11.8438,6.1953-11.8438,6.1953l10.6143,10.0899c-12.2901,18.1289-30.9258,59.1162-33.3545,80.0039
		c-0.1905,1.6386-0.3799-0.9131-0.4453-3.1875c-0.1875-6.6094,6.4531-57.1524,8.9111-74.0508
		C173.2217,148.6067,184.0264,112.8753,190.085,102.4016z"/>
	<path style="opacity:0.4;fill:#545454;" d="M129.4873,128.511c-4.3261,0.9609-4.7353,3.6426-4.3711,6.9219
		c0.3643,3.2793,1.4571,25.1367-1.457,39.709c-2.915,14.5722,1.8213,42.625-1.457,53.9179
		c-3.2793,11.294-6.9746,25.4346-6.9746,25.4346s6.6679,0.9521,9.8183,0.251c4.3604-0.9688,3.8321-7.3692,9.2744-12.5996
		c6.3487-6.0996,7.8194-28.3614,9.6416-44.3907c1.8213-16.0293,5.5625-78.7168,5.5625-78.7168S136.0459,127.054,129.4873,128.511z"
		/>
	
		<path style="fill:#619BBC;stroke:#2F4A56;stroke-width:0.7213;stroke-linecap:round;stroke-linejoin:round;stroke-miterlimit:10;" d="
		M127.3018,127.054c-4.3262,0.9609-4.7363,3.6425-4.3711,6.9218c0.3642,3.2784,1.457,25.1368-1.457,39.709
		c-2.9151,14.5723,1.8212,42.625-1.458,53.918c-3.2784,11.2939-4.9561,26.9844-4.9561,26.9844s4.6504-0.5977,7.8008-1.2989
		c4.3594-0.9687,3.831-7.3691,9.2744-12.5996c6.3486-6.0996,6.4609-27.2939,8.2822-43.3242
		c1.8223-16.0293,6.9219-79.7832,6.9219-79.7832S133.8594,125.5969,127.3018,127.054z"/>
	<path style="opacity:0.4;fill:#545454;" d="M219.2422,287.3762c-3.3867-14.6386-15.3389-23.8593-11.9082-50.666
		c1.1621-9.0771,3.6631-21.0039,6.083-31.6055c-1.6484-22.7109-2.9804-40.8652-2.9804-40.8652
		c0.0527-7.7422-2.6485-15.957,0.3164-19.5723l-0.6163,0.2159c0,0-7.9423,12.3125-7.9423,29.3134
		c0.1377,8.3018,1.1718,53.6758-0.6309,71.8907c-1.8027,18.2148,10.8359,51.5673,15.4531,49.0605
		c0.2744-0.1484,0.5157-0.2461,0.7364-0.3506c0.4775-0.4209,0.8769-0.8779,1.1933-1.3681c0.1846-0.4717,0.3623-1.1153,0.5449-2.0323
		C219.4326,290.3704,219.3477,289.009,219.2422,287.3762z"/>
	
		<path style="fill:#619BBC;stroke:#2F4A56;stroke-width:0.7213;stroke-linecap:round;stroke-linejoin:round;stroke-miterlimit:10;" d="
		M150.253,112.1165c0,0-17.1221,21.8593-16.0293,25.1377l8.3789,7.2861l-13.2119,6.7754c-0.4541,0.206-0.8809,1.0156-0.5079,1.8574
		c2.8155,6.3457,11.6143,36.2871,6.7979,72.2441c0,0,6.9219-19.6728,8.7441-44.082
		C146.2461,156.927,146.6104,119.7669,150.253,112.1165z"/>
	<g>
		<path style="opacity:0.4;fill:#545454;" d="M145.4883,161.7376l-36.6094,13.83c-2.0039,0.7569-2.9248,3.0713-1.9892,4.9981
			l29.1094,59.9707c0.8222,1.6933,2.7968,2.4814,4.5585,1.8193l31.5733-11.8642c1.8984-0.7139,2.8496-2.8409,2.1142-4.7305
			l-24.0742-61.9356C149.4473,161.9622,147.3584,161.0305,145.4883,161.7376z"/>
		<path style="fill:#9DB2AA;stroke:#6F7B7F;stroke-width:0.7213;stroke-miterlimit:10;" d="M145.7959,159.6858l-36.6093,13.8301
			c-2.004,0.7568-2.9249,3.0713-1.9893,4.999l29.1094,59.9707c0.8213,1.6924,2.7978,2.4805,4.5586,1.8184l31.5742-11.8653
			c1.8984-0.7129,2.8486-2.8398,2.1142-4.7285l-24.0742-61.9365C149.7549,159.9114,147.6651,158.9797,145.7959,159.6858z"/>
		<g style="opacity:0.4;">
			<path style="fill:#545454;" d="M185.6026,215.7278c0,0-4.3711,0.9726-8.0147,1.2148c-3.6435,0.2422-8.418-2.1582-14.4892-1.916
				c-6.0723,0.2432-6.1543-4.3984-8.8262-12.414c-2.6719-8.0147-0.8506-15.1797,4.7363-15.6651
				c5.586-0.4853,10.3223-0.6064,17.1221,5.4639c6.7998,6.0732,10.9287,5.5869,10.9287,5.5869L185.6026,215.7278z"/>
			<path style="fill:#545454;" d="M163.2588,187.0696c-4.6396-0.0615-19.0801-1.3047-20.7842,0.6933
				c-1.705,2-9.5966,6.959-13.249,10.6583c-1.9453,1.9697,4.7783,3.0117,7.6035,1.8789c2.8242-1.1319,7.4112-4.7461,9.9092-5.1836
				c2.4971-0.4366,9.79-0.0606,9.79-0.0606"/>
			<path style="fill:#545454;" d="M157.1231,194.1907c-5.7764,1.1543-13.6631,3.0176-14.6338,4.6426
				c-1.3486,2.2558-8.3037,8.4609-11.2891,12.7148c-1.5908,2.2676,5.2139,2.1758,7.8106,0.5879
				c2.5957-1.5859,6.5166-5.9141,8.9062-6.7607c1.6524-0.586,5.6299-1.17,7.9278-1.4747"/>
			<path style="fill:#545454;" d="M158.4717,199.1536c-5.1973,1.4726-11.331,3.5302-12.0898,5.0371
				c-1.1172,2.2187-7.4151,9.914-9.9395,14.1308c-1.3447,2.2461,5.0654,1.6944,7.4063,0.0205
				c2.3398-1.6748,5.9043-7.3906,8.0996-8.3535c1.0976-0.4814,5.4619-1.5068,7.4316-1.9502"/>
			<path style="fill:#545454;" d="M159.6651,207.9514c-4.3243,1.3994-9.0137,3.1944-9.6035,4.4522
				c-0.9317,1.9922-6.3155,8.9629-8.4454,12.7597c-1.1338,2.0225,4.5284,1.3731,6.5586-0.1679
				c2.0293-1.541,5.041-6.6914,6.961-7.5987c1.9209-0.9072,7.8925-2.2197,7.8925-2.2197"/>
			<path style="fill:#545454;" d="M178.8662,194.7766c-3.8828-2.2929-2.249-11.1074-5.8925-13.5361
				c-3.6426-2.4287-6.5577-1.458-13.1153-10.2002c-4.9453-6.5957-6.5576,5.3418-1.2148,10.6855
				c2.6221,2.6211,5.8291,5.3438,5.8291,5.3438"/>
		</g>
		<path style="fill:#619BBC;stroke:#2F4A56;stroke-width:0.7213;stroke-miterlimit:10;" d="M228.083,136.4329
			c0,0,11.667,80.4209,11.251,88.3379c-0.417,7.9179-18.334,6.0449-18.334,6.0449s-9.584,2.292-11.2509-4.375
			c-1.6661-6.668-4.167-64.1729-4.167-64.1729c0.0791-12.4492,9.6103-21.0283,9.6103-21.0283"/>
		<path style="opacity:0.4;fill:#545454;" d="M182.8594,226.6438c-4.8086-4.9951-5.3135-10.1103-4.8213-15.0361
			c0.4922-4.9258,2.8711-17.8672,6.4629-17.0283c2.4229-0.1426,19.9531,2.0214,25.9785,2.3769
			c0.7207,0.041,1.4131,0.1191,2.0928,0.2129c-2.0635,10.8857-3.4248,20.6475-3.2705,26.3066
			c0.0791,2.959,0.1855,5.877,0.3086,11.5762C205.4326,235.052,183.5479,227.3596,182.8594,226.6438z"/>
		
			<path style="fill:#273F49;stroke:#2F4A56;stroke-width:0.7213;stroke-linecap:round;stroke-linejoin:round;stroke-miterlimit:10;" d="
			M180.2334,208.7014c0.4922-4.9258,1.9844-15.6885,5.5762-14.8486c6.5098,2.3994,7.248,12.0762,7.0508,18.5322
			c-0.3028,9.9014-3.0117,10.6377-6.8985,11.5303c-0.8496,0.1953-2.0185-0.8711-2.707-1.5859
			C178.4463,217.3342,179.7412,213.6262,180.2334,208.7014z"/>
		<g>
			
				<path style="fill:#FFA96A;stroke:#6B4429;stroke-width:0.7213;stroke-linecap:round;stroke-linejoin:round;stroke-miterlimit:10;" d="
				M184.8741,214.2708c0,0-4.3721,0.9726-8.0147,1.2148c-3.6436,0.2422-8.418-2.1582-14.4902-1.916
				c-6.0713,0.2422-6.1534-4.3984-8.8252-12.4141c-2.6719-8.0146-0.8506-15.1797,4.7353-15.665
				c5.5869-0.4854,10.3223-0.6074,17.1231,5.4639c6.7998,6.0722,10.9287,5.5869,10.9287,5.5869L184.8741,214.2708z"/>
			
				<path style="fill:#FFA96A;stroke:#6B4429;stroke-width:0.7213;stroke-linecap:round;stroke-linejoin:round;stroke-miterlimit:10;" d="
				M162.5303,185.6126c-4.6396-0.0616-19.0801-1.3057-20.7852,0.6933c-1.7041,1.999-9.5957,6.959-13.248,10.6572
				c-1.9453,1.9698,4.7783,3.0127,7.6035,1.8799c2.8242-1.1318,7.4111-4.7461,9.9082-5.1836
				c2.4981-0.4365,9.7901-0.0605,9.7901-0.0605"/>
			
				<path style="fill:#FFA96A;stroke:#6B4429;stroke-width:0.7213;stroke-linecap:round;stroke-linejoin:round;stroke-miterlimit:10;" d="
				M156.3955,192.7337c-5.7773,1.1542-13.664,3.0175-14.6347,4.6425c-1.3487,2.2559-8.3037,8.46-11.2891,12.7149
				c-1.5908,2.2676,5.2139,2.1758,7.8106,0.5879c2.5957-1.587,6.5166-5.9141,8.9062-6.7618
				c1.6523-0.5849,5.6299-1.1699,7.9277-1.4736"/>
			
				<path style="fill:#FFA96A;stroke:#6B4429;stroke-width:0.7213;stroke-linecap:round;stroke-linejoin:round;stroke-miterlimit:10;" d="
				M157.7432,197.6965c-5.1973,1.4727-11.3311,3.5303-12.0899,5.0372c-1.1171,2.2187-7.415,9.914-9.9394,14.1308
				c-1.3447,2.2461,5.0654,1.6943,7.4053,0.0205c2.3408-1.6748,5.9052-7.3906,8.1006-8.3535
				c1.0976-0.4814,5.4619-1.5068,7.4316-1.9502"/>
			
				<path style="fill:#FFA96A;stroke:#6B4429;stroke-width:0.7213;stroke-linecap:round;stroke-linejoin:round;stroke-miterlimit:10;" d="
				M158.9366,206.4944c-4.3243,1.3994-9.0137,3.1943-9.6036,4.4521c-0.9326,1.9922-6.3154,8.9629-8.4453,12.7598
				c-1.1338,2.0225,4.5283,1.3731,6.5586-0.168c2.0293-1.541,5.042-6.6914,6.961-7.5996c1.9209-0.9062,7.8925-2.2187,7.8925-2.2187"
				/>
			
				<path style="fill:#FFA96A;stroke:#6B4429;stroke-width:0.6599;stroke-linecap:round;stroke-linejoin:round;stroke-miterlimit:10;" d="
				M178.1377,193.3186c-3.5527-2.0967-2.5029-9.0498-5.8359-11.2724c-3.333-2.2217-5.5547-2.4434-11.5537-10.4434
				c-4.5244-6.0332-5.999,4.8887-1.1104,9.7773c2.3975,2.3985,3.875,4.8877,3.875,4.8877"/>
		</g>
		<path style="fill:#DEE0E2;stroke:#575A5B;stroke-width:0.7213;stroke-miterlimit:10;" d="M208.9102,197.4446
			c0,0-18.9717-1.9414-21.4346-1.2022c-2.4629,0.7393-4.6982-0.5127-4.6982-0.5127s2.9726,3.7901,1.6572,11.2696
			c-0.8926,5.0722-2.5342,7.8594-5.4902,8.3515c-2.9541,0.4932,0.3242,1.4883,2.7871,2.7198
			c2.4629,1.2314,28.2871,6.8545,35.5517,5.623C224.5489,222.4622,208.9102,197.4446,208.9102,197.4446z"/>
		
			<path style="fill:#619BBC;stroke:#2F4A56;stroke-width:0.7213;stroke-linecap:round;stroke-linejoin:round;stroke-miterlimit:10;" d="
			M237.25,228.5208c0,0-2.917,4.5839-7.5,5.8339c-4.5117,1.2305-36.1006-4.5058-43.7881-10.4394
			c3.8868-0.8926,6.5957-2.3574,6.8985-12.2588c0.1972-6.4561-0.541-15.4043-7.0508-17.8037
			c2.4228-0.1436,20.8301,2.0195,26.8555,2.374c14.1679,0.833,20.4189,12.501,20.4189,12.501"/>
		<path style="fill:#95B9FF;" d="M224.4405,140.0764l3.6425-3.6435c0,0,11.667,80.4209,11.251,88.3379
			c-0.126,2.4013-1.8672,4.3027-4.2256,5.7871c0.335-0.6651,0.2207-1.4678,0.583-2.1436
			C239.503,221.2805,225.6338,140.3518,224.4405,140.0764z"/>
		
			<path style="fill:#619BBC;stroke:#2F4A56;stroke-width:0.7213;stroke-linecap:round;stroke-linejoin:round;stroke-miterlimit:10;" d="
			M185.8096,193.8528"/>
		<path style="fill:#95B9FF;" d="M216.3496,198.8801c-5.9326-1.1855-25.998-3.7597-28.5009-3.8808
			c-0.4961-0.3887-1.0391-0.7178-1.6329-0.9766l-0.0439-0.1904c2.4385-0.124,20.7578,2.0576,26.4932,2.3945
			c14.1679,0.833,20.4189,12.501,20.4189,12.501c0.2354-0.2793,1.292,1.3125,1.6006,3.7832
			c0.1514,1.2129-1.3115-1.4668-1.3115-1.4668S224.4287,200.4973,216.3496,198.8801z"/>
	</g>
	<g>
		<path style="fill:#FFA96A;stroke:#6B4429;stroke-width:0.7213;stroke-miterlimit:10;" d="M188.4073,75.8333
			c0,0-3.545,34.0976-0.7549,40.206c-0.0576,2.6358-28.7588,20.4834-32.1367,28.7705c-4.0635-9.2734-2.5674-15.0234-2.5674-19.1875
			l0.4853-29.6308L188.4073,75.8333z"/>
		<path style="fill:#CE8452;" d="M188.4073,75.8333c0.4628-3.9121-34.9737,20.1582-34.9737,20.1582l-0.1064,6.5254
			c2.2148,2.2636,13.0654,4.1259,15.0996,4.2578c5.7539,0.3711,7.1006-2.9893,11.2139-8.7442
			C184.9834,90.5559,188.4073,75.8333,188.4073,75.8333"/>
		
			<path style="fill:#C6C6C6;stroke:#575A5B;stroke-width:0.7213;stroke-linecap:round;stroke-linejoin:round;stroke-miterlimit:10;" d="
			M169.4658,127.054c-7.5546,6.1455-13.9902,19.1865-13.9902,19.1865c8.7432-10.4434,21.9639-13.6738,21.9639-13.6738
			S177.0196,120.9075,169.4658,127.054z"/>
		<g>
			<path style="fill:#FFA96A;stroke:#6B4429;stroke-width:0.7213;stroke-miterlimit:10;" d="M170.5948,7.4026
				c-9.7608-0.501-29.1622,9.5068-28.9668,21.8232c0.1953,12.3145,2.0976,25.5362,2.0976,25.5362s-3.875,7.1435-3.6797,11.249
				c0.1963,4.1055,1.1836,25.2715,4.1602,32.0947c1.918,4.4004,23.2754,7.6963,26.5849,5.669
				c1.6407-1.0059,13.6836-15.0528,16.6163-25.4121c2.9316-10.3614,10.3593-40.4649,5.8632-50.8262
				C188.7744,17.177,185.8428,8.1848,170.5948,7.4026z"/>
			<path style="fill:#FCBD92;" d="M143.9385,44.8665c-0.8818-4.9649,0.8984-6.6524,0.835-10.711
				c-0.0713-4.4824-2.4346-6.626,1.1142-10.9316c5.7852-7.0195,18.7686-14.9815,25.5293-15.7637
				c-0.2724-0.0205-0.541-0.043-0.8222-0.0576c-9.7608-0.501-29.1622,9.5068-28.9668,21.8232
				c0.1953,12.3145,2.0976,25.5362,2.0976,25.5362S144.3809,47.3587,143.9385,44.8665z"/>
			<path style="fill:#FCBD92;" d="M145.8877,96.759c-2.9756-6.8242-3.4599-26.6425-3.6553-30.748
				c-0.1962-4.1055,1.4932-11.249,1.4932-11.249s-3.875,7.1435-3.6797,11.249c0.1963,4.1055,1.1836,25.2715,4.1602,32.0947
				c0.7392,1.6973,4.3701,3.2295,8.7402,4.3555C158.6895,103.9407,147.4268,100.2903,145.8877,96.759z"/>
			<path style="fill:#CE8452;" d="M168.6045,103.7747c-0.3545,0.2177-0.9277,0.3711-1.6543,0.4707
				c1.8047,0.0664,3.1875-0.0703,3.8408-0.4707c1.6407-1.0059,13.6836-15.0528,16.6163-25.4121
				c0.2402-0.8516,0.5107-1.836,0.8037-2.9307C181.9893,89.6008,170.2461,102.7688,168.6045,103.7747z"/>
			<path style="opacity:0.4;fill:#3F4142;" d="M158.4795,20.6399c4.9815-2.6816,11.6094-4.4727,19.3047-2.5332
				c7.6963,1.9365,17.292,13.7256,3.2109,26.5996c0,0-0.2841-0.9394,0.2344-2.7226c0.5176-1.7842,7.6328-18.7266-5.3887-20.3887
				C162.8213,19.9338,158.4795,20.6399,158.4795,20.6399z"/>
			<path style="fill:#564F4C;stroke:#473F3D;stroke-width:0.7213;stroke-miterlimit:10;" d="M167.3877,40.0833
				c-0.8164-1.7959,5.7559-2.2266,7.2403-2.042c1.4853,0.1865,1.6709,2.042,3.8984,2.4131c2.2285,0.372,2.5996,1.8574,2.043,2.414
				c-0.5577,0.5567-4.2705,0.1856-6.6846-1.4853C171.4717,39.7122,168.3155,42.1262,167.3877,40.0833z"/>
			<path style="fill:#CE8452;" d="M148.6856,71.5501c-0.0127,1.1757,0.2558,4.4668,4.5498,5.0058
				c2.6269,0.3291,4.707-0.7207,6.0801-1.7783"/>
			
				<path style="fill:#FFA96A;stroke:#6B4429;stroke-width:0.7213;stroke-linecap:round;stroke-linejoin:round;stroke-miterlimit:10;" d="
				M158.7539,51.5208c-0.3789,2.7168-1.9902,8.375-5.8095,12.0644c-3.8194,3.6875-6.8135,6.9824-3.6983,9.5117
				c3.1123,2.5293,5.8096,2.4453,8.4014,1.8194c1.8584-0.4493,2.3017-0.8477,2.3017-0.8477"/>
			<path style="fill:#CE8452;" d="M162.4199,92.8352c-2.0634-1.0937-6.5576-3.4004-10.5654-1.5791"/>
			
				<path style="fill:#564F4C;stroke:#473F3D;stroke-width:0.7213;stroke-linecap:round;stroke-linejoin:round;stroke-miterlimit:10;" d="
				M145.9053,18.0735c0,0-4.0312,6.3672-5.8525,7.2744s-2.6241,3.7217-0.7412,8.2002c2.3017,5.4785,4.414,21.2139,4.414,21.2139
				c0.0332-0.9278,0.1856-4.0791-0.0293-4.8828c-0.9717-3.6436-1.6201-9.3233-0.6074-13.6592
				c1.0879-4.6592-1.9434-4.7969-0.4863-10.4444C143.8662,20.8821,148.0293,19.0462,145.9053,18.0735z"/>
			<path style="fill:#564F4C;stroke:#473F3D;stroke-width:0.7213;stroke-miterlimit:10;" d="M204.542,32.0725
				c0.7959,5.4014-1.6504,16.5127-4.5,20.4463c-2.8496,3.9336-7.3828,13.6953-7.3828,13.6953s-2.9141,3.1621-2.8174-0.6074
				c0.3643-14.1621-1.4033-19.0342-2.5068-24.1426c-1.0088-4.6767,4.5683-6.8867,3.0195-12.5078
				C189.0098,24.0852,204.0186,28.5247,204.542,32.0725z"/>
			
				<path style="fill:#564F4C;stroke:#473F3D;stroke-width:0.7213;stroke-linecap:round;stroke-linejoin:round;stroke-miterlimit:10;" d="
				M187.7403,21.0178c-1.0147-1.3379,7.0791-6.3799,9.5088-6.414c2.4296-0.0342,8.0878,12.4775,8.0888,17.0009
				c0.0049,11.6973-6.8096,15.5879-10.1533,11.6973C190.2705,37.5813,188.7569,22.3557,187.7403,21.0178z"/>
			
				<path style="fill:#564F4C;stroke:#473F3D;stroke-width:0.7459;stroke-linecap:round;stroke-linejoin:round;stroke-miterlimit:10;" d="
				M142.3408,23.7883c0,0-0.9287-13.9755,9.7237-19.1035c10.6543-5.1289,19.7148-6.5644,32.917,0.625
				c13.1992,7.1914,12.2783,5.9004,12.7597,8.0762c0.4825,2.1738-7.6816,6.001-11.1386,4.7383
				c-3.4541-1.2627-13.3164-4.4014-23.7383-0.7051C152.4405,21.1145,145.7364,26.9212,142.3408,23.7883z"/>
			<path style="fill:#726A67;" d="M154.8594,20.5891c2.293-1.1289,4.8682-2.3262,7.749-3.3476
				c2.5147-0.8926,4.9942-1.3125,7.3555-1.4239c0.0185-0.0234,0.0342-0.0429,0.0508-0.0654c5.6426-7.46,16.165-7.5049,23.624-5.8769
				c-1.3174-1.0069-3.3789-1.6192-7.041-3.667C176.3916,6.886,157.5625,9.2337,154.8594,20.5891z"/>
			<path style="fill:#726A67;" d="M151.2285,22.0588c0,0-2.7128-10.0019,7.9248-14.6992c6.3086-2.7851,14.959-4.0254,22.503-3.7168
				c-1.2373-0.5654-2.4385-1.0547-3.6084-1.4658c-11.7363-0.2246-23.5117,2.1152-27.0137,5.9297
				c-5.1689,5.6299-4.1973,12.998-3.0703,15.7852c0.9951-0.3897,2.085-0.9043,3.2734-1.4922
				C151.2315,22.1848,151.2285,22.0588,151.2285,22.0588z"/>
			<path style="fill:#564F4C;" d="M151.2285,22.0588c0,0,0.003,0.126,0.0088,0.3409c1.1192-0.5537,2.3243-1.1709,3.6221-1.8106
				c2.7031-11.3554,21.5322-13.7031,31.7383-14.3808c-0.7608-0.4258-0.7227-0.4102-1.6162-0.8985
				c-1.1387-0.6191-2.2461-1.1709-3.3252-1.667c-7.544-0.3086-16.1944,0.9317-22.503,3.7168
				C148.5157,12.0569,151.2285,22.0588,151.2285,22.0588z"/>
			
				<path style="fill:#726A67;stroke:#473F3D;stroke-width:0.7213;stroke-linecap:round;stroke-linejoin:round;stroke-miterlimit:10;" d="
				M158.9463,20.3352c4.9834-2.6826,11.2676-5.6191,18.9639-3.6816c7.6943,1.9375,17.29,13.7275,3.2099,26.6006
				c0,0-0.2851-0.9385,0.2334-2.7227c0.5176-1.7842,7.7579-20.1787-5.2636-21.8398
				C163.0694,17.0305,158.9463,20.3352,158.9463,20.3352z"/>
			
				<path style="fill:#564F4C;stroke:#473F3D;stroke-width:0.7213;stroke-linecap:round;stroke-linejoin:round;stroke-miterlimit:10;" d="
				M156.7071,20.8743c0,0,10.3173-7.3457,22.6435-6.1084c12.3252,1.2363,15.7031,6.6435,14.9121,15.8994
				c-0.791,9.2568-7.9726,14.1279-7.9726,14.1279s6.2402-17.3838-1.083-23.6767C177.8838,14.8235,162.9912,17.9378,156.7071,20.8743
				z"/>
			<path style="fill:#564F4C;stroke:#473F3D;stroke-width:0.7213;stroke-miterlimit:10;" d="M158.6084,39.6887
				c0,0-1.3467-2.6074-6.7343-2.9297c-5.3868-0.3222-6.9747,4.7149-6.9747,4.7149s0.8741,0.4863,2.4414-0.0586
				c1.5694-0.5469,6.2247-1.8164,8.0186-1.2109C157.1524,40.8118,158.6084,39.6887,158.6084,39.6887z"/>
			
				<path style="fill:#FFA96A;stroke:#6B4429;stroke-width:0.6478;stroke-linecap:round;stroke-linejoin:round;stroke-miterlimit:10;" d="
				M146.7324,81.8792c2.4288,2.1865,12.3575,5.5859,20.2647,0.4853"/>
			<path style="fill:#FFA96A;stroke:#6B4429;stroke-width:0.5337;stroke-miterlimit:10;" d="M189.5635,59.9456
				c0,0,5.2813-6.2979,8.5732-3.1104c3.293,3.1875-1.1044,16.2481-5.1513,19.6348c-4.0469,3.3857-5.1621-1.3106-5.1621-1.3106"/>
			<path style="fill:#FFA96A;stroke:#6B4429;stroke-width:0.5337;stroke-miterlimit:10;" d="M193.7324,62.2669
				c2.711-0.5762,1.3936,5.0312-0.7431,6.0683c-2.1367,1.0361-1.5772,3.9473-1.4834,5.1836"/>
		</g>
		
			<path style="fill:#DEE0E2;stroke:#575A5B;stroke-width:0.7213;stroke-linecap:round;stroke-linejoin:round;stroke-miterlimit:10;" d="
			M186.8057,99.2454c0,0,0.8496,1.1445-1.7002,5.7324c-2.5498,4.5889-15.5439,21.4687-15.5439,21.4687s-0.7286,1.0938,1.8222,1.2149
			c2.5498,0.1211,7.2852,6.6787,10.3213,9.4717c3.0361,2.792,7.7725,5.3037,10.0801,4.6552
			c2.3066-0.6474-3.2793-4.5341-3.0361-10.3632c0.2421-5.8282,0.121-13.9649,1.5781-18.7012
			C191.7852,107.9885,192.0264,99.4876,186.8057,99.2454z"/>
		
			<path style="fill:#C6C6C6;stroke:#575A5B;stroke-width:0.7213;stroke-linecap:round;stroke-linejoin:round;stroke-miterlimit:10;" d="
			M149.7442,126.8108c1.3349,3.2783,0.5088,8.2578,1.9668,11.5361c1.457,3.2793,3.7656,5.708,3.7646,7.8936
			c-0.001,2.1865,0.3633-7.9453-1.0937-11.6836c-1.4571-3.7383-0.9707-29.5791-0.9707-29.5791s-3.4004,6.1191-3.4004,10.333
			C150.0108,119.5247,148.4082,123.5325,149.7442,126.8108z"/>
		<path style="fill:#DEE0E2;stroke:#575A5B;stroke-width:0.7213;stroke-miterlimit:10;" d="M153.4112,104.9778
			c0,0-4.7364,9.3252-7.5293,11.7539c-2.793,2.4287-7.1641,20.6523-4.7364,27.2061c0,0,0.3643-5.7637,2.9151-9.3809
			c2.5498-3.6172,5.9502-8.5957,6.3135-11.0244C150.7393,121.1038,150.4961,112.6536,153.4112,104.9778z"/>
	</g>
	<g>
		<path style="fill:#452109;" d="M180.0401,56.9172c0,0,0.6367-5.2343-4.2764-5.6084c-4.9131-0.374-9.2695-1.1025-10.1064,4.168
			C165.2608,57.0823,174.251,58.7122,180.0401,56.9172z"/>
		<path style="fill:#FFFFFF;" d="M179.9073,58.0383c0,0,0.1464-4.7343-4.7666-5.1084c-4.9131-0.374-9.3145,0.1377-9.6963,3.3975
			C165.0479,57.9329,174.1182,59.8313,179.9073,58.0383z"/>
		<g>
			<defs>
				<path id="SVGID_1_" d="M179.9073,58.0383c0,0,0.1464-4.7343-4.7666-5.1084c-4.9131-0.374-9.3145,0.1377-9.6963,3.3975
					C165.0479,57.9329,174.1182,59.8313,179.9073,58.0383z"/>
			</defs>
			<clipPath id="SVGID_2_">
				<use xlink:href="#SVGID_1_"  style="overflow:visible;"/>
			</clipPath>
			
				<ellipse transform="matrix(0.1175 -0.9931 0.9931 0.1175 96.5895 220.5422)" style="clip-path:url(#SVGID_2_);fill:#A85715;" cx="172.3795" cy="55.9265" rx="3.9527" ry="3.9527"/>
			
				<ellipse transform="matrix(0.1173 -0.9931 0.9931 0.1173 96.6229 220.558)" style="clip-path:url(#SVGID_2_);fill:#3D1800;" cx="172.3795" cy="55.9268" rx="2.0021" ry="2.0026"/>
			
				<ellipse transform="matrix(0.1178 -0.993 0.993 0.1178 94.9915 217.7262)" style="clip-path:url(#SVGID_2_);fill:#FFFFFF;" cx="170.0394" cy="55.3987" rx="1.0198" ry="1.0193"/>
		</g>
		<path style="fill:#452109;" d="M143.8799,53.3606c0,0,0.2705-4.666,4.6162-4.2178c4.3457,0.4483,8.2617,0.501,8.1612,5.2315
			C156.7491,55.8372,148.6485,55.8401,143.8799,53.3606z"/>
		<path style="fill:#FFFFFF;" d="M143.8194,54.3596c0,0,0.6191-4.1533,4.9648-3.7041c4.3457,0.4483,8.1055,1.5899,7.9238,4.4942
			C156.8008,56.6126,148.5869,56.8391,143.8194,54.3596z"/>
		<g>
			<defs>
				<path id="SVGID_3_" d="M143.8194,54.3596c0,0,0.6191-4.1533,4.9648-3.7041c4.3457,0.4483,8.1055,1.5899,7.9238,4.4942
					C156.8008,56.6126,148.5869,56.8391,143.8194,54.3596z"/>
			</defs>
			<clipPath id="SVGID_4_">
				<use xlink:href="#SVGID_3_"  style="overflow:visible;"/>
			</clipPath>
			
				<ellipse transform="matrix(0.061 -0.9981 0.9981 0.061 87.9163 200.8676)" style="clip-path:url(#SVGID_4_);fill:#A85715;" cx="150.7203" cy="53.7058" rx="3.5046" ry="3.5041"/>
			
				<ellipse transform="matrix(0.0611 -0.9981 0.9981 0.0611 87.9068 200.8635)" style="clip-path:url(#SVGID_4_);fill:#3D1800;" cx="150.7203" cy="53.7058" rx="1.8144" ry="1.8144"/>
			
				<ellipse transform="matrix(0.0611 -0.9981 0.9981 0.0611 87.3478 197.1689)" style="clip-path:url(#SVGID_4_);fill:#FFFFFF;" cx="148.4734" cy="52.1572" rx="0.904" ry="0.904"/>
		</g>
	</g>
	
		<path style="fill:#619BBC;stroke:#2F4A56;stroke-width:0.7213;stroke-linecap:round;stroke-linejoin:round;stroke-miterlimit:10;" d="
		M220.5655,289.6575c-0.1182-0.7783-0.2666-1.5352-0.4297-2.2813c0.0996,1.6328,0.1797,2.9942,0.2343,4.0205
		c-0.1718,0.917-0.3388,1.5606-0.5127,2.0323C220.5117,292.3518,220.7842,291.1047,220.5655,289.6575z"/>
	<path style="opacity:0.4;fill:#545454;" d="M219.8574,293.429c-0.2988,0.4902-0.6757,0.9472-1.125,1.3681
		C219.1807,294.5725,219.5313,294.3088,219.8574,293.429z"/>
</g>
</svg>
