<?xml version="1.0" encoding="utf-8"?>
<!-- Generator: Adobe Illustrator 21.0.0, SVG Export Plug-In . SVG Version: 6.00 Build 0)  -->
<svg version="1.1" id="Capa_1" xmlns="http://www.w3.org/2000/svg" xmlns:xlink="http://www.w3.org/1999/xlink" x="0px" y="0px"
	 viewBox="0 0 454.1125 459.6431" style="enable-background:new 0 0 454.1125 459.6431;" xml:space="preserve">
<g>
	<g>
		<g>
			<g>
				<g>
					<rect x="10.6971" style="fill:#647882;" width="21.5145" height="101.3678"/>
					<path style="fill:#58595B;" d="M12.056,0h0.4892v101.3678H12.056V0L12.056,0z M30.3634,0h0.4881v101.3678h-0.4881V0z"/>
					<rect x="13.628" y="3.2368" style="fill:#E6E7E8;" width="15.6492" height="52.7349"/>
					<path style="fill:#A6A8AB;" d="M21.4537,96.2977c1.8516,0,3.3618-1.666,3.3618-3.7089s-1.509-3.7101-3.3617-3.7101
						c-1.8516,0-3.3618,1.6672-3.3618,3.7101C18.0932,94.6317,19.6022,96.2977,21.4537,96.2977z"/>
					<rect x="15.0935" y="44.2388" style="fill:#58595B;" width="12.7148" height="2.0224"/>
					<rect x="15.0935" y="48.083" style="fill:#58595B;" width="12.7148" height="2.0223"/>
					<rect x="15.0935" y="51.9248" style="fill:#58595B;" width="12.7148" height="2.0246"/>
					<path style="fill:#404041;" d="M21.4537,95.3146c1.3624,0,2.4715-1.2237,2.4715-2.727c0-1.5032-1.1103-2.7269-2.4715-2.7269
						c-1.3611,0-2.4714,1.2237-2.4714,2.7269C18.9823,94.0909,20.0926,95.3146,21.4537,95.3146z"/>
				</g>
				<g>
					<rect x="32.9139" style="fill:#647882;" width="21.5156" height="101.3678"/>
					<path style="fill:#58595B;" d="M34.2751,0h0.4904v101.3678h-0.4904V0L34.2751,0z M52.5825,0h0.4881v101.3678h-0.4881V0z"/>
					<rect x="35.8494" y="3.2368" style="fill:#E6E7E8;" width="15.6469" height="52.7349"/>
					<path style="fill:#A6A8AB;" d="M43.674,96.2977c1.8505,0,3.3618-1.666,3.3618-3.7089s-1.5102-3.7101-3.3618-3.7101
						s-3.3629,1.6672-3.3629,3.7101S41.8236,96.2977,43.674,96.2977z"/>
					<rect x="37.3149" y="44.2388" style="fill:#58595B;" width="12.7148" height="2.0224"/>
					<rect x="37.3149" y="48.083" style="fill:#58595B;" width="12.7148" height="2.0223"/>
					<rect x="37.3149" y="51.9248" style="fill:#58595B;" width="12.7148" height="2.0246"/>
					<path style="fill:#404041;" d="M43.674,95.3146c1.3624,0,2.4726-1.2237,2.4726-2.727c0-1.5032-1.1102-2.7269-2.4726-2.7269
						c-1.3612,0-2.4737,1.2237-2.4737,2.7269C41.2003,94.0909,42.3128,95.3146,43.674,95.3146z"/>
				</g>
				<g>
					<rect x="55.0964" style="fill:#647882;" width="21.5156" height="101.3678"/>
					<path style="fill:#58595B;" d="M56.4564,0h0.4881v101.3678h-0.4881V0L56.4564,0z M74.7627,0h0.4892v101.3678h-0.4892V0z"/>
					<rect x="58.0284" y="3.2368" style="fill:#E6E7E8;" width="15.6481" height="52.7349"/>
					<path style="fill:#A6A8AB;" d="M65.8542,96.2977c1.8516,0,3.3629-1.666,3.3629-3.7089s-1.5102-3.7101-3.3629-3.7101
						c-1.8516,0-3.364,1.6672-3.364,3.7101C62.4913,94.6317,64.0026,96.2977,65.8542,96.2977z"/>
					<rect x="59.4951" y="44.2388" style="fill:#58595B;" width="12.7136" height="2.0224"/>
					<rect x="59.4951" y="48.083" style="fill:#58595B;" width="12.7136" height="2.0223"/>
					<rect x="59.4951" y="51.9248" style="fill:#58595B;" width="12.7136" height="2.0246"/>
					<path style="fill:#404041;" d="M65.8542,95.3146c1.3612,0,2.4714-1.2237,2.4714-2.727c0-1.5032-1.1102-2.7269-2.4714-2.7269
						c-1.3612,0-2.4738,1.2237-2.4738,2.7269C63.3804,94.0909,64.493,95.3146,65.8542,95.3146z"/>
				</g>
				<g>
					<rect x="77.4679" style="fill:#647882;" width="21.5144" height="101.3678"/>
					<path style="fill:#58595B;" d="M78.8279,0h0.4881v101.3678h-0.4881V0L78.8279,0z M97.1342,0h0.4892v101.3678h-0.4892V0z"/>
					<rect x="80.4011" y="3.2368" style="fill:#E6E7E8;" width="15.6469" height="52.7349"/>
					<path style="fill:#A6A8AB;" d="M88.2268,96.2954c1.8505,0,3.3618-1.6637,3.3618-3.7066s-1.5102-3.7101-3.3618-3.7101
						s-3.3628,1.6672-3.3628,3.7101C84.8639,94.6317,86.3741,96.2954,88.2268,96.2954z"/>
					<rect x="81.8677" y="44.2388" style="fill:#58595B;" width="12.7137" height="2.0224"/>
					<rect x="81.8677" y="48.083" style="fill:#58595B;" width="12.7137" height="2.0223"/>
					<rect x="81.8677" y="51.9248" style="fill:#58595B;" width="12.7137" height="2.0234"/>
					<path style="fill:#404041;" d="M88.2268,95.3146c1.3612,0,2.4726-1.226,2.4726-2.727c0-1.5032-1.1125-2.7292-2.4726-2.7292
						c-1.3623,0-2.4726,1.226-2.4726,2.7292C85.7531,94.0886,86.8633,95.3146,88.2268,95.3146z"/>
				</g>
				<g>
					<rect x="99.687" style="fill:#647882;" width="21.5156" height="101.3678"/>
					<path style="fill:#58595B;" d="M101.0482,0h0.4893v101.3678h-0.4893V0L101.0482,0z M119.3556,0h0.4881v101.3678h-0.4881V0z"/>
					<rect x="102.6202" y="3.2368" style="fill:#E6E7E8;" width="15.648" height="52.7349"/>
					<path style="fill:#A6A8AB;" d="M110.4448,96.2954c1.8527,0,3.3629-1.6637,3.3629-3.7066s-1.509-3.7101-3.3629-3.7101
						c-1.8504,0-3.3617,1.6672-3.3617,3.7101C107.0842,94.6317,108.5944,96.2954,110.4448,96.2954z"/>
					<rect x="104.0857" y="44.2388" style="fill:#58595B;" width="12.7148" height="2.0224"/>
					<rect x="104.0857" y="48.083" style="fill:#58595B;" width="12.7148" height="2.0223"/>
					<rect x="104.0857" y="51.9248" style="fill:#58595B;" width="12.7148" height="2.0234"/>
					<path style="fill:#404041;" d="M110.446,95.3146c1.3612,0,2.4714-1.226,2.4714-2.727c0-1.5032-1.1103-2.7292-2.4714-2.7292
						c-1.3612,0-2.4715,1.226-2.4715,2.7292C107.9745,94.0886,109.0848,95.3146,110.446,95.3146z"/>
				</g>
				<g>
					<rect x="121.8672" style="fill:#647882;" width="21.5156" height="101.3678"/>
					<path style="fill:#58595B;" d="M123.2272,0h0.4893v101.3678h-0.4893V0L123.2272,0z M141.5335,0h0.4904v101.3678h-0.4904V0z"/>
					<rect x="124.8004" y="3.2368" style="fill:#E6E7E8;" width="15.6469" height="52.7349"/>
					<path style="fill:#A6A8AB;" d="M132.6261,96.2954c1.8505,0,3.3629-1.6637,3.3629-3.7066s-1.5113-3.7101-3.3629-3.7101
						c-1.8504,0-3.3617,1.6672-3.3617,3.7101S130.7745,96.2954,132.6261,96.2954z"/>
					<rect x="126.267" y="44.2388" style="fill:#58595B;" width="12.7136" height="2.0224"/>
					<rect x="126.267" y="48.083" style="fill:#58595B;" width="12.7136" height="2.0223"/>
					<rect x="126.267" y="51.9248" style="fill:#58595B;" width="12.7136" height="2.0234"/>
					<path style="fill:#404041;" d="M132.6261,95.3146c1.3612,0,2.4738-1.226,2.4738-2.727c0-1.5032-1.1126-2.7292-2.4738-2.7292
						s-2.4726,1.226-2.4726,2.7292C130.1524,94.0886,131.2638,95.3146,132.6261,95.3146z"/>
				</g>
			</g>
			<g>
				<rect y="101.3678" style="fill:#919DA5;" width="159.4421" height="350.288"/>
				<rect x="11.0569" y="118.0608" style="fill:#7F888F;" width="137.3272" height="103.6755"/>
				<rect x="11.0569" y="226.3985" style="fill:#7F888F;" width="137.3272" height="103.6766"/>
				<rect x="11.0569" y="334.7316" style="fill:#7F888F;" width="137.3272" height="103.6789"/>
				<rect x="54.7057" y="139.5673" style="fill:#4E4F51;" width="48.2949" height="25.6794"/>
				<path style="fill:#231F20;" d="M61.4303,149.7567h34.8434c1.3589,0,2.4726,1.2272,2.4726,2.7282v6.7429
					c0,1.501-1.1148,2.7293-2.4726,2.7293H61.4303c-1.3578,0-2.4715-1.2283-2.4715-2.7293v-6.7429
					C58.9588,150.9839,60.0725,149.7567,61.4303,149.7567z"/>
				<rect x="54.7057" y="243.567" style="fill:#4E4F51;" width="48.2949" height="25.6783"/>
				<path style="fill:#231F20;" d="M60.4827,253.7576h34.848c1.3532,0,2.468,1.2272,2.468,2.7293v6.7429
					c0,1.4999-1.116,2.7247-2.468,2.7247h-34.848c-1.3612,0-2.4691-1.2248-2.4691-2.7247v-6.7429
					C58.0124,254.9848,59.1204,253.7576,60.4827,253.7576z"/>
				<rect x="54.9176" y="350.7795" style="fill:#4E4F51;" width="48.3007" height="25.6771"/>
				<path style="fill:#231F20;" d="M61.4303,360.969h34.8434c1.3589,0,2.4726,1.2271,2.4726,2.7304v6.7418
					c0,1.4998-1.1148,2.7282-2.4726,2.7282H61.4303c-1.3578,0-2.4715-1.2283-2.4715-2.7282v-6.7418
					C58.9588,362.1961,60.0725,360.969,61.4303,360.969z"/>
			</g>
		</g>
		<g>
			<g>
				<path style="fill:#F58A20;" d="M321.6101,99.3707c0,1.0266-0.6015,1.8551-1.3498,1.8551h-6.8369
					c-0.7505,0-1.3543-0.8296-1.3543-1.8551V32.3043c0-1.022,0.6027-1.8516,1.3543-1.8516h6.8369
					c0.7471,0,1.3498,0.8307,1.3498,1.8516V99.3707z"/>
				<path style="fill:#F79E67;" d="M331.732,99.6285c0,0.8811-0.6428,1.5972-1.4323,1.5972h-7.2563
					c-0.7905,0-1.4333-0.7161-1.4333-1.5972V41.9278c0-0.8811,0.6416-1.5949,1.4333-1.5949h7.2563
					c0.7895,0,1.4323,0.7138,1.4323,1.5949V99.6285z"/>
				<path style="fill:#AC5868;" d="M341.3268,99.7374c0,0.8215-0.6084,1.4883-1.3566,1.4883h-6.8793
					c-0.7516,0-1.3589-0.6668-1.3589-1.4883V45.9988c0-0.8204,0.6073-1.485,1.3589-1.485h6.8793
					c0.7471,0,1.3566,0.6646,1.3566,1.485V99.7374z"/>
				<path style="fill:#0083B5;" d="M349.5387,99.8863c0,0.7391-0.5191,1.3395-1.163,1.3395h-5.8848
					c-0.6428,0-1.1652-0.6004-1.1652-1.3395V51.5478c0-0.7344,0.5224-1.3337,1.1652-1.3337h5.8848
					c0.6428,0,1.163,0.5993,1.163,1.3337V99.8863z"/>
				<path style="fill:#7670B2;" d="M362.7381,99.5999c0,0.8971-0.8364,1.6259-1.8688,1.6259h-9.4619
					c-1.03,0-1.8688-0.7288-1.8688-1.6259V40.8164c0-0.8949,0.8376-1.6225,1.8688-1.6225h9.4619
					c1.0312,0,1.8688,0.7276,1.8688,1.6225V99.5999z"/>
				<path style="fill:#F27054;" d="M372.176,99.4532c0,0.9785-0.5993,1.7725-1.3383,1.7725h-6.7613
					c-0.7413,0-1.3383-0.794-1.3383-1.7725V35.3727c0-0.9785,0.597-1.7714,1.3383-1.7714h6.7613
					c0.739,0,1.3383,0.7929,1.3383,1.7714V99.4532z"/>
				<path style="fill:#756178;" d="M381.6883,99.6801c0,0.8513-0.6038,1.5456-1.3486,1.5456h-6.8163
					c-0.7447,0-1.3474-0.6932-1.3474-1.5456V43.7782c0-0.8536,0.6015-1.5445,1.3474-1.5445h6.8163
					c0.7436,0,1.3486,0.6909,1.3486,1.5445V99.6801z"/>
				<path style="fill:#C4A98C;" d="M388.7487,99.4532c0,0.9785-0.448,1.7725-1.0003,1.7725h-5.0644
					c-0.55,0-0.9957-0.794-0.9957-1.7725V35.3727c0-0.9785,0.4469-1.7714,0.9957-1.7714h5.0644
					c0.5523,0,1.0003,0.7929,1.0003,1.7714V99.4532z"/>
				<path style="fill:#888C8E;" d="M397.3914,99.8176c0,0.7757-0.5466,1.4082-1.2215,1.4082h-6.1964
					c-0.676,0-1.2237-0.6325-1.2237-1.4082V48.9595c0-0.7803,0.5477-1.4082,1.2237-1.4082h6.1964
					c0.6749,0,1.2215,0.6279,1.2215,1.4082V99.8176z"/>
				<path style="fill:#F79E67;" d="M407.8043,99.5506c0,0.9224-0.6577,1.6752-1.4735,1.6752h-7.4649
					c-0.8146,0-1.4746-0.7528-1.4746-1.6752V38.9648c0-0.9235,0.66-1.6717,1.4746-1.6717h7.4649
					c0.8158,0,1.4735,0.7482,1.4735,1.6717V99.5506z"/>
				<path style="fill:#AE6063;" d="M419.135,99.7076c0,0.8364-0.715,1.517-1.6007,1.517h-8.1259
					c-0.8846,0-1.6041-0.6806-1.6041-1.517v-54.818c0-0.8387,0.7207-1.517,1.6041-1.517h8.1259c0.8857,0,1.6007,0.6795,1.6007,1.517
					V99.7076z"/>
				<path style="fill:#414145;" d="M426.232,99.8795c0,0.7401-0.4503,1.3463-1.006,1.3463h-5.0816
					c-0.5545,0-1.0083-0.6062-1.0083-1.3463V51.2293c0-0.7425,0.4538-1.3451,1.0083-1.3451h5.0816
					c0.5546,0,1.006,0.6026,1.006,1.3451V99.8795z"/>
				<path style="fill:#C188A3;" d="M436.6449,99.5506c0,0.9224-0.6611,1.6752-1.4746,1.6752h-7.4625
					c-0.8181,0-1.477-0.7528-1.477-1.6752V38.9648c0-0.9235,0.6589-1.6717,1.477-1.6717h7.4625
					c0.8135,0,1.4746,0.7482,1.4746,1.6717V99.5506z"/>
				<rect x="312.0702" y="36.0785" style="fill:#9B5809;" width="9.5399" height="6.2033"/>
				<g>
					<rect x="321.6479" y="45.1085" style="fill:#FBC29B;" width="10.0818" height="1.9043"/>
					<rect x="321.6479" y="47.9627" style="fill:#FBC29B;" width="10.0818" height="1.9031"/>
				</g>
				<path style="fill:#645C65;" d="M380.3397,42.2337h-6.8163c-0.7447,0-1.3474,0.6909-1.3474,1.5445v8.0091h9.5123v-8.0091
					C381.6883,42.9246,381.0834,42.2337,380.3397,42.2337z"/>
				<g>
					<rect x="331.732" y="61.1369" style="fill:#78484B;" width="9.6635" height="3.1968"/>
					<rect x="331.7297" y="46.2543" style="fill:#78484B;" width="9.5971" height="2.704"/>
				</g>
				<g>
					<rect x="388.7487" y="55.7471" style="fill:#595B5D;" width="8.6426" height="11.2975"/>
					<rect x="388.7487" y="50.4078" style="fill:#595B5D;" width="8.6426" height="2.4863"/>
				</g>
				<g>
					<rect x="342.4359" y="52.5653" style="fill:#7FAACF;" width="5.9971" height="1.3234"/>
					<rect x="342.4359" y="54.3401" style="fill:#7FAACF;" width="5.9971" height="1.3234"/>
					<rect x="342.4359" y="56.1184" style="fill:#7FAACF;" width="5.9971" height="1.3199"/>
				</g>
				<g>
					<rect x="407.8043" y="46.0286" style="fill:#B2928E;" width="11.3318" height="1.3233"/>
					<rect x="407.8043" y="47.8034" style="fill:#B2928E;" width="11.3318" height="1.3234"/>
					<rect x="407.8043" y="49.5794" style="fill:#B2928E;" width="11.3318" height="1.321"/>
					<rect x="410.5473" y="95.7088" style="fill:#B2928E;" width="5.9971" height="1.3268"/>
					<rect x="410.5473" y="97.4871" style="fill:#B2928E;" width="5.9971" height="1.321"/>
				</g>
				<g>
					<rect x="364.5565" y="35.5251" style="fill:#F7A58A;" width="5.9948" height="1.32"/>
					<rect x="364.5565" y="37.2988" style="fill:#F7A58A;" width="5.9948" height="1.3211"/>
					<rect x="364.5565" y="39.0748" style="fill:#F7A58A;" width="5.9948" height="1.3211"/>
					<rect x="362.7381" y="95.9357" style="fill:#F7A58A;" width="9.4379" height="1.3245"/>
				</g>
				<rect x="351.1519" y="41.9622" style="fill:#59527B;" width="10.3293" height="6.1861"/>
				<g>
					<rect x="358.8975" y="88.6862" style="fill:#59527B;" width="2.2159" height="10.5825"/>
					<rect x="355.2115" y="88.6862" style="fill:#59527B;" width="2.2136" height="10.5825"/>
					<rect x="351.5197" y="88.6862" style="fill:#59527B;" width="2.216" height="10.5825"/>
				</g>
				<rect x="384.2641" y="35.9044" style="fill:#A49280;" width="1.9077" height="44.7636"/>
				<rect x="397.3914" y="88.197" style="fill:#AC6536;" width="10.4083" height="2.664"/>
				<rect x="397.3914" y="92.1924" style="fill:#AC6536;" width="10.4129" height="2.6628"/>
				<g>
					<rect x="427.9575" y="90.3889" style="fill:#886273;" width="1.4448" height="8.8352"/>
					<rect x="430.7154" y="90.3889" style="fill:#886273;" width="1.446" height="8.8352"/>
					<rect x="433.4745" y="90.3889" style="fill:#886273;" width="1.4425" height="8.8352"/>
				</g>
			</g>
			<g>
				<rect x="294.605" y="101.2257" style="fill:#919DA5;" width="159.5075" height="350.4301"/>
				<rect x="305.6653" y="117.9256" style="fill:#7F888F;" width="137.3845" height="103.7179"/>
				<rect x="305.6653" y="226.3068" style="fill:#7F888F;" width="137.3845" height="103.7191"/>
				<rect x="305.6653" y="334.6858" style="fill:#7F888F;" width="137.3845" height="103.719"/>
				<rect x="349.3313" y="139.4401" style="fill:#4E4F51;" width="48.3167" height="25.6885"/>
				<path style="fill:#231F20;" d="M356.0593,149.6341h34.8583c1.3601,0,2.4738,1.2283,2.4738,2.7293v6.7453
					c0,1.5021-1.1148,2.7315-2.4738,2.7315h-34.8583c-1.3577,0-2.4726-1.2294-2.4726-2.7315v-6.7453
					C353.5867,150.8624,354.7027,149.6341,356.0593,149.6341z"/>
				<rect x="349.3313" y="243.481" style="fill:#4E4F51;" width="48.3167" height="25.6909"/>
				<path style="fill:#231F20;" d="M355.1118,253.6774h34.8629c1.3531,0,2.468,1.226,2.468,2.727v6.7476
					c0,1.5009-1.116,2.7269-2.468,2.7269h-34.8629c-1.3612,0-2.4715-1.226-2.4715-2.7269v-6.7476
					C352.6403,254.9045,353.7506,253.6774,355.1118,253.6774z"/>
				<rect x="349.5467" y="350.7383" style="fill:#4E4F51;" width="48.319" height="25.6885"/>
				<path style="fill:#231F20;" d="M356.0593,360.9335h34.8583c1.3601,0,2.4738,1.2271,2.4738,2.7304v6.7452
					c0,1.4998-1.1148,2.7293-2.4738,2.7293h-34.8583c-1.3577,0-2.4726-1.2295-2.4726-2.7293v-6.7452
					C353.5867,362.1606,354.7027,360.9335,356.0593,360.9335z"/>
			</g>
		</g>
		<g>
			<path style="fill:#50565B;" d="M320.4173,311.5787l-1.4116-2.5964c0,0,7.6745,2.145,7.7318-2.5963
				c0.0561-4.7401,0.2818-42.8823,0.2818-42.8823l2.7075-0.338l-0.283,46.7172l-1.4643,2.8782l-3.7536-0.2807L320.4173,311.5787"/>
			<path style="fill:none;stroke:#656C70;stroke-miterlimit:10;" d="M320.4173,311.5787l-1.4116-2.5964
				c0,0,7.6745,2.145,7.7318-2.5963c0.0561-4.7401,0.2818-42.8823,0.2818-42.8823l2.7075-0.338l-0.283,46.7172l-1.4643,2.8782
				l-3.7536-0.2807L320.4173,311.5787"/>
			<path style="fill:#808589;" d="M320.4173,311.5787c0,0,8.0114,1.0942,8.0114-3.8533v-44.5586h6.5447v44.5586
				c0,0,0.8857,9.6406-6.8816,9.667l-7.7673,0.0241L320.4173,311.5787z"/>
			<path style="fill:none;stroke:#656C70;stroke-miterlimit:10;" d="M320.4173,311.5787c0,0,8.0114,1.0942,8.0114-3.8533v-44.5586
				h6.5447v44.5586c0,0,0.8857,9.6406-6.8816,9.667l-7.7673,0.0241L320.4173,311.5787z"/>
			<rect x="272.2324" y="368.3754" style="fill:#808589;" width="7.333" height="33.3699"/>
			<rect x="272.2324" y="368.3754" style="fill:none;stroke:#656C70;stroke-miterlimit:10;" width="7.333" height="33.3699"/>
			<path style="fill:#252728;" d="M271.2206,369.1236h9.5822c1.2661,0,2.31-0.9946,2.3684-2.2584l1.698-35.6512h-17.7184
				l1.698,35.6512C268.9119,368.129,269.9545,369.1236,271.2206,369.1236"/>
			<path style="fill:none;stroke:#000000;stroke-miterlimit:10;" d="M271.2206,369.1236h9.5822c1.2661,0,2.31-0.9946,2.3684-2.2584
				l1.698-35.6512h-17.7184l1.698,35.6512C268.9119,368.129,269.9545,369.1236,271.2206,369.1236z"/>
			<path style="fill:#1A1B1C;" d="M266.6764,436.1338c0,5.0919,4.1283,9.2213,9.2225,9.2213c5.093,0,9.2213-4.1294,9.2213-9.2213
				c0-5.0918-4.1272-9.2213-9.2213-9.2213C270.8036,426.9137,266.6764,431.042,266.6764,436.1338"/>
			<circle style="fill:none;stroke:#000000;stroke-miterlimit:10;" cx="275.8977" cy="436.1338" r="9.2213"/>
			<path style="fill:#1A1B1C;" d="M239.9738,434.3281c0,4.8627,3.9427,8.8031,8.802,8.8031c4.8604,0,8.8019-3.9404,8.8019-8.8031
				c0-4.8593-3.9403-8.802-8.8019-8.802C243.9154,425.5273,239.9738,429.4688,239.9738,434.3281"/>
			<circle style="fill:none;stroke:#000000;stroke-miterlimit:10;" cx="248.7758" cy="434.3281" r="8.802"/>
			<path style="fill:#1A1B1C;" d="M294.204,434.3281c0,4.8627,3.9403,8.8031,8.8019,8.8031c4.8605,0,8.8031-3.9404,8.8031-8.8031
				c0-4.8593-3.9415-8.802-8.8031-8.802C298.1455,425.5273,294.204,429.4688,294.204,434.3281"/>
			<circle style="fill:none;stroke:#000000;stroke-miterlimit:10;" cx="303.0059" cy="434.3281" r="8.802"/>
			<path style="fill:#A0A6AA;" d="M269.4504,436.1338c0,3.5612,2.8885,6.4474,6.4485,6.4474c3.5611,0,6.4485-2.8862,6.4485-6.4474
				c0-3.5599-2.8874-6.4473-6.4485-6.4473C272.3378,429.6876,269.4504,432.5739,269.4504,436.1338"/>
			<path style="fill:#A0A6AA;" d="M243.0526,434.3281c0,3.1623,2.5608,5.7255,5.722,5.7255c3.1624,0,5.7232-2.5632,5.7232-5.7255
				c0-3.1613-2.5608-5.7244-5.7232-5.7244C245.6146,428.6037,243.0526,431.168,243.0526,434.3281"/>
			<path style="fill:#A0A6AA;" d="M297.2804,434.3281c0,3.1623,2.5631,5.7255,5.7255,5.7255c3.1613,0,5.7244-2.5632,5.7244-5.7255
				c0-3.1613-2.5631-5.7244-5.7244-5.7244C299.8435,428.6037,297.2804,431.168,297.2804,434.3281"/>
			<path style="fill:#1A1B1C;" d="M270.4151,435.1863c0,3.0386,2.4623,5.5021,5.5021,5.5021c3.0375,0,5.5021-2.4623,5.5021-5.5021
				c0-3.0364-2.4634-5.4998-5.5021-5.4998C272.8786,429.6876,270.4151,432.1499,270.4151,435.1863"/>
			<circle style="fill:none;stroke:#000000;stroke-miterlimit:10;" cx="275.9172" cy="435.1863" r="5.5021"/>
			<path style="fill:#1A1B1C;" d="M243.9807,433.7323c0,2.6467,2.1449,4.7951,4.7951,4.7951c2.6479,0,4.7962-2.1484,4.7962-4.7951
				c0-2.6491-2.1483-4.7952-4.7962-4.7952C246.1256,428.9371,243.9807,431.0832,243.9807,433.7323"/>
			<circle style="fill:none;stroke:#000000;stroke-miterlimit:10;" cx="248.7758" cy="433.7323" r="4.7951"/>
			<path style="fill:#1A1B1C;" d="M298.362,433.7323c0,2.5642,2.0785,4.6427,4.6439,4.6427c2.562,0,4.6439-2.0773,4.6439-4.6427
				c0-2.5655-2.0807-4.6428-4.6439-4.6428C300.4405,429.0895,298.362,431.168,298.362,433.7323"/>
			<circle style="fill:none;stroke:#000000;stroke-miterlimit:10;" cx="303.0059" cy="433.7323" r="4.6439"/>
			<path style="fill:#A0A6AA;" d="M272.7193,371.2926c0,0,5.5857-2.1599,5.2374,3.4832v24.4522c0,0,0.9407,1.344-4.4101,1.9307
				h5.3416l0.2441-31.5745h-6.4691L272.7193,371.2926z"/>
			<path style="fill:#808589;" d="M243.9807,414.0476c1.3543-7.0729,14.972-6.9973,14.972-6.9973h7.8601v-3.9209
				c0-0.7642,0.6176-1.3841,1.3806-1.3841h15.6309c0.7642,0,1.3841,0.6199,1.3841,1.3841v3.9209h11.5095
				c12.1121,0,10.8609,8.8776,10.8609,8.8776v11.0958c0,1.4711-1.1905,2.6616-2.6594,2.6616h-3.7249
				c-1.469,0-2.6606-1.1905-2.6606-2.6616v-1.0072v-4.1432c0-8.8787-5.8779-8.3516-5.8779-8.3516l-12.1235-0.0539v14.5596
				c0,0.9177-0.7402,1.6579-1.6591,1.6579h-5.7255c-0.9155,0-1.6603-0.7402-1.6603-1.6579v-14.6019l-12.3859-0.055
				c-4.6279,0-5.4861,4.1672-5.6133,6.3992v8.0686c0,1.0209-0.8284,1.847-1.8481,1.847h-5.3509
				c-1.0209,0-1.8481-0.8272-1.8481-1.847v-13.3725c0-0.0229,0.0057-0.0458,0.008-0.0687L243.9807,414.0476z"/>
			<path style="fill:none;stroke:#656C70;stroke-miterlimit:10;" d="M243.9807,414.0476c1.3543-7.0729,14.972-6.9973,14.972-6.9973
				h7.8601v-3.9209c0-0.7642,0.6176-1.3841,1.3806-1.3841h15.6309c0.7642,0,1.3841,0.6199,1.3841,1.3841v3.9209h11.5095
				c12.1121,0,10.8609,8.8776,10.8609,8.8776v11.0958c0,1.4711-1.1905,2.6616-2.6594,2.6616h-3.7249
				c-1.469,0-2.6606-1.1905-2.6606-2.6616v-1.0072v-4.1432c0-8.8787-5.8779-8.3516-5.8779-8.3516l-12.1235-0.0539v14.5596
				c0,0.9177-0.7402,1.6579-1.6591,1.6579h-5.7255c-0.9155,0-1.6603-0.7402-1.6603-1.6579v-14.6019l-12.3859-0.055
				c-4.6279,0-5.4861,4.1672-5.6133,6.3992v8.0686c0,1.0209-0.8284,1.847-1.8481,1.847h-5.3509
				c-1.0209,0-1.8481-0.8272-1.8481-1.847v-13.3725c0-0.0229,0.0057-0.0458,0.008-0.0687L243.9807,414.0476z"/>
			<path style="fill:#A0A6AA;" d="M275.8003,409.4198c0,0,4.4423-0.3953,4.2738,3.6665l0.0046,13.8824
				c0,0,0.558,2.6605-2.6571,2.1209c0,0,1.0163,0.0779,1.5228-2.46l0.1134-13.5983
				C279.0567,413.0324,278.5227,410.2104,275.8003,409.4198"/>
			<path style="fill:#A0A6AA;" d="M275.8989,402.2552h6.94c0,0,2.4256-0.5637,1.8619,2.3683l0.086,2.9332l-2.2859-3.8922
				L275.8989,402.2552z"/>
			<path style="fill:#A0A6AA;" d="M300.7247,408.0093c0,0,6.5447,0.6222,6.2617,8.9165l0.0103,9.3084
				c0,0,1.0644,3.2163-3.9587,2.821c0,0,2.2-0.7334,1.9754-5.3027l-0.1123-9.2534
				C304.9011,414.4991,305.0683,411.1705,300.7247,408.0093"/>
			<path style="fill:#262C35;" d="M304.1116,168.2154c0,0,3.0306-8.1065,24.8659-7.6688c0,0,23.0361-6.2399,25.4399,44.3982v45.3812
				c0,0,1.8035,31.3121-24.2403,30.4367c0,0-27.6421,2.0853-27.2411-22.1699L304.1116,168.2154"/>
			<path style="fill:none;stroke:#161A1E;stroke-miterlimit:10;" d="M304.1116,168.2154c0,0,3.0306-8.1065,24.8659-7.6688
				c0,0,23.0361-6.2399,25.4399,44.3982v45.3812c0,0,1.8035,31.3121-24.2403,30.4367c0,0-27.6421,2.0853-27.2411-22.1699
				L304.1116,168.2154"/>
			<path style="fill:#181D23;" d="M317.3581,165.202c0,0,20.2323-8.6828,24.8395,38.4389l2.8037,51.6807
				c0,0,0.8009,19.31-16.0238,19.7488c-16.8282,0.4366-0.8032,1.1504-0.8032,1.1504s-22.0358,1.4769-23.1357-19.7637
				l-4.7081-72.0414C300.3305,184.4157,302.9349,164.8181,317.3581,165.202"/>
			<path style="fill:#50565B;" d="M258.5253,335.1223h37.4535c1.7725,0,3.222-1.4517,3.222-3.2231v-9.0139
				c0-1.1893-0.9762-2.1667-2.1667-2.1667H257.47c-1.1927,0-2.1678,0.9774-2.1678,2.1667v9.0139
				C255.3033,333.6717,256.7539,335.1223,258.5253,335.1223"/>
			<path style="fill:none;stroke:#656C70;stroke-miterlimit:10;" d="M258.5253,335.1223h37.4535c1.7725,0,3.222-1.4517,3.222-3.2231
				v-9.0139c0-1.1893-0.9762-2.1667-2.1667-2.1667H257.47c-1.1927,0-2.1678,0.9774-2.1678,2.1667v9.0139
				C255.3033,333.6717,256.7539,335.1223,258.5253,335.1223z"/>
			<path style="fill:#262C35;" d="M249.4633,325.5722c-3.6918-0.1605,10.0084,1.399,30.5856,1.8046
				c8.2027,0.1627,24.1452-0.9017,24.1452-0.9017c3.8292,0,18.4048-2.2595,18.4048-10.1574v-4.739
				c0-8.6507-14.5768-11.0603-18.4048-11.0603c0,0-15.7672-0.26-23.9034,0c-17.4928,0.5615-40.389,1.8058-40.389,1.8058
				c-3.8281,0-9.8034,4.7378-9.8034,8.3528v5.6407C230.599,321.7361,245.6352,325.5722,249.4633,325.5722"/>
			<path style="fill:none;stroke:#161A1E;stroke-miterlimit:10;" d="M249.4633,325.5722
				c-3.6918-0.1605,10.0084,1.399,30.5856,1.8046c8.2027,0.1627,24.1452-0.9017,24.1452-0.9017
				c3.8292,0,18.4048-2.2595,18.4048-10.1574v-4.739c0-8.6507-14.5768-11.0603-18.4048-11.0603c0,0-15.7672-0.26-23.9034,0
				c-17.4928,0.5615-40.389,1.8058-40.389,1.8058c-3.8281,0-9.8034,4.7378-9.8034,8.3528v5.6407
				C230.599,321.7361,245.6352,325.5722,249.4633,325.5722z"/>
			<path style="fill:#181D23;" d="M230.8729,308.2261c0,0,1.014,11.0282,19.7797,13.51c0,0,44.1002,3.8372,61.4303,0
				c0,0,0.2383,3.1268-7.2907,4.7218c-7.5278,1.5949,0,0,0,0s15.1003-0.2739,17.7093-9.0426c2.609-8.7698,0,0,0,0v-6.9858"/>
			<path style="fill:#181D23;" d="M322.5004,310.4306c0,0-46.7459,9.5662-91.6287-2.2045"/>
			<path style="fill:#3D4447;" d="M264.433,97.7414l-10.3843,0.039c0,0-0.1535,3.9552-0.2303,4.9143
				c-0.0756,0.959,4.1088-1.4197,4.6461-2.1507c0.5374-0.7298,4.5305-1.4964,5.1824-1.5353
				C263.9254,98.3533,264.433,97.7414,264.433,97.7414"/>
			<path style="fill:#BC7A55;" d="M136.8105,337.1126c0,0-6.3087,12.3046-11.6034,17.7826
				c-5.1423,5.3187-9.2098,11.6985-13.5226,13.3243c-2.8048,1.0553-6.3304,1.5721-5.7999,3.2014
				c2.0383,6.2606,12.0594,9.3359,15.7809,5.4619c5.2626-5.4837,7.5966-9.0459,11.278-9.7999
				c3.6826-0.7574,6.7819-1.1263,7.0454-7.8234c0.2693-6.6949,7.757-11.1394,8.8203-14.8483
				C149.8737,340.7,136.8105,337.1126,136.8105,337.1126"/>
			<path style="fill:none;stroke:#724437;stroke-width:0.941;stroke-miterlimit:10;" d="M136.8105,337.1126
				c0,0-6.3087,12.3046-11.6034,17.7826c-5.1423,5.3187-9.2098,11.6985-13.5226,13.3243c-2.8048,1.0553-6.3304,1.5721-5.7999,3.2014
				c2.0383,6.2606,12.0594,9.3359,15.7809,5.4619c5.2626-5.4837,7.5966-9.0459,11.278-9.7999
				c3.6826-0.7574,6.7819-1.1263,7.0454-7.8234c0.2693-6.6949,7.757-11.1394,8.8203-14.8483
				C149.8737,340.7,136.8105,337.1126,136.8105,337.1126z"/>
			<path style="fill:#A06047;" d="M147.4297,341.745c1.0461,0.8467,1.6431,1.7519,1.3795,2.6651
				c-1.0633,3.7135-8.551,8.1534-8.8203,14.8482c-0.2062,5.2145-2.1323,6.5917-4.7137,7.3033
				C136.3969,356.9679,139.8125,347.8726,147.4297,341.745"/>
			<path style="fill:#D39479;" d="M106.4735,372.7637c-0.2349-0.4285-0.4365-0.8765-0.5889-1.344
				c-0.5317-1.6293,2.9939-2.146,5.7999-3.2013c4.3128-1.6259,8.3792-8.0056,13.5215-13.3244
				c5.2958-5.4768,11.6034-17.7826,11.6034-17.7826s0.9544,0.2601,2.3214,0.715
				C131.0323,351.6686,123.3613,370.3438,106.4735,372.7637"/>
			<path style="fill:#E90D00;" d="M134.1076,377.5027c0.0894,1.4609-1.5514,1.6648-3.8338,0.33
				c-2.2801-1.3337-2.2698-2.829-2.2698-2.829l3.9759-9.7666l7.4247,1.0025C139.4046,366.2396,133.7043,371.0313,134.1076,377.5027"
				/>
			<path style="fill:none;stroke:#8E0804;stroke-width:0.548;stroke-miterlimit:10;" d="M134.1076,377.5027
				c0.0894,1.4609-1.5514,1.6648-3.8338,0.33c-2.2801-1.3337-2.2698-2.829-2.2698-2.829l3.9759-9.7666l7.4247,1.0025
				C139.4046,366.2396,133.7043,371.0313,134.1076,377.5027z"/>
			<path style="fill:#E90D00;" d="M141.1027,355.4669c-1.4414-0.9842-2.6525,2.0911-8.9177,8.7515
				c-3.5187,4.7619-9.054,10.1827-15.6274,10.209c-2.1495-0.3472-5.1583-5.7644-8.8042-5.627
				c-2.0716,0.0768-5.8527,3.159-6.3374,5.3325c-0.4938,2.2149,1.1836,3.1601,1.9009,3.8075
				c0.7264,0.6531,8.2336,4.9395,14.8161,3.073c6.5837-1.8688,9.525-9.8492,13.5169-11.5862
				c3.9919-1.7336,6.633-1.0255,8.9979-4.9498C142.0376,362.1709,143.3805,357.0298,141.1027,355.4669"/>
			<path style="fill:none;stroke:#8E0804;stroke-width:0.569;stroke-miterlimit:10;" d="M141.1027,355.4669
				c-1.4414-0.9842-2.6525,2.0911-8.9177,8.7515c-3.5187,4.7619-9.054,10.1827-15.6274,10.209
				c-2.1495-0.3472-5.1583-5.7644-8.8042-5.627c-2.0716,0.0768-5.8527,3.159-6.3374,5.3325
				c-0.4938,2.2149,1.1836,3.1601,1.9009,3.8075c0.7264,0.6531,8.2336,4.9395,14.8161,3.073
				c6.5837-1.8688,9.525-9.8492,13.5169-11.5862c3.9919-1.7336,6.633-1.0255,8.9979-4.9498
				C142.0376,362.1709,143.3805,357.0298,141.1027,355.4669z"/>
			<path style="fill:#9B897B;" d="M204.0992,251.3308c-2.8954-6.8713-13.2464-10.147-19.7591-8.5808
				c-5.1251,1.2318-9.7587,5.1022-12.2542,9.0919c-10.1837,20.9404-24.2231,63.2624-30.5261,74.4842
				c-7.0408,12.5337-7.6618,13.3805-7.6618,13.3805c-2.8336,4.8352,7.7959,12.8259,12.025,8.3677
				c6.4462-6.7991,17.133-25.3437,24.9576-35.0806c7.8257-9.738,15.1221-21.7631,21.4938-38.7482
				c2.892-7.7101,7.2551-15.38,11.8875-22.4873C204.2069,251.615,204.1577,251.4683,204.0992,251.3308"/>
			<path style="fill:none;stroke:#605650;stroke-width:0.912;stroke-miterlimit:10;" d="M204.0992,251.3308
				c-2.8954-6.8713-13.2464-10.147-19.7591-8.5808c-5.1251,1.2318-9.7587,5.1022-12.2542,9.0919
				c-10.1837,20.9404-24.2231,63.2624-30.5261,74.4842c-7.0408,12.5337-7.6618,13.3805-7.6618,13.3805
				c-2.8336,4.8352,7.7959,12.8259,12.025,8.3677c6.4462-6.7991,17.133-25.3437,24.9576-35.0806
				c7.8257-9.738,15.1221-21.7631,21.4938-38.7482c2.892-7.7101,7.2551-15.38,11.8875-22.4873
				C204.2069,251.615,204.1577,251.4683,204.0992,251.3308z"/>
			<path style="fill:#7C716C;" d="M204.0992,251.3308c-0.2188-0.5178-0.4675-0.9968-0.7402-1.4471
				c-0.1168,0.1375-0.2337,0.2762-0.3506,0.4136c-3.6333,4.9201-7.6825,9.0277-9.4756,14.5435
				c-9.1572,30.2442-29.5808,53.435-46.7218,79.0479c-1.3177,1.784-1.4472,3.9404-5.0129,5.0736
				c0.99,0.189,3.3744-0.102,4.1249-0.8892c6.4462-6.7991,17.133-25.3436,24.9575-35.0806
				c7.8258-9.738,15.1221-21.763,21.4939-38.7482c2.8919-7.71,7.2551-15.3799,11.8875-22.4872
				C204.2069,251.615,204.1577,251.4683,204.0992,251.3308"/>
			<path style="fill:#AD9D92;" d="M172.0859,252.3598c-10.1838,20.9427-24.2231,63.2635-30.5261,74.4842
				c-7.042,12.5338-7.663,13.3805-7.663,13.3805c-0.7413,1.2684-0.0963,2.3145,0.6497,3.7318
				c1.1331-1.4574,1.902-2.4462,2.853-3.9644c16.544-23.7716,23.476-51.3473,32.8612-78.1267
				c1.863-4.2394,4.9165-9.785,6.9492-12.0262c2.0314-2.2388,2.2434-2.0716,4.0709-3.1761c1.446-1.9135,0.0642-2.7476-1.9971-1.446
				C177.7851,246.1633,174.1437,248.7872,172.0859,252.3598"/>
			<path style="fill:#BC7A55;" d="M181.7426,390.4971c0,0,5.4368,13.8961,1.2088,19.9367
				c-4.2291,6.0406-12.3825,18.1206-16.3103,20.2346c-3.9266,2.1174-1.5101,5.7404,4.8329,5.1354
				c6.3431-0.6038,8.7607,2.719,15.1038-6.3408c6.342-9.0631,8.4571-10.5744,11.1737-12.9886
				c2.7201-2.4153,5.1366-4.2291,2.1163-9.9695c-3.0203-5.7369-3.623-12.0823-4.5304-15.7065
				C194.4288,387.1743,181.7426,390.4971,181.7426,390.4971"/>
			<path style="fill:none;stroke:#724437;stroke-width:0.941;stroke-miterlimit:10;" d="M181.7426,390.4971
				c0,0,5.4368,13.8961,1.2088,19.9367c-4.2291,6.0406-12.3825,18.1206-16.3103,20.2346c-3.9266,2.1174-1.5101,5.7404,4.8329,5.1354
				c6.3431-0.6038,8.7607,2.719,15.1038-6.3408c6.342-9.0631,8.4571-10.5744,11.1737-12.9886
				c2.7201-2.4153,5.1366-4.2291,2.1163-9.9695c-3.0203-5.7369-3.623-12.0823-4.5304-15.7065
				C194.4288,387.1743,181.7426,390.4971,181.7426,390.4971z"/>
			<path style="fill:#A06047;" d="M199.8655,406.5049c-3.0203-5.7369-3.623-12.0823-4.5304-15.7065
				c-0.204-0.8146-1.014-1.2741-2.1369-1.5044c-0.2532,8.9818,3.7398,17.1719,6.1265,25.7447
				C201.2267,413.1585,202.2728,411.0789,199.8655,406.5049"/>
			<path style="fill:#D39479;" d="M179.7661,421.6018c2.5792-3.8693,4.5133-7.7375,6.4474-10.9617
				c3.5748-6.5528,1.0942-14.2055-0.8284-20.9278c-2.0739,0.3758-3.6436,0.7848-3.6436,0.7848s5.4356,13.8961,1.2088,19.9367
				c-4.2268,6.0406-12.3849,18.1207-16.3103,20.2346c-2.5299,1.3635-2.4234,3.3526-0.3323,4.4331
				c1.2443-1.7244,2.303-3.6345,3.788-5.1217C172.6748,426.759,177.1858,424.8238,179.7661,421.6018"/>
			<path style="fill:#E90D00;" d="M200.2562,428.9727c0.4354,1.3486-1.0541,1.9318-3.5118,1.2305
				c-2.46-0.7035-2.8129-2.1094-2.8129-2.1094l0.1764-10.1883l8.0446-3.1532C202.1525,414.7523,198.3233,423.0008,200.2562,428.9727
				"/>
			<path style="fill:none;stroke:#8E0804;stroke-width:0.53;stroke-miterlimit:10;" d="M200.2562,428.9727
				c0.4354,1.3486-1.0541,1.9318-3.5118,1.2305c-2.46-0.7035-2.8129-2.1094-2.8129-2.1094l0.1764-10.1883l8.0446-3.1532
				C202.1525,414.7523,198.3233,423.0008,200.2562,428.9727z"/>
			<path style="fill:#E90D00;" d="M198.7358,404.1091c-1.328,0.936-7.0317,8.5166-9.3393,16.7365
				c-2.3065,8.2187-8.8856,9.7403-10.9056,9.9248c-2.0189,0.1822-5.7003-3.1773-9.0953-3.2701
				c-3.395-0.0905-6.3397,3.2323-7.5347,4.9773c-1.1905,1.7416-0.1089,4.2726,0.5351,4.9143
				c0.6416,0.6428,14.5916,2.9378,20.0982-0.2739c5.5067-3.2128,8.1615-11.5862,11.3617-14.0794
				c3.199-2.491,7.8624-4.0389,8.2943-8.2864C202.5811,410.5014,200.7054,402.7215,198.7358,404.1091"/>
			<path style="fill:none;stroke:#8E0804;stroke-width:0.53;stroke-miterlimit:10;" d="M198.7358,404.1091
				c-1.328,0.936-7.0317,8.5166-9.3393,16.7365c-2.3065,8.2187-8.8856,9.7403-10.9056,9.9248
				c-2.0189,0.1822-5.7003-3.1773-9.0953-3.2701c-3.395-0.0905-6.3397,3.2323-7.5347,4.9773
				c-1.1905,1.7416-0.1089,4.2726,0.5351,4.9143c0.6416,0.6428,14.5916,2.9378,20.0982-0.2739
				c5.5067-3.2128,8.1615-11.5862,11.3617-14.0794c3.199-2.491,7.8624-4.0389,8.2943-8.2864
				C202.5811,410.5014,200.7054,402.7215,198.7358,404.1091z"/>
			<path style="fill:#9B897B;" d="M196.2185,354.5274c3.9461-24.3228-1.6144-34.9614-2.9837-43.1515
				c-0.786-4.7035,30.2076-1.4621,43.1894-1.0771c12.9829,0.3839,36.8164-2.1117,36.8164-2.1117l1.4586-0.2944
				c0.1845-0.1455,0.4079-0.2578,0.6932-0.3128c9.879-1.9238,12.9188-14.5687,14.7096-23.2171
				c1.0782-5.2191,2.4967-9.4883-0.5603-14.2857c-1.2202-1.9169-2.8255-3.3915-4.6083-4.6485
				c-4.3907-0.621-9.2534-0.9991-14.7096-1.0323c-26.1836-0.1512-91.395,5.1102-100.8844,14.7256
				c-8.1316,8.2417-7.8853,19.2607-6.9698,26.7118c3.0707,24.9953,3.0707,38.9797,8.331,54.3286
				c5.266,15.3502,9.4207,28.9381,9.9008,34.5696c0.4812,5.627,6.3178,5.4906,11.8761,5.7656
				c5.5628,0.275,6.6375-2.6731,6.2021-4.1672C197.8581,384.036,194.58,364.6367,196.2185,354.5274"/>
			<path style="fill:none;stroke:#605650;stroke-width:0.912;stroke-miterlimit:10;" d="M196.2185,354.5274
				c3.9461-24.3228-1.6144-34.9614-2.9837-43.1515c-0.786-4.7035,30.2076-1.4621,43.1894-1.0771
				c12.9829,0.3839,36.8164-2.1117,36.8164-2.1117l1.4586-0.2944c0.1845-0.1455,0.4079-0.2578,0.6932-0.3128
				c9.879-1.9238,12.9188-14.5687,14.7096-23.2171c1.0782-5.2191,2.4967-9.4883-0.5603-14.2857
				c-1.2202-1.9169-2.8255-3.3915-4.6083-4.6485c-4.3907-0.621-9.2534-0.9991-14.7096-1.0323
				c-26.1836-0.1512-91.395,5.1102-100.8844,14.7256c-8.1316,8.2417-7.8853,19.2607-6.9698,26.7118
				c3.0707,24.9953,3.0707,38.9797,8.331,54.3286c5.266,15.3502,9.4207,28.9381,9.9008,34.5696
				c0.4812,5.627,6.3178,5.4906,11.8761,5.7656c5.5628,0.275,6.6375-2.6731,6.2021-4.1672
				C197.8581,384.036,194.58,364.6367,196.2185,354.5274z"/>
			<path style="fill:#AD9D92;" d="M174.2492,312.8505c0-1.2902-1.501-2.578-2.79-4.5133c-1.9341-3.2231-3.8682-6.4473-4.5133-9.6704
				c-7.0913-29.0137,63.181-26.7886,92.409-31.3923c9.7632-1.3097,19.4589-0.9705,28.8085,0.9865
				c-0.9602-1.0805-2.0567-2.004-3.2288-2.8324c-4.3918-0.621-9.2557-0.9991-14.7119-1.0323
				c-26.745-0.157-92.346,5.8297-101.5386,15.5448c-7.3961,7.8166-7.1841,18.8139-6.3156,25.8914
				c3.0707,24.9954,3.0707,38.9797,8.331,54.3287c5.2649,15.3502,9.4207,28.9381,9.9008,34.5696
				c0.2509,2.9309,1.9616,4.2933,4.323,4.9693c0.7276-3.1647-1.9994-6.806-2.7911-10.9801
				C176.9761,362.2844,161.3464,325.7521,174.2492,312.8505"/>
			<path style="fill:#7C716C;" d="M195.672,364.2666c0-6.7327,2.1964-20.4214,1.3508-33.111
				c-0.4445-6.6456-2.8255-11.8772-3.969-19.7797c-0.7608-5.2455,30.8538-1.9547,43.8356-1.5709
				c12.984,0.3815,31.2078-1.1412,36.8187-2.1128c-6.0612-2.9699-10.5355-9.8057-12.8317-19.5747
				c-0.6576,6.4233,1.9926,11.6939,6.3718,17.6852c-7.7272-0.802-38.3725-17.5397-46.6038-16.8304
				c-2.719,0.2371,20.0925,17.6073,17.353,17.9751c-15.9792,1.8539-41.2541-2.68-44.6663-0.3529
				c-3.8235,2.6055-3.3274,5.258-2.4073,13.4584c0.4091,3.6241,5.0232,6.0601,1.9433,35.9342
				c-1.7325,16.7881,1.4883,35.1379,1.8126,44.4096c1.9765-0.3105,3.4603-1.1,4.2784-1.8241
				C197.1993,400.1252,195.672,370.3851,195.672,364.2666"/>
			<path style="fill:#9B897B;" d="M247.63,298.7287c7.4327,2.8117,15.2103,4.3471,23.1266,4.3631l-8.6026-56.8986l-13.8812-3.0249
				c-1.9822,13.8697-13.2178,23.4359-18.6145,46.2864C235.3907,293.0306,241.3213,296.3386,247.63,298.7287"/>
			<path style="fill:none;stroke:#605650;stroke-width:0.912;stroke-miterlimit:10;" d="M247.63,298.7287
				c7.4327,2.8117,15.2103,4.3471,23.1266,4.3631l-8.6026-56.8986l-13.8812-3.0249c-1.9822,13.8697-13.2178,23.4359-18.6145,46.2864
				C235.3907,293.0306,241.3213,296.3386,247.63,298.7287z"/>
			<path style="fill:#9B897B;" d="M261.6865,260.1156c-0.1191,0.9006-0.1535,1.462-0.1535,1.462l-1.5835,8.5006
				c-1.5858,8.5052,1.1492,22.2696,5.769,24.2964c0,0,2.9035,22.5996,4.1375,23.0476c1.7164,0.6244,20.3102,4.1191,33.0502-3.2804
				c5.14-2.9837,12.771-10.3144,8.2795-25.6084c-2.8633-18.3418-9.5387-30.3794-12.7411-41.1739l-0.2384-0.8261
				c-0.4938-1.7519-0.8868-3.4741-1.1549-5.1882c-0.0928,0.0791-0.1845,0.1547-0.2761,0.2315l-0.0218-0.0722
				c-7.8682,5.6224-30.8527,5.2959-33.7996,4.6874c-2.9504-0.6061-3.568-0.4044-4.5568,1.619
				c-0.9888,2.0246-0.7391,3.6448-1.8929,7.4889C255.5852,258.358,258.2514,259.6229,261.6865,260.1156"/>
			<path style="fill:none;stroke:#605650;stroke-width:0.912;stroke-miterlimit:10;" d="M261.6865,260.1156
				c-0.1191,0.9006-0.1535,1.462-0.1535,1.462l-1.5835,8.5006c-1.5858,8.5052,1.1492,22.2696,5.769,24.2964
				c0,0,2.9035,22.5996,4.1375,23.0476c1.7164,0.6244,20.3102,4.1191,33.0502-3.2804c5.14-2.9837,12.771-10.3144,8.2795-25.6084
				c-2.8633-18.3418-9.5387-30.3794-12.7411-41.1739l-0.2384-0.8261c-0.4938-1.7519-0.8868-3.4741-1.1549-5.1882
				c-0.0928,0.0791-0.1845,0.1547-0.2761,0.2315l-0.0218-0.0722c-7.8682,5.6224-30.8527,5.2959-33.7996,4.6874
				c-2.9504-0.6061-3.568-0.4044-4.5568,1.619c-0.9888,2.0246-0.7391,3.6448-1.8929,7.4889
				C255.5852,258.358,258.2514,259.6229,261.6865,260.1156z"/>
			<path style="fill:none;stroke:#776960;stroke-width:0.912;stroke-miterlimit:10;" d="M299.4139,250.3821
				c-1.0622-3.1108-1.9055-6.0875-2.3649-9.0368c-12.5063,7.4866-34.8984,4.8456-34.8984,4.8456l-13.8767-3.0249
				c-0.503,3.5152-1.6018,6.7555-3.0478,10.005C252.3472,260.2646,268.7572,265.2487,299.4139,250.3821z"/>
			<path style="fill:#70645D;" d="M258.6674,256.1993c-0.0779,0.8479,0.5431,1.5388,1.3795,1.5388
				c0.841,0,1.5869-0.6887,1.6648-1.5388c0.0779-0.8479-0.5396-1.5388-1.3795-1.5388
				C259.4923,254.6605,258.7464,255.3491,258.6674,256.1993"/>
			<path style="fill:#70645D;" d="M259.8281,250.1255c-0.0779,0.8502,0.5419,1.5399,1.3818,1.5399
				c0.8398,0,1.5857-0.6897,1.6636-1.5399c0.078-0.8479-0.5396-1.5377-1.3806-1.5377S259.9071,249.2753,259.8281,250.1255"/>
			<path style="fill:#AD9D92;" d="M231.6451,290.6772c3.0432-12.0869,8.6977-23.7258,16.9141-34.3278
				c2.0808-3.0317,1.5629-8.3356,1.8298-12.7217l-2.1174-0.4606c-1.9822,13.8698-13.2178,23.436-18.6145,46.2864
				C230.3171,289.8648,230.9817,290.2739,231.6451,290.6772"/>
			<path style="fill:#7C716C;" d="M264.2978,292.0029c-2.4302-8.4273-1.4208-23.9825,1.9203-32.4063
				c-1.6476,0-3.0799,0.5328-4.5591,0.7425c-0.0962,0.7665-0.1249,1.2386-0.1249,1.2386l-1.5835,8.5006
				c-1.5559,8.3505,1.0542,21.7654,5.5193,24.1658C265.0196,293.6322,264.6197,292.9012,264.2978,292.0029"/>
			<path style="fill:#7C716C;" d="M270.5297,303.0872c1.0679,0.0069,2.1346-0.016,3.2071-0.0653
				c0.0435-1.2902-0.1696-2.24-0.5603-2.9825c-0.6004-0.0836-1.2008-0.1661-1.8081-0.2223c-0.527,0.3644-1.0449,0.6749-1.5789,0.911
				l0.3094,0.4789C270.2719,301.859,270.4128,302.496,270.5297,303.0872"/>
			<path style="fill:#7C716C;" d="M307.6464,291.7508c1.2156-1.0243,2.3958-2.1014,3.5404-3.2174
				c-2.8633-18.3417-9.5387-30.3794-12.7411-41.1739l-0.2395-0.8261c-0.3071-1.0919-0.5706-2.1724-0.794-3.2494
				c-0.7093,0.8524-1.6156,1.5617-2.6605,2.1563c2.7441,9.4196,3.9873,19.1507,7.9918,28.4259
				C305.16,279.7361,306.7149,285.7033,307.6464,291.7508"/>
			<path style="fill:#87786E;" d="M297.049,241.3464c-0.0906,0.0779-0.1822,0.1547-0.2739,0.2315l-0.0218-0.0722
				c-0.7779,0.5546-1.7095,1.0518-2.7487,1.4976c-9.4756,4.0561-28.3938,3.7398-31.0509,3.1898
				c-2.9515-0.6061-3.5691-0.4044-4.5568,1.6179c-0.9888,2.0257-0.739,3.6459-1.8928,7.49
				c-0.055,0.1821-0.0939,0.3586-0.1237,0.5224c0.1993-0.2509,0.4056-0.5064,0.6382-0.7665
				c1.4597-1.9455,0.5373-5.8355,1.1756-5.8355c7.2952-2.5895,13.9316,1.9513,21.8066,0.0092
				c4.4491-0.8823,10.6478-1.4632,14.7486-3.7892c1.0438-0.5946,1.9512-1.3039,2.6605-2.1563
				C297.2747,242.6378,297.1521,241.9892,297.049,241.3464"/>
			<path style="fill:#70645D;" d="M258.6674,256.1993c-0.0779,0.8479,0.5431,1.5388,1.3795,1.5388
				c0.841,0,1.5869-0.6887,1.6648-1.5388c0.0779-0.8479-0.5396-1.5388-1.3795-1.5388
				C259.4923,254.6605,258.7464,255.3491,258.6674,256.1993"/>
			<path style="fill:#70645D;" d="M259.8281,250.1255c-0.0779,0.8502,0.5419,1.5399,1.3818,1.5399
				c0.8398,0,1.5857-0.6897,1.6636-1.5399c0.078-0.8479-0.5396-1.5377-1.3806-1.5377S259.9071,249.2753,259.8281,250.1255"/>
			<path style="fill:#BC7A55;" d="M210.385,199.1356c0,0-5.6831-5.1789-9.1972-6.0509c-3.5176-0.8754-6.4245-1.6694-7.9816-3.9071
				c-1.5583-2.2366-7.2757-9.0529-8.0056-10.8976c-0.731-1.8436,0.739-8.6817,1.1137-10.327
				c0.377-1.6477,2.7602,0.9808,2.3374,3.356c-0.4228,2.3729-0.1696,6.3225,0.4274,7.0432
				c0.5969,0.7206,2.8782,3.6653,4.9704,4.2841c2.0911,0.6198,4.7986,0.7264,7.4052,0.2944
				c2.6044-0.4308,8.2623-2.4084,11.0821,1.4426c2.8209,3.8498,1.7989,5.1778,4.59,7.1864
				C219.918,193.5682,210.385,199.1356,210.385,199.1356"/>
			<path style="fill:none;stroke:#724437;stroke-width:0.941;stroke-miterlimit:10;" d="M210.385,199.1356
				c0,0-5.6831-5.1789-9.1972-6.0509c-3.5176-0.8754-6.4245-1.6694-7.9816-3.9071c-1.5583-2.2366-7.2757-9.0529-8.0056-10.8976
				c-0.731-1.8436,0.739-8.6817,1.1137-10.327c0.377-1.6477,2.7602,0.9808,2.3374,3.356c-0.4228,2.3729-0.1696,6.3225,0.4274,7.0432
				c0.5969,0.7206,2.8782,3.6653,4.9704,4.2841c2.0911,0.6198,4.7986,0.7264,7.4052,0.2944
				c2.6044-0.4308,8.2623-2.4084,11.0821,1.4426c2.8209,3.8498,1.7989,5.1778,4.59,7.1864
				C219.918,193.5682,210.385,199.1356,210.385,199.1356z"/>
			<path style="fill:#BC7A55;" d="M216.3752,191.641c0,0-1.9559-3.2059-2.3477-5.5616c-0.3965-2.3569-3.7009-3.6563-4.9395-5.698
				c-1.8677-3.0799-1.5354-4.346-1.8333-7.9999c-0.189-2.3099-3.3663,0.1948-3.6035,2.4371
				c-0.2658,2.4989,0.1593,5.3302,0.9762,6.7017c0.8158,1.3704-2.8965,1.3795-2.8965,1.3795"/>
			<path style="fill:none;stroke:#724437;stroke-width:0.941;stroke-miterlimit:10;" d="M216.3752,191.641
				c0,0-1.9559-3.2059-2.3477-5.5616c-0.3965-2.3569-3.7009-3.6563-4.9395-5.698c-1.8677-3.0799-1.5354-4.346-1.8333-7.9999
				c-0.189-2.3099-3.3663,0.1948-3.6035,2.4371c-0.2658,2.4989,0.1593,5.3302,0.9762,6.7017
				c0.8158,1.3704-2.8965,1.3795-2.8965,1.3795"/>
			<path style="fill:#BC7A55;" d="M194.1366,189.9372c-2.7442-3.6115-5.6086-6.9835-5.509-8.9635
				c0.1009-1.9833,3.6345-8.3929,4.5018-9.8423c0.8674-1.4505,2.3237,1.7897,1.1848,3.9163
				c-1.1389,2.1209-2.0785,6.1678-1.8356,7.0696c0.2429,0.9028,2.7041,3.5233,3.4821,5.4001"/>
			<path style="fill:none;stroke:#724437;stroke-width:0.941;stroke-miterlimit:10;" d="M194.1366,189.9372
				c-2.7442-3.6115-5.6086-6.9835-5.509-8.9635c0.1009-1.9833,3.6345-8.3929,4.5018-9.8423
				c0.8674-1.4505,2.3237,1.7897,1.1848,3.9163c-1.1389,2.1209-2.0785,6.1678-1.8356,7.0696
				c0.2429,0.9028,2.7041,3.5233,3.4821,5.4001"/>
			<path style="fill:#BC7A55;" d="M194.7771,190.8286c-1.5629-1.5009-3.246-4.0664-3.8166-5.9672
				c-0.5695-1.9009,4.4995-9.2614,5.5296-10.5997c1.0289-1.3372,2.0967,2.0475,0.7195,4.0263
				c-1.3784,1.9776-2.8003,5.6717-2.5585,6.5734c0.6485,0.6244,3.3778,2.9962,4.7573,4.2016"/>
			<path style="fill:none;stroke:#724437;stroke-width:0.941;stroke-miterlimit:10;" d="M194.7771,190.8286
				c-1.5629-1.5009-3.246-4.0664-3.8166-5.9672c-0.5695-1.9009,4.4995-9.2614,5.5296-10.5997
				c1.0289-1.3372,2.0967,2.0475,0.7195,4.0263c-1.3784,1.9776-2.8003,5.6717-2.5585,6.5734
				c0.6485,0.6244,3.3778,2.9962,4.7573,4.2016"/>
			<path style="fill:#BC7A55;" d="M195.6307,190.7748c-0.7963-0.2463-1.6855-0.8124-1.5858-2.7247
				c0.1157-2.2113-0.4434-4.4284-0.2165-5.4551c0.3586-1.635,4.181-5.2798,5.2225-6.256c1.0404-0.9773,1.4712,1.9937,0.0538,3.4557
				c-1.4196,1.4609-2.0509,2.6021-1.9742,3.3881c0.0367,0.3701,0.5385,3.0604,0.786,4.2818
				c2.2022,0.4182,4.833-0.0091,6.7705,2.2469"/>
			<path style="fill:none;stroke:#724437;stroke-width:0.941;stroke-miterlimit:10;" d="M195.6307,190.7748
				c-0.7963-0.2463-1.6855-0.8124-1.5858-2.7247c0.1157-2.2113-0.4434-4.4284-0.2165-5.4551c0.3586-1.635,4.181-5.2798,5.2225-6.256
				c1.0404-0.9773,1.4712,1.9937,0.0538,3.4557c-1.4196,1.4609-2.0509,2.6021-1.9742,3.3881
				c0.0367,0.3701,0.5385,3.0604,0.786,4.2818c2.2022,0.4182,4.833-0.0091,6.7705,2.2469"/>
			<path style="fill:#DEE0E2;" d="M209.2518,198.5719c0,0-0.5076-4.126,3.0501-6.4359c3.5588-2.3122,4.1077-2.5115,5.3302-2.0521
				c1.2237,0.4618,3.8453,4.0756,3.8453,4.0756l-6.9,9.2477C214.5786,203.406,209.9164,200.3169,209.2518,198.5719"/>
			<path style="fill:none;stroke:#B2B2B2;stroke-width:0.912;stroke-miterlimit:10;" d="M209.2518,198.5719
				c0,0-0.5076-4.126,3.0501-6.4359c3.5588-2.3122,4.1077-2.5115,5.3302-2.0521c1.2237,0.4618,3.8453,4.0756,3.8453,4.0756
				l-6.9,9.2477C214.5786,203.406,209.9164,200.3169,209.2518,198.5719z"/>
			<path style="opacity:0.2;enable-background:new    ;" d="M215.1606,202.6268l-0.582,0.7803c0,0-4.6622-3.0913-5.3268-4.8352
				c0,0-0.3804-3.1177,1.8585-5.4517C210.1501,196.9552,211.1,200.5759,215.1606,202.6268"/>
			<path style="fill:#8C050B;" d="M219.6865,196.5622c-1.4803-2.6961-3.2059-4.5477-5.4127-5.6717
				c1.8619-1.1194,2.4085-1.1641,3.3595-0.8066c1.2237,0.4617,3.8441,4.0778,3.8441,4.0778L219.6865,196.5622z"/>
			<path style="fill:#DEE0E2;" d="M249.6947,235.7114c1.6087-1.7519,2.9137-3.7822,3.9564-5.9168
				c1.2512-2.554,1.9604-5.03,1.3371-7.8773c-0.4548-2.0853-1.1698-4.0607-1.9787-6.0314c-0.0092-0.0161-0.0103-0.031-0.0149-0.0481
				c-0.3346-0.1937-0.6749-0.3839-1.0198-0.5684c-11.7512-6.2055-30.4963-21.1111-30.4963-21.1111s-2.5219-1.3841-5.431,2.0693
				c-2.9115,3.4546-1.4689,7.1795-1.4689,7.1795c10.0245,10.9881,23.7041,24.2609,33.9371,33.5006
				C248.9202,236.5215,249.3143,236.1274,249.6947,235.7114"/>
			<path style="fill:none;stroke:#B2B2B2;stroke-width:0.912;stroke-miterlimit:10;" d="M249.6947,235.7114
				c1.6087-1.7519,2.9137-3.7822,3.9564-5.9168c1.2512-2.554,1.9604-5.03,1.3371-7.8773c-0.4548-2.0853-1.1698-4.0607-1.9787-6.0314
				c-0.0092-0.0161-0.0103-0.031-0.0149-0.0481c-0.3346-0.1937-0.6749-0.3839-1.0198-0.5684
				c-11.7512-6.2055-30.4963-21.1111-30.4963-21.1111s-2.5219-1.3841-5.431,2.0693c-2.9115,3.4546-1.4689,7.1795-1.4689,7.1795
				c10.0245,10.9881,23.7041,24.2609,33.9371,33.5006C248.9202,236.5215,249.3143,236.1274,249.6947,235.7114z"/>
			<path style="fill:#8C050B;" d="M254.774,221.0637c-0.4526-1.7714-1.069-3.4775-1.7645-5.1778
				c-0.0092-0.0161-0.0103-0.031-0.0149-0.0481c-0.3346-0.1937-0.6749-0.3839-1.0198-0.5684
				c-11.7512-6.2055-30.4963-21.1111-30.4963-21.1111s-2.0154-0.5225-2.9927,0.3037c9.5512,7.4671,17.7883,15.5265,28.5621,22.4746
				C249.2192,218.5613,252.3552,219.5937,254.774,221.0637"/>
			<path style="opacity:0.2;enable-background:new    ;" d="M214.6049,201.7446c0.0447,1.1893-0.0263,1.6614-0.0263,1.6614
				c8.2393,9.0288,18.9422,19.601,28.1761,28.2104c-1.2787-2.1036-2.2767-4.4021-3.0135-6.6604
				C231.5408,216.9079,223.5066,209.065,214.6049,201.7446"/>
			<path style="fill:#DEE0E2;" d="M244.4092,233.1208c1.8436,1.7989,4.6759,3.0455,7.1898,3.4615
				c1.4093,0.2337,2.9252,0.3529,4.3093,0.2142c0.1891-1.0885,0.3988-2.1999,0.6348-3.3342
				c3.0741-14.689,9.9065-41.3354,8.1981-52.9492l10.932-26.6464c0,0-14.6902,3.4167-20.4971,3.0741
				c-5.8068-0.3403-10.6168,5.8092-9.9328,9.5674c0.684,3.7559,0.3414,20.8395-1.0255,28.0122
				c-0.8284,4.3529-0.5855,12.7297-1.1068,20.9335"/>
			<path style="fill:none;stroke:#B2B2B2;stroke-width:0.912;stroke-miterlimit:10;" d="M244.4092,233.1208
				c1.8436,1.7989,4.6759,3.0455,7.1898,3.4615c1.4093,0.2337,2.9252,0.3529,4.3093,0.2142
				c0.1891-1.0885,0.3988-2.1999,0.6348-3.3342c3.0741-14.689,9.9065-41.3354,8.1981-52.9492l10.932-26.6464
				c0,0-14.6902,3.4167-20.4971,3.0741c-5.8068-0.3403-10.6168,5.8092-9.9328,9.5674c0.684,3.7559,0.3414,20.8395-1.0255,28.0122
				c-0.8284,4.3529-0.5855,12.7297-1.1068,20.9335"/>
			<path style="fill:#DEE0E2;" d="M256.8295,170.8484c-3.0948-1.2409-3.5794-0.1535-6.6765,1.9123
				c4.5133,3.8671,5.5869,6.2308,3.6528,13.3256c-4.5499,14.6557-4.6806,33.2393-7.4419,48.3453
				c0.9579,0.094,1.8768,1.7955,2.79,1.705c0.1914-1.0908,0.7975-5.4139,1.0369-6.5482c3.0742-14.689,7.1165-44.1243,5.4093-55.7403
				L256.8295,170.8484z"/>
			<path style="fill:#BFBFBF;" d="M255.1762,156.9408c-5.8069-0.3403-10.6169,5.8092-9.9329,9.5674
				c0.6841,3.7582,0.3415,20.8395-1.0255,28.0122c-0.9166,4.8112-0.5259,14.5332-1.2981,23.5081
				c0.2612,1.3761,0.6267,2.7465,1.0403,4.1226c4.6691-19.491-0.2681-36.2505,4.157-56.4805c0-1.2879,0.645-3.2243,1.9341-3.8705
				c8.5682-1.1389,16.1269-3.2953,24.4648-5.1136l1.1561-2.8175C275.672,153.869,260.9807,157.2846,255.1762,156.9408"/>
			<path style="fill:#DEE0E2;" d="M278.6029,156.7037c0,0-15.3077,3.1486-18.7405,4.7217c-3.4339,1.5744-7.5828,13.5891-9.73,20.457
				c-2.1449,6.8678,60.3762,4.5797,62.3801,1.5743c2.0029-3.0032,3.8613-17.3106-2.5757-20.3137
				C303.4952,160.1353,287.618,156.2728,278.6029,156.7037"/>
			<path style="fill:#DEE0E2;" d="M303.926,179.6355c-1.501,6.6719,4.3104,14.4472,3.1234,23.2308
				c-1.187,8.7825-7.4236,12.3768-8.3745,16.1739c-0.9488,3.8006-0.4102,15.6045-0.4102,18.2169
				c0,2.6101-2.1025,4.2876-9.2901,7.1211c-7.1864,2.8335-19.4658,1.4242-22.3142,2.1357
				c-2.8496,0.7127-1.6614-1.1858-4.0412-0.2956c-2.3798,0.8938-14.4759-0.6519-16.1373-2.7911
				c-1.6625-2.1358,0.7116-7.1222,2.1358-11.3937c1.423-4.2715,2.1357-13.2934-4.7493-18.9926
				c-6.8828-5.698-8.071-13.7689-3.3217-22.7897c4.7482-9.0208,12.3436-12.3448,12.3436-16.6174"/>
			<path style="fill:none;stroke:#B2B2B2;stroke-width:0.912;stroke-miterlimit:10;" d="M303.926,179.6355
				c-1.501,6.6719,4.3104,14.4472,3.1234,23.2308c-1.187,8.7825-7.4236,12.3768-8.3745,16.1739
				c-0.9488,3.8006-0.4102,15.6045-0.4102,18.2169c0,2.6101-2.1025,4.2876-9.2901,7.1211
				c-7.1864,2.8335-19.4658,1.4242-22.3142,2.1357c-2.8496,0.7127-1.6614-1.1858-4.0412-0.2956
				c-2.3798,0.8938-14.4759-0.6519-16.1373-2.7911c-1.6625-2.1358,0.7116-7.1222,2.1358-11.3937
				c1.423-4.2715,2.1357-13.2934-4.7493-18.9926c-6.8828-5.698-8.071-13.7689-3.3217-22.7897
				c4.7482-9.0208,12.3436-12.3448,12.3436-16.6174"/>
			<path style="opacity:0.2;enable-background:new    ;" d="M306.6163,205.0445c-3.5703,5.1663-8.716,9.1915-14.9308,10.0199
				c-18.0347,3.1085-43.2638,6.2101-53.7099-11.5118c0.6898,3.5886,2.6513,6.8049,5.8951,9.4883
				c6.885,5.698,6.1723,14.7211,4.7493,18.9926c-1.3784,4.1351-3.6368,8.9314-2.2721,11.1726
				c5.6074-6.4451,8.2267-14.5355,4.7206-24.2759c11.6045,8.3815,32.2368-5.1583,41.9072,3.2231
				c6.9744,6.3947,0.849,17.5008-8.4571,23.4062c1.6019-0.275,3.1189-0.6554,4.4583-1.1825c7.1875-2.8335,9.29-4.5086,9.29-7.1233
				c0-2.609-0.5396-14.4152,0.4102-18.2146C299.5422,215.5754,304.8002,212.2686,306.6163,205.0445"/>
			<path style="fill:none;stroke:#B2B2B2;stroke-width:0.912;stroke-miterlimit:10;" d="M263.6813,246.5139
				c0,0-3.0867-2.6112-1.8974-6.8838c1.1859-4.2727,0.7115-5.9352-0.7127-9.258c-1.4242-3.3251,2.8473-5.9352,0.4744-9.9706
				c-2.3752-4.0355-5.4608-12.3447-4.0366-17.8044c1.4265-5.462,10.4473-15.9059,11.396-21.1295"/>
			<path style="fill:#DEE0E2;" d="M319.4824,232.2798c0.8295-18.9261-1.0324-50.6598-1.3475-56.3464
				c-0.1306-2.3431-0.755-5.3187,0.432-9.6636c1.1836-4.3448-21.3036-10.7383-21.3036-10.7383l-1.9891,46.3173
				c-1.4082,11.5977,2.8736,29.3918,4.2211,37.19c0.1317,0.7689,0.228,1.619,0.3036,2.5357
				c0.2544,0.1065,0.4916,0.2773,0.6875,0.5328c0.2945,0.3827,0.6015,0.7252,0.9201,1.0346
				c0.6279,0.3392,1.2753,0.6497,1.9524,0.9075c3.5107,1.3314,6.9676,1.2546,10.586,1.1836
				c1.3841-0.4182,2.7304-1.0106,3.7249-2.0338c0.8846-0.9086,1.4609-1.9891,1.8528-3.1463
				C319.3804,237.8438,319.3495,235.2898,319.4824,232.2798"/>
			<path style="fill:none;stroke:#B2B2B2;stroke-width:0.912;stroke-miterlimit:10;" d="M319.4824,232.2798
				c0.8295-18.9261-1.0324-50.6598-1.3475-56.3464c-0.1306-2.3431-0.755-5.3187,0.432-9.6636
				c1.1836-4.3448-21.3036-10.7383-21.3036-10.7383l-1.9891,46.3173c-1.4082,11.5977,2.8736,29.3918,4.2211,37.19
				c0.1317,0.7689,0.228,1.619,0.3036,2.5357c0.2544,0.1065,0.4916,0.2773,0.6875,0.5328c0.2945,0.3827,0.6015,0.7252,0.9201,1.0346
				c0.6279,0.3392,1.2753,0.6497,1.9524,0.9075c3.5107,1.3314,6.9676,1.2546,10.586,1.1836
				c1.3841-0.4182,2.7304-1.0106,3.7249-2.0338c0.8846-0.9086,1.4609-1.9891,1.8528-3.1463
				C319.3804,237.8438,319.3495,235.2898,319.4824,232.2798z"/>
			<path style="opacity:0.2;enable-background:new    ;" d="M308.2399,190.7656c-4.2429,2.507-9.7369,1.8321-12.3986-2.1128
				l-0.5672,13.196c-0.8066,6.6422,0.2533,13.439,1.5583,21.8869c1.5697,1.1011,3.3033,1.8928,5.0736,2.6651
				c-0.133-4.9269-0.3254-7.1509-0.8628-12.3127C299.839,205.5692,300.0315,195.8781,308.2399,190.7656"/>
			<path style="fill:#BFBFBF;" d="M315.7689,244.5329c0.7035-0.3461,1.3566-0.7723,1.8997-1.3337
				c0.8845-0.9086,1.4609-1.988,1.8527-3.1464c-0.142-2.2091-0.1718-4.7607-0.0401-7.773
				c0.8296-18.9261-1.0323-50.6598-1.3474-56.3464c-0.1307-2.3431-0.7551-5.3187,0.432-9.6636l-3.7158,0.4755
				c1.2271,0.7528-0.8674,2.5139-2.8473,2.9894c1.6476,3.3766,3.2403,7.3995,3.5508,11.3078
				C318.8017,203.7497,312.4598,222.8351,315.7689,244.5329"/>
			<path style="fill:#BFBFBF;" d="M318.5669,166.2698c1.1847-4.3448-21.306-10.7383-21.306-10.7383l-0.1031,2.4474
				c6.036,2.8233,12.4696,4.3941,17.6922,8.7664"/>
			<path style="fill:#470E02;" d="M292.2974,160.2052c0,0,14.1974-0.6027,14.4976-6.6444
				c0.3014-6.0406-7.2505-10.5711-4.2279-10.5711c3.0202,0,8.457,0.6027,6.9469-5.1343c-1.509-5.7392-10.2686-7.852-0.6039-10.8735
				c9.6659-3.0214,23.8622-1.8126,22.9559-25.3712c-0.5087-13.2407-17.6142-51.7747-42.5901-52.068
				c-25.37-0.3036-20.8407,7.8521-28.0901,13.29c-7.2494,5.4367-14.8517,7.4717-7.8533,23.3156
				c8.6691,19.6251-0.6026,42.9476,2.4188,48.9893c3.0192,6.0418,8.1546,5.1343,4.8318,13.5925
				c-3.3228,8.4582,4.5293,17.2166,10.2685,12.9887C276.5886,157.4897,292.2974,160.2052,292.2974,160.2052"/>
			<path style="fill:#BC7A55;" d="M267.5151,138.8889c0,0,4.1489,13.0208-0.4296,22.32
				c-5.8241,11.8337-1.7164,9.1583-0.8582,14.3063c0.8582,5.1526,1.7473,8.7435,1.7473,8.7435s8.268-13.1777,11.129-15.1805
				c2.8611-2.0029,11.16-11.5874,11.16-11.5874c-5.6716-5.6567-5.2477-13.4034-0.574-22.6064L267.5151,138.8889z"/>
			<path style="fill:none;stroke:#724437;stroke-width:0.941;stroke-miterlimit:10;" d="M267.5151,138.8889
				c0,0,4.1489,13.0208-0.4296,22.32c-5.8241,11.8337-1.7164,9.1583-0.8582,14.3063c0.8582,5.1526,1.7473,8.7435,1.7473,8.7435
				s8.268-13.1777,11.129-15.1805c2.8611-2.0029,11.16-11.5874,11.16-11.5874c-5.6716-5.6567-5.2477-13.4034-0.574-22.6064
				L267.5151,138.8889z"/>
			<path style="fill:#935441;" d="M273.4159,149.5287c2.3203,0.1478,8.2692-3.9002,14.0669-9.5077
				c0.5695-1.6557,1.3096-3.3686,2.2091-5.1389l-22.1767,4.0068c0,0,0.9624,3.0272,1.4482,7.2002
				C270.5801,148.1824,272.08,149.4417,273.4159,149.5287"/>
			<path style="fill:#470E02;" d="M261.7885,64.9111c0,0-8.7573-0.4537-11.9299,9.3634c-3.1716,9.816,1.6613,19.9333,6.7979,21.8983
				C261.7885,98.1367,261.7885,64.9111,261.7885,64.9111"/>
			<path style="fill:#BC7A55;" d="M280.8189,61.1346c-16.5177,0-26.8836,5.7393-26.1274,18.7268
				c0.7551,12.9886,4.3803,13.4424,1.6602,21.4457c-2.7166,8.0033-4.5304,12.1282-0.7539,20.843
				c6.4347,14.8483,13.1365,23.2572,17.8181,23.5586c4.684,0.3036,24.1647-12.6851,27.3386-24.9163
				c3.1715-12.2325,7.852-30.9604,4.5304-41.8339C301.9621,68.0827,296.8278,61.1346,280.8189,61.1346"/>
			
				<path style="fill:none;stroke:#724437;stroke-width:0.941;stroke-linecap:round;stroke-linejoin:round;stroke-miterlimit:10;" d="
				M280.8189,61.1346c-16.5177,0-26.8836,5.7393-26.1274,18.7268c0.7551,12.9886,4.3803,13.4424,1.6602,21.4457
				c-2.7166,8.0033-4.5304,12.1282-0.7539,20.843c6.4347,14.8483,13.1365,23.2572,17.8181,23.5586
				c4.684,0.3036,24.1647-12.6851,27.3386-24.9163c3.1715-12.2325,7.852-30.9604,4.5304-41.8339
				C301.9621,68.0827,296.8278,61.1346,280.8189,61.1346z"/>
			<path style="fill:#BC7A55;" d="M270.5011,99.3948c0.2498,2.5654,0.0985,11.176-3.9794,13.895
				c-4.079,2.7178,0.1009,3.6733,2.3649,3.9254c2.2653,0.2509,5.8413-0.1512,6.6468-0.9063"/>
			
				<path style="fill:none;stroke:#724437;stroke-width:0.941;stroke-linecap:round;stroke-linejoin:round;stroke-miterlimit:10;" d="
				M270.5011,99.3948c0.2498,2.5654,0.0985,11.176-3.9794,13.895c-4.079,2.7178,0.1009,3.6733,2.3649,3.9254
				c2.2653,0.2509,5.8413-0.1512,6.6468-0.9063"/>
			<path style="fill:#A53D3D;" d="M271.9826,129.9908c-2.1575-0.1043-5.5021-1.9467-5.6785-3.741l11.9425-0.2349
				C278.2466,126.0149,277.1088,130.2394,271.9826,129.9908"/>
			<path style="fill:#7F0A0A;" d="M279.6983,125.3331c0.3288-0.0779-0.8983,1.9181-8.5327,1.5239
				c-7.6332-0.3941-7.4316-1.9169-7.4316-1.9169s1.7794,0.5787,3.2403-0.2681c1.4059-0.8158,3.4832-0.739,6.0017-0.3781
				C275.4944,124.6537,277.1696,125.9324,279.6983,125.3331"/>
			<path style="fill:#571B01;" d="M292.939,103.177c0,0-2.138-4.4376-6.2605-3.8028c-4.1226,0.6313-7.12,4.1649-7.0077,4.6759
				c0.1135,0.5122,1.1034,2.4577,6.6318,1.9799C291.831,105.5557,292.5437,104.0501,292.939,103.177"/>
			<path style="fill:#FFFFFF;" d="M292.939,103.177c0,0-3.089-2.6949-7.2116-2.059c-4.1202,0.6325-6.1689,2.4199-6.0566,2.9321
				c0.1134,0.5122,1.1034,2.4577,6.6318,1.9799C291.831,105.5557,292.5437,104.0501,292.939,103.177"/>
			<path style="fill:#3A0C00;" d="M296.1232,95.9952c-0.6806-0.9636-2.8634-3.7856-6.4439-3.4408
				c-3.5795,0.3438-6.8817,1.3715-6.9309,2.5219c-0.0481,1.1492,1.8298,0.5741,4.0675,0c2.2389-0.5752,5.6384-1.0346,7.0695-0.1146
				C295.3166,95.8806,296.8049,96.9588,296.1232,95.9952"/>
			<path style="fill:#A06047;" d="M300.6422,119.8528c-3.1739,12.2336-24.9312,26.651-29.5625,24.3858
				c-0.3071-0.1512-0.6932-0.0939-1.053-0.1993c1.2466,0.8628,2.4153,1.3382,3.4694,1.4059
				c4.6817,0.3001,24.1624-12.6874,27.334-24.9186L300.6422,119.8528z"/>
			<path style="fill:#A06047;" d="M279.6112,71.8924c-3.0191,2.4154-3.6253-1.8126-5.4379-2.4153
				c-9.7644-2.8736-16.2519,7.9105-18.422,16.7698c2.625-1.9467,5.1332-4.9899,5.1332-4.9899l6.4759-7.0409
				c2.4704-0.7883,5.116-0.6245,5.9066,0.6966c2.028,3.3778,6.6467,4.5305,12.685-0.3025c6.0417-4.8329,9.3645,1.0461,7.5519,7.0879
				c-1.8127,6.0406-0.3014,7.6905,3.3228,8.2943c3.6241,0.6027,7.852,10.4084,6.0406,14.0348
				c-1.8127,3.623-0.6039,6.9469-0.6039,6.9469s1.3853-6.1391,4.9624-9.9191c-1.0885-11.4991-7.4648-15.8382-10.0978-26.7461
				C294.7127,66.4545,286.2579,67.0606,279.6112,71.8924"/>
			<path style="fill:#D39479;" d="M258.0154,123.3555c-6.1918-14.9491-1.7198-14.3957-0.33-23.5024
				c1.2753-8.3551,0.1776-5.7954-0.5763-18.784c-0.126-2.1587,0.063-4.1134,0.5271-5.8779
				c-0.8536,0.5843-1.8046,1.0312-2.876,1.2981c-0.1134,1.0656-0.1374,2.1873-0.0676,3.3721
				c0.7551,12.9875,4.3804,13.4412,1.6603,21.4446c-2.7167,8.0033-4.5304,12.1281-0.7539,20.843
				c5.9661,13.7689,12.1636,21.9945,16.7686,23.3603C268.064,142.5371,262.814,134.944,258.0154,123.3555"/>
			<path style="fill:#3A0C00;" d="M267.4854,96.3733c1.2695,0.7792,2.1483-0.8364,0.7161-1.8722
				c-1.4311-1.0335-4.4732-1.3738-6.5333-1.2592c-2.0567,0.1146-4.118,1.603-4.5625,2.6376
				c-0.4492,1.0358,0.6668-0.2899,1.5216-0.574C261.2213,94.4461,264.3505,94.453,267.4854,96.3733"/>
			<path style="fill:#470E02;" d="M261.1858,60.2524c0,0-16.0089,7.6321-11.3272,20.4695
				c4.6816,12.8374,11.0236-1.9639,11.0236-1.9639l6.9469-7.553L261.1858,60.2524z"/>
			<path style="fill:#4F1911;" d="M273.2681,72.4149c2.0281,3.3778,6.6456,4.5293,12.6851-0.3025
				c6.0417-4.8341,9.3634-2.8221,7.5519,3.2185c-1.8127,6.0418-0.3014,10.2697,3.3227,10.8747
				c3.6242,0.6027,7.8521,12.9875,6.0406,16.6116c-1.8126,3.6242-0.6061,6.9481-0.6061,6.9481s2.1163-9.3645,7.8544-12.0812
				c5.7393-2.7201,2.1152-20.2392-3.6229-21.4469c-5.7393-1.2099,6.6444,1.0118,2.1139-9.5627
				c-4.5293-10.571-8.7595-17.2154-21.1443-18.7245c-12.3837-1.5112-25.6749,4.833-26.2787,13.5902
				c-0.6027,8.7596,2.4165,11.7799,5.1343,10.5722C269.039,70.9036,272.3607,70.9036,273.2681,72.4149"/>
			<path style="fill:#BFBFBF;" d="M286.5455,152.1274c0,0,12.716,7.278,12.5109,10.8426
				c-0.2051,3.5657-2.0154,13.2189-6.5275,14.9903c-3.458,1.3566-2.2378-9.0964-7.6963-6.9606
				c-5.462,2.1357-14.9915,10.5217-16.8889,13.6085c0,0,11.1909-21.9155,17.8365-24.2896c1.4666-0.3414,3.5416-2.2847,2.3202-3.7375
				C287.1883,155.496,286.6761,153.3041,286.5455,152.1274"/>
			<path style="fill:#BFBFBF;" d="M268.8042,156.2763c-0.1456,7.1531-6.0441,10.0039-1.3028,18.0461
				c0,0,1.3921,6.7716,0.4411,10.5722c0,0-2.1025-8.9073-5.9008-10.5722c-3.7994-1.6614-7.5966,4.511-7.5966,4.511
				s0.7116-15.6709,6.4096-19.9401C266.5504,154.6195,268.8042,156.2763,268.8042,156.2763"/>
			<path style="fill:#DEE0E2;" d="M286.5455,150.1921c0,0,13.2076,5.1,13.0036,8.6645c-0.204,3.5657-2.8484,15.4326-6.1724,17.0929
				c-3.3216,1.6613-3.0856-9.0208-8.5441-6.8851c-5.462,2.1369-14.9583,12.1064-16.8568,15.1943
				c0,0,11.1577-23.5013,17.8044-25.8765c1.4666-0.3391,3.5416-2.2835,2.3202-3.7352
				C287.1883,153.5596,286.6761,151.3712,286.5455,150.1921"/>
			<path style="fill:none;stroke:#BFBFBF;stroke-width:0.973;stroke-miterlimit:10;" d="M286.5455,150.1921
				c0,0,13.2076,5.1,13.0036,8.6645c-0.204,3.5657-2.8484,15.4326-6.1724,17.0929c-3.3216,1.6613-3.0856-9.0208-8.5441-6.8851
				c-5.462,2.1369-14.9583,12.1064-16.8568,15.1943c0,0,11.1577-23.5013,17.8044-25.8765c1.4666-0.3391,3.5416-2.2835,2.3202-3.7352
				C287.1883,153.5596,286.6761,151.3712,286.5455,150.1921z"/>
			<path style="fill:#DEE0E2;" d="M268.8042,154.3399c-0.1456,7.1554-6.0441,10.0062-1.3028,18.0473
				c0,0,1.4242,8.0721,0.4732,11.8704c0,0-2.1346-10.2079-5.934-11.8704c-3.7995-1.6591-7.5966,4.5098-7.5966,4.5098
				s0.7115-15.6675,6.4095-19.9413C266.5504,152.6842,268.8042,154.3399,268.8042,154.3399"/>
			<path style="opacity:0.2;enable-background:new    ;" d="M288.8211,159.1831c0.5557-0.5557,0.1547-2.0658-0.3804-3.2975
				c-0.1983,1.1412-1.5881,2.2491-2.6605,2.4966c-6.6467,2.3741-17.8044,25.8765-17.8044,25.8765
				c1.8985-3.0867,11.3948-13.0562,16.8568-15.1943c0.2819-0.1111,0.5477-0.1787,0.8009-0.2245
				C285.0548,165.3269,285.3333,161.9708,288.8211,159.1831"/>
			<path style="fill:none;stroke:#BFBFBF;stroke-width:0.973;stroke-miterlimit:10;" d="M268.8042,154.3399
				c-0.1456,7.1554-6.0441,10.0062-1.3028,18.0473c0,0,1.4242,8.0721,0.4732,11.8704c0,0-2.1346-10.2079-5.934-11.8704
				c-3.7995-1.6591-7.5966,4.5098-7.5966,4.5098s0.7115-15.6675,6.4095-19.9413
				C266.5504,152.6842,268.8042,154.3399,268.8042,154.3399z"/>
			<g style="opacity:0.4;">
				<g>
					<g>
						<g>
							<defs>
								<rect id="SVGID_1_" x="209.4054" y="174.9366" width="34.0551" height="51.0483"/>
							</defs>
							<clipPath id="SVGID_2_">
								<use xlink:href="#SVGID_1_"  style="overflow:visible;"/>
							</clipPath>
							<path style="clip-path:url(#SVGID_2_);fill:#545454;" d="M238.3113,174.9377l-26.5502,1.2535
								c-1.4529,0.071-2.5345,1.3715-2.3328,2.8129l6.2216,44.8473c0.1753,1.2649,1.2856,2.1896,2.5631,2.1311l22.8849-1.0403
								c1.3761-0.0642,2.4382-1.2364,2.3591-2.6136l-2.5562-45.0558C240.8229,175.9128,239.6668,174.8747,238.3113,174.9377"/>
						</g>
					</g>
				</g>
			</g>
			<path style="fill:#9DB2AA;" d="M238.9415,173.6774l-26.5502,1.2534c-1.4529,0.0699-2.5322,1.3704-2.3328,2.8107l6.2205,44.8484
				c0.1753,1.2661,1.2867,2.1907,2.5642,2.1311l22.886-1.0403c1.3727-0.0619,2.4336-1.2363,2.358-2.6113l-2.5574-45.0581
				C241.4508,174.6547,240.2958,173.6121,238.9415,173.6774"/>
			<path style="fill:none;stroke:#6F7B7F;stroke-width:0.747;stroke-miterlimit:10;" d="M238.9415,173.6774l-26.5502,1.2534
				c-1.4529,0.0699-2.5322,1.3704-2.3328,2.8107l6.2205,44.8484c0.1753,1.2661,1.2867,2.1907,2.5642,2.1311l22.886-1.0403
				c1.3727-0.0619,2.4336-1.2363,2.358-2.6113l-2.5574-45.0581C241.4508,174.6547,240.2958,173.6121,238.9415,173.6774z"/>
			<path style="fill:#BC7A55;" d="M249.7371,213.2918c-1.7634-1.6213-3.7845,0.4744-6.3133-0.6748
				c-5.9638-2.7075-1.132-20.2289,1.108-18.1642c2.8404,2.6261,11.0797,9.7209,13.9167,12.386
				C262.6639,210.7917,251.4993,214.9143,249.7371,213.2918"/>
			<path style="fill:none;stroke:#724437;stroke-width:0.941;stroke-miterlimit:10;" d="M249.7371,213.2918
				c-1.7634-1.6213-3.7845,0.4744-6.3133-0.6748c-5.9638-2.7075-1.132-20.2289,1.108-18.1642
				c2.8404,2.6261,11.0797,9.7209,13.9167,12.386C262.6639,210.7917,251.4993,214.9143,249.7371,213.2918z"/>
			<path style="fill:#BC7A55;" d="M242.2276,197.9349c0,0-7.4545-1.8574-8.5625-0.833c-1.1102,1.0243-8.3069,6.0223-9.1892,7.176
				c-0.8823,1.1573,2.2835,1.6672,4.1878,0.2728c1.9032-1.3933,6.845-3.7388,6.845-3.7388l6.2411,1.815"/>
			<path style="fill:none;stroke:#724437;stroke-width:0.941;stroke-miterlimit:10;" d="M242.2276,197.9349
				c0,0-7.4545-1.8574-8.5625-0.833c-1.1102,1.0243-8.3069,6.0223-9.1892,7.176c-0.8823,1.1573,2.2835,1.6672,4.1878,0.2728
				c1.9032-1.3933,6.845-3.7388,6.845-3.7388l6.2411,1.815"/>
			<path style="fill:#BC7A55;" d="M241.4324,206.7035l-4.5362-1.0655c0,0-5.1136,1.7828-7.1955,2.8908
				c-2.083,1.1091-4.1707-0.2968-3.1314-1.3131c1.0346-1.0163,7.9758-5.6178,9.4745-5.8045
				c1.3692-0.1707,5.4161,1.2111,5.4161,1.2111"/>
			<path style="fill:none;stroke:#724437;stroke-width:0.941;stroke-miterlimit:10;" d="M241.4324,206.7035l-4.5362-1.0655
				c0,0-5.1136,1.7828-7.1955,2.8908c-2.083,1.1091-4.1707-0.2968-3.1314-1.3131c1.0346-1.0163,7.9758-5.6178,9.4745-5.8045
				c1.3692-0.1707,5.4161,1.2111,5.4161,1.2111"/>
			<path style="fill:#BC7A55;" d="M241.2755,206.754c0,0-4.4056-1.5491-5.132-1.0793c-0.7242,0.472-6.7361,4.142-7.4889,4.834
				c-0.7505,0.6921,0.5592,2.1851,3.6035,1.0725c2.6514-0.9694,5.2225-1.7038,5.2225-1.7038l5.3268,2.2538"/>
			<path style="fill:none;stroke:#724437;stroke-width:0.941;stroke-miterlimit:10;" d="M241.2755,206.754
				c0,0-4.4056-1.5491-5.132-1.0793c-0.7242,0.472-6.7361,4.142-7.4889,4.834c-0.7505,0.6921,0.5592,2.1851,3.6035,1.0725
				c2.6514-0.9694,5.2225-1.7038,5.2225-1.7038l5.3268,2.2538"/>
			<path style="fill:#BC7A55;" d="M244.6716,194.6441c-0.8754-0.4216-5.1652-2.1598-6.4565-2.1735
				c-2.0281-0.0241-9.6785,2.0658-11.1497,2.468c-1.4712,0.4056,1.3646,2.4623,3.5118,2.3156
				c2.1461-0.1444,6.334-1.3245,6.9275-1.0209c0.5958,0.3025,4.8306,1.642,4.8306,1.642"/>
			<path style="fill:none;stroke:#724437;stroke-width:0.941;stroke-miterlimit:10;" d="M244.6716,194.6441
				c-0.8754-0.4216-5.1652-2.1598-6.4565-2.1735c-2.0281-0.0241-9.6785,2.0658-11.1497,2.468
				c-1.4712,0.4056,1.3646,2.4623,3.5118,2.3156c2.1461-0.1444,6.334-1.3245,6.9275-1.0209c0.5958,0.3025,4.8306,1.642,4.8306,1.642
				"/>
			<path style="fill:#A06047;" d="M249.422,212.8599c-1.1641-0.9339-4.9865,0.755-7.5966-1.1057
				c-0.7688-0.5454,2.0934-1.4094,4.8421-0.377C249.799,212.5528,251.2874,214.3609,249.422,212.8599"/>
			<path style="fill:#D39479;" d="M257.6488,207.2684c-1.5308-1.4081-7.9759-5.6624-10.814-8.2726
				c-1.6958-1.5548-2.2228-3.4923-2.6674-4.4915c3.1349,2.7992,12.0663,10.1701,13.5765,11.9701
				C260.1752,209.3732,260.7894,210.1661,257.6488,207.2684"/>
			<path style="fill:#DEE0E2;" d="M266.0428,209.7937c0,0-8.0182-4.8478-9.2683-5.0861c-1.2489-0.2372-6.8988,7.2311-5.7049,8.1901
				c1.1951,0.9613,8.6404,7.1692,8.6404,7.1692L266.0428,209.7937z"/>
			<path style="fill:none;stroke:#B2B2B2;stroke-width:0.912;stroke-miterlimit:10;" d="M266.0428,209.7937
				c0,0-8.0182-4.8478-9.2683-5.0861c-1.2489-0.2372-6.8988,7.2311-5.7049,8.1901c1.1951,0.9613,8.6404,7.1692,8.6404,7.1692
				L266.0428,209.7937z"/>
			<path style="opacity:0.2;enable-background:new    ;" d="M251.0697,212.8977c1.195,0.9613,8.6403,7.1692,8.6403,7.1692
				l1.8092-2.9367c-0.8238,0.5111-1.7152-0.9407-2.5276-0.0699c-2.1059-2.743-4.2119-5.4803-7.5003-6.3087
				C250.9551,211.7863,250.7213,212.617,251.0697,212.8977"/>
			<path style="opacity:0.2;enable-background:new    ;" d="M266.0428,209.7937c0,0-8.0182-4.8478-9.2683-5.0861l-1.3818,0.8479
				c1.7279,3.1967,7.2884,2.8656,9.3474,6.288L266.0428,209.7937z"/>
			<path style="fill:#DEE0E2;" d="M309.0064,226.8763c-3.3239-3.9484-5.706-4.1764-15.7534-6.3947
				c-10.0497-2.2182-26.9925-13.1181-28.7799-12.1499c-1.7886,0.9659-9.6361,9.7335-5.8664,11.5977
				c3.7662,1.8665,17.4274,15.184,25.3586,22.0335c7.9299,6.8495,17.7642,6.5642,31.5721,2.8232"/>
			<path style="fill:none;stroke:#B2B2B2;stroke-width:0.912;stroke-miterlimit:10;" d="M309.0064,226.8763
				c-3.3239-3.9484-5.706-4.1764-15.7534-6.3947c-10.0497-2.2182-26.9925-13.1181-28.7799-12.1499
				c-1.7886,0.9659-9.6361,9.7335-5.8664,11.5977c3.7662,1.8665,17.4274,15.184,25.3586,22.0335
				c7.9299,6.8495,17.7642,6.5642,31.5721,2.8232"/>
			<path style="opacity:0.2;enable-background:new    ;" d="M277.2761,215.6602c1.9902,1.839,9.5204,7.1359,12.3287,6.8002
				c9.8916-0.9499,16.2518,5.9088,21.4594,12.1373c-0.0721-0.5992-0.0252-1.2592,0.0516-1.9341l-2.1094-5.7873
				c-3.3239-3.9484-5.706-4.1764-15.7534-6.3947c-10.0497-2.2182-26.9925-13.1181-28.7799-12.1499
				c-0.3048,0.1639-0.7872,0.5568-1.3566,1.1034C267.3834,212.3374,273.0814,212.6261,277.2761,215.6602"/>
			<path style="opacity:0.2;enable-background:new    ;" d="M286.7644,239.2691c-5.4494-3.7352-7.3457-6.3201-13.1101-9.4802
				c-0.707-0.7597-1.0988-2.0979-1.8035-2.8599c-5.3371-2.1976-10.1929-5.8996-13.6567-10.9342
				c-0.7974,1.7438-0.9269,3.2746,0.4125,3.9357c3.7662,1.8665,17.4275,15.184,25.3586,22.0335
				c7.93,6.8496,17.7643,6.5643,31.5722,2.8244l-0.8342-2.2881C305.5255,246.1335,295.0702,245.312,286.7644,239.2691"/>
			<path style="fill:#9B897B;" d="M194.1893,243.1087c12.9921,5.6212,21.8204,7.6802,31.4954,10.6317
				c12.9142,3.9416,38.0276,15.7294,55.565,25.7539c0,0,2.1025,0.9865,4.7711,1.7118c0.0813,0.0859,0.1707,0.1684,0.2795,0.2429
				c8.9589,6.3477,4.9372,17.259,0.5706,25.1913c-2.5001,4.5476-5.3256,8.095-10.4335,9.6452
				c-4.7505,1.4392-9.2465,1.2718-13.8343,0.2624c-5.6441-2.8129-11.5862-6.3259-17.8365-10.7624
				c-29.0606-20.6356-41.0444-27.6845-54.4054-33.4799L194.1893,243.1087z"/>
			<path style="fill:#AD9D92;" d="M261.3921,272.0066c-26.9593-12.3184-32.0741-15.5724-61.9379-24.3389
				c-4.2211-1.2007-8.7103-2.7097-12.6071-2.5001c-3.356,0.1742-4.6725,0.8571-5.7782,1.5778
				c0.6107-0.5672-1.8023-1.5606-1.147-1.996c3.8235-2.5505,9.2637-2.5941,14.1906-1.195
				c12.991,5.6212,21.896,7.2345,31.5722,10.186c12.913,3.9416,38.0275,15.7294,55.565,25.7539
				C281.2497,279.4943,262.7326,272.9221,261.3921,272.0066"/>
			<path style="fill:#7C716C;" d="M190.3601,272.3056c-0.0573-0.244-0.1822-0.4881-0.4113-0.7172
				c-1.8505-1.8276-2.2309-3.9965-0.6039-6.7865c0.2303,0.0676-0.9292,4.4158,1.163,4.4158c2.0911,0,4.4296-1.2133,9.5868,1.5274
				c25.5396,14.2364,49.4408,37.4844,76.3198,47.5078c-3.6058,0.5866-10.2571-0.9235-13.8113-1.7049
				c-5.6442-2.8129-11.5862-6.3259-17.8376-10.7624C215.7049,285.1499,203.7211,278.101,190.3601,272.3056"/>
			<path style="fill:none;stroke:#837167;stroke-width:0.435;stroke-miterlimit:10;" d="M290.3393,288.5116
				c-1.2318-3.6756-4.8066-7.671-8.0881-8.4261c0,0,4.4731,6.3099,4.001,10.4049"/>
			<path style="fill:none;stroke:#605650;stroke-width:0.912;stroke-miterlimit:10;" d="M277.299,318.4568
				c-6.1208-0.2566-10.3567-0.409-14.6958-1.9088c-5.6442-2.8141-11.5863-6.3271-17.8377-10.7624
				c-29.0594-20.6357-41.3274-28.0798-54.685-33.8764"/>
			<path style="fill:none;stroke:#605650;stroke-width:0.912;stroke-miterlimit:10;" d="M281.2497,279.4943
				c0,0,2.1025,0.9888,4.7711,1.7118c0.0813,0.0859,0.1707,0.1684,0.2784,0.2429"/>
			<path style="fill:none;stroke:#605650;stroke-width:0.912;stroke-miterlimit:10;" d="M190.7909,242.6
				c3.0581,0.4262,8.1271,2.492,10.3041,3.3239c9.4275,3.6092,16.7296,5.4184,24.5897,7.8154
				c12.9142,3.9415,38.0276,15.7294,55.565,25.7539"/>
			<g style="opacity:0.3;">
				<g>
					<g>
						<g>
							<defs>
								<rect id="SVGID_3_" x="296.263" y="100.2748" width="10.6146" height="5.1778"/>
							</defs>
							<clipPath id="SVGID_4_">
								<use xlink:href="#SVGID_3_"  style="overflow:visible;"/>
							</clipPath>
							<path style="clip-path:url(#SVGID_4_);" d="M306.8741,100.2748l-10.3842,0.0389c0,0-0.1547,3.9553-0.2303,4.9143
								c-0.0756,0.959,4.1099-1.4196,4.6473-2.1495c0.5362-0.731,4.5293-1.4976,5.1835-1.5365
								C306.3688,100.8866,306.8741,100.2748,306.8741,100.2748"/>
						</g>
					</g>
				</g>
			</g>
			<g style="opacity:0.3;">
				<g>
					<g>
						<g>
							<defs>
								<rect id="SVGID_5_" x="255.4088" y="97.2911" width="41.2701" height="11.2517"/>
							</defs>
							<clipPath id="SVGID_6_">
								<use xlink:href="#SVGID_5_"  style="overflow:visible;"/>
							</clipPath>
							<path style="clip-path:url(#SVGID_6_);fill:none;stroke:#000000;stroke-width:0.956;stroke-miterlimit:10;" d="
								M257.5216,97.6085c3.8934-0.0298,7.8475,0.2418,11.8669,0.8525c0.5557,0.032,0.9785,0.5866,0.9384,1.242
								c0.0779,1.7645-0.448,3.6001-0.8364,5.8183c-0.0378,0.6852-0.5592,1.1985-1.1378,1.1217
								c-4.6828,0.1158-8.9669-0.4102-12.8523-1.596"/>
						</g>
					</g>
					<g>
						<g>
							<defs>
								<rect id="SVGID_7_" x="255.4088" y="97.2911" width="41.2701" height="11.2517"/>
							</defs>
							<clipPath id="SVGID_8_">
								<use xlink:href="#SVGID_7_"  style="overflow:visible;"/>
							</clipPath>
							<path style="clip-path:url(#SVGID_8_);fill:none;stroke:#000000;stroke-width:0.956;stroke-miterlimit:10;" d="
								M278.6213,107.3282c4.9039,0.6829,12.2049,1.352,16.3904,0.4916c0.5317-0.0092,0.9728-0.5019,1.0095-1.1275
								c0.1971-1.383,0.3621-4.1615,0.3403-5.9982c0.0378-0.6542-0.3816-1.2134-0.9372-1.2443
								c-4.5591-0.6932-12.0652-0.5477-16.9016-0.3678c-0.558-0.0321-1.0381,0.4743-1.0747,1.1274
								c-0.2784,1.7439,0.0332,3.6276,0.1673,5.8768C277.5786,106.7691,278.0404,107.3408,278.6213,107.3282z"/>
						</g>
					</g>
					<g>
						<g>
							<defs>
								<rect id="SVGID_9_" x="255.4088" y="97.2911" width="41.2701" height="11.2517"/>
							</defs>
							<clipPath id="SVGID_10_">
								<use xlink:href="#SVGID_9_"  style="overflow:visible;"/>
							</clipPath>
							<path style="clip-path:url(#SVGID_10_);fill:none;stroke:#000000;stroke-width:0.956;stroke-miterlimit:10;" d="
								M270.375,100.3263c0,0,0.4286-1.5686,3.0089-1.572c2.5792-0.0023,3.9014,3.56,3.9014,3.56"/>
						</g>
					</g>
				</g>
			</g>
			<path style="fill:#4D585E;" d="M306.8741,99.6423l-10.3842,0.0378c0,0-0.1547,3.9552-0.2303,4.9131
				c-0.0757,0.9625,4.1099-1.4196,4.6473-2.1495c0.5362-0.7287,4.5293-1.4975,5.1835-1.5353
				C306.3688,100.253,306.8741,99.6423,306.8741,99.6423"/>
			<g style="opacity:0.24;">
				<g>
					<g>
						<g>
							<defs>
								<rect id="SVGID_11_" x="253.949" y="97.2006" width="42.4182" height="10.618"/>
							</defs>
							<clipPath id="SVGID_12_">
								<use xlink:href="#SVGID_11_"  style="overflow:visible;"/>
							</clipPath>
							<path style="clip-path:url(#SVGID_12_);fill:#F2F2F2;" d="M268.3539,106.2386c-4.951,0.1191-9.4631-0.4767-13.5215-1.8069
								c-0.5282-0.0699-0.912-0.6107-0.8754-1.2352c-0.0389-1.3979,0.0436-2.9916,0.2739-4.8158
								c0.0366-0.6531,0.5167-1.1583,1.0747-1.1263c4.6061-0.1718,9.2969,0.0745,14.084,0.7998
								c0.5557,0.0332,0.9763,0.5901,0.9384,1.2432c0.0779,1.7645-0.448,3.6-0.8364,5.8183
								C269.4527,105.7997,268.9313,106.3142,268.3539,106.2386"/>
						</g>
					</g>
					<g>
						<g>
							<defs>
								<rect id="SVGID_13_" x="253.949" y="97.2006" width="42.4182" height="10.618"/>
							</defs>
							<clipPath id="SVGID_14_">
								<use xlink:href="#SVGID_13_"  style="overflow:visible;"/>
							</clipPath>
							<path style="clip-path:url(#SVGID_14_);fill:#F2F2F2;" d="M278.6213,106.9215c4.9039,0.6828,12.2049,1.352,16.3904,0.4904
								c0.5317-0.0069,0.9728-0.5019,1.0095-1.1264c0.1971-1.3841,0.3621-4.1638,0.3403-5.9982
								c0.0378-0.6542-0.3816-1.2122-0.9372-1.2454c-4.5591-0.6932-12.0652-0.5466-16.9016-0.3667
								c-0.558-0.0321-1.0381,0.4721-1.0747,1.1275c-0.2784,1.7427,0.0332,3.6275,0.1673,5.8756
								C277.5786,106.3623,278.0404,106.9341,278.6213,106.9215"/>
						</g>
					</g>
				</g>
			</g>
			<path style="fill:none;stroke:#4D585E;stroke-width:0.956;stroke-miterlimit:10;" d="M268.3539,106.2386
				c-4.951,0.1191-9.4631-0.4767-13.5215-1.8069c-0.5282-0.0699-0.912-0.6107-0.8754-1.2352
				c-0.0389-1.3979,0.0436-2.9916,0.2739-4.8158c0.0366-0.6531,0.5167-1.1583,1.0747-1.1263
				c4.6061-0.1718,9.2969,0.0745,14.084,0.7998c0.5557,0.0332,0.9763,0.5901,0.9384,1.2432c0.0779,1.7645-0.448,3.6-0.8364,5.8183
				C269.4527,105.7997,268.9313,106.3142,268.3539,106.2386z"/>
			<path style="fill:none;stroke:#4D585E;stroke-width:0.956;stroke-miterlimit:10;" d="M278.6213,106.9215
				c4.9039,0.6828,12.2049,1.352,16.3904,0.4904c0.5317-0.0069,0.9728-0.5019,1.0095-1.1264
				c0.1971-1.3841,0.3621-4.1638,0.3403-5.9982c0.0378-0.6542-0.3816-1.2122-0.9372-1.2454
				c-4.5591-0.6932-12.0652-0.5466-16.9016-0.3667c-0.558-0.0321-1.0381,0.4721-1.0747,1.1275
				c-0.2784,1.7427,0.0332,3.6275,0.1673,5.8756C277.5786,106.3623,278.0404,106.9341,278.6213,106.9215z"/>
			<path style="fill:none;stroke:#4D585E;stroke-width:0.956;stroke-miterlimit:10;" d="M270.375,99.9207
				c0,0,0.4286-1.5686,3.0089-1.5732c2.5792-0.0023,3.9014,3.5589,3.9014,3.5589"/>
			<path style="fill:#BC7A55;" d="M303.9856,104.206c0.951-1.7004,5.3703-8.2451,7.616-4.2337
				c2.2435,4.0148,1.4998,13.3495-2.5138,14.8471c-4.0149,1.4964-1.43,4.2864-3.7433,6.5997
				c-2.3099,2.3145-4.2555-0.1615-4.5958-1.996"/>
			
				<path style="fill:none;stroke:#724437;stroke-width:0.941;stroke-linecap:round;stroke-linejoin:round;stroke-miterlimit:10;" d="
				M303.9856,104.206c0.951-1.7004,5.3703-8.2451,7.616-4.2337c2.2435,4.0148,1.4998,13.3495-2.5138,14.8471
				c-4.0149,1.4964-1.43,4.2864-3.7433,6.5997c-2.3099,2.3145-4.2555-0.1615-4.5958-1.996"/>
			<path style="fill:#BC7A55;" d="M307.1903,105.9384c3.7009-1.6259,4.0619,4.9933-0.4503,5.9592
				c-2.5287,0.5443-4.6072,2.8003-4.5144,5.0587"/>
			
				<path style="fill:none;stroke:#724437;stroke-width:0.941;stroke-linecap:round;stroke-linejoin:round;stroke-miterlimit:10;" d="
				M307.1903,105.9384c3.7009-1.6259,4.0619,4.9933-0.4503,5.9592c-2.5287,0.5443-4.6072,2.8003-4.5144,5.0587"/>
			<g>
				<g>
					<g>
						<defs>
							<path id="SVGID_15_" d="M285.7274,101.118c-4.1202,0.6348-6.1689,2.4199-6.0566,2.9321
								c0.1134,0.5122,1.1034,2.4577,6.6318,1.9822c5.5285-0.4755,6.2411-1.9822,6.6364-2.8541c0,0-2.4726-2.1564-5.9466-2.1564
								C286.5857,101.0207,286.1617,101.0516,285.7274,101.118"/>
						</defs>
						<clipPath id="SVGID_16_">
							<use xlink:href="#SVGID_15_"  style="overflow:visible;"/>
						</clipPath>
						<path style="clip-path:url(#SVGID_16_);fill:#BC682A;" d="M283.9835,103.1862c0,2.0143,1.6339,3.6448,3.6448,3.6448
							c2.0166,0,3.6493-1.6305,3.6493-3.6448c0-2.0143-1.6327-3.6459-3.6493-3.6459
							C285.6175,99.5403,283.9835,101.1719,283.9835,103.1862"/>
					</g>
				</g>
				<g>
					<g>
						<defs>
							<path id="SVGID_17_" d="M285.7274,101.118c-4.1202,0.6348-6.1689,2.4199-6.0566,2.9321
								c0.1134,0.5122,1.1034,2.4577,6.6318,1.9822c5.5285-0.4755,6.2411-1.9822,6.6364-2.8541c0,0-2.4726-2.1564-5.9466-2.1564
								C286.5857,101.0207,286.1617,101.0516,285.7274,101.118"/>
						</defs>
						<clipPath id="SVGID_18_">
							<use xlink:href="#SVGID_17_"  style="overflow:visible;"/>
						</clipPath>
						<path style="clip-path:url(#SVGID_18_);fill:#713213;" d="M285.653,103.1862c0,1.0908,0.8845,1.9753,1.9753,1.9753
							c1.0919,0,1.9765-0.8834,1.9765-1.9753c0-1.0919-0.8846-1.9765-1.9765-1.9765
							C286.5387,101.2097,285.653,102.0943,285.653,103.1862"/>
					</g>
				</g>
				<g>
					<g>
						<defs>
							<path id="SVGID_19_" d="M285.7274,101.118c-4.1202,0.6348-6.1689,2.4199-6.0566,2.9321
								c0.1134,0.5122,1.1034,2.4577,6.6318,1.9822c5.5285-0.4755,6.2411-1.9822,6.6364-2.8541c0,0-2.4726-2.1564-5.9466-2.1564
								C286.5857,101.0207,286.1617,101.0516,285.7274,101.118"/>
						</defs>
						<clipPath id="SVGID_20_">
							<use xlink:href="#SVGID_19_"  style="overflow:visible;"/>
						</clipPath>
						<path style="clip-path:url(#SVGID_20_);fill:#FFFFFF;" d="M288.3582,102.383c0,0.4824,0.3907,0.8742,0.8719,0.8742
							c0.4824,0,0.8731-0.3918,0.8731-0.8742c0-0.4801-0.3907-0.8719-0.8731-0.8719
							C288.7477,101.5122,288.3582,101.9029,288.3582,102.383"/>
					</g>
				</g>
			</g>
			<path style="fill:#571B01;" d="M256.6771,102.6236c0,0,1.9811-4.1088,5.7943-3.521c3.8143,0.5878,6.5883,3.8556,6.4829,4.3276
				c-0.1043,0.4709-1.0198,2.2698-6.1369,1.8321C257.7049,104.8224,257.0426,103.4314,256.6771,102.6236"/>
			<path style="fill:#FFFFFF;" d="M256.6771,102.6236c0,0,2.8599-2.4921,6.6731-1.9089c3.8143,0.5878,5.7083,2.2435,5.6041,2.7155
				c-0.1043,0.4709-1.0198,2.2698-6.1369,1.8321C257.7049,104.8224,257.0426,103.4314,256.6771,102.6236"/>
			<g>
				<g>
					<g>
						<defs>
							<path id="SVGID_21_" d="M256.676,102.6236c0.3666,0.8055,1.0278,2.1988,6.1414,2.6387
								c5.1159,0.4389,6.0326-1.3623,6.1369-1.8332c0.1054-0.4709-1.7909-2.1266-5.6041-2.7144
								c-0.4022-0.0596-0.7917-0.0859-1.1687-0.0859C258.9664,100.6288,256.676,102.6236,256.676,102.6236"/>
						</defs>
						<clipPath id="SVGID_22_">
							<use xlink:href="#SVGID_21_"  style="overflow:visible;"/>
						</clipPath>
						<path style="clip-path:url(#SVGID_22_);fill:#BC682A;" d="M260.8111,102.6293c0,1.8631,1.5079,3.3744,3.371,3.3744
							c1.863,0,3.3732-1.5113,3.3732-3.3744c0-1.863-1.5102-3.372-3.3732-3.372
							C262.319,99.2573,260.8111,100.7663,260.8111,102.6293"/>
					</g>
				</g>
				<g>
					<g>
						<defs>
							<path id="SVGID_23_" d="M256.676,102.6236c0.3666,0.8055,1.0278,2.1988,6.1414,2.6387
								c5.1159,0.4389,6.0326-1.3623,6.1369-1.8332c0.1054-0.4709-1.7909-2.1266-5.6041-2.7144
								c-0.4022-0.0596-0.7917-0.0859-1.1687-0.0859C258.9664,100.6288,256.676,102.6236,256.676,102.6236"/>
						</defs>
						<clipPath id="SVGID_24_">
							<use xlink:href="#SVGID_23_"  style="overflow:visible;"/>
						</clipPath>
						<path style="clip-path:url(#SVGID_24_);fill:#713213;" d="M262.3534,102.6293c0,1.0106,0.8181,1.8287,1.8275,1.8287
							c1.0117,0,1.8287-0.8181,1.8287-1.8287c0-1.0106-0.817-1.8275-1.8287-1.8275
							C263.1715,100.803,262.3534,101.6187,262.3534,102.6293"/>
					</g>
				</g>
				<g>
					<g>
						<defs>
							<path id="SVGID_25_" d="M256.676,102.6236c0.3666,0.8055,1.0278,2.1988,6.1414,2.6387
								c5.1159,0.4389,6.0326-1.3623,6.1369-1.8332c0.1054-0.4709-1.7909-2.1266-5.6041-2.7144
								c-0.4022-0.0596-0.7917-0.0859-1.1687-0.0859C258.9664,100.6288,256.676,102.6236,256.676,102.6236"/>
						</defs>
						<clipPath id="SVGID_26_">
							<use xlink:href="#SVGID_25_"  style="overflow:visible;"/>
						</clipPath>
						<path style="clip-path:url(#SVGID_26_);fill:#FFFFFF;" d="M264.8569,101.8892c0,0.4468,0.3598,0.8077,0.8055,0.8077
							c0.4457,0,0.8055-0.3609,0.8055-0.8077c0-0.4458-0.3598-0.8067-0.8055-0.8067
							C265.2167,101.0825,264.8569,101.4434,264.8569,101.8892"/>
					</g>
				</g>
			</g>
			<path style="opacity:0.2;enable-background:new    ;" d="M268.6208,154.2436c-4.739,4.8467-7.6733,11.443-7.2104,17.9419
				c0.2097,0.0459,0.4193,0.1089,0.6313,0.2017c3.796,1.6625,5.934,11.8703,5.934,11.8703
				c0.9511-3.7983-0.4754-11.8703-0.4754-11.8703c-4.7402-8.0412,1.1595-10.8942,1.305-18.0473
				C268.8053,154.3399,268.74,154.2986,268.6208,154.2436"/>
		</g>
	</g>
	
		<radialGradient id="SVGID_27_" cx="589.3512" cy="4276.8882" r="140.2997" gradientTransform="matrix(0.8238 0 0 0.1151 -206.6364 -48.7749)" gradientUnits="userSpaceOnUse">
		<stop  offset="0.2487" style="stop-color:#000000"/>
		<stop  offset="1" style="stop-color:#000000;stop-opacity:0"/>
	</radialGradient>
	<path style="opacity:0.3;fill:url(#SVGID_27_);enable-background:new    ;" d="M394.4524,443.4955
		c0,8.9177-51.7541,16.1476-115.5813,16.1476c-63.8411,0-115.5814-7.2299-115.5814-16.1476
		c0-8.9176,51.7403-16.1487,115.5814-16.1487C342.6983,427.3479,394.4524,434.5779,394.4524,443.4955z"/>
</g>
</svg>
