<?xml version="1.0" encoding="utf-8"?>
<!-- Generator: Adobe Illustrator 16.0.0, SVG Export Plug-In . SVG Version: 6.00 Build 0)  -->
<!DOCTYPE svg PUBLIC "-//W3C//DTD SVG 1.1//EN" "http://www.w3.org/Graphics/SVG/1.1/DTD/svg11.dtd">
<svg version="1.1" id="Capa_1" xmlns="http://www.w3.org/2000/svg" xmlns:xlink="http://www.w3.org/1999/xlink" x="0px" y="0px"
	 width="112.0449px" height="33.6758px" viewBox="0 -0.0002 112.0449 33.6758" enable-background="new 0 -0.0002 112.0449 33.6758"
	 xml:space="preserve">
<polygon id="XMLID_1449_" fill="#F4941B" points="14.5215,-0.0002 97.5234,-0.0002 112.0449,16.8376 97.5234,33.6755 
	14.5215,33.6755 0,16.8367 "/>
<g>
	<g>
		<path fill="#FFFFFF" d="M57.1572,21.3259h-2.2944v-1.3711c-0.3809,0.5332-0.8306,0.9297-1.3491,1.1914
			c-0.5186,0.2598-1.0415,0.3906-1.5688,0.3906c-1.0723,0-1.9907-0.4316-2.7554-1.2969c-0.7646-0.8633-1.147-2.0703-1.147-3.6172
			c0-1.582,0.3721-2.7842,1.1162-3.6084c0.7441-0.8223,1.6846-1.2344,2.8213-1.2344c1.043,0,1.9453,0.4336,2.707,1.3008V8.4402
			h2.4702V21.3259z M50.5649,16.4558c0,0.9971,0.1377,1.7178,0.4131,2.1631c0.3984,0.6445,0.9551,0.9668,1.6699,0.9668
			c0.5684,0,1.0518-0.2422,1.4502-0.7246c0.3984-0.4844,0.5977-1.207,0.5977-2.168c0-1.0723-0.1934-1.8438-0.5801-2.3154
			s-0.8818-0.708-1.4854-0.708c-0.5859,0-1.0767,0.2334-1.4722,0.6982C50.7627,14.8347,50.5649,15.53,50.5649,16.4558z"/>
		<path fill="#FFFFFF" d="M64.9971,18.3552l2.4609,0.4121c-0.3164,0.9023-0.8164,1.5898-1.499,2.0625
			c-0.6826,0.4707-1.5361,0.707-2.5615,0.707c-1.623,0-2.8242-0.5313-3.6035-1.5918c-0.6152-0.8496-0.9238-1.9219-0.9238-3.2168
			c0-1.5469,0.4043-2.7578,1.2129-3.6338s1.832-1.3145,3.0684-1.3145c1.3887,0,2.4844,0.459,3.2871,1.375
			c0.8027,0.918,1.1855,2.3223,1.1504,4.2158h-6.1875c0.0176,0.7324,0.2168,1.3027,0.5977,1.709
			c0.3809,0.4082,0.8555,0.6113,1.4238,0.6113c0.3867,0,0.7129-0.1055,0.9766-0.3164S64.8623,18.824,64.9971,18.3552z
			 M65.1377,15.8582c-0.0176-0.7148-0.2031-1.2578-0.5547-1.6309c-0.3516-0.3711-0.7793-0.5576-1.2832-0.5576
			c-0.5391,0-0.9844,0.1963-1.3359,0.5889s-0.5234,0.9258-0.5176,1.5996H65.1377z"/>
	</g>
</g>
</svg>
