<?xml version="1.0" encoding="utf-8"?>
<!-- Generator: Adobe Illustrator 21.0.0, SVG Export Plug-In . SVG Version: 6.00 Build 0)  -->
<svg version="1.1" id="Capa_1" xmlns="http://www.w3.org/2000/svg" xmlns:xlink="http://www.w3.org/1999/xlink" x="0px" y="0px"
	 viewBox="0 0 922.9082 216.7204" style="enable-background:new 0 0 922.9082 216.7204;" xml:space="preserve">
<g style="opacity:0.2;">
	<path style="fill:#FFFFFF;" d="M339.2212,142.7746c-3.8378,3.8389-10.0566,3.8389-13.8857,0l-35.8916-35.8789
		c-3.8301-3.8428-3.8301-10.0615,0-13.8955l35.8916-35.8867c3.8291-3.8301,10.0479-3.8301,13.8857,0l35.8858,35.8867
		c3.834,3.834,3.834,10.0527,0,13.8955L339.2212,142.7746z"/>
	<path style="fill:#F3F3F3;" d="M341.5785,140.3884c-3.8379,3.8389-10.0566,3.8389-13.886,0l-35.8911-35.8791
		c-3.8305-3.8426-3.8305-10.0613,0-13.8954l35.8911-35.8864c3.8293-3.8303,10.0481-3.8303,13.886,0l35.8857,35.8864
		c3.834,3.8342,3.834,10.0528,0,13.8954L341.5785,140.3884z"/>
	<path style="fill:#E7E7E7;" d="M343.9358,138.002c-3.8379,3.8388-10.0566,3.8388-13.8862,0l-35.8906-35.8793
		c-3.831-3.8424-3.831-10.061,0-13.8954l35.8906-35.8861c3.8296-3.8305,10.0483-3.8305,13.8862,0l35.8855,35.8861
		c3.834,3.8344,3.834,10.053,0,13.8954L343.9358,138.002z"/>
	<path style="fill:#DBDBDB;" d="M346.2931,135.6158c-3.838,3.8388-10.0566,3.8388-13.8864,0l-35.8901-35.8795
		c-3.8314-3.8422-3.8314-10.0608,0-13.8954l35.8901-35.8857c3.8298-3.8307,10.0484-3.8307,13.8864,0l35.8854,35.8857
		c3.834,3.8346,3.834,10.0531,0,13.8954L346.2931,135.6158z"/>
	<path style="fill:#CECECE;" d="M348.6503,133.2294c-3.838,3.8387-10.0566,3.8387-13.8866,0l-35.8896-35.8796
		c-3.8318-3.8421-3.8318-10.0606,0-13.8953l35.8896-35.8854c3.83-3.8308,10.0486-3.8308,13.8866,0l35.8852,35.8854
		c3.834,3.8347,3.834,10.0533,0,13.8953L348.6503,133.2294z"/>
	<path style="fill:#C2C2C2;" d="M351.0076,130.8432c-3.8381,3.8387-10.0566,3.8387-13.8869,0l-35.8891-35.8798
		c-3.8322-3.8419-3.8322-10.0603,0-13.8953l35.8891-35.8851c3.8302-3.831,10.0488-3.831,13.8869,0l35.8851,35.8851
		c3.834,3.8349,3.834,10.0534,0,13.8953L351.0076,130.8432z"/>
	<path style="fill:#B6B6B6;" d="M353.3649,128.4568c-3.8381,3.8386-10.0566,3.8386-13.8871,0l-35.8885-35.88
		c-3.8326-3.8417-3.8326-10.0601,0-13.8952l35.8885-35.8848c3.8305-3.8312,10.049-3.8312,13.8871,0l35.8849,35.8848
		c3.834,3.8351,3.834,10.0535,0,13.8952L353.3649,128.4568z"/>
	<path style="fill:#AAAAAA;" d="M355.7222,126.0705c-3.8382,3.8386-10.0566,3.8386-13.8873,0l-35.888-35.8802
		c-3.833-3.8415-3.833-10.0599,0-13.8952l35.888-35.8844c3.8307-3.8314,10.0492-3.8314,13.8873,0l35.8848,35.8844
		c3.834,3.8353,3.834,10.0537,0,13.8952L355.7222,126.0705z"/>
	<path style="fill:#9E9E9E;" d="M358.0795,123.6842c-3.8382,3.8385-10.0566,3.8385-13.8875,0l-35.8875-35.8804
		c-3.8334-3.8413-3.8334-10.0596,0-13.8951l35.8875-35.8841c3.8309-3.8316,10.0493-3.8316,13.8875,0l35.8847,35.8841
		c3.834,3.8355,3.834,10.0538,0,13.8951L358.0795,123.6842z"/>
	<path style="fill:#929292;" d="M360.4368,121.298c-3.8383,3.8385-10.0566,3.8385-13.8878,0l-35.887-35.8806
		c-3.8339-3.8411-3.8339-10.0594,0-13.8951l35.887-35.8838c3.8312-3.8318,10.0495-3.8318,13.8878,0l35.8845,35.8838
		c3.834,3.8357,3.834,10.0539,0,13.8951L360.4368,121.298z"/>
	<path style="fill:#868686;" d="M362.794,118.9117c-3.8383,3.8384-10.0566,3.8384-13.888,0l-35.8865-35.8808
		c-3.8343-3.8409-3.8343-10.0592,0-13.895l35.8865-35.8835c3.8314-3.832,10.0497-3.832,13.888,0l35.8844,35.8835
		c3.834,3.8359,3.834,10.0541,0,13.895L362.794,118.9117z"/>
	<path style="fill:#797979;" d="M365.1513,116.5254c-3.8384,3.8384-10.0566,3.8384-13.8883,0l-35.886-35.8809
		c-3.8347-3.8408-3.8347-10.0589,0-13.895l35.886-35.8831c3.8316-3.8321,10.0499-3.8321,13.8883,0l35.8842,35.8831
		c3.834,3.836,3.834,10.0542,0,13.895L365.1513,116.5254z"/>
	<path style="fill:#6D6D6D;" d="M367.5086,114.1391c-3.8384,3.8383-10.0567,3.8383-13.8885,0l-35.8855-35.8811
		c-3.8351-3.8406-3.8351-10.0587,0-13.8949l35.8855-35.8828c3.8318-3.8323,10.0501-3.8323,13.8885,0l35.8841,35.8828
		c3.834,3.8362,3.834,10.0544,0,13.8949L367.5086,114.1391z"/>
	<path style="fill:#616161;" d="M369.8659,111.7527c-3.8385,3.8383-10.0567,3.8383-13.8887,0l-35.885-35.8813
		c-3.8355-3.8404-3.8355-10.0585,0-13.8949l35.885-35.8825c3.8321-3.8325,10.0503-3.8325,13.8887,0l35.8839,35.8825
		c3.834,3.8364,3.834,10.0545,0,13.8949L369.8659,111.7527z"/>
	<path style="fill:#555555;" d="M372.2232,109.3664c-3.8385,3.8382-10.0567,3.8382-13.889,0l-35.8845-35.8815
		c-3.836-3.8402-3.836-10.0582,0-13.8948l35.8845-35.8822c3.8323-3.8327,10.0504-3.8327,13.889,0l35.8838,35.8822
		c3.834,3.8366,3.834,10.0546,0,13.8948L372.2232,109.3664z"/>
	<path style="fill:#494949;" d="M374.5805,106.9801c-3.8386,3.8382-10.0567,3.8382-13.8892,0l-35.884-35.8817
		c-3.8364-3.84-3.8364-10.058,0-13.8948l35.884-35.8818c3.8325-3.8329,10.0506-3.8329,13.8892,0l35.8837,35.8818
		c3.834,3.8368,3.834,10.0548,0,13.8948L374.5805,106.9801z"/>
	<path style="fill:#3D3D3D;" d="M376.9378,104.5938c-3.8387,3.8381-10.0567,3.8381-13.8894,0L327.1649,68.712
		c-3.8368-3.8398-3.8368-10.0578,0-13.8947l35.8835-35.8815c3.8328-3.8331,10.0508-3.8331,13.8894,0l35.8835,35.8815
		c3.834,3.837,3.834,10.0549,0,13.8947L376.9378,104.5938z"/>
	<path style="fill:#313131;" d="M379.295,102.2076c-3.8387,3.8381-10.0567,3.8381-13.8896,0l-35.883-35.8821
		c-3.8372-3.8396-3.8372-10.0575,0-13.8947l35.883-35.8812c3.833-3.8333,10.051-3.8333,13.8896,0l35.8834,35.8812
		c3.834,3.8372,3.834,10.055,0,13.8947L379.295,102.2076z"/>
	<path style="fill:#242424;" d="M381.6523,99.8213c-3.8387,3.838-10.0567,3.838-13.8899,0L331.88,63.939
		c-3.8376-3.8395-3.8376-10.0573,0-13.8946l35.8824-35.8809c3.8332-3.8334,10.0511-3.8334,13.8899,0l35.8832,35.8809
		c3.834,3.8373,3.834,10.0552,0,13.8946L381.6523,99.8213z"/>
	<path style="fill:#181818;" d="M384.0096,97.435c-3.8388,3.838-10.0567,3.838-13.8901,0l-35.8819-35.8824
		c-3.8381-3.8393-3.8381-10.0571,0-13.8946l35.8819-35.8805c3.8335-3.8336,10.0514-3.8336,13.8901,0l35.8831,35.8805
		c3.834,3.8375,3.834,10.0553,0,13.8946L384.0096,97.435z"/>
	<path style="fill:#0C0C0C;" d="M386.3669,95.0487c-3.8389,3.8379-10.0567,3.8379-13.8904,0L336.5951,59.166
		c-3.8385-3.8391-3.8385-10.0568,0-13.8945l35.8814-35.8802c3.8337-3.8338,10.0515-3.8338,13.8904,0l35.8829,35.8802
		c3.834,3.8377,3.834,10.0555,0,13.8945L386.3669,95.0487z"/>
	<path d="M388.7242,92.6624c-3.8389,3.8379-10.0567,3.8379-13.8906,0l-35.8809-35.8828c-3.8389-3.8389-3.8389-10.0566,0-13.8945
		l35.8809-35.8799c3.8339-3.834,10.0517-3.834,13.8906,0l35.8828,35.8799c3.834,3.8379,3.834,10.0556,0,13.8945L388.7242,92.6624z"
		/>
</g>
<g style="opacity:0.2;">
	<path style="fill:#FFFFFF;" d="M193.8736,141.8577c-3.8389,3.8399-10.0566,3.8399-13.8945,0l-35.8838-35.8779
		c-3.8379-3.8428-3.8379-10.0654,0-13.8955l35.8838-35.8867c3.8379-3.8301,10.0556-3.8301,13.8945,0l35.8828,35.8867
		c3.8301,3.8301,3.8301,10.0527,0,13.8955L193.8736,141.8577z"/>
	<path style="fill:#F3F3F3;" d="M196.2307,139.4714c-3.8389,3.8398-10.0566,3.8398-13.8945,0l-35.8838-35.8781
		c-3.8375-3.8427-3.8375-10.065,0-13.8955l35.8838-35.8863c3.8379-3.8303,10.0556-3.8303,13.8945,0l35.8828,35.8863
		c3.8301,3.8305,3.8301,10.0528,0,13.8955L196.2307,139.4714z"/>
	<path style="fill:#E7E7E7;" d="M198.5879,137.0851c-3.8389,3.8397-10.0566,3.8397-13.8945,0l-35.8838-35.8784
		c-3.8371-3.8425-3.8371-10.0646,0-13.8955l35.8838-35.886c3.8379-3.8305,10.0556-3.8305,13.8945,0l35.8828,35.886
		c3.8301,3.8309,3.8301,10.053,0,13.8955L198.5879,137.0851z"/>
	<path style="fill:#DBDBDB;" d="M200.945,134.6989c-3.8389,3.8396-10.0566,3.8396-13.8945,0l-35.8838-35.8786
		c-3.8366-3.8424-3.8366-10.0642,0-13.8955l35.8838-35.8856c3.8379-3.8307,10.0556-3.8307,13.8945,0l35.8828,35.8856
		c3.8301,3.8313,3.8301,10.0531,0,13.8955L200.945,134.6989z"/>
	<path style="fill:#CECECE;" d="M203.3022,132.3126c-3.8389,3.8395-10.0566,3.8395-13.8945,0l-35.8838-35.8788
		c-3.8362-3.8422-3.8362-10.0637,0-13.8955l35.8838-35.8852c3.8379-3.8308,10.0556-3.8308,13.8945,0l35.8828,35.8852
		c3.8301,3.8318,3.8301,10.0533,0,13.8955L203.3022,132.3126z"/>
	<path style="fill:#C2C2C2;" d="M205.6593,129.9264c-3.8389,3.8394-10.0566,3.8394-13.8945,0L155.881,94.0473
		c-3.8358-3.8421-3.8358-10.0633,0-13.8955l35.8838-35.8848c3.8379-3.831,10.0556-3.831,13.8945,0l35.8828,35.8848
		c3.8301,3.8322,3.8301,10.0534,0,13.8955L205.6593,129.9264z"/>
	<path style="fill:#B6B6B6;" d="M208.0164,127.5401c-3.8389,3.8393-10.0566,3.8393-13.8945,0l-35.8838-35.8793
		c-3.8354-3.842-3.8354-10.0629,0-13.8955l35.8838-35.8845c3.8379-3.8312,10.0556-3.8312,13.8945,0l35.8828,35.8845
		c3.8301,3.8326,3.8301,10.0535,0,13.8955L208.0164,127.5401z"/>
	<path style="fill:#AAAAAA;" d="M210.3736,125.1539c-3.8389,3.8392-10.0566,3.8392-13.8945,0l-35.8838-35.8795
		c-3.835-3.8418-3.835-10.0625,0-13.8955l35.8838-35.8841c3.8379-3.8314,10.0556-3.8314,13.8945,0l35.8828,35.8841
		c3.8301,3.833,3.8301,10.0537,0,13.8955L210.3736,125.1539z"/>
	<path style="fill:#9E9E9E;" d="M212.7307,122.7676c-3.8389,3.8391-10.0566,3.8391-13.8945,0l-35.8838-35.8798
		c-3.8345-3.8417-3.8345-10.0621,0-13.8955l35.8838-35.8837c3.8379-3.8316,10.0556-3.8316,13.8945,0l35.8828,35.8837
		c3.8301,3.8334,3.8301,10.0538,0,13.8955L212.7307,122.7676z"/>
	<path style="fill:#929292;" d="M215.0879,120.3814c-3.8389,3.839-10.0566,3.839-13.8945,0l-35.8838-35.88
		c-3.8341-3.8416-3.8341-10.0617,0-13.8955l35.8838-35.8834c3.8379-3.8318,10.0556-3.8318,13.8945,0l35.8828,35.8834
		c3.8301,3.8338,3.8301,10.0539,0,13.8955L215.0879,120.3814z"/>
	<path style="fill:#868686;" d="M217.445,117.9951c-3.8389,3.839-10.0566,3.839-13.8945,0l-35.8838-35.8802
		c-3.8337-3.8414-3.8337-10.0613,0-13.8955l35.8838-35.883c3.8379-3.832,10.0556-3.832,13.8945,0l35.8828,35.883
		c3.8301,3.8342,3.8301,10.0541,0,13.8955L217.445,117.9951z"/>
	<path style="fill:#797979;" d="M219.8022,115.6089c-3.8389,3.8389-10.0566,3.8389-13.8945,0l-35.8838-35.8805
		c-3.8333-3.8413-3.8333-10.0608,0-13.8955l35.8838-35.8826c3.8379-3.8321,10.0556-3.8321,13.8945,0l35.8828,35.8826
		c3.8301,3.8347,3.8301,10.0542,0,13.8955L219.8022,115.6089z"/>
	<path style="fill:#6D6D6D;" d="M222.1593,113.2226c-3.8389,3.8388-10.0566,3.8388-13.8945,0L172.381,77.3419
		c-3.8329-3.8411-3.8329-10.0604,0-13.8955l35.8838-35.8822c3.8379-3.8323,10.0556-3.8323,13.8945,0l35.8828,35.8822
		c3.8301,3.8351,3.8301,10.0544,0,13.8955L222.1593,113.2226z"/>
	<path style="fill:#616161;" d="M224.5164,110.8364c-3.8389,3.8387-10.0566,3.8387-13.8945,0l-35.8838-35.8809
		c-3.8324-3.841-3.8324-10.06,0-13.8955l35.8838-35.8819c3.8379-3.8325,10.0556-3.8325,13.8945,0l35.8828,35.8819
		c3.8301,3.8355,3.8301,10.0545,0,13.8955L224.5164,110.8364z"/>
	<path style="fill:#555555;" d="M226.8736,108.4501c-3.8389,3.8386-10.0566,3.8386-13.8945,0l-35.8838-35.8812
		c-3.832-3.8409-3.832-10.0596,0-13.8955l35.8838-35.8815c3.8379-3.8327,10.0556-3.8327,13.8945,0l35.8828,35.8815
		c3.8301,3.8359,3.8301,10.0546,0,13.8955L226.8736,108.4501z"/>
	<path style="fill:#494949;" d="M229.2307,106.0639c-3.8389,3.8385-10.0566,3.8385-13.8945,0l-35.8838-35.8814
		c-3.8316-3.8407-3.8316-10.0592,0-13.8955l35.8838-35.8811c3.8379-3.8329,10.0556-3.8329,13.8945,0l35.8828,35.8811
		c3.8301,3.8363,3.8301,10.0548,0,13.8955L229.2307,106.0639z"/>
	<path style="fill:#3D3D3D;" d="M231.5879,103.6776c-3.8389,3.8384-10.0566,3.8384-13.8945,0L181.8096,67.796
		c-3.8312-3.8406-3.8312-10.0588,0-13.8955l35.8838-35.8808c3.8379-3.8331,10.0556-3.8331,13.8945,0l35.8828,35.8808
		c3.8301,3.8367,3.8301,10.0549,0,13.8955L231.5879,103.6776z"/>
	<path style="fill:#313131;" d="M233.945,101.2914c-3.8389,3.8383-10.0566,3.8383-13.8945,0l-35.8838-35.8819
		c-3.8308-3.8405-3.8308-10.0584,0-13.8955l35.8838-35.8804c3.8379-3.8333,10.0556-3.8333,13.8945,0l35.8828,35.8804
		c3.8301,3.8371,3.8301,10.055,0,13.8955L233.945,101.2914z"/>
	<path style="fill:#242424;" d="M236.3022,98.9051c-3.8389,3.8382-10.0566,3.8382-13.8945,0L186.5239,63.023
		c-3.8304-3.8403-3.8304-10.0579,0-13.8955l35.8838-35.88c3.8379-3.8334,10.0556-3.8334,13.8945,0l35.8828,35.88
		c3.8301,3.8376,3.8301,10.0552,0,13.8955L236.3022,98.9051z"/>
	<path style="fill:#181818;" d="M238.6593,96.5189c-3.8389,3.8381-10.0566,3.8381-13.8945,0L188.881,60.6365
		c-3.8299-3.8402-3.8299-10.0575,0-13.8955l35.8838-35.8796c3.8379-3.8336,10.0556-3.8336,13.8945,0l35.8828,35.8796
		c3.8301,3.838,3.8301,10.0553,0,13.8955L238.6593,96.5189z"/>
	<path style="fill:#0C0C0C;" d="M241.0164,94.1326c-3.8389,3.838-10.0566,3.838-13.8945,0L191.2381,58.25
		c-3.8295-3.84-3.8295-10.0571,0-13.8955l35.8838-35.8793c3.8379-3.8338,10.0556-3.8338,13.8945,0l35.8828,35.8793
		c3.8301,3.8384,3.8301,10.0555,0,13.8955L241.0164,94.1326z"/>
	<path d="M243.3736,91.7464c-3.8389,3.8379-10.0566,3.8379-13.8945,0l-35.8838-35.8828c-3.8291-3.8399-3.8291-10.0567,0-13.8955
		l35.8838-35.8789c3.8379-3.834,10.0556-3.834,13.8945,0l35.8828,35.8789c3.8301,3.8388,3.8301,10.0556,0,13.8955L243.3736,91.7464z
		"/>
</g>
<g style="opacity:0.2;">
	<path style="fill:#FFFFFF;" d="M52.65,138.6447c-3.8379,3.8389-10.0557,3.8389-13.8946,0L2.8726,102.7658
		c-3.8301-3.8418-3.8301-10.0605,0-13.8945l35.8828-35.8877c3.8389-3.8291,10.0567-3.8291,13.8946,0l35.8837,35.8877
		c3.8292,3.834,3.8292,10.0527,0,13.8945L52.65,138.6447z"/>
	<path style="fill:#F3F3F3;" d="M55.0072,136.2585c-3.8379,3.8389-10.0557,3.8389-13.8946,0L5.2297,100.3796
		c-3.8305-3.8419-3.8305-10.0605,0-13.8948l35.8828-35.8872c3.8389-3.8294,10.0567-3.8294,13.8946,0l35.8837,35.8872
		c3.8292,3.8342,3.8292,10.0529,0,13.8948L55.0072,136.2585z"/>
	<path style="fill:#E7E7E7;" d="M57.3644,133.8722c-3.838,3.8388-10.0558,3.8388-13.8947,0L7.5869,97.9933
		c-3.831-3.842-3.831-10.0606,0-13.8951l35.8828-35.8868c3.8389-3.8297,10.0567-3.8297,13.8947,0L93.248,84.0983
		c3.8292,3.8345,3.8292,10.0531,0,13.8951L57.3644,133.8722z"/>
	<path style="fill:#DBDBDB;" d="M59.7215,131.486c-3.838,3.8388-10.0558,3.8388-13.8947,0L9.944,95.6071
		c-3.8314-3.8421-3.8314-10.0606,0-13.8953l35.8828-35.8863c3.8389-3.8299,10.0567-3.8299,13.8947,0l35.8836,35.8863
		c3.8292,3.8347,3.8292,10.0533,0,13.8953L59.7215,131.486z"/>
	<path style="fill:#CECECE;" d="M62.0787,129.0997c-3.8381,3.8387-10.0559,3.8387-13.8948,0L12.3012,93.2208
		c-3.8318-3.8422-3.8318-10.0607,0-13.8956L48.184,43.4394c3.8389-3.8302,10.0567-3.8302,13.8948,0l35.8835,35.8858
		c3.8292,3.8349,3.8292,10.0534,0,13.8956L62.0787,129.0997z"/>
	<path style="fill:#C2C2C2;" d="M64.4359,126.7135c-3.8381,3.8387-10.0559,3.8387-13.8948,0L14.6583,90.8346
		c-3.8322-3.8423-3.8322-10.0607,0-13.8959l35.8828-35.8854c3.8389-3.8305,10.0567-3.8305,13.8948,0l35.8835,35.8854
		c3.8292,3.8352,3.8292,10.0536,0,13.8959L64.4359,126.7135z"/>
	<path style="fill:#B6B6B6;" d="M66.7931,124.3272c-3.8382,3.8386-10.056,3.8386-13.8949,0L17.0154,88.4483
		c-3.8326-3.8424-3.8326-10.0608,0-13.8962l35.8828-35.8849c3.8389-3.8308,10.0567-3.8308,13.8949,0l35.8834,35.8849
		c3.8292,3.8354,3.8292,10.0538,0,13.8962L66.7931,124.3272z"/>
	<path style="fill:#AAAAAA;" d="M69.1503,121.941c-3.8382,3.8386-10.056,3.8386-13.8949,0L19.3726,86.0621
		c-3.833-3.8425-3.833-10.0608,0-13.8965l35.8828-35.8844c3.8389-3.8311,10.0567-3.8311,13.8949,0l35.8834,35.8844
		c3.8292,3.8356,3.8292,10.054,0,13.8965L69.1503,121.941z"/>
	<path style="fill:#9E9E9E;" d="M71.5075,119.5547c-3.8382,3.8385-10.056,3.8385-13.8949,0L21.7297,83.6758
		c-3.8335-3.8426-3.8335-10.0609,0-13.8968l35.8828-35.884c3.8389-3.8313,10.0567-3.8313,13.8949,0l35.8834,35.884
		c3.8292,3.8359,3.8292,10.0542,0,13.8968L71.5075,119.5547z"/>
	<path style="fill:#929292;" d="M73.8647,117.1685c-3.8383,3.8385-10.0561,3.8385-13.895,0L24.0869,81.2896
		c-3.8339-3.8427-3.8339-10.0609,0-13.897l35.8828-35.8835c3.8389-3.8316,10.0567-3.8316,13.895,0l35.8833,35.8835
		c3.8292,3.8361,3.8292,10.0544,0,13.897L73.8647,117.1685z"/>
	<path style="fill:#868686;" d="M76.2218,114.7822c-3.8383,3.8384-10.0561,3.8384-13.895,0L26.444,78.9033
		c-3.8343-3.8428-3.8343-10.061,0-13.8973l35.8828-35.883c3.8389-3.8319,10.0567-3.8319,13.895,0l35.8833,35.883
		c3.8292,3.8363,3.8292,10.0546,0,13.8973L76.2218,114.7822z"/>
	<path style="fill:#797979;" d="M78.579,112.396c-3.8384,3.8384-10.0562,3.8384-13.8951,0L28.8012,76.5171
		c-3.8347-3.8428-3.8347-10.061,0-13.8976L64.684,26.7369c3.8389-3.8322,10.0567-3.8322,13.8951,0l35.8832,35.8826
		c3.8292,3.8366,3.8292,10.0547,0,13.8976L78.579,112.396z"/>
	<path style="fill:#6D6D6D;" d="M80.9362,110.0097c-3.8384,3.8383-10.0562,3.8383-13.8951,0L31.1583,74.1308
		c-3.8351-3.8429-3.8351-10.0611,0-13.8979l35.8828-35.8821c3.8389-3.8325,10.0567-3.8325,13.8951,0l35.8832,35.8821
		c3.8292,3.8368,3.8292,10.0549,0,13.8979L80.9362,110.0097z"/>
	<path style="fill:#616161;" d="M83.2934,107.6235c-3.8385,3.8383-10.0563,3.8383-13.8952,0L33.5154,71.7446
		c-3.8356-3.843-3.8356-10.0611,0-13.8982l35.8828-35.8816c3.8389-3.8328,10.0567-3.8328,13.8952,0l35.8831,35.8816
		c3.8292,3.837,3.8292,10.0551,0,13.8982L83.2934,107.6235z"/>
	<path style="fill:#555555;" d="M85.6506,105.2372c-3.8385,3.8382-10.0563,3.8382-13.8952,0L35.8726,69.3583
		c-3.836-3.8431-3.836-10.0612,0-13.8984l35.8828-35.8812c3.8389-3.833,10.0567-3.833,13.8952,0l35.8831,35.8812
		c3.8292,3.8373,3.8292,10.0553,0,13.8984L85.6506,105.2372z"/>
	<path style="fill:#494949;" d="M88.0078,102.851c-3.8385,3.8382-10.0563,3.8382-13.8952,0L38.2297,66.9721
		c-3.8364-3.8432-3.8364-10.0612,0-13.8987l35.8828-35.8807c3.8389-3.8333,10.0567-3.8333,13.8952,0l35.8831,35.8807
		c3.8292,3.8375,3.8292,10.0555,0,13.8987L88.0078,102.851z"/>
	<path style="fill:#3D3D3D;" d="M90.365,100.4647c-3.8386,3.8381-10.0564,3.8381-13.8953,0L40.5869,64.5858
		c-3.8368-3.8433-3.8368-10.0613,0-13.899l35.8828-35.8802c3.8389-3.8336,10.0567-3.8336,13.8953,0l35.883,35.8802
		c3.8292,3.8377,3.8292,10.0557,0,13.899L90.365,100.4647z"/>
	<path style="fill:#313131;" d="M92.7222,98.0785c-3.8386,3.8381-10.0564,3.8381-13.8953,0L42.944,62.1996
		c-3.8372-3.8434-3.8372-10.0613,0-13.8993l35.8828-35.8798c3.8389-3.8339,10.0567-3.8339,13.8953,0l35.883,35.8798
		c3.8292,3.838,3.8292,10.0559,0,13.8993L92.7222,98.0785z"/>
	<path style="fill:#242424;" d="M95.0793,95.6922c-3.8387,3.838-10.0565,3.838-13.8954,0L45.3012,59.8133
		c-3.8376-3.8435-3.8376-10.0614,0-13.8996L81.184,10.0344c3.8389-3.8342,10.0567-3.8342,13.8954,0l35.8829,35.8793
		c3.8292,3.8382,3.8292,10.056,0,13.8996L95.0793,95.6922z"/>
	<path style="fill:#181818;" d="M97.4365,93.306c-3.8387,3.838-10.0565,3.838-13.8954,0L47.6583,57.4271
		c-3.8381-3.8436-3.8381-10.0614,0-13.8998L83.5411,7.6484c3.8389-3.8344,10.0567-3.8344,13.8954,0l35.8829,35.8788
		c3.8292,3.8384,3.8292,10.0562,0,13.8998L97.4365,93.306z"/>
	<path style="fill:#0C0C0C;" d="M99.7937,90.9197c-3.8388,3.838-10.0566,3.838-13.8955,0L50.0154,55.0408
		c-3.8385-3.8437-3.8385-10.0615,0-13.9001L85.8982,5.2623c3.8389-3.8347,10.0567-3.8347,13.8955,0l35.8828,35.8784
		c3.8292,3.8387,3.8292,10.0564,0,13.9001L99.7937,90.9197z"/>
	<path d="M102.1509,88.5334c-3.8388,3.8379-10.0566,3.8379-13.8955,0L52.3726,52.6545c-3.8389-3.8438-3.8389-10.0615,0-13.9004
		L88.2554,2.8763c3.8389-3.835,10.0567-3.835,13.8955,0l35.8828,35.8779c3.8292,3.8389,3.8292,10.0566,0,13.9004L102.1509,88.5334z"
		/>
</g>
<g style="opacity:0.2;">
	<path style="fill:#FFFFFF;" d="M120.5093,213.8479c-3.8388,3.83-10.0566,3.83-13.8945,0L70.731,177.9671
		c-3.8291-3.8467-3.8291-10.0645,0-13.8984l35.8838-35.8829c3.8379-3.8349,10.0557-3.8349,13.8945,0l35.8828,35.8829
		c3.8389,3.8339,3.8389,10.0517,0,13.8984L120.5093,213.8479z"/>
	<path style="fill:#F3F3F3;" d="M122.8664,211.4614c-3.8388,3.8304-10.0566,3.8304-13.8941,0l-35.8842-35.8808
		c-3.8291-3.8465-3.8291-10.0643,0-13.8985l35.8842-35.8827c3.8375-3.8349,10.0553-3.8349,13.8941,0l35.8828,35.8827
		c3.8385,3.8341,3.8385,10.0519,0,13.8985L122.8664,211.4614z"/>
	<path style="fill:#E7E7E7;" d="M125.2236,209.0748c-3.8388,3.8309-10.0566,3.8309-13.8937,0l-35.8846-35.8807
		c-3.8291-3.8463-3.8291-10.0641,0-13.8985l35.8846-35.8825c3.8371-3.8348,10.0549-3.8348,13.8937,0l35.8828,35.8825
		c3.8381,3.8344,3.8381,10.0522,0,13.8985L125.2236,209.0748z"/>
	<path style="fill:#DBDBDB;" d="M127.5807,206.6882c-3.8388,3.8313-10.0566,3.8313-13.8932,0l-35.8851-35.8806
		c-3.8291-3.8461-3.8291-10.0639,0-13.8985l35.8851-35.8823c3.8366-3.8348,10.0544-3.8348,13.8932,0l35.8828,35.8823
		c3.8376,3.8346,3.8376,10.0524,0,13.8985L127.5807,206.6882z"/>
	<path style="fill:#CECECE;" d="M129.9379,204.3016c-3.8388,3.8317-10.0566,3.8317-13.8928,0l-35.8855-35.8805
		c-3.8291-3.846-3.8291-10.0638,0-13.8986l35.8855-35.8821c3.8362-3.8347,10.054-3.8347,13.8928,0l35.8828,35.8821
		c3.8372,3.8348,3.8372,10.0526,0,13.8986L129.9379,204.3016z"/>
	<path style="fill:#C2C2C2;" d="M132.295,201.915c-3.8388,3.8321-10.0566,3.8321-13.8924,0l-35.8859-35.8804
		c-3.8291-3.8458-3.8291-10.0636,0-13.8986l35.8859-35.882c3.8358-3.8347,10.0536-3.8347,13.8924,0l35.8828,35.882
		c3.8368,3.8351,3.8368,10.0529,0,13.8986L132.295,201.915z"/>
	<path style="fill:#B6B6B6;" d="M134.6521,199.5285c-3.8388,3.8326-10.0566,3.8326-13.892,0l-35.8863-35.8803
		c-3.8291-3.8456-3.8291-10.0634,0-13.8987l35.8863-35.8818c3.8354-3.8346,10.0532-3.8346,13.892,0l35.8828,35.8818
		c3.8364,3.8353,3.8364,10.0531,0,13.8987L134.6521,199.5285z"/>
	<path style="fill:#AAAAAA;" d="M137.0093,197.1419c-3.8388,3.833-10.0566,3.833-13.8916,0L87.231,161.2616
		c-3.8291-3.8454-3.8291-10.0632,0-13.8987l35.8867-35.8816c3.835-3.8346,10.0528-3.8346,13.8916,0l35.8828,35.8816
		c3.836,3.8355,3.836,10.0533,0,13.8987L137.0093,197.1419z"/>
	<path style="fill:#9E9E9E;" d="M139.3664,194.7553c-3.8388,3.8334-10.0566,3.8334-13.8912,0l-35.8872-35.8801
		c-3.8291-3.8452-3.8291-10.063,0-13.8988l35.8872-35.8814c3.8345-3.8346,10.0523-3.8346,13.8912,0l35.8828,35.8814
		c3.8355,3.8358,3.8355,10.0536,0,13.8988L139.3664,194.7553z"/>
	<path style="fill:#929292;" d="M141.7236,192.3687c-3.8388,3.8338-10.0566,3.8338-13.8907,0l-35.8876-35.8801
		c-3.8291-3.845-3.8291-10.0628,0-13.8988l35.8876-35.8812c3.8341-3.8345,10.0519-3.8345,13.8907,0l35.8828,35.8812
		c3.8351,3.836,3.8351,10.0538,0,13.8988L141.7236,192.3687z"/>
	<path style="fill:#868686;" d="M144.0807,189.9821c-3.8388,3.8342-10.0566,3.8342-13.8903,0l-35.888-35.88
		c-3.8291-3.8448-3.8291-10.0626,0-13.8989l35.888-35.881c3.8337-3.8345,10.0515-3.8345,13.8903,0l35.8828,35.881
		c3.8347,3.8362,3.8347,10.054,0,13.8989L144.0807,189.9821z"/>
	<path style="fill:#797979;" d="M146.4379,187.5956c-3.8388,3.8347-10.0566,3.8347-13.8899,0l-35.8884-35.8799
		c-3.8291-3.8447-3.8291-10.0625,0-13.8989l35.8884-35.8808c3.8333-3.8344,10.0511-3.8344,13.8899,0l35.8828,35.8808
		c3.8343,3.8365,3.8343,10.0543,0,13.8989L146.4379,187.5956z"/>
	<path style="fill:#6D6D6D;" d="M148.795,185.209c-3.8388,3.8351-10.0566,3.8351-13.8895,0l-35.8888-35.8798
		c-3.8291-3.8445-3.8291-10.0623,0-13.899l35.8888-35.8806c3.8329-3.8344,10.0507-3.8344,13.8895,0l35.8828,35.8806
		c3.8339,3.8367,3.8339,10.0545,0,13.899L148.795,185.209z"/>
	<path style="fill:#616161;" d="M151.1521,182.8224c-3.8388,3.8355-10.0566,3.8355-13.8891,0l-35.8892-35.8797
		c-3.8291-3.8443-3.8291-10.0621,0-13.899l35.8892-35.8804c3.8325-3.8343,10.0503-3.8343,13.8891,0l35.8828,35.8804
		c3.8335,3.8369,3.8335,10.0547,0,13.899L151.1521,182.8224z"/>
	<path style="fill:#555555;" d="M153.5093,180.4358c-3.8388,3.8359-10.0566,3.8359-13.8886,0l-35.8897-35.8796
		c-3.8291-3.8441-3.8291-10.0619,0-13.8991l35.8897-35.8802c3.832-3.8343,10.0498-3.8343,13.8886,0l35.8828,35.8802
		c3.833,3.8372,3.833,10.055,0,13.8991L153.5093,180.4358z"/>
	<path style="fill:#494949;" d="M155.8664,178.0492c-3.8388,3.8363-10.0566,3.8363-13.8882,0l-35.8901-35.8795
		c-3.8291-3.8439-3.8291-10.0617,0-13.8991l35.8901-35.88c3.8316-3.8343,10.0494-3.8343,13.8882,0l35.8828,35.88
		c3.8326,3.8374,3.8326,10.0552,0,13.8991L155.8664,178.0492z"/>
	<path style="fill:#3D3D3D;" d="M158.2236,175.6627c-3.8388,3.8368-10.0566,3.8368-13.8878,0l-35.8905-35.8794
		c-3.8291-3.8437-3.8291-10.0615,0-13.8992l35.8905-35.8799c3.8312-3.8342,10.049-3.8342,13.8878,0l35.8828,35.8799
		c3.8322,3.8376,3.8322,10.0554,0,13.8992L158.2236,175.6627z"/>
	<path style="fill:#313131;" d="M160.5807,173.2761c-3.8388,3.8372-10.0566,3.8372-13.8874,0l-35.8909-35.8793
		c-3.8291-3.8435-3.8291-10.0613,0-13.8992l35.8909-35.8797c3.8308-3.8342,10.0486-3.8342,13.8874,0l35.8828,35.8797
		c3.8318,3.8379,3.8318,10.0557,0,13.8992L160.5807,173.2761z"/>
	<path style="fill:#242424;" d="M162.9379,170.8895c-3.8388,3.8376-10.0566,3.8376-13.887,0l-35.8913-35.8792
		c-3.8291-3.8434-3.8291-10.0611,0-13.8992l35.8913-35.8795c3.8304-3.8341,10.0482-3.8341,13.887,0l35.8828,35.8795
		c3.8314,3.8381,3.8314,10.0559,0,13.8992L162.9379,170.8895z"/>
	<path style="fill:#181818;" d="M165.295,168.5029c-3.8388,3.838-10.0566,3.838-13.8866,0l-35.8918-35.8791
		c-3.8291-3.8432-3.8291-10.061,0-13.8993l35.8918-35.8793c3.8299-3.8341,10.0477-3.8341,13.8866,0l35.8828,35.8793
		c3.8309,3.8383,3.8309,10.0561,0,13.8993L165.295,168.5029z"/>
	<path style="fill:#0C0C0C;" d="M167.6521,166.1163c-3.8388,3.8385-10.0566,3.8385-13.8861,0l-35.8922-35.879
		c-3.8291-3.843-3.8291-10.0608,0-13.8994l35.8922-35.8791c3.8295-3.834,10.0473-3.834,13.8861,0l35.8828,35.8791
		c3.8305,3.8386,3.8305,10.0564,0,13.8994L167.6521,166.1163z"/>
	<path d="M170.0093,163.7298c-3.8388,3.8389-10.0566,3.8389-13.8857,0l-35.8926-35.8789c-3.8291-3.8428-3.8291-10.0606,0-13.8994
		l35.8926-35.8789c3.8291-3.834,10.0469-3.834,13.8857,0l35.8828,35.8789c3.8301,3.8388,3.8301,10.0566,0,13.8994L170.0093,163.7298
		z"/>
</g>
<g style="opacity:0.2;">
	<path style="fill:#FFFFFF;" d="M269.0699,211.0959c-3.8379,3.8379-10.0557,3.8379-13.8945,0l-35.8829-35.877
		c-3.8388-3.8476-3.8388-10.0644,0-13.8984l35.8829-35.8887c3.8388-3.8291,10.0566-3.8291,13.8945,0l35.8838,35.8887
		c3.83,3.834,3.83,10.0508,0,13.8984L269.0699,211.0959z"/>
	<path style="fill:#F3F3F3;" d="M271.427,208.7095c-3.8379,3.8379-10.0557,3.8379-13.8945,0l-35.8829-35.8771
		c-3.8384-3.8473-3.8384-10.0642,0-13.8984l35.8829-35.8884c3.8388-3.8291,10.0566-3.8291,13.8945,0l35.8837,35.8884
		c3.8304,3.8342,3.8304,10.0511,0,13.8984L271.427,208.7095z"/>
	<path style="fill:#E7E7E7;" d="M273.7842,206.3231c-3.8379,3.838-10.0557,3.838-13.8945,0l-35.8829-35.8772
		c-3.838-3.847-3.838-10.064,0-13.8984l35.8829-35.8881c3.8388-3.8292,10.0566-3.8292,13.8945,0l35.8836,35.8881
		c3.8307,3.8344,3.8307,10.0514,0,13.8984L273.7842,206.3231z"/>
	<path style="fill:#DBDBDB;" d="M276.1413,203.9366c-3.8379,3.838-10.0557,3.838-13.8945,0l-35.8829-35.8773
		c-3.8375-3.8468-3.8375-10.0638,0-13.8984l35.8829-35.8879c3.8388-3.8292,10.0566-3.8292,13.8945,0l35.8835,35.8879
		c3.8311,3.8346,3.8311,10.0516,0,13.8984L276.1413,203.9366z"/>
	<path style="fill:#CECECE;" d="M278.4985,201.5502c-3.8379,3.8381-10.0557,3.8381-13.8945,0l-35.8829-35.8774
		c-3.8371-3.8465-3.8371-10.0637,0-13.8984l35.8829-35.8876c3.8388-3.8293,10.0566-3.8293,13.8945,0l35.8834,35.8876
		c3.8315,3.8347,3.8315,10.0519,0,13.8984L278.4985,201.5502z"/>
	<path style="fill:#C2C2C2;" d="M280.8556,199.1638c-3.8379,3.8381-10.0557,3.8381-13.8945,0l-35.8829-35.8775
		c-3.8367-3.8462-3.8367-10.0635,0-13.8984l35.8829-35.8873c3.8388-3.8293,10.0566-3.8293,13.8945,0l35.8833,35.8873
		c3.8319,3.8349,3.8319,10.0522,0,13.8984L280.8556,199.1638z"/>
	<path style="fill:#B6B6B6;" d="M283.2127,196.7773c-3.8379,3.8382-10.0557,3.8382-13.8945,0l-35.8829-35.8775
		c-3.8363-3.8459-3.8363-10.0633,0-13.8984l35.8829-35.887c3.8388-3.8294,10.0566-3.8294,13.8945,0l35.8832,35.887
		c3.8322,3.8351,3.8322,10.0525,0,13.8984L283.2127,196.7773z"/>
	<path style="fill:#AAAAAA;" d="M285.5699,194.3909c-3.8379,3.8382-10.0557,3.8382-13.8945,0l-35.8829-35.8776
		c-3.8359-3.8457-3.8359-10.0631,0-13.8984l35.8829-35.8867c3.8388-3.8294,10.0566-3.8294,13.8945,0l35.8831,35.8867
		c3.8326,3.8353,3.8326,10.0528,0,13.8984L285.5699,194.3909z"/>
	<path style="fill:#9E9E9E;" d="M287.927,192.0044c-3.8379,3.8382-10.0557,3.8382-13.8945,0l-35.8829-35.8777
		c-3.8354-3.8454-3.8354-10.063,0-13.8984l35.8829-35.8865c3.8388-3.8295,10.0566-3.8295,13.8945,0l35.8831,35.8865
		c3.833,3.8355,3.833,10.053,0,13.8984L287.927,192.0044z"/>
	<path style="fill:#929292;" d="M290.2842,189.618c-3.8379,3.8383-10.0557,3.8383-13.8945,0l-35.8829-35.8778
		c-3.835-3.8451-3.835-10.0628,0-13.8984l35.8829-35.8862c3.8388-3.8295,10.0566-3.8295,13.8945,0l35.8829,35.8862
		c3.8334,3.8357,3.8334,10.0533,0,13.8984L290.2842,189.618z"/>
	<path style="fill:#868686;" d="M292.6413,187.2316c-3.8379,3.8383-10.0557,3.8383-13.8945,0l-35.8829-35.8779
		c-3.8346-3.8448-3.8346-10.0626,0-13.8985l35.8829-35.8859c3.8388-3.8296,10.0566-3.8296,13.8945,0l35.8828,35.8859
		c3.8338,3.8359,3.8338,10.0536,0,13.8985L292.6413,187.2316z"/>
	<path style="fill:#797979;" d="M294.9985,184.8451c-3.8379,3.8384-10.0557,3.8384-13.8945,0l-35.8829-35.878
		c-3.8342-3.8446-3.8342-10.0624,0-13.8985l35.8829-35.8856c3.8388-3.8296,10.0566-3.8296,13.8945,0l35.8828,35.8856
		c3.8341,3.836,3.8341,10.0539,0,13.8985L294.9985,184.8451z"/>
	<path style="fill:#6D6D6D;" d="M297.3556,182.4587c-3.8379,3.8384-10.0557,3.8384-13.8945,0l-35.8829-35.8781
		c-3.8338-3.8443-3.8338-10.0622,0-13.8985l35.8829-35.8853c3.8388-3.8297,10.0566-3.8297,13.8945,0l35.8826,35.8853
		c3.8345,3.8362,3.8345,10.0542,0,13.8985L297.3556,182.4587z"/>
	<path style="fill:#616161;" d="M299.7127,180.0723c-3.8379,3.8385-10.0557,3.8385-13.8945,0l-35.8829-35.8782
		c-3.8333-3.844-3.8333-10.062,0-13.8985l35.8829-35.8851c3.8388-3.8297,10.0566-3.8297,13.8945,0l35.8826,35.8851
		c3.8349,3.8364,3.8349,10.0544,0,13.8985L299.7127,180.0723z"/>
	<path style="fill:#555555;" d="M302.0699,177.6858c-3.8379,3.8385-10.0557,3.8385-13.8945,0l-35.8829-35.8783
		c-3.8329-3.8437-3.8329-10.0619,0-13.8985l35.8829-35.8848c3.8388-3.8298,10.0566-3.8298,13.8945,0l35.8825,35.8848
		c3.8353,3.8366,3.8353,10.0547,0,13.8985L302.0699,177.6858z"/>
	<path style="fill:#494949;" d="M304.427,175.2994c-3.8379,3.8385-10.0557,3.8385-13.8945,0l-35.8829-35.8784
		c-3.8325-3.8435-3.8325-10.0617,0-13.8985l35.8829-35.8845c3.8388-3.8298,10.0566-3.8298,13.8945,0l35.8824,35.8845
		c3.8356,3.8368,3.8356,10.055,0,13.8985L304.427,175.2994z"/>
	<path style="fill:#3D3D3D;" d="M306.7842,172.9129c-3.8379,3.8386-10.0557,3.8386-13.8945,0l-35.8829-35.8784
		c-3.8321-3.8432-3.8321-10.0615,0-13.8985l35.8829-35.8842c3.8388-3.8299,10.0566-3.8299,13.8945,0l35.8823,35.8842
		c3.836,3.837,3.836,10.0553,0,13.8985L306.7842,172.9129z"/>
	<path style="fill:#313131;" d="M309.1413,170.5265c-3.8379,3.8386-10.0557,3.8386-13.8945,0l-35.8829-35.8785
		c-3.8317-3.8429-3.8317-10.0613,0-13.8985l35.8829-35.8839c3.8388-3.8299,10.0566-3.8299,13.8945,0l35.8822,35.8839
		c3.8364,3.8372,3.8364,10.0556,0,13.8985L309.1413,170.5265z"/>
	<path style="fill:#242424;" d="M311.4985,168.1401c-3.8379,3.8387-10.0557,3.8387-13.8945,0l-35.8829-35.8786
		c-3.8313-3.8426-3.8313-10.0611,0-13.8985l35.8829-35.8836c3.8388-3.83,10.0566-3.83,13.8945,0l35.8821,35.8836
		c3.8368,3.8373,3.8368,10.0559,0,13.8985L311.4985,168.1401z"/>
	<path style="fill:#181818;" d="M313.8556,165.7536c-3.8379,3.8387-10.0557,3.8387-13.8945,0l-35.8829-35.8787
		c-3.8308-3.8424-3.8308-10.061,0-13.8985l35.8829-35.8834c3.8388-3.83,10.0566-3.83,13.8945,0l35.882,35.8834
		c3.8371,3.8375,3.8371,10.0561,0,13.8985L313.8556,165.7536z"/>
	<path style="fill:#0C0C0C;" d="M316.2127,163.3672c-3.8379,3.8388-10.0557,3.8388-13.8945,0l-35.8829-35.8788
		c-3.8304-3.8421-3.8304-10.0608,0-13.8985l35.8829-35.8831c3.8388-3.8301,10.0566-3.8301,13.8945,0l35.8819,35.8831
		c3.8375,3.8377,3.8375,10.0564,0,13.8985L316.2127,163.3672z"/>
	<path d="M318.5699,160.9807c-3.8379,3.8388-10.0557,3.8388-13.8945,0l-35.8829-35.8789c-3.83-3.8418-3.83-10.0606,0-13.8985
		l35.8829-35.8828c3.8388-3.8301,10.0566-3.8301,13.8945,0l35.8818,35.8828c3.8379,3.8379,3.8379,10.0567,0,13.8985
		L318.5699,160.9807z"/>
</g>
<path style="fill:#CE284A;" d="M151.5035,108.5198c-4.0908,4.2383-10.8379,4.3506-15.0762,0.2608l-33.8769-32.7276
	c-4.2295-4.0898-4.3516-10.8379-0.2608-15.0703l0,0c4.0986-4.2383,10.8467-4.3554,15.0762-0.2607l33.8769,32.7178
	C155.48,97.5344,155.5933,104.2814,151.5035,108.5198L151.5035,108.5198z"/>
<path style="fill:#FBB03B;" d="M229.5396,56.7015c4.2295,4.0898,4.3506,10.8418,0.252,15.0752l-32.7217,33.8818
	c-4.0908,4.2344-10.8379,4.3457-15.0762,0.2598l0,0c-4.2295-4.0938-4.3516-10.8418-0.2607-15.0801l32.7216-33.8731
	C218.5543,52.7229,225.3023,52.6105,229.5396,56.7015L229.5396,56.7015z"/>
<path style="fill:#39B54A;" d="M374.4293,55.7845c4.2343,4.0947,4.3505,10.8467,0.2607,15.081l-32.7236,33.877
	c-4.0909,4.2324-10.8379,4.3457-15.0762,0.2558l0,0c-4.2383-4.0898-4.3516-10.8378-0.2607-15.0761l32.7197-33.8731
	C363.4439,51.8117,370.192,51.6945,374.4293,55.7845L374.4293,55.7845z"/>
<path style="fill:#29ABE2;" d="M498.9214,57.931c4.2334,4.0947,4.3506,10.8466,0.2598,15.08l-32.7236,33.878
	c-4.0908,4.2334-10.8379,4.3457-15.0762,0.2558l0,0c-4.2373-4.0898-4.3506-10.8379-0.2607-15.0761l32.7207-33.8731
	C487.9351,53.9582,494.6832,53.84,498.9214,57.931L498.9214,57.931z"/>
<path style="fill:#D9E021;" d="M303.0513,113.5608c-4.0898,4.2334-10.8379,4.3555-15.0752,0.2647l-33.8779-32.7256
	c-4.2373-4.0908-4.3506-10.8428-0.2607-15.0762l0,0c4.0908-4.2343,10.8379-4.3515,15.0761-0.2607l33.877,32.7217
	C307.0289,102.5754,307.1421,109.3273,303.0513,113.5608L303.0513,113.5608z"/>
<path style="fill:#28CEAC;" d="M431.8365,113.5608c-4.0908,4.2334-10.8379,4.3555-15.0762,0.2647l-33.8779-32.7256
	c-4.2373-4.0908-4.3506-10.8428-0.2598-15.0762l0,0c4.0899-4.2343,10.8379-4.3515,15.0762-0.2607l33.8769,32.7217
	C435.813,102.5754,435.9263,109.3273,431.8365,113.5608L431.8365,113.5608z"/>
<g style="opacity:0.2;">
	<path style="fill:#FFFFFF;" d="M397.855,211.0959c-3.8388,3.8379-10.0566,3.8379-13.8955,0l-35.8828-35.877
		c-3.8388-3.8476-3.8388-10.0644,0-13.8984l35.8828-35.8887c3.8389-3.8291,10.0567-3.8291,13.8955,0l35.8829,35.8887
		c3.83,3.834,3.83,10.0508,0,13.8984L397.855,211.0959z"/>
	<path style="fill:#F3F3F3;" d="M400.2121,208.7095c-3.8387,3.8379-10.0566,3.8379-13.8955,0l-35.8828-35.8771
		c-3.8384-3.8473-3.8384-10.0642,0-13.8984l35.8828-35.8884c3.8389-3.8291,10.0567-3.8291,13.8955,0l35.8828,35.8884
		c3.8304,3.8342,3.8304,10.0511,0,13.8984L400.2121,208.7095z"/>
	<path style="fill:#E7E7E7;" d="M402.5693,206.3231c-3.8387,3.838-10.0566,3.838-13.8955,0l-35.8828-35.8772
		c-3.838-3.847-3.838-10.064,0-13.8984l35.8828-35.8881c3.8389-3.8292,10.0568-3.8292,13.8955,0l35.8827,35.8881
		c3.8307,3.8344,3.8307,10.0514,0,13.8984L402.5693,206.3231z"/>
	<path style="fill:#DBDBDB;" d="M404.9264,203.9366c-3.8387,3.838-10.0566,3.838-13.8955,0l-35.8828-35.8773
		c-3.8376-3.8468-3.8376-10.0638,0-13.8984l35.8828-35.8879c3.8389-3.8292,10.0568-3.8292,13.8955,0l35.8826,35.8879
		c3.8311,3.8346,3.8311,10.0516,0,13.8984L404.9264,203.9366z"/>
	<path style="fill:#CECECE;" d="M407.2836,201.5502c-3.8386,3.8381-10.0566,3.8381-13.8955,0l-35.8828-35.8774
		c-3.8372-3.8465-3.8372-10.0637,0-13.8984l35.8828-35.8876c3.8389-3.8293,10.0569-3.8293,13.8955,0l35.8825,35.8876
		c3.8315,3.8347,3.8315,10.0519,0,13.8984L407.2836,201.5502z"/>
	<path style="fill:#C2C2C2;" d="M409.6407,199.1638c-3.8386,3.8381-10.0566,3.8381-13.8955,0l-35.8828-35.8775
		c-3.8367-3.8462-3.8367-10.0635,0-13.8984l35.8828-35.8873c3.8389-3.8293,10.0569-3.8293,13.8955,0l35.8824,35.8873
		c3.8319,3.8349,3.8319,10.0522,0,13.8984L409.6407,199.1638z"/>
	<path style="fill:#B6B6B6;" d="M411.9979,196.7773c-3.8386,3.8382-10.0566,3.8382-13.8955,0l-35.8828-35.8775
		c-3.8363-3.8459-3.8363-10.0633,0-13.8984l35.8828-35.887c3.8389-3.8294,10.0569-3.8294,13.8955,0l35.8823,35.887
		c3.8322,3.8351,3.8322,10.0525,0,13.8984L411.9979,196.7773z"/>
	<path style="fill:#AAAAAA;" d="M414.355,194.3909c-3.8385,3.8382-10.0566,3.8382-13.8955,0l-35.8828-35.8776
		c-3.8359-3.8457-3.8359-10.0631,0-13.8984l35.8828-35.8867c3.8389-3.8294,10.057-3.8294,13.8955,0l35.8822,35.8867
		c3.8326,3.8353,3.8326,10.0528,0,13.8984L414.355,194.3909z"/>
	<path style="fill:#9E9E9E;" d="M416.7121,192.0044c-3.8384,3.8382-10.0566,3.8382-13.8955,0l-35.8828-35.8777
		c-3.8355-3.8454-3.8355-10.063,0-13.8984l35.8828-35.8865c3.8389-3.8295,10.057-3.8295,13.8955,0l35.8821,35.8865
		c3.833,3.8355,3.833,10.053,0,13.8984L416.7121,192.0044z"/>
	<path style="fill:#929292;" d="M419.0693,189.618c-3.8384,3.8383-10.0566,3.8383-13.8955,0l-35.8828-35.8778
		c-3.8351-3.8451-3.8351-10.0628,0-13.8984l35.8828-35.8862c3.8389-3.8295,10.0571-3.8295,13.8955,0l35.882,35.8862
		c3.8334,3.8357,3.8334,10.0533,0,13.8984L419.0693,189.618z"/>
	<path style="fill:#868686;" d="M421.4264,187.2316c-3.8384,3.8383-10.0566,3.8383-13.8955,0l-35.8828-35.8779
		c-3.8347-3.8448-3.8347-10.0626,0-13.8985l35.8828-35.8859c3.8389-3.8296,10.0571-3.8296,13.8955,0l35.882,35.8859
		c3.8337,3.8359,3.8337,10.0536,0,13.8985L421.4264,187.2316z"/>
	<path style="fill:#797979;" d="M423.7836,184.8451c-3.8383,3.8384-10.0566,3.8384-13.8955,0l-35.8828-35.878
		c-3.8343-3.8446-3.8343-10.0624,0-13.8985l35.8828-35.8856c3.8389-3.8296,10.0572-3.8296,13.8955,0l35.8818,35.8856
		c3.8341,3.836,3.8341,10.0539,0,13.8985L423.7836,184.8451z"/>
	<path style="fill:#6D6D6D;" d="M426.1407,182.4587c-3.8383,3.8384-10.0566,3.8384-13.8955,0l-35.8828-35.8781
		c-3.8338-3.8443-3.8338-10.0622,0-13.8985l35.8828-35.8853c3.8389-3.8297,10.0572-3.8297,13.8955,0l35.8817,35.8853
		c3.8345,3.8362,3.8345,10.0542,0,13.8985L426.1407,182.4587z"/>
	<path style="fill:#616161;" d="M428.4979,180.0723c-3.8383,3.8385-10.0566,3.8385-13.8955,0l-35.8828-35.8782
		c-3.8334-3.844-3.8334-10.062,0-13.8985l35.8828-35.8851c3.8389-3.8297,10.0573-3.8297,13.8955,0l35.8817,35.8851
		c3.8349,3.8364,3.8349,10.0544,0,13.8985L428.4979,180.0723z"/>
	<path style="fill:#555555;" d="M430.855,177.6858c-3.8382,3.8385-10.0566,3.8385-13.8955,0l-35.8828-35.8783
		c-3.833-3.8437-3.833-10.0619,0-13.8985l35.8828-35.8848c3.8389-3.8298,10.0573-3.8298,13.8955,0l35.8816,35.8848
		c3.8353,3.8366,3.8353,10.0547,0,13.8985L430.855,177.6858z"/>
	<path style="fill:#494949;" d="M433.2121,175.2994c-3.8381,3.8385-10.0566,3.8385-13.8955,0l-35.8828-35.8784
		c-3.8326-3.8435-3.8326-10.0617,0-13.8985l35.8828-35.8845c3.8389-3.8298,10.0573-3.8298,13.8955,0l35.8815,35.8845
		c3.8357,3.8368,3.8357,10.055,0,13.8985L433.2121,175.2994z"/>
	<path style="fill:#3D3D3D;" d="M435.5693,172.9129c-3.8381,3.8386-10.0566,3.8386-13.8955,0l-35.8828-35.8784
		c-3.8322-3.8432-3.8322-10.0615,0-13.8985l35.8828-35.8842c3.8389-3.8299,10.0574-3.8299,13.8955,0l35.8814,35.8842
		c3.836,3.837,3.836,10.0553,0,13.8985L435.5693,172.9129z"/>
	<path style="fill:#313131;" d="M437.9264,170.5265c-3.8381,3.8386-10.0566,3.8386-13.8955,0l-35.8828-35.8785
		c-3.8318-3.8429-3.8318-10.0613,0-13.8985l35.8828-35.8839c3.8389-3.8299,10.0574-3.8299,13.8955,0l35.8813,35.8839
		c3.8364,3.8372,3.8364,10.0556,0,13.8985L437.9264,170.5265z"/>
	<path style="fill:#242424;" d="M440.2836,168.1401c-3.838,3.8387-10.0566,3.8387-13.8955,0l-35.8828-35.8786
		c-3.8314-3.8426-3.8314-10.0611,0-13.8985l35.8828-35.8836c3.8389-3.83,10.0575-3.83,13.8955,0l35.8812,35.8836
		c3.8368,3.8373,3.8368,10.0559,0,13.8985L440.2836,168.1401z"/>
	<path style="fill:#181818;" d="M442.6407,165.7536c-3.838,3.8387-10.0566,3.8387-13.8955,0l-35.8828-35.8787
		c-3.8309-3.8424-3.8309-10.061,0-13.8985l35.8828-35.8834c3.8389-3.83,10.0575-3.83,13.8955,0l35.8811,35.8834
		c3.8372,3.8375,3.8372,10.0561,0,13.8985L442.6407,165.7536z"/>
	<path style="fill:#0C0C0C;" d="M444.9979,163.3672c-3.838,3.8388-10.0566,3.8388-13.8955,0l-35.8828-35.8788
		c-3.8305-3.8421-3.8305-10.0608,0-13.8985l35.8828-35.8831c3.8389-3.8301,10.0576-3.8301,13.8955,0l35.881,35.8831
		c3.8375,3.8377,3.8375,10.0564,0,13.8985L444.9979,163.3672z"/>
	<path d="M447.355,160.9807c-3.8379,3.8388-10.0566,3.8388-13.8955,0l-35.8828-35.8789c-3.8301-3.8418-3.8301-10.0606,0-13.8985
		l35.8828-35.8828c3.8389-3.8301,10.0576-3.8301,13.8955,0l35.8809,35.8828c3.8379,3.8379,3.8379,10.0567,0,13.8985
		L447.355,160.9807z"/>
</g>
<g style="opacity:0.2;">
	<path style="fill:#FFFFFF;" d="M754.5513,142.7746c-3.8388,3.8389-10.0566,3.8389-13.8867,0l-35.8916-35.8789
		c-3.8301-3.8428-3.8301-10.0615,0-13.8955l35.8916-35.8867c3.8301-3.8301,10.0479-3.8301,13.8867,0l35.8858,35.8867
		c3.834,3.834,3.834,10.0527,0,13.8955L754.5513,142.7746z"/>
	<path style="fill:#F3F3F3;" d="M756.9085,140.3884c-3.8387,3.8389-10.0565,3.8389-13.8868,0l-35.8911-35.8791
		c-3.8305-3.8426-3.8305-10.0613,0-13.8954l35.8911-35.8864c3.8303-3.8303,10.0481-3.8303,13.8868,0l35.8857,35.8864
		c3.834,3.8342,3.834,10.0528,0,13.8954L756.9085,140.3884z"/>
	<path style="fill:#E7E7E7;" d="M759.2657,138.002c-3.8387,3.8388-10.0565,3.8388-13.887,0l-35.8906-35.8793
		c-3.8309-3.8424-3.8309-10.061,0-13.8954l35.8906-35.8861c3.8305-3.8305,10.0483-3.8305,13.887,0l35.8856,35.8861
		c3.834,3.8344,3.834,10.053,0,13.8954L759.2657,138.002z"/>
	<path style="fill:#DBDBDB;" d="M761.623,135.6158c-3.8386,3.8388-10.0565,3.8388-13.8872,0l-35.8901-35.8795
		c-3.8314-3.8422-3.8314-10.0608,0-13.8954l35.8901-35.8857c3.8307-3.8307,10.0486-3.8307,13.8872,0l35.8856,35.8857
		c3.834,3.8346,3.834,10.0531,0,13.8954L761.623,135.6158z"/>
	<path style="fill:#CECECE;" d="M763.9802,133.2294c-3.8386,3.8387-10.0564,3.8387-13.8875,0l-35.8895-35.8796
		c-3.8318-3.8421-3.8318-10.0606,0-13.8953l35.8895-35.8854c3.8311-3.8308,10.0488-3.8308,13.8875,0l35.8854,35.8854
		c3.834,3.8347,3.834,10.0533,0,13.8953L763.9802,133.2294z"/>
	<path style="fill:#C2C2C2;" d="M766.3375,130.8432c-3.8386,3.8387-10.0563,3.8387-13.8876,0l-35.889-35.8798
		c-3.8322-3.8419-3.8322-10.0603,0-13.8953l35.889-35.8851c3.8313-3.831,10.0491-3.831,13.8876,0l35.8853,35.8851
		c3.834,3.8349,3.834,10.0534,0,13.8953L766.3375,130.8432z"/>
	<path style="fill:#B6B6B6;" d="M768.6947,128.4568c-3.8385,3.8386-10.0563,3.8386-13.8878,0l-35.8885-35.88
		c-3.8326-3.8417-3.8326-10.0601,0-13.8952l35.8885-35.8848c3.8315-3.8312,10.0493-3.8312,13.8878,0L804.58,78.6816
		c3.834,3.8351,3.834,10.0535,0,13.8952L768.6947,128.4568z"/>
	<path style="fill:#AAAAAA;" d="M771.0519,126.0705c-3.8385,3.8386-10.0563,3.8386-13.888,0l-35.888-35.8802
		c-3.8331-3.8415-3.8331-10.0599,0-13.8952l35.888-35.8844c3.8317-3.8314,10.0495-3.8314,13.888,0l35.8851,35.8844
		c3.834,3.8353,3.834,10.0537,0,13.8952L771.0519,126.0705z"/>
	<path style="fill:#9E9E9E;" d="M773.4092,123.6842c-3.8384,3.8385-10.0562,3.8385-13.8882,0l-35.8875-35.8804
		c-3.8334-3.8413-3.8334-10.0596,0-13.8951l35.8875-35.8841c3.832-3.8316,10.0497-3.8316,13.8882,0l35.8851,35.8841
		c3.834,3.8355,3.834,10.0538,0,13.8951L773.4092,123.6842z"/>
	<path style="fill:#929292;" d="M775.7664,121.298c-3.8384,3.8385-10.0562,3.8385-13.8884,0l-35.887-35.8806
		c-3.8339-3.8411-3.8339-10.0594,0-13.8951l35.887-35.8838c3.8322-3.8318,10.05-3.8318,13.8884,0l35.8849,35.8838
		c3.834,3.8357,3.834,10.0539,0,13.8951L775.7664,121.298z"/>
	<path style="fill:#868686;" d="M778.1237,118.9117c-3.8384,3.8384-10.0562,3.8384-13.8885,0l-35.8865-35.8808
		c-3.8343-3.8409-3.8343-10.0592,0-13.895l35.8865-35.8835c3.8324-3.832,10.0502-3.832,13.8885,0l35.8849,35.8835
		c3.834,3.8359,3.834,10.0541,0,13.895L778.1237,118.9117z"/>
	<path style="fill:#797979;" d="M780.4809,116.5254c-3.8383,3.8384-10.0561,3.8384-13.8887,0l-35.886-35.8809
		c-3.8347-3.8408-3.8347-10.0589,0-13.895l35.886-35.8831c3.8326-3.8321,10.0504-3.8321,13.8887,0l35.8848,35.8831
		c3.834,3.836,3.834,10.0542,0,13.895L780.4809,116.5254z"/>
	<path style="fill:#6D6D6D;" d="M782.8381,114.1391c-3.8383,3.8383-10.0561,3.8383-13.8889,0l-35.8855-35.8811
		c-3.8351-3.8406-3.8351-10.0587,0-13.8949l35.8855-35.8828c3.8328-3.8323,10.0507-3.8323,13.8889,0l35.8846,35.8828
		c3.834,3.8362,3.834,10.0544,0,13.8949L782.8381,114.1391z"/>
	<path style="fill:#616161;" d="M785.1954,111.7527c-3.8383,3.8383-10.056,3.8383-13.8891,0l-35.8849-35.8813
		c-3.8356-3.8404-3.8356-10.0585,0-13.8949l35.8849-35.8825c3.8331-3.8325,10.0508-3.8325,13.8891,0L821.08,61.9766
		c3.834,3.8364,3.834,10.0545,0,13.8949L785.1954,111.7527z"/>
	<path style="fill:#555555;" d="M787.5526,109.3664c-3.8382,3.8382-10.056,3.8382-13.8893,0l-35.8845-35.8815
		c-3.836-3.8402-3.836-10.0582,0-13.8948l35.8845-35.8822c3.8333-3.8327,10.0511-3.8327,13.8893,0l35.8845,35.8822
		c3.834,3.8366,3.834,10.0546,0,13.8948L787.5526,109.3664z"/>
	<path style="fill:#494949;" d="M789.9099,106.9801c-3.8381,3.8382-10.056,3.8382-13.8895,0l-35.884-35.8817
		c-3.8364-3.84-3.8364-10.058,0-13.8948l35.884-35.8818c3.8335-3.8329,10.0513-3.8329,13.8895,0l35.8844,35.8818
		c3.834,3.8368,3.834,10.0548,0,13.8948L789.9099,106.9801z"/>
	<path style="fill:#3D3D3D;" d="M792.2671,104.5938c-3.8381,3.8381-10.0559,3.8381-13.8896,0L742.494,68.712
		c-3.8368-3.8398-3.8368-10.0578,0-13.8947l35.8835-35.8815c3.8337-3.8331,10.0516-3.8331,13.8896,0l35.8843,35.8815
		c3.834,3.837,3.834,10.0549,0,13.8947L792.2671,104.5938z"/>
	<path style="fill:#313131;" d="M794.6243,102.2076c-3.8381,3.8381-10.0558,3.8381-13.8898,0l-35.8829-35.8821
		c-3.8372-3.8396-3.8372-10.0575,0-13.8947l35.8829-35.8812c3.834-3.8333,10.0518-3.8333,13.8898,0l35.8842,35.8812
		c3.834,3.8372,3.834,10.055,0,13.8947L794.6243,102.2076z"/>
	<path style="fill:#242424;" d="M796.9816,99.8213c-3.838,3.838-10.0558,3.838-13.89,0L747.2091,63.939
		c-3.8376-3.8395-3.8376-10.0573,0-13.8946l35.8824-35.8809c3.8342-3.8334,10.052-3.8334,13.89,0l35.8841,35.8809
		c3.834,3.8373,3.834,10.0552,0,13.8946L796.9816,99.8213z"/>
	<path style="fill:#181818;" d="M799.3388,97.435c-3.838,3.838-10.0558,3.838-13.8902,0l-35.882-35.8824
		c-3.838-3.8393-3.838-10.0571,0-13.8946l35.882-35.8805c3.8344-3.8336,10.0522-3.8336,13.8902,0l35.884,35.8805
		c3.834,3.8375,3.834,10.0553,0,13.8946L799.3388,97.435z"/>
	<path style="fill:#0C0C0C;" d="M801.696,95.0487c-3.838,3.8379-10.0557,3.8379-13.8904,0L751.9243,59.166
		c-3.8385-3.8391-3.8385-10.0568,0-13.8945l35.8814-35.8802c3.8347-3.8338,10.0524-3.8338,13.8904,0L837.58,45.2715
		c3.834,3.8377,3.834,10.0555,0,13.8945L801.696,95.0487z"/>
	<path d="M804.0533,92.6624c-3.8379,3.8379-10.0557,3.8379-13.8906,0l-35.8809-35.8828c-3.8389-3.8389-3.8389-10.0566,0-13.8945
		l35.8809-35.8799c3.8349-3.834,10.0527-3.834,13.8906,0l35.8838,35.8799c3.834,3.8379,3.834,10.0556,0,13.8945L804.0533,92.6624z"
		/>
</g>
<g style="opacity:0.2;">
	<path style="fill:#FFFFFF;" d="M609.2027,141.8577c-3.8379,3.8399-10.0557,3.8399-13.8945,0l-35.8828-35.8779
		c-3.8389-3.8428-3.8389-10.0654,0-13.8955l35.8828-35.8867c3.8388-3.8301,10.0566-3.8301,13.8945,0l35.8838,35.8867
		c3.8301,3.8301,3.8301,10.0527,0,13.8955L609.2027,141.8577z"/>
	<path style="fill:#F3F3F3;" d="M611.5598,139.4714c-3.8379,3.8398-10.0557,3.8398-13.8945,0l-35.8828-35.8781
		c-3.8385-3.8427-3.8385-10.065,0-13.8955l35.8828-35.8863c3.8388-3.8303,10.0566-3.8303,13.8945,0l35.8839,35.8863
		c3.8301,3.8305,3.8301,10.0528,0,13.8955L611.5598,139.4714z"/>
	<path style="fill:#E7E7E7;" d="M613.917,137.0851c-3.8379,3.8397-10.0557,3.8397-13.8945,0l-35.8828-35.8784
		c-3.8381-3.8425-3.8381-10.0646,0-13.8955l35.8828-35.886c3.8388-3.8305,10.0566-3.8305,13.8945,0l35.8838,35.886
		c3.8301,3.8309,3.8301,10.053,0,13.8955L613.917,137.0851z"/>
	<path style="fill:#DBDBDB;" d="M616.2741,134.6989c-3.8379,3.8396-10.0557,3.8396-13.8945,0l-35.8828-35.8786
		c-3.8376-3.8424-3.8376-10.0642,0-13.8955l35.8828-35.8856c3.8388-3.8307,10.0566-3.8307,13.8945,0l35.8838,35.8856
		c3.8301,3.8313,3.8301,10.0531,0,13.8955L616.2741,134.6989z"/>
	<path style="fill:#CECECE;" d="M618.6313,132.3126c-3.838,3.8395-10.0557,3.8395-13.8945,0l-35.8828-35.8788
		c-3.8372-3.8422-3.8372-10.0637,0-13.8955l35.8828-35.8852c3.8388-3.8308,10.0566-3.8308,13.8945,0l35.8838,35.8852
		c3.8301,3.8318,3.8301,10.0533,0,13.8955L618.6313,132.3126z"/>
	<path style="fill:#C2C2C2;" d="M620.9884,129.9264c-3.8379,3.8394-10.0557,3.8394-13.8945,0l-35.8828-35.8791
		c-3.8368-3.8421-3.8368-10.0633,0-13.8955l35.8828-35.8848c3.8387-3.831,10.0566-3.831,13.8945,0l35.8838,35.8848
		c3.8301,3.8322,3.8301,10.0534,0,13.8955L620.9884,129.9264z"/>
	<path style="fill:#B6B6B6;" d="M623.3455,127.5401c-3.8379,3.8393-10.0557,3.8393-13.8945,0l-35.8828-35.8793
		c-3.8364-3.842-3.8364-10.0629,0-13.8955l35.8828-35.8845c3.8388-3.8312,10.0566-3.8312,13.8945,0l35.8839,35.8845
		c3.8301,3.8326,3.8301,10.0535,0,13.8955L623.3455,127.5401z"/>
	<path style="fill:#AAAAAA;" d="M625.7027,125.1539c-3.8379,3.8392-10.0557,3.8392-13.8945,0l-35.8828-35.8795
		c-3.836-3.8418-3.836-10.0625,0-13.8955l35.8828-35.8841c3.8388-3.8314,10.0566-3.8314,13.8945,0l35.8838,35.8841
		c3.8301,3.833,3.8301,10.0537,0,13.8955L625.7027,125.1539z"/>
	<path style="fill:#9E9E9E;" d="M628.0598,122.7676c-3.8379,3.8391-10.0557,3.8391-13.8945,0l-35.8828-35.8798
		c-3.8356-3.8417-3.8356-10.0621,0-13.8955l35.8828-35.8837c3.8388-3.8316,10.0566-3.8316,13.8945,0l35.8839,35.8837
		c3.8301,3.8334,3.8301,10.0538,0,13.8955L628.0598,122.7676z"/>
	<path style="fill:#929292;" d="M630.417,120.3814c-3.8379,3.839-10.0557,3.839-13.8945,0l-35.8828-35.88
		c-3.8351-3.8416-3.8351-10.0617,0-13.8955l35.8828-35.8834c3.8388-3.8318,10.0566-3.8318,13.8945,0l35.8838,35.8834
		c3.8301,3.8338,3.8301,10.0539,0,13.8955L630.417,120.3814z"/>
	<path style="fill:#868686;" d="M632.7741,117.9951c-3.8379,3.839-10.0557,3.839-13.8945,0l-35.8828-35.8802
		c-3.8347-3.8414-3.8347-10.0613,0-13.8955l35.8828-35.883c3.8388-3.832,10.0566-3.832,13.8945,0l35.8838,35.883
		c3.8301,3.8342,3.8301,10.0541,0,13.8955L632.7741,117.9951z"/>
	<path style="fill:#797979;" d="M635.1313,115.6089c-3.838,3.8389-10.0557,3.8389-13.8945,0l-35.8828-35.8805
		c-3.8343-3.8413-3.8343-10.0608,0-13.8955l35.8828-35.8826c3.8388-3.8321,10.0566-3.8321,13.8945,0l35.8838,35.8826
		c3.8301,3.8347,3.8301,10.0542,0,13.8955L635.1313,115.6089z"/>
	<path style="fill:#6D6D6D;" d="M637.4884,113.2226c-3.8379,3.8388-10.0557,3.8388-13.8945,0l-35.8828-35.8807
		c-3.8339-3.8411-3.8339-10.0604,0-13.8955l35.8828-35.8822c3.8387-3.8323,10.0566-3.8323,13.8945,0l35.8838,35.8822
		c3.8301,3.8351,3.8301,10.0544,0,13.8955L637.4884,113.2226z"/>
	<path style="fill:#616161;" d="M639.8455,110.8364c-3.8379,3.8387-10.0557,3.8387-13.8945,0l-35.8828-35.8809
		c-3.8334-3.841-3.8334-10.06,0-13.8955l35.8828-35.8819c3.8388-3.8325,10.0566-3.8325,13.8945,0l35.8839,35.8819
		c3.8301,3.8355,3.8301,10.0545,0,13.8955L639.8455,110.8364z"/>
	<path style="fill:#555555;" d="M642.2027,108.4501c-3.8379,3.8386-10.0557,3.8386-13.8945,0l-35.8828-35.8812
		c-3.8331-3.8409-3.8331-10.0596,0-13.8955l35.8828-35.8815c3.8388-3.8327,10.0566-3.8327,13.8945,0l35.8838,35.8815
		c3.8301,3.8359,3.8301,10.0546,0,13.8955L642.2027,108.4501z"/>
	<path style="fill:#494949;" d="M644.5598,106.0639c-3.8379,3.8385-10.0557,3.8385-13.8945,0l-35.8828-35.8814
		c-3.8326-3.8407-3.8326-10.0592,0-13.8955l35.8828-35.8811c3.8388-3.8329,10.0566-3.8329,13.8945,0l35.8839,35.8811
		c3.8301,3.8363,3.8301,10.0548,0,13.8955L644.5598,106.0639z"/>
	<path style="fill:#3D3D3D;" d="M646.917,103.6776c-3.8379,3.8384-10.0557,3.8384-13.8945,0L597.1396,67.796
		c-3.8322-3.8406-3.8322-10.0588,0-13.8955l35.8828-35.8808c3.8388-3.8331,10.0566-3.8331,13.8945,0l35.8838,35.8808
		c3.8301,3.8367,3.8301,10.0549,0,13.8955L646.917,103.6776z"/>
	<path style="fill:#313131;" d="M649.2741,101.2914c-3.8379,3.8383-10.0557,3.8383-13.8945,0l-35.8828-35.8819
		c-3.8318-3.8405-3.8318-10.0584,0-13.8955l35.8828-35.8804c3.8388-3.8333,10.0566-3.8333,13.8945,0l35.8838,35.8804
		c3.8301,3.8371,3.8301,10.055,0,13.8955L649.2741,101.2914z"/>
	<path style="fill:#242424;" d="M651.6313,98.9051c-3.838,3.8382-10.0557,3.8382-13.8945,0L601.8539,63.023
		c-3.8314-3.8403-3.8314-10.0579,0-13.8955l35.8828-35.88c3.8388-3.8334,10.0566-3.8334,13.8945,0l35.8838,35.88
		c3.8301,3.8376,3.8301,10.0552,0,13.8955L651.6313,98.9051z"/>
	<path style="fill:#181818;" d="M653.9884,96.5189c-3.8379,3.8381-10.0557,3.8381-13.8945,0l-35.8828-35.8823
		c-3.8309-3.8402-3.8309-10.0575,0-13.8955l35.8828-35.8796c3.8387-3.8336,10.0566-3.8336,13.8945,0l35.8838,35.8796
		c3.8301,3.838,3.8301,10.0553,0,13.8955L653.9884,96.5189z"/>
	<path style="fill:#0C0C0C;" d="M656.3455,94.1326c-3.8379,3.838-10.0557,3.838-13.8945,0L606.5682,58.25
		c-3.8305-3.84-3.8305-10.0571,0-13.8955L642.451,8.4753c3.8388-3.8338,10.0566-3.8338,13.8945,0l35.8839,35.8793
		c3.8301,3.8384,3.8301,10.0555,0,13.8955L656.3455,94.1326z"/>
	<path d="M658.7027,91.7464c-3.8379,3.8379-10.0557,3.8379-13.8945,0l-35.8828-35.8828c-3.8301-3.8399-3.8301-10.0567,0-13.8955
		l35.8828-35.8789c3.8388-3.834,10.0566-3.834,13.8945,0l35.8838,35.8789c3.8301,3.8388,3.8301,10.0556,0,13.8955L658.7027,91.7464z
		"/>
</g>
<g style="opacity:0.2;">
	<path style="fill:#FFFFFF;" d="M467.98,138.6447c-3.8379,3.8389-10.0566,3.8389-13.8945,0l-35.8828-35.8789
		c-3.8301-3.8418-3.8301-10.0605,0-13.8945l35.8828-35.8877c3.8379-3.8291,10.0566-3.8291,13.8945,0l35.8829,35.8877
		c3.83,3.834,3.83,10.0527,0,13.8945L467.98,138.6447z"/>
	<path style="fill:#F3F3F3;" d="M470.3371,136.2585c-3.8379,3.8389-10.0565,3.8389-13.8945,0l-35.8828-35.8789
		c-3.8305-3.8419-3.8305-10.0605,0-13.8948l35.8828-35.8872c3.838-3.8294,10.0566-3.8294,13.8945,0l35.883,35.8872
		c3.83,3.8342,3.83,10.0529,0,13.8948L470.3371,136.2585z"/>
	<path style="fill:#E7E7E7;" d="M472.6943,133.8722c-3.8379,3.8388-10.0565,3.8388-13.8945,0L422.917,97.9933
		c-3.831-3.842-3.831-10.0606,0-13.8951l35.8828-35.8868c3.838-3.8297,10.0566-3.8297,13.8945,0l35.883,35.8868
		c3.8299,3.8345,3.8299,10.0531,0,13.8951L472.6943,133.8722z"/>
	<path style="fill:#DBDBDB;" d="M475.0514,131.486c-3.8379,3.8388-10.0565,3.8388-13.8945,0l-35.8828-35.8789
		c-3.8313-3.8421-3.8313-10.0606,0-13.8953l35.8828-35.8863c3.838-3.8299,10.0566-3.8299,13.8945,0l35.883,35.8863
		c3.8299,3.8347,3.8299,10.0533,0,13.8953L475.0514,131.486z"/>
	<path style="fill:#CECECE;" d="M477.4086,129.0997c-3.8379,3.8387-10.0564,3.8387-13.8945,0l-35.8828-35.8789
		c-3.8318-3.8422-3.8318-10.0607,0-13.8956l35.8828-35.8858c3.8381-3.8302,10.0566-3.8302,13.8945,0l35.8831,35.8858
		c3.8298,3.8349,3.8298,10.0534,0,13.8956L477.4086,129.0997z"/>
	<path style="fill:#C2C2C2;" d="M479.7657,126.7135c-3.8379,3.8387-10.0564,3.8387-13.8945,0l-35.8828-35.8789
		c-3.8322-3.8423-3.8322-10.0607,0-13.8959l35.8828-35.8854c3.8381-3.8305,10.0566-3.8305,13.8945,0l35.8831,35.8854
		c3.8298,3.8352,3.8298,10.0536,0,13.8959L479.7657,126.7135z"/>
	<path style="fill:#B6B6B6;" d="M482.1229,124.3272c-3.8379,3.8386-10.0563,3.8386-13.8945,0l-35.8828-35.8789
		c-3.8326-3.8424-3.8326-10.0608,0-13.8962l35.8828-35.8849c3.8382-3.8308,10.0566-3.8308,13.8945,0l35.8831,35.8849
		c3.8298,3.8354,3.8298,10.0538,0,13.8962L482.1229,124.3272z"/>
	<path style="fill:#AAAAAA;" d="M484.48,121.941c-3.8379,3.8386-10.0562,3.8386-13.8945,0l-35.8828-35.8789
		c-3.833-3.8425-3.833-10.0608,0-13.8965l35.8828-35.8844c3.8383-3.8311,10.0566-3.8311,13.8945,0l35.8832,35.8844
		c3.8297,3.8356,3.8297,10.054,0,13.8965L484.48,121.941z"/>
	<path style="fill:#9E9E9E;" d="M486.8371,119.5547c-3.8379,3.8385-10.0562,3.8385-13.8945,0l-35.8828-35.8789
		c-3.8335-3.8426-3.8335-10.0609,0-13.8968l35.8828-35.884c3.8383-3.8313,10.0566-3.8313,13.8945,0l35.8833,35.884
		c3.8297,3.8359,3.8297,10.0542,0,13.8968L486.8371,119.5547z"/>
	<path style="fill:#929292;" d="M489.1943,117.1685c-3.8379,3.8385-10.0562,3.8385-13.8945,0L439.417,81.2896
		c-3.8339-3.8427-3.8339-10.0609,0-13.897l35.8828-35.8835c3.8383-3.8316,10.0566-3.8316,13.8945,0l35.8833,35.8835
		c3.8296,3.8361,3.8296,10.0544,0,13.897L489.1943,117.1685z"/>
	<path style="fill:#868686;" d="M491.5514,114.7822c-3.8379,3.8384-10.0561,3.8384-13.8945,0l-35.8828-35.8789
		c-3.8343-3.8428-3.8343-10.061,0-13.8973l35.8828-35.883c3.8384-3.8319,10.0566-3.8319,13.8945,0l35.8833,35.883
		c3.8296,3.8363,3.8296,10.0546,0,13.8973L491.5514,114.7822z"/>
	<path style="fill:#797979;" d="M493.9086,112.396c-3.8379,3.8384-10.0561,3.8384-13.8945,0l-35.8828-35.8789
		c-3.8347-3.8428-3.8347-10.061,0-13.8976l35.8828-35.8826c3.8384-3.8322,10.0566-3.8322,13.8945,0l35.8834,35.8826
		c3.8295,3.8366,3.8295,10.0547,0,13.8976L493.9086,112.396z"/>
	<path style="fill:#6D6D6D;" d="M496.2657,110.0097c-3.8379,3.8383-10.056,3.8383-13.8945,0l-35.8828-35.8789
		c-3.8351-3.8429-3.8351-10.0611,0-13.8979l35.8828-35.8821c3.8385-3.8325,10.0566-3.8325,13.8945,0l35.8834,35.8821
		c3.8295,3.8368,3.8295,10.0549,0,13.8979L496.2657,110.0097z"/>
	<path style="fill:#616161;" d="M498.6229,107.6235c-3.8379,3.8383-10.056,3.8383-13.8945,0l-35.8828-35.8789
		c-3.8355-3.843-3.8355-10.0611,0-13.8982l35.8828-35.8816c3.8385-3.8328,10.0566-3.8328,13.8945,0l35.8834,35.8816
		c3.8295,3.837,3.8295,10.0551,0,13.8982L498.6229,107.6235z"/>
	<path style="fill:#555555;" d="M500.98,105.2372c-3.8379,3.8382-10.0559,3.8382-13.8945,0l-35.8828-35.8789
		c-3.836-3.8431-3.836-10.0612,0-13.8984l35.8828-35.8812c3.8386-3.833,10.0566-3.833,13.8945,0l35.8835,35.8812
		c3.8294,3.8373,3.8294,10.0553,0,13.8984L500.98,105.2372z"/>
	<path style="fill:#494949;" d="M503.3371,102.851c-3.8379,3.8382-10.0559,3.8382-13.8945,0l-35.8828-35.8789
		c-3.8364-3.8432-3.8364-10.0612,0-13.8987l35.8828-35.8807c3.8386-3.8333,10.0566-3.8333,13.8945,0l35.8836,35.8807
		c3.8293,3.8375,3.8293,10.0555,0,13.8987L503.3371,102.851z"/>
	<path style="fill:#3D3D3D;" d="M505.6943,100.4647c-3.8379,3.8381-10.0558,3.8381-13.8945,0L455.917,64.5858
		c-3.8368-3.8433-3.8368-10.0613,0-13.899l35.8828-35.8802c3.8387-3.8336,10.0566-3.8336,13.8945,0l35.8836,35.8802
		c3.8293,3.8377,3.8293,10.0557,0,13.899L505.6943,100.4647z"/>
	<path style="fill:#313131;" d="M508.0514,98.0785c-3.8379,3.8381-10.0558,3.8381-13.8945,0l-35.8828-35.8789
		c-3.8372-3.8434-3.8372-10.0613,0-13.8993l35.8828-35.8798c3.8387-3.8339,10.0566-3.8339,13.8945,0l35.8836,35.8798
		c3.8293,3.838,3.8293,10.0559,0,13.8993L508.0514,98.0785z"/>
	<path style="fill:#242424;" d="M510.4086,95.6922c-3.8379,3.838-10.0558,3.838-13.8945,0l-35.8828-35.8789
		c-3.8376-3.8435-3.8376-10.0614,0-13.8996l35.8828-35.8793c3.8387-3.8342,10.0566-3.8342,13.8945,0l35.8837,35.8793
		c3.8292,3.8382,3.8292,10.056,0,13.8996L510.4086,95.6922z"/>
	<path style="fill:#181818;" d="M512.7657,93.306c-3.8379,3.838-10.0557,3.838-13.8945,0l-35.8828-35.8789
		c-3.838-3.8436-3.838-10.0614,0-13.8998l35.8828-35.8788c3.8388-3.8344,10.0566-3.8344,13.8945,0l35.8837,35.8788
		c3.8292,3.8384,3.8292,10.0562,0,13.8998L512.7657,93.306z"/>
	<path style="fill:#0C0C0C;" d="M515.1229,90.9197c-3.8379,3.838-10.0557,3.838-13.8945,0l-35.8828-35.8789
		c-3.8385-3.8437-3.8385-10.0615,0-13.9001l35.8828-35.8784c3.8388-3.8347,10.0566-3.8347,13.8945,0l35.8837,35.8784
		c3.8292,3.8387,3.8292,10.0564,0,13.9001L515.1229,90.9197z"/>
	<path d="M517.48,88.5334c-3.8379,3.8379-10.0556,3.8379-13.8945,0l-35.8828-35.8789c-3.8389-3.8438-3.8389-10.0615,0-13.9004
		l35.8828-35.8779c3.8389-3.835,10.0566-3.835,13.8945,0l35.8838,35.8779c3.8291,3.8389,3.8291,10.0566,0,13.9004L517.48,88.5334z"
		/>
</g>
<g style="opacity:0.2;">
	<path style="fill:#FFFFFF;" d="M535.8384,213.8479c-3.8379,3.83-10.0556,3.83-13.8945,0l-35.8838-35.8809
		c-3.8291-3.8467-3.8291-10.0645,0-13.8984l35.8838-35.8829c3.8389-3.8349,10.0566-3.8349,13.8945,0l35.8838,35.8829
		c3.838,3.8339,3.838,10.0517,0,13.8984L535.8384,213.8479z"/>
	<path style="fill:#F3F3F3;" d="M538.1956,211.4614c-3.8379,3.8304-10.0556,3.8304-13.8941,0l-35.8842-35.8808
		c-3.8292-3.8465-3.8292-10.0643,0-13.8985l35.8842-35.8827c3.8385-3.8349,10.0562-3.8349,13.8941,0l35.8838,35.8827
		c3.8375,3.8341,3.8375,10.0519,0,13.8985L538.1956,211.4614z"/>
	<path style="fill:#E7E7E7;" d="M540.5527,209.0748c-3.8379,3.8309-10.0556,3.8309-13.8937,0l-35.8845-35.8807
		c-3.8292-3.8463-3.8292-10.0641,0-13.8985l35.8845-35.8825c3.8381-3.8348,10.0558-3.8348,13.8937,0l35.8838,35.8825
		c3.8372,3.8344,3.8372,10.0522,0,13.8985L540.5527,209.0748z"/>
	<path style="fill:#DBDBDB;" d="M542.9099,206.6882c-3.838,3.8313-10.0556,3.8313-13.8932,0l-35.8849-35.8806
		c-3.8292-3.8461-3.8292-10.0639,0-13.8985l35.8849-35.8823c3.8376-3.8348,10.0553-3.8348,13.8932,0l35.8838,35.8823
		c3.8368,3.8346,3.8368,10.0524,0,13.8985L542.9099,206.6882z"/>
	<path style="fill:#CECECE;" d="M545.267,204.3016c-3.8379,3.8317-10.0556,3.8317-13.8928,0l-35.8853-35.8805
		c-3.8293-3.846-3.8293-10.0638,0-13.8986l35.8853-35.8821c3.8372-3.8347,10.0549-3.8347,13.8928,0l35.8838,35.8821
		c3.8364,3.8348,3.8364,10.0526,0,13.8986L545.267,204.3016z"/>
	<path style="fill:#C2C2C2;" d="M547.6241,201.915c-3.8379,3.8321-10.0556,3.8321-13.8924,0l-35.8857-35.8804
		c-3.8293-3.8458-3.8293-10.0636,0-13.8986l35.8857-35.882c3.8368-3.8347,10.0545-3.8347,13.8924,0l35.8839,35.882
		c3.836,3.8351,3.836,10.0529,0,13.8986L547.6241,201.915z"/>
	<path style="fill:#B6B6B6;" d="M549.9813,199.5285c-3.8379,3.8326-10.0556,3.8326-13.892,0l-35.886-35.8803
		c-3.8294-3.8456-3.8294-10.0634,0-13.8987l35.886-35.8818c3.8364-3.8346,10.0541-3.8346,13.892,0l35.8838,35.8818
		c3.8357,3.8353,3.8357,10.0531,0,13.8987L549.9813,199.5285z"/>
	<path style="fill:#AAAAAA;" d="M552.3384,197.1419c-3.8379,3.833-10.0556,3.833-13.8915,0l-35.8864-35.8802
		c-3.8294-3.8454-3.8294-10.0632,0-13.8987l35.8864-35.8816c3.8359-3.8346,10.0536-3.8346,13.8915,0l35.8838,35.8816
		c3.8353,3.8355,3.8353,10.0533,0,13.8987L552.3384,197.1419z"/>
	<path style="fill:#9E9E9E;" d="M554.6956,194.7553c-3.8379,3.8334-10.0556,3.8334-13.8912,0l-35.8868-35.8801
		c-3.8295-3.8452-3.8295-10.063,0-13.8988l35.8868-35.8814c3.8356-3.8346,10.0533-3.8346,13.8912,0l35.8838,35.8814
		c3.8349,3.8358,3.8349,10.0536,0,13.8988L554.6956,194.7553z"/>
	<path style="fill:#929292;" d="M557.0527,192.3687c-3.8379,3.8338-10.0556,3.8338-13.8907,0l-35.8871-35.8801
		c-3.8295-3.845-3.8295-10.0628,0-13.8988l35.8871-35.8812c3.8351-3.8345,10.0529-3.8345,13.8907,0l35.8838,35.8812
		c3.8346,3.836,3.8346,10.0538,0,13.8988L557.0527,192.3687z"/>
	<path style="fill:#868686;" d="M559.4099,189.9821c-3.838,3.8342-10.0556,3.8342-13.8903,0l-35.8875-35.88
		c-3.8296-3.8448-3.8296-10.0626,0-13.8989l35.8875-35.881c3.8347-3.8345,10.0524-3.8345,13.8903,0l35.8838,35.881
		c3.8342,3.8362,3.8342,10.054,0,13.8989L559.4099,189.9821z"/>
	<path style="fill:#797979;" d="M561.767,187.5956c-3.8379,3.8347-10.0556,3.8347-13.8899,0l-35.8879-35.8799
		c-3.8296-3.8447-3.8296-10.0625,0-13.8989l35.8879-35.8808c3.8343-3.8344,10.052-3.8344,13.8899,0l35.8838,35.8808
		c3.8338,3.8365,3.8338,10.0543,0,13.8989L561.767,187.5956z"/>
	<path style="fill:#6D6D6D;" d="M564.1241,185.209c-3.8379,3.8351-10.0556,3.8351-13.8895,0l-35.8882-35.8798
		c-3.8297-3.8445-3.8297-10.0623,0-13.899l35.8882-35.8806c3.8339-3.8344,10.0516-3.8344,13.8895,0l35.8839,35.8806
		c3.8334,3.8367,3.8334,10.0545,0,13.899L564.1241,185.209z"/>
	<path style="fill:#616161;" d="M566.4813,182.8224c-3.8379,3.8355-10.0556,3.8355-13.889,0l-35.8887-35.8797
		c-3.8297-3.8443-3.8297-10.0621,0-13.899l35.8887-35.8804c3.8334-3.8343,10.0511-3.8343,13.889,0l35.8838,35.8804
		c3.8331,3.8369,3.8331,10.0547,0,13.899L566.4813,182.8224z"/>
	<path style="fill:#555555;" d="M568.8384,180.4358c-3.8379,3.8359-10.0556,3.8359-13.8886,0l-35.889-35.8796
		c-3.8297-3.8441-3.8297-10.0619,0-13.8991l35.889-35.8802c3.833-3.8343,10.0507-3.8343,13.8886,0l35.8838,35.8802
		c3.8327,3.8372,3.8327,10.055,0,13.8991L568.8384,180.4358z"/>
	<path style="fill:#494949;" d="M571.1956,178.0492c-3.8379,3.8363-10.0556,3.8363-13.8882,0l-35.8893-35.8795
		c-3.8298-3.8439-3.8298-10.0617,0-13.8991l35.8893-35.88c3.8326-3.8343,10.0504-3.8343,13.8882,0l35.8838,35.88
		c3.8323,3.8374,3.8323,10.0552,0,13.8991L571.1956,178.0492z"/>
	<path style="fill:#3D3D3D;" d="M573.5527,175.6627c-3.8379,3.8368-10.0556,3.8368-13.8878,0l-35.8897-35.8794
		c-3.8299-3.8437-3.8299-10.0615,0-13.8992l35.8897-35.8799c3.8322-3.8342,10.0499-3.8342,13.8878,0l35.8838,35.8799
		c3.832,3.8376,3.832,10.0554,0,13.8992L573.5527,175.6627z"/>
	<path style="fill:#313131;" d="M575.9099,173.2761c-3.838,3.8372-10.0556,3.8372-13.8874,0l-35.8901-35.8793
		c-3.8299-3.8435-3.8299-10.0613,0-13.8992l35.8901-35.8797c3.8318-3.8342,10.0494-3.8342,13.8874,0l35.8838,35.8797
		c3.8315,3.8379,3.8315,10.0557,0,13.8992L575.9099,173.2761z"/>
	<path style="fill:#242424;" d="M578.267,170.8895c-3.8379,3.8376-10.0556,3.8376-13.887,0l-35.8905-35.8792
		c-3.83-3.8434-3.83-10.0611,0-13.8992L564.38,85.2316c3.8314-3.8341,10.0491-3.8341,13.887,0l35.8838,35.8795
		c3.8312,3.8381,3.8312,10.0559,0,13.8992L578.267,170.8895z"/>
	<path style="fill:#181818;" d="M580.6241,168.5029c-3.8379,3.838-10.0556,3.838-13.8865,0l-35.8908-35.8791
		c-3.83-3.8432-3.83-10.061,0-13.8993l35.8908-35.8793c3.8309-3.8341,10.0486-3.8341,13.8865,0l35.8839,35.8793
		c3.8308,3.8383,3.8308,10.0561,0,13.8993L580.6241,168.5029z"/>
	<path style="fill:#0C0C0C;" d="M582.9813,166.1163c-3.8379,3.8385-10.0556,3.8385-13.8861,0l-35.8912-35.879
		c-3.8301-3.843-3.8301-10.0608,0-13.8994l35.8912-35.8791c3.8305-3.834,10.0482-3.834,13.8861,0l35.8838,35.8791
		c3.8304,3.8386,3.8304,10.0564,0,13.8994L582.9813,166.1163z"/>
	<path d="M585.3384,163.7298c-3.8379,3.8389-10.0556,3.8389-13.8857,0l-35.8916-35.8789c-3.8301-3.8428-3.8301-10.0606,0-13.8994
		l35.8916-35.8789c3.8301-3.834,10.0478-3.834,13.8857,0l35.8838,35.8789c3.8301,3.8388,3.8301,10.0566,0,13.8994L585.3384,163.7298
		z"/>
</g>
<g style="opacity:0.2;">
	<path style="fill:#FFFFFF;" d="M684.4,211.0959c-3.8389,3.8379-10.0566,3.8379-13.8946,0l-35.8838-35.877
		c-3.8379-3.8476-3.8379-10.0644,0-13.8984l35.8838-35.8887c3.838-3.8291,10.0557-3.8291,13.8946,0l35.8828,35.8887
		c3.8301,3.834,3.8301,10.0508,0,13.8984L684.4,211.0959z"/>
	<path style="fill:#F3F3F3;" d="M686.7571,208.7095c-3.8389,3.8379-10.0567,3.8379-13.8946,0l-35.8838-35.8771
		c-3.8375-3.8473-3.8375-10.0642,0-13.8984l35.8838-35.8884c3.8379-3.8291,10.0557-3.8291,13.8946,0l35.8827,35.8884
		c3.8305,3.8342,3.8305,10.0511,0,13.8984L686.7571,208.7095z"/>
	<path style="fill:#E7E7E7;" d="M689.1143,206.3231c-3.8388,3.838-10.0567,3.838-13.8946,0l-35.8838-35.8772
		c-3.837-3.847-3.837-10.064,0-13.8984l35.8838-35.8881c3.8379-3.8292,10.0558-3.8292,13.8946,0l35.8826,35.8881
		c3.8309,3.8344,3.8309,10.0514,0,13.8984L689.1143,206.3231z"/>
	<path style="fill:#DBDBDB;" d="M691.4714,203.9366c-3.8387,3.838-10.0567,3.838-13.8946,0l-35.8839-35.8773
		c-3.8366-3.8468-3.8366-10.0638,0-13.8984l35.8839-35.8879c3.8379-3.8292,10.0558-3.8292,13.8946,0l35.8825,35.8879
		c3.8314,3.8346,3.8314,10.0516,0,13.8984L691.4714,203.9366z"/>
	<path style="fill:#CECECE;" d="M693.8286,201.5502c-3.8387,3.8381-10.0567,3.8381-13.8946,0l-35.8838-35.8774
		c-3.8362-3.8465-3.8362-10.0637,0-13.8984l35.8838-35.8876c3.8379-3.8293,10.0559-3.8293,13.8946,0l35.8824,35.8876
		c3.8318,3.8347,3.8318,10.0519,0,13.8984L693.8286,201.5502z"/>
	<path style="fill:#C2C2C2;" d="M696.1857,199.1638c-3.8387,3.8381-10.0567,3.8381-13.8946,0l-35.8839-35.8775
		c-3.8358-3.8462-3.8358-10.0635,0-13.8984l35.8839-35.8873c3.8379-3.8293,10.0559-3.8293,13.8946,0l35.8823,35.8873
		c3.8322,3.8349,3.8322,10.0522,0,13.8984L696.1857,199.1638z"/>
	<path style="fill:#B6B6B6;" d="M698.5428,196.7773c-3.8386,3.8382-10.0567,3.8382-13.8946,0l-35.8838-35.8775
		c-3.8354-3.8459-3.8354-10.0633,0-13.8984l35.8838-35.887c3.8379-3.8294,10.056-3.8294,13.8946,0l35.8822,35.887
		c3.8326,3.8351,3.8326,10.0525,0,13.8984L698.5428,196.7773z"/>
	<path style="fill:#AAAAAA;" d="M700.9,194.3909c-3.8386,3.8382-10.0566,3.8382-13.8946,0l-35.8838-35.8776
		c-3.835-3.8457-3.835-10.0631,0-13.8984l35.8838-35.8867c3.838-3.8294,10.056-3.8294,13.8946,0l35.8821,35.8867
		c3.8331,3.8353,3.8331,10.0528,0,13.8984L700.9,194.3909z"/>
	<path style="fill:#9E9E9E;" d="M703.2571,192.0044c-3.8385,3.8382-10.0567,3.8382-13.8946,0l-35.8838-35.8777
		c-3.8346-3.8454-3.8346-10.063,0-13.8984l35.8838-35.8865c3.8379-3.8295,10.0561-3.8295,13.8946,0l35.882,35.8865
		c3.8335,3.8355,3.8335,10.053,0,13.8984L703.2571,192.0044z"/>
	<path style="fill:#929292;" d="M705.6143,189.618c-3.8384,3.8383-10.0567,3.8383-13.8946,0l-35.8838-35.8778
		c-3.8341-3.8451-3.8341-10.0628,0-13.8984l35.8838-35.8862c3.8379-3.8295,10.0562-3.8295,13.8946,0l35.882,35.8862
		c3.8339,3.8357,3.8339,10.0533,0,13.8984L705.6143,189.618z"/>
	<path style="fill:#868686;" d="M707.9714,187.2316c-3.8384,3.8383-10.0567,3.8383-13.8946,0l-35.8839-35.8779
		c-3.8337-3.8448-3.8337-10.0626,0-13.8985l35.8839-35.8859c3.8379-3.8296,10.0562-3.8296,13.8946,0l35.8818,35.8859
		c3.8343,3.8359,3.8343,10.0536,0,13.8985L707.9714,187.2316z"/>
	<path style="fill:#797979;" d="M710.3286,184.8451c-3.8384,3.8384-10.0567,3.8384-13.8946,0l-35.8838-35.878
		c-3.8333-3.8446-3.8333-10.0624,0-13.8985l35.8838-35.8856c3.8379-3.8296,10.0562-3.8296,13.8946,0l35.8818,35.8856
		c3.8347,3.836,3.8347,10.0539,0,13.8985L710.3286,184.8451z"/>
	<path style="fill:#6D6D6D;" d="M712.6857,182.4587c-3.8384,3.8384-10.0567,3.8384-13.8946,0l-35.8839-35.8781
		c-3.8328-3.8443-3.8328-10.0622,0-13.8985l35.8839-35.8853c3.8379-3.8297,10.0562-3.8297,13.8946,0l35.8817,35.8853
		c3.8351,3.8362,3.8351,10.0542,0,13.8985L712.6857,182.4587z"/>
	<path style="fill:#616161;" d="M715.0428,180.0723c-3.8383,3.8385-10.0567,3.8385-13.8946,0l-35.8838-35.8782
		c-3.8325-3.844-3.8325-10.062,0-13.8985l35.8838-35.8851c3.8379-3.8297,10.0563-3.8297,13.8946,0l35.8816,35.8851
		c3.8355,3.8364,3.8355,10.0544,0,13.8985L715.0428,180.0723z"/>
	<path style="fill:#555555;" d="M717.4,177.6858c-3.8382,3.8385-10.0566,3.8385-13.8946,0l-35.8838-35.8783
		c-3.832-3.8437-3.832-10.0619,0-13.8985l35.8838-35.8848c3.838-3.8298,10.0564-3.8298,13.8946,0l35.8815,35.8848
		c3.836,3.8366,3.836,10.0547,0,13.8985L717.4,177.6858z"/>
	<path style="fill:#494949;" d="M719.7571,175.2994c-3.8382,3.8385-10.0567,3.8385-13.8946,0l-35.8838-35.8784
		c-3.8317-3.8435-3.8317-10.0617,0-13.8985l35.8838-35.8845c3.8379-3.8298,10.0564-3.8298,13.8946,0l35.8813,35.8845
		c3.8364,3.8368,3.8364,10.055,0,13.8985L719.7571,175.2994z"/>
	<path style="fill:#3D3D3D;" d="M722.1143,172.9129c-3.8381,3.8386-10.0567,3.8386-13.8946,0l-35.8838-35.8784
		c-3.8312-3.8432-3.8312-10.0615,0-13.8985l35.8838-35.8842c3.8379-3.8299,10.0565-3.8299,13.8946,0l35.8813,35.8842
		c3.8368,3.837,3.8368,10.0553,0,13.8985L722.1143,172.9129z"/>
	<path style="fill:#313131;" d="M724.4714,170.5265c-3.8381,3.8386-10.0567,3.8386-13.8946,0L674.693,134.648
		c-3.8307-3.8429-3.8307-10.0613,0-13.8985l35.8839-35.8839c3.8379-3.8299,10.0565-3.8299,13.8946,0l35.8812,35.8839
		c3.8372,3.8372,3.8372,10.0556,0,13.8985L724.4714,170.5265z"/>
	<path style="fill:#242424;" d="M726.8286,168.1401c-3.838,3.8387-10.0567,3.8387-13.8946,0l-35.8838-35.8786
		c-3.8304-3.8426-3.8304-10.0611,0-13.8985l35.8838-35.8836c3.8379-3.83,10.0566-3.83,13.8946,0l35.8811,35.8836
		c3.8376,3.8373,3.8376,10.0559,0,13.8985L726.8286,168.1401z"/>
	<path style="fill:#181818;" d="M729.1857,165.7536c-3.838,3.8387-10.0567,3.8387-13.8946,0l-35.8839-35.8787
		c-3.8299-3.8424-3.8299-10.061,0-13.8985l35.8839-35.8834c3.8379-3.83,10.0566-3.83,13.8946,0l35.881,35.8834
		c3.8381,3.8375,3.8381,10.0561,0,13.8985L729.1857,165.7536z"/>
	<path style="fill:#0C0C0C;" d="M731.5428,163.3672c-3.838,3.8388-10.0567,3.8388-13.8946,0l-35.8838-35.8788
		c-3.8295-3.8421-3.8295-10.0608,0-13.8985l35.8838-35.8831c3.8379-3.8301,10.0566-3.8301,13.8946,0l35.8809,35.8831
		c3.8384,3.8377,3.8384,10.0564,0,13.8985L731.5428,163.3672z"/>
	<path d="M733.9,160.9807c-3.8379,3.8388-10.0566,3.8388-13.8946,0l-35.8838-35.8789c-3.8291-3.8418-3.8291-10.0606,0-13.8985
		l35.8838-35.8828c3.838-3.8301,10.0567-3.8301,13.8946,0l35.8809,35.8828c3.8389,3.8379,3.8389,10.0567,0,13.8985L733.9,160.9807z"
		/>
</g>
<path style="fill:#1B1464;" d="M566.8326,108.5198c-4.0899,4.2383-10.8379,4.3506-15.0752,0.2608l-33.877-32.7276
	c-4.2295-4.0898-4.3515-10.8379-0.2607-15.0703l0,0c4.0986-4.2383,10.8457-4.3554,15.0752-0.2607l33.8769,32.7178
	C570.8101,97.5344,570.9234,104.2814,566.8326,108.5198L566.8326,108.5198z"/>
<path style="fill:#662D91;" d="M644.8697,56.7015c4.2295,4.0898,4.3506,10.8418,0.251,15.0752l-32.7217,33.8818
	c-4.0908,4.2344-10.8379,4.3457-15.0762,0.2598l0,0c-4.2285-4.0938-4.3506-10.8418-0.2607-15.0801l32.7226-33.8731
	C633.8834,52.7229,640.6314,52.6105,644.8697,56.7015L644.8697,56.7015z"/>
<path style="fill:#9E005D;" d="M789.7593,55.7845c4.2334,4.0947,4.3506,10.8467,0.2598,15.081l-32.7236,33.877
	c-4.0909,4.2324-10.8379,4.3457-15.0762,0.2558l0,0c-4.2373-4.0898-4.3506-10.8378-0.2607-15.0761l32.7207-33.8731
	C778.774,51.8117,785.5211,51.6945,789.7593,55.7845L789.7593,55.7845z"/>
<path style="fill:#93278F;" d="M718.3814,113.5608c-4.0898,4.2334-10.8379,4.3555-15.0762,0.2647l-33.8769-32.7256
	c-4.2383-4.0908-4.3506-10.8428-0.2608-15.0762l0,0c4.0909-4.2343,10.8379-4.3515,15.0762-0.2607l33.877,32.7217
	C722.3589,102.5754,722.4712,109.3273,718.3814,113.5608L718.3814,113.5608z"/>
<g style="opacity:0.2;">
	<path style="fill:#FFFFFF;" d="M834.648,211.0959c-3.8379,3.8379-10.0557,3.8379-13.8945,0l-35.8828-35.877
		c-3.8389-3.8476-3.8389-10.0644,0-13.8984l35.8828-35.8887c3.8388-3.8291,10.0566-3.8291,13.8945,0l35.8838,35.8887
		c3.8301,3.834,3.8301,10.0508,0,13.8984L834.648,211.0959z"/>
	<path style="fill:#F3F3F3;" d="M837.0051,208.7095c-3.8379,3.8379-10.0557,3.8379-13.8945,0l-35.8828-35.8771
		c-3.8385-3.8473-3.8385-10.0642,0-13.8984l35.8828-35.8884c3.8388-3.8291,10.0566-3.8291,13.8945,0l35.8837,35.8884
		c3.8304,3.8342,3.8304,10.0511,0,13.8984L837.0051,208.7095z"/>
	<path style="fill:#E7E7E7;" d="M839.3623,206.3231c-3.838,3.838-10.0557,3.838-13.8945,0l-35.8828-35.8772
		c-3.8381-3.847-3.8381-10.064,0-13.8984l35.8828-35.8881c3.8388-3.8292,10.0566-3.8292,13.8945,0l35.8836,35.8881
		c3.8308,3.8344,3.8308,10.0514,0,13.8984L839.3623,206.3231z"/>
	<path style="fill:#DBDBDB;" d="M841.7194,203.9366c-3.8379,3.838-10.0557,3.838-13.8945,0l-35.8828-35.8773
		c-3.8376-3.8468-3.8376-10.0638,0-13.8984l35.8828-35.8879c3.8387-3.8292,10.0566-3.8292,13.8945,0l35.8835,35.8879
		c3.8312,3.8346,3.8312,10.0516,0,13.8984L841.7194,203.9366z"/>
	<path style="fill:#CECECE;" d="M844.0765,201.5502c-3.8379,3.8381-10.0557,3.8381-13.8945,0l-35.8828-35.8774
		c-3.8372-3.8465-3.8372-10.0637,0-13.8984l35.8828-35.8876c3.8388-3.8293,10.0566-3.8293,13.8945,0l35.8834,35.8876
		c3.8316,3.8347,3.8316,10.0519,0,13.8984L844.0765,201.5502z"/>
	<path style="fill:#C2C2C2;" d="M846.4337,199.1638c-3.8379,3.8381-10.0557,3.8381-13.8945,0l-35.8828-35.8775
		c-3.8369-3.8462-3.8369-10.0635,0-13.8984l35.8828-35.8873c3.8388-3.8293,10.0566-3.8293,13.8945,0l35.8833,35.8873
		c3.832,3.8349,3.832,10.0522,0,13.8984L846.4337,199.1638z"/>
	<path style="fill:#B6B6B6;" d="M848.7908,196.7773c-3.8379,3.8382-10.0557,3.8382-13.8945,0l-35.8828-35.8775
		c-3.8364-3.8459-3.8364-10.0633,0-13.8984l35.8828-35.887c3.8388-3.8294,10.0566-3.8294,13.8945,0l35.8832,35.887
		c3.8323,3.8351,3.8323,10.0525,0,13.8984L848.7908,196.7773z"/>
	<path style="fill:#AAAAAA;" d="M851.148,194.3909c-3.8379,3.8382-10.0557,3.8382-13.8945,0l-35.8828-35.8776
		c-3.8359-3.8457-3.8359-10.0631,0-13.8984l35.8828-35.8867c3.8388-3.8294,10.0566-3.8294,13.8945,0l35.8831,35.8867
		c3.8327,3.8353,3.8327,10.0528,0,13.8984L851.148,194.3909z"/>
	<path style="fill:#9E9E9E;" d="M853.5051,192.0044c-3.8379,3.8382-10.0557,3.8382-13.8945,0l-35.8828-35.8777
		c-3.8356-3.8454-3.8356-10.063,0-13.8984l35.8828-35.8865c3.8388-3.8295,10.0566-3.8295,13.8945,0l35.8831,35.8865
		c3.8331,3.8355,3.8331,10.053,0,13.8984L853.5051,192.0044z"/>
	<path style="fill:#929292;" d="M855.8623,189.618c-3.838,3.8383-10.0557,3.8383-13.8945,0l-35.8828-35.8778
		c-3.8351-3.8451-3.8351-10.0628,0-13.8984l35.8828-35.8862c3.8388-3.8295,10.0566-3.8295,13.8945,0l35.8829,35.8862
		c3.8334,3.8357,3.8334,10.0533,0,13.8984L855.8623,189.618z"/>
	<path style="fill:#868686;" d="M858.2194,187.2316c-3.8379,3.8383-10.0557,3.8383-13.8945,0l-35.8828-35.8779
		c-3.8347-3.8448-3.8347-10.0626,0-13.8985l35.8828-35.8859c3.8387-3.8296,10.0566-3.8296,13.8945,0l35.8829,35.8859
		c3.8338,3.8359,3.8338,10.0536,0,13.8985L858.2194,187.2316z"/>
	<path style="fill:#797979;" d="M860.5765,184.8451c-3.8379,3.8384-10.0557,3.8384-13.8945,0l-35.8828-35.878
		c-3.8343-3.8446-3.8343-10.0624,0-13.8985l35.8828-35.8856c3.8388-3.8296,10.0566-3.8296,13.8945,0l35.8828,35.8856
		c3.8342,3.836,3.8342,10.0539,0,13.8985L860.5765,184.8451z"/>
	<path style="fill:#6D6D6D;" d="M862.9337,182.4587c-3.8379,3.8384-10.0557,3.8384-13.8945,0l-35.8828-35.8781
		c-3.8339-3.8443-3.8339-10.0622,0-13.8985l35.8828-35.8853c3.8388-3.8297,10.0566-3.8297,13.8945,0l35.8826,35.8853
		c3.8346,3.8362,3.8346,10.0542,0,13.8985L862.9337,182.4587z"/>
	<path style="fill:#616161;" d="M865.2908,180.0723c-3.8379,3.8385-10.0557,3.8385-13.8945,0l-35.8828-35.8782
		c-3.8334-3.844-3.8334-10.062,0-13.8985l35.8828-35.8851c3.8388-3.8297,10.0566-3.8297,13.8945,0l35.8826,35.8851
		c3.835,3.8364,3.835,10.0544,0,13.8985L865.2908,180.0723z"/>
	<path style="fill:#555555;" d="M867.648,177.6858c-3.8379,3.8385-10.0557,3.8385-13.8945,0l-35.8828-35.8783
		c-3.833-3.8437-3.833-10.0619,0-13.8985l35.8828-35.8848c3.8388-3.8298,10.0566-3.8298,13.8945,0l35.8824,35.8848
		c3.8353,3.8366,3.8353,10.0547,0,13.8985L867.648,177.6858z"/>
	<path style="fill:#494949;" d="M870.0051,175.2994c-3.8379,3.8385-10.0557,3.8385-13.8945,0l-35.8828-35.8784
		c-3.8326-3.8435-3.8326-10.0617,0-13.8985l35.8828-35.8845c3.8388-3.8298,10.0566-3.8298,13.8945,0l35.8824,35.8845
		c3.8357,3.8368,3.8357,10.055,0,13.8985L870.0051,175.2994z"/>
	<path style="fill:#3D3D3D;" d="M872.3623,172.9129c-3.838,3.8386-10.0557,3.8386-13.8945,0l-35.8828-35.8784
		c-3.8322-3.8432-3.8322-10.0615,0-13.8985l35.8828-35.8842c3.8388-3.8299,10.0566-3.8299,13.8945,0l35.8823,35.8842
		c3.8361,3.837,3.8361,10.0553,0,13.8985L872.3623,172.9129z"/>
	<path style="fill:#313131;" d="M874.7194,170.5265c-3.8379,3.8386-10.0557,3.8386-13.8945,0l-35.8828-35.8785
		c-3.8318-3.8429-3.8318-10.0613,0-13.8985l35.8828-35.8839c3.8387-3.8299,10.0566-3.8299,13.8945,0l35.8822,35.8839
		c3.8364,3.8372,3.8364,10.0556,0,13.8985L874.7194,170.5265z"/>
	<path style="fill:#242424;" d="M877.0765,168.1401c-3.8379,3.8387-10.0557,3.8387-13.8945,0l-35.8828-35.8786
		c-3.8314-3.8426-3.8314-10.0611,0-13.8985l35.8828-35.8836c3.8388-3.83,10.0566-3.83,13.8945,0l35.8821,35.8836
		c3.8367,3.8373,3.8367,10.0559,0,13.8985L877.0765,168.1401z"/>
	<path style="fill:#181818;" d="M879.4337,165.7536c-3.8379,3.8387-10.0557,3.8387-13.8945,0l-35.8828-35.8787
		c-3.831-3.8424-3.831-10.061,0-13.8985l35.8828-35.8834c3.8388-3.83,10.0566-3.83,13.8945,0l35.882,35.8834
		c3.8372,3.8375,3.8372,10.0561,0,13.8985L879.4337,165.7536z"/>
	<path style="fill:#0C0C0C;" d="M881.7908,163.3672c-3.8379,3.8388-10.0557,3.8388-13.8945,0l-35.8828-35.8788
		c-3.8305-3.8421-3.8305-10.0608,0-13.8985l35.8828-35.8831c3.8388-3.8301,10.0566-3.8301,13.8945,0l35.8819,35.8831
		c3.8375,3.8377,3.8375,10.0564,0,13.8985L881.7908,163.3672z"/>
	<path d="M884.148,160.9807c-3.8379,3.8388-10.0557,3.8388-13.8945,0l-35.8828-35.8789c-3.8301-3.8418-3.8301-10.0606,0-13.8985
		l35.8828-35.8828c3.8388-3.8301,10.0566-3.8301,13.8945,0l35.8818,35.8828c3.8379,3.8379,3.8379,10.0567,0,13.8985
		L884.148,160.9807z"/>
</g>
<path style="fill:#D4145A;" d="M868.6295,113.5608c-4.0899,4.2334-10.838,4.3555-15.0752,0.2647l-33.877-32.7256
	c-4.2383-4.0908-4.3516-10.8428-0.2617-15.0762l0,0c4.0908-4.2343,10.8379-4.3515,15.0771-0.2607l33.876,32.7217
	C872.607,102.5754,872.7203,109.3273,868.6295,113.5608L868.6295,113.5608z"/>
</svg>
