<?xml version="1.0" encoding="utf-8"?>
<!-- Generator: Adobe Illustrator 21.0.0, SVG Export Plug-In . SVG Version: 6.00 Build 0)  -->
<svg version="1.1" id="Capa_1" xmlns="http://www.w3.org/2000/svg" xmlns:xlink="http://www.w3.org/1999/xlink" x="0px" y="0px"
	 viewBox="0 0 458.918 52.0458" style="enable-background:new 0 0 458.918 52.0458;" xml:space="preserve">
<g>
	<g>
		<path d="M36.296,18.1494c-0.2686,0.625-0.6372,1.1719-1.106,1.6406s-1.0181,0.8374-1.6479,1.106s-1.3013,0.4028-2.0142,0.4028
			h-6.6504V0.293h6.6504c0.7129,0,1.3843,0.1343,2.0142,0.4028s1.1792,0.6372,1.6479,1.106s0.8374,1.0181,1.106,1.6479
			s0.4028,1.3013,0.4028,2.0142v10.6787C36.6988,16.8555,36.5645,17.5244,36.296,18.1494z M34.8092,5.4639
			c0-0.4688-0.0879-0.9058-0.2637-1.311s-0.4175-0.7617-0.7251-1.0693s-0.6641-0.5493-1.0693-0.7251s-0.8423-0.2637-1.311-0.2637
			h-4.6729v17.4023H31.44c0.4688,0,0.9058-0.0879,1.311-0.2637s0.7617-0.415,1.0693-0.7178s0.5493-0.6567,0.7251-1.062
			s0.2637-0.8423,0.2637-1.311V5.4639z"/>
		<path d="M50.2706,18.8965c-0.2295,0.5371-0.5444,1.0059-0.9448,1.4063s-0.8691,0.7153-1.4063,0.9448s-1.1084,0.3442-1.7139,0.3442
			h-1.2012c-0.6055,0-1.1768-0.1147-1.7139-0.3442s-1.0059-0.5444-1.4063-0.9448s-0.7153-0.8691-0.9448-1.4063
			s-0.3442-1.1084-0.3442-1.7139V10.415c0-0.6055,0.1147-1.1768,0.3442-1.7139s0.5444-1.0059,0.9448-1.4063
			s0.8691-0.7153,1.4063-0.9448s1.1084-0.3442,1.7139-0.3442h1.2012c0.6055,0,1.1768,0.1147,1.7139,0.3442
			s1.0059,0.5444,1.4063,0.9448s0.7153,0.8691,0.9448,1.4063s0.3442,1.1084,0.3442,1.7139v3.5303H42.397v3.3398
			c0,0.3613,0.0684,0.7007,0.2051,1.0181s0.3223,0.5933,0.5566,0.8276s0.5103,0.4199,0.8276,0.5566s0.6567,0.2051,1.0181,0.2051
			h1.2012c0.3613,0,0.7007-0.0684,1.0181-0.2051s0.5933-0.3223,0.8276-0.5566s0.4199-0.5103,0.5566-0.8276
			s0.2051-0.6567,0.2051-1.0181v-0.9961l1.8018,0.293v0.6006C50.6148,17.7881,50.5001,18.3594,50.2706,18.8965z M48.8131,10.3125
			c0-0.3613-0.0684-0.7007-0.2051-1.0181s-0.3223-0.5933-0.5566-0.8276s-0.5103-0.4199-0.8276-0.5566s-0.6567-0.2051-1.0181-0.2051
			h-1.2012c-0.3613,0-0.7007,0.0684-1.0181,0.2051s-0.5933,0.3223-0.8276,0.5566s-0.4199,0.5103-0.5566,0.8276
			s-0.2051,0.6567-0.2051,1.0181v2.2266h6.416V10.3125z"/>
		<path d="M64.5308,17.4902c0,0.6055-0.1221,1.1597-0.3662,1.6626s-0.5762,0.9351-0.9961,1.2964s-0.9058,0.6421-1.4575,0.8423
			s-1.1304,0.3003-1.7358,0.3003H58.774c-0.6055,0-1.1841-0.1147-1.7358-0.3442s-1.0352-0.5444-1.4502-0.9448
			s-0.7471-0.8691-0.9961-1.4063s-0.3735-1.1084-0.3735-1.7139V16.582l1.8018-0.293v0.9961c0,0.3613,0.0757,0.7007,0.2271,1.0181
			s0.354,0.5933,0.6079,0.8276s0.5469,0.4199,0.8789,0.5566s0.6787,0.2051,1.04,0.2051h1.2012c0.3613,0,0.708-0.0537,1.04-0.1611
			s0.6274-0.2612,0.8862-0.4614s0.4639-0.4419,0.6152-0.7251s0.2271-0.6055,0.2271-0.9668c0-0.5371-0.1172-0.9766-0.3516-1.3184
			s-0.5444-0.6274-0.9302-0.8569s-0.8252-0.4199-1.3184-0.5713s-0.9985-0.3027-1.5161-0.4541s-1.0229-0.3247-1.5161-0.52
			s-0.9326-0.4517-1.3184-0.769s-0.6958-0.7153-0.9302-1.1938s-0.3516-1.0742-0.3516-1.7871c0-0.6055,0.1172-1.1597,0.3516-1.6626
			s0.5518-0.9351,0.9521-1.2964s0.8667-0.6421,1.3989-0.8423s1.1011-0.3003,1.7065-0.3003h1.0547
			c0.6055,0,1.1768,0.1147,1.7139,0.3442s1.0059,0.5444,1.4063,0.9448s0.7153,0.8691,0.9448,1.4063s0.3442,1.1084,0.3442,1.7139
			v0.0586l-1.8018,0.293v-0.4541c0-0.3613-0.0684-0.7007-0.2051-1.0181s-0.3223-0.5933-0.5566-0.8276s-0.5103-0.4199-0.8276-0.5566
			s-0.6567-0.2051-1.0181-0.2051h-1.0547c-0.3613,0-0.7007,0.0537-1.0181,0.1611s-0.5933,0.2612-0.8276,0.4614
			s-0.4199,0.4419-0.5566,0.7251s-0.2051,0.6055-0.2051,0.9668c0,0.5176,0.1172,0.9399,0.3516,1.2671s0.5444,0.603,0.9302,0.8276
			s0.8252,0.4126,1.3184,0.564s0.9961,0.3076,1.5088,0.4688s1.0156,0.3442,1.5088,0.5493s0.9326,0.4688,1.3184,0.791
			s0.6958,0.7251,0.9302,1.2085S64.5308,16.7773,64.5308,17.4902z"/>
		<path d="M77.6632,18.8965c-0.2295,0.5371-0.5444,1.0059-0.9448,1.4063s-0.8691,0.7153-1.4063,0.9448s-1.1084,0.3442-1.7139,0.3442
			H72.397c-0.6055,0-1.1768-0.1147-1.7139-0.3442s-1.0059-0.5444-1.4063-0.9448s-0.7153-0.8691-0.9448-1.4063
			s-0.3442-1.1084-0.3442-1.7139V10.415c0-0.6055,0.1147-1.1768,0.3442-1.7139s0.5444-1.0059,0.9448-1.4063
			s0.8691-0.7153,1.4063-0.9448s1.1084-0.3442,1.7139-0.3442h1.2012c0.6055,0,1.1768,0.1147,1.7139,0.3442
			s1.0059,0.5444,1.4063,0.9448s0.7153,0.8691,0.9448,1.4063s0.3442,1.1084,0.3442,1.7139v0.6006l-1.8018,0.293v-0.9961
			c0-0.3613-0.0684-0.7007-0.2051-1.0181s-0.3223-0.5933-0.5566-0.8276s-0.5103-0.4199-0.8276-0.5566s-0.6567-0.2051-1.0181-0.2051
			H72.397c-0.3613,0-0.7007,0.0684-1.0181,0.2051s-0.5933,0.3223-0.8276,0.5566s-0.4199,0.5103-0.5566,0.8276
			s-0.2051,0.6567-0.2051,1.0181v6.9727c0,0.3613,0.0684,0.7007,0.2051,1.0181s0.3223,0.5933,0.5566,0.8276
			s0.5103,0.4199,0.8276,0.5566s0.6567,0.2051,1.0181,0.2051h1.2012c0.3613,0,0.7007-0.0684,1.0181-0.2051
			s0.5933-0.3223,0.8276-0.5566s0.4199-0.5103,0.5566-0.8276s0.2051-0.6567,0.2051-1.0181v-0.9961l1.8018,0.293v0.6006
			C78.0074,17.7881,77.8927,18.3594,77.6632,18.8965z"/>
		<path d="M86.0201,8.0127c-0.3613,0-0.7007,0.0684-1.0181,0.2051S84.4088,8.54,84.1744,8.7744s-0.4199,0.5103-0.5566,0.8276
			s-0.2051,0.6567-0.2051,1.0181v10.6787h-1.8018v-15h0.6006l0.9814,1.5234c0.4102-0.5566,0.9253-0.9985,1.5454-1.3257
			s1.2964-0.4907,2.0288-0.4907h1.0547v2.0068H86.0201z"/>
		<path d="M90.6783,2.6953V0.293h2.0947v2.4023H90.6783z M90.8248,21.2988v-15h1.8018v15H90.8248z"/>
		<path d="M106.5059,18.8965c-0.2295,0.5371-0.5444,1.0059-0.9448,1.4063s-0.8691,0.7153-1.4063,0.9448
			s-1.1084,0.3442-1.7139,0.3442h-0.4541c-0.6738,0-1.2988-0.1367-1.875-0.4102s-1.0693-0.6543-1.4795-1.1426v7.2656h-1.8018V6.2988
			h0.6006l0.9814,1.5234c0.4102-0.5566,0.9253-0.9985,1.5454-1.3257s1.2964-0.4907,2.0288-0.4907h0.4541
			c0.6055,0,1.1768,0.1147,1.7139,0.3442s1.0059,0.5444,1.4063,0.9448s0.7153,0.8691,0.9448,1.4063s0.3442,1.1084,0.3442,1.7139
			v6.7676C106.8502,17.7881,106.7354,18.3594,106.5059,18.8965z M105.0484,10.3125c0-0.3613-0.0684-0.7007-0.2051-1.0181
			s-0.3223-0.5933-0.5566-0.8276s-0.5103-0.4199-0.8276-0.5566s-0.6567-0.2051-1.0181-0.2051h-1.2012
			c-0.3613,0-0.7007,0.0684-1.0181,0.2051s-0.5933,0.3223-0.8276,0.5566s-0.4199,0.5103-0.5566,0.8276s-0.2051,0.6567-0.2051,1.0181
			v6.9727c0,0.3613,0.0684,0.7007,0.2051,1.0181s0.3223,0.5933,0.5566,0.8276s0.5103,0.4199,0.8276,0.5566
			s0.6567,0.2051,1.0181,0.2051h1.2012c0.3613,0,0.7007-0.0684,1.0181-0.2051s0.5933-0.3223,0.8276-0.5566
			s0.4199-0.5103,0.5566-0.8276s0.2051-0.6567,0.2051-1.0181V10.3125z"/>
		<path d="M120.129,18.8965c-0.2295,0.5371-0.5444,1.0059-0.9448,1.4063s-0.8691,0.7153-1.4063,0.9448s-1.1084,0.3442-1.7139,0.3442
			h-1.2012c-0.6055,0-1.1768-0.1147-1.7139-0.3442s-1.0059-0.5444-1.4063-0.9448s-0.7153-0.8691-0.9448-1.4063
			s-0.3442-1.1084-0.3442-1.7139V10.415c0-0.6055,0.1147-1.1768,0.3442-1.7139s0.5444-1.0059,0.9448-1.4063
			s0.8691-0.7153,1.4063-0.9448s1.1084-0.3442,1.7139-0.3442h1.2012c0.6055,0,1.1768,0.1147,1.7139,0.3442
			s1.0059,0.5444,1.4063,0.9448s0.7153,0.8691,0.9448,1.4063s0.3442,1.1084,0.3442,1.7139v0.6006l-1.8018,0.293v-0.9961
			c0-0.3613-0.0684-0.7007-0.2051-1.0181s-0.3223-0.5933-0.5566-0.8276s-0.5103-0.4199-0.8276-0.5566s-0.6567-0.2051-1.0181-0.2051
			h-1.2012c-0.3613,0-0.7007,0.0684-1.0181,0.2051s-0.5933,0.3223-0.8276,0.5566s-0.4199,0.5103-0.5566,0.8276
			s-0.2051,0.6567-0.2051,1.0181v6.9727c0,0.3613,0.0684,0.7007,0.2051,1.0181s0.3223,0.5933,0.5566,0.8276
			s0.5103,0.4199,0.8276,0.5566s0.6567,0.2051,1.0181,0.2051h1.2012c0.3613,0,0.7007-0.0684,1.0181-0.2051
			s0.5933-0.3223,0.8276-0.5566s0.4199-0.5103,0.5566-0.8276s0.2051-0.6567,0.2051-1.0181v-0.9961l1.8018,0.293v0.6006
			C120.4732,17.7881,120.3585,18.3594,120.129,18.8965z"/>
		<path d="M124.5308,2.6953V0.293h2.0947v2.4023H124.5308z M124.6773,21.2988v-15h1.8018v15H124.6773z"/>
		<path d="M140.3585,18.8965c-0.2295,0.5371-0.5444,1.0059-0.9448,1.4063s-0.8691,0.7153-1.4063,0.9448
			s-1.1084,0.3442-1.7139,0.3442h-1.2012c-0.6055,0-1.1768-0.1147-1.7139-0.3442s-1.0059-0.5444-1.4063-0.9448
			s-0.7153-0.8691-0.9448-1.4063s-0.3442-1.1084-0.3442-1.7139V10.415c0-0.6055,0.1147-1.1768,0.3442-1.7139
			s0.5444-1.0059,0.9448-1.4063s0.8691-0.7153,1.4063-0.9448s1.1084-0.3442,1.7139-0.3442h1.2012
			c0.6055,0,1.1768,0.1147,1.7139,0.3442s1.0059,0.5444,1.4063,0.9448s0.7153,0.8691,0.9448,1.4063s0.3442,1.1084,0.3442,1.7139
			v6.7676C140.7027,17.7881,140.588,18.3594,140.3585,18.8965z M138.901,10.3125c0-0.3613-0.0684-0.7007-0.2051-1.0181
			s-0.3223-0.5933-0.5566-0.8276s-0.5103-0.4199-0.8276-0.5566s-0.6567-0.2051-1.0181-0.2051h-1.2012
			c-0.3613,0-0.7007,0.0684-1.0181,0.2051s-0.5933,0.3223-0.8276,0.5566s-0.4199,0.5103-0.5566,0.8276s-0.2051,0.6567-0.2051,1.0181
			v6.9727c0,0.3613,0.0684,0.7007,0.2051,1.0181s0.3223,0.5933,0.5566,0.8276s0.5103,0.4199,0.8276,0.5566
			s0.6567,0.2051,1.0181,0.2051h1.2012c0.3613,0,0.7007-0.0684,1.0181-0.2051s0.5933-0.3223,0.8276-0.5566
			s0.4199-0.5103,0.5566-0.8276s0.2051-0.6567,0.2051-1.0181V10.3125z M134.9459,3.8965h-1.3477l2.3877-3.6035h3.0029
			L134.9459,3.8965z"/>
		<path d="M152.524,21.2988V10.3125c0-0.3613-0.0684-0.7007-0.2051-1.0181s-0.3223-0.5933-0.5566-0.8276
			s-0.5103-0.4199-0.8276-0.5566s-0.6567-0.2051-1.0181-0.2051h-1.2012c-0.3613,0-0.7007,0.0684-1.0181,0.2051
			s-0.5933,0.3223-0.8276,0.5566s-0.4199,0.5103-0.5566,0.8276s-0.2051,0.6567-0.2051,1.0181v10.9863h-1.8018v-15h0.6006
			l0.9814,1.5234c0.4102-0.5566,0.9253-0.9985,1.5454-1.3257s1.2964-0.4907,2.0288-0.4907h0.4541
			c0.6055,0,1.1768,0.1147,1.7139,0.3442s1.0059,0.5444,1.4063,0.9448s0.7153,0.8691,0.9448,1.4063s0.3442,1.1084,0.3442,1.7139
			v10.8838H152.524z"/>
		<path d="M174.6505,24.8584c-0.2295,0.5078-0.5444,0.9424-0.9448,1.3037s-0.8691,0.6416-1.4063,0.8418
			s-1.1084,0.3008-1.7139,0.3008h-0.7471c-0.6055,0-1.1768-0.1006-1.7139-0.3008s-1.0059-0.4805-1.4063-0.8418
			s-0.7153-0.7959-0.9448-1.3037s-0.3442-1.0645-0.3442-1.6699v-0.0586c0-0.5859,0.1074-1.123,0.3223-1.6113
			s0.5078-0.9131,0.8789-1.2744c-0.4688-0.2832-0.8423-0.6665-1.1206-1.1499s-0.4175-1.0181-0.4175-1.604
			c0-0.5273,0.1123-1.0181,0.3369-1.4722s0.5322-0.8228,0.9229-1.106c-0.4688-0.4102-0.8398-0.9033-1.1133-1.4795
			s-0.4102-1.2061-0.4102-1.8896V10.415c0-0.6055,0.1147-1.1768,0.3442-1.7139s0.5444-1.0059,0.9448-1.4063
			s0.8691-0.7153,1.4063-0.9448s1.1084-0.3442,1.7139-0.3442h0.7471c0.7324,0,1.4087,0.1636,2.0288,0.4907
			s1.1353,0.769,1.5454,1.3257l0.9814-1.5234h0.6006v5.2441c0,0.6055-0.1147,1.1768-0.3442,1.7139s-0.5444,1.0059-0.9448,1.4063
			s-0.8691,0.7153-1.4063,0.9448s-1.1084,0.3442-1.7139,0.3442h-2.6074c-0.2051,0-0.4004,0.0415-0.5859,0.1245
			s-0.3491,0.1929-0.4907,0.3296s-0.2515,0.3003-0.3296,0.4907s-0.1172,0.3882-0.1172,0.5933s0.0391,0.4004,0.1172,0.5859
			s0.188,0.3491,0.3296,0.4907s0.3052,0.2515,0.4907,0.3296s0.3809,0.1172,0.5859,0.1172h2.4609
			c0.6055,0,1.1768,0.1001,1.7139,0.3003s1.0059,0.481,1.4063,0.8423s0.7153,0.7959,0.9448,1.3037s0.3442,1.0645,0.3442,1.6699
			v0.0586C174.9947,23.7939,174.88,24.3506,174.6505,24.8584z M173.3541,10.3125c0-0.3613-0.0684-0.7007-0.2051-1.0181
			s-0.3247-0.5933-0.564-0.8276s-0.5176-0.4199-0.835-0.5566s-0.6567-0.2051-1.0181-0.2051h-1.4941
			c-0.3613,0-0.7007,0.0684-1.0181,0.2051s-0.5933,0.3223-0.8276,0.5566s-0.4199,0.5103-0.5566,0.8276s-0.2051,0.6567-0.2051,1.0181
			v1.333c0,0.3613,0.0684,0.7007,0.2051,1.0181s0.3223,0.5933,0.5566,0.8276s0.5103,0.4199,0.8276,0.5566
			s0.6567,0.2051,1.0181,0.2051h1.4941c0.3613,0,0.7007-0.0684,1.0181-0.2051s0.5957-0.3223,0.835-0.5566
			s0.4272-0.5103,0.564-0.8276s0.2051-0.6567,0.2051-1.0181V10.3125z M173.2808,23.042c0-0.3613-0.0684-0.686-0.2051-0.9741
			s-0.3223-0.5298-0.5566-0.7251s-0.5103-0.3467-0.8276-0.4541s-0.6567-0.1611-1.0181-0.1611h-0.9229
			c-0.3613,0-0.7007,0.0537-1.0181,0.1611s-0.5933,0.2588-0.8276,0.4541s-0.4199,0.437-0.5566,0.7251s-0.2051,0.6128-0.2051,0.9741
			v0.2344c0,0.3613,0.0684,0.6836,0.2051,0.9668s0.3223,0.5249,0.5566,0.7251s0.5103,0.354,0.8276,0.4614
			s0.6567,0.1611,1.0181,0.1611h0.9229c0.3613,0,0.7007-0.0537,1.0181-0.1611s0.5933-0.2612,0.8276-0.4614
			s0.4199-0.4419,0.5566-0.7251s0.2051-0.6055,0.2051-0.9668V23.042z"/>
		<path d="M188.127,18.8965c-0.2295,0.5371-0.5444,1.0059-0.9448,1.4063s-0.8691,0.7153-1.4063,0.9448s-1.1084,0.3442-1.7139,0.3442
			h-1.2012c-0.6055,0-1.1768-0.1147-1.7139-0.3442s-1.0059-0.5444-1.4063-0.9448s-0.7153-0.8691-0.9448-1.4063
			s-0.3442-1.1084-0.3442-1.7139V10.415c0-0.6055,0.1147-1.1768,0.3442-1.7139s0.5444-1.0059,0.9448-1.4063
			s0.8691-0.7153,1.4063-0.9448s1.1084-0.3442,1.7139-0.3442h1.2012c0.6055,0,1.1768,0.1147,1.7139,0.3442
			s1.0059,0.5444,1.4063,0.9448s0.7153,0.8691,0.9448,1.4063s0.3442,1.1084,0.3442,1.7139v3.5303h-8.2178v3.3398
			c0,0.3613,0.0684,0.7007,0.2051,1.0181s0.3223,0.5933,0.5566,0.8276s0.5103,0.4199,0.8276,0.5566s0.6567,0.2051,1.0181,0.2051
			h1.2012c0.3613,0,0.7007-0.0684,1.0181-0.2051s0.5933-0.3223,0.8276-0.5566s0.4199-0.5103,0.5566-0.8276
			s0.2051-0.6567,0.2051-1.0181v-0.9961l1.8018,0.293v0.6006C188.4713,17.7881,188.3565,18.3594,188.127,18.8965z M186.6695,10.3125
			c0-0.3613-0.0684-0.7007-0.2051-1.0181s-0.3223-0.5933-0.5566-0.8276s-0.5103-0.4199-0.8276-0.5566s-0.6567-0.2051-1.0181-0.2051
			h-1.2012c-0.3613,0-0.7007,0.0684-1.0181,0.2051s-0.5933,0.3223-0.8276,0.5566s-0.4199,0.5103-0.5566,0.8276
			s-0.2051,0.6567-0.2051,1.0181v2.2266h6.416V10.3125z"/>
		<path d="M200.2926,21.2988V10.3125c0-0.3613-0.0684-0.7007-0.2051-1.0181s-0.3223-0.5933-0.5566-0.8276
			s-0.5103-0.4199-0.8276-0.5566s-0.6567-0.2051-1.0181-0.2051h-1.2012c-0.3613,0-0.7007,0.0684-1.0181,0.2051
			s-0.5933,0.3223-0.8276,0.5566s-0.4199,0.5103-0.5566,0.8276s-0.2051,0.6567-0.2051,1.0181v10.9863h-1.8018v-15h0.6006
			l0.9814,1.5234c0.4102-0.5566,0.9253-0.9985,1.5454-1.3257s1.2964-0.4907,2.0288-0.4907h0.4541
			c0.6055,0,1.1768,0.1147,1.7139,0.3442s1.0059,0.5444,1.4063,0.9448s0.7153,0.8691,0.9448,1.4063s0.3442,1.1084,0.3442,1.7139
			v10.8838H200.2926z"/>
		<path d="M215.3731,18.8965c-0.2295,0.5371-0.5444,1.0059-0.9448,1.4063s-0.8691,0.7153-1.4063,0.9448
			s-1.1084,0.3442-1.7139,0.3442h-1.2012c-0.6055,0-1.1768-0.1147-1.7139-0.3442s-1.0059-0.5444-1.4063-0.9448
			s-0.7153-0.8691-0.9448-1.4063s-0.3442-1.1084-0.3442-1.7139V10.415c0-0.6055,0.1147-1.1768,0.3442-1.7139
			s0.5444-1.0059,0.9448-1.4063s0.8691-0.7153,1.4063-0.9448s1.1084-0.3442,1.7139-0.3442h1.2012
			c0.6055,0,1.1768,0.1147,1.7139,0.3442s1.0059,0.5444,1.4063,0.9448s0.7153,0.8691,0.9448,1.4063s0.3442,1.1084,0.3442,1.7139
			v3.5303h-8.2178v3.3398c0,0.3613,0.0684,0.7007,0.2051,1.0181s0.3223,0.5933,0.5566,0.8276s0.5103,0.4199,0.8276,0.5566
			s0.6567,0.2051,1.0181,0.2051h1.2012c0.3613,0,0.7007-0.0684,1.0181-0.2051s0.5933-0.3223,0.8276-0.5566
			s0.4199-0.5103,0.5566-0.8276s0.2051-0.6567,0.2051-1.0181v-0.9961l1.8018,0.293v0.6006
			C215.7174,17.7881,215.6026,18.3594,215.3731,18.8965z M213.9156,10.3125c0-0.3613-0.0684-0.7007-0.2051-1.0181
			s-0.3223-0.5933-0.5566-0.8276s-0.5103-0.4199-0.8276-0.5566s-0.6567-0.2051-1.0181-0.2051h-1.2012
			c-0.3613,0-0.7007,0.0684-1.0181,0.2051s-0.5933,0.3223-0.8276,0.5566s-0.4199,0.5103-0.5566,0.8276s-0.2051,0.6567-0.2051,1.0181
			v2.2266h6.416V10.3125z"/>
		<path d="M223.7301,8.0127c-0.3613,0-0.7007,0.0684-1.0181,0.2051s-0.5933,0.3223-0.8276,0.5566s-0.4199,0.5103-0.5566,0.8276
			s-0.2051,0.6567-0.2051,1.0181v10.6787h-1.8018v-15h0.6006l0.9814,1.5234c0.4102-0.5566,0.9253-0.9985,1.5454-1.3257
			s1.2964-0.4907,2.0288-0.4907h1.0547v2.0068H223.7301z"/>
		<path d="M237.3526,21.2988l-0.9961-1.4941c-0.4102,0.5371-0.9229,0.9692-1.5381,1.2964s-1.2891,0.4907-2.0215,0.4907h-0.4541
			c-0.6055,0-1.1768-0.1147-1.7139-0.3442s-1.0059-0.5444-1.4063-0.9448s-0.7148-0.8691-0.9443-1.4063s-0.3447-1.1084-0.3447-1.7139
			v-0.1465c0-0.6055,0.1152-1.1768,0.3447-1.7139s0.5439-1.0059,0.9443-1.4063s0.8691-0.7153,1.4063-0.9448
			s1.1084-0.3442,1.7139-0.3442h3.8086v-2.3145c0-0.3613-0.0684-0.7007-0.2051-1.0181s-0.3223-0.5933-0.5566-0.8276
			s-0.5098-0.4199-0.8271-0.5566s-0.6572-0.2051-1.0186-0.2051h-1.0547c-0.3613,0-0.7002,0.0684-1.0176,0.2051
			s-0.5938,0.3223-0.8281,0.5566s-0.4199,0.5103-0.5566,0.8276s-0.2051,0.6567-0.2051,1.0181v0.542l-1.8018-0.293V10.415
			c0-0.6055,0.1152-1.1768,0.3447-1.7139s0.5439-1.0059,0.9443-1.4063s0.8691-0.7153,1.4063-0.9448s1.1084-0.3442,1.7139-0.3442
			h1.0547c0.6055,0,1.1768,0.1147,1.7139,0.3442s1.0059,0.5444,1.4063,0.9448s0.7158,0.8691,0.9453,1.4063
			s0.3438,1.1084,0.3438,1.7139v10.8838H237.3526z M236.1514,14.0332h-3.8086c-0.3613,0-0.7002,0.0684-1.0176,0.2051
			s-0.5938,0.3247-0.8281,0.564s-0.4199,0.5176-0.5566,0.835s-0.2051,0.6567-0.2051,1.0181v0.6299
			c0,0.3613,0.0684,0.7007,0.2051,1.0181s0.3223,0.5933,0.5566,0.8276s0.5107,0.4199,0.8281,0.5566s0.6563,0.2051,1.0176,0.2051
			h1.2012c0.3613,0,0.7012-0.0684,1.0186-0.2051s0.5928-0.3223,0.8271-0.5566s0.4199-0.5103,0.5566-0.8276
			s0.2051-0.6567,0.2051-1.0181V14.0332z"/>
		<path d="M242.1573,21.2988V0.293h1.8018v21.0059H242.1573z"/>
		<path d="M264.4815,21.2988l-0.9961-1.5234c-0.4102,0.5566-0.9229,0.9985-1.5381,1.3257s-1.2891,0.4907-2.0215,0.4907h-0.4541
			c-0.6055,0-1.1768-0.1147-1.7139-0.3442s-1.0059-0.5444-1.4063-0.9448c-0.4004-0.4004-0.7149-0.8691-0.9444-1.4063
			s-0.3447-1.1084-0.3447-1.7139V10.415c0-0.6055,0.1152-1.1768,0.3447-1.7139s0.5439-1.0059,0.9444-1.4063
			c0.4004-0.4004,0.8691-0.7153,1.4063-0.9448s1.1084-0.3442,1.7139-0.3442h0.4541c0.6738,0,1.2988,0.1367,1.875,0.4102
			s1.0693,0.6543,1.4795,1.1426V0.293h1.8018v21.0059H264.4815z M263.2804,10.3125c0-0.3613-0.0684-0.7007-0.2051-1.0181
			s-0.3223-0.5933-0.5566-0.8276s-0.5098-0.4199-0.8271-0.5566s-0.6572-0.2051-1.0186-0.2051h-1.2012
			c-0.3613,0-0.7002,0.0684-1.0176,0.2051s-0.5938,0.3223-0.8281,0.5566s-0.4199,0.5103-0.5566,0.8276s-0.2051,0.6567-0.2051,1.0181
			v6.9727c0,0.3613,0.0684,0.7007,0.2051,1.0181s0.3223,0.5933,0.5566,0.8276s0.5107,0.4199,0.8281,0.5566
			s0.6563,0.2051,1.0176,0.2051h1.2012c0.3613,0,0.7012-0.0684,1.0186-0.2051s0.5928-0.3223,0.8271-0.5566
			s0.4199-0.5103,0.5566-0.8276s0.2051-0.6567,0.2051-1.0181V10.3125z"/>
		<path d="M278.3614,18.8965c-0.2295,0.5371-0.5449,1.0059-0.9453,1.4063s-0.8691,0.7153-1.4063,0.9448
			s-1.1084,0.3442-1.7139,0.3442h-1.2012c-0.6055,0-1.1768-0.1147-1.7139-0.3442s-1.0059-0.5444-1.4063-0.9448
			s-0.7148-0.8691-0.9443-1.4063s-0.3447-1.1084-0.3447-1.7139V10.415c0-0.6055,0.1152-1.1768,0.3447-1.7139
			s0.5439-1.0059,0.9443-1.4063s0.8691-0.7153,1.4063-0.9448s1.1084-0.3442,1.7139-0.3442h1.2012
			c0.6055,0,1.1768,0.1147,1.7139,0.3442s1.0059,0.5444,1.4063,0.9448s0.7158,0.8691,0.9453,1.4063s0.3438,1.1084,0.3438,1.7139
			v3.5303h-8.2178v3.3398c0,0.3613,0.0684,0.7007,0.2051,1.0181s0.3223,0.5933,0.5566,0.8276s0.5107,0.4199,0.8281,0.5566
			s0.6563,0.2051,1.0176,0.2051h1.2012c0.3613,0,0.7012-0.0684,1.0186-0.2051s0.5928-0.3223,0.8271-0.5566
			s0.4199-0.5103,0.5566-0.8276s0.2051-0.6567,0.2051-1.0181v-0.9961l1.8018,0.293v0.6006
			C278.7052,17.7881,278.5909,18.3594,278.3614,18.8965z M276.9034,10.3125c0-0.3613-0.0684-0.7007-0.2051-1.0181
			s-0.3223-0.5933-0.5566-0.8276s-0.5098-0.4199-0.8271-0.5566s-0.6572-0.2051-1.0186-0.2051h-1.2012
			c-0.3613,0-0.7002,0.0684-1.0176,0.2051s-0.5938,0.3223-0.8281,0.5566s-0.4199,0.5103-0.5566,0.8276s-0.2051,0.6567-0.2051,1.0181
			v2.2266h6.416V10.3125z"/>
		<path d="M289.8087,21.2988V0.293h1.8896v21.0059H289.8087z"/>
		<path d="M308.0167,16.4355c0,0.7129-0.1436,1.3818-0.4316,2.0068s-0.6738,1.1719-1.1572,1.6406s-1.0449,0.8374-1.6846,1.106
			s-1.3164,0.4028-2.0293,0.4028h-1.5088c-0.7129,0-1.3887-0.1343-2.0283-0.4028s-1.2012-0.6372-1.6846-1.106
			s-0.8691-1.0156-1.1572-1.6406s-0.4326-1.2939-0.4326-2.0068v-0.835l1.8896-0.3076v1.1426c0,0.4688,0.0957,0.9058,0.2861,1.311
			s0.4463,0.7617,0.7686,1.0693s0.6963,0.5493,1.1211,0.7251s0.8711,0.2637,1.3398,0.2637h1.3184
			c0.4688,0,0.9131-0.0879,1.333-0.2637s0.791-0.4175,1.1133-0.7251s0.5791-0.6641,0.7695-1.0693s0.2852-0.8423,0.2852-1.311
			v-0.6299c0-0.7227-0.1416-1.3232-0.4248-1.8018s-0.6592-0.8862-1.1279-1.2231s-0.998-0.6226-1.5889-0.8569
			s-1.1992-0.4688-1.8242-0.7031s-1.2324-0.4932-1.8232-0.7764s-1.1211-0.6372-1.5898-1.062s-0.8447-0.9448-1.1279-1.5601
			s-0.4248-1.3721-0.4248-2.2705V5.1563c0-0.7129,0.1348-1.3818,0.4033-2.0068s0.6367-1.1719,1.1055-1.6406
			s1.0186-0.8374,1.6484-1.106S300.6534,0,301.3663,0h1.3477c0.7129,0,1.3818,0.1343,2.0068,0.4028s1.1719,0.6372,1.6406,1.106
			s0.8379,1.0156,1.1064,1.6406s0.4023,1.2939,0.4023,2.0068v0.542l-1.8896,0.3076V5.1563c0-0.4688-0.0879-0.9058-0.2637-1.311
			s-0.415-0.7593-0.7178-1.062s-0.6563-0.542-1.0615-0.7178s-0.8428-0.2637-1.3115-0.2637h-1.1719
			c-0.4688,0-0.9053,0.0879-1.3105,0.2637s-0.7617,0.415-1.0693,0.7178s-0.5498,0.6567-0.7256,1.062s-0.2637,0.8423-0.2637,1.311
			v0.3955c0,0.6738,0.1416,1.2402,0.4248,1.6992s0.6592,0.8521,1.1279,1.1792s0.999,0.6104,1.5898,0.8496
			s1.1982,0.4834,1.8232,0.7324s1.2334,0.5225,1.8242,0.8203s1.1201,0.6641,1.5889,1.0986s0.8447,0.9644,1.1279,1.5894
			s0.4248,1.3867,0.4248,2.2852V16.4355z"/>
		<path d="M323.1866,18.4424c-0.2695,0.625-0.6387,1.1719-1.1074,1.6406s-1.0156,0.8374-1.6406,1.106s-1.2939,0.4028-2.0068,0.4028
			h-1.4941c-0.7129,0-1.3838-0.1343-2.0137-0.4028s-1.1797-0.6372-1.6484-1.106s-0.8369-1.0156-1.1055-1.6406
			s-0.4033-1.2939-0.4033-2.0068V5.1563c0-0.7129,0.1348-1.3818,0.4033-2.0068s0.6367-1.1719,1.1055-1.6406
			s1.0186-0.8374,1.6484-1.106S316.2247,0,316.9376,0h1.4941c0.7129,0,1.3818,0.1343,2.0068,0.4028s1.1719,0.6372,1.6406,1.106
			s0.8379,1.0156,1.1074,1.6406c0.2676,0.625,0.4023,1.2939,0.4023,2.0068v11.2793
			C323.589,17.1484,323.4542,17.8174,323.1866,18.4424z M321.6983,5.1563c0-0.4688-0.0879-0.9058-0.2637-1.311
			s-0.415-0.7593-0.7178-1.062s-0.6563-0.542-1.0615-0.7178s-0.8428-0.2637-1.3115-0.2637h-1.3184
			c-0.4688,0-0.9053,0.0879-1.3105,0.2637s-0.7617,0.415-1.0693,0.7178s-0.5498,0.6567-0.7256,1.062s-0.2637,0.8423-0.2637,1.311
			v11.2793c0,0.4688,0.0879,0.9058,0.2637,1.311s0.418,0.7617,0.7256,1.0693s0.6641,0.5493,1.0693,0.7251
			s0.8418,0.2637,1.3105,0.2637h1.3184c0.4688,0,0.9063-0.0879,1.3115-0.2637s0.7588-0.4175,1.0615-0.7251
			s0.542-0.6641,0.7178-1.0693s0.2637-0.8423,0.2637-1.311V5.1563z"/>
		<path d="M345.8175,18.4424c-0.2695,0.625-0.6377,1.1719-1.1064,1.6406s-1.0156,0.8374-1.6406,1.106s-1.2939,0.4028-2.0068,0.4028
			h-0.9082c-0.7129,0-1.3818-0.1343-2.0068-0.4028s-1.1719-0.6372-1.6406-1.106s-0.8379-1.0156-1.1064-1.6406
			s-0.4023-1.2939-0.4023-2.0068v-0.542l1.8896-0.293v0.835c0,0.4688,0.0879,0.9058,0.2637,1.311s0.415,0.7617,0.7178,1.0693
			s0.6563,0.5493,1.0625,0.7251c0.4043,0.1758,0.8418,0.2637,1.3105,0.2637h0.7178c0.4688,0,0.9053-0.0879,1.3115-0.2637
			c0.4043-0.1758,0.7617-0.4175,1.0684-0.7251c0.3086-0.3076,0.5498-0.6641,0.7256-1.0693s0.2637-0.8423,0.2637-1.311v-5.2148
			c-0.4883,0.5273-1.0645,0.9497-1.7285,1.2671s-1.377,0.4761-2.1387,0.4761h-0.3076c-0.7129,0-1.3818-0.1343-2.0068-0.4028
			s-1.1719-0.6372-1.6406-1.106s-0.8379-1.0181-1.1064-1.6479s-0.4023-1.3013-0.4023-2.0142V5.1563
			c0-0.7129,0.1338-1.3818,0.4023-2.0068s0.6377-1.1719,1.1064-1.6406s1.0156-0.8374,1.6406-1.106S339.4425,0,340.1554,0h0.9082
			c0.7129,0,1.3818,0.1343,2.0068,0.4028s1.1719,0.6372,1.6406,1.106s0.8369,1.0156,1.1064,1.6406
			c0.2676,0.625,0.4023,1.2939,0.4023,2.0068v11.2793C346.2198,17.1484,346.0851,17.8174,345.8175,18.4424z M344.3302,5.1563
			c0-0.4688-0.0879-0.9058-0.2637-1.311s-0.417-0.7593-0.7256-1.062c-0.3066-0.3027-0.6641-0.542-1.0684-0.7178
			c-0.4063-0.1758-0.8428-0.2637-1.3115-0.2637h-0.7178c-0.4688,0-0.9063,0.0879-1.3105,0.2637
			c-0.4063,0.1758-0.7598,0.415-1.0625,0.7178s-0.542,0.6567-0.7178,1.062s-0.2637,0.8423-0.2637,1.311V7.793
			c0,0.4688,0.0879,0.9058,0.2637,1.311s0.415,0.7617,0.7178,1.0693s0.6563,0.5493,1.0625,0.7251
			c0.4043,0.1758,0.8418,0.2637,1.3105,0.2637h0.7178c0.4688,0,0.9053-0.0879,1.3115-0.2637
			c0.4043-0.1758,0.7617-0.4175,1.0684-0.7251c0.3086-0.3076,0.5498-0.6641,0.7256-1.0693s0.2637-0.8423,0.2637-1.311V5.1563z"/>
		<path d="M360.9347,18.4424c-0.2686,0.625-0.6367,1.1719-1.1055,1.6406s-1.0156,0.8374-1.6406,1.106s-1.2939,0.4028-2.0068,0.4028
			h-0.8936c-0.7129,0-1.3848-0.1343-2.0137-0.4028c-0.6309-0.2686-1.1797-0.6372-1.6484-1.106s-0.8379-1.0156-1.1055-1.6406
			c-0.2695-0.625-0.4033-1.2939-0.4033-2.0068V5.1563c0-0.7129,0.1338-1.3818,0.4033-2.0068
			c0.2676-0.625,0.6367-1.1719,1.1055-1.6406s1.0176-0.8374,1.6484-1.106C353.9034,0.1343,354.5753,0,355.2882,0h0.8936
			c0.7129,0,1.3818,0.1343,2.0068,0.4028s1.1719,0.6372,1.6406,1.106s0.8369,1.0156,1.1055,1.6406s0.4033,1.2939,0.4033,2.0068
			v11.2793C361.338,17.1484,361.2032,17.8174,360.9347,18.4424z M359.4483,5.1563c0-0.4688-0.0879-0.9058-0.2637-1.311
			s-0.415-0.7593-0.7178-1.062s-0.6572-0.542-1.0615-0.7178c-0.4063-0.1758-0.8428-0.2637-1.3115-0.2637h-0.7178
			c-0.4688,0-0.9063,0.0879-1.3105,0.2637c-0.4063,0.1758-0.7617,0.415-1.0703,0.7178c-0.3066,0.3027-0.5488,0.6567-0.7246,1.062
			s-0.2637,0.8423-0.2637,1.311v11.2793c0,0.4688,0.0879,0.9058,0.2637,1.311s0.418,0.7617,0.7246,1.0693
			c0.3086,0.3076,0.6641,0.5493,1.0703,0.7251c0.4043,0.1758,0.8418,0.2637,1.3105,0.2637h0.7178
			c0.4688,0,0.9053-0.0879,1.3115-0.2637c0.4043-0.1758,0.7588-0.4175,1.0615-0.7251s0.542-0.6641,0.7178-1.0693
			s0.2637-0.8423,0.2637-1.311V5.1563z"/>
		<path d="M376.3585,18.4424c-0.2686,0.625-0.6367,1.1719-1.1055,1.6406s-1.0156,0.8374-1.6406,1.106s-1.2939,0.4028-2.0068,0.4028
			h-0.8936c-0.7129,0-1.3848-0.1343-2.0137-0.4028c-0.6309-0.2686-1.1797-0.6372-1.6484-1.106s-0.8379-1.0156-1.1055-1.6406
			c-0.2695-0.625-0.4033-1.2939-0.4033-2.0068V5.1563c0-0.7129,0.1338-1.3818,0.4033-2.0068
			c0.2676-0.625,0.6367-1.1719,1.1055-1.6406s1.0176-0.8374,1.6484-1.106C369.3272,0.1343,369.9991,0,370.712,0h0.8936
			c0.7129,0,1.3818,0.1343,2.0068,0.4028s1.1719,0.6372,1.6406,1.106s0.8369,1.0156,1.1055,1.6406s0.4033,1.2939,0.4033,2.0068
			v11.2793C376.7618,17.1484,376.627,17.8174,376.3585,18.4424z M374.8722,5.1563c0-0.4688-0.0879-0.9058-0.2637-1.311
			s-0.415-0.7593-0.7178-1.062s-0.6572-0.542-1.0615-0.7178c-0.4063-0.1758-0.8428-0.2637-1.3115-0.2637h-0.7178
			c-0.4688,0-0.9063,0.0879-1.3105,0.2637c-0.4063,0.1758-0.7617,0.415-1.0703,0.7178c-0.3066,0.3027-0.5488,0.6567-0.7246,1.062
			s-0.2637,0.8423-0.2637,1.311v11.2793c0,0.4688,0.0879,0.9058,0.2637,1.311s0.418,0.7617,0.7246,1.0693
			c0.3086,0.3076,0.6641,0.5493,1.0703,0.7251c0.4043,0.1758,0.8418,0.2637,1.3105,0.2637h0.7178
			c0.4688,0,0.9053-0.0879,1.3115-0.2637c0.4043-0.1758,0.7588-0.4175,1.0615-0.7251s0.542-0.6641,0.7178-1.0693
			s0.2637-0.8423,0.2637-1.311V5.1563z"/>
		<path d="M391.7843,18.4424c-0.2686,0.625-0.6367,1.1719-1.1055,1.6406s-1.0156,0.8374-1.6406,1.106s-1.2939,0.4028-2.0068,0.4028
			h-0.8936c-0.7129,0-1.3848-0.1343-2.0137-0.4028c-0.6309-0.2686-1.1797-0.6372-1.6484-1.106s-0.8379-1.0156-1.1055-1.6406
			c-0.2695-0.625-0.4033-1.2939-0.4033-2.0068V5.1563c0-0.7129,0.1338-1.3818,0.4033-2.0068
			c0.2676-0.625,0.6367-1.1719,1.1055-1.6406s1.0176-0.8374,1.6484-1.106C384.753,0.1343,385.4249,0,386.1378,0h0.8936
			c0.7129,0,1.3818,0.1343,2.0068,0.4028s1.1719,0.6372,1.6406,1.106s0.8369,1.0156,1.1055,1.6406s0.4033,1.2939,0.4033,2.0068
			v11.2793C392.1876,17.1484,392.0528,17.8174,391.7843,18.4424z M390.2979,5.1563c0-0.4688-0.0879-0.9058-0.2637-1.311
			s-0.415-0.7593-0.7178-1.062s-0.6572-0.542-1.0615-0.7178c-0.4063-0.1758-0.8428-0.2637-1.3115-0.2637h-0.7178
			c-0.4688,0-0.9063,0.0879-1.3105,0.2637c-0.4063,0.1758-0.7617,0.415-1.0703,0.7178c-0.3066,0.3027-0.5488,0.6567-0.7246,1.062
			s-0.2637,0.8423-0.2637,1.311v11.2793c0,0.4688,0.0879,0.9058,0.2637,1.311s0.418,0.7617,0.7246,1.0693
			c0.3086,0.3076,0.6641,0.5493,1.0703,0.7251c0.4043,0.1758,0.8418,0.2637,1.3105,0.2637h0.7178
			c0.4688,0,0.9053-0.0879,1.3115-0.2637c0.4043-0.1758,0.7588-0.4175,1.0615-0.7251s0.542-0.6641,0.7178-1.0693
			s0.2637-0.8423,0.2637-1.311V5.1563z"/>
		<path d="M395.7901,12.1143V10.415h5.6104v1.6992H395.7901z"/>
		<path d="M415.8214,18.4424c-0.2686,0.625-0.6367,1.1719-1.1055,1.6406s-1.0156,0.8374-1.6406,1.106s-1.2939,0.4028-2.0068,0.4028
			h-0.8936c-0.7129,0-1.3848-0.1343-2.0137-0.4028c-0.6309-0.2686-1.1797-0.6372-1.6484-1.106s-0.8379-1.0156-1.1055-1.6406
			c-0.2695-0.625-0.4033-1.2939-0.4033-2.0068v-0.542l1.8896-0.293v0.835c0,0.4688,0.0879,0.9058,0.2637,1.311
			s0.418,0.7617,0.7246,1.0693c0.3086,0.3076,0.6641,0.5493,1.0703,0.7251c0.4043,0.1758,0.8418,0.2637,1.3105,0.2637h0.7178
			c0.4688,0,0.9053-0.0879,1.3115-0.2637c0.4043-0.1758,0.7588-0.4175,1.0615-0.7251s0.542-0.6641,0.7178-1.0693
			s0.2637-0.8423,0.2637-1.311v-1.7432c0-0.4688-0.0879-0.9058-0.2637-1.311s-0.415-0.7593-0.7178-1.062
			s-0.6572-0.542-1.0615-0.7178c-0.4063-0.1758-0.8428-0.2637-1.3115-0.2637h-1.4063V9.5361h1.4063
			c0.4688,0,0.9053-0.0879,1.3115-0.2637c0.4043-0.1758,0.7588-0.415,1.0615-0.7178s0.542-0.6567,0.7178-1.062
			s0.2637-0.8423,0.2637-1.311V5.1563c0-0.4688-0.0879-0.9058-0.2637-1.311s-0.415-0.7593-0.7178-1.062s-0.6572-0.542-1.0615-0.7178
			c-0.4063-0.1758-0.8428-0.2637-1.3115-0.2637h-0.7178c-0.4688,0-0.9063,0.0879-1.3105,0.2637
			c-0.4063,0.1758-0.7617,0.415-1.0703,0.7178c-0.3066,0.3027-0.5488,0.6567-0.7246,1.062s-0.2637,0.8423-0.2637,1.311v0.8496
			l-1.8896-0.3076v-0.542c0-0.7129,0.1338-1.3818,0.4033-2.0068c0.2676-0.625,0.6367-1.1719,1.1055-1.6406
			s1.0176-0.8374,1.6484-1.106C408.7901,0.1343,409.462,0,410.1749,0h0.8936c0.7129,0,1.3818,0.1343,2.0068,0.4028
			s1.1719,0.6372,1.6406,1.106s0.8369,1.0156,1.1055,1.6406s0.4033,1.2939,0.4033,2.0068V5.874c0,0.498-0.0654,0.9741-0.1982,1.4282
			c-0.1309,0.4541-0.3174,0.8765-0.5566,1.2671s-0.5244,0.7446-0.8564,1.062s-0.7031,0.5884-1.1133,0.813
			c0.4102,0.2148,0.7813,0.481,1.1133,0.7983s0.6172,0.6714,0.8564,1.062s0.4258,0.813,0.5566,1.2671
			c0.1328,0.4541,0.1982,0.9302,0.1982,1.4282v1.4355C416.2247,17.1484,416.0899,17.8174,415.8214,18.4424z"/>
	</g>
</g>
<g>
	<g>
		<polygon points="441.8096,37.9208 6.4326,37.9208 6.4326,35.4823 440.8438,35.4823 		"/>
	</g>
	<path d="M15.6817,36.0292c0,4.3291-3.5323,7.8604-7.8614,7.8604C3.4473,43.8896,0,40.3583,0,36.0292
		c0-4.372,3.4473-7.7344,7.8203-7.7344C12.1494,28.2948,15.6817,31.6572,15.6817,36.0292z"/>
	<g>
		<path d="M450.0899,35.3984c0,4.3291-3.4864,7.8603-7.8584,7.8603c-4.2891,0-7.7784-3.5312-7.7784-7.8603
			c0-4.3721,3.4893-7.7764,7.7784-7.7764C446.6035,27.622,450.0899,31.0263,450.0899,35.3984z"/>
		<g>
			<path d="M442.2315,52.0458c-9.1661,0-16.6065-7.3994-16.6065-16.6474c0-9.1221,7.4404-16.6885,16.6065-16.6885
				c9.2451,0,16.6865,7.5664,16.6865,16.6885C458.918,44.6464,451.4766,52.0458,442.2315,52.0458z M442.2315,22.2402
				c-7.2725,0-13.2002,5.9277-13.2002,13.1582c0,7.3154,5.9277,13.2412,13.2002,13.2412c7.3134,0,13.2832-5.9258,13.2832-13.2412
				C455.5147,28.1679,449.5449,22.2402,442.2315,22.2402z"/>
		</g>
	</g>
</g>
</svg>
