<?xml version="1.0" encoding="utf-8"?>
<!-- Generator: Adobe Illustrator 21.0.0, SVG Export Plug-In . SVG Version: 6.00 Build 0)  -->
<svg version="1.1" id="Capa_1" xmlns="http://www.w3.org/2000/svg" xmlns:xlink="http://www.w3.org/1999/xlink" x="0px" y="0px"
	 viewBox="0 0 120.1631 10.3223" style="enable-background:new 0 0 120.1631 10.3223;" xml:space="preserve">
<g>
	<g>
		<path d="M0,5.4785l0.9824-0.0859c0.0469,0.3936,0.1553,0.7168,0.3252,0.9688c0.1699,0.2529,0.4346,0.457,0.792,0.6123
			C2.458,7.1299,2.8613,7.207,3.3086,7.207c0.3975,0,0.748-0.0586,1.0527-0.1768S4.8926,6.75,5.041,6.5439
			s0.2227-0.4307,0.2227-0.6738c0-0.2471-0.0713-0.4629-0.2148-0.6475s-0.3799-0.3389-0.709-0.4648
			c-0.2109-0.082-0.6787-0.21-1.4023-0.3838C2.2148,4.2002,1.708,4.0371,1.418,3.8828C1.042,3.6855,0.7617,3.4414,0.5771,3.1494
			S0.3008,2.5313,0.3008,2.1699c0-0.3984,0.1133-0.7695,0.3379-1.1152C0.8652,0.709,1.1943,0.4473,1.627,0.2676
			C2.0605,0.0889,2.542,0,3.0723,0c0.584,0,1.0986,0.0938,1.5439,0.2813c0.4463,0.1885,0.7891,0.4648,1.0283,0.8301
			c0.2402,0.3652,0.3691,0.7793,0.3867,1.2402l-0.998,0.0762c-0.0547-0.498-0.2363-0.874-0.5459-1.1289
			C4.1777,1.0449,3.7207,0.918,3.1152,0.918c-0.6299,0-1.0898,0.1152-1.3779,0.3467c-0.2881,0.2305-0.4326,0.5088-0.4326,0.835
			c0,0.2832,0.1025,0.5156,0.3066,0.6982C1.8115,2.9805,2.3359,3.168,3.1826,3.3594s1.4277,0.3584,1.7432,0.502
			c0.458,0.2109,0.7959,0.4785,1.0146,0.8027s0.3271,0.6973,0.3271,1.1201c0,0.4189-0.1191,0.8135-0.3594,1.1846
			C5.668,7.3389,5.3232,7.627,4.874,7.833S3.9189,8.1426,3.3574,8.1426c-0.7129,0-1.3105-0.1045-1.792-0.3125
			C1.084,7.623,0.7061,7.3105,0.4326,6.8936C0.1582,6.4766,0.0146,6.0039,0,5.4785z"/>
		<path d="M11.29,7.3047c-0.3584,0.3037-0.7031,0.5186-1.0342,0.6445c-0.3311,0.125-0.6865,0.1875-1.0654,0.1875
			c-0.627,0-1.1084-0.1533-1.4453-0.459C7.4082,7.3711,7.2402,6.9805,7.2402,6.5039c0-0.2793,0.0635-0.5342,0.1904-0.7656
			c0.127-0.2305,0.2939-0.416,0.5-0.5557S8.3682,4.9375,8.626,4.8652c0.1895-0.0498,0.4766-0.0977,0.8594-0.1445
			c0.7803-0.0928,1.3555-0.2041,1.7246-0.333c0.0029-0.1328,0.0049-0.2168,0.0049-0.2529c0-0.3936-0.0908-0.6709-0.2744-0.832
			c-0.2461-0.2188-0.6133-0.3281-1.1006-0.3281c-0.4551,0-0.79,0.0801-1.0068,0.2393s-0.377,0.4414-0.4805,0.8467L7.4072,3.9316
			c0.0859-0.4053,0.2266-0.7314,0.4238-0.9805S8.3125,2.5107,8.6846,2.376c0.373-0.1338,0.8047-0.2012,1.2949-0.2012
			c0.4873,0,0.8828,0.0576,1.1875,0.1719c0.3037,0.1143,0.5273,0.2588,0.6709,0.4326s0.2432,0.3926,0.3008,0.6582
			c0.0322,0.1641,0.0479,0.4609,0.0479,0.8906v1.2891c0,0.8994,0.0215,1.4678,0.0625,1.7061s0.1221,0.4658,0.2441,0.6846h-1.0098
			C11.3828,7.8076,11.3184,7.5723,11.29,7.3047z M11.21,5.1445c-0.3516,0.1436-0.8779,0.2656-1.5801,0.3652
			C9.2334,5.5674,8.9521,5.6318,8.7871,5.7031c-0.165,0.0723-0.292,0.1768-0.3818,0.3145c-0.0889,0.1377-0.1338,0.291-0.1338,0.459
			c0,0.2578,0.0977,0.4727,0.293,0.6445s0.4805,0.2578,0.8564,0.2578c0.3721,0,0.7031-0.0811,0.9941-0.2441
			c0.2891-0.1631,0.5029-0.3857,0.6387-0.668C11.1572,6.248,11.21,5.9258,11.21,5.5V5.1445z"/>
		<path d="M13.6846,8.0078V2.3037h0.8711v0.8115c0.418-0.627,1.0234-0.9404,1.8145-0.9404c0.3438,0,0.6602,0.0615,0.9482,0.1855
			c0.2881,0.123,0.5039,0.2852,0.6475,0.4854c0.1436,0.2012,0.2432,0.4395,0.3008,0.7148c0.0361,0.1787,0.0537,0.4922,0.0537,0.9395
			v3.5078h-0.9668V4.5381c0-0.3936-0.0381-0.6885-0.1123-0.8838c-0.0762-0.1953-0.209-0.3506-0.4004-0.4668
			s-0.416-0.1748-0.6738-0.1748c-0.4121,0-0.7676,0.1309-1.0664,0.3916c-0.2988,0.2617-0.4492,0.7578-0.4492,1.4883v3.1152H13.6846z
			"/>
		<path d="M21.9141,7.1426l0.1396,0.8545c-0.2725,0.0576-0.5156,0.0859-0.7305,0.0859c-0.3506,0-0.623-0.0557-0.8164-0.167
			c-0.1934-0.1104-0.3291-0.2568-0.4082-0.4375s-0.1182-0.5605-0.1182-1.1406V3.0557h-0.709v-0.752h0.709V0.8906l0.9609-0.5801
			v1.9932h0.9727v0.752h-0.9727v3.335c0,0.2764,0.0176,0.4531,0.0518,0.5322s0.0889,0.1416,0.166,0.1885
			c0.0771,0.0459,0.1875,0.0693,0.3311,0.0693C21.5977,7.1807,21.7383,7.168,21.9141,7.1426z"/>
		<path d="M22.8643,1.2461V0.1338h0.9668v1.1123H22.8643z M22.8643,8.0078V2.3037h0.9668v5.7041H22.8643z"/>
		<path d="M29.0254,7.3047c-0.3584,0.3037-0.7031,0.5186-1.0342,0.6445c-0.3311,0.125-0.6865,0.1875-1.0654,0.1875
			c-0.627,0-1.1084-0.1533-1.4453-0.459c-0.3369-0.3066-0.5049-0.6973-0.5049-1.1738c0-0.2793,0.0635-0.5342,0.1904-0.7656
			c0.127-0.2305,0.2939-0.416,0.5-0.5557s0.4375-0.2451,0.6953-0.3174c0.1895-0.0498,0.4766-0.0977,0.8594-0.1445
			c0.7803-0.0928,1.3555-0.2041,1.7246-0.333c0.0029-0.1328,0.0049-0.2168,0.0049-0.2529c0-0.3936-0.0908-0.6709-0.2744-0.832
			c-0.2461-0.2188-0.6133-0.3281-1.1006-0.3281c-0.4551,0-0.79,0.0801-1.0068,0.2393s-0.377,0.4414-0.4805,0.8467l-0.9453-0.1289
			c0.0859-0.4053,0.2266-0.7314,0.4238-0.9805s0.4814-0.4404,0.8535-0.5752c0.373-0.1338,0.8047-0.2012,1.2949-0.2012
			c0.4873,0,0.8828,0.0576,1.1875,0.1719c0.3037,0.1143,0.5273,0.2588,0.6709,0.4326s0.2432,0.3926,0.3008,0.6582
			c0.0322,0.1641,0.0479,0.4609,0.0479,0.8906v1.2891c0,0.8994,0.0215,1.4678,0.0625,1.7061s0.1221,0.4658,0.2441,0.6846h-1.0098
			C29.1182,7.8076,29.0537,7.5723,29.0254,7.3047z M28.9453,5.1445c-0.3516,0.1436-0.8779,0.2656-1.5801,0.3652
			c-0.3965,0.0576-0.6777,0.1221-0.8428,0.1934c-0.165,0.0723-0.292,0.1768-0.3818,0.3145c-0.0889,0.1377-0.1338,0.291-0.1338,0.459
			c0,0.2578,0.0977,0.4727,0.293,0.6445s0.4805,0.2578,0.8564,0.2578c0.3721,0,0.7031-0.0811,0.9941-0.2441
			c0.2891-0.1631,0.5029-0.3857,0.6387-0.668c0.1035-0.2188,0.1563-0.541,0.1563-0.9668V5.1445z"/>
		<path d="M31.2441,8.4805l0.9404,0.1396c0.0391,0.29,0.1484,0.501,0.3271,0.6338c0.2402,0.1787,0.5674,0.2686,0.9834,0.2686
			c0.4473,0,0.793-0.0898,1.0361-0.2686s0.4082-0.4297,0.4941-0.752c0.0498-0.1973,0.0732-0.6104,0.0693-1.2402
			c-0.4219,0.4971-0.9482,0.7461-1.5781,0.7461c-0.7852,0-1.3916-0.2832-1.8213-0.8486S31.0508,5.915,31.0508,5.123
			c0-0.5439,0.0986-1.0459,0.2959-1.5059c0.1963-0.46,0.4824-0.8154,0.8564-1.0664s0.8135-0.376,1.3184-0.376
			c0.6729,0,1.2285,0.2725,1.665,0.8164V2.3037h0.8916v4.9307c0,0.8877-0.0908,1.5176-0.2715,1.8877
			C35.626,9.4932,35.3398,9.7852,34.9473,10c-0.3916,0.2148-0.874,0.3223-1.4473,0.3223c-0.6807,0-1.2295-0.1523-1.6494-0.459
			C31.4326,9.5576,31.2295,9.0967,31.2441,8.4805z M32.0439,5.0537c0,0.748,0.1494,1.2939,0.4463,1.6377
			s0.6699,0.5156,1.1172,0.5156c0.4443,0,0.8164-0.1709,1.1172-0.5127s0.4512-0.8779,0.4512-1.6084
			c0-0.6982-0.1553-1.2246-0.4648-1.5791s-0.6826-0.5322-1.1201-0.5322c-0.4297,0-0.7949,0.1748-1.0957,0.5244
			C32.1943,3.8477,32.0439,4.3662,32.0439,5.0537z"/>
		<path d="M37.1787,5.1563c0-1.0566,0.2939-1.8389,0.8809-2.3477c0.4902-0.4229,1.0889-0.6338,1.7939-0.6338
			c0.7842,0,1.4248,0.2568,1.9229,0.7705s0.7461,1.2236,0.7461,2.1299c0,0.7344-0.1094,1.3115-0.3301,1.7324
			c-0.2197,0.4209-0.54,0.7471-0.9609,0.9795c-0.4209,0.2334-0.8799,0.3496-1.3779,0.3496c-0.7988,0-1.4443-0.2559-1.9365-0.7676
			C37.4248,6.8564,37.1787,6.1191,37.1787,5.1563z M38.1729,5.1563c0,0.7305,0.1592,1.2773,0.4775,1.6406
			s0.7197,0.5449,1.2031,0.5449c0.4795,0,0.8789-0.1826,1.1982-0.5479c0.3184-0.3652,0.4775-0.9219,0.4775-1.6709
			c0-0.7051-0.1602-1.2393-0.4805-1.6025s-0.7188-0.5459-1.1953-0.5459c-0.4834,0-0.8848,0.1816-1.2031,0.543
			S38.1729,4.4258,38.1729,5.1563z"/>
		<path d="M46.793,8.0078v-7.874h1.042v6.9443h3.8779v0.9297H46.793z"/>
		<path d="M52.4697,5.1563c0-1.0566,0.2939-1.8389,0.8809-2.3477c0.4902-0.4229,1.0889-0.6338,1.7939-0.6338
			c0.7842,0,1.4248,0.2568,1.9229,0.7705s0.7461,1.2236,0.7461,2.1299c0,0.7344-0.1094,1.3115-0.3301,1.7324
			c-0.2197,0.4209-0.54,0.7471-0.9609,0.9795c-0.4209,0.2334-0.8799,0.3496-1.3779,0.3496c-0.7988,0-1.4443-0.2559-1.9365-0.7676
			C52.7158,6.8564,52.4697,6.1191,52.4697,5.1563z M53.4639,5.1563c0,0.7305,0.1592,1.2773,0.4775,1.6406
			s0.7197,0.5449,1.2031,0.5449c0.4795,0,0.8789-0.1826,1.1982-0.5479c0.3184-0.3652,0.4775-0.9219,0.4775-1.6709
			c0-0.7051-0.1602-1.2393-0.4805-1.6025s-0.7188-0.5459-1.1953-0.5459c-0.4834,0-0.8848,0.1816-1.2031,0.543
			S53.4639,4.4258,53.4639,5.1563z"/>
		<path d="M58.4375,8.0078V7.2236l3.6309-4.168c-0.4121,0.0215-0.7754,0.0322-1.0898,0.0322h-2.3262V2.3037h4.6621v0.6396
			l-3.0879,3.6191l-0.5967,0.6611c0.4336-0.0322,0.8398-0.0479,1.2197-0.0479h2.6367v0.832H58.4375z"/>
		<path d="M68.1699,7.3047c-0.3584,0.3037-0.7031,0.5186-1.0342,0.6445c-0.3311,0.125-0.6865,0.1875-1.0654,0.1875
			c-0.627,0-1.1084-0.1533-1.4453-0.459c-0.3369-0.3066-0.5049-0.6973-0.5049-1.1738c0-0.2793,0.0635-0.5342,0.1904-0.7656
			c0.127-0.2305,0.2939-0.416,0.5-0.5557s0.4375-0.2451,0.6953-0.3174c0.1895-0.0498,0.4766-0.0977,0.8594-0.1445
			c0.7803-0.0928,1.3555-0.2041,1.7246-0.333c0.0029-0.1328,0.0049-0.2168,0.0049-0.2529c0-0.3936-0.0908-0.6709-0.2744-0.832
			c-0.2461-0.2188-0.6133-0.3281-1.1006-0.3281c-0.4551,0-0.79,0.0801-1.0068,0.2393s-0.377,0.4414-0.4805,0.8467l-0.9453-0.1289
			c0.0859-0.4053,0.2266-0.7314,0.4238-0.9805s0.4814-0.4404,0.8535-0.5752c0.373-0.1338,0.8047-0.2012,1.2949-0.2012
			c0.4873,0,0.8828,0.0576,1.1875,0.1719c0.3037,0.1143,0.5273,0.2588,0.6709,0.4326s0.2432,0.3926,0.3008,0.6582
			c0.0322,0.1641,0.0479,0.4609,0.0479,0.8906v1.2891c0,0.8994,0.0215,1.4678,0.0625,1.7061s0.1221,0.4658,0.2441,0.6846h-1.0098
			C68.2627,7.8076,68.1982,7.5723,68.1699,7.3047z M68.0898,5.1445c-0.3516,0.1436-0.8779,0.2656-1.5801,0.3652
			c-0.3965,0.0576-0.6777,0.1221-0.8428,0.1934c-0.165,0.0723-0.292,0.1768-0.3818,0.3145c-0.0889,0.1377-0.1338,0.291-0.1338,0.459
			c0,0.2578,0.0977,0.4727,0.293,0.6445s0.4805,0.2578,0.8564,0.2578c0.3721,0,0.7031-0.0811,0.9941-0.2441
			c0.2891-0.1631,0.5029-0.3857,0.6387-0.668c0.1035-0.2188,0.1563-0.541,0.1563-0.9668V5.1445z"/>
		<path d="M74.2666,8.0078V7.2881c-0.3613,0.5654-0.8936,0.8486-1.5957,0.8486c-0.4541,0-0.8721-0.125-1.2539-0.376
			c-0.3809-0.251-0.6768-0.6006-0.8857-1.0498c-0.21-0.4492-0.3145-0.9658-0.3145-1.5498c0-0.5693,0.0947-1.0859,0.2842-1.5498
			c0.1904-0.4639,0.4746-0.8184,0.8545-1.0664c0.3799-0.2461,0.8037-0.3701,1.2725-0.3701c0.3438,0,0.6504,0.0723,0.9189,0.2178
			c0.2686,0.1445,0.4873,0.334,0.6553,0.5664V0.1338h0.9609v7.874H74.2666z M71.21,5.1611c0,0.7305,0.1543,1.2764,0.4629,1.6377
			c0.3076,0.3623,0.6709,0.543,1.0898,0.543c0.4229,0,0.7813-0.1729,1.0771-0.5186c0.2949-0.3457,0.4424-0.8721,0.4424-1.5811
			c0-0.7813-0.1504-1.3535-0.4512-1.7188s-0.6709-0.5488-1.1113-0.5488c-0.4297,0-0.7891,0.1758-1.0771,0.5273
			C71.3545,3.8525,71.21,4.4053,71.21,5.1611z"/>
		<path d="M80.4053,7.3047c-0.3584,0.3037-0.7031,0.5186-1.0342,0.6445c-0.3311,0.125-0.6865,0.1875-1.0654,0.1875
			c-0.627,0-1.1084-0.1533-1.4453-0.459c-0.3369-0.3066-0.5049-0.6973-0.5049-1.1738c0-0.2793,0.0635-0.5342,0.1904-0.7656
			c0.127-0.2305,0.2939-0.416,0.5-0.5557s0.4375-0.2451,0.6953-0.3174c0.1895-0.0498,0.4766-0.0977,0.8594-0.1445
			c0.7803-0.0928,1.3555-0.2041,1.7246-0.333c0.0029-0.1328,0.0049-0.2168,0.0049-0.2529c0-0.3936-0.0908-0.6709-0.2744-0.832
			c-0.2461-0.2188-0.6133-0.3281-1.1006-0.3281c-0.4551,0-0.79,0.0801-1.0068,0.2393s-0.377,0.4414-0.4805,0.8467l-0.9453-0.1289
			c0.0859-0.4053,0.2266-0.7314,0.4238-0.9805s0.4814-0.4404,0.8535-0.5752c0.373-0.1338,0.8047-0.2012,1.2949-0.2012
			c0.4873,0,0.8828,0.0576,1.1875,0.1719c0.3037,0.1143,0.5273,0.2588,0.6709,0.4326s0.2432,0.3926,0.3008,0.6582
			c0.0322,0.1641,0.0479,0.4609,0.0479,0.8906v1.2891c0,0.8994,0.0215,1.4678,0.0625,1.7061s0.1221,0.4658,0.2441,0.6846h-1.0098
			C80.498,7.8076,80.4336,7.5723,80.4053,7.3047z M80.3252,5.1445c-0.3516,0.1436-0.8779,0.2656-1.5801,0.3652
			c-0.3965,0.0576-0.6777,0.1221-0.8428,0.1934c-0.165,0.0723-0.292,0.1768-0.3818,0.3145c-0.0889,0.1377-0.1338,0.291-0.1338,0.459
			c0,0.2578,0.0977,0.4727,0.293,0.6445s0.4805,0.2578,0.8564,0.2578c0.3721,0,0.7031-0.0811,0.9941-0.2441
			c0.2891-0.1631,0.5029-0.3857,0.6387-0.668c0.1035-0.2188,0.1563-0.541,0.1563-0.9668V5.1445z"/>
		<path d="M89.665,4.9199V3.9961l3.3359-0.0059v2.9219C92.4883,7.3203,91.96,7.627,91.416,7.833s-1.1025,0.3096-1.6758,0.3096
			c-0.7734,0-1.4766-0.166-2.1084-0.4971S86.5225,6.835,86.2002,6.209c-0.3223-0.627-0.4824-1.3271-0.4824-2.1006
			c0-0.7666,0.1602-1.4814,0.4805-2.1455s0.7813-1.1582,1.3828-1.4805S88.876,0,89.6592,0c0.5703,0,1.085,0.0918,1.5449,0.2764
			s0.8203,0.4414,1.082,0.7705s0.46,0.7588,0.5957,1.2891l-0.9395,0.2578c-0.1182-0.4014-0.2646-0.7158-0.4404-0.9453
			s-0.4258-0.4131-0.752-0.5508s-0.6875-0.207-1.085-0.207c-0.4766,0-0.8877,0.0732-1.2354,0.2178
			c-0.3477,0.1455-0.6279,0.3359-0.8408,0.5723S87.21,2.1768,87.0928,2.459c-0.2012,0.4873-0.3008,1.0156-0.3008,1.585
			c0,0.7021,0.1201,1.2891,0.3623,1.7617c0.2412,0.4727,0.5928,0.8232,1.0557,1.0527c0.4609,0.2295,0.9521,0.3438,1.4707,0.3438
			c0.4512,0,0.8926-0.0869,1.3223-0.2607s0.7549-0.3584,0.9766-0.5557V4.9199H89.665z"/>
		<path d="M98.1357,7.3047c-0.3584,0.3037-0.7031,0.5186-1.0342,0.6445c-0.3311,0.125-0.6865,0.1875-1.0654,0.1875
			c-0.627,0-1.1084-0.1533-1.4453-0.459c-0.3369-0.3066-0.5049-0.6973-0.5049-1.1738c0-0.2793,0.0635-0.5342,0.1904-0.7656
			c0.127-0.2305,0.2939-0.416,0.5-0.5557s0.4375-0.2451,0.6953-0.3174c0.1895-0.0498,0.4766-0.0977,0.8594-0.1445
			c0.7803-0.0928,1.3555-0.2041,1.7246-0.333c0.0029-0.1328,0.0049-0.2168,0.0049-0.2529c0-0.3936-0.0908-0.6709-0.2744-0.832
			C97.54,3.084,97.1729,2.9746,96.6855,2.9746c-0.4551,0-0.79,0.0801-1.0068,0.2393s-0.377,0.4414-0.4805,0.8467l-0.9453-0.1289
			c0.0859-0.4053,0.2266-0.7314,0.4238-0.9805s0.4814-0.4404,0.8535-0.5752c0.373-0.1338,0.8047-0.2012,1.2949-0.2012
			c0.4873,0,0.8828,0.0576,1.1875,0.1719c0.3037,0.1143,0.5273,0.2588,0.6709,0.4326s0.2432,0.3926,0.3008,0.6582
			c0.0322,0.1641,0.0479,0.4609,0.0479,0.8906v1.2891c0,0.8994,0.0215,1.4678,0.0625,1.7061s0.1221,0.4658,0.2441,0.6846h-1.0098
			C98.2285,7.8076,98.1641,7.5723,98.1357,7.3047z M98.0557,5.1445c-0.3516,0.1436-0.8779,0.2656-1.5801,0.3652
			c-0.3965,0.0576-0.6777,0.1221-0.8428,0.1934c-0.165,0.0723-0.292,0.1768-0.3818,0.3145c-0.0889,0.1377-0.1338,0.291-0.1338,0.459
			c0,0.2578,0.0977,0.4727,0.293,0.6445s0.4805,0.2578,0.8564,0.2578c0.3721,0,0.7031-0.0811,0.9941-0.2441
			c0.2891-0.1631,0.5029-0.3857,0.6387-0.668c0.1035-0.2188,0.1563-0.541,0.1563-0.9668V5.1445z"/>
		<path d="M100.5205,8.0078V2.3037h0.8691V3.168c0.2227-0.4043,0.4277-0.6709,0.6152-0.7998
			c0.1885-0.1289,0.3945-0.1934,0.6211-0.1934c0.3252,0,0.6563,0.1035,0.9932,0.3115l-0.333,0.8965
			c-0.2363-0.1387-0.4727-0.209-0.709-0.209c-0.2109,0-0.4014,0.0635-0.5693,0.1904s-0.2881,0.3037-0.3604,0.5293
			c-0.1074,0.3438-0.1602,0.7197-0.1602,1.1279v2.9863H100.5205z"/>
		<path d="M107.916,5.918l0.9512,0.124c-0.1045,0.6553-0.3701,1.168-0.7979,1.5391c-0.4277,0.3701-0.9541,0.5557-1.5771,0.5557
			c-0.7803,0-1.4072-0.2549-1.8818-0.7656c-0.4746-0.5098-0.7119-1.2412-0.7119-2.1934c0-0.6162,0.1016-1.1553,0.3066-1.6172
			c0.2031-0.4619,0.5146-0.8086,0.9316-1.0391c0.417-0.2314,0.8711-0.3467,1.3613-0.3467c0.6191,0,1.126,0.1563,1.5195,0.4697
			c0.3945,0.3135,0.6465,0.7588,0.7578,1.335l-0.9395,0.1455c-0.0898-0.3838-0.248-0.6719-0.4756-0.8652s-0.5029-0.29-0.8252-0.29
			c-0.4863,0-0.8818,0.1748-1.1865,0.5234c-0.3047,0.3496-0.4561,0.9014-0.4561,1.6572c0,0.7666,0.1465,1.3232,0.4395,1.6699
			c0.2939,0.3477,0.6777,0.5215,1.1504,0.5215c0.3789,0,0.6963-0.1162,0.9502-0.3496C107.6865,6.7598,107.8477,6.4023,107.916,5.918
			z"/>
		<path d="M113.5986,6.1709l0.999,0.124c-0.1572,0.583-0.4492,1.0361-0.875,1.3584c-0.4268,0.3223-0.9707,0.4834-1.6328,0.4834
			c-0.835,0-1.4961-0.2568-1.9854-0.7705c-0.4883-0.5137-0.7334-1.2344-0.7334-2.1621c0-0.96,0.248-1.7041,0.7422-2.2344
			s1.1348-0.7949,1.9219-0.7949c0.7637,0,1.3867,0.2598,1.8691,0.7783c0.4844,0.5195,0.7256,1.25,0.7256,2.1914
			c0,0.0576-0.002,0.1436-0.0049,0.2578h-4.2539c0.0352,0.627,0.2129,1.1074,0.5313,1.4395c0.3184,0.334,0.7158,0.5,1.1924,0.5
			c0.3545,0,0.6572-0.0928,0.9072-0.2793C113.2529,6.876,113.4521,6.5791,113.5986,6.1709z M110.4238,4.6074h3.1855
			c-0.043-0.4795-0.165-0.8389-0.3652-1.0791c-0.3076-0.3721-0.707-0.5586-1.1973-0.5586c-0.4443,0-0.8174,0.1484-1.1201,0.4463
			C110.624,3.7129,110.457,4.1104,110.4238,4.6074z M111.4668,1.5947l0.7139-1.5039h1.2676l-1.1816,1.5039H111.4668z"/>
		<path d="M115.4248,6.3047l0.957-0.1504c0.0527,0.3838,0.2031,0.6777,0.4482,0.8809c0.2451,0.2051,0.5879,0.3066,1.0283,0.3066
			c0.4443,0,0.7734-0.0908,0.9883-0.2715s0.3223-0.3926,0.3223-0.6367c0-0.2178-0.0947-0.3896-0.2852-0.5156
			c-0.1318-0.0859-0.4609-0.1943-0.9883-0.3271c-0.709-0.1787-1.2002-0.334-1.4736-0.4648c-0.2744-0.1309-0.4814-0.3115-0.623-0.542
			c-0.1416-0.2314-0.2119-0.4863-0.2119-0.7656c0-0.2539,0.0576-0.4893,0.1738-0.7061s0.2754-0.3965,0.4756-0.54
			c0.1504-0.1113,0.3555-0.2051,0.6152-0.2822s0.5381-0.1152,0.835-0.1152c0.4473,0,0.8408,0.0645,1.1787,0.1934
			c0.3389,0.1289,0.5889,0.3037,0.749,0.5234c0.1621,0.2207,0.2725,0.5146,0.334,0.8838l-0.9453,0.1289
			c-0.043-0.2939-0.168-0.5225-0.374-0.6875s-0.4971-0.2471-0.8721-0.2471c-0.4443,0-0.7617,0.0732-0.9512,0.2197
			c-0.1895,0.1475-0.2852,0.3193-0.2852,0.5156c0,0.126,0.04,0.2383,0.1191,0.3389c0.0781,0.1035,0.2021,0.1895,0.3701,0.2578
			c0.0967,0.0361,0.3818,0.1182,0.8545,0.2471c0.6836,0.1826,1.1602,0.332,1.4307,0.4482s0.4824,0.2861,0.6367,0.5078
			s0.2314,0.498,0.2314,0.8271c0,0.3223-0.0947,0.626-0.2822,0.9102c-0.1885,0.2852-0.46,0.5049-0.8135,0.6611
			c-0.3555,0.1553-0.7559,0.2334-1.2031,0.2334c-0.7422,0-1.3066-0.1543-1.6953-0.4619S115.5322,6.9102,115.4248,6.3047z"/>
	</g>
</g>
</svg>
