<?xml version="1.0" encoding="utf-8"?>
<!-- Generator: Adobe Illustrator 21.0.0, SVG Export Plug-In . SVG Version: 6.00 Build 0)  -->
<svg version="1.1" id="Capa_1" xmlns="http://www.w3.org/2000/svg" xmlns:xlink="http://www.w3.org/1999/xlink" x="0px" y="0px"
	 viewBox="0 0 261.917 51.7529" style="enable-background:new 0 0 261.917 51.7529;" xml:space="preserve">
<g>
	<g>
		<path d="M24.5699,21.0059V0h1.8896v19.2041h8.042v1.8018H24.5699z"/>
		<path d="M37.358,2.4023V0h2.0947v2.4023H37.358z M37.5044,21.0059v-15h1.8018v15H37.5044z"/>
		<path d="M53.8228,17.1973c0,0.6055-0.1221,1.1592-0.3662,1.6621s-0.5762,0.9355-0.9961,1.2969s-0.9058,0.6416-1.4575,0.8418
			s-1.1304,0.3008-1.7358,0.3008H48.066c-0.6055,0-1.1841-0.1152-1.7358-0.3447s-1.0352-0.5439-1.4502-0.9443
			s-0.7471-0.8691-0.9961-1.4063s-0.3735-1.1084-0.3735-1.7139v-0.6006l1.8018-0.293v0.9961c0,0.3613,0.0757,0.7002,0.2271,1.0176
			s0.354,0.5938,0.6079,0.8281s0.5469,0.4199,0.8789,0.5566s0.6787,0.2051,1.04,0.2051h1.2012c0.3613,0,0.708-0.0537,1.04-0.1611
			s0.6274-0.2617,0.8862-0.4619s0.4639-0.4414,0.6152-0.7246s0.2271-0.6055,0.2271-0.9668c0-0.5371-0.1172-0.9766-0.3516-1.3184
			s-0.5444-0.6279-0.9302-0.8574s-0.8252-0.4199-1.3184-0.5713s-0.9985-0.3027-1.5161-0.4541s-1.0229-0.3242-1.5161-0.5195
			s-0.9326-0.4521-1.3184-0.7695s-0.6958-0.7148-0.9302-1.1934s-0.3516-1.0742-0.3516-1.7871c0-0.6055,0.1172-1.1602,0.3516-1.6631
			s0.5518-0.9346,0.9521-1.2959s0.8667-0.6426,1.3989-0.8428s1.1011-0.2998,1.7065-0.2998h1.0547
			c0.6055,0,1.1768,0.1143,1.7139,0.3438s1.0059,0.5449,1.4063,0.9453s0.7153,0.8691,0.9448,1.4063s0.3442,1.1084,0.3442,1.7139
			v0.0586l-1.8018,0.293v-0.4541c0-0.3613-0.0684-0.7012-0.2051-1.0186s-0.3223-0.5928-0.5566-0.8271s-0.5103-0.4199-0.8276-0.5566
			s-0.6567-0.2051-1.0181-0.2051h-1.0547c-0.3613,0-0.7007,0.0537-1.0181,0.1611s-0.5933,0.2607-0.8276,0.4609
			s-0.4199,0.4424-0.5566,0.7256S45.605,9.3652,45.605,9.7266c0,0.5176,0.1172,0.9395,0.3516,1.2666s0.5444,0.6035,0.9302,0.8281
			s0.8252,0.4121,1.3184,0.5635s0.9961,0.3076,1.5088,0.4688s1.0156,0.3447,1.5088,0.5498s0.9326,0.4688,1.3184,0.791
			s0.6958,0.7246,0.9302,1.208S53.8228,16.4844,53.8228,17.1973z"/>
		<path d="M62.7437,21.0059c-0.5469,0-1.062-0.1025-1.5454-0.3076s-0.9033-0.4883-1.2598-0.8496s-0.6396-0.7813-0.8496-1.2598
			s-0.3149-0.9912-0.3149-1.5381V7.7197h-2.6953V6.0059h2.6953V2.4023l1.8018-0.293v3.8965h3.8086v1.7139h-3.8086v9.4189
			c0,0.3027,0.0562,0.583,0.1685,0.8418s0.2661,0.4863,0.4614,0.6816s0.4248,0.3486,0.6885,0.4609s0.5469,0.1689,0.8496,0.1689
			h1.6406v1.7139H62.7437z"/>
		<path d="M77.1133,21.0059l-0.9961-1.4941c-0.4102,0.5371-0.9229,0.9688-1.5381,1.2959s-1.2886,0.4912-2.021,0.4912h-0.4541
			c-0.6055,0-1.1768-0.1152-1.7139-0.3447s-1.0059-0.5439-1.4063-0.9443s-0.7153-0.8691-0.9448-1.4063s-0.3442-1.1084-0.3442-1.7139
			v-0.1465c0-0.6055,0.1147-1.1768,0.3442-1.7139s0.5444-1.0059,0.9448-1.4063s0.8691-0.7158,1.4063-0.9453
			s1.1084-0.3438,1.7139-0.3438h3.8081v-2.3145c0-0.3613-0.0684-0.7012-0.2051-1.0186s-0.3223-0.5928-0.5566-0.8271
			s-0.5098-0.4199-0.8271-0.5566s-0.6572-0.2051-1.0181-0.2051h-1.0547c-0.3613,0-0.7007,0.0684-1.0181,0.2051
			s-0.5933,0.3223-0.8276,0.5566s-0.4199,0.5098-0.5566,0.8271s-0.2051,0.6572-0.2051,1.0186v0.542l-1.8018-0.293v-0.1465
			c0-0.6055,0.1147-1.1768,0.3442-1.7139S68.73,7.4023,69.1304,7.002s0.8691-0.7158,1.4063-0.9453s1.1084-0.3438,1.7139-0.3438
			h1.0547c0.605,0,1.1763,0.1143,1.7134,0.3438s1.0059,0.5449,1.4063,0.9453s0.7158,0.8691,0.9453,1.4063
			s0.3438,1.1084,0.3438,1.7139v10.8838H77.1133z M75.9122,13.7402h-3.8081c-0.3613,0-0.7007,0.0684-1.0181,0.2051
			s-0.5933,0.3242-0.8276,0.5635s-0.4199,0.5176-0.5566,0.835s-0.2051,0.6572-0.2051,1.0186v0.6299
			c0,0.3613,0.0684,0.7002,0.2051,1.0176s0.3223,0.5938,0.5566,0.8281s0.5103,0.4199,0.8276,0.5566s0.6567,0.2051,1.0181,0.2051
			h1.2012c0.3608,0,0.7007-0.0684,1.0181-0.2051s0.5928-0.3223,0.8271-0.5566s0.4199-0.5107,0.5566-0.8281
			s0.2051-0.6563,0.2051-1.0176V13.7402z"/>
		<path d="M97.6358,21.0059l-0.9961-1.5234c-0.4102,0.5566-0.9229,0.998-1.5381,1.3252s-1.2891,0.4912-2.0215,0.4912H92.626
			c-0.6055,0-1.1768-0.1152-1.7139-0.3447s-1.0059-0.5439-1.4063-0.9443s-0.7148-0.8691-0.9443-1.4063s-0.3447-1.1084-0.3447-1.7139
			v-6.7676c0-0.6055,0.1152-1.1768,0.3447-1.7139s0.5439-1.0059,0.9443-1.4063s0.8691-0.7158,1.4063-0.9453
			s1.1084-0.3438,1.7139-0.3438h0.4541c0.6738,0,1.2988,0.1367,1.875,0.4102s1.0693,0.6543,1.4795,1.1426V0h1.8018v21.0059H97.6358z
			 M96.4346,10.0195c0-0.3613-0.0684-0.7012-0.2051-1.0186s-0.3223-0.5928-0.5566-0.8271s-0.5098-0.4199-0.8271-0.5566
			s-0.6572-0.2051-1.0186-0.2051H92.626c-0.3613,0-0.7002,0.0684-1.0176,0.2051s-0.5938,0.3223-0.8281,0.5566
			s-0.4199,0.5098-0.5566,0.8271s-0.2051,0.6572-0.2051,1.0186v6.9727c0,0.3613,0.0684,0.7002,0.2051,1.0176
			s0.3223,0.5938,0.5566,0.8281s0.5107,0.4199,0.8281,0.5566s0.6563,0.2051,1.0176,0.2051h1.2012
			c0.3613,0,0.7012-0.0684,1.0186-0.2051s0.5928-0.3223,0.8271-0.5566s0.4199-0.5107,0.5566-0.8281s0.2051-0.6563,0.2051-1.0176
			V10.0195z"/>
		<path d="M111.5157,18.6035c-0.2295,0.5371-0.5449,1.0059-0.9453,1.4063s-0.8691,0.7148-1.4063,0.9443
			s-1.1084,0.3447-1.7139,0.3447h-1.2012c-0.6055,0-1.1768-0.1152-1.7139-0.3447s-1.0059-0.5439-1.4063-0.9443
			s-0.7148-0.8691-0.9443-1.4063s-0.3447-1.1084-0.3447-1.7139v-6.7676c0-0.6055,0.1152-1.1768,0.3447-1.7139
			s0.5439-1.0059,0.9443-1.4063s0.8691-0.7158,1.4063-0.9453s1.1084-0.3438,1.7139-0.3438h1.2012
			c0.6055,0,1.1768,0.1143,1.7139,0.3438s1.0059,0.5449,1.4063,0.9453s0.7158,0.8691,0.9453,1.4063s0.3438,1.1084,0.3438,1.7139
			v3.5303h-8.2178v3.3398c0,0.3613,0.0684,0.7002,0.2051,1.0176s0.3223,0.5938,0.5566,0.8281s0.5107,0.4199,0.8281,0.5566
			s0.6563,0.2051,1.0176,0.2051h1.2012c0.3613,0,0.7012-0.0684,1.0186-0.2051s0.5928-0.3223,0.8271-0.5566
			s0.4199-0.5107,0.5566-0.8281s0.2051-0.6563,0.2051-1.0176v-0.9961l1.8018,0.293v0.6006
			C111.8594,17.4951,111.7452,18.0664,111.5157,18.6035z M110.0577,10.0195c0-0.3613-0.0684-0.7012-0.2051-1.0186
			s-0.3223-0.5928-0.5566-0.8271s-0.5098-0.4199-0.8271-0.5566s-0.6572-0.2051-1.0186-0.2051h-1.2012
			c-0.3613,0-0.7002,0.0684-1.0176,0.2051s-0.5938,0.3223-0.8281,0.5566s-0.4199,0.5098-0.5566,0.8271s-0.2051,0.6572-0.2051,1.0186
			v2.2266h6.416V10.0195z"/>
		<path d="M132.0381,18.6035c-0.2295,0.5371-0.5449,1.0059-0.9453,1.4063s-0.8691,0.7148-1.4063,0.9443
			s-1.1084,0.3447-1.7139,0.3447h-1.2012c-0.6055,0-1.1768-0.1152-1.7139-0.3447s-1.0059-0.5439-1.4063-0.9443
			s-0.7148-0.8691-0.9443-1.4063s-0.3447-1.1084-0.3447-1.7139v-6.7676c0-0.6055,0.1152-1.1768,0.3447-1.7139
			s0.5439-1.0059,0.9443-1.4063s0.8691-0.7158,1.4063-0.9453s1.1084-0.3438,1.7139-0.3438h1.2012
			c0.6055,0,1.1768,0.1143,1.7139,0.3438s1.0059,0.5449,1.4063,0.9453s0.7158,0.8691,0.9453,1.4063s0.3438,1.1084,0.3438,1.7139
			v0.6006l-1.8018,0.293v-0.9961c0-0.3613-0.0684-0.7012-0.2051-1.0186s-0.3223-0.5928-0.5566-0.8271s-0.5098-0.4199-0.8271-0.5566
			s-0.6572-0.2051-1.0185-0.2051h-1.2012c-0.3613,0-0.7002,0.0684-1.0176,0.2051s-0.5938,0.3223-0.8281,0.5566
			s-0.4199,0.5098-0.5566,0.8271s-0.2051,0.6572-0.2051,1.0186v6.9727c0,0.3613,0.0684,0.7002,0.2051,1.0176
			s0.3223,0.5938,0.5566,0.8281s0.5107,0.4199,0.8281,0.5566s0.6563,0.2051,1.0176,0.2051h1.2012
			c0.3613,0,0.7012-0.0684,1.0185-0.2051s0.5928-0.3223,0.8271-0.5566s0.4199-0.5107,0.5566-0.8281s0.2051-0.6563,0.2051-1.0176
			v-0.9961l1.8018,0.293v0.6006C132.3819,17.4951,132.2676,18.0664,132.0381,18.6035z"/>
		<path d="M144.2032,21.0059V10.0195c0-0.3613-0.0684-0.7012-0.2051-1.0186s-0.3223-0.5928-0.5566-0.8271
			s-0.5098-0.4199-0.8271-0.5566s-0.6572-0.2051-1.0186-0.2051h-1.2012c-0.3613,0-0.7002,0.0684-1.0176,0.2051
			s-0.5938,0.3223-0.8281,0.5566s-0.4199,0.5098-0.5566,0.8271s-0.2051,0.6572-0.2051,1.0186v10.9863h-1.8018V0h1.8018v7.2656
			c0.4102-0.4883,0.9033-0.8691,1.4795-1.1426s1.2012-0.4102,1.875-0.4102h0.4541c0.6055,0,1.1768,0.1143,1.7139,0.3438
			s1.0059,0.5449,1.4063,0.9453s0.7158,0.8691,0.9453,1.4063s0.3438,1.1084,0.3438,1.7139v10.8838H144.2032z"/>
		<path d="M159.2842,18.6035c-0.2295,0.5371-0.5449,1.0059-0.9453,1.4063s-0.8691,0.7148-1.4063,0.9443
			s-1.1084,0.3447-1.7139,0.3447h-1.2012c-0.6055,0-1.1768-0.1152-1.7139-0.3447s-1.0059-0.5439-1.4063-0.9443
			s-0.7148-0.8691-0.9443-1.4063s-0.3447-1.1084-0.3447-1.7139v-6.7676c0-0.6055,0.1152-1.1768,0.3447-1.7139
			s0.5439-1.0059,0.9443-1.4063s0.8691-0.7158,1.4063-0.9453s1.1084-0.3438,1.7139-0.3438h1.2012
			c0.6055,0,1.1768,0.1143,1.7139,0.3438s1.0059,0.5449,1.4063,0.9453s0.7158,0.8691,0.9453,1.4063s0.3438,1.1084,0.3438,1.7139
			v3.5303h-8.2178v3.3398c0,0.3613,0.0684,0.7002,0.2051,1.0176s0.3223,0.5938,0.5566,0.8281s0.5107,0.4199,0.8281,0.5566
			s0.6563,0.2051,1.0176,0.2051h1.2012c0.3613,0,0.7012-0.0684,1.0186-0.2051s0.5928-0.3223,0.8271-0.5566
			s0.4199-0.5107,0.5566-0.8281s0.2051-0.6563,0.2051-1.0176v-0.9961l1.8018,0.293v0.6006
			C159.628,17.4951,159.5137,18.0664,159.2842,18.6035z M157.8262,10.0195c0-0.3613-0.0684-0.7012-0.2051-1.0186
			s-0.3223-0.5928-0.5566-0.8271s-0.5098-0.4199-0.8271-0.5566s-0.6572-0.2051-1.0186-0.2051h-1.2012
			c-0.3613,0-0.7002,0.0684-1.0176,0.2051s-0.5938,0.3223-0.8281,0.5566s-0.4199,0.5098-0.5566,0.8271s-0.2051,0.6572-0.2051,1.0186
			v2.2266h6.416V10.0195z"/>
		<path d="M171.4493,27.0117v-7.2656c-0.4102,0.4883-0.9033,0.8691-1.4795,1.1426s-1.2012,0.4102-1.875,0.4102h-0.4541
			c-0.6055,0-1.1768-0.1152-1.7139-0.3447s-1.0059-0.5439-1.4063-0.9443s-0.7148-0.8691-0.9443-1.4063s-0.3447-1.1084-0.3447-1.7139
			v-6.7676c0-0.6055,0.1152-1.1768,0.3447-1.7139s0.5439-1.0059,0.9443-1.4063s0.8691-0.7158,1.4063-0.9453
			s1.1084-0.3438,1.7139-0.3438h0.4541c0.7324,0,1.4063,0.1631,2.0215,0.4902s1.1279,0.7695,1.5381,1.3262l0.9961-1.5234h0.6006
			v21.0059H171.4493z M171.4493,10.0195c0-0.3613-0.0684-0.7012-0.2051-1.0186s-0.3223-0.5928-0.5566-0.8271
			s-0.5098-0.4199-0.8271-0.5566s-0.6572-0.2051-1.0186-0.2051h-1.2012c-0.3613,0-0.7002,0.0684-1.0176,0.2051
			s-0.5938,0.3223-0.8281,0.5566s-0.4199,0.5098-0.5566,0.8271s-0.2051,0.6572-0.2051,1.0186v6.9727
			c0,0.3613,0.0684,0.7002,0.2051,1.0176s0.3223,0.5938,0.5566,0.8281s0.5107,0.4199,0.8281,0.5566s0.6563,0.2051,1.0176,0.2051
			h1.2012c0.3613,0,0.7012-0.0684,1.0186-0.2051s0.5928-0.3223,0.8271-0.5566s0.4199-0.5107,0.5566-0.8281
			s0.2051-0.6563,0.2051-1.0176V10.0195z"/>
		<path d="M186.2735,21.0059l-0.9961-1.5234c-0.4102,0.5566-0.9229,0.998-1.5381,1.3252s-1.2891,0.4912-2.0215,0.4912h-0.4541
			c-0.6055,0-1.1768-0.1152-1.7139-0.3447s-1.0059-0.5439-1.4063-0.9443s-0.7148-0.8691-0.9443-1.4063s-0.3447-1.1084-0.3447-1.7139
			V6.0059h1.8018v10.9863c0,0.3613,0.0684,0.7002,0.2051,1.0176s0.3223,0.5938,0.5566,0.8281s0.5107,0.4199,0.8281,0.5566
			s0.6563,0.2051,1.0176,0.2051h1.2012c0.3613,0,0.7012-0.0684,1.0186-0.2051s0.5928-0.3223,0.8271-0.5566
			s0.4199-0.5107,0.5566-0.8281s0.2051-0.6563,0.2051-1.0176V6.0059h1.8018v15H186.2735z"/>
		<path d="M200.1534,18.6035c-0.2295,0.5371-0.5449,1.0059-0.9453,1.4063s-0.8691,0.7148-1.4063,0.9443
			s-1.1084,0.3447-1.7139,0.3447h-1.2012c-0.6055,0-1.1768-0.1152-1.7139-0.3447s-1.0059-0.5439-1.4063-0.9443
			s-0.7148-0.8691-0.9443-1.4063s-0.3447-1.1084-0.3447-1.7139v-6.7676c0-0.6055,0.1152-1.1768,0.3447-1.7139
			s0.5439-1.0059,0.9443-1.4063s0.8691-0.7158,1.4063-0.9453s1.1084-0.3438,1.7139-0.3438h1.2012
			c0.6055,0,1.1768,0.1143,1.7139,0.3438s1.0059,0.5449,1.4063,0.9453s0.7158,0.8691,0.9453,1.4063s0.3438,1.1084,0.3438,1.7139
			v3.5303h-8.2178v3.3398c0,0.3613,0.0684,0.7002,0.2051,1.0176s0.3223,0.5938,0.5566,0.8281s0.5107,0.4199,0.8281,0.5566
			s0.6563,0.2051,1.0176,0.2051h1.2012c0.3613,0,0.7012-0.0684,1.0186-0.2051s0.5928-0.3223,0.8271-0.5566
			s0.4199-0.5107,0.5566-0.8281s0.2051-0.6563,0.2051-1.0176v-0.9961l1.8018,0.293v0.6006
			C200.4971,17.4951,200.3829,18.0664,200.1534,18.6035z M198.6954,10.0195c0-0.3613-0.0684-0.7012-0.2051-1.0186
			s-0.3223-0.5928-0.5566-0.8271s-0.5098-0.4199-0.8271-0.5566s-0.6572-0.2051-1.0186-0.2051h-1.2012
			c-0.3613,0-0.7002,0.0684-1.0176,0.2051s-0.5938,0.3223-0.8281,0.5566s-0.4199,0.5098-0.5566,0.8271s-0.2051,0.6572-0.2051,1.0186
			v2.2266h6.416V10.0195z"/>
		<path d="M213.7764,18.6035c-0.2295,0.5371-0.5449,1.0059-0.9453,1.4063s-0.8691,0.7148-1.4063,0.9443
			s-1.1084,0.3447-1.7139,0.3447h-1.2012c-0.6055,0-1.1768-0.1152-1.7139-0.3447s-1.0059-0.5439-1.4063-0.9443
			s-0.7148-0.8691-0.9443-1.4063s-0.3447-1.1084-0.3447-1.7139v-6.7676c0-0.6055,0.1152-1.1768,0.3447-1.7139
			s0.5439-1.0059,0.9443-1.4063s0.8691-0.7158,1.4063-0.9453s1.1084-0.3438,1.7139-0.3438h1.2012
			c0.6055,0,1.1768,0.1143,1.7139,0.3438s1.0059,0.5449,1.4063,0.9453s0.7158,0.8691,0.9453,1.4063s0.3438,1.1084,0.3438,1.7139
			v6.7676C214.1202,17.4951,214.0059,18.0664,213.7764,18.6035z M212.3184,10.0195c0-0.3613-0.0684-0.7012-0.2051-1.0186
			s-0.3223-0.5928-0.5566-0.8271s-0.5098-0.4199-0.8271-0.5566s-0.6572-0.2051-1.0186-0.2051h-1.2012
			c-0.3613,0-0.7002,0.0684-1.0176,0.2051s-0.5938,0.3223-0.8281,0.5566s-0.4199,0.5098-0.5566,0.8271s-0.2051,0.6572-0.2051,1.0186
			v6.9727c0,0.3613,0.0684,0.7002,0.2051,1.0176s0.3223,0.5938,0.5566,0.8281s0.5107,0.4199,0.8281,0.5566
			s0.6563,0.2051,1.0176,0.2051h1.2012c0.3613,0,0.7012-0.0684,1.0186-0.2051s0.5928-0.3223,0.8271-0.5566
			s0.4199-0.5107,0.5566-0.8281s0.2051-0.6563,0.2051-1.0176V10.0195z"/>
	</g>
</g>
<g>
	<g>
		<polygon points="244.8086,37.6279 6.4317,37.6279 6.4317,35.1894 243.8438,35.1894 		"/>
	</g>
	<path d="M15.6817,35.7363c0,4.3291-3.5323,7.8604-7.8614,7.8604C3.4473,43.5967,0,40.0654,0,35.7363
		c0-4.372,3.4473-7.7334,7.8203-7.7334C12.1494,28.0029,15.6817,31.3643,15.6817,35.7363z"/>
	<g>
		<path d="M253.0899,35.1055c0,4.3291-3.4864,7.8603-7.8584,7.8603c-4.2891,0-7.7784-3.5312-7.7784-7.8603
			c0-4.3721,3.4893-7.7764,7.7784-7.7764C249.6035,27.3291,253.0899,30.7334,253.0899,35.1055z"/>
		<g>
			<path d="M245.2315,51.7529c-9.1661,0-16.6065-7.3994-16.6065-16.6474c0-9.1221,7.4404-16.6885,16.6065-16.6885
				c9.2451,0,16.6855,7.5664,16.6855,16.6885C261.917,44.3535,254.4766,51.7529,245.2315,51.7529z M245.2315,21.9473
				c-7.2725,0-13.2002,5.9287-13.2002,13.1582c0,7.3154,5.9277,13.2412,13.2002,13.2412c7.3134,0,13.2832-5.9258,13.2832-13.2412
				C258.5147,27.876,252.5449,21.9473,245.2315,21.9473z"/>
		</g>
	</g>
</g>
</svg>
