<?xml version="1.0" encoding="utf-8"?>
<!-- Generator: Adobe Illustrator 21.0.0, SVG Export Plug-In . SVG Version: 6.00 Build 0)  -->
<svg version="1.1" id="Capa_1" xmlns="http://www.w3.org/2000/svg" xmlns:xlink="http://www.w3.org/1999/xlink" x="0px" y="0px"
	 viewBox="0 0 86.8 10.1" style="enable-background:new 0 0 86.8 10.1;" xml:space="preserve">
<g>
	<g>
		<path d="M0,7.9V0h5.7V1H1v2.4h4.4v0.9H1V7h4.8v0.9H0z"/>
		<path d="M6.1,7.9l2.1-3L6.3,2.2h1.2l0.9,1.3C8.5,3.8,8.6,4,8.7,4.2C8.9,4,9,3.7,9.2,3.6l1-1.3h1.2l-2,2.7l2.1,3h-1.2L9.1,6.1
			L8.8,5.7L7.3,7.9H6.1z"/>
		<path d="M11.8,10.1V2.2h0.9V3c0.2-0.3,0.4-0.5,0.7-0.7c0.3-0.1,0.6-0.2,1-0.2c0.5,0,0.9,0.1,1.3,0.4c0.4,0.3,0.7,0.6,0.8,1.1
			c0.2,0.5,0.3,1,0.3,1.5c0,0.6-0.1,1.1-0.3,1.6c-0.2,0.5-0.5,0.8-0.9,1.1S14.7,8,14.3,8C14,8,13.7,8,13.4,7.8s-0.5-0.3-0.6-0.5v2.8
			H11.8z M12.7,5.1c0,0.7,0.1,1.3,0.4,1.6c0.3,0.4,0.7,0.5,1.1,0.5c0.4,0,0.8-0.2,1.1-0.5c0.3-0.4,0.5-0.9,0.5-1.7
			c0-0.7-0.2-1.3-0.4-1.6s-0.7-0.5-1.1-0.5c-0.4,0-0.8,0.2-1.1,0.6C12.8,3.8,12.7,4.4,12.7,5.1z"/>
		<path d="M21.4,6.1l1,0.1c-0.2,0.6-0.4,1-0.9,1.4c-0.4,0.3-1,0.5-1.6,0.5c-0.8,0-1.5-0.3-2-0.8c-0.5-0.5-0.7-1.2-0.7-2.2
			c0-1,0.2-1.7,0.7-2.2s1.1-0.8,1.9-0.8c0.8,0,1.4,0.3,1.9,0.8c0.5,0.5,0.7,1.3,0.7,2.2c0,0.1,0,0.1,0,0.3h-4.3
			c0,0.6,0.2,1.1,0.5,1.4c0.3,0.3,0.7,0.5,1.2,0.5c0.4,0,0.7-0.1,0.9-0.3C21,6.8,21.2,6.5,21.4,6.1z M18.2,4.5h3.2
			c0-0.5-0.2-0.8-0.4-1.1c-0.3-0.4-0.7-0.6-1.2-0.6c-0.4,0-0.8,0.1-1.1,0.4C18.4,3.6,18.3,4,18.2,4.5z"/>
		<path d="M23.2,7.9V2.2H24v0.9c0.2-0.4,0.4-0.7,0.6-0.8c0.2-0.1,0.4-0.2,0.6-0.2c0.3,0,0.7,0.1,1,0.3l-0.3,0.9
			c-0.2-0.1-0.5-0.2-0.7-0.2c-0.2,0-0.4,0.1-0.6,0.2s-0.3,0.3-0.4,0.5c-0.1,0.3-0.2,0.7-0.2,1.1v3H23.2z"/>
		<path d="M28.5,7.1l0.1,0.9C28.4,8,28.1,8,27.9,8c-0.4,0-0.6-0.1-0.8-0.2c-0.2-0.1-0.3-0.3-0.4-0.4s-0.1-0.6-0.1-1.1V3h-0.7V2.2
			h0.7V0.8l1-0.6v2h1V3h-1v3.3c0,0.3,0,0.5,0.1,0.5S27.7,7,27.7,7c0.1,0,0.2,0.1,0.3,0.1C28.2,7.1,28.3,7.1,28.5,7.1z"/>
		<path d="M28.6,5.1c0-1.1,0.3-1.8,0.9-2.3c0.5-0.4,1.1-0.6,1.8-0.6c0.8,0,1.4,0.3,1.9,0.8S34,4.1,34,5c0,0.7-0.1,1.3-0.3,1.7
			c-0.2,0.4-0.5,0.7-1,1C32.3,7.9,31.8,8,31.3,8c-0.8,0-1.4-0.3-1.9-0.8C28.9,6.8,28.6,6,28.6,5.1z M29.6,5.1c0,0.7,0.2,1.3,0.5,1.6
			s0.7,0.5,1.2,0.5c0.5,0,0.9-0.2,1.2-0.5C32.8,6.3,33,5.8,33,5c0-0.7-0.2-1.2-0.5-1.6s-0.7-0.5-1.2-0.5c-0.5,0-0.9,0.2-1.2,0.5
			S29.6,4.3,29.6,5.1z"/>
		<path d="M34.3,6.2l1-0.2c0.1,0.4,0.2,0.7,0.4,0.9c0.2,0.2,0.6,0.3,1,0.3c0.4,0,0.8-0.1,1-0.3S38,6.6,38,6.3c0-0.2-0.1-0.4-0.3-0.5
			c-0.1-0.1-0.5-0.2-1-0.3c-0.7-0.2-1.2-0.3-1.5-0.5c-0.3-0.1-0.5-0.3-0.6-0.5c-0.1-0.2-0.2-0.5-0.2-0.8c0-0.3,0.1-0.5,0.2-0.7
			s0.3-0.4,0.5-0.5c0.2-0.1,0.4-0.2,0.6-0.3s0.5-0.1,0.8-0.1c0.4,0,0.8,0.1,1.2,0.2c0.3,0.1,0.6,0.3,0.7,0.5
			c0.2,0.2,0.3,0.5,0.3,0.9l-0.9,0.1c0-0.3-0.2-0.5-0.4-0.7S37,2.9,36.6,2.9c-0.4,0-0.8,0.1-1,0.2c-0.2,0.1-0.3,0.3-0.3,0.5
			c0,0.1,0,0.2,0.1,0.3c0.1,0.1,0.2,0.2,0.4,0.3c0.1,0,0.4,0.1,0.9,0.2c0.7,0.2,1.2,0.3,1.4,0.4s0.5,0.3,0.6,0.5S39,5.9,39,6.2
			c0,0.3-0.1,0.6-0.3,0.9c-0.2,0.3-0.5,0.5-0.8,0.7C37.6,8,37.2,8,36.7,8C36,8,35.4,7.9,35,7.6S34.4,6.8,34.3,6.2z"/>
		<path d="M44.5,7.1l0.1,0.9C44.3,8,44.1,8,43.9,8c-0.4,0-0.6-0.1-0.8-0.2c-0.2-0.1-0.3-0.3-0.4-0.4s-0.1-0.6-0.1-1.1V3h-0.7V2.2
			h0.7V0.8l1-0.6v2h1V3h-1v3.3c0,0.3,0,0.5,0.1,0.5S43.6,7,43.7,7c0.1,0,0.2,0.1,0.3,0.1C44.2,7.1,44.3,7.1,44.5,7.1z"/>
		<path d="M48.9,6.1l1,0.1c-0.2,0.6-0.4,1-0.9,1.4C48.6,7.9,48,8,47.4,8c-0.8,0-1.5-0.3-2-0.8c-0.5-0.5-0.7-1.2-0.7-2.2
			c0-1,0.2-1.7,0.7-2.2s1.1-0.8,1.9-0.8c0.8,0,1.4,0.3,1.9,0.8c0.5,0.5,0.7,1.3,0.7,2.2c0,0.1,0,0.1,0,0.3h-4.3
			c0,0.6,0.2,1.1,0.5,1.4c0.3,0.3,0.7,0.5,1.2,0.5c0.4,0,0.7-0.1,0.9-0.3C48.5,6.8,48.7,6.5,48.9,6.1z M45.7,4.5h3.2
			c0-0.5-0.2-0.8-0.4-1.1c-0.3-0.4-0.7-0.6-1.2-0.6c-0.4,0-0.8,0.1-1.1,0.4C45.9,3.6,45.7,4,45.7,4.5z"/>
		<path d="M50.7,7.9V2.2h0.9V3c0.2-0.3,0.4-0.5,0.7-0.7c0.3-0.2,0.6-0.3,1-0.3c0.4,0,0.8,0.1,1,0.3c0.3,0.2,0.5,0.4,0.6,0.7
			c0.5-0.7,1-1,1.8-1c0.6,0,1,0.2,1.3,0.5c0.3,0.3,0.5,0.8,0.5,1.4v3.9h-1V4.3c0-0.4,0-0.7-0.1-0.8S57.2,3.2,57,3.1
			c-0.2-0.1-0.4-0.2-0.6-0.2c-0.4,0-0.7,0.1-1,0.4S55,4,55,4.6v3.3h-1V4.2c0-0.4-0.1-0.8-0.2-1S53.4,2.9,53,2.9
			c-0.3,0-0.5,0.1-0.8,0.2c-0.2,0.1-0.4,0.4-0.5,0.6C51.7,4,51.6,4.4,51.6,5v3H50.7z"/>
		<path d="M63.1,7.2c-0.4,0.3-0.7,0.5-1,0.6C61.7,8,61.4,8,61,8c-0.6,0-1.1-0.2-1.4-0.5C59.2,7.3,59,6.9,59,6.4
			c0-0.3,0.1-0.5,0.2-0.8c0.1-0.2,0.3-0.4,0.5-0.6s0.4-0.2,0.7-0.3c0.2,0,0.5-0.1,0.9-0.1c0.8-0.1,1.4-0.2,1.7-0.3
			c0-0.1,0-0.2,0-0.3c0-0.4-0.1-0.7-0.3-0.8c-0.2-0.2-0.6-0.3-1.1-0.3c-0.5,0-0.8,0.1-1,0.2S60.3,3.6,60.2,4l-0.9-0.1
			c0.1-0.4,0.2-0.7,0.4-1s0.5-0.4,0.9-0.6c0.4-0.1,0.8-0.2,1.3-0.2c0.5,0,0.9,0.1,1.2,0.2c0.3,0.1,0.5,0.3,0.7,0.4s0.2,0.4,0.3,0.7
			c0,0.2,0,0.5,0,0.9v1.3c0,0.9,0,1.5,0.1,1.7s0.1,0.5,0.2,0.7h-1C63.2,7.7,63.1,7.5,63.1,7.2z M63,5.1c-0.4,0.1-0.9,0.3-1.6,0.4
			c-0.4,0.1-0.7,0.1-0.8,0.2c-0.2,0.1-0.3,0.2-0.4,0.3c-0.1,0.1-0.1,0.3-0.1,0.5c0,0.3,0.1,0.5,0.3,0.6s0.5,0.3,0.9,0.3
			c0.4,0,0.7-0.1,1-0.2c0.3-0.2,0.5-0.4,0.6-0.7C63,6.2,63,5.8,63,5.4V5.1z M61.1,1.5L61.9,0h1.3l-1.2,1.5H61.1z"/>
		<path d="M67.2,7.1l0.1,0.9C67,8,66.8,8,66.6,8c-0.4,0-0.6-0.1-0.8-0.2c-0.2-0.1-0.3-0.3-0.4-0.4s-0.1-0.6-0.1-1.1V3h-0.7V2.2h0.7
			V0.8l1-0.6v2h1V3h-1v3.3c0,0.3,0,0.5,0.1,0.5S66.3,7,66.4,7c0.1,0,0.2,0.1,0.3,0.1C66.8,7.1,67,7.1,67.2,7.1z"/>
		<path d="M67.7,1.2V0h1v1.1H67.7z M67.7,7.9V2.2h1v5.7H67.7z"/>
		<path d="M73.4,5.8l1,0.1c-0.1,0.7-0.4,1.2-0.8,1.5C73.1,7.9,72.6,8,72,8c-0.8,0-1.4-0.3-1.9-0.8c-0.5-0.5-0.7-1.2-0.7-2.2
			c0-0.6,0.1-1.2,0.3-1.6c0.2-0.5,0.5-0.8,0.9-1C71,2.2,71.5,2.1,72,2.1c0.6,0,1.1,0.2,1.5,0.5c0.4,0.3,0.6,0.8,0.8,1.3L73.3,4
			c-0.1-0.4-0.2-0.7-0.5-0.9S72.3,2.9,72,2.9c-0.5,0-0.9,0.2-1.2,0.5c-0.3,0.3-0.5,0.9-0.5,1.7c0,0.8,0.1,1.3,0.4,1.7
			c0.3,0.3,0.7,0.5,1.2,0.5c0.4,0,0.7-0.1,1-0.3C73.2,6.7,73.3,6.3,73.4,5.8z"/>
		<path d="M74.4,5.1c0-1.1,0.3-1.8,0.9-2.3c0.5-0.4,1.1-0.6,1.8-0.6c0.8,0,1.4,0.3,1.9,0.8s0.7,1.2,0.7,2.1c0,0.7-0.1,1.3-0.3,1.7
			c-0.2,0.4-0.5,0.7-1,1C78,7.9,77.5,8,77,8c-0.8,0-1.4-0.3-1.9-0.8C74.6,6.8,74.4,6,74.4,5.1z M75.4,5.1c0,0.7,0.2,1.3,0.5,1.6
			s0.7,0.5,1.2,0.5c0.5,0,0.9-0.2,1.2-0.5c0.3-0.4,0.5-0.9,0.5-1.7c0-0.7-0.2-1.2-0.5-1.6S77.5,2.9,77,2.9c-0.5,0-0.9,0.2-1.2,0.5
			S75.4,4.3,75.4,5.1z"/>
		<path d="M80,6.2l1-0.2c0.1,0.4,0.2,0.7,0.4,0.9c0.2,0.2,0.6,0.3,1,0.3c0.4,0,0.8-0.1,1-0.3s0.3-0.4,0.3-0.6c0-0.2-0.1-0.4-0.3-0.5
			c-0.1-0.1-0.5-0.2-1-0.3C81.8,5.3,81.3,5.2,81,5c-0.3-0.1-0.5-0.3-0.6-0.5c-0.1-0.2-0.2-0.5-0.2-0.8c0-0.3,0.1-0.5,0.2-0.7
			s0.3-0.4,0.5-0.5c0.2-0.1,0.4-0.2,0.6-0.3s0.5-0.1,0.8-0.1c0.4,0,0.8,0.1,1.2,0.2c0.3,0.1,0.6,0.3,0.7,0.5
			c0.2,0.2,0.3,0.5,0.3,0.9l-0.9,0.1c0-0.3-0.2-0.5-0.4-0.7s-0.5-0.2-0.9-0.2c-0.4,0-0.8,0.1-1,0.2c-0.2,0.1-0.3,0.3-0.3,0.5
			c0,0.1,0,0.2,0.1,0.3c0.1,0.1,0.2,0.2,0.4,0.3c0.1,0,0.4,0.1,0.9,0.2c0.7,0.2,1.2,0.3,1.4,0.4s0.5,0.3,0.6,0.5s0.2,0.5,0.2,0.8
			c0,0.3-0.1,0.6-0.3,0.9c-0.2,0.3-0.5,0.5-0.8,0.7C83.3,8,82.9,8,82.5,8c-0.7,0-1.3-0.2-1.7-0.5S80.1,6.8,80,6.2z"/>
		<path d="M85.7,3.3V2.2h1.1v1.1H85.7z M85.7,7.9V6.8h1.1v1.1H85.7z"/>
	</g>
</g>
</svg>
