<?xml version="1.0" encoding="utf-8"?>
<!-- Generator: Adobe Illustrator 21.0.0, SVG Export Plug-In . SVG Version: 6.00 Build 0)  -->
<svg version="1.1" id="Capa_1" xmlns="http://www.w3.org/2000/svg" xmlns:xlink="http://www.w3.org/1999/xlink" x="0px" y="0px"
	 viewBox="0 0 170.7441 98.3276" style="enable-background:new 0 0 170.7441 98.3276;" xml:space="preserve">
<g>
	<path d="M0.8164,8.0137v-7.874h3.4902c0.7021,0,1.2363,0.0703,1.6016,0.2119s0.6563,0.3916,0.875,0.75
		C7.002,1.459,7.1113,1.8545,7.1113,2.2881c0,0.5586-0.1816,1.0293-0.543,1.4131C6.207,4.084,5.6484,4.3271,4.8926,4.4316
		C5.168,4.5635,5.3779,4.6943,5.5215,4.8232c0.3037,0.2793,0.5918,0.6279,0.8643,1.0479l1.3701,2.1426H6.4453L5.4023,6.375
		c-0.3037-0.4727-0.5547-0.834-0.752-1.084C4.4541,5.04,4.2773,4.8643,4.1221,4.7637c-0.1563-0.0996-0.3145-0.1699-0.4756-0.209
		C3.5283,4.5293,3.335,4.5176,3.0664,4.5176h-1.209v3.4961H0.8164z M1.8574,3.6152h2.2402c0.4766,0,0.8486-0.0498,1.1172-0.1484
		s0.4727-0.2559,0.6123-0.4727s0.21-0.4521,0.21-0.7061c0-0.3721-0.1357-0.6787-0.4063-0.9189
		C5.3604,1.1299,4.9336,1.0098,4.3496,1.0098H1.8574V3.6152z"/>
	<path d="M8.2598,5.1621c0-1.0566,0.2939-1.8389,0.8809-2.3477c0.4902-0.4229,1.0889-0.6338,1.7939-0.6338
		c0.7842,0,1.4248,0.2568,1.9229,0.7705s0.7461,1.2236,0.7461,2.1299c0,0.7344-0.1094,1.3115-0.3301,1.7324
		c-0.2197,0.4209-0.54,0.7471-0.9609,0.9795c-0.4209,0.2334-0.8799,0.3496-1.3779,0.3496c-0.7988,0-1.4443-0.2559-1.9365-0.7676
		C8.5059,6.8623,8.2598,6.125,8.2598,5.1621z M9.2539,5.1621c0,0.7305,0.1592,1.2773,0.4775,1.6406s0.7197,0.5449,1.2031,0.5449
		c0.4795,0,0.8789-0.1826,1.1982-0.5479c0.3184-0.3652,0.4775-0.9219,0.4775-1.6709c0-0.7051-0.1602-1.2393-0.4805-1.6025
		s-0.7188-0.5459-1.1953-0.5459c-0.4834,0-0.8848,0.1816-1.2031,0.543S9.2539,4.4316,9.2539,5.1621z"/>
	<path d="M14.3496,6.3105l0.957-0.1504c0.0527,0.3838,0.2031,0.6777,0.4482,0.8809C16,7.2461,16.3428,7.3477,16.7832,7.3477
		c0.4443,0,0.7734-0.0908,0.9883-0.2715s0.3223-0.3926,0.3223-0.6367c0-0.2178-0.0947-0.3896-0.2852-0.5156
		c-0.1318-0.0859-0.4609-0.1943-0.9883-0.3271c-0.709-0.1787-1.2002-0.334-1.4736-0.4648c-0.2744-0.1309-0.4814-0.3115-0.623-0.542
		c-0.1416-0.2314-0.2119-0.4863-0.2119-0.7656c0-0.2539,0.0576-0.4893,0.1738-0.7061s0.2754-0.3965,0.4756-0.54
		c0.1504-0.1113,0.3555-0.2051,0.6152-0.2822s0.5381-0.1152,0.835-0.1152c0.4473,0,0.8408,0.0645,1.1787,0.1934
		c0.3389,0.1289,0.5889,0.3037,0.749,0.5234c0.1621,0.2207,0.2725,0.5146,0.334,0.8838l-0.9453,0.1289
		c-0.043-0.2939-0.168-0.5225-0.374-0.6875s-0.4971-0.2471-0.8721-0.2471c-0.4443,0-0.7617,0.0732-0.9512,0.2197
		c-0.1895,0.1475-0.2852,0.3193-0.2852,0.5156c0,0.126,0.04,0.2383,0.1191,0.3389c0.0781,0.1035,0.2021,0.1895,0.3701,0.2578
		c0.0967,0.0361,0.3818,0.1182,0.8545,0.2471c0.6836,0.1826,1.1602,0.332,1.4307,0.4482s0.4824,0.2861,0.6367,0.5078
		s0.2314,0.498,0.2314,0.8271c0,0.3223-0.0947,0.626-0.2822,0.9102c-0.1885,0.2852-0.46,0.5049-0.8135,0.6611
		c-0.3555,0.1553-0.7559,0.2334-1.2031,0.2334c-0.7422,0-1.3066-0.1543-1.6953-0.4619S14.457,6.916,14.3496,6.3105z"/>
	<path d="M23.959,7.3105c-0.3584,0.3037-0.7031,0.5186-1.0342,0.6445c-0.3311,0.125-0.6865,0.1875-1.0654,0.1875
		c-0.627,0-1.1084-0.1533-1.4453-0.459c-0.3369-0.3066-0.5049-0.6973-0.5049-1.1738c0-0.2793,0.0635-0.5342,0.1904-0.7656
		c0.127-0.2305,0.2939-0.416,0.5-0.5557s0.4375-0.2451,0.6953-0.3174c0.1895-0.0498,0.4766-0.0977,0.8594-0.1445
		c0.7803-0.0928,1.3555-0.2041,1.7246-0.333c0.0029-0.1328,0.0049-0.2168,0.0049-0.2529c0-0.3936-0.0908-0.6709-0.2744-0.832
		c-0.2461-0.2188-0.6133-0.3281-1.1006-0.3281c-0.4551,0-0.79,0.0801-1.0068,0.2393s-0.377,0.4414-0.4805,0.8467l-0.9453-0.1289
		C20.1621,3.5322,20.3027,3.2061,20.5,2.957s0.4814-0.4404,0.8535-0.5752c0.373-0.1338,0.8047-0.2012,1.2949-0.2012
		c0.4873,0,0.8828,0.0576,1.1875,0.1719c0.3037,0.1143,0.5273,0.2588,0.6709,0.4326s0.2432,0.3926,0.3008,0.6582
		c0.0322,0.1641,0.0479,0.4609,0.0479,0.8906V5.623c0,0.8994,0.0215,1.4678,0.0625,1.7061s0.1221,0.4658,0.2441,0.6846h-1.0098
		C24.0518,7.8135,23.9873,7.5781,23.959,7.3105z M23.8789,5.1504c-0.3516,0.1436-0.8779,0.2656-1.5801,0.3652
		c-0.3965,0.0576-0.6777,0.1221-0.8428,0.1934c-0.165,0.0723-0.292,0.1768-0.3818,0.3145c-0.0889,0.1377-0.1338,0.291-0.1338,0.459
		c0,0.2578,0.0977,0.4727,0.293,0.6445s0.4805,0.2578,0.8564,0.2578c0.3721,0,0.7031-0.0811,0.9941-0.2441
		c0.2891-0.1631,0.5029-0.3857,0.6387-0.668c0.1035-0.2188,0.1563-0.541,0.1563-0.9668V5.1504z"/>
	<path d="M29.5557,8.0137v-7.874h5.6934v0.9287h-4.6514v2.4121h4.3555v0.9238h-4.3555V7.084h4.834v0.9297H29.5557z"/>
	<path d="M36.7256,8.0137v-7.874h0.9668v7.874H36.7256z"/>
	<path d="M40.7764,8.0137l-2.1699-5.7041h1.0205l1.2246,3.416c0.1328,0.3691,0.2539,0.752,0.3652,1.1494
		c0.0859-0.3008,0.2061-0.6621,0.3594-1.085l1.2676-3.4805h0.9941l-2.1592,5.7041H40.7764z"/>
	<path d="M44.6973,1.252V0.1396h0.9668V1.252H44.6973z M44.6973,8.0137V2.3096h0.9668v5.7041H44.6973z"/>
	<path d="M50.8574,7.3105c-0.3584,0.3037-0.7031,0.5186-1.0342,0.6445c-0.3311,0.125-0.6865,0.1875-1.0654,0.1875
		c-0.627,0-1.1084-0.1533-1.4453-0.459c-0.3369-0.3066-0.5049-0.6973-0.5049-1.1738c0-0.2793,0.0635-0.5342,0.1904-0.7656
		c0.127-0.2305,0.2939-0.416,0.5-0.5557s0.4375-0.2451,0.6953-0.3174c0.1895-0.0498,0.4766-0.0977,0.8594-0.1445
		c0.7803-0.0928,1.3555-0.2041,1.7246-0.333c0.0029-0.1328,0.0049-0.2168,0.0049-0.2529c0-0.3936-0.0908-0.6709-0.2744-0.832
		c-0.2461-0.2188-0.6133-0.3281-1.1006-0.3281c-0.4551,0-0.79,0.0801-1.0068,0.2393s-0.377,0.4414-0.4805,0.8467l-0.9453-0.1289
		c0.0859-0.4053,0.2266-0.7314,0.4238-0.9805s0.4814-0.4404,0.8535-0.5752c0.373-0.1338,0.8047-0.2012,1.2949-0.2012
		c0.4873,0,0.8828,0.0576,1.1875,0.1719c0.3037,0.1143,0.5273,0.2588,0.6709,0.4326s0.2432,0.3926,0.3008,0.6582
		c0.0322,0.1641,0.0479,0.4609,0.0479,0.8906V5.623c0,0.8994,0.0215,1.4678,0.0625,1.7061s0.1221,0.4658,0.2441,0.6846h-1.0098
		C50.9502,7.8135,50.8857,7.5781,50.8574,7.3105z M50.7773,5.1504c-0.3516,0.1436-0.8779,0.2656-1.5801,0.3652
		c-0.3965,0.0576-0.6777,0.1221-0.8428,0.1934c-0.165,0.0723-0.292,0.1768-0.3818,0.3145c-0.0889,0.1377-0.1338,0.291-0.1338,0.459
		c0,0.2578,0.0977,0.4727,0.293,0.6445s0.4805,0.2578,0.8564,0.2578c0.3721,0,0.7031-0.0811,0.9941-0.2441
		c0.2891-0.1631,0.5029-0.3857,0.6387-0.668c0.1035-0.2188,0.1563-0.541,0.1563-0.9668V5.1504z"/>
	<path d="M62.4004,7.1699c0.4824,0.334,0.9287,0.5771,1.3369,0.7305L63.4316,8.626c-0.5664-0.2041-1.1299-0.5264-1.6924-0.9668
		c-0.584,0.3262-1.2285,0.4893-1.9336,0.4893c-0.7129,0-1.3584-0.1719-1.9385-0.5156s-1.0273-0.8281-1.3408-1.4512
		s-0.4697-1.3242-0.4697-2.1055c0-0.7764,0.1572-1.4834,0.4727-2.1211S57.293,0.832,57.875,0.5C58.457,0.166,59.1074,0,59.8271,0
		c0.7266,0,1.3818,0.1729,1.9658,0.5186s1.0283,0.8291,1.335,1.4502c0.3057,0.6211,0.459,1.3223,0.459,2.1025
		c0,0.6484-0.0986,1.2305-0.2959,1.748C63.0947,6.3369,62.7969,6.7871,62.4004,7.1699z M60.1064,5.8379
		c0.6016,0.1689,1.0977,0.4199,1.4873,0.752c0.6133-0.5586,0.9189-1.3975,0.9189-2.5186c0-0.6377-0.1084-1.1943-0.3252-1.6709
		c-0.2168-0.4756-0.5332-0.8457-0.9502-1.1084c-0.417-0.2637-0.8857-0.3955-1.4053-0.3955c-0.7764,0-1.4209,0.2666-1.9336,0.7979
		c-0.5117,0.5322-0.7676,1.3262-0.7676,2.3818c0,1.0244,0.2529,1.8105,0.7598,2.3584s1.1543,0.8213,1.9414,0.8213
		c0.373,0,0.7236-0.0693,1.0527-0.209c-0.3252-0.2109-0.6689-0.3613-1.0313-0.4512L60.1064,5.8379z"/>
	<path d="M68.6035,8.0137V7.1758c-0.4434,0.6445-1.0469,0.9668-1.8096,0.9668c-0.3369,0-0.6504-0.0645-0.9424-0.1934
		s-0.5088-0.291-0.6504-0.4863s-0.2402-0.4336-0.2979-0.7168c-0.0391-0.1895-0.0596-0.4902-0.0596-0.9023V2.3096h0.9668v3.1631
		c0,0.5059,0.0205,0.8457,0.0596,1.0215c0.0605,0.2539,0.1895,0.4531,0.3867,0.5986c0.1973,0.1445,0.4404,0.2178,0.7305,0.2178
		s0.5625-0.0752,0.8164-0.2236s0.4346-0.3506,0.54-0.6064s0.1582-0.6279,0.1582-1.1152V2.3096h0.9668v5.7041H68.6035z"/>
	<path d="M70.9883,1.252V0.1396h0.9668V1.252H70.9883z M70.9883,8.0137V2.3096h0.9668v5.7041H70.9883z"/>
	<path d="M73.4258,8.0137V2.3096h0.8711v0.8115c0.418-0.627,1.0234-0.9404,1.8145-0.9404c0.3438,0,0.6602,0.0615,0.9482,0.1855
		c0.2881,0.123,0.5039,0.2852,0.6475,0.4854c0.1436,0.2012,0.2432,0.4395,0.3008,0.7148c0.0361,0.1787,0.0537,0.4922,0.0537,0.9395
		v3.5078h-0.9668V4.5439c0-0.3936-0.0381-0.6885-0.1123-0.8838c-0.0762-0.1953-0.209-0.3506-0.4004-0.4668
		s-0.416-0.1748-0.6738-0.1748c-0.4121,0-0.7676,0.1309-1.0664,0.3916c-0.2988,0.2617-0.4492,0.7578-0.4492,1.4883v3.1152H73.4258z"
		/>
	<path d="M81.6543,7.1484l0.1396,0.8545c-0.2725,0.0576-0.5156,0.0859-0.7305,0.0859c-0.3506,0-0.623-0.0557-0.8164-0.167
		c-0.1934-0.1104-0.3291-0.2568-0.4082-0.4375s-0.1182-0.5605-0.1182-1.1406V3.0615h-0.709v-0.752h0.709V0.8965l0.9609-0.5801
		v1.9932h0.9727v0.752h-0.9727v3.335c0,0.2764,0.0176,0.4531,0.0518,0.5322s0.0889,0.1416,0.166,0.1885
		c0.0771,0.0459,0.1875,0.0693,0.3311,0.0693C81.3379,7.1865,81.4785,7.1738,81.6543,7.1484z"/>
	<path d="M86.5049,6.1768l0.999,0.124c-0.1572,0.583-0.4492,1.0361-0.875,1.3584c-0.4268,0.3223-0.9707,0.4834-1.6328,0.4834
		c-0.835,0-1.4961-0.2568-1.9854-0.7705c-0.4883-0.5137-0.7334-1.2344-0.7334-2.1621c0-0.96,0.248-1.7041,0.7422-2.2344
		s1.1348-0.7949,1.9219-0.7949c0.7637,0,1.3867,0.2598,1.8691,0.7783c0.4844,0.5195,0.7256,1.25,0.7256,2.1914
		c0,0.0576-0.002,0.1436-0.0049,0.2578h-4.2539c0.0352,0.627,0.2129,1.1074,0.5313,1.4395c0.3184,0.334,0.7158,0.5,1.1924,0.5
		c0.3545,0,0.6572-0.0928,0.9072-0.2793C86.1592,6.8818,86.3584,6.585,86.5049,6.1768z M83.3301,4.6133h3.1855
		c-0.043-0.4795-0.165-0.8389-0.3652-1.0791c-0.3076-0.3721-0.707-0.5586-1.1973-0.5586c-0.4443,0-0.8174,0.1484-1.1201,0.4463
		C83.5303,3.7188,83.3633,4.1162,83.3301,4.6133z"/>
	<path d="M88.707,8.0137V2.3096h0.8691v0.8643c0.2227-0.4043,0.4277-0.6709,0.6152-0.7998
		c0.1885-0.1289,0.3945-0.1934,0.6211-0.1934c0.3252,0,0.6563,0.1035,0.9932,0.3115l-0.333,0.8965
		C91.2363,3.25,91,3.1797,90.7637,3.1797c-0.2109,0-0.4014,0.0635-0.5693,0.1904s-0.2881,0.3037-0.3604,0.5293
		c-0.1074,0.3438-0.1602,0.7197-0.1602,1.1279v2.9863H88.707z"/>
	<path d="M92.0205,5.1621c0-1.0566,0.2939-1.8389,0.8809-2.3477c0.4902-0.4229,1.0889-0.6338,1.7939-0.6338
		c0.7842,0,1.4248,0.2568,1.9229,0.7705s0.7461,1.2236,0.7461,2.1299c0,0.7344-0.1094,1.3115-0.3301,1.7324
		c-0.2197,0.4209-0.54,0.7471-0.9609,0.9795c-0.4209,0.2334-0.8799,0.3496-1.3779,0.3496c-0.7988,0-1.4443-0.2559-1.9365-0.7676
		C92.2666,6.8623,92.0205,6.125,92.0205,5.1621z M93.0146,5.1621c0,0.7305,0.1592,1.2773,0.4775,1.6406s0.7197,0.5449,1.2031,0.5449
		c0.4795,0,0.8789-0.1826,1.1982-0.5479c0.3184-0.3652,0.4775-0.9219,0.4775-1.6709c0-0.7051-0.1602-1.2393-0.4805-1.6025
		s-0.7188-0.5459-1.1953-0.5459c-0.4834,0-0.8848,0.1816-1.2031,0.543S93.0146,4.4316,93.0146,5.1621z"/>
	<path d="M105.3633,4.9258V4.002l3.3359-0.0059V6.918c-0.5127,0.4082-1.041,0.7148-1.585,0.9209s-1.1025,0.3096-1.6758,0.3096
		c-0.7734,0-1.4766-0.166-2.1084-0.4971s-1.1094-0.8105-1.4316-1.4365c-0.3223-0.627-0.4824-1.3271-0.4824-2.1006
		c0-0.7666,0.1602-1.4814,0.4805-2.1455s0.7813-1.1582,1.3828-1.4805s1.2949-0.4824,2.0781-0.4824
		c0.5703,0,1.085,0.0918,1.5449,0.2764s0.8203,0.4414,1.082,0.7705s0.46,0.7588,0.5957,1.2891l-0.9395,0.2578
		c-0.1182-0.4014-0.2646-0.7158-0.4404-0.9453s-0.4258-0.4131-0.752-0.5508s-0.6875-0.207-1.085-0.207
		c-0.4766,0-0.8877,0.0732-1.2354,0.2178c-0.3477,0.1455-0.6279,0.3359-0.8408,0.5723s-0.3789,0.4961-0.4961,0.7783
		c-0.2012,0.4873-0.3008,1.0156-0.3008,1.585c0,0.7021,0.1201,1.2891,0.3623,1.7617c0.2412,0.4727,0.5928,0.8232,1.0557,1.0527
		c0.4609,0.2295,0.9521,0.3438,1.4707,0.3438c0.4512,0,0.8926-0.0869,1.3223-0.2607s0.7549-0.3584,0.9766-0.5557V4.9258H105.3633z"
		/>
	<path d="M113.8496,8.0137V7.1758c-0.4434,0.6445-1.0469,0.9668-1.8096,0.9668c-0.3369,0-0.6504-0.0645-0.9424-0.1934
		s-0.5088-0.291-0.6504-0.4863s-0.2402-0.4336-0.2979-0.7168c-0.0391-0.1895-0.0596-0.4902-0.0596-0.9023V2.3096h0.9668v3.1631
		c0,0.5059,0.0205,0.8457,0.0596,1.0215c0.0605,0.2539,0.1895,0.4531,0.3867,0.5986c0.1973,0.1445,0.4404,0.2178,0.7305,0.2178
		s0.5625-0.0752,0.8164-0.2236s0.4346-0.3506,0.54-0.6064s0.1582-0.6279,0.1582-1.1152V2.3096h0.9668v5.7041H113.8496z"/>
	<path d="M119.9512,7.3105c-0.3584,0.3037-0.7031,0.5186-1.0342,0.6445c-0.3311,0.125-0.6865,0.1875-1.0654,0.1875
		c-0.627,0-1.1084-0.1533-1.4453-0.459c-0.3369-0.3066-0.5049-0.6973-0.5049-1.1738c0-0.2793,0.0635-0.5342,0.1904-0.7656
		c0.127-0.2305,0.2939-0.416,0.5-0.5557s0.4375-0.2451,0.6953-0.3174c0.1895-0.0498,0.4766-0.0977,0.8594-0.1445
		c0.7803-0.0928,1.3555-0.2041,1.7246-0.333c0.0029-0.1328,0.0049-0.2168,0.0049-0.2529c0-0.3936-0.0908-0.6709-0.2744-0.832
		c-0.2461-0.2188-0.6133-0.3281-1.1006-0.3281c-0.4551,0-0.79,0.0801-1.0068,0.2393s-0.377,0.4414-0.4805,0.8467l-0.9453-0.1289
		c0.0859-0.4053,0.2266-0.7314,0.4238-0.9805s0.4814-0.4404,0.8535-0.5752c0.373-0.1338,0.8047-0.2012,1.2949-0.2012
		c0.4873,0,0.8828,0.0576,1.1875,0.1719c0.3037,0.1143,0.5273,0.2588,0.6709,0.4326s0.2432,0.3926,0.3008,0.6582
		c0.0322,0.1641,0.0479,0.4609,0.0479,0.8906V5.623c0,0.8994,0.0215,1.4678,0.0625,1.7061s0.1221,0.4658,0.2441,0.6846h-1.0098
		C120.0439,7.8135,119.9795,7.5781,119.9512,7.3105z M119.8711,5.1504c-0.3516,0.1436-0.8779,0.2656-1.5801,0.3652
		c-0.3965,0.0576-0.6777,0.1221-0.8428,0.1934c-0.165,0.0723-0.292,0.1768-0.3818,0.3145c-0.0889,0.1377-0.1338,0.291-0.1338,0.459
		c0,0.2578,0.0977,0.4727,0.293,0.6445s0.4805,0.2578,0.8564,0.2578c0.3721,0,0.7031-0.0811,0.9941-0.2441
		c0.2891-0.1631,0.5029-0.3857,0.6387-0.668c0.1035-0.2188,0.1563-0.541,0.1563-0.9668V5.1504z"/>
	<path d="M121.959,6.3105l0.957-0.1504c0.0527,0.3838,0.2031,0.6777,0.4482,0.8809c0.2451,0.2051,0.5879,0.3066,1.0283,0.3066
		c0.4443,0,0.7734-0.0908,0.9883-0.2715s0.3223-0.3926,0.3223-0.6367c0-0.2178-0.0947-0.3896-0.2852-0.5156
		c-0.1318-0.0859-0.4609-0.1943-0.9883-0.3271c-0.709-0.1787-1.2002-0.334-1.4736-0.4648c-0.2744-0.1309-0.4814-0.3115-0.623-0.542
		c-0.1416-0.2314-0.2119-0.4863-0.2119-0.7656c0-0.2539,0.0576-0.4893,0.1738-0.7061s0.2754-0.3965,0.4756-0.54
		c0.1504-0.1113,0.3555-0.2051,0.6152-0.2822s0.5381-0.1152,0.835-0.1152c0.4473,0,0.8408,0.0645,1.1787,0.1934
		c0.3389,0.1289,0.5889,0.3037,0.749,0.5234c0.1621,0.2207,0.2725,0.5146,0.334,0.8838l-0.9453,0.1289
		c-0.043-0.2939-0.168-0.5225-0.374-0.6875s-0.4971-0.2471-0.8721-0.2471c-0.4443,0-0.7617,0.0732-0.9512,0.2197
		c-0.1895,0.1475-0.2852,0.3193-0.2852,0.5156c0,0.126,0.04,0.2383,0.1191,0.3389c0.0781,0.1035,0.2021,0.1895,0.3701,0.2578
		c0.0967,0.0361,0.3818,0.1182,0.8545,0.2471c0.6836,0.1826,1.1602,0.332,1.4307,0.4482s0.4824,0.2861,0.6367,0.5078
		s0.2314,0.498,0.2314,0.8271c0,0.3223-0.0947,0.626-0.2822,0.9102c-0.1885,0.2852-0.46,0.5049-0.8135,0.6611
		c-0.3555,0.1553-0.7559,0.2334-1.2031,0.2334c-0.7422,0-1.3066-0.1543-1.6953-0.4619S122.0664,6.916,121.959,6.3105z"/>
	<path d="M131.5684,5.9238l0.9512,0.124c-0.1045,0.6553-0.3701,1.168-0.7979,1.5391c-0.4277,0.3701-0.9541,0.5557-1.5771,0.5557
		c-0.7803,0-1.4072-0.2549-1.8818-0.7656c-0.4746-0.5098-0.7119-1.2412-0.7119-2.1934c0-0.6162,0.1016-1.1553,0.3066-1.6172
		c0.2031-0.4619,0.5146-0.8086,0.9316-1.0391c0.417-0.2314,0.8711-0.3467,1.3613-0.3467c0.6191,0,1.126,0.1563,1.5195,0.4697
		c0.3945,0.3135,0.6465,0.7588,0.7578,1.335l-0.9395,0.1455c-0.0898-0.3838-0.248-0.6719-0.4756-0.8652s-0.5029-0.29-0.8252-0.29
		c-0.4863,0-0.8818,0.1748-1.1865,0.5234c-0.3047,0.3496-0.4561,0.9014-0.4561,1.6572c0,0.7666,0.1465,1.3232,0.4395,1.6699
		c0.2939,0.3477,0.6777,0.5215,1.1504,0.5215c0.3789,0,0.6963-0.1162,0.9502-0.3496C131.3389,6.7656,131.5,6.4082,131.5684,5.9238z"
		/>
	<path d="M137.0684,7.3105c-0.3584,0.3037-0.7031,0.5186-1.0342,0.6445c-0.3311,0.125-0.6865,0.1875-1.0654,0.1875
		c-0.627,0-1.1084-0.1533-1.4453-0.459c-0.3369-0.3066-0.5049-0.6973-0.5049-1.1738c0-0.2793,0.0635-0.5342,0.1904-0.7656
		c0.127-0.2305,0.2939-0.416,0.5-0.5557s0.4375-0.2451,0.6953-0.3174c0.1895-0.0498,0.4766-0.0977,0.8594-0.1445
		c0.7803-0.0928,1.3555-0.2041,1.7246-0.333c0.0029-0.1328,0.0049-0.2168,0.0049-0.2529c0-0.3936-0.0908-0.6709-0.2744-0.832
		c-0.2461-0.2188-0.6133-0.3281-1.1006-0.3281c-0.4551,0-0.79,0.0801-1.0068,0.2393s-0.377,0.4414-0.4805,0.8467l-0.9453-0.1289
		c0.0859-0.4053,0.2266-0.7314,0.4238-0.9805s0.4814-0.4404,0.8535-0.5752c0.373-0.1338,0.8047-0.2012,1.2949-0.2012
		c0.4873,0,0.8828,0.0576,1.1875,0.1719c0.3037,0.1143,0.5273,0.2588,0.6709,0.4326s0.2432,0.3926,0.3008,0.6582
		c0.0322,0.1641,0.0479,0.4609,0.0479,0.8906V5.623c0,0.8994,0.0215,1.4678,0.0625,1.7061s0.1221,0.4658,0.2441,0.6846h-1.0098
		C137.1611,7.8135,137.0967,7.5781,137.0684,7.3105z M136.9883,5.1504c-0.3516,0.1436-0.8779,0.2656-1.5801,0.3652
		c-0.3965,0.0576-0.6777,0.1221-0.8428,0.1934c-0.165,0.0723-0.292,0.1768-0.3818,0.3145c-0.0889,0.1377-0.1338,0.291-0.1338,0.459
		c0,0.2578,0.0977,0.4727,0.293,0.6445s0.4805,0.2578,0.8564,0.2578c0.3721,0,0.7031-0.0811,0.9941-0.2441
		c0.2891-0.1631,0.5029-0.3857,0.6387-0.668c0.1035-0.2188,0.1563-0.541,0.1563-0.9668V5.1504z"/>
	<path d="M6.418,21.2529l1.042,0.2627c-0.2188,0.8564-0.6113,1.5088-1.1787,1.958s-1.2617,0.6748-2.082,0.6748
		c-0.8477,0-1.5381-0.1729-2.0703-0.5186c-0.5313-0.3457-0.9365-0.8467-1.2139-1.501c-0.2773-0.6563-0.416-1.3594-0.416-2.1113
		c0-0.8203,0.1563-1.5352,0.4697-2.1455s0.7598-1.0742,1.3379-1.3916c0.5781-0.3164,1.2148-0.4746,1.9092-0.4746
		c0.7881,0,1.4502,0.2002,1.9873,0.6016c0.5371,0.4004,0.9111,0.9648,1.123,1.6914L6.2998,18.541
		c-0.1826-0.5732-0.4473-0.9902-0.7949-1.252s-0.7842-0.3926-1.3105-0.3926c-0.6055,0-1.1113,0.1455-1.5176,0.4355
		S1.9854,18.0117,1.8203,18.5c-0.165,0.4893-0.2471,0.9932-0.2471,1.5117c0,0.6699,0.0977,1.2549,0.293,1.7539
		c0.1953,0.5,0.498,0.873,0.9102,1.1201s0.8574,0.3701,1.3369,0.3701c0.584,0,1.0781-0.168,1.4824-0.5039
		C6.001,22.415,6.2744,21.915,6.418,21.2529z"/>
	<path d="M8.5977,24.0137v-7.874h0.9668v7.874H8.5977z"/>
	<path d="M14.7852,23.3105c-0.3584,0.3037-0.7031,0.5186-1.0342,0.6445c-0.3311,0.125-0.6865,0.1875-1.0654,0.1875
		c-0.627,0-1.1084-0.1533-1.4453-0.459c-0.3369-0.3066-0.5049-0.6973-0.5049-1.1738c0-0.2793,0.0635-0.5342,0.1904-0.7656
		c0.127-0.2305,0.2939-0.416,0.5-0.5557s0.4375-0.2451,0.6953-0.3174c0.1895-0.0498,0.4766-0.0977,0.8594-0.1445
		c0.7803-0.0928,1.3555-0.2041,1.7246-0.333c0.0029-0.1328,0.0049-0.2168,0.0049-0.2529c0-0.3936-0.0908-0.6709-0.2744-0.832
		c-0.2461-0.2188-0.6133-0.3281-1.1006-0.3281c-0.4551,0-0.79,0.0801-1.0068,0.2393s-0.377,0.4414-0.4805,0.8467l-0.9453-0.1289
		c0.0859-0.4053,0.2266-0.7314,0.4238-0.9805s0.4814-0.4404,0.8535-0.5752c0.373-0.1338,0.8047-0.2012,1.2949-0.2012
		c0.4873,0,0.8828,0.0576,1.1875,0.1719c0.3037,0.1143,0.5273,0.2588,0.6709,0.4326s0.2432,0.3926,0.3008,0.6582
		c0.0322,0.1641,0.0479,0.4609,0.0479,0.8906v1.2891c0,0.8994,0.0215,1.4678,0.0625,1.7061s0.1221,0.4658,0.2441,0.6846h-1.0098
		C14.8779,23.8135,14.8135,23.5781,14.7852,23.3105z M14.7051,21.1504c-0.3516,0.1436-0.8779,0.2656-1.5801,0.3652
		c-0.3965,0.0576-0.6777,0.1221-0.8428,0.1934c-0.165,0.0723-0.292,0.1768-0.3818,0.3145c-0.0889,0.1377-0.1338,0.291-0.1338,0.459
		c0,0.2578,0.0977,0.4727,0.293,0.6445s0.4805,0.2578,0.8564,0.2578c0.3721,0,0.7031-0.0811,0.9941-0.2441
		c0.2891-0.1631,0.5029-0.3857,0.6387-0.668c0.1035-0.2188,0.1563-0.541,0.1563-0.9668V21.1504z"/>
	<path d="M20.918,24.0137v-0.8379c-0.4434,0.6445-1.0469,0.9668-1.8096,0.9668c-0.3369,0-0.6504-0.0645-0.9424-0.1934
		s-0.5088-0.291-0.6504-0.4863s-0.2402-0.4336-0.2979-0.7168c-0.0391-0.1895-0.0596-0.4902-0.0596-0.9023v-3.5342h0.9668v3.1631
		c0,0.5059,0.0205,0.8457,0.0596,1.0215c0.0605,0.2539,0.1895,0.4531,0.3867,0.5986c0.1973,0.1445,0.4404,0.2178,0.7305,0.2178
		s0.5625-0.0752,0.8164-0.2236s0.4346-0.3506,0.54-0.6064s0.1582-0.6279,0.1582-1.1152v-3.0557h0.9668v5.7041H20.918z"/>
	<path d="M26.998,24.0137v-0.7197c-0.3613,0.5654-0.8936,0.8486-1.5957,0.8486c-0.4541,0-0.8721-0.125-1.2539-0.376
		c-0.3809-0.251-0.6768-0.6006-0.8857-1.0498c-0.21-0.4492-0.3145-0.9658-0.3145-1.5498c0-0.5693,0.0947-1.0859,0.2842-1.5498
		c0.1904-0.4639,0.4746-0.8184,0.8545-1.0664c0.3799-0.2461,0.8037-0.3701,1.2725-0.3701c0.3438,0,0.6504,0.0723,0.9189,0.2178
		c0.2686,0.1445,0.4873,0.334,0.6553,0.5664v-2.8252h0.9609v7.874H26.998z M23.9414,21.167c0,0.7305,0.1543,1.2764,0.4629,1.6377
		c0.3076,0.3623,0.6709,0.543,1.0898,0.543c0.4229,0,0.7813-0.1729,1.0771-0.5186c0.2949-0.3457,0.4424-0.8721,0.4424-1.5811
		c0-0.7813-0.1504-1.3535-0.4512-1.7188s-0.6709-0.5488-1.1113-0.5488c-0.4297,0-0.7891,0.1758-1.0771,0.5273
		C24.0859,19.8584,23.9414,20.4111,23.9414,21.167z"/>
	<path d="M29.4199,17.252v-1.1123h0.9668v1.1123H29.4199z M29.4199,24.0137v-5.7041h0.9668v5.7041H29.4199z"/>
	<path d="M35.5801,23.3105c-0.3584,0.3037-0.7031,0.5186-1.0342,0.6445c-0.3311,0.125-0.6865,0.1875-1.0654,0.1875
		c-0.627,0-1.1084-0.1533-1.4453-0.459c-0.3369-0.3066-0.5049-0.6973-0.5049-1.1738c0-0.2793,0.0635-0.5342,0.1904-0.7656
		c0.127-0.2305,0.2939-0.416,0.5-0.5557s0.4375-0.2451,0.6953-0.3174c0.1895-0.0498,0.4766-0.0977,0.8594-0.1445
		c0.7803-0.0928,1.3555-0.2041,1.7246-0.333c0.0029-0.1328,0.0049-0.2168,0.0049-0.2529c0-0.3936-0.0908-0.6709-0.2744-0.832
		c-0.2461-0.2188-0.6133-0.3281-1.1006-0.3281c-0.4551,0-0.79,0.0801-1.0068,0.2393s-0.377,0.4414-0.4805,0.8467l-0.9453-0.1289
		c0.0859-0.4053,0.2266-0.7314,0.4238-0.9805s0.4814-0.4404,0.8535-0.5752c0.373-0.1338,0.8047-0.2012,1.2949-0.2012
		c0.4873,0,0.8828,0.0576,1.1875,0.1719c0.3037,0.1143,0.5273,0.2588,0.6709,0.4326s0.2432,0.3926,0.3008,0.6582
		c0.0322,0.1641,0.0479,0.4609,0.0479,0.8906v1.2891c0,0.8994,0.0215,1.4678,0.0625,1.7061s0.1221,0.4658,0.2441,0.6846h-1.0098
		C35.6729,23.8135,35.6084,23.5781,35.5801,23.3105z M35.5,21.1504c-0.3516,0.1436-0.8779,0.2656-1.5801,0.3652
		c-0.3965,0.0576-0.6777,0.1221-0.8428,0.1934c-0.165,0.0723-0.292,0.1768-0.3818,0.3145c-0.0889,0.1377-0.1338,0.291-0.1338,0.459
		c0,0.2578,0.0977,0.4727,0.293,0.6445s0.4805,0.2578,0.8564,0.2578c0.3721,0,0.7031-0.0811,0.9941-0.2441
		c0.2891-0.1631,0.5029-0.3857,0.6387-0.668c0.1035-0.2188,0.1563-0.541,0.1563-0.9668V21.1504z"/>
	<path d="M41.123,24.0137v-7.874h1.5684l1.8633,5.5752c0.1719,0.5195,0.2979,0.9082,0.377,1.166
		c0.0889-0.2871,0.2285-0.708,0.418-1.2627l1.8857-5.4785h1.4014v7.874h-1.0039v-6.5898l-2.2881,6.5898h-0.9404l-2.2773-6.7031
		v6.7031H41.123z"/>
	<path d="M50.2002,17.252v-1.1123h0.9668v1.1123H50.2002z M50.2002,24.0137v-5.7041h0.9668v5.7041H50.2002z"/>
	<path d="M52.6172,24.0137v-7.874h0.9668v7.874H52.6172z"/>
	<path d="M58.9873,22.1768l0.999,0.124c-0.1572,0.583-0.4492,1.0361-0.875,1.3584c-0.4268,0.3223-0.9707,0.4834-1.6328,0.4834
		c-0.835,0-1.4961-0.2568-1.9854-0.7705c-0.4883-0.5137-0.7334-1.2344-0.7334-2.1621c0-0.96,0.248-1.7041,0.7422-2.2344
		s1.1348-0.7949,1.9219-0.7949c0.7637,0,1.3867,0.2598,1.8691,0.7783c0.4844,0.5195,0.7256,1.25,0.7256,2.1914
		c0,0.0576-0.002,0.1436-0.0049,0.2578h-4.2539c0.0352,0.627,0.2129,1.1074,0.5313,1.4395c0.3184,0.334,0.7158,0.5,1.1924,0.5
		c0.3545,0,0.6572-0.0928,0.9072-0.2793C58.6416,22.8818,58.8408,22.585,58.9873,22.1768z M55.8125,20.6133h3.1855
		c-0.043-0.4795-0.165-0.8389-0.3652-1.0791c-0.3076-0.3721-0.707-0.5586-1.1973-0.5586c-0.4443,0-0.8174,0.1484-1.1201,0.4463
		C56.0127,19.7188,55.8457,20.1162,55.8125,20.6133z"/>
	<path d="M61.1992,24.0137v-5.7041h0.8711v0.8115c0.418-0.627,1.0234-0.9404,1.8145-0.9404c0.3438,0,0.6602,0.0615,0.9482,0.1855
		c0.2881,0.123,0.5039,0.2852,0.6475,0.4854c0.1436,0.2012,0.2432,0.4395,0.3008,0.7148c0.0361,0.1787,0.0537,0.4922,0.0537,0.9395
		v3.5078h-0.9668v-3.4697c0-0.3936-0.0381-0.6885-0.1123-0.8838c-0.0762-0.1953-0.209-0.3506-0.4004-0.4668
		s-0.416-0.1748-0.6738-0.1748c-0.4121,0-0.7676,0.1309-1.0664,0.3916c-0.2988,0.2617-0.4492,0.7578-0.4492,1.4883v3.1152H61.1992z"
		/>
	<path d="M71.0391,23.3105c-0.3584,0.3037-0.7031,0.5186-1.0342,0.6445c-0.3311,0.125-0.6865,0.1875-1.0654,0.1875
		c-0.627,0-1.1084-0.1533-1.4453-0.459c-0.3369-0.3066-0.5049-0.6973-0.5049-1.1738c0-0.2793,0.0635-0.5342,0.1904-0.7656
		c0.127-0.2305,0.2939-0.416,0.5-0.5557s0.4375-0.2451,0.6953-0.3174c0.1895-0.0498,0.4766-0.0977,0.8594-0.1445
		c0.7803-0.0928,1.3555-0.2041,1.7246-0.333c0.0029-0.1328,0.0049-0.2168,0.0049-0.2529c0-0.3936-0.0908-0.6709-0.2744-0.832
		c-0.2461-0.2188-0.6133-0.3281-1.1006-0.3281c-0.4551,0-0.79,0.0801-1.0068,0.2393s-0.377,0.4414-0.4805,0.8467l-0.9453-0.1289
		c0.0859-0.4053,0.2266-0.7314,0.4238-0.9805s0.4814-0.4404,0.8535-0.5752c0.373-0.1338,0.8047-0.2012,1.2949-0.2012
		c0.4873,0,0.8828,0.0576,1.1875,0.1719c0.3037,0.1143,0.5273,0.2588,0.6709,0.4326s0.2432,0.3926,0.3008,0.6582
		c0.0322,0.1641,0.0479,0.4609,0.0479,0.8906v1.2891c0,0.8994,0.0215,1.4678,0.0625,1.7061s0.1221,0.4658,0.2441,0.6846h-1.0098
		C71.1318,23.8135,71.0674,23.5781,71.0391,23.3105z M70.959,21.1504c-0.3516,0.1436-0.8779,0.2656-1.5801,0.3652
		c-0.3965,0.0576-0.6777,0.1221-0.8428,0.1934c-0.165,0.0723-0.292,0.1768-0.3818,0.3145c-0.0889,0.1377-0.1338,0.291-0.1338,0.459
		c0,0.2578,0.0977,0.4727,0.293,0.6445s0.4805,0.2578,0.8564,0.2578c0.3721,0,0.7031-0.0811,0.9941-0.2441
		c0.2891-0.1631,0.5029-0.3857,0.6387-0.668c0.1035-0.2188,0.1563-0.541,0.1563-0.9668V21.1504z"/>
	<path d="M76.6465,24.0137v-7.874h1.042v3.2334h4.0928v-3.2334h1.042v7.874h-1.042v-3.7109h-4.0928v3.7109H76.6465z"/>
	<path d="M88.3389,22.1768l0.999,0.124c-0.1572,0.583-0.4492,1.0361-0.875,1.3584c-0.4268,0.3223-0.9707,0.4834-1.6328,0.4834
		c-0.835,0-1.4961-0.2568-1.9854-0.7705c-0.4883-0.5137-0.7334-1.2344-0.7334-2.1621c0-0.96,0.248-1.7041,0.7422-2.2344
		s1.1348-0.7949,1.9219-0.7949c0.7637,0,1.3867,0.2598,1.8691,0.7783c0.4844,0.5195,0.7256,1.25,0.7256,2.1914
		c0,0.0576-0.002,0.1436-0.0049,0.2578h-4.2539c0.0352,0.627,0.2129,1.1074,0.5313,1.4395c0.3184,0.334,0.7158,0.5,1.1924,0.5
		c0.3545,0,0.6572-0.0928,0.9072-0.2793C87.9932,22.8818,88.1924,22.585,88.3389,22.1768z M85.1641,20.6133h3.1855
		c-0.043-0.4795-0.165-0.8389-0.3652-1.0791c-0.3076-0.3721-0.707-0.5586-1.1973-0.5586c-0.4443,0-0.8174,0.1484-1.1201,0.4463
		C85.3643,19.7188,85.1973,20.1162,85.1641,20.6133z"/>
	<path d="M90.541,24.0137v-5.7041h0.8691v0.8643c0.2227-0.4043,0.4277-0.6709,0.6152-0.7998
		c0.1885-0.1289,0.3945-0.1934,0.6211-0.1934c0.3252,0,0.6563,0.1035,0.9932,0.3115l-0.333,0.8965
		c-0.2363-0.1387-0.4727-0.209-0.709-0.209c-0.2109,0-0.4014,0.0635-0.5693,0.1904s-0.2881,0.3037-0.3604,0.5293
		c-0.1074,0.3438-0.1602,0.7197-0.1602,1.1279v2.9863H90.541z"/>
	<path d="M94.2139,24.0137v-5.7041h0.8711v0.8115c0.418-0.627,1.0234-0.9404,1.8145-0.9404c0.3438,0,0.6602,0.0615,0.9482,0.1855
		c0.2881,0.123,0.5039,0.2852,0.6475,0.4854c0.1436,0.2012,0.2432,0.4395,0.3008,0.7148c0.0361,0.1787,0.0537,0.4922,0.0537,0.9395
		v3.5078h-0.9668v-3.4697c0-0.3936-0.0381-0.6885-0.1123-0.8838c-0.0762-0.1953-0.209-0.3506-0.4004-0.4668
		s-0.416-0.1748-0.6738-0.1748c-0.4121,0-0.7676,0.1309-1.0664,0.3916c-0.2988,0.2617-0.4492,0.7578-0.4492,1.4883v3.1152H94.2139z"
		/>
	<path d="M104.0547,23.3105c-0.3584,0.3037-0.7031,0.5186-1.0342,0.6445c-0.3311,0.125-0.6865,0.1875-1.0654,0.1875
		c-0.627,0-1.1084-0.1533-1.4453-0.459c-0.3369-0.3066-0.5049-0.6973-0.5049-1.1738c0-0.2793,0.0635-0.5342,0.1904-0.7656
		c0.127-0.2305,0.2939-0.416,0.5-0.5557s0.4375-0.2451,0.6953-0.3174c0.1895-0.0498,0.4766-0.0977,0.8594-0.1445
		c0.7803-0.0928,1.3555-0.2041,1.7246-0.333c0.0029-0.1328,0.0049-0.2168,0.0049-0.2529c0-0.3936-0.0908-0.6709-0.2744-0.832
		c-0.2461-0.2188-0.6133-0.3281-1.1006-0.3281c-0.4551,0-0.79,0.0801-1.0068,0.2393s-0.377,0.4414-0.4805,0.8467l-0.9453-0.1289
		c0.0859-0.4053,0.2266-0.7314,0.4238-0.9805s0.4814-0.4404,0.8535-0.5752c0.373-0.1338,0.8047-0.2012,1.2949-0.2012
		c0.4873,0,0.8828,0.0576,1.1875,0.1719c0.3037,0.1143,0.5273,0.2588,0.6709,0.4326s0.2432,0.3926,0.3008,0.6582
		c0.0322,0.1641,0.0479,0.4609,0.0479,0.8906v1.2891c0,0.8994,0.0215,1.4678,0.0625,1.7061s0.1221,0.4658,0.2441,0.6846h-1.0098
		C104.1475,23.8135,104.083,23.5781,104.0547,23.3105z M103.9746,21.1504c-0.3516,0.1436-0.8779,0.2656-1.5801,0.3652
		c-0.3965,0.0576-0.6777,0.1221-0.8428,0.1934c-0.165,0.0723-0.292,0.1768-0.3818,0.3145c-0.0889,0.1377-0.1338,0.291-0.1338,0.459
		c0,0.2578,0.0977,0.4727,0.293,0.6445s0.4805,0.2578,0.8564,0.2578c0.3721,0,0.7031-0.0811,0.9941-0.2441
		c0.2891-0.1631,0.5029-0.3857,0.6387-0.668c0.1035-0.2188,0.1563-0.541,0.1563-0.9668V21.1504z M102.0938,17.6006l0.7148-1.5039
		h1.2676l-1.1816,1.5039H102.0938z"/>
	<path d="M106.4492,24.0137v-5.7041h0.8711v0.8115c0.418-0.627,1.0234-0.9404,1.8145-0.9404c0.3438,0,0.6602,0.0615,0.9482,0.1855
		c0.2881,0.123,0.5039,0.2852,0.6475,0.4854c0.1436,0.2012,0.2432,0.4395,0.3008,0.7148c0.0361,0.1787,0.0537,0.4922,0.0537,0.9395
		v3.5078h-0.9668v-3.4697c0-0.3936-0.0381-0.6885-0.1123-0.8838c-0.0762-0.1953-0.209-0.3506-0.4004-0.4668
		s-0.416-0.1748-0.6738-0.1748c-0.4121,0-0.7676,0.1309-1.0664,0.3916c-0.2988,0.2617-0.4492,0.7578-0.4492,1.4883v3.1152H106.4492z
		"/>
	<path d="M116.2676,24.0137v-0.7197c-0.3613,0.5654-0.8936,0.8486-1.5957,0.8486c-0.4541,0-0.8721-0.125-1.2539-0.376
		c-0.3809-0.251-0.6768-0.6006-0.8857-1.0498c-0.21-0.4492-0.3145-0.9658-0.3145-1.5498c0-0.5693,0.0947-1.0859,0.2842-1.5498
		c0.1904-0.4639,0.4746-0.8184,0.8545-1.0664c0.3799-0.2461,0.8037-0.3701,1.2725-0.3701c0.3438,0,0.6504,0.0723,0.9189,0.2178
		c0.2686,0.1445,0.4873,0.334,0.6553,0.5664v-2.8252h0.9609v7.874H116.2676z M113.2109,21.167c0,0.7305,0.1543,1.2764,0.4629,1.6377
		c0.3076,0.3623,0.6709,0.543,1.0898,0.543c0.4229,0,0.7813-0.1729,1.0771-0.5186c0.2949-0.3457,0.4424-0.8721,0.4424-1.5811
		c0-0.7813-0.1504-1.3535-0.4512-1.7188s-0.6709-0.5488-1.1113-0.5488c-0.4297,0-0.7891,0.1758-1.0771,0.5273
		C113.3555,19.8584,113.2109,20.4111,113.2109,21.167z"/>
	<path d="M122.5889,22.1768l0.999,0.124c-0.1572,0.583-0.4492,1.0361-0.875,1.3584c-0.4268,0.3223-0.9707,0.4834-1.6328,0.4834
		c-0.835,0-1.4961-0.2568-1.9854-0.7705c-0.4883-0.5137-0.7334-1.2344-0.7334-2.1621c0-0.96,0.248-1.7041,0.7422-2.2344
		s1.1348-0.7949,1.9219-0.7949c0.7637,0,1.3867,0.2598,1.8691,0.7783c0.4844,0.5195,0.7256,1.25,0.7256,2.1914
		c0,0.0576-0.002,0.1436-0.0049,0.2578h-4.2539c0.0352,0.627,0.2129,1.1074,0.5313,1.4395c0.3184,0.334,0.7158,0.5,1.1924,0.5
		c0.3545,0,0.6572-0.0928,0.9072-0.2793C122.2432,22.8818,122.4424,22.585,122.5889,22.1768z M119.4141,20.6133h3.1855
		c-0.043-0.4795-0.165-0.8389-0.3652-1.0791c-0.3076-0.3721-0.707-0.5586-1.1973-0.5586c-0.4443,0-0.8174,0.1484-1.1201,0.4463
		C119.6143,19.7188,119.4473,20.1162,119.4141,20.6133z"/>
	<path d="M124.291,24.0137v-0.7842l3.6309-4.168c-0.4121,0.0215-0.7754,0.0322-1.0898,0.0322h-2.3262v-0.7842h4.6621v0.6396
		l-3.0879,3.6191l-0.5967,0.6611c0.4336-0.0322,0.8398-0.0479,1.2197-0.0479h2.6367v0.832H124.291z"/>
	<path d="M133.4707,24.0137v-7.874h1.0684l4.1367,6.1826v-6.1826h0.998v7.874h-1.0684l-4.1357-6.1875v6.1875H133.4707z"/>
	<path d="M145.0234,23.3105c-0.3584,0.3037-0.7031,0.5186-1.0342,0.6445c-0.3311,0.125-0.6865,0.1875-1.0654,0.1875
		c-0.627,0-1.1084-0.1533-1.4453-0.459c-0.3369-0.3066-0.5049-0.6973-0.5049-1.1738c0-0.2793,0.0635-0.5342,0.1904-0.7656
		c0.127-0.2305,0.2939-0.416,0.5-0.5557s0.4375-0.2451,0.6953-0.3174c0.1895-0.0498,0.4766-0.0977,0.8594-0.1445
		c0.7803-0.0928,1.3555-0.2041,1.7246-0.333c0.0029-0.1328,0.0049-0.2168,0.0049-0.2529c0-0.3936-0.0908-0.6709-0.2744-0.832
		c-0.2461-0.2188-0.6133-0.3281-1.1006-0.3281c-0.4551,0-0.79,0.0801-1.0068,0.2393s-0.377,0.4414-0.4805,0.8467l-0.9453-0.1289
		c0.0859-0.4053,0.2266-0.7314,0.4238-0.9805s0.4814-0.4404,0.8535-0.5752c0.373-0.1338,0.8047-0.2012,1.2949-0.2012
		c0.4873,0,0.8828,0.0576,1.1875,0.1719c0.3037,0.1143,0.5273,0.2588,0.6709,0.4326s0.2432,0.3926,0.3008,0.6582
		c0.0322,0.1641,0.0479,0.4609,0.0479,0.8906v1.2891c0,0.8994,0.0215,1.4678,0.0625,1.7061s0.1221,0.4658,0.2441,0.6846h-1.0098
		C145.1162,23.8135,145.0518,23.5781,145.0234,23.3105z M144.9434,21.1504c-0.3516,0.1436-0.8779,0.2656-1.5801,0.3652
		c-0.3965,0.0576-0.6777,0.1221-0.8428,0.1934c-0.165,0.0723-0.292,0.1768-0.3818,0.3145c-0.0889,0.1377-0.1338,0.291-0.1338,0.459
		c0,0.2578,0.0977,0.4727,0.293,0.6445s0.4805,0.2578,0.8564,0.2578c0.3721,0,0.7031-0.0811,0.9941-0.2441
		c0.2891-0.1631,0.5029-0.3857,0.6387-0.668c0.1035-0.2188,0.1563-0.541,0.1563-0.9668V21.1504z"/>
	<path d="M147.4082,24.0137v-5.7041h0.8691v0.8643c0.2227-0.4043,0.4277-0.6709,0.6152-0.7998
		c0.1885-0.1289,0.3945-0.1934,0.6211-0.1934c0.3252,0,0.6563,0.1035,0.9932,0.3115l-0.333,0.8965
		c-0.2363-0.1387-0.4727-0.209-0.709-0.209c-0.2109,0-0.4014,0.0635-0.5693,0.1904s-0.2881,0.3037-0.3604,0.5293
		c-0.1074,0.3438-0.1602,0.7197-0.1602,1.1279v2.9863H147.4082z"/>
	<path d="M154.8037,23.3105c-0.3584,0.3037-0.7031,0.5186-1.0342,0.6445c-0.3311,0.125-0.6865,0.1875-1.0654,0.1875
		c-0.627,0-1.1084-0.1533-1.4453-0.459c-0.3369-0.3066-0.5049-0.6973-0.5049-1.1738c0-0.2793,0.0635-0.5342,0.1904-0.7656
		c0.127-0.2305,0.2939-0.416,0.5-0.5557s0.4375-0.2451,0.6953-0.3174c0.1895-0.0498,0.4766-0.0977,0.8594-0.1445
		c0.7803-0.0928,1.3555-0.2041,1.7246-0.333c0.0029-0.1328,0.0049-0.2168,0.0049-0.2529c0-0.3936-0.0908-0.6709-0.2744-0.832
		c-0.2461-0.2188-0.6133-0.3281-1.1006-0.3281c-0.4551,0-0.79,0.0801-1.0068,0.2393s-0.377,0.4414-0.4805,0.8467l-0.9453-0.1289
		c0.0859-0.4053,0.2266-0.7314,0.4238-0.9805s0.4814-0.4404,0.8535-0.5752c0.373-0.1338,0.8047-0.2012,1.2949-0.2012
		c0.4873,0,0.8828,0.0576,1.1875,0.1719c0.3037,0.1143,0.5273,0.2588,0.6709,0.4326s0.2432,0.3926,0.3008,0.6582
		c0.0322,0.1641,0.0479,0.4609,0.0479,0.8906v1.2891c0,0.8994,0.0215,1.4678,0.0625,1.7061s0.1221,0.4658,0.2441,0.6846h-1.0098
		C154.8965,23.8135,154.832,23.5781,154.8037,23.3105z M154.7236,21.1504c-0.3516,0.1436-0.8779,0.2656-1.5801,0.3652
		c-0.3965,0.0576-0.6777,0.1221-0.8428,0.1934c-0.165,0.0723-0.292,0.1768-0.3818,0.3145c-0.0889,0.1377-0.1338,0.291-0.1338,0.459
		c0,0.2578,0.0977,0.4727,0.293,0.6445s0.4805,0.2578,0.8564,0.2578c0.3721,0,0.7031-0.0811,0.9941-0.2441
		c0.2891-0.1631,0.5029-0.3857,0.6387-0.668c0.1035-0.2188,0.1563-0.541,0.1563-0.9668V21.1504z"/>
	<path d="M157.1992,24.0137v-5.7041h0.8711v0.8115c0.418-0.627,1.0234-0.9404,1.8145-0.9404c0.3438,0,0.6602,0.0615,0.9482,0.1855
		c0.2881,0.123,0.5039,0.2852,0.6475,0.4854c0.1436,0.2012,0.2432,0.4395,0.3008,0.7148c0.0361,0.1787,0.0537,0.4922,0.0537,0.9395
		v3.5078h-0.9668v-3.4697c0-0.3936-0.0381-0.6885-0.1123-0.8838c-0.0762-0.1953-0.209-0.3506-0.4004-0.4668
		s-0.416-0.1748-0.6738-0.1748c-0.4121,0-0.7676,0.1309-1.0664,0.3916c-0.2988,0.2617-0.4492,0.7578-0.4492,1.4883v3.1152H157.1992z
		"/>
	<path d="M162.0869,26.2266l0.1826-0.8223c0.1934,0.0508,0.3457,0.0762,0.457,0.0762c0.1963,0,0.3438-0.0654,0.4395-0.1963
		c0.0977-0.1309,0.1455-0.458,0.1455-0.9805v-5.9941h0.9668v6.0156c0,0.7021-0.0908,1.1904-0.2744,1.4658
		c-0.2324,0.3584-0.6191,0.5371-1.1602,0.5371C162.583,26.3281,162.3301,26.2949,162.0869,26.2266z M163.3115,17.2617v-1.1221
		h0.9668v1.1221H163.3115z"/>
	<path d="M165.4004,21.1621c0-1.0566,0.2939-1.8389,0.8809-2.3477c0.4902-0.4229,1.0889-0.6338,1.7939-0.6338
		c0.7842,0,1.4248,0.2568,1.9229,0.7705s0.7461,1.2236,0.7461,2.1299c0,0.7344-0.1094,1.3115-0.3301,1.7324
		c-0.2197,0.4209-0.54,0.7471-0.9609,0.9795c-0.4209,0.2334-0.8799,0.3496-1.3779,0.3496c-0.7988,0-1.4443-0.2559-1.9365-0.7676
		C165.6465,22.8623,165.4004,22.125,165.4004,21.1621z M166.3945,21.1621c0,0.7305,0.1592,1.2773,0.4775,1.6406
		s0.7197,0.5449,1.2031,0.5449c0.4795,0,0.8789-0.1826,1.1982-0.5479c0.3184-0.3652,0.4775-0.9219,0.4775-1.6709
		c0-0.7051-0.1602-1.2393-0.4805-1.6025s-0.7188-0.5459-1.1953-0.5459c-0.4834,0-0.8848,0.1816-1.2031,0.543
		S166.3945,20.4316,166.3945,21.1621z"/>
	<path d="M6.418,45.2529l1.042,0.2627c-0.2188,0.8564-0.6113,1.5088-1.1787,1.958s-1.2617,0.6748-2.082,0.6748
		c-0.8477,0-1.5381-0.1729-2.0703-0.5186c-0.5313-0.3457-0.9365-0.8467-1.2139-1.501c-0.2773-0.6563-0.416-1.3594-0.416-2.1113
		c0-0.8203,0.1563-1.5352,0.4697-2.1455s0.7598-1.0742,1.3379-1.3916c0.5781-0.3164,1.2148-0.4746,1.9092-0.4746
		c0.7881,0,1.4502,0.2002,1.9873,0.6016c0.5371,0.4004,0.9111,0.9648,1.123,1.6914L6.2998,42.541
		c-0.1826-0.5732-0.4473-0.9902-0.7949-1.252s-0.7842-0.3926-1.3105-0.3926c-0.6055,0-1.1113,0.1455-1.5176,0.4355
		S1.9854,42.0117,1.8203,42.5c-0.165,0.4893-0.2471,0.9932-0.2471,1.5117c0,0.6699,0.0977,1.2549,0.293,1.7539
		c0.1953,0.5,0.498,0.873,0.9102,1.1201s0.8574,0.3701,1.3369,0.3701c0.584,0,1.0781-0.168,1.4824-0.5039
		C6.001,46.415,6.2744,45.915,6.418,45.2529z"/>
	<path d="M12.3418,47.3105c-0.3584,0.3037-0.7031,0.5186-1.0342,0.6445c-0.3311,0.125-0.6865,0.1875-1.0654,0.1875
		c-0.627,0-1.1084-0.1533-1.4453-0.459C8.46,47.377,8.292,46.9863,8.292,46.5098c0-0.2793,0.0635-0.5342,0.1904-0.7656
		c0.127-0.2305,0.2939-0.416,0.5-0.5557s0.4375-0.2451,0.6953-0.3174c0.1895-0.0498,0.4766-0.0977,0.8594-0.1445
		c0.7803-0.0928,1.3555-0.2041,1.7246-0.333c0.0029-0.1328,0.0049-0.2168,0.0049-0.2529c0-0.3936-0.0908-0.6709-0.2744-0.832
		c-0.2461-0.2188-0.6133-0.3281-1.1006-0.3281c-0.4551,0-0.79,0.0801-1.0068,0.2393s-0.377,0.4414-0.4805,0.8467L8.459,43.9375
		c0.0859-0.4053,0.2266-0.7314,0.4238-0.9805s0.4814-0.4404,0.8535-0.5752c0.373-0.1338,0.8047-0.2012,1.2949-0.2012
		c0.4873,0,0.8828,0.0576,1.1875,0.1719c0.3037,0.1143,0.5273,0.2588,0.6709,0.4326s0.2432,0.3926,0.3008,0.6582
		c0.0322,0.1641,0.0479,0.4609,0.0479,0.8906v1.2891c0,0.8994,0.0215,1.4678,0.0625,1.7061s0.1221,0.4658,0.2441,0.6846h-1.0098
		C12.4346,47.8135,12.3701,47.5781,12.3418,47.3105z M12.2617,45.1504c-0.3516,0.1436-0.8779,0.2656-1.5801,0.3652
		c-0.3965,0.0576-0.6777,0.1221-0.8428,0.1934c-0.165,0.0723-0.292,0.1768-0.3818,0.3145c-0.0889,0.1377-0.1338,0.291-0.1338,0.459
		c0,0.2578,0.0977,0.4727,0.293,0.6445s0.4805,0.2578,0.8564,0.2578c0.3721,0,0.7031-0.0811,0.9941-0.2441
		c0.2891-0.1631,0.5029-0.3857,0.6387-0.668c0.1035-0.2188,0.1563-0.541,0.1563-0.9668V45.1504z"/>
	<path d="M16.8477,47.1484l0.1396,0.8545c-0.2725,0.0576-0.5156,0.0859-0.7305,0.0859c-0.3506,0-0.623-0.0557-0.8164-0.167
		c-0.1934-0.1104-0.3291-0.2568-0.4082-0.4375s-0.1182-0.5605-0.1182-1.1406v-3.2822h-0.709v-0.752h0.709v-1.4131l0.9609-0.5801
		v1.9932h0.9727v0.752H15.875v3.335c0,0.2764,0.0176,0.4531,0.0518,0.5322s0.0889,0.1416,0.166,0.1885
		c0.0771,0.0459,0.1875,0.0693,0.3311,0.0693C16.5313,47.1865,16.6719,47.1738,16.8477,47.1484z"/>
	<path d="M21.5156,47.3105c-0.3584,0.3037-0.7031,0.5186-1.0342,0.6445c-0.3311,0.125-0.6865,0.1875-1.0654,0.1875
		c-0.627,0-1.1084-0.1533-1.4453-0.459c-0.3369-0.3066-0.5049-0.6973-0.5049-1.1738c0-0.2793,0.0635-0.5342,0.1904-0.7656
		c0.127-0.2305,0.2939-0.416,0.5-0.5557s0.4375-0.2451,0.6953-0.3174c0.1895-0.0498,0.4766-0.0977,0.8594-0.1445
		c0.7803-0.0928,1.3555-0.2041,1.7246-0.333c0.0029-0.1328,0.0049-0.2168,0.0049-0.2529c0-0.3936-0.0908-0.6709-0.2744-0.832
		c-0.2461-0.2188-0.6133-0.3281-1.1006-0.3281c-0.4551,0-0.79,0.0801-1.0068,0.2393s-0.377,0.4414-0.4805,0.8467l-0.9453-0.1289
		c0.0859-0.4053,0.2266-0.7314,0.4238-0.9805s0.4814-0.4404,0.8535-0.5752c0.373-0.1338,0.8047-0.2012,1.2949-0.2012
		c0.4873,0,0.8828,0.0576,1.1875,0.1719c0.3037,0.1143,0.5273,0.2588,0.6709,0.4326s0.2432,0.3926,0.3008,0.6582
		c0.0322,0.1641,0.0479,0.4609,0.0479,0.8906v1.2891c0,0.8994,0.0215,1.4678,0.0625,1.7061s0.1221,0.4658,0.2441,0.6846H21.709
		C21.6084,47.8135,21.5439,47.5781,21.5156,47.3105z M21.4355,45.1504c-0.3516,0.1436-0.8779,0.2656-1.5801,0.3652
		c-0.3965,0.0576-0.6777,0.1221-0.8428,0.1934c-0.165,0.0723-0.292,0.1768-0.3818,0.3145c-0.0889,0.1377-0.1338,0.291-0.1338,0.459
		c0,0.2578,0.0977,0.4727,0.293,0.6445s0.4805,0.2578,0.8564,0.2578c0.3721,0,0.7031-0.0811,0.9941-0.2441
		c0.2891-0.1631,0.5029-0.3857,0.6387-0.668c0.1035-0.2188,0.1563-0.541,0.1563-0.9668V45.1504z"/>
	<path d="M23.8887,48.0137v-7.874h0.9668v7.874H23.8887z"/>
	<path d="M26.3594,41.252v-1.1123h0.9668v1.1123H26.3594z M26.3594,48.0137v-5.7041h0.9668v5.7041H26.3594z"/>
	<path d="M28.7969,48.0137v-5.7041h0.8711v0.8115c0.418-0.627,1.0234-0.9404,1.8145-0.9404c0.3438,0,0.6602,0.0615,0.9482,0.1855
		c0.2881,0.123,0.5039,0.2852,0.6475,0.4854c0.1436,0.2012,0.2432,0.4395,0.3008,0.7148c0.0361,0.1787,0.0537,0.4922,0.0537,0.9395
		v3.5078h-0.9668v-3.4697c0-0.3936-0.0381-0.6885-0.1123-0.8838c-0.0762-0.1953-0.209-0.3506-0.4004-0.4668
		s-0.416-0.1748-0.6738-0.1748c-0.4121,0-0.7676,0.1309-1.0664,0.3916c-0.2988,0.2617-0.4492,0.7578-0.4492,1.4883v3.1152H28.7969z"
		/>
	<path d="M38.6367,47.3105c-0.3584,0.3037-0.7031,0.5186-1.0342,0.6445c-0.3311,0.125-0.6865,0.1875-1.0654,0.1875
		c-0.627,0-1.1084-0.1533-1.4453-0.459c-0.3369-0.3066-0.5049-0.6973-0.5049-1.1738c0-0.2793,0.0635-0.5342,0.1904-0.7656
		c0.127-0.2305,0.2939-0.416,0.5-0.5557s0.4375-0.2451,0.6953-0.3174c0.1895-0.0498,0.4766-0.0977,0.8594-0.1445
		c0.7803-0.0928,1.3555-0.2041,1.7246-0.333c0.0029-0.1328,0.0049-0.2168,0.0049-0.2529c0-0.3936-0.0908-0.6709-0.2744-0.832
		c-0.2461-0.2188-0.6133-0.3281-1.1006-0.3281c-0.4551,0-0.79,0.0801-1.0068,0.2393s-0.377,0.4414-0.4805,0.8467l-0.9453-0.1289
		c0.0859-0.4053,0.2266-0.7314,0.4238-0.9805s0.4814-0.4404,0.8535-0.5752c0.373-0.1338,0.8047-0.2012,1.2949-0.2012
		c0.4873,0,0.8828,0.0576,1.1875,0.1719c0.3037,0.1143,0.5273,0.2588,0.6709,0.4326s0.2432,0.3926,0.3008,0.6582
		c0.0322,0.1641,0.0479,0.4609,0.0479,0.8906v1.2891c0,0.8994,0.0215,1.4678,0.0625,1.7061s0.1221,0.4658,0.2441,0.6846h-1.0098
		C38.7295,47.8135,38.665,47.5781,38.6367,47.3105z M38.5566,45.1504c-0.3516,0.1436-0.8779,0.2656-1.5801,0.3652
		c-0.3965,0.0576-0.6777,0.1221-0.8428,0.1934c-0.165,0.0723-0.292,0.1768-0.3818,0.3145c-0.0889,0.1377-0.1338,0.291-0.1338,0.459
		c0,0.2578,0.0977,0.4727,0.293,0.6445s0.4805,0.2578,0.8564,0.2578c0.3721,0,0.7031-0.0811,0.9941-0.2441
		c0.2891-0.1631,0.5029-0.3857,0.6387-0.668c0.1035-0.2188,0.1563-0.541,0.1563-0.9668V45.1504z"/>
	<path d="M44.1797,48.0137v-7.874h1.5684l1.8633,5.5752c0.1719,0.5195,0.2979,0.9082,0.377,1.166
		c0.0889-0.2871,0.2285-0.708,0.418-1.2627l1.8857-5.4785h1.4014v7.874h-1.0039v-6.5898l-2.2881,6.5898h-0.9404l-2.2773-6.7031
		v6.7031H44.1797z"/>
	<path d="M56.9736,47.3105c-0.3584,0.3037-0.7031,0.5186-1.0342,0.6445c-0.3311,0.125-0.6865,0.1875-1.0654,0.1875
		c-0.627,0-1.1084-0.1533-1.4453-0.459c-0.3369-0.3066-0.5049-0.6973-0.5049-1.1738c0-0.2793,0.0635-0.5342,0.1904-0.7656
		c0.127-0.2305,0.2939-0.416,0.5-0.5557s0.4375-0.2451,0.6953-0.3174c0.1895-0.0498,0.4766-0.0977,0.8594-0.1445
		c0.7803-0.0928,1.3555-0.2041,1.7246-0.333c0.0029-0.1328,0.0049-0.2168,0.0049-0.2529c0-0.3936-0.0908-0.6709-0.2744-0.832
		c-0.2461-0.2188-0.6133-0.3281-1.1006-0.3281c-0.4551,0-0.79,0.0801-1.0068,0.2393s-0.377,0.4414-0.4805,0.8467l-0.9453-0.1289
		c0.0859-0.4053,0.2266-0.7314,0.4238-0.9805s0.4814-0.4404,0.8535-0.5752c0.373-0.1338,0.8047-0.2012,1.2949-0.2012
		c0.4873,0,0.8828,0.0576,1.1875,0.1719c0.3037,0.1143,0.5273,0.2588,0.6709,0.4326s0.2432,0.3926,0.3008,0.6582
		c0.0322,0.1641,0.0479,0.4609,0.0479,0.8906v1.2891c0,0.8994,0.0215,1.4678,0.0625,1.7061s0.1221,0.4658,0.2441,0.6846H57.167
		C57.0664,47.8135,57.002,47.5781,56.9736,47.3105z M56.8936,45.1504c-0.3516,0.1436-0.8779,0.2656-1.5801,0.3652
		c-0.3965,0.0576-0.6777,0.1221-0.8428,0.1934c-0.165,0.0723-0.292,0.1768-0.3818,0.3145c-0.0889,0.1377-0.1338,0.291-0.1338,0.459
		c0,0.2578,0.0977,0.4727,0.293,0.6445s0.4805,0.2578,0.8564,0.2578c0.3721,0,0.7031-0.0811,0.9941-0.2441
		c0.2891-0.1631,0.5029-0.3857,0.6387-0.668c0.1035-0.2188,0.1563-0.541,0.1563-0.9668V45.1504z"/>
	<path d="M59.3594,48.0137v-5.7041h0.8691v0.8643c0.2227-0.4043,0.4277-0.6709,0.6152-0.7998
		c0.1885-0.1289,0.3945-0.1934,0.6211-0.1934c0.3252,0,0.6563,0.1035,0.9932,0.3115l-0.333,0.8965
		c-0.2363-0.1387-0.4727-0.209-0.709-0.209c-0.2109,0-0.4014,0.0635-0.5693,0.1904s-0.2881,0.3037-0.3604,0.5293
		c-0.1074,0.3438-0.1602,0.7197-0.1602,1.1279v2.9863H59.3594z"/>
	<path d="M65.1436,47.1484l0.1396,0.8545c-0.2725,0.0576-0.5156,0.0859-0.7305,0.0859c-0.3506,0-0.623-0.0557-0.8164-0.167
		c-0.1934-0.1104-0.3291-0.2568-0.4082-0.4375S63.21,46.9238,63.21,46.3438v-3.2822h-0.709v-0.752h0.709v-1.4131l0.9609-0.5801
		v1.9932h0.9727v0.752h-0.9727v3.335c0,0.2764,0.0176,0.4531,0.0518,0.5322s0.0889,0.1416,0.166,0.1885
		c0.0771,0.0459,0.1875,0.0693,0.3311,0.0693C64.8271,47.1865,64.9678,47.1738,65.1436,47.1484z"/>
	<path d="M66.3789,41.6006l0.7139-1.5039h1.2676l-1.1816,1.5039H66.3789z M66.4268,48.0137v-5.7041h0.9668v5.7041H66.4268z"/>
	<path d="M69.1445,48.0137v-5.7041h0.8711v0.8115c0.418-0.627,1.0234-0.9404,1.8145-0.9404c0.3438,0,0.6602,0.0615,0.9482,0.1855
		c0.2881,0.123,0.5039,0.2852,0.6475,0.4854c0.1436,0.2012,0.2432,0.4395,0.3008,0.7148c0.0361,0.1787,0.0537,0.4922,0.0537,0.9395
		v3.5078h-0.9668v-3.4697c0-0.3936-0.0381-0.6885-0.1123-0.8838c-0.0762-0.1953-0.209-0.3506-0.4004-0.4668
		s-0.416-0.1748-0.6738-0.1748c-0.4121,0-0.7676,0.1309-1.0664,0.3916c-0.2988,0.2617-0.4492,0.7578-0.4492,1.4883v3.1152H69.1445z"
		/>
	<path d="M79.167,46.1768l0.999,0.124c-0.1572,0.583-0.4492,1.0361-0.875,1.3584c-0.4268,0.3223-0.9707,0.4834-1.6328,0.4834
		c-0.835,0-1.4961-0.2568-1.9854-0.7705c-0.4883-0.5137-0.7334-1.2344-0.7334-2.1621c0-0.96,0.248-1.7041,0.7422-2.2344
		s1.1348-0.7949,1.9219-0.7949c0.7637,0,1.3867,0.2598,1.8691,0.7783c0.4844,0.5195,0.7256,1.25,0.7256,2.1914
		c0,0.0576-0.002,0.1436-0.0049,0.2578h-4.2539c0.0352,0.627,0.2129,1.1074,0.5313,1.4395c0.3184,0.334,0.7158,0.5,1.1924,0.5
		c0.3545,0,0.6572-0.0928,0.9072-0.2793C78.8213,46.8818,79.0205,46.585,79.167,46.1768z M75.9922,44.6133h3.1855
		c-0.043-0.4795-0.165-0.8389-0.3652-1.0791c-0.3076-0.3721-0.707-0.5586-1.1973-0.5586c-0.4443,0-0.8174,0.1484-1.1201,0.4463
		C76.1924,43.7188,76.0254,44.1162,75.9922,44.6133z"/>
	<path d="M80.8691,48.0137v-0.7842l3.6309-4.168c-0.4121,0.0215-0.7754,0.0322-1.0898,0.0322H81.084v-0.7842h4.6621v0.6396
		l-3.0879,3.6191l-0.5967,0.6611c0.4336-0.0322,0.8398-0.0479,1.2197-0.0479h2.6367v0.832H80.8691z"/>
	<path d="M88.5879,48.0137l3.0234-7.874h1.123l3.2227,7.874h-1.1875l-0.918-2.3848h-3.293l-0.8652,2.3848H88.5879z M90.8594,44.7803
		h2.6699l-0.8223-2.1807c-0.251-0.6621-0.4365-1.207-0.5586-1.6328c-0.1006,0.5049-0.2422,1.0059-0.4238,1.5039L90.8594,44.7803z"/>
	<path d="M98.0518,48.0137l-2.1699-5.7041h1.0205l1.2246,3.416c0.1328,0.3691,0.2539,0.752,0.3652,1.1494
		c0.0859-0.3008,0.2061-0.6621,0.3594-1.085l1.2676-3.4805h0.9941l-2.1592,5.7041H98.0518z"/>
	<path d="M101.9727,41.252v-1.1123h0.9668v1.1123H101.9727z M101.9727,48.0137v-5.7041h0.9668v5.7041H101.9727z"/>
	<path d="M104.3896,48.0137v-7.874h0.9668v7.874H104.3896z"/>
	<path d="M110.5771,47.3105c-0.3584,0.3037-0.7031,0.5186-1.0342,0.6445c-0.3311,0.125-0.6865,0.1875-1.0654,0.1875
		c-0.627,0-1.1084-0.1533-1.4453-0.459c-0.3369-0.3066-0.5049-0.6973-0.5049-1.1738c0-0.2793,0.0635-0.5342,0.1904-0.7656
		c0.127-0.2305,0.2939-0.416,0.5-0.5557s0.4375-0.2451,0.6953-0.3174c0.1895-0.0498,0.4766-0.0977,0.8594-0.1445
		c0.7803-0.0928,1.3555-0.2041,1.7246-0.333c0.0029-0.1328,0.0049-0.2168,0.0049-0.2529c0-0.3936-0.0908-0.6709-0.2744-0.832
		c-0.2461-0.2188-0.6133-0.3281-1.1006-0.3281c-0.4551,0-0.79,0.0801-1.0068,0.2393s-0.377,0.4414-0.4805,0.8467l-0.9453-0.1289
		c0.0859-0.4053,0.2266-0.7314,0.4238-0.9805s0.4814-0.4404,0.8535-0.5752c0.373-0.1338,0.8047-0.2012,1.2949-0.2012
		c0.4873,0,0.8828,0.0576,1.1875,0.1719c0.3037,0.1143,0.5273,0.2588,0.6709,0.4326s0.2432,0.3926,0.3008,0.6582
		c0.0322,0.1641,0.0479,0.4609,0.0479,0.8906v1.2891c0,0.8994,0.0215,1.4678,0.0625,1.7061s0.1221,0.4658,0.2441,0.6846h-1.0098
		C110.6699,47.8135,110.6055,47.5781,110.5771,47.3105z M110.4971,45.1504c-0.3516,0.1436-0.8779,0.2656-1.5801,0.3652
		c-0.3965,0.0576-0.6777,0.1221-0.8428,0.1934c-0.165,0.0723-0.292,0.1768-0.3818,0.3145c-0.0889,0.1377-0.1338,0.291-0.1338,0.459
		c0,0.2578,0.0977,0.4727,0.293,0.6445s0.4805,0.2578,0.8564,0.2578c0.3721,0,0.7031-0.0811,0.9941-0.2441
		c0.2891-0.1631,0.5029-0.3857,0.6387-0.668c0.1035-0.2188,0.1563-0.541,0.1563-0.9668V45.1504z"/>
	<path d="M0.8535,72.0132v-7.873H6.166v0.9277H1.8955v2.4395h3.6953v0.9297H1.8955v3.5762H0.8535z"/>
	<path d="M7.3848,72.0132v-5.7031h0.8691v0.8633c0.2227-0.4043,0.4277-0.6699,0.6152-0.7988
		c0.1885-0.1289,0.3945-0.1934,0.6211-0.1934c0.3252,0,0.6563,0.1035,0.9932,0.3105l-0.333,0.8965
		c-0.2363-0.1387-0.4727-0.209-0.709-0.209c-0.2109,0-0.4014,0.0645-0.5693,0.1914s-0.2881,0.3027-0.3604,0.5293
		c-0.1074,0.3438-0.1602,0.7188-0.1602,1.127v2.9863H7.3848z"/>
	<path d="M14.7803,71.3101c-0.3584,0.3047-0.7031,0.5195-1.0342,0.6445s-0.6865,0.1875-1.0654,0.1875
		c-0.627,0-1.1084-0.1523-1.4453-0.459s-0.5049-0.6973-0.5049-1.1738c0-0.2793,0.0635-0.5332,0.1904-0.7656
		c0.127-0.2305,0.2939-0.416,0.5-0.5547c0.2061-0.1406,0.4375-0.2461,0.6953-0.3184c0.1895-0.0488,0.4766-0.0977,0.8594-0.1445
		c0.7803-0.0918,1.3555-0.2031,1.7246-0.332c0.0029-0.1328,0.0049-0.2168,0.0049-0.2539c0-0.3926-0.0908-0.6699-0.2744-0.832
		c-0.2461-0.2188-0.6133-0.3281-1.1006-0.3281c-0.4551,0-0.79,0.0801-1.0068,0.2402c-0.2168,0.1582-0.377,0.4414-0.4805,0.8457
		l-0.9453-0.1289c0.0859-0.4043,0.2266-0.7305,0.4238-0.9805c0.1973-0.248,0.4814-0.4395,0.8535-0.5742
		c0.373-0.1348,0.8047-0.2012,1.2949-0.2012c0.4873,0,0.8828,0.0566,1.1875,0.1719c0.3037,0.1133,0.5273,0.2578,0.6709,0.4316
		s0.2432,0.3926,0.3008,0.6582c0.0322,0.1641,0.0479,0.4609,0.0479,0.8906v1.2891c0,0.9004,0.0215,1.4688,0.0625,1.707
		s0.1221,0.4648,0.2441,0.6836h-1.0098C14.873,71.814,14.8086,71.5776,14.7803,71.3101z M14.7002,69.1499
		c-0.3516,0.1445-0.8779,0.2656-1.5801,0.3652c-0.3965,0.0586-0.6777,0.123-0.8428,0.1934c-0.165,0.0723-0.292,0.1777-0.3818,0.3145
		c-0.0889,0.1387-0.1338,0.291-0.1338,0.459c0,0.2578,0.0977,0.4727,0.293,0.6445s0.4805,0.2578,0.8564,0.2578
		c0.3721,0,0.7031-0.0801,0.9941-0.2441c0.2891-0.1621,0.5029-0.3848,0.6387-0.668c0.1035-0.2188,0.1563-0.541,0.1563-0.9668
		V69.1499z"/>
	<path d="M17.1758,72.0132v-5.7031h0.8711v0.8105c0.418-0.627,1.0234-0.9395,1.8145-0.9395c0.3438,0,0.6602,0.0605,0.9482,0.1855
		c0.2881,0.123,0.5039,0.2852,0.6475,0.4844c0.1436,0.2012,0.2432,0.4395,0.3008,0.7148c0.0361,0.1797,0.0537,0.4922,0.0537,0.9395
		v3.5078h-0.9668v-3.4688c0-0.3945-0.0381-0.6895-0.1123-0.8848c-0.0762-0.1953-0.209-0.3496-0.4004-0.4668
		c-0.1914-0.1152-0.416-0.1738-0.6738-0.1738c-0.4121,0-0.7676,0.1309-1.0664,0.3906c-0.2988,0.2617-0.4492,0.7578-0.4492,1.4883
		v3.1152H17.1758z"/>
	<path d="M27.0156,69.9233l0.9512,0.125c-0.1045,0.6543-0.3701,1.168-0.7979,1.5391c-0.4277,0.3691-0.9541,0.5547-1.5771,0.5547
		c-0.7803,0-1.4072-0.2539-1.8818-0.7656c-0.4746-0.5098-0.7119-1.2402-0.7119-2.1934c0-0.6152,0.1016-1.1543,0.3066-1.6172
		c0.2031-0.4609,0.5146-0.8086,0.9316-1.0391s0.8711-0.3457,1.3613-0.3457c0.6191,0,1.126,0.1563,1.5195,0.4688
		c0.3945,0.3145,0.6465,0.7598,0.7578,1.3359l-0.9395,0.1445c-0.0898-0.3828-0.248-0.6719-0.4756-0.8652
		s-0.5029-0.2891-0.8252-0.2891c-0.4863,0-0.8818,0.1738-1.1865,0.5234s-0.4561,0.9004-0.4561,1.6563
		c0,0.7676,0.1465,1.3242,0.4395,1.6699c0.2939,0.3477,0.6777,0.5215,1.1504,0.5215c0.3789,0,0.6963-0.1152,0.9502-0.3496
		C26.7861,70.7651,26.9473,70.4077,27.0156,69.9233z"/>
	<path d="M28.7988,65.2515v-1.1113h0.9668v1.1113H28.7988z M28.7988,72.0132v-5.7031h0.9668v5.7031H28.7988z"/>
	<path d="M30.8496,70.3101l0.957-0.1504c0.0527,0.3848,0.2031,0.6777,0.4482,0.8809c0.2451,0.2051,0.5879,0.3066,1.0283,0.3066
		c0.4443,0,0.7734-0.0898,0.9883-0.2715c0.2148-0.1797,0.3223-0.3926,0.3223-0.6367c0-0.2168-0.0947-0.3887-0.2852-0.5156
		c-0.1318-0.0859-0.4609-0.1934-0.9883-0.3262c-0.709-0.1797-1.2002-0.334-1.4736-0.4648c-0.2744-0.1309-0.4814-0.3125-0.623-0.543
		s-0.2119-0.4863-0.2119-0.7656c0-0.2539,0.0576-0.4883,0.1738-0.7051s0.2754-0.3965,0.4756-0.541
		c0.1504-0.1113,0.3555-0.2051,0.6152-0.2813c0.2598-0.0781,0.5381-0.1152,0.835-0.1152c0.4473,0,0.8408,0.0645,1.1787,0.1934
		c0.3389,0.1289,0.5889,0.3027,0.749,0.5234c0.1621,0.2207,0.2725,0.5137,0.334,0.8828l-0.9453,0.1289
		c-0.043-0.293-0.168-0.5215-0.374-0.6875c-0.2061-0.1641-0.4971-0.2461-0.8721-0.2461c-0.4443,0-0.7617,0.0723-0.9512,0.2188
		c-0.1895,0.1484-0.2852,0.3203-0.2852,0.5156c0,0.127,0.04,0.2383,0.1191,0.3398c0.0781,0.1035,0.2021,0.1895,0.3701,0.2578
		c0.0967,0.0352,0.3818,0.1172,0.8545,0.2461c0.6836,0.1836,1.1602,0.332,1.4307,0.4492c0.2705,0.1152,0.4824,0.2852,0.6367,0.5078
		c0.1543,0.2207,0.2314,0.498,0.2314,0.8262c0,0.3223-0.0947,0.627-0.2822,0.9102c-0.1885,0.2852-0.46,0.5059-0.8135,0.6621
		c-0.3555,0.1543-0.7559,0.2324-1.2031,0.2324c-0.7422,0-1.3066-0.1543-1.6953-0.4609
		C31.2051,71.3726,30.957,70.9155,30.8496,70.3101z"/>
	<path d="M40.459,69.9233l0.9512,0.125c-0.1045,0.6543-0.3701,1.168-0.7979,1.5391c-0.4277,0.3691-0.9541,0.5547-1.5771,0.5547
		c-0.7803,0-1.4072-0.2539-1.8818-0.7656c-0.4746-0.5098-0.7119-1.2402-0.7119-2.1934c0-0.6152,0.1016-1.1543,0.3066-1.6172
		c0.2031-0.4609,0.5146-0.8086,0.9316-1.0391s0.8711-0.3457,1.3613-0.3457c0.6191,0,1.126,0.1563,1.5195,0.4688
		c0.3945,0.3145,0.6465,0.7598,0.7578,1.3359l-0.9395,0.1445c-0.0898-0.3828-0.248-0.6719-0.4756-0.8652
		s-0.5029-0.2891-0.8252-0.2891c-0.4863,0-0.8818,0.1738-1.1865,0.5234s-0.4561,0.9004-0.4561,1.6563
		c0,0.7676,0.1465,1.3242,0.4395,1.6699c0.2939,0.3477,0.6777,0.5215,1.1504,0.5215c0.3789,0,0.6963-0.1152,0.9502-0.3496
		C40.2295,70.7651,40.3906,70.4077,40.459,69.9233z"/>
	<path d="M41.877,69.1616c0-1.0566,0.2939-1.8379,0.8809-2.3477c0.4902-0.4219,1.0889-0.6328,1.7939-0.6328
		c0.7842,0,1.4248,0.2559,1.9229,0.7695s0.7461,1.2246,0.7461,2.1309c0,0.7344-0.1094,1.3105-0.3301,1.7324
		c-0.2197,0.4199-0.54,0.7461-0.9609,0.9785c-0.4209,0.2344-0.8799,0.3496-1.3779,0.3496c-0.7988,0-1.4443-0.2559-1.9365-0.7676
		S41.877,70.1245,41.877,69.1616z M42.8711,69.1616c0,0.7305,0.1592,1.2773,0.4775,1.6406s0.7197,0.5449,1.2031,0.5449
		c0.4795,0,0.8789-0.1816,1.1982-0.5469c0.3184-0.3652,0.4775-0.9219,0.4775-1.6719c0-0.7051-0.1602-1.2383-0.4805-1.6016
		S45.0283,66.98,44.5518,66.98c-0.4834,0-0.8848,0.1816-1.2031,0.543S42.8711,68.4312,42.8711,69.1616z"/>
	<path d="M51.002,69.7788l0.9404-0.1289c0.0254,0.6016,0.1377,1.0137,0.3389,1.2363c0.2002,0.2207,0.4775,0.332,0.832,0.332
		c0.2617,0,0.4873-0.0586,0.6768-0.1797c0.1895-0.1191,0.3203-0.2832,0.3916-0.4883c0.0723-0.207,0.1074-0.5352,0.1074-0.9863
		v-5.4238h1.043v5.3652c0,0.6582-0.0801,1.1699-0.2393,1.5313s-0.4121,0.6367-0.7578,0.8262s-0.751,0.2852-1.2158,0.2852
		c-0.6914,0-1.2207-0.1992-1.5879-0.5957C51.1641,71.1538,50.9883,70.564,51.002,69.7788z"/>
	<path d="M56.5508,69.1616c0-1.0566,0.2939-1.8379,0.8809-2.3477c0.4902-0.4219,1.0889-0.6328,1.7939-0.6328
		c0.7842,0,1.4248,0.2559,1.9229,0.7695s0.7461,1.2246,0.7461,2.1309c0,0.7344-0.1094,1.3105-0.3301,1.7324
		c-0.2197,0.4199-0.54,0.7461-0.9609,0.9785c-0.4209,0.2344-0.8799,0.3496-1.3779,0.3496c-0.7988,0-1.4443-0.2559-1.9365-0.7676
		S56.5508,70.1245,56.5508,69.1616z M57.5449,69.1616c0,0.7305,0.1592,1.2773,0.4775,1.6406s0.7197,0.5449,1.2031,0.5449
		c0.4795,0,0.8789-0.1816,1.1982-0.5469c0.3184-0.3652,0.4775-0.9219,0.4775-1.6719c0-0.7051-0.1602-1.2383-0.4805-1.6016
		S59.7021,66.98,59.2256,66.98c-0.4834,0-0.8848,0.1816-1.2031,0.543S57.5449,68.4312,57.5449,69.1616z"/>
	<path d="M62.6406,70.3101l0.957-0.1504c0.0527,0.3848,0.2031,0.6777,0.4482,0.8809c0.2451,0.2051,0.5879,0.3066,1.0283,0.3066
		c0.4443,0,0.7734-0.0898,0.9883-0.2715c0.2148-0.1797,0.3223-0.3926,0.3223-0.6367c0-0.2168-0.0947-0.3887-0.2852-0.5156
		c-0.1318-0.0859-0.4609-0.1934-0.9883-0.3262c-0.709-0.1797-1.2002-0.334-1.4736-0.4648c-0.2744-0.1309-0.4814-0.3125-0.623-0.543
		s-0.2119-0.4863-0.2119-0.7656c0-0.2539,0.0576-0.4883,0.1738-0.7051s0.2754-0.3965,0.4756-0.541
		c0.1504-0.1113,0.3555-0.2051,0.6152-0.2813c0.2598-0.0781,0.5381-0.1152,0.835-0.1152c0.4473,0,0.8408,0.0645,1.1787,0.1934
		c0.3389,0.1289,0.5889,0.3027,0.749,0.5234c0.1621,0.2207,0.2725,0.5137,0.334,0.8828l-0.9453,0.1289
		c-0.043-0.293-0.168-0.5215-0.374-0.6875c-0.2061-0.1641-0.4971-0.2461-0.8721-0.2461c-0.4443,0-0.7617,0.0723-0.9512,0.2188
		c-0.1895,0.1484-0.2852,0.3203-0.2852,0.5156c0,0.127,0.04,0.2383,0.1191,0.3398c0.0781,0.1035,0.2021,0.1895,0.3701,0.2578
		c0.0967,0.0352,0.3818,0.1172,0.8545,0.2461c0.6836,0.1836,1.1602,0.332,1.4307,0.4492c0.2705,0.1152,0.4824,0.2852,0.6367,0.5078
		c0.1543,0.2207,0.2314,0.498,0.2314,0.8262c0,0.3223-0.0947,0.627-0.2822,0.9102c-0.1885,0.2852-0.46,0.5059-0.8135,0.6621
		c-0.3555,0.1543-0.7559,0.2324-1.2031,0.2324c-0.7422,0-1.3066-0.1543-1.6953-0.4609
		C62.9961,71.3726,62.748,70.9155,62.6406,70.3101z"/>
	<path d="M72.4326,70.1772l0.999,0.123c-0.1572,0.584-0.4492,1.0371-0.875,1.3594c-0.4268,0.3223-0.9707,0.4824-1.6328,0.4824
		c-0.835,0-1.4961-0.2559-1.9854-0.7695c-0.4883-0.5137-0.7334-1.2344-0.7334-2.1621c0-0.9609,0.248-1.7051,0.7422-2.2344
		c0.4941-0.5313,1.1348-0.7949,1.9219-0.7949c0.7637,0,1.3867,0.2598,1.8691,0.7773c0.4844,0.5195,0.7256,1.25,0.7256,2.1914
		c0,0.0586-0.002,0.1445-0.0049,0.2578h-4.2539c0.0352,0.627,0.2129,1.1074,0.5313,1.4395c0.3184,0.334,0.7158,0.5,1.1924,0.5
		c0.3545,0,0.6572-0.0918,0.9072-0.2793C72.0869,70.8823,72.2861,70.5854,72.4326,70.1772z M69.2578,68.6128h3.1855
		c-0.043-0.4785-0.165-0.8379-0.3652-1.0781c-0.3076-0.373-0.707-0.5586-1.1973-0.5586c-0.4443,0-0.8174,0.1484-1.1201,0.4453
		S69.291,68.1167,69.2578,68.6128z M70.3008,65.6011l0.7139-1.5039h1.2676l-1.1816,1.5039H70.3008z"/>
	<path d="M77.7822,72.0132v-7.873h1.042v6.9434h3.8779v0.9297H77.7822z"/>
	<path d="M83.8242,65.2515v-1.1113h0.9668v1.1113H83.8242z M83.8242,72.0132v-5.7031h0.9668v5.7031H83.8242z"/>
	<path d="M85.752,72.0132V71.23l3.6309-4.168c-0.4121,0.0215-0.7754,0.0313-1.0898,0.0313h-2.3262v-0.7832h4.6621v0.6387
		l-3.0879,3.6191L86.9443,71.23c0.4336-0.0332,0.8398-0.0488,1.2197-0.0488h2.6367v0.832H85.752z"/>
	<path d="M95.4844,69.9233l0.9512,0.125c-0.1045,0.6543-0.3701,1.168-0.7979,1.5391c-0.4277,0.3691-0.9541,0.5547-1.5771,0.5547
		c-0.7803,0-1.4072-0.2539-1.8818-0.7656c-0.4746-0.5098-0.7119-1.2402-0.7119-2.1934c0-0.6152,0.1016-1.1543,0.3066-1.6172
		c0.2031-0.4609,0.5146-0.8086,0.9316-1.0391s0.8711-0.3457,1.3613-0.3457c0.6191,0,1.126,0.1563,1.5195,0.4688
		c0.3945,0.3145,0.6465,0.7598,0.7578,1.3359l-0.9395,0.1445c-0.0898-0.3828-0.248-0.6719-0.4756-0.8652
		s-0.5029-0.2891-0.8252-0.2891c-0.4863,0-0.8818,0.1738-1.1865,0.5234s-0.4561,0.9004-0.4561,1.6563
		c0,0.7676,0.1465,1.3242,0.4395,1.6699c0.2939,0.3477,0.6777,0.5215,1.1504,0.5215c0.3789,0,0.6963-0.1152,0.9502-0.3496
		C95.2549,70.7651,95.416,70.4077,95.4844,69.9233z"/>
	<path d="M100.9844,71.3101c-0.3584,0.3047-0.7031,0.5195-1.0342,0.6445s-0.6865,0.1875-1.0654,0.1875
		c-0.627,0-1.1084-0.1523-1.4453-0.459s-0.5049-0.6973-0.5049-1.1738c0-0.2793,0.0635-0.5332,0.1904-0.7656
		c0.127-0.2305,0.2939-0.416,0.5-0.5547c0.2061-0.1406,0.4375-0.2461,0.6953-0.3184c0.1895-0.0488,0.4766-0.0977,0.8594-0.1445
		c0.7803-0.0918,1.3555-0.2031,1.7246-0.332c0.0029-0.1328,0.0049-0.2168,0.0049-0.2539c0-0.3926-0.0908-0.6699-0.2744-0.832
		c-0.2461-0.2188-0.6133-0.3281-1.1006-0.3281c-0.4551,0-0.79,0.0801-1.0068,0.2402c-0.2168,0.1582-0.377,0.4414-0.4805,0.8457
		l-0.9453-0.1289c0.0859-0.4043,0.2266-0.7305,0.4238-0.9805c0.1973-0.248,0.4814-0.4395,0.8535-0.5742
		c0.373-0.1348,0.8047-0.2012,1.2949-0.2012c0.4873,0,0.8828,0.0566,1.1875,0.1719c0.3037,0.1133,0.5273,0.2578,0.6709,0.4316
		s0.2432,0.3926,0.3008,0.6582c0.0322,0.1641,0.0479,0.4609,0.0479,0.8906v1.2891c0,0.9004,0.0215,1.4688,0.0625,1.707
		s0.1221,0.4648,0.2441,0.6836h-1.0098C101.0771,71.814,101.0127,71.5776,100.9844,71.3101z M100.9043,69.1499
		c-0.3516,0.1445-0.8779,0.2656-1.5801,0.3652c-0.3965,0.0586-0.6777,0.123-0.8428,0.1934c-0.165,0.0723-0.292,0.1777-0.3818,0.3145
		c-0.0889,0.1387-0.1338,0.291-0.1338,0.459c0,0.2578,0.0977,0.4727,0.293,0.6445s0.4805,0.2578,0.8564,0.2578
		c0.3721,0,0.7031-0.0801,0.9941-0.2441c0.2891-0.1621,0.5029-0.3848,0.6387-0.668c0.1035-0.2188,0.1563-0.541,0.1563-0.9668
		V69.1499z"/>
	<path d="M103.3789,72.0132v-5.7031h0.8711v0.8105c0.418-0.627,1.0234-0.9395,1.8145-0.9395c0.3438,0,0.6602,0.0605,0.9482,0.1855
		c0.2881,0.123,0.5039,0.2852,0.6475,0.4844c0.1436,0.2012,0.2432,0.4395,0.3008,0.7148c0.0361,0.1797,0.0537,0.4922,0.0537,0.9395
		v3.5078h-0.9668v-3.4688c0-0.3945-0.0381-0.6895-0.1123-0.8848c-0.0762-0.1953-0.209-0.3496-0.4004-0.4668
		c-0.1914-0.1152-0.416-0.1738-0.6738-0.1738c-0.4121,0-0.7676,0.1309-1.0664,0.3906c-0.2988,0.2617-0.4492,0.7578-0.4492,1.4883
		v3.1152H103.3789z"/>
	<path d="M109.1367,69.1616c0-1.0566,0.2939-1.8379,0.8809-2.3477c0.4902-0.4219,1.0889-0.6328,1.7939-0.6328
		c0.7842,0,1.4248,0.2559,1.9229,0.7695s0.7461,1.2246,0.7461,2.1309c0,0.7344-0.1094,1.3105-0.3301,1.7324
		c-0.2197,0.4199-0.54,0.7461-0.9609,0.9785c-0.4209,0.2344-0.8799,0.3496-1.3779,0.3496c-0.7988,0-1.4443-0.2559-1.9365-0.7676
		S109.1367,70.1245,109.1367,69.1616z M110.1309,69.1616c0,0.7305,0.1592,1.2773,0.4775,1.6406s0.7197,0.5449,1.2031,0.5449
		c0.4795,0,0.8789-0.1816,1.1982-0.5469c0.3184-0.3652,0.4775-0.9219,0.4775-1.6719c0-0.7051-0.1602-1.2383-0.4805-1.6016
		s-0.7188-0.5469-1.1953-0.5469c-0.4834,0-0.8848,0.1816-1.2031,0.543S110.1309,68.4312,110.1309,69.1616z"/>
	<path d="M118.8105,72.0132v-7.873h3.4902c0.7021,0,1.2363,0.0703,1.6016,0.2109c0.3652,0.1426,0.6563,0.3926,0.875,0.75
		s0.3281,0.7539,0.3281,1.1875c0,0.5586-0.1816,1.0293-0.543,1.4121s-0.9199,0.627-1.6758,0.7305
		c0.2754,0.1328,0.4854,0.2637,0.6289,0.3926c0.3037,0.2793,0.5918,0.627,0.8643,1.0469l1.3701,2.1426h-1.3105l-1.043-1.6387
		c-0.3037-0.4727-0.5547-0.834-0.752-1.084c-0.1963-0.25-0.373-0.4258-0.5283-0.5273c-0.1563-0.0996-0.3145-0.1699-0.4756-0.209
		c-0.1182-0.0254-0.3115-0.0371-0.5801-0.0371h-1.209v3.4961H118.8105z M119.8516,67.6147h2.2402
		c0.4766,0,0.8486-0.0488,1.1172-0.1484c0.2686-0.0977,0.4727-0.2559,0.6123-0.4727s0.21-0.4512,0.21-0.7051
		c0-0.373-0.1357-0.6797-0.4063-0.9199c-0.2705-0.2383-0.6973-0.3594-1.2813-0.3594h-2.4922V67.6147z"/>
	<path d="M130.5186,70.1772l0.999,0.123c-0.1572,0.584-0.4492,1.0371-0.875,1.3594c-0.4268,0.3223-0.9707,0.4824-1.6328,0.4824
		c-0.835,0-1.4961-0.2559-1.9854-0.7695c-0.4883-0.5137-0.7334-1.2344-0.7334-2.1621c0-0.9609,0.248-1.7051,0.7422-2.2344
		c0.4941-0.5313,1.1348-0.7949,1.9219-0.7949c0.7637,0,1.3867,0.2598,1.8691,0.7773c0.4844,0.5195,0.7256,1.25,0.7256,2.1914
		c0,0.0586-0.002,0.1445-0.0049,0.2578h-4.2539c0.0352,0.627,0.2129,1.1074,0.5313,1.4395c0.3184,0.334,0.7158,0.5,1.1924,0.5
		c0.3545,0,0.6572-0.0918,0.9072-0.2793C130.1729,70.8823,130.3721,70.5854,130.5186,70.1772z M127.3438,68.6128h3.1855
		c-0.043-0.4785-0.165-0.8379-0.3652-1.0781c-0.3076-0.373-0.707-0.5586-1.1973-0.5586c-0.4443,0-0.8174,0.1484-1.1201,0.4453
		S127.377,68.1167,127.3438,68.6128z"/>
	<path d="M132.6875,74.2104l-0.1074-0.9082c0.2119,0.0586,0.3965,0.0859,0.5537,0.0859c0.2148,0,0.3867-0.0352,0.5156-0.1074
		c0.1289-0.0703,0.2344-0.1719,0.3174-0.3008c0.0605-0.0957,0.1592-0.3359,0.2949-0.7188c0.0176-0.0547,0.0469-0.1328,0.0859-0.2363
		l-2.1641-5.7148h1.041l1.1875,3.3027c0.1543,0.418,0.292,0.8594,0.4141,1.3203c0.1104-0.4434,0.2432-0.877,0.3965-1.2988
		l1.2197-3.3242h0.9668l-2.1699,5.8008c-0.2324,0.627-0.4131,1.0566-0.542,1.293c-0.1719,0.3203-0.3691,0.5527-0.5918,0.7012
		c-0.2217,0.1484-0.4863,0.2227-0.7949,0.2227C133.125,74.3276,132.917,74.2886,132.6875,74.2104z"/>
	<path d="M142.1357,70.1772l0.999,0.123c-0.1572,0.584-0.4492,1.0371-0.875,1.3594c-0.4268,0.3223-0.9707,0.4824-1.6328,0.4824
		c-0.835,0-1.4961-0.2559-1.9854-0.7695c-0.4883-0.5137-0.7334-1.2344-0.7334-2.1621c0-0.9609,0.248-1.7051,0.7422-2.2344
		c0.4941-0.5313,1.1348-0.7949,1.9219-0.7949c0.7637,0,1.3867,0.2598,1.8691,0.7773c0.4844,0.5195,0.7256,1.25,0.7256,2.1914
		c0,0.0586-0.002,0.1445-0.0049,0.2578h-4.2539c0.0352,0.627,0.2129,1.1074,0.5313,1.4395c0.3184,0.334,0.7158,0.5,1.1924,0.5
		c0.3545,0,0.6572-0.0918,0.9072-0.2793C141.79,70.8823,141.9893,70.5854,142.1357,70.1772z M138.9609,68.6128h3.1855
		c-0.043-0.4785-0.165-0.8379-0.3652-1.0781c-0.3076-0.373-0.707-0.5586-1.1973-0.5586c-0.4443,0-0.8174,0.1484-1.1201,0.4453
		S138.9941,68.1167,138.9609,68.6128z"/>
	<path d="M143.9609,70.3101l0.957-0.1504c0.0527,0.3848,0.2031,0.6777,0.4482,0.8809c0.2451,0.2051,0.5879,0.3066,1.0283,0.3066
		c0.4443,0,0.7734-0.0898,0.9883-0.2715c0.2148-0.1797,0.3223-0.3926,0.3223-0.6367c0-0.2168-0.0947-0.3887-0.2852-0.5156
		c-0.1318-0.0859-0.4609-0.1934-0.9883-0.3262c-0.709-0.1797-1.2002-0.334-1.4736-0.4648c-0.2744-0.1309-0.4814-0.3125-0.623-0.543
		s-0.2119-0.4863-0.2119-0.7656c0-0.2539,0.0576-0.4883,0.1738-0.7051s0.2754-0.3965,0.4756-0.541
		c0.1504-0.1113,0.3555-0.2051,0.6152-0.2813c0.2598-0.0781,0.5381-0.1152,0.835-0.1152c0.4473,0,0.8408,0.0645,1.1787,0.1934
		c0.3389,0.1289,0.5889,0.3027,0.749,0.5234c0.1621,0.2207,0.2725,0.5137,0.334,0.8828l-0.9453,0.1289
		c-0.043-0.293-0.168-0.5215-0.374-0.6875c-0.2061-0.1641-0.4971-0.2461-0.8721-0.2461c-0.4443,0-0.7617,0.0723-0.9512,0.2188
		c-0.1895,0.1484-0.2852,0.3203-0.2852,0.5156c0,0.127,0.04,0.2383,0.1191,0.3398c0.0781,0.1035,0.2021,0.1895,0.3701,0.2578
		c0.0967,0.0352,0.3818,0.1172,0.8545,0.2461c0.6836,0.1836,1.1602,0.332,1.4307,0.4492c0.2705,0.1152,0.4824,0.2852,0.6367,0.5078
		c0.1543,0.2207,0.2314,0.498,0.2314,0.8262c0,0.3223-0.0947,0.627-0.2822,0.9102c-0.1885,0.2852-0.46,0.5059-0.8135,0.6621
		c-0.3555,0.1543-0.7559,0.2324-1.2031,0.2324c-0.7422,0-1.3066-0.1543-1.6953-0.4609
		C144.3164,71.3726,144.0684,70.9155,143.9609,70.3101z"/>
	<path d="M3.0508,96.0132L0,88.1401h1.127l2.0469,5.7188c0.165,0.459,0.3027,0.8887,0.4141,1.2891
		c0.1211-0.4297,0.2627-0.8594,0.4238-1.2891l2.127-5.7188h1.0635l-3.083,7.873H3.0508z"/>
	<path d="M7.8203,89.2515v-1.1113h0.9668v1.1113H7.8203z M7.8203,96.0132v-5.7031h0.9668v5.7031H7.8203z"/>
	<path d="M13.9805,93.9233l0.9512,0.125c-0.1045,0.6543-0.3701,1.168-0.7979,1.5391c-0.4277,0.3691-0.9541,0.5547-1.5771,0.5547
		c-0.7803,0-1.4072-0.2539-1.8818-0.7656c-0.4746-0.5098-0.7119-1.2402-0.7119-2.1934c0-0.6152,0.1016-1.1543,0.3066-1.6172
		c0.2031-0.4609,0.5146-0.8086,0.9316-1.0391s0.8711-0.3457,1.3613-0.3457c0.6191,0,1.126,0.1563,1.5195,0.4688
		c0.3945,0.3145,0.6465,0.7598,0.7578,1.3359l-0.9395,0.1445c-0.0898-0.3828-0.248-0.6719-0.4756-0.8652
		s-0.5029-0.2891-0.8252-0.2891c-0.4863,0-0.8818,0.1738-1.1865,0.5234s-0.4561,0.9004-0.4561,1.6563
		c0,0.7676,0.1465,1.3242,0.4395,1.6699c0.2939,0.3477,0.6777,0.5215,1.1504,0.5215c0.3789,0,0.6963-0.1152,0.9502-0.3496
		C13.751,94.7651,13.9121,94.4077,13.9805,93.9233z"/>
	<path d="M17.8691,95.1479l0.1396,0.8555c-0.2725,0.0566-0.5156,0.0859-0.7305,0.0859c-0.3506,0-0.623-0.0566-0.8164-0.168
		c-0.1934-0.1094-0.3291-0.2559-0.4082-0.4375c-0.0791-0.1797-0.1182-0.5605-0.1182-1.1406V91.062h-0.709v-0.752h0.709V88.896
		l0.9609-0.5801v1.9941h0.9727v0.752h-0.9727v3.334c0,0.2773,0.0176,0.4531,0.0518,0.5332c0.0342,0.0781,0.0889,0.1406,0.166,0.1875
		s0.1875,0.0703,0.3311,0.0703C17.5527,95.187,17.6934,95.1733,17.8691,95.1479z"/>
	<path d="M18.4551,93.1616c0-1.0566,0.2939-1.8379,0.8809-2.3477c0.4902-0.4219,1.0889-0.6328,1.7939-0.6328
		c0.7842,0,1.4248,0.2559,1.9229,0.7695s0.7461,1.2246,0.7461,2.1309c0,0.7344-0.1094,1.3105-0.3301,1.7324
		c-0.2197,0.4199-0.54,0.7461-0.9609,0.9785c-0.4209,0.2344-0.8799,0.3496-1.3779,0.3496c-0.7988,0-1.4443-0.2559-1.9365-0.7676
		S18.4551,94.1245,18.4551,93.1616z M19.4492,93.1616c0,0.7305,0.1592,1.2773,0.4775,1.6406s0.7197,0.5449,1.2031,0.5449
		c0.4795,0,0.8789-0.1816,1.1982-0.5469c0.3184-0.3652,0.4775-0.9219,0.4775-1.6719c0-0.7051-0.1602-1.2383-0.4805-1.6016
		S21.6064,90.98,21.1299,90.98c-0.4834,0-0.8848,0.1816-1.2031,0.543S19.4492,92.4312,19.4492,93.1616z"/>
	<path d="M24.9219,96.0132v-5.7031h0.8691v0.8633c0.2227-0.4043,0.4277-0.6699,0.6152-0.7988
		c0.1885-0.1289,0.3945-0.1934,0.6211-0.1934c0.3252,0,0.6563,0.1035,0.9932,0.3105l-0.333,0.8965
		c-0.2363-0.1387-0.4727-0.209-0.709-0.209c-0.2109,0-0.4014,0.0645-0.5693,0.1914s-0.2881,0.3027-0.3604,0.5293
		c-0.1074,0.3438-0.1602,0.7188-0.1602,1.127v2.9863H24.9219z"/>
	<path d="M31.8066,96.0132v-7.873h1.042v3.2324h4.0928v-3.2324h1.042v7.873h-1.042v-3.7109h-4.0928v3.7109H31.8066z"/>
	<path d="M43.332,96.0132v-0.8379c-0.4434,0.6445-1.0469,0.9668-1.8096,0.9668c-0.3369,0-0.6504-0.0645-0.9424-0.1934
		s-0.5088-0.291-0.6504-0.4863s-0.2402-0.4336-0.2979-0.7168c-0.0391-0.1895-0.0596-0.4902-0.0596-0.9023v-3.5332h0.9668v3.1621
		c0,0.5059,0.0205,0.8457,0.0596,1.0215c0.0605,0.2539,0.1895,0.4531,0.3867,0.5996c0.1973,0.1445,0.4404,0.2168,0.7305,0.2168
		s0.5625-0.0742,0.8164-0.2227s0.4346-0.3516,0.54-0.6074s0.1582-0.627,0.1582-1.1152v-3.0547h0.9668v5.7031H43.332z"/>
	<path d="M45.5342,96.4858l0.9404,0.1406c0.0391,0.2891,0.1484,0.5,0.3271,0.6328c0.2402,0.1797,0.5674,0.2695,0.9834,0.2695
		c0.4473,0,0.793-0.0898,1.0361-0.2695c0.2432-0.1777,0.4082-0.4297,0.4941-0.752c0.0498-0.1973,0.0732-0.6094,0.0693-1.2402
		c-0.4219,0.498-0.9482,0.7461-1.5781,0.7461c-0.7852,0-1.3916-0.2832-1.8213-0.8477c-0.4297-0.5664-0.6445-1.2441-0.6445-2.0371
		c0-0.543,0.0986-1.0449,0.2959-1.5059c0.1963-0.459,0.4824-0.8145,0.8564-1.0664c0.374-0.25,0.8135-0.375,1.3184-0.375
		c0.6729,0,1.2285,0.2715,1.665,0.8164v-0.6875h0.8916v4.9297c0,0.8887-0.0908,1.5176-0.2715,1.8887s-0.4668,0.6621-0.8594,0.877
		c-0.3916,0.2148-0.874,0.3223-1.4473,0.3223c-0.6807,0-1.2295-0.1523-1.6494-0.459C45.7227,97.564,45.5195,97.103,45.5342,96.4858z
		 M46.334,93.0601c0,0.748,0.1494,1.293,0.4463,1.6367s0.6699,0.5156,1.1172,0.5156c0.4443,0,0.8164-0.1699,1.1172-0.5117
		s0.4512-0.8789,0.4512-1.6094c0-0.6973-0.1553-1.2246-0.4648-1.5781c-0.3096-0.3555-0.6826-0.5332-1.1201-0.5332
		c-0.4297,0-0.7949,0.1758-1.0957,0.5254C46.4844,91.853,46.334,92.3726,46.334,93.0601z"/>
	<path d="M51.4688,93.1616c0-1.0566,0.2939-1.8379,0.8809-2.3477c0.4902-0.4219,1.0889-0.6328,1.7939-0.6328
		c0.7842,0,1.4248,0.2559,1.9229,0.7695s0.7461,1.2246,0.7461,2.1309c0,0.7344-0.1094,1.3105-0.3301,1.7324
		c-0.2197,0.4199-0.54,0.7461-0.9609,0.9785c-0.4209,0.2344-0.8799,0.3496-1.3779,0.3496c-0.7988,0-1.4443-0.2559-1.9365-0.7676
		S51.4688,94.1245,51.4688,93.1616z M52.4629,93.1616c0,0.7305,0.1592,1.2773,0.4775,1.6406s0.7197,0.5449,1.2031,0.5449
		c0.4795,0,0.8789-0.1816,1.1982-0.5469c0.3184-0.3652,0.4775-0.9219,0.4775-1.6719c0-0.7051-0.1602-1.2383-0.4805-1.6016
		S54.6201,90.98,54.1436,90.98c-0.4834,0-0.8848,0.1816-1.2031,0.543S52.4629,92.4312,52.4629,93.1616z"/>
	<path d="M62.9307,96.0132v-6.9453h-2.5938v-0.9277h6.2412v0.9277h-2.6045v6.9453H62.9307z"/>
	<path d="M70.0254,95.3101c-0.3584,0.3047-0.7031,0.5195-1.0342,0.6445s-0.6865,0.1875-1.0654,0.1875
		c-0.627,0-1.1084-0.1523-1.4453-0.459s-0.5049-0.6973-0.5049-1.1738c0-0.2793,0.0635-0.5332,0.1904-0.7656
		c0.127-0.2305,0.2939-0.416,0.5-0.5547c0.2061-0.1406,0.4375-0.2461,0.6953-0.3184c0.1895-0.0488,0.4766-0.0977,0.8594-0.1445
		c0.7803-0.0918,1.3555-0.2031,1.7246-0.332c0.0029-0.1328,0.0049-0.2168,0.0049-0.2539c0-0.3926-0.0908-0.6699-0.2744-0.832
		c-0.2461-0.2188-0.6133-0.3281-1.1006-0.3281c-0.4551,0-0.79,0.0801-1.0068,0.2402c-0.2168,0.1582-0.377,0.4414-0.4805,0.8457
		l-0.9453-0.1289c0.0859-0.4043,0.2266-0.7305,0.4238-0.9805c0.1973-0.248,0.4814-0.4395,0.8535-0.5742
		c0.373-0.1348,0.8047-0.2012,1.2949-0.2012c0.4873,0,0.8828,0.0566,1.1875,0.1719c0.3037,0.1133,0.5273,0.2578,0.6709,0.4316
		s0.2432,0.3926,0.3008,0.6582c0.0322,0.1641,0.0479,0.4609,0.0479,0.8906v1.2891c0,0.9004,0.0215,1.4688,0.0625,1.707
		s0.1221,0.4648,0.2441,0.6836h-1.0098C70.1182,95.814,70.0537,95.5776,70.0254,95.3101z M69.9453,93.1499
		c-0.3516,0.1445-0.8779,0.2656-1.5801,0.3652c-0.3965,0.0586-0.6777,0.123-0.8428,0.1934c-0.165,0.0723-0.292,0.1777-0.3818,0.3145
		c-0.0889,0.1387-0.1338,0.291-0.1338,0.459c0,0.2578,0.0977,0.4727,0.293,0.6445s0.4805,0.2578,0.8564,0.2578
		c0.3721,0,0.7031-0.0801,0.9941-0.2441c0.2891-0.1621,0.5029-0.3848,0.6387-0.668c0.1035-0.2188,0.1563-0.541,0.1563-0.9668
		V93.1499z"/>
	<path d="M73.3125,96.0132H72.415v-7.873h0.9668v2.8086c0.4082-0.5117,0.9287-0.7676,1.5635-0.7676
		c0.3506,0,0.6826,0.0703,0.9961,0.2109c0.3135,0.1426,0.5713,0.3418,0.7734,0.5977s0.3604,0.5645,0.4746,0.9258
		c0.1152,0.3613,0.1719,0.748,0.1719,1.1602c0,0.9766-0.2412,1.7324-0.7246,2.2656c-0.4834,0.5352-1.0635,0.8008-1.7402,0.8008
		c-0.6729,0-1.2012-0.2813-1.584-0.8438V96.0132z M73.3008,93.1187c0,0.6836,0.0938,1.1777,0.2793,1.4824
		c0.3047,0.498,0.7168,0.7461,1.2363,0.7461c0.4219,0,0.7871-0.1836,1.0957-0.5508c0.3076-0.3672,0.4609-0.9141,0.4609-1.6406
		c0-0.7441-0.1475-1.2949-0.4424-1.6484c-0.2959-0.3555-0.6533-0.5313-1.0713-0.5313c-0.4229,0-0.7881,0.1836-1.0957,0.5508
		C73.4551,91.894,73.3008,92.4233,73.3008,93.1187z"/>
	<path d="M82.2598,95.3101c-0.3584,0.3047-0.7031,0.5195-1.0342,0.6445s-0.6865,0.1875-1.0654,0.1875
		c-0.627,0-1.1084-0.1523-1.4453-0.459S78.21,94.9858,78.21,94.5093c0-0.2793,0.0635-0.5332,0.1904-0.7656
		c0.127-0.2305,0.2939-0.416,0.5-0.5547c0.2061-0.1406,0.4375-0.2461,0.6953-0.3184c0.1895-0.0488,0.4766-0.0977,0.8594-0.1445
		c0.7803-0.0918,1.3555-0.2031,1.7246-0.332c0.0029-0.1328,0.0049-0.2168,0.0049-0.2539c0-0.3926-0.0908-0.6699-0.2744-0.832
		c-0.2461-0.2188-0.6133-0.3281-1.1006-0.3281c-0.4551,0-0.79,0.0801-1.0068,0.2402c-0.2168,0.1582-0.377,0.4414-0.4805,0.8457
		L78.377,91.937c0.0859-0.4043,0.2266-0.7305,0.4238-0.9805c0.1973-0.248,0.4814-0.4395,0.8535-0.5742
		c0.373-0.1348,0.8047-0.2012,1.2949-0.2012c0.4873,0,0.8828,0.0566,1.1875,0.1719c0.3037,0.1133,0.5273,0.2578,0.6709,0.4316
		s0.2432,0.3926,0.3008,0.6582c0.0322,0.1641,0.0479,0.4609,0.0479,0.8906v1.2891c0,0.9004,0.0215,1.4688,0.0625,1.707
		s0.1221,0.4648,0.2441,0.6836h-1.0098C82.3525,95.814,82.2881,95.5776,82.2598,95.3101z M82.1797,93.1499
		c-0.3516,0.1445-0.8779,0.2656-1.5801,0.3652c-0.3965,0.0586-0.6777,0.123-0.8428,0.1934c-0.165,0.0723-0.292,0.1777-0.3818,0.3145
		c-0.0889,0.1387-0.1338,0.291-0.1338,0.459c0,0.2578,0.0977,0.4727,0.293,0.6445s0.4805,0.2578,0.8564,0.2578
		c0.3721,0,0.7031-0.0801,0.9941-0.2441c0.2891-0.1621,0.5029-0.3848,0.6387-0.668c0.1035-0.2188,0.1563-0.541,0.1563-0.9668
		V93.1499z"/>
	<path d="M84.6445,96.0132v-5.7031h0.8691v0.8633c0.2227-0.4043,0.4277-0.6699,0.6152-0.7988
		c0.1885-0.1289,0.3945-0.1934,0.6211-0.1934c0.3252,0,0.6563,0.1035,0.9932,0.3105l-0.333,0.8965
		c-0.2363-0.1387-0.4727-0.209-0.709-0.209c-0.2109,0-0.4014,0.0645-0.5693,0.1914s-0.2881,0.3027-0.3604,0.5293
		c-0.1074,0.3438-0.1602,0.7188-0.1602,1.127v2.9863H84.6445z"/>
	<path d="M92.2236,94.1772l0.999,0.123c-0.1572,0.584-0.4492,1.0371-0.875,1.3594c-0.4268,0.3223-0.9707,0.4824-1.6328,0.4824
		c-0.835,0-1.4961-0.2559-1.9854-0.7695c-0.4883-0.5137-0.7334-1.2344-0.7334-2.1621c0-0.9609,0.248-1.7051,0.7422-2.2344
		c0.4941-0.5313,1.1348-0.7949,1.9219-0.7949c0.7637,0,1.3867,0.2598,1.8691,0.7773c0.4844,0.5195,0.7256,1.25,0.7256,2.1914
		c0,0.0586-0.002,0.1445-0.0049,0.2578h-4.2539c0.0352,0.627,0.2129,1.1074,0.5313,1.4395c0.3184,0.334,0.7158,0.5,1.1924,0.5
		c0.3545,0,0.6572-0.0918,0.9072-0.2793C91.8779,94.8823,92.0771,94.5854,92.2236,94.1772z M89.0488,92.6128h3.1855
		c-0.043-0.4785-0.165-0.8379-0.3652-1.0781c-0.3076-0.373-0.707-0.5586-1.1973-0.5586c-0.4443,0-0.8174,0.1484-1.1201,0.4453
		S89.082,92.1167,89.0488,92.6128z"/>
	<path d="M94.0488,94.3101l0.957-0.1504c0.0527,0.3848,0.2031,0.6777,0.4482,0.8809c0.2451,0.2051,0.5879,0.3066,1.0283,0.3066
		c0.4443,0,0.7734-0.0898,0.9883-0.2715c0.2148-0.1797,0.3223-0.3926,0.3223-0.6367c0-0.2168-0.0947-0.3887-0.2852-0.5156
		c-0.1318-0.0859-0.4609-0.1934-0.9883-0.3262c-0.709-0.1797-1.2002-0.334-1.4736-0.4648c-0.2744-0.1309-0.4814-0.3125-0.623-0.543
		s-0.2119-0.4863-0.2119-0.7656c0-0.2539,0.0576-0.4883,0.1738-0.7051s0.2754-0.3965,0.4756-0.541
		c0.1504-0.1113,0.3555-0.2051,0.6152-0.2813c0.2598-0.0781,0.5381-0.1152,0.835-0.1152c0.4473,0,0.8408,0.0645,1.1787,0.1934
		c0.3389,0.1289,0.5889,0.3027,0.749,0.5234c0.1621,0.2207,0.2725,0.5137,0.334,0.8828l-0.9453,0.1289
		c-0.043-0.293-0.168-0.5215-0.374-0.6875c-0.2061-0.1641-0.4971-0.2461-0.8721-0.2461c-0.4443,0-0.7617,0.0723-0.9512,0.2188
		c-0.1895,0.1484-0.2852,0.3203-0.2852,0.5156c0,0.127,0.04,0.2383,0.1191,0.3398c0.0781,0.1035,0.2021,0.1895,0.3701,0.2578
		c0.0967,0.0352,0.3818,0.1172,0.8545,0.2461c0.6836,0.1836,1.1602,0.332,1.4307,0.4492c0.2705,0.1152,0.4824,0.2852,0.6367,0.5078
		c0.1543,0.2207,0.2314,0.498,0.2314,0.8262c0,0.3223-0.0947,0.627-0.2822,0.9102c-0.1885,0.2852-0.46,0.5059-0.8135,0.6621
		c-0.3555,0.1543-0.7559,0.2324-1.2031,0.2324c-0.7422,0-1.3066-0.1543-1.6953-0.4609
		C94.4043,95.3726,94.1563,94.9155,94.0488,94.3101z"/>
	<path d="M108.7344,93.2534l1.042,0.2617c-0.2188,0.8574-0.6113,1.5098-1.1787,1.959s-1.2617,0.6738-2.082,0.6738
		c-0.8477,0-1.5381-0.1719-2.0703-0.5176c-0.5313-0.3457-0.9365-0.8477-1.2139-1.502c-0.2773-0.6563-0.416-1.3594-0.416-2.1113
		c0-0.8203,0.1563-1.5352,0.4697-2.1445c0.3135-0.6113,0.7598-1.0742,1.3379-1.3926c0.5781-0.3164,1.2148-0.4746,1.9092-0.4746
		c0.7881,0,1.4502,0.2012,1.9873,0.6016s0.9111,0.9648,1.123,1.6914l-1.0264,0.2422c-0.1826-0.5723-0.4473-0.9902-0.7949-1.252
		s-0.7842-0.3926-1.3105-0.3926c-0.6055,0-1.1113,0.1465-1.5176,0.4355c-0.4063,0.291-0.6914,0.6797-0.8564,1.168
		c-0.165,0.4902-0.2471,0.9941-0.2471,1.5117c0,0.6699,0.0977,1.2559,0.293,1.7539c0.1953,0.5,0.498,0.873,0.9102,1.1211
		c0.4121,0.2461,0.8574,0.3691,1.3369,0.3691c0.584,0,1.0781-0.168,1.4824-0.5039
		C108.3174,94.4155,108.5908,93.9155,108.7344,93.2534z"/>
	<path d="M114.6582,95.3101c-0.3584,0.3047-0.7031,0.5195-1.0342,0.6445s-0.6865,0.1875-1.0654,0.1875
		c-0.627,0-1.1084-0.1523-1.4453-0.459s-0.5049-0.6973-0.5049-1.1738c0-0.2793,0.0635-0.5332,0.1904-0.7656
		c0.127-0.2305,0.2939-0.416,0.5-0.5547c0.2061-0.1406,0.4375-0.2461,0.6953-0.3184c0.1895-0.0488,0.4766-0.0977,0.8594-0.1445
		c0.7803-0.0918,1.3555-0.2031,1.7246-0.332c0.0029-0.1328,0.0049-0.2168,0.0049-0.2539c0-0.3926-0.0908-0.6699-0.2744-0.832
		c-0.2461-0.2188-0.6133-0.3281-1.1006-0.3281c-0.4551,0-0.79,0.0801-1.0068,0.2402c-0.2168,0.1582-0.377,0.4414-0.4805,0.8457
		l-0.9453-0.1289c0.0859-0.4043,0.2266-0.7305,0.4238-0.9805c0.1973-0.248,0.4814-0.4395,0.8535-0.5742
		c0.373-0.1348,0.8047-0.2012,1.2949-0.2012c0.4873,0,0.8828,0.0566,1.1875,0.1719c0.3037,0.1133,0.5273,0.2578,0.6709,0.4316
		s0.2432,0.3926,0.3008,0.6582c0.0322,0.1641,0.0479,0.4609,0.0479,0.8906v1.2891c0,0.9004,0.0215,1.4688,0.0625,1.707
		s0.1221,0.4648,0.2441,0.6836h-1.0098C114.751,95.814,114.6865,95.5776,114.6582,95.3101z M114.5781,93.1499
		c-0.3516,0.1445-0.8779,0.2656-1.5801,0.3652c-0.3965,0.0586-0.6777,0.123-0.8428,0.1934c-0.165,0.0723-0.292,0.1777-0.3818,0.3145
		c-0.0889,0.1387-0.1338,0.291-0.1338,0.459c0,0.2578,0.0977,0.4727,0.293,0.6445s0.4805,0.2578,0.8564,0.2578
		c0.3721,0,0.7031-0.0801,0.9941-0.2441c0.2891-0.1621,0.5029-0.3848,0.6387-0.668c0.1035-0.2188,0.1563-0.541,0.1563-0.9668
		V93.1499z"/>
	<path d="M117.043,96.0132v-5.7031h0.8691v0.8633c0.2227-0.4043,0.4277-0.6699,0.6152-0.7988
		c0.1885-0.1289,0.3945-0.1934,0.6211-0.1934c0.3252,0,0.6563,0.1035,0.9932,0.3105l-0.333,0.8965
		c-0.2363-0.1387-0.4727-0.209-0.709-0.209c-0.2109,0-0.4014,0.0645-0.5693,0.1914s-0.2881,0.3027-0.3604,0.5293
		c-0.1074,0.3438-0.1602,0.7188-0.1602,1.127v2.9863H117.043z"/>
	<path d="M120.707,96.0132v-5.7031h0.8691v0.8633c0.2227-0.4043,0.4277-0.6699,0.6152-0.7988
		c0.1885-0.1289,0.3945-0.1934,0.6211-0.1934c0.3252,0,0.6563,0.1035,0.9932,0.3105l-0.333,0.8965
		c-0.2363-0.1387-0.4727-0.209-0.709-0.209c-0.2109,0-0.4014,0.0645-0.5693,0.1914s-0.2881,0.3027-0.3604,0.5293
		c-0.1074,0.3438-0.1602,0.7188-0.1602,1.127v2.9863H120.707z"/>
	<path d="M128.2842,94.1772l0.999,0.123c-0.1572,0.584-0.4492,1.0371-0.875,1.3594c-0.4268,0.3223-0.9707,0.4824-1.6328,0.4824
		c-0.835,0-1.4961-0.2559-1.9854-0.7695c-0.4883-0.5137-0.7334-1.2344-0.7334-2.1621c0-0.9609,0.248-1.7051,0.7422-2.2344
		c0.4941-0.5313,1.1348-0.7949,1.9219-0.7949c0.7637,0,1.3867,0.2598,1.8691,0.7773c0.4844,0.5195,0.7256,1.25,0.7256,2.1914
		c0,0.0586-0.002,0.1445-0.0049,0.2578h-4.2539c0.0352,0.627,0.2129,1.1074,0.5313,1.4395c0.3184,0.334,0.7158,0.5,1.1924,0.5
		c0.3545,0,0.6572-0.0918,0.9072-0.2793C127.9385,94.8823,128.1377,94.5854,128.2842,94.1772z M125.1094,92.6128h3.1855
		c-0.043-0.4785-0.165-0.8379-0.3652-1.0781c-0.3076-0.373-0.707-0.5586-1.1973-0.5586c-0.4443,0-0.8174,0.1484-1.1201,0.4453
		S125.1426,92.1167,125.1094,92.6128z"/>
	<path d="M130.4961,96.0132v-5.7031h0.8711v0.8105c0.418-0.627,1.0234-0.9395,1.8145-0.9395c0.3438,0,0.6602,0.0605,0.9482,0.1855
		c0.2881,0.123,0.5039,0.2852,0.6475,0.4844c0.1436,0.2012,0.2432,0.4395,0.3008,0.7148c0.0361,0.1797,0.0537,0.4922,0.0537,0.9395
		v3.5078h-0.9668v-3.4688c0-0.3945-0.0381-0.6895-0.1123-0.8848c-0.0762-0.1953-0.209-0.3496-0.4004-0.4668
		c-0.1914-0.1152-0.416-0.1738-0.6738-0.1738c-0.4121,0-0.7676,0.1309-1.0664,0.3906c-0.2988,0.2617-0.4492,0.7578-0.4492,1.4883
		v3.1152H130.4961z M131.1787,89.4663c-0.0039-0.373,0.0986-0.6699,0.3057-0.8926c0.2051-0.2207,0.4658-0.332,0.7852-0.332
		c0.2217,0,0.5244,0.0957,0.9072,0.2891c0.2109,0.1074,0.3799,0.1621,0.5049,0.1621c0.1143,0,0.2021-0.0313,0.2637-0.0938
		c0.0605-0.0625,0.1035-0.1875,0.1289-0.373h0.6973c-0.0098,0.4082-0.1133,0.7129-0.3086,0.918
		c-0.1953,0.2031-0.4434,0.3066-0.7441,0.3066c-0.2246,0-0.5225-0.1016-0.8906-0.3008c-0.2402-0.1289-0.416-0.1934-0.5273-0.1934
		c-0.1211,0-0.2197,0.043-0.2949,0.1289c-0.0791,0.0859-0.1162,0.2129-0.1133,0.3809H131.1787z"/>
	<path d="M136.2539,93.1616c0-1.0566,0.2939-1.8379,0.8809-2.3477c0.4902-0.4219,1.0889-0.6328,1.7939-0.6328
		c0.7842,0,1.4248,0.2559,1.9229,0.7695s0.7461,1.2246,0.7461,2.1309c0,0.7344-0.1094,1.3105-0.3301,1.7324
		c-0.2197,0.4199-0.54,0.7461-0.9609,0.9785c-0.4209,0.2344-0.8799,0.3496-1.3779,0.3496c-0.7988,0-1.4443-0.2559-1.9365-0.7676
		S136.2539,94.1245,136.2539,93.1616z M137.248,93.1616c0,0.7305,0.1592,1.2773,0.4775,1.6406s0.7197,0.5449,1.2031,0.5449
		c0.4795,0,0.8789-0.1816,1.1982-0.5469c0.3184-0.3652,0.4775-0.9219,0.4775-1.6719c0-0.7051-0.1602-1.2383-0.4805-1.6016
		s-0.7188-0.5469-1.1953-0.5469c-0.4834,0-0.8848,0.1816-1.2031,0.543S137.248,92.4312,137.248,93.1616z"/>
</g>
</svg>
