<?xml version="1.0" encoding="utf-8"?>
<!-- Generator: Adobe Illustrator 21.0.0, SVG Export Plug-In . SVG Version: 6.00 Build 0)  -->
<svg version="1.1" id="Capa_1" xmlns="http://www.w3.org/2000/svg" xmlns:xlink="http://www.w3.org/1999/xlink" x="0px" y="0px"
	 viewBox="0 0 290.917 52.0458" style="enable-background:new 0 0 290.917 52.0458;" xml:space="preserve">
<g>
	<g>
		<path d="M35.9884,18.4424c-0.2686,0.625-0.6372,1.1719-1.106,1.6406s-1.0156,0.8369-1.6406,1.1055s-1.2939,0.4033-2.0068,0.4033
			h-1.4941c-0.7129,0-1.3843-0.1348-2.0142-0.4033s-1.1792-0.6367-1.6479-1.1055s-0.8374-1.0156-1.106-1.6406
			s-0.4028-1.2939-0.4028-2.0068V5.1563c0-0.7129,0.1343-1.3818,0.4028-2.0068s0.6372-1.1719,1.106-1.6406
			s1.0181-0.8374,1.6479-1.106S29.0279,0,29.7408,0h1.4941c0.7129,0,1.3818,0.1343,2.0068,0.4028s1.1719,0.6372,1.6406,1.106
			s0.8374,1.0156,1.106,1.6406s0.4028,1.2939,0.4028,2.0068v0.8496l-1.8896,0.293V5.1563c0-0.4688-0.0879-0.9058-0.2637-1.311
			s-0.415-0.7593-0.7178-1.062s-0.6567-0.542-1.062-0.7178s-0.8423-0.2637-1.311-0.2637h-1.3184
			c-0.4688,0-0.9058,0.0879-1.311,0.2637s-0.7617,0.415-1.0693,0.7178s-0.5493,0.6567-0.7251,1.062s-0.2637,0.8423-0.2637,1.311
			v11.2793c0,0.4688,0.0879,0.9053,0.2637,1.3105s0.4175,0.7617,0.7251,1.0693s0.6641,0.5498,1.0693,0.7256
			s0.8423,0.2637,1.311,0.2637h1.3184c0.4688,0,0.9058-0.0879,1.311-0.2637s0.7593-0.418,1.062-0.7256s0.542-0.6641,0.7178-1.0693
			s0.2637-0.8418,0.2637-1.3105V15.293l1.8896,0.3076v0.835C36.3912,17.1484,36.257,17.8174,35.9884,18.4424z"/>
		<path d="M49.67,18.8965c-0.2295,0.5371-0.5444,1.0059-0.9448,1.4063s-0.8691,0.7148-1.4063,0.9443s-1.1084,0.3447-1.7139,0.3447
			h-1.2012c-0.6055,0-1.1768-0.1152-1.7139-0.3447s-1.0059-0.5439-1.4063-0.9443s-0.7153-0.8691-0.9448-1.4063
			s-0.3442-1.1084-0.3442-1.7139V10.415c0-0.6055,0.1147-1.1768,0.3442-1.7139s0.5444-1.0059,0.9448-1.4063
			s0.8691-0.7153,1.4063-0.9448s1.1084-0.3442,1.7139-0.3442h1.2012c0.6055,0,1.1768,0.1147,1.7139,0.3442
			s1.0059,0.5444,1.4063,0.9448s0.7153,0.8691,0.9448,1.4063s0.3442,1.1084,0.3442,1.7139v3.5303h-8.2178v3.3398
			c0,0.3613,0.0684,0.7002,0.2051,1.0176s0.3223,0.5938,0.5566,0.8281s0.5103,0.4199,0.8276,0.5566s0.6567,0.2051,1.0181,0.2051
			h1.2012c0.3613,0,0.7007-0.0684,1.0181-0.2051s0.5933-0.3223,0.8276-0.5566s0.4199-0.5107,0.5566-0.8281
			s0.2051-0.6563,0.2051-1.0176v-0.9961l1.8018,0.293v0.6006C50.0143,17.7881,49.8995,18.3594,49.67,18.8965z M48.2125,10.3125
			c0-0.3613-0.0684-0.7007-0.2051-1.0181s-0.3223-0.5933-0.5566-0.8276s-0.5103-0.4199-0.8276-0.5566s-0.6567-0.2051-1.0181-0.2051
			h-1.2012c-0.3613,0-0.7007,0.0684-1.0181,0.2051s-0.5933,0.3223-0.8276,0.5566s-0.4199,0.5103-0.5566,0.8276
			s-0.2051,0.6567-0.2051,1.0181v2.2266h6.416V10.3125z"/>
		<path d="M58.027,8.0127c-0.3613,0-0.7007,0.0684-1.0181,0.2051S56.4156,8.54,56.1813,8.7744s-0.4199,0.5103-0.5566,0.8276
			s-0.2051,0.6567-0.2051,1.0181v10.6787h-1.8018v-15h0.6006l0.9814,1.5234c0.4102-0.5566,0.9253-0.9985,1.5454-1.3257
			s1.2964-0.4907,2.0288-0.4907h1.0547v2.0068H58.027z"/>
		<path d="M67.6949,21.2988c-0.5469,0-1.062-0.1025-1.5454-0.3076s-0.9033-0.4883-1.2598-0.8496s-0.6396-0.7813-0.8496-1.2598
			c-0.21-0.4785-0.3149-0.9912-0.3149-1.5381V8.0127h-2.6953V6.2988h2.6953V2.6953l1.8018-0.293v3.8965h3.8086v1.7139H65.527v9.4189
			c0,0.3027,0.0562,0.583,0.1685,0.8418s0.2661,0.4863,0.4614,0.6816s0.4248,0.3486,0.6885,0.4609s0.5469,0.1689,0.8496,0.1689
			h1.6406v1.7139H67.6949z"/>
		<path d="M73.1002,2.6953V0.293h2.0947v2.4023H73.1002z M73.2467,21.2988v-15h1.8018v15H73.2467z"/>
		<path d="M84.4088,2.0068c-0.3027,0-0.5835,0.0562-0.8423,0.1685s-0.4858,0.2661-0.6812,0.4614s-0.3491,0.4248-0.4614,0.6885
			s-0.1685,0.5469-0.1685,0.8496v2.124h3.501v1.7139h-3.501v13.2861h-1.8018V8.0127h-2.71V6.2988h2.71V4.2627
			c0-0.5469,0.1025-1.062,0.3076-1.5454s0.4883-0.9058,0.8496-1.2671s0.7813-0.6445,1.2598-0.8496s0.9912-0.3076,1.5381-0.3076
			h1.6553v1.7139H84.4088z"/>
		<path d="M88.3199,2.6953V0.293h2.0947v2.4023H88.3199z M88.4664,21.2988v-15h1.8018v15H88.4664z"/>
		<path d="M104.1476,18.8965c-0.2295,0.5371-0.5444,1.0059-0.9448,1.4063s-0.8691,0.7148-1.4063,0.9443
			s-1.1084,0.3447-1.7139,0.3447h-1.2012c-0.6055,0-1.1768-0.1152-1.7139-0.3447s-1.0059-0.5439-1.4063-0.9443
			s-0.7153-0.8691-0.9448-1.4063s-0.3442-1.1084-0.3442-1.7139V10.415c0-0.6055,0.1147-1.1768,0.3442-1.7139
			s0.5444-1.0059,0.9448-1.4063s0.8691-0.7153,1.4063-0.9448s1.1084-0.3442,1.7139-0.3442h1.2012
			c0.6055,0,1.1768,0.1147,1.7139,0.3442s1.0059,0.5444,1.4063,0.9448s0.7153,0.8691,0.9448,1.4063s0.3442,1.1084,0.3442,1.7139
			v0.6006l-1.8018,0.293v-0.9961c0-0.3613-0.0684-0.7007-0.2051-1.0181s-0.3223-0.5933-0.5566-0.8276s-0.5103-0.4199-0.8276-0.5566
			s-0.6567-0.2051-1.0181-0.2051h-1.2012c-0.3613,0-0.7007,0.0684-1.0181,0.2051s-0.5933,0.3223-0.8276,0.5566
			s-0.4199,0.5103-0.5566,0.8276s-0.2051,0.6567-0.2051,1.0181v6.9727c0,0.3613,0.0684,0.7002,0.2051,1.0176
			s0.3223,0.5938,0.5566,0.8281s0.5103,0.4199,0.8276,0.5566s0.6567,0.2051,1.0181,0.2051h1.2012
			c0.3613,0,0.7007-0.0684,1.0181-0.2051s0.5933-0.3223,0.8276-0.5566s0.4199-0.5107,0.5566-0.8281s0.2051-0.6563,0.2051-1.0176
			v-0.9961l1.8018,0.293v0.6006C104.4918,17.7881,104.3771,18.3594,104.1476,18.8965z"/>
		<path d="M117.5143,21.2988l-0.9961-1.4941c-0.4102,0.5371-0.9229,0.9688-1.5381,1.2959s-1.2891,0.4912-2.0215,0.4912h-0.4541
			c-0.6055,0-1.1768-0.1152-1.7139-0.3447s-1.0059-0.5439-1.4063-0.9443s-0.7153-0.8691-0.9448-1.4063s-0.3442-1.1084-0.3442-1.7139
			v-0.1465c0-0.6055,0.1147-1.1768,0.3442-1.7139s0.5444-1.0059,0.9448-1.4063s0.8691-0.7158,1.4063-0.9453
			s1.1084-0.3438,1.7139-0.3438h3.8086v-2.3145c0-0.3613-0.0684-0.7007-0.2051-1.0181s-0.3223-0.5933-0.5566-0.8276
			s-0.5103-0.4199-0.8276-0.5566s-0.6567-0.2051-1.0181-0.2051h-1.0547c-0.3613,0-0.7007,0.0684-1.0181,0.2051
			s-0.5933,0.3223-0.8276,0.5566s-0.4199,0.5103-0.5566,0.8276s-0.2051,0.6567-0.2051,1.0181v0.542l-1.8018-0.293V10.415
			c0-0.6055,0.1147-1.1768,0.3442-1.7139s0.5444-1.0059,0.9448-1.4063s0.8691-0.7153,1.4063-0.9448s1.1084-0.3442,1.7139-0.3442
			h1.0547c0.6055,0,1.1768,0.1147,1.7139,0.3442s1.0059,0.5444,1.4063,0.9448s0.7153,0.8691,0.9448,1.4063
			s0.3442,1.1084,0.3442,1.7139v10.8838H117.5143z M116.3131,14.0332h-3.8086c-0.3613,0-0.7007,0.0684-1.0181,0.2051
			s-0.5933,0.3242-0.8276,0.5635s-0.4199,0.5176-0.5566,0.835s-0.2051,0.6572-0.2051,1.0186v0.6299
			c0,0.3613,0.0684,0.7002,0.2051,1.0176s0.3223,0.5938,0.5566,0.8281s0.5103,0.4199,0.8276,0.5566s0.6567,0.2051,1.0181,0.2051
			h1.2012c0.3613,0,0.7007-0.0684,1.0181-0.2051s0.5933-0.3223,0.8276-0.5566s0.4199-0.5107,0.5566-0.8281
			s0.2051-0.6563,0.2051-1.0176V14.0332z"/>
		<path d="M131.3937,18.8965c-0.2295,0.5371-0.5449,1.0059-0.9453,1.4063s-0.8691,0.7148-1.4063,0.9443
			s-1.1084,0.3447-1.7139,0.3447h-1.2012c-0.6055,0-1.1763-0.1152-1.7134-0.3447s-1.0059-0.5439-1.4063-0.9443
			s-0.7153-0.8691-0.9448-1.4063s-0.3442-1.1084-0.3442-1.7139V10.415c0-0.6055,0.1147-1.1768,0.3442-1.7139
			s0.5444-1.0059,0.9448-1.4063s0.8691-0.7153,1.4063-0.9448s1.1079-0.3442,1.7134-0.3442h1.2012
			c0.6055,0,1.1768,0.1147,1.7139,0.3442s1.0059,0.5444,1.4063,0.9448s0.7158,0.8691,0.9453,1.4063s0.3438,1.1084,0.3438,1.7139
			v0.6006l-1.8018,0.293v-0.9961c0-0.3613-0.0684-0.7007-0.2051-1.0181s-0.3223-0.5933-0.5566-0.8276s-0.5098-0.4199-0.8271-0.5566
			s-0.6572-0.2051-1.0186-0.2051h-1.2012c-0.3613,0-0.7002,0.0684-1.0176,0.2051s-0.5933,0.3223-0.8276,0.5566
			s-0.4199,0.5103-0.5566,0.8276s-0.2051,0.6567-0.2051,1.0181v6.9727c0,0.3613,0.0684,0.7002,0.2051,1.0176
			s0.3223,0.5938,0.5566,0.8281s0.5103,0.4199,0.8276,0.5566s0.6563,0.2051,1.0176,0.2051h1.2012
			c0.3613,0,0.7012-0.0684,1.0186-0.2051s0.5928-0.3223,0.8271-0.5566s0.4199-0.5107,0.5566-0.8281s0.2051-0.6563,0.2051-1.0176
			v-0.9961l1.8018,0.293v0.6006C131.7374,17.7881,131.6232,18.3594,131.3937,18.8965z"/>
		<path d="M135.795,2.6953V0.293h2.0947v2.4023H135.795z M135.9415,21.2988v-15h1.8018v15H135.9415z"/>
		<path d="M151.6232,18.8965c-0.2295,0.5371-0.5449,1.0059-0.9453,1.4063s-0.8691,0.7148-1.4063,0.9443
			s-1.1084,0.3447-1.7139,0.3447h-1.2012c-0.6055,0-1.1768-0.1152-1.7139-0.3447s-1.0059-0.5439-1.4063-0.9443
			s-0.7148-0.8691-0.9443-1.4063s-0.3447-1.1084-0.3447-1.7139V10.415c0-0.6055,0.1152-1.1768,0.3447-1.7139
			s0.5439-1.0059,0.9443-1.4063s0.8691-0.7153,1.4063-0.9448s1.1084-0.3442,1.7139-0.3442h1.2012
			c0.6055,0,1.1768,0.1147,1.7139,0.3442s1.0059,0.5444,1.4063,0.9448s0.7158,0.8691,0.9453,1.4063s0.3438,1.1084,0.3438,1.7139
			v6.7676C151.9669,17.7881,151.8527,18.3594,151.6232,18.8965z M150.1652,10.3125c0-0.3613-0.0684-0.7007-0.2051-1.0181
			s-0.3223-0.5933-0.5566-0.8276s-0.5098-0.4199-0.8271-0.5566s-0.6572-0.2051-1.0186-0.2051h-1.2012
			c-0.3613,0-0.7002,0.0684-1.0176,0.2051s-0.5938,0.3223-0.8281,0.5566s-0.4199,0.5103-0.5566,0.8276s-0.2051,0.6567-0.2051,1.0181
			v6.9727c0,0.3613,0.0684,0.7002,0.2051,1.0176s0.3223,0.5938,0.5566,0.8281s0.5107,0.4199,0.8281,0.5566
			s0.6563,0.2051,1.0176,0.2051h1.2012c0.3613,0,0.7012-0.0684,1.0186-0.2051s0.5928-0.3223,0.8271-0.5566
			s0.4199-0.5107,0.5566-0.8281s0.2051-0.6563,0.2051-1.0176V10.3125z M146.2101,3.8965h-1.3477l2.3877-3.6035h3.0029
			L146.2101,3.8965z"/>
		<path d="M163.7882,21.2988V10.3125c0-0.3613-0.0684-0.7007-0.2051-1.0181s-0.3223-0.5933-0.5566-0.8276
			s-0.5098-0.4199-0.8271-0.5566s-0.6572-0.2051-1.0186-0.2051h-1.2012c-0.3613,0-0.7002,0.0684-1.0176,0.2051
			s-0.5938,0.3223-0.8281,0.5566s-0.4199,0.5103-0.5566,0.8276s-0.2051,0.6567-0.2051,1.0181v10.9863h-1.8018v-15h0.6006
			l0.9814,1.5234c0.4102-0.5566,0.9258-0.9985,1.5459-1.3257s1.2959-0.4907,2.0283-0.4907h0.4541
			c0.6055,0,1.1768,0.1147,1.7139,0.3442s1.0059,0.5444,1.4063,0.9448s0.7158,0.8691,0.9453,1.4063s0.3438,1.1084,0.3438,1.7139
			v10.8838H163.7882z"/>
		<path d="M176.6935,21.2988V0.293h1.8896v21.0059H176.6935z"/>
		<path d="M194.9015,16.4355c0,0.7129-0.1436,1.3818-0.4316,2.0068s-0.6738,1.1719-1.1572,1.6406s-1.0449,0.8369-1.6846,1.1055
			s-1.3164,0.4033-2.0293,0.4033H188.09c-0.7129,0-1.3887-0.1348-2.0283-0.4033s-1.2012-0.6367-1.6846-1.1055
			s-0.8691-1.0156-1.1572-1.6406s-0.4326-1.2939-0.4326-2.0068v-0.835l1.8896-0.3076v1.1426c0,0.4688,0.0957,0.9053,0.2861,1.3105
			s0.4463,0.7617,0.7686,1.0693s0.6963,0.5498,1.1211,0.7256s0.8711,0.2637,1.3398,0.2637h1.3184
			c0.4688,0,0.9131-0.0879,1.333-0.2637s0.791-0.418,1.1133-0.7256s0.5791-0.6641,0.7695-1.0693s0.2852-0.8418,0.2852-1.3105
			v-0.6299c0-0.7227-0.1416-1.3232-0.4248-1.8018s-0.6592-0.8867-1.1279-1.2236s-0.998-0.6221-1.5889-0.8564
			s-1.1992-0.4688-1.8242-0.7031s-1.2324-0.4932-1.8232-0.7764s-1.1211-0.6372-1.5898-1.062s-0.8447-0.9448-1.1279-1.5601
			s-0.4248-1.3721-0.4248-2.2705V5.1563c0-0.7129,0.1348-1.3818,0.4033-2.0068s0.6367-1.1719,1.1055-1.6406
			s1.0186-0.8374,1.6484-1.106S187.5382,0,188.2511,0h1.3477c0.7129,0,1.3818,0.1343,2.0068,0.4028s1.1719,0.6372,1.6406,1.106
			s0.8379,1.0156,1.1064,1.6406s0.4023,1.2939,0.4023,2.0068v0.542l-1.8896,0.3076V5.1563c0-0.4688-0.0879-0.9058-0.2637-1.311
			s-0.415-0.7593-0.7178-1.062s-0.6563-0.542-1.0615-0.7178s-0.8428-0.2637-1.3115-0.2637h-1.1719
			c-0.4688,0-0.9053,0.0879-1.3105,0.2637s-0.7617,0.415-1.0693,0.7178s-0.5498,0.6567-0.7256,1.062s-0.2637,0.8423-0.2637,1.311
			v0.3955c0,0.6738,0.1416,1.2402,0.4248,1.6992s0.6592,0.8521,1.1279,1.1792s0.999,0.6104,1.5898,0.8496
			s1.1982,0.4834,1.8232,0.7324s1.2334,0.5225,1.8242,0.8203s1.1201,0.6636,1.5889,1.0981s0.8447,0.9648,1.1279,1.5898
			s0.4248,1.3867,0.4248,2.2852V16.4355z"/>
		<path d="M210.0704,18.4424c-0.2686,0.625-0.6377,1.1719-1.1064,1.6406s-1.0156,0.8369-1.6406,1.1055s-1.2939,0.4033-2.0068,0.4033
			h-1.4941c-0.7129,0-1.3838-0.1348-2.0137-0.4033s-1.1797-0.6367-1.6484-1.1055s-0.8369-1.0156-1.1055-1.6406
			s-0.4033-1.2939-0.4033-2.0068V5.1563c0-0.7129,0.1348-1.3818,0.4033-2.0068s0.6367-1.1719,1.1055-1.6406
			s1.0186-0.8374,1.6484-1.106S203.1095,0,203.8224,0h1.4941c0.7129,0,1.3818,0.1343,2.0068,0.4028s1.1719,0.6372,1.6406,1.106
			s0.8379,1.0156,1.1064,1.6406s0.4023,1.2939,0.4023,2.0068v11.2793C210.4728,17.1484,210.339,17.8174,210.0704,18.4424z
			 M208.5831,5.1563c0-0.4688-0.0879-0.9058-0.2637-1.311s-0.415-0.7593-0.7178-1.062s-0.6563-0.542-1.0615-0.7178
			s-0.8428-0.2637-1.3115-0.2637h-1.3184c-0.4688,0-0.9053,0.0879-1.3105,0.2637s-0.7617,0.415-1.0693,0.7178
			s-0.5498,0.6567-0.7256,1.062s-0.2637,0.8423-0.2637,1.311v11.2793c0,0.4688,0.0879,0.9053,0.2637,1.3105
			s0.418,0.7617,0.7256,1.0693s0.6641,0.5498,1.0693,0.7256s0.8418,0.2637,1.3105,0.2637h1.3184
			c0.4688,0,0.9063-0.0879,1.3115-0.2637s0.7588-0.418,1.0615-0.7256s0.542-0.6641,0.7178-1.0693s0.2637-0.8418,0.2637-1.3105
			V5.1563z"/>
	</g>
</g>
<g>
	<g>
		<polygon points="273.8086,37.9208 6.4317,37.9208 6.4317,35.4823 272.8438,35.4823 		"/>
	</g>
	<path d="M15.6817,36.0292c0,4.3291-3.5323,7.8604-7.8614,7.8604C3.4473,43.8896,0,40.3583,0,36.0292
		c0-4.372,3.4473-7.7344,7.8203-7.7344C12.1494,28.2948,15.6817,31.6572,15.6817,36.0292z"/>
	<g>
		<path d="M282.0899,35.3984c0,4.3291-3.4864,7.8603-7.8584,7.8603c-4.2891,0-7.7784-3.5312-7.7784-7.8603
			c0-4.3721,3.4893-7.7764,7.7784-7.7764C278.6035,27.622,282.0899,31.0263,282.0899,35.3984z"/>
		<g>
			<path d="M274.2315,52.0458c-9.1661,0-16.6065-7.3994-16.6065-16.6474c0-9.1221,7.4404-16.6885,16.6065-16.6885
				c9.2451,0,16.6855,7.5664,16.6855,16.6885C290.917,44.6464,283.4766,52.0458,274.2315,52.0458z M274.2315,22.2402
				c-7.2725,0-13.2002,5.9277-13.2002,13.1582c0,7.3154,5.9277,13.2412,13.2002,13.2412c7.3134,0,13.2832-5.9258,13.2832-13.2412
				C287.5147,28.1679,281.5449,22.2402,274.2315,22.2402z"/>
		</g>
	</g>
</g>
</svg>
