<?xml version="1.0" encoding="utf-8"?>
<!-- Generator: Adobe Illustrator 21.0.0, SVG Export Plug-In . SVG Version: 6.00 Build 0)  -->
<svg version="1.1" id="Capa_1" xmlns="http://www.w3.org/2000/svg" xmlns:xlink="http://www.w3.org/1999/xlink" x="0px" y="0px"
	 viewBox="0 0 290.917 52.0458" style="enable-background:new 0 0 290.917 52.0458;" xml:space="preserve">
<g>
	<g>
		<path d="M35.9883,18.4424c-0.2686,0.625-0.6372,1.1719-1.106,1.6406s-1.0156,0.8374-1.6406,1.106s-1.2939,0.4028-2.0068,0.4028
			h-1.4941c-0.7129,0-1.3843-0.1343-2.0142-0.4028s-1.1792-0.6372-1.6479-1.106s-0.8374-1.0156-1.106-1.6406
			s-0.4028-1.2939-0.4028-2.0068V5.1563c0-0.7129,0.1343-1.3818,0.4028-2.0068s0.6372-1.1719,1.106-1.6406
			s1.0181-0.8374,1.6479-1.106S29.0279,0,29.7408,0h1.4941c0.7129,0,1.3818,0.1343,2.0068,0.4028s1.1719,0.6372,1.6406,1.106
			s0.8374,1.0156,1.106,1.6406s0.4028,1.2939,0.4028,2.0068v0.8496l-1.8896,0.293V5.1563c0-0.4688-0.0879-0.9058-0.2637-1.311
			s-0.415-0.7593-0.7178-1.062s-0.6567-0.542-1.062-0.7178s-0.8423-0.2637-1.311-0.2637h-1.3184
			c-0.4688,0-0.9058,0.0879-1.311,0.2637s-0.7617,0.415-1.0693,0.7178s-0.5493,0.6567-0.7251,1.062s-0.2637,0.8423-0.2637,1.311
			v11.2793c0,0.4688,0.0879,0.9058,0.2637,1.311s0.4175,0.7617,0.7251,1.0693s0.6641,0.5493,1.0693,0.7251
			s0.8423,0.2637,1.311,0.2637h1.3184c0.4688,0,0.9058-0.0879,1.311-0.2637s0.7593-0.4175,1.062-0.7251s0.542-0.6641,0.7178-1.0693
			s0.2637-0.8423,0.2637-1.311V15.293l1.8896,0.3076v0.835C36.3912,17.1484,36.2569,17.8174,35.9883,18.4424z"/>
		<path d="M49.67,18.8965c-0.2295,0.5371-0.5444,1.0059-0.9448,1.4063s-0.8691,0.7153-1.4063,0.9448s-1.1084,0.3442-1.7139,0.3442
			h-1.2012c-0.6055,0-1.1768-0.1147-1.7139-0.3442s-1.0059-0.5444-1.4063-0.9448s-0.7153-0.8691-0.9448-1.4063
			s-0.3442-1.1084-0.3442-1.7139V10.415c0-0.6055,0.1147-1.1768,0.3442-1.7139s0.5444-1.0059,0.9448-1.4063
			s0.8691-0.7153,1.4063-0.9448s1.1084-0.3442,1.7139-0.3442h1.2012c0.6055,0,1.1768,0.1147,1.7139,0.3442
			s1.0059,0.5444,1.4063,0.9448s0.7153,0.8691,0.9448,1.4063s0.3442,1.1084,0.3442,1.7139v6.7676
			C50.0142,17.7881,49.8995,18.3594,49.67,18.8965z M48.2125,10.3125c0-0.3613-0.0684-0.7007-0.2051-1.0181
			s-0.3223-0.5933-0.5566-0.8276s-0.5103-0.4199-0.8276-0.5566s-0.6567-0.2051-1.0181-0.2051h-1.2012
			c-0.3613,0-0.7007,0.0684-1.0181,0.2051s-0.5933,0.3223-0.8276,0.5566s-0.4199,0.5103-0.5566,0.8276s-0.2051,0.6567-0.2051,1.0181
			v6.9727c0,0.3613,0.0684,0.7007,0.2051,1.0181s0.3223,0.5933,0.5566,0.8276s0.5103,0.4199,0.8276,0.5566
			s0.6567,0.2051,1.0181,0.2051h1.2012c0.3613,0,0.7007-0.0684,1.0181-0.2051s0.5933-0.3223,0.8276-0.5566
			s0.4199-0.5103,0.5566-0.8276s0.2051-0.6567,0.2051-1.0181V10.3125z"/>
		<path d="M63.9302,17.4902c0,0.6055-0.1221,1.1597-0.3662,1.6626s-0.5762,0.9351-0.9961,1.2964s-0.9058,0.6421-1.4575,0.8423
			s-1.1304,0.3003-1.7358,0.3003h-1.2012c-0.6055,0-1.1841-0.1147-1.7358-0.3442s-1.0352-0.5444-1.4502-0.9448
			s-0.7471-0.8691-0.9961-1.4063s-0.3735-1.1084-0.3735-1.7139V16.582l1.8018-0.293v0.9961c0,0.3613,0.0757,0.7007,0.2271,1.0181
			s0.354,0.5933,0.6079,0.8276s0.5469,0.4199,0.8789,0.5566s0.6787,0.2051,1.04,0.2051h1.2012c0.3613,0,0.708-0.0537,1.04-0.1611
			s0.6274-0.2612,0.8862-0.4614s0.4639-0.4419,0.6152-0.7251s0.2271-0.6055,0.2271-0.9668c0-0.5371-0.1172-0.9766-0.3516-1.3184
			s-0.5444-0.6274-0.9302-0.8569s-0.8252-0.4199-1.3184-0.5713s-0.9985-0.3027-1.5161-0.4541s-1.0229-0.3247-1.5161-0.52
			s-0.9326-0.4517-1.3184-0.769s-0.6958-0.7153-0.9302-1.1938s-0.3516-1.0742-0.3516-1.7871c0-0.6055,0.1172-1.1597,0.3516-1.6626
			s0.5518-0.9351,0.9521-1.2964s0.8667-0.6421,1.3989-0.8423s1.1011-0.3003,1.7065-0.3003h1.0547
			c0.6055,0,1.1768,0.1147,1.7139,0.3442s1.0059,0.5444,1.4063,0.9448s0.7153,0.8691,0.9448,1.4063s0.3442,1.1084,0.3442,1.7139
			v0.0586l-1.8018,0.293v-0.4541c0-0.3613-0.0684-0.7007-0.2051-1.0181s-0.3223-0.5933-0.5566-0.8276S60.71,8.0469,60.3926,7.9102
			s-0.6567-0.2051-1.0181-0.2051h-1.0547c-0.3613,0-0.7007,0.0537-1.0181,0.1611s-0.5933,0.2612-0.8276,0.4614
			s-0.4199,0.4419-0.5566,0.7251s-0.2051,0.6055-0.2051,0.9668c0,0.5176,0.1172,0.9399,0.3516,1.2671s0.5444,0.603,0.9302,0.8276
			s0.8252,0.4126,1.3184,0.564s0.9961,0.3076,1.5088,0.4688s1.0156,0.3442,1.5088,0.5493s0.9326,0.4688,1.3184,0.791
			s0.6958,0.7251,0.9302,1.2085S63.9302,16.7773,63.9302,17.4902z"/>
		<path d="M72.8511,21.2988c-0.5469,0-1.062-0.1025-1.5454-0.3076s-0.9033-0.4883-1.2598-0.8496s-0.6396-0.7813-0.8496-1.2598
			s-0.3149-0.9912-0.3149-1.5381V8.0127h-2.6953V6.2988h2.6953V2.6953l1.8018-0.293v3.8965h3.8086v1.7139h-3.8086v9.4189
			c0,0.3027,0.0562,0.5835,0.1685,0.8423s0.2661,0.4858,0.4614,0.6812s0.4248,0.3491,0.6885,0.4614s0.5469,0.1685,0.8496,0.1685
			h1.6406v1.7139H72.8511z"/>
		<path d="M87.4776,18.8965c-0.2295,0.5371-0.5444,1.0059-0.9448,1.4063s-0.8691,0.7153-1.4063,0.9448s-1.1084,0.3442-1.7139,0.3442
			h-1.2012c-0.6055,0-1.1768-0.1147-1.7139-0.3442s-1.0059-0.5444-1.4063-0.9448s-0.7153-0.8691-0.9448-1.4063
			s-0.3442-1.1084-0.3442-1.7139V10.415c0-0.6055,0.1147-1.1768,0.3442-1.7139s0.5444-1.0059,0.9448-1.4063
			s0.8691-0.7153,1.4063-0.9448s1.1084-0.3442,1.7139-0.3442h1.2012c0.6055,0,1.1768,0.1147,1.7139,0.3442
			s1.0059,0.5444,1.4063,0.9448s0.7153,0.8691,0.9448,1.4063s0.3442,1.1084,0.3442,1.7139v6.7676
			C87.8218,17.7881,87.7071,18.3594,87.4776,18.8965z M86.0201,10.3125c0-0.3613-0.0684-0.7007-0.2051-1.0181
			s-0.3223-0.5933-0.5566-0.8276s-0.5103-0.4199-0.8276-0.5566s-0.6567-0.2051-1.0181-0.2051h-1.2012
			c-0.3613,0-0.7007,0.0684-1.0181,0.2051s-0.5933,0.3223-0.8276,0.5566s-0.4199,0.5103-0.5566,0.8276s-0.2051,0.6567-0.2051,1.0181
			v6.9727c0,0.3613,0.0684,0.7007,0.2051,1.0181s0.3223,0.5933,0.5566,0.8276s0.5103,0.4199,0.8276,0.5566
			s0.6567,0.2051,1.0181,0.2051h1.2012c0.3613,0,0.7007-0.0684,1.0181-0.2051s0.5933-0.3223,0.8276-0.5566
			s0.4199-0.5103,0.5566-0.8276s0.2051-0.6567,0.2051-1.0181V10.3125z"/>
		<path d="M101.7378,17.4902c0,0.6055-0.1221,1.1597-0.3662,1.6626s-0.5762,0.9351-0.9961,1.2964s-0.9058,0.6421-1.4575,0.8423
			s-1.1304,0.3003-1.7358,0.3003H95.981c-0.6055,0-1.1841-0.1147-1.7358-0.3442s-1.0352-0.5444-1.4502-0.9448
			s-0.7471-0.8691-0.9961-1.4063s-0.3735-1.1084-0.3735-1.7139V16.582l1.8018-0.293v0.9961c0,0.3613,0.0757,0.7007,0.2271,1.0181
			s0.354,0.5933,0.6079,0.8276s0.5469,0.4199,0.8789,0.5566s0.6787,0.2051,1.04,0.2051h1.2012c0.3613,0,0.708-0.0537,1.04-0.1611
			s0.6274-0.2612,0.8862-0.4614s0.4639-0.4419,0.6152-0.7251s0.2271-0.6055,0.2271-0.9668c0-0.5371-0.1172-0.9766-0.3516-1.3184
			s-0.5444-0.6274-0.9302-0.8569s-0.8252-0.4199-1.3184-0.5713s-0.9985-0.3027-1.5161-0.4541s-1.0229-0.3247-1.5161-0.52
			s-0.9326-0.4517-1.3184-0.769s-0.6958-0.7153-0.9302-1.1938s-0.3516-1.0742-0.3516-1.7871c0-0.6055,0.1172-1.1597,0.3516-1.6626
			s0.5518-0.9351,0.9521-1.2964s0.8667-0.6421,1.3989-0.8423s1.1011-0.3003,1.7065-0.3003h1.0547
			c0.6055,0,1.1768,0.1147,1.7139,0.3442s1.0059,0.5444,1.4063,0.9448s0.7153,0.8691,0.9448,1.4063s0.3442,1.1084,0.3442,1.7139
			v0.0586l-1.8018,0.293v-0.4541c0-0.3613-0.0684-0.7007-0.2051-1.0181s-0.3223-0.5933-0.5566-0.8276s-0.5103-0.4199-0.8276-0.5566
			s-0.6567-0.2051-1.0181-0.2051h-1.0547c-0.3613,0-0.7007,0.0537-1.0181,0.1611s-0.5933,0.2612-0.8276,0.4614
			s-0.4199,0.4419-0.5566,0.7251s-0.2051,0.6055-0.2051,0.9668c0,0.5176,0.1172,0.9399,0.3516,1.2671s0.5444,0.603,0.9302,0.8276
			s0.8252,0.4126,1.3184,0.564s0.9961,0.3076,1.5088,0.4688s1.0156,0.3442,1.5088,0.5493s0.9326,0.4688,1.3184,0.791
			s0.6958,0.7251,0.9302,1.2085S101.7378,16.7773,101.7378,17.4902z"/>
		<path d="M121.5132,21.2988l-0.9961-1.5234c-0.4102,0.5566-0.9229,0.9985-1.5381,1.3257s-1.2891,0.4907-2.0215,0.4907h-0.4541
			c-0.6055,0-1.1768-0.1147-1.7139-0.3442s-1.0059-0.5444-1.4063-0.9448s-0.7153-0.8691-0.9448-1.4063s-0.3442-1.1084-0.3442-1.7139
			V10.415c0-0.6055,0.1147-1.1768,0.3442-1.7139s0.5444-1.0059,0.9448-1.4063s0.8691-0.7153,1.4063-0.9448
			s1.1084-0.3442,1.7139-0.3442h0.4541c0.6738,0,1.2988,0.1367,1.875,0.4102s1.0693,0.6543,1.4795,1.1426V0.293h1.8018v21.0059
			H121.5132z M120.3121,10.3125c0-0.3613-0.0684-0.7007-0.2051-1.0181s-0.3223-0.5933-0.5566-0.8276s-0.5103-0.4199-0.8276-0.5566
			s-0.6567-0.2051-1.0181-0.2051h-1.2012c-0.3613,0-0.7007,0.0684-1.0181,0.2051s-0.5933,0.3223-0.8276,0.5566
			s-0.4199,0.5103-0.5566,0.8276s-0.2051,0.6567-0.2051,1.0181v6.9727c0,0.3613,0.0684,0.7007,0.2051,1.0181
			s0.3223,0.5933,0.5566,0.8276s0.5103,0.4199,0.8276,0.5566s0.6567,0.2051,1.0181,0.2051h1.2012
			c0.3613,0,0.7007-0.0684,1.0181-0.2051s0.5933-0.3223,0.8276-0.5566s0.4199-0.5103,0.5566-0.8276s0.2051-0.6567,0.2051-1.0181
			V10.3125z"/>
		<path d="M135.3926,18.8965c-0.2295,0.5371-0.5444,1.0059-0.9448,1.4063s-0.8691,0.7153-1.4063,0.9448
			s-1.1084,0.3442-1.7139,0.3442h-1.2012c-0.6055,0-1.1768-0.1147-1.7139-0.3442c-0.5371-0.2295-1.0059-0.5444-1.4062-0.9448
			s-0.7153-0.8691-0.9448-1.4063s-0.3442-1.1084-0.3442-1.7139V10.415c0-0.6055,0.1147-1.1768,0.3442-1.7139
			s0.5444-1.0059,0.9448-1.4063s0.8691-0.7153,1.4062-0.9448c0.5371-0.2295,1.1084-0.3442,1.7139-0.3442h1.2012
			c0.6055,0,1.1768,0.1147,1.7139,0.3442s1.0059,0.5444,1.4063,0.9448s0.7153,0.8691,0.9448,1.4063s0.3442,1.1084,0.3442,1.7139
			v3.5303h-8.2178v3.3398c0,0.3613,0.0684,0.7007,0.2051,1.0181s0.3223,0.5933,0.5566,0.8276s0.5103,0.4199,0.8276,0.5566
			s0.6567,0.2051,1.0181,0.2051h1.2012c0.3613,0,0.7007-0.0684,1.0181-0.2051s0.5933-0.3223,0.8276-0.5566
			s0.4199-0.5103,0.5566-0.8276s0.2051-0.6567,0.2051-1.0181v-0.9961l1.8018,0.293v0.6006
			C135.7369,17.7881,135.6221,18.3594,135.3926,18.8965z M133.9351,10.3125c0-0.3613-0.0684-0.7007-0.2051-1.0181
			s-0.3223-0.5933-0.5566-0.8276s-0.5103-0.4199-0.8276-0.5566s-0.6567-0.2051-1.0181-0.2051h-1.2012
			c-0.3613,0-0.7007,0.0684-1.0181,0.2051s-0.5933,0.3223-0.8276,0.5566s-0.4199,0.5103-0.5566,0.8276s-0.2051,0.6567-0.2051,1.0181
			v2.2266h6.416V10.3125z"/>
		<path d="M155.9151,18.8965c-0.2295,0.5371-0.5444,1.0059-0.9448,1.4063s-0.8691,0.7153-1.4063,0.9448
			s-1.1084,0.3442-1.7139,0.3442h-1.2012c-0.6055,0-1.1768-0.1147-1.7139-0.3442s-1.0059-0.5444-1.4063-0.9448
			s-0.7153-0.8691-0.9448-1.4063s-0.3442-1.1084-0.3442-1.7139V10.415c0-0.6055,0.1147-1.1768,0.3442-1.7139
			s0.5444-1.0059,0.9448-1.4063s0.8691-0.7153,1.4063-0.9448s1.1084-0.3442,1.7139-0.3442h1.2012
			c0.6055,0,1.1768,0.1147,1.7139,0.3442s1.0059,0.5444,1.4063,0.9448s0.7153,0.8691,0.9448,1.4063s0.3438,1.1084,0.3438,1.7139
			v0.6006l-1.8013,0.293v-0.9961c0-0.3613-0.0684-0.7007-0.2051-1.0181s-0.3223-0.5933-0.5566-0.8276s-0.5103-0.4199-0.8276-0.5566
			s-0.6567-0.2051-1.0181-0.2051h-1.2012c-0.3613,0-0.7007,0.0684-1.0181,0.2051s-0.5933,0.3223-0.8276,0.5566
			s-0.4199,0.5103-0.5566,0.8276s-0.2051,0.6567-0.2051,1.0181v6.9727c0,0.3613,0.0684,0.7007,0.2051,1.0181
			s0.3223,0.5933,0.5566,0.8276s0.5103,0.4199,0.8276,0.5566s0.6567,0.2051,1.0181,0.2051h1.2012
			c0.3613,0,0.7007-0.0684,1.0181-0.2051s0.5933-0.3223,0.8276-0.5566s0.4199-0.5103,0.5566-0.8276s0.2051-0.6567,0.2051-1.0181
			v-0.9961l1.8013,0.293v0.6006C156.2588,17.7881,156.1446,18.3594,155.9151,18.8965z"/>
		<path d="M169.2813,21.2988l-0.9961-1.4941c-0.4102,0.5371-0.9229,0.9692-1.5381,1.2964s-1.2891,0.4907-2.0215,0.4907h-0.4541
			c-0.6055,0-1.1768-0.1147-1.7139-0.3442s-1.0059-0.5444-1.4063-0.9448s-0.7148-0.8691-0.9443-1.4063s-0.3447-1.1084-0.3447-1.7139
			v-0.1465c0-0.6055,0.1152-1.1768,0.3447-1.7139s0.5439-1.0059,0.9443-1.4063s0.8691-0.7153,1.4063-0.9448
			s1.1084-0.3442,1.7139-0.3442h3.8086v-2.3145c0-0.3613-0.0684-0.7007-0.2051-1.0181s-0.3223-0.5933-0.5566-0.8276
			s-0.5098-0.4199-0.8271-0.5566s-0.6572-0.2051-1.0186-0.2051h-1.0547c-0.3613,0-0.7002,0.0684-1.0176,0.2051
			s-0.5938,0.3223-0.8281,0.5566s-0.4199,0.5103-0.5566,0.8276s-0.2051,0.6567-0.2051,1.0181v0.542l-1.8018-0.293V10.415
			c0-0.6055,0.1152-1.1768,0.3447-1.7139s0.5439-1.0059,0.9443-1.4063s0.8691-0.7153,1.4063-0.9448s1.1084-0.3442,1.7139-0.3442
			h1.0547c0.6055,0,1.1768,0.1147,1.7139,0.3442s1.0059,0.5444,1.4063,0.9448s0.7158,0.8691,0.9453,1.4063
			s0.3438,1.1084,0.3438,1.7139v10.8838H169.2813z M168.0801,14.0332h-3.8086c-0.3613,0-0.7002,0.0684-1.0176,0.2051
			s-0.5938,0.3247-0.8281,0.564s-0.4199,0.5176-0.5566,0.835s-0.2051,0.6567-0.2051,1.0181v0.6299
			c0,0.3613,0.0684,0.7007,0.2051,1.0181s0.3223,0.5933,0.5566,0.8276s0.5107,0.4199,0.8281,0.5566s0.6563,0.2051,1.0176,0.2051
			h1.2012c0.3613,0,0.7012-0.0684,1.0186-0.2051s0.5928-0.3223,0.8271-0.5566s0.4199-0.5103,0.5566-0.8276
			s0.2051-0.6567,0.2051-1.0181V14.0332z"/>
		<path d="M174.086,21.2988V0.293h1.8018v21.0059H174.086z"/>
		<path d="M180.5459,2.6953V0.293h2.0947v2.4023H180.5459z M180.6924,21.2988v-15h1.8018v15H180.6924z"/>
		<path d="M196.1172,21.2988l-0.9961-1.5234c-0.4102,0.5566-0.9229,0.9985-1.5381,1.3257s-1.2891,0.4907-2.0215,0.4907h-0.4541
			c-0.6055,0-1.1768-0.1147-1.7139-0.3442s-1.0059-0.5444-1.4063-0.9448s-0.7148-0.8691-0.9443-1.4063s-0.3447-1.1084-0.3447-1.7139
			V10.415c0-0.6055,0.1152-1.1768,0.3447-1.7139s0.5439-1.0059,0.9443-1.4063s0.8691-0.7153,1.4063-0.9448
			s1.1084-0.3442,1.7139-0.3442h0.4541c0.6738,0,1.2988,0.1367,1.875,0.4102s1.0693,0.6543,1.4795,1.1426V0.293h1.8018v21.0059
			H196.1172z M194.9161,10.3125c0-0.3613-0.0684-0.7007-0.2051-1.0181s-0.3223-0.5933-0.5566-0.8276s-0.5098-0.4199-0.8271-0.5566
			s-0.6572-0.2051-1.0186-0.2051h-1.2012c-0.3613,0-0.7002,0.0684-1.0176,0.2051s-0.5938,0.3223-0.8281,0.5566
			s-0.4199,0.5103-0.5566,0.8276S188.5,9.9512,188.5,10.3125v6.9727c0,0.3613,0.0684,0.7007,0.2051,1.0181
			s0.3223,0.5933,0.5566,0.8276s0.5107,0.4199,0.8281,0.5566s0.6563,0.2051,1.0176,0.2051h1.2012
			c0.3613,0,0.7012-0.0684,1.0186-0.2051s0.5928-0.3223,0.8271-0.5566s0.4199-0.5103,0.5566-0.8276s0.2051-0.6567,0.2051-1.0181
			V10.3125z"/>
		<path d="M209.7403,21.2988l-0.9961-1.4941c-0.4102,0.5371-0.9229,0.9692-1.5381,1.2964s-1.2891,0.4907-2.0215,0.4907h-0.4541
			c-0.6055,0-1.1768-0.1147-1.7139-0.3442s-1.0059-0.5444-1.4063-0.9448s-0.7148-0.8691-0.9443-1.4063s-0.3447-1.1084-0.3447-1.7139
			v-0.1465c0-0.6055,0.1152-1.1768,0.3447-1.7139s0.5439-1.0059,0.9443-1.4063s0.8691-0.7153,1.4063-0.9448
			s1.1084-0.3442,1.7139-0.3442h3.8086v-2.3145c0-0.3613-0.0684-0.7007-0.2051-1.0181s-0.3223-0.5933-0.5566-0.8276
			s-0.5098-0.4199-0.8271-0.5566s-0.6572-0.2051-1.0186-0.2051h-1.0547c-0.3613,0-0.7002,0.0684-1.0176,0.2051
			s-0.5938,0.3223-0.8281,0.5566s-0.4199,0.5103-0.5566,0.8276s-0.2051,0.6567-0.2051,1.0181v0.542l-1.8018-0.293V10.415
			c0-0.6055,0.1152-1.1768,0.3447-1.7139s0.5439-1.0059,0.9443-1.4063s0.8691-0.7153,1.4063-0.9448s1.1084-0.3442,1.7139-0.3442
			h1.0547c0.6055,0,1.1768,0.1147,1.7139,0.3442s1.0059,0.5444,1.4063,0.9448s0.7158,0.8691,0.9453,1.4063
			s0.3438,1.1084,0.3438,1.7139v10.8838H209.7403z M208.5391,14.0332h-3.8086c-0.3613,0-0.7002,0.0684-1.0176,0.2051
			s-0.5938,0.3247-0.8281,0.564s-0.4199,0.5176-0.5566,0.835s-0.2051,0.6567-0.2051,1.0181v0.6299
			c0,0.3613,0.0684,0.7007,0.2051,1.0181s0.3223,0.5933,0.5566,0.8276s0.5107,0.4199,0.8281,0.5566s0.6563,0.2051,1.0176,0.2051
			h1.2012c0.3613,0,0.7012-0.0684,1.0186-0.2051s0.5928-0.3223,0.8271-0.5566s0.4199-0.5103,0.5566-0.8276
			s0.2051-0.6567,0.2051-1.0181V14.0332z"/>
		<path d="M223.3633,21.2988l-0.9961-1.5234c-0.4102,0.5566-0.9229,0.9985-1.5381,1.3257s-1.2891,0.4907-2.0215,0.4907h-0.4541
			c-0.6055,0-1.1768-0.1147-1.7139-0.3442s-1.0059-0.5444-1.4063-0.9448s-0.7148-0.8691-0.9443-1.4063s-0.3447-1.1084-0.3447-1.7139
			V10.415c0-0.6055,0.1152-1.1768,0.3447-1.7139s0.5439-1.0059,0.9443-1.4063s0.8691-0.7153,1.4063-0.9448
			s1.1084-0.3442,1.7139-0.3442h0.4541c0.6738,0,1.2988,0.1367,1.875,0.4102s1.0693,0.6543,1.4795,1.1426V0.293h1.8018v21.0059
			H223.3633z M222.1622,10.3125c0-0.3613-0.0684-0.7007-0.2051-1.0181s-0.3223-0.5933-0.5566-0.8276s-0.5098-0.4199-0.8271-0.5566
			s-0.6572-0.2051-1.0186-0.2051h-1.2012c-0.3613,0-0.7002,0.0684-1.0176,0.2051s-0.5938,0.3223-0.8281,0.5566
			s-0.4199,0.5103-0.5566,0.8276s-0.2051,0.6567-0.2051,1.0181v6.9727c0,0.3613,0.0684,0.7007,0.2051,1.0181
			s0.3223,0.5933,0.5566,0.8276s0.5107,0.4199,0.8281,0.5566s0.6563,0.2051,1.0176,0.2051h1.2012
			c0.3613,0,0.7012-0.0684,1.0186-0.2051s0.5928-0.3223,0.8271-0.5566s0.4199-0.5103,0.5566-0.8276s0.2051-0.6567,0.2051-1.0181
			V10.3125z"/>
	</g>
</g>
<g>
	<g>
		<polygon points="273.8086,37.9208 6.4317,37.9208 6.4317,35.4823 272.8438,35.4823 		"/>
	</g>
	<path d="M15.6817,36.0292c0,4.3291-3.5323,7.8604-7.8614,7.8604C3.4473,43.8896,0,40.3583,0,36.0292
		c0-4.372,3.4473-7.7344,7.8203-7.7344C12.1494,28.2948,15.6817,31.6572,15.6817,36.0292z"/>
	<g>
		<path d="M282.0899,35.3984c0,4.3291-3.4864,7.8603-7.8584,7.8603c-4.2891,0-7.7784-3.5312-7.7784-7.8603
			c0-4.3721,3.4893-7.7764,7.7784-7.7764C278.6035,27.622,282.0899,31.0263,282.0899,35.3984z"/>
		<g>
			<path d="M274.2315,52.0458c-9.1661,0-16.6065-7.3994-16.6065-16.6474c0-9.1221,7.4404-16.6885,16.6065-16.6885
				c9.2451,0,16.6855,7.5664,16.6855,16.6885C290.917,44.6464,283.4766,52.0458,274.2315,52.0458z M274.2315,22.2402
				c-7.2725,0-13.2002,5.9287-13.2002,13.1582c0,7.3154,5.9277,13.2412,13.2002,13.2412c7.3134,0,13.2832-5.9258,13.2832-13.2412
				C287.5147,28.1689,281.5449,22.2402,274.2315,22.2402z"/>
		</g>
	</g>
</g>
</svg>
