<?xml version="1.0" encoding="utf-8"?>
<!-- Generator: Adobe Illustrator 21.0.0, SVG Export Plug-In . SVG Version: 6.00 Build 0)  -->
<svg version="1.1" id="Capa_1" xmlns="http://www.w3.org/2000/svg" xmlns:xlink="http://www.w3.org/1999/xlink" x="0px" y="0px"
	 viewBox="0 0 253.9177 44.7517" style="enable-background:new 0 0 253.9177 44.7517;" xml:space="preserve">
<g>
	<g>
		<path style="fill:#FFFFFF;" d="M38.8778,21.0059V0h1.8896v21.0059H38.8778z"/>
		<path style="fill:#FFFFFF;" d="M53.1893,21.0059V10.0195c0-0.3613-0.0684-0.7012-0.2051-1.0186s-0.3223-0.5928-0.5566-0.8271
			s-0.5098-0.4199-0.8271-0.5566s-0.6572-0.2051-1.0186-0.2051h-1.2012c-0.3613,0-0.7002,0.0684-1.0176,0.2051
			s-0.5938,0.3223-0.8281,0.5566s-0.4199,0.5098-0.5566,0.8271s-0.2051,0.6572-0.2051,1.0186v10.9863h-1.8018v-15h0.6006
			l0.9814,1.5234c0.4102-0.5566,0.9258-0.999,1.5459-1.3262s1.2959-0.4902,2.0283-0.4902h0.4541
			c0.6055,0,1.1768,0.1143,1.7139,0.3438s1.0059,0.5449,1.4063,0.9453s0.7158,0.8691,0.9453,1.4063s0.3438,1.1084,0.3438,1.7139
			v10.8838H53.1893z"/>
		<path style="fill:#FFFFFF;" d="M64.0585,21.0059c-0.5469,0-1.0615-0.1025-1.5449-0.3076s-0.9033-0.4883-1.2598-0.8496
			s-0.6396-0.7813-0.8496-1.2598s-0.3154-0.9912-0.3154-1.5381V7.7197h-2.6953V6.0059h2.6953V2.4023l1.8018-0.293v3.8965h3.8086
			v1.7139h-3.8086v9.4189c0,0.3027,0.0566,0.583,0.1689,0.8418s0.2656,0.4863,0.4609,0.6816s0.4248,0.3486,0.6885,0.4609
			s0.5469,0.1689,0.8496,0.1689h1.6406v1.7139H64.0585z"/>
		<path style="fill:#FFFFFF;" d="M73.4188,7.7197c-0.3613,0-0.7002,0.0684-1.0176,0.2051s-0.5938,0.3223-0.8281,0.5566
			s-0.4199,0.5098-0.5566,0.8271s-0.2051,0.6572-0.2051,1.0186v10.6787h-1.8018v-15h0.6006l0.9814,1.5234
			c0.4102-0.5566,0.9258-0.999,1.5459-1.3262s1.2959-0.4902,2.0283-0.4902h1.0547v2.0068H73.4188z"/>
		<path style="fill:#FFFFFF;" d="M87.2987,18.6035c-0.2295,0.5371-0.5449,1.0059-0.9453,1.4063s-0.8691,0.7148-1.4063,0.9443
			s-1.1084,0.3447-1.7139,0.3447h-1.2012c-0.6055,0-1.1768-0.1152-1.7139-0.3447s-1.0059-0.5439-1.4063-0.9443
			s-0.7148-0.8691-0.9443-1.4063s-0.3447-1.1084-0.3447-1.7139v-6.7676c0-0.6055,0.1152-1.1768,0.3447-1.7139
			s0.5439-1.0059,0.9443-1.4063s0.8691-0.7158,1.4063-0.9453s1.1084-0.3438,1.7139-0.3438h1.2012
			c0.6055,0,1.1768,0.1143,1.7139,0.3438s1.0059,0.5449,1.4063,0.9453s0.7158,0.8691,0.9453,1.4063s0.3438,1.1084,0.3438,1.7139
			v6.7676C87.6425,17.4951,87.5282,18.0664,87.2987,18.6035z M85.8407,10.0195c0-0.3613-0.0684-0.7012-0.2051-1.0186
			s-0.3223-0.5928-0.5566-0.8271s-0.5098-0.4199-0.8271-0.5566s-0.6572-0.2051-1.0186-0.2051h-1.2012
			c-0.3613,0-0.7002,0.0684-1.0176,0.2051s-0.5938,0.3223-0.8281,0.5566s-0.4199,0.5098-0.5566,0.8271s-0.2051,0.6572-0.2051,1.0186
			v6.9727c0,0.3613,0.0684,0.7002,0.2051,1.0176s0.3223,0.5938,0.5566,0.8281s0.5107,0.4199,0.8281,0.5566
			s0.6563,0.2051,1.0176,0.2051h1.2012c0.3613,0,0.7012-0.0684,1.0186-0.2051s0.5928-0.3223,0.8271-0.5566
			s0.4199-0.5107,0.5566-0.8281s0.2051-0.6563,0.2051-1.0176V10.0195z"/>
		<path style="fill:#FFFFFF;" d="M100.6649,21.0059l-0.9961-1.5234c-0.4102,0.5566-0.9229,0.998-1.5381,1.3252
			s-1.2891,0.4912-2.0215,0.4912h-0.4541c-0.6055,0-1.1768-0.1152-1.7139-0.3447s-1.0059-0.5439-1.4063-0.9443
			s-0.7148-0.8691-0.9443-1.4063s-0.3447-1.1084-0.3447-1.7139v-6.7676c0-0.6055,0.1152-1.1768,0.3447-1.7139
			s0.5439-1.0059,0.9443-1.4063s0.8691-0.7158,1.4063-0.9453s1.1084-0.3438,1.7139-0.3438h0.4541
			c0.6738,0,1.2988,0.1367,1.875,0.4102s1.0693,0.6543,1.4795,1.1426V0h1.8018v21.0059H100.6649z M99.4637,10.0195
			c0-0.3613-0.0684-0.7012-0.2051-1.0186s-0.3223-0.5928-0.5566-0.8271s-0.5098-0.4199-0.8271-0.5566s-0.6572-0.2051-1.0186-0.2051
			h-1.2012c-0.3613,0-0.7002,0.0684-1.0176,0.2051s-0.5938,0.3223-0.8281,0.5566s-0.4199,0.5098-0.5566,0.8271
			s-0.2051,0.6572-0.2051,1.0186v6.9727c0,0.3613,0.0684,0.7002,0.2051,1.0176s0.3223,0.5938,0.5566,0.8281
			s0.5107,0.4199,0.8281,0.5566s0.6563,0.2051,1.0176,0.2051h1.2012c0.3613,0,0.7012-0.0684,1.0186-0.2051
			s0.5928-0.3223,0.8271-0.5566s0.4199-0.5107,0.5566-0.8281s0.2051-0.6563,0.2051-1.0176V10.0195z"/>
		<path style="fill:#FFFFFF;" d="M114.288,21.0059l-0.9961-1.5234c-0.4102,0.5566-0.9229,0.998-1.5381,1.3252
			s-1.2891,0.4912-2.0215,0.4912h-0.4541c-0.6055,0-1.1768-0.1152-1.7139-0.3447s-1.0059-0.5439-1.4063-0.9443
			s-0.7148-0.8691-0.9443-1.4063s-0.3447-1.1084-0.3447-1.7139V6.0059h1.8018v10.9863c0,0.3613,0.0684,0.7002,0.2051,1.0176
			s0.3223,0.5938,0.5566,0.8281s0.5107,0.4199,0.8281,0.5566s0.6563,0.2051,1.0176,0.2051h1.2012
			c0.3613,0,0.7012-0.0684,1.0186-0.2051s0.5928-0.3223,0.8271-0.5566s0.4199-0.5107,0.5566-0.8281s0.2051-0.6563,0.2051-1.0176
			V6.0059h1.8018v15H114.288z"/>
		<path style="fill:#FFFFFF;" d="M128.1678,18.6035c-0.2295,0.5371-0.5449,1.0059-0.9453,1.4063s-0.8691,0.7148-1.4063,0.9443
			s-1.1084,0.3447-1.7139,0.3447h-1.2012c-0.6055,0-1.1768-0.1152-1.7139-0.3447s-1.0059-0.5439-1.4063-0.9443
			s-0.7148-0.8691-0.9443-1.4063s-0.3447-1.1084-0.3447-1.7139v-6.7676c0-0.6055,0.1152-1.1768,0.3447-1.7139
			s0.5439-1.0059,0.9443-1.4063s0.8691-0.7158,1.4063-0.9453s1.1084-0.3438,1.7139-0.3438h1.2012
			c0.6055,0,1.1768,0.1143,1.7139,0.3438s1.0059,0.5449,1.4063,0.9453s0.7158,0.8691,0.9453,1.4063s0.3438,1.1084,0.3438,1.7139
			v0.6006l-1.8018,0.293v-0.9961c0-0.3613-0.0684-0.7012-0.2051-1.0186s-0.3223-0.5928-0.5566-0.8271s-0.5098-0.4199-0.8271-0.5566
			s-0.6572-0.2051-1.0186-0.2051h-1.2012c-0.3613,0-0.7002,0.0684-1.0176,0.2051s-0.5938,0.3223-0.8281,0.5566
			s-0.4199,0.5098-0.5566,0.8271s-0.2051,0.6572-0.2051,1.0186v6.9727c0,0.3613,0.0684,0.7002,0.2051,1.0176
			s0.3223,0.5938,0.5566,0.8281s0.5107,0.4199,0.8281,0.5566s0.6563,0.2051,1.0176,0.2051h1.2012
			c0.3613,0,0.7012-0.0684,1.0186-0.2051s0.5928-0.3223,0.8271-0.5566s0.4199-0.5107,0.5566-0.8281s0.2051-0.6563,0.2051-1.0176
			v-0.9961l1.8018,0.293v0.6006C128.5116,17.4951,128.3973,18.0664,128.1678,18.6035z"/>
		<path style="fill:#FFFFFF;" d="M141.7909,18.6035c-0.2295,0.5371-0.5449,1.0059-0.9453,1.4063s-0.8691,0.7148-1.4063,0.9443
			s-1.1084,0.3447-1.7139,0.3447h-1.2012c-0.6055,0-1.1768-0.1152-1.7139-0.3447s-1.0059-0.5439-1.4063-0.9443
			s-0.7148-0.8691-0.9443-1.4063s-0.3447-1.1084-0.3447-1.7139v-6.7676c0-0.6055,0.1152-1.1768,0.3447-1.7139
			s0.5439-1.0059,0.9443-1.4063s0.8691-0.7158,1.4063-0.9453s1.1084-0.3438,1.7139-0.3438h1.2012
			c0.6055,0,1.1768,0.1143,1.7139,0.3438s1.0059,0.5449,1.4063,0.9453s0.7158,0.8691,0.9453,1.4063s0.3438,1.1084,0.3438,1.7139
			v0.6006l-1.8018,0.293v-0.9961c0-0.3613-0.0684-0.7012-0.2051-1.0186s-0.3223-0.5928-0.5566-0.8271s-0.5098-0.4199-0.8271-0.5566
			s-0.6572-0.2051-1.0186-0.2051h-1.2012c-0.3613,0-0.7002,0.0684-1.0176,0.2051s-0.5938,0.3223-0.8281,0.5566
			s-0.4199,0.5098-0.5566,0.8271s-0.2051,0.6572-0.2051,1.0186v6.9727c0,0.3613,0.0684,0.7002,0.2051,1.0176
			s0.3223,0.5938,0.5566,0.8281s0.5107,0.4199,0.8281,0.5566s0.6563,0.2051,1.0176,0.2051h1.2012
			c0.3613,0,0.7012-0.0684,1.0186-0.2051s0.5928-0.3223,0.8271-0.5566s0.4199-0.5107,0.5566-0.8281s0.2051-0.6563,0.2051-1.0176
			v-0.9961l1.8018,0.293v0.6006C142.1346,17.4951,142.0204,18.0664,141.7909,18.6035z"/>
		<path style="fill:#FFFFFF;" d="M146.1923,2.4023V0h2.0947v2.4023H146.1923z M146.3387,21.0059v-15h1.8018v15H146.3387z"/>
		<path style="fill:#FFFFFF;" d="M162.0204,18.6035c-0.2295,0.5371-0.5449,1.0059-0.9453,1.4063s-0.8691,0.7148-1.4063,0.9443
			s-1.1084,0.3447-1.7139,0.3447h-1.2012c-0.6055,0-1.1768-0.1152-1.7139-0.3447s-1.0059-0.5439-1.4063-0.9443
			s-0.7148-0.8691-0.9443-1.4063s-0.3447-1.1084-0.3447-1.7139v-6.7676c0-0.6055,0.1152-1.1768,0.3447-1.7139
			s0.5439-1.0059,0.9443-1.4063s0.8691-0.7158,1.4063-0.9453s1.1084-0.3438,1.7139-0.3438h1.2012
			c0.6055,0,1.1768,0.1143,1.7139,0.3438s1.0059,0.5449,1.4063,0.9453s0.7158,0.8691,0.9453,1.4063s0.3438,1.1084,0.3438,1.7139
			v6.7676C162.3641,17.4951,162.2499,18.0664,162.0204,18.6035z M160.5624,10.0195c0-0.3613-0.0684-0.7012-0.2051-1.0186
			s-0.3223-0.5928-0.5566-0.8271s-0.5098-0.4199-0.8271-0.5566s-0.6572-0.2051-1.0186-0.2051h-1.2012
			c-0.3613,0-0.7002,0.0684-1.0176,0.2051s-0.5938,0.3223-0.8281,0.5566s-0.4199,0.5098-0.5566,0.8271s-0.2051,0.6572-0.2051,1.0186
			v6.9727c0,0.3613,0.0684,0.7002,0.2051,1.0176s0.3223,0.5938,0.5566,0.8281s0.5107,0.4199,0.8281,0.5566
			s0.6563,0.2051,1.0176,0.2051h1.2012c0.3613,0,0.7012-0.0684,1.0186-0.2051s0.5928-0.3223,0.8271-0.5566
			s0.4199-0.5107,0.5566-0.8281s0.2051-0.6563,0.2051-1.0176V10.0195z M156.6073,3.6035h-1.3477L157.6473,0h3.0029L156.6073,3.6035z
			"/>
		<path style="fill:#FFFFFF;" d="M174.1854,21.0059V10.0195c0-0.3613-0.0684-0.7012-0.2051-1.0186s-0.3223-0.5928-0.5566-0.8271
			s-0.5098-0.4199-0.8271-0.5566s-0.6572-0.2051-1.0186-0.2051h-1.2012c-0.3613,0-0.7002,0.0684-1.0176,0.2051
			s-0.5938,0.3223-0.8281,0.5566s-0.4199,0.5098-0.5566,0.8271s-0.2051,0.6572-0.2051,1.0186v10.9863h-1.8018v-15h0.6006
			l0.9814,1.5234c0.4102-0.5566,0.9258-0.999,1.5459-1.3262s1.2959-0.4902,2.0283-0.4902h0.4541
			c0.6055,0,1.1768,0.1143,1.7139,0.3438s1.0059,0.5449,1.4063,0.9453s0.7158,0.8691,0.9453,1.4063s0.3438,1.1084,0.3438,1.7139
			v10.8838H174.1854z"/>
	</g>
</g>
<g>
	<g>
		<polygon style="fill:#FFFFFF;" points="236.8094,30.6276 6.4325,30.6276 6.4325,28.1886 235.8437,28.1886 		"/>
	</g>
	<path style="fill:#FFFFFF;" d="M15.6821,28.7357c0,4.3292-3.5322,7.86-7.8619,7.86C3.4477,36.5958,0,33.0649,0,28.7357
		c0-4.3722,3.4477-7.7341,7.8202-7.7341C12.15,21.0016,15.6821,24.3635,15.6821,28.7357z"/>
	<g>
		<path style="fill:#FFFFFF;" d="M245.0901,28.1047c0,4.3298-3.4867,7.8609-7.8584,7.8609c-4.2889,0-7.7785-3.5311-7.7785-7.8609
			c0-4.3722,3.4897-7.7764,7.7785-7.7764C241.6034,20.3283,245.0901,23.7324,245.0901,28.1047z"/>
		<g>
			<path style="fill:#FFFFFF;" d="M237.2317,44.7517c-9.1663,0-16.6064-7.399-16.6064-16.647
				c0-9.1221,7.4401-16.6884,16.6064-16.6884c9.2456,0,16.686,7.5662,16.686,16.6884
				C253.9177,37.3527,246.4773,44.7517,237.2317,44.7517z M237.2317,14.9468c-7.2731,0-13.2001,5.9279-13.2001,13.1579
				c0,7.315,5.927,13.2418,13.2001,13.2418c7.3139,0,13.2832-5.9268,13.2832-13.2418
				C250.5149,20.8746,244.5457,14.9468,237.2317,14.9468z"/>
		</g>
	</g>
</g>
</svg>
