<?xml version="1.0" encoding="utf-8"?>
<!-- Generator: Adobe Illustrator 21.0.0, SVG Export Plug-In . SVG Version: 6.00 Build 0)  -->
<svg version="1.1" id="Capa_1" xmlns="http://www.w3.org/2000/svg" xmlns:xlink="http://www.w3.org/1999/xlink" x="0px" y="0px"
	 viewBox="0 0 172.0088 10.3223" style="enable-background:new 0 0 172.0088 10.3223;" xml:space="preserve">
<g>
	<g>
		<path d="M0,8.0078v-7.874h1.5684L3.4316,5.709c0.1719,0.5195,0.2979,0.9082,0.377,1.166c0.0889-0.2871,0.2285-0.708,0.418-1.2627
			l1.8857-5.4785h1.4014v7.874H6.5098V1.418L4.2217,8.0078H3.2813L1.0039,1.3047v6.7031H0z"/>
		<path d="M12.3535,7.3047c-0.3584,0.3037-0.7031,0.5186-1.0342,0.6445c-0.3311,0.125-0.6865,0.1875-1.0654,0.1875
			c-0.627,0-1.1084-0.1533-1.4453-0.459C8.4717,7.3711,8.3037,6.9805,8.3037,6.5039c0-0.2793,0.0635-0.5342,0.1904-0.7656
			c0.127-0.2305,0.2939-0.416,0.5-0.5557s0.4375-0.2451,0.6953-0.3174c0.1895-0.0498,0.4766-0.0977,0.8594-0.1445
			c0.7803-0.0928,1.3555-0.2041,1.7246-0.333c0.0029-0.1328,0.0049-0.2168,0.0049-0.2529c0-0.3936-0.0908-0.6709-0.2744-0.832
			c-0.2461-0.2188-0.6133-0.3281-1.1006-0.3281c-0.4551,0-0.79,0.0801-1.0068,0.2393S9.5195,3.6553,9.416,4.0605L8.4707,3.9316
			c0.0859-0.4053,0.2266-0.7314,0.4238-0.9805S9.376,2.5107,9.748,2.376c0.373-0.1338,0.8047-0.2012,1.2949-0.2012
			c0.4873,0,0.8828,0.0576,1.1875,0.1719c0.3037,0.1143,0.5273,0.2588,0.6709,0.4326s0.2432,0.3926,0.3008,0.6582
			C13.2344,3.6016,13.25,3.8984,13.25,4.3281v1.2891c0,0.8994,0.0215,1.4678,0.0625,1.7061s0.1221,0.4658,0.2441,0.6846h-1.0098
			C12.4463,7.8076,12.3818,7.5723,12.3535,7.3047z M12.2734,5.1445c-0.3516,0.1436-0.8779,0.2656-1.5801,0.3652
			c-0.3965,0.0576-0.6777,0.1221-0.8428,0.1934c-0.165,0.0723-0.292,0.1768-0.3818,0.3145C9.3799,6.1553,9.335,6.3086,9.335,6.4766
			c0,0.2578,0.0977,0.4727,0.293,0.6445s0.4805,0.2578,0.8564,0.2578c0.3721,0,0.7031-0.0811,0.9941-0.2441
			c0.2891-0.1631,0.5029-0.3857,0.6387-0.668c0.1035-0.2188,0.1563-0.541,0.1563-0.9668V5.1445z"/>
		<path d="M14.2988,8.0078V2.3037h0.8691V3.168c0.2227-0.4043,0.4277-0.6709,0.6152-0.7998
			c0.1885-0.1289,0.3945-0.1934,0.6211-0.1934c0.3252,0,0.6563,0.1035,0.9932,0.3115l-0.333,0.8965
			c-0.2363-0.1387-0.4727-0.209-0.709-0.209c-0.2109,0-0.4014,0.0635-0.5693,0.1904S15.498,3.668,15.4258,3.8936
			c-0.1074,0.3438-0.1602,0.7197-0.1602,1.1279v2.9863H14.2988z"/>
		<path d="M17.5381,1.2461V0.1338h0.9668v1.1123H17.5381z M17.5381,8.0078V2.3037h0.9668v5.7041H17.5381z"/>
		<path d="M23.2588,7.3047c-0.3584,0.3037-0.7031,0.5186-1.0342,0.6445c-0.3311,0.125-0.6865,0.1875-1.0654,0.1875
			c-0.627,0-1.1084-0.1533-1.4453-0.459C19.377,7.3711,19.209,6.9805,19.209,6.5039c0-0.2793,0.0635-0.5342,0.1904-0.7656
			c0.127-0.2305,0.2939-0.416,0.5-0.5557s0.4375-0.2451,0.6953-0.3174c0.1895-0.0498,0.4766-0.0977,0.8594-0.1445
			c0.7803-0.0928,1.3555-0.2041,1.7246-0.333c0.0029-0.1328,0.0049-0.2168,0.0049-0.2529c0-0.3936-0.0908-0.6709-0.2744-0.832
			c-0.2461-0.2188-0.6133-0.3281-1.1006-0.3281c-0.4551,0-0.79,0.0801-1.0068,0.2393s-0.377,0.4414-0.4805,0.8467L19.376,3.9316
			c0.0859-0.4053,0.2266-0.7314,0.4238-0.9805s0.4814-0.4404,0.8535-0.5752c0.373-0.1338,0.8047-0.2012,1.2949-0.2012
			c0.4873,0,0.8828,0.0576,1.1875,0.1719c0.3037,0.1143,0.5273,0.2588,0.6709,0.4326s0.2432,0.3926,0.3008,0.6582
			c0.0322,0.1641,0.0479,0.4609,0.0479,0.8906v1.2891c0,0.8994,0.0215,1.4678,0.0625,1.7061s0.1221,0.4658,0.2441,0.6846h-1.0098
			C23.3516,7.8076,23.2871,7.5723,23.2588,7.3047z M23.1787,5.1445c-0.3516,0.1436-0.8779,0.2656-1.5801,0.3652
			c-0.3965,0.0576-0.6777,0.1221-0.8428,0.1934c-0.165,0.0723-0.292,0.1768-0.3818,0.3145c-0.0889,0.1377-0.1338,0.291-0.1338,0.459
			c0,0.2578,0.0977,0.4727,0.293,0.6445s0.4805,0.2578,0.8564,0.2578c0.3721,0,0.7031-0.0811,0.9941-0.2441
			c0.2891-0.1631,0.5029-0.3857,0.6387-0.668C23.126,6.248,23.1787,5.9258,23.1787,5.5V5.1445z"/>
		<path d="M25.2139,8.0078V2.3037h0.8711v0.8115c0.418-0.627,1.0234-0.9404,1.8145-0.9404c0.3438,0,0.6602,0.0615,0.9482,0.1855
			c0.2881,0.123,0.5039,0.2852,0.6475,0.4854c0.1436,0.2012,0.2432,0.4395,0.3008,0.7148C29.832,3.7393,29.8496,4.0527,29.8496,4.5
			v3.5078h-0.9668V4.5381c0-0.3936-0.0381-0.6885-0.1123-0.8838c-0.0762-0.1953-0.209-0.3506-0.4004-0.4668
			s-0.416-0.1748-0.6738-0.1748c-0.4121,0-0.7676,0.1309-1.0664,0.3916c-0.2988,0.2617-0.4492,0.7578-0.4492,1.4883v3.1152H25.2139z
			"/>
		<path d="M35.6504,8.0078V4.6719l-3.0342-4.5381h1.2676l1.5518,2.374c0.2871,0.4443,0.5537,0.8877,0.8008,1.332
			c0.2363-0.4121,0.5225-0.875,0.8594-1.3906l1.5254-2.3154h1.2139l-3.1416,4.5381v3.3359H35.6504z"/>
		<path d="M43.1123,7.3047c-0.3584,0.3037-0.7031,0.5186-1.0342,0.6445c-0.3311,0.125-0.6865,0.1875-1.0654,0.1875
			c-0.627,0-1.1084-0.1533-1.4453-0.459c-0.3369-0.3066-0.5049-0.6973-0.5049-1.1738c0-0.2793,0.0635-0.5342,0.1904-0.7656
			c0.127-0.2305,0.2939-0.416,0.5-0.5557s0.4375-0.2451,0.6953-0.3174c0.1895-0.0498,0.4766-0.0977,0.8594-0.1445
			c0.7803-0.0928,1.3555-0.2041,1.7246-0.333c0.0029-0.1328,0.0049-0.2168,0.0049-0.2529c0-0.3936-0.0908-0.6709-0.2744-0.832
			c-0.2461-0.2188-0.6133-0.3281-1.1006-0.3281c-0.4551,0-0.79,0.0801-1.0068,0.2393s-0.377,0.4414-0.4805,0.8467l-0.9453-0.1289
			c0.0859-0.4053,0.2266-0.7314,0.4238-0.9805s0.4814-0.4404,0.8535-0.5752c0.373-0.1338,0.8047-0.2012,1.2949-0.2012
			c0.4873,0,0.8828,0.0576,1.1875,0.1719c0.3037,0.1143,0.5273,0.2588,0.6709,0.4326s0.2432,0.3926,0.3008,0.6582
			c0.0322,0.1641,0.0479,0.4609,0.0479,0.8906v1.2891c0,0.8994,0.0215,1.4678,0.0625,1.7061s0.1221,0.4658,0.2441,0.6846h-1.0098
			C43.2051,7.8076,43.1406,7.5723,43.1123,7.3047z M43.0322,5.1445c-0.3516,0.1436-0.8779,0.2656-1.5801,0.3652
			c-0.3965,0.0576-0.6777,0.1221-0.8428,0.1934c-0.165,0.0723-0.292,0.1768-0.3818,0.3145c-0.0889,0.1377-0.1338,0.291-0.1338,0.459
			c0,0.2578,0.0977,0.4727,0.293,0.6445s0.4805,0.2578,0.8564,0.2578c0.3721,0,0.7031-0.0811,0.9941-0.2441
			c0.2891-0.1631,0.5029-0.3857,0.6387-0.668c0.1035-0.2188,0.1563-0.541,0.1563-0.9668V5.1445z"/>
		<path d="M45.0566,8.0078V2.3037h0.8691V3.168c0.2227-0.4043,0.4277-0.6709,0.6152-0.7998
			c0.1885-0.1289,0.3945-0.1934,0.6211-0.1934c0.3252,0,0.6563,0.1035,0.9932,0.3115l-0.333,0.8965
			c-0.2363-0.1387-0.4727-0.209-0.709-0.209c-0.2109,0-0.4014,0.0635-0.5693,0.1904s-0.2881,0.3037-0.3604,0.5293
			c-0.1074,0.3438-0.1602,0.7197-0.1602,1.1279v2.9863H45.0566z"/>
		<path d="M48.2959,1.2461V0.1338h0.9668v1.1123H48.2959z M48.2959,8.0078V2.3037h0.9668v5.7041H48.2959z"/>
		<path d="M52.4053,7.1426l0.1396,0.8545c-0.2725,0.0576-0.5156,0.0859-0.7305,0.0859c-0.3506,0-0.623-0.0557-0.8164-0.167
			c-0.1934-0.1104-0.3291-0.2568-0.4082-0.4375s-0.1182-0.5605-0.1182-1.1406V3.0557h-0.709v-0.752h0.709V0.8906l0.9609-0.5801
			v1.9932h0.9727v0.752h-0.9727v3.335c0,0.2764,0.0176,0.4531,0.0518,0.5322s0.0889,0.1416,0.166,0.1885
			c0.0771,0.0459,0.1875,0.0693,0.3311,0.0693C52.0889,7.1807,52.2295,7.168,52.4053,7.1426z"/>
		<path d="M52.9102,8.0078v-7.874h0.9668V2.959c0.4512-0.5225,1.0215-0.7842,1.709-0.7842c0.4219,0,0.7891,0.083,1.1006,0.25
			c0.3115,0.166,0.5342,0.3965,0.6689,0.6904c0.1338,0.293,0.2012,0.7188,0.2012,1.2773v3.6152h-0.9668V4.3926
			c0-0.4824-0.1045-0.835-0.3145-1.0547c-0.209-0.2207-0.5059-0.3301-0.8887-0.3301c-0.2861,0-0.5557,0.0742-0.8086,0.2227
			c-0.252,0.1484-0.4316,0.3496-0.5391,0.6035c-0.1074,0.2549-0.1621,0.6055-0.1621,1.0527v3.1211H52.9102z"/>
		<path d="M66.9463,5.2471l1.042,0.2627c-0.2188,0.8564-0.6113,1.5088-1.1787,1.958s-1.2617,0.6748-2.082,0.6748
			c-0.8477,0-1.5381-0.1729-2.0703-0.5186c-0.5313-0.3457-0.9365-0.8467-1.2139-1.501c-0.2773-0.6563-0.416-1.3594-0.416-2.1113
			c0-0.8203,0.1563-1.5352,0.4697-2.1455s0.7598-1.0742,1.3379-1.3916C63.4131,0.1582,64.0498,0,64.7441,0
			c0.7881,0,1.4502,0.2002,1.9873,0.6016c0.5371,0.4004,0.9111,0.9648,1.123,1.6914l-1.0264,0.2422
			c-0.1826-0.5732-0.4473-0.9902-0.7949-1.252s-0.7842-0.3926-1.3105-0.3926c-0.6055,0-1.1113,0.1455-1.5176,0.4355
			s-0.6914,0.6797-0.8564,1.168c-0.165,0.4893-0.2471,0.9932-0.2471,1.5117c0,0.6699,0.0977,1.2549,0.293,1.7539
			c0.1953,0.5,0.498,0.873,0.9102,1.1201S64.1621,7.25,64.6416,7.25c0.584,0,1.0781-0.168,1.4824-0.5039
			C66.5293,6.4092,66.8027,5.9092,66.9463,5.2471z"/>
		<path d="M72.4307,7.3047c-0.3584,0.3037-0.7031,0.5186-1.0342,0.6445c-0.3311,0.125-0.6865,0.1875-1.0654,0.1875
			c-0.627,0-1.1084-0.1533-1.4453-0.459c-0.3369-0.3066-0.5049-0.6973-0.5049-1.1738c0-0.2793,0.0635-0.5342,0.1904-0.7656
			c0.127-0.2305,0.2939-0.416,0.5-0.5557s0.4375-0.2451,0.6953-0.3174c0.1895-0.0498,0.4766-0.0977,0.8594-0.1445
			c0.7803-0.0928,1.3555-0.2041,1.7246-0.333c0.0029-0.1328,0.0049-0.2168,0.0049-0.2529c0-0.3936-0.0908-0.6709-0.2744-0.832
			c-0.2461-0.2188-0.6133-0.3281-1.1006-0.3281c-0.4551,0-0.79,0.0801-1.0068,0.2393s-0.377,0.4414-0.4805,0.8467l-0.9453-0.1289
			c0.0859-0.4053,0.2266-0.7314,0.4238-0.9805s0.4814-0.4404,0.8535-0.5752c0.373-0.1338,0.8047-0.2012,1.2949-0.2012
			c0.4873,0,0.8828,0.0576,1.1875,0.1719c0.3037,0.1143,0.5273,0.2588,0.6709,0.4326s0.2432,0.3926,0.3008,0.6582
			c0.0322,0.1641,0.0479,0.4609,0.0479,0.8906v1.2891c0,0.8994,0.0215,1.4678,0.0625,1.7061s0.1221,0.4658,0.2441,0.6846H72.624
			C72.5234,7.8076,72.459,7.5723,72.4307,7.3047z M72.3506,5.1445c-0.3516,0.1436-0.8779,0.2656-1.5801,0.3652
			c-0.3965,0.0576-0.6777,0.1221-0.8428,0.1934c-0.165,0.0723-0.292,0.1768-0.3818,0.3145c-0.0889,0.1377-0.1338,0.291-0.1338,0.459
			c0,0.2578,0.0977,0.4727,0.293,0.6445s0.4805,0.2578,0.8564,0.2578c0.3721,0,0.7031-0.0811,0.9941-0.2441
			c0.2891-0.1631,0.5029-0.3857,0.6387-0.668c0.1035-0.2188,0.1563-0.541,0.1563-0.9668V5.1445z"/>
		<path d="M74.376,8.0078V2.3037h0.8691V3.168c0.2227-0.4043,0.4277-0.6709,0.6152-0.7998
			c0.1885-0.1289,0.3945-0.1934,0.6211-0.1934c0.3252,0,0.6563,0.1035,0.9932,0.3115l-0.333,0.8965
			c-0.2363-0.1387-0.4727-0.209-0.709-0.209c-0.2109,0-0.4014,0.0635-0.5693,0.1904s-0.2881,0.3037-0.3604,0.5293
			c-0.1074,0.3438-0.1602,0.7197-0.1602,1.1279v2.9863H74.376z"/>
		<path d="M79.1934,8.0078l-2.1699-5.7041h1.0205l1.2246,3.416c0.1328,0.3691,0.2539,0.752,0.3652,1.1494
			c0.0859-0.3008,0.2061-0.6621,0.3594-1.085l1.2676-3.4805h0.9941l-2.1592,5.7041H79.1934z"/>
		<path d="M86.3906,7.3047c-0.3584,0.3037-0.7031,0.5186-1.0342,0.6445c-0.3311,0.125-0.6865,0.1875-1.0654,0.1875
			c-0.627,0-1.1084-0.1533-1.4453-0.459c-0.3369-0.3066-0.5049-0.6973-0.5049-1.1738c0-0.2793,0.0635-0.5342,0.1904-0.7656
			c0.127-0.2305,0.2939-0.416,0.5-0.5557s0.4375-0.2451,0.6953-0.3174c0.1895-0.0498,0.4766-0.0977,0.8594-0.1445
			c0.7803-0.0928,1.3555-0.2041,1.7246-0.333c0.0029-0.1328,0.0049-0.2168,0.0049-0.2529c0-0.3936-0.0908-0.6709-0.2744-0.832
			c-0.2461-0.2188-0.6133-0.3281-1.1006-0.3281c-0.4551,0-0.79,0.0801-1.0068,0.2393s-0.377,0.4414-0.4805,0.8467l-0.9453-0.1289
			c0.0859-0.4053,0.2266-0.7314,0.4238-0.9805s0.4814-0.4404,0.8535-0.5752c0.373-0.1338,0.8047-0.2012,1.2949-0.2012
			c0.4873,0,0.8828,0.0576,1.1875,0.1719c0.3037,0.1143,0.5273,0.2588,0.6709,0.4326s0.2432,0.3926,0.3008,0.6582
			c0.0322,0.1641,0.0479,0.4609,0.0479,0.8906v1.2891c0,0.8994,0.0215,1.4678,0.0625,1.7061s0.1221,0.4658,0.2441,0.6846H86.584
			C86.4834,7.8076,86.4189,7.5723,86.3906,7.3047z M86.3105,5.1445c-0.3516,0.1436-0.8779,0.2656-1.5801,0.3652
			c-0.3965,0.0576-0.6777,0.1221-0.8428,0.1934c-0.165,0.0723-0.292,0.1768-0.3818,0.3145c-0.0889,0.1377-0.1338,0.291-0.1338,0.459
			c0,0.2578,0.0977,0.4727,0.293,0.6445s0.4805,0.2578,0.8564,0.2578c0.3721,0,0.7031-0.0811,0.9941-0.2441
			c0.2891-0.1631,0.5029-0.3857,0.6387-0.668c0.1035-0.2188,0.1563-0.541,0.1563-0.9668V5.1445z"/>
		<path d="M87.1162,10.2207l0.1826-0.8223c0.1934,0.0508,0.3457,0.0762,0.457,0.0762c0.1963,0,0.3438-0.0654,0.4395-0.1963
			c0.0977-0.1309,0.1455-0.458,0.1455-0.9805V2.3037h0.9668v6.0156c0,0.7021-0.0908,1.1904-0.2744,1.4658
			c-0.2324,0.3584-0.6191,0.5371-1.1602,0.5371C87.6123,10.3223,87.3594,10.2891,87.1162,10.2207z M88.3408,1.2559V0.1338h0.9668
			v1.1221H88.3408z"/>
		<path d="M94.0723,7.3047c-0.3584,0.3037-0.7031,0.5186-1.0342,0.6445c-0.3311,0.125-0.6865,0.1875-1.0654,0.1875
			c-0.627,0-1.1084-0.1533-1.4453-0.459c-0.3369-0.3066-0.5049-0.6973-0.5049-1.1738c0-0.2793,0.0635-0.5342,0.1904-0.7656
			c0.127-0.2305,0.2939-0.416,0.5-0.5557s0.4375-0.2451,0.6953-0.3174c0.1895-0.0498,0.4766-0.0977,0.8594-0.1445
			c0.7803-0.0928,1.3555-0.2041,1.7246-0.333c0.0029-0.1328,0.0049-0.2168,0.0049-0.2529c0-0.3936-0.0908-0.6709-0.2744-0.832
			c-0.2461-0.2188-0.6133-0.3281-1.1006-0.3281c-0.4551,0-0.79,0.0801-1.0068,0.2393s-0.377,0.4414-0.4805,0.8467l-0.9453-0.1289
			c0.0859-0.4053,0.2266-0.7314,0.4238-0.9805s0.4814-0.4404,0.8535-0.5752c0.373-0.1338,0.8047-0.2012,1.2949-0.2012
			c0.4873,0,0.8828,0.0576,1.1875,0.1719c0.3037,0.1143,0.5273,0.2588,0.6709,0.4326s0.2432,0.3926,0.3008,0.6582
			c0.0322,0.1641,0.0479,0.4609,0.0479,0.8906v1.2891c0,0.8994,0.0215,1.4678,0.0625,1.7061s0.1221,0.4658,0.2441,0.6846h-1.0098
			C94.165,7.8076,94.1006,7.5723,94.0723,7.3047z M93.9922,5.1445c-0.3516,0.1436-0.8779,0.2656-1.5801,0.3652
			c-0.3965,0.0576-0.6777,0.1221-0.8428,0.1934c-0.165,0.0723-0.292,0.1768-0.3818,0.3145c-0.0889,0.1377-0.1338,0.291-0.1338,0.459
			c0,0.2578,0.0977,0.4727,0.293,0.6445s0.4805,0.2578,0.8564,0.2578c0.3721,0,0.7031-0.0811,0.9941-0.2441
			c0.2891-0.1631,0.5029-0.3857,0.6387-0.668c0.1035-0.2188,0.1563-0.541,0.1563-0.9668V5.1445z"/>
		<path d="M96.0059,8.0078v-7.874h0.9668v7.874H96.0059z"/>
		<path d="M106.3896,5.2471l1.042,0.2627c-0.2188,0.8564-0.6113,1.5088-1.1787,1.958s-1.2617,0.6748-2.082,0.6748
			c-0.8477,0-1.5381-0.1729-2.0703-0.5186c-0.5313-0.3457-0.9365-0.8467-1.2139-1.501c-0.2773-0.6563-0.416-1.3594-0.416-2.1113
			c0-0.8203,0.1563-1.5352,0.4697-2.1455s0.7598-1.0742,1.3379-1.3916C102.8564,0.1582,103.4932,0,104.1875,0
			c0.7881,0,1.4502,0.2002,1.9873,0.6016c0.5371,0.4004,0.9111,0.9648,1.123,1.6914l-1.0264,0.2422
			c-0.1826-0.5732-0.4473-0.9902-0.7949-1.252s-0.7842-0.3926-1.3105-0.3926c-0.6055,0-1.1113,0.1455-1.5176,0.4355
			s-0.6914,0.6797-0.8564,1.168c-0.165,0.4893-0.2471,0.9932-0.2471,1.5117c0,0.6699,0.0977,1.2549,0.293,1.7539
			c0.1953,0.5,0.498,0.873,0.9102,1.1201S103.6055,7.25,104.085,7.25c0.584,0,1.0781-0.168,1.4824-0.5039
			C105.9727,6.4092,106.2461,5.9092,106.3896,5.2471z"/>
		<path d="M111.874,7.3047c-0.3584,0.3037-0.7031,0.5186-1.0342,0.6445c-0.3311,0.125-0.6865,0.1875-1.0654,0.1875
			c-0.627,0-1.1084-0.1533-1.4453-0.459c-0.3369-0.3066-0.5049-0.6973-0.5049-1.1738c0-0.2793,0.0635-0.5342,0.1904-0.7656
			c0.127-0.2305,0.2939-0.416,0.5-0.5557s0.4375-0.2451,0.6953-0.3174c0.1895-0.0498,0.4766-0.0977,0.8594-0.1445
			c0.7803-0.0928,1.3555-0.2041,1.7246-0.333c0.0029-0.1328,0.0049-0.2168,0.0049-0.2529c0-0.3936-0.0908-0.6709-0.2744-0.832
			c-0.2461-0.2188-0.6133-0.3281-1.1006-0.3281c-0.4551,0-0.79,0.0801-1.0068,0.2393s-0.377,0.4414-0.4805,0.8467l-0.9453-0.1289
			c0.0859-0.4053,0.2266-0.7314,0.4238-0.9805s0.4814-0.4404,0.8535-0.5752c0.373-0.1338,0.8047-0.2012,1.2949-0.2012
			c0.4873,0,0.8828,0.0576,1.1875,0.1719c0.3037,0.1143,0.5273,0.2588,0.6709,0.4326s0.2432,0.3926,0.3008,0.6582
			c0.0322,0.1641,0.0479,0.4609,0.0479,0.8906v1.2891c0,0.8994,0.0215,1.4678,0.0625,1.7061s0.1221,0.4658,0.2441,0.6846h-1.0098
			C111.9668,7.8076,111.9023,7.5723,111.874,7.3047z M111.7939,5.1445c-0.3516,0.1436-0.8779,0.2656-1.5801,0.3652
			c-0.3965,0.0576-0.6777,0.1221-0.8428,0.1934c-0.165,0.0723-0.292,0.1768-0.3818,0.3145c-0.0889,0.1377-0.1338,0.291-0.1338,0.459
			c0,0.2578,0.0977,0.4727,0.293,0.6445s0.4805,0.2578,0.8564,0.2578c0.3721,0,0.7031-0.0811,0.9941-0.2441
			c0.2891-0.1631,0.5029-0.3857,0.6387-0.668c0.1035-0.2188,0.1563-0.541,0.1563-0.9668V5.1445z"/>
		<path d="M113.4424,6.3047l0.957-0.1504c0.0527,0.3838,0.2031,0.6777,0.4482,0.8809c0.2451,0.2051,0.5879,0.3066,1.0283,0.3066
			c0.4443,0,0.7734-0.0908,0.9883-0.2715s0.3223-0.3926,0.3223-0.6367c0-0.2178-0.0947-0.3896-0.2852-0.5156
			c-0.1318-0.0859-0.4609-0.1943-0.9883-0.3271c-0.709-0.1787-1.2002-0.334-1.4736-0.4648c-0.2744-0.1309-0.4814-0.3115-0.623-0.542
			c-0.1416-0.2314-0.2119-0.4863-0.2119-0.7656c0-0.2539,0.0576-0.4893,0.1738-0.7061s0.2754-0.3965,0.4756-0.54
			c0.1504-0.1113,0.3555-0.2051,0.6152-0.2822s0.5381-0.1152,0.835-0.1152c0.4473,0,0.8408,0.0645,1.1787,0.1934
			c0.3389,0.1289,0.5889,0.3037,0.749,0.5234c0.1621,0.2207,0.2725,0.5146,0.334,0.8838l-0.9453,0.1289
			c-0.043-0.2939-0.168-0.5225-0.374-0.6875s-0.4971-0.2471-0.8721-0.2471c-0.4443,0-0.7617,0.0732-0.9512,0.2197
			c-0.1895,0.1475-0.2852,0.3193-0.2852,0.5156c0,0.126,0.04,0.2383,0.1191,0.3389c0.0781,0.1035,0.2021,0.1895,0.3701,0.2578
			c0.0967,0.0361,0.3818,0.1182,0.8545,0.2471c0.6836,0.1826,1.1602,0.332,1.4307,0.4482s0.4824,0.2861,0.6367,0.5078
			s0.2314,0.498,0.2314,0.8271c0,0.3223-0.0947,0.626-0.2822,0.9102c-0.1885,0.2852-0.46,0.5049-0.8135,0.6611
			c-0.3555,0.1553-0.7559,0.2334-1.2031,0.2334c-0.7422,0-1.3066-0.1543-1.6953-0.4619S113.5498,6.9102,113.4424,6.3047z"/>
		<path d="M121,7.1426l0.1396,0.8545c-0.2725,0.0576-0.5156,0.0859-0.7305,0.0859c-0.3506,0-0.623-0.0557-0.8164-0.167
			c-0.1934-0.1104-0.3291-0.2568-0.4082-0.4375s-0.1182-0.5605-0.1182-1.1406V3.0557h-0.709v-0.752h0.709V0.8906l0.9609-0.5801
			v1.9932H121v0.752h-0.9727v3.335c0,0.2764,0.0176,0.4531,0.0518,0.5322s0.0889,0.1416,0.166,0.1885
			c0.0771,0.0459,0.1875,0.0693,0.3311,0.0693C120.6836,7.1807,120.8242,7.168,121,7.1426z"/>
		<path d="M125.4102,6.1709l0.999,0.124c-0.1572,0.583-0.4492,1.0361-0.875,1.3584c-0.4268,0.3223-0.9707,0.4834-1.6328,0.4834
			c-0.835,0-1.4961-0.2568-1.9854-0.7705c-0.4883-0.5137-0.7334-1.2344-0.7334-2.1621c0-0.96,0.248-1.7041,0.7422-2.2344
			s1.1348-0.7949,1.9219-0.7949c0.7637,0,1.3867,0.2598,1.8691,0.7783c0.4844,0.5195,0.7256,1.25,0.7256,2.1914
			c0,0.0576-0.002,0.1436-0.0049,0.2578h-4.2539c0.0352,0.627,0.2129,1.1074,0.5313,1.4395c0.3184,0.334,0.7158,0.5,1.1924,0.5
			c0.3545,0,0.6572-0.0928,0.9072-0.2793C125.0645,6.876,125.2637,6.5791,125.4102,6.1709z M122.2354,4.6074h3.1855
			c-0.043-0.4795-0.165-0.8389-0.3652-1.0791c-0.3076-0.3721-0.707-0.5586-1.1973-0.5586c-0.4443,0-0.8174,0.1484-1.1201,0.4463
			C122.4355,3.7129,122.2686,4.1104,122.2354,4.6074z"/>
		<path d="M127.1611,8.0078v-7.874h0.9668v7.874H127.1611z"/>
		<path d="M129.165,8.0078v-7.874h0.9668v7.874H129.165z"/>
		<path d="M134.9131,7.3047c-0.3584,0.3037-0.7031,0.5186-1.0342,0.6445c-0.3311,0.125-0.6865,0.1875-1.0654,0.1875
			c-0.627,0-1.1084-0.1533-1.4453-0.459c-0.3369-0.3066-0.5049-0.6973-0.5049-1.1738c0-0.2793,0.0635-0.5342,0.1904-0.7656
			c0.127-0.2305,0.2939-0.416,0.5-0.5557s0.4375-0.2451,0.6953-0.3174c0.1895-0.0498,0.4766-0.0977,0.8594-0.1445
			c0.7803-0.0928,1.3555-0.2041,1.7246-0.333c0.0029-0.1328,0.0049-0.2168,0.0049-0.2529c0-0.3936-0.0908-0.6709-0.2744-0.832
			c-0.2461-0.2188-0.6133-0.3281-1.1006-0.3281c-0.4551,0-0.79,0.0801-1.0068,0.2393s-0.377,0.4414-0.4805,0.8467l-0.9453-0.1289
			c0.0859-0.4053,0.2266-0.7314,0.4238-0.9805s0.4814-0.4404,0.8535-0.5752c0.373-0.1338,0.8047-0.2012,1.2949-0.2012
			c0.4873,0,0.8828,0.0576,1.1875,0.1719c0.3037,0.1143,0.5273,0.2588,0.6709,0.4326s0.2432,0.3926,0.3008,0.6582
			c0.0322,0.1641,0.0479,0.4609,0.0479,0.8906v1.2891c0,0.8994,0.0215,1.4678,0.0625,1.7061s0.1221,0.4658,0.2441,0.6846h-1.0098
			C135.0059,7.8076,134.9414,7.5723,134.9131,7.3047z M134.833,5.1445c-0.3516,0.1436-0.8779,0.2656-1.5801,0.3652
			c-0.3965,0.0576-0.6777,0.1221-0.8428,0.1934c-0.165,0.0723-0.292,0.1768-0.3818,0.3145c-0.0889,0.1377-0.1338,0.291-0.1338,0.459
			c0,0.2578,0.0977,0.4727,0.293,0.6445s0.4805,0.2578,0.8564,0.2578c0.3721,0,0.7031-0.0811,0.9941-0.2441
			c0.2891-0.1631,0.5029-0.3857,0.6387-0.668c0.1035-0.2188,0.1563-0.541,0.1563-0.9668V5.1445z"/>
		<path d="M136.8682,8.0078V2.3037h0.8711v0.8115c0.418-0.627,1.0234-0.9404,1.8145-0.9404c0.3438,0,0.6602,0.0615,0.9482,0.1855
			c0.2881,0.123,0.5039,0.2852,0.6475,0.4854c0.1436,0.2012,0.2432,0.4395,0.3008,0.7148c0.0361,0.1787,0.0537,0.4922,0.0537,0.9395
			v3.5078h-0.9668V4.5381c0-0.3936-0.0381-0.6885-0.1123-0.8838c-0.0762-0.1953-0.209-0.3506-0.4004-0.4668
			s-0.416-0.1748-0.6738-0.1748c-0.4121,0-0.7676,0.1309-1.0664,0.3916c-0.2988,0.2617-0.4492,0.7578-0.4492,1.4883v3.1152H136.8682
			z"/>
		<path d="M142.1865,5.1563c0-1.0566,0.2939-1.8389,0.8809-2.3477c0.4902-0.4229,1.0889-0.6338,1.7939-0.6338
			c0.7842,0,1.4248,0.2568,1.9229,0.7705s0.7461,1.2236,0.7461,2.1299c0,0.7344-0.1094,1.3115-0.3301,1.7324
			c-0.2197,0.4209-0.54,0.7471-0.9609,0.9795c-0.4209,0.2334-0.8799,0.3496-1.3779,0.3496c-0.7988,0-1.4443-0.2559-1.9365-0.7676
			C142.4326,6.8564,142.1865,6.1191,142.1865,5.1563z M143.1807,5.1563c0,0.7305,0.1592,1.2773,0.4775,1.6406
			s0.7197,0.5449,1.2031,0.5449c0.4795,0,0.8789-0.1826,1.1982-0.5479c0.3184-0.3652,0.4775-0.9219,0.4775-1.6709
			c0-0.7051-0.1602-1.2393-0.4805-1.6025s-0.7188-0.5459-1.1953-0.5459c-0.4834,0-0.8848,0.1816-1.2031,0.543
			S143.1807,4.4258,143.1807,5.1563z"/>
		<path d="M147.8369,6.3047l0.957-0.1504c0.0527,0.3838,0.2031,0.6777,0.4482,0.8809c0.2451,0.2051,0.5879,0.3066,1.0283,0.3066
			c0.4443,0,0.7734-0.0908,0.9883-0.2715s0.3223-0.3926,0.3223-0.6367c0-0.2178-0.0947-0.3896-0.2852-0.5156
			c-0.1318-0.0859-0.4609-0.1943-0.9883-0.3271c-0.709-0.1787-1.2002-0.334-1.4736-0.4648c-0.2744-0.1309-0.4814-0.3115-0.623-0.542
			c-0.1416-0.2314-0.2119-0.4863-0.2119-0.7656c0-0.2539,0.0576-0.4893,0.1738-0.7061s0.2754-0.3965,0.4756-0.54
			c0.1504-0.1113,0.3555-0.2051,0.6152-0.2822s0.5381-0.1152,0.835-0.1152c0.4473,0,0.8408,0.0645,1.1787,0.1934
			c0.3389,0.1289,0.5889,0.3037,0.749,0.5234c0.1621,0.2207,0.2725,0.5146,0.334,0.8838l-0.9453,0.1289
			c-0.043-0.2939-0.168-0.5225-0.374-0.6875s-0.4971-0.2471-0.8721-0.2471c-0.4443,0-0.7617,0.0732-0.9512,0.2197
			c-0.1895,0.1475-0.2852,0.3193-0.2852,0.5156c0,0.126,0.04,0.2383,0.1191,0.3389c0.0781,0.1035,0.2021,0.1895,0.3701,0.2578
			c0.0967,0.0361,0.3818,0.1182,0.8545,0.2471c0.6836,0.1826,1.1602,0.332,1.4307,0.4482s0.4824,0.2861,0.6367,0.5078
			s0.2314,0.498,0.2314,0.8271c0,0.3223-0.0947,0.626-0.2822,0.9102c-0.1885,0.2852-0.46,0.5049-0.8135,0.6611
			c-0.3555,0.1553-0.7559,0.2334-1.2031,0.2334c-0.7422,0-1.3066-0.1543-1.6953-0.4619S147.9443,6.9102,147.8369,6.3047z"/>
		<path d="M155.5244,5.6445V4.6719h2.9697v0.9727H155.5244z"/>
		<path d="M164.1143,8.0078l-3.0508-7.874h1.127l2.0469,5.7197c0.165,0.459,0.3027,0.8887,0.4141,1.2891
			c0.1211-0.4297,0.2627-0.8594,0.4238-1.2891l2.127-5.7197h1.0635l-3.083,7.874H164.1143z"/>
		<path d="M172.0088,8.0078h-0.9668V1.8477c-0.2324,0.2217-0.5371,0.4434-0.915,0.666c-0.3779,0.2217-0.7178,0.3877-1.0186,0.499
			V2.0781c0.541-0.2539,1.0137-0.5625,1.418-0.9238c0.4053-0.3613,0.6914-0.7129,0.8594-1.0527h0.623V8.0078z"/>
	</g>
</g>
</svg>
