<?xml version="1.0" encoding="utf-8"?>
<!-- Generator: Adobe Illustrator 21.0.0, SVG Export Plug-In . SVG Version: 6.00 Build 0)  -->
<svg version="1.1" id="Capa_1" xmlns="http://www.w3.org/2000/svg" xmlns:xlink="http://www.w3.org/1999/xlink" x="0px" y="0px"
	 viewBox="0 0 351.9177 52.045" style="enable-background:new 0 0 351.9177 52.045;" xml:space="preserve">
<g>
	<g>
		<path d="M29.463,12.6563h1.8896v0.5713c0,0.6445-0.0781,1.2061-0.2344,1.6846s-0.3638,0.8984-0.6226,1.2598
			s-0.5518,0.6836-0.8789,0.9668s-0.6641,0.5542-1.0107,0.813s-0.6836,0.52-1.0107,0.7837s-0.6201,0.5566-0.8789,0.8789
			s-0.4663,0.6885-0.6226,1.0986s-0.2344,0.8936-0.2344,1.4502v0.2783c0,0.4688,0.0879,0.9058,0.2637,1.311
			s0.4175,0.7588,0.7251,1.0615s0.6641,0.542,1.0693,0.7178s0.8423,0.2637,1.311,0.2637h0.4102c0.4688,0,0.9058-0.0879,1.311-0.2637
			s0.7617-0.415,1.0693-0.7178c0.3076-0.3027,0.5493-0.6563,0.7251-1.0615s0.2637-0.8423,0.2637-1.311v-0.8496l1.8896,0.3076v0.542
			c0,0.7129-0.1343,1.3813-0.4028,2.0063s-0.6372,1.1719-1.106,1.6406s-1.0156,0.8379-1.6406,1.1064
			c-0.625,0.2686-1.2939,0.4023-2.0068,0.4023h-0.6006c-0.7129,0-1.3843-0.1338-2.0142-0.4023s-1.1792-0.6377-1.6479-1.1064
			s-0.8374-1.0156-1.106-1.6406s-0.4028-1.2935-0.4028-2.0063v-0.2783c0-0.6738,0.0781-1.2646,0.2344-1.7725
			s0.3638-0.957,0.6226-1.3477s0.5518-0.7373,0.8789-1.04s0.6641-0.5859,1.0107-0.8496s0.6836-0.5225,1.0107-0.7764
			s0.6201-0.5322,0.8789-0.835s0.4663-0.6396,0.6226-1.0107s0.2344-0.8057,0.2344-1.3037V12.6563z M31.5284,6.2988v2.2559h-2.2412
			V6.2988H31.5284z"/>
		<path d="M49.9415,18.3691c-0.2441,0.6055-0.5811,1.1377-1.0107,1.5967s-0.9351,0.8325-1.5161,1.1206s-1.2036,0.4565-1.8677,0.5054
			l1.9189,4.3208h-1.8896l-1.9189-4.3208c-0.7129,0-1.3843-0.1343-2.0142-0.4028s-1.1792-0.6372-1.6479-1.106
			s-0.8374-1.0156-1.106-1.6406s-0.4028-1.2939-0.4028-2.0068V5.1563c0-0.7129,0.1343-1.3818,0.4028-2.0068
			s0.6372-1.1719,1.106-1.6406s1.0181-0.8374,1.6479-1.106S42.9444,0,43.6573,0h1.4941c0.7129,0,1.3818,0.1343,2.0068,0.4028
			s1.1719,0.6372,1.6406,1.106s0.8374,1.0156,1.106,1.6406s0.4028,1.2939,0.4028,2.0068v11.2793
			C50.3077,17.1191,50.1857,17.7637,49.9415,18.3691z M48.4181,5.1563c0-0.4688-0.0879-0.9058-0.2637-1.311
			s-0.415-0.7593-0.7178-1.062s-0.6567-0.542-1.062-0.7178s-0.8423-0.2637-1.311-0.2637h-1.3184
			c-0.4688,0-0.9058,0.0879-1.311,0.2637s-0.7617,0.415-1.0693,0.7178s-0.5493,0.6567-0.7251,1.062s-0.2637,0.8423-0.2637,1.311
			v11.2793c0,0.4688,0.0879,0.9058,0.2637,1.311s0.4175,0.7617,0.7251,1.0693s0.6641,0.5493,1.0693,0.7251
			s0.8423,0.2637,1.311,0.2637h1.3184c0.4688,0,0.9058-0.0879,1.311-0.2637s0.7593-0.4175,1.062-0.7251s0.542-0.6641,0.7178-1.0693
			s0.2637-0.8423,0.2637-1.311V5.1563z"/>
		<path d="M63.6378,21.2988l-0.9961-1.5234c-0.4102,0.5566-0.9229,0.9985-1.5381,1.3257s-1.2891,0.4907-2.0215,0.4907H58.628
			c-0.6055,0-1.1768-0.1147-1.7139-0.3442s-1.0059-0.5444-1.4063-0.9448s-0.7153-0.8691-0.9448-1.4063s-0.3442-1.1084-0.3442-1.7139
			V6.2988h1.8018v10.9863c0,0.3613,0.0684,0.7007,0.2051,1.0181s0.3223,0.5933,0.5566,0.8276s0.5103,0.4199,0.8276,0.5566
			s0.6567,0.2051,1.0181,0.2051h1.2012c0.3613,0,0.7007-0.0684,1.0181-0.2051s0.5933-0.3223,0.8276-0.5566
			s0.4199-0.5103,0.5566-0.8276s0.2051-0.6567,0.2051-1.0181V6.2988h1.8018v15H63.6378z"/>
		<path d="M77.5172,18.8965c-0.2295,0.5371-0.5444,1.0059-0.9448,1.4063s-0.8691,0.7153-1.4063,0.9448s-1.1084,0.3442-1.7139,0.3442
			h-1.2012c-0.6055,0-1.1768-0.1147-1.7139-0.3442s-1.0059-0.5444-1.4063-0.9448s-0.7153-0.8691-0.9448-1.4063
			s-0.3442-1.1084-0.3442-1.7139V10.415c0-0.6055,0.1147-1.1768,0.3442-1.7139s0.5444-1.0059,0.9448-1.4063
			s0.8691-0.7153,1.4063-0.9448s1.1084-0.3442,1.7139-0.3442h1.2012c0.6055,0,1.1768,0.1147,1.7139,0.3442
			s1.0059,0.5444,1.4063,0.9448s0.7153,0.8691,0.9448,1.4063s0.3442,1.1084,0.3442,1.7139v3.5303h-8.2178v3.3398
			c0,0.3613,0.0684,0.7007,0.2051,1.0181s0.3223,0.5933,0.5566,0.8276s0.5103,0.4199,0.8276,0.5566s0.6567,0.2051,1.0181,0.2051
			h1.2012c0.3613,0,0.7007-0.0684,1.0181-0.2051s0.5933-0.3223,0.8276-0.5566s0.4199-0.5103,0.5566-0.8276
			s0.2051-0.6567,0.2051-1.0181v-0.9961l1.8018,0.293v0.6006C77.8614,17.7881,77.7467,18.3594,77.5172,18.8965z M76.0597,10.3125
			c0-0.3613-0.0684-0.7007-0.2051-1.0181s-0.3223-0.5933-0.5566-0.8276s-0.5103-0.4199-0.8276-0.5566s-0.6567-0.2051-1.0181-0.2051
			h-1.2012c-0.3613,0-0.7007,0.0684-1.0181,0.2051s-0.5933,0.3223-0.8276,0.5566s-0.4199,0.5103-0.5566,0.8276
			s-0.2051,0.6567-0.2051,1.0181v2.2266h6.416V10.3125z M72.1046,3.8965h-1.3477l2.3877-3.6035h3.0029L72.1046,3.8965z"/>
		<path d="M98.0397,18.8965c-0.2295,0.5371-0.5444,1.0059-0.9448,1.4063s-0.8691,0.7153-1.4063,0.9448s-1.1084,0.3442-1.7139,0.3442
			h-1.2012c-0.6055,0-1.1768-0.1147-1.7139-0.3442s-1.0059-0.5444-1.4063-0.9448s-0.7153-0.8691-0.9448-1.4063
			s-0.3442-1.1084-0.3442-1.7139V10.415c0-0.6055,0.1147-1.1768,0.3442-1.7139s0.5444-1.0059,0.9448-1.4063
			s0.8691-0.7153,1.4063-0.9448s1.1084-0.3442,1.7139-0.3442h1.2012c0.6055,0,1.1768,0.1147,1.7139,0.3442
			s1.0059,0.5444,1.4063,0.9448s0.7153,0.8691,0.9448,1.4063s0.3442,1.1084,0.3442,1.7139v3.5303h-8.2178v3.3398
			c0,0.3613,0.0684,0.7007,0.2051,1.0181s0.3223,0.5933,0.5566,0.8276s0.5103,0.4199,0.8276,0.5566s0.6567,0.2051,1.0181,0.2051
			h1.2012c0.3613,0,0.7007-0.0684,1.0181-0.2051s0.5933-0.3223,0.8276-0.5566s0.4199-0.5103,0.5566-0.8276
			s0.2051-0.6567,0.2051-1.0181v-0.9961l1.8018,0.293v0.6006C98.3839,17.7881,98.2691,18.3594,98.0397,18.8965z M96.5821,10.3125
			c0-0.3613-0.0684-0.7007-0.2051-1.0181s-0.3223-0.5933-0.5566-0.8276s-0.5103-0.4199-0.8276-0.5566s-0.6567-0.2051-1.0181-0.2051
			h-1.2012c-0.3613,0-0.7007,0.0684-1.0181,0.2051s-0.5933,0.3223-0.8276,0.5566s-0.4199,0.5103-0.5566,0.8276
			s-0.2051,0.6567-0.2051,1.0181v2.2266h6.416V10.3125z"/>
		<path d="M112.2999,17.4902c0,0.6055-0.1221,1.1597-0.3662,1.6626s-0.5762,0.9351-0.9961,1.2964s-0.9058,0.6421-1.4575,0.8423
			s-1.1304,0.3003-1.7358,0.3003h-1.2012c-0.6055,0-1.1841-0.1147-1.7358-0.3442s-1.0352-0.5444-1.4502-0.9448
			s-0.7471-0.8691-0.9961-1.4063s-0.3735-1.1084-0.3735-1.7139V16.582l1.8018-0.293v0.9961c0,0.3613,0.0757,0.7007,0.2271,1.0181
			s0.354,0.5933,0.6079,0.8276s0.5469,0.4199,0.8789,0.5566s0.6787,0.2051,1.04,0.2051h1.2012c0.3613,0,0.708-0.0537,1.04-0.1611
			s0.6274-0.2612,0.8862-0.4614s0.4639-0.4419,0.6152-0.7251s0.2271-0.6055,0.2271-0.9668c0-0.5371-0.1172-0.9766-0.3516-1.3184
			s-0.5444-0.6274-0.9302-0.8569s-0.8252-0.4199-1.3184-0.5713s-0.9985-0.3027-1.5161-0.4541s-1.0229-0.3247-1.5161-0.52
			s-0.9326-0.4517-1.3184-0.769s-0.6958-0.7153-0.9302-1.1938s-0.3516-1.0742-0.3516-1.7871c0-0.6055,0.1172-1.1597,0.3516-1.6626
			s0.5518-0.9351,0.9521-1.2964s0.8667-0.6421,1.3989-0.8423s1.1011-0.3003,1.7065-0.3003h1.0547
			c0.6055,0,1.1768,0.1147,1.7139,0.3442s1.0059,0.5444,1.4063,0.9448s0.7153,0.8691,0.9448,1.4063s0.3442,1.1084,0.3442,1.7139
			v0.0586l-1.8018,0.293v-0.4541c0-0.3613-0.0684-0.7007-0.2051-1.0181s-0.3223-0.5933-0.5566-0.8276s-0.5103-0.4199-0.8276-0.5566
			s-0.6567-0.2051-1.0181-0.2051h-1.0547c-0.3613,0-0.7007,0.0537-1.0181,0.1611s-0.5933,0.2612-0.8276,0.4614
			s-0.4199,0.4419-0.5566,0.7251s-0.2051,0.6055-0.2051,0.9668c0,0.5176,0.1172,0.9399,0.3516,1.2671s0.5444,0.603,0.9302,0.8276
			s0.8252,0.4126,1.3184,0.564s0.9961,0.3076,1.5088,0.4688s1.0156,0.3442,1.5088,0.5493s0.9326,0.4688,1.3184,0.791
			s0.6958,0.7251,0.9302,1.2085S112.2999,16.7773,112.2999,17.4902z"/>
		<path d="M132.0753,21.2988l-0.9961-1.5234c-0.4102,0.5566-0.9229,0.9985-1.5381,1.3257s-1.2891,0.4907-2.0215,0.4907h-0.4541
			c-0.6055,0-1.1768-0.1147-1.7139-0.3442s-1.0059-0.5444-1.4063-0.9448s-0.7153-0.8691-0.9448-1.4063s-0.3442-1.1084-0.3442-1.7139
			V6.2988h1.8018v10.9863c0,0.3613,0.0684,0.7007,0.2051,1.0181s0.3223,0.5933,0.5566,0.8276s0.5103,0.4199,0.8276,0.5566
			s0.6567,0.2051,1.0181,0.2051h1.2012c0.3613,0,0.7007-0.0684,1.0181-0.2051s0.5933-0.3223,0.8276-0.5566
			s0.4199-0.5103,0.5566-0.8276s0.2051-0.6567,0.2051-1.0181V6.2988h1.8018v15H132.0753z"/>
		<path d="M144.4972,21.2988V10.3125c0-0.3613-0.0684-0.7007-0.2051-1.0181s-0.3223-0.5933-0.5566-0.8276
			s-0.5103-0.4199-0.8276-0.5566s-0.6567-0.2051-1.0181-0.2051h-1.2012c-0.3613,0-0.7007,0.0684-1.0181,0.2051
			s-0.5933,0.3223-0.8276,0.5566s-0.4199,0.5103-0.5566,0.8276s-0.2051,0.6567-0.2051,1.0181v10.9863h-1.8018v-15h0.6006
			l0.9814,1.5234c0.4102-0.5566,0.9253-0.9985,1.5454-1.3257s1.2964-0.4907,2.0288-0.4907h0.4541
			c0.6055,0,1.1768,0.1147,1.7139,0.3442s1.0059,0.5444,1.4063,0.9448s0.7153,0.8691,0.9448,1.4063s0.3442,1.1084,0.3442,1.7139
			v10.8838H144.4972z"/>
		<path d="M159.3214,21.2988l-0.9961-1.4941c-0.4102,0.5371-0.9229,0.9692-1.5381,1.2964s-1.2891,0.4907-2.0215,0.4907h-0.4541
			c-0.6055,0-1.1768-0.1147-1.7139-0.3442s-1.0059-0.5444-1.4063-0.9448s-0.7153-0.8691-0.9448-1.4063s-0.3442-1.1084-0.3442-1.7139
			v-0.1465c0-0.6055,0.1147-1.1768,0.3442-1.7139s0.5444-1.0059,0.9448-1.4063s0.8691-0.7153,1.4063-0.9448
			s1.1084-0.3442,1.7139-0.3442h3.8086v-2.3145c0-0.3613-0.0684-0.7007-0.2051-1.0181s-0.3223-0.5933-0.5566-0.8276
			s-0.5103-0.4199-0.8276-0.5566s-0.6567-0.2051-1.0181-0.2051h-1.0547c-0.3613,0-0.7007,0.0684-1.0181,0.2051
			s-0.5933,0.3223-0.8276,0.5566s-0.4199,0.5103-0.5566,0.8276s-0.2051,0.6567-0.2051,1.0181v0.542l-1.8018-0.293V10.415
			c0-0.6055,0.1147-1.1768,0.3442-1.7139s0.5444-1.0059,0.9448-1.4063s0.8691-0.7153,1.4063-0.9448s1.1084-0.3442,1.7139-0.3442
			h1.0547c0.6055,0,1.1768,0.1147,1.7139,0.3442s1.0059,0.5444,1.4063,0.9448s0.7153,0.8691,0.9448,1.4063
			s0.3442,1.1084,0.3442,1.7139v10.8838H159.3214z M158.1202,14.0332h-3.8086c-0.3613,0-0.7007,0.0684-1.0181,0.2051
			s-0.5933,0.3247-0.8276,0.564s-0.4199,0.5176-0.5566,0.835s-0.2051,0.6567-0.2051,1.0181v0.6299
			c0,0.3613,0.0684,0.7007,0.2051,1.0181s0.3223,0.5933,0.5566,0.8276s0.5103,0.4199,0.8276,0.5566s0.6567,0.2051,1.0181,0.2051
			h1.2012c0.3613,0,0.7007-0.0684,1.0181-0.2051s0.5933-0.3223,0.8276-0.5566s0.4199-0.5103,0.5566-0.8276
			s0.2051-0.6567,0.2051-1.0181V14.0332z"/>
		<path d="M178.6427,21.2988V10.3125c0-0.3613-0.0684-0.7007-0.2051-1.0181s-0.3223-0.5933-0.5566-0.8276
			s-0.5103-0.4199-0.8276-0.5566s-0.6567-0.2051-1.0181-0.2051h-1.2012c-0.3613,0-0.7007,0.0684-1.0181,0.2051
			s-0.5933,0.3223-0.8276,0.5566s-0.4199,0.5103-0.5566,0.8276s-0.2051,0.6567-0.2051,1.0181v10.9863h-1.8018v-15h0.6006
			l0.9814,1.5234c0.4102-0.5566,0.9253-0.9985,1.5454-1.3257s1.2964-0.4907,2.0288-0.4907h0.4541
			c0.6055,0,1.1768,0.1147,1.7139,0.3442s1.0059,0.5444,1.4063,0.9448s0.7153,0.8691,0.9448,1.4063s0.3442,1.1084,0.3442,1.7139
			v10.8838H178.6427z"/>
		<path d="M193.7233,18.8965c-0.2295,0.5371-0.5449,1.0059-0.9453,1.4063s-0.8691,0.7153-1.4063,0.9448
			s-1.1084,0.3442-1.7139,0.3442h-1.2012c-0.6055,0-1.1768-0.1147-1.7139-0.3442c-0.5366-0.2295-1.0054-0.5444-1.4058-0.9448
			s-0.7153-0.8691-0.9448-1.4063s-0.3442-1.1084-0.3442-1.7139V10.415c0-0.6055,0.1147-1.1768,0.3442-1.7139
			s0.5444-1.0059,0.9448-1.4063s0.8691-0.7153,1.4058-0.9448c0.5371-0.2295,1.1084-0.3442,1.7139-0.3442h1.2012
			c0.6055,0,1.1768,0.1147,1.7139,0.3442s1.0059,0.5444,1.4063,0.9448s0.7158,0.8691,0.9453,1.4063s0.3438,1.1084,0.3438,1.7139
			v6.7676C194.067,17.7881,193.9527,18.3594,193.7233,18.8965z M192.2652,10.3125c0-0.3613-0.0684-0.7007-0.2051-1.0181
			s-0.3223-0.5933-0.5566-0.8276s-0.5098-0.4199-0.8271-0.5566s-0.6572-0.2051-1.0186-0.2051h-1.2012
			c-0.3613,0-0.7002,0.0684-1.0176,0.2051s-0.5938,0.3223-0.8281,0.5566c-0.2339,0.2344-0.4194,0.5103-0.5562,0.8276
			s-0.2051,0.6567-0.2051,1.0181v6.9727c0,0.3613,0.0684,0.7007,0.2051,1.0181s0.3223,0.5933,0.5562,0.8276
			c0.2344,0.2344,0.5107,0.4199,0.8281,0.5566s0.6563,0.2051,1.0176,0.2051h1.2012c0.3613,0,0.7012-0.0684,1.0186-0.2051
			s0.5928-0.3223,0.8271-0.5566s0.4199-0.5103,0.5566-0.8276s0.2051-0.6567,0.2051-1.0181V10.3125z"/>
		<path d="M202.0797,8.0127c-0.3613,0-0.7002,0.0684-1.0176,0.2051s-0.5938,0.3223-0.8281,0.5566s-0.4199,0.5103-0.5566,0.8276
			s-0.2051,0.6567-0.2051,1.0181v10.6787h-1.8018v-15h0.6006l0.9814,1.5234c0.4102-0.5566,0.9258-0.9985,1.5459-1.3257
			s1.2959-0.4907,2.0283-0.4907h1.0547v2.0068H202.0797z"/>
		<path d="M222.1188,21.2988V10.3125c0-0.3613-0.0684-0.7007-0.2051-1.0181s-0.3223-0.5933-0.5566-0.8276
			s-0.5098-0.4199-0.8271-0.5566s-0.6572-0.2051-1.0186-0.2051h-0.8936c-0.3613,0-0.7002,0.0684-1.0176,0.2051
			s-0.5957,0.3223-0.835,0.5566s-0.4277,0.5103-0.5645,0.8276s-0.2051,0.6567-0.2051,1.0181v10.9863h-1.7871V10.3125
			c0-0.3613-0.0684-0.7007-0.2051-1.0181s-0.3242-0.5933-0.5635-0.8276s-0.5176-0.4199-0.835-0.5566s-0.6572-0.2051-1.0186-0.2051
			h-0.8936c-0.3613,0-0.7002,0.0684-1.0176,0.2051s-0.5938,0.3223-0.8281,0.5566s-0.4199,0.5103-0.5566,0.8276
			s-0.2051,0.6567-0.2051,1.0181v10.9863h-1.8018v-15h0.6006l0.9814,1.5234c0.4102-0.5566,0.9258-0.9985,1.5459-1.3257
			s1.2959-0.4907,2.0283-0.4907h0.1465c0.8496,0,1.6162,0.21,2.2998,0.6299s1.2109,0.9766,1.582,1.6699
			c0.1855-0.3418,0.415-0.6543,0.6885-0.9375s0.5762-0.5249,0.9082-0.7251s0.6934-0.3564,1.084-0.4688s0.7959-0.1685,1.2158-0.1685
			h0.1465c0.6055,0,1.1768,0.1147,1.7139,0.3442s1.0059,0.5444,1.4063,0.9448s0.7158,0.8691,0.9453,1.4063
			s0.3438,1.1084,0.3438,1.7139v10.8838H222.1188z"/>
		<path d="M236.943,21.2988l-0.9961-1.4941c-0.4102,0.5371-0.9229,0.9692-1.5381,1.2964s-1.2891,0.4907-2.0215,0.4907h-0.4541
			c-0.6055,0-1.1768-0.1147-1.7139-0.3442s-1.0059-0.5444-1.4063-0.9448s-0.7148-0.8691-0.9443-1.4063s-0.3447-1.1084-0.3447-1.7139
			v-0.1465c0-0.6055,0.1152-1.1768,0.3447-1.7139s0.5439-1.0059,0.9443-1.4063s0.8691-0.7153,1.4063-0.9448
			s1.1084-0.3442,1.7139-0.3442h3.8086v-2.3145c0-0.3613-0.0684-0.7007-0.2051-1.0181s-0.3223-0.5933-0.5566-0.8276
			s-0.5098-0.4199-0.8271-0.5566s-0.6572-0.2051-1.0186-0.2051h-1.0547c-0.3613,0-0.7002,0.0684-1.0176,0.2051
			s-0.5938,0.3223-0.8281,0.5566s-0.4199,0.5103-0.5566,0.8276s-0.2051,0.6567-0.2051,1.0181v0.542l-1.8018-0.293V10.415
			c0-0.6055,0.1152-1.1768,0.3447-1.7139s0.5439-1.0059,0.9443-1.4063s0.8691-0.7153,1.4063-0.9448s1.1084-0.3442,1.7139-0.3442
			h1.0547c0.6055,0,1.1768,0.1147,1.7139,0.3442s1.0059,0.5444,1.4063,0.9448s0.7158,0.8691,0.9453,1.4063
			s0.3438,1.1084,0.3438,1.7139v10.8838H236.943z M235.7418,14.0332h-3.8086c-0.3613,0-0.7002,0.0684-1.0176,0.2051
			s-0.5938,0.3247-0.8281,0.564s-0.4199,0.5176-0.5566,0.835s-0.2051,0.6567-0.2051,1.0181v0.6299
			c0,0.3613,0.0684,0.7007,0.2051,1.0181s0.3223,0.5933,0.5566,0.8276s0.5107,0.4199,0.8281,0.5566s0.6563,0.2051,1.0176,0.2051
			h1.2012c0.3613,0,0.7012-0.0684,1.0186-0.2051s0.5928-0.3223,0.8271-0.5566s0.4199-0.5103,0.5566-0.8276
			s0.2051-0.6567,0.2051-1.0181V14.0332z"/>
		<path d="M248.6471,21.2988V0.293h1.8896v21.0059H248.6471z"/>
		<path d="M266.8551,16.4355c0,0.7129-0.1436,1.3818-0.4316,2.0068s-0.6738,1.1719-1.1572,1.6406s-1.0449,0.8374-1.6846,1.106
			s-1.3164,0.4028-2.0293,0.4028h-1.5088c-0.7129,0-1.3887-0.1343-2.0283-0.4028s-1.2012-0.6372-1.6846-1.106
			c-0.4834-0.4688-0.8691-1.0156-1.1572-1.6406s-0.4326-1.2939-0.4326-2.0068v-0.835l1.8896-0.3076v1.1426
			c0,0.4688,0.0957,0.9058,0.2861,1.311s0.4463,0.7617,0.7686,1.0693s0.6963,0.5493,1.1211,0.7251s0.8711,0.2637,1.3398,0.2637
			h1.3184c0.4688,0,0.9131-0.0879,1.333-0.2637s0.791-0.4175,1.1133-0.7251s0.5791-0.6641,0.7695-1.0693s0.2852-0.8423,0.2852-1.311
			v-0.6299c0-0.7227-0.1416-1.3232-0.4248-1.8018s-0.6592-0.8862-1.1279-1.2231s-0.998-0.6226-1.5889-0.8569
			s-1.1992-0.4688-1.8242-0.7031s-1.2324-0.4932-1.8232-0.7764s-1.1211-0.6372-1.5898-1.062s-0.8447-0.9448-1.1279-1.5601
			s-0.4248-1.3721-0.4248-2.2705V5.1563c0-0.7129,0.1348-1.3818,0.4033-2.0068s0.6367-1.1719,1.1055-1.6406
			s1.0186-0.8374,1.6484-1.106S259.4918,0,260.2047,0h1.3477c0.7129,0,1.3818,0.1343,2.0068,0.4028s1.1719,0.6372,1.6406,1.106
			s0.8379,1.0156,1.1064,1.6406s0.4023,1.2939,0.4023,2.0068v0.542l-1.8896,0.3076V5.1563c0-0.4688-0.0879-0.9058-0.2637-1.311
			s-0.415-0.7593-0.7178-1.062s-0.6563-0.542-1.0615-0.7178s-0.8428-0.2637-1.3115-0.2637h-1.1719
			c-0.4688,0-0.9053,0.0879-1.3105,0.2637s-0.7617,0.415-1.0693,0.7178s-0.5498,0.6567-0.7256,1.062s-0.2637,0.8423-0.2637,1.311
			v0.3955c0,0.6738,0.1416,1.2402,0.4248,1.6992s0.6592,0.8521,1.1279,1.1792s0.999,0.6104,1.5898,0.8496
			s1.1982,0.4834,1.8232,0.7324s1.2334,0.5225,1.8242,0.8203s1.1201,0.6641,1.5889,1.0986s0.8447,0.9644,1.1279,1.5894
			s0.4248,1.3867,0.4248,2.2852V16.4355z"/>
		<path d="M282.024,18.4424c-0.2686,0.625-0.6377,1.1719-1.1064,1.6406s-1.0156,0.8374-1.6406,1.106s-1.2939,0.4028-2.0068,0.4028
			h-1.4941c-0.7129,0-1.3838-0.1343-2.0137-0.4028s-1.1797-0.6372-1.6484-1.106s-0.8369-1.0156-1.1055-1.6406
			s-0.4033-1.2939-0.4033-2.0068V5.1563c0-0.7129,0.1348-1.3818,0.4033-2.0068s0.6367-1.1719,1.1055-1.6406
			s1.0186-0.8374,1.6484-1.106S275.0631,0,275.776,0h1.4941c0.7129,0,1.3818,0.1343,2.0068,0.4028s1.1719,0.6372,1.6406,1.106
			s0.8379,1.0156,1.1064,1.6406s0.4023,1.2939,0.4023,2.0068v11.2793C282.4264,17.1484,282.2926,17.8174,282.024,18.4424z
			 M280.5367,5.1563c0-0.4688-0.0879-0.9058-0.2637-1.311s-0.415-0.7593-0.7178-1.062s-0.6563-0.542-1.0615-0.7178
			s-0.8428-0.2637-1.3115-0.2637h-1.3184c-0.4688,0-0.9053,0.0879-1.3105,0.2637s-0.7617,0.415-1.0693,0.7178
			s-0.5498,0.6567-0.7256,1.062s-0.2637,0.8423-0.2637,1.311v11.2793c0,0.4688,0.0879,0.9058,0.2637,1.311
			s0.418,0.7617,0.7256,1.0693s0.6641,0.5493,1.0693,0.7251s0.8418,0.2637,1.3105,0.2637h1.3184
			c0.4688,0,0.9063-0.0879,1.3115-0.2637s0.7588-0.4175,1.0615-0.7251s0.542-0.6641,0.7178-1.0693s0.2637-0.8423,0.2637-1.311
			V5.1563z"/>
		<path d="M291.4644,14.9414h-1.8896v-0.5713c0-0.6445,0.0781-1.2061,0.2344-1.6846s0.3643-0.8984,0.623-1.2598
			s0.5518-0.6836,0.8789-0.9668s0.6641-0.5542,1.0107-0.813s0.6836-0.52,1.0107-0.7837s0.6201-0.5566,0.8789-0.8789
			s0.4658-0.6885,0.6221-1.0986s0.2344-0.8936,0.2344-1.4502V5.1563c0-0.4688-0.0879-0.9058-0.2637-1.311
			s-0.417-0.7593-0.7246-1.062s-0.6641-0.542-1.0693-0.7178s-0.8428-0.2637-1.3115-0.2637h-0.4102
			c-0.4688,0-0.9053,0.0879-1.3105,0.2637s-0.7617,0.415-1.0693,0.7178s-0.5498,0.6567-0.7256,1.062s-0.2637,0.8423-0.2637,1.311
			v0.8496l-1.8896-0.3076v-0.542c0-0.7129,0.1348-1.3818,0.4033-2.0068s0.6367-1.1719,1.1055-1.6406s1.0186-0.8374,1.6484-1.106
			S290.4879,0,291.2008,0h0.6006c0.7129,0,1.3818,0.1343,2.0068,0.4028s1.1719,0.6372,1.6406,1.106s0.8379,1.0156,1.1064,1.6406
			s0.4023,1.2939,0.4023,2.0068v0.2783c0,0.6738-0.0781,1.2646-0.2344,1.7725s-0.3633,0.957-0.6221,1.3477
			s-0.5518,0.7373-0.8789,1.04s-0.6641,0.5859-1.0107,0.8496s-0.6836,0.5225-1.0107,0.7764s-0.6201,0.5322-0.8789,0.835
			s-0.4668,0.6396-0.623,1.0107s-0.2344,0.8057-0.2344,1.3037V14.9414z M289.399,21.2988V19.043h2.2412v2.2559H289.399z"/>
	</g>
</g>
<g>
	<g>
		<polygon points="334.8094,37.9209 6.4325,37.9209 6.4325,35.4819 333.8437,35.4819 		"/>
	</g>
	<path d="M15.6821,36.029c0,4.3292-3.5322,7.86-7.8619,7.86C3.4477,43.8891,0,40.3582,0,36.029
		c0-4.3722,3.4477-7.7341,7.8202-7.7341C12.15,28.2949,15.6821,31.6568,15.6821,36.029z"/>
	<g>
		<path d="M343.0901,35.398c0,4.3298-3.4867,7.8609-7.8584,7.8609c-4.2889,0-7.7786-3.5311-7.7786-7.8609
			c0-4.3722,3.4897-7.7764,7.7786-7.7764C339.6034,27.6216,343.0901,31.0258,343.0901,35.398z"/>
		<g>
			<path d="M335.2317,52.045c-9.1663,0-16.6064-7.399-16.6064-16.647c0-9.1221,7.4402-16.6884,16.6064-16.6884
				c9.2456,0,16.686,7.5662,16.686,16.6884C351.9177,44.646,344.4773,52.045,335.2317,52.045z M335.2317,22.2401
				c-7.2731,0-13.2001,5.9279-13.2001,13.1579c0,7.315,5.927,13.2418,13.2001,13.2418c7.3139,0,13.2832-5.9268,13.2832-13.2418
				C348.5149,28.168,342.5457,22.2401,335.2317,22.2401z"/>
		</g>
	</g>
</g>
</svg>
