<?xml version="1.0" encoding="utf-8"?>
<!-- Generator: Adobe Illustrator 21.0.0, SVG Export Plug-In . SVG Version: 6.00 Build 0)  -->
<svg version="1.1" id="Capa_1" xmlns="http://www.w3.org/2000/svg" xmlns:xlink="http://www.w3.org/1999/xlink" x="0px" y="0px"
	 viewBox="0 0 372.1475 8.8887" style="enable-background:new 0 0 372.1475 8.8887;" xml:space="preserve">
<g>
	<path style="fill:#FFFFFF;" d="M0,8.7422V0.1523h5.7949V1.166H1.1367v2.6602H5.168v1.0137H1.1367v3.9023H0z"/>
	<path style="fill:#FFFFFF;" d="M12.4277,0.1523h1.1367v4.9629c0,0.8633-0.0977,1.5488-0.293,2.0566s-0.5479,0.9209-1.0576,1.2393
		s-1.1787,0.4775-2.0068,0.4775c-0.8047,0-1.4629-0.1387-1.9746-0.416s-0.877-0.6787-1.0957-1.2041S6.8086,6.0254,6.8086,5.1152
		V0.1523h1.1367v4.957c0,0.7461,0.0693,1.2959,0.208,1.6494s0.377,0.626,0.7148,0.8174s0.751,0.2871,1.2393,0.2871
		c0.8359,0,1.4316-0.1895,1.7871-0.5684s0.5332-1.1074,0.5332-2.1855V0.1523z"/>
	<path style="fill:#FFFFFF;" d="M14.9658,8.7422V0.1523h1.166l4.5117,6.7441V0.1523h1.0898v8.5898h-1.166l-4.5117-6.75v6.75H14.9658
		z"/>
	<path style="fill:#FFFFFF;" d="M23.1631,8.7422V0.1523h2.959c0.668,0,1.1777,0.041,1.5293,0.123
		c0.4922,0.1133,0.9121,0.3184,1.2598,0.6152c0.4531,0.3828,0.792,0.8721,1.0166,1.4678s0.3369,1.2764,0.3369,2.042
		c0,0.6523-0.0762,1.2305-0.2285,1.7344s-0.3477,0.9209-0.5859,1.251s-0.499,0.5898-0.7822,0.7793s-0.625,0.333-1.0254,0.4307
		s-0.8604,0.1465-1.3799,0.1465H23.1631z M24.2998,7.7285h1.834c0.5664,0,1.0107-0.0527,1.333-0.1582s0.5791-0.2539,0.7705-0.4453
		c0.2695-0.2695,0.4795-0.6318,0.6299-1.0869s0.2256-1.0068,0.2256-1.6553c0-0.8984-0.1475-1.5889-0.4424-2.0713
		s-0.6533-0.8057-1.0752-0.9697c-0.3047-0.1172-0.7949-0.1758-1.4707-0.1758h-1.8047V7.7285z"/>
	<path style="fill:#FFFFFF;" d="M30.4063,8.7422l3.2988-8.5898h1.2246l3.5156,8.5898h-1.2949l-1.002-2.6016h-3.5918l-0.9434,2.6016
		H30.4063z M32.8848,5.2148h2.9121l-0.8965-2.3789c-0.2734-0.7227-0.4766-1.3164-0.6094-1.7813
		c-0.1094,0.5508-0.2637,1.0977-0.4629,1.6406L32.8848,5.2148z"/>
	<path style="fill:#FFFFFF;" d="M38.8379,8.7422V0.1523h1.7109l2.0332,6.082c0.1875,0.5664,0.3242,0.9902,0.4102,1.2715
		c0.0977-0.3125,0.25-0.7715,0.457-1.377l2.0566-5.9766h1.5293v8.5898h-1.0957V1.5527l-2.4961,7.1895H42.418l-2.4844-7.3125v7.3125
		H38.8379z"/>
	<path style="fill:#FFFFFF;" d="M48.4131,8.7422V0.1523h6.2109V1.166h-5.0742v2.6309h4.752v1.0078h-4.752v2.9238h5.2734v1.0137
		H48.4131z"/>
	<path style="fill:#FFFFFF;" d="M55.9014,8.7422V0.1523h1.166l4.5117,6.7441V0.1523h1.0898v8.5898h-1.166l-4.5117-6.75v6.75H55.9014
		z"/>
	<path style="fill:#FFFFFF;" d="M66.2852,8.7422V1.166h-2.8301V0.1523h6.8086V1.166h-2.8418v7.5762H66.2852z"/>
	<path style="fill:#FFFFFF;" d="M70.6035,4.5586c0-1.4258,0.3828-2.542,1.1484-3.3486S73.5059,0,74.7168,0
		c0.793,0,1.5078,0.1895,2.1445,0.5684s1.1221,0.9072,1.4561,1.585s0.501,1.4463,0.501,2.3057c0,0.8711-0.1758,1.6504-0.5273,2.3379
		s-0.8496,1.208-1.4941,1.5615s-1.3398,0.5303-2.0859,0.5303c-0.8086,0-1.5313-0.1953-2.168-0.5859s-1.1191-0.9238-1.4473-1.5996
		S70.6035,5.3125,70.6035,4.5586z M71.7754,4.5762c0,1.0352,0.2783,1.8506,0.835,2.4463s1.2549,0.8936,2.0947,0.8936
		c0.8555,0,1.5596-0.3008,2.1123-0.9023s0.8291-1.4551,0.8291-2.5605c0-0.6992-0.1182-1.3096-0.3545-1.8311
		s-0.582-0.9258-1.0371-1.2129s-0.9658-0.4307-1.5322-0.4307c-0.8047,0-1.4971,0.2764-2.0771,0.8291S71.7754,3.2832,71.7754,4.5762z
		"/>
	<path style="fill:#FFFFFF;" d="M79.417,5.9824l1.0723-0.0938c0.0508,0.4297,0.1689,0.7822,0.3545,1.0576s0.4736,0.498,0.8643,0.668
		s0.8301,0.2549,1.3184,0.2549c0.4336,0,0.8164-0.0645,1.1484-0.1934s0.5791-0.3057,0.7412-0.5303s0.2432-0.4697,0.2432-0.7354
		c0-0.2695-0.0781-0.5049-0.2344-0.7061s-0.4141-0.3701-0.7734-0.5068c-0.2305-0.0898-0.7402-0.2295-1.5293-0.4189
		s-1.3418-0.3682-1.6582-0.5361c-0.4102-0.2148-0.7158-0.4814-0.917-0.7998s-0.3018-0.6748-0.3018-1.0693
		c0-0.4336,0.123-0.8389,0.3691-1.2158s0.6055-0.6631,1.0781-0.8584s0.998-0.293,1.5762-0.293c0.6367,0,1.1982,0.1025,1.6846,0.3076
		s0.8604,0.5068,1.1221,0.9053s0.4023,0.8496,0.4219,1.3535l-1.0898,0.082c-0.0586-0.543-0.2568-0.9531-0.5947-1.2305
		s-0.8369-0.416-1.4971-0.416c-0.6875,0-1.1885,0.126-1.5029,0.3779s-0.4717,0.5557-0.4717,0.9111
		c0,0.3086,0.1113,0.5625,0.334,0.7617c0.2188,0.1992,0.79,0.4033,1.7139,0.6123s1.5576,0.3916,1.9014,0.5479
		c0.5,0.2305,0.8691,0.5225,1.1074,0.876s0.3574,0.7607,0.3574,1.2217c0,0.457-0.1309,0.8877-0.3926,1.292
		s-0.6377,0.7188-1.1279,0.9434s-1.042,0.3369-1.6553,0.3369c-0.7773,0-1.4287-0.1133-1.9541-0.3398s-0.9375-0.5674-1.2363-1.0225
		S79.4326,6.5566,79.417,5.9824z"/>
	<path style="fill:#FFFFFF;" d="M90.1816,8.7422V0.1523h2.959c0.668,0,1.1777,0.041,1.5293,0.123
		c0.4922,0.1133,0.9121,0.3184,1.2598,0.6152c0.4531,0.3828,0.792,0.8721,1.0166,1.4678s0.3369,1.2764,0.3369,2.042
		c0,0.6523-0.0762,1.2305-0.2285,1.7344s-0.3477,0.9209-0.5859,1.251s-0.499,0.5898-0.7822,0.7793s-0.625,0.333-1.0254,0.4307
		s-0.8604,0.1465-1.3799,0.1465H90.1816z M91.3184,7.7285h1.834c0.5664,0,1.0107-0.0527,1.333-0.1582s0.5791-0.2539,0.7705-0.4453
		c0.2695-0.2695,0.4795-0.6318,0.6299-1.0869s0.2256-1.0068,0.2256-1.6553c0-0.8984-0.1475-1.5889-0.4424-2.0713
		s-0.6533-0.8057-1.0752-0.9697C94.2891,1.2246,93.7988,1.166,93.123,1.166h-1.8047V7.7285z"/>
	<path style="fill:#FFFFFF;" d="M98.3906,8.7422V0.1523h6.2109V1.166h-5.0742v2.6309h4.752v1.0078h-4.752v2.9238h5.2734v1.0137
		H98.3906z"/>
	<path style="fill:#FFFFFF;" d="M114.874,5.7305l1.1367,0.2871c-0.2383,0.9336-0.667,1.6455-1.2861,2.1357
		s-1.376,0.7354-2.2705,0.7354c-0.9258,0-1.6787-0.1885-2.2588-0.5654s-1.0215-0.9229-1.3242-1.6377s-0.4541-1.4824-0.4541-2.3027
		c0-0.8945,0.1709-1.6748,0.5127-2.3408s0.8281-1.1719,1.459-1.5176s1.3252-0.5186,2.083-0.5186c0.8594,0,1.582,0.2188,2.168,0.6563
		s0.9941,1.0527,1.2246,1.8457l-1.1191,0.2637c-0.1992-0.625-0.4883-1.0801-0.8672-1.3652s-0.8555-0.4277-1.4297-0.4277
		c-0.6602,0-1.2119,0.1582-1.6553,0.4746s-0.7549,0.7412-0.9346,1.2744s-0.2695,1.083-0.2695,1.6494
		c0,0.7305,0.1064,1.3682,0.3193,1.9131s0.5439,0.9521,0.9932,1.2217s0.9355,0.4043,1.459,0.4043
		c0.6367,0,1.1758-0.1836,1.6172-0.5508S114.7178,6.4531,114.874,5.7305z"/>
	<path style="fill:#FFFFFF;" d="M115.9883,8.7422l3.2988-8.5898h1.2246l3.5156,8.5898h-1.2949l-1.002-2.6016h-3.5918l-0.9434,2.6016
		H115.9883z M118.4668,5.2148h2.9121l-0.8965-2.3789c-0.2734-0.7227-0.4766-1.3164-0.6094-1.7813
		c-0.1094,0.5508-0.2637,1.0977-0.4629,1.6406L118.4668,5.2148z"/>
	<path style="fill:#FFFFFF;" d="M124.4082,8.7422V0.1523h1.1367v7.5762h4.2305v1.0137H124.4082z"/>
	<path style="fill:#FFFFFF;" d="M130.8428,8.7422V0.1523h1.1367v8.5898H130.8428z"/>
	<path style="fill:#FFFFFF;" d="M133.5029,8.7422V0.1523h2.959c0.668,0,1.1777,0.041,1.5293,0.123
		c0.4922,0.1133,0.9121,0.3184,1.2598,0.6152c0.4531,0.3828,0.792,0.8721,1.0166,1.4678s0.3369,1.2764,0.3369,2.042
		c0,0.6523-0.0762,1.2305-0.2285,1.7344s-0.3477,0.9209-0.5859,1.251s-0.499,0.5898-0.7822,0.7793s-0.625,0.333-1.0254,0.4307
		s-0.8604,0.1465-1.3799,0.1465H133.5029z M134.6396,7.7285h1.834c0.5664,0,1.0107-0.0527,1.333-0.1582s0.5791-0.2539,0.7705-0.4453
		c0.2695-0.2695,0.4795-0.6318,0.6299-1.0869s0.2256-1.0068,0.2256-1.6553c0-0.8984-0.1475-1.5889-0.4424-2.0713
		s-0.6533-0.8057-1.0752-0.9697c-0.3047-0.1172-0.7949-0.1758-1.4707-0.1758h-1.8047V7.7285z"/>
	<path style="fill:#FFFFFF;" d="M140.7461,8.7422l3.2988-8.5898h1.2246l3.5156,8.5898h-1.2949l-1.002-2.6016h-3.5918l-0.9434,2.6016
		H140.7461z M143.2246,5.2148h2.9121l-0.8965-2.3789c-0.2734-0.7227-0.4766-1.3164-0.6094-1.7813
		c-0.1094,0.5508-0.2637,1.0977-0.4629,1.6406L143.2246,5.2148z"/>
	<path style="fill:#FFFFFF;" d="M149.2129,8.7422V0.1523h2.959c0.668,0,1.1777,0.041,1.5293,0.123
		c0.4922,0.1133,0.9121,0.3184,1.2598,0.6152c0.4531,0.3828,0.792,0.8721,1.0166,1.4678s0.3369,1.2764,0.3369,2.042
		c0,0.6523-0.0762,1.2305-0.2285,1.7344s-0.3477,0.9209-0.5859,1.251s-0.499,0.5898-0.7822,0.7793s-0.625,0.333-1.0254,0.4307
		s-0.8604,0.1465-1.3799,0.1465H149.2129z M150.3496,7.7285h1.834c0.5664,0,1.0107-0.0527,1.333-0.1582s0.5791-0.2539,0.7705-0.4453
		c0.2695-0.2695,0.4795-0.6318,0.6299-1.0869s0.2256-1.0068,0.2256-1.6553c0-0.8984-0.1475-1.5889-0.4424-2.0713
		s-0.6533-0.8057-1.0752-0.9697c-0.3047-0.1172-0.7949-0.1758-1.4707-0.1758h-1.8047V7.7285z"/>
	<path style="fill:#FFFFFF;" d="M160.2529,8.7422V0.1523h3.2402c0.5703,0,1.0059,0.0273,1.3066,0.082
		c0.4219,0.0703,0.7754,0.2041,1.0605,0.4014s0.5146,0.4736,0.6885,0.8291s0.2607,0.7461,0.2607,1.1719
		c0,0.7305-0.2324,1.3486-0.6973,1.8545S164.8076,5.25,163.5928,5.25h-2.2031v3.4922H160.2529z M161.3896,4.2363h2.2207
		c0.7344,0,1.2559-0.1367,1.5645-0.4102s0.4629-0.6582,0.4629-1.1543c0-0.3594-0.0908-0.667-0.2725-0.9229
		s-0.4209-0.4248-0.7178-0.5068c-0.1914-0.0508-0.5449-0.0762-1.0605-0.0762h-2.1973V4.2363z"/>
	<path style="fill:#FFFFFF;" d="M166.834,8.7422l3.2988-8.5898h1.2246l3.5156,8.5898h-1.2949l-1.002-2.6016h-3.5918l-0.9434,2.6016
		H166.834z M169.3125,5.2148h2.9121l-0.8965-2.3789c-0.2734-0.7227-0.4766-1.3164-0.6094-1.7813
		c-0.1094,0.5508-0.2637,1.0977-0.4629,1.6406L169.3125,5.2148z"/>
	<path style="fill:#FFFFFF;" d="M175.3184,8.7422V0.1523h3.8086c0.7656,0,1.3477,0.0771,1.7461,0.2314s0.7168,0.4268,0.9551,0.8174
		s0.3574,0.8223,0.3574,1.2949c0,0.6094-0.1973,1.123-0.5918,1.541s-1.0039,0.6836-1.8281,0.7969
		c0.3008,0.1445,0.5293,0.2871,0.6855,0.4277c0.332,0.3047,0.6465,0.6855,0.9434,1.1426l1.4941,2.3379h-1.4297l-1.1367-1.7871
		c-0.332-0.5156-0.6055-0.9102-0.8203-1.1836s-0.4072-0.4648-0.5771-0.5742s-0.3428-0.1855-0.5186-0.2285
		c-0.1289-0.0273-0.3398-0.041-0.6328-0.041h-1.3184v3.8145H175.3184z M176.4551,3.9434h2.4434
		c0.5195,0,0.9258-0.0537,1.2188-0.1611s0.5156-0.2793,0.668-0.5156s0.2285-0.4932,0.2285-0.7705
		c0-0.4063-0.1475-0.7402-0.4424-1.002s-0.7607-0.3926-1.3975-0.3926h-2.7188V3.9434z"/>
	<path style="fill:#FFFFFF;" d="M182.543,8.7422l3.2988-8.5898h1.2246l3.5156,8.5898h-1.2949l-1.002-2.6016h-3.5918L183.75,8.7422
		H182.543z M185.0215,5.2148h2.9121l-0.8965-2.3789c-0.2734-0.7227-0.4766-1.3164-0.6094-1.7813
		c-0.1094,0.5508-0.2637,1.0977-0.4629,1.6406L185.0215,5.2148z"/>
	<path style="fill:#FFFFFF;" d="M193.8877,8.7422V0.1523h6.2109V1.166h-5.0742v2.6309h4.752v1.0078h-4.752v2.9238h5.2734v1.0137
		H193.8877z"/>
	<path style="fill:#FFFFFF;" d="M201.3418,8.7422V0.1523h1.1367v7.5762h4.2305v1.0137H201.3418z"/>
	<path style="fill:#FFFFFF;" d="M210.4365,8.7422V0.1523h2.959c0.668,0,1.1777,0.041,1.5293,0.123
		c0.4922,0.1133,0.9121,0.3184,1.2598,0.6152c0.4531,0.3828,0.792,0.8721,1.0166,1.4678s0.3369,1.2764,0.3369,2.042
		c0,0.6523-0.0762,1.2305-0.2285,1.7344s-0.3477,0.9209-0.5859,1.251s-0.499,0.5898-0.7822,0.7793s-0.625,0.333-1.0254,0.4307
		s-0.8604,0.1465-1.3799,0.1465H210.4365z M211.5732,7.7285h1.834c0.5664,0,1.0107-0.0527,1.333-0.1582s0.5791-0.2539,0.7705-0.4453
		c0.2695-0.2695,0.4795-0.6318,0.6299-1.0869s0.2256-1.0068,0.2256-1.6553c0-0.8984-0.1475-1.5889-0.4424-2.0713
		s-0.6533-0.8057-1.0752-0.9697c-0.3047-0.1172-0.7949-0.1758-1.4707-0.1758h-1.8047V7.7285z"/>
	<path style="fill:#FFFFFF;" d="M218.6455,8.7422V0.1523h6.2109V1.166h-5.0742v2.6309h4.752v1.0078h-4.752v2.9238h5.2734v1.0137
		H218.6455z"/>
	<path style="fill:#FFFFFF;" d="M225.7598,5.9824l1.0723-0.0938c0.0508,0.4297,0.1689,0.7822,0.3545,1.0576
		s0.4736,0.498,0.8643,0.668s0.8301,0.2549,1.3184,0.2549c0.4336,0,0.8164-0.0645,1.1484-0.1934s0.5791-0.3057,0.7412-0.5303
		s0.2432-0.4697,0.2432-0.7354c0-0.2695-0.0781-0.5049-0.2344-0.7061s-0.4141-0.3701-0.7734-0.5068
		c-0.2305-0.0898-0.7402-0.2295-1.5293-0.4189s-1.3418-0.3682-1.6582-0.5361c-0.4102-0.2148-0.7158-0.4814-0.917-0.7998
		s-0.3018-0.6748-0.3018-1.0693c0-0.4336,0.123-0.8389,0.3691-1.2158s0.6055-0.6631,1.0781-0.8584s0.998-0.293,1.5762-0.293
		c0.6367,0,1.1982,0.1025,1.6846,0.3076s0.8604,0.5068,1.1221,0.9053s0.4023,0.8496,0.4219,1.3535l-1.0898,0.082
		c-0.0586-0.543-0.2568-0.9531-0.5947-1.2305s-0.8369-0.416-1.4971-0.416c-0.6875,0-1.1885,0.126-1.5029,0.3779
		s-0.4717,0.5557-0.4717,0.9111c0,0.3086,0.1113,0.5625,0.334,0.7617c0.2188,0.1992,0.79,0.4033,1.7139,0.6123
		s1.5576,0.3916,1.9014,0.5479c0.5,0.2305,0.8691,0.5225,1.1074,0.876s0.3574,0.7607,0.3574,1.2217
		c0,0.457-0.1309,0.8877-0.3926,1.292s-0.6377,0.7188-1.1279,0.9434s-1.042,0.3369-1.6553,0.3369
		c-0.7773,0-1.4287-0.1133-1.9541-0.3398s-0.9375-0.5674-1.2363-1.0225S225.7754,6.5566,225.7598,5.9824z"/>
	<path style="fill:#FFFFFF;" d="M232.7266,8.7422l3.2988-8.5898h1.2246l3.5156,8.5898h-1.2949l-1.002-2.6016h-3.5918l-0.9434,2.6016
		H232.7266z M235.2051,5.2148h2.9121l-0.8965-2.3789c-0.2734-0.7227-0.4766-1.3164-0.6094-1.7813
		c-0.1094,0.5508-0.2637,1.0977-0.4629,1.6406L235.2051,5.2148z"/>
	<path style="fill:#FFFFFF;" d="M241.2119,8.7422V0.1523h3.8086c0.7656,0,1.3477,0.0771,1.7461,0.2314s0.7168,0.4268,0.9551,0.8174
		s0.3574,0.8223,0.3574,1.2949c0,0.6094-0.1973,1.123-0.5918,1.541s-1.0039,0.6836-1.8281,0.7969
		c0.3008,0.1445,0.5293,0.2871,0.6855,0.4277c0.332,0.3047,0.6465,0.6855,0.9434,1.1426l1.4941,2.3379h-1.4297l-1.1367-1.7871
		c-0.332-0.5156-0.6055-0.9102-0.8203-1.1836s-0.4072-0.4648-0.5771-0.5742s-0.3428-0.1855-0.5186-0.2285
		c-0.1289-0.0273-0.3398-0.041-0.6328-0.041h-1.3184v3.8145H241.2119z M242.3486,3.9434h2.4434
		c0.5195,0,0.9258-0.0537,1.2188-0.1611s0.5156-0.2793,0.668-0.5156s0.2285-0.4932,0.2285-0.7705
		c0-0.4063-0.1475-0.7402-0.4424-1.002s-0.7607-0.3926-1.3975-0.3926h-2.7188V3.9434z"/>
	<path style="fill:#FFFFFF;" d="M249.3975,8.7422V0.1523h3.8086c0.7656,0,1.3477,0.0771,1.7461,0.2314s0.7168,0.4268,0.9551,0.8174
		s0.3574,0.8223,0.3574,1.2949c0,0.6094-0.1973,1.123-0.5918,1.541s-1.0039,0.6836-1.8281,0.7969
		c0.3008,0.1445,0.5293,0.2871,0.6855,0.4277c0.332,0.3047,0.6465,0.6855,0.9434,1.1426l1.4941,2.3379h-1.4297l-1.1367-1.7871
		c-0.332-0.5156-0.6055-0.9102-0.8203-1.1836s-0.4072-0.4648-0.5771-0.5742s-0.3428-0.1855-0.5186-0.2285
		c-0.1289-0.0273-0.3398-0.041-0.6328-0.041h-1.3184v3.8145H249.3975z M250.5342,3.9434h2.4434
		c0.5195,0,0.9258-0.0537,1.2188-0.1611s0.5156-0.2793,0.668-0.5156s0.2285-0.4932,0.2285-0.7705
		c0-0.4063-0.1475-0.7402-0.4424-1.002s-0.7607-0.3926-1.3975-0.3926h-2.7188V3.9434z"/>
	<path style="fill:#FFFFFF;" d="M257.2207,4.5586c0-1.4258,0.3828-2.542,1.1484-3.3486S260.123,0,261.334,0
		c0.793,0,1.5078,0.1895,2.1445,0.5684s1.1221,0.9072,1.4561,1.585s0.501,1.4463,0.501,2.3057c0,0.8711-0.1758,1.6504-0.5273,2.3379
		s-0.8496,1.208-1.4941,1.5615s-1.3398,0.5303-2.0859,0.5303c-0.8086,0-1.5313-0.1953-2.168-0.5859s-1.1191-0.9238-1.4473-1.5996
		S257.2207,5.3125,257.2207,4.5586z M258.3926,4.5762c0,1.0352,0.2783,1.8506,0.835,2.4463s1.2549,0.8936,2.0947,0.8936
		c0.8555,0,1.5596-0.3008,2.1123-0.9023s0.8291-1.4551,0.8291-2.5605c0-0.6992-0.1182-1.3096-0.3545-1.8311
		s-0.582-0.9258-1.0371-1.2129s-0.9658-0.4307-1.5322-0.4307c-0.8047,0-1.4971,0.2764-2.0771,0.8291
		S258.3926,3.2832,258.3926,4.5762z"/>
	<path style="fill:#FFFFFF;" d="M266.373,8.7422V0.1523h1.1367v7.5762h4.2305v1.0137H266.373z"/>
	<path style="fill:#FFFFFF;" d="M272.5674,8.7422V0.1523h1.1367v7.5762h4.2305v1.0137H272.5674z"/>
	<path style="fill:#FFFFFF;" d="M278.4619,4.5586c0-1.4258,0.3828-2.542,1.1484-3.3486S281.3643,0,282.5752,0
		c0.793,0,1.5078,0.1895,2.1445,0.5684s1.1221,0.9072,1.4561,1.585s0.501,1.4463,0.501,2.3057c0,0.8711-0.1758,1.6504-0.5273,2.3379
		s-0.8496,1.208-1.4941,1.5615s-1.3398,0.5303-2.0859,0.5303c-0.8086,0-1.5313-0.1953-2.168-0.5859s-1.1191-0.9238-1.4473-1.5996
		S278.4619,5.3125,278.4619,4.5586z M279.6338,4.5762c0,1.0352,0.2783,1.8506,0.835,2.4463s1.2549,0.8936,2.0947,0.8936
		c0.8555,0,1.5596-0.3008,2.1123-0.9023s0.8291-1.4551,0.8291-2.5605c0-0.6992-0.1182-1.3096-0.3545-1.8311
		s-0.582-0.9258-1.0371-1.2129s-0.9658-0.4307-1.5322-0.4307c-0.8047,0-1.4971,0.2764-2.0771,0.8291
		S279.6338,3.2832,279.6338,4.5762z"/>
	<path style="fill:#FFFFFF;" d="M290.5156,8.7422V0.1523h2.959c0.668,0,1.1777,0.041,1.5293,0.123
		c0.4922,0.1133,0.9121,0.3184,1.2598,0.6152c0.4531,0.3828,0.792,0.8721,1.0166,1.4678s0.3369,1.2764,0.3369,2.042
		c0,0.6523-0.0762,1.2305-0.2285,1.7344s-0.3477,0.9209-0.5859,1.251s-0.499,0.5898-0.7822,0.7793s-0.625,0.333-1.0254,0.4307
		s-0.8604,0.1465-1.3799,0.1465H290.5156z M291.6523,7.7285h1.834c0.5664,0,1.0107-0.0527,1.333-0.1582s0.5791-0.2539,0.7705-0.4453
		c0.2695-0.2695,0.4795-0.6318,0.6299-1.0869s0.2256-1.0068,0.2256-1.6553c0-0.8984-0.1475-1.5889-0.4424-2.0713
		s-0.6533-0.8057-1.0752-0.9697c-0.3047-0.1172-0.7949-0.1758-1.4707-0.1758h-1.8047V7.7285z"/>
	<path style="fill:#FFFFFF;" d="M298.7256,8.7422V0.1523h6.2109V1.166h-5.0742v2.6309h4.752v1.0078h-4.752v2.9238h5.2734v1.0137
		H298.7256z"/>
	<path style="fill:#FFFFFF;" d="M308.6934,5.9824l1.0723-0.0938c0.0508,0.4297,0.1689,0.7822,0.3545,1.0576
		s0.4736,0.498,0.8643,0.668s0.8301,0.2549,1.3184,0.2549c0.4336,0,0.8164-0.0645,1.1484-0.1934s0.5791-0.3057,0.7412-0.5303
		s0.2432-0.4697,0.2432-0.7354c0-0.2695-0.0781-0.5049-0.2344-0.7061s-0.4141-0.3701-0.7734-0.5068
		c-0.2305-0.0898-0.7402-0.2295-1.5293-0.4189s-1.3418-0.3682-1.6582-0.5361c-0.4102-0.2148-0.7158-0.4814-0.917-0.7998
		s-0.3018-0.6748-0.3018-1.0693c0-0.4336,0.123-0.8389,0.3691-1.2158s0.6055-0.6631,1.0781-0.8584s0.998-0.293,1.5762-0.293
		c0.6367,0,1.1982,0.1025,1.6846,0.3076s0.8604,0.5068,1.1221,0.9053s0.4023,0.8496,0.4219,1.3535l-1.0898,0.082
		c-0.0586-0.543-0.2568-0.9531-0.5947-1.2305s-0.8369-0.416-1.4971-0.416c-0.6875,0-1.1885,0.126-1.5029,0.3779
		s-0.4717,0.5557-0.4717,0.9111c0,0.3086,0.1113,0.5625,0.334,0.7617c0.2188,0.1992,0.79,0.4033,1.7139,0.6123
		s1.5576,0.3916,1.9014,0.5479c0.5,0.2305,0.8691,0.5225,1.1074,0.876s0.3574,0.7607,0.3574,1.2217
		c0,0.457-0.1309,0.8877-0.3926,1.292s-0.6377,0.7188-1.1279,0.9434s-1.042,0.3369-1.6553,0.3369
		c-0.7773,0-1.4287-0.1133-1.9541-0.3398s-0.9375-0.5674-1.2363-1.0225S308.709,6.5566,308.6934,5.9824z"/>
	<path style="fill:#FFFFFF;" d="M316.2578,4.5586c0-1.4258,0.3828-2.542,1.1484-3.3486S319.1602,0,320.3711,0
		c0.793,0,1.5078,0.1895,2.1445,0.5684s1.1221,0.9072,1.4561,1.585s0.501,1.4463,0.501,2.3057c0,0.8711-0.1758,1.6504-0.5273,2.3379
		s-0.8496,1.208-1.4941,1.5615s-1.3398,0.5303-2.0859,0.5303c-0.8086,0-1.5313-0.1953-2.168-0.5859s-1.1191-0.9238-1.4473-1.5996
		S316.2578,5.3125,316.2578,4.5586z M317.4297,4.5762c0,1.0352,0.2783,1.8506,0.835,2.4463s1.2549,0.8936,2.0947,0.8936
		c0.8555,0,1.5596-0.3008,2.1123-0.9023s0.8291-1.4551,0.8291-2.5605c0-0.6992-0.1182-1.3096-0.3545-1.8311
		s-0.582-0.9258-1.0371-1.2129s-0.9658-0.4307-1.5322-0.4307c-0.8047,0-1.4971,0.2764-2.0771,0.8291
		S317.4297,3.2832,317.4297,4.5762z"/>
	<path style="fill:#FFFFFF;" d="M325.5166,8.7422V0.1523h5.7949V1.166h-4.6582v2.6602h4.0313v1.0137h-4.0313v3.9023H325.5166z"/>
	<path style="fill:#FFFFFF;" d="M334.4932,8.7422V1.166h-2.8301V0.1523h6.8086V1.166h-2.8418v7.5762H334.4932z"/>
	<path style="fill:#FFFFFF;" d="M340.6582,8.7422l-2.2793-8.5898h1.166l1.3066,5.6309c0.1406,0.5898,0.2617,1.1758,0.3633,1.7578
		c0.2188-0.918,0.3477-1.4473,0.3867-1.5879l1.6348-5.8008h1.3711L345.8379,4.5c0.3086,1.0781,0.5313,2.0918,0.668,3.041
		c0.1094-0.543,0.252-1.166,0.4277-1.8691l1.3477-5.5195h1.1426l-2.3555,8.5898h-1.0957l-1.8105-6.5449
		c-0.1523-0.5469-0.2422-0.8828-0.2695-1.0078c-0.0898,0.3945-0.1738,0.7305-0.252,1.0078l-1.8223,6.5449H340.6582z"/>
	<path style="fill:#FFFFFF;" d="M349.0605,8.7422l3.2988-8.5898h1.2246l3.5156,8.5898h-1.2949l-1.002-2.6016h-3.5918l-0.9434,2.6016
		H349.0605z M351.5391,5.2148h2.9121l-0.8965-2.3789c-0.2734-0.7227-0.4766-1.3164-0.6094-1.7813
		c-0.1094,0.5508-0.2637,1.0977-0.4629,1.6406L351.5391,5.2148z"/>
	<path style="fill:#FFFFFF;" d="M357.5449,8.7422V0.1523h3.8086c0.7656,0,1.3477,0.0771,1.7461,0.2314s0.7168,0.4268,0.9551,0.8174
		s0.3574,0.8223,0.3574,1.2949c0,0.6094-0.1973,1.123-0.5918,1.541s-1.0039,0.6836-1.8281,0.7969
		c0.3008,0.1445,0.5293,0.2871,0.6855,0.4277c0.332,0.3047,0.6465,0.6855,0.9434,1.1426l1.4941,2.3379h-1.4297l-1.1367-1.7871
		c-0.332-0.5156-0.6055-0.9102-0.8203-1.1836s-0.4072-0.4648-0.5771-0.5742s-0.3428-0.1855-0.5186-0.2285
		c-0.1289-0.0273-0.3398-0.041-0.6328-0.041h-1.3184v3.8145H357.5449z M358.6816,3.9434h2.4434
		c0.5195,0,0.9258-0.0537,1.2188-0.1611s0.5156-0.2793,0.668-0.5156s0.2285-0.4932,0.2285-0.7705
		c0-0.4063-0.1475-0.7402-0.4424-1.002s-0.7607-0.3926-1.3975-0.3926h-2.7188V3.9434z"/>
	<path style="fill:#FFFFFF;" d="M365.7373,8.7422V0.1523h6.2109V1.166h-5.0742v2.6309h4.752v1.0078h-4.752v2.9238h5.2734v1.0137
		H365.7373z"/>
</g>
</svg>
