<?xml version="1.0" encoding="utf-8"?>
<!-- Generator: Adobe Illustrator 21.0.0, SVG Export Plug-In . SVG Version: 6.00 Build 0)  -->
<svg version="1.1" id="Capa_1" xmlns="http://www.w3.org/2000/svg" xmlns:xlink="http://www.w3.org/1999/xlink" x="0px" y="0px"
	 viewBox="0 0 186.1351 161.4122" style="enable-background:new 0 0 186.1351 161.4122;" xml:space="preserve">
<g>
	<g>
		<g>
			<path style="fill:#FFFFFF;stroke:#FFFFFF;stroke-width:1.272;stroke-miterlimit:10;" d="M19.8536,123.9963
				c-0.4434,1.0322-1.0521,1.9341-1.826,2.708c-0.7739,0.7752-1.6814,1.3838-2.7211,1.8273
				c-1.0403,0.4436-2.1489,0.6646-3.3259,0.6646H1.0001V94.5126h10.9804c1.177,0,2.2857,0.2211,3.3259,0.6646
				c1.0397,0.4434,1.9472,1.0521,2.7211,1.826c0.7739,0.7739,1.3826,1.6807,1.826,2.7217c0.4436,1.0396,0.6653,2.1477,0.6653,3.3253
				v17.6318C20.5188,121.8597,20.2971,122.9641,19.8536,123.9963z M17.3984,103.0502c0-0.7739-0.1448-1.4956-0.4354-2.1651
				c-0.29-0.6683-0.6894-1.2571-1.1968-1.7652c-0.508-0.508-1.0969-0.9068-1.7658-1.1975
				c-0.6696-0.2907-1.3907-0.4361-2.1646-0.4361H4.1198v28.7346h7.7159c0.7739,0,1.495-0.1453,2.1646-0.4348
				c0.669-0.2907,1.2578-0.6856,1.7658-1.1863c0.5074-0.4994,0.9068-1.0831,1.1968-1.7527
				c0.2907-0.6696,0.4354-1.3913,0.4354-2.1652V103.0502z"/>
			<path style="fill:#FFFFFF;stroke:#FFFFFF;stroke-width:1.272;stroke-miterlimit:10;" d="M42.9282,125.2298
				c-0.3789,0.887-0.8988,1.6609-1.5603,2.3217c-0.6608,0.6609-1.4353,1.1813-2.3217,1.5603
				c-0.8868,0.3789-1.8303,0.5677-2.8297,0.5677h-1.9838c-0.9999,0-1.9428-0.1888-2.8297-0.5677
				c-0.8869-0.3789-1.6607-0.8993-2.3217-1.5603c-0.6614-0.6608-1.1813-1.4347-1.5601-2.3217
				c-0.3789-0.8868-0.5683-1.8297-0.5683-2.8297v-11.1748c0-1.0001,0.1894-1.9429,0.5683-2.8297
				c0.3788-0.887,0.8987-1.6609,1.5601-2.3217c0.6609-0.6609,1.4348-1.1813,2.3217-1.5603c0.887-0.3788,1.8298-0.569,2.8297-0.569
				h1.9838c0.9994,0,1.9429,0.1902,2.8297,0.569c0.8863,0.3789,1.6609,0.8993,2.3217,1.5603
				c0.6614,0.6608,1.1813,1.4347,1.5603,2.3217c0.3788,0.8868,0.5683,1.8297,0.5683,2.8297v5.8297H29.9279v5.5141
				c0,0.5963,0.1123,1.1565,0.3385,1.6807c0.2254,0.5242,0.5322,0.9801,0.9192,1.3665c0.3869,0.3875,0.8422,0.6944,1.3665,0.9192
				c0.5236,0.226,1.0844,0.3391,1.6806,0.3391h1.9838c0.5963,0,1.1565-0.1131,1.6807-0.3391
				c0.5242-0.2248,0.9795-0.5317,1.3664-0.9192c0.3869-0.3864,0.6931-0.8423,0.9193-1.3665
				c0.2254-0.5242,0.3385-1.0844,0.3385-1.6807v-1.6446l2.9751,0.4832V122.4C43.4965,123.4001,43.307,124.3429,42.9282,125.2298z
				 M40.5214,111.0563c0-0.5963-0.1131-1.1578-0.3385-1.682c-0.2262-0.5229-0.5323-0.9788-0.9193-1.3664
				c-0.3869-0.3863-0.8422-0.6931-1.3664-0.9193c-0.5242-0.2248-1.0844-0.3379-1.6807-0.3379h-1.9838
				c-0.5962,0-1.157,0.1131-1.6806,0.3379c-0.5243,0.2262-0.9796,0.533-1.3665,0.9193c-0.3869,0.3876-0.6938,0.8435-0.9192,1.3664
				c-0.2262,0.5242-0.3385,1.0857-0.3385,1.682v3.6756h10.5935V111.0563z"/>
			<path style="fill:#FFFFFF;stroke:#FFFFFF;stroke-width:1.272;stroke-miterlimit:10;" d="M66.4741,122.9081
				c0,1.0001-0.2019,1.9143-0.6043,2.7441c-0.4037,0.831-0.9521,1.5452-1.6446,2.1416c-0.6939,0.5962-1.4963,1.0596-2.4068,1.3899
				c-0.9111,0.3305-1.8664,0.4957-2.8665,0.4957h-1.9831c-1.0001,0-1.9552-0.1888-2.8665-0.5677
				c-0.9111-0.3789-1.7092-0.8993-2.3943-1.5603c-0.6856-0.6608-1.2335-1.4347-1.6446-2.3217
				c-0.4112-0.8868-0.6168-1.8297-0.6168-2.8297v-0.9924l2.9751-0.4832v1.6446c0,0.5963,0.1248,1.1565,0.3745,1.6807
				c0.2503,0.5242,0.5845,0.9801,1.0037,1.3665c0.4191,0.3875,0.903,0.6944,1.4515,0.9192c0.5477,0.226,1.1204,0.3391,1.7174,0.3391
				h1.9831c0.5963,0,1.169-0.0882,1.7174-0.2658c0.5479-0.1776,1.0361-0.4322,1.4633-0.7627
				c0.4274-0.3303,0.7659-0.7291,1.0162-1.1975c0.2497-0.4671,0.3745-0.9987,0.3745-1.5963c0-0.8857-0.1932-1.6124-0.5802-2.1763
				c-0.3869-0.564-0.8993-1.0361-1.536-1.4149c-0.6373-0.3789-1.3627-0.6931-2.1769-0.9428
				c-0.8142-0.251-1.649-0.5007-2.5037-0.7504c-0.8545-0.2497-1.6887-0.5354-2.5029-0.8584
				c-0.8143-0.323-1.5404-0.7465-2.1771-1.2707c-0.6372-0.5229-1.149-1.1801-1.536-1.9701c-0.3869-0.7901-0.58-1.774-0.58-2.9515
				c0-1.0001,0.1931-1.9143,0.58-2.7453c0.3869-0.8299,0.9111-1.5441,1.5726-2.1404c0.6609-0.5962,1.4305-1.0596,2.31-1.3912
				c0.8782-0.3305,1.8173-0.4957,2.8173-0.4957h1.7415c1.0001,0,1.9429,0.1902,2.8299,0.569
				c0.8868,0.3789,1.6607,0.8993,2.3222,1.5603c0.6609,0.6608,1.1808,1.4347,1.5603,2.3217
				c0.3783,0.8868,0.5683,1.8297,0.5683,2.8297v0.0968l-2.9751,0.4832v-0.749c0-0.5963-0.1131-1.1578-0.3385-1.682
				c-0.226-0.5229-0.5323-0.9788-0.9193-1.3664c-0.3869-0.3863-0.8428-0.6931-1.3664-0.9193
				c-0.5242-0.2248-1.085-0.3379-1.6814-0.3379h-1.7415c-0.5962,0-1.1572,0.0882-1.6807,0.2659
				c-0.5242,0.1776-0.9795,0.431-1.3664,0.7614c-0.3869,0.3317-0.6938,0.7304-0.9193,1.1975
				c-0.226,0.4684-0.3385,1.0001-0.3385,1.5963c0,0.8547,0.1932,1.5527,0.5802,2.0931c0.3869,0.5404,0.8987,0.995,1.536,1.3664
				c0.6366,0.3702,1.3627,0.6808,2.1769,0.9305c0.8137,0.2508,1.6447,0.508,2.4912,0.7739c0.8467,0.267,1.677,0.5688,2.4912,0.908
				c0.8143,0.338,1.5398,0.7739,2.1769,1.3056c0.6367,0.5317,1.1485,1.1975,1.5361,1.995
				C66.281,120.743,66.4741,121.7306,66.4741,122.9081z"/>
			<path style="fill:#FFFFFF;stroke:#FFFFFF;stroke-width:1.272;stroke-miterlimit:10;" d="M87.7345,129.1962l-1.6447-2.4669
				c-0.6776,0.8869-1.5241,1.5999-2.5397,2.1403c-1.0161,0.5403-2.1285,0.8099-3.3378,0.8099h-0.7502
				c-1.0001,0-1.9429-0.1888-2.8297-0.5677c-0.887-0.3789-1.6609-0.8993-2.3217-1.5603c-0.6616-0.6608-1.1813-1.4347-1.5603-2.3217
				c-0.3788-0.8868-0.5683-1.8297-0.5683-2.8297v-0.2422c0-0.9999,0.1895-1.9428,0.5683-2.8297
				c0.3789-0.887,0.8987-1.6609,1.5603-2.3217c0.6608-0.6621,1.4347-1.1813,2.3217-1.5602
				c0.8869-0.3788,1.8297-0.5688,2.8297-0.5688h6.2886v-3.821c0-0.5963-0.113-1.1578-0.3385-1.682
				c-0.226-0.5229-0.5323-0.9788-0.9193-1.3664c-0.3868-0.3863-0.8422-0.6931-1.3664-0.9193
				c-0.5242-0.2248-1.0844-0.3379-1.6807-0.3379h-1.7415c-0.5968,0-1.1572,0.1131-1.6814,0.3379
				c-0.5242,0.2262-0.9795,0.533-1.3664,0.9193c-0.3869,0.3876-0.6931,0.8435-0.9193,1.3664
				c-0.2254,0.5242-0.3385,1.0857-0.3385,1.682v0.8944l-2.975-0.4832v-0.2422c0-1.0001,0.1894-1.9429,0.5682-2.8297
				c0.3789-0.887,0.8988-1.6609,1.5603-2.3217c0.6608-0.6609,1.4353-1.1813,2.3223-1.5603c0.8863-0.3788,1.8298-0.569,2.8297-0.569
				h1.7415c0.9994,0,1.9429,0.1902,2.8299,0.569c0.8862,0.3789,1.6607,0.8993,2.3216,1.5603
				c0.6616,0.6608,1.1814,1.4347,1.5603,2.3217c0.3789,0.8868,0.5683,1.8297,0.5683,2.8297v17.9709H87.7345z M85.7507,117.199
				h-6.2886c-0.5963,0-1.1572,0.113-1.6807,0.3391c-0.5242,0.226-0.9795,0.5365-1.3664,0.9316
				c-0.3869,0.395-0.6938,0.8547-0.9193,1.3776c-0.226,0.5242-0.3385,1.0857-0.3385,1.682v1.0396
				c0,0.5963,0.1124,1.1565,0.3385,1.6807c0.2255,0.5242,0.5323,0.9801,0.9193,1.3665c0.3869,0.3875,0.8422,0.6944,1.3664,0.9192
				c0.5236,0.226,1.0844,0.3391,1.6807,0.3391h1.9837c0.5963,0,1.1565-0.1131,1.6807-0.3391
				c0.5242-0.2248,0.9796-0.5317,1.3664-0.9192c0.3869-0.3864,0.6932-0.8423,0.9193-1.3665
				c0.2255-0.5242,0.3385-1.0844,0.3385-1.6807V117.199z"/>
			<path style="fill:#FFFFFF;stroke:#FFFFFF;stroke-width:1.272;stroke-miterlimit:10;" d="M101.9559,107.2589
				c-0.5963,0-1.1572,0.1131-1.6807,0.3378c-0.5242,0.2262-0.9795,0.533-1.3664,0.9193c-0.3869,0.3876-0.6939,0.8435-0.9193,1.3664
				c-0.226,0.5242-0.3385,1.0857-0.3385,1.682v17.6318h-2.9751v-24.7671h0.9919l1.6204,2.5154
				c0.6771-0.9192,1.5273-1.6484,2.5515-2.1899c1.0236-0.5392,2.1403-0.81,3.3502-0.81h1.7409v3.3142H101.9559z"/>
			<path style="fill:#FFFFFF;stroke:#FFFFFF;stroke-width:1.272;stroke-miterlimit:10;" d="M116.1778,107.2589
				c-0.5962,0-1.157,0.1131-1.6807,0.3378c-0.5242,0.2262-0.9795,0.533-1.3664,0.9193c-0.3869,0.3876-0.6938,0.8435-0.9192,1.3664
				c-0.2262,0.5242-0.3385,1.0857-0.3385,1.682v17.6318h-2.9751v-24.7671h0.9919l1.6204,2.5154
				c0.677-0.9192,1.5273-1.6484,2.5515-2.1899c1.0235-0.5392,2.1403-0.81,3.3501-0.81h1.741v3.3142H116.1778z"/>
			<path style="fill:#FFFFFF;stroke:#FFFFFF;stroke-width:1.272;stroke-miterlimit:10;" d="M139.0953,125.2298
				c-0.3788,0.887-0.8987,1.6609-1.5601,2.3217c-0.6609,0.6609-1.4353,1.1813-2.3217,1.5603
				c-0.887,0.3789-1.8304,0.5677-2.8297,0.5677h-1.9838c-0.9999,0-1.9429-0.1888-2.8297-0.5677
				c-0.887-0.3789-1.6609-0.8993-2.3217-1.5603c-0.6615-0.6608-1.1813-1.4347-1.5603-2.3217
				c-0.3788-0.8868-0.5683-1.8297-0.5683-2.8297v-11.1748c0-1.0001,0.1895-1.9429,0.5683-2.8297
				c0.3789-0.887,0.8988-1.6609,1.5603-2.3217c0.6608-0.6609,1.4347-1.1813,2.3217-1.5603c0.8868-0.3788,1.8298-0.569,2.8297-0.569
				h1.9838c0.9993,0,1.9428,0.1902,2.8297,0.569c0.8863,0.3789,1.6607,0.8993,2.3217,1.5603
				c0.6614,0.6608,1.1813,1.4347,1.5601,2.3217c0.3789,0.8868,0.5683,1.8297,0.5683,2.8297V122.4
				C139.6636,123.4001,139.4742,124.3429,139.0953,125.2298z M136.6885,111.0563c0-0.5963-0.1129-1.1578-0.3385-1.682
				c-0.226-0.5229-0.5322-0.9788-0.9192-1.3664c-0.3869-0.3863-0.8422-0.6931-1.3664-0.9193
				c-0.5243-0.2248-1.0845-0.3379-1.6807-0.3379h-1.9838c-0.5963,0-1.1572,0.1131-1.6807,0.3379
				c-0.5242,0.2262-0.9795,0.533-1.3664,0.9193c-0.3869,0.3876-0.6938,0.8435-0.9193,1.3664
				c-0.226,0.5242-0.3385,1.0857-0.3385,1.682v11.5126c0,0.5963,0.1124,1.1565,0.3385,1.6807
				c0.2255,0.5242,0.5323,0.9801,0.9193,1.3665c0.3869,0.3875,0.8422,0.6944,1.3664,0.9192
				c0.5236,0.226,1.0844,0.3391,1.6807,0.3391h1.9838c0.5962,0,1.1564-0.1131,1.6807-0.3391
				c0.5242-0.2248,0.9794-0.5317,1.3664-0.9192c0.3869-0.3864,0.6931-0.8423,0.9192-1.3665
				c0.2255-0.5242,0.3385-1.0844,0.3385-1.6807V111.0563z"/>
			<path style="fill:#FFFFFF;stroke:#FFFFFF;stroke-width:1.272;stroke-miterlimit:10;" d="M146.6056,129.1962V94.5126h2.9745
				v34.6836H146.6056z"/>
			<path style="fill:#FFFFFF;stroke:#FFFFFF;stroke-width:1.272;stroke-miterlimit:10;" d="M157.5141,129.1962V94.5126h2.9745
				v34.6836H157.5141z"/>
			<path style="fill:#FFFFFF;stroke:#FFFFFF;stroke-width:1.272;stroke-miterlimit:10;" d="M182.9221,125.2298
				c-0.3788,0.887-0.8987,1.6609-1.5601,2.3217c-0.6609,0.6609-1.4355,1.1813-2.3217,1.5603
				c-0.887,0.3789-1.8304,0.5677-2.8297,0.5677h-1.9838c-0.9999,0-1.9429-0.1888-2.8297-0.5677
				c-0.887-0.3789-1.6609-0.8993-2.3217-1.5603c-0.6615-0.6608-1.1813-1.4347-1.5603-2.3217
				c-0.3788-0.8868-0.5683-1.8297-0.5683-2.8297v-11.1748c0-1.0001,0.1895-1.9429,0.5683-2.8297
				c0.3789-0.887,0.8988-1.6609,1.5603-2.3217c0.6608-0.6609,1.4347-1.1813,2.3217-1.5603c0.8868-0.3788,1.8298-0.569,2.8297-0.569
				h1.9838c0.9993,0,1.9427,0.1902,2.8297,0.569c0.8862,0.3789,1.6608,0.8993,2.3217,1.5603
				c0.6615,0.6608,1.1813,1.4347,1.5601,2.3217c0.3789,0.8868,0.5683,1.8297,0.5683,2.8297V122.4
				C183.4904,123.4001,183.301,124.3429,182.9221,125.2298z M180.5153,111.0563c0-0.5963-0.113-1.1578-0.3385-1.682
				c-0.226-0.5229-0.5322-0.9788-0.9192-1.3664c-0.3869-0.3863-0.8422-0.6931-1.3665-0.9193
				c-0.5242-0.2248-1.0844-0.3379-1.6806-0.3379h-1.9838c-0.5963,0-1.1572,0.1131-1.6807,0.3379
				c-0.5242,0.2262-0.9794,0.533-1.3664,0.9193c-0.3869,0.3876-0.6938,0.8435-0.9193,1.3664
				c-0.226,0.5242-0.3385,1.0857-0.3385,1.682v11.5126c0,0.5963,0.1124,1.1565,0.3385,1.6807
				c0.2255,0.5242,0.5323,0.9801,0.9193,1.3665c0.3869,0.3875,0.8422,0.6944,1.3664,0.9192
				c0.5236,0.226,1.0844,0.3391,1.6807,0.3391h1.9838c0.5962,0,1.1564-0.1131,1.6806-0.3391
				c0.5243-0.2248,0.9796-0.5317,1.3665-0.9192c0.3869-0.3864,0.6931-0.8423,0.9192-1.3665
				c0.2255-0.5242,0.3385-1.0844,0.3385-1.6807V111.0563z"/>
		</g>
	</g>
	<g>
		<g>
			<path style="fill:#FFFFFF;" d="M3.2906,3.4093v9.4643h9.7482v2.1838H3.2906v11.6308H1.0001V1.2242h14.3294v2.1851H3.2906z"/>
			<path style="fill:#FFFFFF;" d="M29.6602,26.6882l-1.2074-1.8472c-0.4975,0.6758-1.1192,1.2112-1.8645,1.6074
				c-0.7459,0.3962-1.5627,0.595-2.4509,0.595h-0.5503c-0.7341,0-1.4267-0.1392-2.0776-0.4173
				c-0.6509-0.2783-1.2192-0.6597-1.7049-1.1453c-0.4851-0.4858-0.8671-1.0535-1.1453-1.7044
				c-0.2783-0.6509-0.4168-1.344-0.4168-2.0782V8.5049h2.1838v13.3176c0,0.4385,0.0827,0.8497,0.2486,1.2347
				c0.1657,0.385,0.3906,0.7192,0.6751,1.0025c0.2839,0.2844,0.6181,0.5093,1.0031,0.6757
				c0.3844,0.1652,0.7963,0.2484,1.2341,0.2484h1.4558c0.438,0,0.8497-0.0832,1.2341-0.2484
				c0.3845-0.1664,0.7193-0.3913,1.0037-0.6757c0.2839-0.2833,0.5087-0.6174,0.6746-1.0025
				c0.1659-0.385,0.2484-0.7963,0.2484-1.2347V8.5049h2.1844v18.1834H29.6602z"/>
			<path style="fill:#FFFFFF;" d="M44.7176,26.6882V13.3706c0-0.4386-0.0826-0.8497-0.2484-1.2347
				c-0.1659-0.3839-0.3906-0.7193-0.6745-1.0025c-0.2844-0.2846-0.6192-0.5093-1.0036-0.6746
				c-0.3845-0.1665-0.7963-0.2497-1.2341-0.2497h-1.456c-0.4378,0-0.8496,0.0832-1.2341,0.2497
				c-0.385,0.1652-0.7192,0.39-1.0031,0.6746c-0.2844,0.2832-0.5093,0.6186-0.6751,1.0025
				c-0.1659,0.385-0.2484,0.7962-0.2484,1.2347v13.3176h-2.1838V8.5049h0.7278l1.1895,1.8471
				c0.4975-0.6746,1.1217-1.2099,1.8732-1.6074c0.7523-0.3962,1.5721-0.5949,2.4596-0.5949h0.5504
				c0.7341,0,1.4266,0.139,2.0776,0.4173c0.6509,0.2782,1.2192,0.6608,1.7049,1.1453c0.485,0.4857,0.867,1.0534,1.1453,1.7042
				c0.2782,0.6522,0.4173,1.3441,0.4173,2.0782v13.1935H44.7176z"/>
			<path style="fill:#FFFFFF;" d="M62.688,26.6882l-1.2075-1.8472c-0.4975,0.6758-1.1191,1.2112-1.8645,1.6074
				c-0.7459,0.3962-1.5627,0.595-2.4508,0.595h-0.5504c-0.7341,0-1.4266-0.1392-2.0776-0.4173
				c-0.6509-0.2783-1.2192-0.6597-1.7049-1.1453c-0.485-0.4858-0.867-1.0535-1.1453-1.7044
				c-0.2782-0.6509-0.4167-1.344-0.4167-2.0782v-8.2035c0-0.7341,0.1385-1.4261,0.4167-2.0782
				c0.2783-0.6509,0.6603-1.2186,1.1453-1.7042c0.4857-0.4845,1.054-0.8671,1.7049-1.1453c0.651-0.2783,1.3435-0.4173,2.0776-0.4173
				h0.5504c0.8168,0,1.5745,0.1664,2.2732,0.4981c0.6981,0.3303,1.2962,0.7925,1.793,1.3838V1.2242h2.1844v25.464H62.688z
				 M61.2314,13.3706c0-0.4386-0.0826-0.8497-0.2484-1.2347c-0.1657-0.3839-0.3906-0.7193-0.6744-1.0025
				c-0.2845-0.2846-0.6193-0.5093-1.0037-0.6746c-0.3845-0.1665-0.7963-0.2497-1.2341-0.2497h-1.456
				c-0.4378,0-0.8496,0.0832-1.2341,0.2497c-0.385,0.1652-0.7192,0.39-1.003,0.6746c-0.2845,0.2832-0.5093,0.6186-0.6752,1.0025
				c-0.1659,0.385-0.2484,0.7962-0.2484,1.2347v8.4519c0,0.4385,0.0826,0.8497,0.2484,1.2347
				c0.1659,0.385,0.3906,0.7192,0.6752,1.0025c0.2838,0.2844,0.6179,0.5093,1.003,0.6757c0.3845,0.1652,0.7963,0.2484,1.2341,0.2484
				h1.456c0.4378,0,0.8496-0.0832,1.2341-0.2484c0.3844-0.1664,0.7192-0.3913,1.0037-0.6757
				c0.2838-0.2833,0.5087-0.6174,0.6744-1.0025c0.1659-0.385,0.2484-0.7963,0.2484-1.2347V13.3706z"/>
			<path style="fill:#FFFFFF;" d="M79.2018,26.6882l-1.2074-1.8111c-0.4976,0.6509-1.1192,1.1751-1.8646,1.5713
				c-0.7459,0.3962-1.5627,0.595-2.4508,0.595h-0.5503c-0.7342,0-1.4267-0.1392-2.0776-0.4173
				c-0.651-0.2783-1.2192-0.6597-1.705-1.1453c-0.485-0.4858-0.867-1.0535-1.1453-1.7044c-0.2782-0.6509-0.4167-1.344-0.4167-2.0782
				v-0.1776c0-0.7342,0.1385-1.4261,0.4167-2.077c0.2783-0.6509,0.6603-1.2199,1.1453-1.7055
				c0.4858-0.4845,1.054-0.8671,1.705-1.1453c0.6509-0.277,1.3434-0.4175,2.0776-0.4175h4.6167v-2.8048
				c0-0.4386-0.0827-0.8497-0.2486-1.2347c-0.1657-0.3839-0.3906-0.7193-0.6744-1.0025c-0.2845-0.2846-0.6192-0.5093-1.0037-0.6746
				c-0.3844-0.1665-0.7963-0.2497-1.2341-0.2497h-1.2782c-0.4378,0-0.8497,0.0832-1.2341,0.2497
				c-0.385,0.1652-0.7192,0.39-1.0031,0.6746c-0.2844,0.2832-0.5093,0.6186-0.6751,1.0025
				c-0.1659,0.385-0.2484,0.7962-0.2484,1.2347v0.6571l-2.1844-0.3553v-0.1777c0-0.7341,0.139-1.4261,0.4174-2.0782
				c0.2782-0.6509,0.6602-1.2186,1.1453-1.7042c0.4857-0.4845,1.0534-0.8671,1.7049-1.1453
				c0.6509-0.2783,1.3435-0.4173,2.0776-0.4173h1.2782c0.7341,0,1.4267,0.139,2.0776,0.4173
				c0.6509,0.2782,1.2192,0.6608,1.7049,1.1453c0.4852,0.4857,0.8671,1.0534,1.1453,1.7042
				c0.2783,0.6522,0.4174,1.3441,0.4174,2.0782v13.1935H79.2018z M77.7454,17.8811h-4.6167c-0.438,0-0.8497,0.0832-1.2341,0.2484
				c-0.3852,0.1652-0.7193,0.3937-1.0031,0.6832c-0.2845,0.2907-0.5093,0.6272-0.6752,1.0124
				c-0.1659,0.385-0.2484,0.7963-0.2484,1.2347v0.7627c0,0.4385,0.0826,0.8497,0.2484,1.2347
				c0.1659,0.385,0.3906,0.7192,0.6752,1.0025c0.2838,0.2844,0.618,0.5093,1.0031,0.6757c0.3844,0.1652,0.7962,0.2484,1.2341,0.2484
				h1.4558c0.4378,0,0.8497-0.0832,1.2341-0.2484c0.3845-0.1664,0.7192-0.3913,1.0037-0.6757
				c0.2838-0.2833,0.5087-0.6174,0.6744-1.0025c0.1659-0.385,0.2486-0.7963,0.2486-1.2347V17.8811z"/>
			<path style="fill:#FFFFFF;" d="M103.4937,26.6882V13.3706c0-0.4386-0.0832-0.8497-0.2484-1.2347
				c-0.1664-0.3839-0.3906-0.7193-0.6751-1.0025c-0.2839-0.2846-0.6187-0.5093-1.0031-0.6746
				c-0.385-0.1665-0.7963-0.2497-1.2341-0.2497h-1.0833c-0.4378,0-0.8496,0.0832-1.2341,0.2497
				c-0.385,0.1652-0.7224,0.39-1.0124,0.6746c-0.29,0.2832-0.518,0.6186-0.6832,1.0025c-0.1659,0.385-0.2491,0.7962-0.2491,1.2347
				v13.3176h-2.1664V13.3706c0-0.4386-0.0827-0.8497-0.2484-1.2347c-0.1659-0.3839-0.3938-0.7193-0.6832-1.0025
				c-0.2908-0.2846-0.628-0.5093-1.0124-0.6746c-0.3852-0.1665-0.7963-0.2497-1.2342-0.2497h-1.0831
				c-0.438,0-0.8497,0.0832-1.2341,0.2497c-0.3852,0.1652-0.7193,0.39-1.0031,0.6746c-0.2844,0.2832-0.5093,0.6186-0.6752,1.0025
				c-0.1657,0.385-0.2484,0.7962-0.2484,1.2347v13.3176h-2.1838V8.5049h0.728l1.1893,1.8471
				c0.4976-0.6746,1.1218-1.2099,1.8733-1.6074c0.7521-0.3962,1.572-0.5949,2.4596-0.5949h0.1776
				c1.0298,0,1.959,0.2547,2.7875,0.764c0.8286,0.5092,1.4683,1.1837,1.9181,2.0248c0.2248-0.4149,0.5031-0.7939,0.8347-1.1367
				c0.3311-0.3441,0.6981-0.636,1.1006-0.8795C97.7696,8.68,98.2082,8.49,98.6814,8.3545c0.4733-0.1366,0.9646-0.2049,1.4739-0.2049
				h0.1777c0.7334,0,1.4261,0.139,2.0776,0.4173c0.6509,0.2782,1.2192,0.6608,1.7042,1.1453
				c0.4858,0.4857,0.8671,1.0534,1.1453,1.7042c0.2783,0.6522,0.4174,1.3441,0.4174,2.0782v13.1935H103.4937z"/>
			<path style="fill:#FFFFFF;" d="M121.7746,23.7765c-0.2782,0.6509-0.6602,1.2186-1.1453,1.7044
				c-0.4857,0.4857-1.054,0.867-1.7049,1.1453c-0.6509,0.2782-1.3434,0.4173-2.0776,0.4173h-1.4558
				c-0.7342,0-1.4267-0.1392-2.0776-0.4173c-0.6509-0.2783-1.2192-0.6597-1.705-1.1453c-0.485-0.4858-0.867-1.0535-1.1452-1.7044
				c-0.2783-0.6509-0.4168-1.344-0.4168-2.0782v-8.2035c0-0.7341,0.1385-1.4261,0.4168-2.0782
				c0.2782-0.6509,0.6602-1.2186,1.1452-1.7042c0.4858-0.4845,1.0541-0.8671,1.705-1.1453
				c0.6509-0.2783,1.3434-0.4173,2.0776-0.4173h1.4558c0.7342,0,1.4267,0.139,2.0776,0.4173
				c0.6509,0.2782,1.2192,0.6608,1.7049,1.1453c0.4852,0.4857,0.8671,1.0534,1.1453,1.7042
				c0.2783,0.6522,0.4175,1.3441,0.4175,2.0782v4.2794h-9.9619v4.0483c0,0.4385,0.0827,0.8497,0.2484,1.2347
				c0.1659,0.385,0.3908,0.7192,0.6752,1.0025c0.2838,0.2844,0.618,0.5093,1.0031,0.6757c0.3844,0.1652,0.7962,0.2484,1.2341,0.2484
				h1.4558c0.4378,0,0.8497-0.0832,1.2341-0.2484c0.3845-0.1664,0.7193-0.3913,1.0037-0.6757
				c0.2838-0.2833,0.5087-0.6174,0.6746-1.0025c0.1657-0.385,0.2484-0.7963,0.2484-1.2347v-1.2074l2.1844,0.3553v0.7278
				C122.1921,22.4325,122.0529,23.1256,121.7746,23.7765z M120.0076,13.3706c0-0.4386-0.0827-0.8497-0.2484-1.2347
				c-0.1659-0.3839-0.3908-0.7193-0.6746-1.0025c-0.2844-0.2846-0.6192-0.5093-1.0037-0.6746
				c-0.3844-0.1665-0.7963-0.2497-1.2341-0.2497h-1.4558c-0.438,0-0.8497,0.0832-1.2341,0.2497
				c-0.3852,0.1652-0.7193,0.39-1.0031,0.6746c-0.2844,0.2832-0.5093,0.6186-0.6752,1.0025
				c-0.1657,0.385-0.2484,0.7962-0.2484,1.2347v2.6992h7.7775V13.3706z"/>
			<path style="fill:#FFFFFF;" d="M136.5215,26.6882V13.3706c0-0.4386-0.0826-0.8497-0.2484-1.2347
				c-0.1659-0.3839-0.3906-0.7193-0.6746-1.0025c-0.2844-0.2846-0.6192-0.5093-1.0037-0.6746
				c-0.3844-0.1665-0.7962-0.2497-1.2341-0.2497h-1.4558c-0.4378,0-0.8497,0.0832-1.2341,0.2497
				c-0.3852,0.1652-0.7192,0.39-1.0031,0.6746c-0.2844,0.2832-0.5093,0.6186-0.6752,1.0025
				c-0.1657,0.385-0.2484,0.7962-0.2484,1.2347v13.3176h-2.1838V8.5049h0.728l1.1895,1.8471
				c0.4975-0.6746,1.1217-1.2099,1.8732-1.6074c0.7521-0.3962,1.5721-0.5949,2.4596-0.5949h0.5503
				c0.7342,0,1.4267,0.139,2.0776,0.4173c0.6509,0.2782,1.2192,0.6608,1.705,1.1453c0.485,0.4857,0.867,1.0534,1.1453,1.7042
				c0.2782,0.6522,0.4174,1.3441,0.4174,2.0782v13.1935H136.5215z"/>
			<path style="fill:#FFFFFF;" d="M149.6969,26.6882c-0.6627,0-1.2869-0.1243-1.8733-0.3727
				c-0.5856-0.2484-1.095-0.5925-1.5266-1.0297c-0.4324-0.4386-0.7758-0.9479-1.0305-1.5279
				c-0.2547-0.5789-0.3813-1.2013-0.3813-1.8645V10.5831h-3.2677V8.5049h3.2677V4.1373l2.1838-0.3553v4.7229h4.6167v2.0782h-4.6167
				v11.417c0,0.3677,0.0683,0.7081,0.2043,1.0212c0.1361,0.3142,0.3223,0.5888,0.5597,0.826
				c0.2366,0.2372,0.5149,0.4236,0.8341,0.5589c0.3199,0.1367,0.6627,0.205,1.0298,0.205h1.9888v2.077H149.6969z"/>
			<path style="fill:#FFFFFF;" d="M167.4275,23.7765c-0.2783,0.6509-0.6603,1.2186-1.1453,1.7044
				c-0.4858,0.4857-1.054,0.867-1.705,1.1453c-0.6509,0.2782-1.3434,0.4173-2.0776,0.4173h-1.4558
				c-0.7341,0-1.4267-0.1392-2.0776-0.4173c-0.6509-0.2783-1.2192-0.6597-1.7049-1.1453c-0.4851-0.4858-0.8671-1.0535-1.1453-1.7044
				c-0.2783-0.6509-0.4167-1.344-0.4167-2.0782v-8.2035c0-0.7341,0.1384-1.4261,0.4167-2.0782
				c0.2782-0.6509,0.6602-1.2186,1.1453-1.7042c0.4857-0.4845,1.054-0.8671,1.7049-1.1453
				c0.6509-0.2783,1.3435-0.4173,2.0776-0.4173h1.4558c0.7342,0,1.4267,0.139,2.0776,0.4173
				c0.651,0.2782,1.2192,0.6608,1.705,1.1453c0.485,0.4857,0.867,1.0534,1.1453,1.7042c0.2782,0.6522,0.4174,1.3441,0.4174,2.0782
				v8.2035C167.8449,22.4325,167.7057,23.1256,167.4275,23.7765z M165.6605,13.3706c0-0.4386-0.0826-0.8497-0.2484-1.2347
				c-0.1659-0.3839-0.3906-0.7193-0.6746-1.0025c-0.2844-0.2846-0.6192-0.5093-1.0036-0.6746
				c-0.3845-0.1665-0.7963-0.2497-1.2342-0.2497h-1.4558c-0.4378,0-0.8497,0.0832-1.2341,0.2497
				c-0.385,0.1652-0.7192,0.39-1.0031,0.6746c-0.2844,0.2832-0.5093,0.6186-0.675,1.0025c-0.1659,0.385-0.2484,0.7962-0.2484,1.2347
				v8.4519c0,0.4385,0.0826,0.8497,0.2484,1.2347c0.1657,0.385,0.3906,0.7192,0.675,1.0025
				c0.2839,0.2844,0.6181,0.5093,1.0031,0.6757c0.3844,0.1652,0.7963,0.2484,1.2341,0.2484h1.4558
				c0.438,0,0.8497-0.0832,1.2342-0.2484c0.3844-0.1664,0.7192-0.3913,1.0036-0.6757c0.2839-0.2833,0.5087-0.6174,0.6746-1.0025
				c0.1659-0.385,0.2484-0.7963,0.2484-1.2347V13.3706z"/>
			<path style="fill:#FFFFFF;" d="M184.7146,22.071c0,0.7342-0.1485,1.4062-0.4441,2.0161
				c-0.2963,0.6099-0.6987,1.1329-1.2074,1.5713c-0.5093,0.4385-1.0981,0.7789-1.7671,1.0212
				c-0.669,0.2422-1.3701,0.3639-2.1043,0.3639h-1.4558c-0.7342,0-1.4353-0.1392-2.1043-0.4173
				c-0.6689-0.2783-1.2547-0.6597-1.7578-1.1453c-0.5037-0.4858-0.9055-1.0535-1.2074-1.7044
				c-0.3018-0.6509-0.4527-1.344-0.4527-2.0782v-0.7278l2.1838-0.3553v1.2074c0,0.4385,0.0912,0.8497,0.2751,1.2347
				c0.1832,0.385,0.4292,0.7192,0.7373,1.0025c0.3074,0.2844,0.6627,0.5093,1.0652,0.6757
				c0.4025,0.1652,0.8229,0.2484,1.2608,0.2484h1.4558c0.4378,0,0.8584-0.0658,1.2608-0.1961
				c0.4025-0.1292,0.7609-0.3156,1.0745-0.5591c0.3137-0.2422,0.5621-0.5354,0.746-0.8782
				c0.1832-0.3441,0.2751-0.7342,0.2751-1.1727c0-0.6509-0.1422-1.1839-0.4268-1.5975c-0.2838-0.4148-0.6595-0.7614-1.1273-1.0396
				c-0.4677-0.277-1.0006-0.5082-1.5982-0.692c-0.5981-0.1838-1.2105-0.3665-1.8378-0.5503
				c-0.6272-0.1838-1.2403-0.3938-1.8378-0.631c-0.5981-0.2361-1.1304-0.5466-1.598-0.9316
				c-0.4677-0.3852-0.8435-0.8671-1.128-1.4472c-0.2838-0.5802-0.426-1.3019-0.426-2.1664c0-0.7342,0.1422-1.4062,0.426-2.0161
				c0.2845-0.6087,0.6689-1.1329,1.1546-1.5715c0.4852-0.4372,1.0503-0.7776,1.6957-1.021
				c0.6453-0.2422,1.3347-0.3639,2.0688-0.3639h1.2782c0.7342,0,1.4267,0.139,2.0776,0.4173
				c0.6509,0.2782,1.2192,0.6608,1.7049,1.1453c0.4852,0.4857,0.8671,1.0534,1.1453,1.7042
				c0.2777,0.6522,0.4175,1.3441,0.4175,2.0782v0.0709l-2.1844,0.3553v-0.5503c0-0.4386-0.0827-0.8497-0.2484-1.2347
				c-0.1659-0.3839-0.3908-0.7193-0.6752-1.0025c-0.2839-0.2846-0.6186-0.5093-1.0031-0.6746
				c-0.3844-0.1665-0.7963-0.2497-1.2341-0.2497h-1.2782c-0.4385,0-0.8496,0.0659-1.2341,0.1963
				c-0.385,0.1304-0.7192,0.3167-1.0037,0.5591c-0.2838,0.2422-0.5087,0.5354-0.6744,0.8795
				c-0.1659,0.3428-0.2484,0.7341-0.2484,1.1714c0,0.6272,0.1422,1.1391,0.426,1.5366c0.2839,0.3962,0.6597,0.7304,1.1273,1.0025
				c0.4677,0.2732,1.0007,0.5005,1.5982,0.6843c0.5981,0.1827,1.208,0.3727,1.8292,0.5677
				c0.6218,0.1951,1.2311,0.4175,1.8292,0.6659c0.5975,0.2484,1.1303,0.5677,1.598,0.959c0.4677,0.39,0.8435,0.8795,1.1274,1.4645
				C184.5724,20.4822,184.7146,21.2076,184.7146,22.071z"/>
		</g>
	</g>
	<g>
		<g>
			<path style="fill:#FFFFFF;" d="M56.8124,91.5537c-0.2509,0.5876-0.5956,1.1006-1.0341,1.5391
				c-0.4385,0.4385-0.9515,0.7838-1.5391,1.0348c-0.5882,0.2509-1.2136,0.3764-1.8764,0.3764h-0.4969
				c-0.7379,0-1.4223-0.1491-2.0527-0.4484c-0.631-0.2994-1.1708-0.7168-1.6198-1.2509v7.9538h-1.972V77.7628h0.6571l1.0745,1.6683
				c0.4491-0.6099,1.013-1.0931,1.6919-1.4521c0.6789-0.3578,1.4192-0.5366,2.2211-0.5366h0.4969
				c0.6627,0,1.2882,0.1255,1.8764,0.3764c0.5876,0.2522,1.1006,0.5963,1.5391,1.0348c0.4385,0.4385,0.7832,0.9515,1.0341,1.5391
				c0.2515,0.5888,0.377,1.2136,0.377,1.877v7.4085C57.1894,90.3401,57.0639,90.9662,56.8124,91.5537z M55.2174,82.1564
				c0-0.395-0.0752-0.7664-0.2248-1.1143s-0.3528-0.6497-0.6093-0.9056c-0.2565-0.2571-0.559-0.4596-0.9062-0.6099
				c-0.3472-0.1491-0.7186-0.2248-1.1143-0.2248h-1.3149c-0.3956,0-0.7671,0.0758-1.1143,0.2248
				c-0.3478,0.1503-0.6497,0.3528-0.9062,0.6099c-0.2565,0.2559-0.4596,0.5578-0.6093,0.9056
				c-0.1503,0.3478-0.2248,0.7192-0.2248,1.1143v7.6333c0,0.395,0.0745,0.7677,0.2248,1.1143
				c0.1497,0.3478,0.3528,0.6497,0.6093,0.9056c0.2565,0.2571,0.5584,0.4609,0.9062,0.6099
				c0.3472,0.1503,0.7186,0.2248,1.1143,0.2248h1.3149c0.3956,0,0.7671-0.0745,1.1143-0.2248
				c0.3472-0.1491,0.6497-0.3528,0.9062-0.6099c0.2565-0.2559,0.4596-0.5577,0.6093-0.9056
				c0.1497-0.3466,0.2248-0.7192,0.2248-1.1143V82.1564z"/>
			<path style="fill:#FFFFFF;" d="M71.4455,94.1835l-1.0907-1.636c-0.4491,0.5888-1.0105,1.0608-1.6838,1.4198
				c-0.6733,0.3578-1.4111,0.5366-2.213,0.5366h-0.4969c-0.6633,0-1.2882-0.1255-1.8764-0.3764
				c-0.5882-0.2509-1.1012-0.5963-1.5391-1.0348c-0.4385-0.4385-0.7832-0.9515-1.0348-1.5391
				c-0.2509-0.5876-0.3764-1.2136-0.3764-1.8757v-0.1615c0-0.6621,0.1255-1.2869,0.3764-1.8757
				c0.2515-0.5876,0.5963-1.1006,1.0348-1.5391c0.4379-0.4385,0.9509-0.7826,1.5391-1.0348
				c0.5882-0.2509,1.213-0.3764,1.8764-0.3764h4.1695v-2.5341c0-0.395-0.0752-0.7664-0.2248-1.1143
				c-0.1497-0.3478-0.3528-0.6497-0.6093-0.9056c-0.2565-0.2571-0.559-0.4596-0.9062-0.6099
				c-0.3472-0.1491-0.7186-0.2248-1.1143-0.2248h-1.1546c-0.3956,0-0.7671,0.0758-1.1143,0.2248
				c-0.3478,0.1503-0.6497,0.3528-0.9062,0.6099c-0.2565,0.2559-0.4596,0.5578-0.6093,0.9056s-0.2248,0.7192-0.2248,1.1143v0.5938
				l-1.972-0.3205v-0.1602c0-0.6633,0.1255-1.2882,0.377-1.877c0.2509-0.5876,0.5956-1.1006,1.0341-1.5391
				c0.4379-0.4385,0.9515-0.7826,1.5391-1.0348c0.5882-0.2509,1.2136-0.3764,1.8764-0.3764h1.1546
				c0.6627,0,1.2882,0.1255,1.8764,0.3764c0.5876,0.2522,1.1006,0.5963,1.5391,1.0348s0.7832,0.9515,1.0341,1.5391
				c0.2515,0.5888,0.377,1.2136,0.377,1.877v11.914H71.4455z M70.1307,86.2296h-4.1695c-0.3956,0-0.7671,0.0745-1.1143,0.2248
				c-0.3478,0.1491-0.6497,0.3553-0.9062,0.6174c-0.2565,0.2621-0.4596,0.5665-0.6093,0.9143
				c-0.1503,0.3466-0.2248,0.7192-0.2248,1.1143v0.6894c0,0.395,0.0745,0.7677,0.2248,1.1143
				c0.1497,0.3478,0.3528,0.6497,0.6093,0.9056c0.2565,0.2571,0.5584,0.4609,0.9062,0.6099
				c0.3472,0.1503,0.7186,0.2248,1.1143,0.2248h1.3149c0.3956,0,0.7671-0.0745,1.1143-0.2248
				c0.3472-0.1491,0.6497-0.3528,0.9062-0.6099c0.2565-0.2559,0.4596-0.5577,0.6093-0.9056
				c0.1497-0.3466,0.2248-0.7192,0.2248-1.1143V86.2296z"/>
			<path style="fill:#FFFFFF;" d="M80.8745,79.6397c-0.3956,0-0.7671,0.0745-1.1143,0.2236
				c-0.3478,0.1503-0.6497,0.3528-0.9062,0.6099c-0.2565,0.2559-0.4596,0.559-0.6093,0.9056
				c-0.1503,0.3478-0.2248,0.7192-0.2248,1.1143v11.6904h-1.972V77.7628h0.6571l1.0745,1.6683
				c0.4491-0.6099,1.013-1.0931,1.6919-1.4521c0.6789-0.3578,1.4192-0.5366,2.2211-0.5366h1.154v2.1975H80.8745z"/>
			<path style="fill:#FFFFFF;" d="M95.7871,94.1835l-1.0907-1.636c-0.4484,0.5888-1.0099,1.0608-1.6832,1.4198
				c-0.6733,0.3578-1.4111,0.5366-2.213,0.5366h-0.4969c-0.6633,0-1.2882-0.1255-1.8764-0.3764
				c-0.5882-0.2509-1.1012-0.5963-1.5391-1.0348c-0.4385-0.4385-0.7832-0.9515-1.0348-1.5391
				c-0.2509-0.5876-0.3764-1.2136-0.3764-1.8757v-0.1615c0-0.6621,0.1255-1.2869,0.3764-1.8757
				c0.2515-0.5876,0.5963-1.1006,1.0348-1.5391c0.4379-0.4385,0.9509-0.7826,1.5391-1.0348
				c0.5882-0.2509,1.213-0.3764,1.8764-0.3764h4.1695v-2.5341c0-0.395-0.0745-0.7664-0.2248-1.1143
				c-0.1497-0.3478-0.3528-0.6497-0.6093-0.9056c-0.2565-0.2571-0.559-0.4596-0.9062-0.6099
				c-0.3472-0.1491-0.7186-0.2248-1.1143-0.2248h-1.1546c-0.3956,0-0.7671,0.0758-1.1143,0.2248
				c-0.3478,0.1503-0.6497,0.3528-0.9062,0.6099c-0.2565,0.2559-0.4596,0.5578-0.6093,0.9056
				c-0.1497,0.3478-0.2248,0.7192-0.2248,1.1143v0.5938l-1.972-0.3205v-0.1602c0-0.6633,0.1255-1.2882,0.377-1.877
				c0.2509-0.5876,0.5956-1.1006,1.0341-1.5391c0.4379-0.4385,0.9515-0.7826,1.5391-1.0348
				c0.5882-0.2509,1.2136-0.3764,1.8764-0.3764h1.1546c0.6627,0,1.2882,0.1255,1.8764,0.3764
				c0.5876,0.2522,1.1,0.5963,1.5397,1.0348c0.4373,0.4385,0.7826,0.9515,1.0335,1.5391c0.2509,0.5888,0.3776,1.2136,0.3776,1.877
				v11.914H95.7871z M94.4729,86.2296h-4.1695c-0.3956,0-0.7671,0.0745-1.1143,0.2248c-0.3478,0.1491-0.6497,0.3553-0.9062,0.6174
				c-0.2565,0.2621-0.4596,0.5665-0.6093,0.9143c-0.1503,0.3466-0.2248,0.7192-0.2248,1.1143v0.6894
				c0,0.395,0.0745,0.7677,0.2248,1.1143c0.1497,0.3478,0.3528,0.6497,0.6093,0.9056c0.2565,0.2571,0.5584,0.4609,0.9062,0.6099
				c0.3472,0.1503,0.7186,0.2248,1.1143,0.2248h1.3149c0.3956,0,0.7671-0.0745,1.1143-0.2248
				c0.3472-0.1491,0.6497-0.3528,0.9062-0.6099c0.2565-0.2559,0.4596-0.5577,0.6093-0.9056
				c0.1503-0.3466,0.2248-0.7192,0.2248-1.1143V86.2296z"/>
			<path style="fill:#FFFFFF;" d="M118.5344,91.5537c-0.2509,0.5876-0.5963,1.1006-1.0348,1.5391
				c-0.4385,0.4385-0.9515,0.7838-1.5391,1.0348c-0.5888,0.2509-1.2136,0.3764-1.8757,0.3764h-1.3155
				c-0.6633,0-1.2882-0.1255-1.877-0.3764c-0.5876-0.2509-1.1006-0.5963-1.5378-1.0348c-0.4397-0.4385-0.7838-0.9515-1.036-1.5391
				c-0.2509-0.5876-0.3751-1.2136-0.3751-1.8757v-7.4085c0-0.6633,0.1242-1.2882,0.3751-1.877
				c0.2522-0.5876,0.5963-1.1006,1.036-1.5391c0.4373-0.4385,0.9503-0.7826,1.5378-1.0348c0.5888-0.2509,1.2136-0.3764,1.877-0.3764
				h1.3155c0.6621,0,1.2869,0.1255,1.8757,0.3764c0.5876,0.2522,1.1006,0.5963,1.5391,1.0348s0.7838,0.9515,1.0348,1.5391
				c0.2509,0.5888,0.3764,1.2136,0.3764,1.877v3.8645h-8.996v3.6558c0,0.395,0.0745,0.7677,0.2248,1.1143
				c0.1491,0.3478,0.3528,0.6497,0.6087,0.9056c0.2571,0.2571,0.559,0.4609,0.9068,0.6099c0.3478,0.1503,0.718,0.2248,1.1143,0.2248
				h1.3155c0.395,0,0.7664-0.0745,1.113-0.2248c0.3478-0.1491,0.6509-0.3528,0.9068-0.6099
				c0.2559-0.2559,0.4596-0.5577,0.6087-0.9056c0.1503-0.3466,0.2261-0.7192,0.2261-1.1143v-1.0907l1.9714,0.3205v0.6584
				C118.9108,90.3401,118.7853,90.9662,118.5344,91.5537z M116.9394,82.1564c0-0.395-0.0758-0.7664-0.2261-1.1143
				c-0.1491-0.3478-0.3528-0.6497-0.6087-0.9056c-0.2559-0.2571-0.559-0.4596-0.9068-0.6099
				c-0.3466-0.1491-0.718-0.2248-1.113-0.2248h-1.3155c-0.3963,0-0.7664,0.0758-1.1143,0.2248
				c-0.3478,0.1503-0.6497,0.3528-0.9068,0.6099c-0.2559,0.2559-0.4596,0.5578-0.6087,0.9056
				c-0.1503,0.3478-0.2248,0.7192-0.2248,1.1143v2.4372h7.0247V82.1564z"/>
			<path style="fill:#FFFFFF;" d="M123.5131,94.1835V71.1878h1.9726v22.9957H123.5131z"/>
		</g>
	</g>
	<path style="fill:#FFFFFF;" d="M16.0823,68.0226l-1.595-2.4397c-0.6565,0.8919-1.4776,1.5988-2.4626,2.123
		c-0.9852,0.5242-2.0646,0.7862-3.2373,0.7862H8.0602c-0.9695,0-1.8845-0.1838-2.7441-0.5514
		c-0.8601-0.3677-1.6105-0.8721-2.2521-1.5131c-0.641-0.641-1.1453-1.3912-1.5123-2.2521c-0.3677-0.8596-0.5515-1.7738-0.5515-2.744
		V50.5944c0-0.9689,0.1838-1.8844,0.5515-2.744c0.367-0.8596,0.8713-1.6099,1.5123-2.2521c0.6416-0.641,1.392-1.1453,2.2521-1.5131
		c0.8596-0.3663,1.7746-0.5503,2.7441-0.5503h0.7272c1.0789,0,2.0795,0.2187,3.0025,0.656
		c0.9223,0.4385,1.7124,1.0484,2.3689,1.8297V34.3861h2.8856v33.6365H16.0823z M14.1587,50.4305
		c0-0.5788-0.1093-1.1217-0.3279-1.6297c-0.2193-0.508-0.5162-0.9503-0.8913-1.3254c-0.3758-0.3751-0.8174-0.672-1.3254-0.8919
		c-0.5087-0.2187-1.0521-0.3279-1.6303-0.3279H8.0602c-0.5783,0-1.1218,0.1093-1.6298,0.3279
		c-0.5087,0.2199-0.9503,0.5168-1.3254,0.8919c-0.3751,0.3751-0.6726,0.8174-0.8913,1.3254
		c-0.2192,0.508-0.3286,1.0509-0.3286,1.6297v11.165c0,0.5789,0.1094,1.1229,0.3286,1.631c0.2187,0.508,0.5162,0.9491,0.8913,1.3242
		c0.3751,0.3751,0.8168,0.6733,1.3254,0.8919c0.508,0.2187,1.0516,0.3279,1.6298,0.3279h1.9235
		c0.5783,0,1.1217-0.1093,1.6303-0.3279c0.508-0.2187,0.9497-0.5168,1.3254-0.8919c0.3751-0.3751,0.672-0.8161,0.8913-1.3242
		c0.2187-0.508,0.3279-1.0521,0.3279-1.631V50.4305z"/>
	<path style="fill:#FFFFFF;" d="M38.3072,64.1755c-0.3677,0.8609-0.8721,1.6111-1.5131,2.2521
		c-0.641,0.641-1.3918,1.1453-2.2515,1.5131c-0.8603,0.3676-1.7751,0.5514-2.7446,0.5514h-1.9235
		c-0.9695,0-1.8845-0.1838-2.7441-0.5514c-0.8601-0.3677-1.6105-0.8721-2.2521-1.5131c-0.641-0.641-1.1453-1.3912-1.5123-2.2521
		c-0.3677-0.8596-0.5515-1.7738-0.5515-2.744V50.5944c0-0.9689,0.1838-1.8844,0.5515-2.744
		c0.367-0.8596,0.8713-1.6099,1.5123-2.2521c0.6416-0.641,1.392-1.1453,2.2521-1.5131c0.8596-0.3663,1.7746-0.5503,2.7441-0.5503
		h1.9235c0.9695,0,1.8844,0.1839,2.7446,0.5503c0.8596,0.3677,1.6105,0.8721,2.2515,1.5131
		c0.641,0.6422,1.1453,1.3925,1.5131,2.2521c0.367,0.8596,0.5515,1.7751,0.5515,2.744v5.6534H25.6994v5.3477
		c0,0.5789,0.1094,1.1229,0.3286,1.631c0.2187,0.508,0.5162,0.9491,0.8913,1.3242c0.3752,0.3751,0.8168,0.6733,1.3254,0.8919
		c0.508,0.2187,1.0516,0.3279,1.6298,0.3279h1.9235c0.5783,0,1.1217-0.1093,1.6303-0.3279c0.508-0.2187,0.9497-0.5168,1.3254-0.8919
		c0.3751-0.3751,0.672-0.8161,0.8913-1.3242c0.2187-0.508,0.3279-1.0521,0.3279-1.631v-1.595l2.8857,0.4695v0.9615
		C38.8588,62.4017,38.6742,63.3159,38.3072,64.1755z M35.9731,50.4305c0-0.5788-0.1093-1.1217-0.3279-1.6297
		c-0.2193-0.508-0.5162-0.9503-0.8913-1.3254c-0.3758-0.3751-0.8174-0.672-1.3254-0.8919
		c-0.5087-0.2187-1.0521-0.3279-1.6303-0.3279h-1.9235c-0.5783,0-1.1218,0.1093-1.6298,0.3279
		c-0.5087,0.2199-0.9502,0.5168-1.3254,0.8919c-0.3751,0.3751-0.6726,0.8174-0.8913,1.3254
		c-0.2192,0.508-0.3286,1.0509-0.3286,1.6297v3.5652h10.2737V50.4305z"/>
	<path style="fill:#FFFFFF;stroke:#FFFFFF;stroke-width:1.272;stroke-miterlimit:10;" d="M74.4292,63.4488
		c-0.4298,1.0012-1.0198,1.8757-1.7708,2.6272c-0.7502,0.7504-1.6267,1.3403-2.6272,1.7701
		c-1.0006,0.4298-2.072,0.6459-3.213,0.6459h-2.3924c-1.1423,0-2.2167-0.2161-3.2255-0.6459
		c-1.0086-0.4298-1.8881-1.0198-2.6391-1.7701c-0.7502-0.7515-1.341-1.626-1.7708-2.6272c-0.4303-1.0012-0.6453-2.072-0.6453-3.2136
		V42.1735c0-1.1404,0.215-2.2123,0.6453-3.2135c0.4298-1.0001,1.0205-1.8758,1.7708-2.6261
		c0.751-0.7515,1.6305-1.3416,2.6391-1.7714c1.0087-0.4298,2.0832-0.6447,3.2255-0.6447h2.3924c1.141,0,2.2124,0.2148,3.213,0.6447
		c1.0006,0.4298,1.877,1.0199,2.6272,1.7714c0.751,0.7502,1.341,1.626,1.7708,2.6261c0.4305,1.0012,0.6454,2.0731,0.6454,3.2135
		v1.3614l-3.0261,0.4684v-1.8298c0-0.7502-0.1403-1.4496-0.4223-2.0993c-0.2814-0.6483-0.6645-1.2148-1.149-1.7006
		c-0.4852-0.4844-1.0522-0.867-1.7006-1.149c-0.6491-0.2807-1.3485-0.4223-2.0993-0.4223h-2.1112
		c-0.7502,0-1.4502,0.1416-2.0993,0.4223c-0.649,0.282-1.2199,0.6646-1.7124,1.149c-0.4925,0.4858-0.8795,1.0522-1.1608,1.7006
		c-0.2812,0.6497-0.4223,1.3491-0.4223,2.0993v18.0616c0,0.7504,0.1411,1.451,0.4223,2.0993
		c0.2814,0.6485,0.6683,1.2199,1.1608,1.7118c0.4925,0.4932,1.0634,0.8795,1.7124,1.1615c0.6491,0.282,1.3491,0.4223,2.0993,0.4223
		h2.1112c0.7509,0,1.4502-0.1403,2.0993-0.4223c0.6483-0.282,1.2154-0.6683,1.7006-1.1615c0.4845-0.4919,0.8676-1.0633,1.149-1.7118
		c0.282-0.6483,0.4223-1.349,0.4223-2.0993v-1.8297l3.0261,0.4932v1.3365C75.0746,61.3768,74.8597,62.4476,74.4292,63.4488z"/>
	<path style="fill:#FFFFFF;stroke:#FFFFFF;stroke-width:1.272;stroke-miterlimit:10;" d="M95.9268,68.0226l-1.595-2.3925
		c-0.6565,0.8596-1.4776,1.5516-2.4626,2.0758c-0.985,0.5242-2.0646,0.7862-3.2372,0.7862h-0.7273
		c-0.9695,0-1.8845-0.1838-2.744-0.5514c-0.8603-0.3677-1.6106-0.8721-2.2522-1.5131c-0.641-0.641-1.1452-1.3912-1.5123-2.2521
		c-0.3677-0.8596-0.5515-1.7738-0.5515-2.744v-0.2348c0-0.9689,0.1838-1.8844,0.5515-2.744
		c0.3671-0.8596,0.8713-1.6111,1.5123-2.2521c0.6416-0.641,1.392-1.1453,2.2522-1.5131c0.8595-0.3665,1.7745-0.5515,2.744-0.5515
		h6.0986v-3.7055c0-0.5788-0.1093-1.1217-0.3279-1.6297c-0.2193-0.508-0.5162-0.9503-0.8913-1.3254
		c-0.3757-0.3751-0.8174-0.672-1.3254-0.8919c-0.5087-0.2187-1.0521-0.3279-1.6303-0.3279h-1.6889
		c-0.5788,0-1.1223,0.1093-1.6303,0.3279c-0.508,0.2199-0.9497,0.5168-1.3248,0.8919c-0.3758,0.3751-0.6726,0.8174-0.8913,1.3254
		c-0.2192,0.508-0.3286,1.0509-0.3286,1.6297v0.8683l-2.8849-0.4695v-0.2348c0-0.9689,0.1832-1.8844,0.5509-2.744
		c0.3676-0.8596,0.8713-1.6099,1.5129-2.2521c0.641-0.641,1.392-1.1453,2.2521-1.5131c0.8596-0.3663,1.7745-0.5503,2.744-0.5503
		h1.6889c0.9695,0,1.8844,0.1839,2.7446,0.5503c0.8596,0.3677,1.6105,0.8721,2.2515,1.5131
		c0.641,0.6422,1.1453,1.3925,1.5131,2.2521c0.367,0.8596,0.5515,1.7751,0.5515,2.744v17.4282H95.9268z M94.0033,56.3881h-6.0986
		c-0.5783,0-1.1218,0.1094-1.6298,0.3292c-0.5087,0.2187-0.9502,0.5192-1.3254,0.9031c-0.3751,0.3826-0.6726,0.8285-0.8912,1.3366
		c-0.2193,0.508-0.3286,1.0521-0.3286,1.6297v1.0087c0,0.5789,0.1093,1.1229,0.3286,1.631c0.2185,0.508,0.5161,0.9491,0.8912,1.3242
		c0.3753,0.3751,0.8168,0.6733,1.3254,0.8919c0.508,0.2187,1.0516,0.3279,1.6298,0.3279h1.9235
		c0.5783,0,1.1217-0.1093,1.6303-0.3279c0.508-0.2187,0.9497-0.5168,1.3254-0.8919c0.3751-0.3751,0.672-0.8161,0.8913-1.3242
		c0.2187-0.508,0.3279-1.0521,0.3279-1.631V56.3881z"/>
	<path style="fill:#FFFFFF;stroke:#FFFFFF;stroke-width:1.272;stroke-miterlimit:10;" d="M103.6198,68.0226V34.3861h2.8856v33.6365
		H103.6198z"/>
	<path style="fill:#FFFFFF;stroke:#FFFFFF;stroke-width:1.272;stroke-miterlimit:10;" d="M113.9649,38.2333v-3.8472h3.3539v3.8472
		H113.9649z M114.1991,68.0226V44.0033h2.8856v24.0193H114.1991z"/>
	<path style="fill:#FFFFFF;stroke:#FFFFFF;stroke-width:1.272;stroke-miterlimit:10;" d="M138.8984,68.0226l-1.595-2.4397
		c-0.6565,0.8919-1.4776,1.5988-2.4626,2.123s-2.0645,0.7862-3.2372,0.7862h-0.7273c-0.9695,0-1.8844-0.1838-2.744-0.5514
		c-0.8603-0.3677-1.6105-0.8721-2.2521-1.5131c-0.641-0.641-1.1453-1.3912-1.5124-2.2521c-0.3677-0.8596-0.5516-1.7738-0.5516-2.744
		V50.5944c0-0.9689,0.1838-1.8844,0.5516-2.744c0.3671-0.8596,0.8715-1.6099,1.5124-2.2521
		c0.6416-0.641,1.3918-1.1453,2.2521-1.5131c0.8596-0.3663,1.7745-0.5503,2.744-0.5503h0.7273c1.0788,0,2.0794,0.2187,3.0023,0.656
		c0.9223,0.4385,1.7124,1.0484,2.3689,1.8297V34.3861h2.8857v33.6365H138.8984z M136.9748,50.4305
		c0-0.5788-0.1093-1.1217-0.3279-1.6297c-0.2192-0.508-0.5161-0.9503-0.8913-1.3254c-0.3758-0.3751-0.8173-0.672-1.3253-0.8919
		c-0.5088-0.2187-1.0522-0.3279-1.6305-0.3279h-1.9235c-0.5783,0-1.1217,0.1093-1.6297,0.3279
		c-0.5087,0.2199-0.9503,0.5168-1.3254,0.8919c-0.3752,0.3751-0.6726,0.8174-0.8913,1.3254
		c-0.2193,0.508-0.3286,1.0509-0.3286,1.6297v11.165c0,0.5789,0.1093,1.1229,0.3286,1.631c0.2187,0.508,0.5161,0.9491,0.8913,1.3242
		c0.3751,0.3751,0.8168,0.6733,1.3254,0.8919c0.5081,0.2187,1.0515,0.3279,1.6297,0.3279h1.9235
		c0.5783,0,1.1217-0.1093,1.6305-0.3279c0.508-0.2187,0.9496-0.5168,1.3253-0.8919c0.3752-0.3751,0.6721-0.8161,0.8913-1.3242
		c0.2187-0.508,0.3279-1.0521,0.3279-1.631V50.4305z"/>
	<path style="fill:#FFFFFF;stroke:#FFFFFF;stroke-width:1.272;stroke-miterlimit:10;" d="M160.7122,68.0226l-1.595-2.3925
		c-0.6565,0.8596-1.4777,1.5516-2.4628,2.0758c-0.9851,0.5242-2.0645,0.7862-3.2372,0.7862h-0.7273
		c-0.9695,0-1.8844-0.1838-2.744-0.5514c-0.8603-0.3677-1.6105-0.8721-2.2521-1.5131c-0.641-0.641-1.1453-1.3912-1.5124-2.2521
		c-0.3676-0.8596-0.5515-1.7738-0.5515-2.744v-0.2348c0-0.9689,0.1839-1.8844,0.5515-2.744
		c0.3671-0.8596,0.8715-1.6111,1.5124-2.2521c0.6416-0.641,1.3918-1.1453,2.2521-1.5131c0.8596-0.3665,1.7745-0.5515,2.744-0.5515
		h6.0987v-3.7055c0-0.5788-0.1094-1.1217-0.3279-1.6297c-0.2193-0.508-0.5162-0.9503-0.8913-1.3254
		c-0.3758-0.3751-0.8174-0.672-1.3254-0.8919c-0.5087-0.2187-1.0522-0.3279-1.6305-0.3279h-1.6887
		c-0.5789,0-1.1223,0.1093-1.6303,0.3279c-0.5082,0.2199-0.9497,0.5168-1.3248,0.8919c-0.3759,0.3751-0.6727,0.8174-0.8913,1.3254
		c-0.2193,0.508-0.3286,1.0509-0.3286,1.6297v0.8683l-2.8851-0.4695v-0.2348c0-0.9689,0.1833-1.8844,0.5509-2.744
		c0.3677-0.8596,0.8714-1.6099,1.5131-2.2521c0.641-0.641,1.3918-1.1453,2.2521-1.5131c0.8596-0.3663,1.7745-0.5503,2.744-0.5503
		h1.6887c0.9695,0,1.8845,0.1839,2.7448,0.5503c0.8595,0.3677,1.6105,0.8721,2.2515,1.5131
		c0.641,0.6422,1.1453,1.3925,1.5129,2.2521c0.3671,0.8596,0.5515,1.7751,0.5515,2.744v17.4282H160.7122z M158.7886,56.3881h-6.0987
		c-0.5782,0-1.1217,0.1094-1.6297,0.3292c-0.5087,0.2187-0.9503,0.5192-1.3254,0.9031c-0.3751,0.3826-0.6727,0.8285-0.8913,1.3366
		c-0.2193,0.508-0.3286,1.0521-0.3286,1.6297v1.0087c0,0.5789,0.1093,1.1229,0.3286,1.631c0.2187,0.508,0.5162,0.9491,0.8913,1.3242
		c0.3751,0.3751,0.8168,0.6733,1.3254,0.8919c0.508,0.2187,1.0515,0.3279,1.6297,0.3279h1.9236
		c0.5783,0,1.1218-0.1093,1.6305-0.3279c0.508-0.2187,0.9497-0.5168,1.3254-0.8919c0.3751-0.3751,0.672-0.8161,0.8913-1.3242
		c0.2185-0.508,0.3279-1.0521,0.3279-1.631V56.3881z"/>
	<path style="fill:#FFFFFF;stroke:#FFFFFF;stroke-width:1.272;stroke-miterlimit:10;" d="M182.5265,68.0226l-1.595-2.4397
		c-0.6565,0.8919-1.4776,1.5988-2.4628,2.123c-0.985,0.5242-2.0645,0.7862-3.2372,0.7862h-0.7273
		c-0.9695,0-1.8844-0.1838-2.744-0.5514c-0.8603-0.3677-1.6105-0.8721-2.2521-1.5131c-0.641-0.641-1.1453-1.3912-1.5124-2.2521
		c-0.3676-0.8596-0.5514-1.7738-0.5514-2.744V50.5944c0-0.9689,0.1838-1.8844,0.5514-2.744
		c0.3671-0.8596,0.8715-1.6099,1.5124-2.2521c0.6416-0.641,1.3918-1.1453,2.2521-1.5131c0.8596-0.3663,1.7745-0.5503,2.744-0.5503
		h0.7273c1.0789,0,2.0795,0.2187,3.0025,0.656c0.9223,0.4385,1.7124,1.0484,2.3689,1.8297V34.3861h2.8856v33.6365H182.5265z
		 M180.603,50.4305c0-0.5788-0.1094-1.1217-0.3279-1.6297c-0.2193-0.508-0.5162-0.9503-0.8913-1.3254
		c-0.3757-0.3751-0.8174-0.672-1.3254-0.8919c-0.5087-0.2187-1.0522-0.3279-1.6304-0.3279h-1.9237
		c-0.5781,0-1.1217,0.1093-1.6297,0.3279c-0.5087,0.2199-0.9503,0.5168-1.3254,0.8919s-0.6726,0.8174-0.8913,1.3254
		c-0.2192,0.508-0.3286,1.0509-0.3286,1.6297v11.165c0,0.5789,0.1094,1.1229,0.3286,1.631c0.2187,0.508,0.5162,0.9491,0.8913,1.3242
		c0.3751,0.3751,0.8168,0.6733,1.3254,0.8919c0.508,0.2187,1.0516,0.3279,1.6297,0.3279h1.9237
		c0.5781,0,1.1217-0.1093,1.6304-0.3279c0.508-0.2187,0.9497-0.5168,1.3254-0.8919c0.3751-0.3751,0.672-0.8161,0.8913-1.3242
		c0.2185-0.508,0.3279-1.0521,0.3279-1.631V50.4305z"/>
	<g>
		<path style="fill:#FFFFFF;" d="M13.9321,160.8029l-1.3677-2.0919c-0.5634,0.764-1.2671,1.3715-2.1118,1.8199
			c-0.8446,0.4497-1.7701,0.6745-2.7757,0.6745H7.0534c-0.8311,0-1.6156-0.1579-2.3529-0.4733
			c-0.7378-0.3143-1.3813-0.7466-1.9309-1.2968c-0.5496-0.5491-0.982-1.1925-1.2969-1.9304
			c-0.3155-0.7379-0.4726-1.5217-0.4726-2.3527v-9.2917c0-0.8323,0.1571-1.6161,0.4726-2.354
			c0.315-0.7366,0.7473-1.3801,1.2969-1.9304c0.5496-0.549,1.1932-0.9825,1.9309-1.2968c0.7373-0.3156,1.5217-0.4733,2.3529-0.4733
			h0.6235c0.9254,0,1.7831,0.1889,2.5744,0.564c0.7907,0.3751,1.4683,0.898,2.031,1.5676v-9.9749h2.4738v28.8403H13.9321z
			 M12.2824,145.7188c0-0.4957-0.0937-0.9615-0.2814-1.3976c-0.1876-0.4359-0.4423-0.8148-0.764-1.1365
			c-0.3217-0.3218-0.7013-0.5764-1.1365-0.764c-0.436-0.1876-0.9019-0.282-1.3976-0.282H7.0534
			c-0.4957,0-0.9622,0.0944-1.3976,0.282c-0.436,0.1876-0.8142,0.4422-1.1365,0.764c-0.3218,0.3217-0.5765,0.7006-0.764,1.1365
			c-0.1883,0.4361-0.2814,0.9019-0.2814,1.3976v9.5736c0,0.4957,0.0931,0.9615,0.2814,1.3976
			c0.1875,0.4359,0.4422,0.8148,0.764,1.1365c0.3223,0.3217,0.7005,0.5764,1.1365,0.764c0.4354,0.1876,0.9019,0.282,1.3976,0.282
			h1.6496c0.4957,0,0.9615-0.0944,1.3976-0.282c0.4353-0.1876,0.8149-0.4423,1.1365-0.764c0.3217-0.3217,0.5764-0.7006,0.764-1.1365
			c0.1876-0.4361,0.2814-0.9019,0.2814-1.3976V145.7188z"/>
		<path style="fill:#FFFFFF;" d="M32.9874,157.5048c-0.3148,0.7379-0.7472,1.3813-1.2968,1.9304
			c-0.5503,0.5503-1.1938,0.9825-1.931,1.2968c-0.7371,0.3155-1.5216,0.4733-2.3527,0.4733h-1.6496
			c-0.8311,0-1.6156-0.1579-2.3529-0.4733c-0.7378-0.3143-1.3813-0.7466-1.9309-1.2968c-0.5496-0.5491-0.982-1.1925-1.2969-1.9304
			c-0.3155-0.7379-0.4726-1.5217-0.4726-2.3527v-9.2917c0-0.8323,0.1571-1.6161,0.4726-2.354
			c0.315-0.7366,0.7473-1.3801,1.2969-1.9304c0.5496-0.549,1.1932-0.9825,1.9309-1.2968c0.7373-0.3156,1.5217-0.4733,2.3529-0.4733
			h1.6496c0.8311,0,1.6156,0.1577,2.3527,0.4733c0.7373,0.3143,1.3808,0.7478,1.931,1.2968
			c0.5496,0.5503,0.982,1.1938,1.2968,1.9304c0.315,0.7379,0.4727,1.5217,0.4727,2.354v4.8459H22.1778v4.5861
			c0,0.4957,0.0931,0.9615,0.2814,1.3976c0.1875,0.4359,0.4422,0.8148,0.764,1.1365c0.3223,0.3217,0.7006,0.5764,1.1365,0.764
			c0.4354,0.1876,0.9019,0.282,1.3976,0.282h1.6496c0.4957,0,0.9615-0.0944,1.3976-0.282c0.4353-0.1876,0.8149-0.4423,1.1365-0.764
			c0.3217-0.3217,0.5764-0.7006,0.764-1.1365c0.1876-0.4361,0.2814-0.9019,0.2814-1.3976v-1.3677l2.4738,0.4025v0.8249
			C33.4601,155.9831,33.3023,156.7669,32.9874,157.5048z M30.9863,145.7188c0-0.4957-0.0937-0.9615-0.2814-1.3976
			c-0.1876-0.4359-0.4423-0.8148-0.764-1.1365c-0.3217-0.3218-0.7013-0.5764-1.1365-0.764c-0.436-0.1876-0.9019-0.282-1.3976-0.282
			h-1.6496c-0.4957,0-0.9622,0.0944-1.3976,0.282c-0.4359,0.1876-0.8142,0.4422-1.1365,0.764
			c-0.3218,0.3217-0.5765,0.7006-0.764,1.1365c-0.1883,0.4361-0.2814,0.9019-0.2814,1.3976v3.057h8.8085V145.7188z"/>
		<path style="fill:#FFFFFF;" d="M64.5133,154.1259c0,0.9789-0.1981,1.8968-0.5938,2.7553
			c-0.395,0.8584-0.9248,1.6086-1.5888,2.2521c-0.6634,0.6434-1.4347,1.1503-2.3124,1.5192
			c-0.8788,0.3677-1.8074,0.5528-2.7856,0.5528h-2.0714c-0.9789,0-1.9074-0.1851-2.7857-0.5528
			c-0.8782-0.3689-1.649-0.8758-2.3129-1.5192c-0.6634-0.6435-1.1931-1.3937-1.5889-2.2521
			c-0.3956-0.8585-0.5931-1.7764-0.5931-2.7553v-1.1465l2.5944-0.4224v1.5689c0,0.6435,0.1304,1.2435,0.3919,1.8
			c0.2615,0.5565,0.6136,1.0459,1.0559,1.4683c0.4428,0.4223,0.9552,0.7539,1.5384,0.995c0.5839,0.241,1.197,0.3628,1.8404,0.3628
			h1.8106c0.6434,0,1.2533-0.1217,1.8297-0.3628c0.5765-0.241,1.0863-0.5727,1.5286-0.995
			c0.4428-0.4224,0.7944-0.9118,1.0559-1.4683c0.2614-0.5565,0.3925-1.1565,0.3925-1.8v-0.8645
			c0-0.9926-0.1951-1.8175-0.5832-2.4746c-0.3895-0.6571-0.9056-1.216-1.5491-1.6794c-0.6435-0.4621-1.3707-0.8545-2.1819-1.1764
			c-0.8112-0.3217-1.646-0.6434-2.5037-0.9652c-0.8584-0.3217-1.6932-0.677-2.5042-1.0658
			c-0.8112-0.3887-1.5385-0.8745-2.182-1.4582c-0.6434-0.5827-1.1602-1.297-1.5491-2.1416
			c-0.3887-0.8447-0.5831-1.8832-0.5831-3.118v-0.5429c0-0.9788,0.1844-1.8968,0.5533-2.7552
			c0.3684-0.8584,0.8745-1.6086,1.5187-2.2521c0.6434-0.6434,1.3974-1.1503,2.2627-1.5192
			c0.8646-0.3677,1.7863-0.5528,2.7651-0.5528h1.8503c0.9782,0,1.8968,0.1851,2.7552,0.5528
			c0.8577,0.3689,1.6092,0.8758,2.2527,1.5192c0.6435,0.6435,1.149,1.3937,1.518,2.2521c0.3689,0.8584,0.5533,1.7764,0.5533,2.7552
			v0.7441l-2.5943,0.4223v-1.1664c0-0.6434-0.1206-1.2434-0.3621-1.7999c-0.2416-0.5565-0.5701-1.0422-0.9857-1.4584
			c-0.4156-0.4149-0.9019-0.7441-1.4577-0.985c-0.5565-0.2411-1.1565-0.3615-1.7999-0.3615H55.503
			c-0.6434,0-1.2434,0.1205-1.7999,0.3615c-0.5565,0.2409-1.046,0.5701-1.4683,0.985c-0.4223,0.4162-0.7541,0.9019-0.9956,1.4584
			c-0.2411,0.5565-0.3615,1.1565-0.3615,1.7999v0.5429c0,0.9254,0.1937,1.7031,0.5832,2.3329
			c0.3882,0.631,0.9049,1.1701,1.5484,1.6198c0.6434,0.4497,1.3707,0.8372,2.1819,1.1664c0.8112,0.3279,1.646,0.6634,2.5043,1.0049
			c0.8577,0.3429,1.6924,0.718,2.5036,1.1268c0.8112,0.4087,1.5385,0.9118,2.1819,1.508c0.6441,0.5976,1.1597,1.3242,1.5491,2.1827
			c0.3889,0.8584,0.5832,1.9042,0.5832,3.1378V154.1259z"/>
		<path style="fill:#FFFFFF;" d="M82.5426,157.5048c-0.3148,0.7379-0.7472,1.3813-1.2968,1.9304
			c-0.5503,0.5503-1.1938,0.9825-1.931,1.2968c-0.7371,0.3155-1.5216,0.4733-2.3527,0.4733h-1.6496
			c-0.8311,0-1.6156-0.1579-2.3527-0.4733c-0.7379-0.3143-1.3814-0.7466-1.9311-1.2968c-0.5496-0.5491-0.982-1.1925-1.2968-1.9304
			c-0.3156-0.7379-0.4727-1.5217-0.4727-2.3527v-9.2917c0-0.8323,0.1571-1.6161,0.4727-2.354
			c0.3148-0.7366,0.7472-1.3801,1.2968-1.9304c0.5496-0.549,1.1932-0.9825,1.9311-1.2968c0.7371-0.3156,1.5216-0.4733,2.3527-0.4733
			h1.6496c0.8311,0,1.6156,0.1577,2.3527,0.4733c0.7373,0.3143,1.3808,0.7478,1.931,1.2968
			c0.5496,0.5503,0.982,1.1938,1.2968,1.9304c0.315,0.7379,0.4727,1.5217,0.4727,2.354v9.2917
			C83.0153,155.9831,82.8576,156.7669,82.5426,157.5048z M80.5415,145.7188c0-0.4957-0.0937-0.9615-0.2814-1.3976
			c-0.1875-0.4359-0.4422-0.8148-0.764-1.1365c-0.3217-0.3218-0.7011-0.5764-1.1366-0.764c-0.436-0.1876-0.9019-0.282-1.3976-0.282
			h-1.6496c-0.4957,0-0.9622,0.0944-1.3976,0.282c-0.4359,0.1876-0.8142,0.4422-1.1366,0.764
			c-0.3218,0.3217-0.5763,0.7006-0.764,1.1365c-0.1883,0.4361-0.2814,0.9019-0.2814,1.3976v9.5736
			c0,0.4957,0.0931,0.9615,0.2814,1.3976c0.1876,0.4359,0.4422,0.8148,0.764,1.1365c0.3223,0.3217,0.7006,0.5764,1.1366,0.764
			c0.4354,0.1876,0.9019,0.282,1.3976,0.282h1.6496c0.4957,0,0.9615-0.0944,1.3976-0.282c0.4354-0.1876,0.8149-0.4423,1.1366-0.764
			c0.3218-0.3217,0.5765-0.7006,0.764-1.1365c0.1876-0.4361,0.2814-0.9019,0.2814-1.3976V145.7188z"/>
		<path style="fill:#FFFFFF;" d="M95.0424,134.3153c-0.4161,0-0.8012,0.0771-1.1565,0.2311
			c-0.3553,0.1552-0.667,0.3663-0.9353,0.6335c-0.2684,0.2683-0.4796,0.5838-0.6336,0.9454c-0.154,0.3627-0.231,0.7515-0.231,1.1664
			v2.9166h4.8067v2.3527H92.086v18.2419h-2.4738V142.561h-3.7204v-2.3527h3.7204v-2.7949c0-0.7516,0.1409-1.4584,0.4223-2.123
			c0.2814-0.6634,0.6702-1.2434,1.1664-1.7391c0.4962-0.4956,1.0726-0.8844,1.7298-1.1664
			c0.6565-0.2819,1.3608-0.4223,2.1117-0.4223h2.2726v2.3527H95.0424z"/>
		<path style="fill:#FFFFFF;" d="M107.2905,160.8029c-0.7509,0-1.4584-0.1404-2.1217-0.4224
			c-0.6639-0.2819-1.2403-0.6707-1.7297-1.1664c-0.4895-0.4956-0.8782-1.0719-1.1664-1.7291
			c-0.2889-0.6571-0.4324-1.3614-0.4324-2.1118V142.561h-3.7004v-2.3527h3.7004v-4.9476l2.4739-0.4025v5.3501h5.229v2.3527h-5.229
			v12.9326c0,0.4149,0.0763,0.8012,0.231,1.1565c0.154,0.3553,0.3652,0.6671,0.6336,0.9354
			c0.2676,0.2683,0.5832,0.4794,0.9452,0.6335c0.3621,0.154,0.7504,0.2311,1.1664,0.2311h2.2527v2.3527H107.2905z"/>
		<path style="fill:#FFFFFF;" d="M131.4247,160.8029h-1.3472l-4.8272-15.5264l-0.0801-1.0658l-0.0808,1.0658l-4.8265,15.5264
			h-1.3677l-6.8782-20.5946h2.5136l4.9073,15.5661l0.0808,1.0658l0.0801-1.0658l4.8272-15.5661h1.4881l4.8067,15.5661l0.0801,1.0658
			l0.0808-1.0658l4.9073-15.5661h2.5136L131.4247,160.8029z"/>
		<path style="fill:#FFFFFF;" d="M154.1309,160.8029l-1.3677-2.0509c-0.5632,0.7366-1.2669,1.3304-2.1117,1.7788
			c-0.8447,0.4497-1.7701,0.6745-2.7757,0.6745h-0.6237c-0.831,0-1.6155-0.1579-2.3527-0.4733
			c-0.7379-0.3143-1.3813-0.7466-1.9309-1.2968c-0.5498-0.5491-0.982-1.1925-1.297-1.9304
			c-0.3155-0.7379-0.4727-1.5217-0.4727-2.3527v-0.2012c0-0.8323,0.1572-1.6161,0.4727-2.354
			c0.315-0.7366,0.7472-1.3801,1.297-1.9304c0.5496-0.549,1.193-0.9814,1.9309-1.2968c0.7373-0.3156,1.5217-0.4733,2.3527-0.4733
			h5.2291v-3.1775c0-0.4957-0.0939-0.9615-0.2814-1.3976c-0.1876-0.4359-0.4423-0.8148-0.764-1.1365
			c-0.3217-0.3218-0.7013-0.5764-1.1367-0.764c-0.4359-0.1876-0.9017-0.282-1.3974-0.282h-1.4485
			c-0.4962,0-0.962,0.0944-1.3974,0.282c-0.4361,0.1876-0.8148,0.4422-1.1367,0.764c-0.3217,0.3217-0.5764,0.7006-0.7639,1.1365
			c-0.1882,0.4361-0.282,0.9019-0.282,1.3976v0.744l-2.4733-0.4025v-0.2c0-0.8323,0.1572-1.6161,0.4727-2.354
			c0.315-0.7366,0.7472-1.3801,1.297-1.9304c0.5496-0.549,1.193-0.9825,1.9309-1.2968c0.7373-0.3156,1.5217-0.4733,2.3527-0.4733
			h1.4485c0.831,0,1.6155,0.1577,2.3527,0.4733c0.7373,0.3143,1.3808,0.7478,1.931,1.2968c0.5496,0.5503,0.982,1.1938,1.2968,1.9304
			c0.3149,0.7379,0.4727,1.5217,0.4727,2.354v14.9425H154.1309z M152.4813,150.828h-5.2291c-0.4956,0-0.962,0.0931-1.3974,0.2807
			c-0.4361,0.1888-0.8142,0.446-1.1367,0.775c-0.3217,0.328-0.5764,0.7106-0.7639,1.1453
			c-0.1882,0.4361-0.2814,0.9019-0.2814,1.3987v0.8646c0,0.4957,0.0931,0.9615,0.2814,1.3976
			c0.1875,0.4359,0.4422,0.8148,0.7639,1.1365c0.3224,0.3217,0.7006,0.5764,1.1367,0.764c0.4354,0.1876,0.9019,0.282,1.3974,0.282
			h1.6497c0.4957,0,0.9615-0.0944,1.3974-0.282c0.4354-0.1876,0.815-0.4423,1.1367-0.764c0.3217-0.3217,0.5764-0.7006,0.764-1.1365
			c0.1875-0.4361,0.2814-0.9019,0.2814-1.3976V150.828z"/>
		<path style="fill:#FFFFFF;" d="M165.9561,142.561c-0.4956,0-0.962,0.0945-1.3974,0.282c-0.4361,0.1876-0.8142,0.4423-1.1367,0.764
			c-0.3217,0.3217-0.5764,0.7006-0.7639,1.1367c-0.1883,0.4359-0.2814,0.9017-0.2814,1.3974v14.6618h-2.4739v-20.5946h0.8243
			l1.3478,2.0919c0.5632-0.764,1.2701-1.3715,2.1216-1.8199c0.8516-0.4497,1.7801-0.6745,2.7857-0.6745h1.4478v2.7552H165.9561z"/>
		<path style="fill:#FFFFFF;" d="M185.0122,157.5048c-0.3149,0.7379-0.7472,1.3813-1.2968,1.9304
			c-0.5504,0.5503-1.1938,0.9825-1.9311,1.2968c-0.7373,0.3155-1.5217,0.4733-2.3527,0.4733h-1.6497
			c-0.831,0-1.6155-0.1579-2.3527-0.4733c-0.7379-0.3143-1.3813-0.7466-1.931-1.2968c-0.5496-0.5491-0.9819-1.1925-1.2968-1.9304
			c-0.3155-0.7379-0.4727-1.5217-0.4727-2.3527v-9.2917c0-0.8323,0.1572-1.6161,0.4727-2.354
			c0.315-0.7366,0.7472-1.3801,1.2968-1.9304c0.5498-0.549,1.1931-0.9825,1.931-1.2968c0.7373-0.3156,1.5217-0.4733,2.3527-0.4733
			h1.6497c0.831,0,1.6155,0.1577,2.3527,0.4733c0.7373,0.3143,1.3807,0.7478,1.9311,1.2968
			c0.5496,0.5503,0.9819,1.1938,1.2968,1.9304c0.3148,0.7379,0.4727,1.5217,0.4727,2.354v4.8459h-11.2824v4.5861
			c0,0.4957,0.0932,0.9615,0.2814,1.3976c0.1876,0.4359,0.4423,0.8148,0.764,1.1365c0.3223,0.3217,0.7006,0.5764,1.1367,0.764
			c0.4354,0.1876,0.9019,0.282,1.3974,0.282h1.6497c0.4956,0,0.9614-0.0944,1.3974-0.282c0.4354-0.1876,0.8148-0.4423,1.1367-0.764
			c0.3217-0.3217,0.5764-0.7006,0.764-1.1365c0.1875-0.4361,0.2812-0.9019,0.2812-1.3976v-1.3677l2.474,0.4025v0.8249
			C185.4848,155.9831,185.327,156.7669,185.0122,157.5048z M183.0109,145.7188c0-0.4957-0.0938-0.9615-0.2812-1.3976
			c-0.1876-0.4359-0.4423-0.8148-0.764-1.1365c-0.3218-0.3218-0.7013-0.5764-1.1367-0.764c-0.4361-0.1876-0.9019-0.282-1.3974-0.282
			h-1.6497c-0.4956,0-0.962,0.0944-1.3974,0.282c-0.436,0.1876-0.8143,0.4422-1.1367,0.764
			c-0.3217,0.3217-0.5763,0.7006-0.764,1.1365c-0.1881,0.4361-0.2814,0.9019-0.2814,1.3976v3.057h8.8085V145.7188z"/>
	</g>
</g>
<line style="fill:none;stroke:#FFFFFF;stroke-width:2.544;stroke-linecap:round;stroke-linejoin:round;stroke-miterlimit:10;" x1="136.5264" y1="84.7712" x2="186.1351" y2="84.7712"/>
<line style="fill:none;stroke:#FFFFFF;stroke-width:2.544;stroke-linecap:round;stroke-linejoin:round;stroke-miterlimit:10;" x1="1.6926" y1="84.7712" x2="39.8531" y2="84.7712"/>
</svg>
