<!-- Generator: Adobe Illustrator 17.0.0, SVG Export Plug-In  -->
<svg version="1.1"
	 xmlns="http://www.w3.org/2000/svg" xmlns:xlink="http://www.w3.org/1999/xlink" xmlns:a="http://ns.adobe.com/AdobeSVGViewerExtensions/3.0/"
	 x="0px" y="0px" width="20.518px" height="20.517px" viewBox="0 0 20.518 20.517" enable-background="new 0 0 20.518 20.517"
	 xml:space="preserve">
<defs>
</defs>
<g>
	<path fill="none" stroke="#414042" stroke-miterlimit="10" d="M13.657,6.862c0.573,0.572,0.573,1.501,0,2.073L12.36,10.23
		l1.297,1.295c0.573,0.573,0.573,1.501,0,2.074c-0.574,0.572-1.502,0.572-2.075,0l-1.294-1.297l-1.295,1.297
		c-0.572,0.572-1.5,0.572-2.074,0c-0.572-0.573-0.572-1.501,0-2.074l1.295-1.295L6.919,8.935c-0.572-0.572-0.572-1.501,0-2.073
		c0.574-0.572,1.502-0.572,2.074,0l1.295,1.295l1.294-1.295C12.155,6.29,13.083,6.29,13.657,6.862z"/>
	<path fill="#E54F26" d="M3.003,17.515c-4.004-4.001-4.004-10.514,0-14.514C7.005-1,13.515-1,17.517,3.001
		c4.002,4,4.002,10.513,0,14.514C13.515,21.517,7.005,21.517,3.003,17.515 M15.931,4.587c-3.127-3.127-8.216-3.127-11.342,0
		c-3.127,3.127-3.127,8.215,0,11.341c3.126,3.127,8.215,3.127,11.342,0C19.058,12.802,19.058,7.714,15.931,4.587"/>
</g>
</svg>