<!-- Generator: Adobe Illustrator 17.0.0, SVG Export Plug-In  -->
<svg version="1.1"
	 xmlns="http://www.w3.org/2000/svg" xmlns:xlink="http://www.w3.org/1999/xlink" xmlns:a="http://ns.adobe.com/AdobeSVGViewerExtensions/3.0/"
	 x="0px" y="0px" width="27.517px" height="27.518px" viewBox="0 0 27.517 27.518" enable-background="new 0 0 27.517 27.518"
	 xml:space="preserve">
<defs>
</defs>
<g>
	<path fill="none" stroke="#DB5940" stroke-miterlimit="10" d="M18.316,9.203c0.769,0.768,0.769,2.014,0,2.781l-1.74,1.736
		l1.74,1.736c0.769,0.77,0.769,2.014,0,2.781c-0.77,0.768-2.014,0.768-2.783,0L13.796,16.5l-1.736,1.738
		c-0.768,0.768-2.012,0.768-2.781,0c-0.768-0.768-0.768-2.012,0-2.781l1.736-1.736l-1.736-1.736c-0.768-0.768-0.768-2.014,0-2.781
		c0.769-0.767,2.014-0.767,2.781,0l1.736,1.736l1.736-1.736C16.302,8.436,17.546,8.436,18.316,9.203z"/>
	<path fill="#414042" d="M4.027,23.492c-5.369-5.367-5.369-14.102,0-19.467c5.367-5.367,14.098-5.367,19.465,0
		c5.367,5.365,5.367,14.1,0,19.467S9.394,28.859,4.027,23.492 M21.365,6.152c-4.193-4.193-11.017-4.193-15.211,0
		c-4.193,4.193-4.193,11.018,0,15.211c4.193,4.193,11.018,4.193,15.211,0C25.558,17.17,25.558,10.346,21.365,6.152"/>
</g>
</svg>