<!-- Generator: Adobe Illustrator 17.0.0, SVG Export Plug-In  -->
<svg version="1.1"
	 xmlns="http://www.w3.org/2000/svg" xmlns:xlink="http://www.w3.org/1999/xlink" xmlns:a="http://ns.adobe.com/AdobeSVGViewerExtensions/3.0/"
	 x="0px" y="0px" width="27.517px" height="27.518px" viewBox="0 0 27.517 27.518" enable-background="new 0 0 27.517 27.518"
	 xml:space="preserve">
<defs>
</defs>
<g>
	<path fill="none" stroke="#FFFFFF" stroke-miterlimit="10" d="M18.315,9.203c0.77,0.768,0.77,2.014,0,2.781l-1.739,1.736
		l1.739,1.737c0.77,0.769,0.77,2.013,0,2.781c-0.768,0.768-2.013,0.768-2.782,0L13.796,16.5l-1.737,1.739
		c-0.769,0.768-2.011,0.768-2.78,0c-0.768-0.768-0.768-2.013,0-2.781l1.736-1.737l-1.736-1.736c-0.768-0.768-0.768-2.014,0-2.781
		c0.769-0.768,2.012-0.768,2.78,0l1.737,1.737l1.736-1.737C16.302,8.436,17.546,8.436,18.315,9.203z"/>
	<path fill="#DB5940" d="M4.027,23.492c-5.369-5.367-5.369-14.102,0-19.467c5.367-5.367,14.098-5.367,19.465,0
		c5.367,5.365,5.367,14.1,0,19.467C18.125,28.859,9.394,28.859,4.027,23.492 M21.364,6.153c-4.192-4.194-11.017-4.194-15.21,0
		c-4.193,4.193-4.193,11.017,0,15.21c4.193,4.193,11.018,4.193,15.21,0C25.558,17.17,25.558,10.347,21.364,6.153"/>
</g>
</svg>