<!-- Generator: Adobe Illustrator 17.0.0, SVG Export Plug-In  -->
<svg version="1.1"
	 xmlns="http://www.w3.org/2000/svg" xmlns:xlink="http://www.w3.org/1999/xlink" xmlns:a="http://ns.adobe.com/AdobeSVGViewerExtensions/3.0/"
	 x="0px" y="0px" width="256.275px" height="76.266px" viewBox="0 0 256.275 76.266" enable-background="new 0 0 256.275 76.266"
	 xml:space="preserve">
<defs>
</defs>
<g>
	<polygon id="XMLID_8_" fill="#323232" points="178.146,6.055 185.363,0 185.363,6.055 	"/>
	<rect x="0" y="9.082" fill="#BDC1BD" width="256.275" height="64.156"/>
	<linearGradient id="SVGID_1_" gradientUnits="userSpaceOnUse" x1="0" y1="38.1329" x2="256.2754" y2="38.1329">
		<stop  offset="0" style="stop-color:#F5F5F5"/>
		<stop  offset="1" style="stop-color:#E8E8E8"/>
	</linearGradient>
	<rect x="0" y="6.055" fill="url(#SVGID_1_)" width="256.275" height="64.156"/>
	<rect id="XMLID_6_" x="185.363" y="0" fill="#DB5940" width="47.043" height="76.266"/>
	<polygon id="XMLID_5_" fill="#323232" points="178.146,73.123 185.363,76.266 185.363,73.123 	"/>
	<rect id="XMLID_4_" x="183.037" y="6.172" fill="#F5F5F5" width="2.213" height="66.951"/>
	<g id="XMLID_1_">
		<path id="XMLID_3_" fill="#FFFFFF" d="M227.75,53.095l-7.453-7.45c-0.466-0.468-1.166-0.7-1.862-0.7L215.99,42.5
			c4.191-5.59,3.841-13.507-1.283-18.63c-5.588-5.59-14.555-5.59-20.143,0c-5.59,5.588-5.59,14.554,0,20.143
			c5.123,5.124,13.041,5.471,18.629,1.28l2.445,2.445c0,0.699,0.234,1.281,0.698,1.862l7.452,7.453c0.933,0.931,2.447,0.931,3.377,0
			l0.584-0.582C228.68,55.424,228.68,54.027,227.75,53.095L227.75,53.095z M211.564,40.869c-3.844,3.844-10.129,3.844-13.973,0
			c-3.842-3.842-3.842-10.131,0-13.972c3.844-3.843,10.129-3.843,13.973,0C215.523,30.738,215.406,37.027,211.564,40.869
			L211.564,40.869z"/>
		<path id="XMLID_2_" fill="#FFFFFF" d="M208.537,32.369h-2.329v-2.328c0-0.816-0.699-1.515-1.514-1.515l0,0
			c-0.817,0-1.514,0.699-1.514,1.515v2.328h-2.329c-0.814,0-1.514,0.698-1.514,1.513l0,0c0,0.817,0.699,1.515,1.514,1.515h2.329
			v2.33c0,0.813,0.696,1.514,1.514,1.514l0,0c0.814,0,1.514-0.701,1.514-1.514v-2.33h2.329c0.814,0,1.514-0.697,1.514-1.515l0,0
			C210.051,33.067,209.352,32.369,208.537,32.369L208.537,32.369z"/>
	</g>
	<g>
		<path fill="#414042" d="M75.665,44.497l-3.398-9.506h2.082l2.405,7.035l2.328-7.035h2.036l-3.404,9.506H75.665z"/>
		<path fill="#414042" d="M82.097,44.497v-9.506h7.049V36.6h-5.129v2.107h4.772v1.602h-4.772v2.587h5.311v1.602H82.097z"/>
		<path fill="#414042" d="M90.961,44.497v-9.506h4.04c1.016,0,1.754,0.085,2.214,0.256c0.461,0.171,0.829,0.475,1.105,0.911
			c0.277,0.437,0.415,0.936,0.415,1.498c0,0.713-0.209,1.302-0.629,1.767c-0.419,0.465-1.046,0.758-1.88,0.879
			c0.415,0.242,0.757,0.508,1.027,0.798c0.271,0.289,0.635,0.804,1.093,1.543l1.16,1.854h-2.295l-1.388-2.068
			c-0.493-0.739-0.83-1.205-1.012-1.397s-0.374-0.324-0.577-0.396s-0.525-0.107-0.966-0.107h-0.39v3.969H90.961z M92.88,39.012
			h1.421c0.92,0,1.495-0.039,1.725-0.117c0.229-0.078,0.408-0.212,0.538-0.402c0.13-0.189,0.194-0.428,0.194-0.713
			c0-0.32-0.085-0.578-0.256-0.774c-0.171-0.197-0.412-0.321-0.724-0.373c-0.155-0.021-0.622-0.032-1.4-0.032H92.88V39.012z"/>
		<path fill="#414042" d="M108.656,41.002V39.4h4.137v3.787c-0.402,0.389-0.984,0.731-1.747,1.027
			c-0.764,0.296-1.536,0.444-2.318,0.444c-0.994,0-1.861-0.209-2.601-0.626s-1.295-1.014-1.666-1.789
			c-0.372-0.776-0.558-1.62-0.558-2.532c0-0.99,0.207-1.87,0.622-2.64s1.022-1.359,1.822-1.77c0.609-0.316,1.368-0.474,2.276-0.474
			c1.18,0,2.102,0.247,2.766,0.742c0.663,0.495,1.09,1.18,1.28,2.053l-1.906,0.356c-0.134-0.467-0.386-0.836-0.756-1.105
			c-0.369-0.271-0.831-0.405-1.384-0.405c-0.839,0-1.506,0.266-2.001,0.797c-0.495,0.532-0.742,1.321-0.742,2.367
			c0,1.128,0.251,1.975,0.752,2.539c0.502,0.563,1.158,0.846,1.972,0.846c0.401,0,0.805-0.079,1.209-0.236
			c0.404-0.158,0.751-0.35,1.041-0.574v-1.206H108.656z"/>
		<path fill="#414042" d="M114.569,44.497v-9.506h4.04c1.016,0,1.754,0.085,2.214,0.256c0.461,0.171,0.829,0.475,1.105,0.911
			c0.277,0.437,0.415,0.936,0.415,1.498c0,0.713-0.209,1.302-0.629,1.767c-0.419,0.465-1.046,0.758-1.88,0.879
			c0.415,0.242,0.757,0.508,1.027,0.798c0.271,0.289,0.635,0.804,1.093,1.543l1.16,1.854h-2.295l-1.388-2.068
			c-0.493-0.739-0.83-1.205-1.012-1.397s-0.374-0.324-0.577-0.396s-0.525-0.107-0.966-0.107h-0.39v3.969H114.569z M116.488,39.012
			h1.421c0.92,0,1.495-0.039,1.725-0.117c0.229-0.078,0.408-0.212,0.538-0.402c0.13-0.189,0.194-0.428,0.194-0.713
			c0-0.32-0.085-0.578-0.256-0.774c-0.171-0.197-0.412-0.321-0.724-0.373c-0.155-0.021-0.622-0.032-1.4-0.032h-1.498V39.012z"/>
		<path fill="#414042" d="M132.725,44.497h-2.088l-0.83-2.159h-3.8l-0.784,2.159h-2.036l3.702-9.506h2.03L132.725,44.497z
			 M129.191,40.736l-1.311-3.527l-1.283,3.527H129.191z M126.779,34.446l0.895-1.938h2.042l-1.783,1.938H126.779z"/>
		<path fill="#414042" d="M133.756,44.497v-9.506h6.517V36.6h-4.598v2.25h3.969v1.607h-3.969v4.04H133.756z"/>
		<path fill="#414042" d="M141.797,44.497v-9.506h1.919v9.506H141.797z"/>
		<path fill="#414042" d="M151.627,41.002l1.86,0.59c-0.285,1.038-0.76,1.809-1.423,2.312c-0.664,0.504-1.506,0.756-2.525,0.756
			c-1.263,0-2.3-0.432-3.113-1.294c-0.813-0.862-1.219-2.041-1.219-3.537c0-1.582,0.408-2.811,1.226-3.687
			c0.817-0.875,1.892-1.313,3.223-1.313c1.163,0,2.107,0.344,2.834,1.031c0.432,0.406,0.756,0.989,0.973,1.75l-1.9,0.454
			c-0.112-0.492-0.347-0.882-0.703-1.167s-0.79-0.428-1.301-0.428c-0.704,0-1.276,0.253-1.715,0.759s-0.658,1.324-0.658,2.457
			c0,1.202,0.217,2.058,0.648,2.568c0.433,0.51,0.994,0.765,1.687,0.765c0.51,0,0.948-0.162,1.316-0.486
			C151.203,42.208,151.467,41.698,151.627,41.002z"/>
		<path fill="#414042" d="M163.706,44.497h-2.088l-0.83-2.159h-3.8l-0.784,2.159h-2.036l3.702-9.506h2.03L163.706,44.497z
			 M160.173,40.736l-1.311-3.527l-1.283,3.527H160.173z"/>
	</g>
	<g>
		<g>
			<g>
				<path fill="#414042" d="M52.263,37.081c-0.269-2.087-2.449-3.514-4.52-2.737c-0.76,0.28-1.66-0.14-1.998-0.897
					c-0.412-0.929-0.924-1.821-1.52-2.646c-0.516-0.717-0.42-1.655,0.221-2.183c0.792-0.65,1.234-1.612,1.215-2.641
					c-0.02-1.039-0.511-2.001-1.346-2.635c-1.361-1.03-2.846-1.89-4.416-2.549c-0.425-0.181-0.873-0.271-1.331-0.271
					c-1.647,0-3.044,1.173-3.311,2.787c-0.136,0.82-0.881,1.378-1.791,1.283c-0.992-0.106-2.031-0.106-3.031,0
					c-0.866,0.095-1.648-0.465-1.786-1.283c-0.269-1.614-1.663-2.787-3.311-2.787c-0.457,0-0.907,0.09-1.332,0.271
					c-1.568,0.659-3.056,1.519-4.414,2.549c-0.837,0.632-1.326,1.595-1.348,2.635c-0.022,1.028,0.424,1.99,1.219,2.646
					c0.639,0.524,0.732,1.463,0.219,2.178c-0.596,0.827-1.108,1.718-1.523,2.645c-0.339,0.76-1.179,1.209-2.017,0.893
					c-0.379-0.14-0.771-0.213-1.171-0.213c-1.681,0-3.111,1.271-3.331,2.956c-0.108,0.846-0.164,1.709-0.164,2.566
					c0,0.858,0.056,1.722,0.164,2.566c0.271,2.087,2.448,3.515,4.52,2.736c0.753-0.285,1.66,0.142,1.998,0.897
					c0.415,0.931,0.926,1.822,1.521,2.646c0.516,0.718,0.417,1.656-0.223,2.185c-0.793,0.651-1.234,1.611-1.213,2.64
					c0.021,1.039,0.511,2.001,1.348,2.636c1.358,1.031,2.846,1.889,4.414,2.549c0.425,0.181,0.875,0.271,1.332,0.271
					c1.648,0,3.043-1.172,3.311-2.787c0.138-0.819,0.894-1.366,1.788-1.283c0.995,0.107,2.031,0.107,3.032,0
					c0.881-0.083,1.652,0.464,1.788,1.283c0.268,1.615,1.662,2.787,3.314,2.787c0.455,0,0.903-0.092,1.326-0.272
					c1.569-0.659,3.053-1.518,4.416-2.549c0.837-0.635,1.326-1.595,1.348-2.637c0.017-1.025-0.426-1.987-1.218-2.642
					c-0.641-0.524-0.735-1.464-0.222-2.18c0.596-0.825,1.109-1.715,1.522-2.643c0.343-0.758,1.183-1.203,2.018-0.893
					c0.379,0.142,0.773,0.215,1.172,0.215c1.681,0,3.112-1.271,3.329-2.957c0.11-0.846,0.165-1.709,0.165-2.567
					C52.428,38.788,52.373,37.926,52.263,37.081z M50.497,41.987c-0.127,0.988-1.082,1.686-2.129,1.296
					c-1.621-0.607-3.53,0.235-4.25,1.84c-0.364,0.817-0.814,1.602-1.342,2.331c-1.064,1.489-0.836,3.463,0.541,4.597
					c0.368,0.304,0.571,0.752,0.561,1.228c-0.01,0.496-0.239,0.953-0.638,1.254c-1.246,0.943-2.6,1.726-4.032,2.328
					c-0.206,0.087-0.422,0.131-0.637,0.131h-0.003c-0.776,0-1.433-0.547-1.556-1.302c-0.27-1.61-1.683-2.777-3.355-2.777
					c-0.123,0-0.251,0.006-0.375,0.018c-0.878,0.09-1.787,0.09-2.658,0c-1.82-0.199-3.443,1.029-3.733,2.757
					c-0.16,0.968-1.267,1.565-2.195,1.171c-1.435-0.602-2.789-1.386-4.031-2.327c-0.399-0.302-0.632-0.759-0.643-1.253
					c-0.009-0.476,0.197-0.924,0.567-1.23c1.375-1.132,1.604-3.106,0.535-4.595c-0.523-0.731-0.976-1.514-1.343-2.335
					c-0.717-1.602-2.553-2.467-4.265-1.83c-0.938,0.353-1.984-0.315-2.111-1.304c-0.101-0.769-0.151-1.555-0.151-2.338
					c0-0.782,0.051-1.569,0.151-2.338c0.126-0.989,1.081-1.688,2.13-1.299c1.623,0.605,3.529-0.234,4.247-1.837
					c0.365-0.821,0.818-1.604,1.342-2.334c1.068-1.489,0.84-3.466-0.536-4.597c-0.369-0.301-0.575-0.751-0.566-1.228
					c0.011-0.495,0.244-0.951,0.643-1.253c1.242-0.942,2.596-1.727,4.031-2.328c0.928-0.397,2.034,0.204,2.195,1.17
					c0.286,1.729,1.905,2.96,3.729,2.759c0.878-0.09,1.787-0.09,2.659,0c1.851,0.204,3.446-1.028,3.733-2.757
					c0.158-0.967,1.262-1.569,2.195-1.171c1.433,0.603,2.789,1.387,4.032,2.328c0.396,0.301,0.628,0.759,0.638,1.252
					c0.011,0.477-0.197,0.927-0.564,1.229c-1.374,1.133-1.604,3.107-0.537,4.596c0.527,0.731,0.978,1.515,1.344,2.335
					c0.718,1.602,2.551,2.465,4.267,1.83c0.937-0.355,1.983,0.315,2.11,1.305c0.1,0.768,0.151,1.555,0.151,2.337
					C50.648,40.43,50.597,41.216,50.497,41.987z"/>
			</g>
		</g>
	</g>
	<g>
		<g>
			<path fill="#414042" d="M31.952,29.854c-5.4,0-9.795,4.393-9.795,9.792c0,5.401,4.395,9.794,9.795,9.794
				c5.398,0,9.792-4.393,9.792-9.794C41.744,34.247,37.351,29.854,31.952,29.854z M31.952,47.659c-4.418,0-8.014-3.596-8.014-8.013
				s3.596-8.012,8.014-8.012c4.416,0,8.011,3.595,8.011,8.012S36.368,47.659,31.952,47.659z"/>
		</g>
	</g>
	<g>
		<g>
			<path fill="#414042" d="M31.952,33.415c-2.455,0-4.453,1.998-4.453,4.451c0,2.453,1.998,4.451,4.453,4.451
				c2.456,0,4.451-1.998,4.451-4.451C36.403,35.413,34.408,33.415,31.952,33.415z M31.952,40.536c-1.475,0-2.672-1.196-2.672-2.67
				c0-1.473,1.197-2.67,2.672-2.67c1.473,0,2.67,1.197,2.67,2.67C34.622,39.34,33.425,40.536,31.952,40.536z"/>
		</g>
	</g>
	<g>
		<g>
			<path fill="#DB5940" d="M25.745,45.979c0,0,5.528,5.529,12.593,0C38.338,45.979,32.196,36.262,25.745,45.979z"/>
			<path fill="#414042" d="M39.082,45.659c-1.051-3.062-3.917-5.12-7.13-5.12c-3.215,0-6.08,2.058-7.132,5.12
				c-0.112,0.32-0.027,0.678,0.212,0.917c1.849,1.847,4.306,2.864,6.92,2.864c2.612,0,5.071-1.018,6.919-2.864
				C39.112,46.337,39.196,45.979,39.082,45.659z M26.716,45.709c0.93-2.049,2.971-3.392,5.236-3.392
				c2.264,0,4.305,1.343,5.239,3.392C34.282,48.231,29.622,48.231,26.716,45.709z"/>
		</g>
	</g>
</g>
</svg>