<?xml version="1.0" encoding="utf-8"?>
<!-- Generator: Adobe Illustrator 17.0.0, SVG Export Plug-In . SVG Version: 6.00 Build 0)  -->
<!DOCTYPE svg PUBLIC "-//W3C//DTD SVG 1.1//EN" "http://www.w3.org/Graphics/SVG/1.1/DTD/svg11.dtd" [
	<!ENTITY ns_extend "http://ns.adobe.com/Extensibility/1.0/">
	<!ENTITY ns_ai "http://ns.adobe.com/AdobeIllustrator/10.0/">
	<!ENTITY ns_graphs "http://ns.adobe.com/Graphs/1.0/">
	<!ENTITY ns_vars "http://ns.adobe.com/Variables/1.0/">
	<!ENTITY ns_imrep "http://ns.adobe.com/ImageReplacement/1.0/">
	<!ENTITY ns_sfw "http://ns.adobe.com/SaveForWeb/1.0/">
	<!ENTITY ns_custom "http://ns.adobe.com/GenericCustomNamespace/1.0/">
	<!ENTITY ns_adobe_xpath "http://ns.adobe.com/XPath/1.0/">
]>
<svg version="1.1" id="Capa_1" xmlns:x="&ns_extend;" xmlns:i="&ns_ai;" xmlns:graph="&ns_graphs;"
	 xmlns="http://www.w3.org/2000/svg" xmlns:xlink="http://www.w3.org/1999/xlink" x="0px" y="0px" width="227.453px"
	 height="52.288px" viewBox="0 0 227.453 52.288" enable-background="new 0 0 227.453 52.288" xml:space="preserve">
<metadata>
	<sfw  xmlns="&ns_sfw;">
		<slices></slices>
		<sliceSourceBounds  width="227.453" height="124.816" y="-398.541" x="525.431" bottomLeftOrigin="true"></sliceSourceBounds>
	</sfw>
</metadata>
<g>
	<g id="XMLID_65_">
		<g id="XMLID_77_">
			<g>
				<polygon id="XMLID_11_" fill="#414042" points="204.905,0 227.453,26.143 204.905,52.288 184.379,52.288 206.927,26.143 
					184.379,0 204.905,0 				"/>
			</g>
		</g>
		<g id="XMLID_69_">
			<g>
				<polygon id="XMLID_10_" fill="#414042" points="22.55,52.288 0,26.143 22.55,0 43.076,0 20.526,26.143 43.076,52.288 
					22.55,52.288 				"/>
			</g>
		</g>
		<polygon id="XMLID_68_" fill="#D9593F" points="49.286,0 178.166,0 200.716,26.143 178.166,52.288 49.286,52.288 26.736,26.143 		
			"/>
	</g>
	<g>
		<path fill="#FFFFFF" d="M45.404,33.254V20.229h2.63v13.025H45.404z"/>
		<path fill="#FFFFFF" d="M50.566,33.254V20.229h2.559l5.331,8.698v-8.698h2.443v13.025h-2.639L53.01,24.76v8.494H50.566z"/>
		<path fill="#FFFFFF" d="M66.612,33.254V22.432h-3.865v-2.203h10.352v2.203h-3.856v10.822H66.612z"/>
		<path fill="#FFFFFF" d="M74.805,33.254V20.229h5.535c1.392,0,2.403,0.117,3.034,0.352c0.631,0.233,1.136,0.649,1.515,1.248
			s0.568,1.282,0.568,2.052c0,0.978-0.287,1.785-0.861,2.422c-0.575,0.637-1.434,1.038-2.577,1.204
			c0.569,0.331,1.038,0.695,1.408,1.093c0.37,0.396,0.87,1.102,1.497,2.114l1.591,2.541h-3.146l-1.901-2.834
			c-0.675-1.013-1.137-1.651-1.386-1.915s-0.513-0.444-0.791-0.542s-0.72-0.146-1.323-0.146h-0.533v5.437H74.805z M77.435,25.737
			h1.945c1.262,0,2.05-0.054,2.363-0.16c0.314-0.106,0.561-0.29,0.738-0.551c0.177-0.261,0.266-0.586,0.266-0.978
			c0-0.438-0.116-0.792-0.351-1.062s-0.564-0.439-0.99-0.511c-0.214-0.029-0.854-0.045-1.92-0.045h-2.052V25.737z"/>
		<path fill="#FFFFFF" d="M87.403,26.821c0-1.327,0.198-2.44,0.595-3.341c0.297-0.663,0.7-1.259,1.213-1.786
			c0.513-0.526,1.074-0.918,1.684-1.173c0.812-0.343,1.748-0.515,2.808-0.515c1.92,0,3.455,0.595,4.607,1.785
			c1.151,1.191,1.728,2.847,1.728,4.967c0,2.104-0.571,3.748-1.715,4.936c-1.143,1.187-2.671,1.781-4.584,1.781
			c-1.938,0-3.478-0.591-4.62-1.772C87.975,30.521,87.403,28.895,87.403,26.821z M90.113,26.732c0,1.475,0.34,2.593,1.021,3.354
			c0.681,0.761,1.546,1.142,2.595,1.142c1.048,0,1.908-0.378,2.581-1.133c0.672-0.756,1.008-1.889,1.008-3.398
			c0-1.493-0.327-2.606-0.981-3.341s-1.523-1.102-2.607-1.102s-1.958,0.371-2.621,1.114C90.444,24.113,90.113,25.234,90.113,26.732z
			"/>
		<path fill="#FFFFFF" d="M102.081,20.229h4.807c1.084,0,1.91,0.083,2.479,0.249c0.764,0.225,1.419,0.625,1.964,1.199
			c0.545,0.575,0.959,1.278,1.243,2.11c0.285,0.832,0.427,1.858,0.427,3.078c0,1.072-0.133,1.997-0.399,2.772
			c-0.326,0.948-0.791,1.715-1.396,2.301c-0.456,0.444-1.072,0.791-1.848,1.04c-0.581,0.184-1.356,0.275-2.328,0.275h-4.948V20.229z
			 M104.711,22.432v8.628h1.963c0.734,0,1.265-0.042,1.591-0.125c0.427-0.106,0.78-0.287,1.062-0.542
			c0.281-0.254,0.511-0.673,0.688-1.257c0.178-0.583,0.267-1.379,0.267-2.386s-0.089-1.779-0.267-2.318s-0.427-0.96-0.746-1.262
			c-0.32-0.303-0.726-0.507-1.218-0.613c-0.367-0.083-1.087-0.125-2.158-0.125H104.711z"/>
		<path fill="#FFFFFF" d="M115.212,20.229h2.63v7.055c0,1.119,0.033,1.845,0.099,2.177c0.112,0.533,0.38,0.961,0.804,1.284
			c0.424,0.322,1.002,0.484,1.737,0.484c0.746,0,1.309-0.152,1.688-0.458c0.379-0.305,0.607-0.68,0.685-1.124
			s0.115-1.182,0.115-2.212v-7.206h2.63v6.842c0,1.563-0.071,2.668-0.213,3.313c-0.143,0.646-0.404,1.19-0.786,1.635
			c-0.383,0.444-0.894,0.799-1.533,1.063c-0.64,0.263-1.475,0.395-2.506,0.395c-1.243,0-2.187-0.144-2.829-0.431
			s-1.15-0.66-1.524-1.119c-0.373-0.459-0.618-0.94-0.737-1.444c-0.172-0.746-0.258-1.848-0.258-3.305V20.229z"/>
		<path fill="#FFFFFF" d="M136.705,28.465l2.55,0.809c-0.391,1.422-1.041,2.478-1.95,3.168c-0.909,0.689-2.063,1.034-3.461,1.034
			c-1.729,0-3.151-0.591-4.265-1.772c-1.113-1.182-1.67-2.797-1.67-4.847c0-2.168,0.56-3.852,1.679-5.051s2.592-1.799,4.416-1.799
			c1.593,0,2.888,0.471,3.883,1.412c0.592,0.557,1.036,1.356,1.332,2.399l-2.603,0.622c-0.154-0.676-0.476-1.209-0.964-1.6
			c-0.489-0.391-1.083-0.586-1.782-0.586c-0.965,0-1.749,0.346-2.35,1.039c-0.602,0.693-0.902,1.815-0.902,3.367
			c0,1.646,0.297,2.819,0.889,3.519c0.593,0.699,1.362,1.049,2.311,1.049c0.698,0,1.3-0.223,1.804-0.667
			C136.124,30.117,136.485,29.419,136.705,28.465z"/>
		<path fill="#FFFFFF" d="M149.847,28.465l2.55,0.809c-0.391,1.422-1.041,2.478-1.95,3.168c-0.909,0.689-2.063,1.034-3.461,1.034
			c-1.729,0-3.151-0.591-4.265-1.772c-1.113-1.182-1.67-2.797-1.67-4.847c0-2.168,0.56-3.852,1.679-5.051s2.592-1.799,4.416-1.799
			c1.593,0,2.888,0.471,3.883,1.412c0.592,0.557,1.036,1.356,1.332,2.399l-2.603,0.622c-0.154-0.676-0.476-1.209-0.964-1.6
			c-0.489-0.391-1.083-0.586-1.782-0.586c-0.965,0-1.749,0.346-2.35,1.039c-0.602,0.693-0.902,1.815-0.902,3.367
			c0,1.646,0.297,2.819,0.889,3.519c0.593,0.699,1.362,1.049,2.311,1.049c0.698,0,1.3-0.223,1.804-0.667
			C149.266,30.117,149.627,29.419,149.847,28.465z"/>
		<path fill="#FFFFFF" d="M154.573,33.254V20.229h2.63v13.025H154.573z"/>
		<path fill="#FFFFFF" d="M159.175,26.821c0-1.327,0.198-2.44,0.595-3.341c0.297-0.663,0.7-1.259,1.213-1.786
			c0.513-0.526,1.074-0.918,1.684-1.173c0.812-0.343,1.748-0.515,2.808-0.515c1.92,0,3.455,0.595,4.607,1.785
			c1.151,1.191,1.728,2.847,1.728,4.967c0,2.104-0.571,3.748-1.715,4.936c-1.143,1.187-2.671,1.781-4.584,1.781
			c-1.938,0-3.478-0.591-4.62-1.772C159.746,30.521,159.175,28.895,159.175,26.821z M161.885,26.732c0,1.475,0.34,2.593,1.021,3.354
			c0.681,0.761,1.546,1.142,2.595,1.142c1.048,0,1.908-0.378,2.581-1.133c0.672-0.756,1.008-1.889,1.008-3.398
			c0-1.493-0.327-2.606-0.981-3.341s-1.523-1.102-2.607-1.102s-1.958,0.371-2.621,1.114
			C162.216,24.113,161.885,25.234,161.885,26.732z M163.875,19.482l1.226-2.656h2.799l-2.443,2.656H163.875z"/>
		<path fill="#FFFFFF" d="M173.889,33.254V20.229h2.559l5.331,8.698v-8.698h2.443v13.025h-2.639l-5.251-8.494v8.494H173.889z"/>
	</g>
</g>
</svg>
