<!-- Generator: Adobe Illustrator 17.0.0, SVG Export Plug-In  -->
<svg version="1.1"
	 xmlns="http://www.w3.org/2000/svg" xmlns:xlink="http://www.w3.org/1999/xlink" xmlns:a="http://ns.adobe.com/AdobeSVGViewerExtensions/3.0/"
	 x="0px" y="0px" width="117.017px" height="38.336px" viewBox="0 0 117.017 38.336" enable-background="new 0 0 117.017 38.336"
	 xml:space="preserve">
<defs>
</defs>
<g id="XMLID_1_">
	<g>
		<path fill="#FFFFFF" d="M49.418,14.101l1.168,0.295c-0.245,0.959-0.686,1.689-1.321,2.193c-0.636,0.503-1.412,0.755-2.331,0.755
			c-0.95,0-1.724-0.193-2.319-0.58c-0.596-0.388-1.049-0.948-1.359-1.682c-0.311-0.734-0.467-1.522-0.467-2.365
			c0-0.918,0.176-1.719,0.526-2.403c0.352-0.684,0.851-1.203,1.498-1.558c0.648-0.355,1.361-0.533,2.14-0.533
			c0.882,0,1.624,0.226,2.226,0.674c0.602,0.449,1.021,1.081,1.258,1.896l-1.149,0.271c-0.205-0.642-0.502-1.108-0.891-1.401
			s-0.878-0.439-1.468-0.439c-0.678,0-1.244,0.162-1.699,0.487c-0.456,0.325-0.775,0.761-0.96,1.309s-0.276,1.112-0.276,1.693
			c0,0.75,0.108,1.405,0.327,1.965s0.559,0.978,1.02,1.254c0.462,0.277,0.961,0.415,1.498,0.415c0.654,0,1.208-0.188,1.661-0.565
			S49.258,14.843,49.418,14.101z"/>
		<path fill="#FFFFFF" d="M51.862,17.193v-8.82h1.083v8.82H51.862z"/>
		<path fill="#FFFFFF" d="M54.629,9.619V8.373h1.083v1.246H54.629z M54.629,17.193v-6.39h1.083v6.39H54.629z"/>
		<path fill="#FFFFFF" d="M61.53,14.854l1.064,0.138c-0.116,0.734-0.414,1.309-0.893,1.724c-0.479,0.415-1.068,0.623-1.767,0.623
			c-0.874,0-1.577-0.286-2.108-0.857s-0.797-1.391-0.797-2.458c0-0.689,0.114-1.293,0.343-1.811s0.576-0.905,1.044-1.164
			c0.467-0.259,0.976-0.388,1.525-0.388c0.693,0,1.261,0.175,1.702,0.526c0.441,0.351,0.724,0.849,0.849,1.495l-1.053,0.162
			c-0.101-0.43-0.278-0.752-0.533-0.969c-0.254-0.217-0.563-0.325-0.923-0.325c-0.546,0-0.989,0.196-1.33,0.587
			s-0.511,1.01-0.511,1.856c0,0.857,0.164,1.481,0.493,1.87c0.328,0.39,0.758,0.584,1.287,0.584c0.425,0,0.78-0.13,1.065-0.391
			C61.273,15.796,61.454,15.395,61.53,14.854z"/>
		<path fill="#FFFFFF" d="M66.944,19.642v-8.838h0.986v0.831c0.232-0.325,0.495-0.569,0.788-0.731s0.647-0.243,1.065-0.243
			c0.545,0,1.026,0.14,1.443,0.421c0.417,0.28,0.732,0.677,0.944,1.188c0.213,0.511,0.319,1.071,0.319,1.681
			c0,0.654-0.117,1.243-0.353,1.767c-0.234,0.523-0.575,0.924-1.022,1.203c-0.447,0.278-0.917,0.418-1.411,0.418
			c-0.36,0-0.685-0.076-0.972-0.229c-0.286-0.152-0.522-0.345-0.706-0.578v3.11H66.944z M67.924,14.035
			c0,0.822,0.166,1.43,0.499,1.822c0.333,0.394,0.736,0.59,1.209,0.59c0.481,0,0.894-0.203,1.237-0.61
			c0.343-0.407,0.514-1.038,0.514-1.893c0-0.813-0.167-1.424-0.502-1.829c-0.335-0.404-0.735-0.607-1.2-0.607
			c-0.462,0-0.869,0.216-1.225,0.646C68.102,12.586,67.924,13.213,67.924,14.035z"/>
		<path fill="#FFFFFF" d="M77.965,16.405c-0.401,0.341-0.787,0.582-1.158,0.722c-0.371,0.141-0.77,0.211-1.194,0.211
			c-0.702,0-1.241-0.172-1.618-0.515s-0.565-0.781-0.565-1.314c0-0.313,0.071-0.599,0.214-0.857c0.142-0.259,0.328-0.466,0.56-0.622
			c0.23-0.157,0.49-0.275,0.778-0.355c0.213-0.056,0.534-0.11,0.963-0.162c0.874-0.104,1.519-0.229,1.932-0.373
			c0.004-0.148,0.006-0.243,0.006-0.283c0-0.441-0.103-0.752-0.307-0.933c-0.277-0.244-0.688-0.367-1.233-0.367
			c-0.51,0-0.886,0.09-1.128,0.269c-0.243,0.178-0.423,0.494-0.539,0.947l-1.059-0.145c0.096-0.453,0.255-0.819,0.476-1.098
			c0.22-0.279,0.539-0.493,0.956-0.644s0.9-0.226,1.45-0.226c0.545,0,0.988,0.063,1.329,0.192c0.341,0.128,0.592,0.289,0.752,0.484
			c0.161,0.194,0.273,0.439,0.337,0.736c0.036,0.185,0.055,0.518,0.055,0.999v1.444c0,1.006,0.022,1.643,0.069,1.91
			c0.046,0.267,0.137,0.522,0.273,0.767h-1.131C78.07,16.969,77.998,16.706,77.965,16.405z M77.875,13.986
			c-0.394,0.161-0.983,0.297-1.77,0.409c-0.445,0.064-0.76,0.137-0.944,0.217s-0.327,0.197-0.427,0.352
			c-0.101,0.155-0.15,0.326-0.15,0.515c0,0.289,0.109,0.529,0.327,0.722c0.219,0.193,0.539,0.289,0.96,0.289
			c0.417,0,0.788-0.091,1.113-0.273s0.563-0.433,0.716-0.749c0.116-0.245,0.175-0.605,0.175-1.083V13.986z"/>
		<path fill="#FFFFFF" d="M80.636,17.193v-6.39h0.975v0.969c0.249-0.453,0.479-0.752,0.689-0.896
			c0.21-0.145,0.442-0.216,0.694-0.216c0.365,0,0.736,0.116,1.113,0.349l-0.373,1.005c-0.265-0.156-0.529-0.235-0.794-0.235
			c-0.236,0-0.449,0.071-0.638,0.214s-0.323,0.34-0.403,0.593c-0.12,0.385-0.181,0.806-0.181,1.264v3.345H80.636z"/>
		<path fill="#FFFFFF" d="M88.921,16.405c-0.401,0.341-0.787,0.582-1.158,0.722c-0.371,0.141-0.77,0.211-1.194,0.211
			c-0.702,0-1.241-0.172-1.618-0.515s-0.565-0.781-0.565-1.314c0-0.313,0.071-0.599,0.214-0.857c0.142-0.259,0.328-0.466,0.56-0.622
			c0.23-0.157,0.49-0.275,0.778-0.355c0.213-0.056,0.534-0.11,0.963-0.162c0.874-0.104,1.519-0.229,1.932-0.373
			c0.004-0.148,0.006-0.243,0.006-0.283c0-0.441-0.103-0.752-0.307-0.933c-0.277-0.244-0.688-0.367-1.233-0.367
			c-0.51,0-0.886,0.09-1.128,0.269c-0.243,0.178-0.423,0.494-0.539,0.947l-1.059-0.145c0.096-0.453,0.255-0.819,0.476-1.098
			c0.22-0.279,0.539-0.493,0.956-0.644s0.9-0.226,1.45-0.226c0.545,0,0.988,0.063,1.329,0.192c0.341,0.128,0.592,0.289,0.752,0.484
			c0.161,0.194,0.273,0.439,0.337,0.736c0.036,0.185,0.055,0.518,0.055,0.999v1.444c0,1.006,0.022,1.643,0.069,1.91
			c0.046,0.267,0.137,0.522,0.273,0.767h-1.131C89.026,16.969,88.954,16.706,88.921,16.405z M88.832,13.986
			c-0.394,0.161-0.983,0.297-1.77,0.409c-0.445,0.064-0.76,0.137-0.944,0.217s-0.327,0.197-0.427,0.352
			c-0.101,0.155-0.15,0.326-0.15,0.515c0,0.289,0.109,0.529,0.327,0.722c0.219,0.193,0.539,0.289,0.96,0.289
			c0.417,0,0.788-0.091,1.113-0.273s0.563-0.433,0.716-0.749c0.116-0.245,0.175-0.605,0.175-1.083V13.986z"/>
		<path fill="#FFFFFF" d="M95.028,17.193v-6.39h0.969V11.7c0.2-0.313,0.467-0.564,0.8-0.755s0.712-0.285,1.137-0.285
			c0.474,0,0.861,0.098,1.164,0.294c0.303,0.197,0.517,0.472,0.641,0.824c0.506-0.746,1.163-1.118,1.974-1.118
			c0.634,0,1.121,0.175,1.462,0.526c0.341,0.351,0.512,0.891,0.512,1.621v4.386h-1.077v-4.024c0-0.434-0.035-0.745-0.105-0.936
			s-0.197-0.345-0.382-0.461s-0.401-0.174-0.649-0.174c-0.449,0-0.822,0.149-1.119,0.448s-0.445,0.776-0.445,1.435v3.712h-1.083
			v-4.151c0-0.481-0.088-0.842-0.265-1.083c-0.177-0.24-0.466-0.36-0.866-0.36c-0.305,0-0.587,0.08-0.846,0.24
			s-0.446,0.396-0.563,0.704s-0.174,0.754-0.174,1.335v3.315H95.028z"/>
		<path fill="#FFFFFF" d="M109.46,16.405c-0.401,0.341-0.787,0.582-1.158,0.722c-0.371,0.141-0.77,0.211-1.194,0.211
			c-0.702,0-1.241-0.172-1.618-0.515s-0.565-0.781-0.565-1.314c0-0.313,0.071-0.599,0.214-0.857c0.142-0.259,0.328-0.466,0.56-0.622
			c0.23-0.157,0.49-0.275,0.778-0.355c0.213-0.056,0.534-0.11,0.963-0.162c0.874-0.104,1.519-0.229,1.932-0.373
			c0.004-0.148,0.006-0.243,0.006-0.283c0-0.441-0.103-0.752-0.307-0.933c-0.277-0.244-0.688-0.367-1.233-0.367
			c-0.51,0-0.886,0.09-1.128,0.269c-0.243,0.178-0.423,0.494-0.539,0.947l-1.059-0.145c0.096-0.453,0.255-0.819,0.476-1.098
			c0.22-0.279,0.539-0.493,0.956-0.644s0.9-0.226,1.45-0.226c0.545,0,0.988,0.063,1.329,0.192c0.341,0.128,0.592,0.289,0.752,0.484
			c0.161,0.194,0.273,0.439,0.337,0.736c0.036,0.185,0.055,0.518,0.055,0.999v1.444c0,1.006,0.022,1.643,0.069,1.91
			c0.046,0.267,0.137,0.522,0.273,0.767h-1.131C109.565,16.969,109.493,16.706,109.46,16.405z M109.371,13.986
			c-0.394,0.161-0.983,0.297-1.77,0.409c-0.445,0.064-0.76,0.137-0.944,0.217s-0.327,0.197-0.427,0.352
			c-0.101,0.155-0.15,0.326-0.15,0.515c0,0.289,0.109,0.529,0.327,0.722c0.219,0.193,0.539,0.289,0.96,0.289
			c0.417,0,0.788-0.091,1.113-0.273s0.563-0.433,0.716-0.749c0.116-0.245,0.175-0.605,0.175-1.083V13.986z M107.264,10.01
			l0.801-1.685h1.42l-1.324,1.685H107.264z"/>
		<path fill="#FFFFFF" d="M111.71,15.286l1.071-0.168c0.06,0.429,0.228,0.758,0.502,0.986s0.659,0.343,1.152,0.343
			c0.497,0,0.866-0.102,1.106-0.304c0.241-0.202,0.361-0.44,0.361-0.713c0-0.245-0.106-0.438-0.318-0.577
			c-0.148-0.097-0.518-0.219-1.107-0.367c-0.794-0.201-1.345-0.374-1.651-0.521s-0.54-0.35-0.698-0.607
			c-0.158-0.259-0.237-0.545-0.237-0.857c0-0.285,0.065-0.549,0.195-0.791c0.131-0.243,0.308-0.444,0.532-0.605
			c0.169-0.124,0.398-0.229,0.689-0.315s0.603-0.129,0.936-0.129c0.501,0,0.941,0.071,1.32,0.216s0.659,0.34,0.839,0.587
			c0.181,0.247,0.305,0.576,0.373,0.989l-1.059,0.145c-0.048-0.328-0.188-0.585-0.418-0.77s-0.557-0.277-0.978-0.277
			c-0.497,0-0.853,0.083-1.065,0.247c-0.212,0.164-0.318,0.356-0.318,0.577c0,0.141,0.044,0.268,0.132,0.379
			c0.089,0.117,0.227,0.213,0.416,0.289c0.107,0.04,0.427,0.133,0.956,0.277c0.766,0.204,1.301,0.372,1.604,0.502
			s0.54,0.32,0.713,0.568c0.172,0.249,0.259,0.558,0.259,0.927c0,0.361-0.105,0.701-0.316,1.02c-0.21,0.319-0.514,0.565-0.911,0.74
			s-0.847,0.262-1.348,0.262c-0.83,0-1.463-0.173-1.898-0.518C112.109,16.476,111.831,15.964,111.71,15.286z"/>
		<path fill="#FFFFFF" d="M48.809,22.888v-1.246h1.083v1.246H48.809z M48.809,30.462v-6.39h1.083v6.39H48.809z"/>
		<path fill="#FFFFFF" d="M51.541,30.462v-6.39h0.975v0.909c0.469-0.702,1.146-1.053,2.033-1.053c0.385,0,0.739,0.068,1.062,0.207
			c0.323,0.139,0.564,0.32,0.726,0.545c0.16,0.225,0.272,0.491,0.337,0.8c0.04,0.2,0.06,0.552,0.06,1.053v3.929h-1.083v-3.887
			c0-0.441-0.042-0.771-0.126-0.989s-0.233-0.394-0.448-0.523c-0.215-0.131-0.466-0.195-0.755-0.195
			c-0.461,0-0.859,0.146-1.194,0.438c-0.335,0.293-0.502,0.849-0.502,1.667v3.489H51.541z"/>
		<path fill="#FFFFFF" d="M58.652,30.462v-5.547h-0.957v-0.843h0.957v-0.68c0-0.429,0.038-0.748,0.114-0.956
			c0.104-0.281,0.287-0.509,0.55-0.684c0.263-0.174,0.631-0.262,1.104-0.262c0.305,0,0.642,0.036,1.011,0.108l-0.163,0.945
			c-0.225-0.04-0.437-0.061-0.638-0.061c-0.328,0-0.562,0.07-0.697,0.211c-0.137,0.14-0.205,0.402-0.205,0.788v0.589h1.246v0.843
			h-1.246v5.547H58.652z"/>
		<path fill="#FFFFFF" d="M61.413,27.268c0-1.184,0.329-2.06,0.986-2.63c0.55-0.473,1.22-0.709,2.01-0.709
			c0.878,0,1.597,0.287,2.153,0.863c0.558,0.575,0.837,1.37,0.837,2.385c0,0.822-0.124,1.47-0.37,1.94
			c-0.247,0.472-0.605,0.837-1.077,1.098s-0.985,0.392-1.543,0.392c-0.895,0-1.617-0.287-2.169-0.86S61.413,28.347,61.413,27.268z
			 M62.526,27.268c0,0.818,0.178,1.431,0.535,1.838c0.356,0.407,0.806,0.61,1.348,0.61c0.537,0,0.984-0.204,1.342-0.613
			c0.356-0.409,0.535-1.033,0.535-1.871c0-0.79-0.18-1.389-0.538-1.796c-0.359-0.407-0.806-0.611-1.339-0.611
			c-0.542,0-0.991,0.203-1.348,0.608C62.704,25.838,62.526,26.449,62.526,27.268z"/>
		<path fill="#FFFFFF" d="M68.656,30.462v-6.39h0.975v0.969c0.249-0.453,0.479-0.752,0.689-0.896
			c0.21-0.145,0.442-0.216,0.694-0.216c0.365,0,0.736,0.116,1.113,0.349l-0.373,1.005c-0.265-0.156-0.529-0.235-0.794-0.235
			c-0.236,0-0.449,0.071-0.638,0.214s-0.323,0.34-0.403,0.593c-0.12,0.385-0.181,0.806-0.181,1.264v3.345H68.656z"/>
		<path fill="#FFFFFF" d="M72.772,30.462v-6.39h0.969v0.896c0.2-0.313,0.467-0.564,0.8-0.755s0.712-0.285,1.137-0.285
			c0.474,0,0.861,0.098,1.164,0.294c0.303,0.197,0.517,0.472,0.641,0.824c0.506-0.746,1.163-1.118,1.974-1.118
			c0.634,0,1.121,0.175,1.462,0.526c0.341,0.351,0.512,0.891,0.512,1.621v4.386h-1.077v-4.024c0-0.434-0.035-0.745-0.105-0.936
			s-0.197-0.345-0.382-0.461s-0.401-0.174-0.649-0.174c-0.449,0-0.822,0.149-1.119,0.448s-0.445,0.776-0.445,1.435v3.712h-1.083
			v-4.151c0-0.481-0.088-0.842-0.265-1.083c-0.177-0.24-0.466-0.36-0.866-0.36c-0.305,0-0.587,0.08-0.846,0.24
			s-0.446,0.396-0.563,0.704s-0.174,0.754-0.174,1.335v3.315H72.772z"/>
		<path fill="#FFFFFF" d="M87.205,29.674c-0.401,0.341-0.787,0.582-1.158,0.722c-0.371,0.141-0.77,0.211-1.194,0.211
			c-0.702,0-1.241-0.172-1.618-0.515s-0.565-0.781-0.565-1.314c0-0.313,0.071-0.599,0.214-0.857c0.142-0.259,0.328-0.466,0.56-0.622
			c0.23-0.157,0.49-0.275,0.778-0.355c0.213-0.056,0.534-0.11,0.963-0.162c0.874-0.104,1.519-0.229,1.932-0.373
			c0.004-0.148,0.006-0.243,0.006-0.283c0-0.441-0.103-0.752-0.307-0.933c-0.277-0.244-0.688-0.367-1.233-0.367
			c-0.51,0-0.886,0.09-1.128,0.269c-0.243,0.178-0.423,0.494-0.539,0.947l-1.059-0.145c0.096-0.453,0.255-0.819,0.476-1.098
			c0.22-0.279,0.539-0.493,0.956-0.644s0.9-0.226,1.45-0.226c0.545,0,0.988,0.063,1.329,0.192c0.341,0.128,0.592,0.289,0.752,0.484
			c0.161,0.194,0.273,0.439,0.337,0.736c0.036,0.185,0.055,0.518,0.055,0.999v1.444c0,1.006,0.022,1.643,0.069,1.91
			c0.046,0.267,0.137,0.522,0.273,0.767h-1.131C87.309,30.237,87.237,29.975,87.205,29.674z M87.115,27.255
			c-0.394,0.161-0.983,0.297-1.77,0.409c-0.445,0.064-0.76,0.137-0.944,0.217s-0.327,0.197-0.427,0.352
			c-0.101,0.155-0.15,0.326-0.15,0.515c0,0.289,0.109,0.529,0.327,0.722c0.219,0.193,0.539,0.289,0.96,0.289
			c0.417,0,0.788-0.091,1.113-0.273s0.563-0.433,0.716-0.749c0.116-0.245,0.175-0.605,0.175-1.083V27.255z"/>
		<path fill="#FFFFFF" d="M94.057,28.122l1.064,0.138c-0.116,0.734-0.414,1.309-0.893,1.724c-0.479,0.415-1.068,0.623-1.767,0.623
			c-0.874,0-1.577-0.286-2.108-0.857s-0.797-1.391-0.797-2.458c0-0.689,0.114-1.293,0.343-1.811s0.576-0.905,1.044-1.164
			c0.467-0.259,0.976-0.388,1.525-0.388c0.693,0,1.261,0.175,1.702,0.526c0.441,0.351,0.724,0.849,0.849,1.495l-1.053,0.162
			c-0.101-0.43-0.278-0.752-0.533-0.969c-0.254-0.217-0.563-0.325-0.923-0.325c-0.546,0-0.989,0.196-1.33,0.587
			s-0.511,1.01-0.511,1.856c0,0.857,0.164,1.481,0.493,1.87c0.328,0.39,0.758,0.584,1.287,0.584c0.425,0,0.78-0.13,1.065-0.391
			C93.8,29.064,93.981,28.663,94.057,28.122z"/>
		<path fill="#FFFFFF" d="M96.054,22.888v-1.246h1.083v1.246H96.054z M96.054,30.462v-6.39h1.083v6.39H96.054z"/>
		<path fill="#FFFFFF" d="M98.382,27.268c0-1.184,0.329-2.06,0.986-2.63c0.55-0.473,1.22-0.709,2.01-0.709
			c0.878,0,1.597,0.287,2.153,0.863c0.558,0.575,0.837,1.37,0.837,2.385c0,0.822-0.124,1.47-0.37,1.94
			c-0.247,0.472-0.605,0.837-1.077,1.098s-0.985,0.392-1.543,0.392c-0.895,0-1.617-0.287-2.169-0.86S98.382,28.347,98.382,27.268z
			 M99.496,27.268c0,0.818,0.178,1.431,0.535,1.838c0.356,0.407,0.806,0.61,1.348,0.61c0.537,0,0.984-0.204,1.342-0.613
			c0.356-0.409,0.535-1.033,0.535-1.871c0-0.79-0.18-1.389-0.538-1.796c-0.359-0.407-0.806-0.611-1.339-0.611
			c-0.542,0-0.991,0.203-1.348,0.608C99.673,25.838,99.496,26.449,99.496,27.268z M100.777,23.278l0.8-1.685h1.42l-1.323,1.685
			H100.777z"/>
		<path fill="#FFFFFF" d="M105.638,30.462v-6.39h0.975v0.909c0.469-0.702,1.146-1.053,2.033-1.053c0.385,0,0.739,0.068,1.062,0.207
			c0.323,0.139,0.564,0.32,0.726,0.545c0.16,0.225,0.272,0.491,0.337,0.8c0.04,0.2,0.06,0.552,0.06,1.053v3.929h-1.083v-3.887
			c0-0.441-0.042-0.771-0.126-0.989s-0.233-0.394-0.448-0.523c-0.215-0.131-0.466-0.195-0.755-0.195
			c-0.461,0-0.859,0.146-1.194,0.438c-0.335,0.293-0.502,0.849-0.502,1.667v3.489H105.638z"/>
	</g>
	<g id="XMLID_2_">
		<path id="XMLID_10_" fill="#414042" d="M17.05,34.125c-3.835,0-7.605-1.316-10.609-3.705c-7.366-5.852-8.597-16.605-2.745-23.971
			C6.952,2.35,11.824,0,17.06,0c3.834,0,7.604,1.314,10.607,3.703c3.571,2.834,5.821,6.891,6.342,11.416
			c0.244,2.156,0.088,4.299-0.466,6.367c-0.346,1.291-0.85,2.543-1.488,3.719c-0.298,0.543-0.978,0.744-1.521,0.447
			c-0.542-0.297-0.741-0.978-0.444-1.519c0.556-1.024,0.99-2.108,1.291-3.227c0.481-1.793,0.615-3.656,0.402-5.531
			c-0.449-3.934-2.404-7.455-5.506-9.92c-2.612-2.074-5.885-3.217-9.217-3.217c-4.548,0-8.781,2.043-11.608,5.602
			c-5.085,6.402-4.016,15.742,2.383,20.828c2.614,2.074,5.885,3.217,9.219,3.217c0.618,0,1.122,0.502,1.122,1.119
			C18.172,33.621,17.671,34.125,17.05,34.125L17.05,34.125z"/>
		<path id="XMLID_9_" fill="#414042" d="M17.05,29.084c-2.701,0-5.355-0.926-7.475-2.609C4.384,22.352,3.516,14.774,7.64,9.582
			c2.295-2.887,5.728-4.543,9.42-4.543c2.703,0,5.357,0.926,7.475,2.609c2.514,1.996,4.101,4.855,4.466,8.045
			c0.183,1.596,0.052,3.178-0.388,4.703c-0.171,0.596-0.793,0.938-1.385,0.766c-0.596-0.174-0.939-0.793-0.77-1.387
			c0.357-1.238,0.465-2.527,0.315-3.826c-0.297-2.596-1.587-4.922-3.634-6.547c-1.723-1.369-3.883-2.125-6.081-2.125
			c-3.003,0-5.795,1.35-7.667,3.699c-3.352,4.225-2.647,10.391,1.579,13.746c1.723,1.367,3.883,2.123,6.08,2.123
			c0.621,0,1.122,0.502,1.122,1.119C18.172,28.582,17.671,29.084,17.05,29.084L17.05,29.084z"/>
		<path id="XMLID_7_" fill="#DB5940" d="M22.919,17.061c0,3.24-2.625,5.865-5.866,5.865c-3.237,0-5.864-2.627-5.864-5.865
			c0-3.236,2.627-5.861,5.864-5.861C20.294,11.199,22.919,13.824,22.919,17.061L22.919,17.061z"/>
		<path id="XMLID_4_" fill="#414042" d="M17.05,24.045c-1.568,0-3.109-0.535-4.342-1.516c-3.014-2.396-3.516-6.799-1.123-9.813
			c1.334-1.678,3.328-2.641,5.473-2.641c1.568,0,3.111,0.539,4.342,1.52c3.015,2.395,3.519,6.797,1.121,9.811
			C21.189,23.084,19.197,24.045,17.05,24.045L17.05,24.045z M17.06,12.316c-1.457,0-2.814,0.654-3.722,1.793
			c-1.624,2.047-1.285,5.039,0.767,6.666c0.85,0.676,1.867,1.029,2.948,1.029c1.458,0,2.812-0.652,3.718-1.793
			c1.627-2.047,1.287-5.039-0.765-6.666C19.16,12.674,18.139,12.316,17.06,12.316L17.06,12.316z"/>
		<path id="XMLID_3_" fill="#FFFFFF" stroke="#414042" stroke-width="1.7139" stroke-miterlimit="10" d="M24.378,37.479
			c1.588,0,2.881-1.287,2.881-2.877v-7.357c0-2.144-1.74-3.885-3.886-3.885l-3.935-0.006V17.6c0-1.215-0.942-2.246-2.156-2.293
			c-1.273-0.043-2.321,0.975-2.321,2.24v10.051l-0.589-1.225c-0.32-0.67-0.926-1.047-1.548-1.047c-0.286,0-0.575,0.082-0.845,0.248
			c-0.854,0.535-1.169,1.758-0.701,2.734c0,0,1.939,4.537,3.322,7.508c0.475,1.014,1.489,1.662,2.608,1.662H24.378L24.378,37.479z"
			/>
	</g>
</g>
</svg>