<!-- Generator: Adobe Illustrator 17.0.0, SVG Export Plug-In  -->
<svg version="1.1"
	 xmlns="http://www.w3.org/2000/svg" xmlns:xlink="http://www.w3.org/1999/xlink" xmlns:a="http://ns.adobe.com/AdobeSVGViewerExtensions/3.0/"
	 x="0px" y="0px" width="93.859px" height="30.919px" viewBox="0 0 93.859 30.919" enable-background="new 0 0 93.859 30.919"
	 xml:space="preserve">
<defs>
</defs>
<g id="XMLID_1_">
	<g>
		<path fill="#414042" d="M39.639,11.312l0.937,0.236c-0.196,0.77-0.55,1.355-1.06,1.759c-0.51,0.404-1.133,0.606-1.869,0.606
			c-0.763,0-1.383-0.155-1.86-0.466s-0.842-0.761-1.091-1.349c-0.249-0.589-0.374-1.222-0.374-1.896c0-0.737,0.141-1.38,0.422-1.928
			c0.282-0.549,0.683-0.966,1.202-1.25c0.52-0.285,1.091-0.427,1.715-0.427c0.708,0,1.304,0.18,1.786,0.54s0.818,0.867,1.008,1.52
			l-0.921,0.218c-0.164-0.515-0.402-0.89-0.715-1.124c-0.312-0.235-0.704-0.353-1.177-0.353c-0.544,0-0.998,0.13-1.363,0.391
			s-0.622,0.61-0.77,1.05c-0.148,0.438-0.223,0.892-0.223,1.358c0,0.602,0.088,1.127,0.264,1.575
			c0.175,0.449,0.447,0.784,0.817,1.006c0.37,0.223,0.771,0.333,1.201,0.333c0.524,0,0.969-0.151,1.332-0.453
			C39.265,12.356,39.511,11.908,39.639,11.312z"/>
		<path fill="#414042" d="M41.598,13.793V6.719h0.869v7.074H41.598z"/>
		<path fill="#414042" d="M43.818,7.718V6.719h0.868v0.999H43.818z M43.818,13.793V8.668h0.868v5.125H43.818z"/>
		<path fill="#414042" d="M49.352,11.916l0.854,0.11c-0.094,0.589-0.332,1.05-0.717,1.383c-0.384,0.333-0.856,0.5-1.416,0.5
			c-0.701,0-1.266-0.229-1.691-0.688c-0.427-0.458-0.64-1.115-0.64-1.971c0-0.554,0.092-1.037,0.275-1.452s0.462-0.727,0.837-0.935
			c0.375-0.207,0.783-0.311,1.224-0.311c0.557,0,1.012,0.141,1.365,0.422c0.354,0.281,0.581,0.682,0.681,1.199l-0.845,0.13
			c-0.08-0.344-0.223-0.603-0.427-0.776s-0.451-0.261-0.741-0.261c-0.438,0-0.793,0.157-1.066,0.471s-0.41,0.81-0.41,1.488
			c0,0.688,0.132,1.188,0.396,1.501c0.264,0.313,0.607,0.468,1.032,0.468c0.341,0,0.626-0.104,0.854-0.313
			S49.291,12.351,49.352,11.916z"/>
		<path fill="#414042" d="M53.696,15.757V8.668h0.791v0.666c0.187-0.261,0.397-0.456,0.633-0.586
			c0.234-0.131,0.52-0.195,0.854-0.195c0.438,0,0.824,0.112,1.158,0.338c0.335,0.225,0.587,0.543,0.758,0.953
			s0.256,0.859,0.256,1.349c0,0.524-0.094,0.996-0.282,1.416s-0.462,0.741-0.82,0.965c-0.359,0.224-0.736,0.336-1.132,0.336
			c-0.289,0-0.549-0.062-0.779-0.184c-0.229-0.122-0.419-0.276-0.566-0.464v2.495H53.696z M54.483,11.26
			c0,0.659,0.133,1.146,0.4,1.462c0.267,0.315,0.59,0.473,0.97,0.473c0.386,0,0.717-0.163,0.991-0.489
			c0.275-0.327,0.413-0.833,0.413-1.518c0-0.653-0.135-1.143-0.403-1.467c-0.269-0.325-0.59-0.488-0.963-0.488
			c-0.37,0-0.697,0.174-0.981,0.52C54.624,10.098,54.483,10.601,54.483,11.26z"/>
		<path fill="#414042" d="M62.535,13.161c-0.321,0.273-0.631,0.466-0.929,0.579c-0.298,0.112-0.617,0.169-0.958,0.169
			c-0.563,0-0.995-0.138-1.298-0.413s-0.453-0.626-0.453-1.055c0-0.251,0.057-0.479,0.171-0.688
			c0.114-0.207,0.264-0.374,0.449-0.499c0.185-0.126,0.393-0.221,0.625-0.285c0.17-0.045,0.428-0.088,0.771-0.13
			c0.701-0.084,1.218-0.184,1.549-0.299c0.004-0.119,0.005-0.195,0.005-0.228c0-0.354-0.082-0.603-0.246-0.748
			C62,9.37,61.67,9.271,61.233,9.271c-0.408,0-0.71,0.071-0.904,0.215c-0.195,0.144-0.339,0.396-0.433,0.76l-0.849-0.115
			c0.077-0.364,0.204-0.657,0.381-0.881s0.433-0.396,0.768-0.517c0.334-0.12,0.722-0.181,1.163-0.181
			c0.438,0,0.793,0.052,1.066,0.154s0.475,0.232,0.603,0.389c0.129,0.155,0.219,0.353,0.271,0.591
			c0.029,0.148,0.044,0.415,0.044,0.801v1.158c0,0.808,0.018,1.318,0.055,1.532s0.11,0.419,0.22,0.615h-0.907
			C62.619,13.613,62.562,13.402,62.535,13.161z M62.463,11.221c-0.315,0.129-0.788,0.238-1.418,0.328
			c-0.357,0.052-0.61,0.109-0.758,0.174c-0.148,0.064-0.263,0.158-0.343,0.282s-0.121,0.262-0.121,0.413
			c0,0.231,0.088,0.425,0.264,0.579c0.175,0.154,0.432,0.231,0.77,0.231c0.334,0,0.632-0.073,0.893-0.22s0.452-0.347,0.574-0.601
			c0.093-0.196,0.14-0.486,0.14-0.869V11.221z"/>
		<path fill="#414042" d="M64.678,13.793V8.668h0.782v0.777c0.199-0.363,0.384-0.604,0.552-0.719
			c0.169-0.116,0.355-0.174,0.558-0.174c0.293,0,0.591,0.093,0.893,0.279l-0.299,0.807c-0.212-0.126-0.425-0.188-0.637-0.188
			c-0.19,0-0.36,0.057-0.512,0.171s-0.259,0.272-0.323,0.476c-0.097,0.309-0.145,0.646-0.145,1.014v2.683H64.678z"/>
		<path fill="#414042" d="M71.323,13.161c-0.321,0.273-0.631,0.466-0.929,0.579c-0.298,0.112-0.617,0.169-0.958,0.169
			c-0.563,0-0.995-0.138-1.298-0.413s-0.453-0.626-0.453-1.055c0-0.251,0.057-0.479,0.171-0.688
			c0.114-0.207,0.264-0.374,0.449-0.499c0.185-0.126,0.393-0.221,0.625-0.285c0.17-0.045,0.428-0.088,0.771-0.13
			c0.701-0.084,1.218-0.184,1.549-0.299c0.004-0.119,0.005-0.195,0.005-0.228c0-0.354-0.082-0.603-0.246-0.748
			c-0.222-0.195-0.552-0.294-0.989-0.294c-0.408,0-0.71,0.071-0.904,0.215c-0.195,0.144-0.339,0.396-0.433,0.76l-0.849-0.115
			c0.077-0.364,0.204-0.657,0.381-0.881s0.433-0.396,0.768-0.517c0.334-0.12,0.722-0.181,1.163-0.181
			c0.438,0,0.793,0.052,1.066,0.154s0.475,0.232,0.603,0.389c0.129,0.155,0.219,0.353,0.271,0.591
			c0.029,0.148,0.044,0.415,0.044,0.801v1.158c0,0.808,0.018,1.318,0.055,1.532s0.11,0.419,0.22,0.615h-0.907
			C71.407,13.613,71.349,13.402,71.323,13.161z M71.25,11.221c-0.315,0.129-0.788,0.238-1.418,0.328
			c-0.357,0.052-0.61,0.109-0.758,0.174c-0.148,0.064-0.263,0.158-0.343,0.282s-0.121,0.262-0.121,0.413
			c0,0.231,0.088,0.425,0.264,0.579c0.175,0.154,0.432,0.231,0.77,0.231c0.334,0,0.632-0.073,0.893-0.22s0.452-0.347,0.574-0.601
			c0.093-0.196,0.14-0.486,0.14-0.869V11.221z"/>
		<path fill="#414042" d="M76.221,13.793V8.668h0.777v0.72c0.16-0.251,0.374-0.453,0.642-0.606c0.267-0.152,0.571-0.229,0.912-0.229
			c0.379,0,0.69,0.079,0.934,0.236S79.9,9.167,79.999,9.45c0.405-0.599,0.933-0.897,1.583-0.897c0.508,0,0.899,0.141,1.173,0.422
			s0.41,0.715,0.41,1.301v3.518h-0.864v-3.229c0-0.347-0.028-0.598-0.084-0.75c-0.057-0.153-0.159-0.276-0.307-0.369
			c-0.148-0.094-0.322-0.14-0.521-0.14c-0.36,0-0.659,0.119-0.897,0.359c-0.238,0.239-0.357,0.623-0.357,1.15v2.978h-0.868v-3.329
			c0-0.387-0.07-0.676-0.212-0.869s-0.374-0.289-0.695-0.289c-0.244,0-0.471,0.064-0.678,0.192
			c-0.208,0.129-0.358,0.317-0.451,0.564c-0.094,0.248-0.14,0.605-0.14,1.071v2.659H76.221z"/>
		<path fill="#414042" d="M87.797,13.161c-0.321,0.273-0.631,0.466-0.929,0.579c-0.298,0.112-0.617,0.169-0.958,0.169
			c-0.563,0-0.995-0.138-1.298-0.413s-0.453-0.626-0.453-1.055c0-0.251,0.057-0.479,0.171-0.688
			c0.114-0.207,0.264-0.374,0.449-0.499c0.185-0.126,0.393-0.221,0.625-0.285c0.17-0.045,0.428-0.088,0.771-0.13
			c0.701-0.084,1.218-0.184,1.549-0.299c0.004-0.119,0.005-0.195,0.005-0.228c0-0.354-0.082-0.603-0.246-0.748
			c-0.222-0.195-0.552-0.294-0.989-0.294c-0.408,0-0.71,0.071-0.904,0.215c-0.195,0.144-0.339,0.396-0.433,0.76l-0.849-0.115
			c0.077-0.364,0.204-0.657,0.381-0.881s0.433-0.396,0.768-0.517c0.334-0.12,0.722-0.181,1.163-0.181
			c0.438,0,0.793,0.052,1.066,0.154s0.475,0.232,0.603,0.389c0.129,0.155,0.219,0.353,0.271,0.591
			c0.029,0.148,0.044,0.415,0.044,0.801v1.158c0,0.808,0.018,1.318,0.055,1.532s0.11,0.419,0.22,0.615h-0.907
			C87.881,13.613,87.824,13.402,87.797,13.161z M87.725,11.221c-0.315,0.129-0.788,0.238-1.418,0.328
			c-0.357,0.052-0.61,0.109-0.758,0.174c-0.148,0.064-0.263,0.158-0.343,0.282s-0.121,0.262-0.121,0.413
			c0,0.231,0.088,0.425,0.264,0.579c0.175,0.154,0.432,0.231,0.77,0.231c0.334,0,0.632-0.073,0.893-0.22s0.452-0.347,0.574-0.601
			c0.093-0.196,0.14-0.486,0.14-0.869V11.221z M86.036,8.031l0.642-1.351h1.139l-1.062,1.351H86.036z"/>
		<path fill="#414042" d="M89.602,12.264l0.859-0.136c0.048,0.345,0.183,0.608,0.402,0.792c0.221,0.183,0.529,0.274,0.925,0.274
			c0.398,0,0.694-0.081,0.888-0.243c0.193-0.163,0.289-0.354,0.289-0.572c0-0.196-0.085-0.351-0.256-0.463
			c-0.118-0.077-0.414-0.176-0.888-0.295c-0.637-0.16-1.078-0.3-1.324-0.417s-0.433-0.28-0.56-0.487
			c-0.127-0.208-0.19-0.437-0.19-0.688c0-0.229,0.052-0.44,0.156-0.635s0.247-0.356,0.427-0.485c0.136-0.1,0.319-0.184,0.553-0.253
			s0.483-0.104,0.751-0.104c0.401,0,0.755,0.058,1.059,0.174c0.304,0.115,0.528,0.272,0.673,0.47c0.146,0.198,0.245,0.463,0.3,0.794
			l-0.85,0.116c-0.038-0.264-0.15-0.47-0.335-0.618c-0.186-0.147-0.446-0.222-0.784-0.222c-0.399,0-0.684,0.066-0.854,0.198
			c-0.17,0.132-0.256,0.286-0.256,0.463c0,0.112,0.036,0.214,0.106,0.304c0.07,0.094,0.182,0.171,0.333,0.232
			c0.087,0.031,0.343,0.105,0.768,0.222c0.614,0.164,1.043,0.298,1.285,0.402c0.243,0.104,0.434,0.257,0.572,0.456
			c0.139,0.2,0.208,0.447,0.208,0.743c0,0.29-0.085,0.563-0.254,0.818s-0.412,0.453-0.731,0.594c-0.318,0.14-0.679,0.21-1.08,0.21
			c-0.666,0-1.174-0.139-1.522-0.415C89.921,13.217,89.699,12.807,89.602,12.264z"/>
		<path fill="#414042" d="M39.15,18.36v-0.999h0.868v0.999H39.15z M39.15,24.436v-5.125h0.868v5.125H39.15z"/>
		<path fill="#414042" d="M41.34,24.436v-5.125h0.782v0.729c0.376-0.563,0.92-0.844,1.631-0.844c0.309,0,0.593,0.056,0.852,0.166
			c0.259,0.111,0.452,0.257,0.581,0.437c0.129,0.181,0.219,0.395,0.271,0.643c0.032,0.16,0.048,0.442,0.048,0.844v3.151h-0.868
			v-3.117c0-0.354-0.034-0.618-0.102-0.794c-0.067-0.175-0.188-0.315-0.359-0.42s-0.374-0.156-0.605-0.156
			c-0.37,0-0.689,0.117-0.958,0.352c-0.269,0.235-0.402,0.681-0.402,1.337v2.799H41.34z"/>
		<path fill="#414042" d="M47.044,24.436v-4.449h-0.768v-0.676h0.768v-0.545c0-0.344,0.03-0.6,0.091-0.768
			c0.084-0.225,0.231-0.407,0.442-0.548c0.21-0.14,0.506-0.209,0.885-0.209c0.245,0,0.515,0.028,0.811,0.086l-0.13,0.758
			c-0.181-0.032-0.351-0.048-0.512-0.048c-0.264,0-0.45,0.057-0.56,0.169s-0.164,0.323-0.164,0.632v0.473h0.999v0.676h-0.999v4.449
			H47.044z"/>
		<path fill="#414042" d="M49.259,21.873c0-0.949,0.264-1.651,0.791-2.108c0.441-0.38,0.979-0.569,1.612-0.569
			c0.704,0,1.28,0.23,1.728,0.692s0.671,1.1,0.671,1.913c0,0.659-0.1,1.179-0.297,1.557c-0.198,0.378-0.486,0.671-0.864,0.88
			c-0.378,0.21-0.79,0.314-1.237,0.314c-0.718,0-1.298-0.23-1.74-0.69S49.259,22.738,49.259,21.873z M50.152,21.873
			c0,0.656,0.144,1.147,0.43,1.475c0.286,0.326,0.646,0.489,1.081,0.489c0.431,0,0.789-0.164,1.076-0.492
			c0.286-0.328,0.429-0.828,0.429-1.5c0-0.634-0.144-1.114-0.432-1.44c-0.288-0.327-0.646-0.49-1.073-0.49
			c-0.435,0-0.795,0.162-1.081,0.487S50.152,21.217,50.152,21.873z"/>
		<path fill="#414042" d="M55.069,24.436v-5.125h0.782v0.777c0.199-0.363,0.384-0.604,0.552-0.719
			c0.169-0.116,0.355-0.174,0.558-0.174c0.293,0,0.591,0.093,0.893,0.279l-0.299,0.807c-0.212-0.126-0.425-0.188-0.637-0.188
			c-0.19,0-0.36,0.057-0.512,0.171s-0.259,0.272-0.323,0.476c-0.097,0.309-0.145,0.646-0.145,1.014v2.683H55.069z"/>
		<path fill="#414042" d="M58.369,24.436v-5.125h0.777v0.72c0.16-0.251,0.374-0.453,0.642-0.606
			c0.267-0.152,0.571-0.229,0.912-0.229c0.379,0,0.69,0.079,0.934,0.236s0.414,0.378,0.514,0.661
			c0.405-0.599,0.933-0.897,1.583-0.897c0.508,0,0.899,0.141,1.173,0.422s0.41,0.715,0.41,1.301v3.518H64.45v-3.229
			c0-0.347-0.028-0.598-0.084-0.75c-0.057-0.153-0.159-0.276-0.307-0.369c-0.148-0.094-0.322-0.14-0.521-0.14
			c-0.36,0-0.659,0.119-0.897,0.359c-0.238,0.239-0.357,0.623-0.357,1.15v2.978h-0.868v-3.329c0-0.387-0.07-0.676-0.212-0.869
			s-0.374-0.289-0.695-0.289c-0.244,0-0.471,0.064-0.678,0.192c-0.208,0.129-0.358,0.317-0.451,0.564
			c-0.094,0.248-0.14,0.605-0.14,1.071v2.659H58.369z"/>
		<path fill="#414042" d="M69.946,23.804c-0.321,0.273-0.631,0.466-0.929,0.579c-0.298,0.112-0.617,0.169-0.958,0.169
			c-0.563,0-0.995-0.138-1.298-0.413s-0.453-0.626-0.453-1.055c0-0.251,0.057-0.479,0.171-0.688
			c0.114-0.207,0.264-0.374,0.449-0.499c0.185-0.126,0.393-0.221,0.625-0.285c0.17-0.045,0.428-0.088,0.771-0.13
			c0.701-0.084,1.218-0.184,1.549-0.299c0.004-0.119,0.005-0.195,0.005-0.228c0-0.354-0.082-0.603-0.246-0.748
			c-0.222-0.195-0.552-0.294-0.989-0.294c-0.408,0-0.71,0.071-0.904,0.215c-0.195,0.144-0.339,0.396-0.433,0.76l-0.849-0.115
			c0.077-0.364,0.204-0.657,0.381-0.881s0.433-0.396,0.768-0.517c0.334-0.12,0.722-0.181,1.163-0.181
			c0.438,0,0.793,0.052,1.066,0.154s0.475,0.232,0.603,0.389c0.129,0.155,0.219,0.353,0.271,0.591
			c0.029,0.148,0.044,0.415,0.044,0.801v1.158c0,0.808,0.018,1.318,0.055,1.532s0.11,0.419,0.22,0.615h-0.907
			C70.03,24.256,69.972,24.045,69.946,23.804z M69.873,21.863c-0.315,0.129-0.788,0.238-1.418,0.328
			c-0.357,0.052-0.61,0.109-0.758,0.174c-0.148,0.064-0.263,0.158-0.343,0.282s-0.121,0.262-0.121,0.413
			c0,0.231,0.088,0.425,0.264,0.579c0.175,0.154,0.432,0.231,0.77,0.231c0.334,0,0.632-0.073,0.893-0.22s0.452-0.347,0.574-0.601
			c0.093-0.196,0.14-0.486,0.14-0.869V21.863z"/>
		<path fill="#414042" d="M75.442,22.559l0.854,0.11c-0.094,0.589-0.332,1.05-0.717,1.383c-0.384,0.333-0.856,0.5-1.416,0.5
			c-0.701,0-1.266-0.229-1.691-0.688c-0.427-0.458-0.64-1.115-0.64-1.971c0-0.554,0.092-1.037,0.275-1.452s0.462-0.727,0.837-0.935
			c0.375-0.207,0.783-0.311,1.224-0.311c0.557,0,1.012,0.141,1.365,0.422c0.354,0.281,0.581,0.682,0.681,1.199l-0.845,0.13
			c-0.08-0.344-0.223-0.603-0.427-0.776s-0.451-0.261-0.741-0.261c-0.438,0-0.793,0.157-1.066,0.471s-0.41,0.81-0.41,1.488
			c0,0.688,0.132,1.188,0.396,1.501c0.264,0.313,0.607,0.468,1.032,0.468c0.341,0,0.626-0.104,0.854-0.313
			S75.381,22.993,75.442,22.559z"/>
		<path fill="#414042" d="M77.044,18.36v-0.999h0.868v0.999H77.044z M77.044,24.436v-5.125h0.868v5.125H77.044z"/>
		<path fill="#414042" d="M78.911,21.873c0-0.949,0.264-1.651,0.791-2.108c0.441-0.38,0.979-0.569,1.612-0.569
			c0.704,0,1.28,0.23,1.728,0.692s0.671,1.1,0.671,1.913c0,0.659-0.1,1.179-0.297,1.557c-0.198,0.378-0.486,0.671-0.864,0.88
			c-0.378,0.21-0.79,0.314-1.237,0.314c-0.718,0-1.298-0.23-1.74-0.69S78.911,22.738,78.911,21.873z M79.804,21.873
			c0,0.656,0.144,1.147,0.43,1.475c0.286,0.326,0.646,0.489,1.081,0.489c0.431,0,0.789-0.164,1.076-0.492
			c0.286-0.328,0.429-0.828,0.429-1.5c0-0.634-0.144-1.114-0.432-1.44c-0.288-0.327-0.646-0.49-1.073-0.49
			c-0.435,0-0.795,0.162-1.081,0.487S79.804,21.217,79.804,21.873z M80.832,18.674l0.642-1.351h1.139l-1.062,1.351H80.832z"/>
		<path fill="#414042" d="M84.731,24.436v-5.125h0.782v0.729c0.376-0.563,0.92-0.844,1.631-0.844c0.309,0,0.593,0.056,0.852,0.166
			c0.259,0.111,0.452,0.257,0.581,0.437c0.129,0.181,0.219,0.395,0.271,0.643c0.032,0.16,0.048,0.442,0.048,0.844v3.151h-0.868
			v-3.117c0-0.354-0.034-0.618-0.102-0.794c-0.067-0.175-0.188-0.315-0.359-0.42s-0.374-0.156-0.605-0.156
			c-0.37,0-0.689,0.117-0.958,0.352c-0.269,0.235-0.402,0.681-0.402,1.337v2.799H84.731z"/>
	</g>
	<g id="XMLID_2_">
		<path id="XMLID_10_" fill="#414042" d="M13.676,27.372c-3.075,0-6.099-1.058-8.51-2.973C-0.742,19.706-1.729,11.08,2.964,5.172
			C5.577,1.886,9.484,0,13.684,0c3.076,0,6.099,1.056,8.51,2.971c2.863,2.272,4.667,5.525,5.085,9.156
			c0.195,1.731,0.071,3.447-0.373,5.108c-0.276,1.034-0.681,2.038-1.194,2.98c-0.238,0.437-0.783,0.598-1.22,0.36
			c-0.435-0.239-0.595-0.785-0.357-1.22c0.446-0.82,0.796-1.69,1.036-2.588c0.387-1.438,0.494-2.933,0.322-4.436
			c-0.359-3.152-1.928-5.979-4.415-7.955c-2.096-1.664-4.721-2.581-7.394-2.581c-3.649,0-7.042,1.638-9.311,4.494
			c-4.078,5.134-3.221,12.626,1.912,16.704c2.096,1.664,4.721,2.581,7.394,2.581c0.495,0,0.898,0.401,0.898,0.897
			C14.577,26.969,14.174,27.372,13.676,27.372L13.676,27.372z"/>
		<path id="XMLID_9_" fill="#414042" d="M8.096,5.818c1.611-1.147,3.549-1.776,5.588-1.776c2.168,0,4.298,0.744,5.996,2.092
			c2.016,1.603,3.29,3.896,3.582,6.454c0.146,1.279,0.041,2.55-0.311,3.771c-0.137,0.477-0.637,0.753-1.11,0.614
			c-0.479-0.138-0.753-0.635-0.615-1.111c0.285-0.995,0.37-2.027,0.25-3.069c-0.238-2.082-1.273-3.946-2.914-5.252
			c-1.383-1.097-3.115-1.703-4.877-1.703c-2.411,0-4.65,1.083-6.149,2.967c-2.69,3.389-2.125,8.333,1.265,11.026
			c1.382,1.098,3.115,1.702,4.877,1.702c0.498,0,0.9,0.402,0.9,0.897c0,0.496-0.402,0.899-0.9,0.899l0,0
			c-2.166,0-4.294-0.742-5.994-2.094c-4.163-3.308-4.86-9.386-1.553-13.548C6.704,6.964,7.366,6.339,8.096,5.818"/>
		<path id="XMLID_7_" fill="#DB5940" d="M18.384,13.686c0,2.598-2.105,4.704-4.704,4.704c-2.598,0-4.704-2.108-4.704-4.704
			c0-2.598,2.106-4.702,4.704-4.702C16.279,8.983,18.384,11.088,18.384,13.686L18.384,13.686z"/>
		<path id="XMLID_4_" fill="#414042" d="M13.676,19.287c-1.257,0-2.494-0.43-3.481-1.217c-2.418-1.92-2.821-5.451-0.901-7.87
			c1.069-1.345,2.67-2.118,4.391-2.118c1.258,0,2.494,0.434,3.48,1.219c2.419,1.92,2.822,5.452,0.901,7.868
			C16.997,18.514,15.399,19.287,13.676,19.287L13.676,19.287z M13.684,9.88c-1.168,0-2.256,0.523-2.984,1.438
			c-1.303,1.643-1.03,4.041,0.615,5.347c0.68,0.54,1.497,0.824,2.364,0.824c1.168,0,2.254-0.522,2.981-1.438
			c1.308-1.641,1.032-4.041-0.612-5.347C15.368,10.165,14.55,9.88,13.684,9.88L13.684,9.88z"/>
		<path id="XMLID_3_" fill="#FFFFFF" stroke="#414042" stroke-width="1.7139" stroke-miterlimit="10" d="M19.555,30.063
			c1.274,0,2.309-1.033,2.309-2.308v-5.903c0-1.721-1.395-3.114-3.116-3.114l-3.154-0.005v-4.615c0-0.975-0.757-1.803-1.731-1.839
			C12.841,12.243,12,13.059,12,14.073v8.063l-0.471-0.983c-0.259-0.535-0.742-0.839-1.243-0.839c-0.229,0-0.461,0.065-0.678,0.199
			c-0.685,0.429-0.938,1.409-0.56,2.192c0,0,1.553,3.64,2.664,6.024c0.379,0.813,1.193,1.333,2.09,1.333H19.555L19.555,30.063z"/>
	</g>
</g>
</svg>