<!-- Generator: Adobe Illustrator 17.0.0, SVG Export Plug-In  -->
<svg version="1.1"
	 xmlns="http://www.w3.org/2000/svg" xmlns:xlink="http://www.w3.org/1999/xlink" xmlns:a="http://ns.adobe.com/AdobeSVGViewerExtensions/3.0/"
	 x="0px" y="0px" width="431.512px" height="324.1px" viewBox="0 0 431.512 324.1" enable-background="new 0 0 431.512 324.1"
	 xml:space="preserve">
<defs>
</defs>
<g>
	<path fill="#B3AA8D" d="M106.744,56.506c0,17.417-14.119,31.534-31.537,31.534c-17.415,0-31.535-14.117-31.535-31.534
		c0-17.417,14.12-31.536,31.535-31.536C92.625,24.969,106.744,39.088,106.744,56.506"/>
	<circle fill="none" stroke="#414042" stroke-width="1.228" stroke-miterlimit="10" cx="75.208" cy="56.506" r="31.536"/>
	<path fill="#B3AA8D" d="M384.509,56.506c0,17.417-14.119,31.534-31.535,31.534c-17.421,0-31.538-14.117-31.538-31.534
		c0-17.417,14.117-31.536,31.538-31.536C370.389,24.969,384.509,39.088,384.509,56.506"/>
	<path fill="none" stroke="#414042" stroke-width="1.228" stroke-miterlimit="10" d="M384.509,56.506
		c0,17.417-14.119,31.534-31.535,31.534c-17.421,0-31.538-14.117-31.538-31.534c0-17.417,14.117-31.536,31.538-31.536
		C370.389,24.969,384.509,39.088,384.509,56.506z"/>
	<path fill="#B3AA8D" d="M420.568,155.637c0,17.416-14.119,31.535-31.537,31.535c-17.417,0-31.535-14.119-31.535-31.535
		c0-17.417,14.118-31.536,31.535-31.536C406.449,124.1,420.568,138.219,420.568,155.637"/>
	<circle fill="none" stroke="#414042" stroke-width="1.228" stroke-miterlimit="10" cx="389.032" cy="155.636" r="31.536"/>
	<path fill="#B3AA8D" d="M419.266,247.873c0,17.416-14.12,31.533-31.538,31.533s-31.536-14.117-31.536-31.533
		c0-17.417,14.118-31.538,31.536-31.538S419.266,230.456,419.266,247.873"/>
	<circle fill="none" stroke="#414042" stroke-width="1.228" stroke-miterlimit="10" cx="387.729" cy="247.873" r="31.537"/>
	<path fill="#B3AA8D" d="M7.5,155.637c0,17.416,14.119,31.535,31.535,31.535c17.419,0,31.537-14.119,31.537-31.535
		c0-17.417-14.118-31.536-31.537-31.536C21.619,124.1,7.5,138.219,7.5,155.637"/>
	<circle fill="none" stroke="#414042" stroke-width="1.228" stroke-miterlimit="10" cx="39.036" cy="155.636" r="31.536"/>
	<path fill="#B3AA8D" d="M8.802,247.873c0,17.416,14.121,31.533,31.539,31.533c17.417,0,31.534-14.117,31.534-31.533
		c0-17.417-14.117-31.538-31.534-31.538C22.924,216.335,8.802,230.456,8.802,247.873"/>
	<circle fill="none" stroke="#414042" stroke-width="1.228" stroke-miterlimit="10" cx="40.339" cy="247.873" r="31.537"/>
	<path fill="#B3AA8D" d="M245.627,36.456c0,17.418-14.119,31.533-31.535,31.533c-17.419,0-31.539-14.115-31.539-31.533
		c0-17.417,14.12-31.536,31.539-31.536C231.508,4.92,245.627,19.038,245.627,36.456"/>
	<circle fill="none" stroke="#414042" stroke-width="1.228" stroke-miterlimit="10" cx="214.09" cy="36.456" r="31.537"/>
	<path fill="none" stroke="#414042" stroke-width="1.228" stroke-miterlimit="10" stroke-dasharray="1.228,1.228" d="
		M245.627,36.468h22.333c0,0,9.294-0.759,9.294,9.291v51.988"/>
	<path fill="#B3AA8D" d="M194.16,291.95c0-17.416,14.12-31.533,31.538-31.533c17.417,0,31.538,14.117,31.538,31.533
		c0,17.419-14.121,31.536-31.538,31.536C208.28,323.486,194.16,309.369,194.16,291.95"/>
	<path fill="none" stroke="#414042" stroke-width="1.228" stroke-miterlimit="10" d="M194.16,291.95
		c0-17.416,14.12-31.533,31.538-31.533c17.417,0,31.538,14.117,31.538,31.533c0,17.419-14.121,31.536-31.538,31.536
		C208.28,323.486,194.16,309.369,194.16,291.95z"/>
	<path fill="none" stroke="#414042" stroke-width="1.228" stroke-miterlimit="10" stroke-dasharray="1.228,1.228" d="
		M194.16,291.939h-22.332c0,0-9.293,0.759-9.293-9.292v-42.989"/>
	<path fill="none" stroke="#414042" stroke-width="1.228" stroke-miterlimit="10" stroke-dasharray="1.228,1.228" d="
		M334.003,137.032v7.768c0,0,0.759,9.291-9.294,9.291h-9.463"/>
	<path fill="none" stroke="#414042" stroke-width="1.228" stroke-miterlimit="10" stroke-dasharray="1.228,1.228" d="
		M384.495,187.074v7.768c0,0,0.759,9.29-9.291,9.29h-61.095"/>
	<path fill="none" stroke="#414042" stroke-width="1.228" stroke-miterlimit="10" stroke-dasharray="1.228,1.228" d="
		M371.729,82.751v26.213c0,0,0.759,9.29-9.292,9.29h-9.464v-0.462h-9.466c-10.054,0-9.291,9.292-9.291,9.292v7.767"/>
	
		<line fill="none" stroke="#3F3F3E" stroke-width="1.228" stroke-miterlimit="10" x1="366.868" y1="270.876" x2="366.868" y2="272.332"/>
	<path fill="none" stroke="#3F3F3E" stroke-width="1.228" stroke-miterlimit="10" stroke-dasharray="1.123,1.123" d="
		M366.868,274.995v3.65c0,0,0.761,9.29-9.294,9.29h-6.675"/>
	<polyline fill="none" stroke="#3F3F3E" stroke-width="1.228" stroke-miterlimit="10" points="349.567,287.937 348.112,287.937 
		349.326,287.924 347.87,287.924 	"/>
	<path fill="none" stroke="#414042" stroke-width="1.228" stroke-miterlimit="10" stroke-dasharray="1.263,1.263" d="
		M344.875,287.922h-3.316c0,0-9.294,0.76-9.294-9.287v-3.449l0.041-1.33v-9.469c0-10.048-9.29-9.29-9.29-9.29h-7.77l-1.832-0.024
		h-7.768c0,0-9.293,0.759-9.293-9.294v-2.547"/>
	
		<line fill="none" stroke="#3F3F3E" stroke-width="1.228" stroke-miterlimit="10" x1="296.353" y1="241.73" x2="296.353" y2="240.276"/>
	<path fill="none" stroke="#414042" stroke-width="1.228" stroke-miterlimit="10" stroke-dasharray="1.228,1.228" d="M91.7,137.032
		v7.768c0,0-0.758,9.291,9.292,9.291h9.465"/>
	<path fill="none" stroke="#414042" stroke-width="1.228" stroke-miterlimit="10" stroke-dasharray="1.228,1.228" d="
		M41.208,187.074v7.768c0,0-0.761,9.29,9.29,9.29h61.096"/>
	<path fill="none" stroke="#414042" stroke-width="1.228" stroke-miterlimit="10" stroke-dasharray="1.228,1.228" d="M53.973,82.751
		v26.213c0,0-0.758,9.29,9.292,9.29h9.465v-0.462h9.465c10.053,0,9.293,9.292,9.293,9.292v7.767"/>
	
		<line fill="none" stroke="#3F3F3E" stroke-width="1.228" stroke-miterlimit="10" x1="58.835" y1="274.196" x2="58.835" y2="275.65"/>
	<path fill="none" stroke="#3F3F3E" stroke-width="1.228" stroke-miterlimit="10" stroke-dasharray="1.217,1.217" d="
		M58.835,278.536v0.107c0,0-0.758,9.292,9.292,9.292h6.568"/>
	<polyline fill="none" stroke="#3F3F3E" stroke-width="1.228" stroke-miterlimit="10" points="76.134,287.937 77.59,287.937 
		76.377,287.924 77.833,287.924 	"/>
	<path fill="none" stroke="#414042" stroke-width="1.228" stroke-miterlimit="10" stroke-dasharray="1.263,1.263" d="
		M80.828,287.922h3.316c0,0,9.292,0.76,9.292-9.287v-3.449l-0.039-1.33v-9.469c0-10.048,9.292-9.29,9.292-9.29h7.768l1.832-0.024
		h7.767c0,0,9.291,0.759,9.291-9.294v-2.547"/>
	
		<line fill="none" stroke="#3F3F3E" stroke-width="1.228" stroke-miterlimit="10" x1="129.347" y1="241.73" x2="129.347" y2="240.276"/>
	<line fill="none" stroke="#414042" stroke-width="1.228" stroke-miterlimit="10" x1="1.035" y1="15.663" x2="31.897" y2="15.663"/>
	<line fill="none" stroke="#414042" stroke-width="1.228" stroke-miterlimit="10" x1="1.035" y1="15.663" x2="31.897" y2="15.663"/>
	<line fill="none" stroke="#414042" stroke-width="1.228" stroke-miterlimit="10" x1="21.804" y1="9.027" x2="41.993" y2="9.027"/>
	<line fill="none" stroke="#414042" stroke-width="1.228" stroke-miterlimit="10" x1="21.804" y1="9.027" x2="41.993" y2="9.027"/>
	
		<line fill="none" stroke="#414042" stroke-width="1.228" stroke-miterlimit="10" x1="387.345" y1="312.089" x2="356.483" y2="312.089"/>
	
		<line fill="none" stroke="#414042" stroke-width="1.228" stroke-miterlimit="10" x1="387.345" y1="312.089" x2="356.483" y2="312.089"/>
	
		<line fill="none" stroke="#414042" stroke-width="1.228" stroke-miterlimit="10" x1="366.576" y1="305.452" x2="346.387" y2="305.452"/>
	
		<line fill="none" stroke="#414042" stroke-width="1.228" stroke-miterlimit="10" x1="366.576" y1="305.452" x2="346.387" y2="305.452"/>
	
		<line fill="none" stroke="#414042" stroke-width="1.228" stroke-miterlimit="10" x1="108.724" y1="291.256" x2="139.587" y2="291.256"/>
	
		<line fill="none" stroke="#414042" stroke-width="1.228" stroke-miterlimit="10" x1="108.724" y1="291.256" x2="139.587" y2="291.256"/>
	
		<line fill="none" stroke="#414042" stroke-width="1.228" stroke-miterlimit="10" x1="129.494" y1="284.619" x2="149.682" y2="284.619"/>
	
		<line fill="none" stroke="#414042" stroke-width="1.228" stroke-miterlimit="10" x1="129.494" y1="284.619" x2="149.682" y2="284.619"/>
	
		<line fill="none" stroke="#414042" stroke-width="1.228" stroke-miterlimit="10" x1="292.41" y1="16.191" x2="311.907" y2="16.191"/>
	
		<line fill="none" stroke="#414042" stroke-width="1.228" stroke-miterlimit="10" x1="292.41" y1="16.191" x2="311.907" y2="16.191"/>
	<line fill="#FFFFFF" stroke="#414141" stroke-miterlimit="10" x1="402.444" y1="95.073" x2="421.939" y2="95.073"/>
	
		<line fill="none" stroke="#414141" stroke-width="1.228" stroke-miterlimit="10" x1="402.444" y1="95.073" x2="421.939" y2="95.073"/>
	
		<line fill="none" stroke="#414042" stroke-width="1.228" stroke-miterlimit="10" x1="305.532" y1="9.555" x2="318.284" y2="9.555"/>
	
		<line fill="none" stroke="#414042" stroke-width="1.228" stroke-miterlimit="10" x1="305.532" y1="9.555" x2="318.284" y2="9.555"/>
	<line fill="#FFFFFF" x1="335.502" y1="193.178" x2="354.997" y2="193.178"/>
	
		<line fill="none" stroke="#3F3F3E" stroke-width="1.228" stroke-miterlimit="10" x1="335.502" y1="193.178" x2="354.997" y2="193.178"/>
	<line fill="#FFFFFF" x1="348.619" y1="186.542" x2="361.375" y2="186.542"/>
	
		<line fill="none" stroke="#3F3F3E" stroke-width="1.228" stroke-miterlimit="10" x1="348.619" y1="186.542" x2="361.375" y2="186.542"/>
	<line fill="#FFFFFF" stroke="#414141" stroke-miterlimit="10" x1="89.667" y1="192.184" x2="70.172" y2="192.184"/>
	
		<line fill="none" stroke="#414141" stroke-width="1.228" stroke-miterlimit="10" x1="89.667" y1="192.184" x2="70.172" y2="192.184"/>
	<line fill="#FFFFFF" stroke="#414141" stroke-miterlimit="10" x1="76.549" y1="185.549" x2="63.794" y2="185.549"/>
	
		<line fill="none" stroke="#414141" stroke-width="1.228" stroke-miterlimit="10" x1="76.549" y1="185.549" x2="63.794" y2="185.549"/>
	
		<line fill="none" stroke="#414042" stroke-width="1.228" stroke-miterlimit="10" x1="150.798" y1="80.04" x2="173.093" y2="80.04"/>
	
		<line fill="none" stroke="#414042" stroke-width="1.228" stroke-miterlimit="10" x1="150.798" y1="70.04" x2="173.093" y2="70.04"/>
	<line fill="#FFFFFF" stroke="#414141" stroke-miterlimit="10" x1="389.894" y1="85.315" x2="412.188" y2="85.315"/>
	
		<line fill="none" stroke="#414141" stroke-width="1.228" stroke-miterlimit="10" x1="389.894" y1="85.315" x2="412.188" y2="85.315"/>
	<line fill="#FFFFFF" stroke="#414141" stroke-miterlimit="10" x1="175.119" y1="252.614" x2="197.415" y2="252.614"/>
	
		<line fill="none" stroke="#414141" stroke-width="1.228" stroke-miterlimit="10" x1="175.119" y1="252.614" x2="197.415" y2="252.614"/>
	<line fill="#FFFFFF" x1="118.148" y1="0.614" x2="161.945" y2="0.614"/>
	
		<line fill="none" stroke="#414042" stroke-width="1.228" stroke-miterlimit="10" x1="118.148" y1="0.614" x2="161.945" y2="0.614"/>
	<line fill="#FFFFFF" stroke="#414141" stroke-miterlimit="10" x1="413.187" y1="18.231" x2="413.187" y2="23.065"/>
	
		<line fill="none" stroke="#414141" stroke-width="1.228" stroke-miterlimit="10" x1="413.187" y1="18.231" x2="413.187" y2="23.065"/>
	<line fill="#FFFFFF" stroke="#414141" stroke-miterlimit="10" x1="406" y1="24.998" x2="410.834" y2="24.998"/>
	<line fill="none" stroke="#414141" stroke-width="1.228" stroke-miterlimit="10" x1="406" y1="24.998" x2="410.834" y2="24.998"/>
	<line fill="#FFFFFF" stroke="#414141" stroke-miterlimit="10" x1="413.187" y1="31.998" x2="413.187" y2="27.165"/>
	
		<line fill="none" stroke="#414141" stroke-width="1.228" stroke-miterlimit="10" x1="413.187" y1="31.998" x2="413.187" y2="27.165"/>
	<line fill="#FFFFFF" stroke="#414141" stroke-miterlimit="10" x1="420.379" y1="25.23" x2="415.547" y2="25.23"/>
	
		<line fill="none" stroke="#414141" stroke-width="1.228" stroke-miterlimit="10" x1="420.379" y1="25.23" x2="415.547" y2="25.23"/>
	<line fill="#FFFFFF" stroke="#414141" stroke-miterlimit="10" x1="297.242" y1="285.068" x2="297.242" y2="289.902"/>
	
		<line fill="none" stroke="#414141" stroke-width="1.228" stroke-miterlimit="10" x1="297.242" y1="285.068" x2="297.242" y2="289.902"/>
	<line fill="#FFFFFF" stroke="#414141" stroke-miterlimit="10" x1="290.054" y1="291.836" x2="294.888" y2="291.836"/>
	
		<line fill="none" stroke="#414141" stroke-width="1.228" stroke-miterlimit="10" x1="290.054" y1="291.836" x2="294.888" y2="291.836"/>
	<line fill="#FFFFFF" stroke="#414141" stroke-miterlimit="10" x1="297.242" y1="298.835" x2="297.242" y2="294.003"/>
	
		<line fill="none" stroke="#414141" stroke-width="1.228" stroke-miterlimit="10" x1="297.242" y1="298.835" x2="297.242" y2="294.003"/>
	<line fill="#FFFFFF" stroke="#414141" stroke-miterlimit="10" x1="304.433" y1="292.067" x2="299.601" y2="292.067"/>
	
		<line fill="none" stroke="#414141" stroke-width="1.228" stroke-miterlimit="10" x1="304.433" y1="292.067" x2="299.601" y2="292.067"/>
	<line fill="#FFFFFF" stroke="#414141" stroke-miterlimit="10" x1="141.574" y1="34.421" x2="141.574" y2="39.255"/>
	
		<line fill="none" stroke="#414141" stroke-width="1.228" stroke-miterlimit="10" x1="141.574" y1="34.421" x2="141.574" y2="39.255"/>
	<line fill="#FFFFFF" stroke="#414141" stroke-miterlimit="10" x1="134.386" y1="41.188" x2="139.22" y2="41.188"/>
	
		<line fill="none" stroke="#414141" stroke-width="1.228" stroke-miterlimit="10" x1="134.386" y1="41.188" x2="139.22" y2="41.188"/>
	<line fill="#FFFFFF" stroke="#414141" stroke-miterlimit="10" x1="141.574" y1="48.187" x2="141.574" y2="43.355"/>
	
		<line fill="none" stroke="#414141" stroke-width="1.228" stroke-miterlimit="10" x1="141.574" y1="48.187" x2="141.574" y2="43.355"/>
	<line fill="#FFFFFF" stroke="#414141" stroke-miterlimit="10" x1="148.765" y1="41.42" x2="143.933" y2="41.42"/>
	
		<line fill="none" stroke="#414141" stroke-width="1.228" stroke-miterlimit="10" x1="148.765" y1="41.42" x2="143.933" y2="41.42"/>
	<line fill="#FFFFFF" stroke="#414141" stroke-miterlimit="10" x1="8.8" y1="197.249" x2="8.8" y2="202.083"/>
	<line fill="none" stroke="#414141" stroke-width="1.228" stroke-miterlimit="10" x1="8.8" y1="197.249" x2="8.8" y2="202.083"/>
	<line fill="#FFFFFF" stroke="#414141" stroke-miterlimit="10" x1="1.613" y1="204.016" x2="6.447" y2="204.016"/>
	
		<line fill="none" stroke="#414141" stroke-width="1.228" stroke-miterlimit="10" x1="1.613" y1="204.016" x2="6.447" y2="204.016"/>
	<line fill="#FFFFFF" stroke="#414141" stroke-miterlimit="10" x1="8.8" y1="211.016" x2="8.8" y2="206.183"/>
	<line fill="none" stroke="#414141" stroke-width="1.228" stroke-miterlimit="10" x1="8.8" y1="211.016" x2="8.8" y2="206.183"/>
	<line fill="#FFFFFF" stroke="#414141" stroke-miterlimit="10" x1="15.992" y1="204.249" x2="11.16" y2="204.249"/>
	
		<line fill="none" stroke="#414141" stroke-width="1.228" stroke-miterlimit="10" x1="15.992" y1="204.249" x2="11.16" y2="204.249"/>
	<path fill="#FFFFFF" d="M390.439,34.287l-4.412,0.764c-1.023,0.176-2.234-0.438-2.693-1.368l-3.615-5.728
		c-0.637-0.811-0.678-2.17-0.08-3.014l2.578-3.652c0.592-0.851,0.389-2.024-0.454-2.623l-4.205-2.964
		c-0.852-0.6-2.036-0.392-2.628,0.455l-2.578,3.657c-0.594,0.841-1.879,1.271-2.86,0.93l-6.614-1.467
		c-1.026-0.121-2.014-1.063-2.188-2.08l-0.767-4.42c-0.178-1.021-1.158-1.703-2.174-1.529l-5.065,0.879
		c-1.026,0.177-1.714,1.15-1.536,2.171l0.767,4.419c0.176,1.018-0.442,2.235-1.373,2.696l-5.728,3.605
		c-0.805,0.651-2.169,0.68-3.01,0.088l-3.662-2.576c-0.844-0.6-2.018-0.397-2.616,0.453l-2.968,4.205
		c-0.59,0.85-0.389,2.019,0.457,2.623l3.659,2.572c0.843,0.599,1.257,1.891,0.919,2.87l-1.466,6.61
		c-0.121,1.029-1.054,2.016-2.079,2.193l-4.412,0.764c-1.016,0.176-1.701,1.164-1.525,2.187l0.876,5.059
		c0.176,1.017,1.155,1.717,2.17,1.541l4.411-0.766c1.027-0.179,2.236,0.429,2.695,1.362l3.605,5.731
		c0.652,0.809,0.691,2.164,0.098,3.003l-2.582,3.659c-0.593,0.844-0.389,2.025,0.454,2.628l4.21,2.964
		c0.848,0.593,2.022,0.39,2.617-0.451l2.58-3.662c0.594-0.845,1.885-1.271,2.871-0.932l6.6,1.473
		c1.029,0.119,2.021,1.05,2.199,2.072l0.768,4.418c0.172,1.015,1.148,1.712,2.176,1.531l5.065-0.875
		c1.017-0.176,1.709-1.161,1.533-2.177l-0.766-4.417c-0.177-1.023,0.437-2.234,1.364-2.688l5.733-3.609
		c0.803-0.65,2.164-0.683,3.006-0.09l3.662,2.584c0.842,0.597,2.027,0.39,2.625-0.456l2.964-4.207
		c0.591-0.852,0.387-2.033-0.454-2.626l-3.669-2.579c-0.841-0.591-1.253-1.885-0.927-2.856l1.477-6.615
		c0.119-1.032,1.055-2.012,2.079-2.187l4.413-0.765c1.016-0.176,1.709-1.161,1.531-2.182l-0.875-5.057
		C392.439,34.807,391.455,34.112,390.439,34.287 M362.181,51.943c-4.422,0.765-8.613-2.202-9.379-6.621
		c-0.766-4.417,2.187-8.615,6.608-9.38c4.425-0.765,8.624,2.193,9.388,6.611C369.564,46.972,366.607,51.178,362.181,51.943"/>
	
		<path fill="none" stroke="#414042" stroke-width="1.228" stroke-linecap="round" stroke-linejoin="round" stroke-miterlimit="10" d="
		M390.439,34.287l-4.412,0.764c-1.023,0.176-2.234-0.438-2.693-1.368l-3.615-5.728c-0.637-0.811-0.678-2.17-0.08-3.014l2.578-3.652
		c0.592-0.851,0.389-2.024-0.454-2.623l-4.205-2.964c-0.852-0.6-2.036-0.392-2.628,0.455l-2.578,3.657
		c-0.594,0.841-1.879,1.271-2.86,0.93l-6.614-1.467c-1.026-0.121-2.014-1.063-2.188-2.08l-0.767-4.42
		c-0.178-1.021-1.158-1.703-2.174-1.529l-5.065,0.879c-1.026,0.177-1.714,1.15-1.536,2.171l0.767,4.419
		c0.176,1.018-0.442,2.235-1.373,2.696l-5.728,3.605c-0.805,0.651-2.169,0.68-3.01,0.088l-3.662-2.576
		c-0.844-0.6-2.018-0.397-2.616,0.453l-2.968,4.205c-0.59,0.85-0.389,2.019,0.457,2.623l3.659,2.572
		c0.843,0.599,1.257,1.891,0.919,2.87l-1.466,6.61c-0.121,1.029-1.054,2.016-2.079,2.193l-4.412,0.764
		c-1.016,0.176-1.701,1.164-1.525,2.187l0.876,5.059c0.176,1.017,1.155,1.717,2.17,1.541l4.411-0.766
		c1.027-0.179,2.236,0.429,2.695,1.362l3.605,5.731c0.652,0.809,0.691,2.164,0.098,3.003l-2.582,3.659
		c-0.593,0.844-0.389,2.025,0.454,2.628l4.21,2.964c0.848,0.593,2.022,0.39,2.617-0.451l2.58-3.662
		c0.594-0.845,1.885-1.271,2.871-0.932l6.6,1.473c1.029,0.119,2.021,1.05,2.199,2.072l0.768,4.418
		c0.172,1.015,1.148,1.712,2.176,1.531l5.065-0.875c1.017-0.176,1.709-1.161,1.533-2.177l-0.766-4.417
		c-0.177-1.023,0.437-2.234,1.364-2.688l5.733-3.609c0.803-0.65,2.164-0.683,3.006-0.09l3.662,2.584
		c0.842,0.597,2.027,0.39,2.625-0.456l2.964-4.207c0.591-0.852,0.387-2.033-0.454-2.626l-3.669-2.579
		c-0.841-0.591-1.253-1.885-0.927-2.856l1.477-6.615c0.119-1.032,1.055-2.012,2.079-2.187l4.413-0.765
		c1.016-0.176,1.709-1.161,1.531-2.182l-0.875-5.057C392.439,34.807,391.455,34.112,390.439,34.287z M362.181,51.943
		c-4.422,0.765-8.613-2.202-9.379-6.621c-0.766-4.417,2.187-8.615,6.608-9.38c4.425-0.765,8.624,2.193,9.388,6.611
		C369.564,46.972,366.607,51.178,362.181,51.943z"/>
	<path fill="#FFFFFF" d="M2.842,168.332v-50.866c0-3.996,3.269-7.266,7.266-7.266h29.076c3.998,0,7.266,3.27,7.266,7.266v50.866
		c0,3.998-3.268,7.267-7.266,7.267H10.107C6.11,175.598,2.842,172.33,2.842,168.332"/>
	
		<path fill="none" stroke="#414042" stroke-width="1.228" stroke-linecap="round" stroke-linejoin="round" stroke-miterlimit="10" d="
		M2.842,168.332v-50.866c0-3.996,3.269-7.266,7.266-7.266h29.076c3.998,0,7.266,3.27,7.266,7.266v50.866
		c0,3.998-3.268,7.267-7.266,7.267H10.107C6.11,175.598,2.842,172.33,2.842,168.332z"/>
	<path fill="#FFFFFF" d="M39.181,115.651H10.109c-1.091,0-1.815,0.727-1.815,1.816v45.415c0,1.085,0.724,1.814,1.815,1.814h29.072
		c1.092,0,1.816-0.73,1.816-1.814v-45.415C40.998,116.378,40.273,115.651,39.181,115.651"/>
	
		<path fill="none" stroke="#414042" stroke-width="1.228" stroke-linecap="round" stroke-linejoin="round" stroke-miterlimit="10" d="
		M39.181,115.651H10.109c-1.091,0-1.815,0.727-1.815,1.816v45.415c0,1.085,0.724,1.814,1.815,1.814h29.072
		c1.092,0,1.816-0.73,1.816-1.814v-45.415C40.998,116.378,40.273,115.651,39.181,115.651z"/>
	<path fill="#FFFFFF" d="M24.644,167.425c1.507,0,2.725,1.222,2.725,2.725c0,1.502-1.218,2.725-2.725,2.725
		c-1.504,0-2.726-1.223-2.726-2.725C21.919,168.646,23.14,167.425,24.644,167.425"/>
	
		<path fill="none" stroke="#414042" stroke-width="1.228" stroke-linecap="round" stroke-linejoin="round" stroke-miterlimit="10" d="
		M24.644,167.425c1.507,0,2.725,1.222,2.725,2.725c0,1.502-1.218,2.725-2.725,2.725c-1.504,0-2.726-1.223-2.726-2.725
		C21.919,168.646,23.14,167.425,24.644,167.425z"/>
	<rect x="0.935" y="231.72" fill="#FFFFFF" width="47.795" height="53.915"/>
	
		<rect x="0.935" y="231.721" fill="none" stroke="#1D1D1B" stroke-width="1.228" stroke-linecap="round" stroke-linejoin="round" stroke-miterlimit="10" width="47.793" height="53.915"/>
	<path fill="#FFFFFF" d="M49.049,285.982H0.617v-54.61h48.432V285.982z M1.256,285.287h47.15v-53.22H1.256V285.287z"/>
	
		<path fill="none" stroke="#414042" stroke-width="1.228" stroke-linecap="round" stroke-linejoin="round" stroke-miterlimit="10" d="
		M49.049,285.982H0.614v-54.61h48.435V285.982z M1.256,285.285h47.15v-53.218H1.256V285.285z"/>
	<rect x="0.935" y="231.721" fill="#FFFFFF" width="47.795" height="11.151"/>
	
		<rect x="0.935" y="231.721" fill="none" stroke="#1D1D1B" stroke-width="1.228" stroke-linecap="round" stroke-linejoin="round" stroke-miterlimit="10" width="47.793" height="11.15"/>
	<path fill="#FFFFFF" d="M49.049,243.221H0.617v-11.85h48.432V243.221z M1.256,242.528h47.15v-10.461H1.256V242.528z"/>
	
		<path fill="none" stroke="#414042" stroke-width="1.228" stroke-linecap="round" stroke-linejoin="round" stroke-miterlimit="10" d="
		M49.049,243.221H0.614V231.37h48.435V243.221z M1.256,242.528h47.15v-10.461H1.256V242.528z"/>
	<rect x="8.131" y="257.156" fill="#FFFFFF" width="33.398" height="9.282"/>
	
		<rect x="8.131" y="257.154" fill="none" stroke="#414042" stroke-width="1.228" stroke-linecap="round" stroke-linejoin="round" stroke-miterlimit="10" width="33.398" height="9.284"/>
	<line fill="#FFFFFF" x1="8.134" y1="237.297" x2="29.2" y2="237.297"/>
	
		<line fill="none" stroke="#414042" stroke-width="1.228" stroke-linecap="round" stroke-linejoin="round" stroke-miterlimit="10" x1="8.134" y1="237.297" x2="29.2" y2="237.297"/>
	<line fill="#FFFFFF" x1="36.873" y1="237.297" x2="41.531" y2="237.297"/>
	
		<line fill="none" stroke="#414042" stroke-width="1.228" stroke-linecap="round" stroke-linejoin="round" stroke-miterlimit="10" x1="36.873" y1="237.297" x2="41.531" y2="237.297"/>
	<line fill="#FFFFFF" x1="8.134" y1="273.57" x2="41.222" y2="273.57"/>
	
		<line fill="none" stroke="#414042" stroke-width="1.228" stroke-linecap="round" stroke-linejoin="round" stroke-miterlimit="10" x1="8.134" y1="273.57" x2="41.222" y2="273.57"/>
	<rect x="218.875" y="254.511" fill="#FFFFFF" width="47.793" height="53.912"/>
	
		<rect x="218.873" y="254.509" fill="none" stroke="#1D1D1B" stroke-width="1.228" stroke-linecap="round" stroke-linejoin="round" stroke-miterlimit="10" width="47.795" height="53.914"/>
	<path fill="#FFFFFF" d="M266.986,308.77h-48.434v-54.612h48.434V308.77z M219.193,308.073h47.151v-53.216h-47.151V308.073z"/>
	
		<path fill="none" stroke="#414141" stroke-width="1.228" stroke-linecap="round" stroke-linejoin="round" stroke-miterlimit="10" d="
		M266.987,308.77h-48.433v-54.61h48.433V308.77z M219.193,308.073h47.151v-53.216h-47.151V308.073z"/>
	<rect x="218.875" y="254.512" fill="#FFFFFF" stroke="#414141" stroke-miterlimit="10" width="47.793" height="11.149"/>
	
		<rect x="218.873" y="254.509" fill="none" stroke="#1D1D1B" stroke-width="1.228" stroke-linecap="round" stroke-linejoin="round" stroke-miterlimit="10" width="47.795" height="11.151"/>
	<path fill="#FFFFFF" d="M266.986,266.009h-48.434v-11.851h48.434V266.009z M219.193,265.316h47.151v-10.461h-47.151V265.316z"/>
	
		<path fill="none" stroke="#414042" stroke-width="1.228" stroke-linecap="round" stroke-linejoin="round" stroke-miterlimit="10" d="
		M266.987,266.009h-48.433v-11.851h48.433V266.009z M219.193,265.316h47.151v-10.461h-47.151V265.316z"/>
	<line fill="#FFFFFF" x1="226.072" y1="260.085" x2="247.14" y2="260.085"/>
	
		<line fill="none" stroke="#414141" stroke-width="1.228" stroke-linecap="round" stroke-linejoin="round" stroke-miterlimit="10" x1="226.072" y1="260.085" x2="247.14" y2="260.085"/>
	<line fill="#FFFFFF" x1="254.81" y1="260.085" x2="259.469" y2="260.085"/>
	
		<line fill="none" stroke="#414141" stroke-width="1.228" stroke-linecap="round" stroke-linejoin="round" stroke-miterlimit="10" x1="254.81" y1="260.085" x2="259.469" y2="260.085"/>
	<line fill="#FFFFFF" x1="226.072" y1="299.789" x2="259.164" y2="299.789"/>
	
		<line fill="none" stroke="#414141" stroke-width="1.228" stroke-linecap="round" stroke-linejoin="round" stroke-miterlimit="10" x1="226.072" y1="299.789" x2="259.164" y2="299.789"/>
	<line fill="#FFFFFF" x1="226.072" y1="291.78" x2="259.164" y2="291.78"/>
	
		<line fill="none" stroke="#414141" stroke-width="1.228" stroke-linecap="round" stroke-linejoin="round" stroke-miterlimit="10" x1="226.072" y1="291.78" x2="259.164" y2="291.78"/>
	<line fill="#FFFFFF" x1="226.072" y1="283.771" x2="259.164" y2="283.771"/>
	
		<line fill="none" stroke="#414141" stroke-width="1.228" stroke-linecap="round" stroke-linejoin="round" stroke-miterlimit="10" x1="226.072" y1="283.771" x2="259.164" y2="283.771"/>
	<line fill="#FFFFFF" x1="226.072" y1="275.763" x2="259.164" y2="275.763"/>
	
		<line fill="none" stroke="#414141" stroke-width="1.228" stroke-linecap="round" stroke-linejoin="round" stroke-miterlimit="10" x1="226.072" y1="275.763" x2="259.164" y2="275.763"/>
	<rect x="377.651" y="231.72" fill="#FFFFFF" width="47.794" height="53.915"/>
	
		<rect x="377.651" y="231.721" fill="none" stroke="#1D1D1B" stroke-width="1.228" stroke-linecap="round" stroke-linejoin="round" stroke-miterlimit="10" width="47.794" height="53.915"/>
	<path fill="#FFFFFF" d="M425.762,285.982H377.33v-54.61h48.433V285.982z M377.969,285.287h47.153v-53.22h-47.153V285.287z"/>
	
		<path fill="none" stroke="#414042" stroke-width="1.228" stroke-linecap="round" stroke-linejoin="round" stroke-miterlimit="10" d="
		M425.762,285.982h-48.431v-54.61h48.431V285.982z M377.969,285.285h47.153v-53.218h-47.153V285.285z"/>
	<rect x="377.651" y="231.721" fill="#FFFFFF" width="47.794" height="11.151"/>
	
		<rect x="377.651" y="231.721" fill="none" stroke="#1D1D1B" stroke-width="1.228" stroke-linecap="round" stroke-linejoin="round" stroke-miterlimit="10" width="47.794" height="11.15"/>
	<path fill="#FFFFFF" d="M425.762,243.221H377.33v-11.85h48.433V243.221z M377.969,242.528h47.153v-10.461h-47.153V242.528z"/>
	
		<path fill="none" stroke="#414042" stroke-width="1.228" stroke-linecap="round" stroke-linejoin="round" stroke-miterlimit="10" d="
		M425.762,243.221h-48.431V231.37h48.431V243.221z M377.969,242.528h47.153v-10.461h-47.153V242.528z"/>
	<line fill="#FFFFFF" x1="384.847" y1="237.297" x2="405.918" y2="237.297"/>
	
		<line fill="none" stroke="#414042" stroke-width="1.228" stroke-linecap="round" stroke-linejoin="round" stroke-miterlimit="10" x1="384.847" y1="237.297" x2="405.918" y2="237.297"/>
	<line fill="#FFFFFF" x1="384.847" y1="270.494" x2="405.918" y2="270.494"/>
	
		<line fill="none" stroke="#414042" stroke-width="1.228" stroke-linecap="round" stroke-linejoin="round" stroke-miterlimit="10" x1="384.847" y1="270.494" x2="405.918" y2="270.494"/>
	<line fill="#FFFFFF" x1="384.847" y1="277.07" x2="418.218" y2="277.07"/>
	
		<line fill="none" stroke="#414042" stroke-width="1.228" stroke-linecap="round" stroke-linejoin="round" stroke-miterlimit="10" x1="384.847" y1="277.07" x2="418.218" y2="277.07"/>
	<line fill="#FFFFFF" x1="413.588" y1="237.297" x2="418.245" y2="237.297"/>
	
		<line fill="none" stroke="#414042" stroke-width="1.228" stroke-linecap="round" stroke-linejoin="round" stroke-miterlimit="10" x1="413.588" y1="237.297" x2="418.245" y2="237.297"/>
	<rect x="384.509" y="249.329" fill="#FFFFFF" width="14.068" height="14.068"/>
	
		<rect x="384.509" y="249.329" fill="none" stroke="#414042" stroke-width="1.228" stroke-linecap="round" stroke-linejoin="round" stroke-miterlimit="10" width="14.068" height="14.068"/>
	<rect x="404.6" y="249.329" fill="#FFFFFF" width="14.067" height="14.068"/>
	
		<rect x="404.6" y="249.329" fill="none" stroke="#414042" stroke-width="1.228" stroke-linecap="round" stroke-linejoin="round" stroke-miterlimit="10" width="14.067" height="14.068"/>
	<polyline fill="#FFFFFF" points="223.689,13.948 223.689,14.895 223.689,16.715 223.689,48.546 223.689,49.455 223.689,50.401 
		222.743,50.401 220.797,50.401 178.924,50.401 177.951,50.401 177.003,50.401 177.003,49.455 177.003,47.634 177.003,15.806 
		177.003,14.895 177.003,13.948 	"/>
	<polyline fill="none" stroke="#414042" stroke-width="1.228" stroke-miterlimit="10" points="223.689,13.948 223.689,14.895 
		223.689,16.715 223.689,48.546 223.689,49.455 223.689,50.401 222.743,50.401 220.797,50.401 178.924,50.401 177.951,50.401 
		177.003,50.401 177.003,49.455 177.003,47.634 177.003,15.806 177.003,14.895 177.003,13.948 	"/>
	<rect x="177.003" y="8.499" fill="#FFFFFF" width="46.688" height="6.466"/>
	
		<rect x="177.003" y="8.497" fill="none" stroke="#414042" stroke-width="1.228" stroke-miterlimit="10" width="46.688" height="6.466"/>
	
		<line fill="none" stroke="#3F3F3E" stroke-width="1.228" stroke-miterlimit="10" x1="179.136" y1="11.182" x2="182.331" y2="11.182"/>
	
		<line fill="none" stroke="#3F3F3E" stroke-width="1.228" stroke-miterlimit="10" x1="184.668" y1="11.182" x2="187.865" y2="11.182"/>
	
		<line fill="none" stroke="#3F3F3E" stroke-width="1.228" stroke-miterlimit="10" x1="190.199" y1="11.182" x2="193.396" y2="11.182"/>
	<path fill="#FFFFFF" d="M229.653,46.571c0,0.457-0.034,0.914-0.096,1.368l-0.003,0.033v0.005l-0.004,0.041l-0.006,0.017
		l-0.001,0.021l-0.009,0.037v0.003c-0.046,0.321-0.111,0.64-0.191,0.956c-0.063,0.255-0.138,0.506-0.221,0.756
		c0.23-0.193,0.461-0.395,0.682-0.617l6.438-6.429l0.022-0.026c0.868-0.865,1.521-1.866,1.962-2.931
		c0.459-1.111,0.688-2.297,0.688-3.481h-0.001c0-1.187-0.23-2.369-0.688-3.478c-0.441-1.067-1.092-2.064-1.959-2.933
		c-0.869-0.868-1.868-1.519-2.932-1.959c-1.111-0.458-2.299-0.69-3.481-0.69v0.003c-1.181,0-2.364,0.229-3.472,0.69
		c-1.055,0.437-2.045,1.083-2.908,1.935l-0.027,0.026l-6.452,6.454c-0.866,0.87-1.522,1.87-1.964,2.937
		c-0.456,1.106-0.686,2.288-0.686,3.469c0,0.462,0.035,0.927,0.102,1.388c0.07,0.458,0.174,0.91,0.313,1.351l0.008,0.022
		c0.077,0.244,0.164,0.482,0.262,0.72c0.443,1.066,1.098,2.064,1.963,2.932c0.524,0.528,1.098,0.975,1.708,1.34
		c0.544,0.331,1.115,0.598,1.703,0.804l1.962-1.968l0.027-0.025c0.309-0.313,0.559-0.663,0.741-1.035
		c0.101-0.207,0.185-0.424,0.245-0.641c-0.629-0.004-1.264-0.129-1.854-0.373c-0.575-0.237-1.113-0.587-1.581-1.053v-0.001
		c-0.468-0.464-0.818-1.005-1.057-1.579c-0.245-0.603-0.37-1.24-0.37-1.88c0-0.62,0.119-1.249,0.352-1.837l0.018-0.041
		c0.234-0.579,0.583-1.119,1.049-1.579l6.463-6.466c0.461-0.46,1-0.811,1.578-1.045l0.002,0.002
		c0.598-0.244,1.236-0.368,1.877-0.368c0.642,0,1.281,0.124,1.879,0.371c0.564,0.231,1.095,0.576,1.553,1.026l0.033,0.026
		c0.461,0.464,0.811,1.008,1.052,1.585c0.245,0.599,0.368,1.235,0.368,1.875h0.002c0,0.637-0.125,1.276-0.37,1.881
		c-0.241,0.579-0.591,1.115-1.055,1.581l-4.042,4.044c0.115,0.4,0.203,0.805,0.264,1.211
		C229.613,45.545,229.653,46.06,229.653,46.571"/>
	<path fill="none" stroke="#414042" stroke-width="1.228" stroke-miterlimit="10" d="M229.653,46.571
		c0,0.457-0.034,0.914-0.096,1.368l-0.003,0.033v0.005l-0.004,0.041l-0.006,0.017l-0.001,0.021l-0.009,0.037v0.003
		c-0.046,0.321-0.111,0.64-0.191,0.956c-0.063,0.255-0.138,0.506-0.221,0.756c0.23-0.193,0.461-0.395,0.682-0.617l6.438-6.429
		l0.022-0.026c0.868-0.865,1.521-1.866,1.962-2.931c0.459-1.111,0.688-2.297,0.688-3.481h-0.001c0-1.187-0.23-2.369-0.688-3.478
		c-0.441-1.067-1.092-2.064-1.959-2.933c-0.869-0.868-1.868-1.519-2.932-1.959c-1.111-0.458-2.299-0.69-3.481-0.69v0.003
		c-1.181,0-2.364,0.229-3.472,0.69c-1.055,0.437-2.045,1.083-2.908,1.935l-0.027,0.026l-6.452,6.454
		c-0.866,0.87-1.522,1.87-1.964,2.937c-0.456,1.106-0.686,2.288-0.686,3.469c0,0.462,0.035,0.927,0.102,1.388
		c0.07,0.458,0.174,0.91,0.313,1.351l0.008,0.022c0.077,0.244,0.164,0.482,0.262,0.72c0.443,1.066,1.098,2.064,1.963,2.932
		c0.524,0.528,1.098,0.975,1.708,1.34c0.544,0.331,1.115,0.598,1.703,0.804l1.962-1.968l0.027-0.025
		c0.309-0.313,0.559-0.663,0.741-1.035c0.101-0.207,0.185-0.424,0.245-0.641c-0.629-0.004-1.264-0.129-1.854-0.373
		c-0.575-0.237-1.113-0.587-1.581-1.053v-0.001c-0.468-0.464-0.818-1.005-1.057-1.579c-0.245-0.603-0.37-1.24-0.37-1.88
		c0-0.62,0.119-1.249,0.352-1.837l0.018-0.041c0.234-0.579,0.583-1.119,1.049-1.579l6.463-6.466c0.461-0.46,1-0.811,1.578-1.045
		l0.002,0.002c0.598-0.244,1.236-0.368,1.877-0.368c0.642,0,1.281,0.124,1.879,0.371c0.564,0.231,1.095,0.576,1.553,1.026
		l0.033,0.026c0.461,0.464,0.811,1.008,1.052,1.585c0.245,0.599,0.368,1.235,0.368,1.875h0.002c0,0.637-0.125,1.276-0.37,1.881
		c-0.241,0.579-0.591,1.115-1.055,1.581l-4.042,4.044c0.115,0.4,0.203,0.805,0.264,1.211
		C229.613,45.545,229.653,46.06,229.653,46.571z"/>
	<path fill="#FFFFFF" d="M213.367,42.78c0-0.456,0.031-0.912,0.093-1.367l0.007-0.037v-0.003l0.004-0.039l0.002-0.018l0.001-0.021
		l0.007-0.038l0.006-0.04l0.004-0.022l0.002-0.015c0.048-0.297,0.108-0.59,0.18-0.879c0.068-0.255,0.14-0.508,0.227-0.758
		c-0.232,0.191-0.463,0.398-0.683,0.618l-6.435,6.428l-0.027,0.024c-0.867,0.868-1.521,1.867-1.959,2.934
		c-0.459,1.109-0.692,2.297-0.692,3.479h0.006c0,1.188,0.228,2.369,0.685,3.479c0.441,1.064,1.094,2.066,1.963,2.934
		c0.868,0.866,1.865,1.521,2.93,1.957c1.11,0.461,2.297,0.691,3.48,0.691v-0.003c1.182,0,2.363-0.231,3.472-0.688
		c1.054-0.436,2.049-1.084,2.911-1.938l0.023-0.024l6.452-6.456h0.002c0.868-0.867,1.523-1.869,1.964-2.934
		c0.46-1.107,0.688-2.291,0.688-3.471c0-0.465-0.035-0.927-0.105-1.387c-0.07-0.46-0.174-0.909-0.311-1.352l-0.008-0.021
		c-0.078-0.244-0.164-0.486-0.262-0.721c-0.441-1.065-1.096-2.065-1.963-2.931c-0.525-0.527-1.098-0.976-1.704-1.343
		c-0.549-0.329-1.117-0.597-1.704-0.8l-1.965,1.965l-0.025,0.026c-0.313,0.312-0.56,0.665-0.742,1.036
		c-0.101,0.207-0.186,0.424-0.246,0.641c0.629,0.005,1.261,0.126,1.854,0.37c0.576,0.241,1.117,0.588,1.582,1.055v0.002
		c0.467,0.465,0.818,1.004,1.055,1.582c0.246,0.6,0.371,1.239,0.371,1.877c0,0.622-0.118,1.249-0.354,1.838l-0.012,0.041
		c-0.236,0.58-0.585,1.116-1.049,1.577l-6.465,6.466c-0.46,0.463-1.001,0.813-1.58,1.047v-0.001
		c-0.598,0.243-1.24,0.366-1.879,0.368c-0.64-0.002-1.279-0.125-1.879-0.371c-0.563-0.23-1.094-0.574-1.554-1.026l-0.028-0.028
		c-0.463-0.463-0.816-1.002-1.055-1.582c-0.242-0.598-0.367-1.235-0.367-1.877h-0.002c0-0.635,0.125-1.275,0.375-1.877
		c0.234-0.58,0.586-1.118,1.052-1.58l4.036-4.045c-0.111-0.4-0.201-0.805-0.262-1.211C213.405,43.804,213.367,43.292,213.367,42.78"
		/>
	<path fill="none" stroke="#3F3F3E" stroke-width="1.228" stroke-miterlimit="10" d="M213.367,42.78
		c0-0.456,0.031-0.912,0.093-1.367l0.007-0.037v-0.003l0.004-0.039l0.002-0.018l0.001-0.021l0.007-0.038l0.006-0.04l0.004-0.022
		l0.002-0.015c0.048-0.297,0.108-0.59,0.18-0.879c0.068-0.255,0.14-0.508,0.227-0.758c-0.232,0.191-0.463,0.398-0.683,0.618
		l-6.435,6.428l-0.027,0.024c-0.867,0.868-1.521,1.867-1.959,2.934c-0.459,1.109-0.692,2.297-0.692,3.479h0.006
		c0,1.188,0.228,2.369,0.685,3.479c0.441,1.064,1.094,2.066,1.963,2.934c0.868,0.866,1.865,1.521,2.93,1.957
		c1.11,0.461,2.297,0.691,3.48,0.691v-0.003c1.182,0,2.363-0.231,3.472-0.688c1.054-0.436,2.049-1.084,2.911-1.938l0.023-0.024
		l6.452-6.456h0.002c0.868-0.867,1.523-1.869,1.964-2.934c0.46-1.107,0.688-2.291,0.688-3.471c0-0.465-0.035-0.927-0.105-1.387
		c-0.07-0.46-0.174-0.909-0.311-1.352l-0.008-0.021c-0.078-0.244-0.164-0.486-0.262-0.721c-0.441-1.065-1.096-2.065-1.963-2.931
		c-0.525-0.527-1.098-0.976-1.704-1.343c-0.549-0.329-1.117-0.597-1.704-0.8l-1.965,1.965l-0.025,0.026
		c-0.313,0.312-0.56,0.665-0.742,1.036c-0.101,0.207-0.186,0.424-0.246,0.641c0.629,0.005,1.261,0.126,1.854,0.37
		c0.576,0.241,1.117,0.588,1.582,1.055v0.002c0.467,0.465,0.818,1.004,1.055,1.582c0.246,0.6,0.371,1.239,0.371,1.877
		c0,0.622-0.118,1.249-0.354,1.838l-0.012,0.041c-0.236,0.58-0.585,1.116-1.049,1.577l-6.465,6.466
		c-0.46,0.463-1.001,0.813-1.58,1.047v-0.001c-0.598,0.243-1.24,0.366-1.879,0.368c-0.64-0.002-1.279-0.125-1.879-0.371
		c-0.563-0.23-1.094-0.574-1.554-1.026l-0.028-0.028c-0.463-0.463-0.816-1.002-1.055-1.582c-0.242-0.598-0.367-1.235-0.367-1.877
		h-0.002c0-0.635,0.125-1.275,0.375-1.877c0.234-0.58,0.586-1.118,1.052-1.58l4.036-4.045c-0.111-0.4-0.201-0.805-0.262-1.211
		C213.405,43.804,213.367,43.292,213.367,42.78z"/>
	<rect x="182.331" y="21.739" fill="#FFFFFF" width="34.06" height="14.104"/>
	
		<rect x="182.331" y="21.74" fill="none" stroke="#414042" stroke-width="1.228" stroke-miterlimit="10" width="34.06" height="14.102"/>
	
		<line fill="none" stroke="#414042" stroke-width="1.228" stroke-miterlimit="10" x1="182.331" y1="41.791" x2="204.103" y2="41.791"/>
	<polyline fill="none" stroke="#414042" stroke-width="1.228" stroke-linejoin="round" stroke-miterlimit="10" points="
		106.269,31.39 106.744,23.916 99.34,24.462 	"/>
	
		<line fill="none" stroke="#414042" stroke-width="1.228" stroke-linejoin="round" stroke-miterlimit="10" x1="106.742" y1="24.286" x2="97.949" y2="33.493"/>
	<polyline fill="none" stroke="#414042" stroke-width="1.228" stroke-linejoin="round" stroke-miterlimit="10" points="
		55.591,70.219 55.117,77.696 62.519,77.148 	"/>
	
		<line fill="none" stroke="#414042" stroke-width="1.228" stroke-linejoin="round" stroke-miterlimit="10" x1="55.119" y1="77.325" x2="63.914" y2="68.12"/>
	<rect x="55.594" y="23.612" fill="#FFFFFF" width="29.335" height="30.365"/>
	
		<rect x="55.596" y="23.613" fill="none" stroke="#414042" stroke-width="1.228" stroke-miterlimit="10" width="29.333" height="30.363"/>
	<rect x="66.344" y="35.621" fill="#FFFFFF" width="29.335" height="30.364"/>
	
		<rect x="66.344" y="35.621" fill="none" stroke="#414042" stroke-width="1.228" stroke-miterlimit="10" width="29.335" height="30.364"/>
	<rect x="77.091" y="47.629" fill="#FFFFFF" width="29.334" height="30.363"/>
	
		<rect x="77.091" y="47.629" fill="none" stroke="#414042" stroke-width="1.228" stroke-miterlimit="10" width="29.334" height="30.363"/>
	<path fill="#FFFFFF" d="M421.644,142.947c0.94,2.447,1.463,5.098,1.463,7.872c0,12.168-9.898,22.066-22.064,22.066
		c-12.168,0-22.068-9.898-22.068-22.066c0-11.988,9.605-21.766,21.523-22.053v-7.791c-16.209,0.293-29.311,13.561-29.311,29.844
		c0,16.462,13.391,29.855,29.855,29.855c16.461,0,29.855-13.394,29.855-29.855c0-3.68-0.679-7.204-1.903-10.457
		C426.603,141.365,424.133,142.178,421.644,142.947"/>
	<path fill="none" stroke="#0E3C54" stroke-width="1.228" stroke-miterlimit="10" d="M421.644,142.947
		c0.94,2.447,1.463,5.098,1.463,7.872c0,12.168-9.898,22.066-22.064,22.066c-12.168,0-22.068-9.898-22.068-22.066
		c0-11.988,9.605-21.766,21.523-22.053v-7.791c-16.209,0.293-29.311,13.561-29.311,29.844c0,16.462,13.391,29.855,29.855,29.855
		c16.461,0,29.855-13.394,29.855-29.855c0-3.68-0.679-7.204-1.903-10.457C426.603,141.365,424.133,142.178,421.644,142.947z"/>
	<path fill="#FFFFFF" d="M421.644,142.947c0.94,2.447,1.463,5.098,1.463,7.872c0,12.168-9.898,22.066-22.064,22.066
		c-12.168,0-22.068-9.898-22.068-22.066c0-11.988,9.605-21.766,21.523-22.053v-7.791c-16.209,0.293-29.311,13.561-29.311,29.844
		c0,16.462,13.391,29.855,29.855,29.855c16.461,0,29.855-13.394,29.855-29.855c0-3.68-0.679-7.204-1.903-10.457
		C426.603,141.365,424.133,142.178,421.644,142.947"/>
	<path fill="none" stroke="#414042" stroke-width="1.228" stroke-miterlimit="10" d="M421.644,142.947
		c0.94,2.447,1.463,5.098,1.463,7.872c0,12.168-9.898,22.066-22.064,22.066c-12.168,0-22.068-9.898-22.068-22.066
		c0-11.988,9.605-21.766,21.523-22.053v-7.791c-16.209,0.293-29.311,13.561-29.311,29.844c0,16.462,13.391,29.855,29.855,29.855
		c16.461,0,29.855-13.394,29.855-29.855c0-3.68-0.679-7.204-1.903-10.457C426.603,141.365,424.133,142.178,421.644,142.947z"/>
	<path fill="#FFFFFF" d="M401.041,128.762c12.186,0,22.063,9.878,22.063,22.062c0,12.185-9.877,22.061-22.063,22.061
		c-12.184,0-22.061-9.877-22.061-22.061C378.98,138.64,388.857,128.762,401.041,128.762"/>
	<circle fill="none" stroke="#3F3F3E" stroke-width="1.228" stroke-miterlimit="10" cx="401.041" cy="150.824" r="22.062"/>
	<path fill="#FFFFFF" d="M401.041,137.847c3.504,0,6.34,2.837,6.34,6.341c0,3.502-2.836,6.34-6.34,6.34
		c-3.502,0-6.34-2.838-6.34-6.34C394.701,140.684,397.539,137.847,401.041,137.847"/>
	<circle fill="none" stroke="#414042" stroke-width="1.228" stroke-miterlimit="10" cx="401.041" cy="144.188" r="6.34"/>
	<path fill="#FFFFFF" d="M412.138,156.967c0,0-3.015-6.338-11.098-6.338c-8.083,0-11.096,6.338-11.096,6.338v3.171h22.191v-3.171
		H412.138z"/>
	<path fill="none" stroke="#414042" stroke-width="1.228" stroke-miterlimit="10" d="M412.138,156.967c0,0-3.015-6.338-11.098-6.338
		c-8.083,0-11.096,6.338-11.096,6.338v3.171h22.191v-3.171H412.138z"/>
</g>
<g>
	<path fill-rule="evenodd" clip-rule="evenodd" fill="#EBEBEB" d="M111.753,89.216h203.04c6.813,0,12.38,5.568,12.38,12.37v136.869
		H99.371V101.586C99.371,94.784,104.938,89.216,111.753,89.216"/>
	<path fill-rule="evenodd" clip-rule="evenodd" fill="#414042" d="M111.753,93.038h203.04c4.708,0,8.561,3.858,8.561,8.547v133.052
		H103.193V101.585C103.193,96.896,107.039,93.038,111.753,93.038"/>
	<rect x="111.01" y="100.278" fill-rule="evenodd" clip-rule="evenodd" fill="#FFFFFF" width="204.517" height="126.724"/>
	<path fill-rule="evenodd" clip-rule="evenodd" fill="#FFFFFF" d="M83.492,231.017h259.547c2.477,0,4.496,2.286,4.496,4.974v5.701
		c0,2.672-2.084,4.983-4.496,4.983H83.492c-2.41,0-4.502-2.258-4.502-4.983v-5.701C78.99,233.269,81.032,231.017,83.492,231.017"/>
	<path fill="none" stroke="#3F3F3E" stroke-width="1.228" stroke-miterlimit="10" d="M83.492,231.017h259.547
		c2.477,0,4.496,2.286,4.496,4.974v5.701c0,2.672-2.084,4.983-4.496,4.983H83.492c-2.41,0-4.502-2.258-4.502-4.983v-5.701
		C78.99,233.269,81.032,231.017,83.492,231.017z"/>
	<path fill-rule="evenodd" clip-rule="evenodd" fill="#FFFFFF" d="M192.025,231.692h42.477c0.405,0,0.735,0.858,0.735,1.87v2.142
		c0,1.003-0.342,1.874-0.735,1.874h-42.477c-0.396,0-0.737-0.85-0.737-1.874v-2.142
		C191.288,232.543,191.622,231.692,192.025,231.692"/>
	<path fill="none" stroke="#3F3F3E" stroke-width="1.228" stroke-miterlimit="10" d="M192.025,231.692h42.477
		c0.405,0,0.735,0.858,0.735,1.87v2.142c0,1.003-0.342,1.874-0.735,1.874h-42.477c-0.396,0-0.737-0.85-0.737-1.874v-2.142
		C191.288,232.543,191.622,231.692,192.025,231.692z"/>
</g>
</svg>