<!-- Generator: Adobe Illustrator 17.0.0, SVG Export Plug-In  -->
<svg version="1.1"
	 xmlns="http://www.w3.org/2000/svg" xmlns:xlink="http://www.w3.org/1999/xlink" xmlns:a="http://ns.adobe.com/AdobeSVGViewerExtensions/3.0/"
	 x="0px" y="0px" width="193.736px" height="53.119px" viewBox="0 0 193.736 53.119" enable-background="new 0 0 193.736 53.119"
	 xml:space="preserve">
<defs>
</defs>
<g>
	<g>
		<rect x="0" y="6.327" fill="#BCC0BD" width="193.736" height="44.684"/>
		<linearGradient id="SVGID_1_" gradientUnits="userSpaceOnUse" x1="0" y1="26.5596" x2="193.7363" y2="26.5596">
			<stop  offset="0" style="stop-color:#F4F5F5"/>
			<stop  offset="1" style="stop-color:#E7E7E7"/>
		</linearGradient>
		<rect x="0" y="4.218" fill="url(#SVGID_1_)" width="193.736" height="44.684"/>
		<rect id="XMLID_8_" x="147.85" y="0" fill="#DB5940" width="32.766" height="53.119"/>
		<polygon id="XMLID_7_" fill="#333332" points="142.825,4.218 147.85,0 147.85,4.218 		"/>
		<polygon id="XMLID_6_" fill="#333332" points="142.825,50.93 147.85,53.119 147.85,50.93 		"/>
		<rect id="XMLID_5_" x="146.229" y="4.3" fill="#F4F5F5" width="1.542" height="46.63"/>
		<polygon id="XMLID_4_" fill="none" points="170.643,20.679 157.665,20.679 164.156,26.599 		"/>
		<g id="XMLID_1_">
			<path id="XMLID_3_" fill="#FFFFFF" d="M177.373,36.981l-5.189-5.191c-0.328-0.324-0.813-0.485-1.3-0.485l-1.701-1.704
				c2.917-3.892,2.673-9.406-0.894-12.976c-3.893-3.891-10.139-3.891-14.028,0c-3.893,3.893-3.893,10.138,0,14.031
				c3.564,3.57,9.083,3.811,12.975,0.892l1.703,1.702c0,0.491,0.163,0.896,0.485,1.3l5.191,5.19c0.649,0.649,1.705,0.649,2.352,0
				l0.406-0.404C178.021,38.604,178.021,37.629,177.373,36.981L177.373,36.981z M166.102,28.465c-2.678,2.676-7.058,2.676-9.733,0
				c-2.676-2.676-2.676-7.056,0-9.731c2.676-2.676,7.056-2.676,9.733,0C168.857,21.409,168.774,25.789,166.102,28.465
				L166.102,28.465z"/>
			<path id="XMLID_2_" fill="#FFFFFF" d="M163.99,22.545h-1.621v-1.62c0-0.568-0.486-1.056-1.056-1.056l0,0
				c-0.568,0-1.052,0.487-1.052,1.056v1.62h-1.625c-0.565,0-1.053,0.486-1.053,1.054l0,0c0,0.568,0.487,1.056,1.053,1.056h1.625
				v1.622c0,0.568,0.483,1.052,1.052,1.052l0,0c0.569,0,1.056-0.483,1.056-1.052v-1.622h1.621c0.568,0,1.055-0.487,1.055-1.056l0,0
				C165.045,23.031,164.559,22.545,163.99,22.545L163.99,22.545z"/>
		</g>
		<g>
			<g>
				<path fill="#414042" d="M36.11,25.251v-6.222h1.88l1.129,4.244l1.116-4.244h1.885v6.222h-1.167v-4.897l-1.235,4.897h-1.209
					l-1.231-4.897v4.897H36.11z"/>
				<path fill="#414042" d="M43.113,22.179c0-0.635,0.095-1.166,0.284-1.596c0.142-0.317,0.335-0.602,0.579-0.854
					c0.245-0.252,0.513-0.438,0.805-0.561c0.388-0.164,0.834-0.246,1.341-0.246c0.917,0,1.65,0.285,2.2,0.854
					c0.551,0.568,0.826,1.359,0.826,2.372c0,1.005-0.273,1.79-0.819,2.358c-0.546,0.566-1.276,0.851-2.19,0.851
					c-0.925,0-1.66-0.282-2.206-0.847C43.386,23.946,43.113,23.169,43.113,22.179z M44.407,22.136c0,0.705,0.163,1.238,0.488,1.602
					c0.325,0.364,0.738,0.546,1.239,0.546s0.912-0.181,1.232-0.541c0.321-0.36,0.482-0.901,0.482-1.623
					c0-0.714-0.156-1.245-0.469-1.597c-0.313-0.35-0.729-0.525-1.246-0.525s-0.936,0.178-1.252,0.533
					C44.565,20.885,44.407,21.42,44.407,22.136z"/>
				<path fill="#414042" d="M50.124,19.029h2.296c0.518,0,0.913,0.04,1.185,0.118c0.365,0.108,0.678,0.299,0.938,0.574
					c0.261,0.273,0.459,0.609,0.595,1.008c0.136,0.396,0.203,0.887,0.203,1.471c0,0.512-0.063,0.953-0.19,1.323
					c-0.156,0.453-0.378,0.819-0.667,1.1c-0.218,0.212-0.512,0.378-0.883,0.497c-0.277,0.087-0.647,0.131-1.111,0.131h-2.364V19.029
					z M51.381,20.082v4.12h0.938c0.351,0,0.604-0.02,0.76-0.059c0.203-0.051,0.373-0.138,0.507-0.26
					c0.135-0.121,0.244-0.321,0.329-0.6c0.085-0.279,0.127-0.658,0.127-1.14s-0.042-0.851-0.127-1.108
					c-0.085-0.257-0.204-0.458-0.356-0.602c-0.152-0.145-0.347-0.242-0.581-0.293c-0.176-0.04-0.52-0.06-1.031-0.06H51.381z"/>
				<path fill="#414042" d="M56.405,25.251v-6.222h4.612v1.053h-3.356v1.379h3.123v1.048h-3.123v1.693h3.476v1.049H56.405z"/>
				<path fill="#414042" d="M62.235,25.251V19.08h1.257v5.122h3.123v1.049H62.235z"/>
				<path fill="#414042" d="M67.257,22.179c0-0.635,0.095-1.166,0.284-1.596c0.142-0.317,0.335-0.602,0.579-0.854
					c0.245-0.252,0.513-0.438,0.805-0.561c0.388-0.164,0.834-0.246,1.341-0.246c0.917,0,1.65,0.285,2.2,0.854
					c0.551,0.568,0.826,1.359,0.826,2.372c0,1.005-0.273,1.79-0.819,2.358c-0.546,0.566-1.276,0.851-2.19,0.851
					c-0.925,0-1.66-0.282-2.206-0.847C67.529,23.946,67.257,23.169,67.257,22.179z M68.551,22.136c0,0.705,0.163,1.238,0.488,1.602
					c0.325,0.364,0.738,0.546,1.239,0.546s0.912-0.181,1.232-0.541c0.321-0.36,0.482-0.901,0.482-1.623
					c0-0.714-0.156-1.245-0.469-1.597c-0.313-0.35-0.729-0.525-1.246-0.525s-0.936,0.178-1.252,0.533
					C68.709,20.885,68.551,21.42,68.551,22.136z"/>
				<path fill="#414042" d="M76.683,19.029h2.296c0.518,0,0.913,0.04,1.185,0.118c0.365,0.108,0.678,0.299,0.938,0.574
					c0.261,0.273,0.459,0.609,0.595,1.008c0.136,0.396,0.203,0.887,0.203,1.471c0,0.512-0.063,0.953-0.19,1.323
					c-0.156,0.453-0.378,0.819-0.667,1.1c-0.218,0.212-0.512,0.378-0.883,0.497c-0.277,0.087-0.647,0.131-1.111,0.131h-2.364V19.029
					z M77.939,20.082v4.12h0.938c0.351,0,0.604-0.02,0.76-0.059c0.203-0.051,0.373-0.138,0.507-0.26
					c0.135-0.121,0.244-0.321,0.329-0.6c0.085-0.279,0.127-0.658,0.127-1.14s-0.042-0.851-0.127-1.108
					c-0.085-0.257-0.204-0.458-0.356-0.602c-0.152-0.145-0.347-0.242-0.581-0.293c-0.176-0.04-0.52-0.06-1.031-0.06H77.939z"/>
				<path fill="#414042" d="M82.964,25.251v-6.222h4.612v1.053H84.22v1.379h3.123v1.048H84.22v1.693h3.476v1.049H82.964z"/>
				<path fill="#414042" d="M95.156,22.964l1.218,0.386c-0.187,0.679-0.497,1.184-0.932,1.513c-0.434,0.33-0.985,0.495-1.652,0.495
					c-0.826,0-1.506-0.282-2.037-0.847c-0.532-0.564-0.798-1.336-0.798-2.315c0-1.036,0.267-1.84,0.802-2.413
					c0.534-0.572,1.237-0.859,2.109-0.859c0.761,0,1.379,0.225,1.854,0.676c0.283,0.266,0.495,0.647,0.637,1.145l-1.244,0.298
					c-0.073-0.323-0.227-0.577-0.46-0.765c-0.233-0.186-0.518-0.279-0.851-0.279c-0.462,0-0.836,0.166-1.123,0.496
					c-0.287,0.332-0.431,0.867-0.431,1.609c0,0.786,0.142,1.346,0.425,1.68c0.282,0.334,0.65,0.501,1.104,0.501
					c0.333,0,0.62-0.106,0.861-0.318C94.879,23.753,95.052,23.419,95.156,22.964z"/>
				<path fill="#414042" d="M103.063,25.251h-1.367l-0.543-1.413h-2.487l-0.513,1.413h-1.333l2.423-6.222h1.329L103.063,25.251z
					 M100.749,22.79l-0.857-2.309l-0.84,2.309H100.749z"/>
				<path fill="#414042" d="M103.729,25.251v-6.222h2.016c0.764,0,1.262,0.031,1.494,0.093c0.356,0.094,0.654,0.297,0.896,0.609
					c0.24,0.313,0.36,0.717,0.36,1.212c0,0.382-0.069,0.703-0.208,0.964c-0.139,0.26-0.314,0.465-0.528,0.613
					s-0.431,0.246-0.651,0.295c-0.3,0.059-0.734,0.089-1.303,0.089h-0.819v2.347H103.729z M104.984,20.082v1.765h0.688
					c0.495,0,0.826-0.031,0.993-0.098c0.167-0.064,0.298-0.166,0.393-0.305s0.142-0.301,0.142-0.484
					c0-0.227-0.066-0.412-0.199-0.561c-0.133-0.146-0.301-0.238-0.505-0.275c-0.15-0.027-0.451-0.042-0.904-0.042H104.984z"/>
				<path fill="#414042" d="M115.136,25.251h-1.367l-0.543-1.413h-2.487l-0.513,1.413h-1.333l2.423-6.222h1.329L115.136,25.251z
					 M112.822,22.79l-0.857-2.309l-0.84,2.309H112.822z"/>
				<path fill="#414042" d="M119.782,22.964L121,23.35c-0.187,0.679-0.497,1.184-0.932,1.513c-0.434,0.33-0.985,0.495-1.652,0.495
					c-0.826,0-1.506-0.282-2.037-0.847c-0.532-0.564-0.798-1.336-0.798-2.315c0-1.036,0.267-1.84,0.802-2.413
					c0.534-0.572,1.237-0.859,2.109-0.859c0.761,0,1.379,0.225,1.854,0.676c0.283,0.266,0.495,0.647,0.637,1.145l-1.244,0.298
					c-0.073-0.323-0.227-0.577-0.46-0.765c-0.233-0.186-0.518-0.279-0.851-0.279c-0.462,0-0.836,0.166-1.123,0.496
					c-0.287,0.332-0.431,0.867-0.431,1.609c0,0.786,0.142,1.346,0.425,1.68c0.282,0.334,0.65,0.501,1.104,0.501
					c0.333,0,0.62-0.106,0.861-0.318C119.505,23.753,119.678,23.419,119.782,22.964z"/>
				<path fill="#414042" d="M122.039,25.251v-6.222h1.257v6.222H122.039z"/>
				<path fill="#414042" d="M124.488,19.029h2.296c0.518,0,0.913,0.04,1.185,0.118c0.365,0.108,0.678,0.299,0.938,0.574
					c0.261,0.273,0.459,0.609,0.595,1.008c0.136,0.396,0.203,0.887,0.203,1.471c0,0.512-0.063,0.953-0.19,1.323
					c-0.156,0.453-0.378,0.819-0.667,1.1c-0.218,0.212-0.512,0.378-0.883,0.497c-0.277,0.087-0.647,0.131-1.111,0.131h-2.364V19.029
					z M125.745,20.082v4.12h0.938c0.351,0,0.604-0.02,0.76-0.059c0.203-0.051,0.373-0.138,0.507-0.26
					c0.135-0.121,0.244-0.321,0.329-0.6c0.085-0.279,0.127-0.658,0.127-1.14s-0.042-0.851-0.127-1.108
					c-0.085-0.257-0.204-0.458-0.356-0.602c-0.152-0.145-0.347-0.242-0.581-0.293c-0.176-0.04-0.52-0.06-1.031-0.06H125.745z"/>
				<path fill="#414042" d="M136.38,25.251h-1.367l-0.543-1.413h-2.487l-0.513,1.413h-1.333l2.423-6.222h1.329L136.38,25.251z
					 M134.066,22.79l-0.857-2.309l-0.84,2.309H134.066z"/>
				<path fill="#414042" d="M137.041,19.029h2.296c0.518,0,0.913,0.04,1.185,0.118c0.365,0.108,0.678,0.299,0.938,0.574
					c0.261,0.273,0.459,0.609,0.595,1.008c0.136,0.396,0.203,0.887,0.203,1.471c0,0.512-0.063,0.953-0.19,1.323
					c-0.156,0.453-0.378,0.819-0.667,1.1c-0.218,0.212-0.512,0.378-0.883,0.497c-0.277,0.087-0.647,0.131-1.111,0.131h-2.364V19.029
					z M138.298,20.082v4.12h0.938c0.351,0,0.604-0.02,0.76-0.059c0.203-0.051,0.373-0.138,0.507-0.26
					c0.135-0.121,0.244-0.321,0.329-0.6c0.085-0.279,0.127-0.658,0.127-1.14s-0.042-0.851-0.127-1.108
					c-0.085-0.257-0.204-0.458-0.356-0.602c-0.152-0.145-0.347-0.242-0.581-0.293c-0.176-0.04-0.52-0.06-1.031-0.06H138.298z"/>
				<path fill="#414042" d="M52.256,35.681v-2.618l-2.279-3.604h1.473l1.464,2.462l1.435-2.462h1.447l-2.287,3.611v2.61H52.256z"/>
				<path fill="#414042" d="M58.816,35.681v-6.222h1.88l1.129,4.244l1.116-4.244h1.885v6.222h-1.167v-4.897l-1.235,4.897h-1.209
					l-1.231-4.897v4.897H58.816z"/>
				<path fill="#414042" d="M71.685,35.681h-1.367l-0.543-1.413h-2.487l-0.513,1.413h-1.333l2.423-6.222h1.329L71.685,35.681z
					 M69.371,33.219l-0.857-2.309l-0.84,2.309H69.371z"/>
				<path fill="#414042" d="M72.346,29.459h2.296c0.518,0,0.913,0.04,1.185,0.119c0.365,0.107,0.678,0.298,0.938,0.572
					c0.261,0.274,0.459,0.61,0.595,1.009c0.136,0.397,0.203,0.888,0.203,1.47c0,0.513-0.063,0.954-0.19,1.324
					c-0.156,0.453-0.378,0.819-0.667,1.1c-0.218,0.212-0.512,0.378-0.883,0.496c-0.277,0.088-0.647,0.132-1.111,0.132h-2.364V29.459
					z M73.603,30.512v4.121h0.938c0.351,0,0.604-0.021,0.76-0.06c0.203-0.051,0.373-0.138,0.507-0.259
					c0.135-0.122,0.244-0.322,0.329-0.601c0.085-0.279,0.127-0.659,0.127-1.14c0-0.481-0.042-0.851-0.127-1.107
					c-0.085-0.258-0.204-0.459-0.356-0.604c-0.152-0.144-0.347-0.241-0.581-0.292c-0.176-0.04-0.52-0.06-1.031-0.06H73.603z"/>
				<path fill="#414042" d="M78.618,29.459h1.256v3.37c0,0.534,0.016,0.881,0.047,1.039c0.054,0.255,0.182,0.459,0.384,0.613
					s0.479,0.231,0.83,0.231c0.356,0,0.625-0.072,0.807-0.219c0.181-0.146,0.29-0.324,0.326-0.536
					c0.037-0.213,0.056-0.564,0.056-1.058v-3.441h1.256v3.268c0,0.747-0.034,1.275-0.102,1.583
					c-0.068,0.309-0.193,0.569-0.376,0.781s-0.427,0.381-0.731,0.507c-0.306,0.126-0.705,0.189-1.197,0.189
					c-0.594,0-1.045-0.069-1.352-0.206c-0.308-0.138-0.55-0.315-0.728-0.535c-0.179-0.219-0.296-0.449-0.353-0.689
					c-0.082-0.356-0.123-0.883-0.123-1.579V29.459z"/>
				<path fill="#414042" d="M84.907,35.681v-6.222h2.644c0.665,0,1.148,0.056,1.449,0.168c0.302,0.111,0.543,0.311,0.724,0.596
					c0.182,0.286,0.272,0.613,0.272,0.98c0,0.467-0.138,0.853-0.412,1.156c-0.274,0.305-0.685,0.496-1.23,0.575
					c0.271,0.159,0.495,0.333,0.673,0.522c0.177,0.189,0.415,0.526,0.715,1.01l0.76,1.214h-1.503l-0.908-1.354
					c-0.322-0.484-0.543-0.789-0.662-0.915c-0.118-0.126-0.244-0.212-0.377-0.259c-0.134-0.047-0.344-0.07-0.633-0.07h-0.255v2.598
					H84.907z M86.163,32.09h0.93c0.603,0,0.979-0.025,1.129-0.076s0.268-0.139,0.353-0.263c0.085-0.125,0.127-0.28,0.127-0.467
					c0-0.21-0.056-0.379-0.168-0.508c-0.111-0.128-0.27-0.21-0.473-0.244c-0.102-0.014-0.407-0.021-0.917-0.021h-0.98V32.09z"/>
				<path fill="#414042" d="M91.18,35.681v-6.222h4.612v1.053h-3.356v1.379h3.123v1.049h-3.123v1.693h3.476v1.048H91.18z"/>
				<path fill="#414042" d="M96.438,35.681v-1.133l3.268-4.036h-2.898v-1.053h4.554v0.977l-3.408,4.197h3.54v1.048H96.438z"/>
				<path fill="#414042" d="M106.67,37.51h-0.819c-0.433-0.653-0.763-1.333-0.988-2.037c-0.227-0.704-0.34-1.387-0.34-2.046
					c0-0.817,0.14-1.591,0.42-2.321c0.243-0.634,0.552-1.218,0.926-1.753h0.814c-0.388,0.857-0.654,1.587-0.8,2.188
					c-0.146,0.601-0.219,1.238-0.219,1.911c0,0.465,0.043,0.939,0.13,1.427c0.086,0.486,0.204,0.949,0.354,1.388
					C106.247,36.555,106.421,36.97,106.67,37.51z"/>
				<path fill="#414042" d="M111.576,33.394l1.218,0.386c-0.187,0.679-0.497,1.184-0.932,1.513c-0.434,0.33-0.985,0.495-1.652,0.495
					c-0.826,0-1.506-0.282-2.037-0.847c-0.532-0.564-0.798-1.337-0.798-2.315c0-1.035,0.267-1.84,0.802-2.413
					c0.534-0.572,1.237-0.859,2.109-0.859c0.761,0,1.379,0.226,1.854,0.675c0.283,0.267,0.495,0.648,0.637,1.146l-1.244,0.297
					c-0.073-0.322-0.227-0.577-0.46-0.764c-0.233-0.188-0.518-0.28-0.851-0.28c-0.462,0-0.836,0.165-1.123,0.496
					s-0.431,0.867-0.431,1.608c0,0.787,0.142,1.348,0.425,1.681c0.282,0.334,0.65,0.501,1.104,0.501c0.333,0,0.62-0.105,0.861-0.318
					C111.299,34.183,111.472,33.849,111.576,33.394z"/>
				<path fill="#414042" d="M113.854,35.681v-6.222h1.88l1.129,4.244l1.116-4.244h1.885v6.222h-1.167v-4.897l-1.235,4.897h-1.209
					l-1.231-4.897v4.897H113.854z"/>
				<path fill="#414042" d="M121.095,35.681v-6.222h1.88l1.129,4.244l1.116-4.244h1.885v6.222h-1.167v-4.897l-1.235,4.897h-1.209
					l-1.231-4.897v4.897H121.095z"/>
				<path fill="#414042" d="M128.013,37.51c0.234-0.504,0.4-0.89,0.496-1.158c0.097-0.27,0.186-0.579,0.268-0.93
					s0.143-0.684,0.183-1c0.04-0.315,0.06-0.639,0.06-0.97c0-0.673-0.072-1.311-0.217-1.911c-0.145-0.602-0.41-1.331-0.798-2.188
					h0.811c0.428,0.608,0.759,1.254,0.995,1.936s0.354,1.374,0.354,2.075c0,0.592-0.093,1.226-0.28,1.901
					c-0.212,0.759-0.562,1.507-1.048,2.245H128.013z"/>
			</g>
		</g>
		<g>
			<path fill="#414042" d="M29.481,19.433h-0.41v-2.06c0-0.685-0.556-1.237-1.24-1.237h-0.412v-0.414
				c0-0.682-0.553-1.235-1.238-1.235h-9.483v-0.413c0-0.683-0.554-1.237-1.234-1.237H9.689c-0.682,0-1.238,0.555-1.238,1.237v5.36
				H8.037c-1.137,0-2.06,0.926-2.06,2.063v12.371c0,1.137,0.923,2.062,2.06,2.062h4.537v1.648h-1.649v0.826h15.671v-0.826h-1.648
				v-1.648h4.534c1.138,0,2.065-0.925,2.065-2.062V21.495C31.546,20.358,30.619,19.433,29.481,19.433z M26.181,15.31
				c0.229,0,0.415,0.184,0.415,0.411v0.414h-9.898V15.31H26.181z M8.037,20.256h0.414v7.014c0,0.68,0.557,1.235,1.238,1.235h3.854
				v-0.823H9.689c-0.229,0-0.414-0.186-0.414-0.412V14.072c0-0.229,0.185-0.415,0.414-0.415h5.773c0.226,0,0.411,0.186,0.411,0.415
				v2.888h11.957c0.229,0,0.414,0.182,0.414,0.412v9.897c0,0.226-0.185,0.412-0.414,0.412h-3.852v0.823h3.852
				c0.684,0,1.24-0.556,1.24-1.235v-7.014h0.41c0.682,0,1.237,0.558,1.237,1.239v11.134H6.8V21.495
				C6.8,20.813,7.356,20.256,8.037,20.256z M24.121,37.576H13.4v-1.648h10.721V37.576z M29.481,35.103H8.037
				c-0.681,0-1.237-0.555-1.237-1.236v-0.413h23.919v0.413C30.719,34.548,30.163,35.103,29.481,35.103z"/>
			<circle fill="#DB5940" cx="18.761" cy="25.619" r="6.186"/>
			<g>
				<path fill="#414042" d="M18.348,25.971v2.534h0.826v-2.534c0.707-0.182,1.236-0.823,1.236-1.591
					c0-0.909-0.741-1.648-1.649-1.648c-0.911,0-1.65,0.739-1.65,1.648C17.11,25.147,17.64,25.789,18.348,25.971z M18.761,23.556
					c0.452,0,0.823,0.371,0.823,0.824c0,0.457-0.371,0.827-0.823,0.827c-0.454,0-0.826-0.37-0.826-0.827
					C17.935,23.927,18.307,23.556,18.761,23.556z"/>
				<path fill="#414042" d="M19.132,21.925l0.081-0.82c-0.299-0.029-0.607-0.029-0.906,0l0.084,0.82
					C18.633,21.901,18.889,21.901,19.132,21.925z"/>
				<path fill="#414042" d="M16.905,22.405c0.108-0.064,0.218-0.12,0.331-0.17l-0.339-0.754c-0.139,0.063-0.273,0.131-0.405,0.207
					c-0.135,0.078-0.26,0.16-0.382,0.248l0.482,0.669C16.691,22.534,16.796,22.467,16.905,22.405z"/>
				<path fill="#414042" d="M15.546,23.763c0.063-0.109,0.132-0.213,0.203-0.313l-0.671-0.48c-0.088,0.122-0.17,0.248-0.246,0.381
					c-0.077,0.132-0.146,0.267-0.207,0.403l0.751,0.339C15.426,23.982,15.483,23.87,15.546,23.763z"/>
				<path fill="#414042" d="M15.065,25.99c-0.011-0.125-0.016-0.246-0.016-0.372s0.005-0.248,0.016-0.371l-0.818-0.082
					c-0.017,0.149-0.023,0.3-0.023,0.453c0,0.154,0.006,0.304,0.023,0.455L15.065,25.99z"/>
				<path fill="#414042" d="M15.376,27.144l-0.751,0.34c0.064,0.135,0.131,0.271,0.207,0.402c0.076,0.132,0.158,0.258,0.246,0.379
					l0.671-0.479c-0.071-0.099-0.14-0.204-0.203-0.312C15.483,27.365,15.426,27.255,15.376,27.144z"/>
				<path fill="#414042" d="M16.897,29.754l0.339-0.753c-0.115-0.049-0.223-0.106-0.332-0.169c-0.108-0.061-0.213-0.13-0.312-0.201
					L16.11,29.3c0.12,0.088,0.247,0.17,0.382,0.247C16.624,29.623,16.759,29.691,16.897,29.754z"/>
				<path fill="#414042" d="M18.391,29.312l-0.084,0.819c0.149,0.017,0.301,0.024,0.454,0.024c0.153,0,0.304-0.008,0.452-0.024
					l-0.08-0.819C18.889,29.335,18.633,29.335,18.391,29.312z"/>
				<path fill="#414042" d="M20.615,28.832c-0.108,0.063-0.22,0.12-0.33,0.169l0.338,0.753c0.139-0.063,0.272-0.131,0.405-0.207
					c0.133-0.077,0.259-0.159,0.38-0.247l-0.481-0.669C20.829,28.702,20.724,28.771,20.615,28.832z"/>
				<path fill="#414042" d="M22.688,27.887c0.077-0.133,0.146-0.268,0.208-0.403l-0.752-0.34c-0.051,0.111-0.107,0.222-0.169,0.331
					c-0.065,0.109-0.133,0.213-0.205,0.313l0.673,0.479C22.528,28.144,22.611,28.018,22.688,27.887z"/>
				<path fill="#414042" d="M22.471,25.618c0,0.126-0.006,0.251-0.017,0.372l0.819,0.081c0.016-0.149,0.023-0.299,0.023-0.453
					c0-0.153-0.007-0.304-0.023-0.453l-0.819,0.08C22.465,25.369,22.471,25.492,22.471,25.618z"/>
				<path fill="#414042" d="M22.145,24.093l0.752-0.339c-0.063-0.137-0.131-0.271-0.208-0.402c-0.077-0.134-0.16-0.26-0.247-0.382
					l-0.671,0.48c0.072,0.1,0.14,0.203,0.205,0.315C22.037,23.87,22.094,23.982,22.145,24.093z"/>
				<path fill="#414042" d="M20.927,22.605l0.483-0.67c-0.123-0.087-0.249-0.169-0.382-0.247c-0.134-0.076-0.267-0.144-0.405-0.207
					l-0.336,0.753c0.111,0.051,0.221,0.107,0.328,0.169C20.724,22.467,20.829,22.534,20.927,22.605z"/>
			</g>
		</g>
	</g>
</g>
</svg>