<!-- Generator: Adobe Illustrator 17.0.0, SVG Export Plug-In  -->
<svg version="1.1"
	 xmlns="http://www.w3.org/2000/svg" xmlns:xlink="http://www.w3.org/1999/xlink" xmlns:a="http://ns.adobe.com/AdobeSVGViewerExtensions/3.0/"
	 x="0px" y="0px" width="501.78px" height="57.997px" viewBox="0 0 501.78 57.997" enable-background="new 0 0 501.78 57.997"
	 xml:space="preserve">
<defs>
</defs>
<g>
	<g>
		<defs>
			<polygon id="SVGID_1_" points="0,14.218 0,49.972 328.869,49.972 354.219,14.218 			"/>
		</defs>
		<clipPath id="SVGID_2_">
			<use xlink:href="#SVGID_1_"  overflow="visible"/>
		</clipPath>
	</g>
	<g>
		<defs>
			<polygon id="SVGID_3_" points="0,14.218 0,49.972 328.869,49.972 354.219,14.218 			"/>
		</defs>
		<use xlink:href="#SVGID_3_"  overflow="visible" fill="#DB5940"/>
		<clipPath id="SVGID_4_">
			<use xlink:href="#SVGID_3_"  overflow="visible"/>
		</clipPath>
		<rect x="0" y="14.218" clip-path="url(#SVGID_4_)" fill="#DB5940" width="354.219" height="35.754"/>
	</g>
	<g>
		<defs>
			<polygon id="SVGID_5_" points="0,14.218 0,49.972 328.869,49.972 354.219,14.218 			"/>
		</defs>
		<clipPath id="SVGID_6_">
			<use xlink:href="#SVGID_5_"  overflow="visible"/>
		</clipPath>
	</g>
</g>
<g>
	<path fill="#FFFFFF" d="M49.526,37.619c-0.179,0.417-0.425,0.781-0.737,1.094s-0.678,0.558-1.094,0.737s-0.863,0.269-1.338,0.269
		h-0.996c-0.475,0-0.923-0.089-1.343-0.269s-0.786-0.425-1.099-0.737s-0.559-0.677-0.737-1.094s-0.269-0.863-0.269-1.338v-7.52
		c0-0.475,0.09-0.921,0.269-1.338s0.425-0.781,0.737-1.094s0.679-0.558,1.099-0.737s0.868-0.269,1.343-0.269h0.996
		c0.475,0,0.922,0.089,1.338,0.269s0.781,0.425,1.094,0.737s0.559,0.677,0.737,1.094s0.269,0.863,0.269,1.338v0.566l-1.26,0.195
		v-0.762c0-0.313-0.059-0.604-0.176-0.874s-0.277-0.506-0.479-0.708s-0.438-0.361-0.708-0.479s-0.562-0.176-0.874-0.176H45.42
		c-0.313,0-0.604,0.059-0.874,0.176s-0.508,0.277-0.713,0.479s-0.366,0.438-0.483,0.708s-0.176,0.562-0.176,0.874v7.52
		c0,0.313,0.059,0.604,0.176,0.874s0.278,0.508,0.483,0.713s0.442,0.366,0.713,0.483s0.562,0.176,0.874,0.176h0.879
		c0.313,0,0.604-0.059,0.874-0.176s0.507-0.278,0.708-0.483s0.361-0.443,0.479-0.713s0.176-0.562,0.176-0.874v-0.762l1.26,0.205
		v0.557C49.795,36.756,49.705,37.202,49.526,37.619z"/>
	<path fill="#FFFFFF" d="M57.852,36.261h-4.434L52.5,39.523h-1.309l4.102-14.004h0.664l4.121,14.004h-1.299L57.852,36.261z
		 M53.76,35.06h3.76l-1.846-6.455l-0.039-0.518l-0.039,0.518L53.76,35.06z"/>
	<path fill="#FFFFFF" d="M61.67,39.523V25.519h1.26v12.803h5.361v1.201H61.67z"/>
	<path fill="#FFFFFF" d="M70.293,39.523V25.519h1.26v14.004H70.293z"/>
	<path fill="#FFFFFF" d="M82.368,37.423c-0.179,0.417-0.425,0.781-0.737,1.094s-0.679,0.558-1.099,0.737s-0.868,0.269-1.343,0.269
		h-4.434V25.519h4.434c0.475,0,0.923,0.089,1.343,0.269s0.786,0.425,1.099,0.737s0.559,0.679,0.737,1.099s0.269,0.868,0.269,1.343
		v7.119C82.637,36.561,82.547,37.007,82.368,37.423z M81.377,28.966c0-0.313-0.059-0.604-0.176-0.874s-0.278-0.508-0.483-0.713
		s-0.442-0.366-0.713-0.483s-0.562-0.176-0.874-0.176h-3.115v11.602h3.115c0.313,0,0.604-0.059,0.874-0.176s0.508-0.277,0.713-0.479
		s0.366-0.438,0.483-0.708s0.176-0.562,0.176-0.874V28.966z"/>
	<path fill="#FFFFFF" d="M90.889,36.261h-4.434l-0.918,3.262h-1.309l4.102-14.004h0.664l4.121,14.004h-1.299L90.889,36.261z
		 M86.797,35.06h3.76l-1.846-6.455l-0.039-0.518l-0.039,0.518L86.797,35.06z"/>
	<path fill="#FFFFFF" d="M102.524,37.423c-0.179,0.417-0.425,0.781-0.737,1.094s-0.679,0.558-1.099,0.737s-0.868,0.269-1.343,0.269
		h-4.434V25.519h4.434c0.475,0,0.923,0.089,1.343,0.269s0.786,0.425,1.099,0.737s0.559,0.679,0.737,1.099s0.269,0.868,0.269,1.343
		v7.119C102.793,36.561,102.703,37.007,102.524,37.423z M101.533,28.966c0-0.313-0.059-0.604-0.176-0.874s-0.278-0.508-0.483-0.713
		s-0.442-0.366-0.713-0.483S99.6,26.72,99.287,26.72h-3.115v11.602h3.115c0.313,0,0.604-0.059,0.874-0.176s0.508-0.277,0.713-0.479
		s0.366-0.438,0.483-0.708s0.176-0.562,0.176-0.874V28.966z"/>
	<path fill="#FFFFFF" d="M118.003,37.423c-0.179,0.417-0.425,0.781-0.737,1.094s-0.679,0.558-1.099,0.737s-0.868,0.269-1.343,0.269
		h-4.434V25.519h4.434c0.475,0,0.923,0.089,1.343,0.269s0.786,0.425,1.099,0.737s0.559,0.679,0.737,1.099s0.269,0.868,0.269,1.343
		v7.119C118.272,36.561,118.182,37.007,118.003,37.423z M117.012,28.966c0-0.313-0.059-0.604-0.176-0.874s-0.278-0.508-0.483-0.713
		s-0.442-0.366-0.713-0.483s-0.562-0.176-0.874-0.176h-3.115v11.602h3.115c0.313,0,0.604-0.059,0.874-0.176s0.508-0.277,0.713-0.479
		s0.366-0.438,0.483-0.708s0.176-0.562,0.176-0.874V28.966z"/>
	<path fill="#FFFFFF" d="M121.27,39.523V25.519h7.881v1.201h-6.621v5.205h5.361v1.201h-5.361v5.195h6.621v1.201H121.27z"/>
	<path fill="#FFFFFF" d="M143.828,36.281c0,0.475-0.096,0.921-0.288,1.338s-0.449,0.781-0.771,1.094s-0.696,0.558-1.123,0.737
		s-0.878,0.269-1.353,0.269h-1.006c-0.475,0-0.926-0.089-1.353-0.269s-0.801-0.425-1.123-0.737s-0.579-0.677-0.771-1.094
		s-0.288-0.863-0.288-1.338v-0.557l1.26-0.205v0.762c0,0.313,0.063,0.604,0.19,0.874s0.298,0.508,0.513,0.713
		s0.464,0.366,0.747,0.483s0.581,0.176,0.894,0.176h0.879c0.313,0,0.609-0.059,0.889-0.176s0.527-0.278,0.742-0.483
		s0.386-0.443,0.513-0.713s0.19-0.562,0.19-0.874v-0.42c0-0.482-0.094-0.882-0.283-1.201s-0.439-0.591-0.752-0.815
		s-0.666-0.415-1.06-0.571s-0.8-0.313-1.216-0.469s-0.822-0.329-1.216-0.518s-0.747-0.425-1.06-0.708s-0.563-0.63-0.752-1.04
		s-0.283-0.915-0.283-1.514v-0.264c0-0.475,0.09-0.921,0.269-1.338s0.425-0.781,0.737-1.094s0.679-0.558,1.099-0.737
		s0.868-0.269,1.343-0.269h0.898c0.475,0,0.922,0.089,1.338,0.269s0.781,0.425,1.094,0.737s0.559,0.677,0.737,1.094
		s0.269,0.863,0.269,1.338v0.361l-1.26,0.205v-0.566c0-0.313-0.059-0.604-0.176-0.874s-0.277-0.506-0.479-0.708
		s-0.438-0.361-0.708-0.479s-0.562-0.176-0.874-0.176h-0.781c-0.313,0-0.604,0.059-0.874,0.176s-0.508,0.277-0.713,0.479
		s-0.366,0.438-0.483,0.708s-0.176,0.562-0.176,0.874v0.264c0,0.449,0.094,0.827,0.283,1.133s0.439,0.568,0.752,0.786
		s0.666,0.407,1.06,0.566s0.8,0.322,1.216,0.488s0.822,0.348,1.216,0.547s0.747,0.443,1.06,0.732s0.563,0.643,0.752,1.06
		s0.283,0.924,0.283,1.523V36.281z"/>
	<path fill="#FFFFFF" d="M153.94,37.619c-0.179,0.417-0.425,0.781-0.737,1.094s-0.678,0.558-1.094,0.737s-0.863,0.269-1.338,0.269
		h-0.996c-0.475,0-0.923-0.089-1.343-0.269s-0.786-0.425-1.099-0.737s-0.559-0.677-0.737-1.094s-0.269-0.863-0.269-1.338v-7.52
		c0-0.475,0.09-0.921,0.269-1.338s0.425-0.781,0.737-1.094s0.679-0.558,1.099-0.737s0.868-0.269,1.343-0.269h0.996
		c0.475,0,0.922,0.089,1.338,0.269s0.781,0.425,1.094,0.737s0.559,0.677,0.737,1.094s0.269,0.863,0.269,1.338v7.52
		C154.209,36.756,154.119,37.202,153.94,37.619z M152.949,28.761c0-0.313-0.059-0.604-0.176-0.874s-0.277-0.506-0.479-0.708
		s-0.438-0.361-0.708-0.479s-0.562-0.176-0.874-0.176h-0.879c-0.313,0-0.604,0.059-0.874,0.176s-0.508,0.277-0.713,0.479
		s-0.366,0.438-0.483,0.708s-0.176,0.562-0.176,0.874v7.52c0,0.313,0.059,0.604,0.176,0.874s0.278,0.508,0.483,0.713
		s0.442,0.366,0.713,0.483s0.562,0.176,0.874,0.176h0.879c0.313,0,0.604-0.059,0.874-0.176s0.507-0.278,0.708-0.483
		s0.361-0.443,0.479-0.713s0.176-0.562,0.176-0.874V28.761z"/>
	<path fill="#FFFFFF" d="M158.477,26.72v5.205h5.361v1.201h-5.361v6.396h-1.26V25.519h7.881v1.201H158.477z"/>
	<path fill="#FFFFFF" d="M170.498,26.72v12.803h-1.26V26.72h-3.34v-1.201h7.939v1.201H170.498z"/>
	<path fill="#FFFFFF" d="M185.195,39.523h-0.654l-2.725-10.537l-0.039-0.547l-0.059,0.547l-2.705,10.537h-0.654l-3.721-14.004h1.26
		l2.744,10.645l0.039,0.518l0.039-0.518l2.695-10.645h0.703l2.695,10.645l0.039,0.518l0.049-0.518l2.734-10.645h1.26L185.195,39.523
		z"/>
	<path fill="#FFFFFF" d="M196.152,36.261h-4.434l-0.918,3.262h-1.309l4.102-14.004h0.664l4.121,14.004h-1.299L196.152,36.261z
		 M192.061,35.06h3.76l-1.846-6.455l-0.039-0.518l-0.039,0.518L192.061,35.06z"/>
	<path fill="#FFFFFF" d="M206.758,39.523l-3.799-5.977h-1.729v5.977h-1.26V25.519h4.443c0.475,0,0.922,0.089,1.338,0.269
		s0.781,0.425,1.094,0.737s0.559,0.679,0.737,1.099s0.269,0.868,0.269,1.343v1.133c0,0.475-0.09,0.923-0.269,1.343
		s-0.425,0.786-0.737,1.099s-0.678,0.558-1.094,0.737s-0.863,0.269-1.338,0.269l3.799,5.977H206.758z M206.592,28.966
		c0-0.313-0.059-0.604-0.176-0.874s-0.277-0.508-0.479-0.713s-0.438-0.366-0.708-0.483s-0.562-0.176-0.874-0.176h-3.125v5.625h3.125
		c0.313,0,0.604-0.059,0.874-0.176s0.507-0.278,0.708-0.483s0.361-0.443,0.479-0.713s0.176-0.562,0.176-0.874V28.966z"/>
	<path fill="#FFFFFF" d="M210.615,39.523V25.519h7.881v1.201h-6.621v5.205h5.361v1.201h-5.361v5.195h6.621v1.201H210.615z"/>
</g>
<polygon fill="#DB5940" points="348.914,49.972 339.663,49.972 365.012,14.217 374.263,14.217 "/>
<polygon fill="#DB5940" points="369.517,49.972 360.266,49.972 385.615,14.217 394.865,14.217 "/>
<polygon fill="#DB5940" points="390.12,49.972 380.869,49.972 406.218,14.217 415.469,14.217 "/>
<g>
	<path fill="#DB5940" d="M449.57,28.562c0-2.667,2.162-4.827,4.824-4.827c2.671,0,4.835,2.16,4.835,4.827
		c0,2.663-2.164,4.827-4.835,4.827C451.733,33.389,449.57,31.225,449.57,28.562 M452.272,15.744c-0.971,0-1.749,0.785-1.749,1.752
		v1.803c-0.792,0.328-1.51,0.786-2.177,1.297l-1.596-0.924c-0.268-0.159-0.566-0.234-0.874-0.234c-0.149,0-0.306,0.02-0.455,0.059
		c-0.448,0.119-0.827,0.413-1.065,0.814l-2.125,3.685c-0.482,0.837-0.198,1.91,0.639,2.391l1.605,0.933
		c-0.042,0.41-0.119,0.819-0.119,1.244c0,0.432,0.077,0.836,0.119,1.249l-1.605,0.927c-0.837,0.48-1.12,1.554-0.639,2.391
		l2.125,3.685c0.238,0.401,0.617,0.695,1.065,0.822c0.146,0.031,0.301,0.053,0.449,0.053c0.309,0,0.605-0.082,0.88-0.234l1.59-0.924
		c0.673,0.514,1.391,0.967,2.183,1.297v1.809c0,0.96,0.778,1.747,1.749,1.747h4.252c0.969,0,1.753-0.786,1.753-1.747v-1.809
		c0.789-0.33,1.498-0.783,2.173-1.291l1.594,0.918c0.268,0.156,0.569,0.234,0.877,0.234c0.153,0,0.302-0.022,0.446-0.053
		c0.45-0.127,0.837-0.421,1.063-0.822l2.136-3.685c0.483-0.833,0.193-1.904-0.64-2.391l-1.613-0.927
		c0.055-0.413,0.128-0.817,0.128-1.249c0-0.424-0.073-0.833-0.128-1.244l1.613-0.933c0.397-0.231,0.692-0.615,0.815-1.063
		c0.118-0.449,0.052-0.927-0.176-1.328l-2.136-3.685c-0.316-0.56-0.907-0.873-1.512-0.873c-0.299,0-0.6,0.073-0.874,0.237
		l-1.594,0.921c-0.675-0.511-1.39-0.97-2.173-1.297v-1.803c0-0.967-0.784-1.752-1.753-1.752H452.272z"/>
	<path fill="#414042" d="M447.289,40.872c-0.457,0.13-0.935,0.198-1.418,0.198c-0.449,0-0.897-0.062-1.346-0.175
		c-0.994-0.277-1.866-0.833-2.533-1.614h-1.693c-0.58,0-1.049-0.472-1.049-1.048v-3.521c-0.859-1.577-0.805-3.422,0-4.906v-2.487
		c-0.797-1.48-0.856-3.318,0-4.903V5.553c0-0.577,0.469-1.051,1.049-1.051h24.792c0.497-0.328,1.038-0.603,1.636-0.76
		c0.471-0.127,0.956-0.192,1.447-0.192c0.868,0,1.719,0.203,2.481,0.585c0.108-1.701,0.995-3.182,2.289-4.134h-32.646
		c-3.063,0-5.553,2.489-5.553,5.553v32.68c0,3.066,2.489,5.556,5.553,5.556h8.989C448.315,43.087,447.587,42.07,447.289,40.872"/>
	<path fill="#414042" d="M496.225,0h-11.349c1.297,0.952,2.184,2.433,2.283,4.137c0.77-0.385,1.622-0.588,2.489-0.588
		c1.103,0,2.156,0.362,3.052,0.955h3.524c0.586,0,1.055,0.472,1.055,1.048v5.681c0.635,1.243,0.806,2.65,0.442,3.981
		c-0.106,0.396-0.261,0.766-0.442,1.119v4.213c0.785,1.548,0.842,3.431,0,5.076v12.609c0,0.577-0.469,1.051-1.055,1.051h-29.422
		c-0.666,0.763-1.554,1.34-2.543,1.611c-0.439,0.119-0.887,0.175-1.339,0.175c-0.483,0-0.961-0.068-1.419-0.198
		c-0.06,0.231-0.136,0.447-0.224,0.661c-0.489,1.218-1.433,2.199-2.622,2.747v2.976c-3.533,0.382-6.299,3.349-6.299,6.98v2.065
		c0,0.938,0.76,1.695,1.689,1.695h28.444c0.929,0,1.681-0.757,1.681-1.695v-2.065c0-3.631-2.767-6.599-6.302-6.98v-3.468h18.36
		c3.055,0,5.55-2.49,5.55-5.556V5.553C501.78,2.489,499.285,0,496.225,0 M480.795,54.236v0.381h-25.064v-0.381
		c0-2.027,1.65-3.677,3.683-3.677h17.701C479.145,50.559,480.795,52.209,480.795,54.236"/>
	<path fill="#DB5940" d="M476.233,2.281c-1.221,0-2.21,0.989-2.21,2.205v2.271c-0.991,0.418-1.893,0.986-2.737,1.633l-2.006-1.163
		c-0.341-0.198-0.724-0.294-1.106-0.294c-0.192,0-0.387,0.02-0.573,0.074c-0.565,0.153-1.046,0.52-1.337,1.029l-2.682,4.64
		c-0.608,1.057-0.25,2.402,0.808,3.012l2.023,1.168c-0.028,0.184-0.051,0.362-0.073,0.542c0.393,0.359,0.752,0.755,1.018,1.223
		l2.138,3.694c0.68,1.187,0.859,2.565,0.502,3.905c-0.249,0.904-0.729,1.705-1.386,2.343c0.305,0.294,0.562,0.638,0.791,1
		l1.883-1.09c0.845,0.647,1.742,1.215,2.737,1.633v2.275c0,1.212,0.989,2.201,2.21,2.201h5.353c1.222,0,2.21-0.989,2.21-2.201
		v-2.275c0.995-0.418,1.893-0.986,2.732-1.633l2.015,1.161c0.34,0.195,0.725,0.297,1.107,0.297c0.188,0,0.377-0.025,0.564-0.074
		c0.563-0.153,1.051-0.523,1.343-1.029l2.679-4.64c0.608-1.057,0.246-2.408-0.809-3.013l-2.02-1.17
		c0.063-0.525,0.162-1.034,0.162-1.577c0-0.532-0.1-1.052-0.162-1.574l2.02-1.168c0.512-0.291,0.882-0.774,1.025-1.336
		c0.153-0.568,0.078-1.167-0.217-1.676l-2.679-4.635c-0.41-0.712-1.157-1.108-1.908-1.108c-0.378,0-0.755,0.094-1.105,0.294
		l-2.015,1.163c-0.84-0.647-1.743-1.215-2.732-1.633V4.485c0-1.216-0.988-2.205-2.21-2.205H476.233z M478.909,24.182
		c-3.173,0-5.747-2.583-5.747-5.75c0-3.174,2.574-5.751,5.747-5.751c3.169,0,5.749,2.577,5.749,5.751
		C484.658,21.599,482.078,24.182,478.909,24.182"/>
</g>
</svg>