<!-- Generator: Adobe Illustrator 17.0.0, SVG Export Plug-In  -->
<svg version="1.1"
	 xmlns="http://www.w3.org/2000/svg" xmlns:xlink="http://www.w3.org/1999/xlink" xmlns:a="http://ns.adobe.com/AdobeSVGViewerExtensions/3.0/"
	 x="0px" y="0px" width="790.082px" height="560px" viewBox="0 0 790.082 560" enable-background="new 0 0 790.082 560"
	 xml:space="preserve">
<defs>
</defs>
<g>
	<defs>
		<path id="SVGID_1_" d="M0,529.33c0,0,354.563,26.053,603.82-220.087c0,0,106.766-93.358,186.262-309.243H0V529.33z"/>
	</defs>
	<clipPath id="SVGID_2_">
		<use xlink:href="#SVGID_1_"  overflow="visible"/>
	</clipPath>
	<g clip-path="url(#SVGID_2_)">
		
			<rect x="567.342" y="269.542" transform="matrix(-0.8725 0.4886 -0.4886 -0.8725 1273.272 316.6985)" opacity="0.2" fill="#949596" width="55.948" height="109.866"/>
		<path opacity="0.2" fill="#949596" d="M505.997,292.539l0.145,0.508c1.076,3.759,1.115,7.582,0.273,11.151
			c-1.432,6.121-5.426,11.515-11.11,14.574c-1.376,0.748-2.854,1.355-4.412,1.805l-6.431,1.844c-1.49,0.795-3.068,1.438-4.73,1.917
			l-327.584,94.064l-0.063,0.018c-10.504,2.987-21.406-1.408-27.129-10.087c-1.524,11.022-4.28,20.717-8.912,26.091l20.502,1.673
			l-4.658,91.586l-51.62,14.685l-2.379-53.084l-0.77-17.258l-0.407-8.98l-0.676-15.07l-0.745-16.671l-0.745-16.648l-0.248-5.466
			l-0.434-9.706l-2.577-57.539l0.127-1.017l0.406-3.147l0.687-5.419l0.181-1.404l0.66-5.175l0.909-7.123l0.087-0.687l1.225-9.614
			l0.696-5.468c0,0,4.15,5.189,8.787,11.272c0.743,0.97,1.494,1.959,2.246,2.957c0.203,0.276,0.407,0.544,0.611,0.821
			c0.262,0.342,0.517,0.692,0.779,1.042c0.172,0.233,0.35,0.473,0.521,0.705c2.664,3.598,5.123,7.067,6.685,9.579
			c1.079,1.728,1.724,3.003,1.72,3.561c-0.004,0.275,0.318,0.311,0.914,0.134c0.24-0.069,0.535-0.182,0.874-0.323
			c0.632-0.261,1.422-0.643,2.328-1.115l-0.951-3.318l-0.663-2.309l-1.736-6.024l-10.033-34.932l-0.443-1.531l-3.924-13.662
			l-3.031-10.522l-24.92-86.715c-1.795-6.259-1.041-12.857,2.129-18.589c3.176-5.733,8.365-9.878,14.624-11.673l9.412-2.7
			l100.069-28.734l72.028-20.683l25.829-7.414l27.328-7.848l0.302-0.086l17.498-5.022l7.735-2.223l15.491-4.443l42.095-12.093
			l9.205-2.642l0.648-0.184c3.065-0.873,6.162-1.113,9.161-0.809l2.577-0.739c1.605-0.465,3.23-0.733,4.84-0.82
			c1.031-0.062,2.06-0.05,3.074,0.04c0.706,0.052,1.4,0.145,2.096,0.266c8.102,1.462,15.107,7.361,17.527,15.768l26.922,93.674
			l1.254,4.354l0.924,3.223l1.241,4.313l2.556,8.873l0.877,3.057l1.445,5.029l1.515,5.275l2.667,9.273l1.796,6.258l6.33,22.014
			l3.017,10.504l7.734,26.899l1.986,6.933l1.762,6.111l1.572,5.476l2.311,8.045L505.997,292.539z"/>
		<g>
			<path fill="#DB926E" d="M88.207,366.071c-1.705,0-3.439-0.238-5.16-0.738l-14.367-4.172c-5.538-1.607-10.006-5.709-12.083-11.088
				c-5.869-15.205-8.01-28.366-6.544-40.237c1.634-13.229,7.665-24.311,17.926-32.94c19.087-16.048,38.801-19.81,64.421-20.677
				c10.212-0.373,18.744,7.641,19.089,17.838c0.345,10.197-7.641,18.744-17.838,19.089c-21.759,0.737-31.939,3.66-41.894,12.03
				c-2.525,2.124-7.994,6.72-3.49,23.197l5.083,1.477c9.798,2.845,15.435,13.095,12.59,22.893
				C103.595,360.821,96.216,366.07,88.207,366.071z"/>
		</g>
		<g>
			<g>
				<path fill="#FFB287" d="M70.915,353.885c-4.534,0-9.077-1.658-12.643-5.007l-20.265-19.029
					c-4.701-4.415-6.76-10.961-5.432-17.272c6.397-30.407,18.652-40.401,30.504-50.067c1.264-1.031,2.568-2.093,3.911-3.223
					c18.977-15.956,44.751-18.098,71.714-19.013c10.18-0.344,18.744,7.641,19.09,17.837c0.346,10.198-7.64,18.745-17.837,19.09
					c-20.241,0.687-39.233,1.996-49.188,10.365c-1.49,1.253-2.935,2.433-4.338,3.577c-7.717,6.293-11.907,9.711-15.137,19.276
					l12.271,11.523c7.438,6.984,7.805,18.677,0.821,26.114C80.749,351.929,75.837,353.885,70.915,353.885z"/>
			</g>
		</g>
		<g>
			<polygon fill="#FFB287" points="85.668,329.251 71.179,299.266 85.063,279.91 81.309,276.462 56.092,291.288 63.99,323.15 			"/>
		</g>
		<g opacity="0.5">
			<path fill="#D1805D" d="M75.758,292.882c-6.528-9.317-12.637-16.189-19.539-18.252c0,0,15.793-14.09,22.002-16.229
				c6.211-2.139,10.752,24.177,10.752,24.177L75.758,292.882z"/>
		</g>
		<g>
			<path fill="#FFB287" d="M72.13,317.942l-19.567-10.805c-9.599-0.261-13.101-7.633-16.15,11.552l0.019,155.469
				c-0.262,9.601,7.379,17.666,16.979,17.927l13.98,0.381c9.599,0.259,17.666-7.381,17.926-16.979l3.792-139.617
				C89.369,326.271,80.953,320.658,72.13,317.942z"/>
		</g>
		<g>
			<path fill="#FFB287" d="M88.336,317.596c-7.953,6.878-25.082-3.156-20.551-12.39l-8.467,12.396c0,0,6.701,23.48,7.251,23.496
				c0.55,0.015,26.993-0.918,27.022-2.018C93.623,337.98,88.336,317.596,88.336,317.596z"/>
		</g>
		<polygon fill="#DB926E" points="87.224,431.519 35.979,430.591 36.539,408.141 87.424,409.55 		"/>
		<g>
			<polygon fill="#C7D1E0" points="20.971,466.486 112.473,475.515 115.289,415.993 99.813,415.478 22.724,412.961 			"/>
			<polygon fill="#FFFFFF" points="21.108,462.279 97.554,463.334 99.813,415.478 22.724,412.961 			"/>
			<polygon fill="#414042" points="117.633,449.331 113.328,532.963 18.281,560 13.916,544.65 18.611,446.091 21.635,446.19 
				36.432,446.676 76.037,447.975 86.057,448.298 91.674,448.483 98.246,448.701 113.718,449.204 			"/>
			<polygon fill="#DB5940" points="91.674,448.483 90.932,463.244 90.423,473.338 87.047,540.44 18.281,560 13.916,544.65 
				18.611,446.091 21.635,446.19 36.432,446.676 76.037,447.975 86.057,448.298 			"/>
		</g>
		<g>
			
				<ellipse transform="matrix(-0.93 -0.3675 0.3675 -0.93 29.2225 724.154)" fill="#FFB287" cx="83.554" cy="359.295" rx="24.209" ry="42.135"/>
		</g>
		<g>
			<path fill="#FFB287" d="M86.827,356.021c-1.819,0-3.649-0.255-5.438-0.774l-15.814-4.594
				c-10.343-3.004-16.292-13.824-13.287-24.166c3.004-10.343,13.823-16.292,24.166-13.287l6.098,1.772l49.732-39.769
				c8.411-6.726,20.683-5.359,27.409,3.052c6.726,8.412,5.36,20.683-3.052,27.409L99.007,351.75
				C95.507,354.548,91.201,356.021,86.827,356.021z"/>
		</g>
		<g>
			<g>
				<g>
					<g>
						<g>
							<path fill="#414042" d="M36.552,137.161c-2.966-10.516,3.213-21.547,13.729-24.514l340.873-96.166
								c10.516-2.967,21.547,3.21,24.512,13.726l64.141,227.459c2.966,10.515-3.212,21.548-13.727,24.515l-340.874,96.166
								c-10.516,2.965-21.547-3.212-24.512-13.728L36.552,137.161z"/>
							<path fill="none" stroke="#C8C8CC" stroke-width="5.4994" stroke-miterlimit="10" d="M36.552,137.161
								c-2.966-10.516,3.213-21.547,13.729-24.514l340.873-96.166c10.516-2.967,21.547,3.21,24.512,13.726l64.141,227.459
								c2.966,10.515-3.212,21.548-13.727,24.515l-340.874,96.166c-10.516,2.965-21.547-3.212-24.512-13.728L36.552,137.161z"/>
						</g>
						<path fill="#FFFFFF" d="M389.179,46.055l58.864,208.766c0.294,1.044-0.311,2.154-1.375,2.453l-267.904,76.31l-36.229,10.314
							c-1.066,0.302-2.154-0.307-2.449-1.352L80.594,133.958c-0.294-1.044,0.308-2.154,1.374-2.455l230.14-65.536L386.1,44.881
							C387.16,44.558,388.884,45.011,389.179,46.055z"/>
					</g>
					
						<ellipse transform="matrix(-0.2739 -0.9617 0.9617 -0.2739 407.8961 599.173)" opacity="0.47" fill="#60607F" cx="430.118" cy="145.618" rx="6.864" ry="6.637"/>
					<g>
						
							<line fill="none" stroke="#282830" stroke-width="9.134" stroke-linecap="round" stroke-miterlimit="10" x1="96.834" y1="263.076" x2="84.344" y2="219.953"/>
					</g>
				</g>
			</g>
		</g>
		<g>
			<g>
				<g>
					<path fill="#414042" d="M131.649,200.599l-4.543-14.768l-1.72,13.348l-1.774,0.546l-9.007-10.048l4.543,14.768l-2.075,0.638
						l-5.978-19.436l2.075-0.638l10.573,11.837l1.929-15.683l2.075-0.638l5.978,19.436L131.649,200.599z"/>
					<path fill="#414042" d="M150.022,187.284c0.22,0.779,0.364,1.49,0.434,2.136c0.069,0.648,0.057,1.254-0.038,1.82
						c-0.095,0.567-0.3,1.148-0.614,1.742c-0.454,0.857-1.046,1.587-1.777,2.191c-0.731,0.603-1.587,1.055-2.57,1.357
						c-1.966,0.604-3.829,0.441-5.589-0.491c-0.595-0.314-1.091-0.68-1.488-1.096c-0.396-0.416-0.748-0.909-1.054-1.484
						c-0.307-0.573-0.587-1.242-0.843-2.01c-0.257-0.769-0.544-1.671-0.863-2.708c-0.318-1.037-0.588-1.945-0.808-2.724
						c-0.22-0.779-0.365-1.492-0.434-2.137c-0.069-0.646-0.056-1.253,0.038-1.819c0.094-0.568,0.299-1.148,0.614-1.743
						c0.932-1.761,2.381-2.943,4.347-3.548s3.828-0.441,5.59,0.491c0.594,0.315,1.09,0.68,1.487,1.097
						c0.396,0.416,0.748,0.911,1.054,1.483c0.306,0.573,0.586,1.244,0.843,2.012c0.256,0.768,0.544,1.67,0.862,2.707
						C149.533,185.596,149.802,186.504,150.022,187.284z M146.305,182.63c-0.243-0.692-0.486-1.27-0.727-1.733
						c-0.242-0.463-0.509-0.845-0.8-1.144c-0.292-0.298-0.64-0.554-1.044-0.77c-0.553-0.308-1.163-0.494-1.83-0.558
						c-0.667-0.064-1.319,0.002-1.956,0.198c-0.637,0.196-1.213,0.508-1.729,0.936c-0.516,0.427-0.916,0.924-1.2,1.489
						c-0.214,0.406-0.358,0.813-0.431,1.223c-0.073,0.41-0.079,0.876-0.019,1.396c0.06,0.519,0.184,1.134,0.373,1.842
						c0.188,0.709,0.439,1.572,0.752,2.592s0.591,1.875,0.834,2.567c0.242,0.692,0.485,1.271,0.727,1.733
						c0.242,0.464,0.509,0.845,0.8,1.144c0.291,0.299,0.639,0.556,1.043,0.769c0.553,0.309,1.163,0.495,1.83,0.559
						c0.667,0.063,1.319-0.002,1.956-0.199c0.637-0.196,1.213-0.508,1.729-0.935c0.516-0.428,0.915-0.924,1.2-1.49
						c0.214-0.404,0.358-0.811,0.431-1.223c0.072-0.411,0.079-0.875,0.019-1.396c-0.061-0.518-0.184-1.133-0.373-1.842
						c-0.188-0.709-0.439-1.573-0.752-2.593S146.548,183.322,146.305,182.63z"/>
					<path fill="#414042" d="M168.159,180.823c0.22,0.749,0.386,1.5,0.498,2.252c0.112,0.753,0.137,1.496,0.074,2.232
						c-0.063,0.737-0.271,1.438-0.623,2.104c-0.403,0.762-0.976,1.427-1.717,1.993c-0.742,0.567-1.623,1.007-2.642,1.32
						l-6.661,2.049l-5.978-19.436l6.661-2.049c1.019-0.313,1.994-0.443,2.927-0.393c0.933,0.054,1.779,0.281,2.54,0.683
						c0.666,0.353,1.226,0.794,1.677,1.323c0.452,0.528,0.834,1.108,1.148,1.738c0.313,0.631,0.583,1.295,0.807,1.992
						c0.225,0.698,0.44,1.384,0.647,2.058C167.724,179.364,167.938,180.074,168.159,180.823z M164.879,177.544
						c-0.191-0.589-0.406-1.14-0.643-1.655c-0.238-0.514-0.521-0.979-0.849-1.398c-0.327-0.417-0.708-0.748-1.143-0.992
						c-0.671-0.372-1.358-0.563-2.059-0.577c-0.702-0.014-1.434,0.097-2.199,0.332l-4.23,1.302l4.836,15.723l4.231-1.302
						c0.765-0.235,1.432-0.555,2.005-0.96c0.572-0.405,1.032-0.95,1.379-1.634c0.221-0.446,0.343-0.958,0.366-1.531
						c0.022-0.575-0.021-1.169-0.13-1.784c-0.109-0.614-0.258-1.24-0.444-1.879c-0.187-0.639-0.372-1.26-0.557-1.861
						C165.258,178.728,165.069,178.133,164.879,177.544z"/>
					<path fill="#414042" d="M175.459,187.123l-5.979-19.436l12.065-3.711l0.571,1.856l-9.99,3.073l2.107,6.852l8.517-2.62
						l0.571,1.856l-8.517,2.62l2.158,7.015l9.991-3.073l0.571,1.856L175.459,187.123z"/>
					<path fill="#414042" d="M191.836,182.085l-5.978-19.436l2.075-0.638l5.407,17.579l9.936-3.056l0.571,1.856L191.836,182.085z"/>
					<path fill="#414042" d="M217.171,166.628c0.22,0.779,0.364,1.491,0.434,2.136c0.069,0.648,0.057,1.254-0.039,1.82
						c-0.094,0.567-0.299,1.148-0.614,1.742c-0.454,0.857-1.046,1.587-1.777,2.19c-0.731,0.604-1.587,1.055-2.57,1.357
						c-1.966,0.604-3.829,0.441-5.589-0.491c-0.595-0.314-1.091-0.68-1.488-1.096c-0.396-0.416-0.748-0.909-1.054-1.484
						c-0.307-0.573-0.587-1.243-0.843-2.011c-0.257-0.769-0.544-1.671-0.863-2.708c-0.318-1.037-0.588-1.945-0.808-2.725
						c-0.22-0.779-0.365-1.491-0.434-2.137c-0.069-0.646-0.057-1.253,0.038-1.819c0.094-0.568,0.299-1.148,0.614-1.743
						c0.932-1.761,2.381-2.943,4.347-3.548s3.828-0.441,5.59,0.491c0.594,0.315,1.09,0.68,1.486,1.097
						c0.397,0.416,0.749,0.911,1.055,1.483c0.306,0.573,0.586,1.244,0.843,2.011c0.256,0.768,0.544,1.67,0.862,2.708
						C216.682,164.94,216.952,165.849,217.171,166.628z M213.454,161.975c-0.243-0.692-0.486-1.27-0.727-1.733
						c-0.242-0.463-0.51-0.845-0.8-1.144c-0.292-0.298-0.64-0.554-1.044-0.769c-0.553-0.308-1.163-0.494-1.83-0.558
						c-0.667-0.064-1.319,0.002-1.956,0.198c-0.637,0.196-1.213,0.508-1.729,0.936c-0.516,0.427-0.916,0.924-1.2,1.489
						c-0.214,0.406-0.358,0.813-0.431,1.223c-0.073,0.41-0.079,0.876-0.019,1.396c0.06,0.519,0.184,1.134,0.373,1.842
						c0.188,0.708,0.438,1.572,0.751,2.592c0.314,1.02,0.592,1.875,0.835,2.567c0.242,0.692,0.485,1.271,0.727,1.733
						c0.242,0.464,0.509,0.845,0.8,1.144c0.291,0.299,0.639,0.556,1.043,0.769c0.553,0.309,1.163,0.495,1.83,0.559
						c0.667,0.063,1.319-0.002,1.956-0.199c0.637-0.196,1.213-0.508,1.729-0.935c0.516-0.428,0.915-0.924,1.2-1.49
						c0.214-0.404,0.358-0.812,0.431-1.223c0.072-0.41,0.079-0.875,0.019-1.395c-0.061-0.518-0.184-1.133-0.373-1.842
						c-0.188-0.709-0.439-1.573-0.752-2.593S213.697,162.667,213.454,161.975z"/>
					<path fill="#414042" d="M234.535,165.619c-0.108,0.78-0.386,1.5-0.832,2.153c-0.446,0.655-1.043,1.238-1.793,1.748
						c-0.75,0.509-1.625,0.917-2.626,1.225c-1.456,0.448-2.764,0.632-3.924,0.551c-1.161-0.081-2.335-0.436-3.525-1.066l0.982-1.856
						c1.047,0.555,2.028,0.86,2.941,0.917c0.915,0.058,1.917-0.082,3.01-0.417c1.419-0.437,2.442-1.094,3.067-1.974
						c0.626-0.88,0.763-1.893,0.41-3.039c-0.157-0.51-0.378-0.95-0.661-1.321c-0.283-0.37-0.622-0.646-1.015-0.823
						c-0.394-0.178-0.776-0.274-1.15-0.289c-0.373-0.015-0.931,0.033-1.674,0.142l-2.375,0.341
						c-1.625,0.222-2.969,0.097-4.029-0.375c-1.251-0.571-2.114-1.63-2.59-3.177c-0.252-0.819-0.338-1.614-0.257-2.386
						c0.081-0.772,0.317-1.477,0.709-2.115c0.391-0.639,0.929-1.206,1.612-1.706c0.683-0.499,1.507-0.896,2.471-1.193
						c1.237-0.381,2.354-0.54,3.349-0.478s2.027,0.339,3.093,0.826l-0.926,1.75c-0.769-0.361-1.542-0.577-2.32-0.646
						c-0.779-0.069-1.686,0.056-2.723,0.375c-1.311,0.403-2.22,1.041-2.728,1.915s-0.594,1.856-0.258,2.948
						c0.302,0.983,0.823,1.64,1.562,1.969c0.388,0.16,0.842,0.26,1.362,0.299c0.52,0.04,1.048,0.026,1.586-0.039l2.23-0.328
						c0.477-0.066,0.906-0.115,1.286-0.142c0.381-0.027,0.724-0.028,1.03-0.002c0.306,0.025,0.595,0.071,0.864,0.137
						c0.27,0.067,0.532,0.16,0.788,0.281c1.377,0.592,2.318,1.707,2.822,3.344C234.566,164.022,234.643,164.84,234.535,165.619z"/>
					<path fill="#414042" d="M258.155,153.14c0.22,0.749,0.387,1.5,0.498,2.252c0.113,0.753,0.137,1.496,0.075,2.232
						c-0.063,0.737-0.27,1.439-0.623,2.104c-0.403,0.762-0.977,1.427-1.718,1.993c-0.742,0.567-1.622,1.006-2.642,1.32l-6.66,2.048
						l-5.979-19.436l6.66-2.048c1.02-0.314,1.995-0.444,2.927-0.393c0.932,0.053,1.779,0.281,2.541,0.683
						c0.666,0.354,1.225,0.794,1.677,1.323c0.451,0.528,0.834,1.108,1.147,1.738c0.314,0.631,0.583,1.295,0.807,1.992
						c0.225,0.699,0.44,1.383,0.647,2.057S257.934,152.392,258.155,153.14z M254.875,149.861c-0.191-0.589-0.406-1.14-0.644-1.655
						c-0.238-0.514-0.521-0.979-0.848-1.398c-0.328-0.417-0.708-0.748-1.142-0.992c-0.672-0.372-1.358-0.563-2.06-0.577
						c-0.702-0.014-1.435,0.097-2.198,0.332l-4.231,1.301l4.836,15.723l4.231-1.301c0.764-0.235,1.432-0.555,2.006-0.96
						c0.572-0.405,1.031-0.95,1.379-1.634c0.222-0.446,0.343-0.958,0.366-1.531c0.021-0.575-0.021-1.169-0.131-1.784
						c-0.109-0.614-0.257-1.24-0.443-1.879c-0.188-0.64-0.373-1.26-0.558-1.861C255.254,151.044,255.066,150.449,254.875,149.861z"
						/>
					<path fill="#414042" d="M265.456,159.439l-5.979-19.436l12.065-3.711l0.571,1.856l-9.991,3.073l2.107,6.852l8.518-2.62
						l0.571,1.856l-8.517,2.62l2.158,7.015l9.991-3.073l0.571,1.856L265.456,159.439z"/>
					<path fill="#414042" d="M299.621,145.45c-0.17,0.839-0.476,1.595-0.916,2.269c-0.441,0.673-0.993,1.257-1.658,1.749
						c-0.665,0.495-1.434,0.875-2.308,1.143c-0.965,0.297-1.923,0.403-2.875,0.318s-1.857-0.355-2.714-0.809
						c-0.595-0.314-1.091-0.68-1.488-1.096c-0.396-0.416-0.748-0.91-1.054-1.484c-0.306-0.573-0.586-1.243-0.842-2.011
						c-0.256-0.769-0.544-1.671-0.863-2.708c-0.319-1.037-0.589-1.945-0.809-2.725c-0.22-0.779-0.364-1.491-0.433-2.137
						c-0.069-0.646-0.056-1.253,0.038-1.819c0.095-0.568,0.3-1.148,0.615-1.743c0.453-0.857,1.05-1.588,1.79-2.194
						s1.592-1.057,2.557-1.354c0.874-0.269,1.724-0.386,2.551-0.352c0.828,0.036,1.612,0.207,2.355,0.516
						c0.742,0.309,1.42,0.764,2.032,1.362c0.612,0.599,1.141,1.328,1.584,2.186l-2.129,0.655c-0.624-1.122-1.446-1.916-2.464-2.378
						c-1.02-0.463-2.139-0.508-3.358-0.133c-0.637,0.196-1.215,0.504-1.733,0.922c-0.519,0.418-0.92,0.911-1.205,1.477
						c-0.214,0.404-0.358,0.812-0.431,1.222c-0.073,0.412-0.078,0.88-0.015,1.409s0.188,1.148,0.377,1.856
						c0.188,0.708,0.438,1.572,0.752,2.592c0.314,1.02,0.592,1.875,0.835,2.567c0.242,0.692,0.486,1.274,0.731,1.747
						c0.245,0.472,0.513,0.858,0.804,1.156c0.291,0.299,0.639,0.556,1.044,0.771c0.553,0.308,1.161,0.489,1.826,0.543
						c0.664,0.055,1.314-0.016,1.952-0.212c1.219-0.375,2.129-1.043,2.729-2.005s0.844-2.082,0.729-3.362l2.075-0.638
						C299.819,143.711,299.792,144.61,299.621,145.45z"/>
					<path fill="#414042" d="M317.073,143.562l-2.908-3.916l-8.489,2.611l-0.204,4.874l-2.211,0.68l1.173-21.635l1.747-0.538
						l13.103,17.244L317.073,143.562z M306.25,128.874l-0.501,11.39l7.261-2.233L306.25,128.874z"/>
					<path fill="#414042" d="M322.423,141.917l-5.979-19.436l2.074-0.638l5.407,17.579l9.936-3.057l0.571,1.856L322.423,141.917z"/>
					<path fill="#414042" d="M338.064,137.105l-5.978-19.436l2.074-0.638l5.978,19.436L338.064,137.105z"/>
					<path fill="#414042" d="M356.832,122.787c0.22,0.749,0.387,1.499,0.498,2.251c0.112,0.753,0.137,1.497,0.075,2.233
						c-0.063,0.736-0.27,1.438-0.623,2.104c-0.403,0.762-0.977,1.427-1.718,1.993c-0.742,0.567-1.622,1.007-2.642,1.32l-6.66,2.049
						l-5.979-19.436l6.66-2.049c1.02-0.313,1.995-0.443,2.927-0.393c0.933,0.053,1.779,0.281,2.541,0.683
						c0.666,0.353,1.225,0.793,1.677,1.323c0.451,0.528,0.833,1.107,1.147,1.738c0.314,0.631,0.583,1.295,0.807,1.993
						c0.225,0.698,0.44,1.383,0.647,2.057S356.611,122.038,356.832,122.787z M353.552,119.508c-0.192-0.589-0.406-1.14-0.644-1.654
						c-0.238-0.514-0.521-0.979-0.849-1.398c-0.327-0.417-0.708-0.747-1.142-0.992c-0.672-0.372-1.359-0.563-2.06-0.577
						c-0.702-0.014-1.435,0.097-2.198,0.333l-4.231,1.301l4.836,15.723l4.231-1.301c0.764-0.235,1.432-0.555,2.006-0.96
						c0.571-0.405,1.031-0.95,1.379-1.634c0.222-0.445,0.343-0.958,0.365-1.531c0.022-0.575-0.021-1.169-0.13-1.783
						s-0.258-1.24-0.443-1.88c-0.188-0.639-0.373-1.26-0.558-1.86C353.931,120.691,353.743,120.096,353.552,119.508z"/>
					<path fill="#414042" d="M375.188,125.686l-2.908-3.916l-8.489,2.611l-0.205,4.874l-2.211,0.68l1.174-21.636l1.747-0.537
						l13.103,17.244L375.188,125.686z M364.366,110.997l-0.501,11.39l7.261-2.233L364.366,110.997z"/>
					<path fill="#414042" d="M391.607,112.09c0.221,0.749,0.387,1.5,0.499,2.252c0.112,0.753,0.136,1.496,0.074,2.232
						c-0.063,0.736-0.271,1.438-0.623,2.104c-0.403,0.762-0.976,1.427-1.717,1.993c-0.742,0.567-1.623,1.007-2.643,1.32l-6.66,2.049
						l-5.978-19.436l6.66-2.049c1.02-0.313,1.995-0.443,2.927-0.393c0.932,0.053,1.779,0.281,2.54,0.683
						c0.666,0.353,1.226,0.793,1.677,1.323c0.451,0.528,0.834,1.107,1.147,1.738c0.314,0.631,0.582,1.295,0.807,1.992
						c0.226,0.698,0.441,1.383,0.648,2.057C391.173,110.63,391.387,111.341,391.607,112.09z M388.328,108.811
						c-0.191-0.589-0.406-1.14-0.644-1.654c-0.238-0.514-0.521-0.979-0.848-1.398c-0.327-0.417-0.708-0.748-1.143-0.993
						c-0.672-0.372-1.358-0.563-2.059-0.576c-0.702-0.014-1.434,0.097-2.199,0.332l-4.231,1.301l4.836,15.723l4.231-1.301
						c0.764-0.235,1.432-0.555,2.005-0.96c0.572-0.405,1.032-0.951,1.379-1.635c0.221-0.445,0.343-0.958,0.366-1.531
						c0.021-0.576-0.021-1.169-0.13-1.784c-0.109-0.614-0.258-1.24-0.444-1.88c-0.187-0.639-0.372-1.26-0.557-1.86
						C388.707,109.994,388.519,109.399,388.328,108.811z"/>
				</g>
			</g>
			<g>
				<g>
					<path fill="#414042" d="M125.022,233.974l-5.162-16.781l11.054-3.4l0.899,2.923l-7.778,2.392l1.21,3.937l6.623-2.037
						l0.899,2.922l-6.623,2.037l1.254,4.077l7.778-2.392l0.899,2.923L125.022,233.974z"/>
					<path fill="#414042" d="M150.831,226.035l-9.814-8.255l3.168,10.3l-3.276,1.008l-5.162-16.781l2.923-0.899l9.808,8.232
						l-3.161-10.276l3.276-1.007l5.162,16.781L150.831,226.035z"/>
					<path fill="#414042" d="M166.387,221.25l-5.162-16.781l11.054-3.4l0.899,2.923l-7.778,2.393l1.21,3.937l6.623-2.037
						l0.898,2.922l-6.622,2.037l1.254,4.077l7.778-2.393l0.899,2.923L166.387,221.25z"/>
					<path fill="#414042" d="M182.273,216.363l-5.162-16.781l3.275-1.008l4.263,13.858l7.612-2.341l0.899,2.923L182.273,216.363z"/>
					<path fill="#414042" d="M214.542,204.683c-0.768,1.448-2.194,2.429-3.938,2.965l-6.057,1.863l-5.162-16.781l6.058-1.863
						c1.744-0.536,3.475-0.527,4.924,0.24c2.465,1.306,2.987,3.674,3.763,6.195C214.906,199.824,215.848,202.218,214.542,204.683z
						 M208.806,194.167c-0.776-0.509-1.639-0.631-2.77-0.283l-2.475,0.761l3.364,10.936l2.475-0.761
						c1.131-0.348,1.776-0.934,2.132-1.792c0.38-0.942,0.104-2.173-0.679-4.719C210.07,195.765,209.65,194.733,208.806,194.167z"/>
					<path fill="#414042" d="M221.707,204.234l-5.162-16.781l11.054-3.4l0.899,2.923l-7.778,2.393l1.211,3.937l6.623-2.037
						l0.898,2.922l-6.623,2.037l1.254,4.077l7.778-2.393l0.899,2.923L221.707,204.234z"/>
					<path fill="#414042" d="M242.255,198.068c-2.546,0.783-4.645,0.835-6.81-0.331l1.469-2.774
						c1.387,0.734,2.933,0.646,4.489,0.167c1.932-0.594,2.744-1.644,2.331-2.988c-0.181-0.589-0.498-1.033-0.952-1.253
						c-0.425-0.206-0.853-0.255-1.667-0.133l-2.114,0.34c-1.503,0.23-2.701,0.108-3.68-0.389c-1.048-0.555-1.782-1.516-2.218-2.931
						c-0.92-2.992,0.65-5.772,4.279-6.889c2.311-0.711,4.157-0.66,6.023,0.288l-1.443,2.689c-1.373-0.688-2.689-0.437-3.797-0.096
						c-1.744,0.536-2.295,1.763-1.939,2.918c0.13,0.424,0.408,0.828,0.864,1.05c0.424,0.204,1.045,0.297,1.759,0.181l2.066-0.326
						c1.597-0.259,2.694-0.132,3.604,0.311c1.156,0.572,1.934,1.674,2.391,3.16C247.912,194.315,245.767,196.987,242.255,198.068z"
						/>
					<path fill="#414042" d="M262.694,191.626l-1.904-2.666l-5.962,1.834l-0.1,3.282l-3.417,1.051l0.942-18.659l2.569-0.791
						l11.29,14.896L262.694,191.626z M255.142,180.997l-0.244,6.757l4.172-1.284L255.142,180.997z"/>
					<path fill="#414042" d="M278.721,186.696l-5.334-5.686l-2.356,0.725l2.059,6.693l-3.276,1.007l-5.162-16.781l6.575-2.022
						c3.418-1.051,6.162,0.659,7.024,3.463c0.726,2.357-0.263,4.261-1.708,5.35l5.973,6.083L278.721,186.696z M271.913,173.621
						l-3.087,0.95l1.363,4.431l3.087-0.95c1.438-0.442,2.098-1.651,1.699-2.948C274.576,173.807,273.351,173.178,271.913,173.621z"
						/>
					<path fill="#414042" d="M295.762,181.454l-5.335-5.686l-2.357,0.725l2.059,6.693l-3.276,1.008l-5.162-16.781l6.576-2.022
						c3.417-1.051,6.162,0.659,7.024,3.463c0.726,2.357-0.264,4.261-1.708,5.35l5.973,6.084L295.762,181.454z M288.954,168.378
						l-3.088,0.95l1.363,4.431l3.088-0.95c1.438-0.442,2.097-1.651,1.698-2.948C291.617,168.565,290.392,167.937,288.954,168.378z"
						/>
					<path fill="#414042" d="M313.53,174.131c-0.816,1.54-2.05,2.644-3.959,3.23c-1.909,0.587-3.574,0.376-5.114-0.439
						c-2.219-1.174-2.817-3.287-3.709-6.186c-0.892-2.899-1.584-4.981-0.409-7.201c0.815-1.54,2.074-2.651,3.983-3.238
						c1.909-0.587,3.55-0.368,5.091,0.447c2.219,1.175,2.84,3.279,3.732,6.178C314.037,169.822,314.705,171.912,313.53,174.131z
						 M307.594,163.47c-0.638-0.397-1.477-0.525-2.373-0.25c-0.896,0.275-1.541,0.86-1.846,1.547
						c-0.419,0.903-0.344,1.732,0.649,4.96s1.397,3.956,2.251,4.467c0.639,0.397,1.501,0.519,2.396,0.243
						c0.896-0.275,1.518-0.854,1.822-1.541c0.419-0.903,0.368-1.739-0.625-4.968S308.447,163.981,307.594,163.47z"/>
					<path fill="#414042" d="M320.7,173.783l-5.162-16.781l3.276-1.008l4.263,13.858l7.612-2.342l0.899,2.923L320.7,173.783z"/>
					<path fill="#414042" d="M335.879,169.114l-5.162-16.781l3.275-1.007l4.263,13.858l7.612-2.342l0.899,2.923L335.879,169.114z"/>
					<path fill="#414042" d="M360.081,159.812c-0.816,1.54-2.05,2.644-3.959,3.23c-1.909,0.587-3.574,0.376-5.114-0.439
						c-2.219-1.174-2.817-3.286-3.709-6.186c-0.892-2.899-1.584-4.982-0.409-7.201c0.816-1.54,2.074-2.651,3.983-3.238
						c1.909-0.587,3.55-0.368,5.091,0.447c2.219,1.175,2.841,3.279,3.732,6.179C360.588,155.503,361.256,157.593,360.081,159.812z
						 M354.145,149.151c-0.638-0.397-1.477-0.525-2.373-0.25c-0.896,0.276-1.541,0.86-1.846,1.547
						c-0.419,0.903-0.345,1.732,0.648,4.96s1.398,3.956,2.251,4.467c0.638,0.397,1.5,0.519,2.396,0.243
						c0.896-0.275,1.517-0.854,1.822-1.541c0.419-0.903,0.368-1.739-0.625-4.968S354.999,149.662,354.145,149.151z"/>
					<path fill="#414042" d="M384.34,152.453c-0.767,1.448-2.194,2.429-3.938,2.966l-6.057,1.863l-5.162-16.781l6.057-1.863
						c1.744-0.537,3.476-0.527,4.924,0.239c2.465,1.306,2.987,3.674,3.763,6.195C384.704,147.594,385.646,149.987,384.34,152.453z
						 M378.604,141.938c-0.776-0.51-1.639-0.631-2.77-0.283l-2.475,0.761l3.364,10.936l2.475-0.761
						c1.131-0.348,1.777-0.934,2.132-1.791c0.38-0.942,0.104-2.174-0.679-4.72C379.868,143.534,379.448,142.503,378.604,141.938z"/>
					<path fill="#414042" d="M391.504,152.003l-5.162-16.781l11.055-3.4l0.899,2.923l-7.778,2.393l1.211,3.937l6.622-2.037
						l0.899,2.922l-6.623,2.037l1.254,4.077l7.778-2.393l0.899,2.923L391.504,152.003z"/>
				</g>
			</g>
			<g>
				<g>
					<path fill="#DB5940" d="M153.385,278.813c-5.91,1.817-10.785,1.939-15.81-0.768l3.41-6.439
						c3.22,1.705,6.811,1.499,10.422,0.388c4.487-1.38,6.374-3.817,5.414-6.938c-0.421-1.367-1.158-2.399-2.214-2.912
						c-0.985-0.476-1.979-0.59-3.869-0.308l-4.908,0.791c-3.489,0.534-6.272,0.251-8.545-0.906c-2.433-1.289-4.137-3.52-5.147-6.804
						c-2.137-6.949,1.508-13.401,9.935-15.994c5.362-1.649,9.651-1.531,13.982,0.67l-3.351,6.242
						c-3.187-1.595-6.242-1.015-8.813-0.224c-4.05,1.246-5.33,4.095-4.505,6.776c0.303,0.985,0.951,1.923,2.007,2.438
						c0.985,0.475,2.429,0.69,4.083,0.421l4.799-0.757c3.708-0.602,6.254-0.307,8.368,0.72c2.686,1.331,4.491,3.89,5.552,7.338
						C166.518,270.1,161.539,276.304,153.385,278.813z"/>
					<path fill="#DB5940" d="M197.271,260.641c-1.895,3.578-4.762,6.137-9.193,7.5c-4.433,1.364-8.297,0.875-11.875-1.02
						c-5.151-2.728-6.54-7.632-8.61-14.362c-2.07-6.73-3.678-11.568-0.95-16.719c1.895-3.578,4.816-6.154,9.249-7.518
						c4.432-1.363,8.242-0.858,11.819,1.037c5.152,2.728,6.595,7.615,8.666,14.346C198.445,250.635,199.999,255.489,197.271,260.641
						z M183.488,235.889c-1.481-0.921-3.431-1.22-5.51-0.58c-2.08,0.64-3.578,1.999-4.286,3.593
						c-0.973,2.096-0.8,4.021,1.507,11.518c2.306,7.496,3.244,9.185,5.227,10.371c1.481,0.922,3.485,1.205,5.564,0.565
						s3.523-1.982,4.23-3.578c0.973-2.095,0.855-4.036-1.451-11.532C186.463,238.748,185.469,237.076,183.488,235.889z"/>
					<path fill="#DB5940" d="M207.847,226.479l2.945,9.577l15.377-4.73l2.087,6.785l-15.377,4.73l4.865,15.814l-7.606,2.34
						l-11.984-38.962l25.664-7.895l2.087,6.785L207.847,226.479z"/>
					<path fill="#DB5940" d="M247.41,214.31l9.897,32.177l-7.605,2.339l-9.897-32.177l-10.179,3.131l-2.087-6.785l27.963-8.602
						l2.087,6.785L247.41,214.31z"/>
					<path fill="#DB5940" d="M306.885,231.236l-6.349,1.953l-14.439-21.435l0.104,25.845l-6.348,1.953l-22.382-35.764l7.935-2.441
						l13.577,22.719l-0.444-26.759l5.691-1.75l14.671,22.382l-1.483-26.438l7.935-2.441L306.885,231.236z"/>
					<path fill="#DB5940" d="M343.494,219.975l-4.419-6.188l-13.845,4.258l-0.232,7.62l-7.935,2.441l2.188-43.322l5.965-1.834
						l26.212,34.585L343.494,219.975z M325.959,195.299l-0.565,15.688l9.686-2.979L325.959,195.299z"/>
					<path fill="#DB5940" d="M376.927,209.691l-12.387-13.202l-5.472,1.684l4.781,15.541l-7.606,2.339l-11.984-38.962l15.267-4.696
						c7.935-2.441,14.307,1.529,16.31,8.041c1.683,5.473-0.611,9.891-3.965,12.421l13.868,14.123L376.927,209.691z M361.12,179.332
						l-7.168,2.205l3.164,10.288l7.169-2.205c3.338-1.027,4.87-3.834,3.944-6.844S364.458,178.305,361.12,179.332z"/>
					<path fill="#DB5940" d="M392.03,205.045l-11.984-38.962l25.664-7.894l2.087,6.785l-18.058,5.555l2.811,9.139l15.377-4.73
						l2.087,6.785l-15.377,4.73l2.912,9.467l18.059-5.555l2.087,6.786L392.03,205.045z"/>
				</g>
			</g>
		</g>
		<g>
			<path fill-rule="evenodd" clip-rule="evenodd" fill="#A1A1A1" d="M332.816,248.279l0.682,2.238
				c0.343,1.127-0.292,2.318-1.418,2.662c-1.126,0.342-2.318-0.293-2.662-1.42l-0.682-2.238l-2.238,0.682
				c-1.127,0.344-2.318-0.291-2.662-1.418c-0.343-1.127,0.293-2.318,1.419-2.66l2.239-0.683l-0.684-2.239
				c-0.342-1.126,0.295-2.318,1.42-2.661c1.126-0.343,2.317,0.292,2.66,1.419l0.683,2.238l2.239-0.683
				c1.127-0.343,2.318,0.293,2.661,1.419c0.343,1.127-0.292,2.318-1.419,2.661L332.816,248.279z"/>
			<path fill-rule="evenodd" clip-rule="evenodd" fill="#414042" d="M333.598,248.695l0.499,1.64
				c0.222,0.725,0.126,1.475-0.206,2.099l-0.002,0.004c-0.332,0.623-0.901,1.119-1.626,1.341c-0.727,0.222-1.476,0.126-2.101-0.207
				c-0.623-0.33-1.121-0.9-1.342-1.628l-0.5-1.641l-1.641,0.499c-0.727,0.222-1.476,0.126-2.098-0.204l-0.004-0.002
				c-0.623-0.332-1.119-0.901-1.34-1.627c-0.222-0.729-0.127-1.477,0.205-2.1l0.002-0.004c0.332-0.621,0.9-1.117,1.627-1.34
				l1.641-0.5l-0.5-1.641c-0.221-0.725-0.126-1.475,0.205-2.098l0.002-0.004c0.334-0.623,0.902-1.119,1.629-1.34
				c0.724-0.222,1.473-0.127,2.098,0.205l0.003,0.002c0.624,0.333,1.119,0.902,1.341,1.627l0.5,1.641l1.64-0.498
				c0.728-0.223,1.476-0.127,2.099,0.205l0.004,0.001c0.622,0.332,1.118,0.9,1.34,1.628c0.221,0.727,0.127,1.475-0.205,2.098
				l-0.002,0.004c-0.332,0.622-0.9,1.119-1.627,1.34L333.598,248.695L333.598,248.695z M332.899,250.701l-0.864-2.839l2.838-0.864
				c0.398-0.121,0.71-0.393,0.892-0.732c0.181-0.34,0.232-0.748,0.11-1.147s-0.393-0.711-0.731-0.892
				c-0.34-0.181-0.75-0.232-1.147-0.111l-2.84,0.865l-0.863-2.838c-0.122-0.399-0.393-0.711-0.73-0.891l-0.004-0.002
				c-0.338-0.181-0.746-0.23-1.147-0.109c-0.398,0.121-0.711,0.393-0.891,0.73l-0.001,0.003c-0.181,0.337-0.231,0.747-0.11,1.146
				l0.865,2.839l-2.838,0.863c-0.4,0.121-0.711,0.393-0.893,0.732c-0.18,0.34-0.23,0.749-0.109,1.148
				c0.121,0.398,0.393,0.71,0.732,0.893c0.339,0.179,0.749,0.23,1.147,0.109l2.838-0.865l0.865,2.838
				c0.121,0.398,0.393,0.709,0.732,0.891v0.002c0.339,0.18,0.748,0.23,1.147,0.109c0.399-0.121,0.711-0.391,0.891-0.73l0.002-0.002
				C332.971,251.51,333.021,251.1,332.899,250.701z"/>
		</g>
		<g>
			<path fill-rule="evenodd" clip-rule="evenodd" fill="#DB5940" d="M228.159,138.729l0.682,2.239
				c0.343,1.127-0.292,2.319-1.417,2.662c-1.127,0.343-2.318-0.293-2.662-1.419l-0.682-2.239l-2.239,0.682
				c-1.126,0.343-2.318-0.292-2.661-1.418c-0.344-1.126,0.293-2.318,1.418-2.661l2.239-0.682l-0.683-2.24
				c-0.342-1.125,0.294-2.318,1.42-2.661c1.125-0.343,2.316,0.292,2.66,1.419l0.682,2.239l2.24-0.683
				c1.127-0.343,2.317,0.293,2.66,1.419c0.344,1.126-0.291,2.318-1.418,2.661L228.159,138.729z"/>
			<path fill-rule="evenodd" clip-rule="evenodd" fill="#414042" d="M228.94,139.145l0.499,1.64
				c0.222,0.726,0.127,1.476-0.205,2.099l-0.002,0.003c-0.333,0.624-0.902,1.12-1.627,1.341c-0.727,0.221-1.475,0.126-2.101-0.207
				c-0.623-0.33-1.12-0.9-1.342-1.628l-0.5-1.64l-1.64,0.499c-0.727,0.222-1.477,0.126-2.099-0.205l-0.004-0.002
				c-0.622-0.332-1.118-0.901-1.34-1.626c-0.222-0.728-0.127-1.477,0.205-2.099l0.002-0.004c0.332-0.622,0.901-1.118,1.628-1.34
				l1.64-0.5l-0.499-1.641c-0.222-0.726-0.127-1.475,0.205-2.099l0.002-0.003c0.334-0.624,0.902-1.12,1.628-1.341
				c0.724-0.221,1.474-0.127,2.098,0.206l0.003,0.001c0.624,0.333,1.119,0.902,1.342,1.627l0.5,1.641l1.639-0.499
				c0.728-0.222,1.477-0.127,2.1,0.205l0.004,0.001c0.621,0.332,1.117,0.9,1.339,1.628c0.222,0.726,0.128,1.475-0.205,2.098
				l-0.002,0.003c-0.332,0.622-0.9,1.119-1.627,1.34L228.94,139.145L228.94,139.145z M228.242,141.15l-0.864-2.838l2.838-0.864
				c0.399-0.121,0.71-0.393,0.892-0.732c0.181-0.34,0.232-0.749,0.111-1.148c-0.121-0.399-0.393-0.711-0.732-0.892
				c-0.34-0.181-0.75-0.232-1.147-0.111l-2.839,0.865l-0.864-2.838c-0.122-0.399-0.393-0.711-0.729-0.891l-0.004-0.001
				c-0.338-0.181-0.747-0.231-1.146-0.109c-0.399,0.122-0.711,0.392-0.891,0.73l-0.002,0.003c-0.181,0.337-0.232,0.747-0.109,1.146
				l0.864,2.838l-2.838,0.864c-0.399,0.122-0.71,0.392-0.892,0.732c-0.181,0.339-0.231,0.749-0.109,1.148
				c0.121,0.398,0.392,0.71,0.73,0.893c0.34,0.179,0.75,0.23,1.148,0.109l2.838-0.865l0.864,2.837
				c0.122,0.399,0.393,0.71,0.733,0.892v0.002c0.338,0.18,0.748,0.23,1.146,0.109c0.4-0.122,0.711-0.392,0.891-0.731l0.002-0.002
				C228.313,141.959,228.364,141.55,228.242,141.15z"/>
		</g>
		<path fill-rule="evenodd" clip-rule="evenodd" fill="#E3E3E3" d="M186.82,144.634c-27.557,8.46-23.643,7.259-51.197,15.72
			c-3.862,1.185-7.99-1.004-9.175-4.866l0,0c-1.186-3.86,1.003-7.99,4.863-9.175l51.198-15.718c3.86-1.186,7.989,1.004,9.174,4.864
			l0,0C192.869,139.32,190.681,143.449,186.82,144.634z"/>
		<path fill-rule="evenodd" clip-rule="evenodd" fill="#414042" d="M153.941,139.365l-38.598,11.851
			c-0.909,0.28-1.426,1.255-1.146,2.165c0.279,0.91,1.254,1.427,2.164,1.146l38.597-11.85c0.91-0.279,1.427-1.254,1.146-2.164
			C155.824,139.603,154.852,139.086,153.941,139.365L153.941,139.365z M181.258,130.684l-15.102,4.636
			c-0.91,0.28-1.427,1.254-1.148,2.165c0.28,0.911,1.255,1.426,2.164,1.146l15.102-4.636c0.91-0.279,1.428-1.253,1.148-2.164
			C183.143,130.921,182.168,130.405,181.258,130.684z"/>
		<path fill-rule="evenodd" clip-rule="evenodd" fill="#E3E3E3" d="M357.369,91.762c-16.855,4.667,6.184-1.712-10.672,2.955
			c-2.361,0.654-4.828-0.743-5.483-3.104l0,0c-0.653-2.362,0.743-4.829,3.105-5.483l10.671-2.955
			c2.361-0.654,4.829,0.744,5.482,3.105l0,0C361.127,88.641,359.73,91.107,357.369,91.762z"/>
		<path fill-rule="evenodd" clip-rule="evenodd" fill="#414042" d="M330.926,89.838l23.607-6.537
			c0.557-0.154,1.139,0.176,1.293,0.733c0.154,0.557-0.176,1.138-0.732,1.293l-23.607,6.537c-0.557,0.154-1.139-0.175-1.293-0.732
			C330.039,90.574,330.369,89.992,330.926,89.838z"/>
		<g>
			<path fill-rule="evenodd" clip-rule="evenodd" fill="#E3E3E3" d="M416.103,216.885l-9.328,2.826
				c-2.346,0.711-3.684,3.21-2.973,5.557c0.711,2.344,3.21,3.682,5.556,2.972l1.674-0.507c2.345-0.711,4.845,0.627,5.556,2.972l0,0
				c0.709,2.345-0.627,4.845-2.973,5.556l-26.068,7.896c-2.346,0.71-4.845-0.628-5.555-2.973l0,0
				c-0.711-2.345,0.627-4.844,2.972-5.556l4.432-1.342c2.345-0.71,3.683-3.211,2.972-5.556c-0.711-2.346-3.21-3.683-5.555-2.973
				l-20.921,6.338c-2.345,0.711-4.846-0.627-5.556-2.973l0,0c-0.711-2.346,0.627-4.845,2.973-5.557l50.212-15.209
				c2.347-0.711,4.845,0.626,5.556,2.971l0,0C419.787,213.674,418.45,216.175,416.103,216.885z"/>
			<path fill-rule="evenodd" clip-rule="evenodd" fill="#414042" d="M383.055,217.586l23.442-7.102
				c0.554-0.167,1.143,0.149,1.309,0.702c0.168,0.552-0.147,1.142-0.701,1.309l-23.442,7.102c-0.554,0.168-1.144-0.146-1.31-0.699
				C382.185,218.345,382.5,217.754,383.055,217.586z"/>
		</g>
		<g>
			<path fill-rule="evenodd" clip-rule="evenodd" fill="#E3E3E3" d="M221.104,277.781l-9.328,2.826
				c-2.346,0.711-3.684,3.209-2.973,5.556c0.711,2.345,3.21,3.683,5.556,2.972l1.674-0.507c2.345-0.71,4.845,0.627,5.556,2.972l0,0
				c0.709,2.346-0.627,4.846-2.973,5.557l-26.068,7.895c-2.346,0.71-4.845-0.628-5.555-2.972l0,0
				c-0.711-2.346,0.627-4.845,2.972-5.557l4.432-1.342c2.345-0.71,3.683-3.211,2.972-5.555c-0.711-2.346-3.21-3.684-5.555-2.973
				l-20.921,6.338c-2.345,0.71-4.846-0.628-5.556-2.974l0,0c-0.711-2.345,0.627-4.845,2.973-5.556l50.212-15.209
				c2.347-0.712,4.845,0.626,5.556,2.971l0,0C224.787,274.57,223.45,277.07,221.104,277.781z"/>
			<path fill-rule="evenodd" clip-rule="evenodd" fill="#414042" d="M188.055,278.481l23.442-7.102
				c0.554-0.167,1.143,0.149,1.309,0.702c0.168,0.552-0.147,1.141-0.701,1.309l-23.442,7.102c-0.554,0.168-1.144-0.147-1.31-0.7
				C187.186,279.24,187.5,278.65,188.055,278.481z"/>
		</g>
		<path opacity="0.2" fill="#949596" d="M655.556,211.508l40.602,142.727l-18.649,5.306c-6.603-9.076-14.354-19.733-22.763-31.298
			c-0.085-0.115-0.173-0.238-0.259-0.362c-3.469-4.772-7.055-9.697-10.707-14.729c-10.715-14.734-22.092-30.38-33.275-45.768
			c-3.525-4.845-7.029-9.667-10.484-14.42c-3.656-5.038-7.267-10.001-10.793-14.846c-1.137-1.563-2.262-3.116-3.373-4.649
			c-18.447-25.375-34.283-47.168-42.785-58.875l-3.822,1.087l-2.453,0.705l-3.711,1.055l-5.017,1.435l-6.09,1.732l-10.289,2.935
			l-0.578,0.164l-7.051,2.014l-6.516,1.861l-17.285,4.932l-11.725,3.344c-0.379,0.159-0.763,0.298-1.169,0.413
			c-0.358,0.102-0.714,0.181-1.069,0.236c-0.328,0.132-0.65,0.246-0.995,0.342c-0.081,0.025-0.171,0.05-0.264,0.07l-0.006,0.001
			c-2.867,0.629-7.736-0.891-11.854-2.542c-4.02-1.62-7.328-3.371-7.328-3.371l0.073-0.139c0.188-0.307,0.69-1.147,1.433-2.281
			c0.567-0.874,1.266-1.92,2.063-3.039c2.822-3.975,6.801-8.822,9.951-9.71c0.344-0.098,0.68-0.171,1.022-0.223
			c0.266-0.115,0.539-0.198,0.818-0.286l-0.002-0.007l0.158-0.046c0.02-0.005,0.039-0.018,0.06-0.023
			c0.02-0.006,0.043-0.005,0.063-0.011l13.813-3.921l16.352-4.638l28.67-8.141l1.865-0.525l7.838-2.229l2.834-0.797l5.314-1.513
			l0.155-1.017l1.267-8.141l0.289-1.88l1.27-8.156l1.289-8.317c-0.02-0.068-0.037-0.131-0.045-0.188
			c-0.285-1.545,2.668-2.215,7.279-2.07c0.66,0.021,1.361,0.06,2.093,0.118c0.956,0.07,1.974,0.174,3.028,0.305
			c0.802,0.099,1.631,0.22,2.479,0.352c0.421,0.071,0.851,0.143,1.285,0.212c0.174,0.033,0.354,0.064,0.535,0.102
			c0.969,0.17,1.963,0.37,2.969,0.588c2.01,0.432,4.074,0.952,6.135,1.555c0.005-0.008,0.006-0.002,0.006-0.002
			c1.848,0.538,3.695,1.133,5.499,1.802c2.142,0.789,4.22,1.668,6.183,2.64c4.162,2.04,7.773,4.492,10.203,7.314l9.388-2.759
			c0.371-0.157,0.748-0.295,1.14-0.405l5.804-1.644l4.622-1.307c5.504-1.551,11.29,1.892,12.936,7.697
			c1.637,5.806-1.49,11.77-7,13.323l-4.615,1.304l-5.805,1.644c-0.357,0.102-0.713,0.181-1.075,0.24l-2.696,0.767l40.543,60.395
			L655.556,211.508z"/>
		<path opacity="0.2" fill="#949596" d="M410.789,178.053l117.878,96.521c0,0,21.201,12.785,33.774,9.207
			c6.129-1.743,11.01-3.201,15.053-6.515c6.436-5.274,10.258-11.952,12.127-20.964l-24.641-102.51l-61.213-25.449L410.789,178.053z"
			/>
		<g>
			<g>
				<path fill="#DB926E" d="M530.014,219.217c-5.146,0-10.291-1.974-14.201-5.918c-7.775-7.842-7.72-20.503,0.122-28.278l4.05-4.015
					c-3.789-15.538-10.277-16.859-15.21-17.863c-14.722-2.995-24.219-1.077-44.179,8.925c-9.873,4.949-21.888,0.955-26.835-8.918
					c-4.948-9.873-0.955-21.887,8.919-26.835c23.925-11.989,43.059-17.854,70.068-12.36c14.127,2.875,25.431,9.685,33.597,20.242
					c7.798,10.081,12.703,23.503,14.995,41.031c0.809,6.188-1.317,12.398-5.749,16.792l-11.5,11.401
					C540.192,217.286,535.102,219.216,530.014,219.217z"/>
			</g>
			<g>
				<path fill="#FFB287" d="M534.319,165.292l8.644-22.968c8.992-5.213,6.979-13.599,19.803,3.061l81.943,147.376
					c5.214,8.991,2.124,20.612-6.865,25.825l-13.096,7.595c-8.99,5.214-20.613,2.125-25.827-6.866l-75.837-130.768
					C517.871,179.557,527.335,172.438,534.319,165.292z"/>
			</g>
			<g>
				<path fill="#FFB287" d="M544.926,196.175c23.166,9.888,29.233,35.436,17.477,43.873c-17.428,12.508-44.498-6.171-64.75-23.515
					c-30.145-25.815-15.834-43.062-2.201-38.206C507.915,182.766,529.781,189.712,544.926,196.175z"/>
			</g>
			<g>
				<path fill="#FFB287" d="M485.375,174.362c14.938,10.542,59.153-16.07,25.902-39.08l36.668,23.294
					c0,0-12.397,14.657-12.912,14.955c-0.516,0.299-10.802,26.919-22.429,17.505C511.679,190.288,485.375,174.362,485.375,174.362z"
					/>
			</g>
			<g>
				<path fill="#FFB287" d="M546.608,170.109c-4.894,0-9.758-2.058-13.192-6.066c-16.61-19.387-29.179-22.634-53.379-28.117
					l-14.564,21.348c-5.403,7.921-16.205,9.96-24.125,4.557c-7.921-5.404-9.961-16.205-4.557-24.125l21.237-31.128
					c4.048-5.933,11.331-8.76,18.322-7.114c3.258,0.768,6.385,1.475,9.397,2.156c27.656,6.254,49.501,11.195,74.037,39.834
					c6.238,7.282,5.392,18.241-1.889,24.479C554.621,168.736,550.604,170.108,546.608,170.109z"/>
			</g>
			<g>
				<g>
					<g>
						<polygon fill="#414042" points="570.609,135.476 425.396,176.899 425.367,176.791 422.779,167.665 419.536,156.137 
							419.48,155.962 543.042,120.903 564.693,114.54 						"/>
					</g>
					<g>
						<path fill="#56565B" d="M564.836,137.191c-5.503,1.556-11.294-1.887-12.935-7.691c-1.641-5.803,1.489-11.77,6.993-13.327
							l5.803-1.64l5.939,21.017L564.836,137.191z"/>
					</g>
					<g>
						<path fill="#777F85" d="M570.637,135.55c-5.502,1.557-11.293-1.887-12.935-7.691c-1.64-5.803,1.491-11.771,6.995-13.326
							l4.621-1.308l5.941,21.019L570.637,135.55z"/>
					</g>
					<g>
						<path fill="#4A4A4C" d="M425.367,176.791c-0.566,0.294-1.158,0.526-1.787,0.703c-5.5,1.554-19.455-5.845-19.455-5.845
							l0.074-0.136c0.84-1.393,8.268-13.572,13.447-15.033c0.629-0.178,1.262-0.288,1.89-0.344c4.548-0.367,8.95,2.461,10.687,7.023
							c0.141,0.333,0.25,0.659,0.35,1.018C432.026,169.316,429.734,174.581,425.367,176.791z"/>
					</g>
					<g>
						
							<ellipse transform="matrix(0.272 0.9623 -0.9623 0.272 467.8422 -285.5928)" fill="#414042" cx="422.672" cy="166.405" rx="10.92" ry="10.356"/>
					</g>
					<g>
						
							<ellipse transform="matrix(0.272 0.9623 -0.9623 0.272 535.6899 -460.633)" fill="#B6B8BF" cx="572.289" cy="123.735" rx="10.921" ry="10.356"/>
					</g>
				</g>
				<g>
					<path fill="#777F85" d="M557.082,129.754l-47.539,13.523c-1.483,0.421-3.041-0.447-3.463-1.929l-0.611-2.15
						c-0.422-1.482,0.445-3.04,1.928-3.462l47.541-13.524c1.482-0.421,3.041,0.446,3.461,1.929l0.613,2.15
						C559.433,127.774,558.565,129.331,557.082,129.754z"/>
				</g>
				<g>
					<path fill="#B6B8BF" d="M558.341,129.395L558.341,129.395c-1.048,0.298-2.147-0.314-2.445-1.362l-1.062-3.734
						c-0.298-1.046,0.314-2.146,1.361-2.445l0,0c1.047-0.296,2.146,0.316,2.444,1.362l1.063,3.735
						C560,127.998,559.387,129.098,558.341,129.395z"/>
				</g>
			</g>
			<g>
				<g>
					<path fill="#FFB287" d="M551.61,238.3c-3.958,1.125-8.36,0.636-12.124-1.714l-29.816-18.628l-67.838-31.964
						c-7.631-3.346-13.474-9.65-11.938-13.337c3.204-7.691,16.753-11.522,22.81-8.921l68.33,22.952
						c0.67,0.293,3.072,4.715,3.692,5.101l30.745,19.208c7.066,4.415,9.216,13.722,4.801,20.788
						C558.211,235.084,555.08,237.313,551.61,238.3z"/>
				</g>
			</g>
		</g>
		<polygon opacity="0.5" fill="#D1805D" points="618.588,241.791 571.054,270.386 558.666,249.472 606.148,221.525 		"/>
		<g>
			<polygon fill="#C7D1E0" points="680.802,312.625 608.584,354.498 595.805,362.426 542.393,265.284 556.889,256.868 
				629.105,214.994 			"/>
			<polygon fill="#FFFFFF" points="682.533,312.133 610.316,354.006 556.889,256.868 629.105,214.994 			"/>
			<polygon fill="#414042" points="679.463,295.549 696.157,354.235 604.514,380.305 557.223,298.279 559.737,296.82 
				574.242,288.415 579.299,285.476 581.545,284.175 610.504,267.385 625.698,258.574 645.961,246.821 646.454,246.541 
				649.994,244.486 			"/>
			<polygon fill="#DB5940" points="679.463,295.549 696.157,354.235 632.402,372.37 618.935,349.006 618.708,348.626 
				605.742,326.134 581.545,284.175 610.504,267.385 625.698,258.574 645.961,246.821 646.454,246.541 649.994,244.486 			"/>
		</g>
		<g opacity="0.5">
			<path fill="#949596" d="M160.768,294.736c-3.906-4.883-10.422-6.448-15.953-4.279c-1.28,0.486-2.514,1.19-3.646,2.09
				l-11.278,9.737l-14.347,12.41l-1.545,1.323l-12.473,10.794l-0.015,0.003c-19.953,36.895,4.32,58.228,24.909,53.569
				c2.056-6.084,0.992-33.609,0.788-41.034l2.909-2.323l14.755-11.779l11.201-8.936l2.5-1.991c3.641-2.912,5.433-7.281,5.212-11.595
				c-0.019-0.438-0.05-0.873-0.128-1.308C163.338,299.054,162.373,296.735,160.768,294.736z"/>
		</g>
		<g>
			<g>
				
					<ellipse transform="matrix(-0.93 -0.3675 0.3675 -0.93 29.2225 724.154)" fill="#FFB287" cx="83.554" cy="359.295" rx="24.209" ry="42.135"/>
			</g>
		</g>
		<g>
			<g>
				<path fill="#FFB287" d="M86.827,354.52c-1.679,0-3.369-0.234-5.02-0.715l-15.814-4.594c-9.546-2.772-15.038-12.76-12.265-22.307
					c2.773-9.546,12.76-15.038,22.307-12.264l6.846,1.988l50.341-40.254c7.763-6.208,19.09-4.948,25.299,2.817
					c6.208,7.764,4.947,19.091-2.817,25.299l-57.635,46.088C94.839,353.16,90.864,354.52,86.827,354.52z"/>
			</g>
		</g>
	</g>
</g>
</svg>