<!-- Generator: Adobe Illustrator 17.0.0, SVG Export Plug-In  -->
<svg version="1.1"
	 xmlns="http://www.w3.org/2000/svg" xmlns:xlink="http://www.w3.org/1999/xlink" xmlns:a="http://ns.adobe.com/AdobeSVGViewerExtensions/3.0/"
	 x="0px" y="0px" width="510.004px" height="64.763px" viewBox="0 0 510.004 64.763" enable-background="new 0 0 510.004 64.763"
	 xml:space="preserve">
<defs>
</defs>
<g>
	<g>
		<defs>
			<polygon id="SVGID_1_" points="0,16.503 0,52.257 328.869,52.257 354.219,16.503 			"/>
		</defs>
		<clipPath id="SVGID_2_">
			<use xlink:href="#SVGID_1_"  overflow="visible"/>
		</clipPath>
	</g>
	<g>
		<defs>
			<polygon id="SVGID_3_" points="0,16.503 0,52.257 328.869,52.257 354.219,16.503 			"/>
		</defs>
		<use xlink:href="#SVGID_3_"  overflow="visible" fill="#DB5940"/>
		<clipPath id="SVGID_4_">
			<use xlink:href="#SVGID_3_"  overflow="visible"/>
		</clipPath>
		<rect x="0" y="16.503" clip-path="url(#SVGID_4_)" fill="#DB5940" width="354.219" height="35.754"/>
	</g>
	<g>
		<defs>
			<polygon id="SVGID_5_" points="0,16.503 0,52.257 328.869,52.257 354.219,16.503 			"/>
		</defs>
		<clipPath id="SVGID_6_">
			<use xlink:href="#SVGID_5_"  overflow="visible"/>
		</clipPath>
	</g>
</g>
<g>
	<path fill="#FFFFFF" d="M42.119,41.808V27.804h1.26v14.004H42.119z"/>
	<path fill="#FFFFFF" d="M53.799,41.808l-5.84-10.195l-0.117-0.605v10.801h-1.26V27.804h0.654l5.84,10.205l0.127,0.596V27.804h1.26
		v14.004H53.799z"/>
	<path fill="#FFFFFF" d="M61.064,29.005v12.803h-1.26V29.005h-3.34v-1.201h7.939v1.201H61.064z"/>
	<path fill="#FFFFFF" d="M72.988,41.808l-3.799-5.977h-1.729v5.977h-1.26V27.804h4.443c0.475,0,0.922,0.089,1.338,0.269
		s0.781,0.425,1.094,0.737s0.559,0.679,0.737,1.099s0.269,0.868,0.269,1.343v1.133c0,0.475-0.09,0.923-0.269,1.343
		s-0.425,0.786-0.737,1.099s-0.678,0.558-1.094,0.737s-0.863,0.269-1.338,0.269l3.799,5.977H72.988z M72.822,31.252
		c0-0.313-0.059-0.604-0.176-0.874s-0.277-0.508-0.479-0.713s-0.438-0.366-0.708-0.483s-0.562-0.176-0.874-0.176h-3.125v5.625h3.125
		c0.313,0,0.604-0.059,0.874-0.176s0.507-0.278,0.708-0.483s0.361-0.443,0.479-0.713s0.176-0.562,0.176-0.874V31.252z"/>
	<path fill="#FFFFFF" d="M84.253,39.904c-0.179,0.417-0.425,0.781-0.737,1.094s-0.678,0.558-1.094,0.737s-0.863,0.269-1.338,0.269
		h-0.996c-0.475,0-0.923-0.089-1.343-0.269s-0.786-0.425-1.099-0.737s-0.559-0.677-0.737-1.094s-0.269-0.863-0.269-1.338v-7.52
		c0-0.475,0.09-0.921,0.269-1.338s0.425-0.781,0.737-1.094s0.679-0.558,1.099-0.737s0.868-0.269,1.343-0.269h0.996
		c0.475,0,0.922,0.089,1.338,0.269s0.781,0.425,1.094,0.737s0.559,0.677,0.737,1.094s0.269,0.863,0.269,1.338v7.52
		C84.522,39.041,84.432,39.487,84.253,39.904z M83.262,31.046c0-0.313-0.059-0.604-0.176-0.874s-0.277-0.506-0.479-0.708
		s-0.438-0.361-0.708-0.479s-0.562-0.176-0.874-0.176h-0.879c-0.313,0-0.604,0.059-0.874,0.176s-0.508,0.277-0.713,0.479
		s-0.366,0.438-0.483,0.708S77.9,30.734,77.9,31.046v7.52c0,0.313,0.059,0.604,0.176,0.874s0.278,0.508,0.483,0.713
		s0.442,0.366,0.713,0.483s0.562,0.176,0.874,0.176h0.879c0.313,0,0.604-0.059,0.874-0.176s0.507-0.278,0.708-0.483
		s0.361-0.443,0.479-0.713s0.176-0.562,0.176-0.874V31.046z"/>
	<path fill="#FFFFFF" d="M95.142,39.709c-0.179,0.417-0.425,0.781-0.737,1.094s-0.679,0.558-1.099,0.737s-0.868,0.269-1.343,0.269
		h-4.434V27.804h4.434c0.475,0,0.923,0.089,1.343,0.269s0.786,0.425,1.099,0.737s0.559,0.679,0.737,1.099s0.269,0.868,0.269,1.343
		v7.119C95.41,38.846,95.32,39.292,95.142,39.709z M94.15,31.252c0-0.313-0.059-0.604-0.176-0.874s-0.278-0.508-0.483-0.713
		s-0.442-0.366-0.713-0.483s-0.562-0.176-0.874-0.176h-3.115v11.602h3.115c0.313,0,0.604-0.059,0.874-0.176s0.508-0.277,0.713-0.479
		s0.366-0.438,0.483-0.708s0.176-0.562,0.176-0.874V31.252z"/>
	<path fill="#FFFFFF" d="M105.815,39.904c-0.179,0.417-0.425,0.781-0.737,1.094s-0.678,0.558-1.094,0.737s-0.863,0.269-1.338,0.269
		h-0.996c-0.475,0-0.923-0.089-1.343-0.269s-0.786-0.425-1.099-0.737s-0.559-0.677-0.737-1.094s-0.269-0.863-0.269-1.338V27.804
		h1.26v10.762c0,0.313,0.059,0.604,0.176,0.874s0.278,0.508,0.483,0.713s0.442,0.366,0.713,0.483s0.562,0.176,0.874,0.176h0.879
		c0.313,0,0.604-0.059,0.874-0.176s0.507-0.278,0.708-0.483s0.361-0.443,0.479-0.713s0.176-0.562,0.176-0.874V27.804h1.26v10.762
		C106.084,39.041,105.994,39.487,105.815,39.904z"/>
	<path fill="#FFFFFF" d="M116.499,39.904c-0.179,0.417-0.425,0.781-0.737,1.094s-0.678,0.558-1.094,0.737s-0.863,0.269-1.338,0.269
		h-0.996c-0.475,0-0.923-0.089-1.343-0.269s-0.786-0.425-1.099-0.737s-0.559-0.677-0.737-1.094s-0.269-0.863-0.269-1.338v-7.52
		c0-0.475,0.09-0.921,0.269-1.338s0.425-0.781,0.737-1.094s0.679-0.558,1.099-0.737s0.868-0.269,1.343-0.269h0.996
		c0.475,0,0.922,0.089,1.338,0.269s0.781,0.425,1.094,0.737s0.559,0.677,0.737,1.094s0.269,0.863,0.269,1.338v0.566l-1.26,0.195
		v-0.762c0-0.313-0.059-0.604-0.176-0.874s-0.277-0.506-0.479-0.708s-0.438-0.361-0.708-0.479s-0.562-0.176-0.874-0.176h-0.879
		c-0.313,0-0.604,0.059-0.874,0.176s-0.508,0.277-0.713,0.479s-0.366,0.438-0.483,0.708s-0.176,0.562-0.176,0.874v7.52
		c0,0.313,0.059,0.604,0.176,0.874s0.278,0.508,0.483,0.713s0.442,0.366,0.713,0.483s0.562,0.176,0.874,0.176h0.879
		c0.313,0,0.604-0.059,0.874-0.176s0.507-0.278,0.708-0.483s0.361-0.443,0.479-0.713s0.176-0.562,0.176-0.874v-0.762l1.26,0.205
		v0.557C116.768,39.041,116.678,39.487,116.499,39.904z"/>
	<path fill="#FFFFFF" d="M126.978,39.904c-0.179,0.417-0.425,0.781-0.737,1.094s-0.678,0.558-1.094,0.737s-0.863,0.269-1.338,0.269
		h-0.996c-0.475,0-0.923-0.089-1.343-0.269s-0.786-0.425-1.099-0.737s-0.559-0.677-0.737-1.094s-0.269-0.863-0.269-1.338v-7.52
		c0-0.475,0.09-0.921,0.269-1.338s0.425-0.781,0.737-1.094s0.679-0.558,1.099-0.737s0.868-0.269,1.343-0.269h0.996
		c0.475,0,0.922,0.089,1.338,0.269s0.781,0.425,1.094,0.737s0.559,0.677,0.737,1.094s0.269,0.863,0.269,1.338v0.566l-1.26,0.195
		v-0.762c0-0.313-0.059-0.604-0.176-0.874s-0.277-0.506-0.479-0.708s-0.438-0.361-0.708-0.479s-0.562-0.176-0.874-0.176h-0.879
		c-0.313,0-0.604,0.059-0.874,0.176s-0.508,0.277-0.713,0.479s-0.366,0.438-0.483,0.708s-0.176,0.562-0.176,0.874v7.52
		c0,0.313,0.059,0.604,0.176,0.874s0.278,0.508,0.483,0.713s0.442,0.366,0.713,0.483s0.562,0.176,0.874,0.176h0.879
		c0.313,0,0.604-0.059,0.874-0.176s0.507-0.278,0.708-0.483s0.361-0.443,0.479-0.713s0.176-0.562,0.176-0.874v-0.762l1.26,0.205
		v0.557C127.246,39.041,127.156,39.487,126.978,39.904z"/>
	<path fill="#FFFFFF" d="M130.049,41.808V27.804h1.26v14.004H130.049z"/>
	<path fill="#FFFFFF" d="M141.919,39.904c-0.179,0.417-0.425,0.781-0.737,1.094s-0.678,0.558-1.094,0.737s-0.863,0.269-1.338,0.269
		h-0.996c-0.475,0-0.923-0.089-1.343-0.269s-0.786-0.425-1.099-0.737s-0.559-0.677-0.737-1.094s-0.269-0.863-0.269-1.338v-7.52
		c0-0.475,0.09-0.921,0.269-1.338s0.425-0.781,0.737-1.094s0.679-0.558,1.099-0.737s0.868-0.269,1.343-0.269h0.996
		c0.475,0,0.922,0.089,1.338,0.269s0.781,0.425,1.094,0.737s0.559,0.677,0.737,1.094s0.269,0.863,0.269,1.338v7.52
		C142.188,39.041,142.098,39.487,141.919,39.904z M140.928,31.046c0-0.313-0.059-0.604-0.176-0.874s-0.277-0.506-0.479-0.708
		s-0.438-0.361-0.708-0.479s-0.562-0.176-0.874-0.176h-0.879c-0.313,0-0.604,0.059-0.874,0.176s-0.508,0.277-0.713,0.479
		s-0.366,0.438-0.483,0.708s-0.176,0.562-0.176,0.874v7.52c0,0.313,0.059,0.604,0.176,0.874s0.278,0.508,0.483,0.713
		s0.442,0.366,0.713,0.483s0.562,0.176,0.874,0.176h0.879c0.313,0,0.604-0.059,0.874-0.176s0.507-0.278,0.708-0.483
		s0.361-0.443,0.479-0.713s0.176-0.562,0.176-0.874V31.046z M137.949,26.212h-0.898l1.602-2.402h2.002L137.949,26.212z"/>
	<path fill="#FFFFFF" d="M152.412,41.808l-5.84-10.195l-0.117-0.605v10.801h-1.26V27.804h0.654l5.84,10.205l0.127,0.596V27.804h1.26
		v14.004H152.412z"/>
</g>
<g>
	<defs>
		<path id="SVGID_7_" d="M443.079,18.258c0-1.948,1.583-3.527,3.529-3.527c1.953,0,3.53,1.579,3.53,3.527
			c0,1.952-1.577,3.529-3.53,3.529C444.662,21.787,443.079,20.21,443.079,18.258 M453.251,18.258c0-1.948,1.575-3.527,3.524-3.527
			c1.952,0,3.532,1.579,3.532,3.527c0,1.952-1.58,3.529-3.532,3.529C454.826,21.787,453.251,20.21,453.251,18.258 M463.415,18.258
			c0.001-1.948,1.577-3.527,3.527-3.527c1.952,0,3.532,1.579,3.532,3.527c0,1.952-1.58,3.529-3.532,3.529
			C464.992,21.787,463.415,20.21,463.415,18.258 M430.025,18.263c0,10.081,11.978,18.257,26.75,18.257
			c2.768,0,5.441-0.286,7.951-0.816l5.828,5.701c0.272,0.269,0.636,0.411,1.006,0.411c0.158,0,0.315-0.025,0.468-0.077
			c0.519-0.184,0.886-0.636,0.954-1.179l1.068-8.368c5.792-3.348,9.477-8.344,9.477-13.929C483.527,8.176,471.55,0,456.775,0
			C442.003,0,430.025,8.176,430.025,18.263"/>
	</defs>
	<clipPath id="SVGID_8_">
		<use xlink:href="#SVGID_7_"  overflow="visible"/>
	</clipPath>
	<rect x="430.025" y="0" clip-path="url(#SVGID_8_)" fill="#DB5940" width="53.502" height="41.817"/>
</g>
<polygon fill="#DB5940" points="348.914,52.257 339.663,52.257 365.012,16.503 374.263,16.503 "/>
<polygon fill="#DB5940" points="369.517,52.257 360.266,52.257 385.615,16.503 394.865,16.503 "/>
<polygon fill="#DB5940" points="390.12,52.257 380.869,52.257 406.218,16.503 415.469,16.503 "/>
<path fill="#414042" d="M486.76,23.122c-1.326,4.385-4.43,8.37-9.009,11.442l-0.83,6.503c-0.261,2.035-1.626,3.728-3.603,4.428
	c-0.565,0.195-1.158,0.293-1.758,0.293c-1.43,0-2.777-0.553-3.783-1.543l-4.358-4.264c-2.172,0.341-4.399,0.511-6.644,0.511
	c-0.075,0-0.145-0.007-0.22-0.007c-0.015,0.243-0.054,0.478-0.054,0.724c0,5.585,3.684,10.581,9.476,13.929l1.068,8.367
	c0.069,0.543,0.437,0.996,0.954,1.18c0.512,0.176,1.087,0.049,1.474-0.334l5.829-5.702c2.51,0.531,5.184,0.817,7.951,0.817
	c14.771,0,26.75-8.175,26.75-18.257C510.004,31.936,499.873,24.295,486.76,23.122 M483.254,44.733c-1.953,0-3.532-1.577-3.532-3.53
	c0-1.946,1.579-3.527,3.532-3.527c1.949,0,3.523,1.581,3.523,3.527C486.777,43.156,485.203,44.733,483.254,44.733 M493.421,44.733
	c-1.952,0-3.53-1.577-3.53-3.53c0-1.946,1.578-3.527,3.53-3.527c1.946,0,3.528,1.581,3.528,3.527
	C496.949,43.156,495.367,44.733,493.421,44.733"/>
</svg>