<!-- Generator: Adobe Illustrator 17.0.0, SVG Export Plug-In  -->
<svg version="1.1"
	 xmlns="http://www.w3.org/2000/svg" xmlns:xlink="http://www.w3.org/1999/xlink" xmlns:a="http://ns.adobe.com/AdobeSVGViewerExtensions/3.0/"
	 x="0px" y="0px" width="265.123px" height="258.508px" viewBox="0 0 265.123 258.508" enable-background="new 0 0 265.123 258.508"
	 xml:space="preserve">
<defs>
</defs>
<g>
	<path fill-rule="evenodd" clip-rule="evenodd" fill="#414042" d="M133.224,0c15.704,0,28.5,12.885,28.5,28.675
		c0,15.79-12.796,28.669-28.5,28.669c-15.698,0-28.507-12.88-28.507-28.669C104.717,12.885,117.525,0,133.224,0"/>
	<path fill-rule="evenodd" clip-rule="evenodd" fill="#414042" d="M29.404,92.534v0.107l-0.138,1.052
		c0,1.478,0.838,2.576,2.519,3.302c1.693,0.721,4.303,1.081,7.834,1.081c2.688,0,4.794-0.303,6.321-0.892
		c1.535-0.589,2.298-1.4,2.298-2.434c0-1.569-3.033-2.828-9.06-3.816c-0.706-0.114-1.232-0.2-1.578-0.252
		c-0.389-0.075-0.949-0.163-1.692-0.283c-9.58-1.569-15.747-3.27-18.469-5.1c-1.327-0.901-2.342-1.95-3.025-3.171
		c-0.659-1.221-1.002-2.604-1.002-4.119c0-3.748,2.203-6.602,6.602-8.557c4.404-1.962,10.848-2.942,19.331-2.942
		c8.377,0,14.589,0.915,18.632,2.748c4.031,1.847,6.055,4.68,6.055,8.482v0.443H48.152v-0.174c0-1.318-0.788-2.299-2.397-2.971
		c-1.604-0.683-3.966-1.021-7.067-1.021c-2.405,0-4.254,0.234-5.549,0.718c-1.313,0.48-1.965,1.175-1.965,2.059
		c0,1.584,3.459,2.93,10.381,4.05c1.326,0.198,2.375,0.361,3.137,0.478c4.925,0.826,8.436,1.541,10.529,2.13
		c2.084,0.589,3.891,1.29,5.405,2.096c1.69,0.923,3.011,2.096,3.921,3.505c0.911,1.409,1.377,2.953,1.377,4.64
		c0,3.859-2.407,6.824-7.198,8.908c-4.798,2.088-11.714,3.125-20.716,3.125c-8.899,0-15.345-1.004-19.333-2.999
		c-3.987-2.009-5.955-5.209-5.955-9.635v-0.558H29.404z M72.889,105.089V67.087h45.245v8.185H89.876v6.059h26.131v8.085H89.876
		v7.373h29.33v8.3H72.889z M126.302,105.089V67.087h21.503l23.009,25.491V67.087h16.323v38.002h-22.3l-22.268-25.591v25.591H126.302
		z M231.036,89.93l-8.131-13.809l-8.594,13.809H231.036z M205.151,105.089h-17.036l26.302-38.002h18.85l25.086,38.002h-18.92
		l-3.827-6.859h-26.363L205.151,105.089z"/>
	<path fill-rule="evenodd" clip-rule="evenodd" fill="#414042" d="M50.294,239.072l-15.178-14.27l46.203-80.189
		c2.519-4.375-0.631-9.838-5.68-9.838H0v-20.061h121.742L50.294,239.072z"/>
	<path fill-rule="evenodd" clip-rule="evenodd" fill="#414042" d="M214.829,239.072l15.178-14.27l-46.2-80.189
		c-2.52-4.375,0.632-9.838,5.681-9.838h75.636v-20.061H143.379L214.829,239.072z"/>
	<path fill-rule="evenodd" clip-rule="evenodd" fill="#414042" d="M132.398,135.914l0.163-0.283l68.602,113.398l-18.214,9.479
		l-44.208-74.032c-2.602-4.366-8.923-4.368-11.513,0c-14.732,24.835-43.916,74.032-43.916,74.032l-17.834-8.817
		C65.479,249.69,128.735,142.151,132.398,135.914"/>
</g>
</svg>