<!-- Generator: Adobe Illustrator 17.0.0, SVG Export Plug-In  -->
<svg version="1.1"
	 xmlns="http://www.w3.org/2000/svg" xmlns:xlink="http://www.w3.org/1999/xlink" xmlns:a="http://ns.adobe.com/AdobeSVGViewerExtensions/3.0/"
	 x="0px" y="0px" width="309.804px" height="25.594px" viewBox="0 0 309.804 25.594" enable-background="new 0 0 309.804 25.594"
	 xml:space="preserve">
<defs>
</defs>
<g>
	<path fill="#F16529" d="M11.21,20.389V7.909l-0.114,0.774L6.868,20.389H6.005L1.739,8.684L1.638,7.909v12.479H0V2.184h0.851
		l5.522,14.93l0.051,0.673l0.051-0.673l5.51-14.93h0.863v18.205H11.21z"/>
	<path fill="#F16529" d="M24.863,18.307c-0.198,0.466-0.471,0.872-0.818,1.219s-0.754,0.62-1.219,0.819
		c-0.465,0.198-0.961,0.298-1.485,0.298H20.3c-0.524,0-1.021-0.1-1.485-0.298c-0.465-0.199-0.871-0.473-1.219-0.819
		s-0.62-0.753-0.818-1.219c-0.199-0.466-0.299-0.96-0.299-1.485v-5.865c0-0.525,0.1-1.02,0.299-1.485
		c0.198-0.466,0.471-0.872,0.818-1.219s0.754-0.62,1.219-0.819c0.465-0.198,0.961-0.298,1.485-0.298h1.041
		c0.524,0,1.021,0.1,1.485,0.298c0.465,0.199,0.871,0.473,1.219,0.819s0.62,0.753,0.818,1.219c0.199,0.466,0.299,0.96,0.299,1.485
		v5.865C25.162,17.347,25.063,17.841,24.863,18.307z M23.601,10.867c0-0.313-0.06-0.607-0.178-0.882
		c-0.118-0.275-0.279-0.515-0.482-0.718s-0.442-0.364-0.718-0.482c-0.274-0.118-0.568-0.178-0.882-0.178H20.3
		c-0.313,0-0.607,0.06-0.882,0.178c-0.275,0.118-0.515,0.279-0.718,0.482s-0.364,0.442-0.482,0.718
		c-0.118,0.274-0.178,0.568-0.178,0.882v6.043c0,0.313,0.06,0.607,0.178,0.882c0.118,0.275,0.279,0.515,0.482,0.718
		s0.442,0.364,0.718,0.482c0.274,0.118,0.568,0.178,0.882,0.178h1.041c0.313,0,0.607-0.06,0.882-0.178
		c0.275-0.118,0.515-0.279,0.718-0.482s0.364-0.442,0.482-0.718c0.118-0.274,0.178-0.568,0.178-0.882V10.867z"/>
	<path fill="#F16529" d="M36.448,20.389l-0.863-1.32c-0.355,0.482-0.8,0.865-1.333,1.149c-0.533,0.283-1.117,0.425-1.752,0.425
		h-0.394c-0.524,0-1.021-0.1-1.485-0.298c-0.465-0.199-0.871-0.473-1.219-0.819s-0.62-0.753-0.818-1.219
		c-0.199-0.466-0.299-0.96-0.299-1.485v-5.865c0-0.525,0.1-1.02,0.299-1.485c0.198-0.466,0.471-0.872,0.818-1.219
		s0.754-0.62,1.219-0.819c0.465-0.198,0.961-0.298,1.485-0.298H32.5c0.584,0,1.125,0.118,1.625,0.355s0.927,0.567,1.282,0.99V2.184
		h1.562v18.205H36.448z M35.407,10.867c0-0.313-0.06-0.607-0.178-0.882c-0.118-0.275-0.279-0.515-0.482-0.718
		s-0.442-0.364-0.718-0.482c-0.274-0.118-0.568-0.178-0.882-0.178h-1.041c-0.313,0-0.607,0.06-0.882,0.178
		c-0.275,0.118-0.515,0.279-0.718,0.482s-0.364,0.442-0.482,0.718c-0.118,0.274-0.178,0.568-0.178,0.882v6.043
		c0,0.313,0.06,0.607,0.178,0.882c0.118,0.275,0.279,0.515,0.482,0.718s0.442,0.364,0.718,0.482
		c0.274,0.118,0.568,0.178,0.882,0.178h1.041c0.313,0,0.607-0.06,0.882-0.178c0.275-0.118,0.515-0.279,0.718-0.482
		s0.364-0.442,0.482-0.718c0.118-0.274,0.178-0.568,0.178-0.882V10.867z"/>
	<path fill="#F16529" d="M48.477,18.307c-0.198,0.466-0.471,0.872-0.818,1.219s-0.754,0.62-1.219,0.819
		c-0.465,0.198-0.961,0.298-1.485,0.298h-1.041c-0.524,0-1.021-0.1-1.485-0.298c-0.465-0.199-0.871-0.473-1.219-0.819
		s-0.62-0.753-0.818-1.219c-0.199-0.466-0.299-0.96-0.299-1.485v-5.865c0-0.525,0.1-1.02,0.299-1.485
		c0.198-0.466,0.471-0.872,0.818-1.219s0.754-0.62,1.219-0.819c0.465-0.198,0.961-0.298,1.485-0.298h1.041
		c0.524,0,1.021,0.1,1.485,0.298c0.465,0.199,0.871,0.473,1.219,0.819s0.62,0.753,0.818,1.219c0.199,0.466,0.299,0.96,0.299,1.485
		v3.06h-7.122v2.895c0,0.313,0.06,0.607,0.178,0.882c0.118,0.275,0.279,0.515,0.482,0.718s0.442,0.364,0.718,0.482
		c0.274,0.118,0.568,0.178,0.882,0.178h1.041c0.313,0,0.607-0.06,0.882-0.178c0.275-0.118,0.515-0.279,0.718-0.482
		s0.364-0.442,0.482-0.718c0.118-0.274,0.178-0.568,0.178-0.882v-0.863l1.562,0.254v0.521
		C48.775,17.347,48.676,17.841,48.477,18.307z M47.214,10.867c0-0.313-0.06-0.607-0.178-0.882c-0.118-0.275-0.279-0.515-0.482-0.718
		s-0.442-0.364-0.718-0.482c-0.274-0.118-0.568-0.178-0.882-0.178h-1.041c-0.313,0-0.607,0.06-0.882,0.178
		c-0.275,0.118-0.515,0.279-0.718,0.482s-0.364,0.442-0.482,0.718c-0.118,0.274-0.178,0.568-0.178,0.882v1.93h5.561V10.867z"/>
	<path fill="#F16529" d="M52.419,20.389V2.184h1.562v18.205H52.419z"/>
	<path fill="#F16529" d="M66.01,18.307c-0.199,0.466-0.473,0.872-0.819,1.219s-0.753,0.62-1.219,0.819
		c-0.466,0.198-0.96,0.298-1.485,0.298h-1.041c-0.525,0-1.02-0.1-1.485-0.298c-0.466-0.199-0.872-0.473-1.219-0.819
		s-0.62-0.753-0.819-1.219c-0.198-0.466-0.298-0.96-0.298-1.485v-5.865c0-0.525,0.1-1.02,0.298-1.485
		c0.199-0.466,0.473-0.872,0.819-1.219s0.753-0.62,1.219-0.819c0.466-0.198,0.96-0.298,1.485-0.298h1.041
		c0.525,0,1.02,0.1,1.485,0.298c0.466,0.199,0.872,0.473,1.219,0.819s0.62,0.753,0.819,1.219c0.198,0.466,0.298,0.96,0.298,1.485
		v5.865C66.308,17.347,66.208,17.841,66.01,18.307z M64.746,10.867c0-0.313-0.059-0.607-0.178-0.882
		c-0.119-0.275-0.279-0.515-0.482-0.718s-0.442-0.364-0.717-0.482c-0.275-0.118-0.57-0.178-0.883-0.178h-1.041
		c-0.313,0-0.607,0.06-0.883,0.178c-0.274,0.118-0.514,0.279-0.717,0.482s-0.363,0.442-0.482,0.718
		c-0.119,0.274-0.178,0.568-0.178,0.882v6.043c0,0.313,0.059,0.607,0.178,0.882c0.119,0.275,0.279,0.515,0.482,0.718
		s0.442,0.364,0.717,0.482c0.275,0.118,0.57,0.178,0.883,0.178h1.041c0.313,0,0.607-0.06,0.883-0.178
		c0.274-0.118,0.514-0.279,0.717-0.482s0.363-0.442,0.482-0.718c0.119-0.274,0.178-0.568,0.178-0.882V10.867z"/>
	<path fill="#F16529" d="M75.931,20.389V2.184h1.638v18.205H75.931z"/>
	<path fill="#F16529" d="M91.711,16.174c0,0.618-0.125,1.198-0.375,1.739c-0.249,0.541-0.584,1.016-1.002,1.422
		c-0.42,0.406-0.906,0.726-1.461,0.959c-0.554,0.232-1.141,0.349-1.758,0.349h-1.308c-0.618,0-1.204-0.116-1.759-0.349
		c-0.554-0.233-1.041-0.553-1.459-0.959c-0.42-0.406-0.754-0.881-1.004-1.422c-0.249-0.541-0.374-1.121-0.374-1.739V15.45
		l1.638-0.267v0.99c0,0.406,0.082,0.785,0.248,1.136c0.164,0.352,0.387,0.66,0.666,0.928c0.279,0.266,0.604,0.476,0.971,0.628
		c0.369,0.152,0.756,0.229,1.162,0.229h1.143c0.406,0,0.791-0.076,1.155-0.229s0.686-0.362,0.965-0.628
		c0.279-0.268,0.501-0.576,0.667-0.928c0.164-0.351,0.247-0.729,0.247-1.136v-0.546c0-0.627-0.122-1.146-0.368-1.562
		s-0.571-0.769-0.978-1.06c-0.406-0.293-0.865-0.54-1.378-0.743c-0.512-0.203-1.039-0.406-1.58-0.609s-1.068-0.427-1.58-0.673
		c-0.513-0.246-0.972-0.553-1.378-0.92c-0.406-0.369-0.731-0.819-0.978-1.353s-0.368-1.188-0.368-1.968V6.398
		c0-0.618,0.116-1.198,0.349-1.739c0.233-0.541,0.553-1.016,0.959-1.422s0.883-0.726,1.428-0.959
		c0.547-0.232,1.129-0.349,1.746-0.349h1.168c0.617,0,1.197,0.116,1.739,0.349c0.542,0.233,1.016,0.553,1.422,0.959
		s0.726,0.881,0.958,1.422c0.233,0.541,0.35,1.121,0.35,1.739v0.47l-1.638,0.267V6.398c0-0.406-0.076-0.785-0.229-1.136
		c-0.152-0.352-0.36-0.658-0.622-0.921s-0.569-0.47-0.92-0.622c-0.352-0.152-0.73-0.229-1.137-0.229h-1.016
		c-0.406,0-0.785,0.076-1.137,0.229c-0.351,0.152-0.66,0.359-0.926,0.622c-0.268,0.263-0.477,0.569-0.629,0.921
		c-0.152,0.351-0.229,0.729-0.229,1.136v0.343c0,0.584,0.123,1.074,0.368,1.473s0.571,0.738,0.978,1.021
		c0.406,0.284,0.865,0.529,1.377,0.736c0.513,0.208,1.039,0.42,1.581,0.635c0.542,0.217,1.068,0.453,1.581,0.711
		c0.512,0.259,0.971,0.576,1.377,0.953c0.406,0.376,0.732,0.836,0.978,1.377s0.368,1.201,0.368,1.98V16.174z"/>
	<path fill="#F16529" d="M104.857,17.913c-0.233,0.541-0.553,1.016-0.959,1.422s-0.881,0.726-1.422,0.959
		c-0.541,0.232-1.121,0.349-1.739,0.349h-1.295c-0.618,0-1.2-0.116-1.745-0.349c-0.547-0.233-1.022-0.553-1.429-0.959
		s-0.726-0.881-0.958-1.422c-0.233-0.541-0.35-1.121-0.35-1.739V6.398c0-0.618,0.116-1.198,0.35-1.739
		c0.232-0.541,0.552-1.016,0.958-1.422s0.882-0.726,1.429-0.959c0.545-0.232,1.127-0.349,1.745-0.349h1.295
		c0.618,0,1.198,0.116,1.739,0.349c0.541,0.233,1.016,0.553,1.422,0.959s0.726,0.881,0.959,1.422
		c0.232,0.541,0.349,1.121,0.349,1.739v9.775C105.206,16.792,105.09,17.372,104.857,17.913z M103.568,6.398
		c0-0.406-0.076-0.785-0.229-1.136c-0.152-0.352-0.359-0.658-0.622-0.921s-0.569-0.47-0.921-0.622
		c-0.351-0.152-0.729-0.229-1.136-0.229h-1.143c-0.406,0-0.785,0.076-1.136,0.229c-0.352,0.152-0.66,0.359-0.928,0.622
		c-0.266,0.263-0.476,0.569-0.628,0.921c-0.152,0.351-0.229,0.729-0.229,1.136v9.775c0,0.406,0.076,0.785,0.229,1.136
		c0.152,0.352,0.362,0.66,0.628,0.928c0.268,0.266,0.576,0.476,0.928,0.628c0.351,0.152,0.729,0.229,1.136,0.229h1.143
		c0.406,0,0.785-0.076,1.136-0.229c0.352-0.152,0.658-0.362,0.921-0.628c0.263-0.268,0.47-0.576,0.622-0.928
		c0.152-0.351,0.229-0.729,0.229-1.136V6.398z"/>
	<path fill="#F16529" d="M107.555,21.95l7.249-21.315h1.638l-7.249,21.315H107.555z"/>
	<path fill="#F16529" d="M125.023,20.389V2.184h1.638v18.205H125.023z"/>
	<path fill="#F16529" d="M130.825,20.389V2.184h10.245v1.562h-8.607v6.767h6.97v1.562h-6.97v6.754h8.607v1.562H130.825z"/>
	<path fill="#F16529" d="M153.822,17.913c-0.232,0.541-0.552,1.016-0.958,1.422s-0.88,0.726-1.422,0.959
		c-0.542,0.232-1.122,0.349-1.739,0.349h-1.295c-0.617,0-1.199-0.116-1.746-0.349c-0.545-0.233-1.021-0.553-1.428-0.959
		s-0.726-0.881-0.959-1.422c-0.232-0.541-0.349-1.121-0.349-1.739V6.398c0-0.618,0.116-1.198,0.349-1.739
		c0.233-0.541,0.553-1.016,0.959-1.422s0.883-0.726,1.428-0.959c0.547-0.232,1.129-0.349,1.746-0.349h1.295
		c0.617,0,1.197,0.116,1.739,0.349c0.542,0.233,1.016,0.553,1.422,0.959s0.726,0.881,0.958,1.422c0.233,0.541,0.35,1.121,0.35,1.739
		v0.736l-1.638,0.254v-0.99c0-0.406-0.076-0.785-0.229-1.136c-0.152-0.352-0.36-0.658-0.622-0.921s-0.569-0.47-0.92-0.622
		c-0.352-0.152-0.73-0.229-1.137-0.229h-1.143c-0.406,0-0.785,0.076-1.137,0.229c-0.351,0.152-0.66,0.359-0.926,0.622
		c-0.268,0.263-0.477,0.569-0.629,0.921c-0.152,0.351-0.229,0.729-0.229,1.136v9.775c0,0.406,0.076,0.785,0.229,1.136
		c0.152,0.352,0.361,0.66,0.629,0.928c0.266,0.266,0.575,0.476,0.926,0.628c0.352,0.152,0.73,0.229,1.137,0.229h1.143
		c0.406,0,0.785-0.076,1.137-0.229c0.351-0.152,0.658-0.362,0.92-0.628c0.262-0.268,0.47-0.576,0.622-0.928
		c0.152-0.351,0.229-0.729,0.229-1.136v-0.99l1.638,0.267v0.724C154.172,16.792,154.056,17.372,153.822,17.913z"/>
	<path fill="#F16529" d="M163.795,20.389v-1.562h4.342V3.745l-4.342,1.828V4.012l4.342-1.828h1.638v16.644h4.342v1.562H163.795z"/>
	<path fill="#F16529" d="M186.348,17.913c-0.232,0.541-0.552,1.016-0.958,1.422s-0.88,0.726-1.422,0.959
		c-0.542,0.232-1.122,0.349-1.739,0.349h-0.774c-0.618,0-1.2-0.116-1.745-0.349c-0.547-0.233-1.022-0.553-1.429-0.959
		s-0.726-0.881-0.958-1.422c-0.233-0.541-0.35-1.121-0.35-1.739v-0.279h1.638v0.279c0,0.406,0.076,0.785,0.229,1.136
		c0.152,0.352,0.362,0.66,0.628,0.928c0.268,0.266,0.576,0.476,0.928,0.628c0.351,0.152,0.729,0.229,1.136,0.229h0.622
		c0.406,0,0.785-0.076,1.137-0.229c0.351-0.152,0.658-0.362,0.92-0.628c0.262-0.268,0.47-0.576,0.622-0.928
		c0.152-0.351,0.229-0.729,0.229-1.136v-3.529c0-0.406-0.076-0.785-0.229-1.136c-0.152-0.352-0.36-0.66-0.622-0.928
		c-0.262-0.266-0.569-0.476-0.92-0.628c-0.352-0.152-0.73-0.229-1.137-0.229h-0.622c-0.406,0-0.785,0.076-1.136,0.229
		c-0.352,0.152-0.66,0.362-0.928,0.628c-0.266,0.268-0.476,0.576-0.628,0.928c-0.152,0.351-0.229,0.729-0.229,1.136h-1.638
		l1.041-10.461h7.782v1.562h-6.246l-0.597,5.599c0.389-0.372,0.842-0.662,1.358-0.87c0.517-0.207,1.071-0.311,1.663-0.311h0.254
		c0.617,0,1.197,0.116,1.739,0.35c0.542,0.232,1.016,0.552,1.422,0.958s0.726,0.882,0.958,1.429c0.233,0.545,0.35,1.127,0.35,1.745
		v3.529C186.697,16.792,186.581,17.372,186.348,17.913z"/>
	<path fill="#F16529" d="M199.717,17.913c-0.233,0.541-0.553,1.016-0.959,1.422s-0.881,0.726-1.422,0.959
		c-0.541,0.232-1.121,0.349-1.739,0.349h-0.774c-0.617,0-1.199-0.116-1.746-0.349c-0.545-0.233-1.021-0.553-1.428-0.959
		s-0.726-0.881-0.959-1.422c-0.232-0.541-0.349-1.121-0.349-1.739v-0.279h1.638v0.279c0,0.406,0.076,0.785,0.229,1.136
		c0.152,0.352,0.361,0.66,0.629,0.928c0.266,0.266,0.575,0.476,0.926,0.628c0.352,0.152,0.73,0.229,1.137,0.229h0.622
		c0.406,0,0.785-0.076,1.136-0.229c0.352-0.152,0.658-0.362,0.921-0.628c0.263-0.268,0.47-0.576,0.622-0.928
		c0.152-0.351,0.229-0.729,0.229-1.136v-3.529c0-0.406-0.076-0.785-0.229-1.136c-0.152-0.352-0.359-0.66-0.622-0.928
		c-0.263-0.266-0.569-0.476-0.921-0.628c-0.351-0.152-0.729-0.229-1.136-0.229h-0.622c-0.406,0-0.785,0.076-1.137,0.229
		c-0.351,0.152-0.66,0.362-0.926,0.628c-0.268,0.268-0.477,0.576-0.629,0.928c-0.152,0.351-0.229,0.729-0.229,1.136h-1.638
		l1.041-10.461h7.782v1.562h-6.246l-0.597,5.599c0.39-0.372,0.843-0.662,1.358-0.87c0.516-0.207,1.07-0.311,1.663-0.311h0.254
		c0.618,0,1.198,0.116,1.739,0.35c0.541,0.232,1.016,0.552,1.422,0.958s0.726,0.882,0.959,1.429
		c0.232,0.545,0.349,1.127,0.349,1.745v3.529C200.065,16.792,199.949,17.372,199.717,17.913z"/>
	<path fill="#F16529" d="M213.084,17.913c-0.232,0.541-0.552,1.016-0.958,1.422s-0.88,0.726-1.422,0.959
		c-0.542,0.232-1.122,0.349-1.739,0.349h-0.774c-0.618,0-1.2-0.116-1.745-0.349c-0.547-0.233-1.022-0.553-1.429-0.959
		s-0.726-0.881-0.958-1.422c-0.233-0.541-0.35-1.121-0.35-1.739V6.398c0-0.618,0.116-1.198,0.35-1.739
		c0.232-0.541,0.552-1.016,0.958-1.422s0.882-0.726,1.429-0.959c0.545-0.232,1.127-0.349,1.745-0.349h0.774
		c0.617,0,1.197,0.116,1.739,0.349c0.542,0.233,1.016,0.553,1.422,0.959s0.726,0.881,0.958,1.422c0.233,0.541,0.35,1.121,0.35,1.739
		v9.775C213.434,16.792,213.317,17.372,213.084,17.913z M211.796,6.398c0-0.406-0.076-0.785-0.229-1.136
		c-0.152-0.352-0.36-0.658-0.622-0.921s-0.569-0.47-0.92-0.622c-0.352-0.152-0.73-0.229-1.137-0.229h-0.622
		c-0.406,0-0.785,0.076-1.136,0.229c-0.352,0.152-0.66,0.359-0.928,0.622c-0.266,0.263-0.476,0.569-0.628,0.921
		c-0.152,0.351-0.229,0.729-0.229,1.136v9.775c0,0.406,0.076,0.785,0.229,1.136c0.152,0.352,0.362,0.66,0.628,0.928
		c0.268,0.266,0.576,0.476,0.928,0.628c0.351,0.152,0.729,0.229,1.136,0.229h0.622c0.406,0,0.785-0.076,1.137-0.229
		c0.351-0.152,0.658-0.362,0.92-0.628c0.262-0.268,0.47-0.576,0.622-0.928c0.152-0.351,0.229-0.729,0.229-1.136V6.398z"/>
	<path fill="#F16529" d="M224.986,17.24v3.148h-1.638V17.24h-7.313v-0.774l8.087-14.282h0.863v13.495h1.562v1.562H224.986z
		 M223.349,6.665l-5.015,9.014h5.015V6.665z"/>
	<path fill="#F16529" d="M235.904,12.797c0-1.413,0.135-2.729,0.406-3.948s0.647-2.355,1.13-3.408
		c0.482-1.055,1.056-2.031,1.72-2.934c0.665-0.9,1.391-1.736,2.178-2.507l0.914,0.914c-0.693,0.72-1.335,1.515-1.924,2.387
		c-0.588,0.872-1.094,1.81-1.517,2.812c-0.423,1.004-0.753,2.063-0.99,3.181s-0.355,2.285-0.355,3.504s0.118,2.387,0.355,3.504
		s0.567,2.177,0.99,3.181c0.423,1.002,0.929,1.939,1.517,2.812c0.589,0.872,1.23,1.667,1.924,2.387l-0.914,0.914
		c-0.787-0.771-1.513-1.606-2.178-2.507c-0.664-0.902-1.237-1.881-1.72-2.939s-0.858-2.196-1.13-3.415
		S235.904,14.202,235.904,12.797z"/>
	<path fill="#F16529" d="M255.087,16.174c0,0.618-0.125,1.198-0.374,1.739c-0.25,0.541-0.584,1.016-1.004,1.422
		c-0.418,0.406-0.905,0.726-1.459,0.959c-0.555,0.232-1.141,0.349-1.759,0.349h-1.308c-0.617,0-1.204-0.116-1.758-0.349
		c-0.555-0.233-1.041-0.553-1.461-0.959c-0.418-0.406-0.753-0.881-1.002-1.422c-0.25-0.541-0.375-1.121-0.375-1.739V15.45
		l1.638-0.267v0.99c0,0.406,0.083,0.785,0.247,1.136c0.166,0.352,0.388,0.66,0.667,0.928c0.279,0.266,0.603,0.476,0.972,0.628
		c0.367,0.152,0.755,0.229,1.161,0.229h1.143c0.406,0,0.792-0.076,1.155-0.229s0.686-0.362,0.965-0.628
		c0.279-0.268,0.502-0.576,0.666-0.928c0.166-0.351,0.248-0.729,0.248-1.136v-0.546c0-0.627-0.123-1.146-0.368-1.562
		s-0.571-0.769-0.978-1.06c-0.406-0.293-0.865-0.54-1.377-0.743c-0.513-0.203-1.039-0.406-1.581-0.609s-1.068-0.427-1.581-0.673
		c-0.512-0.246-0.971-0.553-1.377-0.92c-0.406-0.369-0.732-0.819-0.978-1.353s-0.368-1.188-0.368-1.968V6.398
		c0-0.618,0.116-1.198,0.35-1.739c0.232-0.541,0.552-1.016,0.958-1.422s0.882-0.726,1.429-0.959
		c0.545-0.232,1.127-0.349,1.745-0.349h1.168c0.618,0,1.198,0.116,1.739,0.349c0.541,0.233,1.016,0.553,1.422,0.959
		s0.726,0.881,0.959,1.422c0.232,0.541,0.349,1.121,0.349,1.739v0.47l-1.638,0.267V6.398c0-0.406-0.076-0.785-0.229-1.136
		c-0.152-0.352-0.359-0.658-0.622-0.921s-0.569-0.47-0.921-0.622c-0.351-0.152-0.729-0.229-1.136-0.229h-1.016
		c-0.406,0-0.785,0.076-1.136,0.229c-0.352,0.152-0.66,0.359-0.928,0.622c-0.266,0.263-0.476,0.569-0.628,0.921
		c-0.152,0.351-0.229,0.729-0.229,1.136v0.343c0,0.584,0.122,1.074,0.368,1.473s0.571,0.738,0.978,1.021
		c0.406,0.284,0.865,0.529,1.378,0.736c0.512,0.208,1.039,0.42,1.58,0.635c0.541,0.217,1.068,0.453,1.58,0.711
		c0.513,0.259,0.972,0.576,1.378,0.953c0.406,0.376,0.731,0.836,0.978,1.377s0.368,1.201,0.368,1.98V16.174z"/>
	<path fill="#F16529" d="M268.5,10.664c-0.233,0.542-0.553,1.016-0.959,1.422s-0.883,0.726-1.428,0.958
		c-0.547,0.233-1.129,0.35-1.746,0.35h-4.126v6.995h-1.638V2.184h5.764c0.617,0,1.199,0.116,1.746,0.349
		c0.545,0.233,1.021,0.553,1.428,0.959s0.726,0.883,0.959,1.428c0.232,0.547,0.349,1.129,0.349,1.746v2.26
		C268.849,9.542,268.732,10.122,268.5,10.664z M267.211,6.665c0-0.406-0.076-0.785-0.229-1.137c-0.152-0.351-0.361-0.66-0.629-0.926
		c-0.266-0.268-0.575-0.477-0.926-0.629c-0.352-0.152-0.73-0.229-1.137-0.229h-4.05v8.087h4.05c0.406,0,0.785-0.076,1.137-0.229
		c0.351-0.152,0.66-0.36,0.926-0.622c0.268-0.262,0.477-0.569,0.629-0.92c0.152-0.352,0.229-0.73,0.229-1.137V6.665z"/>
	<path fill="#F16529" d="M271.972,20.389V2.184h1.638v18.205H271.972z"/>
	<path fill="#F16529" d="M287.402,17.913c-0.232,0.541-0.552,1.016-0.958,1.422s-0.88,0.726-1.422,0.959
		c-0.542,0.232-1.122,0.349-1.739,0.349h-1.295c-0.617,0-1.199-0.116-1.746-0.349c-0.545-0.233-1.021-0.553-1.428-0.959
		s-0.726-0.881-0.959-1.422c-0.232-0.541-0.349-1.121-0.349-1.739V6.398c0-0.618,0.116-1.198,0.349-1.739
		c0.233-0.541,0.553-1.016,0.959-1.422s0.883-0.726,1.428-0.959c0.547-0.232,1.129-0.349,1.746-0.349h1.295
		c0.617,0,1.197,0.116,1.739,0.349c0.542,0.233,1.016,0.553,1.422,0.959s0.726,0.881,0.958,1.422c0.233,0.541,0.35,1.121,0.35,1.739
		v0.736l-1.638,0.254v-0.99c0-0.406-0.076-0.785-0.229-1.136c-0.152-0.352-0.36-0.658-0.622-0.921s-0.569-0.47-0.92-0.622
		c-0.352-0.152-0.73-0.229-1.137-0.229h-1.143c-0.406,0-0.785,0.076-1.137,0.229c-0.351,0.152-0.66,0.359-0.926,0.622
		c-0.268,0.263-0.477,0.569-0.629,0.921c-0.152,0.351-0.229,0.729-0.229,1.136v9.775c0,0.406,0.076,0.785,0.229,1.136
		c0.152,0.352,0.361,0.66,0.629,0.928c0.266,0.266,0.575,0.476,0.926,0.628c0.352,0.152,0.73,0.229,1.137,0.229h1.143
		c0.406,0,0.785-0.076,1.137-0.229c0.351-0.152,0.658-0.362,0.92-0.628c0.262-0.268,0.47-0.576,0.622-0.928
		c0.152-0.351,0.229-0.729,0.229-1.136v-0.99l1.638,0.267v0.724C287.752,16.792,287.636,17.372,287.402,17.913z"/>
	<path fill="#F16529" d="M291.396,20.389V2.184h10.245v1.562h-8.607v6.767h6.97v1.562h-6.97v6.754h8.607v1.562H291.396z"/>
	<path fill="#F16529" d="M309.804,12.797c0,1.405-0.136,2.717-0.406,3.936s-0.647,2.356-1.13,3.415s-1.056,2.037-1.721,2.939
		c-0.664,0.9-1.39,1.736-2.177,2.507l-0.914-0.914c0.702-0.72,1.346-1.515,1.93-2.387s1.087-1.81,1.511-2.812
		c0.424-1.004,0.754-2.063,0.99-3.181s0.355-2.285,0.355-3.504s-0.119-2.387-0.355-3.504s-0.566-2.177-0.99-3.181
		c-0.424-1.002-0.927-1.939-1.511-2.812s-1.228-1.667-1.93-2.387L304.37,0c0.787,0.771,1.513,1.606,2.177,2.507
		c0.665,0.902,1.238,1.879,1.721,2.934c0.482,1.053,0.859,2.189,1.13,3.408S309.804,11.384,309.804,12.797z"/>
</g>
</svg>