<!-- Generator: Adobe Illustrator 17.0.0, SVG Export Plug-In  -->
<svg version="1.1"
	 xmlns="http://www.w3.org/2000/svg" xmlns:xlink="http://www.w3.org/1999/xlink" xmlns:a="http://ns.adobe.com/AdobeSVGViewerExtensions/3.0/"
	 x="0px" y="0px" width="747.661px" height="289.973px" viewBox="0 0 747.661 289.973" enable-background="new 0 0 747.661 289.973"
	 xml:space="preserve">
<defs>
</defs>
<g>
	
		<rect id="XMLID_99_" x="225.464" y="115.445" fill="#414042" stroke="#414042" stroke-width="2" stroke-linecap="round" stroke-linejoin="round" stroke-miterlimit="10" width="65.366" height="35.02"/>
	
		<rect id="XMLID_98_" x="283.936" y="156.299" fill="#FFFFFF" stroke="#414042" stroke-width="2" stroke-linecap="round" stroke-linejoin="round" stroke-miterlimit="10" width="295.121" height="110.021"/>
	<g id="XMLID_91_">
		
			<rect id="XMLID_97_" x="544.67" y="116.869" transform="matrix(0.9909 0.1349 -0.1349 0.9909 21.6047 -72.6395)" fill="#FFFFFF" stroke="#414042" stroke-width="2" stroke-linecap="round" stroke-linejoin="round" stroke-miterlimit="10" width="4.474" height="12.523"/>
		
			<polygon id="XMLID_96_" fill="#FFFFFF" stroke="#414042" stroke-width="2" stroke-linecap="round" stroke-linejoin="round" stroke-miterlimit="10" points="
			543.846,129.033 545.471,133.68 548.279,129.637 		"/>
		
			<rect id="XMLID_95_" x="546.852" y="97.198" transform="matrix(0.9909 0.1349 -0.1349 0.9909 19.4675 -73.0919)" fill="#FFFFFF" stroke="#414042" stroke-width="2" stroke-linecap="round" stroke-linejoin="round" stroke-miterlimit="10" width="4.474" height="19.82"/>
		
			<rect id="XMLID_94_" x="548.074" y="97.28" transform="matrix(0.9909 0.1349 -0.1349 0.9909 18.2638 -73.3271)" fill="#FFFFFF" stroke="#414042" stroke-width="2" stroke-linecap="round" stroke-linejoin="round" stroke-miterlimit="10" width="4.474" height="1.699"/>
		
			<polyline id="XMLID_93_" fill="none" stroke="#414042" stroke-width="2" stroke-linecap="round" stroke-linejoin="round" stroke-miterlimit="10" points="
			547.673,96.912 546.15,96.705 543.803,113.939 		"/>
		
			<rect id="XMLID_92_" x="549.544" y="92.174" transform="matrix(0.9908 0.1351 -0.1351 0.9908 17.852 -73.5499)" fill="#FFFFFF" stroke="#414042" stroke-width="2" stroke-linecap="round" stroke-linejoin="round" stroke-miterlimit="10" width="2.457" height="5.137"/>
	</g>
	<g id="XMLID_86_">
		
			<rect id="XMLID_90_" x="530.925" y="103.447" transform="matrix(0.9899 -0.1414 0.1414 0.9899 -11.094 76.5681)" fill="#FFFFFF" stroke="#414042" stroke-width="2" stroke-linecap="round" stroke-linejoin="round" stroke-miterlimit="10" width="4.475" height="25.783"/>
		
			<polygon id="XMLID_89_" fill="#FFFFFF" stroke="#414042" stroke-width="2" stroke-linecap="round" stroke-linejoin="round" stroke-miterlimit="10" points="
			532.771,129.416 535.607,133.441 537.201,128.783 		"/>
		
			<rect id="XMLID_88_" x="528.95" y="101.437" transform="matrix(0.9899 -0.1414 0.1414 0.9899 -9.1594 76.1668)" fill="#FFFFFF" stroke="#414042" stroke-width="2" stroke-linecap="round" stroke-linejoin="round" stroke-miterlimit="10" width="4.474" height="2.15"/>
		
			<path id="XMLID_87_" fill="#FFFFFF" stroke="#414042" stroke-width="2" stroke-linecap="round" stroke-linejoin="round" stroke-miterlimit="10" d="
			M530.356,96.701L530.356,96.701c-1.224,0.176-2.073,1.309-1.898,2.531l0.362,2.531l4.429-0.633l-0.361-2.531
			C532.713,97.377,531.579,96.527,530.356,96.701z"/>
	</g>
	
		<rect id="XMLID_85_" x="202.228" y="156.299" fill="#FFFFFF" stroke="#414042" stroke-width="2" stroke-linecap="round" stroke-linejoin="round" stroke-miterlimit="10" width="69.896" height="45.303"/>
	
		<path id="XMLID_84_" fill="#FFFFFF" stroke="#414042" stroke-width="2" stroke-linecap="round" stroke-linejoin="round" stroke-miterlimit="10" d="
		M489.903,144.475L489.903,144.475c-1.117,0-2.022-0.904-2.022-2.021v-1.885c0-1.117,0.905-2.023,2.022-2.023l0,0
		c1.117,0,2.023,0.906,2.023,2.023v1.885C491.926,143.57,491.021,144.475,489.903,144.475z"/>
	
		<path id="XMLID_83_" fill="none" stroke="#414042" stroke-width="2" stroke-linecap="round" stroke-linejoin="round" stroke-miterlimit="10" d="
		M460.924,144.648H327.603l0,0c0,3.213,2.604,5.816,5.815,5.816h121.69C458.32,150.465,460.924,147.861,460.924,144.648
		L460.924,144.648z"/>
	
		<path id="XMLID_82_" fill="#FFFFFF" stroke="#414042" stroke-width="2" stroke-linecap="round" stroke-linejoin="round" stroke-miterlimit="10" d="
		M479.692,31.4c0-7.422-6.017-13.44-13.439-13.44H322.272c-7.422,0-13.438,6.018-13.438,13.44v71.99h170.858V31.4z"/>
	<g id="XMLID_80_">
		
			<path id="XMLID_81_" fill="#FFFFFF" stroke="#414042" stroke-width="2" stroke-linecap="round" stroke-linejoin="round" stroke-miterlimit="10" d="
			M313.688,103.391V31.4c0-4.734,3.852-8.586,8.585-8.586h143.982c4.733,0,8.584,3.851,8.584,8.586v71.99H313.688z"/>
		<g>
			<path fill-rule="evenodd" clip-rule="evenodd" fill="#414042" d="M394.398,33.867c3.259,0,5.913,2.67,5.913,5.945
				s-2.654,5.947-5.913,5.947c-3.256,0-5.913-2.672-5.913-5.947S391.143,33.867,394.398,33.867"/>
			<path fill-rule="evenodd" clip-rule="evenodd" fill="#414042" d="M372.865,53.061v0.021l-0.029,0.217
				c0,0.307,0.174,0.535,0.521,0.686c0.352,0.148,0.895,0.225,1.626,0.225c0.558,0,0.993-0.063,1.311-0.186
				c0.318-0.121,0.477-0.291,0.477-0.506c0-0.326-0.629-0.586-1.879-0.791c-0.147-0.021-0.256-0.041-0.327-0.051
				c-0.081-0.016-0.198-0.033-0.351-0.061c-1.989-0.326-3.268-0.676-3.832-1.057c-0.275-0.188-0.486-0.406-0.628-0.658
				c-0.138-0.254-0.207-0.539-0.207-0.853c0-0.779,0.456-1.369,1.368-1.775c0.914-0.406,2.251-0.609,4.01-0.609
				c1.738,0,3.025,0.189,3.865,0.568c0.836,0.383,1.256,0.971,1.256,1.76v0.092h-3.295v-0.035c0-0.274-0.162-0.477-0.496-0.615
				c-0.334-0.143-0.822-0.213-1.465-0.213c-0.498,0-0.885,0.049-1.151,0.148c-0.272,0.1-0.408,0.244-0.408,0.428
				c0,0.328,0.716,0.608,2.152,0.838c0.276,0.041,0.493,0.076,0.649,0.102c1.024,0.17,1.753,0.318,2.185,0.439
				c0.434,0.125,0.809,0.27,1.123,0.438c0.348,0.191,0.623,0.434,0.813,0.727c0.188,0.293,0.285,0.611,0.285,0.961
				c0,0.803-0.5,1.418-1.493,1.85c-0.995,0.43-2.428,0.646-4.295,0.646c-1.848,0-3.185-0.207-4.011-0.623
				c-0.828-0.414-1.236-1.08-1.236-1.996v-0.115H372.865z M381.883,55.664v-7.885h9.387v1.697h-5.861v1.258h5.42v1.678h-5.42v1.529
				h6.085v1.723H381.883z M392.963,55.664v-7.885h4.461l4.772,5.289v-5.289h3.387v7.885h-4.625l-4.619-5.309v5.309H392.963z
				 M414.688,52.518L413,49.654l-1.781,2.863H414.688z M409.318,55.664h-3.533l5.455-7.885h3.91l5.203,7.885h-3.924l-0.795-1.426
				h-5.467L409.318,55.664z"/>
			<path fill-rule="evenodd" clip-rule="evenodd" fill="#414042" d="M377.197,83.453l-3.147-2.959l9.585-16.633
				c0.521-0.908-0.133-2.041-1.18-2.041h-15.69v-4.16h25.253L377.197,83.453z"/>
			<path fill-rule="evenodd" clip-rule="evenodd" fill="#414042" d="M411.326,83.453l3.148-2.959l-9.584-16.633
				c-0.521-0.908,0.131-2.041,1.179-2.041h15.689v-4.16h-25.253L411.326,83.453z"/>
			<path fill-rule="evenodd" clip-rule="evenodd" fill="#414042" d="M394.228,62.057L394.263,62l14.229,23.52l-3.778,1.967
				l-9.17-15.357c-0.54-0.904-1.851-0.906-2.388,0c-3.058,5.152-9.109,15.357-9.109,15.357l-3.699-1.83
				C380.348,85.656,393.468,63.352,394.228,62.057"/>
		</g>
	</g>
	
		<path id="XMLID_79_" fill="#FFFFFF" stroke="#414042" stroke-width="2" stroke-linecap="round" stroke-linejoin="round" stroke-miterlimit="10" d="
		M322.272,122.32h143.982c7.422,0,13.439-6.016,13.439-13.438v-5.492H308.834v5.492C308.834,116.305,314.851,122.32,322.272,122.32z
		"/>
	
		<polyline id="XMLID_78_" fill="#FFFFFF" stroke="#414042" stroke-width="2" stroke-linecap="round" stroke-linejoin="round" stroke-miterlimit="10" points="
		337.25,150.465 181.032,150.465 181.032,156.299 335.115,156.299 	"/>
	
		<polyline id="XMLID_77_" fill="#FFFFFF" stroke="#414042" stroke-width="2" stroke-linecap="round" stroke-linejoin="round" stroke-miterlimit="10" points="
		451.262,150.465 607.494,150.465 607.494,156.299 453.411,156.299 	"/>
	
		<path id="XMLID_76_" fill="#DB5940" stroke="#414042" stroke-width="2" stroke-linecap="round" stroke-linejoin="round" stroke-miterlimit="10" d="
		M455.138,161.898c-5.032-21.105-34.837-74.496-60.875-74.496c-26.037,0-55.843,53.391-60.874,74.496
		c-4.922,20.645,5.906,36.164,27.725,36.164c21.818,0,33.149,0,33.149,0s11.331,0,33.15,0
		C449.231,198.063,460.06,182.543,455.138,161.898z"/>
	
		<path id="XMLID_75_" fill="none" stroke="#414042" stroke-width="2" stroke-linecap="round" stroke-linejoin="round" stroke-miterlimit="10" d="
		M448.647,186.432c-4.513,5.715-11.856,8.736-21.233,8.736h-66.3c-9.378,0-16.721-3.021-21.234-8.736
		c-4.639-5.875-5.943-14.35-3.676-23.861"/>
	
		<path id="XMLID_74_" fill="none" stroke="#414042" stroke-width="2" stroke-linecap="round" stroke-linejoin="round" stroke-miterlimit="10" d="
		M446.661,146.961c2.681,5.932,4.646,11.342,5.663,15.609c0.848,3.557,1.196,6.971,1.057,10.156"/>
	<g id="XMLID_70_">
		
			<polygon id="XMLID_73_" fill="#FFFFFF" stroke="#414042" stroke-width="2" stroke-linecap="round" stroke-linejoin="round" stroke-miterlimit="10" points="
			371.025,198.063 322.163,288.973 328.434,288.973 377.297,198.063 		"/>
		
			<polygon id="XMLID_72_" fill="#FFFFFF" stroke="#414042" stroke-width="2" stroke-linecap="round" stroke-linejoin="round" stroke-miterlimit="10" points="
			412.736,198.063 461.6,288.973 455.328,288.973 406.466,198.063 		"/>
		
			<rect id="XMLID_71_" x="388.808" y="198.062" fill="#FFFFFF" stroke="#414042" stroke-width="2" stroke-linecap="round" stroke-linejoin="round" stroke-miterlimit="10" width="6.148" height="90.91"/>
	</g>
	
		<line id="XMLID_69_" fill="none" stroke="#414042" stroke-width="2" stroke-linecap="round" stroke-linejoin="round" stroke-miterlimit="10" x1="342.783" y1="250.609" x2="441.29" y2="250.609"/>
	
		<circle id="XMLID_68_" fill="none" stroke="#414042" stroke-width="2" stroke-linecap="round" stroke-linejoin="round" stroke-miterlimit="10" cx="465.472" cy="114.07" r="2.427"/>
	
		<path id="XMLID_67_" fill="#FFFFFF" stroke="#414042" stroke-width="2" stroke-linecap="round" stroke-linejoin="round" stroke-miterlimit="10" d="
		M490.074,141.01h-0.926c-5.223,0-9.456,4.232-9.456,9.455l0,0h19.838l0,0C499.53,145.242,495.297,141.01,490.074,141.01z"/>
	
		<path id="XMLID_66_" fill="#FFFFFF" stroke="#414042" stroke-width="2" stroke-linecap="round" stroke-linejoin="round" stroke-miterlimit="10" d="
		M492.25,147.557h0.652c1.938,0,3.82-0.639,5.356-1.82l0,0"/>
	
		<polygon id="XMLID_65_" fill="#FFFFFF" stroke="#414042" stroke-width="2" stroke-linecap="round" stroke-linejoin="round" stroke-miterlimit="10" points="
		677.102,228.621 614.973,228.621 623.548,288.973 668.527,288.973 	"/>
	
		<rect id="XMLID_64_" x="212.557" y="166.654" fill="#FFFFFF" stroke="#414042" stroke-width="2" stroke-linecap="round" stroke-linejoin="round" stroke-miterlimit="10" width="49.238" height="24.592"/>
	
		<path id="XMLID_63_" fill="#FFFFFF" stroke="#414042" stroke-width="2" stroke-linecap="round" stroke-linejoin="round" stroke-miterlimit="10" d="
		M248.486,177.008h-22.62c-2.145,0-3.884,1.74-3.884,3.885l0,0h30.388l0,0C252.37,178.748,250.631,177.008,248.486,177.008z"/>
	
		<rect id="XMLID_62_" x="202.228" y="201.602" fill="#FFFFFF" stroke="#414042" stroke-width="2" stroke-linecap="round" stroke-linejoin="round" stroke-miterlimit="10" width="69.896" height="45.303"/>
	
		<rect id="XMLID_61_" x="212.557" y="211.957" fill="#FFFFFF" stroke="#414042" stroke-width="2" stroke-linecap="round" stroke-linejoin="round" stroke-miterlimit="10" width="49.238" height="24.594"/>
	
		<path id="XMLID_60_" fill="#FFFFFF" stroke="#414042" stroke-width="2" stroke-linecap="round" stroke-linejoin="round" stroke-miterlimit="10" d="
		M248.486,222.311h-22.62c-2.145,0-3.884,1.74-3.884,3.885l0,0h30.388l0,0C252.37,224.051,250.631,222.311,248.486,222.311z"/>
	
		<rect id="XMLID_59_" x="196.241" y="156.299" fill="#FFFFFF" stroke="#414042" stroke-width="2" stroke-linecap="round" stroke-linejoin="round" stroke-miterlimit="10" width="5.987" height="132.674"/>
	
		<rect id="XMLID_58_" x="272.125" y="156.299" fill="#FFFFFF" stroke="#414042" stroke-width="2" stroke-linecap="round" stroke-linejoin="round" stroke-miterlimit="10" width="5.986" height="132.674"/>
	
		<rect id="XMLID_57_" x="584.989" y="156.299" fill="#FFFFFF" stroke="#414042" stroke-width="2" stroke-linecap="round" stroke-linejoin="round" stroke-miterlimit="10" width="5.986" height="132.674"/>
	
		<polygon id="XMLID_56_" fill="none" stroke="#414042" stroke-width="2" stroke-linecap="round" stroke-linejoin="round" stroke-miterlimit="10" points="
		622.435,228.621 617.887,222.635 627.334,217.102 632.479,218.617 638.075,215.838 638.075,222.635 647.931,228.621 	"/>
	
		<line id="XMLID_55_" fill="none" stroke="#414042" stroke-width="2" stroke-linecap="round" stroke-linejoin="round" stroke-miterlimit="10" x1="632.479" y1="218.617" x2="628.626" y2="220.418"/>
	
		<line id="XMLID_54_" fill="none" stroke="#414042" stroke-width="2" stroke-linecap="round" stroke-linejoin="round" stroke-miterlimit="10" x1="638.075" y1="222.635" x2="638.075" y2="224.936"/>
	
		<polyline id="XMLID_53_" fill="none" stroke="#414042" stroke-width="2" stroke-linecap="round" stroke-linejoin="round" stroke-miterlimit="10" points="
		638.075,218.617 646.038,214.545 652.057,221.18 	"/>
	
		<polyline id="XMLID_52_" fill="none" stroke="#414042" stroke-width="2" stroke-linecap="round" stroke-linejoin="round" stroke-miterlimit="10" points="
		649.732,218.617 655.746,215.838 660.762,222.635 657.849,228.621 	"/>
	
		<polyline id="XMLID_51_" fill="none" stroke="#414042" stroke-width="2" stroke-linecap="round" stroke-linejoin="round" stroke-miterlimit="10" points="
		658.461,219.518 668.042,218.617 672.21,228.621 	"/>
	
		<polyline id="XMLID_50_" fill="none" stroke="#414042" stroke-width="2" stroke-linecap="round" stroke-linejoin="round" stroke-miterlimit="10" points="
		632.479,285.17 665.336,285.17 671.116,241.729 	"/>
	
		<rect id="XMLID_49_" x="614.973" y="228.621" fill="#414042" stroke="#414042" stroke-width="2" stroke-linecap="round" stroke-linejoin="round" stroke-miterlimit="10" width="62.13" height="4.092"/>
	
		<circle id="XMLID_48_" fill="#FFFFFF" stroke="#414042" stroke-width="2" stroke-linecap="round" stroke-linejoin="round" stroke-miterlimit="10" cx="540.674" cy="28.803" r="27.802"/>
	
		<circle id="XMLID_47_" fill="#FFFFFF" stroke="#414042" stroke-width="2" stroke-linecap="round" stroke-linejoin="round" stroke-miterlimit="10" cx="540.674" cy="28.803" r="22.666"/>
	
		<line id="XMLID_46_" fill="#FFFFFF" stroke="#414042" stroke-width="2" stroke-linecap="round" stroke-linejoin="round" stroke-miterlimit="10" x1="540.674" y1="28.803" x2="540.674" y2="13.863"/>
	
		<line id="XMLID_45_" fill="#FFFFFF" stroke="#414042" stroke-width="3" stroke-linecap="round" stroke-linejoin="round" stroke-miterlimit="10" x1="540.674" y1="28.803" x2="545.955" y2="34.084"/>
	<g id="XMLID_27_">
		<path id="XMLID_28_" fill="#414042" d="M539.767,48.414c-0.01-0.543,0.428-0.971,0.961-0.98l0,0c0.544,0,0.972,0.438,0.981,0.971
			l0,0c0,0.535-0.437,0.971-0.971,0.971l0,0C540.203,49.375,539.767,48.949,539.767,48.414z M532.854,47.842
			c-0.495-0.203-0.729-0.768-0.524-1.262l0,0c0.204-0.504,0.768-0.738,1.262-0.533l0,0c0.496,0.203,0.739,0.775,0.535,1.271l0,0
			c-0.155,0.369-0.515,0.601-0.903,0.601l0,0C533.106,47.92,532.98,47.891,532.854,47.842z M547.339,47.27
			c-0.214-0.486,0.02-1.059,0.515-1.262l0,0c0.495-0.215,1.067,0.02,1.271,0.514l0,0c0.203,0.496-0.029,1.068-0.524,1.271l0,0
			c-0.116,0.059-0.243,0.078-0.369,0.078l0,0C547.854,47.871,547.484,47.648,547.339,47.27z M526.176,43.406L526.176,43.406
			L526.176,43.406c-0.389-0.379-0.389-0.99-0.01-1.379l0,0c0.379-0.379,1-0.379,1.379,0l0,0c0.378,0.379,0.378,0.99,0,1.369l0,0
			c-0.186,0.193-0.438,0.291-0.69,0.291l0,0C526.612,43.688,526.36,43.59,526.176,43.406z M553.892,43.318
			c-0.379-0.379-0.388-0.99-0.01-1.369l0,0c0.378-0.389,0.99-0.389,1.378-0.01l0,0c0.379,0.379,0.379,1,0,1.379l0,0
			c-0.193,0.184-0.437,0.281-0.688,0.281l0,0C554.328,43.6,554.076,43.502,553.892,43.318z M521.69,36.756
			c-0.213-0.496,0.02-1.068,0.515-1.271l0,0c0.495-0.215,1.067,0.019,1.271,0.514l0,0c0.204,0.496-0.028,1.068-0.524,1.271l0,0
			c-0.116,0.049-0.242,0.078-0.368,0.078l0,0C522.205,37.348,521.846,37.125,521.69,36.756z M558.435,37.164
			c-0.496-0.205-0.729-0.777-0.524-1.271l0,0c0.204-0.496,0.767-0.729,1.272-0.525l0,0c0.494,0.203,0.727,0.768,0.524,1.271l0,0
			c-0.156,0.369-0.516,0.592-0.903,0.592l0,0C558.688,37.23,558.562,37.211,558.435,37.164z M520.099,28.883c0-0.01,0-0.029,0-0.039
			l0,0c0-0.02,0-0.029,0-0.039l0,0l0,0l0,0c0-0.543,0.427-0.971,0.971-0.971l0,0c0.534,0,0.971,0.428,0.971,0.971l0,0
			c0,0.01,0,0.019,0,0.039l0,0c0,0.01,0,0.02,0,0.039l0,0c0,0.533-0.436,0.971-0.971,0.971l0,0
			C520.536,29.854,520.099,29.426,520.099,28.883z M559.309,28.766c0-0.543,0.437-0.971,0.971-0.971l0,0
			c0.533-0.01,0.971,0.428,0.971,0.961l0,0c0,0.545-0.438,0.971-0.971,0.971l0,0C559.745,29.736,559.309,29.301,559.309,28.766z
			 M522.185,22.193c-0.505-0.203-0.737-0.766-0.534-1.262l0,0c0.204-0.494,0.776-0.738,1.273-0.524l0,0
			c0.495,0.203,0.728,0.768,0.524,1.262l0,0c-0.155,0.379-0.515,0.602-0.893,0.602l0,0
			C522.428,22.271,522.302,22.252,522.185,22.193z M557.882,21.641c-0.204-0.496,0.029-1.068,0.524-1.271l0,0
			c0.494-0.203,1.058,0.029,1.271,0.523l0,0c0.204,0.496-0.028,1.059-0.523,1.262l0,0c-0.127,0.059-0.253,0.078-0.379,0.078l0,0
			C558.396,22.232,558.037,22.01,557.882,21.641z M526.118,15.631c-0.38-0.377-0.38-0.99,0-1.367l0,0
			c0.378-0.389,0.989-0.389,1.368-0.012l0,0c0.379,0.379,0.379,1.002,0,1.379l0,0c-0.185,0.185-0.437,0.281-0.69,0.281l0,0
			C526.554,15.912,526.302,15.816,526.118,15.631z M553.834,15.602c-0.38-0.379-0.389-0.99,0-1.369l0,0
			c0.378-0.377,0.989-0.387,1.368,0l0,0c0.379,0.379,0.379,0.99,0,1.369l0,0c-0.185,0.195-0.436,0.283-0.688,0.283l0,0
			C554.271,15.885,554.018,15.797,553.834,15.602z M532.253,11.059c-0.204-0.494,0.029-1.059,0.533-1.272l0,0
			c0.496-0.203,1.06,0.029,1.263,0.524l0,0c0.204,0.496-0.029,1.068-0.524,1.273l0,0c-0.116,0.049-0.242,0.076-0.368,0.076l0,0
			C532.776,11.66,532.417,11.438,532.253,11.059z M547.785,11.574L547.785,11.574c-0.495-0.205-0.729-0.777-0.524-1.271l0,0
			c0.204-0.496,0.767-0.729,1.263-0.525l0,0l0,0l0,0c0.495,0.203,0.737,0.767,0.534,1.262l0,0c-0.155,0.379-0.524,0.602-0.903,0.602
			l0,0C548.027,11.641,547.901,11.621,547.785,11.574z M539.68,9.195c0-0.533,0.437-0.971,0.971-0.971l0,0
			c0.533,0,0.971,0.438,0.971,0.971l0,0c0,0.533-0.428,0.971-0.971,0.971l0,0C540.116,10.166,539.68,9.729,539.68,9.195z"/>
	</g>
	<g id="XMLID_17_">
		
			<polygon id="XMLID_26_" fill="#FFFFFF" stroke="#414042" stroke-width="2" stroke-linecap="round" stroke-linejoin="round" stroke-miterlimit="10" points="
			551.619,124.529 549.365,150.465 531.982,150.465 529.536,124.529 		"/>
		<g id="XMLID_23_">
			
				<line id="XMLID_25_" fill="none" stroke="#414042" stroke-width="2" stroke-linecap="round" stroke-linejoin="round" stroke-miterlimit="10" x1="537.634" y1="150.465" x2="536.896" y2="124.529"/>
			
				<line id="XMLID_24_" fill="none" stroke="#414042" stroke-width="2" stroke-linecap="round" stroke-linejoin="round" stroke-miterlimit="10" x1="543.521" y1="150.465" x2="544.258" y2="124.529"/>
		</g>
		
			<line id="XMLID_22_" fill="none" stroke="#414042" stroke-width="2" stroke-linecap="round" stroke-linejoin="round" stroke-miterlimit="10" x1="530.704" y1="129.121" x2="550.643" y2="129.121"/>
		
			<line id="XMLID_21_" fill="none" stroke="#414042" stroke-width="2" stroke-linecap="round" stroke-linejoin="round" stroke-miterlimit="10" x1="530.704" y1="134.457" x2="550.643" y2="134.457"/>
		
			<line id="XMLID_20_" fill="none" stroke="#414042" stroke-width="2" stroke-linecap="round" stroke-linejoin="round" stroke-miterlimit="10" x1="531.261" y1="139.793" x2="550.088" y2="139.793"/>
		
			<line id="XMLID_19_" fill="none" stroke="#414042" stroke-width="2" stroke-linecap="round" stroke-linejoin="round" stroke-miterlimit="10" x1="531.764" y1="145.129" x2="549.584" y2="145.129"/>
		
			<path id="XMLID_18_" fill="#FFFFFF" stroke="#414042" stroke-width="2" stroke-linecap="round" stroke-linejoin="round" stroke-miterlimit="10" d="
			M552.653,120.945h-24.151c-0.989,0-1.791,0.803-1.791,1.793l0,0c0,0.988,0.802,1.791,1.791,1.791h24.151
			c0.989,0,1.791-0.803,1.791-1.791l0,0C554.444,121.748,553.643,120.945,552.653,120.945z"/>
	</g>
	
		<rect id="XMLID_16_" x="221.982" y="114.07" fill="#FFFFFF" stroke="#414042" stroke-width="2" stroke-linecap="round" stroke-linejoin="round" stroke-miterlimit="10" width="65.365" height="36.395"/>
	<g id="XMLID_9_">
		
			<path id="XMLID_15_" fill="#FFFFFF" stroke="#414042" stroke-width="2" stroke-linecap="round" stroke-linejoin="round" stroke-miterlimit="10" d="
			M229.02,119.57L229.02,119.57c-1.43,0-2.588-1.158-2.588-2.588v-3.074c0-1.43,1.158-2.59,2.588-2.59l0,0
			c1.43,0,2.59,1.16,2.59,2.59v3.074C231.609,118.412,230.449,119.57,229.02,119.57z"/>
		
			<path id="XMLID_14_" fill="#FFFFFF" stroke="#414042" stroke-width="2" stroke-linecap="round" stroke-linejoin="round" stroke-miterlimit="10" d="
			M239.278,119.57L239.278,119.57c-1.43,0-2.589-1.158-2.589-2.588v-3.074c0-1.43,1.159-2.59,2.589-2.59l0,0
			c1.43,0,2.589,1.16,2.589,2.59v3.074C241.867,118.412,240.708,119.57,239.278,119.57z"/>
		
			<path id="XMLID_13_" fill="#FFFFFF" stroke="#414042" stroke-width="2" stroke-linecap="round" stroke-linejoin="round" stroke-miterlimit="10" d="
			M249.536,119.57L249.536,119.57c-1.43,0-2.589-1.158-2.589-2.588v-3.074c0-1.43,1.159-2.59,2.589-2.59l0,0
			c1.43,0,2.589,1.16,2.589,2.59v3.074C252.125,118.412,250.966,119.57,249.536,119.57z"/>
		
			<path id="XMLID_12_" fill="#FFFFFF" stroke="#414042" stroke-width="2" stroke-linecap="round" stroke-linejoin="round" stroke-miterlimit="10" d="
			M259.794,119.57L259.794,119.57c-1.43,0-2.589-1.158-2.589-2.588v-3.074c0-1.43,1.159-2.59,2.589-2.59l0,0
			c1.43,0,2.589,1.16,2.589,2.59v3.074C262.383,118.412,261.224,119.57,259.794,119.57z"/>
		
			<path id="XMLID_11_" fill="#FFFFFF" stroke="#414042" stroke-width="2" stroke-linecap="round" stroke-linejoin="round" stroke-miterlimit="10" d="
			M270.053,119.57L270.053,119.57c-1.43,0-2.59-1.158-2.59-2.588v-3.074c0-1.43,1.16-2.59,2.59-2.59l0,0
			c1.43,0,2.588,1.16,2.588,2.59v3.074C272.641,118.412,271.482,119.57,270.053,119.57z"/>
		
			<path id="XMLID_10_" fill="#FFFFFF" stroke="#414042" stroke-width="2" stroke-linecap="round" stroke-linejoin="round" stroke-miterlimit="10" d="
			M280.31,119.57L280.31,119.57c-1.43,0-2.59-1.158-2.59-2.588v-3.074c0-1.43,1.16-2.59,2.59-2.59l0,0c1.43,0,2.588,1.16,2.588,2.59
			v3.074C282.898,118.412,281.74,119.57,280.31,119.57z"/>
	</g>
	
		<line id="XMLID_8_" fill="none" stroke="#414042" stroke-width="2" stroke-linecap="round" stroke-linejoin="round" stroke-miterlimit="10" x1="687.994" y1="288.973" x2="142.66" y2="288.973"/>
	
		<line id="XMLID_7_" fill="none" stroke="#414042" stroke-width="2" stroke-linecap="round" stroke-linejoin="round" stroke-miterlimit="10" x1="563.34" y1="134.457" x2="746.661" y2="134.457"/>
	
		<line id="XMLID_6_" fill="none" stroke="#414042" stroke-width="2" stroke-linecap="round" stroke-linejoin="round" stroke-miterlimit="10" x1="1" y1="134.457" x2="184.321" y2="134.457"/>
	
		<line id="XMLID_5_" fill="none" stroke="#414042" stroke-width="2" stroke-linecap="round" stroke-linejoin="round" stroke-miterlimit="10" x1="83.328" y1="288.973" x2="120.68" y2="288.973"/>
	
		<line id="XMLID_4_" fill="none" stroke="#414042" stroke-width="2" stroke-linecap="round" stroke-linejoin="round" stroke-miterlimit="10" x1="709.309" y1="288.973" x2="746.661" y2="288.973"/>
	
		<polyline id="XMLID_3_" fill="none" stroke="#414042" stroke-width="2" stroke-linecap="round" stroke-linejoin="round" stroke-miterlimit="10" points="
		563.34,261.307 573.327,261.307 573.327,250.609 	"/>
	
		<line id="XMLID_2_" fill="none" stroke="#414042" stroke-width="2" stroke-linecap="round" stroke-linejoin="round" stroke-miterlimit="10" x1="573.327" y1="177.008" x2="573.327" y2="156.299"/>
	
		<line id="XMLID_1_" fill="none" stroke="#414042" stroke-width="2" stroke-linecap="round" stroke-linejoin="round" stroke-miterlimit="10" x1="289.994" y1="191.246" x2="289.994" y2="220.418"/>
</g>
</svg>