<!-- Generator: Adobe Illustrator 17.0.0, SVG Export Plug-In  -->
<svg version="1.1"
	 xmlns="http://www.w3.org/2000/svg" xmlns:xlink="http://www.w3.org/1999/xlink" xmlns:a="http://ns.adobe.com/AdobeSVGViewerExtensions/3.0/"
	 x="0px" y="0px" width="576.253px" height="148.301px" viewBox="0 0 576.253 148.301" enable-background="new 0 0 576.253 148.301"
	 xml:space="preserve">
<defs>
</defs>
<g>
	<g>
		<path fill="#414042" d="M166.055,45.96h-34.452c-0.65,0-1.18-0.528-1.18-1.179c0-0.65,0.529-1.178,1.18-1.178h34.452
			c0.651,0,1.179,0.527,1.179,1.178C167.233,45.432,166.706,45.96,166.055,45.96z"/>
	</g>
	<g>
		<path fill="#414042" d="M139.07,59.354h-28.585c-0.65,0-1.178-0.528-1.178-1.179c0-0.65,0.527-1.178,1.178-1.178h28.585
			c0.651,0,1.179,0.527,1.179,1.178C140.249,58.826,139.722,59.354,139.07,59.354z"/>
	</g>
	<g>
		<path fill="#414042" d="M124.777,45.96h-4.985c-0.652,0-1.18-0.528-1.18-1.179c0-0.65,0.527-1.178,1.18-1.178h4.985
			c0.651,0,1.179,0.527,1.179,1.178C125.956,45.432,125.429,45.96,124.777,45.96z"/>
	</g>
</g>
<g>
	<g>
		<path fill="#414042" d="M409.175,45.96h34.452c0.65,0,1.18-0.528,1.18-1.179c0-0.65-0.529-1.178-1.18-1.178h-34.452
			c-0.651,0-1.18,0.527-1.18,1.178C407.995,45.432,408.523,45.96,409.175,45.96z"/>
	</g>
	<g>
		<path fill="#414042" d="M436.159,59.354h28.584c0.65,0,1.179-0.528,1.179-1.179c0-0.65-0.528-1.178-1.179-1.178h-28.584
			c-0.651,0-1.178,0.527-1.178,1.178C434.982,58.826,435.508,59.354,436.159,59.354z"/>
	</g>
	<g>
		<path fill="#414042" d="M450.452,45.96h4.986c0.651,0,1.179-0.528,1.179-1.179c0-0.65-0.527-1.178-1.179-1.178h-4.986
			c-0.652,0-1.179,0.527-1.179,1.178C449.273,45.432,449.8,45.96,450.452,45.96z"/>
	</g>
</g>
<g>
	<g>
		<path fill="#414042" d="M421.597,140.015h-34.451c-0.65,0-1.18,0.528-1.18,1.179s0.529,1.178,1.18,1.178h34.451
			c0.652,0,1.18-0.527,1.18-1.178S422.249,140.015,421.597,140.015z"/>
	</g>
	<g>
		<path fill="#414042" d="M394.612,126.62h-28.584c-0.65,0-1.178,0.528-1.178,1.179c0,0.65,0.527,1.178,1.178,1.178h28.584
			c0.652,0,1.18-0.527,1.18-1.178C395.792,127.148,395.265,126.62,394.612,126.62z"/>
	</g>
	<g>
		<path fill="#414042" d="M380.319,140.015h-4.984c-0.652,0-1.18,0.528-1.18,1.179s0.527,1.178,1.18,1.178h4.984
			c0.652,0,1.18-0.527,1.18-1.178S380.972,140.015,380.319,140.015z"/>
	</g>
</g>
<g>
	<g>
		<path fill="#414042" d="M127.157,140.015h34.451c0.65,0,1.18,0.528,1.18,1.179s-0.529,1.178-1.18,1.178h-34.451
			c-0.652,0-1.18-0.527-1.18-1.178S126.505,140.015,127.157,140.015z"/>
	</g>
	<g>
		<path fill="#414042" d="M154.142,126.62h28.584c0.65,0,1.178,0.528,1.178,1.179c0,0.65-0.527,1.178-1.178,1.178h-28.584
			c-0.652,0-1.18-0.527-1.18-1.178C152.962,127.148,153.489,126.62,154.142,126.62z"/>
	</g>
	<g>
		<path fill="#414042" d="M168.435,140.015h4.984c0.652,0,1.18,0.528,1.18,1.179s-0.527,1.178-1.18,1.178h-4.984
			c-0.652,0-1.18-0.527-1.18-1.178S167.782,140.015,168.435,140.015z"/>
	</g>
</g>
<g>
	<g>
		<path fill="#414042" d="M242.737,21.909h34.451c0.65,0,1.178-0.528,1.178-1.179c0-0.65-0.527-1.178-1.178-1.178h-34.451
			c-0.651,0-1.18,0.527-1.18,1.178C241.558,21.381,242.086,21.909,242.737,21.909z"/>
	</g>
	<g>
		<path fill="#414042" d="M284.015,21.909h4.984c0.652,0,1.18-0.528,1.18-1.179c0-0.65-0.527-1.178-1.18-1.178h-4.984
			c-0.652,0-1.18,0.527-1.18,1.178C282.835,21.381,283.362,21.909,284.015,21.909z"/>
	</g>
</g>
<g>
	<g>
		<g>
			<polygon fill="#E6E7E8" points="533.24,0.696 533.063,0.696 533.063,23.56 510.697,23.56 510.697,0.696 510.521,0.696 
				499.162,20.371 510.536,40.354 510.536,87.127 533.223,87.127 533.223,40.354 544.602,20.371 			"/>
			<path fill="#414042" d="M533.223,87.824h-22.687c-0.385,0-0.695-0.313-0.695-0.697V40.538l-11.287-19.822
				c-0.121-0.214-0.117-0.477,0.005-0.692l11.359-19.676C510.041,0.132,510.271,0,510.521,0h0.177c0.387,0,0.697,0.31,0.697,0.696
				v22.168h20.972V0.696c0-0.386,0.312-0.696,0.696-0.696h0.178c0.25,0,0.479,0.132,0.604,0.348l11.36,19.676
				c0.124,0.215,0.126,0.479,0.003,0.692l-11.283,19.822v46.589C533.924,87.512,533.609,87.824,533.223,87.824z M511.234,86.431
				h21.293V40.354c0-0.121,0.031-0.239,0.093-0.346l11.178-19.633L533.76,2.987V23.56c0,0.386-0.312,0.697-0.697,0.697h-22.365
				c-0.385,0-0.695-0.311-0.695-0.697V2.989l-10.037,17.386l11.178,19.633c0.061,0.106,0.092,0.225,0.092,0.346V86.431z"/>
		</g>
		<g>
			<path fill="#FFFFFF" d="M528.363,87.127V53.129c0-3.579-2.903-6.483-6.481-6.483c-3.581,0-6.482,2.904-6.482,6.483v33.998
				H528.363z"/>
			<path fill="#414042" d="M528.363,87.824H515.4c-0.386,0-0.696-0.313-0.696-0.697V53.129c0-3.959,3.22-7.18,7.178-7.18
				s7.179,3.221,7.179,7.18v33.998C529.061,87.512,528.748,87.824,528.363,87.824z M516.097,86.431h11.57V53.129
				c0-3.191-2.596-5.786-5.785-5.786c-3.19,0-5.785,2.595-5.785,5.786V86.431z"/>
		</g>
		<g>
			<line fill="#E6E7E8" x1="510.536" y1="40.354" x2="521.16" y2="40.354"/>
			<path fill="#414042" d="M521.16,41.051h-10.624c-0.385,0-0.695-0.313-0.695-0.697s0.311-0.697,0.695-0.697h10.624
				c0.387,0,0.698,0.313,0.698,0.697S521.547,41.051,521.16,41.051z"/>
		</g>
	</g>
	<g>
		<g>
			<path fill="#DB5940" d="M539.849,78.48H503.77l-11.716,11.713c1.339,8.621,7.179,34.885,29.755,47.237
				c22.58-12.354,28.416-38.622,29.752-47.239L539.849,78.48z"/>
			<path fill="#414042" d="M521.809,138.127c-0.117,0-0.23-0.028-0.335-0.086c-23.017-12.594-28.864-39.727-30.108-47.741
				c-0.033-0.22,0.038-0.442,0.197-0.6l11.715-11.712c0.131-0.131,0.307-0.205,0.492-0.205h36.079c0.185,0,0.362,0.074,0.493,0.205
				l11.712,11.711c0.157,0.156,0.229,0.379,0.196,0.599c-1.243,8.017-7.088,35.149-30.107,47.743
				C522.038,138.099,521.923,138.127,521.809,138.127z M492.798,90.434c1.322,8.224,7.147,34.011,29.011,46.201
				c21.863-12.191,27.686-37.979,29.01-46.201l-11.258-11.257h-35.502L492.798,90.434z"/>
		</g>
		<g>
			<path fill="#FFFFFF" d="M521.809,130.717c-16.141-10.484-21.751-29.598-23.548-38.572l7.896-7.898h31.306l7.892,7.896
				C543.554,101.118,537.945,120.232,521.809,130.717z"/>
			<path fill="#414042" d="M521.809,131.414c-0.133,0-0.265-0.037-0.381-0.113c-16.64-10.808-22.221-30.889-23.852-39.02
				c-0.045-0.229,0.026-0.465,0.19-0.63l7.899-7.897c0.13-0.131,0.309-0.203,0.491-0.203h31.306c0.184,0,0.361,0.072,0.492,0.203
				l7.893,7.896c0.166,0.164,0.236,0.4,0.188,0.629c-2.023,10.104-7.818,28.607-23.85,39.021
				C522.071,131.377,521.94,131.414,521.809,131.414z M499.019,92.371c1.672,8.115,7.131,27.094,22.79,37.512
				c15.651-10.414,21.115-29.396,22.789-37.512l-7.424-7.428h-30.729L499.019,92.371z"/>
		</g>
		<g>
			<path fill="#414042" d="M521.809,119.319c-0.386,0-0.697-0.312-0.697-0.696v-26.48c0-0.385,0.312-0.696,0.697-0.696h23.546
				c0.386,0,0.697,0.312,0.697,0.696c0,0.385-0.312,0.697-0.697,0.697h-22.851v25.783
				C522.504,119.008,522.193,119.319,521.809,119.319z"/>
		</g>
	</g>
	<g>
		<path fill="#FFFFFF" d="M575.557,120.471h-20.636c-0.386,0-0.698-0.311-0.698-0.696c0-0.385,0.313-0.696,0.698-0.696h20.636
			c0.386,0,0.696,0.312,0.696,0.696C576.253,120.16,575.942,120.471,575.557,120.471z"/>
	</g>
	<g>
		<path fill="#FFFFFF" d="M565.238,131.168h-10.317c-0.386,0-0.698-0.313-0.698-0.697c0-0.386,0.313-0.697,0.698-0.697h10.317
			c0.385,0,0.696,0.311,0.696,0.697C565.935,130.855,565.623,131.168,565.238,131.168z"/>
	</g>
</g>
<g>
	<g>
		<g>
			<polygon fill="#E6E7E8" points="43.014,0.696 43.192,0.696 43.192,23.56 65.557,23.56 65.557,0.696 65.733,0.696 77.092,20.371 
				65.717,40.354 65.717,87.127 43.031,87.127 43.031,40.354 31.651,20.371 			"/>
			<path fill="#414042" d="M42.334,87.127V40.538L31.048,20.716c-0.124-0.214-0.122-0.477,0.002-0.692L42.41,0.348
				C42.535,0.132,42.764,0,43.014,0h0.179c0.384,0,0.696,0.31,0.696,0.696v22.168h20.971V0.696C64.859,0.31,65.172,0,65.557,0h0.177
				c0.249,0,0.479,0.132,0.603,0.348l11.359,19.676c0.124,0.215,0.126,0.479,0.004,0.692L66.412,40.538v46.589
				c0,0.385-0.311,0.697-0.695,0.697H43.031C42.645,87.824,42.334,87.512,42.334,87.127z M65.019,40.354
				c0-0.121,0.033-0.239,0.093-0.346l11.18-19.633L66.252,2.989V23.56c0,0.386-0.311,0.697-0.695,0.697H43.192
				c-0.387,0-0.698-0.311-0.698-0.697V2.987L32.457,20.375l11.179,19.633c0.06,0.106,0.091,0.225,0.091,0.346v46.077h21.292V40.354z
				"/>
		</g>
		<g>
			<path fill="#FFFFFF" d="M47.891,87.127V53.129c0-3.579,2.904-6.483,6.482-6.483c3.581,0,6.48,2.904,6.48,6.483v33.998H47.891z"/>
			<path fill="#414042" d="M47.193,87.127V53.129c0-3.959,3.222-7.18,7.18-7.18s7.177,3.221,7.177,7.18v33.998
				c0,0.385-0.312,0.697-0.696,0.697H47.891C47.506,87.824,47.193,87.512,47.193,87.127z M60.157,53.129
				c0-3.191-2.595-5.786-5.784-5.786c-3.191,0-5.785,2.595-5.785,5.786v33.302h11.569V53.129z"/>
		</g>
		<g>
			<line fill="#E6E7E8" x1="65.717" y1="40.354" x2="55.094" y2="40.354"/>
			<path fill="#414042" d="M55.094,41.051h10.623c0.385,0,0.695-0.313,0.695-0.697s-0.311-0.697-0.695-0.697H55.094
				c-0.387,0-0.697,0.313-0.697,0.697S54.707,41.051,55.094,41.051z"/>
		</g>
	</g>
	<g>
		<g>
			<path fill="#DB5940" d="M36.406,78.48h36.077l11.716,11.713c-1.337,8.621-7.178,34.885-29.753,47.237
				c-22.582-12.354-28.417-38.622-29.753-47.239L36.406,78.48z"/>
			<path fill="#414042" d="M54.111,138.041c-23.02-12.594-28.863-39.727-30.108-47.743c-0.034-0.22,0.039-0.442,0.196-0.599
				l11.712-11.711c0.132-0.131,0.309-0.205,0.494-0.205h36.077c0.186,0,0.362,0.074,0.493,0.205L84.691,89.7
				c0.16,0.157,0.229,0.38,0.199,0.6c-1.245,8.015-7.093,35.147-30.109,47.741c-0.105,0.058-0.219,0.086-0.335,0.086
				C54.331,138.127,54.217,138.099,54.111,138.041z M72.195,79.177H36.694L25.438,90.434c1.323,8.223,7.145,34.01,29.009,46.201
				c21.862-12.19,27.689-37.978,29.01-46.201L72.195,79.177z"/>
		</g>
		<g>
			<path fill="#FFFFFF" d="M54.446,130.717c16.139-10.484,21.751-29.598,23.548-38.572l-7.896-7.898H38.792l-7.893,7.896
				C32.699,101.118,38.309,120.232,54.446,130.717z"/>
			<path fill="#414042" d="M54.067,131.301c-16.031-10.414-21.825-28.917-23.851-39.021c-0.048-0.229,0.023-0.465,0.189-0.629
				l7.892-7.896c0.133-0.131,0.309-0.203,0.494-0.203h31.306c0.184,0,0.361,0.072,0.491,0.203l7.898,7.897
				c0.164,0.165,0.235,0.4,0.192,0.63c-1.632,8.131-7.214,28.212-23.854,39.02c-0.113,0.076-0.247,0.113-0.38,0.113
				C54.314,131.414,54.182,131.377,54.067,131.301z M69.809,84.943H39.081l-7.425,7.428c1.675,8.115,7.139,27.098,22.79,37.512
				c15.66-10.418,21.118-29.396,22.789-37.512L69.809,84.943z"/>
		</g>
		<g>
			<path fill="#414042" d="M54.446,119.319c0.386,0,0.696-0.312,0.696-0.696v-26.48c0-0.385-0.311-0.696-0.696-0.696H30.899
				c-0.386,0-0.696,0.312-0.696,0.696c0,0.385,0.311,0.697,0.696,0.697H53.75v25.783C53.75,119.008,54.063,119.319,54.446,119.319z"
				/>
		</g>
	</g>
	<g>
		<path fill="#FFFFFF" d="M0.697,120.471h20.637c0.385,0,0.697-0.311,0.697-0.696c0-0.385-0.313-0.696-0.697-0.696H0.697
			c-0.385,0-0.697,0.312-0.697,0.696C0,120.16,0.313,120.471,0.697,120.471z"/>
	</g>
	<g>
		<path fill="#FFFFFF" d="M11.015,131.168h10.319c0.385,0,0.697-0.313,0.697-0.697c0-0.386-0.313-0.697-0.697-0.697H11.015
			c-0.384,0-0.696,0.311-0.696,0.697C10.318,130.855,10.631,131.168,11.015,131.168z"/>
	</g>
</g>
<g>
	<rect x="85.742" y="147.133" fill="#FFFFFF" width="23.605" height="1.168"/>
	<rect x="55.494" y="147.133" fill="#FFFFFF" width="23.607" height="1.168"/>
	<rect x="48.855" y="147.133" fill="#FFFFFF" width="2.212" height="1.168"/>
</g>
<g>
	<rect x="454.319" y="147.133" fill="#FFFFFF" width="23.606" height="1.168"/>
	<rect x="484.566" y="147.133" fill="#FFFFFF" width="23.608" height="1.168"/>
	<rect x="512.599" y="147.133" fill="#FFFFFF" width="2.216" height="1.168"/>
</g>
<g>
	<path fill="#414042" d="M107.059,114.639c0,0.183-0.009,0.334-0.028,0.457c-0.02,0.124-0.05,0.223-0.088,0.297
		c-0.039,0.075-0.085,0.128-0.136,0.16c-0.054,0.033-0.107,0.05-0.166,0.05h-3.025v3.296c0,0.066-0.017,0.123-0.048,0.171
		c-0.032,0.048-0.089,0.091-0.165,0.126c-0.079,0.037-0.183,0.064-0.313,0.084c-0.131,0.019-0.29,0.029-0.487,0.029
		c-0.192,0-0.354-0.011-0.483-0.029c-0.132-0.02-0.234-0.047-0.313-0.084c-0.08-0.035-0.135-0.078-0.173-0.126
		c-0.032-0.048-0.05-0.104-0.05-0.171v-3.296h-3.018c-0.057,0-0.11-0.017-0.16-0.05c-0.048-0.032-0.091-0.085-0.131-0.16
		c-0.037-0.074-0.069-0.173-0.093-0.297c-0.022-0.123-0.032-0.274-0.032-0.457c0-0.175,0.01-0.324,0.029-0.452
		c0.018-0.127,0.047-0.227,0.082-0.3c0.035-0.076,0.077-0.13,0.121-0.161c0.045-0.033,0.098-0.05,0.156-0.05h3.045v-3.287
		c0-0.066,0.018-0.124,0.05-0.181c0.038-0.055,0.093-0.101,0.173-0.136c0.078-0.037,0.181-0.063,0.313-0.082
		c0.129-0.02,0.291-0.029,0.483-0.029c0.197,0,0.356,0.009,0.487,0.029c0.13,0.019,0.233,0.045,0.313,0.082
		c0.076,0.035,0.133,0.081,0.165,0.136c0.031,0.057,0.048,0.115,0.048,0.181v3.287h3.054c0.053,0,0.102,0.017,0.152,0.05
		c0.047,0.031,0.091,0.085,0.126,0.161c0.036,0.073,0.063,0.173,0.083,0.3C107.05,114.314,107.059,114.464,107.059,114.639z"/>
</g>
<g>
	<path fill="#414042" d="M483.01,114.639c0,0.183-0.008,0.334-0.025,0.457c-0.023,0.124-0.051,0.223-0.091,0.297
		c-0.04,0.075-0.085,0.128-0.136,0.16c-0.054,0.033-0.107,0.05-0.166,0.05h-3.025v3.296c0,0.066-0.016,0.123-0.048,0.171
		c-0.032,0.048-0.089,0.091-0.164,0.126c-0.08,0.037-0.184,0.064-0.314,0.084c-0.131,0.019-0.289,0.029-0.487,0.029
		c-0.192,0-0.354-0.011-0.483-0.029c-0.131-0.02-0.234-0.047-0.312-0.084c-0.079-0.035-0.134-0.078-0.174-0.126
		c-0.032-0.048-0.05-0.104-0.05-0.171v-3.296h-3.017c-0.058,0-0.111-0.017-0.161-0.05c-0.047-0.032-0.088-0.085-0.131-0.16
		c-0.037-0.074-0.069-0.173-0.093-0.297c-0.022-0.123-0.032-0.274-0.032-0.457c0-0.175,0.01-0.324,0.029-0.452
		c0.017-0.127,0.047-0.227,0.082-0.3c0.036-0.076,0.077-0.13,0.121-0.161c0.045-0.033,0.097-0.05,0.156-0.05h3.045v-3.287
		c0-0.066,0.018-0.124,0.05-0.181c0.04-0.055,0.095-0.101,0.174-0.136c0.077-0.037,0.181-0.063,0.312-0.082
		c0.13-0.02,0.291-0.029,0.483-0.029c0.198,0,0.356,0.009,0.487,0.029c0.13,0.019,0.233,0.045,0.314,0.082
		c0.075,0.035,0.132,0.081,0.164,0.136c0.032,0.057,0.048,0.115,0.048,0.181v3.287h3.054c0.053,0,0.103,0.017,0.153,0.05
		c0.046,0.031,0.091,0.085,0.125,0.161c0.036,0.073,0.063,0.173,0.086,0.3C483.002,114.314,483.01,114.464,483.01,114.639z"/>
</g>
<g>
	<path fill="#414042" d="M473.381,31.691c0,0.184-0.008,0.335-0.027,0.457c-0.02,0.125-0.05,0.223-0.086,0.297
		c-0.043,0.075-0.087,0.128-0.139,0.161c-0.053,0.032-0.107,0.049-0.166,0.049h-3.024v3.297c0,0.066-0.018,0.122-0.048,0.17
		c-0.033,0.048-0.089,0.092-0.165,0.127c-0.079,0.036-0.183,0.064-0.313,0.083c-0.13,0.02-0.289,0.029-0.486,0.029
		c-0.191,0-0.355-0.01-0.484-0.029c-0.131-0.019-0.232-0.047-0.311-0.083c-0.081-0.035-0.135-0.079-0.172-0.127
		c-0.035-0.048-0.051-0.104-0.051-0.17v-3.297h-3.02c-0.056,0-0.109-0.017-0.159-0.049c-0.048-0.033-0.092-0.086-0.131-0.161
		c-0.038-0.074-0.069-0.172-0.093-0.297c-0.023-0.122-0.032-0.273-0.032-0.457c0-0.175,0.009-0.324,0.029-0.451
		c0.018-0.127,0.049-0.226,0.081-0.301c0.036-0.075,0.078-0.129,0.122-0.161c0.046-0.032,0.098-0.05,0.156-0.05h3.046v-3.286
		c0-0.066,0.016-0.125,0.051-0.181c0.037-0.056,0.091-0.102,0.172-0.137c0.078-0.036,0.18-0.063,0.311-0.082
		c0.129-0.02,0.293-0.029,0.484-0.029c0.197,0,0.356,0.01,0.486,0.029c0.131,0.019,0.234,0.046,0.313,0.082
		c0.076,0.035,0.132,0.081,0.165,0.137c0.03,0.056,0.048,0.115,0.048,0.181v3.286h3.054c0.053,0,0.102,0.018,0.152,0.05
		c0.048,0.032,0.091,0.086,0.125,0.161c0.037,0.074,0.063,0.174,0.084,0.301C473.373,31.367,473.381,31.517,473.381,31.691z"/>
</g>
<g>
	<path fill="#414042" d="M118.133,31.691c0,0.184-0.008,0.335-0.027,0.457c-0.021,0.125-0.05,0.223-0.088,0.297
		c-0.041,0.075-0.085,0.128-0.137,0.161c-0.053,0.032-0.107,0.049-0.167,0.049h-3.022v3.297c0,0.066-0.018,0.122-0.049,0.17
		c-0.033,0.048-0.089,0.092-0.165,0.127c-0.079,0.036-0.183,0.064-0.313,0.083c-0.131,0.02-0.29,0.029-0.487,0.029
		c-0.194,0-0.355-0.01-0.484-0.029c-0.129-0.019-0.233-0.047-0.312-0.083c-0.08-0.035-0.134-0.079-0.172-0.127
		c-0.034-0.048-0.052-0.104-0.052-0.17v-3.297h-3.018c-0.056,0-0.109-0.017-0.158-0.049c-0.049-0.033-0.092-0.086-0.132-0.161
		c-0.038-0.074-0.067-0.172-0.093-0.297c-0.023-0.122-0.032-0.273-0.032-0.457c0-0.175,0.009-0.324,0.029-0.451
		c0.018-0.127,0.047-0.226,0.081-0.301c0.037-0.075,0.078-0.129,0.122-0.161c0.044-0.032,0.098-0.05,0.156-0.05h3.044v-3.286
		c0-0.066,0.018-0.125,0.052-0.181c0.038-0.056,0.092-0.102,0.172-0.137c0.078-0.036,0.183-0.063,0.312-0.082
		c0.129-0.02,0.29-0.029,0.484-0.029c0.197,0,0.356,0.01,0.487,0.029c0.13,0.019,0.233,0.046,0.313,0.082
		c0.076,0.035,0.132,0.081,0.165,0.137c0.031,0.056,0.049,0.115,0.049,0.181v3.286h3.053c0.053,0,0.104,0.018,0.153,0.05
		c0.046,0.032,0.09,0.086,0.126,0.161c0.035,0.074,0.062,0.174,0.082,0.301C118.125,31.367,118.133,31.517,118.133,31.691z"/>
</g>
</svg>