<!-- Generator: Adobe Illustrator 17.0.0, SVG Export Plug-In  -->
<svg version="1.1"
	 xmlns="http://www.w3.org/2000/svg" xmlns:xlink="http://www.w3.org/1999/xlink" xmlns:a="http://ns.adobe.com/AdobeSVGViewerExtensions/3.0/"
	 x="0px" y="0px" width="441.917px" height="122.818px" viewBox="0 0 441.917 122.818" enable-background="new 0 0 441.917 122.818"
	 xml:space="preserve">
<defs>
</defs>
<g>
	<g>
		<path fill="#414042" d="M110.559,26.407H76.106c-0.65,0-1.18-0.528-1.18-1.179s0.529-1.178,1.18-1.178h34.452
			c0.651,0,1.179,0.527,1.179,1.178S111.21,26.407,110.559,26.407z"/>
	</g>
	<g>
		<path fill="#414042" d="M83.574,39.802H54.989c-0.65,0-1.178-0.528-1.178-1.179c0-0.65,0.527-1.178,1.178-1.178h28.585
			c0.651,0,1.179,0.527,1.179,1.178C84.753,39.273,84.226,39.802,83.574,39.802z"/>
	</g>
	<g>
		<path fill="#414042" d="M69.281,26.407h-4.985c-0.652,0-1.18-0.528-1.18-1.179s0.527-1.178,1.18-1.178h4.985
			c0.651,0,1.179,0.527,1.179,1.178S69.933,26.407,69.281,26.407z"/>
	</g>
</g>
<g>
	<g>
		<path fill="#414042" d="M353.679,26.407h34.452c0.65,0,1.18-0.528,1.18-1.179s-0.529-1.178-1.18-1.178h-34.452
			c-0.651,0-1.18,0.527-1.18,1.178S353.027,26.407,353.679,26.407z"/>
	</g>
	<g>
		<path fill="#414042" d="M380.663,39.802h28.584c0.65,0,1.179-0.528,1.179-1.179c0-0.65-0.528-1.178-1.179-1.178h-28.584
			c-0.651,0-1.178,0.527-1.178,1.178C379.485,39.273,380.012,39.802,380.663,39.802z"/>
	</g>
	<g>
		<path fill="#414042" d="M394.956,26.407h4.986c0.651,0,1.179-0.528,1.179-1.179s-0.527-1.178-1.179-1.178h-4.986
			c-0.652,0-1.179,0.527-1.179,1.178S394.304,26.407,394.956,26.407z"/>
	</g>
</g>
<g>
	<g>
		<path fill="#414042" d="M366.101,120.462H331.65c-0.65,0-1.18,0.528-1.18,1.179c0,0.65,0.529,1.178,1.18,1.178h34.451
			c0.652,0,1.18-0.527,1.18-1.178C367.28,120.99,366.753,120.462,366.101,120.462z"/>
	</g>
	<g>
		<path fill="#414042" d="M339.116,107.067h-28.584c-0.65,0-1.178,0.528-1.178,1.179s0.527,1.178,1.178,1.178h28.584
			c0.652,0,1.18-0.527,1.18-1.178S339.769,107.067,339.116,107.067z"/>
	</g>
	<g>
		<path fill="#414042" d="M324.823,120.462h-4.984c-0.652,0-1.18,0.528-1.18,1.179c0,0.65,0.527,1.178,1.18,1.178h4.984
			c0.652,0,1.18-0.527,1.18-1.178C326.003,120.99,325.476,120.462,324.823,120.462z"/>
	</g>
</g>
<g>
	<g>
		<path fill="#414042" d="M71.661,120.462h34.451c0.65,0,1.18,0.528,1.18,1.179c0,0.65-0.529,1.178-1.18,1.178H71.661
			c-0.652,0-1.18-0.527-1.18-1.178C70.481,120.99,71.009,120.462,71.661,120.462z"/>
	</g>
	<g>
		<path fill="#414042" d="M98.646,107.067h28.584c0.65,0,1.178,0.528,1.178,1.179s-0.527,1.178-1.178,1.178H98.646
			c-0.652,0-1.18-0.527-1.18-1.178S97.993,107.067,98.646,107.067z"/>
	</g>
	<g>
		<path fill="#414042" d="M112.938,120.462h4.984c0.652,0,1.18,0.528,1.18,1.179c0,0.65-0.527,1.178-1.18,1.178h-4.984
			c-0.652,0-1.18-0.527-1.18-1.178C111.759,120.99,112.286,120.462,112.938,120.462z"/>
	</g>
</g>
<g>
	<g>
		<path fill="#414042" d="M187.241,2.356h34.451c0.65,0,1.178-0.528,1.178-1.179S222.343,0,221.692,0h-34.451
			c-0.651,0-1.18,0.527-1.18,1.178S186.59,2.356,187.241,2.356z"/>
	</g>
	<g>
		<path fill="#414042" d="M228.519,2.356h4.984c0.652,0,1.18-0.528,1.18-1.179S234.155,0,233.503,0h-4.984
			c-0.652,0-1.18,0.527-1.18,1.178S227.866,2.356,228.519,2.356z"/>
	</g>
</g>
<g>
	<rect x="36.887" y="72.96" fill="#414042" width="23.605" height="1.168"/>
	<rect x="6.639" y="72.96" fill="#414042" width="23.607" height="1.168"/>
	<rect x="0" y="72.96" fill="#414042" width="2.212" height="1.168"/>
</g>
<g>
	<rect x="381.422" y="65.613" fill="#414042" width="23.606" height="1.168"/>
	<rect x="411.669" y="65.613" fill="#414042" width="23.608" height="1.168"/>
	<rect x="439.701" y="65.613" fill="#414042" width="2.216" height="1.168"/>
</g>
<g>
	<path fill="#414042" d="M51.563,95.086c0,0.184-0.009,0.334-0.028,0.457c-0.021,0.124-0.05,0.223-0.088,0.297
		c-0.039,0.075-0.085,0.128-0.136,0.16c-0.054,0.033-0.107,0.05-0.166,0.05h-3.025v3.296c0,0.066-0.017,0.123-0.048,0.171
		c-0.032,0.048-0.089,0.091-0.165,0.126c-0.079,0.037-0.183,0.064-0.313,0.084c-0.131,0.019-0.29,0.029-0.487,0.029
		c-0.192,0-0.354-0.011-0.483-0.029c-0.132-0.02-0.234-0.047-0.313-0.084c-0.08-0.035-0.135-0.078-0.173-0.126
		c-0.032-0.048-0.05-0.104-0.05-0.171V96.05H43.07c-0.057,0-0.11-0.017-0.16-0.05c-0.048-0.032-0.091-0.085-0.131-0.16
		c-0.037-0.074-0.069-0.173-0.093-0.297c-0.022-0.123-0.032-0.273-0.032-0.457c0-0.175,0.01-0.324,0.029-0.452
		c0.018-0.127,0.047-0.227,0.082-0.3c0.035-0.076,0.077-0.13,0.121-0.161c0.045-0.033,0.098-0.05,0.156-0.05h3.045v-3.287
		c0-0.065,0.018-0.124,0.05-0.181c0.038-0.055,0.093-0.1,0.173-0.136c0.078-0.037,0.181-0.063,0.313-0.082
		c0.129-0.021,0.291-0.029,0.483-0.029c0.197,0,0.356,0.009,0.487,0.029c0.13,0.019,0.233,0.045,0.313,0.082
		c0.076,0.035,0.133,0.081,0.165,0.136c0.031,0.057,0.048,0.115,0.048,0.181v3.287h3.054c0.053,0,0.102,0.017,0.152,0.05
		c0.047,0.031,0.091,0.085,0.126,0.161c0.036,0.073,0.063,0.173,0.083,0.3C51.554,94.762,51.563,94.911,51.563,95.086z"/>
</g>
<g>
	<path fill="#414042" d="M427.514,95.086c0,0.184-0.008,0.334-0.025,0.457c-0.023,0.124-0.051,0.223-0.091,0.297
		c-0.04,0.075-0.085,0.128-0.136,0.16c-0.054,0.033-0.107,0.05-0.166,0.05h-3.025v3.296c0,0.066-0.016,0.123-0.048,0.171
		c-0.032,0.048-0.089,0.091-0.164,0.126c-0.08,0.037-0.184,0.064-0.313,0.084c-0.131,0.019-0.289,0.029-0.487,0.029
		c-0.192,0-0.354-0.011-0.483-0.029c-0.131-0.02-0.234-0.047-0.312-0.084c-0.079-0.035-0.134-0.078-0.174-0.126
		c-0.032-0.048-0.05-0.104-0.05-0.171V96.05h-3.017c-0.058,0-0.111-0.017-0.161-0.05c-0.047-0.032-0.088-0.085-0.131-0.16
		c-0.037-0.074-0.069-0.173-0.093-0.297c-0.022-0.123-0.032-0.273-0.032-0.457c0-0.175,0.01-0.324,0.029-0.452
		c0.017-0.127,0.047-0.227,0.082-0.3c0.036-0.076,0.077-0.13,0.121-0.161c0.045-0.033,0.097-0.05,0.156-0.05h3.045v-3.287
		c0-0.065,0.018-0.124,0.05-0.181c0.04-0.055,0.095-0.1,0.174-0.136c0.077-0.037,0.181-0.063,0.312-0.082
		c0.13-0.021,0.291-0.029,0.483-0.029c0.198,0,0.356,0.009,0.487,0.029c0.13,0.019,0.233,0.045,0.313,0.082
		c0.075,0.035,0.132,0.081,0.164,0.136c0.032,0.057,0.048,0.115,0.048,0.181v3.287h3.054c0.053,0,0.102,0.017,0.153,0.05
		c0.046,0.031,0.091,0.085,0.125,0.161c0.036,0.073,0.063,0.173,0.086,0.3C427.506,94.762,427.514,94.911,427.514,95.086z"/>
</g>
<g>
	<path fill="#414042" d="M417.885,12.139c0,0.184-0.008,0.335-0.027,0.457c-0.021,0.125-0.05,0.223-0.086,0.297
		c-0.043,0.075-0.087,0.128-0.139,0.161c-0.053,0.032-0.108,0.049-0.166,0.049h-3.024v3.297c0,0.065-0.017,0.122-0.048,0.17
		c-0.033,0.048-0.089,0.092-0.165,0.127c-0.079,0.036-0.183,0.064-0.313,0.083c-0.13,0.019-0.289,0.029-0.486,0.029
		c-0.191,0-0.355-0.01-0.484-0.029c-0.131-0.019-0.233-0.047-0.311-0.083c-0.081-0.035-0.135-0.079-0.172-0.127
		c-0.035-0.048-0.051-0.104-0.051-0.17v-3.297h-3.02c-0.056,0-0.109-0.017-0.159-0.049c-0.048-0.033-0.092-0.086-0.131-0.161
		c-0.038-0.074-0.069-0.172-0.093-0.297c-0.023-0.122-0.032-0.274-0.032-0.457c0-0.175,0.009-0.324,0.029-0.451
		c0.018-0.127,0.049-0.227,0.081-0.301c0.036-0.075,0.078-0.129,0.122-0.161c0.046-0.032,0.098-0.05,0.156-0.05h3.046V7.89
		c0-0.065,0.016-0.125,0.051-0.181c0.037-0.056,0.091-0.102,0.172-0.137c0.078-0.036,0.18-0.063,0.311-0.082
		c0.129-0.02,0.293-0.029,0.484-0.029c0.197,0,0.357,0.01,0.486,0.029c0.131,0.019,0.234,0.046,0.313,0.082
		c0.076,0.035,0.132,0.081,0.165,0.137c0.03,0.056,0.048,0.115,0.048,0.181v3.286h3.054c0.053,0,0.102,0.018,0.152,0.05
		c0.048,0.032,0.091,0.086,0.125,0.161c0.037,0.074,0.063,0.174,0.084,0.301C417.877,11.814,417.885,11.964,417.885,12.139z"/>
</g>
<g>
	<path fill="#414042" d="M62.637,12.139c0,0.184-0.008,0.335-0.027,0.457c-0.021,0.125-0.05,0.223-0.088,0.297
		c-0.041,0.075-0.085,0.128-0.137,0.161c-0.053,0.032-0.107,0.049-0.167,0.049h-3.022v3.297c0,0.065-0.018,0.122-0.049,0.17
		c-0.033,0.048-0.089,0.092-0.165,0.127c-0.079,0.036-0.183,0.064-0.313,0.083c-0.131,0.019-0.29,0.029-0.487,0.029
		c-0.194,0-0.355-0.01-0.484-0.029c-0.129-0.019-0.233-0.047-0.312-0.083c-0.08-0.035-0.134-0.079-0.172-0.127
		c-0.034-0.048-0.052-0.104-0.052-0.17v-3.297h-3.018c-0.056,0-0.109-0.017-0.158-0.049c-0.049-0.033-0.092-0.086-0.132-0.161
		c-0.038-0.074-0.067-0.172-0.093-0.297c-0.023-0.122-0.032-0.274-0.032-0.457c0-0.175,0.009-0.324,0.029-0.451
		c0.018-0.127,0.047-0.227,0.081-0.301c0.037-0.075,0.078-0.129,0.122-0.161c0.044-0.032,0.098-0.05,0.156-0.05h3.044V7.89
		c0-0.065,0.018-0.125,0.052-0.181c0.038-0.056,0.092-0.102,0.172-0.137c0.078-0.036,0.183-0.063,0.312-0.082
		c0.129-0.02,0.29-0.029,0.484-0.029c0.197,0,0.356,0.01,0.487,0.029c0.13,0.019,0.233,0.046,0.313,0.082
		c0.076,0.035,0.132,0.081,0.165,0.137c0.031,0.056,0.049,0.115,0.049,0.181v3.286h3.053c0.053,0,0.103,0.018,0.153,0.05
		c0.046,0.032,0.09,0.086,0.126,0.161c0.035,0.074,0.062,0.174,0.082,0.301C62.629,11.814,62.637,11.964,62.637,12.139z"/>
</g>
</svg>