<?xml version="1.0" encoding="utf-8"?>
<!-- Generator: Adobe Illustrator 17.0.0, SVG Export Plug-In . SVG Version: 6.00 Build 0)  -->
<!DOCTYPE svg PUBLIC "-//W3C//DTD SVG 1.1//EN" "http://www.w3.org/Graphics/SVG/1.1/DTD/svg11.dtd" [
	<!ENTITY ns_extend "http://ns.adobe.com/Extensibility/1.0/">
	<!ENTITY ns_ai "http://ns.adobe.com/AdobeIllustrator/10.0/">
	<!ENTITY ns_graphs "http://ns.adobe.com/Graphs/1.0/">
	<!ENTITY ns_vars "http://ns.adobe.com/Variables/1.0/">
	<!ENTITY ns_imrep "http://ns.adobe.com/ImageReplacement/1.0/">
	<!ENTITY ns_sfw "http://ns.adobe.com/SaveForWeb/1.0/">
	<!ENTITY ns_custom "http://ns.adobe.com/GenericCustomNamespace/1.0/">
	<!ENTITY ns_adobe_xpath "http://ns.adobe.com/XPath/1.0/">
]>
<svg version="1.1" id="Capa_1" xmlns:x="&ns_extend;" xmlns:i="&ns_ai;" xmlns:graph="&ns_graphs;"
	 xmlns="http://www.w3.org/2000/svg" xmlns:xlink="http://www.w3.org/1999/xlink" x="0px" y="0px" width="156.742px"
	 height="41.169px" viewBox="0 0 156.742 41.169" enable-background="new 0 0 156.742 41.169" xml:space="preserve">
<metadata><?xpacket begin="﻿" id="W5M0MpCehiHzreSzNTczkc9d"?>
<x:xmpmeta xmlns:x="adobe:ns:meta/" x:xmptk="Adobe XMP Core 5.5-c014 79.151739, 2013/04/03-12:12:15        ">
   <rdf:RDF xmlns:rdf="http://www.w3.org/1999/02/22-rdf-syntax-ns#">
      <rdf:Description rdf:about=""
            xmlns:dc="http://purl.org/dc/elements/1.1/"
            xmlns:xmp="http://ns.adobe.com/xap/1.0/"
            xmlns:xmpGImg="http://ns.adobe.com/xap/1.0/g/img/"
            xmlns:xmpMM="http://ns.adobe.com/xap/1.0/mm/"
            xmlns:stRef="http://ns.adobe.com/xap/1.0/sType/ResourceRef#"
            xmlns:stEvt="http://ns.adobe.com/xap/1.0/sType/ResourceEvent#"
            xmlns:illustrator="http://ns.adobe.com/illustrator/1.0/"
            xmlns:xmpTPg="http://ns.adobe.com/xap/1.0/t/pg/"
            xmlns:stDim="http://ns.adobe.com/xap/1.0/sType/Dimensions#"
            xmlns:xmpG="http://ns.adobe.com/xap/1.0/g/"
            xmlns:pdf="http://ns.adobe.com/pdf/1.3/">
         <dc:format>image/svg+xml</dc:format>
         <dc:title>
            <rdf:Alt>
               <rdf:li xml:lang="x-default">Imprimir</rdf:li>
            </rdf:Alt>
         </dc:title>
         <xmp:MetadataDate>2017-10-11T11:09:04-05:00</xmp:MetadataDate>
         <xmp:ModifyDate>2017-10-11T11:09:04-05:00</xmp:ModifyDate>
         <xmp:CreateDate>2017-10-11T11:09:04-05:00</xmp:CreateDate>
         <xmp:CreatorTool>Adobe Illustrator CC (Windows)</xmp:CreatorTool>
         <xmp:Thumbnails>
            <rdf:Alt>
               <rdf:li rdf:parseType="Resource">
                  <xmpGImg:width>256</xmpGImg:width>
                  <xmpGImg:height>68</xmpGImg:height>
                  <xmpGImg:format>JPEG</xmpGImg:format>
                  <xmpGImg:image>/9j/4AAQSkZJRgABAgEASABIAAD/7QAsUGhvdG9zaG9wIDMuMAA4QklNA+0AAAAAABAASAAAAAEA&#xA;AQBIAAAAAQAB/+4ADkFkb2JlAGTAAAAAAf/bAIQABgQEBAUEBgUFBgkGBQYJCwgGBggLDAoKCwoK&#xA;DBAMDAwMDAwQDA4PEA8ODBMTFBQTExwbGxscHx8fHx8fHx8fHwEHBwcNDA0YEBAYGhURFRofHx8f&#xA;Hx8fHx8fHx8fHx8fHx8fHx8fHx8fHx8fHx8fHx8fHx8fHx8fHx8fHx8fHx8f/8AAEQgARAEAAwER&#xA;AAIRAQMRAf/EAaIAAAAHAQEBAQEAAAAAAAAAAAQFAwIGAQAHCAkKCwEAAgIDAQEBAQEAAAAAAAAA&#xA;AQACAwQFBgcICQoLEAACAQMDAgQCBgcDBAIGAnMBAgMRBAAFIRIxQVEGE2EicYEUMpGhBxWxQiPB&#xA;UtHhMxZi8CRygvElQzRTkqKyY3PCNUQnk6OzNhdUZHTD0uIIJoMJChgZhJRFRqS0VtNVKBry4/PE&#xA;1OT0ZXWFlaW1xdXl9WZ2hpamtsbW5vY3R1dnd4eXp7fH1+f3OEhYaHiImKi4yNjo+Ck5SVlpeYmZ&#xA;qbnJ2en5KjpKWmp6ipqqusra6voRAAICAQIDBQUEBQYECAMDbQEAAhEDBCESMUEFURNhIgZxgZEy&#xA;obHwFMHR4SNCFVJicvEzJDRDghaSUyWiY7LCB3PSNeJEgxdUkwgJChgZJjZFGidkdFU38qOzwygp&#xA;0+PzhJSktMTU5PRldYWVpbXF1eX1RlZmdoaWprbG1ub2R1dnd4eXp7fH1+f3OEhYaHiImKi4yNjo&#xA;+DlJWWl5iZmpucnZ6fkqOkpaanqKmqq6ytrq+v/aAAwDAQACEQMRAD8ATzmH012KuxV2KuxV2Kux&#xA;V2KuxV2KuxV2KuxV2KuxV2KuxV2KuxV2KuxV2KuxV2KuxV2KuxV2KuxV2KuxV2KuxV2KuxV2KuxV&#xA;2KuxV2KuxV2KuxV2KuxV2KuxV2KuxV2KuxV2KuxV2KuxV2KuxV2KuxV2KuxV2KuxV2KuxV2KuxV2&#xA;KuxV2KuxV2Ko/UtC1fTEikv7V7dJ6+kz0+KlCaffk54pR5inHw6rHkJEDdNWeiare2st3a2zzW0F&#xA;fWlWlF4jka/RjHFKQsDZcmpxwkIyNSPJA5ByHYq7FV0cbySLGg5O5Cqo7kmgGICCQBZRep6Lqmly&#xA;JHqFs9s8gLIr9wNq5OeOUeYppw6jHlFwN0hI43kkWNBydyFVR3JNAMgA3EgCyj7ny7rdreQWVxZy&#xA;R3VyaQQsByck0238cslhkCARuXHhq8U4mQkDGPNpvL+srqa6WbSQag45LbUHIgKW/UCcfBlxcNbp&#xA;GrxGHicQ4O9C3lndWdy9tdRmK4jNJI26gkV/jkJRMTR5tmPJGcRKJsFuysbu+uUtbSJpriSvCNep&#xA;4gsfwGMYmRoc1y5Y448UjQDV3Z3NncvbXUZinjNHjbqCRX+OMomJo81x5IziJRNgqOBsdiqO03RN&#xA;V1P1PqFs9x6PH1eFPh5V41+fE5OGKU/pFuPn1OPFXGeG0DkHIdirsVdirsVdirsVdirsVdirsVdi&#xA;rsVdirsVdir0/wDN/wD45mif89P+IJmz7Q+mLzHYH15Ph+lQ/L//AJQnXP8Ant/yYGOj/upfH7l7&#xA;X/xrH8P90lHlryPY3uhSa9q961ppyEqojXk1A3EsTRqDlt0yjDphKHHI0HO1naUoZRixx4p+ah5j&#xA;8q6JZ6VHqmkaql3AxoYZCqykV41UfCTQ9RxwZtPAR4oytno9flnkOPJDhPeOX4+KN0zyR5eTRbfU&#xA;tc1gW31qhjihKnjyFQGNHNaddtsnDTQ4RKcqtpz9pZjlMMUOLh71HXvJyaDqel3Ftc/WbG7mj9Ji&#xA;ByBDKeo2IIOxwZtN4cokGwWWk7ROohOMhwyiCzfz/oGhahfWdxrGprYRKhihSqhnYtUmrV2Wortm&#xA;bqsUJEGRp0vZeqy44yGOHGebBPMPkyXQtT0+S2uTNZXUqCC4oOSPyBFeqnbcHvmDm03hyFHYu80f&#xA;aQzwkJCpRG4ZFr9pf23n3y6t5fvfu0qFXeOOMqPUG1I1UZkZokZYWbdfpMkJaXLwx4du8np5u1aC&#xA;5n/Nq2itrlrSZoTwuFVHK0gkJ+Fwymo23GOQE6gUa2/QunlGPZ5MhxC+X+cO5JJ/Keoa558vtOe6&#xA;MhipJdXrooPAKorwTitdwAMolgM8xjfxc2Guhg0kZiNXyj82ReX/ACh5d0/zNDJpuri5vLAyfWbR&#xA;yhajRtGacafZZt+uZOHTwjkHDKyHW6ztDNkwEThUZVR+NpJqHltdf/MHUrWS6S0hj4ySyMRyI4IO&#xA;KKSKk/hlE8PiZiLpzsGs8DRwkBxH9pRC/l35b1GC5XQtXa5u7bZlfiU5b0BoF2NPtCuSGjhIHglZ&#xA;DWe18+IjxcdRKUeS/I412C4v7y5+qabbEq8opVmA5Nu3wqFBBJOU6bTeICSaiHN7R7S8AiERxTkz&#xA;vyPomi6d9fl0jURqFtcekp+yWRoudeVKdee22bDSYoxsxNgvP9q6nLk4RkhwSF/G6eMZpHtnYq7F&#xA;XYq7FXYq7FXYq7FXYq7FXYq7FXYq7FXYq9e836NdebPK+k3ukFZ5YlDejyVah0AYVYgBlZehObfU&#xA;YzlxxMXkNBqI6TPOOTYHr+O9DaPpVz5Z8i6p+lSsM04lYRBg1C8YjRaqSCWbwxx4ziwy4mWpzx1W&#xA;rh4e4FffZUfIT+arPyw11YC21Kx5sV0/my3Ctyo6hqcVr9qhr7dchpTkjCxUh3dW3tQYJ5+GfFCX&#xA;87p+Oiv5u07S73yncareaWulailDGDxEnLkAASlOQav7QyeohGWMyMeGTToM2SGpGOM/Eh9n2qq+&#xA;XYNG8vafcaLosOsahcqjS3E4VwpdeXMA9BU0FKbdcRhEIAxjxEqdWc2aQy5DjgL2Cz8wVuPQ8vmd&#xA;VWUXUYmEdeAegqF9qg0x1l1C+9eyCOLLXLhNKn5o+VtZ1i6sZ9Oi+semrRSxhlUryYFW+IjbHW4J&#xA;TIMV7F12PDGQmavdC+cillpPlrR5XVryKa2LUNdoU9Nj8izbYNT6YwieezPs0GeXNlH0kS+02ifO&#xA;X/kwfLX/ABkX/k6MOp/voMOzv8UzfjopXH/k5LP/AIwt/wBQ0mCX+Mj3foLLH/xmy9/++CK8uXsE&#xA;X5k69ayELLcohhr1JjVSVH0Gv0ZLFIDPId7XqsZOixyHIX9tpX5U8la9pvm+S+u0EdpA0vGYup9b&#xA;1AVXiASf2q75Xp9NOOWzycntDtLFk03BH6jW3dSK0zy5pOsefddk1FBMtp6Jjt2JAYug+IgdQvH8&#xA;clHDGeaXF0asusyYdHjENuK9/innlc6mZLwXGjQaNZoQttFEqh3NTyLFaAjp2zI0/FvcREOBr/Dq&#xA;NZDkl1tj3kqE6n+X+raLblU1BHlUxkgElwCtfmVK1zF0w4sMojm7PtKXh6uGU/Rt+P0ov8t/Lera&#xA;NDfPqMfoPdGMRwllZqRcqseJP8+W6LDKAPF1cbtrWY8xiIG+G9/fX6nkeaZ7F2KuxV2KuxV2KuxV&#xA;2KuxV2KuxV2KuxV2KuxV2Ko/Tde1nTAy2F5LbI5qyIxCk+JXpXJwyyjyNOPm0uPL9cQVuo63q2pF&#xA;Tf3ctyE3RXYlQfZegxnllLmbTh02PF9EQGtO1jVdNdnsLuW2Lfb9Nioan8w6H6cYZJR5Gk5tPjyC&#xA;pxEm9R1vV9SK/X7uW5C7qrsSoPiF6DGeWUuZtGHTY8X0RAVbXzL5gtLT6nbahPDbCvGNHIC13PH+&#xA;X6MMc0wKBNMMmjwzlxSiCfcpSa1q0tvFbyXkrwQMHhjZyVVl+yQD0pXAcsiKvZnHTYxIyERZ5oj/&#xA;ABV5k+si5/SVx64UJz9RqlQSQp33FT3yXjzu7LX+Rw8PDwRr3IK41C+ubr63cTyS3NQfWdiWqOm5&#xA;8MhKZJsndvhihGPDEAR7la413Wbi6hu572aW5tzWCZnJZCDX4T23wnLImydw1w0uOMTERAiebR1v&#xA;VzqC6ibyU3yCi3PM+oAQVpy69CRj4sr4r3SNNj4ODhHD3dFKXUL6W8+uyXEjXhYP9Y5H1OQ6Hl1q&#xA;KYDMk3e7OOKAjwgDh7uiMn80+YriSKSbUbh3gNYjzPwmhFRTvQ9cmc8z1LRHQ4YggQjv5KEes6tF&#xA;fnUI7uVL5vtXAchztShPcbZEZJXxXu2HTYzDgMRw9yu3mjzG1z9ZbUrgz8Sgf1GqFJBIHgKgZLx5&#xA;3dlrGhw8PDwRr3Ia11XUrS8a8tbmSG6ckvKjEM3I1NadanxyEckgbB3bZ4ITjwyAMUQfM3mE3L3X&#xA;6RuPrDrwaT1GrxBqF9hXtk/Hnd2ba/yWHh4eCNe5LMqcp2KuxV2KuxV2KuxV2KuxV2KuxV2KuxV2&#xA;KuxV2KuxV2KuxV2KuxV2KuxV2KuxV2KuxV2KuxV2KuxV2KuxV2KuxV2KuxV2KuxV2KuxV2KuxV2K&#xA;uxV2KuxV2KuxV2KuxV2KuxV2KuxV2KuxV2KuxV2KuxV2KuxV2KuxV2KuxV2KuxV2KuxV2Kvpj/cP&#xA;/wAVf8JnS+l829fm1/uG/wCKv+Ex9K+vzd/uG/4q/wCEx9K+vzcf0N/xV/wmPpT6/Nr/AHC/8Vf8&#xA;k8fSj1+bv9wv/Ff/ACTx9Pkn1+bX+4X/AIr/AOSePp8kevzd/uF/4r/5J4+nyX1+bX+4X/iv/knj&#xA;6U+vzd/uF/4r/wCSePpR6/N3+4X/AIr/AOSePpT6/Nr/AHC/8V/8k8fSj1+bv9wv/Ff/ACTx9KfX&#xA;5tf7hP8Aiv8A5J4+lfX5u/3Cf8V/8k8fT5I9fm7/AHCf5H/JPB6fJPr82v8AcJ/kf8k8Pp8kevzd&#xA;/uE/yP8Aknj6U+vza/3Cf5H/ACTx9K+vzd/uE/yP+SePpX1+bX+4T/I/5J4+lfX5u/3B/wCR/wAk&#xA;8fSj1+bX+4P/ACP+SePpT6/N3+4P/I/5J4+lfX5u/wBwf+R/yTwenyX1+bv9wf8Ak/8AJPH0+S+v&#xA;zaP6D/yf+SeH0r6/Nr/cH/k/8k8fSvr83H9B/wCT/wAk8fSvr82v9wX+T/yTx9K+vzd/uC/yf+Se&#xA;PpX1+bX+4L/J/wCSePpX1+b/AP/Z</xmpGImg:image>
               </rdf:li>
            </rdf:Alt>
         </xmp:Thumbnails>
         <xmpMM:InstanceID>xmp.iid:3f9a0511-07e5-0e41-928d-73845ae45d67</xmpMM:InstanceID>
         <xmpMM:DocumentID>xmp.did:3f9a0511-07e5-0e41-928d-73845ae45d67</xmpMM:DocumentID>
         <xmpMM:OriginalDocumentID>uuid:5D20892493BFDB11914A8590D31508C8</xmpMM:OriginalDocumentID>
         <xmpMM:RenditionClass>proof:pdf</xmpMM:RenditionClass>
         <xmpMM:DerivedFrom rdf:parseType="Resource">
            <stRef:instanceID>xmp.iid:833898f5-171e-4b40-a91b-21c162e3ea01</stRef:instanceID>
            <stRef:documentID>xmp.did:833898f5-171e-4b40-a91b-21c162e3ea01</stRef:documentID>
            <stRef:originalDocumentID>uuid:5D20892493BFDB11914A8590D31508C8</stRef:originalDocumentID>
            <stRef:renditionClass>proof:pdf</stRef:renditionClass>
         </xmpMM:DerivedFrom>
         <xmpMM:History>
            <rdf:Seq>
               <rdf:li rdf:parseType="Resource">
                  <stEvt:action>saved</stEvt:action>
                  <stEvt:instanceID>xmp.iid:916f0ef3-b64e-1a4c-910b-87ef8d85b3f4</stEvt:instanceID>
                  <stEvt:when>2017-10-10T18:01:15-05:00</stEvt:when>
                  <stEvt:softwareAgent>Adobe Illustrator CC (Windows)</stEvt:softwareAgent>
                  <stEvt:changed>/</stEvt:changed>
               </rdf:li>
               <rdf:li rdf:parseType="Resource">
                  <stEvt:action>saved</stEvt:action>
                  <stEvt:instanceID>xmp.iid:3f9a0511-07e5-0e41-928d-73845ae45d67</stEvt:instanceID>
                  <stEvt:when>2017-10-11T11:09:04-05:00</stEvt:when>
                  <stEvt:softwareAgent>Adobe Illustrator CC (Windows)</stEvt:softwareAgent>
                  <stEvt:changed>/</stEvt:changed>
               </rdf:li>
            </rdf:Seq>
         </xmpMM:History>
         <illustrator:StartupProfile>Print</illustrator:StartupProfile>
         <xmpTPg:HasVisibleOverprint>False</xmpTPg:HasVisibleOverprint>
         <xmpTPg:HasVisibleTransparency>False</xmpTPg:HasVisibleTransparency>
         <xmpTPg:NPages>1</xmpTPg:NPages>
         <xmpTPg:MaxPageSize rdf:parseType="Resource">
            <stDim:w>156.742004</stDim:w>
            <stDim:h>41.169006</stDim:h>
            <stDim:unit>Pixels</stDim:unit>
         </xmpTPg:MaxPageSize>
         <xmpTPg:PlateNames>
            <rdf:Seq>
               <rdf:li>Cyan</rdf:li>
               <rdf:li>Magenta</rdf:li>
               <rdf:li>Yellow</rdf:li>
            </rdf:Seq>
         </xmpTPg:PlateNames>
         <xmpTPg:SwatchGroups>
            <rdf:Seq>
               <rdf:li rdf:parseType="Resource">
                  <xmpG:groupName>Grupo de muestras por defecto</xmpG:groupName>
                  <xmpG:groupType>0</xmpG:groupType>
               </rdf:li>
            </rdf:Seq>
         </xmpTPg:SwatchGroups>
         <pdf:Producer>Adobe PDF library 10.01</pdf:Producer>
      </rdf:Description>
   </rdf:RDF>
</x:xmpmeta>
                                                                                                    
                                                                                                    
                                                                                                    
                                                                                                    
                                                                                                    
                                                                                                    
                                                                                                    
                                                                                                    
                                                                                                    
                                                                                                    
                                                                                                    
                                                                                                    
                                                                                                    
                                                                                                    
                                                                                                    
                                                                                                    
                                                                                                    
                                                                                                    
                                                                                                    
                                                                                                    
                           
<?xpacket end="w"?>
	</metadata>
<g>
	<linearGradient id="SVGID_1_" gradientUnits="userSpaceOnUse" x1="-3.051758e-005" y1="21.551" x2="156.742" y2="21.551">
		<stop  offset="0" style="stop-color:#F4F5F5"/>
		<stop  offset="1" style="stop-color:#E7E7E7"/>
	</linearGradient>
	<rect x="0" y="1.933" fill="url(#SVGID_1_)" width="156.742" height="39.236"/>
	<rect x="0" fill="#DB5940" width="156.742" height="39.237"/>
	<g>
		<g>
			<linearGradient id="SVGID_2_" gradientUnits="userSpaceOnUse" x1="39.437" y1="19.5695" x2="48.486" y2="19.5695">
				<stop  offset="0" style="stop-color:#F4F5F5"/>
				<stop  offset="1" style="stop-color:#E7E7E7"/>
			</linearGradient>
			<path fill="url(#SVGID_2_)" d="M39.438,13.8h2.291v6.145c0,0.975,0.027,1.606,0.084,1.896c0.098,0.465,0.332,0.837,0.701,1.118
				c0.367,0.281,0.873,0.422,1.512,0.422c0.65,0,1.141-0.133,1.471-0.398s0.529-0.592,0.596-0.979
				c0.066-0.388,0.102-1.029,0.102-1.927V13.8h2.291v5.959c0,1.361-0.063,2.324-0.188,2.886c-0.123,0.563-0.352,1.037-0.684,1.425
				c-0.334,0.387-0.777,0.694-1.336,0.924c-0.557,0.229-1.283,0.345-2.182,0.345c-1.084,0-1.904-0.125-2.465-0.375
				s-1.002-0.575-1.328-0.976c-0.324-0.399-0.539-0.818-0.641-1.257c-0.15-0.65-0.225-1.61-0.225-2.879L39.438,13.8L39.438,13.8z"/>
			<linearGradient id="SVGID_3_" gradientUnits="userSpaceOnUse" x1="50.116" y1="21.034" x2="57.794" y2="21.034">
				<stop  offset="0" style="stop-color:#F4F5F5"/>
				<stop  offset="1" style="stop-color:#E7E7E7"/>
			</linearGradient>
			<path fill="url(#SVGID_3_)" d="M50.116,22.8l2.184-0.333c0.092,0.423,0.281,0.744,0.564,0.964
				c0.283,0.219,0.682,0.329,1.191,0.329c0.563,0,0.986-0.104,1.27-0.31c0.191-0.145,0.287-0.338,0.287-0.581
				c0-0.165-0.053-0.302-0.156-0.41c-0.107-0.103-0.35-0.198-0.727-0.286c-1.754-0.387-2.865-0.74-3.336-1.061
				c-0.65-0.443-0.975-1.06-0.975-1.85c0-0.712,0.281-1.31,0.844-1.795s1.434-0.728,2.615-0.728c1.125,0,1.961,0.184,2.508,0.55
				s0.924,0.908,1.129,1.625l-2.051,0.379c-0.088-0.319-0.254-0.564-0.498-0.735c-0.246-0.17-0.596-0.255-1.049-0.255
				c-0.572,0-0.982,0.08-1.23,0.239c-0.166,0.114-0.248,0.261-0.248,0.441c0,0.155,0.072,0.286,0.217,0.395
				c0.195,0.145,0.873,0.349,2.031,0.611c1.158,0.264,1.967,0.586,2.426,0.968c0.455,0.387,0.682,0.926,0.682,1.617
				c0,0.753-0.314,1.4-0.943,1.942c-0.631,0.542-1.563,0.813-2.795,0.813c-1.119,0-2.006-0.227-2.658-0.681
				S50.317,23.579,50.116,22.8z"/>
			<linearGradient id="SVGID_4_" gradientUnits="userSpaceOnUse" x1="59.125" y1="21.0365" x2="66.84" y2="21.0365">
				<stop  offset="0" style="stop-color:#F4F5F5"/>
				<stop  offset="1" style="stop-color:#E7E7E7"/>
			</linearGradient>
			<path fill="url(#SVGID_4_)" d="M61.323,19.434l-1.975-0.356c0.223-0.794,0.604-1.382,1.146-1.765
				c0.541-0.381,1.346-0.572,2.414-0.572c0.971,0,1.691,0.115,2.166,0.345s0.809,0.521,1.004,0.874
				c0.193,0.354,0.289,1.002,0.289,1.946l-0.023,2.538c0,0.723,0.035,1.255,0.105,1.599c0.068,0.343,0.199,0.711,0.391,1.103h-2.152
				c-0.057-0.145-0.125-0.358-0.209-0.643c-0.035-0.129-0.061-0.214-0.076-0.255c-0.371,0.361-0.77,0.632-1.191,0.813
				c-0.424,0.181-0.875,0.271-1.355,0.271c-0.846,0-1.512-0.229-2-0.688s-0.732-1.04-0.732-1.741c0-0.465,0.111-0.878,0.334-1.242
				c0.221-0.363,0.533-0.643,0.932-0.836c0.4-0.193,0.977-0.362,1.73-0.507c1.016-0.19,1.721-0.368,2.113-0.534v-0.216
				c0-0.418-0.104-0.717-0.311-0.895s-0.596-0.267-1.168-0.267c-0.387,0-0.689,0.076-0.906,0.229
				C61.631,18.784,61.455,19.052,61.323,19.434z M64.233,21.198c-0.279,0.093-0.721,0.203-1.324,0.332s-0.998,0.256-1.184,0.38
				c-0.285,0.201-0.426,0.456-0.426,0.766c0,0.305,0.113,0.567,0.34,0.789c0.227,0.223,0.516,0.333,0.867,0.333
				c0.393,0,0.766-0.129,1.121-0.387c0.264-0.196,0.438-0.436,0.52-0.72c0.057-0.186,0.086-0.539,0.086-1.061
				C64.233,21.63,64.233,21.198,64.233,21.198z"/>
			<linearGradient id="SVGID_5_" gradientUnits="userSpaceOnUse" x1="68.418" y1="19.565" x2="76.443" y2="19.565">
				<stop  offset="0" style="stop-color:#F4F5F5"/>
				<stop  offset="1" style="stop-color:#E7E7E7"/>
			</linearGradient>
			<path fill="url(#SVGID_5_)" d="M68.418,25.145V13.8h2.176v4.086c0.67-0.764,1.465-1.146,2.383-1.146c1,0,1.828,0.362,2.484,1.087
				c0.654,0.726,0.982,1.767,0.982,3.123c0,1.403-0.334,2.484-1.002,3.242c-0.668,0.759-1.48,1.138-2.434,1.138
				c-0.471,0-0.934-0.117-1.389-0.352c-0.457-0.235-0.852-0.582-1.182-1.041v1.207L68.418,25.145L68.418,25.145z M70.579,20.857
				c0,0.852,0.133,1.48,0.402,1.888c0.375,0.578,0.877,0.867,1.5,0.867c0.48,0,0.889-0.205,1.227-0.615s0.508-1.057,0.508-1.938
				c0-0.939-0.17-1.616-0.512-2.031c-0.34-0.415-0.775-0.623-1.307-0.623c-0.521,0-0.955,0.202-1.301,0.607
				S70.579,20.032,70.579,20.857z"/>
			<linearGradient id="SVGID_6_" gradientUnits="userSpaceOnUse" x1="78.192" y1="19.4725" x2="80.368" y2="19.4725">
				<stop  offset="0" style="stop-color:#F4F5F5"/>
				<stop  offset="1" style="stop-color:#E7E7E7"/>
			</linearGradient>
			<path fill="url(#SVGID_6_)" d="M78.192,15.811V13.8h2.176v2.012h-2.176V15.811z M78.192,25.145v-8.219h2.176v8.219H78.192z"/>
			<linearGradient id="SVGID_7_" gradientUnits="userSpaceOnUse" x1="82.596" y1="19.4725" x2="84.77" y2="19.4725">
				<stop  offset="0" style="stop-color:#F4F5F5"/>
				<stop  offset="1" style="stop-color:#E7E7E7"/>
			</linearGradient>
			<path fill="url(#SVGID_7_)" d="M82.596,25.145V13.8h2.174v11.345H82.596z"/>
			<linearGradient id="SVGID_8_" gradientUnits="userSpaceOnUse" x1="86.998" y1="19.4725" x2="89.174" y2="19.4725">
				<stop  offset="0" style="stop-color:#F4F5F5"/>
				<stop  offset="1" style="stop-color:#E7E7E7"/>
			</linearGradient>
			<path fill="url(#SVGID_8_)" d="M86.998,15.811V13.8h2.176v2.012h-2.176V15.811z M86.998,25.145v-8.219h2.176v8.219H86.998z"/>
			<linearGradient id="SVGID_9_" gradientUnits="userSpaceOnUse" x1="90.913" y1="19.5655" x2="98.94" y2="19.5655">
				<stop  offset="0" style="stop-color:#F4F5F5"/>
				<stop  offset="1" style="stop-color:#E7E7E7"/>
			</linearGradient>
			<path fill="url(#SVGID_9_)" d="M98.94,25.145h-2.02v-1.207c-0.336,0.47-0.732,0.819-1.188,1.049
				c-0.457,0.229-0.918,0.344-1.383,0.344c-0.943,0-1.752-0.38-2.426-1.142c-0.674-0.761-1.01-1.822-1.01-3.185
				c0-1.393,0.328-2.451,0.982-3.177c0.656-0.725,1.484-1.087,2.484-1.087c0.918,0,1.713,0.382,2.385,1.146V13.8h2.174v11.345H98.94
				z M93.135,20.857c0,0.877,0.121,1.512,0.363,1.903c0.352,0.567,0.842,0.852,1.471,0.852c0.5,0,0.926-0.213,1.277-0.639
				s0.525-1.062,0.525-1.907c0-0.944-0.17-1.624-0.51-2.039s-0.777-0.623-1.309-0.623c-0.516,0-0.947,0.205-1.295,0.615
				C93.309,19.43,93.135,20.042,93.135,20.857z"/>
			<linearGradient id="SVGID_10_" gradientUnits="userSpaceOnUse" x1="100.511" y1="21.0365" x2="108.226" y2="21.0365">
				<stop  offset="0" style="stop-color:#F4F5F5"/>
				<stop  offset="1" style="stop-color:#E7E7E7"/>
			</linearGradient>
			<path fill="url(#SVGID_10_)" d="M102.709,19.434l-1.975-0.356c0.223-0.794,0.604-1.382,1.146-1.765
				c0.541-0.381,1.346-0.572,2.414-0.572c0.971,0,1.691,0.115,2.166,0.345s0.809,0.521,1.004,0.874
				c0.193,0.354,0.289,1.002,0.289,1.946l-0.023,2.538c0,0.723,0.035,1.255,0.105,1.599c0.068,0.343,0.199,0.711,0.391,1.103h-2.152
				c-0.057-0.145-0.125-0.358-0.209-0.643c-0.035-0.129-0.061-0.214-0.076-0.255c-0.371,0.361-0.77,0.632-1.191,0.813
				c-0.424,0.181-0.875,0.271-1.355,0.271c-0.846,0-1.512-0.229-2-0.688s-0.732-1.04-0.732-1.741c0-0.465,0.111-0.878,0.334-1.242
				c0.221-0.363,0.533-0.643,0.932-0.836c0.4-0.193,0.977-0.362,1.73-0.507c1.016-0.19,1.721-0.368,2.113-0.534v-0.216
				c0-0.418-0.104-0.717-0.311-0.895s-0.596-0.267-1.168-0.267c-0.387,0-0.689,0.076-0.906,0.229
				C103.018,18.784,102.842,19.052,102.709,19.434z M105.62,21.198c-0.279,0.093-0.721,0.203-1.324,0.332s-0.998,0.256-1.184,0.38
				c-0.285,0.201-0.426,0.456-0.426,0.766c0,0.305,0.113,0.567,0.34,0.789c0.227,0.223,0.516,0.333,0.867,0.333
				c0.393,0,0.766-0.129,1.121-0.387c0.264-0.196,0.438-0.436,0.52-0.72c0.057-0.186,0.086-0.539,0.086-1.061
				C105.62,21.63,105.62,21.198,105.62,21.198z"/>
			<linearGradient id="SVGID_11_" gradientUnits="userSpaceOnUse" x1="109.409" y1="19.5655" x2="117.436" y2="19.5655">
				<stop  offset="0" style="stop-color:#F4F5F5"/>
				<stop  offset="1" style="stop-color:#E7E7E7"/>
			</linearGradient>
			<path fill="url(#SVGID_11_)" d="M117.436,25.145h-2.02v-1.207c-0.336,0.47-0.732,0.819-1.188,1.049
				c-0.457,0.229-0.918,0.344-1.383,0.344c-0.943,0-1.752-0.38-2.426-1.142c-0.674-0.761-1.01-1.822-1.01-3.185
				c0-1.393,0.328-2.451,0.982-3.177c0.656-0.725,1.484-1.087,2.484-1.087c0.918,0,1.713,0.382,2.385,1.146V13.8h2.174v11.345
				H117.436z M111.631,20.857c0,0.877,0.121,1.512,0.363,1.903c0.352,0.567,0.842,0.852,1.471,0.852c0.5,0,0.926-0.213,1.277-0.639
				s0.525-1.062,0.525-1.907c0-0.944-0.17-1.624-0.51-2.039s-0.777-0.623-1.309-0.623c-0.516,0-0.947,0.205-1.295,0.615
				C111.805,19.43,111.631,20.042,111.631,20.857z"/>
		</g>
	</g>
</g>
</svg>
