<?xml version="1.0" encoding="utf-8"?>
<!-- Generator: Adobe Illustrator 17.0.0, SVG Export Plug-In . SVG Version: 6.00 Build 0)  -->
<!DOCTYPE svg PUBLIC "-//W3C//DTD SVG 1.1//EN" "http://www.w3.org/Graphics/SVG/1.1/DTD/svg11.dtd" [
	<!ENTITY ns_extend "http://ns.adobe.com/Extensibility/1.0/">
	<!ENTITY ns_ai "http://ns.adobe.com/AdobeIllustrator/10.0/">
	<!ENTITY ns_graphs "http://ns.adobe.com/Graphs/1.0/">
	<!ENTITY ns_vars "http://ns.adobe.com/Variables/1.0/">
	<!ENTITY ns_imrep "http://ns.adobe.com/ImageReplacement/1.0/">
	<!ENTITY ns_sfw "http://ns.adobe.com/SaveForWeb/1.0/">
	<!ENTITY ns_custom "http://ns.adobe.com/GenericCustomNamespace/1.0/">
	<!ENTITY ns_adobe_xpath "http://ns.adobe.com/XPath/1.0/">
]>
<svg version="1.1" id="Capa_1" xmlns:x="&ns_extend;" xmlns:i="&ns_ai;" xmlns:graph="&ns_graphs;"
	 xmlns="http://www.w3.org/2000/svg" xmlns:xlink="http://www.w3.org/1999/xlink" x="0px" y="0px" width="156.742px"
	 height="41.169px" viewBox="0 0 156.742 41.169" enable-background="new 0 0 156.742 41.169" xml:space="preserve">
<metadata><?xpacket begin="﻿" id="W5M0MpCehiHzreSzNTczkc9d"?>
<x:xmpmeta xmlns:x="adobe:ns:meta/" x:xmptk="Adobe XMP Core 5.5-c014 79.151739, 2013/04/03-12:12:15        ">
   <rdf:RDF xmlns:rdf="http://www.w3.org/1999/02/22-rdf-syntax-ns#">
      <rdf:Description rdf:about=""
            xmlns:dc="http://purl.org/dc/elements/1.1/"
            xmlns:xmp="http://ns.adobe.com/xap/1.0/"
            xmlns:xmpGImg="http://ns.adobe.com/xap/1.0/g/img/"
            xmlns:xmpMM="http://ns.adobe.com/xap/1.0/mm/"
            xmlns:stRef="http://ns.adobe.com/xap/1.0/sType/ResourceRef#"
            xmlns:stEvt="http://ns.adobe.com/xap/1.0/sType/ResourceEvent#"
            xmlns:illustrator="http://ns.adobe.com/illustrator/1.0/"
            xmlns:xmpTPg="http://ns.adobe.com/xap/1.0/t/pg/"
            xmlns:stDim="http://ns.adobe.com/xap/1.0/sType/Dimensions#"
            xmlns:xmpG="http://ns.adobe.com/xap/1.0/g/"
            xmlns:pdf="http://ns.adobe.com/pdf/1.3/">
         <dc:format>image/svg+xml</dc:format>
         <dc:title>
            <rdf:Alt>
               <rdf:li xml:lang="x-default">Imprimir</rdf:li>
            </rdf:Alt>
         </dc:title>
         <xmp:MetadataDate>2017-10-11T11:10:40-05:00</xmp:MetadataDate>
         <xmp:ModifyDate>2017-10-11T11:10:40-05:00</xmp:ModifyDate>
         <xmp:CreateDate>2017-10-11T11:10:40-05:00</xmp:CreateDate>
         <xmp:CreatorTool>Adobe Illustrator CC (Windows)</xmp:CreatorTool>
         <xmp:Thumbnails>
            <rdf:Alt>
               <rdf:li rdf:parseType="Resource">
                  <xmpGImg:width>256</xmpGImg:width>
                  <xmpGImg:height>68</xmpGImg:height>
                  <xmpGImg:format>JPEG</xmpGImg:format>
                  <xmpGImg:image>/9j/4AAQSkZJRgABAgEASABIAAD/7QAsUGhvdG9zaG9wIDMuMAA4QklNA+0AAAAAABAASAAAAAEA&#xA;AQBIAAAAAQAB/+4ADkFkb2JlAGTAAAAAAf/bAIQABgQEBAUEBgUFBgkGBQYJCwgGBggLDAoKCwoK&#xA;DBAMDAwMDAwQDA4PEA8ODBMTFBQTExwbGxscHx8fHx8fHx8fHwEHBwcNDA0YEBAYGhURFRofHx8f&#xA;Hx8fHx8fHx8fHx8fHx8fHx8fHx8fHx8fHx8fHx8fHx8fHx8fHx8fHx8fHx8f/8AAEQgARAEAAwER&#xA;AAIRAQMRAf/EAaIAAAAHAQEBAQEAAAAAAAAAAAQFAwIGAQAHCAkKCwEAAgIDAQEBAQEAAAAAAAAA&#xA;AQACAwQFBgcICQoLEAACAQMDAgQCBgcDBAIGAnMBAgMRBAAFIRIxQVEGE2EicYEUMpGhBxWxQiPB&#xA;UtHhMxZi8CRygvElQzRTkqKyY3PCNUQnk6OzNhdUZHTD0uIIJoMJChgZhJRFRqS0VtNVKBry4/PE&#xA;1OT0ZXWFlaW1xdXl9WZ2hpamtsbW5vY3R1dnd4eXp7fH1+f3OEhYaHiImKi4yNjo+Ck5SVlpeYmZ&#xA;qbnJ2en5KjpKWmp6ipqqusra6voRAAICAQIDBQUEBQYECAMDbQEAAhEDBCESMUEFURNhIgZxgZEy&#xA;obHwFMHR4SNCFVJicvEzJDRDghaSUyWiY7LCB3PSNeJEgxdUkwgJChgZJjZFGidkdFU38qOzwygp&#xA;0+PzhJSktMTU5PRldYWVpbXF1eX1RlZmdoaWprbG1ub2R1dnd4eXp7fH1+f3OEhYaHiImKi4yNjo&#xA;+DlJWWl5iZmpucnZ6fkqOkpaanqKmqq6ytrq+v/aAAwDAQACEQMRAD8ATzmH012KuxV2KuxV2Kux&#xA;V2KuxV2KuxV2KuxV2KuxV2KuxV2KuxV2KuxV2KuxV2KuxV2KuxV2KuxV2KuxV2KuxV2KuxV2KuxV&#xA;2KuxV2KuxV2KuxV2KuxV2KuxV2KuxV2KuxV2KuxV2KuxV2KuxV2KuxV2KuxV2KuxV2KuxV2KuxV2&#xA;KuxVNrHyp5jvrRLuzsJZraSvpyqBQ8SVPfxGWxwTkLA2cTLrsOOXDKQBC648n+ZreGSefTpY4olL&#xA;yOQKKqipJ37DCdNkAshjDtHBIgCYspPlLmuxV2KuxV2KtqpZgqirE0A9ziglGanouq6WyJqFs9s0&#xA;oJjD03A6/ryc8UofUKacOpx5b4DdILIN7sVdirsVdiqL03SdR1OdoLC3a4mRDIyJ1CggE/ewyUMc&#xA;pGgLac2eGIXM0FWx8v6zfTTw2lpJNLanjcIoFUNSN/pByUcMpEgDkwy6vFAAykAJckvytyUbpuja&#xA;pqZkWwtnuDEAZAnYN0r92ThilP6RbRm1OPFXGatBZBvdirsVRqaNqkmnNqSWztYoaPcD7IINP1nJ&#xA;jFLh4q2aDqcYnwE+vuQWQb3Yq7FXYq7FXYq7FXYq7FXYq9h8urrTflXbLotf0mef1ehQH/exue8n&#xA;w/Yr1zcYeL8uOH6v2vH6w4hrz4v0df8ASeXmxXXZPzOtNMnk1aR0sXX0pyWtmqsnwUohLb17Zi5T&#xA;nETxcvg7PSjQTyAYx6+Y+rp70FeeT7aDyRbeYhcO007BTAQOIq7L16/s5XLTgYhO3Ix9oSlqjhrY&#xA;dfgp2vlO3m8mz6+Z3E0LFRAAOJo4Xr1/axjpwcRna5O0JR1Qw1sevwTex/LjTJ/LdnrVzqZtIpVE&#xA;ly0ijiiGooviSaAZbDRxMBImnFy9rzjmlijDiI5ITzJ5H06z0Jdb0e+N5ZAjnzA+yzcKqRTo2xFM&#xA;jm0sYw44mw2aPtSc83hZI8MvwfuVtF/L6wOhx6zr+ofULa4AaBBxBKtupLNXdhuFA6YcWkHBxTNB&#xA;Gp7Vn4px4Y8chzQvmbyVHpCWWo6fefWtOuXRUlIHJS26nbZgQMjn03BUom4ls0XaRzGUJx4ZxCZf&#xA;mRo+sPqulWcl6+p3NzzjgDxxRUJZRT92qjevfLNZjlxRF8RLjdj6jGITkIiAjz3J7+9XP5aeXbIQ&#xA;W2ra0ItRnHwRKURanwD1Yiu1dq5L8lAUJS3YfyzmncseO4D3pBfeR7iw8z2OkXMvK1v5FSG7QUJU&#xA;sA3wmtGWvTMeelMcgieRc/D2nHJglkiPVEbhPrn8tfL1hqK2moayYmuSFsYaKJGJAFWrUCrbD9eZ&#xA;B0UIyqUufJwY9s5pw4oY74fqPRj2seSp7DzJb6OtwhS7o0NzJRFCEkEvv+zxPzzGy6YxmI3zc/Td&#xA;pDJgOSvp5hkQ/Lryk15+il1t31ULUxqEpWnL7ND23pyzJGjx3w8Xqdee19QI+J4f7v8AH45O/LbS&#xA;5tL88anp8zB5Le0kUuvQgyxEH6QcdHjMMpieg/UvbGcZdLCY5GQ+6Tfkmz1C58weYhZ6g9gUmPMp&#xA;HFJzrLJQH1FalPbHTRJnOjW6O0skI4cXFHj27yOg7ki8l+R/09DcX13c/VNNtTxkl2qzAcm3b4VC&#xA;qaknKNNpvEsk1EOf2j2l4BEYjinJnPkfQtF0+W9uNI1IX9tMEjYbckZC3UimxrttmfpMUYkmJsOg&#xA;7U1WXIIxyQ4JD7WC+UvKOn6rZXOo6nqC2VlbEqVUr6hoAS2/Qb7bGua/T6eMwZSNAPQa/XzxSEIR&#xA;4pH5IvXfI2lRaA2t6JqDXlrF/eBwNxy4niQF3BO4IyzLpYiHHA2GjS9qZDm8LLHhkVXRPy9059BT&#xA;Wte1A2NtMA0KrxB4n7JJatS3UKBji0keDimaCNT2tMZfCwx4pBPL/SrbTPy3vre1ulvbZv3kNwlK&#xA;MrSr4Eio6ZkyxiOAgGw67Fnll10TKPDLkR8C8pzUPXOxV2KuxV2KuxV2KuxV2KuxV6raXl1Z/k1H&#xA;c2krQXEdeEqEqwrfFTQj2ObWMjHTWOf/AB55XJjjPtLhkLH/ABx53eeYddvYGt7u/nngYgtHI5ZS&#xA;QajY5rpZpyFEl6HHo8UDcYgH3PQ00261j8prO209fXuI2qYgQCSkzchvTehrmxEDPTgR5/tefOaO&#xA;HtCUp7D9i2XSLrSvyvurS7Xhc05yx1DcS8qkA078aYTjMNOQebAaiOXXxlH6f2LNe/8AJRad/wA8&#xA;f+JHIZf8XDbpv+NCXxQkX/knpf8AX/7G1wD/ABb8d7OX/GkPx/AmnmDS7rzN5E0Z9HpO9skfqQ8g&#xA;pJSL03G9ByVhlmXGcuKPD0cfS546bVZBk2u9/jbFdZ8lS6HY6feXl6DdzSIn1HjUqa1YBwxBC99q&#xA;Zi5dN4cQSd+52mm7SGecoxj6QD6v2M086X1tY+dvLd1csEgRpQ7novOicj7DlXM3UyEcsCXTdm4p&#xA;T02WMeeyVee/I2v6t5lN9YqktrcrGPULqoj4qFPIHem1dq5TqtLOc7HIuV2Z2nhxYOGe0o38Ub5m&#xA;u7cebfK2niT1Lm2nVpjtUBigWvu3EnLdRIeJCPUFx9BjP5fNOqjIbfakP5jOW/MC2B6KLYD5cq/x&#xA;zG1n98Pg7Hskf4If85OvNOkWerfmBo9jeNS2kgZpFB4luBdgoP8AlEUy/UYxPNEHlTgdn55YtJkn&#xA;HmJfqTiys7qy8zfUrDQraz0iFT6mohR6kgMewVhv9s0Na7ZdCJjkoRAj3uJmyRng4p5JSyH+HoN/&#xA;1JZ5dUr+aeuVFK2hP0EwZVi/xiXu/U5OqP8Arfj/AK3/ABSj+W//ACkPmf8A4zf8zZMGj+ubPtj+&#xA;4w+79AUfIcf6U/L/AFfR7ZwL4tJRCaf3iLw+hipGQ0o4sMojm29qHwtXDJL6dvsKM/Lby1q+jx30&#xA;mox+g1yUWOAsC1I+VWPEkftbZbosMoXxdXG7a1uPMYiBvhvf3pb5F8t6W/lW41o6emrakGdYbWQg&#xA;qOFKLxb4an7W9dumU6XDHwzKuKTl9p6yYzjFxeHDvTjVTqjfl9fteWUVhOyMRaQrxVI+Q6gE/Fx3&#xA;zInxeCbFODg8MayPDIzF8z3oXXNOuvMn5d6N+iFE0lssPqQKQu8URicCp6q3bwyvJA5MMeHo5Gmz&#xA;R02sn4mwle/vNhZdaRd6T+WFzZXhH1lBykQEME5zBgtR7HDLGYacg8/2sYaiObXxlH6f2PK81D1r&#xA;sVdirsVdirsVdirsVdirsVRn6Z1X9Hfo363L+j/+WXkfT+1z+z0+1vk/Elw8N7NP5fHx8fCOPv69&#xA;yDyDcjtO1zWNNV1sLya2STd0jchSaUrTpX3ycMso8jTRm02PJ9cQWn1vV3t5rZ72Z4Lhi88bOzB2&#xA;NKs1Tudhj4sqq+ajTYxISERY5bcmpdZ1WWwTT5LuV7KOnC2LEoKdKL0xOSRFXskafGJ8YiOLvaGq&#xA;6kLA6eLmT6idzbcj6f2uX2en2t8fElXDey/l4cfHQ4+/qv03XNY0zkLC8ltlfd1RiFJ8SvSuMMso&#xA;8jSM2mx5friCp3up6jfXAuLy5kuJl+y8jFiKb7V6fRglOUjZNssWCGMVEABvUNX1PUWRr+6kumjq&#xA;EMrFqV60r8sM8kpczaMWnhj+gCN9yKtfNPmO1txbW+ozxwKKLGHNFHgtfs/Rko55gUCWqehwzPFK&#xA;ESfcgEvbxLsXizOLtX9QT8iX51ry5da5XxG76t5xxMeGvT3L7vUtQu7oXd1cSTXIpSZ2Jb4em58M&#xA;Mpkmyd0QwwhHhiAI9y661fVLu4jubm7lluIaelMzkutDUcW6jfDLJImyd0Y9PjhExjEAFFXHmrzJ&#xA;cGMzalcP6RDR/vGFGXo23f3yRzzPMlqjocEbqEd/JSTzBraXr3yX0y3kiem84c8ylQeJbw2GDxp3&#xA;d7szpMRjwcI4e5Zaa3q9nLNNa3ksEtwazujlS5qT8RHXc4I5ZRNg805NNjmAJRBA5KVhqN9p9wLi&#xA;yne3mApzjYqaeBp1HtgjMxNg0yy4YZBUhYRZ8z+YTctc/pG49d14tJ6jV41rx67CvbJ+PO7stX5L&#xA;Dw8PBGvcpabrmr6Zz/R93LbCT7axsQD7kdMjDLKPI0zzabHl+uIK4+YdcKzo1/Oy3VfrCmRiHqOJ&#xA;5VO+22Hxp77ndj+UxbHhj6eW3Jbp2u6xpiutheS2ySfbWNiFJ8adK++CGWUeRpObS48v1xBpp9b1&#xA;iS3mt5L2Z4Lhi88bOxDsabtU7nYYnLKqvmkaXGCJCIsctkFkG92KuxV2KuxV2KuxV2KuxV2KuxV2&#xA;KuxV2KuxV2KuxV2KuxV2KuxV2KuxV2KuxV2KuxV2KuxV2KuxV2KuxV2KuxV2KuxV2KuxV2KuxV2K&#xA;uxV2KuxV2KuxV2KuxV2KuxV2KuxV2KuxV2KuxV2KuxV2KuxV2KuxV2KuxV2KuxV2KuxV9Mf7h/8A&#xA;ir/hM6X0vm3r82v9w3/FX/CY+lfX5u/3Df8AFX/CY+lfX5uP6G/4q/4TH0p9fm1/uF/4q/5J4+lH&#xA;r83f7hf+K/8Aknj6fJPr82v9wv8AxX/yTx9Pkj1+bv8AcL/xX/yTx9Pkvr82v9wv/Ff/ACTx9KfX&#xA;5u/3C/8AFf8AyTx9KPX5u/3C/wDFf/JPH0p9fm1/uF/4r/5J4+lHr83f7hf+K/8Aknj6U+vza/3C&#xA;f8V/8k8fSvr83f7hP+K/+SePp8kevzd/uE/yP+SeD0+SfX5tf7hP8j/knh9Pkj1+bv8AcJ/kf8k8&#xA;fSn1+bX+4T/I/wCSePpX1+bv9wn+R/yTx9K+vza/3Cf5H/JPH0r6/N3+4P8AyP8Aknj6Uevza/3B&#xA;/wCR/wAk8fSn1+bv9wf+R/yTx9K+vzd/uD/yP+SeD0+S+vzd/uD/AMn/AJJ4+nyX1+bR/Qf+T/yT&#xA;w+lfX5tf7g/8n/knj6V9fm4/oP8Ayf8Aknj6V9fm1/uC/wAn/knj6V9fm7/cF/k/8k8fSvr82v8A&#xA;cF/k/wDJPH0r6/N//9k=</xmpGImg:image>
               </rdf:li>
            </rdf:Alt>
         </xmp:Thumbnails>
         <xmpMM:InstanceID>xmp.iid:5d50d853-94d7-064d-a96d-0dac4b66d2a7</xmpMM:InstanceID>
         <xmpMM:DocumentID>xmp.did:5d50d853-94d7-064d-a96d-0dac4b66d2a7</xmpMM:DocumentID>
         <xmpMM:OriginalDocumentID>uuid:5D20892493BFDB11914A8590D31508C8</xmpMM:OriginalDocumentID>
         <xmpMM:RenditionClass>proof:pdf</xmpMM:RenditionClass>
         <xmpMM:DerivedFrom rdf:parseType="Resource">
            <stRef:instanceID>xmp.iid:833898f5-171e-4b40-a91b-21c162e3ea01</stRef:instanceID>
            <stRef:documentID>xmp.did:833898f5-171e-4b40-a91b-21c162e3ea01</stRef:documentID>
            <stRef:originalDocumentID>uuid:5D20892493BFDB11914A8590D31508C8</stRef:originalDocumentID>
            <stRef:renditionClass>proof:pdf</stRef:renditionClass>
         </xmpMM:DerivedFrom>
         <xmpMM:History>
            <rdf:Seq>
               <rdf:li rdf:parseType="Resource">
                  <stEvt:action>saved</stEvt:action>
                  <stEvt:instanceID>xmp.iid:916f0ef3-b64e-1a4c-910b-87ef8d85b3f4</stEvt:instanceID>
                  <stEvt:when>2017-10-10T18:01:15-05:00</stEvt:when>
                  <stEvt:softwareAgent>Adobe Illustrator CC (Windows)</stEvt:softwareAgent>
                  <stEvt:changed>/</stEvt:changed>
               </rdf:li>
               <rdf:li rdf:parseType="Resource">
                  <stEvt:action>saved</stEvt:action>
                  <stEvt:instanceID>xmp.iid:5d50d853-94d7-064d-a96d-0dac4b66d2a7</stEvt:instanceID>
                  <stEvt:when>2017-10-11T11:10:40-05:00</stEvt:when>
                  <stEvt:softwareAgent>Adobe Illustrator CC (Windows)</stEvt:softwareAgent>
                  <stEvt:changed>/</stEvt:changed>
               </rdf:li>
            </rdf:Seq>
         </xmpMM:History>
         <illustrator:StartupProfile>Print</illustrator:StartupProfile>
         <xmpTPg:HasVisibleOverprint>False</xmpTPg:HasVisibleOverprint>
         <xmpTPg:HasVisibleTransparency>False</xmpTPg:HasVisibleTransparency>
         <xmpTPg:NPages>1</xmpTPg:NPages>
         <xmpTPg:MaxPageSize rdf:parseType="Resource">
            <stDim:w>156.742004</stDim:w>
            <stDim:h>41.169006</stDim:h>
            <stDim:unit>Pixels</stDim:unit>
         </xmpTPg:MaxPageSize>
         <xmpTPg:PlateNames>
            <rdf:Seq>
               <rdf:li>Cyan</rdf:li>
               <rdf:li>Magenta</rdf:li>
               <rdf:li>Yellow</rdf:li>
            </rdf:Seq>
         </xmpTPg:PlateNames>
         <xmpTPg:SwatchGroups>
            <rdf:Seq>
               <rdf:li rdf:parseType="Resource">
                  <xmpG:groupName>Grupo de muestras por defecto</xmpG:groupName>
                  <xmpG:groupType>0</xmpG:groupType>
               </rdf:li>
            </rdf:Seq>
         </xmpTPg:SwatchGroups>
         <pdf:Producer>Adobe PDF library 10.01</pdf:Producer>
      </rdf:Description>
   </rdf:RDF>
</x:xmpmeta>
                                                                                                    
                                                                                                    
                                                                                                    
                                                                                                    
                                                                                                    
                                                                                                    
                                                                                                    
                                                                                                    
                                                                                                    
                                                                                                    
                                                                                                    
                                                                                                    
                                                                                                    
                                                                                                    
                                                                                                    
                                                                                                    
                                                                                                    
                                                                                                    
                                                                                                    
                                                                                                    
                           
<?xpacket end="w"?>
	</metadata>
<g>
	<linearGradient id="SVGID_1_" gradientUnits="userSpaceOnUse" x1="-3.051758e-005" y1="21.551" x2="156.742" y2="21.551">
		<stop  offset="0" style="stop-color:#F4F5F5"/>
		<stop  offset="1" style="stop-color:#E7E7E7"/>
	</linearGradient>
	<rect x="0" y="1.933" fill="url(#SVGID_1_)" width="156.742" height="39.236"/>
	<rect x="0" fill="#DB5940" width="156.742" height="39.237"/>
	<g>
		<g>
			<linearGradient id="SVGID_2_" gradientUnits="userSpaceOnUse" x1="25.83" y1="19.4725" x2="33.607" y2="19.4725">
				<stop  offset="0" style="stop-color:#F4F5F5"/>
				<stop  offset="1" style="stop-color:#E7E7E7"/>
			</linearGradient>
			<path fill="url(#SVGID_2_)" d="M25.83,25.145V13.8h7.777v1.919H28.12v2.686h4.736v1.919H28.12v4.821H25.83z"/>
			<linearGradient id="SVGID_3_" gradientUnits="userSpaceOnUse" x1="35.433" y1="21.129" x2="42.91" y2="21.129">
				<stop  offset="0" style="stop-color:#F4F5F5"/>
				<stop  offset="1" style="stop-color:#E7E7E7"/>
			</linearGradient>
			<path fill="url(#SVGID_3_)" d="M40.889,25.145v-1.23c-0.299,0.438-0.692,0.784-1.18,1.037s-1.003,0.379-1.544,0.379
				c-0.553,0-1.048-0.121-1.486-0.363c-0.438-0.243-0.756-0.583-0.952-1.021c-0.195-0.438-0.294-1.045-0.294-1.819v-5.2h2.175v3.776
				c0,1.156,0.04,1.864,0.12,2.125c0.08,0.26,0.226,0.467,0.438,0.619c0.211,0.151,0.479,0.228,0.805,0.228
				c0.371,0,0.704-0.102,0.998-0.306c0.294-0.203,0.495-0.456,0.604-0.758s0.163-1.041,0.163-2.218v-3.467h2.174v8.219h-2.021
				V25.145z"/>
			<linearGradient id="SVGID_4_" gradientUnits="userSpaceOnUse" x1="45.145" y1="20.9425" x2="52.637" y2="20.9425">
				<stop  offset="0" style="stop-color:#F4F5F5"/>
				<stop  offset="1" style="stop-color:#E7E7E7"/>
			</linearGradient>
			<path fill="url(#SVGID_4_)" d="M52.637,25.145h-2.175V20.95c0-0.888-0.046-1.461-0.14-1.722
				c-0.093-0.261-0.243-0.463-0.452-0.607s-0.461-0.217-0.755-0.217c-0.376,0-0.715,0.104-1.014,0.31s-0.504,0.479-0.615,0.82
				c-0.11,0.34-0.166,0.97-0.166,1.888v3.723h-2.175v-8.219h2.02v1.207c0.718-0.928,1.62-1.393,2.709-1.393
				c0.479,0,0.918,0.087,1.315,0.26s0.697,0.393,0.901,0.661s0.346,0.573,0.426,0.913c0.08,0.341,0.12,0.828,0.12,1.463v5.108
				H52.637z"/>
			<linearGradient id="SVGID_5_" gradientUnits="userSpaceOnUse" x1="54.363" y1="21.035" x2="62.116" y2="21.035">
				<stop  offset="0" style="stop-color:#F4F5F5"/>
				<stop  offset="1" style="stop-color:#E7E7E7"/>
			</linearGradient>
			<path fill="url(#SVGID_5_)" d="M62.008,19.356l-2.144,0.387c-0.072-0.429-0.236-0.751-0.491-0.968
				c-0.256-0.217-0.587-0.325-0.995-0.325c-0.541,0-0.974,0.188-1.296,0.562s-0.483,1-0.483,1.877c0,0.975,0.163,1.663,0.491,2.065
				c0.327,0.402,0.768,0.604,1.319,0.604c0.413,0,0.751-0.117,1.014-0.352c0.264-0.234,0.449-0.639,0.558-1.211l2.135,0.363
				c-0.221,0.98-0.646,1.721-1.277,2.222c-0.629,0.5-1.473,0.75-2.53,0.75c-1.202,0-2.16-0.379-2.875-1.138
				c-0.715-0.758-1.071-1.808-1.071-3.149c0-1.356,0.358-2.413,1.075-3.169s1.688-1.134,2.91-1.134c1,0,1.796,0.216,2.387,0.646
				C61.325,17.817,61.75,18.474,62.008,19.356z"/>
			<linearGradient id="SVGID_6_" gradientUnits="userSpaceOnUse" x1="63.657" y1="19.4725" x2="65.831" y2="19.4725">
				<stop  offset="0" style="stop-color:#F4F5F5"/>
				<stop  offset="1" style="stop-color:#E7E7E7"/>
			</linearGradient>
			<path fill="url(#SVGID_6_)" d="M63.657,15.812V13.8h2.174v2.012H63.657z M63.657,25.145v-8.219h2.174v8.219H63.657z"/>
			<linearGradient id="SVGID_7_" gradientUnits="userSpaceOnUse" x1="67.557" y1="21.0355" x2="76.038" y2="21.0355">
				<stop  offset="0" style="stop-color:#F4F5F5"/>
				<stop  offset="1" style="stop-color:#E7E7E7"/>
			</linearGradient>
			<path fill="url(#SVGID_7_)" d="M67.557,20.919c0-0.722,0.178-1.421,0.533-2.097s0.859-1.192,1.514-1.548
				c0.652-0.356,1.381-0.534,2.186-0.534c1.244,0,2.262,0.404,3.057,1.211c0.795,0.808,1.191,1.828,1.191,3.061
				c0,1.244-0.4,2.274-1.203,3.092c-0.803,0.818-1.813,1.227-3.029,1.227c-0.754,0-1.473-0.17-2.156-0.511
				c-0.684-0.34-1.203-0.84-1.559-1.497C67.735,22.664,67.557,21.863,67.557,20.919z M69.786,21.035c0,0.815,0.193,1.439,0.58,1.873
				s0.863,0.649,1.432,0.649c0.566,0,1.043-0.216,1.428-0.649s0.576-1.063,0.576-1.889c0-0.805-0.191-1.424-0.576-1.857
				c-0.385-0.433-0.861-0.649-1.428-0.649c-0.568,0-1.045,0.217-1.432,0.649C69.979,19.596,69.786,20.22,69.786,21.035z"/>
			<linearGradient id="SVGID_8_" gradientUnits="userSpaceOnUse" x1="77.724" y1="20.9425" x2="85.217" y2="20.9425">
				<stop  offset="0" style="stop-color:#F4F5F5"/>
				<stop  offset="1" style="stop-color:#E7E7E7"/>
			</linearGradient>
			<path fill="url(#SVGID_8_)" d="M85.217,25.145h-2.176V20.95c0-0.888-0.045-1.461-0.139-1.722s-0.244-0.463-0.453-0.607
				s-0.461-0.217-0.754-0.217c-0.377,0-0.715,0.104-1.014,0.31s-0.504,0.479-0.615,0.82c-0.111,0.34-0.166,0.97-0.166,1.888v3.723
				h-2.176v-8.219h2.02v1.207c0.719-0.928,1.621-1.393,2.709-1.393c0.48,0,0.918,0.087,1.316,0.26
				c0.396,0.173,0.697,0.393,0.9,0.661c0.205,0.269,0.346,0.573,0.426,0.913c0.08,0.341,0.121,0.828,0.121,1.463L85.217,25.145
				L85.217,25.145z"/>
			<linearGradient id="SVGID_9_" gradientUnits="userSpaceOnUse" x1="86.849" y1="21.0365" x2="94.564" y2="21.0365">
				<stop  offset="0" style="stop-color:#F4F5F5"/>
				<stop  offset="1" style="stop-color:#E7E7E7"/>
			</linearGradient>
			<path fill="url(#SVGID_9_)" d="M89.047,19.434l-1.975-0.356c0.223-0.794,0.604-1.382,1.146-1.765
				c0.541-0.381,1.346-0.572,2.414-0.572c0.971,0,1.691,0.115,2.166,0.345s0.809,0.521,1.004,0.874
				c0.193,0.354,0.289,1.002,0.289,1.946l-0.023,2.538c0,0.723,0.035,1.255,0.105,1.599c0.068,0.343,0.199,0.711,0.391,1.103h-2.152
				c-0.057-0.145-0.125-0.358-0.209-0.643c-0.035-0.129-0.061-0.214-0.076-0.255c-0.371,0.361-0.77,0.632-1.191,0.813
				c-0.424,0.181-0.875,0.271-1.355,0.271c-0.846,0-1.512-0.229-2-0.688s-0.732-1.04-0.732-1.741c0-0.465,0.111-0.878,0.334-1.242
				c0.221-0.363,0.533-0.643,0.932-0.836c0.4-0.193,0.977-0.362,1.73-0.507c1.016-0.19,1.721-0.368,2.113-0.534v-0.216
				c0-0.418-0.104-0.717-0.311-0.895s-0.596-0.267-1.168-0.267c-0.387,0-0.689,0.076-0.906,0.229
				C89.356,18.784,89.18,19.052,89.047,19.434z M91.957,21.198c-0.279,0.093-0.721,0.203-1.324,0.332s-0.998,0.256-1.184,0.38
				c-0.285,0.201-0.426,0.456-0.426,0.766c0,0.305,0.113,0.567,0.34,0.789c0.227,0.223,0.516,0.333,0.867,0.333
				c0.393,0,0.766-0.129,1.121-0.387c0.264-0.196,0.438-0.436,0.52-0.72c0.057-0.186,0.086-0.539,0.086-1.061
				C91.957,21.63,91.957,21.198,91.957,21.198z"/>
			<linearGradient id="SVGID_10_" gradientUnits="userSpaceOnUse" x1="96.237" y1="19.4725" x2="98.411" y2="19.4725">
				<stop  offset="0" style="stop-color:#F4F5F5"/>
				<stop  offset="1" style="stop-color:#E7E7E7"/>
			</linearGradient>
			<path fill="url(#SVGID_10_)" d="M96.237,25.145V13.8h2.174v11.345H96.237z"/>
			<linearGradient id="SVGID_11_" gradientUnits="userSpaceOnUse" x1="100.639" y1="19.4725" x2="102.815" y2="19.4725">
				<stop  offset="0" style="stop-color:#F4F5F5"/>
				<stop  offset="1" style="stop-color:#E7E7E7"/>
			</linearGradient>
			<path fill="url(#SVGID_11_)" d="M100.639,15.812V13.8h2.176v2.012H100.639z M100.639,25.145v-8.219h2.176v8.219H100.639z"/>
			<linearGradient id="SVGID_12_" gradientUnits="userSpaceOnUse" x1="104.553" y1="19.5655" x2="112.58" y2="19.5655">
				<stop  offset="0" style="stop-color:#F4F5F5"/>
				<stop  offset="1" style="stop-color:#E7E7E7"/>
			</linearGradient>
			<path fill="url(#SVGID_12_)" d="M112.58,25.145h-2.02v-1.207c-0.336,0.47-0.732,0.819-1.188,1.049
				c-0.457,0.229-0.918,0.344-1.383,0.344c-0.943,0-1.752-0.38-2.426-1.142c-0.674-0.761-1.01-1.822-1.01-3.185
				c0-1.393,0.328-2.451,0.982-3.177c0.656-0.725,1.484-1.087,2.484-1.087c0.918,0,1.713,0.382,2.385,1.146V13.8h2.174v11.345
				H112.58z M106.776,20.857c0,0.877,0.121,1.512,0.363,1.903c0.352,0.567,0.842,0.852,1.471,0.852c0.5,0,0.926-0.213,1.277-0.639
				s0.525-1.062,0.525-1.907c0-0.944-0.17-1.624-0.51-2.039s-0.777-0.623-1.309-0.623c-0.516,0-0.947,0.205-1.295,0.615
				C106.95,19.43,106.776,20.042,106.776,20.857z"/>
			<linearGradient id="SVGID_13_" gradientUnits="userSpaceOnUse" x1="114.153" y1="21.0365" x2="121.867" y2="21.0365">
				<stop  offset="0" style="stop-color:#F4F5F5"/>
				<stop  offset="1" style="stop-color:#E7E7E7"/>
			</linearGradient>
			<path fill="url(#SVGID_13_)" d="M116.348,19.434l-1.973-0.356c0.221-0.794,0.604-1.382,1.145-1.765
				c0.543-0.381,1.348-0.572,2.416-0.572c0.969,0,1.691,0.115,2.166,0.345s0.809,0.521,1.002,0.874s0.291,1.002,0.291,1.946
				l-0.023,2.538c0,0.723,0.035,1.255,0.104,1.599c0.07,0.343,0.201,0.711,0.391,1.103h-2.15c-0.057-0.145-0.127-0.358-0.209-0.643
				c-0.037-0.129-0.063-0.214-0.078-0.255c-0.371,0.361-0.768,0.632-1.191,0.813s-0.875,0.271-1.354,0.271
				c-0.848,0-1.514-0.229-2.002-0.688c-0.486-0.459-0.73-1.04-0.73-1.741c0-0.465,0.111-0.878,0.332-1.242
				c0.223-0.363,0.533-0.643,0.934-0.836c0.398-0.193,0.977-0.362,1.729-0.507c1.018-0.19,1.721-0.368,2.113-0.534v-0.216
				c0-0.418-0.104-0.717-0.309-0.895c-0.207-0.178-0.598-0.267-1.17-0.267c-0.387,0-0.688,0.076-0.904,0.229
				C116.659,18.784,116.483,19.052,116.348,19.434z M119.258,21.198c-0.279,0.093-0.719,0.203-1.322,0.332
				c-0.605,0.129-1,0.256-1.186,0.38c-0.283,0.201-0.426,0.456-0.426,0.766c0,0.305,0.113,0.567,0.342,0.789
				c0.227,0.223,0.516,0.333,0.865,0.333c0.393,0,0.768-0.129,1.123-0.387c0.264-0.196,0.436-0.436,0.518-0.72
				c0.057-0.186,0.086-0.539,0.086-1.061V21.198z"/>
			<linearGradient id="SVGID_14_" gradientUnits="userSpaceOnUse" x1="123.051" y1="19.5655" x2="131.075" y2="19.5655">
				<stop  offset="0" style="stop-color:#F4F5F5"/>
				<stop  offset="1" style="stop-color:#E7E7E7"/>
			</linearGradient>
			<path fill="url(#SVGID_14_)" d="M131.075,25.145h-2.02v-1.207c-0.334,0.47-0.73,0.819-1.187,1.049
				c-0.457,0.229-0.916,0.344-1.381,0.344c-0.945,0-1.754-0.38-2.426-1.142c-0.674-0.761-1.01-1.822-1.01-3.185
				c0-1.393,0.326-2.451,0.982-3.177c0.654-0.725,1.482-1.087,2.484-1.087c0.918,0,1.713,0.382,2.383,1.146V13.8h2.174v11.345
				H131.075z M125.272,20.857c0,0.877,0.121,1.512,0.363,1.903c0.352,0.567,0.84,0.852,1.471,0.852c0.5,0,0.926-0.213,1.277-0.639
				c0.35-0.426,0.525-1.062,0.525-1.907c0-0.944-0.17-1.624-0.512-2.039c-0.34-0.415-0.775-0.623-1.307-0.623
				c-0.516,0-0.949,0.205-1.297,0.615S125.272,20.042,125.272,20.857z"/>
		</g>
	</g>
</g>
</svg>
