<!-- Generator: Adobe Illustrator 17.0.0, SVG Export Plug-In  -->
<svg version="1.1"
	 xmlns="http://www.w3.org/2000/svg" xmlns:xlink="http://www.w3.org/1999/xlink" xmlns:a="http://ns.adobe.com/AdobeSVGViewerExtensions/3.0/"
	 x="0px" y="0px" width="512.421px" height="25.594px" viewBox="0 0 512.421 25.594" enable-background="new 0 0 512.421 25.594"
	 xml:space="preserve">
<defs>
</defs>
<g>
	<path fill="#F16529" d="M11.21,20.389V7.909l-0.114,0.774L6.868,20.389H6.005L1.739,8.684L1.638,7.909v12.479H0V2.184h0.851
		l5.522,14.93l0.051,0.673l0.051-0.673l5.51-14.93h0.863v18.205H11.21z"/>
	<path fill="#F16529" d="M24.863,18.307c-0.198,0.465-0.471,0.872-0.818,1.219s-0.754,0.62-1.219,0.819s-0.961,0.298-1.485,0.298
		H20.3c-0.524,0-1.021-0.1-1.485-0.298s-0.871-0.472-1.219-0.819s-0.62-0.753-0.818-1.219c-0.199-0.465-0.299-0.96-0.299-1.485
		v-5.865c0-0.525,0.1-1.02,0.299-1.485c0.198-0.465,0.471-0.872,0.818-1.219s0.754-0.62,1.219-0.819s0.961-0.298,1.485-0.298h1.041
		c0.524,0,1.021,0.1,1.485,0.298s0.871,0.472,1.219,0.819s0.62,0.753,0.818,1.219c0.199,0.465,0.299,0.96,0.299,1.485v5.865
		C25.162,17.346,25.063,17.841,24.863,18.307z M23.601,10.867c0-0.313-0.06-0.607-0.178-0.882s-0.279-0.514-0.482-0.717
		s-0.442-0.364-0.718-0.482c-0.274-0.119-0.568-0.178-0.882-0.178H20.3c-0.313,0-0.607,0.059-0.882,0.178
		c-0.275,0.119-0.515,0.279-0.718,0.482s-0.364,0.442-0.482,0.717s-0.178,0.569-0.178,0.882v6.043c0,0.313,0.06,0.607,0.178,0.882
		s0.279,0.514,0.482,0.717s0.442,0.364,0.718,0.482c0.274,0.119,0.568,0.178,0.882,0.178h1.041c0.313,0,0.607-0.059,0.882-0.178
		c0.275-0.119,0.515-0.279,0.718-0.482s0.364-0.442,0.482-0.717s0.178-0.569,0.178-0.882V10.867z"/>
	<path fill="#F16529" d="M36.448,20.389l-0.863-1.32c-0.355,0.482-0.8,0.865-1.333,1.149s-1.117,0.425-1.752,0.425h-0.394
		c-0.524,0-1.021-0.1-1.485-0.298s-0.871-0.472-1.219-0.819s-0.62-0.753-0.818-1.219c-0.199-0.465-0.299-0.96-0.299-1.485v-5.865
		c0-0.525,0.1-1.02,0.299-1.485c0.198-0.465,0.471-0.872,0.818-1.219s0.754-0.62,1.219-0.819s0.961-0.298,1.485-0.298H32.5
		c0.584,0,1.125,0.119,1.625,0.355s0.927,0.567,1.282,0.99V2.184h1.562v18.205H36.448z M35.407,10.867
		c0-0.313-0.06-0.607-0.178-0.882s-0.279-0.514-0.482-0.717s-0.442-0.364-0.718-0.482c-0.274-0.119-0.568-0.178-0.882-0.178h-1.041
		c-0.313,0-0.607,0.059-0.882,0.178c-0.275,0.119-0.515,0.279-0.718,0.482s-0.364,0.442-0.482,0.717s-0.178,0.569-0.178,0.882v6.043
		c0,0.313,0.06,0.607,0.178,0.882s0.279,0.514,0.482,0.717s0.442,0.364,0.718,0.482c0.274,0.119,0.568,0.178,0.882,0.178h1.041
		c0.313,0,0.607-0.059,0.882-0.178c0.275-0.119,0.515-0.279,0.718-0.482s0.364-0.442,0.482-0.717s0.178-0.569,0.178-0.882V10.867z"
		/>
	<path fill="#F16529" d="M48.477,18.307c-0.198,0.465-0.471,0.872-0.818,1.219s-0.754,0.62-1.219,0.819s-0.961,0.298-1.485,0.298
		h-1.041c-0.524,0-1.021-0.1-1.485-0.298s-0.871-0.472-1.219-0.819s-0.62-0.753-0.818-1.219c-0.199-0.465-0.299-0.96-0.299-1.485
		v-5.865c0-0.525,0.1-1.02,0.299-1.485c0.198-0.465,0.471-0.872,0.818-1.219s0.754-0.62,1.219-0.819s0.961-0.298,1.485-0.298h1.041
		c0.524,0,1.021,0.1,1.485,0.298s0.871,0.472,1.219,0.819s0.62,0.753,0.818,1.219c0.199,0.465,0.299,0.96,0.299,1.485v3.06h-7.122
		v2.895c0,0.313,0.06,0.607,0.178,0.882s0.279,0.514,0.482,0.717s0.442,0.364,0.718,0.482c0.274,0.119,0.568,0.178,0.882,0.178
		h1.041c0.313,0,0.607-0.059,0.882-0.178c0.275-0.119,0.515-0.279,0.718-0.482s0.364-0.442,0.482-0.717s0.178-0.569,0.178-0.882
		v-0.863l1.562,0.254v0.521C48.775,17.346,48.676,17.841,48.477,18.307z M47.214,10.867c0-0.313-0.06-0.607-0.178-0.882
		s-0.279-0.514-0.482-0.717s-0.442-0.364-0.718-0.482c-0.274-0.119-0.568-0.178-0.882-0.178h-1.041
		c-0.313,0-0.607,0.059-0.882,0.178c-0.275,0.119-0.515,0.279-0.718,0.482s-0.364,0.442-0.482,0.717s-0.178,0.569-0.178,0.882v1.93
		h5.561V10.867z"/>
	<path fill="#F16529" d="M52.419,20.389V2.184h1.562v18.205H52.419z"/>
	<path fill="#F16529" d="M66.01,18.307c-0.199,0.465-0.473,0.872-0.819,1.219s-0.753,0.62-1.219,0.819s-0.96,0.298-1.485,0.298
		h-1.041c-0.525,0-1.02-0.1-1.485-0.298s-0.872-0.472-1.219-0.819s-0.62-0.753-0.819-1.219c-0.198-0.465-0.298-0.96-0.298-1.485
		v-5.865c0-0.525,0.1-1.02,0.298-1.485c0.199-0.465,0.473-0.872,0.819-1.219s0.753-0.62,1.219-0.819s0.96-0.298,1.485-0.298h1.041
		c0.525,0,1.02,0.1,1.485,0.298s0.872,0.472,1.219,0.819s0.62,0.753,0.819,1.219c0.198,0.465,0.298,0.96,0.298,1.485v5.865
		C66.308,17.346,66.208,17.841,66.01,18.307z M64.746,10.867c0-0.313-0.059-0.607-0.178-0.882s-0.279-0.514-0.482-0.717
		s-0.442-0.364-0.717-0.482c-0.275-0.119-0.57-0.178-0.883-0.178h-1.041c-0.313,0-0.607,0.059-0.883,0.178
		c-0.274,0.119-0.514,0.279-0.717,0.482s-0.363,0.442-0.482,0.717s-0.178,0.569-0.178,0.882v6.043c0,0.313,0.059,0.607,0.178,0.882
		s0.279,0.514,0.482,0.717s0.442,0.364,0.717,0.482c0.275,0.119,0.57,0.178,0.883,0.178h1.041c0.313,0,0.607-0.059,0.883-0.178
		c0.274-0.119,0.514-0.279,0.717-0.482s0.363-0.442,0.482-0.717s0.178-0.569,0.178-0.882V10.867z"/>
	<path fill="#F16529" d="M85.561,17.913c-0.233,0.542-0.553,1.016-0.959,1.422s-0.881,0.726-1.422,0.958s-1.121,0.349-1.739,0.349
		h-1.295c-0.618,0-1.2-0.116-1.745-0.349c-0.547-0.233-1.022-0.552-1.429-0.958s-0.726-0.88-0.958-1.422
		c-0.233-0.542-0.35-1.122-0.35-1.739V6.398c0-0.618,0.116-1.198,0.35-1.739c0.232-0.542,0.552-1.016,0.958-1.422
		s0.882-0.726,1.429-0.958c0.545-0.233,1.127-0.349,1.745-0.349h1.295c0.618,0,1.198,0.116,1.739,0.349s1.016,0.552,1.422,0.958
		s0.726,0.88,0.959,1.422c0.232,0.542,0.349,1.122,0.349,1.739v0.736l-1.638,0.254v-0.99c0-0.406-0.076-0.785-0.229-1.136
		s-0.359-0.658-0.622-0.92S82.852,3.872,82.5,3.72c-0.351-0.152-0.729-0.229-1.136-0.229h-1.143c-0.406,0-0.785,0.076-1.136,0.229
		c-0.352,0.152-0.66,0.36-0.928,0.622c-0.266,0.262-0.476,0.569-0.628,0.92s-0.229,0.73-0.229,1.136v9.775
		c0,0.406,0.076,0.785,0.229,1.136s0.362,0.66,0.628,0.927c0.268,0.267,0.576,0.476,0.928,0.628
		c0.351,0.152,0.729,0.229,1.136,0.229h1.143c0.406,0,0.785-0.076,1.136-0.229c0.352-0.152,0.658-0.362,0.921-0.628
		s0.47-0.576,0.622-0.927s0.229-0.73,0.229-1.136v-0.99l1.638,0.267v0.724C85.909,16.792,85.793,17.372,85.561,17.913z"/>
	<path fill="#F16529" d="M100.763,20.389V7.909l-0.114,0.774l-4.228,11.705h-0.863L91.292,8.684L91.19,7.909v12.479h-1.638V2.184
		h0.851l5.522,14.93l0.051,0.673l0.051-0.673l5.51-14.93h0.863v18.205H100.763z"/>
	<path fill="#F16529" d="M117.762,20.389V7.909l-0.114,0.774l-4.228,11.705h-0.863l-4.266-11.705l-0.102-0.774v12.479h-1.638V2.184
		h0.851l5.522,14.93l0.051,0.673l0.051-0.673l5.51-14.93h0.863v18.205H117.762z"/>
	<path fill="#F16529" d="M123.551,20.389V2.184h1.638v18.205H123.551z"/>
	<path fill="#F16529" d="M134.812,12.797c0-1.414,0.136-2.729,0.406-3.948s0.647-2.355,1.13-3.409s1.056-2.031,1.721-2.933
		c0.664-0.901,1.39-1.737,2.177-2.507l0.914,0.914c-0.694,0.719-1.335,1.515-1.923,2.387c-0.589,0.872-1.094,1.809-1.518,2.812
		s-0.754,2.063-0.99,3.18s-0.355,2.285-0.355,3.504s0.119,2.387,0.355,3.504s0.566,2.177,0.99,3.18s0.929,1.94,1.518,2.812
		c0.588,0.872,1.229,1.667,1.923,2.387l-0.914,0.914c-0.787-0.77-1.513-1.606-2.177-2.507c-0.665-0.901-1.238-1.881-1.721-2.939
		s-0.859-2.196-1.13-3.415S134.812,14.202,134.812,12.797z"/>
	<path fill="#F16529" d="M153.645,17.913c-0.232,0.542-0.552,1.016-0.958,1.422s-0.88,0.726-1.422,0.958s-1.122,0.349-1.739,0.349
		h-1.295c-0.617,0-1.199-0.116-1.746-0.349c-0.545-0.233-1.021-0.552-1.428-0.958s-0.726-0.88-0.959-1.422
		c-0.232-0.542-0.349-1.122-0.349-1.739V6.398c0-0.618,0.116-1.198,0.349-1.739c0.233-0.542,0.553-1.016,0.959-1.422
		s0.883-0.726,1.428-0.958c0.547-0.233,1.129-0.349,1.746-0.349h1.295c0.617,0,1.197,0.116,1.739,0.349s1.016,0.552,1.422,0.958
		s0.726,0.88,0.958,1.422c0.233,0.542,0.35,1.122,0.35,1.739v0.736l-1.638,0.254v-0.99c0-0.406-0.076-0.785-0.229-1.136
		s-0.36-0.658-0.622-0.92s-0.569-0.47-0.92-0.622c-0.352-0.152-0.73-0.229-1.137-0.229h-1.143c-0.406,0-0.785,0.076-1.137,0.229
		c-0.351,0.152-0.66,0.36-0.926,0.622c-0.268,0.262-0.477,0.569-0.629,0.92s-0.229,0.73-0.229,1.136v9.775
		c0,0.406,0.076,0.785,0.229,1.136s0.361,0.66,0.629,0.927c0.266,0.267,0.575,0.476,0.926,0.628c0.352,0.152,0.73,0.229,1.137,0.229
		h1.143c0.406,0,0.785-0.076,1.137-0.229c0.351-0.152,0.658-0.362,0.92-0.628s0.47-0.576,0.622-0.927s0.229-0.73,0.229-1.136v-0.99
		l1.638,0.267v0.724C153.994,16.792,153.878,17.372,153.645,17.913z"/>
	<path fill="#F16529" d="M165.28,20.389l-0.863-1.295c-0.355,0.465-0.8,0.84-1.333,1.124s-1.117,0.425-1.752,0.425h-0.394
		c-0.524,0-1.021-0.1-1.485-0.298s-0.871-0.472-1.219-0.819s-0.62-0.753-0.818-1.219c-0.199-0.465-0.299-0.96-0.299-1.485v-0.127
		c0-0.525,0.1-1.02,0.299-1.485c0.198-0.465,0.471-0.872,0.818-1.219s0.754-0.62,1.219-0.819s0.961-0.298,1.485-0.298h3.301v-2.006
		c0-0.313-0.06-0.607-0.178-0.882s-0.279-0.514-0.482-0.717s-0.442-0.364-0.718-0.482c-0.274-0.119-0.568-0.178-0.882-0.178h-0.914
		c-0.313,0-0.607,0.059-0.882,0.178c-0.275,0.119-0.515,0.279-0.718,0.482s-0.364,0.442-0.482,0.717s-0.178,0.569-0.178,0.882v0.47
		l-1.562-0.254v-0.127c0-0.525,0.1-1.02,0.299-1.485c0.198-0.465,0.471-0.872,0.818-1.219s0.754-0.62,1.219-0.819
		s0.961-0.298,1.485-0.298h0.914c0.524,0,1.021,0.1,1.485,0.298s0.871,0.472,1.219,0.819s0.62,0.753,0.818,1.219
		c0.199,0.465,0.299,0.96,0.299,1.485v9.433H165.28z M164.239,14.092h-3.301c-0.313,0-0.607,0.059-0.882,0.178
		c-0.275,0.119-0.515,0.281-0.718,0.489s-0.364,0.449-0.482,0.724s-0.178,0.569-0.178,0.882v0.546c0,0.313,0.06,0.607,0.178,0.882
		s0.279,0.514,0.482,0.717s0.442,0.364,0.718,0.482c0.274,0.119,0.568,0.178,0.882,0.178h1.041c0.313,0,0.607-0.059,0.882-0.178
		c0.275-0.119,0.515-0.279,0.718-0.482s0.364-0.442,0.482-0.717s0.178-0.569,0.178-0.882V14.092z"/>
	<path fill="#F16529" d="M177.309,18.307c-0.198,0.465-0.471,0.872-0.818,1.219s-0.754,0.62-1.219,0.819s-0.961,0.298-1.485,0.298
		h-0.394c-0.584,0-1.125-0.119-1.625-0.355s-0.927-0.567-1.282-0.99v6.297h-1.562V7.389h0.521l0.851,1.32
		c0.355-0.482,0.802-0.865,1.34-1.149c0.537-0.284,1.123-0.425,1.758-0.425h0.394c0.524,0,1.021,0.1,1.485,0.298
		s0.871,0.472,1.219,0.819s0.62,0.753,0.818,1.219c0.199,0.465,0.299,0.96,0.299,1.485v5.865
		C177.607,17.346,177.508,17.841,177.309,18.307z M176.046,10.867c0-0.313-0.06-0.607-0.178-0.882s-0.279-0.514-0.482-0.717
		s-0.442-0.364-0.718-0.482c-0.274-0.119-0.568-0.178-0.882-0.178h-1.041c-0.313,0-0.607,0.059-0.882,0.178
		c-0.275,0.119-0.515,0.279-0.718,0.482s-0.364,0.442-0.482,0.717s-0.178,0.569-0.178,0.882v6.043c0,0.313,0.06,0.607,0.178,0.882
		s0.279,0.514,0.482,0.717s0.442,0.364,0.718,0.482c0.274,0.119,0.568,0.178,0.882,0.178h1.041c0.313,0,0.607-0.059,0.882-0.178
		c0.275-0.119,0.515-0.279,0.718-0.482s0.364-0.442,0.482-0.717s0.178-0.569,0.178-0.882V10.867z"/>
	<path fill="#F16529" d="M188.894,20.389l-0.863-1.295c-0.355,0.465-0.8,0.84-1.333,1.124s-1.117,0.425-1.752,0.425h-0.394
		c-0.524,0-1.021-0.1-1.485-0.298s-0.871-0.472-1.219-0.819s-0.62-0.753-0.818-1.219c-0.199-0.465-0.299-0.96-0.299-1.485v-0.127
		c0-0.525,0.1-1.02,0.299-1.485c0.198-0.465,0.471-0.872,0.818-1.219s0.754-0.62,1.219-0.819s0.961-0.298,1.485-0.298h3.301v-2.006
		c0-0.313-0.06-0.607-0.178-0.882s-0.279-0.514-0.482-0.717s-0.442-0.364-0.718-0.482c-0.274-0.119-0.568-0.178-0.882-0.178h-0.914
		c-0.313,0-0.607,0.059-0.882,0.178c-0.275,0.119-0.515,0.279-0.718,0.482s-0.364,0.442-0.482,0.717s-0.178,0.569-0.178,0.882v0.47
		l-1.562-0.254v-0.127c0-0.525,0.1-1.02,0.299-1.485c0.198-0.465,0.471-0.872,0.818-1.219s0.754-0.62,1.219-0.819
		s0.961-0.298,1.485-0.298h0.914c0.524,0,1.021,0.1,1.485,0.298s0.871,0.472,1.219,0.819s0.62,0.753,0.818,1.219
		c0.199,0.465,0.299,0.96,0.299,1.485v9.433H188.894z M187.853,14.092h-3.301c-0.313,0-0.607,0.059-0.882,0.178
		c-0.275,0.119-0.515,0.281-0.718,0.489s-0.364,0.449-0.482,0.724s-0.178,0.569-0.178,0.882v0.546c0,0.313,0.06,0.607,0.178,0.882
		s0.279,0.514,0.482,0.717s0.442,0.364,0.718,0.482c0.274,0.119,0.568,0.178,0.882,0.178h1.041c0.313,0,0.607-0.059,0.882-0.178
		c0.275-0.119,0.515-0.279,0.718-0.482s0.364-0.442,0.482-0.717s0.178-0.569,0.178-0.882V14.092z"/>
	<path fill="#F16529" d="M200.922,18.307c-0.198,0.465-0.471,0.872-0.818,1.219s-0.754,0.62-1.219,0.819s-0.961,0.298-1.485,0.298
		h-1.041c-0.524,0-1.021-0.1-1.485-0.298s-0.871-0.472-1.219-0.819s-0.62-0.753-0.818-1.219c-0.199-0.465-0.299-0.96-0.299-1.485
		V2.184h1.562V8.48c0.355-0.423,0.782-0.753,1.282-0.99s1.041-0.355,1.625-0.355h0.394c0.524,0,1.021,0.1,1.485,0.298
		s0.871,0.472,1.219,0.819s0.62,0.753,0.818,1.219c0.199,0.465,0.299,0.96,0.299,1.485v5.865
		C201.221,17.346,201.121,17.841,200.922,18.307z M199.659,10.867c0-0.313-0.06-0.607-0.178-0.882s-0.279-0.514-0.482-0.717
		s-0.442-0.364-0.718-0.482c-0.274-0.119-0.568-0.178-0.882-0.178h-1.041c-0.313,0-0.607,0.059-0.882,0.178
		c-0.275,0.119-0.515,0.279-0.718,0.482s-0.364,0.442-0.482,0.717s-0.178,0.569-0.178,0.882v6.043c0,0.313,0.06,0.607,0.178,0.882
		s0.279,0.514,0.482,0.717s0.442,0.364,0.718,0.482c0.274,0.119,0.568,0.178,0.882,0.178h1.041c0.313,0,0.607-0.059,0.882-0.178
		c0.275-0.119,0.515-0.279,0.718-0.482s0.364-0.442,0.482-0.717s0.178-0.569,0.178-0.882V10.867z"/>
	<path fill="#F16529" d="M204.737,4.266V2.184h1.815v2.082H204.737z M204.864,20.389v-13h1.562v13H204.864z"/>
	<path fill="#F16529" d="M210.59,20.389V2.184h1.562v18.205H210.59z"/>
	<path fill="#F16529" d="M216.188,4.266V2.184h1.815v2.082H216.188z M216.315,20.389v-13h1.562v13H216.315z"/>
	<path fill="#F16529" d="M226.256,20.389c-0.475,0-0.92-0.089-1.34-0.267c-0.418-0.178-0.782-0.423-1.092-0.736
		c-0.309-0.313-0.554-0.677-0.736-1.092c-0.182-0.415-0.272-0.859-0.272-1.333V8.874h-2.336V7.389h2.336V4.266l1.562-0.254v3.377
		h3.301v1.485h-3.301v8.163c0,0.262,0.049,0.506,0.146,0.73c0.097,0.224,0.23,0.421,0.399,0.59s0.368,0.303,0.597,0.4
		s0.475,0.146,0.736,0.146h1.422v1.485H226.256z"/>
	<path fill="#F16529" d="M232.654,25.594h-1.511l2.311-6.322l-4.215-11.883h1.562l3.39,9.852l0.051,0.673l0.051-0.673l3.377-9.852
		h1.562L232.654,25.594z"/>
	<path fill="#F16529" d="M258.502,20.389V7.909l-0.114,0.774l-4.228,11.705h-0.863l-4.266-11.705l-0.102-0.774v12.479h-1.638V2.184
		h0.851l5.522,14.93l0.051,0.673l0.051-0.673l5.51-14.93h0.863v18.205H258.502z"/>
	<path fill="#F16529" d="M271.934,20.389l-0.863-1.295c-0.355,0.465-0.8,0.84-1.333,1.124s-1.117,0.425-1.752,0.425h-0.394
		c-0.525,0-1.02-0.1-1.485-0.298s-0.872-0.472-1.219-0.819s-0.62-0.753-0.819-1.219c-0.198-0.465-0.298-0.96-0.298-1.485v-0.127
		c0-0.525,0.1-1.02,0.298-1.485c0.199-0.465,0.473-0.872,0.819-1.219s0.753-0.62,1.219-0.819s0.96-0.298,1.485-0.298h3.301v-2.006
		c0-0.313-0.059-0.607-0.178-0.882s-0.279-0.514-0.482-0.717s-0.442-0.364-0.717-0.482c-0.275-0.119-0.57-0.178-0.883-0.178h-0.914
		c-0.313,0-0.607,0.059-0.883,0.178c-0.274,0.119-0.514,0.279-0.717,0.482s-0.363,0.442-0.482,0.717s-0.178,0.569-0.178,0.882v0.47
		l-1.562-0.254v-0.127c0-0.525,0.1-1.02,0.298-1.485c0.199-0.465,0.473-0.872,0.819-1.219s0.753-0.62,1.219-0.819
		s0.96-0.298,1.485-0.298h0.914c0.525,0,1.02,0.1,1.485,0.298s0.872,0.472,1.219,0.819s0.62,0.753,0.819,1.219
		c0.198,0.465,0.298,0.96,0.298,1.485v9.433H271.934z M270.893,14.092h-3.301c-0.313,0-0.607,0.059-0.883,0.178
		c-0.274,0.119-0.514,0.281-0.717,0.489s-0.363,0.449-0.482,0.724s-0.178,0.569-0.178,0.882v0.546c0,0.313,0.059,0.607,0.178,0.882
		s0.279,0.514,0.482,0.717s0.442,0.364,0.717,0.482c0.275,0.119,0.57,0.178,0.883,0.178h1.041c0.313,0,0.607-0.059,0.883-0.178
		c0.274-0.119,0.514-0.279,0.717-0.482s0.363-0.442,0.482-0.717s0.178-0.569,0.178-0.882V14.092z"/>
	<path fill="#F16529" d="M280.313,20.389c-0.475,0-0.92-0.089-1.34-0.267c-0.418-0.178-0.782-0.423-1.092-0.736
		c-0.309-0.313-0.554-0.677-0.736-1.092c-0.182-0.415-0.272-0.859-0.272-1.333V8.874h-2.336V7.389h2.336V4.266l1.562-0.254v3.377
		h3.301v1.485h-3.301v8.163c0,0.262,0.049,0.506,0.146,0.73c0.097,0.224,0.23,0.421,0.399,0.59s0.368,0.303,0.597,0.4
		s0.475,0.146,0.736,0.146h1.422v1.485H280.313z"/>
	<path fill="#F16529" d="M292.767,20.389l-0.863-1.32c-0.355,0.482-0.8,0.865-1.333,1.149s-1.117,0.425-1.752,0.425h-0.394
		c-0.524,0-1.021-0.1-1.485-0.298s-0.871-0.472-1.219-0.819s-0.62-0.753-0.818-1.219c-0.199-0.465-0.299-0.96-0.299-1.485V7.389
		h1.562v9.521c0,0.313,0.06,0.607,0.178,0.882s0.279,0.514,0.482,0.717s0.442,0.364,0.718,0.482
		c0.274,0.119,0.568,0.178,0.882,0.178h1.041c0.313,0,0.607-0.059,0.882-0.178c0.275-0.119,0.515-0.279,0.718-0.482
		s0.364-0.442,0.482-0.717s0.178-0.569,0.178-0.882V7.389h1.562v13H292.767z"/>
	<path fill="#F16529" d="M300.231,8.874c-0.313,0-0.607,0.059-0.882,0.178c-0.275,0.119-0.515,0.279-0.718,0.482
		s-0.364,0.442-0.482,0.717s-0.178,0.569-0.178,0.882v9.255h-1.562v-13h0.521l0.851,1.32c0.355-0.482,0.802-0.865,1.34-1.149
		c0.537-0.284,1.123-0.425,1.758-0.425h0.914v1.739H300.231z"/>
	<path fill="#F16529" d="M304.269,4.266V2.184h1.815v2.082H304.269z M304.396,20.389v-13h1.562v13H304.396z"/>
	<path fill="#F16529" d="M314.336,20.389c-0.475,0-0.92-0.089-1.34-0.267c-0.418-0.178-0.782-0.423-1.092-0.736
		c-0.309-0.313-0.554-0.677-0.736-1.092c-0.182-0.415-0.272-0.859-0.272-1.333V8.874h-2.336V7.389h2.336V4.266l1.562-0.254v3.377
		h3.301v1.485h-3.301v8.163c0,0.262,0.049,0.506,0.146,0.73c0.097,0.224,0.23,0.421,0.399,0.59s0.368,0.303,0.597,0.4
		s0.475,0.146,0.736,0.146h1.422v1.485H314.336z"/>
	<path fill="#F16529" d="M320.734,25.594h-1.511l2.311-6.322l-4.215-11.883h1.562l3.39,9.852l0.051,0.673l0.051-0.673l3.377-9.852
		h1.562L320.734,25.594z"/>
	<path fill="#F16529" d="M346.582,20.389V7.909l-0.114,0.774l-4.228,11.705h-0.863l-4.266-11.705l-0.102-0.774v12.479h-1.638V2.184
		h0.851l5.522,14.93l0.051,0.673l0.051-0.673l5.51-14.93h0.863v18.205H346.582z"/>
	<path fill="#F16529" d="M360.236,18.307c-0.199,0.465-0.473,0.872-0.819,1.219s-0.753,0.62-1.219,0.819s-0.961,0.298-1.485,0.298
		h-1.041c-0.524,0-1.02-0.1-1.485-0.298s-0.872-0.472-1.219-0.819s-0.62-0.753-0.819-1.219c-0.198-0.465-0.298-0.96-0.298-1.485
		v-5.865c0-0.525,0.1-1.02,0.298-1.485c0.199-0.465,0.473-0.872,0.819-1.219s0.753-0.62,1.219-0.819s0.961-0.298,1.485-0.298h1.041
		c0.524,0,1.02,0.1,1.485,0.298s0.872,0.472,1.219,0.819s0.62,0.753,0.819,1.219c0.198,0.465,0.298,0.96,0.298,1.485v5.865
		C360.534,17.346,360.435,17.841,360.236,18.307z M358.973,10.867c0-0.313-0.06-0.607-0.178-0.882s-0.279-0.514-0.482-0.717
		s-0.442-0.364-0.717-0.482c-0.275-0.119-0.569-0.178-0.883-0.178h-1.041c-0.313,0-0.607,0.059-0.883,0.178
		c-0.274,0.119-0.514,0.279-0.717,0.482s-0.364,0.442-0.482,0.717s-0.178,0.569-0.178,0.882v6.043c0,0.313,0.06,0.607,0.178,0.882
		s0.279,0.514,0.482,0.717s0.442,0.364,0.717,0.482c0.275,0.119,0.569,0.178,0.883,0.178h1.041c0.313,0,0.607-0.059,0.883-0.178
		c0.274-0.119,0.514-0.279,0.717-0.482s0.364-0.442,0.482-0.717s0.178-0.569,0.178-0.882V10.867z"/>
	<path fill="#F16529" d="M371.82,20.389l-0.863-1.32c-0.355,0.482-0.8,0.865-1.333,1.149s-1.117,0.425-1.752,0.425h-0.394
		c-0.524,0-1.02-0.1-1.485-0.298s-0.872-0.472-1.219-0.819s-0.62-0.753-0.819-1.219c-0.198-0.465-0.298-0.96-0.298-1.485v-5.865
		c0-0.525,0.1-1.02,0.298-1.485c0.199-0.465,0.473-0.872,0.819-1.219s0.753-0.62,1.219-0.819s0.961-0.298,1.485-0.298h0.394
		c0.584,0,1.126,0.119,1.625,0.355s0.927,0.567,1.282,0.99V2.184h1.562v18.205H371.82z M370.779,10.867
		c0-0.313-0.06-0.607-0.178-0.882s-0.279-0.514-0.482-0.717s-0.442-0.364-0.717-0.482c-0.275-0.119-0.569-0.178-0.883-0.178h-1.041
		c-0.313,0-0.607,0.059-0.883,0.178c-0.274,0.119-0.514,0.279-0.717,0.482s-0.364,0.442-0.482,0.717s-0.178,0.569-0.178,0.882v6.043
		c0,0.313,0.06,0.607,0.178,0.882s0.279,0.514,0.482,0.717s0.442,0.364,0.717,0.482c0.275,0.119,0.569,0.178,0.883,0.178h1.041
		c0.313,0,0.607-0.059,0.883-0.178c0.274-0.119,0.514-0.279,0.717-0.482s0.364-0.442,0.482-0.717s0.178-0.569,0.178-0.882V10.867z"
		/>
	<path fill="#F16529" d="M383.85,18.307c-0.199,0.465-0.473,0.872-0.819,1.219s-0.753,0.62-1.219,0.819s-0.961,0.298-1.485,0.298
		h-1.041c-0.524,0-1.02-0.1-1.485-0.298s-0.872-0.472-1.219-0.819s-0.62-0.753-0.819-1.219c-0.198-0.465-0.298-0.96-0.298-1.485
		v-5.865c0-0.525,0.1-1.02,0.298-1.485c0.199-0.465,0.473-0.872,0.819-1.219s0.753-0.62,1.219-0.819s0.961-0.298,1.485-0.298h1.041
		c0.524,0,1.02,0.1,1.485,0.298s0.872,0.472,1.219,0.819s0.62,0.753,0.819,1.219c0.198,0.465,0.298,0.96,0.298,1.485v3.06h-7.122
		v2.895c0,0.313,0.06,0.607,0.178,0.882s0.279,0.514,0.482,0.717s0.442,0.364,0.717,0.482c0.275,0.119,0.569,0.178,0.883,0.178
		h1.041c0.313,0,0.607-0.059,0.883-0.178c0.274-0.119,0.514-0.279,0.717-0.482s0.364-0.442,0.482-0.717s0.178-0.569,0.178-0.882
		v-0.863l1.562,0.254v0.521C384.147,17.346,384.048,17.841,383.85,18.307z M382.586,10.867c0-0.313-0.06-0.607-0.178-0.882
		s-0.279-0.514-0.482-0.717s-0.442-0.364-0.717-0.482c-0.275-0.119-0.569-0.178-0.883-0.178h-1.041
		c-0.313,0-0.607,0.059-0.883,0.178c-0.274,0.119-0.514,0.279-0.717,0.482s-0.364,0.442-0.482,0.717s-0.178,0.569-0.178,0.882v1.93
		h5.561V10.867z"/>
	<path fill="#F16529" d="M387.791,20.389V2.184h1.562v18.205H387.791z"/>
	<path fill="#F16529" d="M399.496,20.389V2.184h1.638v18.205H399.496z"/>
	<path fill="#F16529" d="M411.899,20.389v-9.521c0-0.313-0.06-0.607-0.178-0.882s-0.279-0.514-0.482-0.717s-0.442-0.364-0.717-0.482
		c-0.275-0.119-0.569-0.178-0.883-0.178h-1.041c-0.313,0-0.607,0.059-0.883,0.178c-0.274,0.119-0.514,0.279-0.717,0.482
		s-0.364,0.442-0.482,0.717s-0.178,0.569-0.178,0.882v9.521h-1.562v-13h0.521l0.851,1.32c0.355-0.482,0.802-0.865,1.339-1.149
		c0.538-0.284,1.124-0.425,1.759-0.425h0.394c0.524,0,1.02,0.1,1.485,0.298s0.872,0.472,1.219,0.819s0.62,0.753,0.819,1.219
		c0.198,0.465,0.298,0.96,0.298,1.485v9.433H411.899z"/>
	<path fill="#F16529" d="M421.319,20.389c-0.474,0-0.92-0.089-1.34-0.267c-0.418-0.178-0.782-0.423-1.092-0.736
		c-0.309-0.313-0.554-0.677-0.736-1.092c-0.182-0.415-0.272-0.859-0.272-1.333V8.874h-2.336V7.389h2.336V4.266l1.562-0.254v3.377
		h3.301v1.485h-3.301v8.163c0,0.262,0.049,0.506,0.146,0.73c0.097,0.224,0.23,0.421,0.399,0.59s0.368,0.303,0.597,0.4
		s0.474,0.146,0.736,0.146h1.422v1.485H421.319z"/>
	<path fill="#F16529" d="M433.996,18.307c-0.199,0.465-0.473,0.872-0.819,1.219s-0.753,0.62-1.219,0.819s-0.961,0.298-1.485,0.298
		h-1.041c-0.524,0-1.02-0.1-1.485-0.298s-0.872-0.472-1.219-0.819s-0.62-0.753-0.819-1.219c-0.198-0.465-0.298-0.96-0.298-1.485
		v-5.865c0-0.525,0.1-1.02,0.298-1.485c0.199-0.465,0.473-0.872,0.819-1.219s0.753-0.62,1.219-0.819s0.961-0.298,1.485-0.298h1.041
		c0.524,0,1.02,0.1,1.485,0.298s0.872,0.472,1.219,0.819s0.62,0.753,0.819,1.219c0.198,0.465,0.298,0.96,0.298,1.485v3.06h-7.122
		v2.895c0,0.313,0.06,0.607,0.178,0.882s0.279,0.514,0.482,0.717s0.442,0.364,0.717,0.482c0.275,0.119,0.569,0.178,0.883,0.178
		h1.041c0.313,0,0.607-0.059,0.883-0.178c0.274-0.119,0.514-0.279,0.717-0.482s0.364-0.442,0.482-0.717s0.178-0.569,0.178-0.882
		v-0.863l1.562,0.254v0.521C434.294,17.346,434.194,17.841,433.996,18.307z M432.732,10.867c0-0.313-0.06-0.607-0.178-0.882
		s-0.279-0.514-0.482-0.717s-0.442-0.364-0.717-0.482c-0.275-0.119-0.569-0.178-0.883-0.178h-1.041
		c-0.313,0-0.607,0.059-0.883,0.178c-0.274,0.119-0.514,0.279-0.717,0.482s-0.364,0.442-0.482,0.717s-0.178,0.569-0.178,0.882v1.93
		h5.561V10.867z"/>
	<path fill="#F16529" d="M445.93,23.474c-0.199,0.44-0.473,0.817-0.819,1.13s-0.753,0.557-1.219,0.73s-0.961,0.26-1.485,0.26h-0.647
		c-0.524,0-1.02-0.087-1.485-0.26s-0.872-0.417-1.219-0.73s-0.62-0.69-0.818-1.13c-0.199-0.44-0.299-0.922-0.299-1.447v-0.051
		c0-0.508,0.093-0.973,0.279-1.396s0.44-0.792,0.762-1.104c-0.406-0.246-0.73-0.578-0.971-0.997
		c-0.242-0.419-0.362-0.882-0.362-1.39c0-0.457,0.098-0.882,0.292-1.276s0.461-0.713,0.8-0.958
		c-0.406-0.355-0.728-0.783-0.965-1.282s-0.355-1.045-0.355-1.638v-0.978c0-0.525,0.1-1.02,0.298-1.485
		c0.199-0.465,0.473-0.872,0.819-1.219s0.753-0.62,1.219-0.819s0.961-0.298,1.485-0.298h0.647c0.635,0,1.221,0.142,1.759,0.425
		c0.537,0.284,0.983,0.667,1.339,1.149l0.851-1.32h0.521v4.545c0,0.525-0.1,1.02-0.298,1.485c-0.199,0.465-0.473,0.872-0.819,1.219
		s-0.753,0.62-1.219,0.819s-0.961,0.298-1.485,0.298h-2.26c-0.178,0-0.347,0.036-0.508,0.108s-0.303,0.167-0.426,0.286
		c-0.122,0.119-0.218,0.26-0.285,0.425s-0.102,0.336-0.102,0.514s0.034,0.347,0.102,0.508s0.163,0.303,0.285,0.425
		c0.123,0.123,0.265,0.218,0.426,0.286s0.33,0.102,0.508,0.102h2.133c0.524,0,1.02,0.087,1.485,0.26s0.872,0.417,1.219,0.73
		s0.62,0.69,0.819,1.13c0.198,0.44,0.298,0.922,0.298,1.447v0.051C446.228,22.551,446.128,23.034,445.93,23.474z M444.806,10.867
		c0-0.313-0.06-0.607-0.178-0.882s-0.281-0.514-0.489-0.717c-0.207-0.203-0.448-0.364-0.723-0.482
		c-0.275-0.119-0.569-0.178-0.883-0.178h-1.295c-0.313,0-0.607,0.059-0.883,0.178c-0.274,0.119-0.514,0.279-0.717,0.482
		s-0.364,0.442-0.482,0.717s-0.178,0.569-0.178,0.882v1.155c0,0.313,0.06,0.607,0.178,0.882s0.279,0.514,0.482,0.717
		s0.442,0.364,0.717,0.482c0.275,0.119,0.569,0.178,0.883,0.178h1.295c0.313,0,0.607-0.059,0.883-0.178
		c0.274-0.119,0.516-0.279,0.723-0.482c0.208-0.203,0.371-0.442,0.489-0.717s0.178-0.569,0.178-0.882V10.867z M444.742,21.899
		c0-0.313-0.06-0.595-0.178-0.844s-0.279-0.459-0.482-0.628s-0.442-0.3-0.717-0.394c-0.275-0.093-0.569-0.14-0.883-0.14h-0.8
		c-0.313,0-0.607,0.046-0.882,0.14c-0.275,0.093-0.515,0.224-0.718,0.394s-0.364,0.379-0.482,0.628s-0.178,0.531-0.178,0.844v0.203
		c0,0.313,0.06,0.592,0.178,0.838s0.279,0.455,0.482,0.628s0.442,0.307,0.718,0.4c0.274,0.093,0.568,0.14,0.882,0.14h0.8
		c0.313,0,0.607-0.046,0.883-0.14c0.274-0.093,0.514-0.227,0.717-0.4s0.364-0.383,0.482-0.628s0.178-0.525,0.178-0.838V21.899z"/>
	<path fill="#F16529" d="M453.045,8.874c-0.313,0-0.607,0.059-0.883,0.178c-0.274,0.119-0.514,0.279-0.717,0.482
		s-0.364,0.442-0.482,0.717s-0.178,0.569-0.178,0.882v9.255h-1.562v-13h0.521l0.851,1.32c0.355-0.482,0.802-0.865,1.339-1.149
		c0.538-0.284,1.124-0.425,1.759-0.425h0.914v1.739H453.045z"/>
	<path fill="#F16529" d="M464.852,20.389l-0.863-1.295c-0.355,0.465-0.8,0.84-1.333,1.124s-1.117,0.425-1.752,0.425h-0.394
		c-0.524,0-1.02-0.1-1.485-0.298s-0.872-0.472-1.219-0.819s-0.62-0.753-0.819-1.219c-0.198-0.465-0.298-0.96-0.298-1.485v-0.127
		c0-0.525,0.1-1.02,0.298-1.485c0.199-0.465,0.473-0.872,0.819-1.219s0.753-0.62,1.219-0.819s0.961-0.298,1.485-0.298h3.301v-2.006
		c0-0.313-0.06-0.607-0.178-0.882s-0.279-0.514-0.482-0.717s-0.442-0.364-0.717-0.482c-0.275-0.119-0.569-0.178-0.883-0.178h-0.914
		c-0.313,0-0.607,0.059-0.883,0.178c-0.274,0.119-0.514,0.279-0.717,0.482s-0.364,0.442-0.482,0.717s-0.178,0.569-0.178,0.882v0.47
		l-1.562-0.254v-0.127c0-0.525,0.1-1.02,0.298-1.485c0.199-0.465,0.473-0.872,0.819-1.219s0.753-0.62,1.219-0.819
		s0.961-0.298,1.485-0.298h0.914c0.524,0,1.02,0.1,1.485,0.298s0.872,0.472,1.219,0.819s0.62,0.753,0.819,1.219
		c0.198,0.465,0.298,0.96,0.298,1.485v9.433H464.852z M463.811,14.092h-3.301c-0.313,0-0.607,0.059-0.883,0.178
		c-0.274,0.119-0.514,0.281-0.717,0.489s-0.364,0.449-0.482,0.724s-0.178,0.569-0.178,0.882v0.546c0,0.313,0.06,0.607,0.178,0.882
		s0.279,0.514,0.482,0.717s0.442,0.364,0.717,0.482c0.275,0.119,0.569,0.178,0.883,0.178h1.041c0.313,0,0.607-0.059,0.883-0.178
		c0.274-0.119,0.514-0.279,0.717-0.482s0.364-0.442,0.482-0.717s0.178-0.569,0.178-0.882V14.092z"/>
	<path fill="#F16529" d="M473.23,20.389c-0.474,0-0.92-0.089-1.34-0.267c-0.418-0.178-0.782-0.423-1.092-0.736
		c-0.309-0.313-0.554-0.677-0.736-1.092c-0.182-0.415-0.272-0.859-0.272-1.333V8.874h-2.336V7.389h2.336V4.266l1.562-0.254v3.377
		h3.301v1.485h-3.301v8.163c0,0.262,0.049,0.506,0.146,0.73c0.097,0.224,0.23,0.421,0.399,0.59s0.368,0.303,0.597,0.4
		s0.474,0.146,0.736,0.146h1.422v1.485H473.23z"/>
	<path fill="#F16529" d="M477.915,4.266V2.184h1.815v2.082H477.915z M478.042,20.389v-13h1.562v13H478.042z"/>
	<path fill="#F16529" d="M491.633,18.307c-0.199,0.465-0.473,0.872-0.819,1.219s-0.753,0.62-1.219,0.819s-0.961,0.298-1.485,0.298
		h-1.041c-0.524,0-1.02-0.1-1.485-0.298s-0.872-0.472-1.219-0.819s-0.62-0.753-0.819-1.219c-0.198-0.465-0.298-0.96-0.298-1.485
		v-5.865c0-0.525,0.1-1.02,0.298-1.485c0.199-0.465,0.473-0.872,0.819-1.219s0.753-0.62,1.219-0.819s0.961-0.298,1.485-0.298h1.041
		c0.524,0,1.02,0.1,1.485,0.298s0.872,0.472,1.219,0.819s0.62,0.753,0.819,1.219c0.198,0.465,0.298,0.96,0.298,1.485v5.865
		C491.931,17.346,491.831,17.841,491.633,18.307z M490.369,10.867c0-0.313-0.06-0.607-0.178-0.882s-0.279-0.514-0.482-0.717
		s-0.442-0.364-0.717-0.482c-0.275-0.119-0.569-0.178-0.883-0.178h-1.041c-0.313,0-0.607,0.059-0.883,0.178
		c-0.274,0.119-0.514,0.279-0.717,0.482s-0.364,0.442-0.482,0.717s-0.178,0.569-0.178,0.882v6.043c0,0.313,0.06,0.607,0.178,0.882
		s0.279,0.514,0.482,0.717s0.442,0.364,0.717,0.482c0.275,0.119,0.569,0.178,0.883,0.178h1.041c0.313,0,0.607-0.059,0.883-0.178
		c0.274-0.119,0.514-0.279,0.717-0.482s0.364-0.442,0.482-0.717s0.178-0.569,0.178-0.882V10.867z"/>
	<path fill="#F16529" d="M502.176,20.389v-9.521c0-0.313-0.06-0.607-0.178-0.882s-0.279-0.514-0.482-0.717s-0.442-0.364-0.717-0.482
		c-0.275-0.119-0.569-0.178-0.883-0.178h-1.041c-0.313,0-0.607,0.059-0.883,0.178c-0.274,0.119-0.514,0.279-0.717,0.482
		s-0.364,0.442-0.482,0.717s-0.178,0.569-0.178,0.882v9.521h-1.562v-13h0.521l0.851,1.32c0.355-0.482,0.802-0.865,1.339-1.149
		c0.538-0.284,1.124-0.425,1.759-0.425h0.394c0.524,0,1.02,0.1,1.485,0.298s0.872,0.472,1.219,0.819s0.62,0.753,0.819,1.219
		c0.198,0.465,0.298,0.96,0.298,1.485v9.433H502.176z"/>
	<path fill="#F16529" d="M512.421,12.797c0,1.405-0.136,2.717-0.406,3.936s-0.647,2.357-1.13,3.415s-1.056,2.038-1.721,2.939
		c-0.664,0.901-1.39,1.737-2.177,2.507l-0.914-0.914c0.702-0.719,1.346-1.515,1.93-2.387s1.088-1.809,1.511-2.812
		s0.753-2.063,0.99-3.18s0.355-2.285,0.355-3.504s-0.118-2.387-0.355-3.504s-0.567-2.177-0.99-3.18s-0.927-1.94-1.511-2.812
		s-1.228-1.667-1.93-2.387L506.987,0c0.787,0.77,1.513,1.606,2.177,2.507c0.665,0.901,1.238,1.879,1.721,2.933
		s0.859,2.19,1.13,3.409S512.421,11.383,512.421,12.797z"/>
</g>
</svg>