<?xml version="1.0" encoding="utf-8"?>
<!-- Generator: Adobe Illustrator 17.0.0, SVG Export Plug-In . SVG Version: 6.00 Build 0)  -->
<!DOCTYPE svg PUBLIC "-//W3C//DTD SVG 1.1//EN" "http://www.w3.org/Graphics/SVG/1.1/DTD/svg11.dtd" [
	<!ENTITY ns_extend "http://ns.adobe.com/Extensibility/1.0/">
	<!ENTITY ns_ai "http://ns.adobe.com/AdobeIllustrator/10.0/">
	<!ENTITY ns_graphs "http://ns.adobe.com/Graphs/1.0/">
	<!ENTITY ns_vars "http://ns.adobe.com/Variables/1.0/">
	<!ENTITY ns_imrep "http://ns.adobe.com/ImageReplacement/1.0/">
	<!ENTITY ns_sfw "http://ns.adobe.com/SaveForWeb/1.0/">
	<!ENTITY ns_custom "http://ns.adobe.com/GenericCustomNamespace/1.0/">
	<!ENTITY ns_adobe_xpath "http://ns.adobe.com/XPath/1.0/">
]>
<svg version="1.1" id="Capa_1" xmlns:x="&ns_extend;" xmlns:i="&ns_ai;" xmlns:graph="&ns_graphs;"
	 xmlns="http://www.w3.org/2000/svg" xmlns:xlink="http://www.w3.org/1999/xlink" x="0px" y="0px" width="156.742px"
	 height="41.169px" viewBox="0 0 156.742 41.169" enable-background="new 0 0 156.742 41.169" xml:space="preserve">
<metadata><?xpacket begin="﻿" id="W5M0MpCehiHzreSzNTczkc9d"?>
<x:xmpmeta xmlns:x="adobe:ns:meta/" x:xmptk="Adobe XMP Core 5.5-c014 79.151739, 2013/04/03-12:12:15        ">
   <rdf:RDF xmlns:rdf="http://www.w3.org/1999/02/22-rdf-syntax-ns#">
      <rdf:Description rdf:about=""
            xmlns:dc="http://purl.org/dc/elements/1.1/"
            xmlns:xmp="http://ns.adobe.com/xap/1.0/"
            xmlns:xmpGImg="http://ns.adobe.com/xap/1.0/g/img/"
            xmlns:xmpMM="http://ns.adobe.com/xap/1.0/mm/"
            xmlns:stRef="http://ns.adobe.com/xap/1.0/sType/ResourceRef#"
            xmlns:stEvt="http://ns.adobe.com/xap/1.0/sType/ResourceEvent#"
            xmlns:illustrator="http://ns.adobe.com/illustrator/1.0/"
            xmlns:xmpTPg="http://ns.adobe.com/xap/1.0/t/pg/"
            xmlns:stDim="http://ns.adobe.com/xap/1.0/sType/Dimensions#"
            xmlns:xmpG="http://ns.adobe.com/xap/1.0/g/"
            xmlns:pdf="http://ns.adobe.com/pdf/1.3/">
         <dc:format>image/svg+xml</dc:format>
         <dc:title>
            <rdf:Alt>
               <rdf:li xml:lang="x-default">Imprimir</rdf:li>
            </rdf:Alt>
         </dc:title>
         <xmp:MetadataDate>2017-10-11T11:08:20-05:00</xmp:MetadataDate>
         <xmp:ModifyDate>2017-10-11T11:08:20-05:00</xmp:ModifyDate>
         <xmp:CreateDate>2017-10-11T11:08:20-05:00</xmp:CreateDate>
         <xmp:CreatorTool>Adobe Illustrator CC (Windows)</xmp:CreatorTool>
         <xmp:Thumbnails>
            <rdf:Alt>
               <rdf:li rdf:parseType="Resource">
                  <xmpGImg:width>256</xmpGImg:width>
                  <xmpGImg:height>68</xmpGImg:height>
                  <xmpGImg:format>JPEG</xmpGImg:format>
                  <xmpGImg:image>/9j/4AAQSkZJRgABAgEASABIAAD/7QAsUGhvdG9zaG9wIDMuMAA4QklNA+0AAAAAABAASAAAAAEA&#xA;AQBIAAAAAQAB/+4ADkFkb2JlAGTAAAAAAf/bAIQABgQEBAUEBgUFBgkGBQYJCwgGBggLDAoKCwoK&#xA;DBAMDAwMDAwQDA4PEA8ODBMTFBQTExwbGxscHx8fHx8fHx8fHwEHBwcNDA0YEBAYGhURFRofHx8f&#xA;Hx8fHx8fHx8fHx8fHx8fHx8fHx8fHx8fHx8fHx8fHx8fHx8fHx8fHx8fHx8f/8AAEQgARAEAAwER&#xA;AAIRAQMRAf/EAaIAAAAHAQEBAQEAAAAAAAAAAAQFAwIGAQAHCAkKCwEAAgIDAQEBAQEAAAAAAAAA&#xA;AQACAwQFBgcICQoLEAACAQMDAgQCBgcDBAIGAnMBAgMRBAAFIRIxQVEGE2EicYEUMpGhBxWxQiPB&#xA;UtHhMxZi8CRygvElQzRTkqKyY3PCNUQnk6OzNhdUZHTD0uIIJoMJChgZhJRFRqS0VtNVKBry4/PE&#xA;1OT0ZXWFlaW1xdXl9WZ2hpamtsbW5vY3R1dnd4eXp7fH1+f3OEhYaHiImKi4yNjo+Ck5SVlpeYmZ&#xA;qbnJ2en5KjpKWmp6ipqqusra6voRAAICAQIDBQUEBQYECAMDbQEAAhEDBCESMUEFURNhIgZxgZEy&#xA;obHwFMHR4SNCFVJicvEzJDRDghaSUyWiY7LCB3PSNeJEgxdUkwgJChgZJjZFGidkdFU38qOzwygp&#xA;0+PzhJSktMTU5PRldYWVpbXF1eX1RlZmdoaWprbG1ub2R1dnd4eXp7fH1+f3OEhYaHiImKi4yNjo&#xA;+DlJWWl5iZmpucnZ6fkqOkpaanqKmqq6ytrq+v/aAAwDAQACEQMRAD8ATzmH012KuxV2KuxV2Kux&#xA;V2KuxV2KuxV2KuxV2KuxV2KuxV2KuxV2KuxV2KuxV2KuxV2KuxV2KuxV2KuxV2KuxV2KuxV2KuxV&#xA;2KuxV2KuxV2KuxV2KuxV2KuxV2KuxV2KuxV2KuxV2KuxV2KuxV2KuxV2KuxV2KuxV2KuxV2KuxV2&#xA;KuxV2KpnpXlrXdWUtp9lJPGDxMgoqV8ObFV/HLceGc/pDi59ZixfXIBbqvl3W9J4nULR4FY0VzRk&#xA;J8OSkrX6cGTDOH1BODWYs30SBS7K3JdirsVdiqZaT5d1vVw5060e4WM0dxRVBO9OTFRXLMeGc/pF&#xA;uNqNZiw/XKrXT+WNfgguJ5bKRYbVitxJsVQgA0JB8GGE4JgEkcmMddhkQBIXLkleVOW7FUdqWiat&#xA;piwtf2r24nBMJenxBaVp/wAEMnPFKPMU0YdTjy3wG65oHIN6Y33l3W7Ca3gvLOSGW6bhbowFXYEC&#xA;g38WGWSwyjQI5uNi1eLICYyBEebU/l/WoNQi06a0kS+nAMMBA5MCSBT/AIE4nDIHhI3THV4pQMxI&#xA;cI6oe/0+8sLlrW8iaC4ShaNuoqKjIzgYmjzbMWWOSPFE2Flra3F3cR21tGZZ5TxjjXqT7YIxJNBO&#xA;TJGETKRoBffWF5YXLW15E0M6gFo26gEVGGcDE0eaMWWOSPFE2EPkWx2KovTtJ1HUpWisLdriRF5u&#xA;qdQtaV/HJwxylsBbTm1EMQuZoIZ0eN2RxxdCVYHsRscgQ2ggiwtxS7FXYq7FXYq7FXYq7FXYq7FV&#xA;ewtfrd9bWvLj9YlSLl4c2C1/HDCNkBryz4ImXcLeofmH5hu/Ldvp+i6IRaJ6XJnUAsEU8VUVB6kE&#xA;seubXV5jjAjDZ5jsnSR1Jlly+rdjrfmPJeeXZ9N1e1+vXMwZRPVYwAR8LEBftI2+wzH/ADtwMZCy&#xA;547GEMwyY5cMR05/gFS8peQhq2nvq2pXYsNLQkCQ0Bfjsx5N8KqDtXxyOn0vGOKRqLZr+1PCn4cI&#xA;8U0RrH5fWP6Jk1Ty/qH6QghBaWM8WNF3biy03A34kZPJoxw8UDbTp+15+IMeaPAT+PwWtB/L2y1P&#xA;yzHrM2ofVKs5mLgemkcbkMa7b0GDFpBKHETTLVdrSxZzjEeLu77LtX8h6SNAk1nQ9Ra8hgBMiuBu&#xA;FNGoQFII60IxyaSPBxQNo0/auTxhiyw4SWY6Fa6TZeRHS01UxWrVeXUEoGjdyvICncH4czcUYxxb&#xA;S273T6ueSeq9ULl/N72OJbahN5L1y6j1iWazW5nUo0cbCcKVAkaRl5/EKdDmMIk4pHi2s/F2JnCO&#xA;pxxOMCXDHqdue1ctkt0TyXocmhpq+uasLSKY0iiiKlh1py+1uaVoB0yrFpoGPFOVOVqe0coy+Hih&#xA;xEd6H83+TLfRrK21Kwu/rWn3RVUZgOVWUupBGxBUZHUaYQAkDYLPs/tI5pnHOPDOLPfPGh6NqNvp&#xA;U2raiun2tsjqOgeRpRHQLXw4b7Zn6nFGQiZGgHRdm6nLjlMY4ccj9lWwHzj5KXRIYL6zufrem3BC&#xA;pJtUEjku6/CwYDYjMDU6XwwCDcS77s7tPxyYSHDMMj872Wo2vmHy39d1F9Q53XwF44ouFJIq09JV&#xA;rWvfMjUxkJws3v8Aqdd2bkhLFl4Y8Hp7yeku9U84RTy/mbo8cE5tpmgjCTqquVPqS7hXBU/Th1IJ&#xA;zxrbb9bHs6QGiyEixxHb4RSXWvLGp6v5+l0prs3ExRHmvJEVeMYQEkpGFXaoAynLglPNw3fm5ul1&#xA;sMWkGThoWaHnfmnel+SvLmn+YrZLPWPV1OzcSTWj8CWAB5AcaUI603y/HpoRmKl6g4Go7SzZMJ4s&#xA;dQl1SvzHoP6c/MSexNwlrGY43kmcjZVjXZQSOTEnplWfFx5yLpytDqvA0QlXFufvV0/Lvyvevc2m&#xA;lay82oWwPNGCsoYbb0A2rtUE5IaPHKxGW4YS7Yz46lkx1ApJ5Q8iza5dXX1mb6rZ2LcLiUAElxX4&#xA;VrttSpOY+n0pmTewDn9odpjBGPCOKUuTNfJfl3QrDUbq70fVFv4fS9GZKqWRuYINVpseJptmfpcM&#xA;IyJjK3Rdp6zLkgI5YcBuw8p1L/jo3X/GaT/iRzUT+ovW4Poj7ghsi2uxV2KuxV2KuxV2KuxV2Kux&#xA;VXsbo2l7b3QHIwSpKF8eDBqfhhjKiC15YcUTHvFPUvPXl6bzZaWGtaCyXNIyhjLKpKk1FCxChlNQ&#xA;wJza6rCcwEobvL9masaSUsWX07pLJ5B0/SfK91fa85S+WpgELjY0oke4IYs3WnbKvykYYyZ83LHa&#xA;08uojDCPR1sfMprplnJ5h/K2PTdOkX65btxkiJ41ZJTJxJ/ylIIyyEfEwcMebjZ8g0+u45j0n9VN&#xA;+VtKvPK3lnVbrWuMIlHJYCwY7KQBsStXLUph0+M4scjJhr88dVnhHFvXX8dyEhJH5LTEGh50297t&#xA;RlY/xY/jq5Ev+NIfj+BR8pE/8q01z2e4p/yIjx0/9xL4/cntD/Hsf+b/ALoqmmf+Sgvv9dv+TqYw&#xA;/wAWK5/+NGP46Fry/wD+Sn1X/jJL+qPHD/i8l1f/ABoQ+H6Udpvl2z03yfYajpujxa1ql2sbyGaj&#xA;hPUXkSAdqIaLQZOGERxiUY8Ui0ZtXLJqJQnkOOEb5eX6+a38ylvD5M083UaR3IniNxHF/do3pSAq&#xA;u52BNOuHW34QvnaOxjH81LhNx4TV8+YRf5keW9W1nT9KfTo/Xe2DCSEMqtSVUo3xECgKfjktZhlM&#xA;R4ejDsjWY8M58Zri6+6/1pZ51jOleQtN0m6ZTe1jXgDWnAFmI9lqFyvUjgwiJ5t/Zp8XWTyR+ndM&#xA;PzK/5SHyv/zFN/ychyet+uHv/U09jf3Wb+r+iSn5l/8AJraH/wAYo/8Ak5Lgz/4xH8d7LRf4hk95&#xA;+6KIsby3t/zbvklYKbmzWGKvd6RvT7kOSjIDUHzH6mueMy7PiR0lf3j9KWaf5K1238/SajKnCwS5&#xA;luBdF1+NZSxVQK8qnlQ5XDTTGbi6W5OftLFLSCA+vhAr3IoeX9M1n8yb9NRAkit7aOVbepHNuKLv&#xA;TqFr0yRxRnnPF0DVHVTw6GJhsTIi/mnfl5NQTVL2I6Lb6TpsNY4HjVRJKwYUaq0BXiK9PpzIwiXE&#xA;fSIxcDWmBxxPiSyTPPuCT+SiL3S/NOihwmoyz3JNdj++Qxg7dlZcx9N6ozj1sud2j6J4cv8AAIx+&#xA;zdT/AC48q6zo9xeXGox/VxKgjjiLKxbi1S3wk7Dth0WCUCTLZe2ddizRjGBut3mepf8AHRuv+M0n&#xA;/Ejmqn9ReowfRH3BDZFtdirsVdirsVdirsVdirsVdirsVR2na5rGm8vqF5LbBvtKjEKT4lehycMs&#xA;o8jTRm02PL9cQVuoavqmpOHv7qW5K/Z9RiQPkOgxnklLmbTh0+PGPRERWWGp6hp83rWNzJbSkULR&#xA;MVqPA06j54ITMTYNJy4YZBUwCPNV1LW9X1Mr9fu5bkJuquxKg+IXphnllLmbY4dNjxfREBaNX1Qa&#xA;edNF1L9QJqbXkfTry5fZ6fa3x8SVcN7J/L4+Pjocff1ag1XUrezksobmSO0mJMsCsQjFgAaj3AxG&#xA;SQFA7LPTwlISIBkOrk1fU0sG09LqRbFzVrYMfTJJruvTqMRklVXsp08DPjIHF39XRavqcVi9hFdS&#xA;JZSEmS3DEIxNK1X6MRkkBV7LLTwMhMgcQ6q1j5j16wtja2d/PBbkk+mjkAE9aeH0YY5pxFAlhl0e&#xA;LJLilEEqc2s6tNafU5ryaS1ry9F3LLUtyrQ/5RrgOWRFE7Mo6bHGXEIgS71f/FHmL1o5/wBJXHqx&#xA;KUjf1GqFNCV69NhtkvHnd2WH5LDRHBGj5IO+1G+v5zPezvcTHbnIxYgeAr0GQnMyNk224sMMYqIA&#xA;Ctea7rN5LDNd3s08tu3KB3csUaoNVJ6fZGGWWUuZ5MMelxwBEYgA83Ta3q817HfS3kr3kIAiuGcl&#xA;1AJIo3+yOJyyJsndMdNjjEwERwnoo3WoX11dfW7md5brY+szEvVenxddsEpkmyd2cMUIR4YgCPcj&#xA;LjzT5juBEJtSuHEJDR1kbZl6N7keJyZzzPMlojocMbqEd/JDnWdV+vjUPrcv14Upc8z6mwp9rr02&#xA;yPiSvivdsGnx8HBwjh7uiJl80+Y5bhbiTUrgzICEfmRxDdaAbCtMkc8ybstcdDhA4RCNe5CRarqU&#xA;V8b+K5kS9YlmuFYhyT1qR1r3yAySBu9204IGHAQOHuRL+Z/ML3X1ttRnNxxMYk5moQkEqPAEqMn4&#xA;87uzbWNDhEeHgjXuS13Z3Z3JZ2JLMepJ3JyolyQKFBrFLsVdirsVdirsVdirsVdirsVdirsVdirs&#xA;VdirsVdirsVdirsVdirsVdirsVdirsVdirsVdirsVdirsVdirsVdirsVdirsVdirsVdirsVdirsV&#xA;dirsVdirsVdirsVdirsVdirsVdirsVdirsVdirsVdirsVdirsVdirsVdirsVdir6Y/3D/wDFX/CZ&#xA;0vpfNvX5tf7hv+Kv+Ex9K+vzd/uG/wCKv+Ex9K+vzcf0N/xV/wAJj6U+vza/3C/8Vf8AJPH0o9fm&#xA;7/cL/wAV/wDJPH0+SfX5tf7hf+K/+SePp8kevzd/uF/4r/5J4+nyX1+bX+4X/iv/AJJ4+lPr83f7&#xA;hf8Aiv8A5J4+lHr83f7hf+K/+SePpT6/Nr/cL/xX/wAk8fSj1+bv9wv/ABX/AMk8fSn1+bX+4T/i&#xA;v/knj6V9fm7/AHCf8V/8k8fT5I9fm7/cJ/kf8k8Hp8k+vza/3Cf5H/JPD6fJHr83f7hP8j/knj6U&#xA;+vza/wBwn+R/yTx9K+vzd/uE/wAj/knj6V9fm1/uE/yP+SePpX1+bv8AcH/kf8k8fSj1+bX+4P8A&#xA;yP8Aknj6U+vzd/uD/wAj/knj6V9fm7/cH/kf8k8Hp8l9fm7/AHB/5P8AyTx9Pkvr82j+g/8AJ/5J&#xA;4fSvr82v9wf+T/yTx9K+vzcf0H/k/wDJPH0r6/Nr/cF/k/8AJPH0r6/N3+4L/J/5J4+lfX5tf7gv&#xA;8n/knj6V9fm//9k=</xmpGImg:image>
               </rdf:li>
            </rdf:Alt>
         </xmp:Thumbnails>
         <xmpMM:InstanceID>xmp.iid:3f61e841-d085-d349-a09e-ffe9bb2738a3</xmpMM:InstanceID>
         <xmpMM:DocumentID>xmp.did:3f61e841-d085-d349-a09e-ffe9bb2738a3</xmpMM:DocumentID>
         <xmpMM:OriginalDocumentID>uuid:5D20892493BFDB11914A8590D31508C8</xmpMM:OriginalDocumentID>
         <xmpMM:RenditionClass>proof:pdf</xmpMM:RenditionClass>
         <xmpMM:DerivedFrom rdf:parseType="Resource">
            <stRef:instanceID>xmp.iid:833898f5-171e-4b40-a91b-21c162e3ea01</stRef:instanceID>
            <stRef:documentID>xmp.did:833898f5-171e-4b40-a91b-21c162e3ea01</stRef:documentID>
            <stRef:originalDocumentID>uuid:5D20892493BFDB11914A8590D31508C8</stRef:originalDocumentID>
            <stRef:renditionClass>proof:pdf</stRef:renditionClass>
         </xmpMM:DerivedFrom>
         <xmpMM:History>
            <rdf:Seq>
               <rdf:li rdf:parseType="Resource">
                  <stEvt:action>saved</stEvt:action>
                  <stEvt:instanceID>xmp.iid:916f0ef3-b64e-1a4c-910b-87ef8d85b3f4</stEvt:instanceID>
                  <stEvt:when>2017-10-10T18:01:15-05:00</stEvt:when>
                  <stEvt:softwareAgent>Adobe Illustrator CC (Windows)</stEvt:softwareAgent>
                  <stEvt:changed>/</stEvt:changed>
               </rdf:li>
               <rdf:li rdf:parseType="Resource">
                  <stEvt:action>saved</stEvt:action>
                  <stEvt:instanceID>xmp.iid:3f61e841-d085-d349-a09e-ffe9bb2738a3</stEvt:instanceID>
                  <stEvt:when>2017-10-11T11:08:20-05:00</stEvt:when>
                  <stEvt:softwareAgent>Adobe Illustrator CC (Windows)</stEvt:softwareAgent>
                  <stEvt:changed>/</stEvt:changed>
               </rdf:li>
            </rdf:Seq>
         </xmpMM:History>
         <illustrator:StartupProfile>Print</illustrator:StartupProfile>
         <xmpTPg:HasVisibleOverprint>False</xmpTPg:HasVisibleOverprint>
         <xmpTPg:HasVisibleTransparency>False</xmpTPg:HasVisibleTransparency>
         <xmpTPg:NPages>1</xmpTPg:NPages>
         <xmpTPg:MaxPageSize rdf:parseType="Resource">
            <stDim:w>156.742004</stDim:w>
            <stDim:h>41.169006</stDim:h>
            <stDim:unit>Pixels</stDim:unit>
         </xmpTPg:MaxPageSize>
         <xmpTPg:PlateNames>
            <rdf:Seq>
               <rdf:li>Cyan</rdf:li>
               <rdf:li>Magenta</rdf:li>
               <rdf:li>Yellow</rdf:li>
            </rdf:Seq>
         </xmpTPg:PlateNames>
         <xmpTPg:SwatchGroups>
            <rdf:Seq>
               <rdf:li rdf:parseType="Resource">
                  <xmpG:groupName>Grupo de muestras por defecto</xmpG:groupName>
                  <xmpG:groupType>0</xmpG:groupType>
               </rdf:li>
            </rdf:Seq>
         </xmpTPg:SwatchGroups>
         <pdf:Producer>Adobe PDF library 10.01</pdf:Producer>
      </rdf:Description>
   </rdf:RDF>
</x:xmpmeta>
                                                                                                    
                                                                                                    
                                                                                                    
                                                                                                    
                                                                                                    
                                                                                                    
                                                                                                    
                                                                                                    
                                                                                                    
                                                                                                    
                                                                                                    
                                                                                                    
                                                                                                    
                                                                                                    
                                                                                                    
                                                                                                    
                                                                                                    
                                                                                                    
                                                                                                    
                                                                                                    
                           
<?xpacket end="w"?>
	</metadata>
<g>
	<linearGradient id="SVGID_1_" gradientUnits="userSpaceOnUse" x1="-3.051758e-005" y1="21.551" x2="156.742" y2="21.551">
		<stop  offset="0" style="stop-color:#F4F5F5"/>
		<stop  offset="1" style="stop-color:#E7E7E7"/>
	</linearGradient>
	<rect x="0" y="1.933" fill="url(#SVGID_1_)" width="156.742" height="39.236"/>
	<rect x="0" fill="#DB5940" width="156.742" height="39.237"/>
	<g>
		<g>
			<linearGradient id="SVGID_2_" gradientUnits="userSpaceOnUse" x1="28.936" y1="19.4725" x2="38.819" y2="19.4725">
				<stop  offset="0" style="stop-color:#F4F5F5"/>
				<stop  offset="1" style="stop-color:#E7E7E7"/>
			</linearGradient>
			<path fill="url(#SVGID_2_)" d="M36.598,20.974l2.221,0.704c-0.342,1.238-0.906,2.158-1.699,2.759
				c-0.791,0.601-1.797,0.901-3.014,0.901c-1.506,0-2.744-0.515-3.715-1.544s-1.455-2.437-1.455-4.222
				c0-1.888,0.488-3.354,1.463-4.399c0.975-1.044,2.258-1.566,3.846-1.566c1.389,0,2.516,0.41,3.383,1.23
				c0.516,0.484,0.902,1.182,1.16,2.089l-2.268,0.542c-0.135-0.588-0.414-1.053-0.84-1.393c-0.426-0.341-0.943-0.511-1.551-0.511
				c-0.842,0-1.523,0.302-2.047,0.905c-0.523,0.604-0.785,1.581-0.785,2.933c0,1.435,0.258,2.456,0.773,3.064
				c0.516,0.609,1.186,0.913,2.012,0.913c0.609,0,1.133-0.193,1.57-0.58C36.092,22.413,36.407,21.804,36.598,20.974z"/>
			<linearGradient id="SVGID_3_" gradientUnits="userSpaceOnUse" x1="40.266" y1="21.0355" x2="48.747" y2="21.0355">
				<stop  offset="0" style="stop-color:#F4F5F5"/>
				<stop  offset="1" style="stop-color:#E7E7E7"/>
			</linearGradient>
			<path fill="url(#SVGID_3_)" d="M40.266,20.919c0-0.722,0.178-1.421,0.533-2.097s0.859-1.192,1.514-1.548
				c0.652-0.356,1.381-0.534,2.186-0.534c1.244,0,2.262,0.404,3.057,1.211c0.795,0.808,1.191,1.828,1.191,3.061
				c0,1.244-0.4,2.274-1.203,3.092c-0.803,0.818-1.813,1.227-3.029,1.227c-0.754,0-1.473-0.17-2.156-0.511
				c-0.684-0.34-1.203-0.84-1.559-1.497C40.444,22.664,40.266,21.863,40.266,20.919z M42.495,21.035c0,0.815,0.193,1.439,0.58,1.873
				s0.863,0.649,1.432,0.649c0.566,0,1.043-0.216,1.428-0.649s0.576-1.063,0.576-1.889c0-0.805-0.191-1.424-0.576-1.857
				s-0.861-0.649-1.428-0.649c-0.568,0-1.045,0.217-1.432,0.649C42.688,19.596,42.495,20.22,42.495,21.035z"/>
			<linearGradient id="SVGID_4_" gradientUnits="userSpaceOnUse" x1="50.433" y1="20.9425" x2="57.926" y2="20.9425">
				<stop  offset="0" style="stop-color:#F4F5F5"/>
				<stop  offset="1" style="stop-color:#E7E7E7"/>
			</linearGradient>
			<path fill="url(#SVGID_4_)" d="M57.926,25.145H55.75V20.95c0-0.888-0.045-1.461-0.139-1.722s-0.244-0.463-0.453-0.607
				s-0.461-0.217-0.754-0.217c-0.377,0-0.715,0.104-1.014,0.31s-0.504,0.479-0.615,0.82c-0.111,0.34-0.166,0.97-0.166,1.888v3.723
				h-2.176v-8.219h2.02v1.207c0.719-0.928,1.621-1.393,2.709-1.393c0.48,0,0.918,0.087,1.316,0.26
				c0.396,0.173,0.697,0.393,0.9,0.661c0.205,0.269,0.346,0.573,0.426,0.913c0.08,0.341,0.121,0.828,0.121,1.463v5.108H57.926z"/>
			<linearGradient id="SVGID_5_" gradientUnits="userSpaceOnUse" x1="59.178" y1="19.3765" x2="64.735" y2="19.3765">
				<stop  offset="0" style="stop-color:#F4F5F5"/>
				<stop  offset="1" style="stop-color:#E7E7E7"/>
			</linearGradient>
			<path fill="url(#SVGID_5_)" d="M59.178,16.926h1.207v-0.619c0-0.691,0.074-1.207,0.221-1.548c0.148-0.34,0.418-0.617,0.813-0.831
				c0.395-0.215,0.895-0.321,1.498-0.321c0.619,0,1.225,0.093,1.818,0.278l-0.293,1.517c-0.346-0.082-0.68-0.124-0.998-0.124
				c-0.316,0-0.541,0.074-0.678,0.221c-0.137,0.147-0.205,0.43-0.205,0.848v0.58h1.625v1.711h-1.625v6.508h-2.176v-6.508h-1.207
				C59.178,18.638,59.178,16.926,59.178,16.926z"/>
			<linearGradient id="SVGID_6_" gradientUnits="userSpaceOnUse" x1="65.409" y1="19.4725" x2="67.583" y2="19.4725">
				<stop  offset="0" style="stop-color:#F4F5F5"/>
				<stop  offset="1" style="stop-color:#E7E7E7"/>
			</linearGradient>
			<path fill="url(#SVGID_6_)" d="M65.409,15.812V13.8h2.174v2.012H65.409z M65.409,25.145v-8.219h2.174v8.219H65.409z"/>
			<linearGradient id="SVGID_7_" gradientUnits="userSpaceOnUse" x1="69.241" y1="21.0365" x2="76.955" y2="21.0365">
				<stop  offset="0" style="stop-color:#F4F5F5"/>
				<stop  offset="1" style="stop-color:#E7E7E7"/>
			</linearGradient>
			<path fill="url(#SVGID_7_)" d="M71.436,19.434l-1.973-0.356c0.221-0.794,0.604-1.382,1.145-1.765
				c0.543-0.381,1.348-0.572,2.416-0.572c0.969,0,1.691,0.115,2.166,0.345s0.809,0.521,1.002,0.874s0.291,1.002,0.291,1.946
				l-0.023,2.538c0,0.723,0.035,1.255,0.104,1.599c0.07,0.343,0.201,0.711,0.391,1.103h-2.15c-0.057-0.145-0.127-0.358-0.209-0.643
				c-0.037-0.129-0.063-0.214-0.078-0.255c-0.371,0.361-0.768,0.632-1.191,0.813s-0.875,0.271-1.354,0.271
				c-0.848,0-1.514-0.229-2.002-0.688c-0.486-0.459-0.73-1.04-0.73-1.741c0-0.465,0.111-0.878,0.332-1.242
				c0.223-0.363,0.533-0.643,0.934-0.836c0.398-0.193,0.977-0.362,1.729-0.507c1.018-0.19,1.721-0.368,2.113-0.534v-0.216
				c0-0.418-0.104-0.717-0.309-0.895c-0.207-0.178-0.598-0.267-1.17-0.267c-0.387,0-0.688,0.076-0.904,0.229
				C71.746,18.784,71.571,19.052,71.436,19.434z M74.346,21.198c-0.279,0.093-0.719,0.203-1.322,0.332
				c-0.605,0.129-1,0.256-1.186,0.38c-0.283,0.201-0.426,0.456-0.426,0.766c0,0.305,0.113,0.567,0.342,0.789
				c0.227,0.223,0.516,0.333,0.865,0.333c0.393,0,0.768-0.129,1.123-0.387c0.264-0.196,0.436-0.436,0.518-0.72
				c0.057-0.186,0.086-0.539,0.086-1.061V21.198z"/>
			<linearGradient id="SVGID_8_" gradientUnits="userSpaceOnUse" x1="78.534" y1="19.565" x2="86.557" y2="19.565">
				<stop  offset="0" style="stop-color:#F4F5F5"/>
				<stop  offset="1" style="stop-color:#E7E7E7"/>
			</linearGradient>
			<path fill="url(#SVGID_8_)" d="M78.534,25.145V13.8h2.174v4.086c0.67-0.764,1.465-1.146,2.383-1.146
				c1.002,0,1.83,0.362,2.484,1.087c0.656,0.726,0.982,1.767,0.982,3.123c0,1.403-0.334,2.484-1.002,3.242
				c-0.668,0.759-1.479,1.138-2.434,1.138c-0.469,0-0.932-0.117-1.389-0.352c-0.457-0.235-0.85-0.582-1.18-1.041v1.207
				L78.534,25.145L78.534,25.145z M80.692,20.857c0,0.852,0.135,1.48,0.402,1.888c0.377,0.578,0.877,0.867,1.502,0.867
				c0.479,0,0.889-0.205,1.227-0.615s0.506-1.057,0.506-1.938c0-0.939-0.17-1.616-0.51-2.031c-0.342-0.415-0.777-0.623-1.309-0.623
				c-0.521,0-0.953,0.202-1.299,0.607S80.692,20.032,80.692,20.857z"/>
			<linearGradient id="SVGID_9_" gradientUnits="userSpaceOnUse" x1="88.307" y1="19.4725" x2="90.483" y2="19.4725">
				<stop  offset="0" style="stop-color:#F4F5F5"/>
				<stop  offset="1" style="stop-color:#E7E7E7"/>
			</linearGradient>
			<path fill="url(#SVGID_9_)" d="M88.307,15.812V13.8h2.176v2.012H88.307z M88.307,25.145v-8.219h2.176v8.219H88.307z"/>
			<linearGradient id="SVGID_10_" gradientUnits="userSpaceOnUse" x1="92.711" y1="19.4725" x2="94.885" y2="19.4725">
				<stop  offset="0" style="stop-color:#F4F5F5"/>
				<stop  offset="1" style="stop-color:#E7E7E7"/>
			</linearGradient>
			<path fill="url(#SVGID_10_)" d="M92.711,25.145V13.8h2.174v11.345H92.711z"/>
			<linearGradient id="SVGID_11_" gradientUnits="userSpaceOnUse" x1="97.114" y1="19.4725" x2="99.29" y2="19.4725">
				<stop  offset="0" style="stop-color:#F4F5F5"/>
				<stop  offset="1" style="stop-color:#E7E7E7"/>
			</linearGradient>
			<path fill="url(#SVGID_11_)" d="M97.114,15.812V13.8h2.176v2.012H97.114z M97.114,25.145v-8.219h2.176v8.219H97.114z"/>
			<linearGradient id="SVGID_12_" gradientUnits="userSpaceOnUse" x1="101.028" y1="19.5655" x2="109.055" y2="19.5655">
				<stop  offset="0" style="stop-color:#F4F5F5"/>
				<stop  offset="1" style="stop-color:#E7E7E7"/>
			</linearGradient>
			<path fill="url(#SVGID_12_)" d="M109.055,25.145h-2.02v-1.207c-0.336,0.47-0.732,0.819-1.188,1.049
				c-0.457,0.229-0.918,0.344-1.383,0.344c-0.943,0-1.752-0.38-2.426-1.142c-0.674-0.761-1.01-1.822-1.01-3.185
				c0-1.393,0.328-2.451,0.982-3.177c0.656-0.725,1.484-1.087,2.484-1.087c0.918,0,1.713,0.382,2.385,1.146V13.8h2.174v11.345
				H109.055z M103.25,20.857c0,0.877,0.121,1.512,0.363,1.903c0.352,0.567,0.842,0.852,1.471,0.852c0.5,0,0.926-0.213,1.277-0.639
				s0.525-1.062,0.525-1.907c0-0.944-0.17-1.624-0.51-2.039s-0.777-0.623-1.309-0.623c-0.516,0-0.947,0.205-1.295,0.615
				C103.424,19.43,103.25,20.042,103.25,20.857z"/>
			<linearGradient id="SVGID_13_" gradientUnits="userSpaceOnUse" x1="110.628" y1="21.0365" x2="118.342" y2="21.0365">
				<stop  offset="0" style="stop-color:#F4F5F5"/>
				<stop  offset="1" style="stop-color:#E7E7E7"/>
			</linearGradient>
			<path fill="url(#SVGID_13_)" d="M112.823,19.434l-1.973-0.356c0.221-0.794,0.604-1.382,1.145-1.765
				c0.543-0.381,1.348-0.572,2.416-0.572c0.969,0,1.691,0.115,2.166,0.345s0.809,0.521,1.002,0.874s0.291,1.002,0.291,1.946
				l-0.023,2.538c0,0.723,0.035,1.255,0.104,1.599c0.07,0.343,0.201,0.711,0.391,1.103h-2.15c-0.057-0.145-0.127-0.358-0.209-0.643
				c-0.037-0.129-0.063-0.214-0.078-0.255c-0.371,0.361-0.768,0.632-1.191,0.813s-0.875,0.271-1.354,0.271
				c-0.848,0-1.514-0.229-2.002-0.688c-0.486-0.459-0.73-1.04-0.73-1.741c0-0.465,0.111-0.878,0.332-1.242
				c0.223-0.363,0.533-0.643,0.934-0.836c0.398-0.193,0.977-0.362,1.729-0.507c1.018-0.19,1.721-0.368,2.113-0.534v-0.216
				c0-0.418-0.104-0.717-0.309-0.895c-0.207-0.178-0.598-0.267-1.17-0.267c-0.387,0-0.688,0.076-0.904,0.229
				C113.133,18.784,112.957,19.052,112.823,19.434z M115.733,21.198c-0.279,0.093-0.719,0.203-1.322,0.332
				c-0.605,0.129-1,0.256-1.186,0.38c-0.283,0.201-0.426,0.456-0.426,0.766c0,0.305,0.113,0.567,0.342,0.789
				c0.227,0.223,0.516,0.333,0.865,0.333c0.393,0,0.768-0.129,1.123-0.387c0.264-0.196,0.436-0.436,0.518-0.72
				c0.057-0.186,0.086-0.539,0.086-1.061V21.198z"/>
			<linearGradient id="SVGID_14_" gradientUnits="userSpaceOnUse" x1="119.524" y1="19.5655" x2="127.549" y2="19.5655">
				<stop  offset="0" style="stop-color:#F4F5F5"/>
				<stop  offset="1" style="stop-color:#E7E7E7"/>
			</linearGradient>
			<path fill="url(#SVGID_14_)" d="M127.549,25.145h-2.02v-1.207c-0.334,0.47-0.73,0.819-1.188,1.049s-0.916,0.344-1.381,0.344
				c-0.945,0-1.754-0.38-2.426-1.142c-0.674-0.761-1.01-1.822-1.01-3.185c0-1.393,0.326-2.451,0.982-3.177
				c0.654-0.725,1.482-1.087,2.484-1.087c0.918,0,1.713,0.382,2.383,1.146V13.8h2.174v11.345H127.549z M121.746,20.857
				c0,0.877,0.121,1.512,0.363,1.903c0.352,0.567,0.84,0.852,1.471,0.852c0.5,0,0.926-0.213,1.277-0.639
				c0.35-0.426,0.525-1.062,0.525-1.907c0-0.944-0.17-1.624-0.512-2.039c-0.34-0.415-0.775-0.623-1.307-0.623
				c-0.516,0-0.949,0.205-1.297,0.615S121.746,20.042,121.746,20.857z"/>
		</g>
	</g>
</g>
</svg>
