<?xml version="1.0" encoding="utf-8"?>
<!-- Generator: Adobe Illustrator 17.0.0, SVG Export Plug-In . SVG Version: 6.00 Build 0)  -->
<!DOCTYPE svg PUBLIC "-//W3C//DTD SVG 1.1//EN" "http://www.w3.org/Graphics/SVG/1.1/DTD/svg11.dtd" [
	<!ENTITY ns_extend "http://ns.adobe.com/Extensibility/1.0/">
	<!ENTITY ns_ai "http://ns.adobe.com/AdobeIllustrator/10.0/">
	<!ENTITY ns_graphs "http://ns.adobe.com/Graphs/1.0/">
	<!ENTITY ns_vars "http://ns.adobe.com/Variables/1.0/">
	<!ENTITY ns_imrep "http://ns.adobe.com/ImageReplacement/1.0/">
	<!ENTITY ns_sfw "http://ns.adobe.com/SaveForWeb/1.0/">
	<!ENTITY ns_custom "http://ns.adobe.com/GenericCustomNamespace/1.0/">
	<!ENTITY ns_adobe_xpath "http://ns.adobe.com/XPath/1.0/">
]>
<svg version="1.1" id="Capa_1" xmlns:x="&ns_extend;" xmlns:i="&ns_ai;" xmlns:graph="&ns_graphs;"
	 xmlns="http://www.w3.org/2000/svg" xmlns:xlink="http://www.w3.org/1999/xlink" x="0px" y="0px" width="156.742px"
	 height="41.169px" viewBox="0 0 156.742 41.169" enable-background="new 0 0 156.742 41.169" xml:space="preserve">
<metadata><?xpacket begin="﻿" id="W5M0MpCehiHzreSzNTczkc9d"?>
<x:xmpmeta xmlns:x="adobe:ns:meta/" x:xmptk="Adobe XMP Core 5.5-c014 79.151739, 2013/04/03-12:12:15        ">
   <rdf:RDF xmlns:rdf="http://www.w3.org/1999/02/22-rdf-syntax-ns#">
      <rdf:Description rdf:about=""
            xmlns:dc="http://purl.org/dc/elements/1.1/"
            xmlns:xmp="http://ns.adobe.com/xap/1.0/"
            xmlns:xmpGImg="http://ns.adobe.com/xap/1.0/g/img/"
            xmlns:xmpMM="http://ns.adobe.com/xap/1.0/mm/"
            xmlns:stRef="http://ns.adobe.com/xap/1.0/sType/ResourceRef#"
            xmlns:stEvt="http://ns.adobe.com/xap/1.0/sType/ResourceEvent#"
            xmlns:illustrator="http://ns.adobe.com/illustrator/1.0/"
            xmlns:xmpTPg="http://ns.adobe.com/xap/1.0/t/pg/"
            xmlns:stDim="http://ns.adobe.com/xap/1.0/sType/Dimensions#"
            xmlns:xmpG="http://ns.adobe.com/xap/1.0/g/"
            xmlns:pdf="http://ns.adobe.com/pdf/1.3/">
         <dc:format>image/svg+xml</dc:format>
         <dc:title>
            <rdf:Alt>
               <rdf:li xml:lang="x-default">Imprimir</rdf:li>
            </rdf:Alt>
         </dc:title>
         <xmp:MetadataDate>2017-10-11T11:11:05-05:00</xmp:MetadataDate>
         <xmp:ModifyDate>2017-10-11T11:11:05-05:00</xmp:ModifyDate>
         <xmp:CreateDate>2017-10-11T11:11:05-05:00</xmp:CreateDate>
         <xmp:CreatorTool>Adobe Illustrator CC (Windows)</xmp:CreatorTool>
         <xmp:Thumbnails>
            <rdf:Alt>
               <rdf:li rdf:parseType="Resource">
                  <xmpGImg:width>256</xmpGImg:width>
                  <xmpGImg:height>68</xmpGImg:height>
                  <xmpGImg:format>JPEG</xmpGImg:format>
                  <xmpGImg:image>/9j/4AAQSkZJRgABAgEASABIAAD/7QAsUGhvdG9zaG9wIDMuMAA4QklNA+0AAAAAABAASAAAAAEA&#xA;AQBIAAAAAQAB/+4ADkFkb2JlAGTAAAAAAf/bAIQABgQEBAUEBgUFBgkGBQYJCwgGBggLDAoKCwoK&#xA;DBAMDAwMDAwQDA4PEA8ODBMTFBQTExwbGxscHx8fHx8fHx8fHwEHBwcNDA0YEBAYGhURFRofHx8f&#xA;Hx8fHx8fHx8fHx8fHx8fHx8fHx8fHx8fHx8fHx8fHx8fHx8fHx8fHx8fHx8f/8AAEQgARAEAAwER&#xA;AAIRAQMRAf/EAaIAAAAHAQEBAQEAAAAAAAAAAAQFAwIGAQAHCAkKCwEAAgIDAQEBAQEAAAAAAAAA&#xA;AQACAwQFBgcICQoLEAACAQMDAgQCBgcDBAIGAnMBAgMRBAAFIRIxQVEGE2EicYEUMpGhBxWxQiPB&#xA;UtHhMxZi8CRygvElQzRTkqKyY3PCNUQnk6OzNhdUZHTD0uIIJoMJChgZhJRFRqS0VtNVKBry4/PE&#xA;1OT0ZXWFlaW1xdXl9WZ2hpamtsbW5vY3R1dnd4eXp7fH1+f3OEhYaHiImKi4yNjo+Ck5SVlpeYmZ&#xA;qbnJ2en5KjpKWmp6ipqqusra6voRAAICAQIDBQUEBQYECAMDbQEAAhEDBCESMUEFURNhIgZxgZEy&#xA;obHwFMHR4SNCFVJicvEzJDRDghaSUyWiY7LCB3PSNeJEgxdUkwgJChgZJjZFGidkdFU38qOzwygp&#xA;0+PzhJSktMTU5PRldYWVpbXF1eX1RlZmdoaWprbG1ub2R1dnd4eXp7fH1+f3OEhYaHiImKi4yNjo&#xA;+DlJWWl5iZmpucnZ6fkqOkpaanqKmqq6ytrq+v/aAAwDAQACEQMRAD8ATzmH012KuxV2KuxV2Kux&#xA;V2KuxV2KuxV2KuxV2KuxV2KuxV2KuxV2KuxV2KuxV2KuxV2KuxV2KuxV2KuxV2KuxV2KuxV2KuxV&#xA;2KuxV2KuxV2KuxV2KuxV2KuxV2KuxV2KuxV2KuxV2KuxV2KuxV2KuxV2KuxV2KuxV2KuxV2KuxV2&#xA;KuxV2KuxV2KorTdL1DUrg29hA1xOFLmNOvEUBP45KEDI0BbVmzwxi5mgmZ8j+bR10ub7h/XLfyuT&#xA;ucX+U9P/ADwl2o6RqWnTJDfW7wSyDkiMNyK0qKe+VzxyiaIcnDqIZBcDYCPl8l+aIbZbmXT5EiYq&#xA;oJKhquQqgrXkKlh2yw6bIBdOPHtLAZcIkLS/UtK1HTJxb38DW8zKHCP1KkkV+8HKp45RNEU5GHPD&#xA;KLgbCEyLcjNN0jU9TleLT7d7iSNebqnULWlfvOThjlLYC2nNqIYhczQQsiPG7I44uhKsp7EbEZAh&#xA;tBBFhbil2KuxV2KuxVHahomq6dFDLe2zwR3ArCz0owoDt9+TnilHcjm0YtTjyEiJsjmgcg3uxV2K&#xA;uxV2KuxV2KuxV2KuxV2KuxV2KuxV2KuxV2KuxVm35Rf8pU//ADCyf8STM3s/+8+DpO3v7j/OH6WR&#xA;a3Z/mk2q3bWE/GwMrG2HKAUjr8P2hXp45k5I6jiPCdvg63T5NAMceMeqt/q5pHptpqFz53tIPNl7&#xA;6V3aiKW1rwYSOJlMcPwCnxVOUQjI5QMh3DnZZwjpZHTxuMrB57bGz8GQ+fXVtUsoYtXkguXmtkGn&#xA;LQrQzVExU7MQwHXwzJ1Z9QHFvtt8ebruyh6JEwBjUvV8OTHPO2gave+crHSzdtf3dzAnCaREj4rz&#xA;kJqIwoooUt0rmNqcUpZBG7JDsuzdVjhppZOHgiJcrJ6DvRzflr5ZS5XS31s/phlqIgE60r/d9em9&#xA;OVaZP8ljvh4vU0fyzn4fEGP938fv/YoeSfL2rWXmnVNNivzZz28HxTxRxyCRC6ldpAwFag5HTYZR&#xA;yGN1TZ2jq8eTTwyGPECeRJFc+5K/LfkqbX9R1CW4ufQsLSRxcXRAqzVJIA2Ubbk9sqw6Y5JGzsHK&#xA;1faQwQiIi5SGwRWqeQ9Jk0m41Hy9qX19bSpnibiTRd2oVC9t+m/bJz0kTEygbppw9q5BkEM0ODi5&#xA;N6B+XllqnlhNYl1A2jEuZC6gxokb0diag/ZBPzxxaQTx8V0nVdrSxZ/DEeL79w1q3kPSRoEusaHq&#xA;RvYrcEyBgKEL9uhHGhA3oRjk0keDigbpGDtXJ4wxZYcJP4Cn5Z8hW19oza3rF79Q06pERHEFgDx5&#xA;Fm2A5bAUqcGDSiUeKRqLPW9qShk8LHHjmp+Z/JFnYaQms6Te/XdPYgMWpUBjx5ArQH4tiKbYM+lE&#xA;Y8cTYTou05ZMnhZI8M0d5/07UksNDW41BrwTrxhSRIoljqibckC+P7WT1cJcMbNtPZWaBnkqPDXP&#xA;cm+aIH5e+U7eS2sr7XCdSugvppFx4sWNAFqG77Cp3yQ0mMUDL1FrPa2okDKGP0R72I+afL0ug6s9&#xA;i8nqoVEkMlKEoxIFR41BGYmfD4cqdtodYNRj4wK6FKMpc12KuxV2KuxV2KuxV2KuxV2KuxV2KuxV&#xA;2KuxV2Ks2/KL/lKn/wCYWT/iSZm9n/3nwdJ29/cf5w/Sm2v+XvzIm1m9msbq4WykmdrdVuyihCfh&#xA;ovMU27Zdlw5zIkE173D02r0UccRMR4q39P7GPppHmHT/ADdob62zPPPdwcJJJfWYhJUH2qsdq5j+&#xA;HOOSPH3h2H5jDk0+QYuQieldCm/nv/yY+l/O1/5PHLtV/fD4fe4nZf8AiU/877k91a9t7T81tLa4&#xA;YKktn6Ku3QO7ShfvO305fkkBqI33frcHT4zPQTrpO/8AcpR5h/L3XNR84z3CkR6fdP6n10MpKDgN&#xA;uHINWuwyrLpJyy30PVy9L2tix6YDnOPTv+Kv+XmlRaV5w1awjuRd+ha0eZV4jlzQkUq24774dJj4&#xA;Mso3ezX2tnOXTQmRw3Ll8Cjfy9uo5dJ8wafEsc14t1PKLaX7DrIgRQ3+SWQg5PSSuMh1stXa0CJ4&#xA;pmxHhAsdK/tail16z0e/uW0TTdHhRWE8ZPpl1VTv+6VlbrRa9cIM4xJ4YxYyjhnljHxMmQ9OtfP7&#xA;UFY/+San/wBn/wBRIyqP+LH8dXJy/wDGkPx/ChPKX/ktNd/17j/kxHg0/wDcS+P3M+0P8ex/5v8A&#xA;uimMdhN5i/K+ztNMYSXVsyiSEsFJaNiChrt0bkK5MQOTABHmGmWUafXSlk+mXX3sW1byJdaV5cTU&#xA;9RuxDc1Crp5UN8TNsA4alePxHbMXJpDCHFI79zs9P2rHLn8OEbj/ADv2V8GT+fLOK9TynZzP6UVw&#xA;6RSSdOKusQJ/HMrVR4hAHr+x1nZeQwOaQ3I3+9NrjSG0jWLCy0PQLf6q3A3GqSAO6KGo4qTy5BRU&#xA;VO57ZccfBICERXe4g1Ay45Sy5ZcXSI693wYb+bYP+I7Y02+ppQ/89ZMwu0PrHu/W7j2f/uD/AFv0&#xA;BhGYLvXYq7FXYq7FXYq7FXYq7FXYq7FXYq7FXYq7FXYqibDUb/T5/Xsrh7aYqVMkbFW4nqKj5ZKM&#xA;zE2DTVlwwyCpCwjz5w80nrqtz/yNb+uWfmMn84tH8n4P5kfkhbnXNYuZ4Li4vJZZ7ZuVvI7ksjAg&#xA;1U9twMhLLIkEnk2Q0uOAIjEAS5+ay51XUrq7S8uLmSW6j4+nO7EuOJqtCfA4JZJE2TuyhghCPDEA&#xA;RPRbf6lqGoTCe9uJLmZVCLJIxZgoJIFT7k4zmZGybTiwwxiogAI1fNvmZbf6uNTuREBQD1GqB4Bv&#xA;tfjk/wAxkqrLQdBgJvgjfuQdjqupafK8tlcyW8sg4u8bFSRWtCR75COSUdwabsuCGQVIAhbbahfW&#xA;119atriSG5qSZo2Ktvudx44iZBsHdlPFCUeGQBj3InUfMOualGI769mnjG4jZjxr48RtXJTzTlzL&#xA;Vh0mLGbhEAqS6zqq6edOW7lFg3W2DH0zU8vs9Ou+DxJVw3szOnxmfHwji7+rUGq6lb2cllDcyR2k&#xA;xJlgViEYsADUe4GIySAoHZZ6eEpCRAMh1b07V9U02RnsLqW2Z6c/TYqGp05DofpxhklHkaXNp8eQ&#xA;VMCTWo6vqmpOHv7qS5Zfs+oxIWvgOg+jGeSUuZtcOnx4xUIiLr3V9Uvo4o7y6lnSAUhWRiwUUA+G&#xA;vTpjLJKXMrj0+OBJiAL5omfzR5intRazalcPABTgZG3HgT1P05I55kVZa46LDGXEIRv3IW/1XUtQ&#xA;ZHvrmS5aMEI0jFiAfCuQnklLmbbMWCGP6AI+5C5FudirsVdirsVdirsVdirsVdirsVdirsVdirsV&#xA;dirsVdirsVdirsVdirsVdirsVdirsVdirsVdirsVdirsVdirsVdirsVdirsVdirsVdirsVdirsVd&#xA;irsVdirsVdirsVdirsVdirsVdirsVdirsVdirsVdirsVdirsVdirsVdirsVdirsVdir6Y/3D/wDF&#xA;X/CZ0vpfNvX5tf7hv+Kv+Ex9K+vzd/uG/wCKv+Ex9K+vzcf0N/xV/wAJj6U+vza/3C/8Vf8AJPH0&#xA;o9fm7/cL/wAV/wDJPH0+SfX5tf7hf+K/+SePp8kevzd/uF/4r/5J4+nyX1+bX+4X/iv/AJJ4+lPr&#xA;83f7hf8Aiv8A5J4+lHr83f7hf+K/+SePpT6/Nr/cL/xX/wAk8fSj1+bv9wv/ABX/AMk8fSn1+bX+&#xA;4T/iv/knj6V9fm7/AHCf8V/8k8fT5I9fm7/cJ/kf8k8Hp8k+vza/3Cf5H/JPD6fJHr83f7hP8j/k&#xA;nj6U+vza/wBwn+R/yTx9K+vzd/uE/wAj/knj6V9fm1/uE/yP+SePpX1+bv8AcH/kf8k8fSj1+bX+&#xA;4P8AyP8Aknj6U+vzd/uD/wAj/knj6V9fm7/cH/kf8k8Hp8l9fm7/AHB/5P8AyTx9Pkvr82j+g/8A&#xA;J/5J4fSvr82v9wf+T/yTx9K+vzcf0H/k/wDJPH0r6/Nr/cF/k/8AJPH0r6/N3+4L/J/5J4+lfX5t&#xA;f7gv8n/knj6V9fm//9k=</xmpGImg:image>
               </rdf:li>
            </rdf:Alt>
         </xmp:Thumbnails>
         <xmpMM:InstanceID>xmp.iid:bf0d47f1-eaf5-b247-8a20-cd1c4c5ca6e0</xmpMM:InstanceID>
         <xmpMM:DocumentID>xmp.did:bf0d47f1-eaf5-b247-8a20-cd1c4c5ca6e0</xmpMM:DocumentID>
         <xmpMM:OriginalDocumentID>uuid:5D20892493BFDB11914A8590D31508C8</xmpMM:OriginalDocumentID>
         <xmpMM:RenditionClass>proof:pdf</xmpMM:RenditionClass>
         <xmpMM:DerivedFrom rdf:parseType="Resource">
            <stRef:instanceID>xmp.iid:833898f5-171e-4b40-a91b-21c162e3ea01</stRef:instanceID>
            <stRef:documentID>xmp.did:833898f5-171e-4b40-a91b-21c162e3ea01</stRef:documentID>
            <stRef:originalDocumentID>uuid:5D20892493BFDB11914A8590D31508C8</stRef:originalDocumentID>
            <stRef:renditionClass>proof:pdf</stRef:renditionClass>
         </xmpMM:DerivedFrom>
         <xmpMM:History>
            <rdf:Seq>
               <rdf:li rdf:parseType="Resource">
                  <stEvt:action>saved</stEvt:action>
                  <stEvt:instanceID>xmp.iid:916f0ef3-b64e-1a4c-910b-87ef8d85b3f4</stEvt:instanceID>
                  <stEvt:when>2017-10-10T18:01:15-05:00</stEvt:when>
                  <stEvt:softwareAgent>Adobe Illustrator CC (Windows)</stEvt:softwareAgent>
                  <stEvt:changed>/</stEvt:changed>
               </rdf:li>
               <rdf:li rdf:parseType="Resource">
                  <stEvt:action>saved</stEvt:action>
                  <stEvt:instanceID>xmp.iid:bf0d47f1-eaf5-b247-8a20-cd1c4c5ca6e0</stEvt:instanceID>
                  <stEvt:when>2017-10-11T11:11:05-05:00</stEvt:when>
                  <stEvt:softwareAgent>Adobe Illustrator CC (Windows)</stEvt:softwareAgent>
                  <stEvt:changed>/</stEvt:changed>
               </rdf:li>
            </rdf:Seq>
         </xmpMM:History>
         <illustrator:StartupProfile>Print</illustrator:StartupProfile>
         <xmpTPg:HasVisibleOverprint>False</xmpTPg:HasVisibleOverprint>
         <xmpTPg:HasVisibleTransparency>False</xmpTPg:HasVisibleTransparency>
         <xmpTPg:NPages>1</xmpTPg:NPages>
         <xmpTPg:MaxPageSize rdf:parseType="Resource">
            <stDim:w>156.742004</stDim:w>
            <stDim:h>41.169006</stDim:h>
            <stDim:unit>Pixels</stDim:unit>
         </xmpTPg:MaxPageSize>
         <xmpTPg:PlateNames>
            <rdf:Seq>
               <rdf:li>Cyan</rdf:li>
               <rdf:li>Magenta</rdf:li>
               <rdf:li>Yellow</rdf:li>
            </rdf:Seq>
         </xmpTPg:PlateNames>
         <xmpTPg:SwatchGroups>
            <rdf:Seq>
               <rdf:li rdf:parseType="Resource">
                  <xmpG:groupName>Grupo de muestras por defecto</xmpG:groupName>
                  <xmpG:groupType>0</xmpG:groupType>
               </rdf:li>
            </rdf:Seq>
         </xmpTPg:SwatchGroups>
         <pdf:Producer>Adobe PDF library 10.01</pdf:Producer>
      </rdf:Description>
   </rdf:RDF>
</x:xmpmeta>
                                                                                                    
                                                                                                    
                                                                                                    
                                                                                                    
                                                                                                    
                                                                                                    
                                                                                                    
                                                                                                    
                                                                                                    
                                                                                                    
                                                                                                    
                                                                                                    
                                                                                                    
                                                                                                    
                                                                                                    
                                                                                                    
                                                                                                    
                                                                                                    
                                                                                                    
                                                                                                    
                           
<?xpacket end="w"?>
	</metadata>
<g>
	<linearGradient id="SVGID_1_" gradientUnits="userSpaceOnUse" x1="-3.051758e-005" y1="21.551" x2="156.742" y2="21.551">
		<stop  offset="0" style="stop-color:#F4F5F5"/>
		<stop  offset="1" style="stop-color:#E7E7E7"/>
	</linearGradient>
	<rect x="0" y="1.933" fill="url(#SVGID_1_)" width="156.742" height="39.236"/>
	<rect x="0" fill="#DB5940" width="156.742" height="39.237"/>
	<g>
		<g>
			<linearGradient id="SVGID_2_" gradientUnits="userSpaceOnUse" x1="42.525" y1="19.4725" x2="51.153" y2="19.4725">
				<stop  offset="0" style="stop-color:#F4F5F5"/>
				<stop  offset="1" style="stop-color:#E7E7E7"/>
			</linearGradient>
			<path fill="url(#SVGID_2_)" d="M42.525,25.145V13.8h8.412v1.919h-6.122v2.516h5.696v1.911h-5.696v3.088h6.338v1.911
				C51.153,25.145,42.525,25.145,42.525,25.145z"/>
			<linearGradient id="SVGID_3_" gradientUnits="userSpaceOnUse" x1="52.129" y1="19.3765" x2="57.686" y2="19.3765">
				<stop  offset="0" style="stop-color:#F4F5F5"/>
				<stop  offset="1" style="stop-color:#E7E7E7"/>
			</linearGradient>
			<path fill="url(#SVGID_3_)" d="M52.129,16.926h1.207v-0.619c0-0.691,0.074-1.207,0.221-1.548c0.147-0.34,0.418-0.617,0.813-0.831
				c0.395-0.215,0.895-0.321,1.498-0.321c0.619,0,1.225,0.093,1.818,0.278l-0.294,1.517c-0.346-0.082-0.679-0.124-0.998-0.124
				c-0.315,0-0.541,0.074-0.678,0.221c-0.137,0.147-0.205,0.43-0.205,0.848v0.58h1.625v1.711h-1.625v6.508h-2.175v-6.508h-1.207
				V16.926z"/>
			<linearGradient id="SVGID_4_" gradientUnits="userSpaceOnUse" x1="58.358" y1="19.4725" x2="60.533" y2="19.4725">
				<stop  offset="0" style="stop-color:#F4F5F5"/>
				<stop  offset="1" style="stop-color:#E7E7E7"/>
			</linearGradient>
			<path fill="url(#SVGID_4_)" d="M58.358,15.812V13.8h2.175v2.012H58.358z M58.358,25.145v-8.219h2.175v8.219H58.358z"/>
			<linearGradient id="SVGID_5_" gradientUnits="userSpaceOnUse" x1="62.283" y1="21.035" x2="70.036" y2="21.035">
				<stop  offset="0" style="stop-color:#F4F5F5"/>
				<stop  offset="1" style="stop-color:#E7E7E7"/>
			</linearGradient>
			<path fill="url(#SVGID_5_)" d="M69.928,19.356l-2.145,0.387c-0.072-0.429-0.236-0.751-0.49-0.968
				c-0.256-0.217-0.588-0.325-0.996-0.325c-0.541,0-0.973,0.188-1.295,0.562s-0.484,1-0.484,1.877c0,0.975,0.164,1.663,0.492,2.065
				c0.326,0.402,0.768,0.604,1.318,0.604c0.414,0,0.752-0.117,1.014-0.352c0.264-0.234,0.449-0.639,0.559-1.211l2.135,0.363
				c-0.221,0.98-0.646,1.721-1.277,2.222c-0.629,0.5-1.473,0.75-2.529,0.75c-1.203,0-2.16-0.379-2.875-1.138
				c-0.715-0.758-1.072-1.808-1.072-3.149c0-1.356,0.359-2.413,1.076-3.169s1.688-1.134,2.91-1.134c1,0,1.795,0.216,2.387,0.646
				C69.245,17.817,69.67,18.474,69.928,19.356z"/>
			<linearGradient id="SVGID_6_" gradientUnits="userSpaceOnUse" x1="71.577" y1="19.4725" x2="73.751" y2="19.4725">
				<stop  offset="0" style="stop-color:#F4F5F5"/>
				<stop  offset="1" style="stop-color:#E7E7E7"/>
			</linearGradient>
			<path fill="url(#SVGID_6_)" d="M71.577,15.812V13.8h2.174v2.012H71.577z M71.577,25.145v-8.219h2.174v8.219H71.577z"/>
			<linearGradient id="SVGID_7_" gradientUnits="userSpaceOnUse" x1="75.344" y1="21.0345" x2="83.0239" y2="21.0345">
				<stop  offset="0" style="stop-color:#F4F5F5"/>
				<stop  offset="1" style="stop-color:#E7E7E7"/>
			</linearGradient>
			<path fill="url(#SVGID_7_)" d="M80.739,22.529l2.166,0.363c-0.277,0.795-0.717,1.399-1.318,1.814
				c-0.602,0.416-1.354,0.623-2.256,0.623c-1.43,0-2.486-0.467-3.174-1.4c-0.541-0.748-0.813-1.692-0.813-2.832
				c0-1.362,0.357-2.429,1.068-3.2c0.713-0.771,1.613-1.157,2.701-1.157c1.223,0,2.188,0.404,2.895,1.211
				c0.707,0.808,1.045,2.045,1.014,3.711h-5.449c0.016,0.645,0.191,1.146,0.527,1.505s0.752,0.538,1.254,0.538
				c0.34,0,0.627-0.093,0.859-0.278C80.444,23.241,80.62,22.941,80.739,22.529z M80.862,20.331
				c-0.016-0.629-0.178-1.107-0.486-1.436c-0.311-0.327-0.688-0.491-1.131-0.491c-0.475,0-0.867,0.173-1.176,0.519
				s-0.461,0.815-0.457,1.408C77.612,20.331,80.862,20.331,80.862,20.331z"/>
			<linearGradient id="SVGID_8_" gradientUnits="userSpaceOnUse" x1="84.777" y1="20.9425" x2="92.27" y2="20.9425">
				<stop  offset="0" style="stop-color:#F4F5F5"/>
				<stop  offset="1" style="stop-color:#E7E7E7"/>
			</linearGradient>
			<path fill="url(#SVGID_8_)" d="M92.27,25.145h-2.176V20.95c0-0.888-0.045-1.461-0.139-1.722s-0.244-0.463-0.453-0.607
				s-0.461-0.217-0.754-0.217c-0.377,0-0.715,0.104-1.014,0.31s-0.504,0.479-0.615,0.82c-0.111,0.34-0.166,0.97-0.166,1.888v3.723
				h-2.176v-8.219h2.02v1.207c0.719-0.928,1.621-1.393,2.709-1.393c0.48,0,0.918,0.087,1.316,0.26
				c0.396,0.173,0.697,0.393,0.9,0.661c0.205,0.269,0.346,0.573,0.426,0.913c0.08,0.341,0.121,0.828,0.121,1.463L92.27,25.145
				L92.27,25.145z"/>
			<linearGradient id="SVGID_9_" gradientUnits="userSpaceOnUse" x1="93.996" y1="21.035" x2="101.749" y2="21.035">
				<stop  offset="0" style="stop-color:#F4F5F5"/>
				<stop  offset="1" style="stop-color:#E7E7E7"/>
			</linearGradient>
			<path fill="url(#SVGID_9_)" d="M101.641,19.356l-2.145,0.387c-0.072-0.429-0.236-0.751-0.49-0.968
				c-0.256-0.217-0.588-0.325-0.996-0.325c-0.541,0-0.973,0.188-1.295,0.562s-0.484,1-0.484,1.877c0,0.975,0.164,1.663,0.492,2.065
				c0.326,0.402,0.768,0.604,1.318,0.604c0.414,0,0.752-0.117,1.014-0.352c0.264-0.234,0.449-0.639,0.559-1.211l2.135,0.363
				c-0.221,0.98-0.646,1.721-1.277,2.222c-0.629,0.5-1.473,0.75-2.529,0.75c-1.203,0-2.16-0.379-2.875-1.138
				c-0.715-0.758-1.072-1.808-1.072-3.149c0-1.356,0.359-2.413,1.076-3.169s1.688-1.134,2.91-1.134c1,0,1.795,0.216,2.387,0.646
				C100.957,17.817,101.383,18.474,101.641,19.356z"/>
			<linearGradient id="SVGID_10_" gradientUnits="userSpaceOnUse" x1="103.289" y1="19.4725" x2="105.463" y2="19.4725">
				<stop  offset="0" style="stop-color:#F4F5F5"/>
				<stop  offset="1" style="stop-color:#E7E7E7"/>
			</linearGradient>
			<path fill="url(#SVGID_10_)" d="M103.289,15.812V13.8h2.174v2.012H103.289z M103.289,25.145v-8.219h2.174v8.219H103.289z"/>
			<linearGradient id="SVGID_11_" gradientUnits="userSpaceOnUse" x1="107.122" y1="21.0365" x2="114.836" y2="21.0365">
				<stop  offset="0" style="stop-color:#F4F5F5"/>
				<stop  offset="1" style="stop-color:#E7E7E7"/>
			</linearGradient>
			<path fill="url(#SVGID_11_)" d="M109.317,19.434l-1.973-0.356c0.221-0.794,0.604-1.382,1.145-1.765
				c0.543-0.381,1.348-0.572,2.416-0.572c0.969,0,1.691,0.115,2.166,0.345s0.809,0.521,1.002,0.874s0.291,1.002,0.291,1.946
				l-0.023,2.538c0,0.723,0.035,1.255,0.104,1.599c0.07,0.343,0.201,0.711,0.391,1.103h-2.15c-0.057-0.145-0.127-0.358-0.209-0.643
				c-0.037-0.129-0.063-0.214-0.078-0.255c-0.371,0.361-0.768,0.632-1.191,0.813s-0.875,0.271-1.354,0.271
				c-0.848,0-1.514-0.229-2.002-0.688c-0.486-0.459-0.73-1.04-0.73-1.741c0-0.465,0.111-0.878,0.332-1.242
				c0.223-0.363,0.533-0.643,0.934-0.836c0.398-0.193,0.977-0.362,1.729-0.507c1.018-0.19,1.721-0.368,2.113-0.534v-0.216
				c0-0.418-0.104-0.717-0.309-0.895c-0.207-0.178-0.598-0.267-1.17-0.267c-0.387,0-0.688,0.076-0.904,0.229
				C109.627,18.784,109.452,19.052,109.317,19.434z M112.227,21.198c-0.279,0.093-0.719,0.203-1.322,0.332
				c-0.605,0.129-1,0.256-1.186,0.38c-0.283,0.201-0.426,0.456-0.426,0.766c0,0.305,0.113,0.567,0.342,0.789
				c0.227,0.223,0.516,0.333,0.865,0.333c0.393,0,0.768-0.129,1.123-0.387c0.264-0.196,0.436-0.436,0.518-0.72
				c0.057-0.186,0.086-0.539,0.086-1.061V21.198z"/>
		</g>
	</g>
</g>
</svg>
