<!-- Generator: Adobe Illustrator 17.0.0, SVG Export Plug-In  -->
<svg version="1.1"
	 xmlns="http://www.w3.org/2000/svg" xmlns:xlink="http://www.w3.org/1999/xlink" xmlns:a="http://ns.adobe.com/AdobeSVGViewerExtensions/3.0/"
	 x="0px" y="0px" width="256.275px" height="76.266px" viewBox="0 0 256.275 76.266" enable-background="new 0 0 256.275 76.266"
	 xml:space="preserve">
<defs>
</defs>
<g>
	<polygon id="XMLID_8_" fill="#323232" points="178.146,6.055 185.363,0 185.363,6.055 	"/>
	<rect x="0" y="9.082" fill="#BDC1BD" width="256.275" height="64.156"/>
	<linearGradient id="SVGID_1_" gradientUnits="userSpaceOnUse" x1="0" y1="38.1328" x2="256.2754" y2="38.1328">
		<stop  offset="0" style="stop-color:#F5F5F5"/>
		<stop  offset="1" style="stop-color:#E8E8E8"/>
	</linearGradient>
	<rect x="0" y="6.055" fill="url(#SVGID_1_)" width="256.275" height="64.156"/>
	<rect id="XMLID_6_" x="185.363" y="0" fill="#DB5940" width="47.043" height="76.266"/>
	<polygon id="XMLID_5_" fill="#323232" points="178.146,73.123 185.363,76.266 185.363,73.123 	"/>
	<rect id="XMLID_4_" x="183.037" y="6.172" fill="#F5F5F5" width="2.213" height="66.951"/>
	<g id="XMLID_1_">
		<path id="XMLID_3_" fill="#FFFFFF" d="M227.75,53.095l-7.453-7.45c-0.466-0.468-1.166-0.7-1.862-0.7L215.99,42.5
			c4.191-5.59,3.841-13.507-1.283-18.63c-5.588-5.59-14.555-5.59-20.143,0c-5.59,5.588-5.59,14.554,0,20.144
			c5.123,5.124,13.041,5.471,18.629,1.28l2.445,2.445c0,0.699,0.234,1.281,0.698,1.862l7.452,7.453c0.933,0.931,2.447,0.931,3.377,0
			l0.584-0.582C228.68,55.424,228.68,54.027,227.75,53.095L227.75,53.095z M211.564,40.869c-3.844,3.844-10.129,3.844-13.973,0
			c-3.842-3.842-3.842-10.131,0-13.972c3.844-3.843,10.129-3.843,13.973,0C215.523,30.738,215.406,37.027,211.564,40.869
			L211.564,40.869z"/>
		<path id="XMLID_2_" fill="#FFFFFF" d="M208.537,32.369h-2.329v-2.328c0-0.815-0.699-1.515-1.514-1.515l0,0
			c-0.817,0-1.514,0.699-1.514,1.515v2.328h-2.329c-0.814,0-1.514,0.698-1.514,1.513l0,0c0,0.817,0.699,1.515,1.514,1.515h2.329
			v2.33c0,0.813,0.696,1.514,1.514,1.514l0,0c0.814,0,1.514-0.701,1.514-1.514v-2.33h2.329c0.814,0,1.514-0.697,1.514-1.515l0,0
			C210.051,33.067,209.352,32.369,208.537,32.369L208.537,32.369z"/>
	</g>
	<g>
		<path fill="#313131" d="M72.943,35.277v-8.933h6.623v1.511h-4.819v1.98h4.484v1.505h-4.484v2.432h4.99v1.505H72.943z"/>
		<path fill="#313131" d="M80.81,32.371l1.755-0.171c0.105,0.589,0.319,1.021,0.643,1.298s0.759,0.414,1.307,0.414
			c0.581,0,1.019-0.122,1.313-0.368c0.294-0.246,0.441-0.533,0.441-0.862c0-0.211-0.062-0.391-0.186-0.539
			c-0.124-0.148-0.34-0.277-0.649-0.387c-0.211-0.073-0.692-0.203-1.443-0.391c-0.967-0.239-1.646-0.534-2.035-0.883
			c-0.549-0.492-0.823-1.091-0.823-1.798c0-0.455,0.129-0.881,0.388-1.276c0.258-0.396,0.629-0.698,1.114-0.905
			s1.072-0.311,1.759-0.311c1.121,0,1.965,0.246,2.531,0.737s0.864,1.147,0.893,1.968l-1.804,0.079
			c-0.077-0.459-0.242-0.789-0.496-0.99c-0.254-0.2-0.635-0.301-1.143-0.301c-0.524,0-0.935,0.107-1.231,0.322
			c-0.19,0.139-0.286,0.323-0.286,0.555c0,0.211,0.09,0.393,0.269,0.542c0.228,0.191,0.779,0.391,1.657,0.598
			c0.877,0.207,1.526,0.421,1.946,0.643c0.421,0.222,0.75,0.524,0.987,0.908c0.238,0.384,0.356,0.858,0.356,1.423
			c0,0.512-0.142,0.991-0.427,1.438c-0.284,0.447-0.687,0.779-1.206,0.996c-0.52,0.218-1.168,0.326-1.943,0.326
			c-1.13,0-1.997-0.261-2.603-0.783C81.288,34.131,80.927,33.37,80.81,32.371z"/>
		<path fill="#313131" d="M91.601,35.277v-7.422h-2.65v-1.511h7.099v1.511h-2.645v7.422H91.601z"/>
		<path fill="#313131" d="M97.219,35.277v-8.933h3.796c0.955,0,1.648,0.08,2.081,0.24c0.433,0.161,0.778,0.446,1.039,0.856
			c0.26,0.41,0.39,0.88,0.39,1.407c0,0.671-0.197,1.225-0.591,1.661c-0.395,0.437-0.983,0.712-1.768,0.825
			c0.391,0.228,0.712,0.478,0.966,0.75c0.254,0.271,0.597,0.755,1.027,1.45l1.091,1.742h-2.157l-1.304-1.943
			c-0.464-0.695-0.78-1.133-0.951-1.313c-0.171-0.181-0.352-0.305-0.542-0.372c-0.191-0.066-0.494-0.101-0.908-0.101h-0.365v3.729
			H97.219z M99.022,30.122h1.334c0.865,0,1.405-0.036,1.621-0.109c0.215-0.073,0.384-0.199,0.506-0.378s0.183-0.402,0.183-0.67
			c0-0.301-0.08-0.543-0.24-0.729c-0.161-0.185-0.388-0.302-0.68-0.35c-0.146-0.021-0.585-0.031-1.316-0.031h-1.407V30.122z"/>
		<path fill="#313131" d="M106.212,26.345h1.804v4.838c0,0.768,0.022,1.266,0.067,1.493c0.077,0.365,0.261,0.659,0.551,0.88
			c0.291,0.222,0.688,0.332,1.191,0.332c0.512,0,0.897-0.104,1.158-0.313c0.26-0.209,0.416-0.466,0.469-0.771
			s0.079-0.811,0.079-1.518v-4.941h1.804v4.691c0,1.072-0.049,1.83-0.146,2.273c-0.097,0.442-0.276,0.816-0.539,1.121
			c-0.262,0.305-0.612,0.547-1.051,0.728s-1.012,0.271-1.719,0.271c-0.853,0-1.5-0.099-1.94-0.296
			c-0.44-0.196-0.789-0.452-1.045-0.768c-0.256-0.314-0.425-0.645-0.506-0.99c-0.118-0.512-0.177-1.268-0.177-2.267V26.345z"/>
		<path fill="#313131" d="M120.951,31.993l1.749,0.555c-0.268,0.975-0.714,1.699-1.338,2.172c-0.623,0.474-1.414,0.71-2.373,0.71
			c-1.186,0-2.161-0.405-2.925-1.216s-1.146-1.918-1.146-3.323c0-1.487,0.384-2.642,1.151-3.465
			c0.769-0.822,1.777-1.233,3.029-1.233c1.092,0,1.979,0.323,2.662,0.969c0.406,0.382,0.711,0.931,0.914,1.646l-1.785,0.426
			c-0.105-0.463-0.326-0.828-0.661-1.097c-0.335-0.268-0.742-0.401-1.222-0.401c-0.662,0-1.199,0.237-1.611,0.713
			c-0.413,0.475-0.619,1.245-0.619,2.309c0,1.13,0.203,1.934,0.609,2.413s0.935,0.719,1.584,0.719c0.479,0,0.892-0.152,1.237-0.457
			S120.801,32.647,120.951,31.993z"/>
		<path fill="#313131" d="M126.259,35.277v-7.422h-2.65v-1.511h7.099v1.511h-2.645v7.422H126.259z"/>
		<path fill="#313131" d="M131.858,26.345h1.804v4.838c0,0.768,0.022,1.266,0.067,1.493c0.077,0.365,0.261,0.659,0.551,0.88
			c0.291,0.222,0.688,0.332,1.191,0.332c0.512,0,0.897-0.104,1.158-0.313c0.26-0.209,0.416-0.466,0.469-0.771
			s0.079-0.811,0.079-1.518v-4.941h1.804v4.691c0,1.072-0.049,1.83-0.146,2.273c-0.097,0.442-0.276,0.816-0.539,1.121
			c-0.262,0.305-0.612,0.547-1.051,0.728s-1.012,0.271-1.719,0.271c-0.853,0-1.5-0.099-1.94-0.296
			c-0.44-0.196-0.789-0.452-1.045-0.768c-0.256-0.314-0.425-0.645-0.506-0.99c-0.118-0.512-0.177-1.268-0.177-2.267V26.345z"/>
		<path fill="#313131" d="M140.889,35.277v-8.933h3.796c0.955,0,1.648,0.08,2.081,0.24c0.433,0.161,0.778,0.446,1.039,0.856
			c0.26,0.41,0.39,0.88,0.39,1.407c0,0.671-0.197,1.225-0.591,1.661c-0.395,0.437-0.983,0.712-1.768,0.825
			c0.391,0.228,0.712,0.478,0.966,0.75c0.254,0.271,0.597,0.755,1.027,1.45l1.091,1.742h-2.157l-1.304-1.943
			c-0.464-0.695-0.78-1.133-0.951-1.313c-0.171-0.181-0.352-0.305-0.542-0.372c-0.191-0.066-0.494-0.101-0.908-0.101h-0.365v3.729
			H140.889z M142.692,30.122h1.334c0.865,0,1.405-0.036,1.621-0.109c0.215-0.073,0.384-0.199,0.506-0.378s0.183-0.402,0.183-0.67
			c0-0.301-0.08-0.543-0.24-0.729c-0.161-0.185-0.388-0.302-0.68-0.35c-0.146-0.021-0.585-0.031-1.316-0.031h-1.407V30.122z"/>
		<path fill="#313131" d="M157.949,35.277h-1.962l-0.779-2.029h-3.571l-0.737,2.029h-1.913l3.479-8.933h1.907L157.949,35.277z
			 M154.629,31.743l-1.231-3.314l-1.206,3.314H154.629z"/>
		<path fill="#313131" d="M71.897,41.319h3.297c0.743,0,1.31,0.057,1.7,0.171c0.523,0.154,0.973,0.429,1.347,0.822
			c0.373,0.394,0.658,0.876,0.853,1.447c0.195,0.57,0.293,1.274,0.293,2.111c0,0.735-0.092,1.369-0.274,1.901
			c-0.224,0.649-0.542,1.176-0.957,1.578c-0.313,0.305-0.735,0.542-1.267,0.713c-0.398,0.126-0.931,0.188-1.597,0.188h-3.395V41.319
			z M73.701,42.83v5.917h1.347c0.504,0,0.867-0.028,1.091-0.086c0.293-0.072,0.535-0.196,0.729-0.371
			c0.192-0.175,0.351-0.462,0.472-0.862c0.122-0.4,0.183-0.945,0.183-1.636s-0.061-1.221-0.183-1.591
			c-0.121-0.369-0.292-0.658-0.512-0.865c-0.219-0.207-0.497-0.347-0.835-0.42c-0.252-0.058-0.745-0.086-1.48-0.086H73.701z"/>
		<path fill="#313131" d="M80.916,50.252v-8.933h6.623v1.511H82.72v1.98h4.484v1.505H82.72v2.432h4.99v1.505H80.916z"/>
		<path fill="#313131" d="M92.755,50.252v-8.859h1.803v7.354h4.485v1.505H92.755z"/>
		<path fill="#313131" d="M108.384,50.252h-1.962l-0.779-2.029h-3.571l-0.737,2.029h-1.913l3.479-8.933h1.907L108.384,50.252z
			 M105.063,46.718l-1.231-3.314l-1.206,3.314H105.063z"/>
		<path fill="#313131" d="M112.825,50.252v-8.933h1.755l3.656,5.965v-5.965h1.676v8.933h-1.81l-3.602-5.825v5.825H112.825z"/>
		<path fill="#313131" d="M121.453,45.841c0-0.91,0.137-1.674,0.408-2.291c0.203-0.455,0.48-0.863,0.832-1.226
			c0.352-0.361,0.736-0.629,1.154-0.804c0.557-0.235,1.198-0.354,1.926-0.354c1.316,0,2.369,0.408,3.159,1.225
			s1.186,1.952,1.186,3.406c0,1.442-0.393,2.57-1.176,3.385c-0.784,0.814-1.832,1.222-3.145,1.222c-1.328,0-2.385-0.405-3.168-1.216
			C121.846,48.378,121.453,47.263,121.453,45.841z M123.312,45.779c0,1.012,0.234,1.778,0.701,2.301
			c0.467,0.521,1.061,0.782,1.779,0.782s1.309-0.259,1.77-0.776c0.461-0.518,0.692-1.295,0.692-2.331
			c0-1.023-0.225-1.787-0.674-2.291c-0.449-0.504-1.045-0.755-1.788-0.755s-1.343,0.255-1.798,0.765S123.312,44.752,123.312,45.779z
			"/>
		<path fill="#313131" d="M131.531,50.252v-8.933h3.796c0.955,0,1.648,0.08,2.081,0.24c0.433,0.161,0.778,0.446,1.039,0.856
			c0.26,0.41,0.39,0.88,0.39,1.407c0,0.671-0.197,1.225-0.591,1.661c-0.395,0.437-0.983,0.712-1.768,0.825
			c0.391,0.228,0.712,0.478,0.966,0.75c0.254,0.271,0.597,0.755,1.027,1.45l1.091,1.742h-2.157l-1.304-1.943
			c-0.464-0.695-0.78-1.133-0.951-1.313s-0.352-0.305-0.542-0.372c-0.191-0.066-0.494-0.101-0.908-0.101h-0.365v3.729H131.531z
			 M133.335,45.097h1.334c0.865,0,1.405-0.036,1.621-0.109c0.215-0.073,0.384-0.199,0.506-0.378s0.183-0.402,0.183-0.67
			c0-0.301-0.08-0.543-0.24-0.729c-0.161-0.185-0.388-0.302-0.68-0.35c-0.146-0.021-0.585-0.031-1.316-0.031h-1.407V45.097z"/>
		<path fill="#313131" d="M140.513,50.252v-8.933h2.699l1.621,6.093l1.603-6.093h2.705v8.933h-1.676v-7.031l-1.773,7.031h-1.736
			l-1.767-7.031v7.031H140.513z"/>
		<path fill="#313131" d="M158.987,50.252h-1.962l-0.779-2.029h-3.571l-0.737,2.029h-1.913l3.479-8.933h1.907L158.987,50.252z
			 M155.667,46.718l-1.231-3.314l-1.206,3.314H155.667z"/>
	</g>
	<g>
		<path fill="#414042" d="M52.247,47.664v10.588c0,0.424-0.345,0.77-0.772,0.77H12.424c-0.426,0-0.77-0.346-0.77-0.77V47.664
			c0-0.429,0.344-0.772,0.77-0.772h2.246v-1.589h-2.246c-0.426,0-0.77-0.342-0.77-0.769V33.945c0-0.426,0.344-0.773,0.77-0.773
			h2.246v-1.585h-2.246c-0.426,0-0.77-0.347-0.77-0.773V20.227c0-0.425,0.344-0.769,0.77-0.769h39.051
			c0.428,0,0.772,0.344,0.772,0.769v10.589c0,0.426-0.345,0.773-0.772,0.773h-2.246v1.585h2.246c0.428,0,0.772,0.347,0.772,0.773
			v10.589c0,0.427-0.345,0.769-0.772,0.769h-2.246v1.589h2.246C51.902,46.892,52.247,47.235,52.247,47.664z M50.703,57.48v-9.047
			h-4.022v9.047H50.703z M50.703,43.765v-9.05h-4.022v9.05H50.703z M50.703,30.047v-9.051h-4.022v9.051H50.703z M47.688,46.892
			v-1.589H16.211v1.589H47.688z M47.688,33.173v-1.585H16.211v1.585H47.688z M45.139,57.48v-9.047h-4.01v9.047H45.139z
			 M45.139,43.765v-9.05h-4.01v9.05H45.139z M45.139,30.047v-9.051h-4.01v9.051H45.139z M39.588,57.48v-9.047H13.193v9.047H39.588z
			 M39.588,43.765v-9.05H13.193v9.05H39.588z M39.588,30.047v-9.051H13.193v9.051H39.588z"/>
		<rect x="46.681" y="48.434" fill="#DB5940" width="4.022" height="9.047"/>
		<rect x="46.681" y="34.715" fill="#DB5940" width="4.022" height="9.05"/>
		<rect x="46.681" y="20.996" fill="#DB5940" width="4.022" height="9.051"/>
		<path fill="#DB5940" d="M39.588,48.434v9.047H13.193v-9.047H39.588z M19.361,52.955c0-0.199-0.083-0.4-0.226-0.543
			c-0.143-0.144-0.343-0.226-0.546-0.226c-0.204,0-0.401,0.082-0.544,0.226c-0.143,0.143-0.227,0.344-0.227,0.543
			c0,0.203,0.084,0.404,0.227,0.547c0.143,0.143,0.34,0.226,0.544,0.226c0.203,0,0.403-0.083,0.546-0.226
			C19.278,53.359,19.361,53.158,19.361,52.955z M16.895,52.955c0-0.199-0.082-0.4-0.229-0.543c-0.144-0.144-0.34-0.226-0.543-0.226
			c-0.205,0-0.4,0.082-0.544,0.226c-0.143,0.143-0.228,0.344-0.228,0.543c0,0.203,0.085,0.404,0.228,0.547
			c0.144,0.143,0.339,0.226,0.544,0.226c0.203,0,0.399-0.083,0.543-0.226C16.813,53.359,16.895,53.158,16.895,52.955z"/>
		<path fill="#DB5940" d="M39.588,34.715v9.05H13.193v-9.05H39.588z M19.361,39.24c0-0.204-0.083-0.404-0.226-0.544
			c-0.143-0.146-0.343-0.229-0.546-0.229c-0.204,0-0.401,0.084-0.544,0.229c-0.143,0.14-0.227,0.34-0.227,0.544
			c0,0.203,0.084,0.403,0.227,0.543c0.143,0.146,0.34,0.226,0.544,0.226c0.203,0,0.403-0.079,0.546-0.226
			C19.278,39.644,19.361,39.443,19.361,39.24z M16.895,39.24c0-0.204-0.082-0.404-0.229-0.544c-0.144-0.146-0.34-0.229-0.543-0.229
			c-0.205,0-0.4,0.084-0.544,0.229c-0.143,0.14-0.228,0.34-0.228,0.544c0,0.203,0.085,0.403,0.228,0.543
			c0.144,0.146,0.339,0.226,0.544,0.226c0.203,0,0.399-0.079,0.543-0.226C16.813,39.644,16.895,39.443,16.895,39.24z"/>
		<path fill="#DB5940" d="M39.588,20.996v9.051H13.193v-9.051H39.588z M19.361,25.521c0-0.203-0.083-0.403-0.226-0.544
			c-0.143-0.142-0.343-0.228-0.546-0.228c-0.204,0-0.401,0.086-0.544,0.228c-0.143,0.141-0.227,0.341-0.227,0.544
			s0.084,0.403,0.227,0.543c0.143,0.146,0.34,0.229,0.544,0.229c0.203,0,0.403-0.082,0.546-0.229
			C19.278,25.925,19.361,25.725,19.361,25.521z M16.895,25.521c0-0.203-0.082-0.403-0.229-0.544
			c-0.144-0.142-0.34-0.228-0.543-0.228c-0.205,0-0.4,0.086-0.544,0.228c-0.143,0.141-0.228,0.341-0.228,0.544
			s0.085,0.403,0.228,0.543c0.144,0.146,0.339,0.229,0.544,0.229c0.203,0,0.399-0.082,0.543-0.229
			C16.813,25.925,16.895,25.725,16.895,25.521z"/>
		<path fill="#282F39" d="M19.135,24.978c0.143,0.141,0.226,0.341,0.226,0.544s-0.083,0.403-0.226,0.543
			c-0.143,0.146-0.343,0.229-0.546,0.229c-0.204,0-0.401-0.082-0.544-0.229c-0.143-0.14-0.227-0.34-0.227-0.543
			s0.084-0.403,0.227-0.544c0.143-0.142,0.34-0.228,0.544-0.228C18.792,24.75,18.992,24.836,19.135,24.978z"/>
		<path fill="#282F39" d="M19.135,38.696c0.143,0.14,0.226,0.34,0.226,0.544c0,0.203-0.083,0.403-0.226,0.543
			c-0.143,0.146-0.343,0.226-0.546,0.226c-0.204,0-0.401-0.079-0.544-0.226c-0.143-0.14-0.227-0.34-0.227-0.543
			c0-0.204,0.084-0.404,0.227-0.544c0.143-0.146,0.34-0.229,0.544-0.229C18.792,38.467,18.992,38.551,19.135,38.696z"/>
		<path fill="#282F39" d="M19.135,52.412c0.143,0.143,0.226,0.344,0.226,0.543c0,0.203-0.083,0.404-0.226,0.547
			c-0.143,0.143-0.343,0.226-0.546,0.226c-0.204,0-0.401-0.083-0.544-0.226c-0.143-0.142-0.227-0.344-0.227-0.547
			c0-0.199,0.084-0.4,0.227-0.543c0.143-0.144,0.34-0.226,0.544-0.226C18.792,52.187,18.992,52.269,19.135,52.412z"/>
		<path fill="#282F39" d="M16.666,24.978c0.146,0.141,0.229,0.341,0.229,0.544s-0.082,0.403-0.229,0.543
			c-0.144,0.146-0.34,0.229-0.543,0.229c-0.205,0-0.4-0.082-0.544-0.229c-0.143-0.14-0.228-0.34-0.228-0.543
			s0.085-0.403,0.228-0.544c0.144-0.142,0.339-0.228,0.544-0.228C16.326,24.75,16.522,24.836,16.666,24.978z"/>
		<path fill="#282F39" d="M16.666,38.696c0.146,0.14,0.229,0.34,0.229,0.544c0,0.203-0.082,0.403-0.229,0.543
			c-0.144,0.146-0.34,0.226-0.543,0.226c-0.205,0-0.4-0.079-0.544-0.226c-0.143-0.14-0.228-0.34-0.228-0.543
			c0-0.204,0.085-0.404,0.228-0.544c0.144-0.146,0.339-0.229,0.544-0.229C16.326,38.467,16.522,38.551,16.666,38.696z"/>
		<path fill="#282F39" d="M16.666,52.412c0.146,0.143,0.229,0.344,0.229,0.543c0,0.203-0.082,0.404-0.229,0.547
			c-0.144,0.143-0.34,0.226-0.543,0.226c-0.205,0-0.4-0.083-0.544-0.226c-0.143-0.142-0.228-0.344-0.228-0.547
			c0-0.199,0.085-0.4,0.228-0.543c0.144-0.144,0.339-0.226,0.544-0.226C16.326,52.187,16.522,52.269,16.666,52.412z"/>
	</g>
</g>
</svg>