<?xml version="1.0" encoding="utf-8"?>
<!-- Generator: Adobe Illustrator 17.0.0, SVG Export Plug-In . SVG Version: 6.00 Build 0)  -->
<!DOCTYPE svg PUBLIC "-//W3C//DTD SVG 1.1//EN" "http://www.w3.org/Graphics/SVG/1.1/DTD/svg11.dtd" [
	<!ENTITY ns_extend "http://ns.adobe.com/Extensibility/1.0/">
	<!ENTITY ns_ai "http://ns.adobe.com/AdobeIllustrator/10.0/">
	<!ENTITY ns_graphs "http://ns.adobe.com/Graphs/1.0/">
	<!ENTITY ns_vars "http://ns.adobe.com/Variables/1.0/">
	<!ENTITY ns_imrep "http://ns.adobe.com/ImageReplacement/1.0/">
	<!ENTITY ns_sfw "http://ns.adobe.com/SaveForWeb/1.0/">
	<!ENTITY ns_custom "http://ns.adobe.com/GenericCustomNamespace/1.0/">
	<!ENTITY ns_adobe_xpath "http://ns.adobe.com/XPath/1.0/">
]>
<svg version="1.1" id="Capa_1" xmlns:x="&ns_extend;" xmlns:i="&ns_ai;" xmlns:graph="&ns_graphs;"
	 xmlns="http://www.w3.org/2000/svg" xmlns:xlink="http://www.w3.org/1999/xlink" x="0px" y="0px" width="860.583px"
	 height="449.953px" viewBox="0 0 860.583 449.953" enable-background="new 0 0 860.583 449.953" xml:space="preserve">
<metadata>
	<sfw  xmlns="&ns_sfw;">
		<slices></slices>
		<sliceSourceBounds  width="860.583" height="449.953" y="75.523" x="209.208" bottomLeftOrigin="true"></sliceSourceBounds>
	</sfw>
</metadata>
<line fill="none" stroke="#E54F26" stroke-miterlimit="10" x1="0" y1="34.56" x2="860.583" y2="34.56"/>
<g>
	<g>
		<path fill="#B3AA8D" d="M256.088,18.201V0.306h13.27v3.027h-9.656v3.968h8.984v3.015h-8.984v4.87h9.998v3.016L256.088,18.201
			L256.088,18.201z"/>
		<path fill="#B3AA8D" d="M271.848,12.379l3.516-0.342c0.212,1.18,0.641,2.046,1.288,2.6c0.646,0.554,1.52,0.83,2.618,0.83
			c1.164,0,2.04-0.246,2.631-0.738c0.59-0.492,0.885-1.068,0.885-1.728c0-0.423-0.124-0.783-0.372-1.08
			c-0.249-0.297-0.682-0.556-1.301-0.775c-0.423-0.146-1.387-0.407-2.893-0.781c-1.937-0.48-3.296-1.07-4.077-1.771
			c-1.099-0.984-1.647-2.185-1.647-3.601c0-0.911,0.258-1.764,0.774-2.558c0.517-0.793,1.262-1.397,2.234-1.813
			C276.476,0.208,277.65,0,279.025,0c2.246,0,3.937,0.493,5.072,1.478c1.135,0.984,1.731,2.299,1.788,3.942l-3.613,0.159
			c-0.154-0.92-0.486-1.581-0.995-1.983c-0.509-0.403-1.271-0.604-2.288-0.604c-1.051,0-1.872,0.216-2.467,0.647
			c-0.382,0.276-0.573,0.646-0.573,1.11c0,0.423,0.179,0.785,0.537,1.087c0.456,0.382,1.563,0.781,3.32,1.195
			c1.758,0.416,3.058,0.845,3.9,1.288c0.842,0.444,1.501,1.05,1.978,1.819c0.476,0.769,0.714,1.719,0.714,2.85
			c0,1.025-0.285,1.986-0.854,2.881c-0.569,0.896-1.375,1.562-2.417,1.996c-1.042,0.436-2.34,0.653-3.894,0.653
			c-2.263,0-4-0.522-5.213-1.568S272.084,14.381,271.848,12.379z"/>
		<path fill="#B3AA8D" d="M293.467,18.201V3.333h-5.311V0.306h14.221v3.027h-5.297v14.868H293.467z"/>
		<path fill="#B3AA8D" d="M304.722,18.201V0.306h7.604c1.913,0,3.303,0.161,4.169,0.482c0.867,0.321,1.561,0.893,2.081,1.715
			c0.521,0.822,0.781,1.762,0.781,2.819c0,1.344-0.395,2.452-1.184,3.327s-1.97,1.426-3.54,1.653
			c0.781,0.456,1.426,0.957,1.935,1.502s1.194,1.514,2.057,2.905l2.186,3.491h-4.321l-2.612-3.895
			c-0.928-1.391-1.563-2.268-1.904-2.63s-0.704-0.61-1.086-0.745c-0.383-0.134-0.989-0.201-1.819-0.201h-0.732V18.2h-3.615V18.201z
			 M308.335,7.874h2.673c1.734,0,2.816-0.073,3.248-0.22c0.431-0.146,0.769-0.398,1.013-0.757s0.366-0.806,0.366-1.343
			c0-0.603-0.161-1.088-0.482-1.459c-0.321-0.37-0.775-0.604-1.361-0.701c-0.293-0.041-1.172-0.062-2.637-0.062h-2.819v4.542
			H308.335z"/>
		<path fill="#B3AA8D" d="M322.74,0.306h3.613v9.692c0,1.538,0.044,2.535,0.134,2.99c0.154,0.732,0.522,1.321,1.104,1.765
			s1.378,0.665,2.387,0.665c1.025,0,1.799-0.209,2.319-0.629c0.521-0.419,0.834-0.934,0.94-1.544c0.105-0.61,0.158-1.624,0.158-3.04
			V0.306h3.613v9.399c0,2.148-0.098,3.666-0.293,4.553c-0.195,0.888-0.556,1.637-1.08,2.246c-0.525,0.611-1.227,1.098-2.105,1.459
			c-0.879,0.362-2.027,0.543-3.443,0.543c-1.709,0-3.005-0.197-3.888-0.592s-1.581-0.907-2.093-1.538
			c-0.514-0.63-0.851-1.292-1.014-1.983c-0.236-1.025-0.354-2.539-0.354-4.541V0.306H322.74z"/>
		<path fill="#B3AA8D" d="M352.27,11.621l3.503,1.111c-0.537,1.953-1.431,3.404-2.68,4.352s-2.834,1.422-4.755,1.422
			c-2.376,0-4.329-0.812-5.859-2.435c-1.529-1.624-2.295-3.844-2.295-6.659c0-2.979,0.77-5.292,2.308-6.939
			C344.029,0.824,346.052,0,348.559,0c2.188,0,3.967,0.647,5.334,1.941c0.813,0.765,1.424,1.863,1.831,3.296l-3.577,0.854
			c-0.211-0.928-0.652-1.66-1.324-2.197c-0.671-0.537-1.487-0.806-2.447-0.806c-1.326,0-2.403,0.476-3.229,1.429
			c-0.826,0.951-1.239,2.494-1.239,4.626c0,2.263,0.407,3.874,1.221,4.834s1.872,1.44,3.174,1.44c0.96,0,1.786-0.305,2.478-0.916
			C351.472,13.893,351.968,12.932,352.27,11.621z"/>
		<path fill="#B3AA8D" d="M362.902,18.201V3.333h-5.311V0.306h14.221v3.027h-5.297v14.868H362.902z"/>
		<path fill="#B3AA8D" d="M374.121,0.306h3.613v9.692c0,1.538,0.044,2.535,0.134,2.99c0.154,0.732,0.522,1.321,1.104,1.765
			s1.378,0.665,2.387,0.665c1.025,0,1.799-0.209,2.319-0.629c0.521-0.419,0.834-0.934,0.94-1.544c0.105-0.61,0.158-1.624,0.158-3.04
			V0.306h3.613v9.399c0,2.148-0.098,3.666-0.293,4.553c-0.195,0.888-0.556,1.637-1.08,2.246c-0.525,0.611-1.227,1.098-2.105,1.459
			c-0.879,0.362-2.027,0.543-3.443,0.543c-1.709,0-3.005-0.197-3.888-0.592s-1.581-0.907-2.093-1.538
			c-0.514-0.63-0.851-1.292-1.014-1.983c-0.236-1.025-0.354-2.539-0.354-4.541V0.306H374.121z"/>
		<path fill="#B3AA8D" d="M392.212,18.201V0.306h7.604c1.913,0,3.303,0.161,4.169,0.482c0.867,0.321,1.561,0.893,2.081,1.715
			c0.521,0.822,0.781,1.762,0.781,2.819c0,1.344-0.395,2.452-1.184,3.327s-1.97,1.426-3.54,1.653
			c0.781,0.456,1.426,0.957,1.935,1.502s1.194,1.514,2.057,2.905l2.186,3.491h-4.321l-2.612-3.895
			c-0.928-1.391-1.563-2.268-1.904-2.63s-0.704-0.61-1.086-0.745c-0.383-0.134-0.989-0.201-1.819-0.201h-0.732V18.2h-3.615V18.201z
			 M395.825,7.874h2.673c1.734,0,2.816-0.073,3.248-0.22c0.431-0.146,0.769-0.398,1.013-0.757s0.366-0.806,0.366-1.343
			c0-0.603-0.161-1.088-0.482-1.459c-0.321-0.37-0.775-0.604-1.361-0.701c-0.293-0.041-1.172-0.062-2.637-0.062h-2.819v4.542
			H395.825z"/>
		<path fill="#B3AA8D" d="M426.393,18.201h-3.932l-1.563-4.064h-7.152l-1.478,4.064h-3.833l6.971-17.896h3.82L426.393,18.201z
			 M419.739,11.121l-2.466-6.641l-2.417,6.641H419.739z"/>
		<path fill="#DB5940" d="M434.314,0.306h6.604c1.49,0,2.625,0.114,3.406,0.342c1.05,0.31,1.949,0.858,2.697,1.647
			c0.749,0.79,1.318,1.757,1.709,2.899c0.391,1.144,0.586,2.554,0.586,4.229c0,1.474-0.183,2.743-0.549,3.809
			c-0.447,1.303-1.086,2.356-1.916,3.162c-0.627,0.61-1.474,1.086-2.539,1.428c-0.798,0.253-1.864,0.379-3.199,0.379h-6.799V0.306z
			 M437.928,3.333v11.853h2.697c1.01,0,1.738-0.057,2.186-0.17c0.586-0.146,1.072-0.396,1.459-0.745
			c0.386-0.35,0.701-0.926,0.945-1.728c0.244-0.801,0.367-1.894,0.367-3.277s-0.123-2.445-0.367-3.186
			c-0.244-0.741-0.586-1.318-1.025-1.734c-0.439-0.414-0.996-0.695-1.672-0.842c-0.505-0.114-1.493-0.171-2.967-0.171
			C439.551,3.333,437.928,3.333,437.928,3.333z"/>
		<path fill="#DB5940" d="M452.381,18.201V0.306h13.27v3.027h-9.656v3.968h8.984v3.015h-8.984v4.87h9.998v3.016L452.381,18.201
			L452.381,18.201z"/>
		<path fill="#DB5940" d="M476.1,18.201V0.452h3.613v14.733h8.984v3.016H476.1z"/>
		<path fill="#DB5940" d="M507.412,18.201h-3.932l-1.563-4.064h-7.152l-1.478,4.064h-3.833l6.971-17.896h3.82L507.412,18.201z
			 M500.759,11.121l-2.466-6.641l-2.417,6.641H500.759z"/>
		<path fill="#DB5940" d="M515.383,18.201V0.306h3.516l7.324,11.95V0.306h3.357v17.896h-3.626l-7.214-11.67v11.67L515.383,18.201
			L515.383,18.201z"/>
		<path fill="#DB5940" d="M532.668,9.363c0-1.823,0.273-3.353,0.818-4.59c0.407-0.911,0.962-1.729,1.666-2.453
			c0.704-0.725,1.476-1.262,2.313-1.611C538.58,0.236,539.865,0,541.322,0c2.637,0,4.746,0.818,6.329,2.454s2.375,3.91,2.375,6.823
			c0,2.89-0.786,5.15-2.356,6.781c-1.57,1.632-3.67,2.447-6.299,2.447c-2.661,0-4.777-0.812-6.348-2.435
			C533.454,14.447,532.668,12.212,532.668,9.363z M536.392,9.241c0,2.026,0.468,3.563,1.403,4.608
			c0.937,1.046,2.125,1.568,3.564,1.568c1.441,0,2.623-0.519,3.547-1.557c0.923-1.037,1.385-2.594,1.385-4.669
			c0-2.051-0.449-3.581-1.349-4.59s-2.093-1.514-3.583-1.514c-1.488,0-2.689,0.511-3.601,1.532S536.392,7.183,536.392,9.241z"/>
		<path fill="#DB5940" d="M552.858,18.201V0.306h7.604c1.913,0,3.303,0.161,4.169,0.482c0.867,0.321,1.561,0.893,2.081,1.715
			c0.521,0.822,0.781,1.762,0.781,2.819c0,1.344-0.395,2.452-1.184,3.327s-1.97,1.426-3.54,1.653
			c0.781,0.456,1.426,0.957,1.935,1.502s1.194,1.514,2.057,2.905l2.186,3.491h-4.321l-2.612-3.895
			c-0.928-1.391-1.563-2.268-1.904-2.63s-0.704-0.61-1.086-0.745c-0.383-0.134-0.989-0.201-1.819-0.201h-0.732V18.2h-3.615V18.201z
			 M556.472,7.874h2.673c1.734,0,2.816-0.073,3.248-0.22c0.431-0.146,0.769-0.398,1.013-0.757s0.366-0.806,0.366-1.343
			c0-0.603-0.161-1.088-0.482-1.459c-0.321-0.37-0.775-0.604-1.361-0.701c-0.293-0.041-1.172-0.062-2.637-0.062h-2.819
			L556.472,7.874L556.472,7.874z"/>
		<path fill="#DB5940" d="M570.852,18.201V0.306h5.408l3.247,12.207l3.21-12.207h5.42v17.896h-3.356V4.114l-3.552,14.087h-3.479
			l-3.54-14.087v14.087H570.852z"/>
		<path fill="#DB5940" d="M607.864,18.201h-3.932l-1.563-4.064h-7.152l-1.478,4.064h-3.833l6.971-17.896h3.82L607.864,18.201z
			 M601.211,11.121l-2.466-6.641l-2.417,6.641H601.211z"/>
	</g>
</g>
<g>
	<g>
		<polygon fill="#DB5940" points="234.672,182.31 221.049,207.021 249.262,206.459 		"/>
		<polygon fill="#DB5940" points="387.804,104.658 385.691,101.164 231.814,197.914 233.921,201.413 		"/>
	</g>
	<g>
		<polygon fill="#DB5940" points="625.428,182.31 639.052,207.021 610.84,206.459 		"/>
		<polygon fill="#DB5940" points="472.297,104.658 474.41,101.164 628.287,197.914 626.18,201.413 		"/>
	</g>
	<rect x="292.534" y="70.66" fill="#DB5940" width="279.298" height="69.917"/>
	
		<linearGradient id="SVGID_1_" gradientUnits="userSpaceOnUse" x1="48.534" y1="342.776" x2="327.832" y2="342.776" gradientTransform="matrix(1 0 0 -1 244 444.953)">
		<stop  offset="0" style="stop-color:#F4F5F5"/>
		<stop  offset="1" style="stop-color:#E7E7E7"/>
	</linearGradient>
	<rect x="292.534" y="67.218" fill="url(#SVGID_1_)" width="279.298" height="69.918"/>
	<g>
		<path fill="#414042" d="M310.794,96.381V80.299h4.859l2.918,10.97l2.885-10.97h4.871v16.082h-3.017V83.722l-3.192,12.659h-3.126
			l-3.182-12.659v12.659H310.794z"/>
		<path fill="#414042" d="M336.277,92.673l3.071,0.516c-0.395,1.126-1.019,1.984-1.87,2.572c-0.853,0.589-1.918,0.884-3.198,0.884
			c-2.025,0-3.524-0.662-4.497-1.986c-0.769-1.06-1.152-2.398-1.152-4.015c0-1.931,0.505-3.442,1.514-4.536
			c1.01-1.093,2.286-1.64,3.829-1.64c1.733,0,3.101,0.572,4.103,1.717s1.48,2.897,1.437,5.26h-7.723
			c0.022,0.914,0.271,1.626,0.746,2.134c0.476,0.509,1.067,0.763,1.777,0.763c0.482,0,0.889-0.132,1.218-0.396
			C335.86,93.683,336.108,93.258,336.277,92.673z M336.452,89.558c-0.021-0.893-0.252-1.57-0.69-2.035
			c-0.439-0.464-0.973-0.696-1.602-0.696c-0.673,0-1.229,0.245-1.668,0.735c-0.438,0.489-0.654,1.155-0.647,1.996H336.452z"/>
		<path fill="#414042" d="M345.042,84.73v11.288c0,1.484-0.097,2.532-0.29,3.144c-0.194,0.61-0.567,1.087-1.119,1.432
			c-0.553,0.343-1.256,0.515-2.111,0.515c-0.308,0-0.639-0.027-0.993-0.082s-0.736-0.137-1.146-0.247l0.538-2.632
			c0.146,0.028,0.283,0.053,0.411,0.071c0.128,0.018,0.246,0.027,0.356,0.027c0.314,0,0.572-0.068,0.773-0.203
			c0.201-0.136,0.334-0.298,0.4-0.488c0.065-0.19,0.099-0.761,0.099-1.711V84.73H345.042z M341.96,83.151v-2.853h3.082v2.853H341.96
			z"/>
		<path fill="#414042" d="M347.555,90.392c0-1.024,0.252-2.015,0.757-2.973s1.22-1.689,2.145-2.194
			c0.926-0.505,1.958-0.757,3.1-0.757c1.762,0,3.206,0.572,4.333,1.717c1.126,1.145,1.689,2.591,1.689,4.338
			c0,1.763-0.569,3.224-1.706,4.383c-1.138,1.159-2.569,1.739-4.295,1.739c-1.067,0-2.086-0.242-3.055-0.725
			c-0.97-0.482-1.706-1.19-2.211-2.122C347.807,92.865,347.555,91.729,347.555,90.392z M350.714,90.556
			c0,1.156,0.274,2.041,0.823,2.655c0.548,0.614,1.225,0.921,2.029,0.921s1.479-0.307,2.023-0.921s0.817-1.507,0.817-2.677
			c0-1.142-0.272-2.019-0.817-2.633s-1.219-0.922-2.023-0.922s-1.481,0.308-2.029,0.922C350.988,88.516,350.714,89.4,350.714,90.556
			z"/>
		<path fill="#414042" d="M364.942,96.381h-3.083v-11.65h2.863v1.657c0.49-0.783,0.931-1.299,1.322-1.547
			c0.391-0.249,0.835-0.373,1.333-0.373c0.702,0,1.378,0.193,2.029,0.581l-0.954,2.688c-0.52-0.336-1.002-0.504-1.448-0.504
			c-0.432,0-0.798,0.118-1.097,0.356c-0.301,0.237-0.536,0.667-0.708,1.289c-0.172,0.621-0.258,1.923-0.258,3.905v3.598H364.942z"/>
		<path fill="#414042" d="M373.038,88.285l-2.797-0.505c0.314-1.126,0.855-1.96,1.623-2.501c0.769-0.541,1.909-0.812,3.423-0.812
			c1.375,0,2.398,0.163,3.071,0.488s1.146,0.738,1.421,1.239s0.411,1.421,0.411,2.759l-0.032,3.599c0,1.023,0.049,1.778,0.147,2.265
			s0.283,1.008,0.554,1.563h-3.049c-0.081-0.205-0.18-0.508-0.297-0.91c-0.051-0.183-0.087-0.304-0.109-0.362
			c-0.526,0.512-1.09,0.896-1.689,1.151s-1.239,0.385-1.92,0.385c-1.199,0-2.145-0.326-2.835-0.977
			c-0.691-0.651-1.037-1.474-1.037-2.469c0-0.658,0.157-1.245,0.472-1.761c0.314-0.515,0.755-0.91,1.322-1.185
			c0.566-0.274,1.384-0.514,2.451-0.718c1.44-0.271,2.439-0.523,2.995-0.758v-0.307c0-0.593-0.146-1.015-0.438-1.268
			c-0.293-0.252-0.845-0.378-1.657-0.378c-0.548,0-0.976,0.107-1.283,0.323C373.478,87.365,373.229,87.744,373.038,88.285z
			 M377.163,90.786c-0.395,0.132-1.021,0.289-1.876,0.472s-1.415,0.362-1.679,0.538c-0.402,0.285-0.603,0.646-0.603,1.086
			c0,0.432,0.16,0.805,0.482,1.118c0.321,0.314,0.731,0.472,1.229,0.472c0.556,0,1.086-0.183,1.591-0.548
			c0.373-0.278,0.617-0.618,0.734-1.021c0.081-0.264,0.121-0.764,0.121-1.503L377.163,90.786L377.163,90.786z"/>
		<path fill="#414042" d="M400.156,96.381h-2.862V94.67c-0.476,0.665-1.037,1.161-1.685,1.486s-1.3,0.488-1.958,0.488
			c-1.338,0-2.484-0.54-3.438-1.618c-0.955-1.079-1.432-2.584-1.432-4.515c0-1.975,0.464-3.476,1.393-4.503s2.103-1.541,3.521-1.541
			c1.302,0,2.428,0.541,3.379,1.623v-5.792h3.082V96.381z M391.93,90.304c0,1.243,0.171,2.143,0.515,2.698
			c0.498,0.805,1.192,1.207,2.085,1.207c0.709,0,1.313-0.302,1.81-0.905s0.746-1.505,0.746-2.704c0-1.338-0.241-2.302-0.724-2.891
			s-1.101-0.883-1.854-0.883c-0.731,0-1.344,0.291-1.837,0.872C392.176,88.279,391.93,89.148,391.93,90.304z"/>
		<path fill="#414042" d="M409.942,92.673l3.071,0.516c-0.395,1.126-1.019,1.984-1.87,2.572c-0.853,0.589-1.918,0.884-3.198,0.884
			c-2.025,0-3.524-0.662-4.497-1.986c-0.769-1.06-1.152-2.398-1.152-4.015c0-1.931,0.505-3.442,1.514-4.536
			c1.01-1.093,2.286-1.64,3.829-1.64c1.733,0,3.101,0.572,4.103,1.717s1.48,2.897,1.437,5.26h-7.723
			c0.022,0.914,0.271,1.626,0.746,2.134c0.476,0.509,1.067,0.763,1.777,0.763c0.482,0,0.889-0.132,1.218-0.396
			C409.525,93.683,409.773,93.258,409.942,92.673z M410.117,89.558c-0.021-0.893-0.252-1.57-0.69-2.035
			c-0.439-0.464-0.973-0.696-1.602-0.696c-0.673,0-1.229,0.245-1.668,0.735c-0.438,0.489-0.654,1.155-0.647,1.996H410.117z"/>
		<path fill="#414042" d="M421.933,96.381V80.299h3.083v16.082H421.933z"/>
		<path fill="#414042" d="M430.479,88.285l-2.797-0.505c0.314-1.126,0.855-1.96,1.623-2.501c0.769-0.541,1.909-0.812,3.423-0.812
			c1.375,0,2.398,0.163,3.071,0.488s1.146,0.738,1.421,1.239s0.411,1.421,0.411,2.759l-0.032,3.599c0,1.023,0.049,1.778,0.147,2.265
			s0.283,1.008,0.554,1.563h-3.049c-0.081-0.205-0.18-0.508-0.297-0.91c-0.051-0.183-0.087-0.304-0.109-0.362
			c-0.526,0.512-1.09,0.896-1.689,1.151s-1.239,0.385-1.92,0.385c-1.199,0-2.145-0.326-2.835-0.977
			c-0.691-0.651-1.037-1.474-1.037-2.469c0-0.658,0.157-1.245,0.472-1.761c0.314-0.515,0.755-0.91,1.322-1.185
			c0.566-0.274,1.384-0.514,2.451-0.718c1.44-0.271,2.439-0.523,2.995-0.758v-0.307c0-0.593-0.146-1.015-0.438-1.268
			c-0.293-0.252-0.845-0.378-1.657-0.378c-0.548,0-0.976,0.107-1.283,0.323C430.918,87.365,430.669,87.744,430.479,88.285z
			 M434.604,90.786c-0.395,0.132-1.021,0.289-1.876,0.472s-1.415,0.362-1.679,0.538c-0.402,0.285-0.603,0.646-0.603,1.086
			c0,0.432,0.16,0.805,0.482,1.118c0.321,0.314,0.731,0.472,1.229,0.472c0.556,0,1.086-0.183,1.591-0.548
			c0.373-0.278,0.617-0.618,0.734-1.021c0.081-0.264,0.121-0.764,0.121-1.503L434.604,90.786L434.604,90.786z"/>
		<path fill="#414042" d="M457.07,88.176l-3.038,0.548c-0.103-0.606-0.335-1.063-0.697-1.371c-0.361-0.307-0.832-0.461-1.409-0.461
			c-0.768,0-1.381,0.266-1.838,0.796s-0.686,1.417-0.686,2.66c0,1.382,0.232,2.358,0.697,2.929c0.464,0.57,1.087,0.855,1.87,0.855
			c0.585,0,1.063-0.166,1.437-0.499s0.637-0.905,0.79-1.717l3.027,0.516c-0.314,1.39-0.917,2.439-1.81,3.148
			s-2.088,1.064-3.587,1.064c-1.704,0-3.063-0.538-4.075-1.613c-1.014-1.075-1.52-2.563-1.52-4.465c0-1.923,0.508-3.42,1.524-4.492
			c1.017-1.071,2.392-1.606,4.125-1.606c1.419,0,2.547,0.306,3.384,0.916C456.104,85.994,456.705,86.925,457.07,88.176z"/>
		<path fill="#414042" d="M461.711,88.285l-2.797-0.505c0.314-1.126,0.855-1.96,1.623-2.501c0.769-0.541,1.909-0.812,3.423-0.812
			c1.375,0,2.398,0.163,3.071,0.488s1.146,0.738,1.421,1.239s0.411,1.421,0.411,2.759l-0.032,3.599c0,1.023,0.049,1.778,0.147,2.265
			s0.283,1.008,0.554,1.563h-3.049c-0.081-0.205-0.18-0.508-0.297-0.91c-0.051-0.183-0.087-0.304-0.109-0.362
			c-0.526,0.512-1.09,0.896-1.689,1.151s-1.239,0.385-1.92,0.385c-1.199,0-2.145-0.326-2.835-0.977
			c-0.691-0.651-1.037-1.474-1.037-2.469c0-0.658,0.157-1.245,0.472-1.761c0.314-0.515,0.755-0.91,1.322-1.185
			c0.566-0.274,1.384-0.514,2.451-0.718c1.44-0.271,2.439-0.523,2.995-0.758v-0.307c0-0.593-0.146-1.015-0.438-1.268
			c-0.293-0.252-0.845-0.378-1.657-0.378c-0.548,0-0.976,0.107-1.283,0.323C462.15,87.365,461.901,87.744,461.711,88.285z
			 M465.836,90.786c-0.395,0.132-1.021,0.289-1.876,0.472s-1.415,0.362-1.679,0.538c-0.402,0.285-0.603,0.646-0.603,1.086
			c0,0.432,0.16,0.805,0.482,1.118c0.321,0.314,0.731,0.472,1.229,0.472c0.556,0,1.086-0.183,1.591-0.548
			c0.373-0.278,0.617-0.618,0.734-1.021c0.081-0.264,0.121-0.764,0.121-1.503L465.836,90.786L465.836,90.786z"/>
		<path fill="#414042" d="M471.902,96.381V80.299h3.083v16.082H471.902z"/>
		<path fill="#414042" d="M478.145,83.151v-2.853h3.083v2.853H478.145z M478.145,96.381v-11.65h3.083v11.65H478.145z"/>
		<path fill="#414042" d="M495.071,96.381h-2.862V94.67c-0.476,0.665-1.037,1.161-1.685,1.486s-1.3,0.488-1.958,0.488
			c-1.338,0-2.484-0.54-3.438-1.618c-0.955-1.079-1.432-2.584-1.432-4.515c0-1.975,0.464-3.476,1.393-4.503s2.103-1.541,3.521-1.541
			c1.302,0,2.428,0.541,3.379,1.623v-5.792h3.082V96.381z M486.845,90.304c0,1.243,0.171,2.143,0.515,2.698
			c0.498,0.805,1.192,1.207,2.085,1.207c0.709,0,1.313-0.302,1.81-0.905S492,91.799,492,90.6c0-1.338-0.241-2.302-0.724-2.891
			s-1.101-0.883-1.854-0.883c-0.731,0-1.344,0.291-1.837,0.872C487.091,88.279,486.845,89.148,486.845,90.304z"/>
		<path fill="#414042" d="M500.414,88.285l-2.797-0.505c0.314-1.126,0.855-1.96,1.623-2.501c0.769-0.541,1.909-0.812,3.423-0.812
			c1.375,0,2.398,0.163,3.071,0.488s1.146,0.738,1.421,1.239s0.411,1.421,0.411,2.759l-0.032,3.599c0,1.023,0.049,1.778,0.147,2.265
			s0.283,1.008,0.554,1.563h-3.049c-0.081-0.205-0.18-0.508-0.297-0.91c-0.051-0.183-0.087-0.304-0.109-0.362
			c-0.526,0.512-1.09,0.896-1.689,1.151s-1.239,0.385-1.92,0.385c-1.199,0-2.145-0.326-2.835-0.977
			c-0.691-0.651-1.037-1.474-1.037-2.469c0-0.658,0.157-1.245,0.472-1.761c0.314-0.515,0.755-0.91,1.322-1.185
			c0.566-0.274,1.384-0.514,2.451-0.718c1.44-0.271,2.439-0.523,2.995-0.758v-0.307c0-0.593-0.146-1.015-0.438-1.268
			c-0.293-0.252-0.845-0.378-1.657-0.378c-0.548,0-0.976,0.107-1.283,0.323C500.854,87.365,500.605,87.744,500.414,88.285z
			 M504.539,90.786c-0.395,0.132-1.021,0.289-1.876,0.472s-1.415,0.362-1.679,0.538c-0.402,0.285-0.603,0.646-0.603,1.086
			c0,0.432,0.16,0.805,0.482,1.118c0.321,0.314,0.731,0.472,1.229,0.472c0.556,0,1.086-0.183,1.591-0.548
			c0.373-0.278,0.617-0.618,0.734-1.021c0.081-0.264,0.121-0.764,0.121-1.503L504.539,90.786L504.539,90.786z"/>
		<path fill="#414042" d="M521.29,96.381h-2.862V94.67c-0.476,0.665-1.037,1.161-1.685,1.486s-1.3,0.488-1.958,0.488
			c-1.338,0-2.484-0.54-3.438-1.618c-0.955-1.079-1.432-2.584-1.432-4.515c0-1.975,0.464-3.476,1.393-4.503s2.103-1.541,3.521-1.541
			c1.302,0,2.428,0.541,3.379,1.623v-5.792h3.082V96.381z M513.063,90.304c0,1.243,0.171,2.143,0.515,2.698
			c0.498,0.805,1.192,1.207,2.085,1.207c0.709,0,1.313-0.302,1.81-0.905s0.746-1.505,0.746-2.704c0-1.338-0.241-2.302-0.724-2.891
			s-1.101-0.883-1.854-0.883c-0.731,0-1.344,0.291-1.837,0.872C513.31,88.279,513.063,89.148,513.063,90.304z"/>
		<path fill="#414042" d="M541.256,96.381h-2.862V94.67c-0.476,0.665-1.037,1.161-1.685,1.486s-1.3,0.488-1.958,0.488
			c-1.338,0-2.484-0.54-3.438-1.618c-0.955-1.079-1.432-2.584-1.432-4.515c0-1.975,0.464-3.476,1.393-4.503s2.103-1.541,3.521-1.541
			c1.302,0,2.428,0.541,3.379,1.623v-5.792h3.082V96.381z M533.029,90.304c0,1.243,0.171,2.143,0.515,2.698
			c0.498,0.805,1.192,1.207,2.085,1.207c0.709,0,1.313-0.302,1.81-0.905s0.746-1.505,0.746-2.704c0-1.338-0.241-2.302-0.724-2.891
			s-1.101-0.883-1.854-0.883c-0.731,0-1.344,0.291-1.837,0.872C533.275,88.279,533.029,89.148,533.029,90.304z"/>
		<path fill="#414042" d="M551.042,92.673l3.071,0.516c-0.395,1.126-1.019,1.984-1.87,2.572c-0.853,0.589-1.918,0.884-3.198,0.884
			c-2.025,0-3.524-0.662-4.497-1.986c-0.769-1.06-1.152-2.398-1.152-4.015c0-1.931,0.505-3.442,1.514-4.536
			c1.01-1.093,2.286-1.64,3.829-1.64c1.733,0,3.101,0.572,4.103,1.717s1.48,2.897,1.437,5.26h-7.723
			c0.022,0.914,0.271,1.626,0.746,2.134c0.476,0.509,1.067,0.763,1.777,0.763c0.482,0,0.889-0.132,1.218-0.396
			C550.625,93.683,550.873,93.258,551.042,92.673z M551.217,89.558c-0.021-0.893-0.252-1.57-0.69-2.035
			c-0.439-0.464-0.973-0.696-1.602-0.696c-0.673,0-1.229,0.245-1.668,0.735c-0.438,0.489-0.654,1.155-0.647,1.996H551.217z"/>
		<path fill="#414042" d="M313.312,123.341v-16.082h3.083v16.082H313.312z"/>
		<path fill="#414042" d="M318.841,117.352c0-1.024,0.252-2.015,0.757-2.973s1.22-1.689,2.145-2.194
			c0.926-0.505,1.958-0.757,3.1-0.757c1.762,0,3.206,0.572,4.333,1.717c1.126,1.145,1.689,2.591,1.689,4.338
			c0,1.763-0.569,3.224-1.706,4.383c-1.138,1.159-2.569,1.739-4.295,1.739c-1.067,0-2.086-0.242-3.055-0.725
			c-0.97-0.482-1.706-1.19-2.211-2.122C319.093,119.825,318.841,118.689,318.841,117.352z M322,117.516
			c0,1.156,0.274,2.041,0.823,2.655c0.548,0.614,1.225,0.921,2.029,0.921s1.479-0.307,2.023-0.921s0.817-1.507,0.817-2.677
			c0-1.142-0.272-2.019-0.817-2.633s-1.219-0.922-2.023-0.922s-1.481,0.308-2.029,0.922C322.274,115.476,322,116.36,322,117.516z"/>
		<path fill="#414042" d="M332.191,120.017l3.094-0.472c0.132,0.6,0.398,1.056,0.801,1.366s0.965,0.466,1.689,0.466
			c0.797,0,1.396-0.146,1.799-0.438c0.271-0.205,0.406-0.479,0.406-0.823c0-0.233-0.073-0.428-0.22-0.581
			c-0.153-0.146-0.497-0.281-1.031-0.406c-2.486-0.548-4.063-1.049-4.728-1.502c-0.922-0.629-1.383-1.503-1.383-2.622
			c0-1.01,0.398-1.857,1.196-2.545c0.797-0.688,2.033-1.031,3.708-1.031c1.594,0,2.778,0.26,3.554,0.778
			c0.775,0.52,1.309,1.287,1.602,2.304l-2.907,0.538c-0.124-0.454-0.36-0.801-0.707-1.042c-0.348-0.242-0.843-0.362-1.486-0.362
			c-0.813,0-1.394,0.113-1.744,0.34c-0.234,0.161-0.352,0.369-0.352,0.625c0,0.22,0.103,0.406,0.308,0.56
			c0.277,0.205,1.237,0.494,2.879,0.867s2.788,0.83,3.439,1.371c0.644,0.549,0.965,1.313,0.965,2.293
			c0,1.067-0.445,1.985-1.338,2.753s-2.212,1.152-3.96,1.152c-1.587,0-2.843-0.322-3.769-0.966
			C333.082,121.995,332.477,121.121,332.191,120.017z"/>
		<path fill="#414042" d="M352.037,123.341v-16.082h5.21c1.975,0,3.262,0.081,3.862,0.241c0.921,0.241,1.692,0.767,2.314,1.574
			c0.621,0.809,0.933,1.853,0.933,3.132c0,0.987-0.18,1.817-0.538,2.49s-0.813,1.201-1.365,1.585
			c-0.553,0.385-1.114,0.639-1.685,0.763c-0.775,0.153-1.897,0.23-3.367,0.23h-2.117v6.066L352.037,123.341L352.037,123.341z
			 M355.284,109.979v4.563h1.777c1.279,0,2.135-0.084,2.566-0.252c0.432-0.169,0.77-0.432,1.015-0.79s0.367-0.775,0.367-1.251
			c0-0.585-0.172-1.067-0.515-1.448c-0.345-0.38-0.779-0.617-1.306-0.713c-0.388-0.072-1.167-0.109-2.337-0.109L355.284,109.979
			L355.284,109.979z"/>
		<path fill="#414042" d="M369.95,123.341h-3.083v-11.65h2.863v1.657c0.49-0.783,0.931-1.299,1.322-1.547
			c0.391-0.249,0.835-0.373,1.333-0.373c0.702,0,1.378,0.193,2.029,0.581l-0.954,2.688c-0.52-0.336-1.002-0.504-1.448-0.504
			c-0.432,0-0.798,0.118-1.097,0.356c-0.301,0.237-0.536,0.667-0.708,1.289c-0.172,0.621-0.258,1.923-0.258,3.905v3.598H369.95z"/>
		<path fill="#414042" d="M375.029,117.352c0-1.024,0.252-2.015,0.757-2.973s1.22-1.689,2.145-2.194
			c0.926-0.505,1.958-0.757,3.1-0.757c1.762,0,3.206,0.572,4.333,1.717c1.126,1.145,1.689,2.591,1.689,4.338
			c0,1.763-0.569,3.224-1.706,4.383c-1.138,1.159-2.569,1.739-4.295,1.739c-1.067,0-2.086-0.242-3.055-0.725
			c-0.97-0.482-1.706-1.19-2.211-2.122C375.281,119.825,375.029,118.689,375.029,117.352z M378.189,117.516
			c0,1.156,0.274,2.041,0.823,2.655c0.548,0.614,1.225,0.921,2.029,0.921s1.479-0.307,2.023-0.921s0.817-1.507,0.817-2.677
			c0-1.142-0.272-2.019-0.817-2.633s-1.219-0.922-2.023-0.922s-1.481,0.308-2.029,0.922
			C378.463,115.476,378.189,116.36,378.189,117.516z"/>
		<path fill="#414042" d="M399.624,115.136l-3.038,0.548c-0.103-0.606-0.335-1.063-0.697-1.371
			c-0.361-0.307-0.832-0.461-1.409-0.461c-0.768,0-1.381,0.266-1.838,0.796s-0.686,1.417-0.686,2.66
			c0,1.382,0.232,2.358,0.697,2.929c0.464,0.57,1.087,0.855,1.87,0.855c0.585,0,1.063-0.166,1.437-0.499s0.637-0.905,0.79-1.717
			l3.027,0.516c-0.314,1.39-0.917,2.439-1.81,3.148s-2.088,1.064-3.587,1.064c-1.704,0-3.063-0.538-4.075-1.613
			c-1.014-1.075-1.52-2.563-1.52-4.465c0-1.923,0.508-3.42,1.524-4.492c1.017-1.071,2.392-1.606,4.125-1.606
			c1.419,0,2.547,0.306,3.384,0.916C398.657,112.954,399.259,113.885,399.624,115.136z"/>
		<path fill="#414042" d="M408.708,119.633l3.071,0.516c-0.395,1.126-1.019,1.984-1.87,2.572c-0.853,0.589-1.918,0.884-3.198,0.884
			c-2.025,0-3.524-0.662-4.497-1.986c-0.769-1.06-1.152-2.398-1.152-4.015c0-1.931,0.505-3.442,1.514-4.536
			c1.01-1.093,2.286-1.64,3.829-1.64c1.733,0,3.101,0.572,4.103,1.717s1.48,2.897,1.437,5.26h-7.723
			c0.022,0.914,0.271,1.626,0.746,2.134c0.476,0.509,1.067,0.763,1.777,0.763c0.482,0,0.889-0.132,1.218-0.396
			C408.291,120.643,408.539,120.218,408.708,119.633z M408.883,116.518c-0.021-0.893-0.252-1.57-0.69-2.035
			c-0.439-0.464-0.973-0.696-1.602-0.696c-0.673,0-1.229,0.245-1.668,0.735c-0.438,0.489-0.654,1.155-0.647,1.996H408.883z"/>
		<path fill="#414042" d="M413.37,120.017l3.094-0.472c0.132,0.6,0.398,1.056,0.801,1.366s0.965,0.466,1.689,0.466
			c0.797,0,1.396-0.146,1.799-0.438c0.271-0.205,0.406-0.479,0.406-0.823c0-0.233-0.073-0.428-0.22-0.581
			c-0.153-0.146-0.497-0.281-1.031-0.406c-2.486-0.548-4.063-1.049-4.728-1.502c-0.922-0.629-1.383-1.503-1.383-2.622
			c0-1.01,0.398-1.857,1.196-2.545c0.797-0.688,2.033-1.031,3.708-1.031c1.594,0,2.778,0.26,3.554,0.778
			c0.775,0.52,1.309,1.287,1.602,2.304l-2.907,0.538c-0.124-0.454-0.36-0.801-0.707-1.042c-0.348-0.242-0.843-0.362-1.486-0.362
			c-0.813,0-1.394,0.113-1.744,0.34c-0.234,0.161-0.352,0.369-0.352,0.625c0,0.22,0.103,0.406,0.308,0.56
			c0.277,0.205,1.237,0.494,2.879,0.867s2.788,0.83,3.439,1.371c0.644,0.549,0.965,1.313,0.965,2.293
			c0,1.067-0.445,1.985-1.338,2.753s-2.212,1.152-3.96,1.152c-1.587,0-2.843-0.322-3.769-0.966
			C414.261,121.995,413.655,121.121,413.37,120.017z"/>
		<path fill="#414042" d="M426.238,117.352c0-1.024,0.252-2.015,0.757-2.973s1.22-1.689,2.145-2.194
			c0.926-0.505,1.958-0.757,3.1-0.757c1.762,0,3.206,0.572,4.333,1.717c1.126,1.145,1.689,2.591,1.689,4.338
			c0,1.763-0.569,3.224-1.706,4.383c-1.138,1.159-2.569,1.739-4.295,1.739c-1.067,0-2.086-0.242-3.055-0.725
			c-0.97-0.482-1.706-1.19-2.211-2.122C426.49,119.825,426.238,118.689,426.238,117.352z M429.397,117.516
			c0,1.156,0.274,2.041,0.823,2.655c0.548,0.614,1.225,0.921,2.029,0.921s1.479-0.307,2.023-0.921s0.817-1.507,0.817-2.677
			c0-1.142-0.272-2.019-0.817-2.633s-1.219-0.922-2.023-0.922s-1.481,0.308-2.029,0.922
			C429.672,115.476,429.397,116.36,429.397,117.516z"/>
		<path fill="#414042" d="M439.589,120.017l3.094-0.472c0.132,0.6,0.398,1.056,0.801,1.366s0.965,0.466,1.689,0.466
			c0.797,0,1.396-0.146,1.799-0.438c0.271-0.205,0.406-0.479,0.406-0.823c0-0.233-0.073-0.428-0.22-0.581
			c-0.153-0.146-0.497-0.281-1.031-0.406c-2.486-0.548-4.063-1.049-4.728-1.502c-0.922-0.629-1.383-1.503-1.383-2.622
			c0-1.01,0.398-1.857,1.196-2.545c0.797-0.688,2.033-1.031,3.708-1.031c1.594,0,2.778,0.26,3.554,0.778
			c0.775,0.52,1.309,1.287,1.602,2.304l-2.907,0.538c-0.124-0.454-0.36-0.801-0.707-1.042c-0.348-0.242-0.843-0.362-1.486-0.362
			c-0.813,0-1.394,0.113-1.744,0.34c-0.234,0.161-0.352,0.369-0.352,0.625c0,0.22,0.103,0.406,0.308,0.56
			c0.277,0.205,1.237,0.494,2.879,0.867s2.788,0.83,3.439,1.371c0.644,0.549,0.965,1.313,0.965,2.293
			c0,1.067-0.445,1.985-1.338,2.753s-2.212,1.152-3.96,1.152c-1.587,0-2.843-0.322-3.769-0.966
			C440.48,121.995,439.874,121.121,439.589,120.017z"/>
		<path fill="#414042" d="M458.611,118.108l3.159-0.308c0.19,1.061,0.576,1.84,1.158,2.337c0.581,0.497,1.365,0.746,2.353,0.746
			c1.046,0,1.834-0.222,2.364-0.664s0.795-0.96,0.795-1.552c0-0.381-0.111-0.704-0.334-0.971c-0.224-0.268-0.613-0.5-1.169-0.697
			c-0.38-0.132-1.247-0.365-2.6-0.702c-1.74-0.431-2.962-0.961-3.664-1.591c-0.987-0.885-1.48-1.963-1.48-3.235
			c0-0.819,0.231-1.585,0.696-2.299c0.464-0.713,1.134-1.256,2.008-1.629c0.873-0.373,1.929-0.56,3.164-0.56
			c2.019,0,3.538,0.443,4.559,1.328c1.02,0.885,1.556,2.065,1.606,3.543l-3.247,0.143c-0.139-0.826-0.437-1.421-0.894-1.782
			c-0.457-0.362-1.143-0.544-2.057-0.544c-0.943,0-1.683,0.194-2.216,0.582c-0.345,0.249-0.516,0.581-0.516,0.998
			c0,0.381,0.16,0.706,0.482,0.977c0.409,0.344,1.404,0.702,2.983,1.075c1.58,0.373,2.748,0.759,3.505,1.157s1.35,0.943,1.777,1.634
			c0.428,0.691,0.642,1.546,0.642,2.562c0,0.922-0.256,1.785-0.768,2.589c-0.512,0.805-1.236,1.403-2.172,1.794
			c-0.937,0.392-2.103,0.587-3.5,0.587c-2.033,0-3.594-0.47-4.684-1.409C459.475,121.276,458.823,119.907,458.611,118.108z"/>
		<path fill="#414042" d="M473.684,117.352c0-1.024,0.252-2.015,0.757-2.973s1.22-1.689,2.145-2.194
			c0.926-0.505,1.958-0.757,3.1-0.757c1.762,0,3.206,0.572,4.333,1.717c1.126,1.145,1.689,2.591,1.689,4.338
			c0,1.763-0.569,3.224-1.706,4.383c-1.138,1.159-2.569,1.739-4.295,1.739c-1.067,0-2.086-0.242-3.055-0.725
			c-0.97-0.482-1.706-1.19-2.211-2.122C473.936,119.825,473.684,118.689,473.684,117.352z M476.843,117.516
			c0,1.156,0.274,2.041,0.823,2.655c0.548,0.614,1.225,0.921,2.029,0.921s1.479-0.307,2.023-0.921s0.817-1.507,0.817-2.677
			c0-1.142-0.272-2.019-0.817-2.633s-1.219-0.922-2.023-0.922s-1.481,0.308-2.029,0.922
			C477.117,115.476,476.843,116.36,476.843,117.516z"/>
		<path fill="#414042" d="M486.772,111.69h1.711v-0.877c0-0.98,0.104-1.712,0.313-2.194c0.209-0.482,0.593-0.876,1.152-1.179
			c0.559-0.304,1.267-0.456,2.122-0.456c0.878,0,1.737,0.132,2.578,0.396l-0.417,2.149c-0.49-0.116-0.962-0.175-1.415-0.175
			c-0.446,0-0.766,0.104-0.96,0.313c-0.193,0.208-0.291,0.608-0.291,1.201v0.822h2.304v2.425h-2.304v9.226h-3.082v-9.226h-1.711
			L486.772,111.69L486.772,111.69z"/>
		<path fill="#414042" d="M500.944,111.69v2.458h-2.106v4.694c0,0.951,0.021,1.505,0.061,1.662s0.132,0.287,0.274,0.39
			s0.316,0.153,0.521,0.153c0.285,0,0.698-0.099,1.24-0.296l0.263,2.392c-0.717,0.307-1.528,0.461-2.436,0.461
			c-0.556,0-1.057-0.094-1.503-0.28c-0.445-0.187-0.772-0.428-0.981-0.724c-0.208-0.297-0.353-0.697-0.434-1.201
			c-0.065-0.358-0.099-1.082-0.099-2.172v-5.079h-1.415v-2.458h1.415v-2.314l3.094-1.799v4.113L500.944,111.69L500.944,111.69z"/>
		<path fill="#414042" d="M505.255,123.341l-3.686-11.65h2.995l2.183,7.636l2.008-7.636h2.973l1.941,7.636l2.228-7.636h3.038
			l-3.74,11.65h-2.962l-2.008-7.492l-1.975,7.492H505.255z"/>
		<path fill="#414042" d="M522.861,115.245l-2.797-0.505c0.314-1.126,0.855-1.96,1.623-2.501c0.769-0.541,1.909-0.812,3.423-0.812
			c1.375,0,2.398,0.163,3.071,0.488s1.146,0.738,1.421,1.239s0.411,1.421,0.411,2.759l-0.032,3.599c0,1.023,0.049,1.778,0.147,2.265
			s0.283,1.008,0.554,1.563h-3.049c-0.081-0.205-0.18-0.508-0.297-0.91c-0.051-0.183-0.087-0.304-0.109-0.362
			c-0.526,0.512-1.09,0.896-1.689,1.151s-1.239,0.385-1.92,0.385c-1.199,0-2.145-0.326-2.835-0.977
			c-0.691-0.651-1.037-1.474-1.037-2.469c0-0.658,0.157-1.245,0.472-1.761c0.314-0.515,0.755-0.91,1.322-1.185
			c0.566-0.274,1.384-0.514,2.451-0.718c1.44-0.271,2.439-0.523,2.995-0.758v-0.307c0-0.593-0.146-1.015-0.438-1.268
			c-0.293-0.252-0.845-0.378-1.657-0.378c-0.548,0-0.976,0.107-1.283,0.323C523.301,114.325,523.052,114.704,522.861,115.245z
			 M526.986,117.746c-0.395,0.132-1.021,0.289-1.876,0.472s-1.415,0.362-1.679,0.538c-0.402,0.285-0.603,0.646-0.603,1.086
			c0,0.432,0.16,0.805,0.482,1.118c0.321,0.314,0.731,0.472,1.229,0.472c0.556,0,1.086-0.183,1.591-0.548
			c0.373-0.278,0.617-0.618,0.734-1.021c0.081-0.264,0.121-0.764,0.121-1.503v-0.614H526.986z"/>
		<path fill="#414042" d="M536.004,123.341h-3.083v-11.65h2.863v1.657c0.49-0.783,0.931-1.299,1.322-1.547
			c0.391-0.249,0.835-0.373,1.333-0.373c0.702,0,1.378,0.193,2.029,0.581l-0.954,2.688c-0.52-0.336-1.002-0.504-1.448-0.504
			c-0.432,0-0.798,0.118-1.097,0.356c-0.301,0.237-0.536,0.667-0.708,1.289c-0.172,0.621-0.258,1.923-0.258,3.905L536.004,123.341
			L536.004,123.341z"/>
		<path fill="#414042" d="M548.543,119.633l3.071,0.516c-0.395,1.126-1.019,1.984-1.87,2.572c-0.853,0.589-1.918,0.884-3.198,0.884
			c-2.025,0-3.524-0.662-4.497-1.986c-0.769-1.06-1.152-2.398-1.152-4.015c0-1.931,0.505-3.442,1.514-4.536
			c1.01-1.093,2.286-1.64,3.829-1.64c1.733,0,3.101,0.572,4.103,1.717s1.48,2.897,1.437,5.26h-7.723
			c0.022,0.914,0.271,1.626,0.746,2.134c0.476,0.509,1.067,0.763,1.777,0.763c0.482,0,0.889-0.132,1.218-0.396
			C548.126,120.643,548.374,120.218,548.543,119.633z M548.718,116.518c-0.021-0.893-0.252-1.57-0.69-2.035
			c-0.439-0.464-0.973-0.696-1.602-0.696c-0.673,0-1.229,0.245-1.668,0.735c-0.438,0.489-0.654,1.155-0.647,1.996H548.718z"/>
	</g>
	<rect x="83.385" y="214.398" fill="#DB5940" width="279.299" height="69.919"/>
	
		<linearGradient id="SVGID_2_" gradientUnits="userSpaceOnUse" x1="-160.615" y1="199.0365" x2="118.684" y2="199.0365" gradientTransform="matrix(1 0 0 -1 244 444.953)">
		<stop  offset="0" style="stop-color:#F4F5F5"/>
		<stop  offset="1" style="stop-color:#E7E7E7"/>
	</linearGradient>
	<rect x="83.385" y="210.957" fill="url(#SVGID_2_)" width="279.299" height="69.919"/>
	<g>
		<path fill="#414042" d="M115.39,252.594v-16.082h4.859l2.918,10.97l2.885-10.97h4.871v16.082h-3.017v-12.659l-3.192,12.659h-3.126
			l-3.182-12.659v12.659H115.39z"/>
		<path fill="#414042" d="M133.413,246.604c0-1.024,0.252-2.015,0.757-2.973s1.22-1.689,2.145-2.194
			c0.926-0.505,1.958-0.757,3.1-0.757c1.762,0,3.206,0.572,4.333,1.717c1.126,1.145,1.689,2.591,1.689,4.338
			c0,1.763-0.569,3.224-1.706,4.383c-1.138,1.159-2.569,1.739-4.295,1.739c-1.067,0-2.086-0.242-3.055-0.725
			c-0.97-0.482-1.706-1.19-2.211-2.122C133.665,249.078,133.413,247.942,133.413,246.604z M136.572,246.769
			c0,1.156,0.274,2.041,0.823,2.655c0.548,0.614,1.225,0.921,2.029,0.921s1.479-0.307,2.023-0.921s0.817-1.507,0.817-2.677
			c0-1.142-0.272-2.019-0.817-2.633s-1.219-0.922-2.023-0.922s-1.481,0.308-2.029,0.922
			C136.847,244.729,136.572,245.613,136.572,246.769z"/>
		<path fill="#414042" d="M158.534,252.594h-2.862v-1.711c-0.476,0.665-1.037,1.161-1.685,1.486s-1.3,0.488-1.958,0.488
			c-1.338,0-2.484-0.54-3.438-1.618c-0.955-1.079-1.432-2.584-1.432-4.515c0-1.975,0.464-3.476,1.393-4.503s2.103-1.541,3.521-1.541
			c1.302,0,2.428,0.541,3.379,1.623v-5.792h3.082V252.594z M150.308,246.517c0,1.243,0.171,2.143,0.515,2.698
			c0.498,0.805,1.192,1.207,2.085,1.207c0.709,0,1.313-0.302,1.81-0.905s0.746-1.505,0.746-2.704c0-1.338-0.241-2.302-0.724-2.891
			s-1.101-0.883-1.854-0.883c-0.731,0-1.344,0.291-1.837,0.872C150.554,244.492,150.308,245.361,150.308,246.517z"/>
		<path fill="#414042" d="M168.32,248.886l3.071,0.516c-0.395,1.126-1.019,1.984-1.87,2.572c-0.853,0.589-1.918,0.884-3.198,0.884
			c-2.025,0-3.524-0.662-4.497-1.986c-0.769-1.06-1.152-2.398-1.152-4.015c0-1.931,0.505-3.442,1.514-4.536
			c1.01-1.093,2.286-1.64,3.829-1.64c1.733,0,3.101,0.572,4.103,1.717s1.48,2.897,1.437,5.26h-7.723
			c0.022,0.914,0.271,1.626,0.746,2.134c0.476,0.509,1.067,0.763,1.777,0.763c0.482,0,0.889-0.132,1.218-0.396
			C167.903,249.896,168.151,249.471,168.32,248.886z M168.495,245.771c-0.021-0.893-0.252-1.57-0.69-2.035
			c-0.439-0.464-0.973-0.696-1.602-0.696c-0.673,0-1.229,0.245-1.668,0.735c-0.438,0.489-0.654,1.155-0.647,1.996L168.495,245.771
			L168.495,245.771z"/>
		<path fill="#414042" d="M174.068,252.594v-16.082h3.083v16.082H174.068z"/>
		<path fill="#414042" d="M179.598,246.604c0-1.024,0.252-2.015,0.757-2.973s1.22-1.689,2.145-2.194
			c0.926-0.505,1.958-0.757,3.1-0.757c1.762,0,3.206,0.572,4.333,1.717c1.126,1.145,1.689,2.591,1.689,4.338
			c0,1.763-0.569,3.224-1.706,4.383c-1.138,1.159-2.569,1.739-4.295,1.739c-1.067,0-2.086-0.242-3.055-0.725
			c-0.97-0.482-1.706-1.19-2.211-2.122C179.85,249.078,179.598,247.942,179.598,246.604z M182.757,246.769
			c0,1.156,0.274,2.041,0.823,2.655c0.548,0.614,1.225,0.921,2.029,0.921s1.479-0.307,2.023-0.921s0.817-1.507,0.817-2.677
			c0-1.142-0.272-2.019-0.817-2.633s-1.219-0.922-2.023-0.922s-1.481,0.308-2.029,0.922
			C183.031,244.729,182.757,245.613,182.757,246.769z"/>
		<path fill="#414042" d="M210.961,252.594h-2.862v-1.711c-0.476,0.665-1.037,1.161-1.685,1.486s-1.3,0.488-1.958,0.488
			c-1.338,0-2.484-0.54-3.438-1.618c-0.955-1.079-1.432-2.584-1.432-4.515c0-1.975,0.464-3.476,1.393-4.503s2.103-1.541,3.521-1.541
			c1.302,0,2.428,0.541,3.379,1.623v-5.792h3.082V252.594z M202.734,246.517c0,1.243,0.171,2.143,0.515,2.698
			c0.498,0.805,1.192,1.207,2.085,1.207c0.709,0,1.313-0.302,1.81-0.905s0.746-1.505,0.746-2.704c0-1.338-0.241-2.302-0.724-2.891
			s-1.101-0.883-1.854-0.883c-0.731,0-1.344,0.291-1.837,0.872C202.98,244.492,202.734,245.361,202.734,246.517z"/>
		<path fill="#414042" d="M220.747,248.886l3.071,0.516c-0.395,1.126-1.019,1.984-1.87,2.572c-0.853,0.589-1.918,0.884-3.198,0.884
			c-2.025,0-3.524-0.662-4.497-1.986c-0.769-1.06-1.152-2.398-1.152-4.015c0-1.931,0.505-3.442,1.514-4.536
			c1.01-1.093,2.286-1.64,3.829-1.64c1.733,0,3.101,0.572,4.103,1.717s1.48,2.897,1.437,5.26h-7.723
			c0.022,0.914,0.271,1.626,0.746,2.134c0.476,0.509,1.067,0.763,1.777,0.763c0.482,0,0.889-0.132,1.218-0.396
			C220.33,249.896,220.578,249.471,220.747,248.886z M220.922,245.771c-0.021-0.893-0.252-1.57-0.69-2.035
			c-0.439-0.464-0.973-0.696-1.602-0.696c-0.673,0-1.229,0.245-1.668,0.735c-0.438,0.489-0.654,1.155-0.647,1.996L220.922,245.771
			L220.922,245.771z"/>
		<path fill="#414042" d="M232.76,252.594v-16.082h5.21c1.975,0,3.262,0.081,3.862,0.241c0.921,0.241,1.692,0.767,2.314,1.574
			c0.621,0.809,0.933,1.853,0.933,3.132c0,0.987-0.18,1.817-0.538,2.49s-0.813,1.201-1.365,1.585
			c-0.553,0.385-1.114,0.639-1.685,0.763c-0.775,0.153-1.897,0.23-3.367,0.23h-2.117v6.066h-3.247V252.594z M236.007,239.232v4.563
			h1.777c1.279,0,2.135-0.084,2.566-0.252c0.432-0.169,0.77-0.432,1.015-0.79s0.367-0.775,0.367-1.251
			c0-0.585-0.172-1.067-0.515-1.448c-0.345-0.38-0.779-0.617-1.306-0.713c-0.388-0.072-1.167-0.109-2.337-0.109L236.007,239.232
			L236.007,239.232z"/>
		<path fill="#414042" d="M250.673,252.594h-3.083v-11.65h2.863v1.657c0.49-0.783,0.931-1.299,1.322-1.547
			c0.391-0.249,0.835-0.373,1.333-0.373c0.702,0,1.378,0.193,2.029,0.581l-0.954,2.688c-0.52-0.336-1.002-0.504-1.448-0.504
			c-0.432,0-0.798,0.118-1.097,0.356c-0.301,0.237-0.536,0.667-0.708,1.289c-0.172,0.621-0.258,1.923-0.258,3.905L250.673,252.594
			L250.673,252.594z"/>
		<path fill="#414042" d="M255.752,246.604c0-1.024,0.252-2.015,0.757-2.973s1.22-1.689,2.145-2.194
			c0.926-0.505,1.958-0.757,3.1-0.757c1.762,0,3.206,0.572,4.333,1.717c1.126,1.145,1.689,2.591,1.689,4.338
			c0,1.763-0.569,3.224-1.706,4.383c-1.138,1.159-2.569,1.739-4.295,1.739c-1.067,0-2.086-0.242-3.055-0.725
			c-0.97-0.482-1.706-1.19-2.211-2.122C256.004,249.078,255.752,247.942,255.752,246.604z M258.911,246.769
			c0,1.156,0.274,2.041,0.823,2.655c0.548,0.614,1.225,0.921,2.029,0.921s1.479-0.307,2.023-0.921s0.817-1.507,0.817-2.677
			c0-1.142-0.272-2.019-0.817-2.633s-1.219-0.922-2.023-0.922s-1.481,0.308-2.029,0.922
			C259.186,244.729,258.911,245.613,258.911,246.769z"/>
		<path fill="#414042" d="M280.347,244.389l-3.038,0.548c-0.103-0.606-0.335-1.063-0.697-1.371
			c-0.361-0.307-0.832-0.461-1.409-0.461c-0.768,0-1.381,0.266-1.838,0.796s-0.686,1.417-0.686,2.66
			c0,1.382,0.232,2.358,0.697,2.929c0.464,0.57,1.087,0.855,1.87,0.855c0.585,0,1.063-0.166,1.437-0.499s0.637-0.905,0.79-1.717
			l3.027,0.516c-0.314,1.39-0.917,2.439-1.81,3.148s-2.088,1.064-3.587,1.064c-1.704,0-3.063-0.538-4.075-1.613
			c-1.014-1.075-1.52-2.563-1.52-4.465c0-1.923,0.508-3.42,1.524-4.492c1.017-1.071,2.392-1.606,4.125-1.606
			c1.419,0,2.547,0.306,3.384,0.916C279.38,242.207,279.981,243.138,280.347,244.389z"/>
		<path fill="#414042" d="M289.431,248.886l3.071,0.516c-0.395,1.126-1.019,1.984-1.87,2.572c-0.853,0.589-1.918,0.884-3.198,0.884
			c-2.025,0-3.524-0.662-4.497-1.986c-0.769-1.06-1.152-2.398-1.152-4.015c0-1.931,0.505-3.442,1.514-4.536
			c1.01-1.093,2.286-1.64,3.829-1.64c1.733,0,3.101,0.572,4.103,1.717s1.48,2.897,1.437,5.26h-7.723
			c0.022,0.914,0.271,1.626,0.746,2.134c0.476,0.509,1.067,0.763,1.777,0.763c0.482,0,0.889-0.132,1.218-0.396
			C289.014,249.896,289.262,249.471,289.431,248.886z M289.605,245.771c-0.021-0.893-0.252-1.57-0.69-2.035
			c-0.439-0.464-0.973-0.696-1.602-0.696c-0.673,0-1.229,0.245-1.668,0.735c-0.438,0.489-0.654,1.155-0.647,1.996L289.605,245.771
			L289.605,245.771z"/>
		<path fill="#414042" d="M294.093,249.27l3.094-0.472c0.132,0.6,0.398,1.056,0.801,1.366s0.965,0.466,1.689,0.466
			c0.797,0,1.396-0.146,1.799-0.438c0.271-0.205,0.406-0.479,0.406-0.823c0-0.233-0.073-0.428-0.22-0.581
			c-0.153-0.146-0.497-0.281-1.031-0.406c-2.486-0.548-4.063-1.049-4.728-1.502c-0.922-0.629-1.383-1.503-1.383-2.622
			c0-1.01,0.398-1.857,1.196-2.545c0.797-0.688,2.033-1.031,3.708-1.031c1.594,0,2.778,0.26,3.554,0.778
			c0.775,0.52,1.309,1.287,1.602,2.304l-2.907,0.538c-0.124-0.454-0.36-0.801-0.707-1.042c-0.348-0.242-0.843-0.362-1.486-0.362
			c-0.813,0-1.394,0.113-1.744,0.34c-0.234,0.161-0.352,0.369-0.352,0.625c0,0.22,0.103,0.406,0.308,0.56
			c0.277,0.205,1.237,0.494,2.879,0.867s2.788,0.83,3.439,1.371c0.644,0.549,0.965,1.313,0.965,2.293
			c0,1.067-0.445,1.985-1.338,2.753s-2.212,1.152-3.96,1.152c-1.587,0-2.843-0.322-3.769-0.966
			C294.983,251.248,294.378,250.374,294.093,249.27z"/>
		<path fill="#414042" d="M306.961,246.604c0-1.024,0.252-2.015,0.757-2.973s1.22-1.689,2.145-2.194
			c0.926-0.505,1.958-0.757,3.1-0.757c1.762,0,3.206,0.572,4.333,1.717c1.126,1.145,1.689,2.591,1.689,4.338
			c0,1.763-0.569,3.224-1.706,4.383c-1.138,1.159-2.569,1.739-4.295,1.739c-1.067,0-2.086-0.242-3.055-0.725
			c-0.97-0.482-1.706-1.19-2.211-2.122C307.213,249.078,306.961,247.942,306.961,246.604z M310.12,246.769
			c0,1.156,0.274,2.041,0.823,2.655c0.548,0.614,1.225,0.921,2.029,0.921s1.479-0.307,2.023-0.921s0.817-1.507,0.817-2.677
			c0-1.142-0.272-2.019-0.817-2.633s-1.219-0.922-2.023-0.922s-1.481,0.308-2.029,0.922
			C310.395,244.729,310.12,245.613,310.12,246.769z"/>
		<path fill="#414042" d="M320.312,249.27l3.094-0.472c0.132,0.6,0.398,1.056,0.801,1.366s0.965,0.466,1.689,0.466
			c0.797,0,1.396-0.146,1.799-0.438c0.271-0.205,0.406-0.479,0.406-0.823c0-0.233-0.073-0.428-0.22-0.581
			c-0.153-0.146-0.497-0.281-1.031-0.406c-2.486-0.548-4.063-1.049-4.728-1.502c-0.922-0.629-1.383-1.503-1.383-2.622
			c0-1.01,0.398-1.857,1.196-2.545c0.797-0.688,2.033-1.031,3.708-1.031c1.594,0,2.778,0.26,3.554,0.778
			c0.775,0.52,1.309,1.287,1.602,2.304l-2.907,0.538c-0.124-0.454-0.36-0.801-0.707-1.042c-0.348-0.242-0.843-0.362-1.486-0.362
			c-0.813,0-1.394,0.113-1.744,0.34c-0.234,0.161-0.352,0.369-0.352,0.625c0,0.22,0.103,0.406,0.308,0.56
			c0.277,0.205,1.237,0.494,2.879,0.867s2.788,0.83,3.439,1.371c0.644,0.549,0.965,1.313,0.965,2.293
			c0,1.067-0.445,1.985-1.338,2.753s-2.212,1.152-3.96,1.152c-1.587,0-2.843-0.322-3.769-0.966
			C321.202,251.248,320.597,250.374,320.312,249.27z"/>
	</g>
	<rect x="83.385" y="359.035" fill="#DB5940" width="279.299" height="69.918"/>
	
		<linearGradient id="SVGID_3_" gradientUnits="userSpaceOnUse" x1="-160.615" y1="54.401" x2="118.684" y2="54.401" gradientTransform="matrix(1 0 0 -1 244 444.953)">
		<stop  offset="0" style="stop-color:#F4F5F5"/>
		<stop  offset="1" style="stop-color:#E7E7E7"/>
	</linearGradient>
	<rect x="83.385" y="355.593" fill="url(#SVGID_3_)" width="279.299" height="69.918"/>
	<g>
		<polygon fill="#DB5940" points="235.361,331.156 221.254,355.593 207.145,331.156 		"/>
		<rect x="219.4" y="284.318" fill="#DB5940" width="4.084" height="57.354"/>
	</g>
	<g>
		<polygon fill="#DB5940" points="653.521,331.156 639.413,355.593 625.305,331.156 		"/>
		<rect x="637.559" y="284.318" fill="#DB5940" width="4.084" height="57.354"/>
	</g>
	<g>
		<path fill="#414042" d="M120.288,398.115v-16.082h3.247v16.082H120.288z"/>
		<path fill="#414042" d="M125.806,392.883l3.159-0.308c0.19,1.061,0.576,1.84,1.158,2.337c0.581,0.497,1.365,0.746,2.353,0.746
			c1.046,0,1.834-0.222,2.364-0.664s0.795-0.96,0.795-1.552c0-0.381-0.111-0.704-0.334-0.971c-0.224-0.268-0.613-0.5-1.169-0.697
			c-0.38-0.132-1.247-0.365-2.6-0.702c-1.74-0.431-2.962-0.961-3.664-1.591c-0.987-0.885-1.48-1.963-1.48-3.235
			c0-0.819,0.231-1.585,0.696-2.299c0.464-0.713,1.134-1.256,2.008-1.629c0.873-0.373,1.929-0.56,3.164-0.56
			c2.019,0,3.538,0.443,4.559,1.328c1.02,0.885,1.556,2.065,1.606,3.543l-3.247,0.143c-0.139-0.826-0.437-1.421-0.894-1.782
			c-0.457-0.362-1.143-0.544-2.057-0.544c-0.943,0-1.683,0.194-2.216,0.582c-0.345,0.249-0.516,0.581-0.516,0.998
			c0,0.381,0.16,0.706,0.482,0.977c0.409,0.344,1.404,0.702,2.983,1.075c1.58,0.373,2.748,0.759,3.505,1.157s1.35,0.943,1.777,1.634
			c0.428,0.691,0.642,1.546,0.642,2.562c0,0.922-0.256,1.785-0.768,2.589c-0.512,0.805-1.236,1.403-2.172,1.794
			c-0.937,0.392-2.103,0.587-3.5,0.587c-2.033,0-3.594-0.47-4.684-1.409C126.669,396.051,126.018,394.682,125.806,392.883z"/>
		<path fill="#414042" d="M140.955,390.173c0-1.638,0.245-3.013,0.734-4.124c0.366-0.819,0.865-1.555,1.498-2.205
			c0.632-0.651,1.325-1.134,2.078-1.448c1.002-0.424,2.157-0.637,3.467-0.637c2.369,0,4.266,0.735,5.688,2.205
			c1.423,1.47,2.134,3.515,2.134,6.133c0,2.596-0.705,4.627-2.117,6.094c-1.411,1.466-3.298,2.199-5.66,2.199
			c-2.392,0-4.293-0.729-5.704-2.188C141.66,394.742,140.955,392.732,140.955,390.173z M144.301,390.063
			c0,1.821,0.42,3.201,1.262,4.141c0.841,0.94,1.908,1.41,3.203,1.41c1.294,0,2.356-0.467,3.187-1.398
			c0.83-0.933,1.245-2.331,1.245-4.196c0-1.843-0.404-3.218-1.212-4.125c-0.809-0.906-1.882-1.36-3.22-1.36
			c-1.339,0-2.417,0.459-3.236,1.377S144.301,388.213,144.301,390.063z"/>
		<path fill="#414042" d="M157.42,398.39l3.982-16.631h2.314l-4.025,16.631H157.42z"/>
		<path fill="#414042" d="M165.231,398.115v-16.082h3.247v16.082H165.231z"/>
		<path fill="#414042" d="M171.572,398.115v-16.082h11.924v2.721h-8.677v3.565h8.073v2.709h-8.073v4.377h8.984v2.71L171.572,398.115
			L171.572,398.115z"/>
		<path fill="#414042" d="M196.846,392.202l3.148,0.999c-0.482,1.755-1.285,3.059-2.407,3.91c-1.123,0.853-2.547,1.278-4.273,1.278
			c-2.135,0-3.891-0.729-5.266-2.188s-2.062-3.454-2.062-5.984c0-2.677,0.69-4.755,2.073-6.236c1.382-1.48,3.199-2.222,5.452-2.222
			c1.967,0,3.564,0.582,4.793,1.744c0.731,0.688,1.28,1.675,1.646,2.962l-3.214,0.769c-0.19-0.834-0.587-1.492-1.19-1.975
			c-0.604-0.483-1.336-0.725-2.199-0.725c-1.192,0-2.159,0.428-2.901,1.284c-0.742,0.855-1.113,2.241-1.113,4.157
			c0,2.033,0.365,3.481,1.097,4.344c0.731,0.863,1.682,1.295,2.853,1.295c0.862,0,1.604-0.274,2.227-0.823
			C196.129,394.243,196.575,393.38,196.846,392.202z"/>
		<path fill="#414042" d="M216.23,398.115h-3.083v-11.617c-1.126,1.053-2.453,1.832-3.981,2.337v-2.798
			c0.804-0.263,1.678-0.762,2.621-1.497c0.944-0.735,1.591-1.593,1.942-2.572h2.501L216.23,398.115L216.23,398.115z"/>
		<path fill="#414042" d="M231.249,395.252v2.863h-10.806c0.117-1.082,0.468-2.108,1.053-3.077s1.74-2.254,3.467-3.855
			c1.39-1.295,2.241-2.173,2.556-2.633c0.425-0.637,0.637-1.266,0.637-1.887c0-0.688-0.185-1.216-0.554-1.586
			c-0.37-0.369-0.88-0.554-1.53-0.554c-0.645,0-1.156,0.194-1.536,0.581c-0.381,0.388-0.6,1.031-0.658,1.932l-3.071-0.308
			c0.183-1.696,0.757-2.914,1.722-3.653c0.966-0.738,2.172-1.107,3.62-1.107c1.587,0,2.834,0.428,3.741,1.283
			c0.906,0.855,1.36,1.92,1.36,3.192c0,0.724-0.13,1.413-0.39,2.067c-0.26,0.655-0.671,1.341-1.234,2.058
			c-0.373,0.475-1.046,1.159-2.019,2.051c-0.973,0.893-1.589,1.485-1.849,1.777c-0.26,0.293-0.47,0.578-0.631,0.855h6.122V395.252z"
			/>
		<path fill="#414042" d="M243.744,395.252v2.863h-10.806c0.117-1.082,0.468-2.108,1.053-3.077s1.74-2.254,3.467-3.855
			c1.39-1.295,2.241-2.173,2.556-2.633c0.425-0.637,0.637-1.266,0.637-1.887c0-0.688-0.185-1.216-0.554-1.586
			c-0.37-0.369-0.88-0.554-1.53-0.554c-0.645,0-1.156,0.194-1.536,0.581c-0.381,0.388-0.6,1.031-0.658,1.932l-3.071-0.308
			c0.183-1.696,0.757-2.914,1.722-3.653c0.966-0.738,2.172-1.107,3.62-1.107c1.587,0,2.834,0.428,3.741,1.283
			c0.906,0.855,1.36,1.92,1.36,3.192c0,0.724-0.13,1.413-0.39,2.067c-0.26,0.655-0.671,1.341-1.234,2.058
			c-0.373,0.475-1.046,1.159-2.019,2.051c-0.973,0.893-1.589,1.485-1.849,1.777c-0.26,0.293-0.47,0.578-0.631,0.855h6.122V395.252z"
			/>
		<path fill="#414042" d="M251.039,381.968c1.558,0,2.775,0.556,3.653,1.667c1.046,1.316,1.568,3.5,1.568,6.549
			c0,3.043-0.526,5.229-1.58,6.561c-0.87,1.097-2.084,1.646-3.642,1.646c-1.565,0-2.826-0.602-3.784-1.805
			c-0.959-1.203-1.438-3.348-1.438-6.434c0-3.028,0.526-5.207,1.58-6.538C248.268,382.516,249.481,381.968,251.039,381.968z
			 M251.039,384.523c-0.373,0-0.706,0.119-0.998,0.356c-0.293,0.238-0.52,0.664-0.681,1.278c-0.212,0.797-0.317,2.139-0.317,4.025
			c0,1.888,0.095,3.184,0.285,3.89c0.189,0.705,0.43,1.175,0.718,1.409c0.289,0.234,0.62,0.352,0.993,0.352s0.706-0.119,0.998-0.357
			c0.293-0.237,0.52-0.663,0.681-1.277c0.212-0.79,0.317-2.128,0.317-4.016c0-1.887-0.095-3.183-0.285-3.889
			c-0.189-0.705-0.43-1.177-0.718-1.415C251.743,384.643,251.412,384.523,251.039,384.523z"/>
		<path fill="#414042" d="M258.323,385.116v-2.863h10.542v2.237c-0.87,0.856-1.755,2.085-2.654,3.687s-1.585,3.304-2.057,5.106
			s-0.704,3.413-0.697,4.832h-2.973c0.052-2.223,0.511-4.49,1.377-6.802c0.866-2.311,2.023-4.377,3.472-6.197H258.323z"/>
		<path fill="#414042" d="M272.069,389.548v-3.083h3.082v3.083H272.069z M272.069,398.115v-3.083h3.082v3.083H272.069z"/>
		<path fill="#414042" d="M288.711,395.252v2.863h-10.806c0.117-1.082,0.468-2.108,1.053-3.077s1.74-2.254,3.467-3.855
			c1.39-1.295,2.241-2.173,2.556-2.633c0.425-0.637,0.637-1.266,0.637-1.887c0-0.688-0.185-1.216-0.554-1.586
			c-0.37-0.369-0.88-0.554-1.53-0.554c-0.645,0-1.156,0.194-1.536,0.581c-0.381,0.388-0.6,1.031-0.658,1.932l-3.071-0.308
			c0.183-1.696,0.757-2.914,1.722-3.653c0.966-0.738,2.172-1.107,3.62-1.107c1.587,0,2.834,0.428,3.741,1.283
			c0.906,0.855,1.36,1.92,1.36,3.192c0,0.724-0.13,1.413-0.39,2.067c-0.26,0.655-0.671,1.341-1.234,2.058
			c-0.373,0.475-1.046,1.159-2.019,2.051c-0.973,0.893-1.589,1.485-1.849,1.777c-0.26,0.293-0.47,0.578-0.631,0.855h6.122V395.252z"
			/>
		<path fill="#414042" d="M296.006,381.968c1.558,0,2.775,0.556,3.653,1.667c1.046,1.316,1.568,3.5,1.568,6.549
			c0,3.043-0.526,5.229-1.58,6.561c-0.87,1.097-2.084,1.646-3.642,1.646c-1.565,0-2.826-0.602-3.784-1.805
			c-0.959-1.203-1.438-3.348-1.438-6.434c0-3.028,0.526-5.207,1.58-6.538C293.234,382.516,294.448,381.968,296.006,381.968z
			 M296.006,384.523c-0.373,0-0.706,0.119-0.998,0.356c-0.293,0.238-0.52,0.664-0.681,1.278c-0.212,0.797-0.317,2.139-0.317,4.025
			c0,1.888,0.095,3.184,0.285,3.89c0.189,0.705,0.43,1.175,0.718,1.409c0.289,0.234,0.62,0.352,0.993,0.352s0.706-0.119,0.998-0.357
			c0.293-0.237,0.52-0.663,0.681-1.277c0.212-0.79,0.317-2.128,0.317-4.016c0-1.887-0.095-3.183-0.285-3.889
			c-0.189-0.705-0.43-1.177-0.718-1.415C296.71,384.643,296.379,384.523,296.006,384.523z"/>
		<path fill="#414042" d="M308.501,381.968c1.558,0,2.775,0.556,3.653,1.667c1.046,1.316,1.568,3.5,1.568,6.549
			c0,3.043-0.526,5.229-1.58,6.561c-0.87,1.097-2.084,1.646-3.642,1.646c-1.565,0-2.826-0.602-3.784-1.805
			c-0.959-1.203-1.438-3.348-1.438-6.434c0-3.028,0.526-5.207,1.58-6.538C305.73,382.516,306.943,381.968,308.501,381.968z
			 M308.501,384.523c-0.373,0-0.706,0.119-0.998,0.356c-0.293,0.238-0.52,0.664-0.681,1.278c-0.212,0.797-0.317,2.139-0.317,4.025
			c0,1.888,0.095,3.184,0.285,3.89c0.189,0.705,0.43,1.175,0.718,1.409c0.289,0.234,0.62,0.352,0.993,0.352s0.706-0.119,0.998-0.357
			c0.293-0.237,0.52-0.663,0.681-1.277c0.212-0.79,0.317-2.128,0.317-4.016c0-1.887-0.095-3.183-0.285-3.889
			c-0.189-0.705-0.43-1.177-0.718-1.415C309.205,384.643,308.874,384.523,308.501,384.523z"/>
		<path fill="#414042" d="M318.429,389.438c-0.797-0.337-1.376-0.8-1.738-1.388c-0.362-0.589-0.543-1.234-0.543-1.937
			c0-1.199,0.419-2.19,1.256-2.973c0.838-0.783,2.027-1.174,3.571-1.174c1.528,0,2.715,0.391,3.56,1.174
			c0.845,0.782,1.267,1.773,1.267,2.973c0,0.746-0.193,1.409-0.581,1.991c-0.388,0.581-0.933,1.025-1.635,1.333
			c0.893,0.358,1.57,0.881,2.035,1.568c0.464,0.688,0.696,1.48,0.696,2.381c0,1.484-0.474,2.69-1.421,3.619
			c-0.946,0.93-2.206,1.394-3.778,1.394c-1.463,0-2.681-0.384-3.653-1.151c-1.148-0.907-1.723-2.15-1.723-3.73
			c0-0.87,0.216-1.669,0.647-2.396S317.5,389.833,318.429,389.438z M318.78,393.223c0,0.849,0.218,1.51,0.652,1.985
			c0.436,0.476,0.979,0.713,1.629,0.713c0.637,0,1.163-0.229,1.58-0.686s0.625-1.117,0.625-1.979c0-0.754-0.212-1.358-0.636-1.815
			c-0.425-0.457-0.962-0.686-1.612-0.686c-0.754,0-1.315,0.259-1.685,0.778S318.78,392.615,318.78,393.223z M319.065,386.334
			c0,0.614,0.174,1.093,0.521,1.437c0.347,0.344,0.81,0.516,1.388,0.516c0.585,0,1.053-0.174,1.403-0.521
			c0.352-0.348,0.527-0.829,0.527-1.443c0-0.577-0.174-1.04-0.521-1.388c-0.348-0.347-0.807-0.521-1.377-0.521
			c-0.592,0-1.063,0.176-1.415,0.526C319.241,385.291,319.065,385.756,319.065,386.334z"/>
	</g>
	<rect x="499.951" y="214.398" fill="#DB5940" width="279.299" height="69.919"/>
	
		<linearGradient id="SVGID_4_" gradientUnits="userSpaceOnUse" x1="255.951" y1="199.0365" x2="535.25" y2="199.0365" gradientTransform="matrix(1 0 0 -1 244 444.953)">
		<stop  offset="0" style="stop-color:#F4F5F5"/>
		<stop  offset="1" style="stop-color:#E7E7E7"/>
	</linearGradient>
	<rect x="499.951" y="210.957" fill="url(#SVGID_4_)" width="279.299" height="69.919"/>
	<g>
		<path fill="#414042" d="M523.225,252.594v-16.082h4.859l2.918,10.97l2.885-10.97h4.871v16.082h-3.017v-12.659l-3.192,12.659
			h-3.126l-3.182-12.659v12.659H523.225z"/>
		<path fill="#414042" d="M541.248,246.604c0-1.024,0.252-2.015,0.757-2.973s1.22-1.689,2.145-2.194
			c0.926-0.505,1.958-0.757,3.1-0.757c1.762,0,3.206,0.572,4.333,1.717c1.126,1.145,1.689,2.591,1.689,4.338
			c0,1.763-0.569,3.224-1.706,4.383c-1.138,1.159-2.569,1.739-4.295,1.739c-1.067,0-2.086-0.242-3.055-0.725
			c-0.97-0.482-1.706-1.19-2.211-2.122C541.5,249.078,541.248,247.942,541.248,246.604z M544.407,246.769
			c0,1.156,0.274,2.041,0.823,2.655c0.548,0.614,1.225,0.921,2.029,0.921s1.479-0.307,2.023-0.921s0.817-1.507,0.817-2.677
			c0-1.142-0.272-2.019-0.817-2.633s-1.219-0.922-2.023-0.922s-1.481,0.308-2.029,0.922
			C544.682,244.729,544.407,245.613,544.407,246.769z"/>
		<path fill="#414042" d="M566.369,252.594h-2.862v-1.711c-0.476,0.665-1.037,1.161-1.685,1.486s-1.3,0.488-1.958,0.488
			c-1.338,0-2.484-0.54-3.438-1.618c-0.955-1.079-1.432-2.584-1.432-4.515c0-1.975,0.464-3.476,1.393-4.503s2.103-1.541,3.521-1.541
			c1.302,0,2.428,0.541,3.379,1.623v-5.792h3.082V252.594z M558.143,246.517c0,1.243,0.171,2.143,0.515,2.698
			c0.498,0.805,1.192,1.207,2.085,1.207c0.709,0,1.313-0.302,1.81-0.905s0.746-1.505,0.746-2.704c0-1.338-0.241-2.302-0.724-2.891
			s-1.101-0.883-1.854-0.883c-0.731,0-1.344,0.291-1.837,0.872C558.389,244.492,558.143,245.361,558.143,246.517z"/>
		<path fill="#414042" d="M576.155,248.886l3.071,0.516c-0.395,1.126-1.019,1.984-1.87,2.572c-0.853,0.589-1.918,0.884-3.198,0.884
			c-2.025,0-3.524-0.662-4.497-1.986c-0.769-1.06-1.152-2.398-1.152-4.015c0-1.931,0.505-3.442,1.514-4.536
			c1.01-1.093,2.286-1.64,3.829-1.64c1.733,0,3.101,0.572,4.103,1.717s1.48,2.897,1.437,5.26h-7.723
			c0.022,0.914,0.271,1.626,0.746,2.134c0.476,0.509,1.067,0.763,1.777,0.763c0.482,0,0.889-0.132,1.218-0.396
			C575.738,249.896,575.986,249.471,576.155,248.886z M576.33,245.771c-0.021-0.893-0.252-1.57-0.69-2.035
			c-0.439-0.464-0.973-0.696-1.602-0.696c-0.673,0-1.229,0.245-1.668,0.735c-0.438,0.489-0.654,1.155-0.647,1.996L576.33,245.771
			L576.33,245.771z"/>
		<path fill="#414042" d="M581.903,252.594v-16.082h3.083v16.082H581.903z"/>
		<path fill="#414042" d="M587.433,246.604c0-1.024,0.252-2.015,0.757-2.973s1.22-1.689,2.145-2.194
			c0.926-0.505,1.958-0.757,3.1-0.757c1.762,0,3.206,0.572,4.333,1.717c1.126,1.145,1.689,2.591,1.689,4.338
			c0,1.763-0.569,3.224-1.706,4.383c-1.138,1.159-2.569,1.739-4.295,1.739c-1.067,0-2.086-0.242-3.055-0.725
			c-0.97-0.482-1.706-1.19-2.211-2.122C587.685,249.078,587.433,247.942,587.433,246.604z M590.592,246.769
			c0,1.156,0.274,2.041,0.823,2.655c0.548,0.614,1.225,0.921,2.029,0.921s1.479-0.307,2.023-0.921s0.817-1.507,0.817-2.677
			c0-1.142-0.272-2.019-0.817-2.633s-1.219-0.922-2.023-0.922s-1.481,0.308-2.029,0.922
			C590.866,244.729,590.592,245.613,590.592,246.769z"/>
		<path fill="#414042" d="M618.796,252.594h-2.862v-1.711c-0.476,0.665-1.037,1.161-1.685,1.486s-1.3,0.488-1.958,0.488
			c-1.338,0-2.484-0.54-3.438-1.618c-0.955-1.079-1.432-2.584-1.432-4.515c0-1.975,0.464-3.476,1.393-4.503s2.103-1.541,3.521-1.541
			c1.302,0,2.428,0.541,3.379,1.623v-5.792h3.082V252.594z M610.569,246.517c0,1.243,0.171,2.143,0.515,2.698
			c0.498,0.805,1.192,1.207,2.085,1.207c0.709,0,1.313-0.302,1.81-0.905s0.746-1.505,0.746-2.704c0-1.338-0.241-2.302-0.724-2.891
			s-1.101-0.883-1.854-0.883c-0.731,0-1.344,0.291-1.837,0.872C610.815,244.492,610.569,245.361,610.569,246.517z"/>
		<path fill="#414042" d="M628.582,248.886l3.071,0.516c-0.395,1.126-1.019,1.984-1.87,2.572c-0.853,0.589-1.918,0.884-3.198,0.884
			c-2.025,0-3.524-0.662-4.497-1.986c-0.769-1.06-1.152-2.398-1.152-4.015c0-1.931,0.505-3.442,1.514-4.536
			c1.01-1.093,2.286-1.64,3.829-1.64c1.733,0,3.101,0.572,4.103,1.717s1.48,2.897,1.437,5.26h-7.723
			c0.022,0.914,0.271,1.626,0.746,2.134c0.476,0.509,1.067,0.763,1.777,0.763c0.482,0,0.889-0.132,1.218-0.396
			C628.165,249.896,628.413,249.471,628.582,248.886z M628.757,245.771c-0.021-0.893-0.252-1.57-0.69-2.035
			c-0.439-0.464-0.973-0.696-1.602-0.696c-0.673,0-1.229,0.245-1.668,0.735c-0.438,0.489-0.654,1.155-0.647,1.996L628.757,245.771
			L628.757,245.771z"/>
		<path fill="#414042" d="M640.595,252.594v-16.082h11.924v2.721h-8.677v3.565h8.073v2.709h-8.073v4.377h8.984v2.71L640.595,252.594
			L640.595,252.594z"/>
		<path fill="#414042" d="M658.76,252.594l-4.694-11.65h3.235l2.194,5.946l0.637,1.985c0.168-0.505,0.273-0.837,0.317-0.998
			c0.103-0.329,0.212-0.658,0.329-0.987l2.216-5.946h3.171l-4.63,11.65H658.76z"/>
		<path fill="#414042" d="M670.355,244.498l-2.797-0.505c0.314-1.126,0.855-1.96,1.623-2.501c0.769-0.541,1.909-0.812,3.423-0.812
			c1.375,0,2.398,0.163,3.071,0.488s1.146,0.738,1.421,1.239s0.411,1.421,0.411,2.759l-0.032,3.599c0,1.023,0.049,1.778,0.147,2.265
			s0.283,1.008,0.554,1.563h-3.049c-0.081-0.205-0.18-0.508-0.297-0.91c-0.051-0.183-0.087-0.304-0.109-0.362
			c-0.526,0.512-1.09,0.896-1.689,1.151s-1.239,0.385-1.92,0.385c-1.199,0-2.145-0.326-2.835-0.977
			c-0.691-0.651-1.037-1.474-1.037-2.469c0-0.658,0.157-1.245,0.472-1.761c0.314-0.515,0.755-0.91,1.322-1.185
			c0.566-0.274,1.384-0.514,2.451-0.718c1.44-0.271,2.439-0.523,2.995-0.758v-0.307c0-0.593-0.146-1.015-0.438-1.268
			c-0.293-0.252-0.845-0.378-1.657-0.378c-0.548,0-0.976,0.107-1.283,0.323C670.795,243.578,670.546,243.957,670.355,244.498z
			 M674.48,246.999c-0.395,0.132-1.021,0.289-1.876,0.472s-1.415,0.362-1.679,0.538c-0.402,0.285-0.603,0.646-0.603,1.086
			c0,0.432,0.16,0.805,0.482,1.118c0.321,0.314,0.731,0.472,1.229,0.472c0.556,0,1.086-0.183,1.591-0.548
			c0.373-0.278,0.617-0.618,0.734-1.021c0.081-0.264,0.121-0.764,0.121-1.503v-0.614H674.48z"/>
		<path fill="#414042" d="M680.547,252.594v-16.082h3.083v16.082H680.547z"/>
		<path fill="#414042" d="M694.457,252.594v-1.744c-0.424,0.622-0.981,1.111-1.673,1.47c-0.69,0.358-1.42,0.538-2.188,0.538
			c-0.782,0-1.484-0.172-2.106-0.516c-0.621-0.344-1.071-0.827-1.349-1.448c-0.278-0.622-0.417-1.481-0.417-2.578v-7.372h3.082
			v5.354c0,1.639,0.057,2.643,0.171,3.012c0.113,0.369,0.319,0.662,0.619,0.877c0.3,0.216,0.681,0.324,1.141,0.324
			c0.527,0,0.999-0.145,1.416-0.434c0.416-0.289,0.701-0.647,0.855-1.075c0.153-0.428,0.23-1.476,0.23-3.143v-4.915h3.082v11.65
			H694.457z"/>
		<path fill="#414042" d="M702.816,244.498l-2.797-0.505c0.314-1.126,0.855-1.96,1.623-2.501c0.769-0.541,1.909-0.812,3.423-0.812
			c1.375,0,2.398,0.163,3.071,0.488s1.146,0.738,1.421,1.239s0.411,1.421,0.411,2.759l-0.032,3.599c0,1.023,0.049,1.778,0.147,2.265
			s0.283,1.008,0.554,1.563h-3.049c-0.081-0.205-0.18-0.508-0.297-0.91c-0.051-0.183-0.087-0.304-0.109-0.362
			c-0.526,0.512-1.09,0.896-1.689,1.151s-1.239,0.385-1.92,0.385c-1.199,0-2.145-0.326-2.835-0.977
			c-0.691-0.651-1.037-1.474-1.037-2.469c0-0.658,0.157-1.245,0.472-1.761c0.314-0.515,0.755-0.91,1.322-1.185
			c0.566-0.274,1.384-0.514,2.451-0.718c1.44-0.271,2.439-0.523,2.995-0.758v-0.307c0-0.593-0.146-1.015-0.438-1.268
			c-0.293-0.252-0.845-0.378-1.657-0.378c-0.548,0-0.976,0.107-1.283,0.323C703.256,243.578,703.007,243.957,702.816,244.498z
			 M706.941,246.999c-0.395,0.132-1.021,0.289-1.876,0.472s-1.415,0.362-1.679,0.538c-0.402,0.285-0.603,0.646-0.603,1.086
			c0,0.432,0.16,0.805,0.482,1.118c0.321,0.314,0.731,0.472,1.229,0.472c0.556,0,1.086-0.183,1.591-0.548
			c0.373-0.278,0.617-0.618,0.734-1.021c0.081-0.264,0.121-0.764,0.121-1.503v-0.614H706.941z"/>
		<path fill="#414042" d="M723.166,244.389l-3.038,0.548c-0.103-0.606-0.335-1.063-0.697-1.371
			c-0.361-0.307-0.832-0.461-1.409-0.461c-0.768,0-1.381,0.266-1.838,0.796s-0.686,1.417-0.686,2.66
			c0,1.382,0.232,2.358,0.697,2.929c0.464,0.57,1.087,0.855,1.87,0.855c0.585,0,1.063-0.166,1.437-0.499s0.637-0.905,0.79-1.717
			l3.027,0.516c-0.314,1.39-0.917,2.439-1.81,3.148s-2.088,1.064-3.587,1.064c-1.704,0-3.063-0.538-4.075-1.613
			c-1.014-1.075-1.52-2.563-1.52-4.465c0-1.923,0.508-3.42,1.524-4.492c1.017-1.071,2.392-1.606,4.125-1.606
			c1.419,0,2.547,0.306,3.384,0.916C722.199,242.207,722.801,243.138,723.166,244.389z"/>
		<path fill="#414042" d="M725.503,239.364v-2.853h3.083v2.853H725.503z M725.503,252.594v-11.65h3.083v11.65H725.503z"/>
		<path fill="#414042" d="M731.032,246.604c0-1.024,0.252-2.015,0.757-2.973s1.22-1.689,2.145-2.194
			c0.926-0.505,1.958-0.757,3.1-0.757c1.762,0,3.206,0.572,4.333,1.717c1.126,1.145,1.689,2.591,1.689,4.338
			c0,1.763-0.569,3.224-1.706,4.383c-1.138,1.159-2.569,1.739-4.295,1.739c-1.067,0-2.086-0.242-3.055-0.725
			c-0.97-0.482-1.706-1.19-2.211-2.122C731.284,249.078,731.032,247.942,731.032,246.604z M734.191,246.769
			c0,1.156,0.274,2.041,0.823,2.655c0.548,0.614,1.225,0.921,2.029,0.921s1.479-0.307,2.023-0.921s0.817-1.507,0.817-2.677
			c0-1.142-0.272-2.019-0.817-2.633s-1.219-0.922-2.023-0.922s-1.481,0.308-2.029,0.922
			C734.466,244.729,734.191,245.613,734.191,246.769z M735.486,239.518l1.514-3.28h3.455l-3.017,3.28H735.486z"/>
		<path fill="#414042" d="M756.066,252.594h-3.083v-5.945c0-1.258-0.065-2.072-0.197-2.441s-0.346-0.656-0.642-0.861
			c-0.297-0.204-0.653-0.307-1.07-0.307c-0.533,0-1.013,0.146-1.437,0.438c-0.425,0.293-0.715,0.681-0.872,1.163
			s-0.236,1.375-0.236,2.677v5.276h-3.082v-11.65h2.863v1.712c1.016-1.316,2.296-1.975,3.839-1.975c0.681,0,1.302,0.122,1.865,0.367
			s0.989,0.558,1.278,0.938c0.288,0.38,0.489,0.812,0.603,1.294s0.171,1.174,0.171,2.073L756.066,252.594L756.066,252.594z"/>
	</g>
	<rect x="499.951" y="359.035" fill="#DB5940" width="279.299" height="69.918"/>
	
		<linearGradient id="SVGID_5_" gradientUnits="userSpaceOnUse" x1="255.951" y1="54.401" x2="535.25" y2="54.401" gradientTransform="matrix(1 0 0 -1 244 444.953)">
		<stop  offset="0" style="stop-color:#F4F5F5"/>
		<stop  offset="1" style="stop-color:#E7E7E7"/>
	</linearGradient>
	<rect x="499.951" y="355.593" fill="url(#SVGID_5_)" width="279.299" height="69.918"/>
	<g>
		<path fill="#414042" d="M565.585,398.115v-16.082h3.247v16.082H565.585z"/>
		<path fill="#414042" d="M571.103,392.883l3.159-0.308c0.19,1.061,0.576,1.84,1.158,2.337c0.581,0.497,1.365,0.746,2.353,0.746
			c1.046,0,1.834-0.222,2.364-0.664s0.795-0.96,0.795-1.552c0-0.381-0.111-0.704-0.334-0.971c-0.224-0.268-0.613-0.5-1.169-0.697
			c-0.38-0.132-1.247-0.365-2.6-0.702c-1.74-0.431-2.962-0.961-3.664-1.591c-0.987-0.885-1.48-1.963-1.48-3.235
			c0-0.819,0.231-1.585,0.696-2.299c0.464-0.713,1.134-1.256,2.008-1.629c0.873-0.373,1.929-0.56,3.164-0.56
			c2.019,0,3.538,0.443,4.559,1.328c1.02,0.885,1.556,2.065,1.606,3.543l-3.247,0.143c-0.139-0.826-0.437-1.421-0.894-1.782
			c-0.457-0.362-1.143-0.544-2.057-0.544c-0.943,0-1.683,0.194-2.216,0.582c-0.345,0.249-0.516,0.581-0.516,0.998
			c0,0.381,0.16,0.706,0.482,0.977c0.409,0.344,1.404,0.702,2.983,1.075c1.58,0.373,2.748,0.759,3.505,1.157s1.35,0.943,1.777,1.634
			c0.428,0.691,0.642,1.546,0.642,2.562c0,0.922-0.256,1.785-0.768,2.589c-0.512,0.805-1.236,1.403-2.172,1.794
			c-0.937,0.392-2.103,0.587-3.5,0.587c-2.033,0-3.594-0.47-4.684-1.409C571.966,396.051,571.314,394.682,571.103,392.883z"/>
		<path fill="#414042" d="M586.252,390.173c0-1.638,0.245-3.013,0.734-4.124c0.366-0.819,0.865-1.555,1.498-2.205
			c0.632-0.651,1.325-1.134,2.078-1.448c1.002-0.424,2.157-0.637,3.467-0.637c2.369,0,4.266,0.735,5.688,2.205
			c1.423,1.47,2.134,3.515,2.134,6.133c0,2.596-0.705,4.627-2.117,6.094c-1.411,1.466-3.298,2.199-5.66,2.199
			c-2.392,0-4.293-0.729-5.704-2.188C586.957,394.742,586.252,392.732,586.252,390.173z M589.598,390.063
			c0,1.821,0.42,3.201,1.262,4.141c0.841,0.94,1.908,1.41,3.203,1.41c1.294,0,2.356-0.467,3.187-1.398
			c0.83-0.933,1.245-2.331,1.245-4.196c0-1.843-0.404-3.218-1.212-4.125c-0.809-0.906-1.882-1.36-3.22-1.36
			c-1.339,0-2.417,0.459-3.236,1.377S589.598,388.213,589.598,390.063z"/>
		<path fill="#414042" d="M602.717,398.39l3.982-16.631h2.314l-4.025,16.631H602.717z"/>
		<path fill="#414042" d="M610.528,398.115v-16.082h3.247v16.082H610.528z"/>
		<path fill="#414042" d="M616.869,398.115v-16.082h11.924v2.721h-8.677v3.565h8.073v2.709h-8.073v4.377h8.984v2.71L616.869,398.115
			L616.869,398.115z"/>
		<path fill="#414042" d="M642.143,392.202l3.148,0.999c-0.482,1.755-1.285,3.059-2.407,3.91c-1.123,0.853-2.547,1.278-4.273,1.278
			c-2.135,0-3.891-0.729-5.266-2.188s-2.062-3.454-2.062-5.984c0-2.677,0.69-4.755,2.073-6.236c1.382-1.48,3.199-2.222,5.452-2.222
			c1.967,0,3.564,0.582,4.793,1.744c0.731,0.688,1.28,1.675,1.646,2.962l-3.214,0.769c-0.19-0.834-0.587-1.492-1.19-1.975
			c-0.604-0.483-1.336-0.725-2.199-0.725c-1.192,0-2.159,0.428-2.901,1.284c-0.742,0.855-1.113,2.241-1.113,4.157
			c0,2.033,0.365,3.481,1.097,4.344c0.731,0.863,1.682,1.295,2.853,1.295c0.862,0,1.604-0.274,2.227-0.823
			C641.426,394.243,641.872,393.38,642.143,392.202z"/>
		<path fill="#414042" d="M661.527,398.115h-3.083v-11.617c-1.126,1.053-2.453,1.832-3.981,2.337v-2.798
			c0.804-0.263,1.678-0.762,2.621-1.497c0.944-0.735,1.591-1.593,1.942-2.572h2.501L661.527,398.115L661.527,398.115z"/>
		<path fill="#414042" d="M666.179,393.979l3.072-0.318c0.087,0.695,0.347,1.245,0.778,1.651s0.929,0.608,1.492,0.608
			c0.644,0,1.188-0.261,1.635-0.784c0.445-0.522,0.669-1.311,0.669-2.364c0-0.987-0.222-1.728-0.664-2.221
			c-0.442-0.494-1.019-0.741-1.728-0.741c-0.885,0-1.679,0.392-2.381,1.174l-2.501-0.361l1.58-8.37h8.15v2.885h-5.814l-0.482,2.731
			c0.688-0.344,1.39-0.516,2.106-0.516c1.367,0,2.526,0.498,3.478,1.492c0.95,0.995,1.426,2.285,1.426,3.872
			c0,1.324-0.384,2.505-1.151,3.544c-1.046,1.419-2.498,2.128-4.355,2.128c-1.484,0-2.695-0.398-3.631-1.196
			C666.921,396.396,666.361,395.325,666.179,393.979z"/>
		<path fill="#414042" d="M678.674,393.979l3.072-0.318c0.087,0.695,0.347,1.245,0.778,1.651s0.929,0.608,1.492,0.608
			c0.644,0,1.188-0.261,1.635-0.784c0.445-0.522,0.669-1.311,0.669-2.364c0-0.987-0.222-1.728-0.664-2.221
			c-0.442-0.494-1.019-0.741-1.728-0.741c-0.885,0-1.679,0.392-2.381,1.174l-2.501-0.361l1.58-8.37h8.15v2.885h-5.814l-0.482,2.731
			c0.688-0.344,1.39-0.516,2.106-0.516c1.367,0,2.526,0.498,3.478,1.492c0.95,0.995,1.426,2.285,1.426,3.872
			c0,1.324-0.384,2.505-1.151,3.544c-1.046,1.419-2.498,2.128-4.355,2.128c-1.484,0-2.695-0.398-3.631-1.196
			C679.416,396.396,678.856,395.325,678.674,393.979z"/>
		<path fill="#414042" d="M696.336,381.968c1.558,0,2.775,0.556,3.653,1.667c1.046,1.316,1.568,3.5,1.568,6.549
			c0,3.043-0.526,5.229-1.58,6.561c-0.87,1.097-2.084,1.646-3.642,1.646c-1.565,0-2.826-0.602-3.784-1.805
			c-0.959-1.203-1.438-3.348-1.438-6.434c0-3.028,0.526-5.207,1.58-6.538C693.564,382.516,694.778,381.968,696.336,381.968z
			 M696.336,384.523c-0.373,0-0.706,0.119-0.998,0.356c-0.293,0.238-0.52,0.664-0.681,1.278c-0.212,0.797-0.317,2.139-0.317,4.025
			c0,1.888,0.095,3.184,0.285,3.89c0.189,0.705,0.43,1.175,0.718,1.409c0.289,0.234,0.62,0.352,0.993,0.352s0.706-0.119,0.998-0.357
			c0.293-0.237,0.52-0.663,0.681-1.277c0.212-0.79,0.317-2.128,0.317-4.016c0-1.887-0.095-3.183-0.285-3.889
			c-0.189-0.705-0.43-1.177-0.718-1.415C697.04,384.643,696.709,384.523,696.336,384.523z"/>
		<path fill="#414042" d="M709.665,398.115v-3.236h-6.582v-2.698l6.977-10.213h2.589v10.202h1.997v2.709h-1.997v3.236H709.665z
			 M709.665,392.17v-5.496l-3.697,5.496H709.665z"/>
	</g>
</g>
<g>
	<path fill="#909091" d="M287.926,447.568v-8.59h1.711l2.033,6.082c0.188,0.566,0.324,0.99,0.41,1.271
		c0.098-0.313,0.25-0.771,0.457-1.377l2.057-5.977h1.529v8.59h-1.096v-7.189l-2.496,7.189h-1.025l-2.484-7.313v7.313H287.926z"/>
	<path fill="#909091" d="M297.43,444.457c0-1.152,0.32-2.006,0.961-2.561c0.535-0.461,1.188-0.691,1.957-0.691
		c0.855,0,1.555,0.28,2.098,0.841s0.814,1.335,0.814,2.323c0,0.801-0.12,1.431-0.36,1.89s-0.59,0.815-1.049,1.069
		s-0.96,0.381-1.503,0.381c-0.871,0-1.575-0.279-2.112-0.838S297.43,445.508,297.43,444.457z M298.514,444.457
		c0,0.797,0.174,1.394,0.521,1.79s0.785,0.595,1.313,0.595c0.523,0,0.959-0.199,1.307-0.598s0.521-1.006,0.521-1.822
		c0-0.77-0.175-1.353-0.524-1.749s-0.784-0.595-1.304-0.595c-0.527,0-0.965,0.197-1.313,0.592S298.514,443.66,298.514,444.457z"/>
	<path fill="#909091" d="M308.534,447.568v-0.785c-0.395,0.617-0.975,0.926-1.74,0.926c-0.496,0-0.952-0.137-1.368-0.41
		s-0.738-0.655-0.967-1.146s-0.343-1.054-0.343-1.69c0-0.621,0.104-1.185,0.311-1.69s0.518-0.894,0.932-1.163
		s0.877-0.404,1.389-0.404c0.375,0,0.709,0.079,1.002,0.237s0.531,0.364,0.715,0.618v-3.082h1.049v8.59H308.534z M305.2,444.463
		c0,0.797,0.168,1.393,0.504,1.787s0.732,0.592,1.189,0.592c0.461,0,0.853-0.188,1.175-0.565s0.483-0.952,0.483-1.726
		c0-0.852-0.164-1.477-0.492-1.875s-0.732-0.598-1.213-0.598c-0.469,0-0.86,0.191-1.175,0.574S305.2,443.639,305.2,444.463z"/>
	<path fill="#909091" d="M315.43,445.564l1.09,0.135c-0.172,0.637-0.49,1.131-0.955,1.482s-1.059,0.527-1.781,0.527
		c-0.91,0-1.632-0.28-2.165-0.841s-0.8-1.347-0.8-2.358c0-1.047,0.27-1.859,0.809-2.438s1.238-0.867,2.098-0.867
		c0.832,0,1.512,0.283,2.039,0.85s0.791,1.363,0.791,2.391c0,0.063-0.002,0.156-0.006,0.281h-4.641
		c0.039,0.684,0.232,1.207,0.58,1.57s0.781,0.545,1.301,0.545c0.387,0,0.717-0.102,0.99-0.305S315.27,446.01,315.43,445.564z
		 M311.967,443.859h3.475c-0.047-0.523-0.18-0.916-0.398-1.178c-0.336-0.406-0.771-0.609-1.307-0.609
		c-0.484,0-0.892,0.162-1.222,0.486S312.002,443.316,311.967,443.859z"/>
	<path fill="#909091" d="M317.821,447.568v-8.59h1.055v8.59H317.821z"/>
	<path fill="#909091" d="M320.118,444.457c0-1.152,0.32-2.006,0.961-2.561c0.535-0.461,1.188-0.691,1.957-0.691
		c0.855,0,1.555,0.28,2.098,0.841s0.814,1.335,0.814,2.323c0,0.801-0.12,1.431-0.36,1.89s-0.59,0.815-1.049,1.069
		s-0.96,0.381-1.503,0.381c-0.871,0-1.575-0.279-2.112-0.838S320.118,445.508,320.118,444.457z M321.202,444.457
		c0,0.797,0.174,1.394,0.521,1.79s0.785,0.595,1.313,0.595c0.523,0,0.959-0.199,1.307-0.598s0.521-1.006,0.521-1.822
		c0-0.77-0.175-1.353-0.524-1.749s-0.784-0.595-1.304-0.595c-0.527,0-0.965,0.197-1.313,0.592S321.202,443.66,321.202,444.457z"/>
	<path fill="#909091" d="M334.555,447.568v-0.785c-0.395,0.617-0.975,0.926-1.74,0.926c-0.496,0-0.952-0.137-1.368-0.41
		s-0.738-0.655-0.967-1.146s-0.343-1.054-0.343-1.69c0-0.621,0.104-1.185,0.311-1.69s0.518-0.894,0.932-1.163
		s0.877-0.404,1.389-0.404c0.375,0,0.709,0.079,1.002,0.237s0.531,0.364,0.715,0.618v-3.082h1.049v8.59H334.555z M331.221,444.463
		c0,0.797,0.168,1.393,0.504,1.787s0.732,0.592,1.189,0.592c0.461,0,0.853-0.188,1.175-0.565s0.483-0.952,0.483-1.726
		c0-0.852-0.164-1.477-0.492-1.875s-0.732-0.598-1.213-0.598c-0.469,0-0.86,0.191-1.175,0.574S331.221,443.639,331.221,444.463z"/>
	<path fill="#909091" d="M341.452,445.564l1.09,0.135c-0.172,0.637-0.49,1.131-0.955,1.482s-1.059,0.527-1.781,0.527
		c-0.91,0-1.632-0.28-2.165-0.841s-0.8-1.347-0.8-2.358c0-1.047,0.27-1.859,0.809-2.438s1.238-0.867,2.098-0.867
		c0.832,0,1.512,0.283,2.039,0.85s0.791,1.363,0.791,2.391c0,0.063-0.002,0.156-0.006,0.281h-4.641
		c0.039,0.684,0.232,1.207,0.58,1.57s0.781,0.545,1.301,0.545c0.387,0,0.717-0.102,0.99-0.305S341.292,446.01,341.452,445.564z
		 M337.989,443.859h3.475c-0.047-0.523-0.18-0.916-0.398-1.178c-0.336-0.406-0.771-0.609-1.307-0.609
		c-0.484,0-0.892,0.162-1.222,0.486S338.024,443.316,337.989,443.859z"/>
	<path fill="#909091" d="M347.2,449.953v-8.607h0.961v0.809c0.227-0.316,0.482-0.554,0.768-0.712s0.631-0.237,1.037-0.237
		c0.531,0,1,0.137,1.406,0.41s0.713,0.659,0.92,1.157s0.311,1.044,0.311,1.638c0,0.637-0.114,1.21-0.343,1.72
		s-0.561,0.9-0.996,1.172s-0.894,0.407-1.374,0.407c-0.352,0-0.667-0.074-0.946-0.223s-0.509-0.336-0.688-0.563v3.029H347.2z
		 M348.155,444.492c0,0.801,0.162,1.393,0.486,1.775s0.717,0.574,1.178,0.574c0.469,0,0.87-0.198,1.204-0.595
		s0.501-1.011,0.501-1.843c0-0.793-0.163-1.387-0.489-1.781s-0.716-0.592-1.169-0.592c-0.449,0-0.847,0.21-1.192,0.63
		S348.155,443.691,348.155,444.492z"/>
	<path fill="#909091" d="M353.862,447.568v-6.223h0.949v0.943c0.242-0.441,0.466-0.732,0.671-0.873s0.431-0.211,0.677-0.211
		c0.355,0,0.717,0.113,1.084,0.34l-0.363,0.979c-0.258-0.152-0.516-0.229-0.773-0.229c-0.23,0-0.438,0.069-0.621,0.208
		s-0.314,0.331-0.393,0.577c-0.117,0.375-0.176,0.785-0.176,1.23v3.258H353.862z"/>
	<path fill="#909091" d="M357.477,444.457c0-1.152,0.32-2.006,0.961-2.561c0.535-0.461,1.188-0.691,1.957-0.691
		c0.855,0,1.555,0.28,2.098,0.841s0.814,1.335,0.814,2.323c0,0.801-0.12,1.431-0.36,1.89s-0.59,0.815-1.049,1.069
		s-0.96,0.381-1.503,0.381c-0.871,0-1.575-0.279-2.112-0.838S357.477,445.508,357.477,444.457z M358.561,444.457
		c0,0.797,0.174,1.394,0.521,1.79s0.785,0.595,1.313,0.595c0.523,0,0.959-0.199,1.307-0.598s0.521-1.006,0.521-1.822
		c0-0.77-0.175-1.353-0.524-1.749s-0.784-0.595-1.304-0.595c-0.527,0-0.965,0.197-1.313,0.592S358.561,443.66,358.561,444.457z"/>
	<path fill="#909091" d="M368.604,445.289l1.037,0.135c-0.113,0.715-0.403,1.274-0.87,1.679s-1.04,0.606-1.72,0.606
		c-0.852,0-1.536-0.278-2.054-0.835s-0.776-1.354-0.776-2.394c0-0.672,0.111-1.26,0.334-1.764s0.562-0.882,1.017-1.134
		s0.95-0.378,1.485-0.378c0.676,0,1.229,0.171,1.658,0.513s0.705,0.827,0.826,1.456l-1.025,0.158
		c-0.098-0.418-0.271-0.732-0.519-0.943s-0.548-0.316-0.899-0.316c-0.531,0-0.963,0.19-1.295,0.571s-0.498,0.983-0.498,1.808
		c0,0.836,0.16,1.443,0.48,1.822s0.738,0.568,1.254,0.568c0.414,0,0.76-0.127,1.037-0.381S368.53,445.816,368.604,445.289z"/>
	<path fill="#909091" d="M374.803,445.564l1.09,0.135c-0.172,0.637-0.49,1.131-0.955,1.482s-1.059,0.527-1.781,0.527
		c-0.91,0-1.632-0.28-2.165-0.841s-0.8-1.347-0.8-2.358c0-1.047,0.27-1.859,0.809-2.438s1.238-0.867,2.098-0.867
		c0.832,0,1.512,0.283,2.039,0.85s0.791,1.363,0.791,2.391c0,0.063-0.002,0.156-0.006,0.281h-4.641
		c0.039,0.684,0.232,1.207,0.58,1.57s0.781,0.545,1.301,0.545c0.387,0,0.717-0.102,0.99-0.305S374.643,446.01,374.803,445.564z
		 M371.34,443.859h3.475c-0.047-0.523-0.18-0.916-0.398-1.178c-0.336-0.406-0.771-0.609-1.307-0.609
		c-0.484,0-0.892,0.162-1.222,0.486S371.375,443.316,371.34,443.859z"/>
	<path fill="#909091" d="M376.795,445.711l1.043-0.164c0.059,0.418,0.222,0.738,0.489,0.961s0.642,0.334,1.122,0.334
		c0.484,0,0.844-0.099,1.078-0.296s0.352-0.429,0.352-0.694c0-0.238-0.104-0.426-0.311-0.563c-0.145-0.094-0.504-0.213-1.078-0.357
		c-0.773-0.195-1.31-0.364-1.608-0.507s-0.525-0.34-0.68-0.592s-0.231-0.53-0.231-0.835c0-0.277,0.063-0.534,0.19-0.771
		s0.3-0.433,0.519-0.589c0.164-0.121,0.388-0.224,0.671-0.308s0.587-0.126,0.911-0.126c0.488,0,0.917,0.07,1.286,0.211
		s0.642,0.331,0.817,0.571s0.297,0.562,0.363,0.964l-1.031,0.141c-0.047-0.32-0.183-0.57-0.407-0.75s-0.542-0.27-0.952-0.27
		c-0.484,0-0.83,0.08-1.037,0.24s-0.311,0.348-0.311,0.563c0,0.137,0.043,0.26,0.129,0.369c0.086,0.113,0.221,0.207,0.404,0.281
		c0.105,0.039,0.416,0.129,0.932,0.27c0.746,0.199,1.267,0.362,1.562,0.489s0.526,0.312,0.694,0.554s0.252,0.543,0.252,0.902
		c0,0.352-0.103,0.683-0.308,0.993s-0.501,0.551-0.888,0.721s-0.824,0.255-1.313,0.255c-0.809,0-1.425-0.168-1.849-0.504
		S376.913,446.371,376.795,445.711z"/>
	<path fill="#909091" d="M382.825,444.457c0-1.152,0.32-2.006,0.961-2.561c0.535-0.461,1.188-0.691,1.957-0.691
		c0.855,0,1.555,0.28,2.098,0.841s0.814,1.335,0.814,2.323c0,0.801-0.12,1.431-0.36,1.89s-0.59,0.815-1.049,1.069
		s-0.96,0.381-1.503,0.381c-0.871,0-1.575-0.279-2.112-0.838S382.825,445.508,382.825,444.457z M383.909,444.457
		c0,0.797,0.174,1.394,0.521,1.79s0.785,0.595,1.313,0.595c0.523,0,0.959-0.199,1.307-0.598s0.521-1.006,0.521-1.822
		c0-0.77-0.175-1.353-0.524-1.749s-0.784-0.595-1.304-0.595c-0.527,0-0.965,0.197-1.313,0.592S383.909,443.66,383.909,444.457z"/>
	<path fill="#909091" d="M389.469,445.711l1.043-0.164c0.059,0.418,0.222,0.738,0.489,0.961s0.642,0.334,1.122,0.334
		c0.484,0,0.844-0.099,1.078-0.296s0.352-0.429,0.352-0.694c0-0.238-0.104-0.426-0.311-0.563c-0.145-0.094-0.504-0.213-1.078-0.357
		c-0.773-0.195-1.31-0.364-1.608-0.507s-0.525-0.34-0.68-0.592s-0.231-0.53-0.231-0.835c0-0.277,0.063-0.534,0.19-0.771
		s0.3-0.433,0.519-0.589c0.164-0.121,0.388-0.224,0.671-0.308s0.587-0.126,0.911-0.126c0.488,0,0.917,0.07,1.286,0.211
		s0.642,0.331,0.817,0.571s0.297,0.562,0.363,0.964l-1.031,0.141c-0.047-0.32-0.183-0.57-0.407-0.75s-0.542-0.27-0.952-0.27
		c-0.484,0-0.83,0.08-1.037,0.24s-0.311,0.348-0.311,0.563c0,0.137,0.043,0.26,0.129,0.369c0.086,0.113,0.221,0.207,0.404,0.281
		c0.105,0.039,0.416,0.129,0.932,0.27c0.746,0.199,1.267,0.362,1.562,0.489s0.526,0.312,0.694,0.554s0.252,0.543,0.252,0.902
		c0,0.352-0.103,0.683-0.308,0.993s-0.501,0.551-0.888,0.721s-0.824,0.255-1.313,0.255c-0.809,0-1.425-0.168-1.849-0.504
		S389.586,446.371,389.469,445.711z"/>
	<path fill="#909091" d="M399.553,447.568v-8.59h1.137v8.59H399.553z"/>
	<path fill="#909091" d="M402.307,444.808l1.072-0.094c0.051,0.43,0.169,0.782,0.354,1.058s0.474,0.498,0.864,0.668
		s0.83,0.255,1.318,0.255c0.434,0,0.816-0.064,1.148-0.193s0.579-0.306,0.741-0.53s0.243-0.47,0.243-0.735
		c0-0.27-0.078-0.505-0.234-0.706s-0.414-0.37-0.773-0.507c-0.23-0.09-0.74-0.229-1.529-0.419s-1.342-0.368-1.658-0.536
		c-0.41-0.215-0.716-0.481-0.917-0.8s-0.302-0.675-0.302-1.069c0-0.434,0.123-0.839,0.369-1.216s0.605-0.663,1.078-0.858
		s0.998-0.293,1.576-0.293c0.637,0,1.198,0.103,1.685,0.308s0.86,0.507,1.122,0.905s0.402,0.85,0.422,1.354l-1.09,0.082
		c-0.059-0.543-0.257-0.953-0.595-1.23s-0.837-0.416-1.497-0.416c-0.688,0-1.188,0.126-1.503,0.378s-0.472,0.556-0.472,0.911
		c0,0.309,0.111,0.563,0.334,0.762c0.219,0.199,0.79,0.403,1.714,0.612s1.558,0.392,1.901,0.548c0.5,0.23,0.869,0.522,1.107,0.876
		s0.357,0.761,0.357,1.222c0,0.457-0.131,0.888-0.393,1.292s-0.638,0.719-1.128,0.943s-1.042,0.337-1.655,0.337
		c-0.777,0-1.429-0.113-1.954-0.34s-0.938-0.567-1.236-1.022S402.323,445.383,402.307,444.808z"/>
	<path fill="#909091" d="M410.352,443.385c0-1.426,0.383-2.542,1.148-3.349s1.754-1.21,2.965-1.21c0.793,0,1.508,0.189,2.145,0.568
		s1.122,0.907,1.456,1.585s0.501,1.446,0.501,2.306c0,0.871-0.176,1.65-0.527,2.338s-0.85,1.208-1.494,1.562s-1.34,0.53-2.086,0.53
		c-0.809,0-1.531-0.195-2.168-0.586s-1.119-0.924-1.447-1.6S410.352,444.139,410.352,443.385z M411.524,443.402
		c0,1.035,0.278,1.851,0.835,2.446s1.255,0.894,2.095,0.894c0.855,0,1.56-0.301,2.112-0.902s0.829-1.455,0.829-2.561
		c0-0.699-0.118-1.31-0.354-1.831s-0.582-0.926-1.037-1.213s-0.966-0.431-1.532-0.431c-0.805,0-1.497,0.276-2.077,0.829
		S411.524,442.109,411.524,443.402z"/>
	<path fill="#909091" d="M419.106,447.715l2.49-8.883h0.844l-2.484,8.883H419.106z"/>
	<path fill="#909091" d="M423.559,447.568v-8.59h1.137v8.59H423.559z"/>
	<path fill="#909091" d="M426.723,447.568v-8.59h6.211v1.014h-5.074v2.631h4.752v1.008h-4.752v2.924h5.273v1.014H426.723z"/>
	<path fill="#909091" d="M440.833,444.557l1.137,0.287c-0.238,0.934-0.667,1.646-1.286,2.136s-1.376,0.735-2.271,0.735
		c-0.926,0-1.679-0.188-2.259-0.565s-1.021-0.923-1.324-1.638s-0.454-1.482-0.454-2.303c0-0.895,0.171-1.675,0.513-2.341
		s0.828-1.172,1.459-1.518s1.325-0.519,2.083-0.519c0.859,0,1.582,0.219,2.168,0.656s0.994,1.053,1.225,1.846l-1.119,0.264
		c-0.199-0.625-0.488-1.08-0.867-1.365s-0.855-0.428-1.43-0.428c-0.66,0-1.212,0.158-1.655,0.475s-0.755,0.741-0.935,1.274
		s-0.27,1.083-0.27,1.649c0,0.73,0.106,1.368,0.319,1.913s0.544,0.952,0.993,1.222s0.936,0.404,1.459,0.404
		c0.637,0,1.176-0.184,1.617-0.551S440.676,445.279,440.833,444.557z"/>
	<path fill="#909091" d="M450.249,447.568h-1.055v-6.721c-0.254,0.242-0.587,0.484-0.999,0.727s-0.782,0.424-1.11,0.545v-1.02
		c0.59-0.277,1.105-0.613,1.547-1.008s0.754-0.777,0.938-1.148h0.68V447.568z"/>
	<path fill="#909091" d="M452.95,445.318l1.107-0.094c0.082,0.539,0.272,0.944,0.571,1.216s0.659,0.407,1.081,0.407
		c0.508,0,0.938-0.191,1.289-0.574s0.527-0.891,0.527-1.523c0-0.602-0.169-1.076-0.507-1.424s-0.78-0.521-1.327-0.521
		c-0.34,0-0.646,0.077-0.92,0.231s-0.488,0.354-0.645,0.601l-0.99-0.129l0.832-4.412h4.271v1.008h-3.428l-0.463,2.309
		c0.516-0.359,1.057-0.539,1.623-0.539c0.75,0,1.383,0.26,1.898,0.779s0.773,1.188,0.773,2.004c0,0.777-0.227,1.449-0.68,2.016
		c-0.551,0.695-1.303,1.043-2.256,1.043c-0.781,0-1.419-0.219-1.913-0.656S453.02,446.041,452.95,445.318z"/>
	<path fill="#909091" d="M459.624,445.318l1.107-0.094c0.082,0.539,0.272,0.944,0.571,1.216s0.659,0.407,1.081,0.407
		c0.508,0,0.938-0.191,1.289-0.574s0.527-0.891,0.527-1.523c0-0.602-0.169-1.076-0.507-1.424s-0.78-0.521-1.327-0.521
		c-0.34,0-0.646,0.077-0.92,0.231s-0.488,0.354-0.645,0.601l-0.99-0.129l0.832-4.412h4.271v1.008h-3.428l-0.463,2.309
		c0.516-0.359,1.057-0.539,1.623-0.539c0.75,0,1.383,0.26,1.898,0.779s0.773,1.188,0.773,2.004c0,0.777-0.227,1.449-0.68,2.016
		c-0.551,0.695-1.303,1.043-2.256,1.043c-0.781,0-1.419-0.219-1.913-0.656S459.694,446.041,459.624,445.318z"/>
	<path fill="#909091" d="M466.297,443.332c0-1.016,0.104-1.833,0.313-2.452s0.52-1.097,0.932-1.433s0.931-0.504,1.556-0.504
		c0.461,0,0.865,0.093,1.213,0.278s0.635,0.453,0.861,0.803s0.404,0.775,0.533,1.277s0.193,1.179,0.193,2.03
		c0,1.008-0.104,1.821-0.311,2.44s-0.517,1.098-0.929,1.436s-0.933,0.507-1.562,0.507c-0.828,0-1.479-0.297-1.951-0.891
		C466.581,446.109,466.297,444.945,466.297,443.332z M467.381,443.332c0,1.41,0.165,2.349,0.495,2.815s0.737,0.7,1.222,0.7
		s0.892-0.234,1.222-0.703s0.495-1.406,0.495-2.813c0-1.414-0.165-2.354-0.495-2.818s-0.741-0.697-1.233-0.697
		c-0.484,0-0.871,0.205-1.16,0.615C467.563,440.955,467.381,441.922,467.381,443.332z"/>
	<path fill="#909091" d="M476.352,447.568v-2.057h-3.727v-0.967l3.92-5.566h0.861v5.566h1.16v0.967h-1.16v2.057H476.352z
		 M476.352,444.545v-3.873l-2.689,3.873H476.352z"/>
	<path fill="#909091" d="M487.532,445.564l1.09,0.135c-0.172,0.637-0.49,1.131-0.955,1.482s-1.059,0.527-1.781,0.527
		c-0.91,0-1.632-0.28-2.165-0.841s-0.8-1.347-0.8-2.358c0-1.047,0.27-1.859,0.809-2.438s1.238-0.867,2.098-0.867
		c0.832,0,1.512,0.283,2.039,0.85s0.791,1.363,0.791,2.391c0,0.063-0.002,0.156-0.006,0.281h-4.641
		c0.039,0.684,0.232,1.207,0.58,1.57s0.781,0.545,1.301,0.545c0.387,0,0.717-0.102,0.99-0.305S487.372,446.01,487.532,445.564z
		 M484.069,443.859h3.475c-0.047-0.523-0.18-0.916-0.398-1.178c-0.336-0.406-0.771-0.609-1.307-0.609
		c-0.484,0-0.892,0.162-1.222,0.486S484.104,443.316,484.069,443.859z"/>
	<path fill="#909091" d="M493.608,447.568v-8.59h1.137v8.59H493.608z"/>
	<path fill="#909091" d="M496.362,444.808l1.072-0.094c0.051,0.43,0.169,0.782,0.354,1.058s0.474,0.498,0.864,0.668
		s0.83,0.255,1.318,0.255c0.434,0,0.816-0.064,1.148-0.193s0.579-0.306,0.741-0.53s0.243-0.47,0.243-0.735
		c0-0.27-0.078-0.505-0.234-0.706s-0.414-0.37-0.773-0.507c-0.23-0.09-0.74-0.229-1.529-0.419s-1.342-0.368-1.658-0.536
		c-0.41-0.215-0.716-0.481-0.917-0.8s-0.302-0.675-0.302-1.069c0-0.434,0.123-0.839,0.369-1.216s0.605-0.663,1.078-0.858
		s0.998-0.293,1.576-0.293c0.637,0,1.198,0.103,1.685,0.308s0.86,0.507,1.122,0.905s0.402,0.85,0.422,1.354l-1.09,0.082
		c-0.059-0.543-0.257-0.953-0.595-1.23s-0.837-0.416-1.497-0.416c-0.688,0-1.188,0.126-1.503,0.378s-0.472,0.556-0.472,0.911
		c0,0.309,0.111,0.563,0.334,0.762c0.219,0.199,0.79,0.403,1.714,0.612s1.558,0.392,1.901,0.548c0.5,0.23,0.869,0.522,1.107,0.876
		s0.357,0.761,0.357,1.222c0,0.457-0.131,0.888-0.393,1.292s-0.638,0.719-1.128,0.943s-1.042,0.337-1.655,0.337
		c-0.777,0-1.429-0.113-1.954-0.34s-0.938-0.567-1.236-1.022S496.377,445.383,496.362,444.808z"/>
	<path fill="#909091" d="M504.407,443.385c0-1.426,0.383-2.542,1.148-3.349s1.754-1.21,2.965-1.21c0.793,0,1.508,0.189,2.145,0.568
		s1.122,0.907,1.456,1.585s0.501,1.446,0.501,2.306c0,0.871-0.176,1.65-0.527,2.338s-0.85,1.208-1.494,1.562s-1.34,0.53-2.086,0.53
		c-0.809,0-1.531-0.195-2.168-0.586s-1.119-0.924-1.447-1.6S504.407,444.139,504.407,443.385z M505.579,443.402
		c0,1.035,0.278,1.851,0.835,2.446s1.255,0.894,2.095,0.894c0.855,0,1.56-0.301,2.112-0.902s0.829-1.455,0.829-2.561
		c0-0.699-0.118-1.31-0.354-1.831s-0.582-0.926-1.037-1.213s-0.966-0.431-1.532-0.431c-0.805,0-1.497,0.276-2.077,0.829
		S505.579,442.109,505.579,443.402z"/>
	<path fill="#909091" d="M513.161,447.715l2.49-8.883h0.844l-2.484,8.883H513.161z"/>
	<path fill="#909091" d="M517.614,447.568v-8.59h1.137v8.59H517.614z"/>
	<path fill="#909091" d="M520.778,447.568v-8.59h6.211v1.014h-5.074v2.631h4.752v1.008h-4.752v2.924h5.273v1.014H520.778z"/>
	<path fill="#909091" d="M534.887,444.557l1.137,0.287c-0.238,0.934-0.667,1.646-1.286,2.136s-1.376,0.735-2.271,0.735
		c-0.926,0-1.679-0.188-2.259-0.565s-1.021-0.923-1.324-1.638s-0.454-1.482-0.454-2.303c0-0.895,0.171-1.675,0.513-2.341
		s0.828-1.172,1.459-1.518s1.325-0.519,2.083-0.519c0.859,0,1.582,0.219,2.168,0.656s0.994,1.053,1.225,1.846l-1.119,0.264
		c-0.199-0.625-0.488-1.08-0.867-1.365s-0.855-0.428-1.43-0.428c-0.66,0-1.212,0.158-1.655,0.475s-0.755,0.741-0.935,1.274
		s-0.27,1.083-0.27,1.649c0,0.73,0.106,1.368,0.319,1.913s0.544,0.952,0.993,1.222s0.936,0.404,1.459,0.404
		c0.637,0,1.176-0.184,1.617-0.551S534.731,445.279,534.887,444.557z"/>
	<path fill="#909091" d="M544.303,447.568h-1.055v-6.721c-0.254,0.242-0.587,0.484-0.999,0.727s-0.782,0.424-1.11,0.545v-1.02
		c0.59-0.277,1.105-0.613,1.547-1.008s0.754-0.777,0.938-1.148h0.68V447.568z"/>
	<path fill="#909091" d="M552.547,446.555v1.014h-5.678c-0.008-0.254,0.033-0.498,0.123-0.732c0.145-0.387,0.376-0.768,0.694-1.143
		s0.778-0.809,1.38-1.301c0.934-0.766,1.564-1.372,1.893-1.819s0.492-0.87,0.492-1.269c0-0.418-0.149-0.771-0.448-1.058
		s-0.688-0.431-1.169-0.431c-0.508,0-0.914,0.152-1.219,0.457s-0.459,0.727-0.463,1.266l-1.084-0.111
		c0.074-0.809,0.354-1.425,0.838-1.849s1.135-0.636,1.951-0.636c0.824,0,1.477,0.229,1.957,0.686s0.721,1.023,0.721,1.699
		c0,0.344-0.07,0.682-0.211,1.014s-0.374,0.682-0.7,1.049s-0.868,0.871-1.626,1.512c-0.633,0.531-1.039,0.892-1.219,1.081
		s-0.328,0.38-0.445,0.571H552.547z"/>
	<path fill="#909091" d="M559.221,446.555v1.014h-5.678c-0.008-0.254,0.033-0.498,0.123-0.732c0.145-0.387,0.376-0.768,0.694-1.143
		s0.778-0.809,1.38-1.301c0.934-0.766,1.564-1.372,1.893-1.819s0.492-0.87,0.492-1.269c0-0.418-0.149-0.771-0.448-1.058
		s-0.688-0.431-1.169-0.431c-0.508,0-0.914,0.152-1.219,0.457s-0.459,0.727-0.463,1.266l-1.084-0.111
		c0.074-0.809,0.354-1.425,0.838-1.849s1.135-0.636,1.951-0.636c0.824,0,1.477,0.229,1.957,0.686s0.721,1.023,0.721,1.699
		c0,0.344-0.07,0.682-0.211,1.014s-0.374,0.682-0.7,1.049s-0.868,0.871-1.626,1.512c-0.633,0.531-1.039,0.892-1.219,1.081
		s-0.328,0.38-0.445,0.571H559.221z"/>
	<path fill="#909091" d="M560.352,443.332c0-1.016,0.104-1.833,0.313-2.452s0.52-1.097,0.932-1.433s0.931-0.504,1.556-0.504
		c0.461,0,0.865,0.093,1.213,0.278s0.635,0.453,0.861,0.803s0.404,0.775,0.533,1.277s0.193,1.179,0.193,2.03
		c0,1.008-0.104,1.821-0.311,2.44s-0.517,1.098-0.929,1.436s-0.933,0.507-1.562,0.507c-0.828,0-1.479-0.297-1.951-0.891
		C560.635,446.109,560.352,444.945,560.352,443.332z M561.436,443.332c0,1.41,0.165,2.349,0.495,2.815s0.737,0.7,1.222,0.7
		s0.892-0.234,1.222-0.703s0.495-1.406,0.495-2.813c0-1.414-0.165-2.354-0.495-2.818s-0.741-0.697-1.233-0.697
		c-0.484,0-0.871,0.205-1.16,0.615C561.618,440.955,561.436,441.922,561.436,443.332z"/>
	<path fill="#909091" d="M567.096,440.103v-1.014h5.561v0.82c-0.547,0.582-1.089,1.355-1.626,2.32s-0.952,1.957-1.245,2.977
		c-0.211,0.719-0.346,1.506-0.404,2.361h-1.084c0.012-0.676,0.145-1.492,0.398-2.449s0.618-1.88,1.093-2.769
		s0.979-1.638,1.515-2.247H567.096z"/>
</g>
</svg>
