<?xml version="1.0" encoding="utf-8"?>
<!-- Generator: Adobe Illustrator 17.0.0, SVG Export Plug-In . SVG Version: 6.00 Build 0)  -->
<!DOCTYPE svg PUBLIC "-//W3C//DTD SVG 1.1//EN" "http://www.w3.org/Graphics/SVG/1.1/DTD/svg11.dtd" [
	<!ENTITY ns_extend "http://ns.adobe.com/Extensibility/1.0/">
	<!ENTITY ns_ai "http://ns.adobe.com/AdobeIllustrator/10.0/">
	<!ENTITY ns_graphs "http://ns.adobe.com/Graphs/1.0/">
	<!ENTITY ns_vars "http://ns.adobe.com/Variables/1.0/">
	<!ENTITY ns_imrep "http://ns.adobe.com/ImageReplacement/1.0/">
	<!ENTITY ns_sfw "http://ns.adobe.com/SaveForWeb/1.0/">
	<!ENTITY ns_custom "http://ns.adobe.com/GenericCustomNamespace/1.0/">
	<!ENTITY ns_adobe_xpath "http://ns.adobe.com/XPath/1.0/">
]>
<svg version="1.1" id="Capa_1" xmlns:x="&ns_extend;" xmlns:i="&ns_ai;" xmlns:graph="&ns_graphs;"
	 xmlns="http://www.w3.org/2000/svg" xmlns:xlink="http://www.w3.org/1999/xlink" x="0px" y="0px" width="156.742px"
	 height="41.169px" viewBox="0 0 156.742 41.169" enable-background="new 0 0 156.742 41.169" xml:space="preserve">
<metadata><?xpacket begin="﻿" id="W5M0MpCehiHzreSzNTczkc9d"?>
<x:xmpmeta xmlns:x="adobe:ns:meta/" x:xmptk="Adobe XMP Core 5.5-c014 79.151739, 2013/04/03-12:12:15        ">
   <rdf:RDF xmlns:rdf="http://www.w3.org/1999/02/22-rdf-syntax-ns#">
      <rdf:Description rdf:about=""
            xmlns:dc="http://purl.org/dc/elements/1.1/"
            xmlns:xmp="http://ns.adobe.com/xap/1.0/"
            xmlns:xmpGImg="http://ns.adobe.com/xap/1.0/g/img/"
            xmlns:xmpMM="http://ns.adobe.com/xap/1.0/mm/"
            xmlns:stRef="http://ns.adobe.com/xap/1.0/sType/ResourceRef#"
            xmlns:stEvt="http://ns.adobe.com/xap/1.0/sType/ResourceEvent#"
            xmlns:illustrator="http://ns.adobe.com/illustrator/1.0/"
            xmlns:xmpTPg="http://ns.adobe.com/xap/1.0/t/pg/"
            xmlns:stDim="http://ns.adobe.com/xap/1.0/sType/Dimensions#"
            xmlns:xmpG="http://ns.adobe.com/xap/1.0/g/"
            xmlns:pdf="http://ns.adobe.com/pdf/1.3/">
         <dc:format>image/svg+xml</dc:format>
         <dc:title>
            <rdf:Alt>
               <rdf:li xml:lang="x-default">Imprimir</rdf:li>
            </rdf:Alt>
         </dc:title>
         <xmp:MetadataDate>2017-10-11T11:09:33-05:00</xmp:MetadataDate>
         <xmp:ModifyDate>2017-10-11T11:09:33-05:00</xmp:ModifyDate>
         <xmp:CreateDate>2017-10-11T11:09:33-05:00</xmp:CreateDate>
         <xmp:CreatorTool>Adobe Illustrator CC (Windows)</xmp:CreatorTool>
         <xmp:Thumbnails>
            <rdf:Alt>
               <rdf:li rdf:parseType="Resource">
                  <xmpGImg:width>256</xmpGImg:width>
                  <xmpGImg:height>68</xmpGImg:height>
                  <xmpGImg:format>JPEG</xmpGImg:format>
                  <xmpGImg:image>/9j/4AAQSkZJRgABAgEASABIAAD/7QAsUGhvdG9zaG9wIDMuMAA4QklNA+0AAAAAABAASAAAAAEA&#xA;AQBIAAAAAQAB/+4ADkFkb2JlAGTAAAAAAf/bAIQABgQEBAUEBgUFBgkGBQYJCwgGBggLDAoKCwoK&#xA;DBAMDAwMDAwQDA4PEA8ODBMTFBQTExwbGxscHx8fHx8fHx8fHwEHBwcNDA0YEBAYGhURFRofHx8f&#xA;Hx8fHx8fHx8fHx8fHx8fHx8fHx8fHx8fHx8fHx8fHx8fHx8fHx8fHx8fHx8f/8AAEQgARAEAAwER&#xA;AAIRAQMRAf/EAaIAAAAHAQEBAQEAAAAAAAAAAAQFAwIGAQAHCAkKCwEAAgIDAQEBAQEAAAAAAAAA&#xA;AQACAwQFBgcICQoLEAACAQMDAgQCBgcDBAIGAnMBAgMRBAAFIRIxQVEGE2EicYEUMpGhBxWxQiPB&#xA;UtHhMxZi8CRygvElQzRTkqKyY3PCNUQnk6OzNhdUZHTD0uIIJoMJChgZhJRFRqS0VtNVKBry4/PE&#xA;1OT0ZXWFlaW1xdXl9WZ2hpamtsbW5vY3R1dnd4eXp7fH1+f3OEhYaHiImKi4yNjo+Ck5SVlpeYmZ&#xA;qbnJ2en5KjpKWmp6ipqqusra6voRAAICAQIDBQUEBQYECAMDbQEAAhEDBCESMUEFURNhIgZxgZEy&#xA;obHwFMHR4SNCFVJicvEzJDRDghaSUyWiY7LCB3PSNeJEgxdUkwgJChgZJjZFGidkdFU38qOzwygp&#xA;0+PzhJSktMTU5PRldYWVpbXF1eX1RlZmdoaWprbG1ub2R1dnd4eXp7fH1+f3OEhYaHiImKi4yNjo&#xA;+DlJWWl5iZmpucnZ6fkqOkpaanqKmqq6ytrq+v/aAAwDAQACEQMRAD8ATzmH012KuxV2KuxV2Kux&#xA;V2KuxV2KuxV2KuxV2KuxV2KuxV2KuxV2KuxV2KuxV2KuxV2KuxV2KuxV2KuxV2KuxV2KuxV2KuxV&#xA;2KuxV2KuxV2KuxV2KuxV2KuxV2KuxV2KuxV2KuxV2KuxV2KuxV2KuxV2KuxV2KuxV2KuxV2KuxV2&#xA;KuxV2KqlvBNcTx28CGSaZljiQdWZjRQPmThAJNBjOQiCTyCcnyN5uHXS5vuH9cu/K5O5wv5T0/8A&#xA;PCWahpmoadMIb63kt5CKhZFK1HiPH6MqnCUTRFOVizwyC4EEIXItrsVdiqokE8kckqRs0cIBlcAl&#xA;UDHiOR7VJphALEyAIBO5U8DJ2Ko670TVrOygvbq1eK0uQpgmanFwy8lp813ycsUgASNi0Y9TjnIx&#xA;ibkOaByDejbvRdVs7OC8ubZ4rW5CmCVqcXDLyWnzXfJyxSABI2LRj1OOcjGJuQ5ql95d1uwmt4Ly&#xA;zkhlum4W6MBV2BAoN/FhhlhlGgRzY4tXiyAmMgRHmo6lpWo6ZOLe/ga3mZQ4R+pUkiv3g5GeOUTR&#xA;FM8OeGUXA2EPFFJNKkUSlpJGCIo6lmNAMiBezZKQAs8gr6jpeoabOsF9A1vMyh1R+pUkiv3g5KeO&#xA;UTRFNeHPDKLgbCFyLc7FUTYade6hcC3soWnnILCNetB1OShAyNBqy5oY48UjQUri3ntp5LedDHNE&#xA;xWRD1DDqDglEg0WUJiQBG4KngZuxV2KuxV2KuxV2KuxV2KuxV2KuxVNPKv8Ayk+kf8xtt/ydXLcH&#xA;1x94cXW/3E/6kvuemefLvzzDrcC6As7WfoIX9OJZE9X1HrUsp/Z45s9VLKJDguqeZ7Mx6WWI+NXF&#xA;fU1tQQf5khpPKVg+oIq6pziqq0NJCh9UL7f2YNb/AHQ4vqZ9jbamQh/d0fleyWW/5a6VZafDceY9&#xA;VFjNcAcIAUTiTT4Sz15EV+KgoMojooxFzlVuZPtjJOZjhhxAdf7Em80+SJdEltpop/rWnXThI5wA&#xA;CpbcA0qDUbgjrlOfS+HRBuJczQ9pjOCCOGcejI7/APK3QNOdWvtZNvBIOMRl9NC0nzY0oBmTLQwj&#xA;zlTrsfbebIPRjs+V8k2ttI8u/wDKujajUOOmzcXmv+IBD+qrUI8QwCZdHHDwav097h5NRm/OcXD6&#xA;xyj8PwWH+X/JmjXmn3Wqanqq22nwyMkYQqZCobiHataVPQU3zCxaaJBlKVB3Or7RywmMcIcUyPg7&#xA;zN5I0+y0RNa0i+N5YkgNzAqQW41UgD9rYimHPpYxhxxNhGi7TnPL4WSPDJmWraPp2peRtA/SN8th&#xA;ZW1vbSSymlW/0cKFWvc19/lmZPHGWKPEaAA+51GDUTxarJwR45EyH+yYZ5p8jW2naXHrGk3n17Tm&#xA;oHY0JUMeIYMuxHLY+BzCz6URjxRNxdxoe1JZMhxZI8M0V5xs9Qh8maDNPqD3MEkcBitmjiRYwYKg&#xA;BkUM1BtucnqIkYokmxt9zV2fkgdVkAjRF72d/Un/AOaCO+ueWkjcxO1w4SQAEqS8NGodjT3y/XfV&#xA;D3/qcDsQgY817+kfdJIPO2gave+crHSzeNf3dzAgSaREj4rzkJqIlAooUt0rlGpxSllEbskfrc/s&#xA;3VY4aaWTh4Yxly3PQd6ZJ+X/AJc0/VbO2Gtj9MRSRzfV3CAPxYNx4g1UsOm5ywaSEZAcXqcaXaub&#xA;JjlLw/3ZBFof8wNLbVPO+n2CypB61qgaaQgKqiSUk7kdhsO+DWQ4soHl+tn2Rn8LSynV1L9EV6/l&#xA;55Smu5NMt9aeTVI1q0YCEAgVOwG/y5YjR4yeES9SJdr6iMRkOMcH4/HJINB8iX2p+YLvSpJRClgS&#xA;Lq4UFhQGg4A8ftdq5j4tKZTMe52Op7UhjwxyAXx8h+O5mPlbyt5dsNfM+k6sLyW2R47m2YqzDlty&#xA;UrTYHY7fTmbp8EIzuMrp0mv12bJhrJDhEuReeebf+Un1T/mJk/4kc12o/vJe96Ps/wDuIf1QlOUu&#xA;Y7FXYq7FXYq7FXYq7FXYq7FXYq7FU08q/wDKT6R/zG23/J1ctwfXH3hxdb/cT/qS+56D+ZHnHX9F&#xA;1yG00+dYoHtllZSiOeZkdSasD2UZsNZqJwlUT0ee7I7Pw5sRlMWeKufkHn1z5h1LUNTt73U7h7lo&#xA;HVgDQAKGBIVVAUVp4Zr5ZpSkDI29Dj0kMcDHGOG3ov5jeWdU8xSafqOj8bu39LjxDquznkHHIgUI&#xA;O+bHV4JZKlHcPO9k63HpxKGT0m/wEL5tC6V5S0fRbmRXv+cNVU1oI92Ir2BPEYNR6MUYHnsy7PvL&#xA;qcmWI9FH7fxal+dLH6zpS124TGnatUyHaXOLb7Ojafw/SraTYXWpflM9lZJ6108hCxggbrchyKkg&#xA;D4RXJY4GWnoc/wBrXqMscXaHFPaNf72m/LPlexsvKDasNKTV9ZLODbSUYKUlMZUKar8IHI7VxwYB&#xA;HHxcPFJdbrZT1Hh8fh4+8e60V5tXUW/LpzfW0drdAxtLbQCiRr6w4gCp/ZIr75ZqOLwNxR/a0aAw&#xA;GtHATKO+56+lvzHoWoax+XmhxWC+rPBBazehUAuog4njXao5YM2IzwxA7h9zLSaqGHWZDPYEyF/5&#xA;yB1Gyn0H8sXsNRIS7mbikPIGjPLz4gjrRQScjOJx6epc2zDkGo14nD6R+qlDz5/ygHlv/jFbf9Q2&#xA;Q1X9zD4fc3dl/wCOZf8AO/3SafmV/wApD5X/AOYpv+TkOW6364e/9Ti9jf3Wb+r+iS/Wb23tPzX0&#xA;mSdgkclp6QY9A0jTKv3sQMOWQGojfd+tjpsZnoJgfzr+XCl+s+Stdn8/jUUT/ce08VyboutFWPiW&#xA;Wla1HGgyvJppnNxdLtyMHaWKOk4D9dEV70R5g0ax1j8yNPs741tzZc2jB4lyjykLXr86dslnxiec&#xA;A8q/W1aLUTw6Kco8+P8ARFONMtry18xS2lpodtp+kQKf9OVR6ku3w8WFOpO9a5fjiROhECPe4eon&#xA;GWESlklPIf4egQflG5hXzl5osnf07i5aN4h0JEYYMR8vUByvAR4sx3t+ugTpcMugv8fYlPkPyZru&#xA;keYJrq/jEMESPEjclPqsxFOIBrSgrvlWk004TsuV2t2jizYRGBskg+5hPm3/AJSfVP8AmJk/4kcw&#xA;dR/eS97vOz/7iH9UJTlLmOxV2KuxV2KuxV2KuxV2KuxV2KuxVfDNLBNHPC5jmiYPHIpoVZTUEHxB&#xA;xBo2GMoiQIPIq1/qeoajMJ764kuZlUIskrFiFBJpU9qk5KczI2TbDFhhjFQAA8kNkW1MdO8xa7p0&#xA;Zisb6aCI7+krHhU9wp2GWQzTjyLjZtJiyG5xBKEub28urg3NzM81wSCZZGLNt03OQlIk2ebbDHGM&#xA;eGIACtqGr6pqTI1/dS3TR1EZlYtxB60r8slPJKXM2xxafHj+gCN9y/Tte1nTY3jsbyW3jc1ZEYhS&#xA;eladK++GGWUeRpjm0uLKbnEFdZeYtdsfV+qX80PrktMFc/EzdWNf2vfrjHNOPIoyaTFOuKINLX17&#xA;Wnglt3vp3hnJaeNnZg5PUtU79MfFnVWUjS4gRIRFjlsuHmLXlW3VdQuFW0AW2AkYemoHGi0OwoKY&#xA;+NPbc7IOkxG/TH1c9uajqOr6nqUiyX9zJcuoonqMSAD4DoME8kpczbPDp8eIVACLrnV9TurWG0ub&#xA;qSa2twBBC7EqgUcRxB6UG2MskiKJ2WGnhGRlEASPMr7zXdZvJYZru9mnlt25QO7lijVBqpPT7Ixl&#xA;llLmeTHHpccARGIAPNSv9S1DUJhPe3ElzMqhFkkYswUEkCp9ycE5mRsm2eLDDGKiAAipfM/mGa3W&#xA;2l1G4eBKUQyNTY1Fd96e+TOeZFWWqOiwiXEIRv3KE+sarcXcd5NdyvdxACKcueagEkcW6jcnInJI&#xA;myd2cNPjjExERwnoiZ/NXmS4kjkl1K4Z4TyjPqEUNKV2pvQ5I55nqWuOhwRBAhHfyQj6pqL3wv2u&#xA;ZDeggi55H1KqKA8uvTbIHJIm73bhggIcAA4e7oipvNPmOaeOeTUrhpYq+m3qN8NRQ0A23GTOeZN2&#xA;WmOhwgECEaPkl8881xM80zmSaQlpJGNSSepJyskk2XJhARFDYBTwMnYq7FXYq7FXYq7FXYq7FXYq&#xA;7FXYq7FXYq7FXYq7FXYq7FXYq7FXYq7FXYq7FXYq7FXYq7FXYq7FXYq7FXYq7FXYq7FXYq7FXYq7&#xA;FXYq7FXYq7FXYq7FXYq7FXYq7FXYq7FXYq7FXYq7FXYq7FXYq7FXYq7FXYq7FXYq7FXYq7FXYq+m&#xA;P9w//FX/AAmdL6Xzb1+bX+4b/ir/AITH0r6/N3+4b/ir/hMfSvr83H9Df8Vf8Jj6U+vza/3C/wDF&#xA;X/JPH0o9fm7/AHC/8V/8k8fT5J9fm1/uF/4r/wCSePp8kevzd/uF/wCK/wDknj6fJfX5tf7hf+K/&#xA;+SePpT6/N3+4X/iv/knj6Uevzd/uF/4r/wCSePpT6/Nr/cL/AMV/8k8fSj1+bv8AcL/xX/yTx9Kf&#xA;X5tf7hP+K/8Aknj6V9fm7/cJ/wAV/wDJPH0+SPX5u/3Cf5H/ACTwenyT6/Nr/cJ/kf8AJPD6fJHr&#xA;83f7hP8AI/5J4+lPr82v9wn+R/yTx9K+vzd/uE/yP+SePpX1+bX+4T/I/wCSePpX1+bv9wf+R/yT&#xA;x9KPX5tf7g/8j/knj6U+vzd/uD/yP+SePpX1+bv9wf8Akf8AJPB6fJfX5u/3B/5P/JPH0+S+vzaP&#xA;6D/yf+SeH0r6/Nr/AHB/5P8AyTx9K+vzcf0H/k/8k8fSvr82v9wX+T/yTx9K+vzd/uC/yf8Aknj6&#xA;V9fm1/uC/wAn/knj6V9fm//Z</xmpGImg:image>
               </rdf:li>
            </rdf:Alt>
         </xmp:Thumbnails>
         <xmpMM:InstanceID>xmp.iid:e123d9c7-ee42-414d-93d7-691f2429a832</xmpMM:InstanceID>
         <xmpMM:DocumentID>xmp.did:e123d9c7-ee42-414d-93d7-691f2429a832</xmpMM:DocumentID>
         <xmpMM:OriginalDocumentID>uuid:5D20892493BFDB11914A8590D31508C8</xmpMM:OriginalDocumentID>
         <xmpMM:RenditionClass>proof:pdf</xmpMM:RenditionClass>
         <xmpMM:DerivedFrom rdf:parseType="Resource">
            <stRef:instanceID>xmp.iid:833898f5-171e-4b40-a91b-21c162e3ea01</stRef:instanceID>
            <stRef:documentID>xmp.did:833898f5-171e-4b40-a91b-21c162e3ea01</stRef:documentID>
            <stRef:originalDocumentID>uuid:5D20892493BFDB11914A8590D31508C8</stRef:originalDocumentID>
            <stRef:renditionClass>proof:pdf</stRef:renditionClass>
         </xmpMM:DerivedFrom>
         <xmpMM:History>
            <rdf:Seq>
               <rdf:li rdf:parseType="Resource">
                  <stEvt:action>saved</stEvt:action>
                  <stEvt:instanceID>xmp.iid:916f0ef3-b64e-1a4c-910b-87ef8d85b3f4</stEvt:instanceID>
                  <stEvt:when>2017-10-10T18:01:15-05:00</stEvt:when>
                  <stEvt:softwareAgent>Adobe Illustrator CC (Windows)</stEvt:softwareAgent>
                  <stEvt:changed>/</stEvt:changed>
               </rdf:li>
               <rdf:li rdf:parseType="Resource">
                  <stEvt:action>saved</stEvt:action>
                  <stEvt:instanceID>xmp.iid:e123d9c7-ee42-414d-93d7-691f2429a832</stEvt:instanceID>
                  <stEvt:when>2017-10-11T11:09:33-05:00</stEvt:when>
                  <stEvt:softwareAgent>Adobe Illustrator CC (Windows)</stEvt:softwareAgent>
                  <stEvt:changed>/</stEvt:changed>
               </rdf:li>
            </rdf:Seq>
         </xmpMM:History>
         <illustrator:StartupProfile>Print</illustrator:StartupProfile>
         <xmpTPg:HasVisibleOverprint>False</xmpTPg:HasVisibleOverprint>
         <xmpTPg:HasVisibleTransparency>False</xmpTPg:HasVisibleTransparency>
         <xmpTPg:NPages>1</xmpTPg:NPages>
         <xmpTPg:MaxPageSize rdf:parseType="Resource">
            <stDim:w>156.742004</stDim:w>
            <stDim:h>41.169006</stDim:h>
            <stDim:unit>Pixels</stDim:unit>
         </xmpTPg:MaxPageSize>
         <xmpTPg:PlateNames>
            <rdf:Seq>
               <rdf:li>Cyan</rdf:li>
               <rdf:li>Magenta</rdf:li>
               <rdf:li>Yellow</rdf:li>
            </rdf:Seq>
         </xmpTPg:PlateNames>
         <xmpTPg:SwatchGroups>
            <rdf:Seq>
               <rdf:li rdf:parseType="Resource">
                  <xmpG:groupName>Grupo de muestras por defecto</xmpG:groupName>
                  <xmpG:groupType>0</xmpG:groupType>
               </rdf:li>
            </rdf:Seq>
         </xmpTPg:SwatchGroups>
         <pdf:Producer>Adobe PDF library 10.01</pdf:Producer>
      </rdf:Description>
   </rdf:RDF>
</x:xmpmeta>
                                                                                                    
                                                                                                    
                                                                                                    
                                                                                                    
                                                                                                    
                                                                                                    
                                                                                                    
                                                                                                    
                                                                                                    
                                                                                                    
                                                                                                    
                                                                                                    
                                                                                                    
                                                                                                    
                                                                                                    
                                                                                                    
                                                                                                    
                                                                                                    
                                                                                                    
                                                                                                    
                           
<?xpacket end="w"?>
	</metadata>
<g>
	<linearGradient id="SVGID_1_" gradientUnits="userSpaceOnUse" x1="-3.051758e-005" y1="21.551" x2="156.742" y2="21.551">
		<stop  offset="0" style="stop-color:#F4F5F5"/>
		<stop  offset="1" style="stop-color:#E7E7E7"/>
	</linearGradient>
	<rect x="0" y="1.933" fill="url(#SVGID_1_)" width="156.742" height="39.236"/>
	<rect x="0" fill="#DB5940" width="156.742" height="39.237"/>
	<g>
		<g>
			<linearGradient id="SVGID_2_" gradientUnits="userSpaceOnUse" x1="33.734" y1="19.4725" x2="42.425" y2="19.4725">
				<stop  offset="0" style="stop-color:#F4F5F5"/>
				<stop  offset="1" style="stop-color:#E7E7E7"/>
			</linearGradient>
			<path fill="url(#SVGID_2_)" d="M33.734,25.145V13.8h3.676c1.393,0,2.301,0.057,2.724,0.17c0.65,0.17,1.194,0.541,1.633,1.11
				c0.438,0.57,0.658,1.307,0.658,2.21c0,0.696-0.127,1.282-0.379,1.757c-0.253,0.475-0.574,0.847-0.964,1.118
				s-0.785,0.45-1.188,0.537c-0.547,0.108-1.339,0.163-2.376,0.163h-1.494v4.279L33.734,25.145L33.734,25.145z M36.024,15.719v3.22
				h1.254c0.903,0,1.507-0.06,1.811-0.179c0.305-0.118,0.543-0.304,0.716-0.557s0.26-0.547,0.26-0.883
				c0-0.412-0.121-0.753-0.364-1.021c-0.242-0.268-0.549-0.436-0.921-0.503c-0.273-0.051-0.822-0.077-1.647-0.077H36.024z"/>
			<linearGradient id="SVGID_3_" gradientUnits="userSpaceOnUse" x1="43.787" y1="21.0355" x2="52.269" y2="21.0355">
				<stop  offset="0" style="stop-color:#F4F5F5"/>
				<stop  offset="1" style="stop-color:#E7E7E7"/>
			</linearGradient>
			<path fill="url(#SVGID_3_)" d="M43.787,20.919c0-0.722,0.178-1.421,0.534-2.097c0.355-0.676,0.859-1.192,1.513-1.548
				c0.652-0.356,1.381-0.534,2.186-0.534c1.244,0,2.263,0.404,3.058,1.211c0.794,0.808,1.191,1.828,1.191,3.061
				c0,1.244-0.401,2.274-1.203,3.092c-0.803,0.818-1.813,1.227-3.03,1.227c-0.753,0-1.472-0.17-2.155-0.511
				c-0.684-0.34-1.203-0.84-1.559-1.497C43.965,22.664,43.787,21.863,43.787,20.919z M46.016,21.035c0,0.815,0.193,1.439,0.58,1.873
				c0.388,0.434,0.864,0.649,1.432,0.649s1.044-0.216,1.428-0.649c0.385-0.434,0.577-1.063,0.577-1.889
				c0-0.805-0.192-1.424-0.577-1.857c-0.384-0.433-0.86-0.649-1.428-0.649s-1.044,0.217-1.432,0.649
				C46.209,19.596,46.016,20.22,46.016,21.035z"/>
			<linearGradient id="SVGID_4_" gradientUnits="userSpaceOnUse" x1="53.878" y1="20.9425" x2="59.203" y2="20.9425">
				<stop  offset="0" style="stop-color:#F4F5F5"/>
				<stop  offset="1" style="stop-color:#E7E7E7"/>
			</linearGradient>
			<path fill="url(#SVGID_4_)" d="M56.053,25.145h-2.175v-8.219h2.02v1.169c0.346-0.552,0.656-0.916,0.933-1.091
				c0.276-0.176,0.589-0.264,0.94-0.264c0.495,0,0.973,0.137,1.432,0.41l-0.674,1.896c-0.366-0.237-0.706-0.356-1.021-0.356
				c-0.304,0-0.563,0.084-0.773,0.252c-0.212,0.167-0.378,0.471-0.499,0.909s-0.182,1.356-0.182,2.755L56.053,25.145L56.053,25.145z
				"/>
			<linearGradient id="SVGID_5_" gradientUnits="userSpaceOnUse" x1="59.241" y1="19.677" x2="64.085" y2="19.677">
				<stop  offset="0" style="stop-color:#F4F5F5"/>
				<stop  offset="1" style="stop-color:#E7E7E7"/>
			</linearGradient>
			<path fill="url(#SVGID_5_)" d="M63.907,16.926v1.733h-1.485v3.313c0,0.671,0.014,1.062,0.042,1.173
				c0.028,0.11,0.093,0.202,0.193,0.274s0.224,0.108,0.368,0.108c0.201,0,0.492-0.07,0.874-0.209l0.186,1.687
				c-0.505,0.217-1.078,0.325-1.718,0.325c-0.392,0-0.745-0.065-1.061-0.197c-0.314-0.132-0.545-0.302-0.692-0.511
				c-0.146-0.209-0.249-0.491-0.306-0.848c-0.046-0.252-0.069-0.763-0.069-1.532v-3.583h-0.998v-1.733h0.998v-1.633l2.183-1.269
				v2.901L63.907,16.926L63.907,16.926z"/>
			<linearGradient id="SVGID_6_" gradientUnits="userSpaceOnUse" x1="64.845" y1="21.0365" x2="72.559" y2="21.0365">
				<stop  offset="0" style="stop-color:#F4F5F5"/>
				<stop  offset="1" style="stop-color:#E7E7E7"/>
			</linearGradient>
			<path fill="url(#SVGID_6_)" d="M67.041,19.434l-1.974-0.356c0.222-0.794,0.604-1.382,1.146-1.765
				c0.542-0.381,1.347-0.572,2.415-0.572c0.97,0,1.691,0.115,2.166,0.345s0.809,0.521,1.003,0.874
				c0.193,0.354,0.29,1.002,0.29,1.946l-0.023,2.538c0,0.723,0.035,1.255,0.104,1.599c0.069,0.343,0.2,0.711,0.391,1.103h-2.151
				c-0.057-0.145-0.126-0.358-0.209-0.643c-0.036-0.129-0.062-0.214-0.077-0.255c-0.371,0.361-0.769,0.632-1.191,0.813
				c-0.424,0.181-0.875,0.271-1.354,0.271c-0.847,0-1.513-0.229-2.001-0.688c-0.487-0.459-0.731-1.04-0.731-1.741
				c0-0.465,0.111-0.878,0.333-1.242c0.222-0.363,0.533-0.643,0.933-0.836s0.977-0.362,1.729-0.507
				c1.017-0.19,1.721-0.368,2.113-0.534v-0.216c0-0.418-0.104-0.717-0.31-0.895c-0.207-0.178-0.597-0.267-1.169-0.267
				c-0.387,0-0.688,0.076-0.905,0.229C67.351,18.784,67.175,19.052,67.041,19.434z M69.951,21.198
				c-0.279,0.093-0.72,0.203-1.323,0.332c-0.604,0.129-0.999,0.256-1.185,0.38c-0.284,0.201-0.426,0.456-0.426,0.766
				c0,0.305,0.113,0.567,0.341,0.789c0.227,0.223,0.516,0.333,0.866,0.333c0.393,0,0.767-0.129,1.122-0.387
				c0.264-0.196,0.437-0.436,0.519-0.72c0.057-0.186,0.086-0.539,0.086-1.061V21.198z"/>
			<linearGradient id="SVGID_7_" gradientUnits="userSpaceOnUse" x1="74.138" y1="19.565" x2="82.162" y2="19.565">
				<stop  offset="0" style="stop-color:#F4F5F5"/>
				<stop  offset="1" style="stop-color:#E7E7E7"/>
			</linearGradient>
			<path fill="url(#SVGID_7_)" d="M74.138,25.145V13.8h2.175v4.086c0.67-0.764,1.465-1.146,2.383-1.146
				c1.001,0,1.829,0.362,2.484,1.087c0.655,0.726,0.982,1.767,0.982,3.123c0,1.403-0.334,2.484-1.002,3.242
				c-0.668,0.759-1.479,1.138-2.434,1.138c-0.47,0-0.933-0.117-1.389-0.352c-0.457-0.235-0.851-0.582-1.181-1.041v1.207
				L74.138,25.145L74.138,25.145z M76.297,20.857c0,0.852,0.134,1.48,0.402,1.888c0.376,0.578,0.877,0.867,1.501,0.867
				c0.479,0,0.889-0.205,1.227-0.615s0.507-1.057,0.507-1.938c0-0.939-0.17-1.616-0.511-2.031s-0.776-0.623-1.308-0.623
				c-0.521,0-0.954,0.202-1.3,0.607S76.297,20.032,76.297,20.857z"/>
			<linearGradient id="SVGID_8_" gradientUnits="userSpaceOnUse" x1="83.912" y1="19.4725" x2="86.087" y2="19.4725">
				<stop  offset="0" style="stop-color:#F4F5F5"/>
				<stop  offset="1" style="stop-color:#E7E7E7"/>
			</linearGradient>
			<path fill="url(#SVGID_8_)" d="M83.912,15.812V13.8h2.175v2.012H83.912z M83.912,25.145v-8.219h2.175v8.219H83.912z"/>
			<linearGradient id="SVGID_9_" gradientUnits="userSpaceOnUse" x1="88.315" y1="19.4725" x2="90.49" y2="19.4725">
				<stop  offset="0" style="stop-color:#F4F5F5"/>
				<stop  offset="1" style="stop-color:#E7E7E7"/>
			</linearGradient>
			<path fill="url(#SVGID_9_)" d="M88.315,25.145V13.8h2.175v11.345H88.315z"/>
			<linearGradient id="SVGID_10_" gradientUnits="userSpaceOnUse" x1="92.719" y1="19.4725" x2="94.894" y2="19.4725">
				<stop  offset="0" style="stop-color:#F4F5F5"/>
				<stop  offset="1" style="stop-color:#E7E7E7"/>
			</linearGradient>
			<path fill="url(#SVGID_10_)" d="M92.719,15.812V13.8h2.175v2.012H92.719z M92.719,25.145v-8.219h2.175v8.219H92.719z"/>
			<linearGradient id="SVGID_11_" gradientUnits="userSpaceOnUse" x1="96.633" y1="19.5655" x2="104.659" y2="19.5655">
				<stop  offset="0" style="stop-color:#F4F5F5"/>
				<stop  offset="1" style="stop-color:#E7E7E7"/>
			</linearGradient>
			<path fill="url(#SVGID_11_)" d="M104.659,25.145h-2.02v-1.207c-0.335,0.47-0.731,0.819-1.188,1.049
				c-0.457,0.229-0.917,0.344-1.382,0.344c-0.944,0-1.753-0.38-2.426-1.142c-0.674-0.761-1.01-1.822-1.01-3.185
				c0-1.393,0.327-2.451,0.982-3.177c0.655-0.725,1.483-1.087,2.484-1.087c0.918,0,1.713,0.382,2.384,1.146V13.8h2.174v11.345
				H104.659z M98.855,20.857c0,0.877,0.121,1.512,0.363,1.903c0.352,0.567,0.841,0.852,1.471,0.852c0.5,0,0.926-0.213,1.277-0.639
				s0.525-1.062,0.525-1.907c0-0.944-0.17-1.624-0.511-2.039c-0.34-0.415-0.776-0.623-1.308-0.623c-0.516,0-0.948,0.205-1.296,0.615
				C99.029,19.43,98.855,20.042,98.855,20.857z"/>
			<linearGradient id="SVGID_12_" gradientUnits="userSpaceOnUse" x1="106.232" y1="21.0365" x2="113.946" y2="21.0365">
				<stop  offset="0" style="stop-color:#F4F5F5"/>
				<stop  offset="1" style="stop-color:#E7E7E7"/>
			</linearGradient>
			<path fill="url(#SVGID_12_)" d="M108.428,19.434l-1.974-0.356c0.222-0.794,0.604-1.382,1.146-1.765
				c0.542-0.381,1.347-0.572,2.415-0.572c0.97,0,1.691,0.115,2.166,0.345s0.809,0.521,1.003,0.874
				c0.193,0.354,0.29,1.002,0.29,1.946l-0.023,2.538c0,0.723,0.035,1.255,0.104,1.599c0.069,0.343,0.2,0.711,0.391,1.103h-2.151
				c-0.057-0.145-0.126-0.358-0.209-0.643c-0.036-0.129-0.062-0.214-0.077-0.255c-0.371,0.361-0.769,0.632-1.191,0.813
				c-0.424,0.181-0.875,0.271-1.354,0.271c-0.847,0-1.513-0.229-2.001-0.688c-0.487-0.459-0.731-1.04-0.731-1.741
				c0-0.465,0.111-0.878,0.333-1.242c0.222-0.363,0.533-0.643,0.933-0.836s0.977-0.362,1.729-0.507
				c1.017-0.19,1.721-0.368,2.113-0.534v-0.216c0-0.418-0.104-0.717-0.31-0.895c-0.207-0.178-0.597-0.267-1.169-0.267
				c-0.387,0-0.688,0.076-0.905,0.229C108.737,18.784,108.561,19.052,108.428,19.434z M111.338,21.198
				c-0.279,0.093-0.72,0.203-1.323,0.332c-0.604,0.129-0.999,0.256-1.185,0.38c-0.284,0.201-0.426,0.456-0.426,0.766
				c0,0.305,0.113,0.567,0.341,0.789c0.227,0.223,0.516,0.333,0.866,0.333c0.393,0,0.767-0.129,1.122-0.387
				c0.264-0.196,0.437-0.436,0.519-0.72c0.057-0.186,0.086-0.539,0.086-1.061V21.198z"/>
			<linearGradient id="SVGID_13_" gradientUnits="userSpaceOnUse" x1="115.128" y1="19.5655" x2="123.154" y2="19.5655">
				<stop  offset="0" style="stop-color:#F4F5F5"/>
				<stop  offset="1" style="stop-color:#E7E7E7"/>
			</linearGradient>
			<path fill="url(#SVGID_13_)" d="M123.154,25.145h-2.02v-1.207c-0.335,0.47-0.731,0.819-1.188,1.049
				c-0.457,0.229-0.917,0.344-1.382,0.344c-0.944,0-1.753-0.38-2.426-1.142c-0.674-0.761-1.01-1.822-1.01-3.185
				c0-1.393,0.327-2.451,0.982-3.177c0.655-0.725,1.483-1.087,2.484-1.087c0.918,0,1.713,0.382,2.384,1.146V13.8h2.174v11.345
				H123.154z M117.351,20.857c0,0.877,0.121,1.512,0.363,1.903c0.352,0.567,0.841,0.852,1.471,0.852c0.5,0,0.926-0.213,1.277-0.639
				s0.525-1.062,0.525-1.907c0-0.944-0.17-1.624-0.511-2.039c-0.34-0.415-0.776-0.623-1.308-0.623c-0.516,0-0.948,0.205-1.296,0.615
				C117.524,19.43,117.351,20.042,117.351,20.857z"/>
		</g>
	</g>
</g>
</svg>
