<!-- Generator: Adobe Illustrator 17.0.0, SVG Export Plug-In  -->
<svg version="1.1"
	 xmlns="http://www.w3.org/2000/svg" xmlns:xlink="http://www.w3.org/1999/xlink" xmlns:a="http://ns.adobe.com/AdobeSVGViewerExtensions/3.0/"
	 x="0px" y="0px" width="220.226px" height="21.315px" viewBox="0 0 220.226 21.315" enable-background="new 0 0 220.226 21.315"
	 xml:space="preserve">
<defs>
</defs>
<g>
	<path fill="#F16529" d="M11.21,19.754V7.274l-0.114,0.774L6.868,19.754H6.005L1.739,8.049L1.638,7.274v12.479H0V1.549h0.851
		l5.522,14.93l0.051,0.673l0.051-0.673l5.51-14.93h0.863v18.205H11.21z"/>
	<path fill="#F16529" d="M24.864,17.672c-0.199,0.466-0.472,0.872-0.819,1.219s-0.753,0.62-1.219,0.819
		c-0.465,0.198-0.96,0.298-1.485,0.298H20.3c-0.525,0-1.02-0.1-1.485-0.298c-0.465-0.199-0.872-0.473-1.219-0.819
		s-0.62-0.753-0.819-1.219s-0.298-0.96-0.298-1.485v-5.865c0-0.525,0.1-1.02,0.298-1.485s0.472-0.872,0.819-1.219
		s0.753-0.62,1.219-0.819C19.28,6.6,19.775,6.5,20.3,6.5h1.041c0.525,0,1.02,0.1,1.485,0.298c0.465,0.199,0.872,0.473,1.219,0.819
		s0.62,0.753,0.819,1.219s0.298,0.96,0.298,1.485v5.865C25.162,16.712,25.063,17.206,24.864,17.672z M23.601,10.232
		c0-0.313-0.059-0.607-0.178-0.882c-0.119-0.275-0.279-0.515-0.482-0.718s-0.442-0.364-0.717-0.482s-0.569-0.178-0.882-0.178H20.3
		c-0.313,0-0.607,0.06-0.882,0.178S18.903,8.43,18.7,8.633s-0.364,0.442-0.482,0.718c-0.119,0.274-0.178,0.568-0.178,0.882v6.043
		c0,0.313,0.059,0.607,0.178,0.882c0.119,0.275,0.279,0.515,0.482,0.718s0.442,0.364,0.717,0.482s0.569,0.178,0.882,0.178h1.041
		c0.313,0,0.607-0.06,0.882-0.178s0.514-0.279,0.717-0.482s0.364-0.442,0.482-0.718c0.119-0.274,0.178-0.568,0.178-0.882V10.232z"/>
	<path fill="#F16529" d="M36.448,19.754l-0.863-1.32c-0.355,0.482-0.8,0.865-1.333,1.149c-0.533,0.283-1.117,0.425-1.752,0.425
		h-0.394c-0.525,0-1.02-0.1-1.485-0.298c-0.465-0.199-0.872-0.473-1.219-0.819s-0.62-0.753-0.819-1.219s-0.298-0.96-0.298-1.485
		v-5.865c0-0.525,0.1-1.02,0.298-1.485s0.472-0.872,0.819-1.219s0.753-0.62,1.219-0.819C31.086,6.6,31.582,6.5,32.106,6.5H32.5
		c0.584,0,1.125,0.118,1.625,0.355s0.927,0.567,1.282,0.99V1.549h1.562v18.205H36.448z M35.407,10.232
		c0-0.313-0.059-0.607-0.178-0.882c-0.119-0.275-0.279-0.515-0.482-0.718S34.305,8.269,34.03,8.15s-0.569-0.178-0.882-0.178h-1.041
		c-0.313,0-0.607,0.06-0.882,0.178S30.71,8.43,30.507,8.633s-0.364,0.442-0.482,0.718c-0.119,0.274-0.178,0.568-0.178,0.882v6.043
		c0,0.313,0.059,0.607,0.178,0.882c0.119,0.275,0.279,0.515,0.482,0.718s0.442,0.364,0.717,0.482s0.569,0.178,0.882,0.178h1.041
		c0.313,0,0.607-0.06,0.882-0.178s0.514-0.279,0.717-0.482s0.364-0.442,0.482-0.718c0.119-0.274,0.178-0.568,0.178-0.882V10.232z"/>
	<path fill="#F16529" d="M48.477,17.672c-0.199,0.466-0.472,0.872-0.819,1.219s-0.753,0.62-1.219,0.819
		c-0.465,0.198-0.96,0.298-1.485,0.298h-1.041c-0.525,0-1.02-0.1-1.485-0.298c-0.465-0.199-0.872-0.473-1.219-0.819
		s-0.62-0.753-0.819-1.219s-0.298-0.96-0.298-1.485v-5.865c0-0.525,0.1-1.02,0.298-1.485s0.472-0.872,0.819-1.219
		s0.753-0.62,1.219-0.819C42.893,6.6,43.388,6.5,43.913,6.5h1.041c0.525,0,1.02,0.1,1.485,0.298
		c0.465,0.199,0.872,0.473,1.219,0.819s0.62,0.753,0.819,1.219s0.298,0.96,0.298,1.485v3.06h-7.122v2.895
		c0,0.313,0.059,0.607,0.178,0.882c0.119,0.275,0.279,0.515,0.482,0.718s0.442,0.364,0.717,0.482s0.569,0.178,0.882,0.178h1.041
		c0.313,0,0.607-0.06,0.882-0.178s0.514-0.279,0.717-0.482s0.364-0.442,0.482-0.718c0.119-0.274,0.178-0.568,0.178-0.882v-0.863
		l1.562,0.254v0.521C48.775,16.712,48.676,17.206,48.477,17.672z M47.214,10.232c0-0.313-0.059-0.607-0.178-0.882
		c-0.119-0.275-0.279-0.515-0.482-0.718s-0.442-0.364-0.717-0.482s-0.569-0.178-0.882-0.178h-1.041c-0.313,0-0.607,0.06-0.882,0.178
		s-0.514,0.279-0.717,0.482s-0.364,0.442-0.482,0.718c-0.119,0.274-0.178,0.568-0.178,0.882v1.93h5.561V10.232z"/>
	<path fill="#F16529" d="M52.419,19.754V1.549h1.562v18.205H52.419z"/>
	<path fill="#F16529" d="M66.009,17.672c-0.199,0.466-0.472,0.872-0.819,1.219s-0.753,0.62-1.219,0.819
		c-0.465,0.198-0.96,0.298-1.485,0.298h-1.041c-0.525,0-1.02-0.1-1.485-0.298c-0.465-0.199-0.872-0.473-1.219-0.819
		s-0.62-0.753-0.819-1.219s-0.298-0.96-0.298-1.485v-5.865c0-0.525,0.1-1.02,0.298-1.485s0.472-0.872,0.819-1.219
		s0.753-0.62,1.219-0.819C60.425,6.6,60.92,6.5,61.445,6.5h1.041c0.525,0,1.02,0.1,1.485,0.298c0.465,0.199,0.872,0.473,1.219,0.819
		s0.62,0.753,0.819,1.219s0.298,0.96,0.298,1.485v5.865C66.308,16.712,66.208,17.206,66.009,17.672z M64.746,10.232
		c0-0.313-0.059-0.607-0.178-0.882c-0.119-0.275-0.279-0.515-0.482-0.718s-0.442-0.364-0.717-0.482s-0.569-0.178-0.882-0.178h-1.041
		c-0.313,0-0.607,0.06-0.882,0.178s-0.514,0.279-0.717,0.482s-0.364,0.442-0.482,0.718c-0.119,0.274-0.178,0.568-0.178,0.882v6.043
		c0,0.313,0.059,0.607,0.178,0.882c0.119,0.275,0.279,0.515,0.482,0.718s0.442,0.364,0.717,0.482s0.569,0.178,0.882,0.178h1.041
		c0.313,0,0.607-0.06,0.882-0.178s0.514-0.279,0.717-0.482s0.364-0.442,0.482-0.718c0.119-0.274,0.178-0.568,0.178-0.882V10.232z"/>
	<path fill="#F16529" d="M75.931,19.754V1.549h1.638v18.205H75.931z"/>
	<path fill="#F16529" d="M91.711,15.539c0,0.618-0.125,1.198-0.375,1.739s-0.584,1.016-1.003,1.422s-0.906,0.726-1.46,0.959
		c-0.554,0.232-1.141,0.349-1.758,0.349h-1.308c-0.618,0-1.204-0.116-1.758-0.349c-0.554-0.233-1.041-0.553-1.46-0.959
		s-0.753-0.881-1.003-1.422s-0.375-1.121-0.375-1.739v-0.724l1.638-0.267v0.99c0,0.406,0.083,0.785,0.248,1.136
		c0.165,0.352,0.387,0.66,0.667,0.928c0.279,0.266,0.603,0.476,0.971,0.628s0.755,0.229,1.162,0.229h1.143
		c0.406,0,0.792-0.076,1.155-0.229s0.686-0.362,0.965-0.628c0.279-0.268,0.501-0.576,0.667-0.928
		c0.165-0.351,0.248-0.729,0.248-1.136v-0.546c0-0.627-0.123-1.146-0.368-1.562s-0.571-0.769-0.978-1.06
		c-0.406-0.293-0.865-0.54-1.377-0.743s-1.039-0.406-1.581-0.609s-1.068-0.427-1.581-0.673s-0.971-0.553-1.377-0.92
		c-0.406-0.369-0.732-0.819-0.978-1.353s-0.368-1.188-0.368-1.968V5.764c0-0.618,0.116-1.198,0.349-1.739s0.552-1.016,0.958-1.422
		s0.882-0.726,1.428-0.959c0.546-0.232,1.128-0.349,1.746-0.349h1.168c0.618,0,1.198,0.116,1.739,0.349
		c0.542,0.233,1.016,0.553,1.422,0.959s0.726,0.881,0.958,1.422s0.349,1.121,0.349,1.739v0.47L89.946,6.5V5.764
		c0-0.406-0.076-0.785-0.229-1.136c-0.152-0.352-0.36-0.658-0.622-0.921s-0.569-0.47-0.92-0.622s-0.73-0.229-1.136-0.229h-1.016
		c-0.406,0-0.785,0.076-1.136,0.229s-0.66,0.359-0.927,0.622s-0.476,0.569-0.628,0.921c-0.152,0.351-0.229,0.729-0.229,1.136v0.343
		c0,0.584,0.123,1.074,0.368,1.473s0.571,0.738,0.978,1.021c0.406,0.284,0.865,0.529,1.377,0.736
		c0.512,0.208,1.039,0.42,1.581,0.635c0.542,0.217,1.068,0.453,1.581,0.711c0.512,0.259,0.971,0.576,1.377,0.953
		c0.406,0.376,0.732,0.836,0.978,1.377s0.368,1.201,0.368,1.98V15.539z"/>
	<path fill="#F16529" d="M104.857,17.278c-0.233,0.541-0.552,1.016-0.958,1.422s-0.88,0.726-1.422,0.959
		c-0.542,0.232-1.122,0.349-1.739,0.349h-1.295c-0.618,0-1.2-0.116-1.746-0.349c-0.546-0.233-1.022-0.553-1.428-0.959
		s-0.726-0.881-0.958-1.422s-0.349-1.121-0.349-1.739V5.764c0-0.618,0.116-1.198,0.349-1.739s0.552-1.016,0.958-1.422
		s0.882-0.726,1.428-0.959c0.546-0.232,1.128-0.349,1.746-0.349h1.295c0.618,0,1.198,0.116,1.739,0.349
		c0.542,0.233,1.016,0.553,1.422,0.959s0.726,0.881,0.958,1.422s0.349,1.121,0.349,1.739v9.775
		C105.206,16.157,105.09,16.737,104.857,17.278z M103.568,5.764c0-0.406-0.076-0.785-0.229-1.136
		c-0.152-0.352-0.36-0.658-0.622-0.921s-0.569-0.47-0.92-0.622s-0.73-0.229-1.136-0.229h-1.143c-0.406,0-0.785,0.076-1.136,0.229
		s-0.66,0.359-0.927,0.622s-0.476,0.569-0.628,0.921c-0.152,0.351-0.229,0.729-0.229,1.136v9.775c0,0.406,0.076,0.785,0.229,1.136
		c0.152,0.352,0.362,0.66,0.628,0.928c0.267,0.266,0.576,0.476,0.927,0.628s0.73,0.229,1.136,0.229h1.143
		c0.406,0,0.785-0.076,1.136-0.229s0.658-0.362,0.92-0.628c0.262-0.268,0.47-0.576,0.622-0.928c0.152-0.351,0.229-0.729,0.229-1.136
		V5.764z"/>
	<path fill="#F16529" d="M107.555,21.315L114.804,0h1.638l-7.249,21.315H107.555z"/>
	<path fill="#F16529" d="M119.044,19.754V1.549h1.638v18.205H119.044z"/>
	<path fill="#F16529" d="M124.846,19.754V1.549h10.245V3.11h-8.607v6.767h6.97v1.562h-6.97v6.754h8.607v1.562H124.846z"/>
	<path fill="#F16529" d="M147.843,17.278c-0.233,0.541-0.552,1.016-0.958,1.422s-0.88,0.726-1.422,0.959
		c-0.542,0.232-1.122,0.349-1.739,0.349h-1.295c-0.618,0-1.2-0.116-1.746-0.349c-0.546-0.233-1.022-0.553-1.428-0.959
		s-0.726-0.881-0.958-1.422s-0.349-1.121-0.349-1.739V5.764c0-0.618,0.116-1.198,0.349-1.739s0.552-1.016,0.958-1.422
		s0.882-0.726,1.428-0.959c0.546-0.232,1.128-0.349,1.746-0.349h1.295c0.618,0,1.198,0.116,1.739,0.349
		c0.542,0.233,1.016,0.553,1.422,0.959s0.726,0.881,0.958,1.422s0.349,1.121,0.349,1.739V6.5l-1.638,0.254v-0.99
		c0-0.406-0.076-0.785-0.229-1.136c-0.152-0.352-0.36-0.658-0.622-0.921s-0.569-0.47-0.92-0.622s-0.73-0.229-1.136-0.229h-1.143
		c-0.406,0-0.785,0.076-1.136,0.229s-0.66,0.359-0.927,0.622s-0.476,0.569-0.628,0.921c-0.152,0.351-0.229,0.729-0.229,1.136v9.775
		c0,0.406,0.076,0.785,0.229,1.136c0.152,0.352,0.362,0.66,0.628,0.928c0.267,0.266,0.576,0.476,0.927,0.628s0.73,0.229,1.136,0.229
		h1.143c0.406,0,0.785-0.076,1.136-0.229s0.658-0.362,0.92-0.628c0.262-0.268,0.47-0.576,0.622-0.928
		c0.152-0.351,0.229-0.729,0.229-1.136v-0.99l1.638,0.267v0.724C148.192,16.157,148.076,16.737,147.843,17.278z"/>
	<path fill="#F16529" d="M161.713,2.856c-0.406,0-0.785,0.076-1.136,0.229s-0.658,0.359-0.92,0.622s-0.47,0.569-0.622,0.921
		c-0.152,0.351-0.229,0.729-0.229,1.136V6.5l-1.638-0.267v-0.47c0-0.618,0.116-1.198,0.349-1.739s0.552-1.016,0.958-1.422
		s0.88-0.726,1.422-0.959c0.542-0.232,1.122-0.349,1.739-0.349h0.774c0.618,0,1.2,0.11,1.746,0.33s1.022,0.538,1.428,0.952
		s0.726,0.912,0.958,1.492c0.233,0.579,0.349,1.232,0.349,1.961c0,0.719-0.108,1.443-0.324,2.171s-0.5,1.442-0.851,2.146
		s-0.753,1.384-1.206,2.044s-0.916,1.282-1.39,1.866c-1.109,1.363-2.366,2.674-3.771,3.936h7.668v1.562h-10.245v-1.295
		c1.583-1.304,2.996-2.653,4.24-4.05c0.533-0.602,1.054-1.24,1.562-1.917s0.96-1.373,1.358-2.089
		c0.398-0.715,0.717-1.442,0.958-2.184c0.241-0.74,0.362-1.471,0.362-2.189c0-0.533-0.081-0.998-0.241-1.396
		s-0.376-0.729-0.647-0.99s-0.582-0.459-0.933-0.59c-0.351-0.132-0.717-0.197-1.098-0.197H161.713z"/>
	<path fill="#F16529" d="M179.772,17.278c-0.233,0.541-0.552,1.016-0.958,1.422s-0.88,0.726-1.422,0.959
		c-0.542,0.232-1.122,0.349-1.739,0.349h-0.774c-0.618,0-1.2-0.116-1.746-0.349c-0.546-0.233-1.022-0.553-1.428-0.959
		s-0.726-0.881-0.958-1.422s-0.349-1.121-0.349-1.739V15.26h1.638v0.279c0,0.406,0.076,0.785,0.229,1.136
		c0.152,0.352,0.362,0.66,0.628,0.928c0.267,0.266,0.576,0.476,0.927,0.628s0.73,0.229,1.136,0.229h0.622
		c0.406,0,0.785-0.076,1.136-0.229s0.658-0.362,0.92-0.628c0.262-0.268,0.47-0.576,0.622-0.928c0.152-0.351,0.229-0.729,0.229-1.136
		V12.01c0-0.406-0.076-0.785-0.229-1.136c-0.152-0.352-0.36-0.66-0.622-0.928c-0.262-0.266-0.569-0.476-0.92-0.628
		s-0.73-0.229-1.136-0.229h-0.622c-0.406,0-0.785,0.076-1.136,0.229s-0.66,0.362-0.927,0.628c-0.267,0.268-0.476,0.576-0.628,0.928
		c-0.152,0.351-0.229,0.729-0.229,1.136h-1.638l1.041-10.461h7.782V3.11h-6.246l-0.597,5.599c0.389-0.372,0.842-0.662,1.358-0.87
		c0.516-0.207,1.071-0.311,1.663-0.311h0.254c0.618,0,1.198,0.116,1.739,0.35c0.542,0.232,1.016,0.552,1.422,0.958
		s0.726,0.882,0.958,1.429c0.233,0.545,0.349,1.127,0.349,1.745v3.529C180.121,16.157,180.005,16.737,179.772,17.278z"/>
	<path fill="#F16529" d="M193.14,17.278c-0.233,0.541-0.552,1.016-0.958,1.422s-0.88,0.726-1.422,0.959
		c-0.542,0.232-1.122,0.349-1.739,0.349h-0.774c-0.618,0-1.2-0.116-1.746-0.349c-0.546-0.233-1.022-0.553-1.428-0.959
		s-0.726-0.881-0.958-1.422s-0.349-1.121-0.349-1.739V5.764c0-0.618,0.116-1.198,0.349-1.739s0.552-1.016,0.958-1.422
		s0.882-0.726,1.428-0.959c0.546-0.232,1.128-0.349,1.746-0.349h0.774c0.618,0,1.198,0.116,1.739,0.349
		c0.542,0.233,1.016,0.553,1.422,0.959s0.726,0.881,0.958,1.422s0.349,1.121,0.349,1.739v9.775
		C193.489,16.157,193.373,16.737,193.14,17.278z M191.852,5.764c0-0.406-0.076-0.785-0.229-1.136
		c-0.152-0.352-0.36-0.658-0.622-0.921s-0.569-0.47-0.92-0.622s-0.73-0.229-1.136-0.229h-0.622c-0.406,0-0.785,0.076-1.136,0.229
		s-0.66,0.359-0.927,0.622s-0.476,0.569-0.628,0.921c-0.152,0.351-0.229,0.729-0.229,1.136v9.775c0,0.406,0.076,0.785,0.229,1.136
		c0.152,0.352,0.362,0.66,0.628,0.928c0.267,0.266,0.576,0.476,0.927,0.628s0.73,0.229,1.136,0.229h0.622
		c0.406,0,0.785-0.076,1.136-0.229s0.658-0.362,0.92-0.628c0.262-0.268,0.47-0.576,0.622-0.928c0.152-0.351,0.229-0.729,0.229-1.136
		V5.764z"/>
	<path fill="#F16529" d="M206.508,17.278c-0.233,0.541-0.552,1.016-0.958,1.422s-0.88,0.726-1.422,0.959
		c-0.542,0.232-1.122,0.349-1.739,0.349h-0.774c-0.618,0-1.2-0.116-1.746-0.349c-0.546-0.233-1.022-0.553-1.428-0.959
		s-0.726-0.881-0.958-1.422s-0.349-1.121-0.349-1.739V5.764c0-0.618,0.116-1.198,0.349-1.739s0.552-1.016,0.958-1.422
		s0.882-0.726,1.428-0.959c0.546-0.232,1.128-0.349,1.746-0.349h0.774c0.618,0,1.198,0.116,1.739,0.349
		c0.542,0.233,1.016,0.553,1.422,0.959s0.726,0.881,0.958,1.422s0.349,1.121,0.349,1.739v9.775
		C206.857,16.157,206.741,16.737,206.508,17.278z M205.22,5.764c0-0.406-0.076-0.785-0.229-1.136
		c-0.152-0.352-0.36-0.658-0.622-0.921s-0.569-0.47-0.92-0.622s-0.73-0.229-1.136-0.229h-0.622c-0.406,0-0.785,0.076-1.136,0.229
		s-0.66,0.359-0.927,0.622s-0.476,0.569-0.628,0.921c-0.152,0.351-0.229,0.729-0.229,1.136v9.775c0,0.406,0.076,0.785,0.229,1.136
		c0.152,0.352,0.362,0.66,0.628,0.928c0.267,0.266,0.576,0.476,0.927,0.628s0.73,0.229,1.136,0.229h0.622
		c0.406,0,0.785-0.076,1.136-0.229s0.658-0.362,0.92-0.628c0.262-0.268,0.47-0.576,0.622-0.928c0.152-0.351,0.229-0.729,0.229-1.136
		V5.764z"/>
	<path fill="#F16529" d="M219.876,17.278c-0.233,0.541-0.552,1.016-0.958,1.422s-0.88,0.726-1.422,0.959
		c-0.542,0.232-1.122,0.349-1.739,0.349h-0.774c-0.618,0-1.2-0.116-1.746-0.349c-0.546-0.233-1.022-0.553-1.428-0.959
		s-0.726-0.881-0.958-1.422s-0.349-1.121-0.349-1.739V5.764c0-0.618,0.116-1.198,0.349-1.739s0.552-1.016,0.958-1.422
		s0.882-0.726,1.428-0.959c0.546-0.232,1.128-0.349,1.746-0.349h0.774c0.618,0,1.198,0.116,1.739,0.349
		c0.542,0.233,1.016,0.553,1.422,0.959s0.726,0.881,0.958,1.422s0.349,1.121,0.349,1.739v9.775
		C220.226,16.157,220.109,16.737,219.876,17.278z M218.588,5.764c0-0.406-0.076-0.785-0.229-1.136
		c-0.152-0.352-0.36-0.658-0.622-0.921s-0.569-0.47-0.92-0.622s-0.73-0.229-1.136-0.229h-0.622c-0.406,0-0.785,0.076-1.136,0.229
		s-0.66,0.359-0.927,0.622s-0.476,0.569-0.628,0.921c-0.152,0.351-0.229,0.729-0.229,1.136v9.775c0,0.406,0.076,0.785,0.229,1.136
		c0.152,0.352,0.362,0.66,0.628,0.928c0.267,0.266,0.576,0.476,0.927,0.628s0.73,0.229,1.136,0.229h0.622
		c0.406,0,0.785-0.076,1.136-0.229s0.658-0.362,0.92-0.628c0.262-0.268,0.47-0.576,0.622-0.928c0.152-0.351,0.229-0.729,0.229-1.136
		V5.764z"/>
</g>
</svg>