<!-- Generator: Adobe Illustrator 17.0.0, SVG Export Plug-In  -->
<svg version="1.1"
	 xmlns="http://www.w3.org/2000/svg" xmlns:xlink="http://www.w3.org/1999/xlink" xmlns:a="http://ns.adobe.com/AdobeSVGViewerExtensions/3.0/"
	 x="0px" y="0px" width="496.048px" height="65.473px" viewBox="0 0 496.048 65.473" enable-background="new 0 0 496.048 65.473"
	 xml:space="preserve">
<defs>
</defs>
<g>
	<g>
		<defs>
			<polygon id="SVGID_1_" points="0,17.938 0,53.691 328.869,53.691 354.219,17.938 			"/>
		</defs>
		<clipPath id="SVGID_2_">
			<use xlink:href="#SVGID_1_"  overflow="visible"/>
		</clipPath>
	</g>
	<g>
		<defs>
			<polygon id="SVGID_3_" points="0,17.938 0,53.691 328.869,53.691 354.219,17.938 			"/>
		</defs>
		<use xlink:href="#SVGID_3_"  overflow="visible" fill="#DB5940"/>
		<clipPath id="SVGID_4_">
			<use xlink:href="#SVGID_3_"  overflow="visible"/>
		</clipPath>
		<rect x="0" y="17.938" clip-path="url(#SVGID_4_)" fill="#DB5940" width="354.219" height="35.754"/>
	</g>
	<g>
		<defs>
			<polygon id="SVGID_5_" points="0,17.938 0,53.691 328.869,53.691 354.219,17.938 			"/>
		</defs>
		<clipPath id="SVGID_6_">
			<use xlink:href="#SVGID_5_"  overflow="visible"/>
		</clipPath>
	</g>
</g>
<polygon fill="#DB5940" points="348.914,53.691 339.663,53.691 365.012,17.935 374.263,17.935 "/>
<polygon fill="#DB5940" points="369.517,53.691 360.266,53.691 385.615,17.935 394.865,17.935 "/>
<polygon fill="#DB5940" points="390.12,53.691 380.869,53.691 406.218,17.935 415.469,17.935 "/>
<g>
	<g>
		<g>
			<defs>
				<path id="SVGID_7_" d="M450.064,18.828c-1.21,0-2.197,0.982-2.197,2.195s0.987,2.189,2.197,2.189h11.413
					c1.21,0,2.191-0.976,2.191-2.189s-0.981-2.195-2.191-2.195H450.064z"/>
			</defs>
			<clipPath id="SVGID_8_">
				<use xlink:href="#SVGID_7_"  overflow="visible"/>
			</clipPath>
		</g>
		<g>
			<defs>
				<path id="SVGID_9_" d="M450.064,18.828c-1.21,0-2.197,0.982-2.197,2.195s0.987,2.189,2.197,2.189h11.413
					c1.21,0,2.191-0.976,2.191-2.189s-0.981-2.195-2.191-2.195H450.064z"/>
			</defs>
			<use xlink:href="#SVGID_9_"  overflow="visible" fill="#DB5940"/>
			<clipPath id="SVGID_10_">
				<use xlink:href="#SVGID_9_"  overflow="visible"/>
			</clipPath>
			<rect x="447.866" y="18.828" clip-path="url(#SVGID_10_)" fill="#DB5940" width="15.802" height="4.385"/>
		</g>
		<g>
			<defs>
				<path id="SVGID_11_" d="M450.064,18.828c-1.21,0-2.197,0.982-2.197,2.195s0.987,2.189,2.197,2.189h11.413
					c1.21,0,2.191-0.976,2.191-2.189s-0.981-2.195-2.191-2.195H450.064z"/>
			</defs>
			<clipPath id="SVGID_12_">
				<use xlink:href="#SVGID_11_"  overflow="visible"/>
			</clipPath>
		</g>
	</g>
	<g>
		<g>
			<defs>
				<path id="SVGID_13_" d="M450.064,27.607c-1.21,0-2.197,0.982-2.197,2.195c0,1.219,0.987,2.195,2.197,2.195h14.927
					c1.211,0,2.193-0.977,2.193-2.195c0-1.213-0.982-2.195-2.193-2.195H450.064z"/>
			</defs>
			<clipPath id="SVGID_14_">
				<use xlink:href="#SVGID_13_"  overflow="visible"/>
			</clipPath>
		</g>
		<g>
			<defs>
				<path id="SVGID_15_" d="M450.064,27.607c-1.21,0-2.197,0.982-2.197,2.195c0,1.219,0.987,2.195,2.197,2.195h14.927
					c1.211,0,2.193-0.977,2.193-2.195c0-1.213-0.982-2.195-2.193-2.195H450.064z"/>
			</defs>
			<use xlink:href="#SVGID_15_"  overflow="visible" fill="#DB5940"/>
			<clipPath id="SVGID_16_">
				<use xlink:href="#SVGID_15_"  overflow="visible"/>
			</clipPath>
			<rect x="447.866" y="27.607" clip-path="url(#SVGID_16_)" fill="#DB5940" width="19.317" height="4.391"/>
		</g>
		<g>
			<defs>
				<path id="SVGID_17_" d="M450.064,27.607c-1.21,0-2.197,0.982-2.197,2.195c0,1.219,0.987,2.195,2.197,2.195h14.927
					c1.211,0,2.193-0.977,2.193-2.195c0-1.213-0.982-2.195-2.193-2.195H450.064z"/>
			</defs>
			<clipPath id="SVGID_18_">
				<use xlink:href="#SVGID_17_"  overflow="visible"/>
			</clipPath>
		</g>
	</g>
	<g>
		<g>
			<defs>
				<path id="SVGID_19_" d="M450.064,36.387c-1.21,0-2.197,0.982-2.197,2.195c0,1.213,0.987,2.195,2.197,2.195h14.569
					c0.668-1.121,1.452-2.16,2.33-3.107c-0.344-0.752-1.094-1.283-1.973-1.283H450.064z"/>
			</defs>
			<clipPath id="SVGID_20_">
				<use xlink:href="#SVGID_19_"  overflow="visible"/>
			</clipPath>
		</g>
		<g>
			<defs>
				<path id="SVGID_21_" d="M450.064,36.387c-1.21,0-2.197,0.982-2.197,2.195c0,1.213,0.987,2.195,2.197,2.195h14.569
					c0.668-1.121,1.452-2.16,2.33-3.107c-0.344-0.752-1.094-1.283-1.973-1.283H450.064z"/>
			</defs>
			<use xlink:href="#SVGID_21_"  overflow="visible" fill="#DB5940"/>
			<clipPath id="SVGID_22_">
				<use xlink:href="#SVGID_21_"  overflow="visible"/>
			</clipPath>
			<rect x="447.866" y="36.387" clip-path="url(#SVGID_22_)" fill="#DB5940" width="19.097" height="4.391"/>
		</g>
		<g>
			<defs>
				<path id="SVGID_23_" d="M450.064,36.387c-1.21,0-2.197,0.982-2.197,2.195c0,1.213,0.987,2.195,2.197,2.195h14.569
					c0.668-1.121,1.452-2.16,2.33-3.107c-0.344-0.752-1.094-1.283-1.973-1.283H450.064z"/>
			</defs>
			<clipPath id="SVGID_24_">
				<use xlink:href="#SVGID_23_"  overflow="visible"/>
			</clipPath>
		</g>
	</g>
	<g>
		<g>
			<defs>
				<path id="SVGID_25_" d="M450.064,45.172c-1.21,0-2.197,0.977-2.197,2.19c0,1.213,0.987,2.193,2.197,2.193h12.089
					c0.026-1.517,0.242-2.984,0.626-4.383H450.064z"/>
			</defs>
			<clipPath id="SVGID_26_">
				<use xlink:href="#SVGID_25_"  overflow="visible"/>
			</clipPath>
		</g>
		<g>
			<defs>
				<path id="SVGID_27_" d="M450.064,45.172c-1.21,0-2.197,0.977-2.197,2.19c0,1.213,0.987,2.193,2.197,2.193h12.089
					c0.026-1.517,0.242-2.984,0.626-4.383H450.064z"/>
			</defs>
			<use xlink:href="#SVGID_27_"  overflow="visible" fill="#DB5940"/>
			<clipPath id="SVGID_28_">
				<use xlink:href="#SVGID_27_"  overflow="visible"/>
			</clipPath>
			<rect x="447.866" y="45.172" clip-path="url(#SVGID_28_)" fill="#DB5940" width="14.912" height="4.383"/>
		</g>
		<g>
			<defs>
				<path id="SVGID_29_" d="M450.064,45.172c-1.21,0-2.197,0.977-2.197,2.19c0,1.213,0.987,2.193,2.197,2.193h12.089
					c0.026-1.517,0.242-2.984,0.626-4.383H450.064z"/>
			</defs>
			<clipPath id="SVGID_30_">
				<use xlink:href="#SVGID_29_"  overflow="visible"/>
			</clipPath>
		</g>
	</g>
	<g>
		<defs>
			<path id="SVGID_31_" d="M490.777,33.338l-11.342,18.227l-3.801-5.422c-0.557-0.791-1.438-1.213-2.335-1.213
				c-0.569,0-1.138,0.168-1.635,0.52c-1.29,0.9-1.603,2.68-0.696,3.969l6.27,8.951c0.535,0.762,1.409,1.213,2.337,1.213h0.081
				c0.957-0.029,1.836-0.531,2.342-1.34l13.619-21.885c0.832-1.346,0.424-3.102-0.914-3.934c-0.464-0.287-0.987-0.426-1.504-0.426
				C492.249,31.998,491.316,32.471,490.777,33.338"/>
		</defs>
		<use xlink:href="#SVGID_31_"  overflow="visible" fill="#DB5940"/>
		<clipPath id="SVGID_32_">
			<use xlink:href="#SVGID_31_"  overflow="visible"/>
		</clipPath>
	</g>
	<path fill="#414042" d="M491.791,46.818c0.244,0.965,0.393,1.975,0.393,3.014c0,6.734-5.478,12.211-12.216,12.211
		c-6.732,0-12.216-5.477-12.216-12.211c0-6.74,5.483-12.215,12.216-12.215c1.718,0,3.351,0.358,4.833,1l1.82-2.918
		c-2.021-0.953-4.271-1.502-6.653-1.502c-8.627,0-15.636,7.012-15.636,15.635c0,8.623,7.009,15.641,15.636,15.641
		c8.626,0,15.64-7.018,15.64-15.641c0-2.391-0.56-4.66-1.527-6.688L491.791,46.818z"/>
	<path fill="#414042" d="M443.338,54.818c-0.613,0-1.112-0.498-1.112-1.109V12.867c0-0.605,0.499-1.101,1.112-1.101h28.375
		c0.615,0,1.109,0.496,1.109,1.101v20.637c1.385-0.6,2.856-1.027,4.391-1.264V12.867c0-3.025-2.47-5.492-5.5-5.492h-22.117V5.498
		c0-0.611,0.494-1.109,1.107-1.109h28.382c0.607,0,1.105,0.498,1.105,1.109v26.518c1.49,0.018,2.957,0.236,4.387,0.629V5.498
		c0-3.031-2.463-5.498-5.492-5.498h-28.382c-3.03,0-5.493,2.467-5.493,5.498v1.877h-1.871c-3.029,0-5.498,2.467-5.498,5.492v40.842
		c0,3.031,2.469,5.492,5.498,5.492h21.488c-0.84-1.351-1.51-2.818-1.967-4.383H443.338z"/>
</g>
<g>
	<path fill="#FFFFFF" d="M48.742,43.242v-9.6l-0.088,0.596l-3.252,9.004h-0.664l-3.281-9.004l-0.078-0.596v9.6h-1.26V29.238h0.654
		l4.248,11.484l0.039,0.518l0.039-0.518l4.238-11.484h0.664v14.004H48.742z"/>
	<path fill="#FFFFFF" d="M60.603,41.337c-0.179,0.417-0.425,0.781-0.737,1.094s-0.678,0.558-1.094,0.737s-0.863,0.269-1.338,0.269
		h-0.996c-0.475,0-0.923-0.089-1.343-0.269s-0.786-0.425-1.099-0.737s-0.559-0.677-0.737-1.094s-0.269-0.863-0.269-1.338v-7.52
		c0-0.475,0.09-0.921,0.269-1.338s0.425-0.781,0.737-1.094s0.679-0.558,1.099-0.737s0.868-0.269,1.343-0.269h0.996
		c0.475,0,0.922,0.089,1.338,0.269s0.781,0.425,1.094,0.737s0.559,0.677,0.737,1.094s0.269,0.863,0.269,1.338v7.52
		C60.871,40.475,60.781,40.921,60.603,41.337z M59.611,32.48c0-0.313-0.059-0.604-0.176-0.874s-0.277-0.506-0.479-0.708
		s-0.438-0.361-0.708-0.479s-0.562-0.176-0.874-0.176h-0.879c-0.313,0-0.604,0.059-0.874,0.176s-0.508,0.277-0.713,0.479
		s-0.366,0.438-0.483,0.708s-0.176,0.562-0.176,0.874v7.52c0,0.313,0.059,0.604,0.176,0.874s0.278,0.508,0.483,0.713
		s0.442,0.366,0.713,0.483s0.562,0.176,0.874,0.176h0.879c0.313,0,0.604-0.059,0.874-0.176s0.507-0.278,0.708-0.483
		s0.361-0.443,0.479-0.713s0.176-0.562,0.176-0.874V32.48z"/>
	<path fill="#FFFFFF" d="M71.491,41.142c-0.179,0.417-0.425,0.781-0.737,1.094s-0.679,0.558-1.099,0.737s-0.868,0.269-1.343,0.269
		h-4.434V29.238h4.434c0.475,0,0.923,0.089,1.343,0.269s0.786,0.425,1.099,0.737s0.559,0.679,0.737,1.099s0.269,0.868,0.269,1.343
		v7.119C71.76,40.279,71.67,40.726,71.491,41.142z M70.5,32.685c0-0.313-0.059-0.604-0.176-0.874s-0.278-0.508-0.483-0.713
		s-0.442-0.366-0.713-0.483s-0.562-0.176-0.874-0.176h-3.115V42.04h3.115c0.313,0,0.604-0.059,0.874-0.176s0.508-0.277,0.713-0.479
		s0.366-0.438,0.483-0.708s0.176-0.562,0.176-0.874V32.685z"/>
	<path fill="#FFFFFF" d="M74.758,43.242V29.238h7.881v1.201h-6.621v5.205h5.361v1.201h-5.361v5.195h6.621v1.201H74.758z"/>
	<path fill="#FFFFFF" d="M84.836,43.242V29.238h1.26V42.04h5.361v1.201H84.836z"/>
	<path fill="#FFFFFF" d="M100.866,41.337c-0.179,0.417-0.425,0.781-0.737,1.094s-0.678,0.558-1.094,0.737s-0.863,0.269-1.338,0.269
		h-0.996c-0.475,0-0.923-0.089-1.343-0.269s-0.786-0.425-1.099-0.737s-0.559-0.677-0.737-1.094s-0.269-0.863-0.269-1.338v-7.52
		c0-0.475,0.09-0.921,0.269-1.338s0.425-0.781,0.737-1.094s0.679-0.558,1.099-0.737s0.868-0.269,1.343-0.269h0.996
		c0.475,0,0.922,0.089,1.338,0.269s0.781,0.425,1.094,0.737s0.559,0.677,0.737,1.094s0.269,0.863,0.269,1.338v7.52
		C101.135,40.475,101.045,40.921,100.866,41.337z M99.875,32.48c0-0.313-0.059-0.604-0.176-0.874s-0.277-0.506-0.479-0.708
		s-0.438-0.361-0.708-0.479s-0.562-0.176-0.874-0.176H96.76c-0.313,0-0.604,0.059-0.874,0.176s-0.508,0.277-0.713,0.479
		s-0.366,0.438-0.483,0.708s-0.176,0.562-0.176,0.874v7.52c0,0.313,0.059,0.604,0.176,0.874s0.278,0.508,0.483,0.713
		s0.442,0.366,0.713,0.483s0.562,0.176,0.874,0.176h0.879c0.313,0,0.604-0.059,0.874-0.176s0.507-0.278,0.708-0.483
		s0.361-0.443,0.479-0.713s0.176-0.562,0.176-0.874V32.48z"/>
	<path fill="#FFFFFF" d="M111.818,39.999c0,0.475-0.096,0.921-0.288,1.338s-0.449,0.781-0.771,1.094s-0.696,0.558-1.123,0.737
		s-0.878,0.269-1.353,0.269h-1.006c-0.475,0-0.926-0.089-1.353-0.269s-0.801-0.425-1.123-0.737s-0.579-0.677-0.771-1.094
		s-0.288-0.863-0.288-1.338v-0.557l1.26-0.205v0.762c0,0.313,0.063,0.604,0.19,0.874s0.298,0.508,0.513,0.713
		s0.464,0.366,0.747,0.483s0.581,0.176,0.894,0.176h0.879c0.313,0,0.609-0.059,0.889-0.176s0.527-0.278,0.742-0.483
		s0.386-0.443,0.513-0.713s0.19-0.562,0.19-0.874v-0.42c0-0.482-0.094-0.882-0.283-1.201s-0.439-0.591-0.752-0.815
		s-0.666-0.415-1.06-0.571s-0.8-0.313-1.216-0.469s-0.822-0.329-1.216-0.518s-0.747-0.425-1.06-0.708s-0.563-0.63-0.752-1.04
		s-0.283-0.915-0.283-1.514V32.48c0-0.475,0.09-0.921,0.269-1.338s0.425-0.781,0.737-1.094s0.679-0.558,1.099-0.737
		s0.868-0.269,1.343-0.269h0.898c0.475,0,0.922,0.089,1.338,0.269s0.781,0.425,1.094,0.737s0.559,0.677,0.737,1.094
		s0.269,0.863,0.269,1.338v0.361l-1.26,0.205V32.48c0-0.313-0.059-0.604-0.176-0.874s-0.277-0.506-0.479-0.708
		s-0.438-0.361-0.708-0.479s-0.562-0.176-0.874-0.176h-0.781c-0.313,0-0.604,0.059-0.874,0.176s-0.508,0.277-0.713,0.479
		s-0.366,0.438-0.483,0.708s-0.176,0.562-0.176,0.874v0.264c0,0.449,0.094,0.827,0.283,1.133s0.439,0.568,0.752,0.786
		s0.666,0.407,1.06,0.566s0.8,0.322,1.216,0.488s0.822,0.348,1.216,0.547s0.747,0.443,1.06,0.732s0.563,0.643,0.752,1.06
		s0.283,0.924,0.283,1.523V39.999z"/>
	<path fill="#FFFFFF" d="M126.735,41.142c-0.179,0.417-0.425,0.781-0.737,1.094s-0.679,0.558-1.099,0.737s-0.868,0.269-1.343,0.269
		h-4.434V29.238h4.434c0.475,0,0.923,0.089,1.343,0.269s0.786,0.425,1.099,0.737s0.559,0.679,0.737,1.099s0.269,0.868,0.269,1.343
		v7.119C127.004,40.279,126.914,40.726,126.735,41.142z M125.744,32.685c0-0.313-0.059-0.604-0.176-0.874s-0.278-0.508-0.483-0.713
		s-0.442-0.366-0.713-0.483s-0.562-0.176-0.874-0.176h-3.115V42.04h3.115c0.313,0,0.604-0.059,0.874-0.176s0.508-0.277,0.713-0.479
		s0.366-0.438,0.483-0.708s0.176-0.562,0.176-0.874V32.685z"/>
	<path fill="#FFFFFF" d="M130.002,43.242V29.238h7.881v1.201h-6.621v5.205h5.361v1.201h-5.361v5.195h6.621v1.201H130.002z"/>
	<path fill="#FFFFFF" d="M152.292,41.337c-0.179,0.417-0.425,0.781-0.737,1.094s-0.678,0.558-1.094,0.737s-0.863,0.269-1.338,0.269
		h-0.996c-0.475,0-0.923-0.089-1.343-0.269s-0.786-0.425-1.099-0.737s-0.559-0.677-0.737-1.094s-0.269-0.863-0.269-1.338v-7.52
		c0-0.475,0.09-0.921,0.269-1.338s0.425-0.781,0.737-1.094s0.679-0.558,1.099-0.737s0.868-0.269,1.343-0.269h0.996
		c0.475,0,0.922,0.089,1.338,0.269s0.781,0.425,1.094,0.737s0.559,0.677,0.737,1.094s0.269,0.863,0.269,1.338v0.566l-1.26,0.195
		V32.48c0-0.313-0.059-0.604-0.176-0.874s-0.277-0.506-0.479-0.708s-0.438-0.361-0.708-0.479s-0.562-0.176-0.874-0.176h-0.879
		c-0.313,0-0.604,0.059-0.874,0.176s-0.508,0.277-0.713,0.479s-0.366,0.438-0.483,0.708s-0.176,0.562-0.176,0.874v7.52
		c0,0.313,0.059,0.604,0.176,0.874s0.278,0.508,0.483,0.713s0.442,0.366,0.713,0.483s0.562,0.176,0.874,0.176h0.879
		c0.313,0,0.604-0.059,0.874-0.176s0.507-0.278,0.708-0.483s0.361-0.443,0.479-0.713s0.176-0.562,0.176-0.874v-0.762l1.26,0.205
		v0.557C152.561,40.475,152.471,40.921,152.292,41.337z"/>
	<path fill="#FFFFFF" d="M160.617,39.98h-4.434l-0.918,3.262h-1.309l4.102-14.004h0.664l4.121,14.004h-1.299L160.617,39.98z
		 M156.525,38.779h3.76l-1.846-6.455l-0.039-0.518l-0.039,0.518L156.525,38.779z"/>
	<path fill="#FFFFFF" d="M164.436,43.242V29.238h1.26V42.04h5.361v1.201H164.436z"/>
	<path fill="#FFFFFF" d="M173.059,43.242V29.238h1.26v14.004H173.059z"/>
	<path fill="#FFFFFF" d="M185.134,41.142c-0.179,0.417-0.425,0.781-0.737,1.094s-0.679,0.558-1.099,0.737s-0.868,0.269-1.343,0.269
		h-4.434V29.238h4.434c0.475,0,0.923,0.089,1.343,0.269s0.786,0.425,1.099,0.737s0.559,0.679,0.737,1.099s0.269,0.868,0.269,1.343
		v7.119C185.402,40.279,185.313,40.726,185.134,41.142z M184.143,32.685c0-0.313-0.059-0.604-0.176-0.874s-0.278-0.508-0.483-0.713
		s-0.442-0.366-0.713-0.483s-0.562-0.176-0.874-0.176h-3.115V42.04h3.115c0.313,0,0.604-0.059,0.874-0.176s0.508-0.277,0.713-0.479
		s0.366-0.438,0.483-0.708s0.176-0.562,0.176-0.874V32.685z"/>
	<path fill="#FFFFFF" d="M193.654,39.98h-4.434l-0.918,3.262h-1.309l4.102-14.004h0.664l4.121,14.004h-1.299L193.654,39.98z
		 M189.563,38.779h3.76l-1.846-6.455l-0.039-0.518l-0.039,0.518L189.563,38.779z"/>
	<path fill="#FFFFFF" d="M205.29,41.142c-0.179,0.417-0.425,0.781-0.737,1.094s-0.679,0.558-1.099,0.737s-0.868,0.269-1.343,0.269
		h-4.434V29.238h4.434c0.475,0,0.923,0.089,1.343,0.269s0.786,0.425,1.099,0.737s0.559,0.679,0.737,1.099s0.269,0.868,0.269,1.343
		v7.119C205.559,40.279,205.469,40.726,205.29,41.142z M204.299,32.685c0-0.313-0.059-0.604-0.176-0.874s-0.278-0.508-0.483-0.713
		s-0.442-0.366-0.713-0.483s-0.562-0.176-0.874-0.176h-3.115V42.04h3.115c0.313,0,0.604-0.059,0.874-0.176s0.508-0.277,0.713-0.479
		s0.366-0.438,0.483-0.708s0.176-0.562,0.176-0.874V32.685z"/>
</g>
</svg>