<?xml version="1.0" encoding="utf-8"?>
<!-- Generator: Adobe Illustrator 17.0.0, SVG Export Plug-In . SVG Version: 6.00 Build 0)  -->
<!DOCTYPE svg PUBLIC "-//W3C//DTD SVG 1.1//EN" "http://www.w3.org/Graphics/SVG/1.1/DTD/svg11.dtd" [
	<!ENTITY ns_extend "http://ns.adobe.com/Extensibility/1.0/">
	<!ENTITY ns_ai "http://ns.adobe.com/AdobeIllustrator/10.0/">
	<!ENTITY ns_graphs "http://ns.adobe.com/Graphs/1.0/">
	<!ENTITY ns_vars "http://ns.adobe.com/Variables/1.0/">
	<!ENTITY ns_imrep "http://ns.adobe.com/ImageReplacement/1.0/">
	<!ENTITY ns_sfw "http://ns.adobe.com/SaveForWeb/1.0/">
	<!ENTITY ns_custom "http://ns.adobe.com/GenericCustomNamespace/1.0/">
	<!ENTITY ns_adobe_xpath "http://ns.adobe.com/XPath/1.0/">
]>
<svg version="1.1" id="Capa_1" xmlns:x="&ns_extend;" xmlns:i="&ns_ai;" xmlns:graph="&ns_graphs;"
	 xmlns="http://www.w3.org/2000/svg" xmlns:xlink="http://www.w3.org/1999/xlink" x="0px" y="0px" width="233px" height="600px"
	 viewBox="0 0 233 600" enable-background="new 0 0 233 600" xml:space="preserve">
<metadata>
	<sfw  xmlns="&ns_sfw;">
		<slices></slices>
		<sliceSourceBounds  width="279.254" height="600.078" x="511.982" y="0.422" bottomLeftOrigin="true"></sliceSourceBounds>
	</sfw>
</metadata>
<path fill="#222222" d="M233,459.276c0,0-7.318-4.442-18.266-4.442l-3.735,145.244L233,600V459.276z"/>
<g>
	<path opacity="0.2" enable-background="new    " d="M0,9h233v73.41c0,0-19.011,97.686-19.011,261.179
		C213.989,478.333,233,516.333,233,600H0V9z"/>
	<path fill="#DB5940" d="M0,0h233v40c0,0-22.011,131.097-22.011,294.589C210.989,498.08,233,556.427,233,600H0V0z"/>
</g>
<g>
	<path opacity="0.2" enable-background="new    " d="M0,468.714c0,0,34.76,3.768,104.645,3.768
		C227.311,472.481,233,459.31,233,459.31s0,10.321-127.689,10.321c-98,0-105.311-3.768-105.311-3.768V468.714z"/>
	
		<linearGradient id="SVGID_1_" gradientUnits="userSpaceOnUse" x1="-244" y1="65.591" x2="-11" y2="65.591" gradientTransform="matrix(1 0 0 -1 244 595)">
		<stop  offset="0" style="stop-color:#666666"/>
		<stop  offset="0.0073" style="stop-color:#686868"/>
		<stop  offset="0.1249" style="stop-color:#8C8C8C"/>
		<stop  offset="0.2493" style="stop-color:#AAAAAA"/>
		<stop  offset="0.3805" style="stop-color:#C0C0C0"/>
		<stop  offset="0.5219" style="stop-color:#D0D0D0"/>
		<stop  offset="0.6807" style="stop-color:#DADADA"/>
		<stop  offset="0.8926" style="stop-color:#DDDDDD"/>
		<stop  offset="1" style="stop-color:#666666"/>
	</linearGradient>
	<path fill="url(#SVGID_1_)" d="M0,600.078L233,600V458.74c0,0,0,13.741-127.689,13.741c-98,0-105.311-3.768-105.311-3.768V600.078z
		"/>
</g>
<g>
	<g>
		<defs>
			<path id="SVGID_2_" d="M0,196.235c0,0,127.5,14.563,215.938-2.873L233,40V0H0V196.235z"/>
		</defs>
		<clipPath id="SVGID_3_">
			<use xlink:href="#SVGID_2_"  overflow="visible"/>
		</clipPath>
		<g clip-path="url(#SVGID_3_)">
			
				<rect x="217.088" y="118.926" transform="matrix(0.9005 -0.4349 0.4349 0.9005 -38.6268 113.3555)" opacity="0.5" fill="#949596" enable-background="new    " width="22.562" height="44.304"/>
			<path opacity="0.5" fill="#949596" enable-background="new    " d="M193.202,126.054l0.046,0.208
				c0.343,1.539,0.264,3.079-0.161,4.495c-0.726,2.429-2.468,4.502-4.829,5.596c-0.571,0.266-1.182,0.475-1.819,0.618l-2.633,0.585
				c-0.621,0.283-1.271,0.504-1.95,0.656L47.702,168.074l-0.024,0.006c-4.299,0.947-8.582-1.089-10.674-4.723
				c-0.882,4.4-2.227,8.234-4.223,10.285l8.211,1.174l-4.112,36.749l-21.136,4.65l0.339-21.424l0.111-6.964l0.058-3.625l0.096-6.082
				l0.106-6.728l0.106-6.719l0.033-2.206l0.061-3.919l0.369-23.223l0.076-0.406l0.241-1.256l0.409-2.165l0.106-0.561l0.392-2.066
				l0.539-2.845l0.051-0.274l0.73-3.84l0.412-2.184c0,0,1.545,2.189,3.262,4.751c0.275,0.409,0.554,0.826,0.832,1.245
				c0.074,0.117,0.15,0.229,0.227,0.346c0.097,0.144,0.192,0.292,0.289,0.438c0.063,0.099,0.129,0.199,0.192,0.296
				c0.983,1.514,1.889,2.971,2.457,4.019c0.39,0.722,0.62,1.251,0.604,1.476c-0.008,0.111,0.12,0.133,0.364,0.075
				c0.099-0.021,0.22-0.059,0.359-0.107c0.263-0.091,0.589-0.225,0.964-0.393l-0.301-1.358l-0.211-0.947l-0.552-2.466l-3.186-14.306
				l-0.141-0.627l-1.247-5.594l-0.961-4.31l-7.914-35.51c-0.568-2.563-0.104-5.202,1.312-7.431c1.416-2.23,3.607-3.771,6.172-4.341
				l3.852-0.856l40.98-9.122l29.497-6.566l10.576-2.354l11.191-2.491l0.125-0.028l7.166-1.594l3.168-0.706l6.343-1.411l17.238-3.839
				l3.771-0.838l0.264-0.059c1.256-0.277,2.51-0.297,3.709-0.103l1.054-0.234c0.658-0.148,1.318-0.216,1.969-0.212
				c0.417,0,0.831,0.03,1.237,0.09c0.282,0.039,0.56,0.094,0.836,0.159c3.226,0.787,5.901,3.331,6.67,6.775l8.549,38.362
				l0.398,1.782l0.293,1.32l0.396,1.768l0.811,3.633l0.277,1.252l0.46,2.059l0.48,2.159l0.847,3.798l0.57,2.563l2.011,9.015
				l0.958,4.303l2.455,11.016l0.63,2.838l0.559,2.503l0.5,2.243l0.733,3.294L193.202,126.054z"/>
			<g>
				<path fill="#DB926E" d="M23.246,145.45c-0.688-0.042-1.379-0.18-2.061-0.422l-5.679-2.03c-2.191-0.782-3.889-2.543-4.594-4.758
					c-1.991-6.263-2.529-11.614-1.65-16.356c0.981-5.284,3.68-9.598,8.02-12.821c8.073-5.993,16.101-7.025,26.434-6.749
					c4.119,0.099,7.359,3.533,7.249,7.646c-0.11,4.112-3.533,7.358-7.648,7.247c-8.774-0.235-12.944,0.694-17.153,3.82
					c-1.069,0.792-3.384,2.509-1.975,9.251l2.013,0.719c3.875,1.385,5.892,5.647,4.507,9.521
					C29.566,143.713,26.47,145.645,23.246,145.45z"/>
			</g>
			<g>
				<g>
					<path fill="#FFB287" d="M16.583,140.123c-1.825-0.11-3.613-0.889-4.969-2.323l-7.691-8.156
						c-1.782-1.89-2.452-4.577-1.765-7.083c3.319-12.083,8.494-15.806,13.501-19.407c0.533-0.384,1.087-0.779,1.653-1.202
						c8.028-5.958,18.455-6.192,29.33-5.901c4.104,0.11,7.358,3.533,7.247,7.646c-0.11,4.113-3.531,7.358-7.646,7.248
						c-8.164-0.218-15.84-0.156-20.051,2.971c-0.63,0.467-1.241,0.907-1.832,1.333c-3.261,2.345-5.033,3.618-6.565,7.389
						l4.659,4.937c2.822,2.994,2.684,7.708-0.309,10.532C20.588,139.576,18.563,140.243,16.583,140.123z"/>
				</g>
			</g>
			<g>
				<polygon fill="#FFB287" points="23.123,130.568 18.021,118.145 24.084,110.694 22.657,109.213 12.144,114.565 14.547,127.583 
									"/>
			</g>
			<g opacity="0.5">
				<path fill="#D1805D" d="M20.021,115.688c-2.399-3.91-4.691-6.826-7.42-7.824c0,0,6.702-5.286,9.252-5.995
					c2.554-0.71,3.739,9.993,3.739,9.993L20.021,115.688z"/>
			</g>
			<g>
				<path fill="#FFB287" d="M17.947,125.685l-7.61-4.826c-3.858-0.34-5.087-3.393-6.783,4.255l-3.788,62.577
					c-0.338,3.858,2.539,7.291,6.396,7.631l5.616,0.494c3.859,0.339,7.292-2.54,7.632-6.397l4.934-56.103
					C24.685,129.458,21.435,126.994,17.947,125.685z"/>
			</g>
			<g>
				<path fill="#FFB287" d="M24.48,125.943c-3.37,2.573-10.019-1.883-7.97-5.489l-3.709,4.783c0,0,2.122,9.614,2.344,9.635
					c0.22,0.019,10.888,0.29,10.925-0.153C26.111,134.275,24.48,125.943,24.48,125.943z"/>
			</g>
			<polygon fill="#DB926E" points="21.251,171.769 0.647,170.144 1.42,161.122 21.869,162.932 			"/>
			<g>
				<polygon fill="#C7D1E0" points="-6.269,184.226 30.34,190.094 32.926,166.206 26.71,165.62 -4.257,162.725 				"/>
				<polygon fill="#FFFFFF" points="-6.111,182.537 24.633,184.828 26.71,165.62 -4.257,162.725 				"/>
				<polygon fill="#414042" points="33.056,179.681 29.282,213.238 -9.636,221.799 -11.018,215.515 -6.722,175.959 -5.508,176.073 
					0.437,176.629 16.348,178.12 20.371,178.493 22.627,178.706 25.267,178.954 31.482,179.535 				"/>
				<polygon fill="#DB5940" points="22.627,178.706 21.969,184.629 21.518,188.68 18.52,215.605 -9.636,221.799 -11.018,215.515 
					-6.722,175.959 -5.508,176.073 0.437,176.629 16.348,178.12 20.371,178.493 				"/>
			</g>
			<g>
				<path fill="#FFB287" d="M12.693,138.479c-3.971,8.501-3.231,17.245,1.653,19.525c4.888,2.282,12.065-2.762,16.036-11.264
					c3.97-8.502,3.23-17.244-1.656-19.524C23.841,124.933,16.662,129.977,12.693,138.479z"/>
			</g>
			<g>
				<path fill="#FFB287" d="M22.934,141.371c-0.731-0.044-1.463-0.191-2.169-0.445l-6.253-2.235
					c-4.09-1.461-6.219-5.961-4.759-10.051c1.462-4.09,5.963-6.221,10.051-4.758l2.413,0.86l20.988-14.792
					c3.549-2.502,8.455-1.652,10.957,1.897c2.501,3.55,1.652,8.456-1.898,10.958l-24.32,17.144
					C26.465,140.99,24.696,141.478,22.934,141.371z"/>
			</g>
			<g>
				<g>
					<g>
						<g>
							<g>
								<path fill="#414042" d="M8.042,52.052c-0.936-4.305,1.821-8.594,6.126-9.532l139.551-30.384
									c4.305-0.938,8.593,1.817,9.53,6.124l20.262,93.119c0.939,4.304-1.818,8.594-6.123,9.532l-139.55,30.383
									c-4.306,0.938-8.595-1.818-9.53-6.123L8.042,52.052z"/>
								<path fill="none" stroke="#C8C8CC" stroke-width="5.4994" stroke-miterlimit="10" d="M8.042,52.052
									c-0.936-4.305,1.821-8.594,6.126-9.532l139.551-30.384c4.305-0.938,8.593,1.817,9.53,6.124l20.262,93.119
									c0.939,4.304-1.818,8.594-6.123,9.532l-139.55,30.383c-4.306,0.938-8.595-1.818-9.53-6.123L8.042,52.052z"/>
							</g>
							<path fill="#FFFFFF" d="M152.2,23.992l18.597,85.465c0.093,0.428-0.177,0.859-0.614,0.953L60.488,134.585l-14.835,3.268
								c-0.437,0.095-0.858-0.177-0.953-0.604l-18.852-85.41c-0.093-0.428,0.177-0.86,0.612-0.954l94.231-20.761l30.298-6.68
								C151.425,23.34,152.107,23.565,152.2,23.992z"/>
						</g>
						
							<ellipse transform="matrix(-0.9766 0.2152 -0.2152 -0.9766 342.6062 92.8215)" opacity="0.47" fill="#60607F" enable-background="new    " cx="166.25" cy="65.061" rx="2.676" ry="2.768"/>
						<g>
							
								<line fill="none" stroke="#282830" stroke-width="9.134" stroke-linecap="round" stroke-miterlimit="10" x1="29.232" y1="104.206" x2="25.257" y2="86.544"/>
						</g>
					</g>
				</g>
			</g>
			<g>
				<path fill="#A1A1A1" d="M124.576,104.012l0.222,0.917c0.109,0.461-0.177,0.926-0.637,1.038
					c-0.462,0.109-0.926-0.176-1.037-0.637l-0.219-0.919l-0.919,0.219c-0.461,0.111-0.927-0.174-1.037-0.635
					c-0.111-0.461,0.176-0.926,0.637-1.035l0.919-0.221l-0.222-0.918c-0.109-0.462,0.176-0.926,0.637-1.037
					c0.461-0.11,0.926,0.174,1.035,0.637l0.222,0.917l0.919-0.22c0.461-0.109,0.924,0.175,1.035,0.637
					c0.109,0.462-0.174,0.927-0.637,1.037L124.576,104.012z"/>
				<path fill="#414042" d="M124.883,104.197l0.158,0.673c0.072,0.297,0.015,0.596-0.133,0.839l-0.001,0.001
					c-0.151,0.243-0.391,0.429-0.687,0.5c-0.299,0.072-0.597,0.015-0.842-0.134c-0.241-0.148-0.429-0.39-0.5-0.688l-0.16-0.671
					l-0.675,0.16c-0.298,0.071-0.597,0.015-0.837-0.133l-0.003-0.001c-0.242-0.149-0.427-0.39-0.5-0.688
					c-0.069-0.298-0.015-0.597,0.135-0.84v-0.001c0.149-0.242,0.391-0.427,0.689-0.499l0.673-0.161l-0.163-0.673
					c-0.07-0.296-0.014-0.596,0.134-0.84l0.001-0.001c0.151-0.243,0.392-0.428,0.688-0.5c0.297-0.072,0.598-0.015,0.84,0.134h0.001
					c0.242,0.15,0.427,0.391,0.498,0.688l0.164,0.673l0.67-0.162c0.299-0.07,0.6-0.014,0.84,0.134h0.002
					c0.243,0.149,0.429,0.389,0.501,0.689c0.069,0.297,0.013,0.597-0.134,0.839h-0.002c-0.147,0.243-0.391,0.43-0.688,0.5
					L124.883,104.197L124.883,104.197z M124.551,104.988l-0.278-1.164l1.164-0.278c0.163-0.039,0.295-0.14,0.376-0.273
					c0.08-0.132,0.112-0.295,0.071-0.459c-0.04-0.163-0.14-0.295-0.271-0.376c-0.132-0.081-0.296-0.111-0.458-0.073l-1.166,0.279
					l-0.276-1.163c-0.04-0.165-0.144-0.295-0.272-0.377l-0.003-0.001c-0.132-0.081-0.293-0.11-0.458-0.072
					c-0.163,0.039-0.296,0.141-0.376,0.273v0.001c-0.082,0.131-0.112,0.294-0.073,0.458l0.279,1.164l-1.164,0.278
					c-0.166,0.04-0.295,0.141-0.377,0.273c-0.081,0.132-0.11,0.296-0.073,0.46c0.04,0.164,0.142,0.295,0.275,0.377
					c0.131,0.079,0.297,0.111,0.459,0.072l1.163-0.28l0.277,1.163c0.041,0.164,0.144,0.297,0.274,0.377l0,0
					c0.133,0.081,0.296,0.111,0.459,0.072c0.164-0.038,0.296-0.14,0.379-0.272v-0.001
					C124.561,105.315,124.59,105.151,124.551,104.988z"/>
			</g>
			<g>
				<path fill="#DB5940" d="M85.126,57.361l0.22,0.918c0.111,0.462-0.173,0.925-0.635,1.036c-0.462,0.11-0.925-0.174-1.037-0.637
					l-0.22-0.917l-0.917,0.22c-0.462,0.11-0.926-0.174-1.036-0.635c-0.11-0.463,0.174-0.927,0.636-1.037l0.917-0.221l-0.22-0.918
					c-0.109-0.461,0.174-0.925,0.636-1.036c0.462-0.11,0.926,0.174,1.036,0.636l0.221,0.917l0.918-0.22
					c0.462-0.11,0.926,0.175,1.036,0.637c0.11,0.461-0.173,0.927-0.636,1.036L85.126,57.361z"/>
				<path fill="#414042" d="M85.432,57.548l0.161,0.672c0.071,0.298,0.016,0.598-0.136,0.841v0.001
					c-0.148,0.243-0.39,0.429-0.688,0.5c-0.298,0.071-0.595,0.014-0.841-0.135c-0.241-0.148-0.428-0.39-0.5-0.688l-0.159-0.673
					l-0.673,0.161c-0.298,0.071-0.599,0.015-0.842-0.134l-0.002-0.001c-0.241-0.149-0.425-0.389-0.499-0.687
					c-0.072-0.299-0.015-0.597,0.134-0.84l0.003-0.002c0.148-0.241,0.389-0.426,0.688-0.499l0.672-0.162l-0.161-0.672
					c-0.07-0.298-0.016-0.598,0.134-0.84v0c0.15-0.243,0.392-0.428,0.688-0.5c0.297-0.071,0.598-0.015,0.839,0.134h0.002
					c0.244,0.149,0.429,0.392,0.5,0.689l0.163,0.672l0.671-0.161c0.297-0.072,0.596-0.015,0.84,0.134h0.002
					c0.241,0.149,0.428,0.391,0.498,0.689c0.072,0.297,0.016,0.596-0.133,0.84h-0.002c-0.149,0.242-0.389,0.429-0.687,0.5
					L85.432,57.548L85.432,57.548z M85.102,58.338l-0.278-1.164l1.161-0.279c0.165-0.039,0.299-0.141,0.379-0.273
					c0.08-0.132,0.111-0.296,0.072-0.458c-0.037-0.164-0.141-0.296-0.271-0.377c-0.135-0.081-0.296-0.112-0.461-0.072l-1.164,0.278
					l-0.277-1.163c-0.04-0.165-0.143-0.296-0.272-0.377l-0.002-0.001c-0.132-0.081-0.294-0.11-0.459-0.073
					c-0.163,0.039-0.296,0.141-0.375,0.272l-0.001,0.002c-0.08,0.132-0.112,0.295-0.072,0.459l0.277,1.163l-1.162,0.279
					c-0.163,0.04-0.295,0.141-0.377,0.273c-0.082,0.131-0.11,0.296-0.071,0.458c0.037,0.164,0.14,0.297,0.271,0.377
					c0.133,0.081,0.296,0.111,0.459,0.074l1.163-0.28l0.279,1.163c0.039,0.164,0.14,0.295,0.273,0.378l0,0
					c0.131,0.08,0.295,0.11,0.459,0.072c0.165-0.04,0.295-0.141,0.378-0.272v-0.002C85.109,58.666,85.14,58.502,85.102,58.338z"/>
			</g>
			<path fill="#E3E3E3" d="M68.345,58.729c-11.3,2.733-9.693,2.345-20.991,5.077c-1.583,0.383-3.192-0.6-3.574-2.182l0,0
				c-0.383-1.583,0.598-3.191,2.182-3.575l20.99-5.076c1.584-0.383,3.192,0.599,3.574,2.182l0,0
				C70.908,56.737,69.927,58.346,68.345,58.729z"/>
			<path fill="#414042" d="M55.238,55.806l-15.824,3.827c-0.373,0.091-0.605,0.47-0.514,0.843c0.09,0.374,0.468,0.605,0.841,0.515
				l15.824-3.828c0.373-0.09,0.607-0.469,0.516-0.843C55.99,55.948,55.613,55.715,55.238,55.806L55.238,55.806z M66.445,52.978
				l-6.191,1.497c-0.372,0.091-0.604,0.471-0.516,0.844c0.092,0.374,0.469,0.605,0.845,0.515l6.19-1.497
				c0.373-0.091,0.605-0.471,0.516-0.844C67.197,53.119,66.818,52.889,66.445,52.978z"/>
			<path fill="#E3E3E3" d="M138.28,41.612c-6.898,1.467,2.532-0.538-4.367,0.928c-0.967,0.206-1.925-0.417-2.13-1.383l0,0
				c-0.206-0.967,0.416-1.926,1.383-2.131l4.367-0.93c0.967-0.206,1.926,0.417,2.131,1.383l0,0
				C139.871,40.447,139.247,41.406,138.28,41.612z"/>
			<path fill="#414042" d="M127.686,40.192l9.662-2.055c0.227-0.049,0.453,0.098,0.502,0.326s-0.101,0.455-0.327,0.502l-9.661,2.055
				c-0.228,0.048-0.455-0.099-0.502-0.326C127.311,40.466,127.456,40.24,127.686,40.192z"/>
			<g>
				<path fill="#E3E3E3" d="M158.869,93.408l-3.824,0.911c-0.964,0.228-1.563,1.202-1.335,2.164c0.229,0.96,1.203,1.56,2.165,1.331
					l0.686-0.163c0.96-0.229,1.935,0.37,2.162,1.331l0,0c0.229,0.961-0.371,1.935-1.331,2.164l-10.686,2.542
					c-0.962,0.228-1.933-0.37-2.163-1.333l0,0c-0.229-0.96,0.371-1.934,1.332-2.162l1.816-0.433
					c0.963-0.229,1.563-1.202,1.333-2.164c-0.229-0.961-1.202-1.56-2.163-1.332l-8.576,2.04c-0.961,0.229-1.936-0.37-2.163-1.332
					l0,0c-0.229-0.961,0.371-1.935,1.331-2.164l20.582-4.895c0.964-0.23,1.934,0.37,2.163,1.331l0,0
					C160.429,92.206,159.828,93.18,158.869,93.408z"/>
				<path fill="#414042" d="M145.548,92.884l9.608-2.287c0.228-0.054,0.456,0.088,0.511,0.315c0.054,0.226-0.088,0.456-0.315,0.51
					l-9.609,2.286c-0.225,0.054-0.456-0.087-0.509-0.314C145.18,93.168,145.32,92.938,145.548,92.884z"/>
			</g>
			<g>
				<path fill="#E3E3E3" d="M78.989,111.548l-3.824,0.91c-0.959,0.229-1.559,1.202-1.33,2.164c0.227,0.961,1.2,1.561,2.162,1.332
					l0.687-0.163c0.961-0.229,1.935,0.37,2.164,1.331l0,0c0.228,0.962-0.372,1.935-1.332,2.164l-10.686,2.542
					c-0.963,0.229-1.935-0.371-2.164-1.332l0,0c-0.229-0.961,0.373-1.935,1.334-2.163l1.814-0.432
					c0.962-0.229,1.561-1.202,1.332-2.164c-0.229-0.961-1.201-1.56-2.162-1.331l-8.576,2.04c-0.963,0.229-1.935-0.371-2.164-1.333
					l0,0c-0.229-0.961,0.372-1.935,1.333-2.164l20.581-4.896c0.964-0.23,1.936,0.37,2.164,1.331l0,0
					C80.551,110.346,79.951,111.319,78.989,111.548z"/>
				<path fill="#414042" d="M65.671,111.023l9.609-2.287c0.227-0.053,0.455,0.089,0.509,0.315c0.053,0.226-0.087,0.456-0.314,0.509
					l-9.609,2.286c-0.226,0.054-0.457-0.087-0.509-0.314C65.301,111.307,65.442,111.078,65.671,111.023z"/>
			</g>
			<path opacity="0.5" fill="#949596" enable-background="new    " d="M255.377,97.091l12.859,58.439l-7.637,1.681
				c-2.436-3.815-5.295-8.294-8.398-13.153c-0.031-0.049-0.063-0.101-0.096-0.152c-1.277-2.005-2.602-4.075-3.949-6.19
				c-3.951-6.192-8.151-12.768-12.275-19.233c-1.301-2.036-2.593-4.063-3.869-6.061c-1.348-2.117-2.679-4.202-3.98-6.239
				c-0.421-0.658-0.836-1.309-1.245-1.953c-6.805-10.665-12.647-19.823-15.782-24.743l-1.566,0.344l-1.004,0.225l-1.52,0.334
				l-2.054,0.455l-2.493,0.548l-4.214,0.93l-0.235,0.053l-2.889,0.638l-2.668,0.59l-7.076,1.563l-4.802,1.06
				c-0.156,0.054-0.314,0.102-0.48,0.138c-0.146,0.032-0.292,0.056-0.437,0.069c-0.135,0.045-0.268,0.083-0.409,0.114
				c-0.033,0.007-0.068,0.016-0.106,0.021h-0.003c-1.169,0.184-3.093-0.547-4.71-1.313c-1.579-0.751-2.866-1.535-2.866-1.535
				l0.031-0.054c0.084-0.119,0.309-0.445,0.633-0.883c0.251-0.339,0.557-0.742,0.904-1.174c1.233-1.53,2.952-3.384,4.244-3.665
				c0.14-0.031,0.277-0.052,0.415-0.064c0.11-0.041,0.224-0.066,0.336-0.096v-0.002l0.064-0.015c0.01-0.002,0.017-0.008,0.025-0.008
				c0.008-0.002,0.017-0.002,0.025-0.002l5.655-1.242l6.695-1.467l11.736-2.578l0.766-0.165l3.209-0.706l1.16-0.251l2.177-0.479
				l0.087-0.406l0.708-3.246l0.162-0.75l0.712-3.252l0.721-3.316c-0.006-0.028-0.013-0.053-0.013-0.077
				c-0.077-0.628,1.126-0.826,2.979-0.655c0.265,0.024,0.546,0.057,0.84,0.099c0.384,0.051,0.789,0.118,1.211,0.196
				c0.318,0.059,0.651,0.128,0.99,0.202c0.166,0.038,0.339,0.079,0.51,0.117c0.07,0.018,0.143,0.035,0.214,0.054
				c0.386,0.092,0.781,0.196,1.181,0.309c0.799,0.224,1.617,0.483,2.432,0.777c0.001-0.004,0.002-0.001,0.002-0.001
				c0.731,0.261,1.459,0.546,2.171,0.86c0.843,0.369,1.656,0.773,2.423,1.212c1.625,0.923,3.02,1.998,3.929,3.194l3.846-0.881
				c0.152-0.055,0.308-0.101,0.469-0.136l2.376-0.52l1.894-0.413c2.252-0.49,4.498,1.038,5.019,3.414
				c0.515,2.376-0.889,4.701-3.145,5.192l-1.891,0.411l-2.374,0.521c-0.147,0.032-0.293,0.057-0.439,0.071l-1.105,0.243
				l14.845,25.299L255.377,97.091z"/>
			<path opacity="0.5" fill="#949596" enable-background="new    " d="M157.676,77.648l45.089,41.729c0,0,8.223,5.663,13.371,4.53
				c2.509-0.552,4.509-1.021,6.217-2.255c2.72-1.966,4.421-4.561,5.396-8.142l-7.417-41.862l-24.017-11.737L157.676,77.648z"/>
			<g>
				<g>
					<g enable-background="new    ">
						<path fill="#414042" d="M43.184,81.231l-1.49-6.319l-1.096,5.548l-0.76,0.179l-3.493-4.466l1.489,6.319l-0.888,0.209
							l-1.96-8.316l0.888-0.209l4.1,5.26l1.249-6.521l0.888-0.209l1.96,8.316L43.184,81.231z"/>
						<path fill="#414042" d="M51.261,76.165c0.07,0.334,0.111,0.637,0.122,0.909c0.011,0.273-0.011,0.526-0.067,0.761
							c-0.055,0.237-0.158,0.475-0.307,0.713c-0.214,0.348-0.483,0.638-0.807,0.869c-0.323,0.232-0.694,0.398-1.115,0.498
							c-0.841,0.198-1.617,0.077-2.33-0.364c-0.24-0.147-0.438-0.314-0.593-0.502c-0.155-0.185-0.288-0.401-0.4-0.651
							c-0.112-0.248-0.211-0.537-0.297-0.867c-0.085-0.33-0.181-0.715-0.285-1.159c-0.104-0.444-0.192-0.833-0.263-1.166
							c-0.07-0.332-0.11-0.635-0.121-0.909c-0.012-0.271,0.011-0.526,0.066-0.761c0.056-0.234,0.158-0.472,0.307-0.713
							c0.44-0.712,1.081-1.168,1.922-1.366c0.841-0.198,1.618-0.076,2.33,0.364c0.24,0.15,0.438,0.316,0.593,0.501
							c0.154,0.186,0.288,0.403,0.399,0.651c0.112,0.25,0.211,0.539,0.297,0.867c0.085,0.33,0.18,0.716,0.285,1.161
							C51.103,75.444,51.191,75.832,51.261,76.165z M49.833,74.109c-0.083-0.297-0.167-0.546-0.256-0.747
							c-0.088-0.202-0.189-0.369-0.304-0.502c-0.113-0.133-0.252-0.25-0.415-0.352c-0.224-0.145-0.474-0.239-0.752-0.285
							c-0.277-0.046-0.553-0.037-0.825,0.028c-0.273,0.064-0.523,0.179-0.751,0.344c-0.229,0.165-0.41,0.361-0.545,0.59
							c-0.101,0.164-0.173,0.331-0.214,0.5c-0.042,0.171-0.059,0.365-0.047,0.585c0.01,0.219,0.045,0.48,0.104,0.782
							c0.06,0.303,0.14,0.672,0.243,1.109c0.103,0.436,0.196,0.802,0.278,1.099c0.082,0.296,0.167,0.545,0.256,0.747
							c0.088,0.201,0.189,0.368,0.303,0.501c0.113,0.134,0.252,0.251,0.415,0.352c0.224,0.145,0.475,0.241,0.752,0.286
							c0.278,0.046,0.553,0.036,0.826-0.028c0.272-0.064,0.523-0.178,0.751-0.343c0.228-0.164,0.41-0.362,0.545-0.591
							c0.101-0.163,0.173-0.329,0.214-0.5c0.042-0.171,0.058-0.365,0.047-0.584c-0.011-0.22-0.045-0.481-0.104-0.783
							c-0.059-0.302-0.14-0.672-0.243-1.107C50.008,74.773,49.916,74.407,49.833,74.109z"/>
						<path fill="#414042" d="M59.046,73.967c0.071,0.32,0.12,0.639,0.146,0.958c0.026,0.32,0.016,0.632-0.031,0.939
							c-0.047,0.307-0.153,0.595-0.32,0.864c-0.19,0.308-0.449,0.57-0.776,0.787c-0.327,0.216-0.708,0.376-1.144,0.479l-2.85,0.671
							l-1.96-8.316l2.85-0.671c0.437-0.103,0.849-0.129,1.238-0.082c0.39,0.047,0.738,0.167,1.046,0.357
							c0.27,0.167,0.492,0.368,0.666,0.602c0.174,0.233,0.318,0.488,0.432,0.761c0.114,0.273,0.208,0.559,0.283,0.858
							c0.074,0.299,0.145,0.593,0.213,0.88C58.904,73.342,58.975,73.646,59.046,73.967z M57.763,72.5
							c-0.063-0.252-0.138-0.489-0.223-0.711c-0.085-0.222-0.191-0.425-0.316-0.61c-0.125-0.184-0.276-0.334-0.451-0.448
							c-0.272-0.175-0.554-0.275-0.848-0.3c-0.293-0.024-0.604,0.001-0.931,0.078l-1.811,0.427l1.585,6.727l1.811-0.427
							c0.327-0.077,0.616-0.191,0.867-0.346c0.252-0.153,0.46-0.369,0.625-0.647c0.105-0.18,0.171-0.391,0.196-0.631
							c0.025-0.241,0.024-0.49-0.005-0.751c-0.028-0.26-0.072-0.527-0.133-0.8c-0.06-0.273-0.12-0.539-0.181-0.796
							C57.889,73.007,57.826,72.752,57.763,72.5z"/>
						<path fill="#414042" d="M61.93,76.813l-1.96-8.316l5.162-1.217l0.187,0.795l-4.274,1.008l0.691,2.932l3.644-0.859l0.187,0.795
							l-3.644,0.859l0.707,3l4.274-1.008l0.188,0.795L61.93,76.813z"/>
						<path fill="#414042" d="M68.938,75.161l-1.96-8.316l0.888-0.209l1.772,7.521l4.251-1.002l0.188,0.795L68.938,75.161z"/>
						<path fill="#414042" d="M79.993,69.393c0.069,0.334,0.11,0.637,0.121,0.909c0.011,0.273-0.012,0.526-0.067,0.761
							c-0.055,0.236-0.158,0.474-0.307,0.713c-0.214,0.348-0.483,0.638-0.806,0.869c-0.323,0.233-0.695,0.399-1.116,0.498
							c-0.841,0.198-1.617,0.077-2.329-0.364c-0.24-0.148-0.438-0.314-0.593-0.501c-0.154-0.186-0.288-0.401-0.4-0.651
							c-0.112-0.248-0.211-0.537-0.297-0.867c-0.085-0.33-0.181-0.715-0.285-1.159c-0.104-0.444-0.192-0.833-0.262-1.166
							c-0.071-0.332-0.111-0.635-0.122-0.909c-0.011-0.271,0.012-0.526,0.067-0.761c0.055-0.235,0.157-0.473,0.306-0.713
							c0.44-0.712,1.081-1.168,1.921-1.367c0.841-0.198,1.618-0.076,2.33,0.364c0.24,0.15,0.438,0.316,0.593,0.502
							c0.155,0.185,0.288,0.403,0.4,0.651c0.112,0.25,0.21,0.539,0.297,0.867c0.085,0.33,0.181,0.716,0.285,1.161
							C79.835,68.672,79.922,69.06,79.993,69.393z M78.565,67.338c-0.083-0.297-0.168-0.546-0.256-0.747
							c-0.089-0.202-0.189-0.368-0.303-0.502c-0.114-0.133-0.253-0.25-0.416-0.352c-0.223-0.144-0.474-0.239-0.751-0.285
							c-0.278-0.046-0.554-0.037-0.826,0.027c-0.272,0.064-0.523,0.179-0.751,0.344s-0.41,0.362-0.545,0.59
							c-0.102,0.164-0.173,0.331-0.215,0.5c-0.042,0.171-0.058,0.365-0.047,0.585c0.011,0.219,0.045,0.48,0.104,0.783
							c0.059,0.302,0.14,0.672,0.243,1.108c0.103,0.436,0.195,0.802,0.277,1.1c0.083,0.296,0.168,0.545,0.256,0.747
							c0.088,0.201,0.19,0.368,0.304,0.501c0.113,0.134,0.251,0.251,0.416,0.352c0.223,0.146,0.474,0.241,0.751,0.286
							c0.278,0.046,0.553,0.036,0.826-0.029c0.272-0.064,0.523-0.178,0.751-0.343c0.229-0.164,0.41-0.361,0.545-0.591
							c0.101-0.163,0.173-0.329,0.215-0.5c0.042-0.17,0.058-0.365,0.047-0.584c-0.011-0.22-0.046-0.48-0.104-0.782
							c-0.06-0.303-0.141-0.672-0.243-1.107C78.74,68.002,78.647,67.635,78.565,67.338z"/>
						<path fill="#414042" d="M87.3,69.459c-0.067,0.323-0.204,0.617-0.409,0.879s-0.472,0.489-0.801,0.683
							c-0.329,0.191-0.707,0.339-1.135,0.439c-0.623,0.147-1.177,0.188-1.661,0.119c-0.484-0.066-0.967-0.248-1.448-0.545
							l0.464-0.75c0.423,0.261,0.825,0.417,1.207,0.467c0.382,0.05,0.806,0.019,1.273-0.091c0.607-0.143,1.055-0.39,1.341-0.741
							c0.288-0.352,0.373-0.772,0.257-1.263c-0.051-0.218-0.131-0.409-0.24-0.572c-0.108-0.164-0.242-0.288-0.401-0.373
							c-0.161-0.086-0.318-0.138-0.475-0.154c-0.156-0.017-0.391-0.012-0.706,0.013l-1.005,0.076
							c-0.688,0.046-1.247-0.043-1.679-0.27c-0.509-0.276-0.841-0.743-0.997-1.405c-0.083-0.351-0.096-0.687-0.04-1.007
							c0.056-0.322,0.175-0.611,0.356-0.868c0.182-0.256,0.423-0.479,0.724-0.668c0.3-0.19,0.657-0.335,1.069-0.433
							c0.529-0.125,1.003-0.16,1.418-0.105c0.415,0.054,0.84,0.199,1.273,0.434L85.25,64.03c-0.313-0.174-0.63-0.285-0.954-0.335
							c-0.325-0.051-0.709-0.025-1.152,0.08c-0.562,0.132-0.96,0.375-1.197,0.727c-0.237,0.352-0.302,0.762-0.192,1.229
							c0.099,0.421,0.299,0.711,0.6,0.87c0.158,0.079,0.345,0.132,0.562,0.164s0.439,0.04,0.666,0.027l0.944-0.074
							c0.202-0.015,0.383-0.023,0.543-0.023c0.16-0.001,0.304,0.009,0.432,0.028c0.128,0.019,0.248,0.047,0.358,0.082
							c0.111,0.036,0.219,0.083,0.323,0.141c0.561,0.286,0.923,0.78,1.089,1.481C87.358,68.79,87.367,69.135,87.3,69.459z"/>
						<path fill="#414042" d="M97.554,64.891c0.071,0.32,0.119,0.639,0.146,0.958c0.026,0.319,0.015,0.632-0.032,0.939
							s-0.154,0.595-0.321,0.864c-0.19,0.308-0.449,0.57-0.776,0.787c-0.327,0.216-0.708,0.376-1.144,0.479l-2.85,0.672l-1.96-8.316
							l2.851-0.672c0.436-0.103,0.849-0.129,1.237-0.082c0.39,0.048,0.738,0.167,1.046,0.357c0.27,0.167,0.492,0.368,0.666,0.602
							c0.175,0.233,0.319,0.488,0.432,0.761c0.114,0.273,0.208,0.559,0.283,0.858c0.074,0.299,0.146,0.592,0.213,0.879
							C97.412,64.266,97.482,64.571,97.554,64.891z M96.271,63.423c-0.063-0.252-0.138-0.489-0.223-0.711
							c-0.085-0.222-0.191-0.425-0.316-0.609c-0.126-0.184-0.276-0.334-0.451-0.449c-0.271-0.175-0.554-0.274-0.848-0.3
							c-0.293-0.025-0.604,0.001-0.931,0.078l-1.811,0.426l1.585,6.727l1.811-0.426c0.327-0.077,0.617-0.192,0.868-0.346
							c0.252-0.153,0.459-0.37,0.625-0.647c0.105-0.179,0.17-0.391,0.197-0.63c0.024-0.241,0.023-0.49-0.005-0.752
							c-0.028-0.26-0.073-0.527-0.133-0.8c-0.061-0.273-0.121-0.539-0.181-0.796C96.396,63.931,96.334,63.677,96.271,63.423z"/>
						<path fill="#414042" d="M100.437,67.737l-1.96-8.316l5.162-1.217l0.187,0.795l-4.274,1.007l0.691,2.932l3.644-0.858
							l0.187,0.795l-3.644,0.858l0.707,3l4.274-1.007l0.188,0.795L100.437,67.737z"/>
						<path fill="#414042" d="M115.152,62.832c-0.094,0.348-0.244,0.655-0.447,0.927c-0.204,0.27-0.452,0.498-0.744,0.687
							c-0.293,0.188-0.626,0.326-1,0.414c-0.413,0.097-0.817,0.114-1.215,0.051c-0.396-0.061-0.769-0.2-1.115-0.416
							c-0.24-0.147-0.438-0.314-0.592-0.501c-0.155-0.185-0.288-0.401-0.4-0.651c-0.112-0.248-0.212-0.537-0.297-0.867
							c-0.086-0.329-0.181-0.715-0.286-1.158c-0.105-0.444-0.192-0.833-0.262-1.166c-0.071-0.332-0.11-0.634-0.121-0.908
							c-0.012-0.272,0.011-0.526,0.066-0.761c0.056-0.234,0.158-0.472,0.306-0.713c0.215-0.346,0.486-0.636,0.813-0.87
							c0.328-0.234,0.697-0.399,1.11-0.497c0.373-0.088,0.733-0.112,1.08-0.074c0.346,0.037,0.67,0.13,0.973,0.282
							c0.302,0.15,0.574,0.36,0.813,0.628c0.241,0.268,0.441,0.588,0.603,0.96l-0.911,0.215c-0.229-0.488-0.552-0.843-0.966-1.067
							c-0.414-0.222-0.882-0.272-1.404-0.149c-0.273,0.064-0.524,0.177-0.752,0.338c-0.229,0.16-0.411,0.355-0.546,0.584
							c-0.102,0.164-0.173,0.331-0.215,0.501c-0.042,0.17-0.057,0.366-0.046,0.589c0.012,0.224,0.047,0.487,0.106,0.79
							s0.14,0.672,0.243,1.108c0.103,0.436,0.195,0.803,0.278,1.1c0.082,0.296,0.168,0.548,0.257,0.752
							c0.09,0.205,0.191,0.375,0.305,0.508c0.114,0.134,0.252,0.251,0.416,0.352c0.224,0.145,0.474,0.238,0.75,0.279
							c0.277,0.042,0.551,0.03,0.824-0.035c0.521-0.123,0.922-0.377,1.201-0.763c0.278-0.387,0.412-0.85,0.399-1.388l0.888-0.209
							C115.285,62.108,115.248,62.485,115.152,62.832z"/>
						<path fill="#414042" d="M122.523,62.531l-1.109-1.723l-3.633,0.856l-0.223,2.037l-0.946,0.223l1.1-9.038l0.747-0.176
							l5.01,7.598L122.523,62.531z M118.398,56.07l-0.529,4.76l3.106-0.732L118.398,56.07z"/>
						<path fill="#414042" d="M124.812,61.992l-1.96-8.316l0.888-0.209l1.772,7.521l4.252-1.002l0.188,0.795L124.812,61.992z"/>
						<path fill="#414042" d="M131.505,60.415l-1.961-8.316l0.888-0.209l1.961,8.316L131.505,60.415z"/>
						<path fill="#414042" d="M139.774,54.94c0.071,0.32,0.12,0.639,0.146,0.958c0.026,0.319,0.016,0.632-0.031,0.939
							s-0.153,0.595-0.32,0.864c-0.19,0.308-0.449,0.57-0.776,0.787c-0.327,0.216-0.708,0.376-1.144,0.479l-2.851,0.672l-1.96-8.316
							l2.85-0.672c0.437-0.103,0.849-0.129,1.238-0.082s0.738,0.167,1.046,0.357c0.27,0.167,0.491,0.368,0.666,0.602
							c0.174,0.233,0.318,0.488,0.432,0.761c0.114,0.273,0.208,0.559,0.282,0.858c0.074,0.299,0.146,0.592,0.214,0.879
							C139.633,54.314,139.703,54.62,139.774,54.94z M138.491,53.472c-0.063-0.252-0.138-0.489-0.223-0.711
							c-0.085-0.222-0.19-0.425-0.316-0.609c-0.125-0.184-0.275-0.334-0.45-0.449c-0.271-0.175-0.554-0.274-0.848-0.3
							c-0.294-0.024-0.604,0.001-0.931,0.078l-1.811,0.427l1.585,6.727l1.811-0.427c0.327-0.077,0.616-0.191,0.867-0.346
							c0.252-0.153,0.46-0.369,0.625-0.647c0.105-0.179,0.171-0.391,0.196-0.63c0.025-0.241,0.024-0.49-0.005-0.752
							c-0.028-0.26-0.073-0.527-0.133-0.8c-0.061-0.273-0.12-0.539-0.182-0.796C138.617,53.979,138.555,53.726,138.491,53.472z"/>
						<path fill="#414042" d="M147.389,56.671l-1.109-1.723l-3.632,0.856l-0.223,2.037l-0.946,0.223l1.1-9.038l0.747-0.176
							l5.01,7.598L147.389,56.671z M143.265,50.209l-0.53,4.76l3.106-0.732L143.265,50.209z"/>
						<path fill="#414042" d="M154.653,51.433c0.072,0.32,0.12,0.639,0.146,0.958c0.025,0.32,0.015,0.632-0.031,0.939
							c-0.047,0.307-0.154,0.595-0.321,0.864c-0.189,0.308-0.448,0.57-0.775,0.787c-0.327,0.216-0.708,0.376-1.145,0.479
							l-2.85,0.672l-1.961-8.316l2.851-0.672c0.436-0.103,0.849-0.129,1.237-0.082c0.39,0.047,0.738,0.167,1.046,0.357
							c0.271,0.167,0.492,0.368,0.666,0.602c0.175,0.233,0.318,0.488,0.433,0.761c0.113,0.273,0.208,0.559,0.282,0.858
							s0.146,0.593,0.213,0.88C154.513,50.808,154.582,51.112,154.653,51.433z M153.371,49.965
							c-0.063-0.252-0.138-0.489-0.223-0.711c-0.086-0.222-0.191-0.425-0.316-0.61c-0.126-0.184-0.276-0.334-0.451-0.448
							c-0.271-0.175-0.554-0.275-0.848-0.3c-0.294-0.024-0.604,0.001-0.931,0.078l-1.811,0.427l1.586,6.727l1.811-0.427
							c0.326-0.077,0.615-0.191,0.867-0.346c0.252-0.153,0.46-0.369,0.625-0.647c0.105-0.18,0.17-0.391,0.195-0.631
							c0.025-0.241,0.024-0.49-0.004-0.751c-0.028-0.26-0.073-0.527-0.134-0.8s-0.12-0.539-0.181-0.796
							C153.497,50.473,153.435,50.218,153.371,49.965z"/>
					</g>
					<g>
						<g enable-background="new    ">
							<path fill="#DB5940" d="M48.838,109.25c-2.531,0.597-4.58,0.51-6.612-0.767l1.612-2.606c1.303,0.806,2.816,0.821,4.363,0.456
								c1.921-0.453,2.781-1.422,2.466-2.758c-0.138-0.586-0.418-1.039-0.847-1.285c-0.4-0.228-0.813-0.303-1.614-0.238
								l-2.082,0.194c-1.479,0.126-2.639-0.07-3.561-0.621c-0.984-0.609-1.637-1.592-1.969-2.998
								c-0.701-2.978,1.01-5.582,4.619-6.433c2.297-0.541,4.094-0.371,5.849,0.674l-1.582,2.525
								c-1.292-0.759-2.591-0.602-3.692-0.342c-1.734,0.409-2.352,1.569-2.081,2.717c0.1,0.422,0.345,0.835,0.774,1.08
								c0.399,0.227,1,0.357,1.702,0.291l2.034-0.183c1.573-0.148,2.634,0.048,3.491,0.538c1.09,0.635,1.775,1.758,2.123,3.235
								C54.595,105.964,52.33,108.428,48.838,109.25z"/>
							<path fill="#DB5940" d="M67.767,102.859c-0.896,1.448-2.17,2.441-4.069,2.889c-1.898,0.448-3.506,0.134-4.955-0.762
								c-2.084-1.289-2.53-3.387-3.209-6.27c-0.679-2.882-1.217-4.958,0.072-7.042c0.896-1.448,2.194-2.447,4.092-2.895
								c1.898-0.447,3.483-0.128,4.931,0.768c2.084,1.289,2.553,3.381,3.232,6.263C68.542,98.694,69.057,100.775,67.767,102.859z
								 M62.679,92.085c-0.595-0.428-1.404-0.609-2.295-0.399s-1.558,0.739-1.899,1.388c-0.467,0.854-0.449,1.665,0.308,4.875
								s1.103,3.946,1.902,4.5c0.596,0.429,1.428,0.604,2.319,0.394s1.534-0.732,1.875-1.382c0.468-0.853,0.472-1.67-0.285-4.881
								S63.478,92.64,62.679,92.085z"/>
							<path fill="#DB5940" d="M73.167,88.822l0.967,4.101l6.586-1.552l0.685,2.906l-6.585,1.552l1.596,6.773l-3.257,0.768
								l-3.933-16.687l10.992-2.591l0.685,2.906L73.167,88.822z"/>
							<path fill="#DB5940" d="M90.113,84.828l3.248,13.78l-3.258,0.768l-3.248-13.78l-4.359,1.028l-0.685-2.906l11.976-2.823
								l0.685,2.906L90.113,84.828z"/>
							<path fill="#DB5940" d="M114.595,93.604l-2.719,0.641l-5.457-9.401l-0.683,10.849l-2.719,0.641l-8.386-15.637l3.398-0.801
								l5.059,9.915l0.566-11.241l2.438-0.575l5.526,9.805l0.122-11.136l3.398-0.801L114.595,93.604z"/>
							<path fill="#DB5940" d="M130.276,89.908l-1.681-2.721l-5.93,1.397l-0.312,3.191l-3.397,0.801l2.137-18.117l2.555-0.602
								l10.026,15.25L130.276,89.908z M123.613,79.06l-0.679,6.567l4.147-0.978L123.613,79.06z"/>
							<path fill="#DB5940" d="M144.597,86.533l-4.826-5.888l-2.345,0.552l1.569,6.655l-3.258,0.768l-3.933-16.687l6.538-1.541
								c3.398-0.801,5.961,1.044,6.618,3.833c0.552,2.343-0.534,4.133-2.014,5.101l5.422,6.316L144.597,86.533z M138.817,73.349
								l-3.07,0.724l1.038,4.406l3.07-0.724c1.43-0.337,2.152-1.472,1.848-2.761C141.399,73.705,140.247,73.012,138.817,73.349z"/>
							<path fill="#DB5940" d="M151.066,85.008l-3.934-16.687l10.992-2.591l0.685,2.906l-7.734,1.823l0.923,3.914l6.586-1.553
								l0.685,2.905l-6.586,1.553l0.956,4.055l7.734-1.823l0.685,2.906L151.066,85.008z"/>
						</g>
					</g>
					<g enable-background="new    ">
						<path fill="#414042" d="M38.815,92.179l-1.73-7.339l4.834-1.139l0.301,1.279l-3.401,0.802l0.406,1.721l2.896-0.683
							l0.301,1.277l-2.896,0.683l0.42,1.783l3.401-0.802l0.301,1.278L38.815,92.179z"/>
						<path fill="#414042" d="M49.972,89.55l-3.969-3.819l1.062,4.504l-1.433,0.338l-1.729-7.339l1.278-0.301l3.966,3.809
							l-1.06-4.494l1.433-0.337l1.73,7.339L49.972,89.55z"/>
						<path fill="#414042" d="M56.512,88.008l-1.729-7.339l4.834-1.139l0.301,1.279l-3.401,0.802l0.406,1.721l2.896-0.683
							l0.301,1.277l-2.896,0.683l0.42,1.783l3.401-0.802l0.302,1.278L56.512,88.008z"/>
						<path fill="#414042" d="M63.329,86.401l-1.73-7.339l1.433-0.338l1.428,6.061L67.789,84l0.302,1.278L63.329,86.401z"/>
						<path fill="#414042" d="M77.228,82.386c-0.37,0.599-1.01,0.977-1.772,1.157l-2.648,0.625l-1.73-7.339l2.649-0.625
							c0.763-0.18,1.505-0.125,2.103,0.246c1.02,0.63,1.175,1.659,1.436,2.762C77.523,80.314,77.858,81.367,77.228,82.386z
							 M75.072,77.716c-0.318-0.241-0.684-0.317-1.179-0.201l-1.083,0.255l1.127,4.781l1.083-0.255
							c0.494-0.117,0.788-0.348,0.965-0.706c0.19-0.394,0.107-0.929-0.155-2.042C75.568,78.437,75.418,77.982,75.072,77.716z"/>
						<path fill="#414042" d="M80.18,82.43l-1.729-7.339l4.834-1.14l0.301,1.279l-3.401,0.802l0.406,1.721l2.896-0.683l0.301,1.277
							l-2.896,0.683l0.42,1.783l3.401-0.802l0.302,1.278L80.18,82.43z"/>
						<path fill="#414042" d="M89.031,80.409c-1.112,0.263-2.014,0.225-2.908-0.337l0.709-1.146c0.573,0.354,1.238,0.361,1.918,0.2
							c0.846-0.199,1.223-0.625,1.085-1.213c-0.061-0.258-0.185-0.458-0.372-0.565c-0.177-0.1-0.358-0.133-0.711-0.105l-0.916,0.085
							c-0.651,0.057-1.161-0.03-1.565-0.272c-0.433-0.268-0.72-0.701-0.866-1.319c-0.309-1.31,0.445-2.455,2.032-2.829
							c1.01-0.238,1.8-0.164,2.572,0.296l-0.695,1.111c-0.569-0.335-1.14-0.265-1.625-0.151c-0.763,0.18-1.034,0.69-0.915,1.195
							c0.043,0.186,0.152,0.366,0.341,0.475c0.176,0.101,0.439,0.157,0.749,0.128l0.895-0.08c0.692-0.065,1.158,0.021,1.535,0.236
							c0.479,0.279,0.781,0.773,0.934,1.423C91.563,78.963,90.567,80.047,89.031,80.409z"/>
						<path fill="#414042" d="M97.844,78.267l-0.739-1.196l-2.608,0.615l-0.138,1.402l-1.494,0.353l0.939-7.968l1.124-0.265
							l4.41,6.707L97.844,78.267z M94.913,73.496l-0.299,2.889l1.825-0.43L94.913,73.496z"/>
						<path fill="#414042" d="M104.723,76.645l-2.123-2.589l-1.03,0.243l0.689,2.927l-1.433,0.338l-1.729-7.339l2.875-0.678
							c1.495-0.353,2.622,0.46,2.911,1.686c0.243,1.031-0.235,1.818-0.886,2.244l2.385,2.777L104.723,76.645z M102.181,70.848
							l-1.35,0.318l0.457,1.938l1.351-0.318c0.629-0.148,0.946-0.647,0.813-1.215C103.316,71.004,102.81,70.7,102.181,70.848z"/>
						<path fill="#414042" d="M112.044,74.919l-2.123-2.589l-1.03,0.243l0.69,2.927l-1.433,0.338l-1.73-7.339l2.875-0.678
							c1.495-0.353,2.622,0.46,2.911,1.686c0.243,1.031-0.235,1.818-0.886,2.244l2.385,2.778L112.044,74.919z M109.502,69.122
							l-1.35,0.318l0.457,1.938l1.35-0.318c0.629-0.148,0.946-0.647,0.813-1.215C110.639,69.278,110.131,68.974,109.502,69.122z"/>
						<path fill="#414042" d="M119.737,72.323c-0.394,0.637-0.954,1.074-1.789,1.271s-1.542,0.059-2.179-0.336
							c-0.917-0.566-1.112-1.489-1.411-2.757s-0.536-2.179,0.031-3.097c0.394-0.637,0.965-1.077,1.8-1.273s1.531-0.056,2.168,0.338
							c0.918,0.567,1.123,1.487,1.422,2.754S120.306,71.407,119.737,72.323z M117.501,67.584c-0.263-0.188-0.618-0.268-1.01-0.175
							c-0.393,0.092-0.686,0.324-0.836,0.61c-0.205,0.375-0.197,0.732,0.136,2.144c0.333,1.412,0.485,1.735,0.836,1.979
							c0.262,0.188,0.628,0.265,1.021,0.173c0.392-0.092,0.675-0.322,0.825-0.608c0.204-0.375,0.207-0.734-0.125-2.146
							C118.015,68.149,117.852,67.829,117.501,67.584z"/>
						<path fill="#414042" d="M122.689,72.411l-1.73-7.339l1.433-0.338l1.429,6.061l3.329-0.785l0.302,1.278L122.689,72.411z"/>
						<path fill="#414042" d="M129.196,70.877l-1.729-7.339l1.433-0.338l1.429,6.061l3.329-0.785l0.302,1.278L129.196,70.877z"/>
						<path fill="#414042" d="M139.703,67.617c-0.394,0.637-0.954,1.074-1.789,1.271s-1.542,0.058-2.179-0.336
							c-0.917-0.566-1.113-1.489-1.411-2.757c-0.299-1.268-0.536-2.18,0.031-3.097c0.394-0.637,0.965-1.077,1.8-1.273
							s1.531-0.056,2.168,0.338c0.917,0.567,1.123,1.486,1.422,2.754S140.271,66.701,139.703,67.617z M137.467,62.879
							c-0.263-0.188-0.619-0.268-1.011-0.175s-0.685,0.324-0.835,0.61c-0.205,0.375-0.197,0.732,0.136,2.144
							c0.332,1.412,0.484,1.735,0.836,1.979c0.262,0.188,0.628,0.265,1.02,0.173s0.675-0.322,0.826-0.608
							c0.204-0.375,0.207-0.734-0.126-2.146S137.817,63.123,137.467,62.879z"/>
						<path fill="#414042" d="M150.047,65.224c-0.371,0.599-1.01,0.977-1.772,1.157l-2.649,0.625l-1.729-7.339l2.648-0.625
							c0.763-0.18,1.505-0.125,2.104,0.246c1.019,0.63,1.174,1.659,1.435,2.762C150.342,63.151,150.677,64.204,150.047,65.224z
							 M147.89,60.553c-0.317-0.24-0.684-0.317-1.179-0.2l-1.082,0.255l1.128,4.781l1.082-0.255
							c0.495-0.117,0.788-0.348,0.965-0.706c0.19-0.393,0.107-0.928-0.154-2.042C148.387,61.274,148.236,60.82,147.89,60.553z"/>
						<path fill="#414042" d="M152.999,65.267l-1.73-7.339l4.834-1.139l0.302,1.279l-3.401,0.802l0.405,1.721l2.896-0.683
							l0.302,1.277l-2.896,0.683l0.42,1.783l3.401-0.802l0.302,1.278L152.999,65.267z"/>
					</g>
				</g>
				<g>
					<path fill="#DB926E" d="M204.659,97.128c-2.071-0.126-4.095-1.046-5.57-2.729c-2.938-3.346-2.607-8.44,0.739-11.379
						l1.728-1.517c-1.146-6.347-3.726-7.037-5.686-7.562c-5.853-1.565-9.722-1.025-18.002,2.514
						c-4.092,1.752-8.832-0.15-10.582-4.244c-1.751-4.095,0.151-8.834,4.245-10.584c9.924-4.242,17.767-6.135,28.506-3.264
						c5.615,1.501,9.998,4.52,13.028,8.968c2.893,4.249,4.54,9.77,5.033,16.882c0.175,2.51-0.833,4.958-2.726,6.619l-4.906,4.308
						C208.803,96.6,206.706,97.252,204.659,97.128z"/>
				</g>
				<g>
					<path fill="#FFB287" d="M207.71,75.528l4.038-9.033c3.748-1.879,3.141-5.304,7.897,1.716l29.383,61.32
						c1.88,3.747,0.35,8.348-3.394,10.227l-5.456,2.737c-3.746,1.879-8.351,0.353-10.227-3.394l-27.332-54.487
						C200.74,80.869,204.725,78.234,207.71,75.528z"/>
				</g>
				<g>
					<path fill="#FFB287" d="M211.222,88.218c9.085,4.546,10.904,14.977,5.964,18.086c-7.319,4.608-17.76-3.57-25.488-11.046
						c-11.502-11.127-5.321-17.719,0.049-15.432C196.655,81.918,205.286,85.247,211.222,88.218z"/>
				</g>
				<g>
					<path fill="#FFB287" d="M187.788,77.985c5.754,4.607,24.201-5.024,11.379-15.098l14.19,10.271c0,0-5.349,5.598-5.563,5.706
						c-0.216,0.107-5.004,10.57-9.454,6.498C197.985,85.036,187.788,77.985,187.788,77.985z"/>
				</g>
				<g>
					<path fill="#FFB287" d="M213.441,78.63c-2.269-0.138-4.468-1.229-5.946-3.184c-7.155-9.454-12.89-11.313-23.954-14.535
						l-7.352,9.487c-2.728,3.52-7.794,4.161-11.312,1.433c-3.521-2.728-4.162-7.792-1.435-11.312l10.72-13.833
						c2.045-2.636,5.5-3.743,8.694-2.783c1.489,0.448,2.918,0.863,4.297,1.264c12.644,3.677,22.632,6.582,33.202,20.549
						c2.687,3.551,1.986,8.608-1.563,11.295C217.196,78.219,215.294,78.742,213.441,78.63z"/>
				</g>
				<g>
					<g>
						<g>
							<polygon fill="#414042" points="223.044,64.414 163.584,77.54 163.574,77.497 162.755,73.759 161.731,69.04 161.714,68.969 
								212.303,57.875 221.173,55.842 							"/>
						</g>
						<g>
							<path fill="#56565B" d="M220.678,64.962c-2.254,0.493-4.499-1.035-5.02-3.411c-0.518-2.375,0.889-4.702,3.142-5.193
								l2.375-0.518l1.877,8.605L220.678,64.962z"/>
						</g>
						<g>
							<path fill="#777F85" d="M223.052,64.444c-2.251,0.492-4.498-1.036-5.018-3.412c-0.519-2.377,0.887-4.702,3.141-5.193
								l1.893-0.414l1.879,8.606L223.052,64.444z"/>
						</g>
						<g>
							<path fill="#4A4A4C" d="M163.574,77.497c-0.235,0.105-0.479,0.184-0.736,0.24c-2.251,0.49-7.689-2.828-7.689-2.828
								l0.035-0.053c0.372-0.541,3.659-5.261,5.777-5.723c0.26-0.057,0.517-0.085,0.77-0.093c1.839-0.036,3.542,1.21,4.13,3.088
								c0.049,0.138,0.084,0.272,0.116,0.419C166.438,74.65,165.387,76.714,163.574,77.497z"/>
						</g>
						<g>
							
								<ellipse transform="matrix(0.977 -0.2132 0.2132 0.977 -11.8751 36.3814)" fill="#414042" cx="162.744" cy="73.249" rx="4.175" ry="4.404"/>
						</g>
						<g>
							
								<ellipse transform="matrix(0.977 -0.2133 0.2133 0.977 -7.5857 49.1543)" fill="#B6B8BF" cx="224.005" cy="59.732" rx="4.177" ry="4.404"/>
						</g>
					</g>
					<g>
						<path fill="#777F85" d="M217.739,61.78l-19.465,4.282c-0.607,0.133-1.212-0.253-1.348-0.861l-0.192-0.879
							c-0.134-0.607,0.254-1.214,0.859-1.347l19.466-4.283c0.607-0.133,1.212,0.253,1.345,0.861l0.194,0.879
							C218.733,61.041,218.346,61.647,217.739,61.78z"/>
					</g>
					<g>
						<path fill="#B6B8BF" d="M218.255,61.667L218.255,61.667c-0.429,0.093-0.858-0.179-0.952-0.609l-0.336-1.528
							c-0.095-0.429,0.18-0.856,0.607-0.952l0,0c0.429-0.094,0.857,0.18,0.951,0.608l0.337,1.529
							C218.956,61.144,218.683,61.573,218.255,61.667z"/>
					</g>
				</g>
				<g>
					<g>
						<path fill="#FFB287" d="M212.886,105.337c-1.621,0.356-3.381,0.051-4.839-0.987l-11.545-8.225l-26.525-14.523
							c-2.989-1.532-5.188-4.213-4.48-5.659c1.479-3.018,7.024-4.229,9.399-3.034l26.944,10.907
							c0.262,0.134,1.119,1.973,1.361,2.144l11.906,8.482c2.735,1.949,3.374,5.748,1.425,8.484
							C215.62,104.204,214.306,105.024,212.886,105.337z"/>
					</g>
				</g>
			</g>
			<polygon opacity="0.5" fill="#D1805D" enable-background="new    " points="239.76,108.377 219.928,118.727 215.453,110.006 
				235.246,99.916 			"/>
			<g>
				<polygon fill="#C7D1E0" points="263.07,138.408 232.98,153.498 227.645,156.376 208.519,115.974 214.557,112.939 
					244.646,97.849 				"/>
				<polygon fill="#FFFFFF" points="263.78,138.251 233.69,153.342 214.557,112.939 244.646,97.849 				"/>
				<polygon fill="#414042" points="262.949,131.501 268.236,155.53 230.714,163.786 213.682,129.616 214.729,129.09 
					220.771,126.061 222.878,125.002 223.815,124.532 235.881,118.482 242.212,115.306 250.655,111.071 250.859,110.969 
					252.335,110.229 				"/>
				<polygon fill="#DB5940" points="262.949,131.501 268.236,155.53 242.132,161.273 237.281,151.54 237.198,151.381 
					232.529,142.012 223.815,124.532 235.881,118.482 242.212,115.306 250.655,111.071 250.859,110.969 252.335,110.229 				"/>
			</g>
			<g opacity="0.5">
				<path fill="#949596" d="M54.192,118.51c-1.452-2.061-4.037-2.851-6.315-2.112c-0.529,0.165-1.042,0.417-1.519,0.752
					l-4.779,3.644l-6.076,4.645l-0.654,0.496l-5.284,4.04l-0.006-0.001c-8.931,14.365,0.317,23.544,8.718,22.172
					c0.976-2.399,1.222-13.504,1.319-16.499l1.228-0.863l6.227-4.381l4.727-3.323l1.056-0.741c1.536-1.084,2.363-2.798,2.381-4.54
					c0.002-0.176-0.001-0.352-0.021-0.53C55.121,120.309,54.79,119.353,54.192,118.51z"/>
			</g>
			<g>
				<g>
					<path fill="#FFB287" d="M12.693,138.479c-3.971,8.501-3.231,17.245,1.653,19.525c4.888,2.282,12.065-2.762,16.036-11.264
						c3.97-8.502,3.23-17.244-1.656-19.524C23.841,124.933,16.662,129.977,12.693,138.479z"/>
				</g>
			</g>
			<g>
				<g>
					<path fill="#FFB287" d="M22.971,140.767c-0.676-0.041-1.351-0.177-2.004-0.41l-6.253-2.236
						c-3.773-1.349-5.739-5.502-4.392-9.277c1.351-3.775,5.505-5.742,9.279-4.392l2.708,0.968l21.242-14.973
						c3.278-2.31,7.808-1.525,10.116,1.751c2.31,3.276,1.525,7.806-1.752,10.114l-24.322,17.144
						C26.23,140.416,24.596,140.865,22.971,140.767z"/>
				</g>
			</g>
		</g>
	</g>
</g>
<g>
	<path fill="#414042" d="M111.043,484.138c6.1,0,11.07,5.002,11.07,11.134c0,6.133-4.971,11.135-11.07,11.135
		c-6.096,0-11.072-5.002-11.072-11.135C99.971,489.14,104.947,484.138,111.043,484.138"/>
	<path fill="#414042" d="M70.723,520.075v0.042l-0.054,0.407c0,0.573,0.325,1.001,0.978,1.282c0.657,0.279,1.672,0.421,3.043,0.421
		c1.045,0,1.861-0.118,2.455-0.347c0.597-0.229,0.893-0.544,0.893-0.946c0-0.61-1.178-1.099-3.519-1.482
		c-0.273-0.042-0.479-0.076-0.612-0.098c-0.15-0.026-0.371-0.063-0.657-0.11c-3.724-0.609-6.116-1.267-7.173-1.979
		c-0.516-0.352-0.91-0.76-1.176-1.232c-0.258-0.474-0.389-1.01-0.389-1.599c0-1.458,0.854-2.565,2.563-3.324
		c1.71-0.76,4.214-1.142,7.508-1.142c3.256,0,5.666,0.355,7.236,1.067c1.566,0.715,2.352,1.816,2.352,3.294v0.171h-6.167v-0.066
		c0-0.512-0.306-0.894-0.931-1.153c-0.625-0.266-1.541-0.397-2.743-0.397c-0.933,0-1.655,0.093-2.157,0.279
		c-0.511,0.186-0.763,0.454-0.763,0.799c0,0.615,1.342,1.138,4.03,1.572c0.518,0.076,0.924,0.142,1.217,0.187
		c1.917,0.32,3.281,0.597,4.092,0.827c0.811,0.23,1.512,0.502,2.102,0.815c0.652,0.357,1.167,0.813,1.52,1.361
		c0.355,0.547,0.535,1.147,0.535,1.801c0,1.501-0.935,2.652-2.795,3.462c-1.863,0.807-4.547,1.212-8.041,1.212
		c-3.461,0-5.963-0.39-7.512-1.165c-1.549-0.78-2.314-2.023-2.314-3.74v-0.218h6.479V520.075z M87.609,524.951v-14.763h17.574v3.181
		H94.209v2.353h10.148v3.142H94.209v2.865h11.393v3.223H87.609V524.951z M108.354,524.951v-14.763h8.353l8.936,9.902v-9.902h6.34
		v14.763h-8.66l-8.649-9.938v9.938L108.354,524.951L108.354,524.951z M149.031,519.063l-3.158-5.364l-3.337,5.364H149.031z
		 M138.979,524.951h-6.616l10.214-14.763h7.321l9.743,14.763h-7.348l-1.487-2.666h-10.237L138.979,524.951z"/>
	<path fill="#414042" d="M78.836,576.985l-5.895-5.541l17.945-31.142c0.978-1.701-0.247-3.822-2.208-3.822H59.302v-7.791h47.284
		L78.836,576.985z"/>
	<path fill="#414042" d="M142.737,576.985l5.895-5.541l-17.945-31.142c-0.977-1.701,0.246-3.822,2.207-3.822h29.377v-7.791h-47.283
		L142.737,576.985z"/>
	<path fill="#414042" d="M110.723,536.924l0.064-0.11l26.643,44.038l-7.073,3.683l-17.169-28.753c-1.013-1.695-3.467-1.698-4.472,0
		c-5.724,9.646-17.057,28.753-17.057,28.753l-6.928-3.425C84.731,581.109,109.299,539.345,110.723,536.924"/>
</g>
</svg>
