<!-- Generator: Adobe Illustrator 17.0.0, SVG Export Plug-In  -->
<svg version="1.1"
	 xmlns="http://www.w3.org/2000/svg" xmlns:xlink="http://www.w3.org/1999/xlink" xmlns:a="http://ns.adobe.com/AdobeSVGViewerExtensions/3.0/"
	 x="0px" y="0px" width="181.163px" height="157.598px" viewBox="0 0 181.163 157.598" enable-background="new 0 0 181.163 157.598"
	 xml:space="preserve">
<defs>
</defs>
<g>
	<path fill="#FFFFFF" d="M67.458,101.244c0,0-2.867,1.626,2.04,2.177c5.944,0.662,8.982,0.567,15.532-0.643
		c0,0,1.722,1.053,4.127,1.966C74.473,110.886,55.924,104.389,67.458,101.244 M65.663,93.23c-12.705,4.115,7.069,8.781,24.823,3.715
		c-1.887-0.649-3.088-1.836-3.088-1.836c-8.677,1.63-13.691,1.578-20.041,0.939C62.449,95.553,65.663,93.23,65.663,93.23
		 M80.79,79.636c3.618,4.065-0.951,7.723-0.951,7.723s9.187-4.628,4.968-10.423c-3.941-5.404-6.963-8.09,9.397-17.348
		C94.204,59.588,68.525,65.846,80.79,79.636 M100.211,107.172c0,0,2.121,1.706-2.336,3.025c-8.476,2.505-35.277,3.262-42.723,0.1
		c-2.676-1.136,2.342-2.713,3.922-3.044c1.646-0.348,2.587-0.283,2.587-0.283c-2.976-2.046-19.238,4.018-8.26,5.754
		C83.34,117.461,107.977,110.59,100.211,107.172 M68.836,84.927c0,0-5.294-0.348-11.806,2.723
		c-7.699,3.634,19.045,5.287,32.889,1.734c1.439-0.959,3.429-1.79,3.429-1.79s-5.665,0.987-11.307,1.452
		c-6.904,0.564-14.315,0.674-18.033,0.188C55.203,88.087,68.836,84.927,68.836,84.927 M93.292,98.267
		c-0.065,0.17-0.283,0.36-0.283,0.36c18.795-4.821,11.885-16.995,2.9-13.913c-0.789,0.273-1.202,0.905-1.202,0.905
		s0.496-0.196,1.609-0.422C100.859,84.273,107.365,91.131,93.292,98.267 M84.808,44.638c3.145,12.085-11.086,15.734-16.222,23.26
		c-3.5,5.127,1.717,10.636,8.825,16.895c-2.772-6.114-12.173-11.464,0.005-20.849C92.601,52.246,84.808,44.638,84.808,44.638
		 M70.219,117.604c13.508,0.844,34.252-0.468,34.743-6.705c0,0-0.944,2.364-11.164,4.242c-11.53,2.117-25.75,1.87-34.184,0.513
		C59.614,115.654,61.341,117.048,70.219,117.604 M110.564,131.891h0.345v-1.346h0.491v-0.27h-1.33v0.27h0.494V131.891z
		 M113.216,130.615v1.276h0.318v-1.615h-0.477l-0.449,1.144l-0.451-1.144h-0.479v1.615h0.326v-1.276h0.006l0.486,1.276h0.224
		l0.49-1.276H113.216L113.216,130.615z M66.997,145.709v-4.763h-1.777c-4.8,0-5.997,1.534-5.997,3.633c0,1.94,1.117,3.15,3.184,3.15
		C63.856,147.729,65.469,147.003,66.997,145.709 M71.213,150.352h-3.308l-0.33-2.182c-1.818,1.536-3.762,2.586-6.367,2.586
		c-4.053,0-6.205-2.02-6.205-5.572c0-4.116,3.266-6.858,10.506-6.858h1.487v-1.816c0-2.42-1.282-3.591-4.262-3.591
		c-2.15,0-4.342,0.564-6.035,1.17l-0.621-2.544c2.15-0.928,4.795-1.655,7.815-1.655c5.173,0,7.318,2.422,7.318,6.093V150.352
		L71.213,150.352z M85.285,150.351c3.016-6.215,5.17-13.479,6.367-20.097h-4.467c-0.703,5.245-2.108,10.692-4.095,16.062
		l-0.873-3.714l-3.927-12.348h-4.593l6.329,20.097H85.285 M105.457,145.709v-4.763h-1.78c-4.8,0-5.999,1.534-5.999,3.633
		c0,1.94,1.12,3.15,3.183,3.15C102.31,147.729,103.926,147.003,105.457,145.709 M109.673,150.352h-3.308l-0.331-2.182
		c-1.821,1.536-3.764,2.586-6.37,2.586c-4.052,0-6.202-2.02-6.202-5.572c0-4.116,3.265-6.858,10.506-6.858h1.49v-1.816
		c0-2.42-1.284-3.591-4.262-3.591c-2.149,0-4.344,0.564-6.037,1.17l-0.62-2.544c2.149-0.928,4.795-1.655,7.817-1.655
		c5.167,0,7.317,2.422,7.317,6.093V150.352L109.673,150.352z M50.381,153.764c1.201-1.759,1.567-3.563,1.567-8.028v-22.631h-4.479
		v22.945c0,3.34-0.231,4.737-0.789,5.82c-0.644,1.218-2.031,2.527-3.649,3.337l2.082,2.39
		C47.238,156.831,49.179,155.477,50.381,153.764"/>
	<g>
		<path fill="#FFFFFF" d="M1.762,1.647v2.218h3.561v1.572H1.762v3.663H0V0.076h5.944v1.571H1.762z"/>
		<path fill="#FFFFFF" d="M10.661,9.175c-1.85,0-3.32-1.255-3.32-3.168V0.076h1.762v5.868c0,1.039,0.608,1.661,1.559,1.661
			c0.951,0,1.572-0.621,1.572-1.661V0.076h1.749v5.931C13.981,7.921,12.511,9.175,10.661,9.175z"/>
		<path fill="#FFFFFF" d="M21.285,9.099l-3.574-5.538v5.538h-1.762V0.076h1.571l3.574,5.526V0.076h1.762v9.023H21.285z"/>
		<path fill="#FFFFFF" d="M30.603,8.238c-0.596,0.596-1.445,0.862-2.383,0.862h-3.257V0.076h3.257c0.938,0,1.787,0.266,2.383,0.862
			c1.014,1.014,0.912,2.256,0.912,3.612S31.616,7.224,30.603,8.238z M29.373,2.205c-0.304-0.368-0.709-0.558-1.318-0.558h-1.33
			v5.881h1.33c0.609,0,1.014-0.19,1.318-0.558c0.33-0.405,0.38-1.052,0.38-2.421S29.702,2.611,29.373,2.205z"/>
		<path fill="#FFFFFF" d="M38.324,9.099l-0.532-1.597h-3.207L34.04,9.099h-1.837l3.282-9.023h1.381l3.295,9.023H38.324z
			 M36.22,2.738L35.079,6.02h2.243L36.22,2.738z"/>
		<path fill="#FFFFFF" d="M47.692,9.099V3.84l-1.723,3.422h-1.191L43.041,3.84v5.26h-1.762V0.076h1.736l2.357,4.879l2.345-4.879
			h1.737v9.023H47.692z"/>
		<path fill="#FFFFFF" d="M51.56,9.099V0.076h5.944v1.571h-4.182v2.116h3.561v1.572h-3.561v2.193h4.182v1.571H51.56z"/>
		<path fill="#FFFFFF" d="M64.566,9.099l-3.574-5.538v5.538h-1.762V0.076h1.571l3.574,5.526V0.076h1.762v9.023H64.566z"/>
		<path fill="#FFFFFF" d="M71.692,1.647v7.452H69.93V1.647h-2.357V0.076h6.476v1.571H71.692z"/>
		<path fill="#FFFFFF" d="M80.692,8.187c-0.634,0.634-1.407,0.988-2.433,0.988c-1.026,0-1.812-0.355-2.446-0.988
			c-0.912-0.913-0.887-2.04-0.887-3.6c0-1.559-0.025-2.687,0.887-3.599C76.447,0.355,77.233,0,78.259,0
			c1.027,0,1.799,0.355,2.433,0.988c0.913,0.912,0.9,2.04,0.9,3.599C81.592,6.147,81.605,7.274,80.692,8.187z M79.387,2.053
			c-0.253-0.291-0.646-0.482-1.128-0.482c-0.482,0-0.887,0.19-1.141,0.482c-0.342,0.38-0.431,0.798-0.431,2.535
			c0,1.737,0.089,2.155,0.431,2.535c0.253,0.291,0.659,0.482,1.141,0.482c0.482,0,0.875-0.19,1.128-0.482
			c0.342-0.38,0.444-0.799,0.444-2.535C79.831,2.851,79.729,2.433,79.387,2.053z"/>
		<path fill="#FFFFFF" d="M85.879,9.175c-1.369,0-2.408-0.292-3.295-1.191l1.141-1.141c0.57,0.57,1.344,0.761,2.18,0.761
			c1.039,0,1.597-0.393,1.597-1.115c0-0.317-0.089-0.583-0.279-0.761c-0.177-0.165-0.38-0.253-0.799-0.316l-1.09-0.152
			c-0.773-0.114-1.344-0.355-1.749-0.748c-0.431-0.431-0.646-1.014-0.646-1.774C82.938,1.128,84.13,0,86.081,0
			c1.242,0,2.142,0.304,2.915,1.052l-1.115,1.102c-0.57-0.545-1.254-0.621-1.85-0.621c-0.938,0-1.394,0.519-1.394,1.141
			c0,0.228,0.076,0.469,0.267,0.646c0.177,0.165,0.469,0.304,0.836,0.355l1.064,0.152c0.824,0.114,1.344,0.342,1.723,0.697
			c0.482,0.456,0.697,1.115,0.697,1.913C89.225,8.187,87.767,9.175,85.879,9.175z"/>
		<path fill="#FFFFFF" d="M99.468,8.238c-0.596,0.596-1.445,0.862-2.383,0.862h-3.257V0.076h3.257c0.938,0,1.787,0.266,2.383,0.862
			c1.014,1.014,0.912,2.256,0.912,3.612S100.482,7.224,99.468,8.238z M98.239,2.205c-0.304-0.368-0.709-0.558-1.318-0.558H95.59
			v5.881h1.331c0.608,0,1.014-0.19,1.318-0.558c0.329-0.405,0.38-1.052,0.38-2.421S98.568,2.611,98.239,2.205z"/>
		<path fill="#FFFFFF" d="M102.183,9.099V0.076h5.944v1.571h-4.182v2.116h3.561v1.572h-3.561v2.193h4.182v1.571H102.183z"/>
		<path fill="#FFFFFF" d="M109.853,9.099V0.076h1.762v7.452h4.093v1.571H109.853z"/>
		<path fill="#FFFFFF" d="M120.084,9.099V0.076h1.762v7.452h4.093v1.571H120.084z"/>
		<path fill="#FFFFFF" d="M127.374,9.099V0.076h5.944v1.571h-4.182v2.116h3.561v1.572h-3.561v2.193h4.182v1.571H127.374z"/>
		<path fill="#FFFFFF" d="M140.379,9.099l-3.574-5.538v5.538h-1.762V0.076h1.571l3.574,5.526V0.076h1.762v9.023H140.379z"/>
		<path fill="#FFFFFF" d="M149.622,8.149c-0.697,0.71-1.534,1.027-2.548,1.027c-0.963,0-1.774-0.33-2.433-0.988
			c-0.393-0.393-0.634-0.849-0.735-1.356c-0.101-0.507-0.152-1.255-0.152-2.243c0-0.988,0.051-1.736,0.152-2.243
			c0.101-0.52,0.342-0.963,0.735-1.356C145.3,0.329,146.111,0,147.074,0c2.053,0,3.156,1.318,3.397,2.889h-1.774
			c-0.215-0.874-0.748-1.318-1.622-1.318c-0.469,0-0.849,0.165-1.128,0.482c-0.329,0.418-0.431,0.748-0.431,2.535
			c0,1.774,0.076,2.129,0.431,2.548c0.266,0.317,0.646,0.469,1.128,0.469c0.52,0,0.938-0.165,1.255-0.507
			c0.266-0.304,0.406-0.709,0.406-1.204V5.551h-1.661v-1.47h3.409v1.318C150.483,6.717,150.242,7.49,149.622,8.149z"/>
		<path fill="#FFFFFF" d="M155.315,9.175c-1.85,0-3.321-1.255-3.321-3.168V0.076h1.762v5.868c0,1.039,0.608,1.661,1.559,1.661
			c0.951,0,1.572-0.621,1.572-1.661V0.076h1.749v5.931C158.635,7.921,157.165,9.175,155.315,9.175z"/>
		<path fill="#FFFFFF" d="M165.735,9.099l-0.532-1.597h-3.207l-0.545,1.597h-1.837l3.282-9.023h1.381l3.295,9.023H165.735z
			 M163.631,2.738l-1.141,3.282h2.243L163.631,2.738z"/>
		<path fill="#FFFFFF" d="M170.047,9.175c-0.976,0-1.647-0.253-2.319-0.925l1.166-1.154c0.291,0.292,0.57,0.507,1.153,0.507
			c0.862,0,1.42-0.507,1.42-1.546V0.076h1.761v6.058C173.228,8.124,171.72,9.175,170.047,9.175z"/>
		<path fill="#FFFFFF" d="M175.219,9.099V0.076h5.944v1.571h-4.182v2.116h3.561v1.572h-3.561v2.193h4.182v1.571H175.219z"/>
		<path fill="#FFFFFF" d="M9.036,31.565c-0.954,0.954-2.315,1.381-3.817,1.381H0V18.489h5.218c1.503,0,2.863,0.426,3.817,1.38
			c1.624,1.624,1.462,3.615,1.462,5.787C10.498,27.829,10.66,29.941,9.036,31.565z M7.066,21.9
			c-0.488-0.589-1.137-0.893-2.112-0.893H2.822v9.422h2.132c0.975,0,1.624-0.305,2.112-0.893c0.528-0.65,0.609-1.685,0.609-3.878
			C7.675,23.463,7.594,22.55,7.066,21.9z"/>
		<path fill="#FFFFFF" d="M13.377,32.946V18.489H22.9v2.518h-6.701v3.391h5.705v2.518h-5.705v3.513H22.9v2.518H13.377z"/>
		<path fill="#FFFFFF" d="M35.97,27.504h-2.782v5.442h-2.822V18.489h5.604c2.985,0,4.772,2.05,4.772,4.507
			S38.955,27.504,35.97,27.504z M35.828,21.007h-2.64v3.959h2.64c1.279,0,2.091-0.792,2.091-1.97
			C37.92,21.819,37.108,21.007,35.828,21.007z"/>
		<path fill="#FFFFFF" d="M50.788,32.946l-2.822-5.767h-2.03v5.767h-2.822V18.489h5.665c2.944,0,4.69,2.01,4.69,4.426
			c0,2.031-1.238,3.29-2.639,3.797l3.229,6.234H50.788z M48.595,21.007h-2.66v3.817h2.66c1.239,0,2.051-0.792,2.051-1.909
			C50.646,21.799,49.834,21.007,48.595,21.007z"/>
		<path fill="#FFFFFF" d="M65.14,31.485c-1.015,1.015-2.254,1.584-3.899,1.584c-1.645,0-2.903-0.569-3.919-1.584
			c-1.462-1.462-1.421-3.27-1.421-5.767c0-2.497-0.04-4.305,1.421-5.767c1.016-1.015,2.274-1.584,3.919-1.584
			c1.645,0,2.884,0.569,3.899,1.584c1.462,1.462,1.442,3.269,1.442,5.767C66.582,28.215,66.602,30.022,65.14,31.485z M63.049,21.657
			c-0.406-0.467-1.036-0.772-1.807-0.772c-0.772,0-1.421,0.304-1.827,0.772c-0.548,0.609-0.69,1.279-0.69,4.061
			c0,2.782,0.142,3.452,0.69,4.061c0.406,0.467,1.056,0.772,1.827,0.772c0.771,0,1.401-0.305,1.807-0.772
			c0.548-0.609,0.711-1.279,0.711-4.061C63.759,22.936,63.597,22.265,63.049,21.657z"/>
		<path fill="#FFFFFF" d="M78.374,31.423c-1.117,1.137-2.457,1.645-4.081,1.645c-1.543,0-2.843-0.528-3.899-1.584
			c-0.63-0.63-1.015-1.361-1.178-2.173c-0.162-0.812-0.243-2.01-0.243-3.594c0-1.583,0.081-2.781,0.243-3.594
			c0.163-0.833,0.548-1.543,1.178-2.173c1.056-1.056,2.355-1.584,3.899-1.584c3.29,0,5.056,2.112,5.442,4.63h-2.843
			c-0.345-1.401-1.198-2.112-2.599-2.112c-0.751,0-1.36,0.264-1.807,0.772c-0.528,0.67-0.69,1.198-0.69,4.061
			c0,2.843,0.122,3.412,0.69,4.082c0.426,0.508,1.036,0.751,1.807,0.751c0.833,0,1.503-0.264,2.01-0.812
			c0.426-0.487,0.65-1.137,0.65-1.929V27.26h-2.66v-2.355h5.462v2.111C79.755,29.129,79.369,30.367,78.374,31.423z"/>
		<path fill="#FFFFFF" d="M90.066,32.946l-2.823-5.767h-2.03v5.767h-2.822V18.489h5.665c2.944,0,4.69,2.01,4.69,4.426
			c0,2.031-1.239,3.29-2.64,3.797l3.229,6.234H90.066z M87.873,21.007h-2.66v3.817h2.66c1.239,0,2.051-0.792,2.051-1.909
			C89.924,21.799,89.112,21.007,87.873,21.007z"/>
		<path fill="#FFFFFF" d="M103.89,32.946l-0.853-2.559h-5.137l-0.873,2.559h-2.944l5.259-14.457h2.213l5.28,14.457H103.89z
			 M100.518,22.753l-1.827,5.259h3.594L100.518,22.753z"/>
		<path fill="#FFFFFF" d="M118.89,32.946V24.52l-2.761,5.483h-1.909l-2.782-5.483v8.427h-2.822V18.489h2.782l3.777,7.818
			l3.757-7.818h2.782v14.457H118.89z"/>
		<path fill="#FFFFFF" d="M133.301,32.946l-0.852-2.559h-5.138l-0.873,2.559h-2.944l5.259-14.457h2.214l5.279,14.457H133.301z
			 M129.93,22.753l-1.827,5.259h3.594L129.93,22.753z"/>
		<path fill="#FFFFFF" d="M142.657,33.068c-1.543,0-2.843-0.528-3.899-1.584c-0.63-0.63-1.015-1.361-1.178-2.173
			c-0.162-0.812-0.243-2.01-0.243-3.594c0-1.583,0.081-2.781,0.243-3.594c0.163-0.833,0.548-1.543,1.178-2.173
			c1.056-1.056,2.355-1.584,3.899-1.584c2.782,0,4.833,1.625,5.32,4.569h-2.863c-0.305-1.239-1.076-2.051-2.437-2.051
			c-0.772,0-1.381,0.244-1.807,0.751c-0.589,0.629-0.711,1.279-0.711,4.081s0.122,3.452,0.711,4.082
			c0.426,0.508,1.035,0.751,1.807,0.751c1.361,0,2.132-0.812,2.437-2.051h2.863C147.49,31.444,145.419,33.068,142.657,33.068z"/>
		<path fill="#FFFFFF" d="M150.41,32.946V18.489h2.822v14.457H150.41z"/>
		<path fill="#FFFFFF" d="M165.352,31.485c-1.015,1.015-2.254,1.584-3.899,1.584c-1.645,0-2.903-0.569-3.919-1.584
			c-1.462-1.462-1.421-3.27-1.421-5.767c0-2.497-0.04-4.305,1.421-5.767c1.016-1.015,2.274-1.584,3.919-1.584
			c1.645,0,2.883,0.569,3.899,1.584c1.462,1.462,1.442,3.269,1.442,5.767C166.794,28.215,166.814,30.022,165.352,31.485z
			 M163.26,21.657c-0.406-0.467-1.035-0.772-1.807-0.772c-0.771,0-1.421,0.304-1.827,0.772c-0.549,0.609-0.691,1.279-0.691,4.061
			c0,2.782,0.142,3.452,0.691,4.061c0.406,0.467,1.056,0.772,1.827,0.772c0.772,0,1.401-0.305,1.807-0.772
			c0.548-0.609,0.711-1.279,0.711-4.061C163.971,22.936,163.809,22.265,163.26,21.657z M162.103,17.088h-1.766l1.3-3.452h2.782
			L162.103,17.088z"/>
		<path fill="#FFFFFF" d="M178.221,32.946l-5.726-8.874v8.874h-2.822V18.489h2.518l5.726,8.853v-8.853h2.822v14.457H178.221z"/>
	</g>
</g>
</svg>