<?xml version="1.0" encoding="utf-8"?>
<!-- Generator: Adobe Illustrator 17.0.0, SVG Export Plug-In . SVG Version: 6.00 Build 0)  -->
<!DOCTYPE svg PUBLIC "-//W3C//DTD SVG 1.1//EN" "http://www.w3.org/Graphics/SVG/1.1/DTD/svg11.dtd" [
	<!ENTITY ns_extend "http://ns.adobe.com/Extensibility/1.0/">
	<!ENTITY ns_ai "http://ns.adobe.com/AdobeIllustrator/10.0/">
	<!ENTITY ns_graphs "http://ns.adobe.com/Graphs/1.0/">
	<!ENTITY ns_vars "http://ns.adobe.com/Variables/1.0/">
	<!ENTITY ns_imrep "http://ns.adobe.com/ImageReplacement/1.0/">
	<!ENTITY ns_sfw "http://ns.adobe.com/SaveForWeb/1.0/">
	<!ENTITY ns_custom "http://ns.adobe.com/GenericCustomNamespace/1.0/">
	<!ENTITY ns_adobe_xpath "http://ns.adobe.com/XPath/1.0/">
]>
<svg version="1.1" id="Capa_1" xmlns:x="&ns_extend;" xmlns:i="&ns_ai;" xmlns:graph="&ns_graphs;"
	 xmlns="http://www.w3.org/2000/svg" xmlns:xlink="http://www.w3.org/1999/xlink" x="0px" y="0px" width="233px" height="52.979px"
	 viewBox="0 0 233 52.979" enable-background="new 0 0 233 52.979" xml:space="preserve">
<metadata>
	<sfw  xmlns="&ns_sfw;">
		<slices></slices>
		<sliceSourceBounds  width="504.084" height="248.153" x="252.916" y="-424.509" bottomLeftOrigin="true"></sliceSourceBounds>
	</sfw>
</metadata>
<g>
	<path fill="#222222" d="M233,3.906c0,0-9.388-3.906-19.015-3.906c0,0-0.698,20.45-1.931,43.856c0,0,20.945-9.177,20.945-12.026
		C233,28.98,233,3.906,233,3.906z"/>
	<path opacity="0.2" d="M0,45.001c0,0,39.977,5.129,104.645,5.129C169.311,50.13,233,43.449,233,28.98c0-14.469,0-24.504,0-24.504
		s0,10.32-127.689,10.32C7.311,14.797,0,11.029,0,11.029V45.001z"/>
	<linearGradient id="SVGID_1_" gradientUnits="userSpaceOnUse" x1="0" y1="28.4429" x2="233" y2="28.4429">
		<stop  offset="0" style="stop-color:#666666"/>
		<stop  offset="0.0073" style="stop-color:#686868"/>
		<stop  offset="0.1249" style="stop-color:#8C8C8C"/>
		<stop  offset="0.2493" style="stop-color:#AAAAAA"/>
		<stop  offset="0.3805" style="stop-color:#C0C0C0"/>
		<stop  offset="0.5219" style="stop-color:#D0D0D0"/>
		<stop  offset="0.6807" style="stop-color:#DADADA"/>
		<stop  offset="0.8926" style="stop-color:#DDDDDD"/>
		<stop  offset="1" style="stop-color:#666666"/>
	</linearGradient>
	<path fill="url(#SVGID_1_)" d="M0,47.85c0,0,39.977,5.129,104.645,5.129C169.311,52.979,233,46.299,233,31.83
		c0-14.469,0-27.924,0-27.924s0,13.74-127.689,13.74C7.311,17.646,0,13.879,0,13.879V47.85z"/>
</g>
<g>
	<g>
		<path fill="#414042" d="M61.803,34.485l2.242,0.711c-0.344,1.25-0.916,2.179-1.715,2.785c-0.8,0.607-1.814,0.91-3.043,0.91
			c-1.521,0-2.771-0.52-3.75-1.559c-0.979-1.039-1.469-2.459-1.469-4.262c0-1.906,0.492-3.387,1.477-4.441s2.278-1.582,3.883-1.582
			c1.401,0,2.539,0.414,3.414,1.242c0.521,0.49,0.911,1.193,1.172,2.109l-2.289,0.547c-0.136-0.594-0.418-1.063-0.848-1.406
			s-0.952-0.516-1.566-0.516c-0.849,0-1.538,0.305-2.066,0.914c-0.529,0.609-0.793,1.597-0.793,2.961
			c0,1.448,0.26,2.479,0.781,3.094c0.521,0.615,1.198,0.922,2.031,0.922c0.614,0,1.143-0.195,1.586-0.586
			C61.292,35.938,61.61,35.324,61.803,34.485z"/>
		<path fill="#414042" d="M66.47,32.931l-1.992-0.359c0.224-0.802,0.609-1.396,1.156-1.781c0.547-0.385,1.359-0.578,2.438-0.578
			c0.979,0,1.708,0.116,2.188,0.348c0.479,0.232,0.816,0.526,1.012,0.883c0.195,0.357,0.293,1.012,0.293,1.965l-0.023,2.563
			c0,0.729,0.035,1.267,0.105,1.613c0.07,0.347,0.202,0.718,0.395,1.113h-2.172c-0.058-0.146-0.128-0.362-0.211-0.648
			c-0.037-0.13-0.063-0.216-0.078-0.258c-0.375,0.365-0.776,0.638-1.203,0.82c-0.427,0.182-0.883,0.273-1.367,0.273
			c-0.854,0-1.527-0.231-2.02-0.695c-0.492-0.463-0.738-1.049-0.738-1.758c0-0.469,0.112-0.887,0.336-1.254
			c0.224-0.367,0.538-0.648,0.941-0.844c0.403-0.195,0.985-0.366,1.746-0.512c1.026-0.192,1.737-0.372,2.133-0.539v-0.219
			c0-0.422-0.104-0.723-0.313-0.902c-0.208-0.18-0.602-0.27-1.18-0.27c-0.391,0-0.695,0.077-0.914,0.23
			C66.783,32.276,66.605,32.545,66.47,32.931z M69.408,34.712c-0.281,0.094-0.727,0.206-1.336,0.336
			c-0.609,0.13-1.008,0.258-1.195,0.383c-0.287,0.203-0.43,0.461-0.43,0.773c0,0.308,0.114,0.573,0.344,0.797
			c0.229,0.224,0.521,0.336,0.875,0.336c0.396,0,0.773-0.13,1.133-0.391c0.266-0.198,0.44-0.44,0.523-0.727
			c0.057-0.188,0.086-0.544,0.086-1.07V34.712z"/>
		<path fill="#414042" d="M72.544,38.696V27.243h2.195v11.453H72.544z"/>
		<path fill="#414042" d="M75.806,29.274v-2.031h2.195v2.031H75.806z M75.806,38.696v-8.297h2.195v8.297H75.806z"/>
		<path fill="#414042" d="M86.676,38.696h-2.039v-1.219c-0.339,0.474-0.738,0.827-1.199,1.059s-0.926,0.348-1.395,0.348
			c-0.953,0-1.77-0.384-2.449-1.152c-0.68-0.768-1.02-1.84-1.02-3.215c0-1.406,0.331-2.475,0.992-3.207
			c0.661-0.731,1.497-1.098,2.508-1.098c0.927,0,1.729,0.386,2.406,1.156v-4.125h2.195V38.696z M80.817,34.368
			c0,0.886,0.122,1.526,0.367,1.922c0.354,0.573,0.849,0.859,1.484,0.859c0.505,0,0.935-0.215,1.289-0.645
			c0.354-0.43,0.531-1.071,0.531-1.926c0-0.953-0.172-1.639-0.516-2.059c-0.344-0.419-0.784-0.629-1.32-0.629
			c-0.521,0-0.957,0.207-1.309,0.621S80.817,33.545,80.817,34.368z"/>
		<path fill="#414042" d="M89.297,32.931l-1.992-0.359c0.224-0.802,0.609-1.396,1.156-1.781c0.547-0.385,1.359-0.578,2.438-0.578
			c0.979,0,1.708,0.116,2.188,0.348c0.479,0.232,0.816,0.526,1.012,0.883c0.195,0.357,0.293,1.012,0.293,1.965l-0.023,2.563
			c0,0.729,0.035,1.267,0.105,1.613c0.07,0.347,0.202,0.718,0.395,1.113h-2.172c-0.058-0.146-0.128-0.362-0.211-0.648
			c-0.037-0.13-0.063-0.216-0.078-0.258c-0.375,0.365-0.776,0.638-1.203,0.82c-0.427,0.182-0.883,0.273-1.367,0.273
			c-0.854,0-1.527-0.231-2.02-0.695c-0.492-0.463-0.738-1.049-0.738-1.758c0-0.469,0.112-0.887,0.336-1.254
			c0.224-0.367,0.538-0.648,0.941-0.844c0.403-0.195,0.985-0.366,1.746-0.512c1.026-0.192,1.737-0.372,2.133-0.539v-0.219
			c0-0.422-0.104-0.723-0.313-0.902c-0.208-0.18-0.602-0.27-1.18-0.27c-0.391,0-0.695,0.077-0.914,0.23
			C89.609,32.276,89.432,32.545,89.297,32.931z M92.234,34.712c-0.281,0.094-0.727,0.206-1.336,0.336
			c-0.609,0.13-1.008,0.258-1.195,0.383c-0.287,0.203-0.43,0.461-0.43,0.773c0,0.308,0.114,0.573,0.344,0.797
			c0.229,0.224,0.521,0.336,0.875,0.336c0.396,0,0.773-0.13,1.133-0.391c0.266-0.198,0.44-0.44,0.523-0.727
			c0.057-0.188,0.086-0.544,0.086-1.07V34.712z"/>
		<path fill="#414042" d="M102.98,38.696h-2.039v-1.219c-0.339,0.474-0.738,0.827-1.199,1.059s-0.926,0.348-1.395,0.348
			c-0.953,0-1.77-0.384-2.449-1.152c-0.68-0.768-1.02-1.84-1.02-3.215c0-1.406,0.331-2.475,0.992-3.207
			c0.661-0.731,1.497-1.098,2.508-1.098c0.927,0,1.729,0.386,2.406,1.156v-4.125h2.195V38.696z M97.121,34.368
			c0,0.886,0.122,1.526,0.367,1.922c0.354,0.573,0.849,0.859,1.484,0.859c0.505,0,0.935-0.215,1.289-0.645
			c0.354-0.43,0.531-1.071,0.531-1.926c0-0.953-0.172-1.639-0.516-2.059c-0.344-0.419-0.784-0.629-1.32-0.629
			c-0.521,0-0.957,0.207-1.309,0.621S97.121,33.545,97.121,34.368z"/>
		<path fill="#414042" d="M114.831,38.696h-2.039v-1.219c-0.339,0.474-0.738,0.827-1.199,1.059s-0.926,0.348-1.395,0.348
			c-0.953,0-1.77-0.384-2.449-1.152c-0.68-0.768-1.02-1.84-1.02-3.215c0-1.406,0.331-2.475,0.992-3.207
			c0.661-0.731,1.497-1.098,2.508-1.098c0.927,0,1.729,0.386,2.406,1.156v-4.125h2.195V38.696z M108.971,34.368
			c0,0.886,0.122,1.526,0.367,1.922c0.354,0.573,0.849,0.859,1.484,0.859c0.505,0,0.935-0.215,1.289-0.645
			c0.354-0.43,0.531-1.071,0.531-1.926c0-0.953-0.172-1.639-0.516-2.059c-0.344-0.419-0.784-0.629-1.32-0.629
			c-0.521,0-0.957,0.207-1.309,0.621S108.971,33.545,108.971,34.368z"/>
		<path fill="#414042" d="M120.615,36.056l2.188,0.367c-0.281,0.802-0.725,1.413-1.332,1.832c-0.606,0.419-1.365,0.629-2.277,0.629
			c-1.442,0-2.51-0.471-3.203-1.414c-0.547-0.755-0.82-1.708-0.82-2.859c0-1.375,0.359-2.452,1.078-3.23
			c0.719-0.778,1.627-1.168,2.726-1.168c1.234,0,2.209,0.408,2.922,1.223c0.714,0.815,1.055,2.064,1.023,3.746h-5.5
			c0.016,0.651,0.193,1.158,0.531,1.52c0.339,0.362,0.761,0.543,1.266,0.543c0.344,0,0.633-0.094,0.867-0.281
			S120.496,36.473,120.615,36.056z M120.74,33.837c-0.016-0.635-0.18-1.118-0.492-1.449c-0.313-0.331-0.692-0.496-1.141-0.496
			c-0.479,0-0.875,0.175-1.188,0.523c-0.313,0.349-0.466,0.823-0.461,1.422H120.74z"/>
		<path fill="#414042" d="M126.014,36.329l2.203-0.336c0.094,0.427,0.283,0.751,0.57,0.973c0.285,0.222,0.688,0.332,1.203,0.332
			c0.566,0,0.994-0.104,1.281-0.313c0.191-0.146,0.289-0.341,0.289-0.586c0-0.167-0.053-0.305-0.156-0.414
			c-0.109-0.104-0.355-0.2-0.734-0.289c-1.771-0.391-2.895-0.747-3.367-1.07c-0.656-0.448-0.984-1.07-0.984-1.867
			c0-0.719,0.283-1.323,0.852-1.813c0.566-0.489,1.447-0.734,2.641-0.734c1.135,0,1.979,0.185,2.531,0.555
			c0.551,0.37,0.932,0.917,1.141,1.641l-2.07,0.383c-0.09-0.323-0.258-0.57-0.504-0.742c-0.248-0.172-0.602-0.258-1.059-0.258
			c-0.578,0-0.992,0.081-1.242,0.242c-0.168,0.115-0.25,0.263-0.25,0.445c0,0.156,0.072,0.289,0.219,0.398
			c0.197,0.146,0.881,0.352,2.051,0.617c1.168,0.266,1.984,0.591,2.449,0.977c0.457,0.391,0.688,0.935,0.688,1.633
			c0,0.761-0.318,1.414-0.953,1.961c-0.637,0.547-1.576,0.82-2.82,0.82c-1.131,0-2.025-0.229-2.684-0.688
			C126.646,37.738,126.217,37.116,126.014,36.329z"/>
		<path fill="#414042" d="M133.993,34.431c0-0.729,0.18-1.435,0.539-2.117c0.359-0.682,0.868-1.203,1.527-1.563
			s1.395-0.539,2.207-0.539c1.255,0,2.284,0.408,3.086,1.223c0.802,0.815,1.203,1.845,1.203,3.09c0,1.255-0.405,2.296-1.215,3.121
			c-0.81,0.826-1.829,1.238-3.059,1.238c-0.761,0-1.485-0.172-2.176-0.516s-1.215-0.848-1.574-1.512S133.993,35.384,133.993,34.431z
			 M136.243,34.548c0,0.823,0.195,1.453,0.586,1.891s0.872,0.656,1.445,0.656s1.054-0.219,1.441-0.656s0.582-1.073,0.582-1.906
			c0-0.813-0.194-1.438-0.582-1.875s-0.868-0.656-1.441-0.656s-1.055,0.219-1.445,0.656S136.243,33.725,136.243,34.548z"/>
		<path fill="#414042" d="M142.129,30.399h1.219v-0.625c0-0.698,0.074-1.219,0.223-1.563s0.422-0.624,0.82-0.84
			c0.398-0.216,0.902-0.324,1.512-0.324c0.625,0,1.237,0.094,1.836,0.281l-0.297,1.531c-0.349-0.083-0.685-0.125-1.008-0.125
			c-0.317,0-0.545,0.074-0.684,0.223c-0.138,0.148-0.207,0.434-0.207,0.855v0.586h1.641v1.727h-1.641v6.57h-2.195v-6.57h-1.219
			V30.399z"/>
		<path fill="#414042" d="M151.039,30.399v1.75h-1.5v3.344c0,0.677,0.014,1.072,0.043,1.184c0.028,0.112,0.094,0.205,0.195,0.277
			c0.102,0.073,0.225,0.109,0.371,0.109c0.203,0,0.497-0.07,0.883-0.211l0.188,1.703c-0.511,0.219-1.089,0.328-1.734,0.328
			c-0.396,0-0.753-0.066-1.07-0.199c-0.318-0.133-0.551-0.305-0.699-0.516s-0.252-0.496-0.309-0.855
			c-0.047-0.255-0.07-0.771-0.07-1.547v-3.617h-1.008v-1.75h1.008v-1.648l2.203-1.281v2.93H151.039z"/>
		<path fill="#414042" d="M152.926,38.696l-2.625-8.297h2.133l1.555,5.438l1.43-5.438h2.117l1.383,5.438l1.586-5.438h2.164
			l-2.664,8.297h-2.109l-1.43-5.336l-1.406,5.336H152.926z"/>
		<path fill="#414042" d="M164.281,32.931l-1.992-0.359c0.223-0.802,0.609-1.396,1.156-1.781c0.547-0.385,1.359-0.578,2.438-0.578
			c0.979,0,1.707,0.116,2.188,0.348c0.479,0.232,0.816,0.526,1.012,0.883c0.195,0.357,0.293,1.012,0.293,1.965l-0.023,2.563
			c0,0.729,0.035,1.267,0.105,1.613c0.07,0.347,0.201,0.718,0.395,1.113h-2.172c-0.059-0.146-0.129-0.362-0.211-0.648
			c-0.037-0.13-0.063-0.216-0.078-0.258c-0.375,0.365-0.777,0.638-1.203,0.82c-0.428,0.182-0.883,0.273-1.367,0.273
			c-0.855,0-1.527-0.231-2.02-0.695c-0.492-0.463-0.738-1.049-0.738-1.758c0-0.469,0.111-0.887,0.336-1.254
			c0.223-0.367,0.537-0.648,0.941-0.844c0.402-0.195,0.984-0.366,1.746-0.512c1.025-0.192,1.736-0.372,2.133-0.539v-0.219
			c0-0.422-0.105-0.723-0.313-0.902c-0.209-0.18-0.602-0.27-1.18-0.27c-0.391,0-0.695,0.077-0.914,0.23
			C164.594,32.276,164.416,32.545,164.281,32.931z M167.219,34.712c-0.281,0.094-0.727,0.206-1.336,0.336
			c-0.609,0.13-1.008,0.258-1.195,0.383c-0.287,0.203-0.43,0.461-0.43,0.773c0,0.308,0.113,0.573,0.344,0.797
			c0.229,0.224,0.52,0.336,0.875,0.336c0.395,0,0.773-0.13,1.133-0.391c0.266-0.198,0.439-0.44,0.523-0.727
			c0.057-0.188,0.086-0.544,0.086-1.07V34.712z"/>
		<path fill="#414042" d="M172.456,38.696h-2.195v-8.297h2.039v1.18c0.349-0.557,0.663-0.924,0.941-1.102
			c0.278-0.177,0.595-0.266,0.949-0.266c0.5,0,0.981,0.138,1.445,0.414l-0.68,1.914c-0.37-0.239-0.714-0.359-1.031-0.359
			c-0.308,0-0.567,0.085-0.781,0.254c-0.214,0.169-0.382,0.476-0.504,0.918c-0.122,0.443-0.184,1.37-0.184,2.781V38.696z"/>
		<path fill="#414042" d="M180.201,36.056l2.188,0.367c-0.281,0.802-0.725,1.413-1.332,1.832c-0.606,0.419-1.365,0.629-2.277,0.629
			c-1.442,0-2.51-0.471-3.203-1.414c-0.547-0.755-0.82-1.708-0.82-2.859c0-1.375,0.359-2.452,1.078-3.23
			c0.719-0.778,1.628-1.168,2.727-1.168c1.234,0,2.209,0.408,2.922,1.223c0.714,0.815,1.055,2.064,1.023,3.746h-5.5
			c0.016,0.651,0.193,1.158,0.531,1.52c0.339,0.362,0.761,0.543,1.266,0.543c0.344,0,0.633-0.094,0.867-0.281
			S180.082,36.473,180.201,36.056z M180.326,33.837c-0.016-0.635-0.18-1.118-0.492-1.449c-0.313-0.331-0.692-0.496-1.141-0.496
			c-0.479,0-0.875,0.175-1.188,0.523c-0.313,0.349-0.466,0.823-0.461,1.422H180.326z"/>
	</g>
</g>
<g>
	<path fill="#DB5940" d="M24.539,33.621c0-0.922,0.747-1.668,1.667-1.668c0.923,0,1.671,0.746,1.671,1.668
		c0,0.92-0.748,1.668-1.671,1.668C25.286,35.289,24.539,34.541,24.539,33.621 M25.473,29.191c-0.335,0-0.604,0.271-0.604,0.605
		v0.623c-0.274,0.113-0.521,0.271-0.752,0.448l-0.552-0.319c-0.093-0.055-0.195-0.081-0.302-0.081c-0.052,0-0.105,0.007-0.157,0.021
		c-0.155,0.041-0.286,0.143-0.368,0.281l-0.734,1.273c-0.166,0.289-0.068,0.66,0.221,0.826l0.555,0.322
		c-0.015,0.142-0.041,0.283-0.041,0.43c0,0.149,0.026,0.289,0.041,0.432l-0.555,0.32c-0.289,0.166-0.387,0.537-0.221,0.826
		l0.734,1.273c0.082,0.139,0.213,0.24,0.368,0.284c0.05,0.011,0.104,0.019,0.155,0.019c0.107,0,0.209-0.028,0.304-0.081l0.55-0.319
		c0.232,0.178,0.48,0.334,0.754,0.448v0.625c0,0.332,0.269,0.604,0.604,0.604h1.47c0.334,0,0.605-0.271,0.605-0.604v-0.625
		c0.272-0.114,0.517-0.271,0.751-0.446l0.551,0.317c0.093,0.054,0.196,0.081,0.303,0.081c0.053,0,0.104-0.008,0.154-0.019
		c0.155-0.044,0.289-0.146,0.367-0.284l0.738-1.273c0.167-0.288,0.066-0.658-0.222-0.826l-0.557-0.32
		c0.018-0.143,0.044-0.282,0.044-0.432c0-0.146-0.025-0.288-0.044-0.43l0.557-0.322c0.138-0.08,0.239-0.213,0.282-0.367
		c0.041-0.155,0.017-0.32-0.061-0.459l-0.738-1.273c-0.109-0.193-0.313-0.302-0.522-0.302c-0.104,0-0.207,0.025-0.302,0.082
		l-0.551,0.318c-0.233-0.177-0.48-0.335-0.751-0.448v-0.623c0-0.334-0.271-0.605-0.605-0.605H25.473z"/>
	<path fill="#414042" d="M23.751,37.875c-0.158,0.045-0.323,0.068-0.49,0.068c-0.155,0-0.311-0.021-0.465-0.06
		c-0.344-0.096-0.646-0.288-0.876-0.558h-0.585c-0.2,0-0.362-0.163-0.362-0.362v-1.217c-0.297-0.545-0.278-1.183,0-1.695v-0.859
		c-0.275-0.512-0.296-1.146,0-1.694V25.67c0-0.199,0.162-0.363,0.362-0.363h8.567c0.172-0.113,0.358-0.208,0.566-0.263
		c0.162-0.044,0.33-0.066,0.5-0.066c0.3,0,0.594,0.07,0.857,0.202c0.037-0.588,0.344-1.1,0.791-1.429H21.335
		c-1.059,0-1.919,0.86-1.919,1.919v11.293c0,1.06,0.86,1.92,1.919,1.92h3.106C24.105,38.641,23.854,38.289,23.751,37.875"/>
	<path fill="#414042" d="M40.661,23.751h-3.922c0.448,0.329,0.755,0.841,0.789,1.43c0.267-0.133,0.561-0.203,0.86-0.203
		c0.381,0,0.745,0.125,1.055,0.33h1.218c0.202,0,0.364,0.163,0.364,0.362v1.963c0.22,0.43,0.278,0.916,0.153,1.376
		c-0.037,0.137-0.091,0.265-0.153,0.387v1.456c0.272,0.535,0.291,1.186,0,1.754v4.357c0,0.199-0.162,0.363-0.364,0.363H30.494
		c-0.23,0.264-0.537,0.463-0.879,0.557c-0.151,0.041-0.307,0.06-0.463,0.06c-0.167,0-0.332-0.023-0.49-0.068
		c-0.021,0.08-0.047,0.154-0.077,0.229c-0.169,0.421-0.495,0.76-0.906,0.949v1.028c-1.221,0.132-2.177,1.157-2.177,2.412v0.714
		c0,0.324,0.263,0.586,0.584,0.586h9.829c0.321,0,0.581-0.262,0.581-0.586v-0.714c0-1.255-0.956-2.28-2.178-2.412v-1.198h6.345
		c1.056,0,1.918-0.86,1.918-1.92V25.67C42.581,24.611,41.719,23.751,40.661,23.751 M35.329,42.493v0.132h-8.661v-0.132
		c0-0.7,0.57-1.271,1.272-1.271h6.117C34.759,41.223,35.329,41.793,35.329,42.493"/>
	<path fill="#DB5940" d="M33.753,24.539c-0.422,0-0.764,0.342-0.764,0.762v0.785c-0.343,0.145-0.654,0.341-0.946,0.565l-0.693-0.402
		c-0.117-0.068-0.25-0.102-0.382-0.102c-0.066,0-0.134,0.007-0.198,0.025c-0.195,0.053-0.361,0.18-0.462,0.355l-0.927,1.604
		c-0.21,0.365-0.086,0.83,0.279,1.041l0.699,0.403c-0.01,0.063-0.018,0.125-0.025,0.188c0.136,0.124,0.26,0.261,0.351,0.423
		l0.739,1.276c0.234,0.41,0.297,0.887,0.173,1.35c-0.086,0.313-0.251,0.589-0.479,0.81c0.105,0.101,0.194,0.221,0.273,0.346
		l0.65-0.377c0.292,0.224,0.603,0.42,0.946,0.564v0.786c0,0.419,0.342,0.761,0.764,0.761h1.85c0.422,0,0.764-0.342,0.764-0.761
		v-0.786c0.344-0.145,0.654-0.341,0.944-0.564l0.696,0.401c0.117,0.067,0.25,0.103,0.383,0.103c0.065,0,0.13-0.009,0.194-0.025
		c0.194-0.053,0.363-0.181,0.464-0.355l0.926-1.604c0.21-0.365,0.085-0.832-0.279-1.041l-0.698-0.404
		c0.021-0.182,0.056-0.357,0.056-0.545c0-0.184-0.034-0.363-0.056-0.544l0.698-0.403c0.177-0.101,0.305-0.267,0.354-0.462
		c0.053-0.196,0.026-0.403-0.075-0.579l-0.926-1.601c-0.142-0.246-0.4-0.383-0.659-0.383c-0.131,0-0.261,0.032-0.382,0.102
		l-0.696,0.402c-0.29-0.224-0.603-0.42-0.944-0.565v-0.785c0-0.42-0.342-0.762-0.764-0.762H33.753z M34.678,32.107
		c-1.097,0-1.986-0.893-1.986-1.987c0-1.097,0.89-1.987,1.986-1.987c1.095,0,1.986,0.891,1.986,1.987
		C36.664,31.215,35.772,32.107,34.678,32.107"/>
</g>
</svg>
