<?xml version="1.0" encoding="utf-8"?>
<!-- Generator: Adobe Illustrator 17.0.0, SVG Export Plug-In . SVG Version: 6.00 Build 0)  -->
<!DOCTYPE svg PUBLIC "-//W3C//DTD SVG 1.1//EN" "http://www.w3.org/Graphics/SVG/1.1/DTD/svg11.dtd" [
	<!ENTITY ns_extend "http://ns.adobe.com/Extensibility/1.0/">
	<!ENTITY ns_ai "http://ns.adobe.com/AdobeIllustrator/10.0/">
	<!ENTITY ns_graphs "http://ns.adobe.com/Graphs/1.0/">
	<!ENTITY ns_vars "http://ns.adobe.com/Variables/1.0/">
	<!ENTITY ns_imrep "http://ns.adobe.com/ImageReplacement/1.0/">
	<!ENTITY ns_sfw "http://ns.adobe.com/SaveForWeb/1.0/">
	<!ENTITY ns_custom "http://ns.adobe.com/GenericCustomNamespace/1.0/">
	<!ENTITY ns_adobe_xpath "http://ns.adobe.com/XPath/1.0/">
]>
<svg version="1.1" id="Capa_1" xmlns:x="&ns_extend;" xmlns:i="&ns_ai;" xmlns:graph="&ns_graphs;"
	 xmlns="http://www.w3.org/2000/svg" xmlns:xlink="http://www.w3.org/1999/xlink" x="0px" y="0px" width="233px" height="52.98px"
	 viewBox="0 0 233 52.98" enable-background="new 0 0 233 52.98" xml:space="preserve">
<metadata>
	<sfw  xmlns="&ns_sfw;">
		<slices></slices>
		<sliceSourceBounds  width="504.084" height="248.153" x="252.916" y="-424.509" bottomLeftOrigin="true"></sliceSourceBounds>
	</sfw>
</metadata>
<g>
	<path fill="#222222" d="M233,3.907c0,0-6.436-3.907-16.063-3.907c0,0-2.052,20.451-3.284,43.857c0,0,19.347-9.176,19.347-12.026
		S233,3.907,233,3.907z"/>
	<path opacity="0.2" d="M0,45.002c0,0,39.977,5.129,104.645,5.129C169.31,50.131,233,43.45,233,28.981c0-14.468,0-24.505,0-24.505
		s0,10.321-127.689,10.321C7.31,14.798,0,11.03,0,11.03V45.002z"/>
	<linearGradient id="SVGID_1_" gradientUnits="userSpaceOnUse" x1="-1.323654e-005" y1="28.4433" x2="233" y2="28.4433">
		<stop  offset="0" style="stop-color:#231F20"/>
		<stop  offset="0.4986" style="stop-color:#252122"/>
		<stop  offset="0.6782" style="stop-color:#2B2729"/>
		<stop  offset="0.8058" style="stop-color:#353334"/>
		<stop  offset="0.8926" style="stop-color:#414042"/>
		<stop  offset="1" style="stop-color:#6D6E71"/>
	</linearGradient>
	<path fill="url(#SVGID_1_)" d="M0,47.851c0,0,39.977,5.129,104.645,5.129C169.31,52.98,233,46.3,233,31.831
		c0-14.469,0-27.924,0-27.924s0,13.741-127.689,13.741C7.31,17.647,0,13.88,0,13.88V47.851z"/>
</g>
<g>
	<g>
		<path fill="#FFFFFF" d="M54.404,39.979V28.526h2.313v11.453H54.404z"/>
		<path fill="#FFFFFF" d="M65.267,39.979h-2.195v-4.234c0-0.896-0.047-1.475-0.141-1.738c-0.094-0.263-0.246-0.467-0.457-0.613
			c-0.211-0.146-0.465-0.219-0.762-0.219c-0.38,0-0.722,0.104-1.023,0.313c-0.302,0.208-0.509,0.484-0.621,0.828
			c-0.112,0.344-0.168,0.979-0.168,1.906v3.758h-2.195v-8.297h2.039v1.219c0.724-0.938,1.635-1.406,2.734-1.406
			c0.484,0,0.927,0.087,1.328,0.262c0.401,0.175,0.704,0.397,0.91,0.668c0.206,0.271,0.349,0.578,0.43,0.922
			c0.081,0.344,0.121,0.836,0.121,1.477V39.979z"/>
		<path fill="#FFFFFF" d="M70.114,31.682v1.75h-1.5v3.344c0,0.677,0.014,1.072,0.043,1.184c0.028,0.112,0.094,0.205,0.195,0.277
			c0.102,0.073,0.225,0.109,0.371,0.109c0.203,0,0.497-0.07,0.883-0.211l0.188,1.703c-0.511,0.219-1.089,0.328-1.734,0.328
			c-0.396,0-0.753-0.066-1.07-0.199c-0.318-0.133-0.551-0.305-0.699-0.516s-0.251-0.496-0.309-0.855
			c-0.047-0.255-0.07-0.771-0.07-1.547v-3.617h-1.008v-1.75h1.008v-1.648l2.203-1.281v2.93H70.114z"/>
		<path fill="#FFFFFF" d="M72.556,39.979H70.36v-8.297h2.039v1.18c0.349-0.557,0.663-0.924,0.941-1.102
			c0.278-0.177,0.595-0.266,0.949-0.266c0.5,0,0.981,0.138,1.445,0.414l-0.68,1.914c-0.37-0.239-0.714-0.359-1.031-0.359
			c-0.308,0-0.568,0.085-0.781,0.254c-0.214,0.169-0.382,0.476-0.504,0.918c-0.123,0.443-0.184,1.37-0.184,2.781V39.979z"/>
		<path fill="#FFFFFF" d="M74.989,35.713c0-0.729,0.18-1.435,0.539-2.117c0.359-0.682,0.868-1.203,1.527-1.563
			c0.659-0.359,1.395-0.539,2.207-0.539c1.255,0,2.284,0.408,3.086,1.223c0.802,0.815,1.203,1.845,1.203,3.09
			c0,1.255-0.405,2.296-1.215,3.121c-0.81,0.826-1.83,1.238-3.059,1.238c-0.761,0-1.486-0.172-2.176-0.516
			c-0.69-0.344-1.215-0.848-1.574-1.512S74.989,36.666,74.989,35.713z M77.239,35.831c0,0.823,0.195,1.453,0.586,1.891
			s0.872,0.656,1.445,0.656c0.573,0,1.053-0.219,1.441-0.656c0.388-0.438,0.582-1.073,0.582-1.906c0-0.813-0.194-1.438-0.582-1.875
			c-0.388-0.438-0.869-0.656-1.441-0.656c-0.573,0-1.055,0.219-1.445,0.656S77.239,35.008,77.239,35.831z"/>
		<path fill="#FFFFFF" d="M91.695,39.979h-2.039V38.76c-0.339,0.474-0.738,0.827-1.199,1.059s-0.926,0.348-1.395,0.348
			c-0.953,0-1.77-0.384-2.449-1.152c-0.68-0.768-1.02-1.84-1.02-3.215c0-1.406,0.331-2.475,0.992-3.207
			c0.661-0.731,1.497-1.098,2.508-1.098c0.927,0,1.729,0.386,2.406,1.156v-4.125h2.195V39.979z M85.836,35.651
			c0,0.886,0.122,1.526,0.367,1.922c0.354,0.573,0.849,0.859,1.484,0.859c0.505,0,0.935-0.215,1.289-0.645
			c0.354-0.43,0.531-1.071,0.531-1.926c0-0.953-0.172-1.639-0.516-2.059c-0.344-0.419-0.784-0.629-1.32-0.629
			c-0.521,0-0.957,0.207-1.309,0.621S85.836,34.828,85.836,35.651z"/>
		<path fill="#FFFFFF" d="M98.136,39.979v-1.242c-0.302,0.443-0.699,0.792-1.191,1.047s-1.012,0.383-1.559,0.383
			c-0.558,0-1.058-0.123-1.5-0.367c-0.443-0.245-0.763-0.588-0.961-1.031c-0.198-0.442-0.297-1.055-0.297-1.836v-5.25h2.195v3.813
			c0,1.167,0.04,1.882,0.121,2.145c0.081,0.263,0.228,0.472,0.441,0.625c0.213,0.154,0.484,0.23,0.813,0.23
			c0.375,0,0.711-0.103,1.008-0.309c0.297-0.206,0.5-0.461,0.609-0.766s0.164-1.051,0.164-2.238v-3.5h2.195v8.297H98.136z"/>
		<path fill="#FFFFFF" d="M108.499,34.135l-2.164,0.391c-0.073-0.432-0.238-0.758-0.496-0.977s-0.593-0.328-1.004-0.328
			c-0.547,0-0.983,0.189-1.309,0.566c-0.326,0.378-0.488,1.009-0.488,1.895c0,0.984,0.165,1.68,0.496,2.086
			c0.331,0.406,0.774,0.609,1.332,0.609c0.417,0,0.758-0.118,1.023-0.355c0.266-0.237,0.453-0.645,0.563-1.223l2.156,0.367
			c-0.224,0.99-0.654,1.737-1.289,2.242c-0.636,0.505-1.487,0.758-2.555,0.758c-1.214,0-2.181-0.383-2.902-1.148
			c-0.722-0.766-1.082-1.825-1.082-3.18c0-1.37,0.362-2.436,1.086-3.199c0.724-0.763,1.703-1.145,2.938-1.145
			c1.01,0,1.813,0.218,2.41,0.652C107.81,32.582,108.238,33.245,108.499,34.135z"/>
		<path fill="#FFFFFF" d="M116.213,34.135l-2.164,0.391c-0.073-0.432-0.238-0.758-0.496-0.977s-0.593-0.328-1.004-0.328
			c-0.547,0-0.983,0.189-1.309,0.566c-0.326,0.378-0.488,1.009-0.488,1.895c0,0.984,0.165,1.68,0.496,2.086
			c0.331,0.406,0.774,0.609,1.332,0.609c0.417,0,0.758-0.118,1.023-0.355c0.266-0.237,0.453-0.645,0.563-1.223l2.156,0.367
			c-0.224,0.99-0.654,1.737-1.289,2.242c-0.636,0.505-1.487,0.758-2.555,0.758c-1.214,0-2.181-0.383-2.902-1.148
			c-0.722-0.766-1.082-1.825-1.082-3.18c0-1.37,0.362-2.436,1.086-3.199c0.724-0.763,1.703-1.145,2.938-1.145
			c1.01,0,1.813,0.218,2.41,0.652C115.524,32.582,115.952,33.245,116.213,34.135z"/>
		<path fill="#FFFFFF" d="M116.694,30.557v-2.031h2.195v2.031H116.694z M116.694,39.979v-8.297h2.195v8.297H116.694z"/>
		<path fill="#FFFFFF" d="M119.447,35.713c0-0.729,0.18-1.435,0.539-2.117c0.359-0.682,0.868-1.203,1.527-1.563
			c0.659-0.359,1.395-0.539,2.207-0.539c1.255,0,2.284,0.408,3.086,1.223c0.802,0.815,1.203,1.845,1.203,3.09
			c0,1.255-0.405,2.296-1.215,3.121c-0.81,0.826-1.83,1.238-3.059,1.238c-0.761,0-1.486-0.172-2.176-0.516
			c-0.69-0.344-1.215-0.848-1.574-1.512S119.447,36.666,119.447,35.713z M121.697,35.831c0,0.823,0.195,1.453,0.586,1.891
			s0.872,0.656,1.445,0.656c0.573,0,1.053-0.219,1.441-0.656c0.388-0.438,0.582-1.073,0.582-1.906c0-0.813-0.194-1.438-0.582-1.875
			c-0.388-0.438-0.869-0.656-1.441-0.656c-0.573,0-1.055,0.219-1.445,0.656S121.697,35.008,121.697,35.831z M122.619,30.666
			l1.078-2.336h2.461l-2.148,2.336H122.619z"/>
		<path fill="#FFFFFF" d="M136.091,39.979h-2.195v-4.234c0-0.896-0.047-1.475-0.141-1.738c-0.094-0.263-0.246-0.467-0.457-0.613
			c-0.211-0.146-0.465-0.219-0.762-0.219c-0.38,0-0.722,0.104-1.023,0.313c-0.302,0.208-0.509,0.484-0.621,0.828
			c-0.112,0.344-0.168,0.979-0.168,1.906v3.758h-2.195v-8.297h2.039v1.219c0.724-0.938,1.635-1.406,2.734-1.406
			c0.484,0,0.927,0.087,1.328,0.262c0.401,0.175,0.704,0.397,0.91,0.668c0.206,0.271,0.349,0.578,0.43,0.922
			c0.081,0.344,0.121,0.836,0.121,1.477V39.979z"/>
	</g>
</g>
<g>
	<g>
		<g>
			<g>
				<path fill="#FFFFFF" d="M38.037,30.982c-0.451,1.489-1.505,2.842-3.06,3.884l-0.281,2.209c-0.089,0.689-0.554,1.265-1.224,1.503
					c-0.191,0.067-0.393,0.099-0.598,0.099c-0.485,0-0.941-0.188-1.284-0.523l-1.479-1.449c-0.737,0.116-1.492,0.175-2.255,0.175
					c-0.025,0-0.051-0.003-0.075-0.003c-0.005,0.082-0.018,0.163-0.018,0.246c0,1.896,1.251,3.592,3.217,4.728l0.363,2.841
					c0.023,0.184,0.147,0.338,0.323,0.4c0.174,0.061,0.368,0.017,0.501-0.113l1.976-1.937c0.854,0.181,1.762,0.277,2.702,0.277
					c5.015,0,9.081-2.774,9.081-6.197C45.928,33.975,42.487,31.38,38.037,30.982 M36.847,38.319c-0.664,0-1.2-0.535-1.2-1.199
					c0-0.661,0.536-1.197,1.2-1.197c0.661,0,1.195,0.536,1.195,1.197C38.042,37.784,37.508,38.319,36.847,38.319 M40.298,38.319
					c-0.662,0-1.198-0.535-1.198-1.199c0-0.661,0.536-1.197,1.198-1.197c0.661,0,1.198,0.536,1.198,1.197
					C41.496,37.784,40.959,38.319,40.298,38.319"/>
			</g>
		</g>
		<path fill="#DB5940" d="M30.556,35.253l1.978,1.935c0.095,0.093,0.217,0.141,0.342,0.141c0.055,0,0.108-0.01,0.16-0.026
			c0.176-0.063,0.299-0.216,0.324-0.401l0.361-2.841c1.967-1.136,3.218-2.833,3.218-4.729c0-3.424-4.066-6.2-9.082-6.2
			c-5.015,0-9.082,2.776-9.082,6.2c0,3.423,4.067,6.198,9.082,6.198C28.795,35.53,29.704,35.435,30.556,35.253 M31.309,28.133
			c0.662,0,1.198,0.537,1.198,1.198c0,0.662-0.536,1.198-1.198,1.198s-1.197-0.536-1.197-1.198
			C30.111,28.669,30.646,28.133,31.309,28.133 M24.404,30.529c-0.66,0-1.199-0.536-1.199-1.198c0-0.662,0.539-1.198,1.199-1.198
			c0.664,0,1.199,0.537,1.199,1.198C25.603,29.993,25.068,30.529,24.404,30.529 M26.659,29.331c0-0.662,0.535-1.198,1.197-1.198
			c0.663,0,1.2,0.537,1.2,1.198c0,0.662-0.537,1.198-1.2,1.198C27.194,30.529,26.659,29.993,26.659,29.331"/>
	</g>
</g>
</svg>
