<?xml version="1.0" encoding="utf-8"?>
<!-- Generator: Adobe Illustrator 17.0.0, SVG Export Plug-In . SVG Version: 6.00 Build 0)  -->
<!DOCTYPE svg PUBLIC "-//W3C//DTD SVG 1.1//EN" "http://www.w3.org/Graphics/SVG/1.1/DTD/svg11.dtd" [
	<!ENTITY ns_extend "http://ns.adobe.com/Extensibility/1.0/">
	<!ENTITY ns_ai "http://ns.adobe.com/AdobeIllustrator/10.0/">
	<!ENTITY ns_graphs "http://ns.adobe.com/Graphs/1.0/">
	<!ENTITY ns_vars "http://ns.adobe.com/Variables/1.0/">
	<!ENTITY ns_imrep "http://ns.adobe.com/ImageReplacement/1.0/">
	<!ENTITY ns_sfw "http://ns.adobe.com/SaveForWeb/1.0/">
	<!ENTITY ns_custom "http://ns.adobe.com/GenericCustomNamespace/1.0/">
	<!ENTITY ns_adobe_xpath "http://ns.adobe.com/XPath/1.0/">
]>
<svg version="1.1" id="Capa_1" xmlns:x="&ns_extend;" xmlns:i="&ns_ai;" xmlns:graph="&ns_graphs;"
	 xmlns="http://www.w3.org/2000/svg" xmlns:xlink="http://www.w3.org/1999/xlink" x="0px" y="0px" width="233px" height="53.553px"
	 viewBox="0 0 233 53.553" enable-background="new 0 0 233 53.553" xml:space="preserve">
<metadata>
	<sfw  xmlns="&ns_sfw;">
		<slices></slices>
		<sliceSourceBounds  width="504.084" height="248.153" x="252.916" y="-424.509" bottomLeftOrigin="true"></sliceSourceBounds>
	</sfw>
</metadata>
<g>
	<path fill="#222222" d="M233,4.48c0,0-7.883-6.392-21.92-3.906c0,0-0.243,20.403,0.113,43.856c0,0,21.807-9.176,21.807-12.025
		C233,29.555,233,4.48,233,4.48z"/>
	<path opacity="0.2" d="M0,45.575c0,0,39.977,5.13,104.645,5.13C169.31,50.705,233,44.024,233,29.555c0-14.469,0-24.505,0-24.505
		s0,10.321-127.689,10.321C7.31,15.372,0,11.604,0,11.604V45.575z"/>
	<linearGradient id="SVGID_1_" gradientUnits="userSpaceOnUse" x1="-1.323654e-005" y1="29.0168" x2="233" y2="29.0168">
		<stop  offset="0" style="stop-color:#231F20"/>
		<stop  offset="0.4986" style="stop-color:#252122"/>
		<stop  offset="0.6782" style="stop-color:#2B2729"/>
		<stop  offset="0.8058" style="stop-color:#353334"/>
		<stop  offset="0.8926" style="stop-color:#414042"/>
		<stop  offset="1" style="stop-color:#6D6E71"/>
	</linearGradient>
	<path fill="url(#SVGID_1_)" d="M0,48.425c0,0,39.977,5.129,104.645,5.129C169.31,53.553,233,46.874,233,32.405
		c0-14.469,0-27.925,0-27.925s0,13.741-127.689,13.741C7.31,18.221,0,14.454,0,14.454V48.425z"/>
</g>
<g>
	<g>
		<path fill="#FFFFFF" d="M54.443,39.707V28.254h3.461l2.078,7.813l2.055-7.813h3.469v11.453h-2.148v-9.016l-2.273,9.016h-2.227
			l-2.266-9.016v9.016H54.443z"/>
		<path fill="#FFFFFF" d="M71.408,37.066l2.188,0.367c-0.281,0.802-0.726,1.412-1.332,1.832c-0.607,0.419-1.366,0.629-2.277,0.629
			c-1.443,0-2.511-0.472-3.203-1.414c-0.547-0.756-0.82-1.709-0.82-2.859c0-1.375,0.359-2.452,1.078-3.23
			c0.719-0.779,1.627-1.168,2.727-1.168c1.234,0,2.208,0.407,2.922,1.223c0.713,0.814,1.055,2.063,1.023,3.746h-5.5
			c0.016,0.65,0.192,1.157,0.531,1.52c0.338,0.361,0.76,0.543,1.266,0.543c0.344,0,0.633-0.094,0.867-0.281
			S71.287,37.482,71.408,37.066z M71.533,34.847c-0.016-0.636-0.18-1.119-0.492-1.449c-0.313-0.331-0.693-0.496-1.141-0.496
			c-0.479,0-0.875,0.174-1.188,0.523c-0.313,0.349-0.466,0.822-0.461,1.422H71.533z"/>
		<path fill="#FFFFFF" d="M76.466,31.41v8.039c0,1.057-0.069,1.803-0.207,2.238c-0.138,0.434-0.404,0.773-0.797,1.02
			c-0.394,0.244-0.895,0.367-1.504,0.367c-0.219,0-0.455-0.02-0.707-0.059s-0.524-0.098-0.816-0.176l0.383-1.875
			c0.104,0.02,0.202,0.037,0.293,0.051c0.091,0.012,0.176,0.02,0.254,0.02c0.224,0,0.407-0.049,0.551-0.145
			c0.143-0.098,0.238-0.213,0.285-0.348c0.047-0.137,0.07-0.543,0.07-1.219V31.41H76.466z M74.27,30.285v-2.031h2.195v2.031H74.27z"
			/>
		<path fill="#FFFFFF" d="M77.071,35.441c0-0.729,0.18-1.436,0.539-2.117c0.359-0.683,0.868-1.203,1.527-1.563
			c0.659-0.359,1.395-0.539,2.207-0.539c1.255,0,2.284,0.407,3.086,1.223c0.802,0.814,1.203,1.845,1.203,3.09
			c0,1.255-0.405,2.295-1.215,3.121c-0.81,0.825-1.83,1.238-3.059,1.238c-0.761,0-1.486-0.172-2.176-0.516
			c-0.69-0.344-1.215-0.848-1.574-1.512S77.071,36.394,77.071,35.441z M79.321,35.558c0,0.822,0.195,1.453,0.586,1.891
			s0.872,0.656,1.445,0.656c0.573,0,1.053-0.219,1.441-0.656c0.388-0.438,0.582-1.073,0.582-1.906c0-0.813-0.194-1.438-0.582-1.875
			c-0.388-0.438-0.869-0.656-1.441-0.656c-0.573,0-1.055,0.219-1.445,0.656S79.321,34.735,79.321,35.558z"/>
		<path fill="#FFFFFF" d="M88.27,39.707h-2.195V31.41h2.039v1.18c0.349-0.558,0.663-0.925,0.941-1.102
			c0.278-0.178,0.595-0.266,0.949-0.266c0.5,0,0.981,0.138,1.445,0.414l-0.68,1.914c-0.37-0.24-0.714-0.359-1.031-0.359
			c-0.308,0-0.568,0.084-0.781,0.254c-0.214,0.169-0.382,0.475-0.504,0.918c-0.123,0.442-0.184,1.369-0.184,2.781V39.707z"/>
		<path fill="#FFFFFF" d="M92.851,33.941l-1.992-0.359c0.224-0.803,0.609-1.396,1.156-1.781c0.547-0.386,1.359-0.578,2.438-0.578
			c0.979,0,1.708,0.115,2.188,0.348c0.479,0.231,0.816,0.525,1.012,0.883c0.195,0.356,0.293,1.012,0.293,1.965l-0.023,2.563
			c0,0.729,0.035,1.267,0.105,1.613c0.07,0.346,0.202,0.717,0.395,1.113H96.25c-0.058-0.146-0.128-0.362-0.211-0.648
			c-0.037-0.131-0.063-0.217-0.078-0.258c-0.375,0.364-0.776,0.638-1.203,0.82c-0.427,0.182-0.883,0.273-1.367,0.273
			c-0.854,0-1.527-0.232-2.02-0.695c-0.492-0.464-0.738-1.05-0.738-1.758c0-0.469,0.112-0.887,0.336-1.254
			c0.224-0.367,0.538-0.648,0.941-0.844c0.403-0.195,0.985-0.366,1.746-0.512c1.026-0.193,1.737-0.373,2.133-0.539v-0.219
			c0-0.422-0.104-0.723-0.313-0.902c-0.208-0.18-0.602-0.27-1.18-0.27c-0.391,0-0.695,0.076-0.914,0.23
			C93.164,33.286,92.987,33.555,92.851,33.941z M95.789,35.722c-0.281,0.094-0.727,0.205-1.336,0.336
			c-0.609,0.13-1.008,0.258-1.195,0.383c-0.287,0.203-0.43,0.461-0.43,0.773c0,0.307,0.114,0.572,0.344,0.797
			c0.229,0.224,0.521,0.336,0.875,0.336c0.396,0,0.773-0.131,1.133-0.391c0.266-0.198,0.44-0.44,0.523-0.727
			c0.057-0.188,0.086-0.545,0.086-1.07V35.722z"/>
		<path fill="#FFFFFF" d="M109.796,39.707h-2.039v-1.219c-0.339,0.474-0.738,0.826-1.199,1.059c-0.461,0.23-0.926,0.348-1.395,0.348
			c-0.953,0-1.77-0.385-2.449-1.152c-0.68-0.769-1.02-1.84-1.02-3.215c0-1.406,0.331-2.476,0.992-3.207
			c0.661-0.732,1.497-1.098,2.508-1.098c0.927,0,1.729,0.385,2.406,1.156v-4.125h2.195V39.707z M103.936,35.379
			c0,0.885,0.122,1.525,0.367,1.922c0.354,0.572,0.849,0.859,1.484,0.859c0.505,0,0.935-0.215,1.289-0.645
			c0.354-0.43,0.531-1.072,0.531-1.926c0-0.953-0.172-1.64-0.516-2.059c-0.344-0.42-0.784-0.629-1.32-0.629
			c-0.521,0-0.957,0.207-1.309,0.621S103.936,34.555,103.936,35.379z"/>
		<path fill="#FFFFFF" d="M115.58,37.066l2.188,0.367c-0.281,0.802-0.726,1.412-1.332,1.832c-0.607,0.419-1.366,0.629-2.277,0.629
			c-1.443,0-2.511-0.472-3.203-1.414c-0.547-0.756-0.82-1.709-0.82-2.859c0-1.375,0.359-2.452,1.078-3.23
			c0.719-0.779,1.627-1.168,2.727-1.168c1.234,0,2.208,0.407,2.922,1.223c0.713,0.814,1.055,2.063,1.023,3.746h-5.5
			c0.016,0.65,0.192,1.157,0.531,1.52c0.338,0.361,0.76,0.543,1.266,0.543c0.344,0,0.633-0.094,0.867-0.281
			S115.46,37.482,115.58,37.066z M115.705,34.847c-0.016-0.636-0.18-1.119-0.492-1.449c-0.313-0.331-0.693-0.496-1.141-0.496
			c-0.479,0-0.875,0.174-1.188,0.523c-0.313,0.349-0.466,0.822-0.461,1.422H115.705z"/>
		<path fill="#FFFFFF" d="M118.491,39.707V28.254h2.195v11.453H118.491z"/>
		<path fill="#FFFFFF" d="M124.951,31.41h2.047v1.219c0.266-0.417,0.625-0.756,1.078-1.016c0.453-0.261,0.956-0.391,1.508-0.391
			c0.963,0,1.781,0.377,2.453,1.133c0.672,0.755,1.008,1.807,1.008,3.156c0,1.385-0.339,2.462-1.016,3.23
			c-0.677,0.768-1.498,1.152-2.461,1.152c-0.458,0-0.874-0.092-1.246-0.273c-0.373-0.183-0.765-0.495-1.176-0.938v4.18h-2.195V31.41
			z M127.122,35.418c0,0.932,0.185,1.621,0.555,2.066c0.37,0.445,0.82,0.668,1.352,0.668c0.51,0,0.935-0.205,1.273-0.613
			c0.338-0.409,0.508-1.08,0.508-2.012c0-0.87-0.175-1.516-0.523-1.938c-0.349-0.422-0.781-0.633-1.297-0.633
			c-0.537,0-0.982,0.207-1.336,0.621C127.299,33.992,127.122,34.605,127.122,35.418z"/>
		<path fill="#FFFFFF" d="M135.704,39.707h-2.195V31.41h2.039v1.18c0.349-0.558,0.663-0.925,0.941-1.102
			c0.278-0.178,0.595-0.266,0.949-0.266c0.5,0,0.981,0.138,1.445,0.414l-0.68,1.914c-0.37-0.24-0.714-0.359-1.031-0.359
			c-0.308,0-0.568,0.084-0.781,0.254c-0.214,0.169-0.382,0.475-0.504,0.918c-0.123,0.442-0.184,1.369-0.184,2.781V39.707z"/>
		<path fill="#FFFFFF" d="M138.137,35.441c0-0.729,0.18-1.436,0.539-2.117c0.359-0.683,0.868-1.203,1.527-1.563
			c0.659-0.359,1.395-0.539,2.207-0.539c1.255,0,2.284,0.407,3.086,1.223c0.802,0.814,1.203,1.845,1.203,3.09
			c0,1.255-0.405,2.295-1.215,3.121c-0.81,0.825-1.83,1.238-3.059,1.238c-0.761,0-1.486-0.172-2.176-0.516
			c-0.69-0.344-1.215-0.848-1.574-1.512S138.137,36.394,138.137,35.441z M140.387,35.558c0,0.822,0.195,1.453,0.586,1.891
			s0.872,0.656,1.445,0.656c0.573,0,1.053-0.219,1.441-0.656c0.388-0.438,0.582-1.073,0.582-1.906c0-0.813-0.194-1.438-0.582-1.875
			c-0.388-0.438-0.869-0.656-1.441-0.656c-0.573,0-1.055,0.219-1.445,0.656S140.387,34.735,140.387,35.558z"/>
		<path fill="#FFFFFF" d="M154.469,33.863l-2.164,0.391c-0.073-0.433-0.238-0.758-0.496-0.977s-0.593-0.328-1.004-0.328
			c-0.547,0-0.983,0.188-1.309,0.566c-0.326,0.377-0.488,1.009-0.488,1.895c0,0.984,0.165,1.68,0.496,2.086
			c0.331,0.406,0.774,0.609,1.332,0.609c0.417,0,0.758-0.119,1.023-0.355c0.266-0.237,0.453-0.645,0.563-1.223l2.156,0.367
			c-0.224,0.989-0.654,1.736-1.289,2.242c-0.636,0.505-1.487,0.758-2.555,0.758c-1.214,0-2.181-0.383-2.902-1.148
			c-0.722-0.766-1.082-1.826-1.082-3.18c0-1.37,0.362-2.437,1.086-3.199c0.724-0.764,1.703-1.145,2.938-1.145
			c1.01,0,1.813,0.217,2.41,0.652C153.78,32.309,154.208,32.972,154.469,33.863z"/>
		<path fill="#FFFFFF" d="M159.754,37.066l2.188,0.367c-0.281,0.802-0.726,1.412-1.332,1.832c-0.607,0.419-1.366,0.629-2.277,0.629
			c-1.443,0-2.511-0.472-3.203-1.414c-0.547-0.756-0.82-1.709-0.82-2.859c0-1.375,0.359-2.452,1.078-3.23
			c0.719-0.779,1.627-1.168,2.727-1.168c1.234,0,2.208,0.407,2.922,1.223c0.713,0.814,1.055,2.063,1.023,3.746h-5.5
			c0.016,0.65,0.192,1.157,0.531,1.52c0.338,0.361,0.76,0.543,1.266,0.543c0.344,0,0.633-0.094,0.867-0.281
			S159.634,37.482,159.754,37.066z M159.879,34.847c-0.016-0.636-0.18-1.119-0.492-1.449c-0.313-0.331-0.693-0.496-1.141-0.496
			c-0.479,0-0.875,0.174-1.188,0.523c-0.313,0.349-0.466,0.822-0.461,1.422H159.879z"/>
		<path fill="#FFFFFF" d="M161.89,37.34l2.203-0.336c0.094,0.427,0.284,0.751,0.57,0.973c0.286,0.221,0.688,0.332,1.203,0.332
			c0.567,0,0.995-0.104,1.281-0.313c0.192-0.146,0.289-0.342,0.289-0.586c0-0.167-0.052-0.305-0.156-0.414
			c-0.109-0.104-0.354-0.201-0.734-0.289c-1.771-0.391-2.894-0.748-3.367-1.07c-0.656-0.448-0.984-1.07-0.984-1.867
			c0-0.719,0.284-1.323,0.852-1.813c0.567-0.49,1.448-0.734,2.641-0.734c1.135,0,1.979,0.185,2.531,0.555
			c0.552,0.369,0.932,0.916,1.141,1.641l-2.07,0.383c-0.089-0.323-0.257-0.57-0.504-0.742c-0.248-0.172-0.601-0.258-1.059-0.258
			c-0.578,0-0.992,0.08-1.242,0.242c-0.167,0.114-0.25,0.263-0.25,0.445c0,0.156,0.073,0.289,0.219,0.398
			c0.198,0.146,0.881,0.352,2.051,0.617c1.169,0.266,1.985,0.591,2.449,0.977c0.458,0.391,0.688,0.935,0.688,1.633
			c0,0.76-0.318,1.414-0.953,1.961c-0.636,0.547-1.576,0.82-2.82,0.82c-1.13,0-2.025-0.229-2.684-0.688
			C162.524,38.748,162.093,38.126,161.89,37.34z"/>
		<path fill="#FFFFFF" d="M169.87,35.441c0-0.729,0.18-1.436,0.539-2.117c0.359-0.683,0.868-1.203,1.527-1.563
			c0.659-0.359,1.395-0.539,2.207-0.539c1.255,0,2.284,0.407,3.086,1.223c0.802,0.814,1.203,1.845,1.203,3.09
			c0,1.255-0.405,2.295-1.215,3.121c-0.81,0.825-1.83,1.238-3.059,1.238c-0.761,0-1.486-0.172-2.176-0.516
			c-0.69-0.344-1.215-0.848-1.574-1.512S169.87,36.394,169.87,35.441z M172.12,35.558c0,0.822,0.195,1.453,0.586,1.891
			s0.872,0.656,1.445,0.656c0.573,0,1.053-0.219,1.441-0.656c0.388-0.438,0.582-1.073,0.582-1.906c0-0.813-0.194-1.438-0.582-1.875
			c-0.388-0.438-0.869-0.656-1.441-0.656c-0.573,0-1.055,0.219-1.445,0.656S172.12,34.735,172.12,35.558z"/>
	</g>
</g>
<g>
	<g>
		<defs>
			<path id="SVGID_65_" d="M30.009,25.237c-0.292,0.292-0.292,0.767,0,1.059c0.294,0.291,0.768,0.291,1.06,0
				c1.772-1.774,4.477-2.055,6.553-0.857l-0.547,0.546c-0.156,0.157-0.204,0.391-0.119,0.598c0.084,0.202,0.284,0.337,0.506,0.337
				l2.421-0.001c0.303,0,0.547-0.245,0.547-0.548v-2.42c0-0.224-0.133-0.421-0.337-0.505c-0.205-0.085-0.439-0.038-0.597,0.117
				l-0.782,0.782c-1.15-0.757-2.478-1.134-3.806-1.134C33.134,23.211,31.359,23.885,30.009,25.237"/>
		</defs>
		<use xlink:href="#SVGID_65_"  overflow="visible" fill="#DB5940"/>
		<clipPath id="SVGID_2_">
			<use xlink:href="#SVGID_65_"  overflow="visible"/>
		</clipPath>
		<rect x="29.717" y="23.211" clip-path="url(#SVGID_2_)" fill="#DB5940" width="10.712" height="3.708"/>
	</g>
	<g>
		<defs>
			<path id="SVGID_67_" d="M31.086,41.056c-0.302,0-0.547,0.247-0.547,0.549v2.419c0,0.224,0.132,0.421,0.338,0.507
				c0.205,0.085,0.44,0.038,0.597-0.119l0.782-0.781c1.149,0.756,2.478,1.133,3.806,1.133c1.774,0,3.547-0.676,4.899-2.025
				c0.292-0.292,0.292-0.766,0-1.059c-0.294-0.292-0.768-0.292-1.06,0c-1.773,1.773-4.477,2.055-6.553,0.856l0.547-0.546
				c0.156-0.155,0.204-0.391,0.119-0.598c-0.086-0.202-0.284-0.337-0.506-0.337L31.086,41.056z"/>
		</defs>
		<use xlink:href="#SVGID_67_"  overflow="visible" fill="#DB5940"/>
		<clipPath id="SVGID_3_">
			<use xlink:href="#SVGID_67_"  overflow="visible"/>
		</clipPath>
		<rect x="30.539" y="41.055" clip-path="url(#SVGID_3_)" fill="#DB5940" width="10.713" height="3.708"/>
	</g>
	<path fill="#FFFFFF" d="M32.698,37.906c0.15-0.151,0.231-0.35,0.231-0.562v-8.38c0-0.436-0.354-0.791-0.792-0.791h-7.259
		c-0.438,0-0.794,0.355-0.794,0.791v10.044c0,0.438,0.356,0.793,0.794,0.793h5.597c0.211,0,0.411-0.083,0.56-0.232L32.698,37.906z
		 M31.344,29.759v6.792h-0.869c-0.438,0-0.795,0.357-0.795,0.793v0.87h-4.01v-8.455H31.344z"/>
	<path fill="#FFFFFF" d="M45.734,28.174h-7.26c-0.437,0-0.793,0.355-0.793,0.791v10.044c0,0.438,0.356,0.793,0.793,0.793h5.596
		c0.213,0,0.411-0.083,0.563-0.232l1.664-1.663c0.147-0.151,0.232-0.35,0.232-0.562v-8.38
		C46.529,28.529,46.172,28.174,45.734,28.174 M44.941,29.759v6.792H44.07c-0.437,0-0.792,0.357-0.792,0.793v0.87h-4.011v-8.455
		H44.941z"/>
</g>
</svg>
