<?xml version="1.0" encoding="utf-8"?>
<!-- Generator: Adobe Illustrator 17.0.0, SVG Export Plug-In . SVG Version: 6.00 Build 0)  -->
<!DOCTYPE svg PUBLIC "-//W3C//DTD SVG 1.1//EN" "http://www.w3.org/Graphics/SVG/1.1/DTD/svg11.dtd" [
	<!ENTITY ns_extend "http://ns.adobe.com/Extensibility/1.0/">
	<!ENTITY ns_ai "http://ns.adobe.com/AdobeIllustrator/10.0/">
	<!ENTITY ns_graphs "http://ns.adobe.com/Graphs/1.0/">
	<!ENTITY ns_vars "http://ns.adobe.com/Variables/1.0/">
	<!ENTITY ns_imrep "http://ns.adobe.com/ImageReplacement/1.0/">
	<!ENTITY ns_sfw "http://ns.adobe.com/SaveForWeb/1.0/">
	<!ENTITY ns_custom "http://ns.adobe.com/GenericCustomNamespace/1.0/">
	<!ENTITY ns_adobe_xpath "http://ns.adobe.com/XPath/1.0/">
]>
<svg version="1.1" id="Capa_1" xmlns:x="&ns_extend;" xmlns:i="&ns_ai;" xmlns:graph="&ns_graphs;"
	 xmlns="http://www.w3.org/2000/svg" xmlns:xlink="http://www.w3.org/1999/xlink" x="0px" y="0px" width="233px" height="53.163px"
	 viewBox="0 0 233 53.163" enable-background="new 0 0 233 53.163" xml:space="preserve">
<metadata>
	<sfw  xmlns="&ns_sfw;">
		<slices></slices>
		<sliceSourceBounds  width="504.084" height="248.153" x="252.916" y="-424.509" bottomLeftOrigin="true"></sliceSourceBounds>
	</sfw>
</metadata>
<g>
	<path fill="#222222" d="M233,4.09c0,0-7.463-5.107-20.945-3.907c0,0-0.975,20.315-0.975,43.857c0,0,21.92-9.177,21.92-12.026
		C233,29.165,233,4.09,233,4.09z"/>
	<path opacity="0.2" d="M0,45.185c0,0,39.977,5.129,104.645,5.129C169.31,50.314,233,43.634,233,29.165c0-14.469,0-24.506,0-24.506
		s0,10.322-127.689,10.322C7.31,14.981,0,11.214,0,11.214V45.185z"/>
	<linearGradient id="SVGID_1_" gradientUnits="userSpaceOnUse" x1="-1.323654e-005" y1="28.6265" x2="233" y2="28.6265">
		<stop  offset="0" style="stop-color:#231F20"/>
		<stop  offset="0.4986" style="stop-color:#252122"/>
		<stop  offset="0.6782" style="stop-color:#2B2729"/>
		<stop  offset="0.8058" style="stop-color:#353334"/>
		<stop  offset="0.8926" style="stop-color:#414042"/>
		<stop  offset="1" style="stop-color:#6D6E71"/>
	</linearGradient>
	<path fill="url(#SVGID_1_)" d="M0,48.034c0,0,39.977,5.129,104.645,5.129C169.31,53.163,233,46.482,233,32.014
		c0-14.468,0-27.924,0-27.924s0,13.741-127.689,13.741C7.31,17.831,0,14.064,0,14.064V48.034z"/>
</g>
<g>
	<g>
		<path fill="#FFFFFF" d="M54.443,40.599V29.146h3.461l2.078,7.812l2.055-7.812h3.469v11.453h-2.148v-9.016l-2.273,9.016h-2.227
			l-2.266-9.016v9.016H54.443z"/>
		<path fill="#FFFFFF" d="M66.095,36.333c0-0.729,0.18-1.436,0.539-2.117c0.359-0.683,0.868-1.203,1.527-1.563
			c0.659-0.359,1.395-0.539,2.207-0.539c1.255,0,2.284,0.407,3.086,1.223c0.802,0.814,1.203,1.845,1.203,3.09
			c0,1.255-0.405,2.295-1.215,3.121c-0.81,0.825-1.83,1.238-3.059,1.238c-0.761,0-1.486-0.172-2.176-0.516
			c-0.69-0.344-1.215-0.848-1.574-1.512S66.095,37.286,66.095,36.333z M68.345,36.45c0,0.822,0.195,1.453,0.586,1.891
			s0.872,0.656,1.445,0.656c0.573,0,1.053-0.219,1.441-0.656c0.388-0.438,0.582-1.073,0.582-1.906c0-0.813-0.194-1.438-0.582-1.875
			c-0.388-0.438-0.869-0.656-1.441-0.656c-0.573,0-1.055,0.219-1.445,0.656S68.345,35.627,68.345,36.45z"/>
		<path fill="#FFFFFF" d="M82.802,40.599h-2.039V39.38c-0.339,0.474-0.738,0.826-1.199,1.059c-0.461,0.23-0.926,0.348-1.395,0.348
			c-0.953,0-1.77-0.385-2.449-1.152c-0.68-0.769-1.02-1.84-1.02-3.215c0-1.406,0.331-2.476,0.992-3.207
			c0.661-0.732,1.497-1.098,2.508-1.098c0.927,0,1.729,0.385,2.406,1.156v-4.125h2.195V40.599z M76.942,36.271
			c0,0.885,0.122,1.525,0.367,1.922c0.354,0.572,0.849,0.859,1.484,0.859c0.505,0,0.935-0.215,1.289-0.645
			c0.354-0.43,0.531-1.072,0.531-1.926c0-0.953-0.172-1.64-0.516-2.059c-0.344-0.42-0.784-0.629-1.32-0.629
			c-0.521,0-0.957,0.207-1.309,0.621S76.942,35.447,76.942,36.271z"/>
		<path fill="#FFFFFF" d="M88.587,37.958l2.188,0.367c-0.281,0.802-0.726,1.412-1.332,1.832c-0.607,0.419-1.366,0.629-2.277,0.629
			c-1.443,0-2.511-0.472-3.203-1.414c-0.547-0.756-0.82-1.709-0.82-2.859c0-1.375,0.359-2.452,1.078-3.23
			c0.719-0.779,1.627-1.168,2.727-1.168c1.234,0,2.208,0.407,2.922,1.223c0.713,0.814,1.055,2.063,1.023,3.746h-5.5
			c0.016,0.65,0.192,1.157,0.531,1.52c0.338,0.361,0.76,0.543,1.266,0.543c0.344,0,0.633-0.094,0.867-0.281
			S88.467,38.374,88.587,37.958z M88.712,35.739c-0.016-0.636-0.18-1.119-0.492-1.449c-0.313-0.331-0.693-0.496-1.141-0.496
			c-0.479,0-0.875,0.174-1.188,0.523c-0.313,0.349-0.466,0.822-0.461,1.422H88.712z"/>
		<path fill="#FFFFFF" d="M91.496,40.599V29.146h2.195v11.453H91.496z"/>
		<path fill="#FFFFFF" d="M94.25,36.333c0-0.729,0.18-1.436,0.539-2.117c0.359-0.683,0.868-1.203,1.527-1.563
			c0.659-0.359,1.395-0.539,2.207-0.539c1.255,0,2.284,0.407,3.086,1.223c0.802,0.814,1.203,1.845,1.203,3.09
			c0,1.255-0.405,2.295-1.215,3.121c-0.81,0.825-1.83,1.238-3.059,1.238c-0.761,0-1.486-0.172-2.176-0.516
			c-0.69-0.344-1.215-0.848-1.574-1.512S94.25,37.286,94.25,36.333z M96.5,36.45c0,0.822,0.195,1.453,0.586,1.891
			s0.872,0.656,1.445,0.656c0.573,0,1.053-0.219,1.441-0.656c0.388-0.438,0.582-1.073,0.582-1.906c0-0.813-0.194-1.438-0.582-1.875
			c-0.388-0.438-0.869-0.656-1.441-0.656c-0.573,0-1.055,0.219-1.445,0.656S96.5,35.627,96.5,36.45z"/>
		<path fill="#FFFFFF" d="M102.574,38.231l2.203-0.336c0.094,0.427,0.284,0.751,0.57,0.973c0.286,0.221,0.688,0.332,1.203,0.332
			c0.567,0,0.995-0.104,1.281-0.313c0.192-0.146,0.289-0.342,0.289-0.586c0-0.167-0.052-0.305-0.156-0.414
			c-0.109-0.104-0.354-0.201-0.734-0.289c-1.771-0.391-2.894-0.748-3.367-1.07c-0.656-0.448-0.984-1.07-0.984-1.867
			c0-0.719,0.284-1.323,0.852-1.813c0.567-0.49,1.448-0.734,2.641-0.734c1.135,0,1.979,0.185,2.531,0.555
			c0.552,0.369,0.932,0.916,1.141,1.641l-2.07,0.383c-0.089-0.323-0.257-0.57-0.504-0.742c-0.248-0.172-0.601-0.258-1.059-0.258
			c-0.578,0-0.992,0.08-1.242,0.242c-0.167,0.114-0.25,0.263-0.25,0.445c0,0.156,0.073,0.289,0.219,0.398
			c0.198,0.146,0.881,0.352,2.051,0.617c1.169,0.266,1.985,0.591,2.449,0.977c0.458,0.391,0.688,0.935,0.688,1.633
			c0,0.76-0.318,1.414-0.953,1.961c-0.636,0.547-1.576,0.82-2.82,0.82c-1.13,0-2.025-0.229-2.684-0.688
			C103.207,39.64,102.777,39.018,102.574,38.231z"/>
		<path fill="#FFFFFF" d="M121.932,40.599h-2.039V39.38c-0.339,0.474-0.738,0.826-1.199,1.059c-0.461,0.23-0.926,0.348-1.395,0.348
			c-0.953,0-1.77-0.385-2.449-1.152c-0.68-0.769-1.02-1.84-1.02-3.215c0-1.406,0.331-2.476,0.992-3.207
			c0.661-0.732,1.497-1.098,2.508-1.098c0.927,0,1.729,0.385,2.406,1.156v-4.125h2.195V40.599z M116.073,36.271
			c0,0.885,0.122,1.525,0.367,1.922c0.354,0.572,0.849,0.859,1.484,0.859c0.505,0,0.935-0.215,1.289-0.645
			c0.354-0.43,0.531-1.072,0.531-1.926c0-0.953-0.172-1.64-0.516-2.059c-0.344-0.42-0.784-0.629-1.32-0.629
			c-0.521,0-0.957,0.207-1.309,0.621S116.073,35.447,116.073,36.271z"/>
		<path fill="#FFFFFF" d="M127.717,37.958l2.188,0.367c-0.281,0.802-0.726,1.412-1.332,1.832c-0.607,0.419-1.366,0.629-2.277,0.629
			c-1.443,0-2.511-0.472-3.203-1.414c-0.547-0.756-0.82-1.709-0.82-2.859c0-1.375,0.359-2.452,1.078-3.23
			c0.719-0.779,1.627-1.168,2.727-1.168c1.234,0,2.208,0.407,2.922,1.223c0.713,0.814,1.055,2.063,1.023,3.746h-5.5
			c0.016,0.65,0.192,1.157,0.531,1.52c0.338,0.361,0.76,0.543,1.266,0.543c0.344,0,0.633-0.094,0.867-0.281
			S127.597,38.374,127.717,37.958z M127.842,35.739c-0.016-0.636-0.18-1.119-0.492-1.449c-0.313-0.331-0.693-0.496-1.141-0.496
			c-0.479,0-0.875,0.174-1.188,0.523c-0.313,0.349-0.466,0.822-0.461,1.422H127.842z"/>
		<path fill="#FFFFFF" d="M141.122,34.755l-2.164,0.391c-0.073-0.433-0.238-0.758-0.496-0.977s-0.593-0.328-1.004-0.328
			c-0.547,0-0.983,0.188-1.309,0.566c-0.326,0.377-0.488,1.009-0.488,1.895c0,0.984,0.165,1.68,0.496,2.086
			c0.331,0.406,0.774,0.609,1.332,0.609c0.417,0,0.758-0.119,1.023-0.355c0.266-0.237,0.453-0.645,0.563-1.223l2.156,0.367
			c-0.224,0.989-0.654,1.736-1.289,2.242c-0.636,0.505-1.487,0.758-2.555,0.758c-1.214,0-2.181-0.383-2.902-1.148
			c-0.722-0.766-1.082-1.826-1.082-3.18c0-1.37,0.362-2.437,1.086-3.199c0.724-0.764,1.703-1.145,2.938-1.145
			c1.01,0,1.813,0.217,2.41,0.652C140.433,33.201,140.862,33.864,141.122,34.755z"/>
		<path fill="#FFFFFF" d="M143.243,34.833l-1.992-0.359c0.224-0.803,0.609-1.396,1.156-1.781c0.547-0.386,1.359-0.578,2.438-0.578
			c0.979,0,1.708,0.115,2.188,0.348c0.479,0.231,0.816,0.525,1.012,0.883c0.195,0.356,0.293,1.012,0.293,1.965l-0.023,2.563
			c0,0.729,0.035,1.267,0.105,1.613c0.07,0.346,0.202,0.717,0.395,1.113h-2.172c-0.058-0.146-0.128-0.362-0.211-0.648
			c-0.037-0.131-0.063-0.217-0.078-0.258c-0.375,0.364-0.776,0.638-1.203,0.82c-0.427,0.182-0.883,0.273-1.367,0.273
			c-0.854,0-1.527-0.232-2.02-0.695c-0.492-0.464-0.738-1.05-0.738-1.758c0-0.469,0.112-0.887,0.336-1.254
			c0.224-0.367,0.538-0.648,0.941-0.844c0.403-0.195,0.985-0.366,1.746-0.512c1.026-0.193,1.737-0.373,2.133-0.539v-0.219
			c0-0.422-0.104-0.723-0.313-0.902c-0.208-0.18-0.602-0.27-1.18-0.27c-0.391,0-0.695,0.076-0.914,0.23
			C143.556,34.178,143.378,34.447,143.243,34.833z M146.181,36.614c-0.281,0.094-0.727,0.205-1.336,0.336
			c-0.609,0.13-1.008,0.258-1.195,0.383c-0.287,0.203-0.43,0.461-0.43,0.773c0,0.307,0.114,0.572,0.344,0.797
			c0.229,0.224,0.521,0.336,0.875,0.336c0.396,0,0.773-0.131,1.133-0.391c0.266-0.198,0.44-0.44,0.523-0.727
			c0.057-0.188,0.086-0.545,0.086-1.07V36.614z"/>
		<path fill="#FFFFFF" d="M149.317,40.599V29.146h2.195v11.453H149.317z"/>
		<path fill="#FFFFFF" d="M152.578,31.177v-2.031h2.195v2.031H152.578z M152.578,40.599v-8.297h2.195v8.297H152.578z"/>
		<path fill="#FFFFFF" d="M163.449,40.599h-2.039V39.38c-0.339,0.474-0.738,0.826-1.199,1.059c-0.461,0.23-0.926,0.348-1.395,0.348
			c-0.953,0-1.77-0.385-2.449-1.152c-0.68-0.769-1.02-1.84-1.02-3.215c0-1.406,0.331-2.476,0.992-3.207
			c0.661-0.732,1.497-1.098,2.508-1.098c0.927,0,1.729,0.385,2.406,1.156v-4.125h2.195V40.599z M157.59,36.271
			c0,0.885,0.122,1.525,0.367,1.922c0.354,0.572,0.849,0.859,1.484,0.859c0.505,0,0.935-0.215,1.289-0.645
			c0.354-0.43,0.531-1.072,0.531-1.926c0-0.953-0.172-1.64-0.516-2.059c-0.344-0.42-0.784-0.629-1.32-0.629
			c-0.521,0-0.957,0.207-1.309,0.621S157.59,35.447,157.59,36.271z"/>
		<path fill="#FFFFFF" d="M166.07,34.833l-1.992-0.359c0.224-0.803,0.609-1.396,1.156-1.781c0.547-0.386,1.359-0.578,2.438-0.578
			c0.979,0,1.708,0.115,2.188,0.348c0.479,0.231,0.816,0.525,1.012,0.883c0.195,0.356,0.293,1.012,0.293,1.965l-0.023,2.563
			c0,0.729,0.035,1.267,0.105,1.613c0.07,0.346,0.202,0.717,0.395,1.113h-2.172c-0.058-0.146-0.128-0.362-0.211-0.648
			c-0.037-0.131-0.063-0.217-0.078-0.258c-0.375,0.364-0.776,0.638-1.203,0.82c-0.427,0.182-0.883,0.273-1.367,0.273
			c-0.854,0-1.527-0.232-2.02-0.695c-0.492-0.464-0.738-1.05-0.738-1.758c0-0.469,0.112-0.887,0.336-1.254
			c0.224-0.367,0.538-0.648,0.941-0.844c0.403-0.195,0.985-0.366,1.746-0.512c1.026-0.193,1.737-0.373,2.133-0.539v-0.219
			c0-0.422-0.104-0.723-0.313-0.902c-0.208-0.18-0.602-0.27-1.18-0.27c-0.391,0-0.695,0.076-0.914,0.23
			C166.382,34.178,166.205,34.447,166.07,34.833z M169.007,36.614c-0.281,0.094-0.727,0.205-1.336,0.336
			c-0.609,0.13-1.008,0.258-1.195,0.383c-0.287,0.203-0.43,0.461-0.43,0.773c0,0.307,0.114,0.572,0.344,0.797
			c0.229,0.224,0.521,0.336,0.875,0.336c0.396,0,0.773-0.131,1.133-0.391c0.266-0.198,0.44-0.44,0.523-0.727
			c0.057-0.188,0.086-0.545,0.086-1.07V36.614z"/>
		<path fill="#FFFFFF" d="M179.753,40.599h-2.039V39.38c-0.339,0.474-0.738,0.826-1.199,1.059c-0.461,0.23-0.926,0.348-1.395,0.348
			c-0.953,0-1.77-0.385-2.449-1.152c-0.68-0.769-1.02-1.84-1.02-3.215c0-1.406,0.331-2.476,0.992-3.207
			c0.661-0.732,1.497-1.098,2.508-1.098c0.927,0,1.729,0.385,2.406,1.156v-4.125h2.195V40.599z M173.893,36.271
			c0,0.885,0.122,1.525,0.367,1.922c0.354,0.572,0.849,0.859,1.484,0.859c0.505,0,0.935-0.215,1.289-0.645
			c0.354-0.43,0.531-1.072,0.531-1.926c0-0.953-0.172-1.64-0.516-2.059c-0.344-0.42-0.784-0.629-1.32-0.629
			c-0.521,0-0.957,0.207-1.309,0.621S173.893,35.447,173.893,36.271z"/>
	</g>
</g>
<g>
	<g>
		<g>
			<defs>
				<path id="SVGID_39_" d="M28.085,29.187c-0.409,0-0.743,0.332-0.743,0.742s0.334,0.74,0.743,0.74h3.859
					c0.409,0,0.741-0.33,0.741-0.74s-0.332-0.742-0.741-0.742H28.085z"/>
			</defs>
			<clipPath id="SVGID_2_">
				<use xlink:href="#SVGID_39_"  overflow="visible"/>
			</clipPath>
		</g>
		<g>
			<defs>
				<path id="SVGID_41_" d="M28.085,29.187c-0.409,0-0.743,0.332-0.743,0.742s0.334,0.74,0.743,0.74h3.859
					c0.409,0,0.741-0.33,0.741-0.74s-0.332-0.742-0.741-0.742H28.085z"/>
			</defs>
			<use xlink:href="#SVGID_41_"  overflow="visible" fill="#DB5940"/>
			<clipPath id="SVGID_3_">
				<use xlink:href="#SVGID_41_"  overflow="visible"/>
			</clipPath>
			<rect x="27.342" y="29.187" clip-path="url(#SVGID_3_)" fill="#DB5940" width="5.344" height="1.482"/>
		</g>
		<g>
			<defs>
				<path id="SVGID_43_" d="M28.085,29.187c-0.409,0-0.743,0.332-0.743,0.742s0.334,0.74,0.743,0.74h3.859
					c0.409,0,0.741-0.33,0.741-0.74s-0.332-0.742-0.741-0.742H28.085z"/>
			</defs>
			<clipPath id="SVGID_4_">
				<use xlink:href="#SVGID_43_"  overflow="visible"/>
			</clipPath>
		</g>
	</g>
	<g>
		<g>
			<defs>
				<path id="SVGID_45_" d="M28.085,32.155c-0.409,0-0.743,0.332-0.743,0.742c0,0.411,0.334,0.742,0.743,0.742h5.048
					c0.409,0,0.741-0.331,0.741-0.742c0-0.41-0.332-0.742-0.741-0.742H28.085z"/>
			</defs>
			<clipPath id="SVGID_6_">
				<use xlink:href="#SVGID_45_"  overflow="visible"/>
			</clipPath>
		</g>
		<g>
			<defs>
				<path id="SVGID_47_" d="M28.085,32.155c-0.409,0-0.743,0.332-0.743,0.742c0,0.411,0.334,0.742,0.743,0.742h5.048
					c0.409,0,0.741-0.331,0.741-0.742c0-0.41-0.332-0.742-0.741-0.742H28.085z"/>
			</defs>
			<use xlink:href="#SVGID_47_"  overflow="visible" fill="#DB5940"/>
			<clipPath id="SVGID_8_">
				<use xlink:href="#SVGID_47_"  overflow="visible"/>
			</clipPath>
			<rect x="27.342" y="32.155" clip-path="url(#SVGID_8_)" fill="#DB5940" width="6.532" height="1.484"/>
		</g>
		<g>
			<defs>
				<path id="SVGID_49_" d="M28.085,32.155c-0.409,0-0.743,0.332-0.743,0.742c0,0.411,0.334,0.742,0.743,0.742h5.048
					c0.409,0,0.741-0.331,0.741-0.742c0-0.41-0.332-0.742-0.741-0.742H28.085z"/>
			</defs>
			<clipPath id="SVGID_10_">
				<use xlink:href="#SVGID_49_"  overflow="visible"/>
			</clipPath>
		</g>
	</g>
	<g>
		<g>
			<defs>
				<path id="SVGID_51_" d="M28.085,35.124c-0.409,0-0.743,0.331-0.743,0.742c0,0.41,0.334,0.742,0.743,0.742h4.927
					c0.226-0.379,0.491-0.731,0.788-1.051c-0.116-0.255-0.37-0.434-0.667-0.434H28.085z"/>
			</defs>
			<clipPath id="SVGID_12_">
				<use xlink:href="#SVGID_51_"  overflow="visible"/>
			</clipPath>
		</g>
		<g>
			<defs>
				<path id="SVGID_53_" d="M28.085,35.124c-0.409,0-0.743,0.331-0.743,0.742c0,0.41,0.334,0.742,0.743,0.742h4.927
					c0.226-0.379,0.491-0.731,0.788-1.051c-0.116-0.255-0.37-0.434-0.667-0.434H28.085z"/>
			</defs>
			<use xlink:href="#SVGID_53_"  overflow="visible" fill="#DB5940"/>
			<clipPath id="SVGID_14_">
				<use xlink:href="#SVGID_53_"  overflow="visible"/>
			</clipPath>
			<rect x="27.342" y="35.124" clip-path="url(#SVGID_14_)" fill="#DB5940" width="6.458" height="1.484"/>
		</g>
		<g>
			<defs>
				<path id="SVGID_55_" d="M28.085,35.124c-0.409,0-0.743,0.331-0.743,0.742c0,0.41,0.334,0.742,0.743,0.742h4.927
					c0.226-0.379,0.491-0.731,0.788-1.051c-0.116-0.255-0.37-0.434-0.667-0.434H28.085z"/>
			</defs>
			<clipPath id="SVGID_16_">
				<use xlink:href="#SVGID_55_"  overflow="visible"/>
			</clipPath>
		</g>
	</g>
	<g>
		<g>
			<defs>
				<path id="SVGID_57_" d="M28.085,38.094c-0.409,0-0.743,0.33-0.743,0.74c0,0.411,0.334,0.742,0.743,0.742h4.088
					c0.009-0.513,0.082-1.01,0.212-1.482H28.085z"/>
			</defs>
			<clipPath id="SVGID_18_">
				<use xlink:href="#SVGID_57_"  overflow="visible"/>
			</clipPath>
		</g>
		<g>
			<defs>
				<path id="SVGID_59_" d="M28.085,38.094c-0.409,0-0.743,0.33-0.743,0.74c0,0.411,0.334,0.742,0.743,0.742h4.088
					c0.009-0.513,0.082-1.01,0.212-1.482H28.085z"/>
			</defs>
			<use xlink:href="#SVGID_59_"  overflow="visible" fill="#DB5940"/>
			<clipPath id="SVGID_20_">
				<use xlink:href="#SVGID_59_"  overflow="visible"/>
			</clipPath>
			<rect x="27.342" y="38.094" clip-path="url(#SVGID_20_)" fill="#DB5940" width="5.043" height="1.482"/>
		</g>
		<g>
			<defs>
				<path id="SVGID_61_" d="M28.085,38.094c-0.409,0-0.743,0.33-0.743,0.74c0,0.411,0.334,0.742,0.743,0.742h4.088
					c0.009-0.513,0.082-1.01,0.212-1.482H28.085z"/>
			</defs>
			<clipPath id="SVGID_22_">
				<use xlink:href="#SVGID_61_"  overflow="visible"/>
			</clipPath>
		</g>
	</g>
	<g>
		<defs>
			<path id="SVGID_63_" d="M41.852,34.092l-3.835,6.164l-1.285-1.833c-0.188-0.268-0.486-0.41-0.79-0.41
				c-0.192,0-0.385,0.057-0.553,0.176c-0.437,0.305-0.542,0.905-0.235,1.341l2.12,3.027c0.181,0.258,0.477,0.411,0.79,0.411h0.027
				c0.324-0.01,0.621-0.181,0.792-0.454l4.606-7.4c0.281-0.454,0.143-1.048-0.309-1.33c-0.157-0.098-0.334-0.145-0.509-0.145
				C42.351,33.639,42.035,33.8,41.852,34.092"/>
		</defs>
		<use xlink:href="#SVGID_63_"  overflow="visible" fill="#DB5940"/>
		<clipPath id="SVGID_24_">
			<use xlink:href="#SVGID_63_"  overflow="visible"/>
		</clipPath>
	</g>
	<path fill="#FFFFFF" d="M42.195,38.651c0.083,0.326,0.133,0.667,0.133,1.019c0,2.276-1.853,4.129-4.131,4.129
		c-2.276,0-4.131-1.852-4.131-4.129c0-2.279,1.854-4.131,4.131-4.131c0.581,0,1.133,0.121,1.635,0.338l0.615-0.986
		c-0.684-0.323-1.444-0.509-2.25-0.509c-2.917,0-5.287,2.372-5.287,5.288c0,2.915,2.37,5.288,5.287,5.288
		c2.917,0,5.289-2.373,5.289-5.288c0-0.81-0.189-1.576-0.517-2.263L42.195,38.651z"/>
	<path fill="#FFFFFF" d="M25.81,41.356c-0.207,0-0.376-0.168-0.376-0.375v-13.81c0-0.206,0.169-0.374,0.376-0.374h9.596
		c0.208,0,0.375,0.168,0.375,0.374v6.978c0.468-0.204,0.966-0.349,1.484-0.429v-6.55c0-1.024-0.835-1.857-1.859-1.857h-7.48v-0.635
		c0-0.208,0.167-0.376,0.374-0.376h9.598c0.205,0,0.374,0.168,0.374,0.376v8.966c0.504,0.007,1,0.081,1.483,0.213v-9.179
		c0-1.026-0.833-1.859-1.857-1.859h-9.598c-1.024,0-1.857,0.833-1.857,1.859v0.635H25.81c-1.024,0-1.859,0.833-1.859,1.857v13.81
		c0,1.024,0.835,1.858,1.859,1.858h7.267c-0.284-0.457-0.511-0.953-0.665-1.483H25.81z"/>
</g>
</svg>
