<!-- Generator: Adobe Illustrator 17.0.0, SVG Export Plug-In  -->
<svg version="1.1"
	 xmlns="http://www.w3.org/2000/svg" xmlns:xlink="http://www.w3.org/1999/xlink" xmlns:a="http://ns.adobe.com/AdobeSVGViewerExtensions/3.0/"
	 x="0px" y="0px" width="172.314px" height="45.259px" viewBox="0 0 172.314 45.259" enable-background="new 0 0 172.314 45.259"
	 xml:space="preserve">
<defs>
</defs>
<rect x="0" y="2.124" fill="#DB5940" width="172.314" height="43.135"/>
<linearGradient id="SVGID_1_" gradientUnits="userSpaceOnUse" x1="0" y1="21.5679" x2="172.3135" y2="21.5679">
	<stop  offset="0" style="stop-color:#F4F5F5"/>
	<stop  offset="1" style="stop-color:#E7E7E7"/>
</linearGradient>
<rect x="0" y="0" fill="url(#SVGID_1_)" width="172.314" height="43.136"/>
<g>
	<g>
		<path fill="#414042" d="M47.219,21.482c0-1.271,0.19-2.337,0.57-3.199c0.283-0.635,0.671-1.205,1.161-1.71
			s1.028-0.879,1.612-1.123c0.777-0.329,1.673-0.493,2.688-0.493c1.838,0,3.308,0.57,4.411,1.71c1.103,1.14,1.654,2.726,1.654,4.756
			c0,2.014-0.547,3.589-1.642,4.726c-1.095,1.138-2.558,1.706-4.39,1.706c-1.854,0-3.33-0.566-4.424-1.697
			C47.767,25.025,47.219,23.468,47.219,21.482z M49.813,21.397c0,1.412,0.326,2.482,0.979,3.211c0.652,0.729,1.48,1.094,2.484,1.094
			s1.828-0.361,2.472-1.085c0.644-0.723,0.966-1.808,0.966-3.254c0-1.43-0.313-2.496-0.94-3.199s-1.459-1.055-2.497-1.055
			s-1.875,0.356-2.51,1.067C50.132,18.889,49.813,19.962,49.813,21.397z"/>
		<path fill="#414042" d="M61.163,27.642V15.17h2.391v4.491c0.737-0.839,1.61-1.259,2.62-1.259c1.101,0,2.011,0.398,2.731,1.195
			c0.72,0.797,1.08,1.941,1.08,3.433c0,1.543-0.367,2.731-1.102,3.564c-0.734,0.834-1.627,1.251-2.676,1.251
			c-0.516,0-1.025-0.129-1.527-0.387c-0.502-0.259-0.935-0.64-1.297-1.145v1.327H61.163z M63.537,22.929
			c0,0.936,0.147,1.628,0.442,2.075c0.413,0.636,0.964,0.953,1.65,0.953c0.527,0,0.977-0.226,1.348-0.676
			c0.372-0.451,0.558-1.162,0.558-2.132c0-1.032-0.188-1.776-0.562-2.233c-0.374-0.456-0.854-0.685-1.438-0.685
			c-0.573,0-1.05,0.223-1.43,0.668C63.727,21.345,63.537,22.021,63.537,22.929z"/>
		<path fill="#414042" d="M74.247,18.606v8.755c0,1.15-0.075,1.963-0.226,2.437c-0.149,0.474-0.439,0.844-0.867,1.11
			c-0.429,0.267-0.975,0.4-1.638,0.4c-0.238,0-0.495-0.021-0.771-0.064c-0.274-0.042-0.571-0.106-0.889-0.191l0.417-2.041
			c0.113,0.022,0.22,0.041,0.319,0.055c0.099,0.015,0.191,0.021,0.276,0.021c0.243,0,0.443-0.053,0.6-0.157
			c0.156-0.105,0.26-0.231,0.311-0.379s0.076-0.59,0.076-1.327v-8.618H74.247z M71.856,17.382V15.17h2.391v2.212H71.856z"/>
		<path fill="#414042" d="M81.98,24.766l2.383,0.4c-0.307,0.873-0.79,1.538-1.451,1.995c-0.66,0.456-1.487,0.685-2.479,0.685
			c-1.571,0-2.734-0.513-3.488-1.54c-0.596-0.822-0.894-1.86-0.894-3.113c0-1.497,0.392-2.67,1.174-3.518
			c0.783-0.849,1.772-1.272,2.97-1.272c1.344,0,2.404,0.444,3.182,1.332s1.148,2.247,1.114,4.079h-5.989
			c0.018,0.709,0.21,1.261,0.579,1.654c0.368,0.395,0.827,0.592,1.378,0.592c0.374,0,0.689-0.103,0.944-0.307
			S81.851,25.22,81.98,24.766z M82.117,22.35c-0.018-0.691-0.196-1.218-0.536-1.578c-0.341-0.359-0.755-0.54-1.242-0.54
			c-0.521,0-0.953,0.19-1.293,0.57c-0.341,0.38-0.508,0.896-0.502,1.548H82.117z"/>
		<path fill="#414042" d="M90.582,18.606v1.906h-1.633v3.641c0,0.737,0.015,1.167,0.046,1.289s0.103,0.223,0.213,0.302
			c0.11,0.08,0.245,0.119,0.404,0.119c0.222,0,0.542-0.076,0.961-0.229l0.205,1.854c-0.557,0.238-1.186,0.357-1.889,0.357
			c-0.432,0-0.82-0.072-1.166-0.217s-0.6-0.332-0.762-0.562c-0.161-0.229-0.273-0.54-0.336-0.932
			c-0.051-0.277-0.076-0.839-0.076-1.685v-3.938h-1.098v-1.906h1.098v-1.795l2.399-1.396v3.19H90.582z"/>
		<path fill="#414042" d="M92.241,17.382V15.17h2.391v2.212H92.241z M92.241,27.642v-9.035h2.391v9.035H92.241z"/>
		<path fill="#414042" d="M99.565,27.642l-3.641-9.035h2.51l1.701,4.611l0.493,1.54c0.131-0.392,0.213-0.649,0.247-0.774
			c0.079-0.255,0.164-0.511,0.255-0.766l1.719-4.611h2.459l-3.591,9.035H99.565z"/>
		<path fill="#414042" d="M106.219,22.996c0-0.794,0.196-1.562,0.587-2.305c0.392-0.743,0.946-1.311,1.664-1.702
			c0.717-0.391,1.519-0.587,2.403-0.587c1.366,0,2.486,0.444,3.36,1.332c0.873,0.888,1.31,2.009,1.31,3.364
			c0,1.367-0.44,2.5-1.322,3.398c-0.883,0.899-1.992,1.349-3.331,1.349c-0.828,0-1.618-0.188-2.369-0.562
			c-0.752-0.374-1.323-0.923-1.715-1.646C106.415,24.915,106.219,24.034,106.219,22.996z M108.669,23.124
			c0,0.896,0.213,1.582,0.639,2.059c0.425,0.477,0.949,0.715,1.573,0.715s1.147-0.238,1.57-0.715
			c0.422-0.477,0.634-1.168,0.634-2.075c0-0.885-0.212-1.565-0.634-2.042c-0.423-0.477-0.946-0.715-1.57-0.715
			s-1.148,0.238-1.573,0.715C108.882,21.542,108.669,22.228,108.669,23.124z"/>
		<path fill="#414042" d="M116.572,25.063l2.399-0.365c0.102,0.465,0.309,0.818,0.621,1.059c0.312,0.241,0.748,0.362,1.31,0.362
			c0.618,0,1.084-0.113,1.396-0.341c0.21-0.158,0.314-0.371,0.314-0.638c0-0.182-0.057-0.332-0.17-0.451
			c-0.119-0.113-0.386-0.218-0.8-0.314c-1.928-0.426-3.15-0.814-3.666-1.166c-0.715-0.487-1.072-1.165-1.072-2.033
			c0-0.782,0.309-1.44,0.927-1.974s1.577-0.8,2.876-0.8c1.236,0,2.155,0.201,2.757,0.604c0.601,0.402,1.015,0.998,1.241,1.786
			l-2.254,0.417c-0.097-0.352-0.279-0.621-0.549-0.809c-0.27-0.187-0.653-0.28-1.152-0.28c-0.63,0-1.081,0.088-1.354,0.264
			c-0.182,0.125-0.271,0.286-0.271,0.485c0,0.17,0.079,0.314,0.238,0.434c0.215,0.158,0.959,0.383,2.232,0.672
			s2.162,0.644,2.667,1.063c0.499,0.426,0.749,1.019,0.749,1.778c0,0.828-0.346,1.54-1.038,2.135
			c-0.691,0.596-1.716,0.894-3.071,0.894c-1.23,0-2.204-0.249-2.922-0.749C117.263,26.598,116.794,25.92,116.572,25.063z"/>
	</g>
</g>
</svg>