<!-- Generator: Adobe Illustrator 17.0.0, SVG Export Plug-In  -->
<svg version="1.1"
	 xmlns="http://www.w3.org/2000/svg" xmlns:xlink="http://www.w3.org/1999/xlink" xmlns:a="http://ns.adobe.com/AdobeSVGViewerExtensions/3.0/"
	 x="0px" y="0px" width="172.313px" height="45.259px" viewBox="0 0 172.313 45.259" enable-background="new 0 0 172.313 45.259"
	 xml:space="preserve">
<defs>
</defs>
<rect x="0" y="2.124" fill="#DB5940" width="172.313" height="43.135"/>
<linearGradient id="SVGID_1_" gradientUnits="userSpaceOnUse" x1="0" y1="21.5679" x2="172.3125" y2="21.5679">
	<stop  offset="0" style="stop-color:#F4F5F5"/>
	<stop  offset="1" style="stop-color:#E7E7E7"/>
</linearGradient>
<rect x="0" y="0" fill="url(#SVGID_1_)" width="172.313" height="43.136"/>
<g>
	<g>
		<path fill="#414042" d="M32.93,23.056l2.441,0.774c-0.375,1.361-0.997,2.372-1.867,3.033c-0.871,0.661-1.976,0.991-3.314,0.991
			c-1.656,0-3.017-0.566-4.083-1.697c-1.066-1.132-1.6-2.679-1.6-4.641c0-2.076,0.536-3.688,1.608-4.837
			c1.071-1.148,2.48-1.723,4.228-1.723c1.525,0,2.765,0.451,3.718,1.353c0.567,0.533,0.992,1.299,1.276,2.297l-2.493,0.596
			c-0.147-0.646-0.455-1.157-0.923-1.531c-0.468-0.374-1.036-0.562-1.705-0.562c-0.925,0-1.675,0.332-2.251,0.995
			c-0.575,0.664-0.863,1.738-0.863,3.225c0,1.577,0.283,2.7,0.851,3.369s1.305,1.004,2.212,1.004c0.669,0,1.245-0.213,1.728-0.639
			C32.373,24.639,32.72,23.97,32.93,23.056z"/>
		<path fill="#414042" d="M39.301,21.363l-2.169-0.392c0.243-0.873,0.663-1.52,1.259-1.939s1.48-0.63,2.654-0.63
			c1.066,0,1.86,0.126,2.382,0.379c0.521,0.252,0.89,0.573,1.102,0.961c0.213,0.389,0.319,1.102,0.319,2.14l-0.025,2.791
			c0,0.794,0.038,1.379,0.115,1.757c0.076,0.377,0.22,0.781,0.429,1.212h-2.364c-0.063-0.159-0.14-0.395-0.23-0.706
			c-0.039-0.142-0.067-0.235-0.085-0.281c-0.408,0.397-0.845,0.695-1.31,0.894c-0.466,0.198-0.962,0.298-1.489,0.298
			c-0.93,0-1.663-0.252-2.199-0.757s-0.804-1.143-0.804-1.914c0-0.511,0.122-0.966,0.366-1.366c0.243-0.399,0.585-0.706,1.024-0.918
			c0.439-0.213,1.073-0.398,1.901-0.558c1.117-0.21,1.892-0.405,2.323-0.587v-0.238c0-0.46-0.114-0.787-0.341-0.982
			c-0.227-0.196-0.655-0.294-1.284-0.294c-0.426,0-0.758,0.084-0.996,0.251C39.642,20.65,39.448,20.943,39.301,21.363z M42.5,23.303
			c-0.307,0.103-0.792,0.225-1.455,0.366c-0.664,0.142-1.098,0.28-1.302,0.417c-0.312,0.221-0.468,0.502-0.468,0.842
			c0,0.335,0.125,0.624,0.374,0.868c0.25,0.243,0.567,0.365,0.953,0.365c0.431,0,0.842-0.142,1.233-0.425
			c0.289-0.216,0.479-0.479,0.57-0.792c0.063-0.204,0.094-0.592,0.094-1.165V23.303z"/>
		<path fill="#414042" d="M49.493,27.642h-2.391v-9.035h2.221v1.285c0.38-0.607,0.722-1.007,1.025-1.2
			c0.303-0.192,0.647-0.289,1.033-0.289c0.545,0,1.069,0.15,1.574,0.451l-0.74,2.084c-0.403-0.261-0.777-0.392-1.123-0.392
			c-0.335,0-0.618,0.093-0.851,0.277c-0.233,0.184-0.416,0.518-0.549,0.999c-0.134,0.482-0.2,1.492-0.2,3.029V27.642z"/>
		<path fill="#414042" d="M55.771,21.363l-2.169-0.392c0.243-0.873,0.663-1.52,1.259-1.939s1.48-0.63,2.654-0.63
			c1.066,0,1.86,0.126,2.382,0.379c0.521,0.252,0.89,0.573,1.102,0.961c0.213,0.389,0.319,1.102,0.319,2.14l-0.025,2.791
			c0,0.794,0.038,1.379,0.115,1.757c0.076,0.377,0.22,0.781,0.429,1.212h-2.364c-0.063-0.159-0.14-0.395-0.23-0.706
			c-0.039-0.142-0.067-0.235-0.085-0.281c-0.408,0.397-0.845,0.695-1.31,0.894c-0.466,0.198-0.962,0.298-1.489,0.298
			c-0.93,0-1.663-0.252-2.199-0.757s-0.804-1.143-0.804-1.914c0-0.511,0.122-0.966,0.366-1.366c0.243-0.399,0.585-0.706,1.024-0.918
			c0.439-0.213,1.073-0.398,1.901-0.558c1.117-0.21,1.892-0.405,2.323-0.587v-0.238c0-0.46-0.114-0.787-0.341-0.982
			c-0.227-0.196-0.655-0.294-1.284-0.294c-0.426,0-0.758,0.084-0.996,0.251C56.112,20.65,55.919,20.943,55.771,21.363z
			 M58.971,23.303c-0.307,0.103-0.792,0.225-1.455,0.366c-0.664,0.142-1.098,0.28-1.302,0.417c-0.312,0.221-0.468,0.502-0.468,0.842
			c0,0.335,0.125,0.624,0.374,0.868c0.25,0.243,0.567,0.365,0.953,0.365c0.431,0,0.842-0.142,1.233-0.425
			c0.289-0.216,0.479-0.479,0.57-0.792c0.063-0.204,0.094-0.592,0.094-1.165V23.303z"/>
		<path fill="#414042" d="M71.554,21.278l-2.357,0.425c-0.079-0.471-0.259-0.825-0.54-1.063c-0.28-0.238-0.645-0.357-1.093-0.357
			c-0.596,0-1.07,0.206-1.425,0.617s-0.532,1.099-0.532,2.063c0,1.071,0.18,1.829,0.54,2.271s0.844,0.663,1.451,0.663
			c0.453,0,0.825-0.129,1.114-0.387s0.493-0.702,0.612-1.332l2.349,0.4c-0.244,1.077-0.712,1.892-1.404,2.441
			s-1.619,0.825-2.782,0.825c-1.321,0-2.375-0.417-3.16-1.251c-0.785-0.833-1.179-1.987-1.179-3.462
			c0-1.492,0.395-2.653,1.183-3.484c0.789-0.83,1.855-1.246,3.199-1.246c1.101,0,1.975,0.237,2.625,0.711
			C70.803,19.587,71.27,20.309,71.554,21.278z"/>
		<path fill="#414042" d="M77.509,18.606v1.906h-1.633v3.641c0,0.737,0.015,1.167,0.046,1.289s0.103,0.223,0.213,0.302
			c0.11,0.08,0.245,0.119,0.404,0.119c0.222,0,0.542-0.076,0.961-0.229l0.205,1.854c-0.557,0.238-1.186,0.357-1.889,0.357
			c-0.432,0-0.82-0.072-1.166-0.217s-0.6-0.332-0.762-0.562c-0.161-0.229-0.273-0.54-0.336-0.932
			c-0.051-0.277-0.076-0.839-0.076-1.685v-3.938h-1.098v-1.906h1.098v-1.795l2.399-1.396v3.19H77.509z"/>
		<path fill="#414042" d="M84.399,24.766l2.383,0.4c-0.307,0.873-0.79,1.538-1.451,1.995c-0.66,0.456-1.487,0.685-2.479,0.685
			c-1.571,0-2.734-0.513-3.488-1.54c-0.596-0.822-0.894-1.86-0.894-3.113c0-1.497,0.392-2.67,1.174-3.518
			c0.783-0.849,1.772-1.272,2.97-1.272c1.344,0,2.404,0.444,3.182,1.332s1.148,2.247,1.114,4.079H80.92
			c0.018,0.709,0.21,1.261,0.579,1.654c0.368,0.395,0.827,0.592,1.378,0.592c0.374,0,0.689-0.103,0.944-0.307
			S84.27,25.22,84.399,24.766z M84.536,22.35c-0.018-0.691-0.196-1.218-0.536-1.578c-0.341-0.359-0.755-0.54-1.242-0.54
			c-0.521,0-0.953,0.19-1.293,0.57c-0.341,0.38-0.508,0.896-0.502,1.548H84.536z"/>
		<path fill="#414042" d="M91.146,27.642h-2.391v-9.035h2.221v1.285c0.38-0.607,0.722-1.007,1.025-1.2
			c0.303-0.192,0.647-0.289,1.033-0.289c0.545,0,1.069,0.15,1.574,0.451l-0.74,2.084c-0.403-0.261-0.777-0.392-1.123-0.392
			c-0.335,0-0.618,0.093-0.851,0.277c-0.233,0.184-0.416,0.518-0.549,0.999c-0.134,0.482-0.2,1.492-0.2,3.029V27.642z"/>
		<path fill="#414042" d="M95.46,17.501l1.174-2.544h2.68l-2.34,2.544H95.46z M95.639,27.642v-9.035h2.391v9.035H95.639z"/>
		<path fill="#414042" d="M99.637,25.063l2.399-0.365c0.102,0.465,0.309,0.818,0.621,1.059c0.312,0.241,0.748,0.362,1.31,0.362
			c0.618,0,1.084-0.113,1.396-0.341c0.21-0.158,0.314-0.371,0.314-0.638c0-0.182-0.057-0.332-0.17-0.451
			c-0.119-0.113-0.386-0.218-0.8-0.314c-1.928-0.426-3.15-0.814-3.666-1.166c-0.715-0.487-1.072-1.165-1.072-2.033
			c0-0.782,0.309-1.44,0.927-1.974s1.577-0.8,2.876-0.8c1.236,0,2.155,0.201,2.757,0.604c0.601,0.402,1.015,0.998,1.241,1.786
			l-2.254,0.417c-0.097-0.352-0.279-0.621-0.549-0.809c-0.27-0.187-0.653-0.28-1.152-0.28c-0.63,0-1.081,0.088-1.354,0.264
			c-0.182,0.125-0.271,0.286-0.271,0.485c0,0.17,0.079,0.314,0.238,0.434c0.215,0.158,0.959,0.383,2.232,0.672
			s2.162,0.644,2.667,1.063c0.499,0.426,0.749,1.019,0.749,1.778c0,0.828-0.346,1.54-1.038,2.135
			c-0.691,0.596-1.716,0.894-3.071,0.894c-1.23,0-2.204-0.249-2.922-0.749C100.327,26.598,99.858,25.92,99.637,25.063z"/>
		<path fill="#414042" d="M114.313,18.606v1.906h-1.633v3.641c0,0.737,0.015,1.167,0.046,1.289s0.103,0.223,0.213,0.302
			c0.11,0.08,0.245,0.119,0.404,0.119c0.222,0,0.542-0.076,0.961-0.229l0.205,1.854c-0.557,0.238-1.186,0.357-1.889,0.357
			c-0.432,0-0.82-0.072-1.166-0.217s-0.6-0.332-0.762-0.562c-0.161-0.229-0.273-0.54-0.336-0.932
			c-0.051-0.277-0.076-0.839-0.076-1.685v-3.938h-1.098v-1.906h1.098v-1.795l2.399-1.396v3.19H114.313z"/>
		<path fill="#414042" d="M115.972,17.382V15.17h2.391v2.212H115.972z M115.972,27.642v-9.035h2.391v9.035H115.972z"/>
		<path fill="#414042" d="M128.69,21.278l-2.357,0.425c-0.079-0.471-0.259-0.825-0.54-1.063c-0.28-0.238-0.645-0.357-1.093-0.357
			c-0.596,0-1.07,0.206-1.425,0.617s-0.532,1.099-0.532,2.063c0,1.071,0.18,1.829,0.54,2.271s0.844,0.663,1.451,0.663
			c0.453,0,0.825-0.129,1.114-0.387s0.493-0.702,0.612-1.332l2.349,0.4c-0.244,1.077-0.712,1.892-1.404,2.441
			s-1.619,0.825-2.782,0.825c-1.321,0-2.375-0.417-3.16-1.251c-0.785-0.833-1.179-1.987-1.179-3.462
			c0-1.492,0.395-2.653,1.183-3.484c0.789-0.83,1.855-1.246,3.199-1.246c1.101,0,1.975,0.237,2.625,0.711
			C127.939,19.587,128.406,20.309,128.69,21.278z"/>
		<path fill="#414042" d="M132.289,21.363l-2.169-0.392c0.243-0.873,0.663-1.52,1.259-1.939s1.48-0.63,2.654-0.63
			c1.066,0,1.86,0.126,2.382,0.379c0.521,0.252,0.89,0.573,1.102,0.961c0.213,0.389,0.319,1.102,0.319,2.14l-0.025,2.791
			c0,0.794,0.038,1.379,0.115,1.757c0.076,0.377,0.22,0.781,0.429,1.212h-2.364c-0.063-0.159-0.14-0.395-0.23-0.706
			c-0.039-0.142-0.067-0.235-0.085-0.281c-0.408,0.397-0.845,0.695-1.31,0.894c-0.466,0.198-0.962,0.298-1.489,0.298
			c-0.93,0-1.663-0.252-2.199-0.757s-0.804-1.143-0.804-1.914c0-0.511,0.122-0.966,0.366-1.366c0.243-0.399,0.585-0.706,1.024-0.918
			c0.439-0.213,1.073-0.398,1.901-0.558c1.117-0.21,1.892-0.405,2.323-0.587v-0.238c0-0.46-0.114-0.787-0.341-0.982
			c-0.227-0.196-0.655-0.294-1.284-0.294c-0.426,0-0.758,0.084-0.996,0.251C132.63,20.65,132.437,20.943,132.289,21.363z
			 M135.488,23.303c-0.307,0.103-0.792,0.225-1.455,0.366c-0.664,0.142-1.098,0.28-1.302,0.417
			c-0.312,0.221-0.468,0.502-0.468,0.842c0,0.335,0.125,0.624,0.374,0.868c0.25,0.243,0.567,0.365,0.953,0.365
			c0.431,0,0.842-0.142,1.233-0.425c0.289-0.216,0.479-0.479,0.57-0.792c0.063-0.204,0.094-0.592,0.094-1.165V23.303z"/>
		<path fill="#414042" d="M139.351,25.063l2.399-0.365c0.102,0.465,0.309,0.818,0.621,1.059c0.312,0.241,0.748,0.362,1.31,0.362
			c0.618,0,1.084-0.113,1.396-0.341c0.21-0.158,0.314-0.371,0.314-0.638c0-0.182-0.057-0.332-0.17-0.451
			c-0.119-0.113-0.386-0.218-0.8-0.314c-1.928-0.426-3.15-0.814-3.666-1.166c-0.715-0.487-1.072-1.165-1.072-2.033
			c0-0.782,0.309-1.44,0.927-1.974s1.577-0.8,2.876-0.8c1.236,0,2.155,0.201,2.757,0.604c0.601,0.402,1.015,0.998,1.241,1.786
			l-2.254,0.417c-0.097-0.352-0.279-0.621-0.549-0.809c-0.27-0.187-0.653-0.28-1.152-0.28c-0.63,0-1.081,0.088-1.354,0.264
			c-0.182,0.125-0.271,0.286-0.271,0.485c0,0.17,0.079,0.314,0.238,0.434c0.215,0.158,0.959,0.383,2.232,0.672
			s2.162,0.644,2.667,1.063c0.499,0.426,0.749,1.019,0.749,1.778c0,0.828-0.346,1.54-1.038,2.135
			c-0.691,0.596-1.716,0.894-3.071,0.894c-1.23,0-2.204-0.249-2.922-0.749C140.041,26.598,139.572,25.92,139.351,25.063z"/>
	</g>
</g>
</svg>