<!-- Generator: Adobe Illustrator 17.0.0, SVG Export Plug-In  -->
<svg version="1.1"
	 xmlns="http://www.w3.org/2000/svg" xmlns:xlink="http://www.w3.org/1999/xlink" xmlns:a="http://ns.adobe.com/AdobeSVGViewerExtensions/3.0/"
	 x="0px" y="0px" width="172.313px" height="45.259px" viewBox="0 0 172.313 45.259" enable-background="new 0 0 172.313 45.259"
	 xml:space="preserve">
<defs>
</defs>
<rect x="0" y="2.125" fill="#DB5940" width="172.313" height="43.134"/>
<linearGradient id="SVGID_1_" gradientUnits="userSpaceOnUse" x1="0" y1="21.5679" x2="172.3125" y2="21.5679">
	<stop  offset="0" style="stop-color:#F4F5F5"/>
	<stop  offset="1" style="stop-color:#E7E7E7"/>
</linearGradient>
<rect x="0" y="0" fill="url(#SVGID_1_)" width="172.313" height="43.136"/>
<g>
	<g>
		<path fill="#414042" d="M54.619,27.642H51.88l-1.089-2.833h-4.985l-1.03,2.833h-2.671l4.857-12.472h2.663L54.619,27.642z
			 M49.982,22.707l-1.719-4.628l-1.685,4.628H49.982z"/>
		<path fill="#414042" d="M55.87,18.606h2.229v1.327c0.29-0.453,0.681-0.822,1.175-1.105c0.493-0.284,1.04-0.426,1.642-0.426
			c1.049,0,1.939,0.411,2.671,1.233c0.732,0.823,1.098,1.969,1.098,3.438c0,1.509-0.368,2.682-1.105,3.518
			c-0.737,0.837-1.631,1.255-2.681,1.255c-0.499,0-0.951-0.1-1.356-0.298s-0.832-0.539-1.28-1.021v4.552H55.87V18.606z
			 M58.235,22.971c0,1.016,0.201,1.766,0.604,2.251c0.403,0.484,0.894,0.727,1.472,0.727c0.557,0,1.019-0.222,1.387-0.667
			c0.369-0.445,0.554-1.176,0.554-2.191c0-0.947-0.19-1.65-0.57-2.109c-0.38-0.46-0.851-0.689-1.412-0.689
			c-0.584,0-1.069,0.226-1.455,0.677C58.428,21.418,58.235,22.086,58.235,22.971z"/>
		<path fill="#414042" d="M66.581,27.642V15.17h2.391v12.472H66.581z"/>
		<path fill="#414042" d="M71.422,17.382V15.17h2.391v2.212H71.422z M71.422,27.642v-9.035h2.391v9.035H71.422z"/>
		<path fill="#414042" d="M84.141,21.278l-2.357,0.425c-0.079-0.471-0.259-0.825-0.54-1.063c-0.28-0.238-0.645-0.357-1.093-0.357
			c-0.596,0-1.07,0.206-1.425,0.617s-0.532,1.099-0.532,2.063c0,1.071,0.18,1.829,0.54,2.271s0.844,0.663,1.451,0.663
			c0.453,0,0.825-0.129,1.114-0.387s0.493-0.702,0.612-1.332l2.349,0.4c-0.244,1.077-0.712,1.892-1.404,2.441
			s-1.619,0.825-2.782,0.825c-1.321,0-2.375-0.417-3.16-1.251c-0.785-0.833-1.179-1.987-1.179-3.462
			c0-1.492,0.395-2.653,1.183-3.484c0.789-0.83,1.855-1.246,3.199-1.246c1.101,0,1.975,0.237,2.625,0.711
			C83.39,19.587,83.856,20.309,84.141,21.278z"/>
		<path fill="#414042" d="M87.739,21.363l-2.169-0.392c0.243-0.873,0.663-1.52,1.259-1.939s1.48-0.63,2.654-0.63
			c1.066,0,1.86,0.126,2.382,0.379c0.521,0.252,0.89,0.573,1.102,0.961c0.213,0.389,0.319,1.102,0.319,2.14l-0.025,2.791
			c0,0.794,0.038,1.379,0.115,1.757c0.076,0.377,0.22,0.781,0.429,1.212H91.44c-0.063-0.159-0.14-0.395-0.23-0.706
			c-0.039-0.142-0.067-0.235-0.085-0.281c-0.408,0.397-0.845,0.695-1.31,0.894c-0.466,0.198-0.962,0.298-1.489,0.298
			c-0.93,0-1.663-0.252-2.199-0.757s-0.804-1.143-0.804-1.914c0-0.511,0.122-0.966,0.366-1.366c0.243-0.399,0.585-0.706,1.024-0.918
			c0.439-0.213,1.073-0.398,1.901-0.558c1.117-0.21,1.892-0.405,2.323-0.587v-0.238c0-0.46-0.114-0.787-0.341-0.982
			c-0.227-0.196-0.655-0.294-1.284-0.294c-0.426,0-0.758,0.084-0.996,0.251C88.08,20.65,87.887,20.943,87.739,21.363z
			 M90.938,23.303c-0.307,0.103-0.792,0.225-1.455,0.366c-0.664,0.142-1.098,0.28-1.302,0.417c-0.312,0.221-0.468,0.502-0.468,0.842
			c0,0.335,0.125,0.624,0.374,0.868c0.25,0.243,0.567,0.365,0.953,0.365c0.431,0,0.842-0.142,1.233-0.425
			c0.289-0.216,0.479-0.479,0.57-0.792c0.063-0.204,0.094-0.592,0.094-1.165V23.303z"/>
		<path fill="#414042" d="M103.521,21.278l-2.357,0.425c-0.079-0.471-0.259-0.825-0.54-1.063c-0.28-0.238-0.645-0.357-1.093-0.357
			c-0.596,0-1.07,0.206-1.425,0.617s-0.532,1.099-0.532,2.063c0,1.071,0.18,1.829,0.54,2.271s0.844,0.663,1.451,0.663
			c0.453,0,0.825-0.129,1.114-0.387s0.493-0.702,0.612-1.332l2.349,0.4c-0.244,1.077-0.712,1.892-1.404,2.441
			s-1.619,0.825-2.782,0.825c-1.321,0-2.375-0.417-3.16-1.251c-0.785-0.833-1.179-1.987-1.179-3.462
			c0-1.492,0.395-2.653,1.183-3.484c0.789-0.83,1.855-1.246,3.199-1.246c1.101,0,1.975,0.237,2.625,0.711
			C102.771,19.587,103.237,20.309,103.521,21.278z"/>
		<path fill="#414042" d="M105.334,17.382V15.17h2.391v2.212H105.334z M105.334,27.642v-9.035h2.391v9.035H105.334z"/>
		<path fill="#414042" d="M109.621,22.996c0-0.794,0.196-1.562,0.587-2.305c0.392-0.743,0.946-1.311,1.664-1.702
			c0.717-0.391,1.519-0.587,2.403-0.587c1.366,0,2.486,0.444,3.36,1.332c0.873,0.888,1.31,2.009,1.31,3.364
			c0,1.367-0.44,2.5-1.322,3.398c-0.883,0.899-1.992,1.349-3.331,1.349c-0.828,0-1.618-0.188-2.369-0.562
			c-0.752-0.374-1.323-0.923-1.715-1.646C109.817,24.915,109.621,24.034,109.621,22.996z M112.071,23.124
			c0,0.896,0.213,1.582,0.639,2.059c0.425,0.477,0.949,0.715,1.573,0.715s1.147-0.238,1.57-0.715
			c0.422-0.477,0.634-1.168,0.634-2.075c0-0.885-0.212-1.565-0.634-2.042c-0.423-0.477-0.946-0.715-1.57-0.715
			s-1.148,0.238-1.573,0.715C112.284,21.542,112.071,22.229,112.071,23.124z M113.075,17.501l1.174-2.544h2.681l-2.34,2.544H113.075
			z"/>
		<path fill="#414042" d="M129.035,27.642h-2.391V23.03c0-0.976-0.051-1.606-0.153-1.893c-0.102-0.286-0.268-0.509-0.497-0.668
			c-0.23-0.158-0.507-0.238-0.83-0.238c-0.414,0-0.785,0.113-1.114,0.341c-0.329,0.227-0.555,0.527-0.677,0.901
			s-0.183,1.066-0.183,2.076v4.092H120.8v-9.035h2.221v1.327c0.788-1.021,1.781-1.531,2.978-1.531c0.527,0,1.01,0.095,1.446,0.285
			s0.767,0.433,0.991,0.728c0.224,0.295,0.38,0.63,0.468,1.004s0.132,0.91,0.132,1.607V27.642z"/>
	</g>
</g>
</svg>