<!-- Generator: Adobe Illustrator 17.0.0, SVG Export Plug-In  -->
<svg version="1.1"
	 xmlns="http://www.w3.org/2000/svg" xmlns:xlink="http://www.w3.org/1999/xlink" xmlns:a="http://ns.adobe.com/AdobeSVGViewerExtensions/3.0/"
	 x="0px" y="0px" width="648.581px" height="258.175px" viewBox="0 0 648.581 258.175" enable-background="new 0 0 648.581 258.175"
	 xml:space="preserve">
<defs>
</defs>
<rect x="1" y="1" fill="#EEEEEE" stroke="#DB5940" stroke-width="2" stroke-miterlimit="10" width="646.581" height="256.175"/>
<g>
	<path fill="#F16529" d="M29.521,32.46h-3.617l-1.438-3.739h-6.58l-1.359,3.739H13l6.413-16.464h3.515L29.521,32.46z M23.399,25.946
		l-2.269-6.109l-2.224,6.109H23.399z"/>
	<path fill="#F16529" d="M31.171,20.533h2.942v1.752c0.382-0.6,0.898-1.086,1.55-1.46s1.374-0.562,2.168-0.562
		c1.385,0,2.561,0.543,3.525,1.629c0.967,1.085,1.449,2.598,1.449,4.537c0,1.991-0.486,3.539-1.46,4.644
		c-0.974,1.104-2.152,1.656-3.538,1.656c-0.658,0-1.256-0.131-1.791-0.394c-0.535-0.262-1.099-0.711-1.689-1.348v6.009h-3.156
		V20.533z M34.293,26.295c0,1.34,0.266,2.33,0.798,2.97c0.531,0.641,1.179,0.96,1.942,0.96c0.733,0,1.344-0.293,1.831-0.881
		c0.486-0.588,0.729-1.552,0.729-2.893c0-1.25-0.251-2.178-0.753-2.785c-0.501-0.605-1.123-0.909-1.863-0.909
		c-0.771,0-1.412,0.298-1.921,0.893C34.548,24.245,34.293,25.127,34.293,26.295z"/>
	<path fill="#F16529" d="M45.31,32.46V15.996h3.156V32.46H45.31z"/>
	<path fill="#F16529" d="M51.7,18.916v-2.92h3.156v2.92H51.7z M51.7,32.46V20.533h3.156V32.46H51.7z"/>
	<path fill="#F16529" d="M68.489,24.06l-3.11,0.562c-0.104-0.621-0.343-1.09-0.713-1.404c-0.371-0.314-0.853-0.471-1.443-0.471
		c-0.786,0-1.413,0.271-1.881,0.813c-0.468,0.543-0.702,1.45-0.702,2.724c0,1.415,0.238,2.414,0.713,2.998
		c0.476,0.584,1.113,0.877,1.915,0.877c0.599,0,1.089-0.171,1.472-0.512c0.381-0.34,0.65-0.926,0.809-1.758l3.1,0.528
		c-0.322,1.423-0.939,2.497-1.854,3.224c-0.914,0.726-2.138,1.089-3.672,1.089c-1.745,0-3.136-0.55-4.173-1.651
		c-1.036-1.1-1.556-2.623-1.556-4.57c0-1.969,0.521-3.502,1.562-4.599s2.448-1.646,4.223-1.646c1.452,0,2.607,0.313,3.465,0.938
		C67.499,21.826,68.115,22.779,68.489,24.06z"/>
	<path fill="#F16529" d="M73.24,24.172l-2.864-0.517c0.322-1.153,0.877-2.007,1.662-2.561c0.787-0.554,1.955-0.831,3.504-0.831
		c1.408,0,2.456,0.166,3.145,0.5c0.689,0.333,1.174,0.756,1.455,1.269s0.421,1.454,0.421,2.825l-0.034,3.684
		c0,1.048,0.051,1.82,0.152,2.318s0.29,1.031,0.566,1.601h-3.121c-0.083-0.21-0.184-0.521-0.304-0.933
		c-0.052-0.187-0.09-0.311-0.112-0.37c-0.539,0.524-1.115,0.917-1.729,1.179c-0.614,0.263-1.269,0.394-1.966,0.394
		c-1.228,0-2.195-0.333-2.902-0.999c-0.707-0.667-1.062-1.51-1.062-2.527c0-0.674,0.161-1.274,0.483-1.803
		c0.321-0.527,0.772-0.932,1.354-1.213c0.58-0.28,1.416-0.525,2.51-0.735c1.475-0.276,2.496-0.535,3.065-0.774v-0.314
		c0-0.607-0.149-1.039-0.449-1.298c-0.3-0.258-0.864-0.388-1.696-0.388c-0.561,0-0.999,0.111-1.313,0.332
		S73.435,23.617,73.24,24.172z M77.463,26.732c-0.404,0.135-1.044,0.296-1.921,0.482c-0.875,0.188-1.448,0.371-1.718,0.551
		c-0.411,0.292-0.618,0.662-0.618,1.111c0,0.442,0.165,0.824,0.494,1.146c0.33,0.321,0.749,0.482,1.258,0.482
		c0.569,0,1.112-0.188,1.629-0.562c0.382-0.284,0.633-0.633,0.752-1.044c0.083-0.27,0.124-0.783,0.124-1.539V26.732z"/>
	<path fill="#F16529" d="M94.073,24.06l-3.111,0.562c-0.105-0.621-0.343-1.09-0.713-1.404c-0.371-0.314-0.852-0.471-1.443-0.471
		c-0.786,0-1.413,0.271-1.881,0.813c-0.469,0.543-0.702,1.45-0.702,2.724c0,1.415,0.237,2.414,0.713,2.998s1.114,0.877,1.915,0.877
		c0.6,0,1.09-0.171,1.471-0.512c0.383-0.34,0.652-0.926,0.809-1.758l3.1,0.528c-0.321,1.423-0.939,2.497-1.853,3.224
		c-0.913,0.726-2.138,1.089-3.673,1.089c-1.744,0-3.135-0.55-4.172-1.651c-1.037-1.1-1.555-2.623-1.555-4.57
		c0-1.969,0.52-3.502,1.561-4.599s2.448-1.646,4.223-1.646c1.453,0,2.607,0.313,3.465,0.938S93.698,22.779,94.073,24.06z"/>
	<path fill="#F16529" d="M96.465,18.916v-2.92h3.155v2.92H96.465z M96.465,32.46V20.533h3.155V32.46H96.465z"/>
	<path fill="#F16529" d="M102.125,26.328c0-1.049,0.259-2.063,0.774-3.043c0.518-0.981,1.249-1.73,2.196-2.246
		c0.946-0.518,2.005-0.775,3.173-0.775c1.804,0,3.283,0.586,4.436,1.758s1.729,2.652,1.729,4.441c0,1.805-0.582,3.3-1.746,4.486
		c-1.165,1.188-2.63,1.78-4.397,1.78c-1.093,0-2.135-0.247-3.127-0.741c-0.992-0.494-1.746-1.219-2.264-2.173
		C102.384,28.86,102.125,27.698,102.125,26.328z M105.359,26.496c0,1.184,0.28,2.09,0.843,2.719
		c0.561,0.629,1.254,0.943,2.077,0.943s1.515-0.314,2.072-0.943s0.837-1.543,0.837-2.74c0-1.168-0.279-2.066-0.837-2.695
		s-1.249-0.943-2.072-0.943s-1.517,0.314-2.077,0.943C105.64,24.408,105.359,25.314,105.359,26.496z M106.685,19.073l1.55-3.358
		h3.538l-3.089,3.358H106.685z"/>
	<path fill="#F16529" d="M127.753,32.46h-3.156v-6.087c0-1.287-0.066-2.121-0.201-2.499s-0.354-0.672-0.658-0.882
		c-0.303-0.209-0.668-0.314-1.094-0.314c-0.547,0-1.037,0.15-1.472,0.449c-0.435,0.3-0.731,0.697-0.894,1.191
		c-0.16,0.494-0.24,1.407-0.24,2.74v5.401h-3.156V20.533h2.932v1.752c1.04-1.348,2.351-2.021,3.93-2.021
		c0.697,0,1.333,0.125,1.91,0.376c0.576,0.251,1.012,0.571,1.309,0.96c0.295,0.39,0.501,0.832,0.617,1.326
		c0.115,0.494,0.174,1.201,0.174,2.122V32.46z"/>
	<path fill="#F16529" d="M148.282,32.46h-2.932v-1.752c-0.486,0.681-1.061,1.188-1.723,1.521c-0.664,0.333-1.332,0.5-2.006,0.5
		c-1.369,0-2.543-0.552-3.52-1.656c-0.979-1.104-1.467-2.646-1.467-4.622c0-2.021,0.477-3.558,1.427-4.609
		c0.95-1.053,2.152-1.578,3.604-1.578c1.333,0,2.486,0.555,3.459,1.662v-5.93h3.156V32.46z M139.859,26.238
		c0,1.273,0.176,2.193,0.528,2.763c0.509,0.823,1.22,1.235,2.133,1.235c0.727,0,1.344-0.309,1.854-0.927
		c0.51-0.617,0.764-1.54,0.764-2.769c0-1.369-0.247-2.355-0.741-2.959c-0.494-0.603-1.127-0.904-1.897-0.904
		c-0.749,0-1.377,0.298-1.881,0.894C140.112,24.166,139.859,25.055,139.859,26.238z"/>
	<path fill="#F16529" d="M158.3,28.664l3.145,0.527c-0.404,1.153-1.043,2.031-1.915,2.634c-0.872,0.603-1.964,0.904-3.273,0.904
		c-2.073,0-3.608-0.678-4.604-2.032c-0.786-1.086-1.18-2.456-1.18-4.111c0-1.977,0.518-3.523,1.551-4.644
		c1.033-1.119,2.34-1.679,3.919-1.679c1.774,0,3.175,0.586,4.2,1.758s1.516,2.967,1.471,5.385h-7.906
		c0.023,0.936,0.277,1.664,0.764,2.185c0.487,0.521,1.094,0.78,1.82,0.78c0.494,0,0.909-0.135,1.246-0.404
		S158.128,29.264,158.3,28.664z M158.48,25.475c-0.022-0.914-0.258-1.607-0.707-2.083s-0.996-0.714-1.641-0.714
		c-0.688,0-1.258,0.252-1.707,0.753s-0.67,1.183-0.662,2.044H158.48z"/>
	<path fill="#F16529" d="M164.185,32.46V15.996h3.156V32.46H164.185z"/>
	<path fill="#F16529" d="M176.987,32.46V15.996h5.334c2.021,0,3.34,0.082,3.953,0.247c0.943,0.247,1.734,0.784,2.37,1.611
		s0.954,1.896,0.954,3.206c0,1.012-0.184,1.861-0.55,2.55s-0.833,1.229-1.397,1.623c-0.566,0.393-1.141,0.653-1.725,0.78
		c-0.793,0.157-1.943,0.236-3.447,0.236h-2.168v6.21H176.987z M180.312,18.781v4.672h1.819c1.31,0,2.187-0.086,2.628-0.258
		c0.441-0.173,0.788-0.442,1.039-0.809c0.25-0.367,0.376-0.794,0.376-1.281c0-0.599-0.176-1.093-0.528-1.482
		c-0.352-0.389-0.797-0.633-1.336-0.729c-0.396-0.075-1.194-0.112-2.393-0.112H180.312z"/>
	<path fill="#F16529" d="M191.485,27.104l3.234-0.314c0.195,1.085,0.59,1.883,1.186,2.392s1.398,0.764,2.408,0.764
		c1.071,0,1.878-0.227,2.42-0.68c0.543-0.452,0.814-0.982,0.814-1.589c0-0.389-0.113-0.721-0.342-0.994s-0.627-0.511-1.196-0.713
		c-0.39-0.135-1.276-0.375-2.661-0.719c-1.782-0.441-3.033-0.984-3.752-1.629c-1.01-0.905-1.516-2.01-1.516-3.313
		c0-0.838,0.238-1.623,0.713-2.353c0.476-0.73,1.16-1.286,2.055-1.668c0.896-0.382,1.976-0.573,3.24-0.573
		c2.066,0,3.623,0.453,4.666,1.359c1.045,0.906,1.594,2.115,1.646,3.627l-3.324,0.146c-0.143-0.846-0.447-1.454-0.916-1.825
		c-0.468-0.37-1.17-0.556-2.105-0.556c-0.966,0-1.723,0.198-2.269,0.596c-0.353,0.254-0.528,0.595-0.528,1.021
		c0,0.389,0.165,0.723,0.494,1c0.42,0.352,1.438,0.719,3.055,1.1c1.617,0.383,2.814,0.777,3.588,1.186
		c0.775,0.408,1.383,0.966,1.82,1.673c0.438,0.708,0.656,1.582,0.656,2.622c0,0.943-0.262,1.827-0.785,2.65
		c-0.524,0.824-1.266,1.436-2.225,1.837c-0.958,0.4-2.152,0.601-3.582,0.601c-2.082,0-3.68-0.48-4.795-1.443
		C192.369,30.347,191.703,28.945,191.485,27.104z"/>
	<path fill="#F16529" d="M207.669,32.46V15.996h5.334c2.021,0,3.34,0.082,3.953,0.247c0.943,0.247,1.734,0.784,2.37,1.611
		s0.954,1.896,0.954,3.206c0,1.012-0.184,1.861-0.55,2.55s-0.833,1.229-1.397,1.623c-0.566,0.393-1.141,0.653-1.725,0.78
		c-0.793,0.157-1.943,0.236-3.447,0.236h-2.168v6.21H207.669z M210.993,18.781v4.672h1.819c1.31,0,2.187-0.086,2.628-0.258
		c0.441-0.173,0.788-0.442,1.039-0.809c0.25-0.367,0.376-0.794,0.376-1.281c0-0.599-0.176-1.093-0.528-1.482
		c-0.352-0.389-0.797-0.633-1.336-0.729c-0.396-0.075-1.194-0.112-2.393-0.112H210.993z"/>
</g>
<g>
	<path d="M17.389,62.497V49.612h4.86c0.855,0,1.509,0.041,1.96,0.123c0.633,0.105,1.163,0.307,1.591,0.602
		c0.428,0.297,0.771,0.711,1.032,1.244s0.392,1.119,0.392,1.758c0,1.096-0.349,2.023-1.046,2.781
		c-0.697,0.76-1.957,1.139-3.779,1.139h-3.305v5.238H17.389z M19.094,55.738h3.331c1.102,0,1.884-0.205,2.347-0.615
		s0.694-0.987,0.694-1.731c0-0.539-0.136-1-0.409-1.385c-0.271-0.383-0.631-0.637-1.076-0.76c-0.287-0.076-0.817-0.114-1.591-0.114
		h-3.296V55.738z"/>
	<path d="M28.814,58.357l1.608-0.141c0.076,0.645,0.253,1.173,0.532,1.587c0.277,0.412,0.71,0.746,1.296,1.002
		c0.586,0.254,1.245,0.382,1.978,0.382c0.65,0,1.225-0.097,1.723-0.29s0.868-0.458,1.111-0.795s0.365-0.705,0.365-1.104
		c0-0.404-0.117-0.757-0.352-1.059s-0.621-0.556-1.16-0.761c-0.346-0.135-1.11-0.344-2.294-0.628s-2.013-0.553-2.487-0.805
		c-0.615-0.322-1.074-0.722-1.375-1.199c-0.303-0.478-0.453-1.013-0.453-1.604c0-0.65,0.185-1.258,0.554-1.823
		s0.908-0.995,1.617-1.288s1.497-0.439,2.364-0.439c0.955,0,1.797,0.153,2.527,0.462c0.729,0.307,1.29,0.76,1.683,1.357
		s0.604,1.274,0.633,2.03l-1.635,0.123c-0.088-0.814-0.386-1.43-0.892-1.846c-0.508-0.416-1.256-0.624-2.246-0.624
		c-1.031,0-1.783,0.189-2.254,0.566c-0.473,0.379-0.708,0.834-0.708,1.367c0,0.463,0.167,0.844,0.501,1.143
		c0.328,0.299,1.185,0.605,2.57,0.918c1.386,0.314,2.337,0.588,2.853,0.822c0.75,0.346,1.304,0.784,1.661,1.314
		s0.536,1.141,0.536,1.832c0,0.686-0.196,1.332-0.589,1.938c-0.393,0.607-0.957,1.079-1.691,1.416
		c-0.736,0.336-1.563,0.505-2.483,0.505c-1.166,0-2.144-0.17-2.931-0.51c-0.789-0.34-1.406-0.851-1.855-1.534
		C29.074,59.991,28.838,59.219,28.814,58.357z"/>
	<path d="M41.4,62.497V49.612h4.86c0.855,0,1.509,0.041,1.96,0.123c0.633,0.105,1.163,0.307,1.591,0.602
		c0.428,0.297,0.771,0.711,1.032,1.244s0.392,1.119,0.392,1.758c0,1.096-0.349,2.023-1.046,2.781
		c-0.697,0.76-1.957,1.139-3.779,1.139h-3.305v5.238H41.4z M43.105,55.738h3.331c1.102,0,1.884-0.205,2.347-0.615
		s0.694-0.987,0.694-1.731c0-0.539-0.136-1-0.409-1.385c-0.271-0.383-0.631-0.637-1.076-0.76c-0.287-0.076-0.817-0.114-1.591-0.114
		h-3.296V55.738z"/>
	<path d="M57.88,66.074V53.163h1.441v1.213c0.34-0.475,0.724-0.83,1.151-1.068c0.428-0.236,0.946-0.355,1.556-0.355
		c0.797,0,1.5,0.205,2.109,0.615s1.069,0.988,1.38,1.736c0.311,0.746,0.466,1.565,0.466,2.456c0,0.955-0.171,1.815-0.515,2.579
		c-0.342,0.766-0.841,1.352-1.494,1.758c-0.653,0.407-1.34,0.611-2.061,0.611c-0.527,0-1.001-0.111-1.42-0.334
		s-0.763-0.504-1.032-0.844v4.544H57.88z M59.313,57.883c0,1.201,0.243,2.089,0.729,2.663s1.075,0.861,1.767,0.861
		c0.703,0,1.305-0.297,1.807-0.893c0.5-0.594,0.751-1.516,0.751-2.764c0-1.189-0.245-2.08-0.733-2.672
		c-0.49-0.592-1.074-0.888-1.754-0.888c-0.674,0-1.27,0.315-1.789,0.944C59.572,55.767,59.313,56.682,59.313,57.883z"/>
	<path d="M74.008,62.497v-1.371c-0.727,1.055-1.714,1.582-2.962,1.582c-0.551,0-1.065-0.105-1.543-0.316s-0.832-0.476-1.063-0.795
		c-0.232-0.319-0.395-0.711-0.488-1.174c-0.064-0.311-0.097-0.803-0.097-1.477v-5.783h1.582v5.177c0,0.826,0.032,1.383,0.097,1.67
		c0.1,0.416,0.311,0.743,0.633,0.979c0.322,0.238,0.721,0.356,1.195,0.356s0.92-0.121,1.336-0.364s0.71-0.574,0.883-0.994
		c0.173-0.418,0.26-1.026,0.26-1.823v-5.001h1.582v9.334H74.008z"/>
	<path d="M84.291,59.491l1.635,0.202c-0.258,0.955-0.735,1.696-1.433,2.224s-1.588,0.791-2.672,0.791
		c-1.365,0-2.448-0.42-3.247-1.262c-0.801-0.84-1.2-2.02-1.2-3.537c0-1.57,0.404-2.789,1.213-3.656s1.857-1.301,3.146-1.301
		c1.248,0,2.268,0.425,3.059,1.274s1.187,2.045,1.187,3.586c0,0.094-0.003,0.234-0.009,0.422h-6.961
		c0.059,1.025,0.349,1.811,0.87,2.355s1.172,0.817,1.951,0.817c0.58,0,1.075-0.152,1.485-0.457S84.051,60.159,84.291,59.491z
		 M79.097,56.934h5.212c-0.07-0.785-0.27-1.374-0.598-1.767c-0.504-0.609-1.157-0.914-1.96-0.914c-0.727,0-1.338,0.243-1.833,0.729
		S79.149,56.119,79.097,56.934z"/>
	<path d="M93.968,62.497v-1.178c-0.592,0.926-1.462,1.389-2.61,1.389c-0.744,0-1.429-0.205-2.052-0.615
		c-0.625-0.41-1.107-0.982-1.451-1.719c-0.342-0.734-0.514-1.58-0.514-2.535c0-0.932,0.155-1.776,0.466-2.535
		s0.776-1.341,1.397-1.745s1.315-0.606,2.083-0.606c0.563,0,1.063,0.119,1.503,0.355c0.439,0.238,0.797,0.547,1.072,0.928v-4.623
		h1.573v12.885H93.968z M88.967,57.839c0,1.195,0.252,2.089,0.756,2.681s1.099,0.888,1.784,0.888c0.691,0,1.279-0.282,1.762-0.848
		c0.484-0.565,0.726-1.429,0.726-2.589c0-1.277-0.246-2.215-0.738-2.813s-1.099-0.896-1.819-0.896c-0.703,0-1.291,0.287-1.762,0.861
		C89.202,55.697,88.967,56.603,88.967,57.839z"/>
	<path d="M104.313,59.491l1.635,0.202c-0.258,0.955-0.735,1.696-1.433,2.224s-1.588,0.791-2.672,0.791
		c-1.365,0-2.448-0.42-3.247-1.262c-0.801-0.84-1.2-2.02-1.2-3.537c0-1.57,0.404-2.789,1.213-3.656s1.857-1.301,3.146-1.301
		c1.248,0,2.268,0.425,3.059,1.274S106,56.272,106,57.813c0,0.094-0.003,0.234-0.009,0.422H99.03
		c0.059,1.025,0.349,1.811,0.87,2.355s1.172,0.817,1.951,0.817c0.58,0,1.075-0.152,1.485-0.457S104.072,60.159,104.313,59.491z
		 M99.118,56.934h5.212c-0.07-0.785-0.27-1.374-0.598-1.767c-0.504-0.609-1.157-0.914-1.96-0.914c-0.727,0-1.338,0.243-1.833,0.729
		S99.171,56.119,99.118,56.934z"/>
	<path d="M112.302,59.711l1.564-0.246c0.088,0.627,0.332,1.107,0.733,1.441s0.963,0.501,1.684,0.501
		c0.727,0,1.266-0.147,1.617-0.443s0.527-0.644,0.527-1.042c0-0.357-0.155-0.639-0.466-0.844c-0.217-0.141-0.756-0.319-1.617-0.536
		c-1.16-0.293-1.964-0.546-2.413-0.76c-0.447-0.214-0.788-0.51-1.02-0.889c-0.231-0.377-0.347-0.795-0.347-1.252
		c0-0.416,0.095-0.801,0.286-1.156c0.189-0.354,0.449-0.648,0.777-0.883c0.246-0.182,0.581-0.335,1.006-0.461
		s0.881-0.189,1.367-0.189c0.732,0,1.375,0.105,1.93,0.316c0.553,0.211,0.962,0.496,1.226,0.857
		c0.264,0.359,0.445,0.842,0.545,1.445l-1.547,0.211c-0.07-0.48-0.274-0.855-0.61-1.125c-0.338-0.27-0.813-0.404-1.429-0.404
		c-0.727,0-1.245,0.12-1.556,0.36s-0.466,0.521-0.466,0.844c0,0.205,0.064,0.39,0.193,0.554c0.129,0.17,0.331,0.311,0.606,0.422
		c0.158,0.059,0.624,0.193,1.397,0.404c1.119,0.299,1.899,0.544,2.343,0.734c0.441,0.19,0.789,0.467,1.041,0.83
		s0.378,0.814,0.378,1.354c0,0.527-0.153,1.023-0.462,1.49c-0.307,0.465-0.751,0.826-1.331,1.08
		c-0.58,0.256-1.236,0.383-1.969,0.383c-1.213,0-2.138-0.252-2.772-0.756C112.883,61.448,112.478,60.701,112.302,59.711z"/>
	<path d="M128.324,59.491l1.635,0.202c-0.258,0.955-0.735,1.696-1.433,2.224c-0.697,0.527-1.588,0.791-2.672,0.791
		c-1.365,0-2.448-0.42-3.247-1.262c-0.801-0.84-1.2-2.02-1.2-3.537c0-1.57,0.404-2.789,1.213-3.656s1.857-1.301,3.146-1.301
		c1.248,0,2.268,0.425,3.059,1.274s1.187,2.045,1.187,3.586c0,0.094-0.003,0.234-0.009,0.422h-6.961
		c0.059,1.025,0.349,1.811,0.87,2.355s1.172,0.817,1.951,0.817c0.58,0,1.075-0.152,1.485-0.457S128.084,60.159,128.324,59.491z
		 M123.13,56.934h5.212c-0.07-0.785-0.27-1.374-0.598-1.767c-0.504-0.609-1.157-0.914-1.96-0.914c-0.727,0-1.338,0.243-1.833,0.729
		S123.183,56.119,123.13,56.934z"/>
	<path d="M131.928,62.497v-9.334h1.424v1.415c0.363-0.662,0.698-1.099,1.007-1.31c0.307-0.211,0.646-0.316,1.015-0.316
		c0.533,0,1.075,0.17,1.626,0.51l-0.545,1.468c-0.387-0.229-0.773-0.343-1.16-0.343c-0.346,0-0.656,0.104-0.932,0.313
		s-0.472,0.496-0.589,0.865c-0.176,0.563-0.264,1.178-0.264,1.846v4.887H131.928z"/>
	<path d="M149.031,61.346c-0.586,0.498-1.15,0.85-1.691,1.055c-0.543,0.205-1.124,0.308-1.745,0.308
		c-1.025,0-1.813-0.25-2.364-0.752c-0.551-0.5-0.826-1.141-0.826-1.92c0-0.457,0.104-0.875,0.313-1.252
		c0.207-0.379,0.479-0.682,0.816-0.91s0.717-0.401,1.139-0.519c0.311-0.082,0.779-0.161,1.406-0.237
		c1.277-0.152,2.218-0.334,2.821-0.545c0.006-0.217,0.009-0.354,0.009-0.413c0-0.645-0.149-1.099-0.448-1.362
		c-0.404-0.357-1.005-0.536-1.802-0.536c-0.744,0-1.294,0.131-1.648,0.392s-0.616,0.722-0.786,1.384l-1.547-0.211
		c0.141-0.662,0.372-1.196,0.694-1.604c0.322-0.406,0.788-0.721,1.397-0.939c0.609-0.221,1.315-0.33,2.118-0.33
		c0.797,0,1.444,0.094,1.942,0.281s0.864,0.424,1.099,0.707c0.234,0.285,0.398,0.644,0.492,1.077
		c0.053,0.27,0.079,0.756,0.079,1.459v2.109c0,1.471,0.033,2.401,0.101,2.79c0.067,0.391,0.201,0.764,0.4,1.121h-1.652
		C149.184,62.169,149.078,61.785,149.031,61.346z M148.899,57.813c-0.574,0.234-1.436,0.434-2.584,0.598
		c-0.65,0.094-1.11,0.199-1.38,0.316s-0.478,0.289-0.624,0.515s-0.22,0.476-0.22,0.751c0,0.422,0.159,0.773,0.479,1.055
		s0.787,0.422,1.402,0.422c0.609,0,1.151-0.133,1.626-0.399s0.823-0.632,1.046-1.095c0.17-0.357,0.255-0.885,0.255-1.582V57.813z"/>
	<path d="M152.951,66.074V53.163h1.441v1.213c0.34-0.475,0.724-0.83,1.151-1.068c0.428-0.236,0.946-0.355,1.556-0.355
		c0.797,0,1.5,0.205,2.109,0.615s1.069,0.988,1.38,1.736c0.311,0.746,0.466,1.565,0.466,2.456c0,0.955-0.171,1.815-0.515,2.579
		c-0.342,0.766-0.841,1.352-1.494,1.758c-0.653,0.407-1.34,0.611-2.061,0.611c-0.527,0-1.001-0.111-1.42-0.334
		s-0.763-0.504-1.032-0.844v4.544H152.951z M154.384,57.883c0,1.201,0.243,2.089,0.729,2.663s1.075,0.861,1.767,0.861
		c0.703,0,1.305-0.297,1.807-0.893c0.5-0.594,0.751-1.516,0.751-2.764c0-1.189-0.245-2.08-0.733-2.672
		c-0.49-0.592-1.074-0.888-1.754-0.888c-0.674,0-1.27,0.315-1.789,0.944C154.644,55.767,154.384,56.682,154.384,57.883z"/>
	<path d="M162.927,62.497V49.612h1.582v12.885H162.927z"/>
	<path d="M166.97,51.432v-1.819h1.582v1.819H166.97z M166.97,62.497v-9.334h1.582v9.334H166.97z"/>
	<path d="M177.051,59.078l1.556,0.202c-0.17,1.072-0.605,1.912-1.306,2.518c-0.7,0.607-1.56,0.91-2.579,0.91
		c-1.277,0-2.305-0.418-3.081-1.252c-0.776-0.836-1.164-2.032-1.164-3.591c0-1.008,0.167-1.89,0.501-2.646s0.842-1.322,1.524-1.701
		c0.683-0.377,1.426-0.566,2.229-0.566c1.014,0,1.843,0.257,2.487,0.77s1.058,1.24,1.239,2.184l-1.538,0.237
		c-0.146-0.627-0.406-1.099-0.778-1.415s-0.821-0.475-1.349-0.475c-0.797,0-1.444,0.285-1.942,0.857
		c-0.498,0.57-0.747,1.475-0.747,2.711c0,1.254,0.24,2.165,0.721,2.733s1.107,0.853,1.881,0.853c0.621,0,1.14-0.19,1.556-0.571
		S176.939,59.869,177.051,59.078z"/>
	<path d="M186.051,61.346c-0.586,0.498-1.15,0.85-1.691,1.055c-0.543,0.205-1.124,0.308-1.745,0.308
		c-1.025,0-1.813-0.25-2.364-0.752c-0.551-0.5-0.826-1.141-0.826-1.92c0-0.457,0.104-0.875,0.313-1.252
		c0.207-0.379,0.479-0.682,0.816-0.91s0.717-0.401,1.139-0.519c0.311-0.082,0.779-0.161,1.406-0.237
		c1.277-0.152,2.218-0.334,2.821-0.545c0.006-0.217,0.009-0.354,0.009-0.413c0-0.645-0.149-1.099-0.448-1.362
		c-0.404-0.357-1.005-0.536-1.802-0.536c-0.744,0-1.294,0.131-1.648,0.392s-0.616,0.722-0.786,1.384l-1.547-0.211
		c0.141-0.662,0.372-1.196,0.694-1.604c0.322-0.406,0.788-0.721,1.397-0.939c0.609-0.221,1.315-0.33,2.118-0.33
		c0.797,0,1.444,0.094,1.942,0.281s0.864,0.424,1.099,0.707c0.234,0.285,0.398,0.644,0.492,1.077
		c0.053,0.27,0.079,0.756,0.079,1.459v2.109c0,1.471,0.033,2.401,0.101,2.79c0.067,0.391,0.201,0.764,0.4,1.121h-1.652
		C186.203,62.169,186.098,61.785,186.051,61.346z M185.919,57.813c-0.574,0.234-1.436,0.434-2.584,0.598
		c-0.65,0.094-1.11,0.199-1.38,0.316s-0.478,0.289-0.624,0.515s-0.22,0.476-0.22,0.751c0,0.422,0.159,0.773,0.479,1.055
		s0.787,0.422,1.402,0.422c0.609,0,1.151-0.133,1.626-0.399s0.823-0.632,1.046-1.095c0.17-0.357,0.255-0.885,0.255-1.582V57.813z"/>
	<path d="M196.026,62.497v-1.178c-0.592,0.926-1.462,1.389-2.61,1.389c-0.744,0-1.429-0.205-2.052-0.615
		c-0.625-0.41-1.107-0.982-1.451-1.719c-0.342-0.734-0.514-1.58-0.514-2.535c0-0.932,0.155-1.776,0.466-2.535
		s0.776-1.341,1.397-1.745s1.315-0.606,2.083-0.606c0.563,0,1.063,0.119,1.503,0.355c0.439,0.238,0.797,0.547,1.072,0.928v-4.623
		h1.573v12.885H196.026z M191.025,57.839c0,1.195,0.252,2.089,0.756,2.681s1.099,0.888,1.784,0.888c0.691,0,1.279-0.282,1.762-0.848
		c0.484-0.565,0.726-1.429,0.726-2.589c0-1.277-0.246-2.215-0.738-2.813s-1.099-0.896-1.819-0.896c-0.703,0-1.291,0.287-1.762,0.861
		C191.261,55.697,191.025,56.603,191.025,57.839z"/>
	<path d="M199.393,57.83c0-1.729,0.48-3.009,1.441-3.841c0.803-0.691,1.781-1.037,2.936-1.037c1.283,0,2.332,0.421,3.146,1.262
		s1.222,2.002,1.222,3.484c0,1.201-0.181,2.146-0.54,2.834c-0.361,0.689-0.886,1.224-1.574,1.604s-1.439,0.571-2.254,0.571
		c-1.307,0-2.363-0.419-3.168-1.257C199.795,60.613,199.393,59.406,199.393,57.83z M201.019,57.83c0,1.195,0.261,2.091,0.782,2.685
		c0.521,0.596,1.178,0.893,1.969,0.893c0.785,0,1.438-0.299,1.96-0.896s0.782-1.509,0.782-2.733c0-1.154-0.263-2.028-0.787-2.624
		c-0.524-0.594-1.176-0.892-1.955-0.892c-0.791,0-1.447,0.296-1.969,0.888S201.019,56.635,201.019,57.83z"/>
	<path d="M221.383,59.491l1.635,0.202c-0.258,0.955-0.735,1.696-1.433,2.224s-1.588,0.791-2.672,0.791
		c-1.365,0-2.448-0.42-3.247-1.262c-0.801-0.84-1.2-2.02-1.2-3.537c0-1.57,0.404-2.789,1.213-3.656s1.857-1.301,3.146-1.301
		c1.248,0,2.268,0.425,3.059,1.274s1.187,2.045,1.187,3.586c0,0.094-0.003,0.234-0.009,0.422h-6.961
		c0.059,1.025,0.349,1.811,0.87,2.355s1.172,0.817,1.951,0.817c0.58,0,1.075-0.152,1.485-0.457S221.143,60.159,221.383,59.491z
		 M216.189,56.934h5.212c-0.07-0.785-0.27-1.374-0.598-1.767c-0.504-0.609-1.157-0.914-1.96-0.914c-0.727,0-1.338,0.243-1.833,0.729
		S216.241,56.119,216.189,56.934z"/>
	<path d="M225.004,62.497v-9.334h1.424v1.327c0.686-1.025,1.676-1.538,2.971-1.538c0.563,0,1.079,0.102,1.552,0.303
		c0.471,0.203,0.824,0.468,1.059,0.796s0.398,0.718,0.492,1.169c0.059,0.293,0.088,0.806,0.088,1.538v5.739h-1.582v-5.678
		c0-0.645-0.062-1.126-0.185-1.445s-0.342-0.574-0.655-0.766c-0.313-0.189-0.681-0.285-1.103-0.285
		c-0.674,0-1.256,0.214-1.745,0.642s-0.733,1.239-0.733,2.435v5.098H225.004z"/>
	<path d="M235.454,54.965v-1.802h1.802v1.802H235.454z M235.454,62.497v-1.802h1.802v1.802H235.454z"/>
	<path d="M47.389,98.497V85.612h4.438c1.002,0,1.767,0.062,2.294,0.185c0.738,0.17,1.368,0.478,1.89,0.923
		c0.68,0.574,1.188,1.309,1.524,2.201c0.337,0.895,0.506,1.915,0.506,3.063c0,0.979-0.114,1.846-0.343,2.602
		s-0.521,1.382-0.879,1.876c-0.357,0.496-0.749,0.886-1.173,1.17c-0.426,0.284-0.938,0.499-1.539,0.646s-1.29,0.22-2.069,0.22
		H47.389z M49.094,96.977h2.751c0.85,0,1.517-0.079,1.999-0.237c0.484-0.158,0.869-0.381,1.156-0.668
		c0.404-0.404,0.719-0.947,0.945-1.631c0.225-0.682,0.338-1.51,0.338-2.482c0-1.348-0.222-2.383-0.664-3.107
		c-0.442-0.723-0.979-1.208-1.612-1.454c-0.457-0.176-1.192-0.264-2.206-0.264h-2.707V96.977z"/>
	<path d="M66.575,95.491l1.635,0.202c-0.258,0.955-0.735,1.696-1.433,2.224s-1.588,0.791-2.672,0.791
		c-1.365,0-2.448-0.42-3.247-1.262c-0.801-0.84-1.2-2.02-1.2-3.537c0-1.57,0.404-2.789,1.213-3.656s1.857-1.301,3.146-1.301
		c1.248,0,2.268,0.425,3.059,1.274s1.187,2.045,1.187,3.586c0,0.094-0.003,0.234-0.009,0.422h-6.961
		c0.059,1.025,0.349,1.811,0.87,2.355s1.172,0.817,1.951,0.817c0.58,0,1.075-0.152,1.485-0.457S66.335,96.159,66.575,95.491z
		 M61.381,92.934h5.212c-0.07-0.785-0.27-1.374-0.598-1.767c-0.504-0.609-1.157-0.914-1.96-0.914c-0.727,0-1.338,0.243-1.833,0.729
		S61.434,92.119,61.381,92.934z"/>
	<path d="M69.563,95.711l1.564-0.246c0.088,0.627,0.332,1.107,0.733,1.441s0.963,0.501,1.684,0.501c0.727,0,1.266-0.147,1.617-0.443
		s0.527-0.644,0.527-1.042c0-0.357-0.155-0.639-0.466-0.844c-0.217-0.141-0.756-0.319-1.617-0.536
		c-1.16-0.293-1.964-0.546-2.413-0.76c-0.447-0.214-0.788-0.51-1.02-0.889c-0.231-0.377-0.347-0.795-0.347-1.252
		c0-0.416,0.095-0.801,0.286-1.156c0.189-0.354,0.449-0.648,0.777-0.883c0.246-0.182,0.581-0.335,1.006-0.461
		s0.881-0.189,1.367-0.189c0.732,0,1.375,0.105,1.93,0.316c0.553,0.211,0.962,0.496,1.226,0.857
		c0.264,0.359,0.445,0.842,0.545,1.445l-1.547,0.211c-0.07-0.48-0.274-0.855-0.61-1.125c-0.338-0.27-0.813-0.404-1.429-0.404
		c-0.727,0-1.245,0.12-1.556,0.36s-0.466,0.521-0.466,0.844c0,0.205,0.064,0.39,0.193,0.554c0.129,0.17,0.331,0.311,0.606,0.422
		c0.158,0.059,0.624,0.193,1.397,0.404c1.119,0.299,1.899,0.544,2.343,0.734c0.441,0.19,0.789,0.467,1.041,0.83
		s0.378,0.814,0.378,1.354c0,0.527-0.153,1.023-0.462,1.49c-0.307,0.465-0.751,0.826-1.331,1.08
		c-0.58,0.256-1.236,0.383-1.969,0.383c-1.213,0-2.138-0.252-2.772-0.756C70.145,97.448,69.739,96.701,69.563,95.711z"/>
	<path d="M85.287,97.346c-0.586,0.498-1.15,0.85-1.691,1.055c-0.543,0.205-1.124,0.308-1.745,0.308c-1.025,0-1.813-0.25-2.364-0.752
		c-0.551-0.5-0.826-1.141-0.826-1.92c0-0.457,0.104-0.875,0.313-1.252c0.207-0.379,0.479-0.682,0.816-0.91s0.717-0.401,1.139-0.519
		c0.311-0.082,0.779-0.161,1.406-0.237c1.277-0.152,2.218-0.334,2.821-0.545c0.006-0.217,0.009-0.354,0.009-0.413
		c0-0.645-0.149-1.099-0.448-1.362c-0.404-0.357-1.005-0.536-1.802-0.536c-0.744,0-1.294,0.131-1.648,0.392
		s-0.616,0.722-0.786,1.384l-1.547-0.211c0.141-0.662,0.372-1.196,0.694-1.604c0.322-0.406,0.788-0.721,1.397-0.939
		c0.609-0.221,1.315-0.33,2.118-0.33c0.797,0,1.444,0.094,1.942,0.281s0.864,0.424,1.099,0.707c0.234,0.285,0.398,0.644,0.492,1.077
		c0.053,0.27,0.079,0.756,0.079,1.459v2.109c0,1.471,0.033,2.401,0.101,2.79c0.067,0.391,0.201,0.764,0.4,1.121h-1.652
		C85.439,98.169,85.334,97.785,85.287,97.346z M85.155,93.813c-0.574,0.234-1.436,0.434-2.584,0.598
		c-0.65,0.094-1.11,0.199-1.38,0.316s-0.478,0.289-0.624,0.515s-0.22,0.476-0.22,0.751c0,0.422,0.159,0.773,0.479,1.055
		s0.787,0.422,1.402,0.422c0.609,0,1.151-0.133,1.626-0.399s0.823-0.632,1.046-1.095c0.17-0.357,0.255-0.885,0.255-1.582V93.813z"/>
	<path d="M89.189,98.497v-9.334h1.424v1.415c0.363-0.662,0.698-1.099,1.007-1.31c0.307-0.211,0.646-0.316,1.015-0.316
		c0.533,0,1.075,0.17,1.626,0.51l-0.545,1.468c-0.387-0.229-0.773-0.343-1.16-0.343c-0.346,0-0.656,0.104-0.932,0.313
		s-0.472,0.496-0.589,0.865c-0.176,0.563-0.264,1.178-0.264,1.846v4.887H89.189z"/>
	<path d="M95.184,98.497v-9.334h1.424v1.415c0.363-0.662,0.698-1.099,1.007-1.31c0.307-0.211,0.646-0.316,1.015-0.316
		c0.533,0,1.075,0.17,1.626,0.51L99.71,90.93c-0.387-0.229-0.773-0.343-1.16-0.343c-0.346,0-0.656,0.104-0.932,0.313
		s-0.472,0.496-0.589,0.865c-0.176,0.563-0.264,1.178-0.264,1.846v4.887H95.184z"/>
	<path d="M100.606,93.83c0-1.729,0.48-3.009,1.441-3.841c0.803-0.691,1.781-1.037,2.936-1.037c1.283,0,2.332,0.421,3.146,1.262
		s1.222,2.002,1.222,3.484c0,1.201-0.181,2.146-0.54,2.834c-0.361,0.689-0.886,1.224-1.574,1.604s-1.439,0.571-2.254,0.571
		c-1.307,0-2.363-0.419-3.168-1.257C101.009,96.613,100.606,95.406,100.606,93.83z M102.232,93.83c0,1.195,0.261,2.091,0.782,2.685
		c0.521,0.596,1.178,0.893,1.969,0.893c0.785,0,1.438-0.299,1.96-0.896s0.782-1.509,0.782-2.733c0-1.154-0.263-2.028-0.787-2.624
		c-0.524-0.594-1.176-0.892-1.955-0.892c-0.791,0-1.447,0.296-1.969,0.888S102.232,92.635,102.232,93.83z"/>
	<path d="M111.171,98.497V85.612h1.582v12.885H111.171z"/>
	<path d="M115.17,98.497V85.612h1.582v12.885H115.17z"/>
	<path d="M118.615,93.83c0-1.729,0.48-3.009,1.441-3.841c0.803-0.691,1.781-1.037,2.936-1.037c1.283,0,2.332,0.421,3.146,1.262
		s1.222,2.002,1.222,3.484c0,1.201-0.181,2.146-0.54,2.834c-0.361,0.689-0.886,1.224-1.574,1.604s-1.439,0.571-2.254,0.571
		c-1.307,0-2.363-0.419-3.168-1.257C119.018,96.613,118.615,95.406,118.615,93.83z M120.241,93.83c0,1.195,0.261,2.091,0.782,2.685
		c0.521,0.596,1.178,0.893,1.969,0.893c0.785,0,1.438-0.299,1.96-0.896s0.782-1.509,0.782-2.733c0-1.154-0.263-2.028-0.787-2.624
		c-0.524-0.594-1.176-0.892-1.955-0.892c-0.791,0-1.447,0.296-1.969,0.888S120.241,92.635,120.241,93.83z"/>
	<path d="M140.272,98.497v-1.178c-0.592,0.926-1.462,1.389-2.61,1.389c-0.744,0-1.429-0.205-2.052-0.615
		c-0.625-0.41-1.107-0.982-1.451-1.719c-0.342-0.734-0.514-1.58-0.514-2.535c0-0.932,0.155-1.776,0.466-2.535
		s0.776-1.341,1.397-1.745s1.315-0.606,2.083-0.606c0.563,0,1.063,0.119,1.503,0.355c0.439,0.238,0.797,0.547,1.072,0.928v-4.623
		h1.573v12.885H140.272z M135.271,93.839c0,1.195,0.252,2.089,0.756,2.681s1.099,0.888,1.784,0.888c0.691,0,1.279-0.282,1.762-0.848
		c0.484-0.565,0.726-1.429,0.726-2.589c0-1.277-0.246-2.215-0.738-2.813s-1.099-0.896-1.819-0.896c-0.703,0-1.291,0.287-1.762,0.861
		C135.506,91.697,135.271,92.603,135.271,93.839z"/>
	<path d="M150.616,95.491l1.635,0.202c-0.258,0.955-0.735,1.696-1.433,2.224s-1.588,0.791-2.672,0.791
		c-1.365,0-2.448-0.42-3.247-1.262c-0.801-0.84-1.2-2.02-1.2-3.537c0-1.57,0.404-2.789,1.213-3.656s1.857-1.301,3.146-1.301
		c1.248,0,2.268,0.425,3.059,1.274s1.187,2.045,1.187,3.586c0,0.094-0.003,0.234-0.009,0.422h-6.961
		c0.059,1.025,0.349,1.811,0.87,2.355s1.172,0.817,1.951,0.817c0.58,0,1.075-0.152,1.485-0.457S150.376,96.159,150.616,95.491z
		 M145.422,92.934h5.212c-0.07-0.785-0.27-1.374-0.598-1.767c-0.504-0.609-1.157-0.914-1.96-0.914c-0.727,0-1.338,0.243-1.833,0.729
		S145.475,92.119,145.422,92.934z"/>
	<path d="M159.238,102.074V89.163h1.441v1.213c0.34-0.475,0.724-0.83,1.151-1.068c0.428-0.236,0.946-0.355,1.556-0.355
		c0.797,0,1.5,0.205,2.109,0.615s1.069,0.988,1.38,1.736c0.311,0.746,0.466,1.565,0.466,2.456c0,0.955-0.171,1.815-0.515,2.579
		c-0.342,0.766-0.841,1.352-1.494,1.758c-0.653,0.407-1.34,0.611-2.061,0.611c-0.527,0-1.001-0.111-1.42-0.334
		s-0.763-0.504-1.032-0.844v4.544H159.238z M160.671,93.883c0,1.201,0.243,2.089,0.729,2.663s1.075,0.861,1.767,0.861
		c0.703,0,1.305-0.297,1.807-0.893c0.5-0.594,0.751-1.516,0.751-2.764c0-1.189-0.245-2.08-0.733-2.672
		c-0.49-0.592-1.074-0.888-1.754-0.888c-0.674,0-1.27,0.315-1.789,0.944C160.931,91.767,160.671,92.682,160.671,93.883z"/>
	<path d="M169.231,98.497v-9.334h1.424v1.415c0.363-0.662,0.698-1.099,1.007-1.31c0.307-0.211,0.646-0.316,1.015-0.316
		c0.533,0,1.075,0.17,1.626,0.51l-0.545,1.468c-0.387-0.229-0.773-0.343-1.16-0.343c-0.346,0-0.656,0.104-0.932,0.313
		s-0.472,0.496-0.589,0.865c-0.176,0.563-0.264,1.178-0.264,1.846v4.887H169.231z"/>
	<path d="M174.654,93.83c0-1.729,0.48-3.009,1.441-3.841c0.803-0.691,1.781-1.037,2.936-1.037c1.283,0,2.332,0.421,3.146,1.262
		s1.222,2.002,1.222,3.484c0,1.201-0.181,2.146-0.54,2.834c-0.361,0.689-0.886,1.224-1.574,1.604s-1.439,0.571-2.254,0.571
		c-1.307,0-2.363-0.419-3.168-1.257C175.057,96.613,174.654,95.406,174.654,93.83z M176.28,93.83c0,1.195,0.261,2.091,0.782,2.685
		c0.521,0.596,1.178,0.893,1.969,0.893c0.785,0,1.438-0.299,1.96-0.896s0.782-1.509,0.782-2.733c0-1.154-0.263-2.028-0.787-2.624
		c-0.524-0.594-1.176-0.892-1.955-0.892c-0.791,0-1.447,0.296-1.969,0.888S176.28,92.635,176.28,93.83z"/>
	<path d="M184.964,99.271l1.538,0.229c0.064,0.475,0.243,0.82,0.536,1.037c0.393,0.293,0.929,0.439,1.608,0.439
		c0.732,0,1.298-0.146,1.696-0.439s0.668-0.703,0.809-1.23c0.082-0.322,0.12-0.999,0.114-2.03c-0.691,0.814-1.553,1.222-2.584,1.222
		c-1.283,0-2.276-0.463-2.979-1.389s-1.055-2.036-1.055-3.331c0-0.891,0.161-1.712,0.483-2.466c0.322-0.752,0.789-1.334,1.401-1.744
		s1.332-0.615,2.158-0.615c1.102,0,2.01,0.445,2.725,1.336v-1.125h1.459v8.068c0,1.453-0.148,2.482-0.443,3.09
		c-0.297,0.605-0.766,1.085-1.406,1.437c-0.643,0.352-1.432,0.527-2.369,0.527c-1.113,0-2.013-0.251-2.698-0.751
		C185.272,101.032,184.94,100.278,184.964,99.271z M186.273,93.663c0,1.225,0.243,2.118,0.729,2.681s1.096,0.844,1.828,0.844
		c0.727,0,1.336-0.279,1.828-0.839s0.738-1.438,0.738-2.633c0-1.143-0.254-2.004-0.76-2.584c-0.508-0.58-1.118-0.87-1.833-0.87
		c-0.703,0-1.301,0.286-1.793,0.856C186.52,91.69,186.273,92.538,186.273,93.663z"/>
	<path d="M195.247,98.497v-9.334h1.424v1.415c0.363-0.662,0.698-1.099,1.007-1.31c0.307-0.211,0.646-0.316,1.015-0.316
		c0.533,0,1.075,0.17,1.626,0.51l-0.545,1.468c-0.387-0.229-0.773-0.343-1.16-0.343c-0.346,0-0.656,0.104-0.932,0.313
		s-0.472,0.496-0.589,0.865c-0.176,0.563-0.264,1.178-0.264,1.846v4.887H195.247z"/>
	<path d="M207.35,97.346c-0.586,0.498-1.15,0.85-1.691,1.055c-0.543,0.205-1.124,0.308-1.745,0.308c-1.025,0-1.813-0.25-2.364-0.752
		c-0.551-0.5-0.826-1.141-0.826-1.92c0-0.457,0.104-0.875,0.313-1.252c0.207-0.379,0.479-0.682,0.816-0.91s0.717-0.401,1.139-0.519
		c0.311-0.082,0.779-0.161,1.406-0.237c1.277-0.152,2.218-0.334,2.821-0.545c0.006-0.217,0.009-0.354,0.009-0.413
		c0-0.645-0.149-1.099-0.448-1.362c-0.404-0.357-1.005-0.536-1.802-0.536c-0.744,0-1.294,0.131-1.648,0.392
		s-0.616,0.722-0.786,1.384l-1.547-0.211c0.141-0.662,0.372-1.196,0.694-1.604c0.322-0.406,0.788-0.721,1.397-0.939
		c0.609-0.221,1.315-0.33,2.118-0.33c0.797,0,1.444,0.094,1.942,0.281s0.864,0.424,1.099,0.707c0.234,0.285,0.398,0.644,0.492,1.077
		c0.053,0.27,0.079,0.756,0.079,1.459v2.109c0,1.471,0.033,2.401,0.101,2.79c0.067,0.391,0.201,0.764,0.4,1.121h-1.652
		C207.502,98.169,207.397,97.785,207.35,97.346z M207.218,93.813c-0.574,0.234-1.436,0.434-2.584,0.598
		c-0.65,0.094-1.11,0.199-1.38,0.316s-0.478,0.289-0.624,0.515s-0.22,0.476-0.22,0.751c0,0.422,0.159,0.773,0.479,1.055
		s0.787,0.422,1.402,0.422c0.609,0,1.151-0.133,1.626-0.399s0.823-0.632,1.046-1.095c0.17-0.357,0.255-0.885,0.255-1.582V93.813z"/>
	<path d="M211.27,98.497v-9.334h1.415v1.31c0.293-0.457,0.683-0.824,1.169-1.103s1.04-0.418,1.661-0.418
		c0.691,0,1.258,0.144,1.701,0.431c0.441,0.287,0.754,0.688,0.936,1.204c0.738-1.09,1.699-1.635,2.883-1.635
		c0.926,0,1.638,0.257,2.136,0.77s0.747,1.302,0.747,2.368v6.407h-1.573v-5.88c0-0.633-0.052-1.088-0.153-1.366
		c-0.104-0.278-0.289-0.503-0.559-0.673s-0.586-0.255-0.949-0.255c-0.656,0-1.201,0.219-1.635,0.654
		c-0.434,0.438-0.65,1.136-0.65,2.097v5.423h-1.582v-6.064c0-0.703-0.129-1.23-0.387-1.582s-0.68-0.527-1.266-0.527
		c-0.445,0-0.857,0.117-1.234,0.352c-0.379,0.234-0.652,0.577-0.822,1.028s-0.255,1.102-0.255,1.951v4.843H211.27z"/>
	<path d="M232.355,97.346c-0.586,0.498-1.15,0.85-1.691,1.055c-0.543,0.205-1.124,0.308-1.745,0.308
		c-1.025,0-1.813-0.25-2.364-0.752c-0.551-0.5-0.826-1.141-0.826-1.92c0-0.457,0.104-0.875,0.313-1.252
		c0.207-0.379,0.479-0.682,0.816-0.91s0.717-0.401,1.139-0.519c0.311-0.082,0.779-0.161,1.406-0.237
		c1.277-0.152,2.218-0.334,2.821-0.545c0.006-0.217,0.009-0.354,0.009-0.413c0-0.645-0.149-1.099-0.448-1.362
		c-0.404-0.357-1.005-0.536-1.802-0.536c-0.744,0-1.294,0.131-1.648,0.392s-0.616,0.722-0.786,1.384L226,91.826
		c0.141-0.662,0.372-1.196,0.694-1.604c0.322-0.406,0.788-0.721,1.397-0.939c0.609-0.221,1.315-0.33,2.118-0.33
		c0.797,0,1.444,0.094,1.942,0.281s0.864,0.424,1.099,0.707c0.234,0.285,0.398,0.644,0.492,1.077
		c0.053,0.27,0.079,0.756,0.079,1.459v2.109c0,1.471,0.033,2.401,0.101,2.79c0.067,0.391,0.201,0.764,0.4,1.121h-1.652
		C232.507,98.169,232.401,97.785,232.355,97.346z M232.223,93.813c-0.574,0.234-1.436,0.434-2.584,0.598
		c-0.65,0.094-1.11,0.199-1.38,0.316s-0.478,0.289-0.624,0.515s-0.22,0.476-0.22,0.751c0,0.422,0.159,0.773,0.479,1.055
		s0.787,0.422,1.402,0.422c0.609,0,1.151-0.133,1.626-0.399s0.823-0.632,1.046-1.095c0.17-0.357,0.255-0.885,0.255-1.582V93.813z"/>
	<path d="M235.642,95.711l1.564-0.246c0.088,0.627,0.332,1.107,0.733,1.441s0.963,0.501,1.684,0.501
		c0.727,0,1.266-0.147,1.617-0.443s0.527-0.644,0.527-1.042c0-0.357-0.155-0.639-0.466-0.844c-0.217-0.141-0.756-0.319-1.617-0.536
		c-1.16-0.293-1.964-0.546-2.413-0.76c-0.447-0.214-0.788-0.51-1.02-0.889c-0.231-0.377-0.347-0.795-0.347-1.252
		c0-0.416,0.095-0.801,0.286-1.156c0.189-0.354,0.449-0.648,0.777-0.883c0.246-0.182,0.581-0.335,1.006-0.461
		s0.881-0.189,1.367-0.189c0.732,0,1.375,0.105,1.93,0.316c0.553,0.211,0.962,0.496,1.226,0.857
		c0.264,0.359,0.445,0.842,0.545,1.445l-1.547,0.211c-0.07-0.48-0.274-0.855-0.61-1.125c-0.338-0.27-0.813-0.404-1.429-0.404
		c-0.727,0-1.245,0.12-1.556,0.36s-0.466,0.521-0.466,0.844c0,0.205,0.064,0.39,0.193,0.554c0.129,0.17,0.331,0.311,0.606,0.422
		c0.158,0.059,0.624,0.193,1.397,0.404c1.119,0.299,1.899,0.544,2.343,0.734c0.441,0.19,0.789,0.467,1.041,0.83
		s0.378,0.814,0.378,1.354c0,0.527-0.153,1.023-0.462,1.49c-0.307,0.465-0.751,0.826-1.331,1.08
		c-0.58,0.256-1.236,0.383-1.969,0.383c-1.213,0-2.138-0.252-2.772-0.756C236.223,97.448,235.817,96.701,235.642,95.711z"/>
	<path d="M245.723,98.497v-1.802h1.802v1.802H245.723z"/>
	<path d="M47.389,134.497v-12.885h4.438c1.002,0,1.767,0.062,2.294,0.185c0.738,0.17,1.368,0.478,1.89,0.923
		c0.68,0.574,1.188,1.309,1.524,2.201c0.337,0.895,0.506,1.915,0.506,3.063c0,0.979-0.114,1.846-0.343,2.602
		s-0.521,1.382-0.879,1.876c-0.357,0.496-0.749,0.886-1.173,1.17c-0.426,0.284-0.938,0.499-1.539,0.646s-1.29,0.22-2.069,0.22
		H47.389z M49.094,132.977h2.751c0.85,0,1.517-0.079,1.999-0.237c0.484-0.158,0.869-0.381,1.156-0.668
		c0.404-0.404,0.719-0.947,0.945-1.631c0.225-0.682,0.338-1.51,0.338-2.482c0-1.348-0.222-2.383-0.664-3.107
		c-0.442-0.723-0.979-1.208-1.612-1.454c-0.457-0.176-1.192-0.264-2.206-0.264h-2.707V132.977z"/>
	<path d="M66.575,131.491l1.635,0.202c-0.258,0.955-0.735,1.696-1.433,2.224s-1.588,0.791-2.672,0.791
		c-1.365,0-2.448-0.42-3.247-1.262c-0.801-0.84-1.2-2.02-1.2-3.537c0-1.57,0.404-2.789,1.213-3.656s1.857-1.301,3.146-1.301
		c1.248,0,2.268,0.425,3.059,1.274s1.187,2.045,1.187,3.586c0,0.094-0.003,0.234-0.009,0.422h-6.961
		c0.059,1.025,0.349,1.811,0.87,2.355s1.172,0.817,1.951,0.817c0.58,0,1.075-0.152,1.485-0.457S66.335,132.159,66.575,131.491z
		 M61.381,128.934h5.212c-0.07-0.785-0.27-1.374-0.598-1.767c-0.504-0.609-1.157-0.914-1.96-0.914c-0.727,0-1.338,0.243-1.833,0.729
		S61.434,128.119,61.381,128.934z"/>
	<path d="M70.574,134.497v-8.104h-1.397v-1.23h1.397v-0.993c0-0.627,0.056-1.093,0.167-1.397c0.152-0.41,0.42-0.742,0.804-0.998
		c0.384-0.254,0.922-0.382,1.613-0.382c0.445,0,0.938,0.053,1.477,0.158l-0.237,1.38c-0.328-0.059-0.639-0.088-0.932-0.088
		c-0.48,0-0.82,0.103-1.02,0.308s-0.299,0.589-0.299,1.151v0.861h1.819v1.23h-1.819v8.104H70.574z"/>
	<path d="M75.206,123.432v-1.819h1.582v1.819H75.206z M75.206,134.497v-9.334h1.582v9.334H75.206z"/>
	<path d="M79.196,134.497v-9.334h1.424v1.327c0.686-1.025,1.676-1.538,2.971-1.538c0.563,0,1.079,0.102,1.552,0.303
		c0.471,0.203,0.824,0.468,1.059,0.796s0.398,0.718,0.492,1.169c0.059,0.293,0.088,0.806,0.088,1.538v5.739h-1.582v-5.678
		c0-0.645-0.062-1.126-0.185-1.445s-0.342-0.574-0.655-0.766c-0.313-0.189-0.681-0.285-1.103-0.285
		c-0.674,0-1.256,0.214-1.745,0.642s-0.733,1.239-0.733,2.435v5.098H79.196z"/>
	<path d="M89.216,123.432v-1.819h1.582v1.819H89.216z M89.216,134.497v-9.334h1.582v9.334H89.216z"/>
	<path d="M99.297,131.078l1.556,0.202c-0.17,1.072-0.605,1.912-1.306,2.518c-0.7,0.607-1.56,0.91-2.579,0.91
		c-1.277,0-2.305-0.418-3.081-1.252c-0.776-0.836-1.164-2.032-1.164-3.591c0-1.008,0.167-1.89,0.501-2.646s0.842-1.322,1.524-1.701
		c0.683-0.377,1.426-0.566,2.229-0.566c1.014,0,1.843,0.257,2.487,0.77s1.058,1.24,1.239,2.184l-1.538,0.237
		c-0.146-0.627-0.406-1.099-0.778-1.415s-0.821-0.475-1.349-0.475c-0.797,0-1.444,0.285-1.942,0.857
		c-0.498,0.57-0.747,1.475-0.747,2.711c0,1.254,0.24,2.165,0.721,2.733s1.107,0.853,1.881,0.853c0.621,0,1.14-0.19,1.556-0.571
		S99.186,131.869,99.297,131.078z"/>
	<path d="M102.215,123.432v-1.819h1.582v1.819H102.215z M102.215,134.497v-9.334h1.582v9.334H102.215z"/>
	<path d="M105.616,129.83c0-1.729,0.48-3.009,1.441-3.841c0.803-0.691,1.781-1.037,2.936-1.037c1.283,0,2.332,0.421,3.146,1.262
		s1.222,2.002,1.222,3.484c0,1.201-0.181,2.146-0.54,2.834c-0.361,0.689-0.886,1.224-1.574,1.604s-1.439,0.571-2.254,0.571
		c-1.307,0-2.363-0.419-3.168-1.257C106.019,132.613,105.616,131.406,105.616,129.83z M107.242,129.83
		c0,1.195,0.261,2.091,0.782,2.685c0.521,0.596,1.178,0.893,1.969,0.893c0.785,0,1.438-0.299,1.96-0.896s0.782-1.509,0.782-2.733
		c0-1.154-0.263-2.028-0.787-2.624c-0.524-0.594-1.176-0.892-1.955-0.892c-0.791,0-1.447,0.296-1.969,0.888
		S107.242,128.635,107.242,129.83z M109.114,124.003l1.169-2.461h2.074l-1.934,2.461H109.114z"/>
	<path d="M116.216,134.497v-9.334h1.424v1.327c0.686-1.025,1.676-1.538,2.971-1.538c0.563,0,1.079,0.102,1.552,0.303
		c0.471,0.203,0.824,0.468,1.059,0.796s0.398,0.718,0.492,1.169c0.059,0.293,0.088,0.806,0.088,1.538v5.739h-1.582v-5.678
		c0-0.645-0.062-1.126-0.185-1.445s-0.342-0.574-0.655-0.766c-0.313-0.189-0.681-0.285-1.103-0.285
		c-0.674,0-1.256,0.214-1.745,0.642s-0.733,1.239-0.733,2.435v5.098H116.216z"/>
	<path d="M137.283,134.497v-1.178c-0.592,0.926-1.462,1.389-2.61,1.389c-0.744,0-1.429-0.205-2.052-0.615
		c-0.625-0.41-1.107-0.982-1.451-1.719c-0.342-0.734-0.514-1.58-0.514-2.535c0-0.932,0.155-1.776,0.466-2.535
		c0.311-0.759,0.776-1.341,1.397-1.745s1.315-0.606,2.083-0.606c0.563,0,1.063,0.119,1.503,0.355
		c0.439,0.238,0.797,0.547,1.072,0.928v-4.623h1.573v12.885H137.283z M132.282,129.839c0,1.195,0.252,2.089,0.756,2.681
		s1.099,0.888,1.784,0.888c0.691,0,1.279-0.282,1.762-0.848c0.484-0.565,0.726-1.429,0.726-2.589c0-1.277-0.246-2.215-0.738-2.813
		s-1.099-0.896-1.819-0.896c-0.703,0-1.291,0.287-1.762,0.861C132.518,127.697,132.282,128.603,132.282,129.839z"/>
	<path d="M147.628,131.491l1.635,0.202c-0.258,0.955-0.735,1.696-1.433,2.224s-1.588,0.791-2.672,0.791
		c-1.365,0-2.448-0.42-3.247-1.262c-0.801-0.84-1.2-2.02-1.2-3.537c0-1.57,0.404-2.789,1.213-3.656s1.857-1.301,3.146-1.301
		c1.248,0,2.268,0.425,3.059,1.274s1.187,2.045,1.187,3.586c0,0.094-0.003,0.234-0.009,0.422h-6.961
		c0.059,1.025,0.349,1.811,0.87,2.355s1.172,0.817,1.951,0.817c0.58,0,1.075-0.152,1.485-0.457S147.388,132.159,147.628,131.491z
		 M142.434,128.934h5.212c-0.07-0.785-0.27-1.374-0.598-1.767c-0.504-0.609-1.157-0.914-1.96-0.914
		c-0.727,0-1.338,0.243-1.833,0.729S142.486,128.119,142.434,128.934z"/>
	<path d="M156.232,134.497v-9.334h1.424v1.415c0.363-0.662,0.698-1.099,1.007-1.31c0.307-0.211,0.646-0.316,1.015-0.316
		c0.533,0,1.075,0.17,1.626,0.51l-0.545,1.468c-0.387-0.229-0.773-0.343-1.16-0.343c-0.346,0-0.656,0.104-0.932,0.313
		s-0.472,0.496-0.589,0.865c-0.176,0.563-0.264,1.178-0.264,1.846v4.887H156.232z"/>
	<path d="M168.634,131.491l1.635,0.202c-0.258,0.955-0.735,1.696-1.433,2.224s-1.588,0.791-2.672,0.791
		c-1.365,0-2.448-0.42-3.247-1.262c-0.801-0.84-1.2-2.02-1.2-3.537c0-1.57,0.404-2.789,1.213-3.656s1.857-1.301,3.146-1.301
		c1.248,0,2.268,0.425,3.059,1.274s1.187,2.045,1.187,3.586c0,0.094-0.003,0.234-0.009,0.422h-6.961
		c0.059,1.025,0.349,1.811,0.87,2.355s1.172,0.817,1.951,0.817c0.58,0,1.075-0.152,1.485-0.457S168.394,132.159,168.634,131.491z
		 M163.439,128.934h5.212c-0.07-0.785-0.27-1.374-0.598-1.767c-0.504-0.609-1.157-0.914-1.96-0.914
		c-0.727,0-1.338,0.243-1.833,0.729S163.492,128.119,163.439,128.934z"/>
	<path d="M178.205,138.074v-4.57c-0.246,0.346-0.591,0.633-1.033,0.861s-0.912,0.343-1.41,0.343c-1.107,0-2.061-0.442-2.861-1.327
		c-0.799-0.885-1.199-2.098-1.199-3.639c0-0.938,0.162-1.778,0.488-2.522c0.324-0.744,0.796-1.308,1.414-1.691
		s1.297-0.576,2.035-0.576c1.154,0,2.063,0.486,2.725,1.459v-1.248h1.424v12.911H178.205z M173.327,129.804
		c0,1.201,0.252,2.103,0.756,2.703s1.107,0.9,1.811,0.9c0.674,0,1.254-0.285,1.74-0.857c0.486-0.57,0.729-1.439,0.729-2.605
		c0-1.242-0.257-2.177-0.77-2.804s-1.114-0.94-1.806-0.94c-0.686,0-1.268,0.292-1.745,0.875S173.327,128.567,173.327,129.804z"/>
	<path d="M188.383,134.497v-1.371c-0.727,1.055-1.714,1.582-2.962,1.582c-0.551,0-1.065-0.105-1.543-0.316s-0.832-0.476-1.063-0.795
		c-0.232-0.319-0.395-0.711-0.488-1.174c-0.064-0.311-0.097-0.803-0.097-1.477v-5.783h1.582v5.177c0,0.826,0.032,1.383,0.097,1.67
		c0.1,0.416,0.311,0.743,0.633,0.979c0.322,0.238,0.721,0.356,1.195,0.356s0.92-0.121,1.336-0.364s0.71-0.574,0.883-0.994
		c0.173-0.418,0.26-1.026,0.26-1.823v-5.001h1.582v9.334H188.383z"/>
	<path d="M198.666,131.491l1.635,0.202c-0.258,0.955-0.735,1.696-1.433,2.224s-1.588,0.791-2.672,0.791
		c-1.365,0-2.448-0.42-3.247-1.262c-0.801-0.84-1.2-2.02-1.2-3.537c0-1.57,0.404-2.789,1.213-3.656s1.857-1.301,3.146-1.301
		c1.248,0,2.268,0.425,3.059,1.274s1.187,2.045,1.187,3.586c0,0.094-0.003,0.234-0.009,0.422h-6.961
		c0.059,1.025,0.349,1.811,0.87,2.355s1.172,0.817,1.951,0.817c0.58,0,1.075-0.152,1.485-0.457S198.426,132.159,198.666,131.491z
		 M193.472,128.934h5.212c-0.07-0.785-0.27-1.374-0.598-1.767c-0.504-0.609-1.157-0.914-1.96-0.914
		c-0.727,0-1.338,0.243-1.833,0.729S193.524,128.119,193.472,128.934z"/>
	<path d="M202.27,134.497v-9.334h1.424v1.415c0.363-0.662,0.698-1.099,1.007-1.31c0.307-0.211,0.646-0.316,1.015-0.316
		c0.533,0,1.075,0.17,1.626,0.51l-0.545,1.468c-0.387-0.229-0.773-0.343-1.16-0.343c-0.346,0-0.656,0.104-0.932,0.313
		s-0.472,0.496-0.589,0.865c-0.176,0.563-0.264,1.178-0.264,1.846v4.887H202.27z"/>
	<path d="M208.29,123.432v-1.819h1.582v1.819H208.29z M208.29,134.497v-9.334h1.582v9.334H208.29z"/>
	<path d="M212.28,134.497v-9.334h1.415v1.31c0.293-0.457,0.683-0.824,1.169-1.103s1.04-0.418,1.661-0.418
		c0.691,0,1.258,0.144,1.701,0.431c0.441,0.287,0.754,0.688,0.936,1.204c0.738-1.09,1.699-1.635,2.883-1.635
		c0.926,0,1.638,0.257,2.136,0.77s0.747,1.302,0.747,2.368v6.407h-1.573v-5.88c0-0.633-0.052-1.088-0.153-1.366
		c-0.104-0.278-0.289-0.503-0.559-0.673s-0.586-0.255-0.949-0.255c-0.656,0-1.201,0.219-1.635,0.654
		c-0.434,0.438-0.65,1.136-0.65,2.097v5.423h-1.582v-6.064c0-0.703-0.129-1.23-0.387-1.582s-0.68-0.527-1.266-0.527
		c-0.445,0-0.857,0.117-1.234,0.352c-0.379,0.234-0.652,0.577-0.822,1.028c-0.17,0.451-0.255,1.102-0.255,1.951v4.843H212.28z"/>
	<path d="M227.283,123.432v-1.819h1.582v1.819H227.283z M227.283,134.497v-9.334h1.582v9.334H227.283z"/>
	<path d="M237.663,131.491l1.635,0.202c-0.258,0.955-0.735,1.696-1.433,2.224s-1.588,0.791-2.672,0.791
		c-1.365,0-2.448-0.42-3.247-1.262c-0.801-0.84-1.2-2.02-1.2-3.537c0-1.57,0.404-2.789,1.213-3.656s1.857-1.301,3.146-1.301
		c1.248,0,2.268,0.425,3.059,1.274s1.187,2.045,1.187,3.586c0,0.094-0.003,0.234-0.009,0.422h-6.961
		c0.059,1.025,0.349,1.811,0.87,2.355s1.172,0.817,1.951,0.817c0.58,0,1.075-0.152,1.485-0.457S237.423,132.159,237.663,131.491z
		 M232.469,128.934h5.212c-0.07-0.785-0.27-1.374-0.598-1.767c-0.504-0.609-1.157-0.914-1.96-0.914
		c-0.727,0-1.338,0.243-1.833,0.729S232.522,128.119,232.469,128.934z"/>
	<path d="M241.284,134.497v-9.334h1.424v1.327c0.686-1.025,1.676-1.538,2.971-1.538c0.563,0,1.079,0.102,1.552,0.303
		c0.471,0.203,0.824,0.468,1.059,0.796s0.398,0.718,0.492,1.169c0.059,0.293,0.088,0.806,0.088,1.538v5.739h-1.582v-5.678
		c0-0.645-0.062-1.126-0.185-1.445s-0.342-0.574-0.655-0.766c-0.313-0.189-0.681-0.285-1.103-0.285
		c-0.674,0-1.256,0.214-1.745,0.642s-0.733,1.239-0.733,2.435v5.098H241.284z"/>
	<path d="M254.749,133.082l0.229,1.397c-0.445,0.094-0.844,0.141-1.195,0.141c-0.574,0-1.02-0.091-1.336-0.272
		s-0.539-0.42-0.668-0.716s-0.193-0.919-0.193-1.868v-5.37h-1.16v-1.23h1.16v-2.312l1.573-0.949v3.261h1.591v1.23h-1.591v5.458
		c0,0.451,0.027,0.741,0.083,0.87s0.146,0.231,0.273,0.308c0.125,0.076,0.306,0.114,0.54,0.114
		C254.23,133.144,254.462,133.123,254.749,133.082z"/>
	<path d="M255.707,129.83c0-1.729,0.48-3.009,1.441-3.841c0.803-0.691,1.781-1.037,2.936-1.037c1.283,0,2.332,0.421,3.146,1.262
		s1.222,2.002,1.222,3.484c0,1.201-0.181,2.146-0.54,2.834c-0.361,0.689-0.886,1.224-1.574,1.604s-1.439,0.571-2.254,0.571
		c-1.307,0-2.363-0.419-3.168-1.257C256.109,132.613,255.707,131.406,255.707,129.83z M257.333,129.83
		c0,1.195,0.261,2.091,0.782,2.685c0.521,0.596,1.178,0.893,1.969,0.893c0.785,0,1.438-0.299,1.96-0.896s0.782-1.509,0.782-2.733
		c0-1.154-0.263-2.028-0.787-2.624c-0.524-0.594-1.176-0.892-1.955-0.892c-0.791,0-1.447,0.296-1.969,0.888
		S257.333,128.635,257.333,129.83z"/>
	<path d="M265.674,131.711l1.564-0.246c0.088,0.627,0.332,1.107,0.733,1.441s0.963,0.501,1.684,0.501
		c0.727,0,1.266-0.147,1.617-0.443s0.527-0.644,0.527-1.042c0-0.357-0.155-0.639-0.466-0.844c-0.217-0.141-0.756-0.319-1.617-0.536
		c-1.16-0.293-1.964-0.546-2.413-0.76c-0.447-0.214-0.788-0.51-1.02-0.889c-0.231-0.377-0.347-0.795-0.347-1.252
		c0-0.416,0.095-0.801,0.286-1.156c0.189-0.354,0.449-0.648,0.777-0.883c0.246-0.182,0.581-0.335,1.006-0.461
		s0.881-0.189,1.367-0.189c0.732,0,1.375,0.105,1.93,0.316c0.553,0.211,0.962,0.496,1.226,0.857
		c0.264,0.359,0.445,0.842,0.545,1.445l-1.547,0.211c-0.07-0.48-0.274-0.855-0.61-1.125c-0.338-0.27-0.813-0.404-1.429-0.404
		c-0.727,0-1.245,0.12-1.556,0.36s-0.466,0.521-0.466,0.844c0,0.205,0.064,0.39,0.193,0.554c0.129,0.17,0.331,0.311,0.606,0.422
		c0.158,0.059,0.624,0.193,1.397,0.404c1.119,0.299,1.899,0.544,2.343,0.734c0.441,0.19,0.789,0.467,1.041,0.83
		s0.378,0.814,0.378,1.354c0,0.527-0.153,1.023-0.462,1.49c-0.307,0.465-0.751,0.826-1.331,1.08
		c-0.58,0.256-1.236,0.383-1.969,0.383c-1.213,0-2.138-0.252-2.772-0.756C266.255,133.448,265.85,132.701,265.674,131.711z"/>
	<path d="M275.755,134.497v-1.802h1.802v1.802H275.755z"/>
	<path d="M47.389,170.497v-12.885h4.438c1.002,0,1.767,0.062,2.294,0.185c0.738,0.17,1.368,0.478,1.89,0.923
		c0.68,0.574,1.188,1.309,1.524,2.201c0.337,0.895,0.506,1.915,0.506,3.063c0,0.979-0.114,1.846-0.343,2.602
		s-0.521,1.382-0.879,1.876c-0.357,0.496-0.749,0.886-1.173,1.17c-0.426,0.284-0.938,0.499-1.539,0.646s-1.29,0.22-2.069,0.22
		H47.389z M49.094,168.977h2.751c0.85,0,1.517-0.079,1.999-0.237c0.484-0.158,0.869-0.381,1.156-0.668
		c0.404-0.404,0.719-0.947,0.945-1.631c0.225-0.682,0.338-1.51,0.338-2.482c0-1.348-0.222-2.383-0.664-3.107
		c-0.442-0.723-0.979-1.208-1.612-1.454c-0.457-0.176-1.192-0.264-2.206-0.264h-2.707V168.977z"/>
	<path d="M59.597,165.83c0-1.729,0.48-3.009,1.441-3.841c0.803-0.691,1.781-1.037,2.936-1.037c1.283,0,2.332,0.421,3.146,1.262
		s1.222,2.002,1.222,3.484c0,1.201-0.181,2.146-0.54,2.834c-0.361,0.689-0.886,1.224-1.574,1.604s-1.439,0.571-2.254,0.571
		c-1.307,0-2.363-0.419-3.168-1.257C59.999,168.613,59.597,167.406,59.597,165.83z M61.223,165.83c0,1.195,0.261,2.091,0.782,2.685
		c0.521,0.596,1.178,0.893,1.969,0.893c0.785,0,1.438-0.299,1.96-0.896s0.782-1.509,0.782-2.733c0-1.154-0.263-2.028-0.787-2.624
		c-0.524-0.594-1.176-0.892-1.955-0.892c-0.791,0-1.447,0.296-1.969,0.888S61.223,164.635,61.223,165.83z"/>
	<path d="M76.287,167.078l1.556,0.202c-0.17,1.072-0.605,1.912-1.306,2.518c-0.7,0.607-1.56,0.91-2.579,0.91
		c-1.277,0-2.305-0.418-3.081-1.252c-0.776-0.836-1.164-2.032-1.164-3.591c0-1.008,0.167-1.89,0.501-2.646s0.842-1.322,1.524-1.701
		c0.683-0.377,1.426-0.566,2.229-0.566c1.014,0,1.843,0.257,2.487,0.77s1.058,1.24,1.239,2.184l-1.538,0.237
		c-0.146-0.627-0.406-1.099-0.778-1.415s-0.821-0.475-1.349-0.475c-0.797,0-1.444,0.285-1.942,0.857
		c-0.498,0.57-0.747,1.475-0.747,2.711c0,1.254,0.24,2.165,0.721,2.733s1.107,0.853,1.881,0.853c0.621,0,1.14-0.19,1.556-0.571
		S76.176,167.869,76.287,167.078z"/>
	<path d="M85.313,170.497v-1.371c-0.727,1.055-1.714,1.582-2.962,1.582c-0.551,0-1.065-0.105-1.543-0.316s-0.832-0.476-1.063-0.795
		c-0.232-0.319-0.395-0.711-0.488-1.174c-0.064-0.311-0.097-0.803-0.097-1.477v-5.783h1.582v5.177c0,0.826,0.032,1.383,0.097,1.67
		c0.1,0.416,0.311,0.743,0.633,0.979c0.322,0.238,0.721,0.356,1.195,0.356s0.92-0.121,1.336-0.364s0.71-0.574,0.883-0.994
		c0.173-0.418,0.26-1.026,0.26-1.823v-5.001h1.582v9.334H85.313z"/>
	<path d="M89.207,170.497v-9.334h1.415v1.31c0.293-0.457,0.683-0.824,1.169-1.103s1.04-0.418,1.661-0.418
		c0.691,0,1.258,0.144,1.701,0.431c0.441,0.287,0.754,0.688,0.936,1.204c0.738-1.09,1.699-1.635,2.883-1.635
		c0.926,0,1.638,0.257,2.136,0.77s0.747,1.302,0.747,2.368v6.407h-1.573v-5.88c0-0.633-0.052-1.088-0.153-1.366
		c-0.104-0.278-0.289-0.503-0.559-0.673s-0.586-0.255-0.949-0.255c-0.656,0-1.201,0.219-1.635,0.654
		c-0.434,0.438-0.65,1.136-0.65,2.097v5.423h-1.582v-6.064c0-0.703-0.129-1.23-0.387-1.582s-0.68-0.527-1.266-0.527
		c-0.445,0-0.857,0.117-1.234,0.352c-0.379,0.234-0.652,0.577-0.822,1.028s-0.255,1.102-0.255,1.951v4.843H89.207z"/>
	<path d="M110.591,167.491l1.635,0.202c-0.258,0.955-0.735,1.696-1.433,2.224s-1.588,0.791-2.672,0.791
		c-1.365,0-2.448-0.42-3.247-1.262c-0.801-0.84-1.2-2.02-1.2-3.537c0-1.57,0.404-2.789,1.213-3.656s1.857-1.301,3.146-1.301
		c1.248,0,2.268,0.425,3.059,1.274s1.187,2.045,1.187,3.586c0,0.094-0.003,0.234-0.009,0.422h-6.961
		c0.059,1.025,0.349,1.811,0.87,2.355s1.172,0.817,1.951,0.817c0.58,0,1.075-0.152,1.485-0.457S110.351,168.159,110.591,167.491z
		 M105.397,164.934h5.212c-0.07-0.785-0.27-1.374-0.598-1.767c-0.504-0.609-1.157-0.914-1.96-0.914
		c-0.727,0-1.338,0.243-1.833,0.729S105.449,164.119,105.397,164.934z"/>
	<path d="M114.212,170.497v-9.334h1.424v1.327c0.686-1.025,1.676-1.538,2.971-1.538c0.563,0,1.079,0.102,1.552,0.303
		c0.471,0.203,0.824,0.468,1.059,0.796s0.398,0.718,0.492,1.169c0.059,0.293,0.088,0.806,0.088,1.538v5.739h-1.582v-5.678
		c0-0.645-0.062-1.126-0.185-1.445s-0.342-0.574-0.655-0.766c-0.313-0.189-0.681-0.285-1.103-0.285
		c-0.674,0-1.256,0.214-1.745,0.642s-0.733,1.239-0.733,2.435v5.098H114.212z"/>
	<path d="M127.677,169.082l0.229,1.397c-0.445,0.094-0.844,0.141-1.195,0.141c-0.574,0-1.02-0.091-1.336-0.272
		s-0.539-0.42-0.668-0.716s-0.193-0.919-0.193-1.868v-5.37h-1.16v-1.23h1.16v-2.312l1.573-0.949v3.261h1.591v1.23h-1.591v5.458
		c0,0.451,0.027,0.741,0.083,0.87s0.146,0.231,0.273,0.308c0.125,0.076,0.306,0.114,0.54,0.114
		C127.158,169.144,127.39,169.123,127.677,169.082z"/>
	<path d="M135.314,169.346c-0.586,0.498-1.15,0.85-1.691,1.055c-0.543,0.205-1.124,0.308-1.745,0.308
		c-1.025,0-1.813-0.25-2.364-0.752c-0.551-0.5-0.826-1.141-0.826-1.92c0-0.457,0.104-0.875,0.313-1.252
		c0.207-0.379,0.479-0.682,0.816-0.91s0.717-0.401,1.139-0.519c0.311-0.082,0.779-0.161,1.406-0.237
		c1.277-0.152,2.218-0.334,2.821-0.545c0.006-0.217,0.009-0.354,0.009-0.413c0-0.645-0.149-1.099-0.448-1.362
		c-0.404-0.357-1.005-0.536-1.802-0.536c-0.744,0-1.294,0.131-1.648,0.392s-0.616,0.722-0.786,1.384l-1.547-0.211
		c0.141-0.662,0.372-1.196,0.694-1.604c0.322-0.406,0.788-0.721,1.397-0.939c0.609-0.221,1.315-0.33,2.118-0.33
		c0.797,0,1.444,0.094,1.942,0.281s0.864,0.424,1.099,0.707c0.234,0.285,0.398,0.644,0.492,1.077
		c0.053,0.27,0.079,0.756,0.079,1.459v2.109c0,1.471,0.033,2.401,0.101,2.79c0.067,0.391,0.201,0.764,0.4,1.121h-1.652
		C135.467,170.169,135.361,169.785,135.314,169.346z M135.183,165.813c-0.574,0.234-1.436,0.434-2.584,0.598
		c-0.65,0.094-1.11,0.199-1.38,0.316s-0.478,0.289-0.624,0.515s-0.22,0.476-0.22,0.751c0,0.422,0.159,0.773,0.479,1.055
		s0.787,0.422,1.402,0.422c0.609,0,1.151-0.133,1.626-0.399s0.823-0.632,1.046-1.095c0.17-0.357,0.255-0.885,0.255-1.582V165.813z"
		/>
	<path d="M145.325,167.078l1.556,0.202c-0.17,1.072-0.605,1.912-1.306,2.518c-0.7,0.607-1.56,0.91-2.579,0.91
		c-1.277,0-2.305-0.418-3.081-1.252c-0.776-0.836-1.164-2.032-1.164-3.591c0-1.008,0.167-1.89,0.501-2.646s0.842-1.322,1.524-1.701
		c0.683-0.377,1.426-0.566,2.229-0.566c1.014,0,1.843,0.257,2.487,0.77s1.058,1.24,1.239,2.184l-1.538,0.237
		c-0.146-0.627-0.406-1.099-0.778-1.415s-0.821-0.475-1.349-0.475c-0.797,0-1.444,0.285-1.942,0.857
		c-0.498,0.57-0.747,1.475-0.747,2.711c0,1.254,0.24,2.165,0.721,2.733s1.107,0.853,1.881,0.853c0.621,0,1.14-0.19,1.556-0.571
		S145.214,167.869,145.325,167.078z"/>
	<path d="M148.243,159.432v-1.819h1.582v1.819H148.243z M148.243,170.497v-9.334h1.582v9.334H148.243z"/>
	<path d="M151.645,165.83c0-1.729,0.48-3.009,1.441-3.841c0.803-0.691,1.781-1.037,2.936-1.037c1.283,0,2.332,0.421,3.146,1.262
		s1.222,2.002,1.222,3.484c0,1.201-0.181,2.146-0.54,2.834c-0.361,0.689-0.886,1.224-1.574,1.604s-1.439,0.571-2.254,0.571
		c-1.307,0-2.363-0.419-3.168-1.257C152.047,168.613,151.645,167.406,151.645,165.83z M153.271,165.83
		c0,1.195,0.261,2.091,0.782,2.685c0.521,0.596,1.178,0.893,1.969,0.893c0.785,0,1.438-0.299,1.96-0.896s0.782-1.509,0.782-2.733
		c0-1.154-0.263-2.028-0.787-2.624c-0.524-0.594-1.176-0.892-1.955-0.892c-0.791,0-1.447,0.296-1.969,0.888
		S153.271,164.635,153.271,165.83z M155.143,160.003l1.169-2.461h2.074l-1.934,2.461H155.143z"/>
	<path d="M162.244,170.497v-9.334h1.424v1.327c0.686-1.025,1.676-1.538,2.971-1.538c0.563,0,1.079,0.102,1.552,0.303
		c0.471,0.203,0.824,0.468,1.059,0.796s0.398,0.718,0.492,1.169c0.059,0.293,0.088,0.806,0.088,1.538v5.739h-1.582v-5.678
		c0-0.645-0.062-1.126-0.185-1.445s-0.342-0.574-0.655-0.766c-0.313-0.189-0.681-0.285-1.103-0.285
		c-0.674,0-1.256,0.214-1.745,0.642s-0.733,1.239-0.733,2.435v5.098H162.244z"/>
	<path d="M172.703,170.497v-1.802h1.802v1.802H172.703z"/>
	<path d="M47.389,206.497v-12.885h4.86c0.855,0,1.509,0.041,1.96,0.123c0.633,0.105,1.163,0.307,1.591,0.602
		c0.428,0.297,0.771,0.711,1.032,1.244s0.392,1.119,0.392,1.758c0,1.096-0.349,2.023-1.046,2.781
		c-0.697,0.76-1.957,1.139-3.779,1.139h-3.305v5.238H47.389z M49.094,199.738h3.331c1.102,0,1.884-0.205,2.347-0.615
		s0.694-0.987,0.694-1.731c0-0.539-0.136-1-0.409-1.385c-0.271-0.383-0.631-0.637-1.076-0.76c-0.287-0.076-0.817-0.114-1.591-0.114
		h-3.296V199.738z"/>
	<path d="M59.175,206.497v-9.334h1.424v1.415c0.363-0.662,0.698-1.099,1.007-1.31c0.307-0.211,0.646-0.316,1.015-0.316
		c0.533,0,1.075,0.17,1.626,0.51l-0.545,1.468c-0.387-0.229-0.773-0.343-1.16-0.343c-0.346,0-0.656,0.104-0.932,0.313
		s-0.472,0.496-0.589,0.865c-0.176,0.563-0.264,1.178-0.264,1.846v4.887H59.175z"/>
	<path d="M71.304,206.497v-1.371c-0.727,1.055-1.714,1.582-2.962,1.582c-0.551,0-1.065-0.105-1.543-0.316s-0.832-0.476-1.063-0.795
		c-0.232-0.319-0.395-0.711-0.488-1.174c-0.064-0.311-0.097-0.803-0.097-1.477v-5.783h1.582v5.177c0,0.826,0.032,1.383,0.097,1.67
		c0.1,0.416,0.311,0.743,0.633,0.979c0.322,0.238,0.721,0.356,1.195,0.356s0.92-0.121,1.336-0.364s0.71-0.574,0.883-0.994
		c0.173-0.418,0.26-1.026,0.26-1.823v-5.001h1.582v9.334H71.304z"/>
	<path d="M81.587,203.491l1.635,0.202c-0.258,0.955-0.735,1.696-1.433,2.224s-1.588,0.791-2.672,0.791
		c-1.365,0-2.448-0.42-3.247-1.262c-0.801-0.84-1.2-2.02-1.2-3.537c0-1.57,0.404-2.789,1.213-3.656s1.857-1.301,3.146-1.301
		c1.248,0,2.268,0.425,3.059,1.274s1.187,2.045,1.187,3.586c0,0.094-0.003,0.234-0.009,0.422h-6.961
		c0.059,1.025,0.349,1.811,0.87,2.355s1.172,0.817,1.951,0.817c0.58,0,1.075-0.152,1.485-0.457S81.347,204.159,81.587,203.491z
		 M76.393,200.934h5.212c-0.07-0.785-0.27-1.374-0.598-1.767c-0.504-0.609-1.157-0.914-1.96-0.914c-0.727,0-1.338,0.243-1.833,0.729
		S76.445,200.119,76.393,200.934z"/>
	<path d="M86.667,206.497h-1.468v-12.885h1.582v4.597c0.668-0.838,1.521-1.257,2.558-1.257c0.574,0,1.117,0.116,1.63,0.348
		s0.935,0.557,1.266,0.975c0.331,0.42,0.591,0.925,0.778,1.517s0.281,1.225,0.281,1.898c0,1.6-0.396,2.836-1.187,3.709
		s-1.74,1.31-2.848,1.31c-1.102,0-1.966-0.46-2.593-1.38V206.497z M86.649,201.76c0,1.119,0.152,1.928,0.457,2.426
		c0.498,0.814,1.172,1.222,2.021,1.222c0.691,0,1.289-0.3,1.793-0.9s0.756-1.496,0.756-2.686c0-1.219-0.241-2.118-0.726-2.698
		c-0.482-0.58-1.067-0.87-1.753-0.87c-0.691,0-1.289,0.301-1.793,0.9C86.901,199.755,86.649,200.623,86.649,201.76z"/>
	<path d="M101.31,205.346c-0.586,0.498-1.15,0.85-1.691,1.055c-0.543,0.205-1.124,0.308-1.745,0.308
		c-1.025,0-1.813-0.25-2.364-0.752c-0.551-0.5-0.826-1.141-0.826-1.92c0-0.457,0.104-0.875,0.313-1.252
		c0.207-0.379,0.479-0.682,0.816-0.91s0.717-0.401,1.139-0.519c0.311-0.082,0.779-0.161,1.406-0.237
		c1.277-0.152,2.218-0.334,2.821-0.545c0.006-0.217,0.009-0.354,0.009-0.413c0-0.645-0.149-1.099-0.448-1.362
		c-0.404-0.357-1.005-0.536-1.802-0.536c-0.744,0-1.294,0.131-1.648,0.392s-0.616,0.722-0.786,1.384l-1.547-0.211
		c0.141-0.662,0.372-1.196,0.694-1.604c0.322-0.406,0.788-0.721,1.397-0.939c0.609-0.221,1.315-0.33,2.118-0.33
		c0.797,0,1.444,0.094,1.942,0.281s0.864,0.424,1.099,0.707c0.234,0.285,0.398,0.644,0.492,1.077
		c0.053,0.27,0.079,0.756,0.079,1.459v2.109c0,1.471,0.033,2.401,0.101,2.79c0.067,0.391,0.201,0.764,0.4,1.121h-1.652
		C101.462,206.169,101.356,205.785,101.31,205.346z M101.178,201.813c-0.574,0.234-1.436,0.434-2.584,0.598
		c-0.65,0.094-1.11,0.199-1.38,0.316s-0.478,0.289-0.624,0.515s-0.22,0.476-0.22,0.751c0,0.422,0.159,0.773,0.479,1.055
		s0.787,0.422,1.402,0.422c0.609,0,1.151-0.133,1.626-0.399s0.823-0.632,1.046-1.095c0.17-0.357,0.255-0.885,0.255-1.582V201.813z"
		/>
	<path d="M104.597,203.711l1.564-0.246c0.088,0.627,0.332,1.107,0.733,1.441s0.963,0.501,1.684,0.501
		c0.727,0,1.266-0.147,1.617-0.443s0.527-0.644,0.527-1.042c0-0.357-0.155-0.639-0.466-0.844c-0.217-0.141-0.756-0.319-1.617-0.536
		c-1.16-0.293-1.964-0.546-2.413-0.76c-0.447-0.214-0.788-0.51-1.02-0.889c-0.231-0.377-0.347-0.795-0.347-1.252
		c0-0.416,0.095-0.801,0.286-1.156c0.189-0.354,0.449-0.648,0.777-0.883c0.246-0.182,0.581-0.335,1.006-0.461
		s0.881-0.189,1.367-0.189c0.732,0,1.375,0.105,1.93,0.316c0.553,0.211,0.962,0.496,1.226,0.857
		c0.264,0.359,0.445,0.842,0.545,1.445l-1.547,0.211c-0.07-0.48-0.274-0.855-0.61-1.125c-0.338-0.27-0.813-0.404-1.429-0.404
		c-0.727,0-1.245,0.12-1.556,0.36s-0.466,0.521-0.466,0.844c0,0.205,0.064,0.39,0.193,0.554c0.129,0.17,0.331,0.311,0.606,0.422
		c0.158,0.059,0.624,0.193,1.397,0.404c1.119,0.299,1.899,0.544,2.343,0.734c0.441,0.19,0.789,0.467,1.041,0.83
		s0.378,0.814,0.378,1.354c0,0.527-0.153,1.023-0.462,1.49c-0.307,0.465-0.751,0.826-1.331,1.08
		c-0.58,0.256-1.236,0.383-1.969,0.383c-1.213,0-2.138-0.252-2.772-0.756C105.178,205.448,104.772,204.701,104.597,203.711z"/>
	<path d="M125.286,206.497v-1.178c-0.592,0.926-1.462,1.389-2.61,1.389c-0.744,0-1.429-0.205-2.052-0.615
		c-0.625-0.41-1.107-0.982-1.451-1.719c-0.342-0.734-0.514-1.58-0.514-2.535c0-0.932,0.155-1.776,0.466-2.535
		s0.776-1.341,1.397-1.745s1.315-0.606,2.083-0.606c0.563,0,1.063,0.119,1.503,0.355c0.439,0.238,0.797,0.547,1.072,0.928v-4.623
		h1.573v12.885H125.286z M120.285,201.839c0,1.195,0.252,2.089,0.756,2.681s1.099,0.888,1.784,0.888
		c0.691,0,1.279-0.282,1.762-0.848c0.484-0.565,0.726-1.429,0.726-2.589c0-1.277-0.246-2.215-0.738-2.813s-1.099-0.896-1.819-0.896
		c-0.703,0-1.291,0.287-1.762,0.861C120.521,199.697,120.285,200.603,120.285,201.839z"/>
	<path d="M135.631,203.491l1.635,0.202c-0.258,0.955-0.735,1.696-1.433,2.224s-1.588,0.791-2.672,0.791
		c-1.365,0-2.448-0.42-3.247-1.262c-0.801-0.84-1.2-2.02-1.2-3.537c0-1.57,0.404-2.789,1.213-3.656s1.857-1.301,3.146-1.301
		c1.248,0,2.268,0.425,3.059,1.274s1.187,2.045,1.187,3.586c0,0.094-0.003,0.234-0.009,0.422h-6.961
		c0.059,1.025,0.349,1.811,0.87,2.355s1.172,0.817,1.951,0.817c0.58,0,1.075-0.152,1.485-0.457S135.391,204.159,135.631,203.491z
		 M130.437,200.934h5.212c-0.07-0.785-0.27-1.374-0.598-1.767c-0.504-0.609-1.157-0.914-1.96-0.914
		c-0.727,0-1.338,0.243-1.833,0.729S130.489,200.119,130.437,200.934z"/>
	<path d="M143.62,203.711l1.564-0.246c0.088,0.627,0.332,1.107,0.733,1.441s0.963,0.501,1.684,0.501
		c0.727,0,1.266-0.147,1.617-0.443s0.527-0.644,0.527-1.042c0-0.357-0.155-0.639-0.466-0.844c-0.217-0.141-0.756-0.319-1.617-0.536
		c-1.16-0.293-1.964-0.546-2.413-0.76c-0.447-0.214-0.788-0.51-1.02-0.889c-0.231-0.377-0.347-0.795-0.347-1.252
		c0-0.416,0.095-0.801,0.286-1.156c0.189-0.354,0.449-0.648,0.777-0.883c0.246-0.182,0.581-0.335,1.006-0.461
		s0.881-0.189,1.367-0.189c0.732,0,1.375,0.105,1.93,0.316c0.553,0.211,0.962,0.496,1.226,0.857
		c0.264,0.359,0.445,0.842,0.545,1.445l-1.547,0.211c-0.07-0.48-0.274-0.855-0.61-1.125c-0.338-0.27-0.813-0.404-1.429-0.404
		c-0.727,0-1.245,0.12-1.556,0.36s-0.466,0.521-0.466,0.844c0,0.205,0.064,0.39,0.193,0.554c0.129,0.17,0.331,0.311,0.606,0.422
		c0.158,0.059,0.624,0.193,1.397,0.404c1.119,0.299,1.899,0.544,2.343,0.734c0.441,0.19,0.789,0.467,1.041,0.83
		s0.378,0.814,0.378,1.354c0,0.527-0.153,1.023-0.462,1.49c-0.307,0.465-0.751,0.826-1.331,1.08
		c-0.58,0.256-1.236,0.383-1.969,0.383c-1.213,0-2.138-0.252-2.772-0.756C144.201,205.448,143.796,204.701,143.62,203.711z"/>
	<path d="M153.262,195.432v-1.819h1.582v1.819H153.262z M153.262,206.497v-9.334h1.582v9.334H153.262z"/>
	<path d="M156.619,203.711l1.564-0.246c0.088,0.627,0.332,1.107,0.733,1.441s0.963,0.501,1.684,0.501
		c0.727,0,1.266-0.147,1.617-0.443s0.527-0.644,0.527-1.042c0-0.357-0.155-0.639-0.466-0.844c-0.217-0.141-0.756-0.319-1.617-0.536
		c-1.16-0.293-1.964-0.546-2.413-0.76c-0.447-0.214-0.788-0.51-1.02-0.889c-0.231-0.377-0.347-0.795-0.347-1.252
		c0-0.416,0.095-0.801,0.286-1.156c0.189-0.354,0.449-0.648,0.777-0.883c0.246-0.182,0.581-0.335,1.006-0.461
		s0.881-0.189,1.367-0.189c0.732,0,1.375,0.105,1.93,0.316c0.553,0.211,0.962,0.496,1.226,0.857
		c0.264,0.359,0.445,0.842,0.545,1.445l-1.547,0.211c-0.07-0.48-0.274-0.855-0.61-1.125c-0.338-0.27-0.813-0.404-1.429-0.404
		c-0.727,0-1.245,0.12-1.556,0.36s-0.466,0.521-0.466,0.844c0,0.205,0.064,0.39,0.193,0.554c0.129,0.17,0.331,0.311,0.606,0.422
		c0.158,0.059,0.624,0.193,1.397,0.404c1.119,0.299,1.899,0.544,2.343,0.734c0.441,0.19,0.789,0.467,1.041,0.83
		s0.378,0.814,0.378,1.354c0,0.527-0.153,1.023-0.462,1.49c-0.307,0.465-0.751,0.826-1.331,1.08
		c-0.58,0.256-1.236,0.383-1.969,0.383c-1.213,0-2.138-0.252-2.772-0.756C157.2,205.448,156.795,204.701,156.619,203.711z"/>
	<path d="M169.706,205.082l0.229,1.397c-0.445,0.094-0.844,0.141-1.195,0.141c-0.574,0-1.02-0.091-1.336-0.272
		s-0.539-0.42-0.668-0.716s-0.193-0.919-0.193-1.868v-5.37h-1.16v-1.23h1.16v-2.312l1.573-0.949v3.261h1.591v1.23h-1.591v5.458
		c0,0.451,0.027,0.741,0.083,0.87s0.146,0.231,0.273,0.308c0.125,0.076,0.306,0.114,0.54,0.114
		C169.188,205.144,169.419,205.123,169.706,205.082z"/>
	<path d="M177.643,203.491l1.635,0.202c-0.258,0.955-0.735,1.696-1.433,2.224s-1.588,0.791-2.672,0.791
		c-1.365,0-2.448-0.42-3.247-1.262c-0.801-0.84-1.2-2.02-1.2-3.537c0-1.57,0.404-2.789,1.213-3.656s1.857-1.301,3.146-1.301
		c1.248,0,2.268,0.425,3.059,1.274s1.187,2.045,1.187,3.586c0,0.094-0.003,0.234-0.009,0.422h-6.961
		c0.059,1.025,0.349,1.811,0.87,2.355s1.172,0.817,1.951,0.817c0.58,0,1.075-0.152,1.485-0.457S177.402,204.159,177.643,203.491z
		 M172.448,200.934h5.212c-0.07-0.785-0.27-1.374-0.598-1.767c-0.504-0.609-1.157-0.914-1.96-0.914
		c-0.727,0-1.338,0.243-1.833,0.729S172.501,200.119,172.448,200.934z"/>
	<path d="M181.264,206.497v-9.334h1.415v1.31c0.293-0.457,0.683-0.824,1.169-1.103s1.04-0.418,1.661-0.418
		c0.691,0,1.258,0.144,1.701,0.431c0.441,0.287,0.754,0.688,0.936,1.204c0.738-1.09,1.699-1.635,2.883-1.635
		c0.926,0,1.638,0.257,2.136,0.77s0.747,1.302,0.747,2.368v6.407h-1.573v-5.88c0-0.633-0.052-1.088-0.153-1.366
		c-0.104-0.278-0.289-0.503-0.559-0.673s-0.586-0.255-0.949-0.255c-0.656,0-1.201,0.219-1.635,0.654
		c-0.434,0.438-0.65,1.136-0.65,2.097v5.423h-1.582v-6.064c0-0.703-0.129-1.23-0.387-1.582s-0.68-0.527-1.266-0.527
		c-0.445,0-0.857,0.117-1.234,0.352c-0.379,0.234-0.652,0.577-0.822,1.028s-0.255,1.102-0.255,1.951v4.843H181.264z"/>
	<path d="M202.349,205.346c-0.586,0.498-1.15,0.85-1.691,1.055c-0.543,0.205-1.124,0.308-1.745,0.308
		c-1.025,0-1.813-0.25-2.364-0.752c-0.551-0.5-0.826-1.141-0.826-1.92c0-0.457,0.104-0.875,0.313-1.252
		c0.207-0.379,0.479-0.682,0.816-0.91s0.717-0.401,1.139-0.519c0.311-0.082,0.779-0.161,1.406-0.237
		c1.277-0.152,2.218-0.334,2.821-0.545c0.006-0.217,0.009-0.354,0.009-0.413c0-0.645-0.149-1.099-0.448-1.362
		c-0.404-0.357-1.005-0.536-1.802-0.536c-0.744,0-1.294,0.131-1.648,0.392s-0.616,0.722-0.786,1.384l-1.547-0.211
		c0.141-0.662,0.372-1.196,0.694-1.604c0.322-0.406,0.788-0.721,1.397-0.939c0.609-0.221,1.315-0.33,2.118-0.33
		c0.797,0,1.444,0.094,1.942,0.281s0.864,0.424,1.099,0.707c0.234,0.285,0.398,0.644,0.492,1.077
		c0.053,0.27,0.079,0.756,0.079,1.459v2.109c0,1.471,0.033,2.401,0.101,2.79c0.067,0.391,0.201,0.764,0.4,1.121h-1.652
		C202.501,206.169,202.396,205.785,202.349,205.346z M202.217,201.813c-0.574,0.234-1.436,0.434-2.584,0.598
		c-0.65,0.094-1.11,0.199-1.38,0.316s-0.478,0.289-0.624,0.515s-0.22,0.476-0.22,0.751c0,0.422,0.159,0.773,0.479,1.055
		s0.787,0.422,1.402,0.422c0.609,0,1.151-0.133,1.626-0.399s0.823-0.632,1.046-1.095c0.17-0.357,0.255-0.885,0.255-1.582V201.813z"
		/>
	<path d="M205.636,203.711l1.564-0.246c0.088,0.627,0.332,1.107,0.733,1.441s0.963,0.501,1.684,0.501
		c0.727,0,1.266-0.147,1.617-0.443s0.527-0.644,0.527-1.042c0-0.357-0.155-0.639-0.466-0.844c-0.217-0.141-0.756-0.319-1.617-0.536
		c-1.16-0.293-1.964-0.546-2.413-0.76c-0.447-0.214-0.788-0.51-1.02-0.889c-0.231-0.377-0.347-0.795-0.347-1.252
		c0-0.416,0.095-0.801,0.286-1.156c0.189-0.354,0.449-0.648,0.777-0.883c0.246-0.182,0.581-0.335,1.006-0.461
		s0.881-0.189,1.367-0.189c0.732,0,1.375,0.105,1.93,0.316c0.553,0.211,0.962,0.496,1.226,0.857
		c0.264,0.359,0.445,0.842,0.545,1.445l-1.547,0.211c-0.07-0.48-0.274-0.855-0.61-1.125c-0.338-0.27-0.813-0.404-1.429-0.404
		c-0.727,0-1.245,0.12-1.556,0.36s-0.466,0.521-0.466,0.844c0,0.205,0.064,0.39,0.193,0.554c0.129,0.17,0.331,0.311,0.606,0.422
		c0.158,0.059,0.624,0.193,1.397,0.404c1.119,0.299,1.899,0.544,2.343,0.734c0.441,0.19,0.789,0.467,1.041,0.83
		s0.378,0.814,0.378,1.354c0,0.527-0.153,1.023-0.462,1.49c-0.307,0.465-0.751,0.826-1.331,1.08
		c-0.58,0.256-1.236,0.383-1.969,0.383c-1.213,0-2.138-0.252-2.772-0.756C206.217,205.448,205.812,204.701,205.636,203.711z"/>
	<path d="M215.717,206.497v-1.802h1.802v1.802H215.717z"/>
	<path d="M47.336,242.497v-12.885h2.566l3.05,9.123c0.281,0.85,0.486,1.485,0.615,1.907c0.146-0.469,0.375-1.157,0.686-2.065
		l3.085-8.965h2.294v12.885h-1.644v-10.784l-3.744,10.784h-1.538l-3.727-10.969v10.969H47.336z"/>
	<path d="M68.272,241.346c-0.586,0.498-1.15,0.85-1.691,1.055c-0.543,0.205-1.124,0.308-1.745,0.308
		c-1.025,0-1.813-0.25-2.364-0.752c-0.551-0.5-0.826-1.141-0.826-1.92c0-0.457,0.104-0.875,0.313-1.252
		c0.207-0.379,0.479-0.682,0.816-0.91s0.717-0.401,1.139-0.519c0.311-0.082,0.779-0.161,1.406-0.237
		c1.277-0.152,2.218-0.334,2.821-0.545c0.006-0.217,0.009-0.354,0.009-0.413c0-0.645-0.149-1.099-0.448-1.362
		c-0.404-0.357-1.005-0.536-1.802-0.536c-0.744,0-1.294,0.131-1.648,0.392s-0.616,0.722-0.786,1.384l-1.547-0.211
		c0.141-0.662,0.372-1.196,0.694-1.604c0.322-0.406,0.788-0.721,1.397-0.939c0.609-0.221,1.315-0.33,2.118-0.33
		c0.797,0,1.444,0.094,1.942,0.281s0.864,0.424,1.099,0.707c0.234,0.285,0.398,0.644,0.492,1.077
		c0.053,0.27,0.079,0.756,0.079,1.459v2.109c0,1.471,0.033,2.401,0.101,2.79c0.067,0.391,0.201,0.764,0.4,1.121h-1.652
		C68.424,242.169,68.318,241.785,68.272,241.346z M68.14,237.813c-0.574,0.234-1.436,0.434-2.584,0.598
		c-0.65,0.094-1.11,0.199-1.38,0.316s-0.478,0.289-0.624,0.515s-0.22,0.476-0.22,0.751c0,0.422,0.159,0.773,0.479,1.055
		s0.787,0.422,1.402,0.422c0.609,0,1.151-0.133,1.626-0.399s0.823-0.632,1.046-1.095c0.17-0.357,0.255-0.885,0.255-1.582V237.813z"
		/>
	<path d="M72.191,242.497v-9.334h1.424v1.327c0.686-1.025,1.676-1.538,2.971-1.538c0.563,0,1.079,0.102,1.552,0.303
		c0.471,0.203,0.824,0.468,1.059,0.796s0.398,0.718,0.492,1.169c0.059,0.293,0.088,0.806,0.088,1.538v5.739h-1.582v-5.678
		c0-0.645-0.062-1.126-0.185-1.445s-0.342-0.574-0.655-0.766c-0.313-0.189-0.681-0.285-1.103-0.285
		c-0.674,0-1.256,0.214-1.745,0.642s-0.733,1.239-0.733,2.435v5.098H72.191z"/>
	<path d="M85.656,241.082l0.229,1.397c-0.445,0.094-0.844,0.141-1.195,0.141c-0.574,0-1.02-0.091-1.336-0.272
		s-0.539-0.42-0.668-0.716s-0.193-0.919-0.193-1.868v-5.37h-1.16v-1.23h1.16v-2.312l1.573-0.949v3.261h1.591v1.23h-1.591v5.458
		c0,0.451,0.027,0.741,0.083,0.87s0.146,0.231,0.273,0.308c0.125,0.076,0.306,0.114,0.54,0.114
		C85.138,241.144,85.369,241.123,85.656,241.082z"/>
	<path d="M93.593,239.491l1.635,0.202c-0.258,0.955-0.735,1.696-1.433,2.224s-1.588,0.791-2.672,0.791
		c-1.365,0-2.448-0.42-3.247-1.262c-0.801-0.84-1.2-2.02-1.2-3.537c0-1.57,0.404-2.789,1.213-3.656s1.857-1.301,3.146-1.301
		c1.248,0,2.268,0.425,3.059,1.274s1.187,2.045,1.187,3.586c0,0.094-0.003,0.234-0.009,0.422h-6.961
		c0.059,1.025,0.349,1.811,0.87,2.355s1.172,0.817,1.951,0.817c0.58,0,1.075-0.152,1.485-0.457S93.353,240.159,93.593,239.491z
		 M88.398,236.934h5.212c-0.07-0.785-0.27-1.374-0.598-1.767c-0.504-0.609-1.157-0.914-1.96-0.914c-0.727,0-1.338,0.243-1.833,0.729
		S88.451,236.119,88.398,236.934z"/>
	<path d="M97.214,242.497v-9.334h1.424v1.327c0.686-1.025,1.676-1.538,2.971-1.538c0.563,0,1.079,0.102,1.552,0.303
		c0.471,0.203,0.824,0.468,1.059,0.796s0.398,0.718,0.492,1.169c0.059,0.293,0.088,0.806,0.088,1.538v5.739h-1.582v-5.678
		c0-0.645-0.062-1.126-0.185-1.445s-0.342-0.574-0.655-0.766c-0.313-0.189-0.681-0.285-1.103-0.285
		c-0.674,0-1.256,0.214-1.745,0.642s-0.733,1.239-0.733,2.435v5.098H97.214z"/>
	<path d="M107.233,231.432v-1.819h1.582v1.819H107.233z M107.233,242.497v-9.334h1.582v9.334H107.233z"/>
	<path d="M111.224,242.497v-9.334h1.415v1.31c0.293-0.457,0.683-0.824,1.169-1.103s1.04-0.418,1.661-0.418
		c0.691,0,1.258,0.144,1.701,0.431c0.441,0.287,0.754,0.688,0.936,1.204c0.738-1.09,1.699-1.635,2.883-1.635
		c0.926,0,1.638,0.257,2.136,0.77s0.747,1.302,0.747,2.368v6.407h-1.573v-5.88c0-0.633-0.052-1.088-0.153-1.366
		c-0.104-0.278-0.289-0.503-0.559-0.673s-0.586-0.255-0.949-0.255c-0.656,0-1.201,0.219-1.635,0.654
		c-0.434,0.438-0.65,1.136-0.65,2.097v5.423h-1.582v-6.064c0-0.703-0.129-1.23-0.387-1.582s-0.68-0.527-1.266-0.527
		c-0.445,0-0.857,0.117-1.234,0.352c-0.379,0.234-0.652,0.577-0.822,1.028s-0.255,1.102-0.255,1.951v4.843H111.224z"/>
	<path d="M126.227,231.432v-1.819h1.582v1.819H126.227z M126.227,242.497v-9.334h1.582v9.334H126.227z"/>
	<path d="M136.606,239.491l1.635,0.202c-0.258,0.955-0.735,1.696-1.433,2.224s-1.588,0.791-2.672,0.791
		c-1.365,0-2.448-0.42-3.247-1.262c-0.801-0.84-1.2-2.02-1.2-3.537c0-1.57,0.404-2.789,1.213-3.656s1.857-1.301,3.146-1.301
		c1.248,0,2.268,0.425,3.059,1.274s1.187,2.045,1.187,3.586c0,0.094-0.003,0.234-0.009,0.422h-6.961
		c0.059,1.025,0.349,1.811,0.87,2.355s1.172,0.817,1.951,0.817c0.58,0,1.075-0.152,1.485-0.457S136.366,240.159,136.606,239.491z
		 M131.412,236.934h5.212c-0.07-0.785-0.27-1.374-0.598-1.767c-0.504-0.609-1.157-0.914-1.96-0.914
		c-0.727,0-1.338,0.243-1.833,0.729S131.465,236.119,131.412,236.934z"/>
	<path d="M140.228,242.497v-9.334h1.424v1.327c0.686-1.025,1.676-1.538,2.971-1.538c0.563,0,1.079,0.102,1.552,0.303
		c0.471,0.203,0.824,0.468,1.059,0.796s0.398,0.718,0.492,1.169c0.059,0.293,0.088,0.806,0.088,1.538v5.739h-1.582v-5.678
		c0-0.645-0.062-1.126-0.185-1.445s-0.342-0.574-0.655-0.766c-0.313-0.189-0.681-0.285-1.103-0.285
		c-0.674,0-1.256,0.214-1.745,0.642s-0.733,1.239-0.733,2.435v5.098H140.228z"/>
	<path d="M153.692,241.082l0.229,1.397c-0.445,0.094-0.844,0.141-1.195,0.141c-0.574,0-1.02-0.091-1.336-0.272
		s-0.539-0.42-0.668-0.716s-0.193-0.919-0.193-1.868v-5.37h-1.16v-1.23h1.16v-2.312l1.573-0.949v3.261h1.591v1.23h-1.591v5.458
		c0,0.451,0.027,0.741,0.083,0.87s0.146,0.231,0.273,0.308c0.125,0.076,0.306,0.114,0.54,0.114
		C153.174,241.144,153.405,241.123,153.692,241.082z"/>
	<path d="M154.65,237.83c0-1.729,0.48-3.009,1.441-3.841c0.803-0.691,1.781-1.037,2.936-1.037c1.283,0,2.332,0.421,3.146,1.262
		s1.222,2.002,1.222,3.484c0,1.201-0.181,2.146-0.54,2.834c-0.361,0.689-0.886,1.224-1.574,1.604s-1.439,0.571-2.254,0.571
		c-1.307,0-2.363-0.419-3.168-1.257C155.053,240.613,154.65,239.406,154.65,237.83z M156.276,237.83
		c0,1.195,0.261,2.091,0.782,2.685c0.521,0.596,1.178,0.893,1.969,0.893c0.785,0,1.438-0.299,1.96-0.896s0.782-1.509,0.782-2.733
		c0-1.154-0.263-2.028-0.787-2.624c-0.524-0.594-1.176-0.892-1.955-0.892c-0.791,0-1.447,0.296-1.969,0.888
		S156.276,236.635,156.276,237.83z"/>
	<path d="M176.307,242.497v-1.178c-0.592,0.926-1.462,1.389-2.61,1.389c-0.744,0-1.429-0.205-2.052-0.615
		c-0.625-0.41-1.107-0.982-1.451-1.719c-0.342-0.734-0.514-1.58-0.514-2.535c0-0.932,0.155-1.776,0.466-2.535
		s0.776-1.341,1.397-1.745s1.315-0.606,2.083-0.606c0.563,0,1.063,0.119,1.503,0.355c0.439,0.238,0.797,0.547,1.072,0.928v-4.623
		h1.573v12.885H176.307z M171.306,237.839c0,1.195,0.252,2.089,0.756,2.681s1.099,0.888,1.784,0.888
		c0.691,0,1.279-0.282,1.762-0.848c0.484-0.565,0.726-1.429,0.726-2.589c0-1.277-0.246-2.215-0.738-2.813s-1.099-0.896-1.819-0.896
		c-0.703,0-1.291,0.287-1.762,0.861C171.541,235.697,171.306,236.603,171.306,237.839z"/>
	<path d="M186.651,239.491l1.635,0.202c-0.258,0.955-0.735,1.696-1.433,2.224s-1.588,0.791-2.672,0.791
		c-1.365,0-2.448-0.42-3.247-1.262c-0.801-0.84-1.2-2.02-1.2-3.537c0-1.57,0.404-2.789,1.213-3.656s1.857-1.301,3.146-1.301
		c1.248,0,2.268,0.425,3.059,1.274s1.187,2.045,1.187,3.586c0,0.094-0.003,0.234-0.009,0.422h-6.961
		c0.059,1.025,0.349,1.811,0.87,2.355s1.172,0.817,1.951,0.817c0.58,0,1.075-0.152,1.485-0.457S186.411,240.159,186.651,239.491z
		 M181.457,236.934h5.212c-0.07-0.785-0.27-1.374-0.598-1.767c-0.504-0.609-1.157-0.914-1.96-0.914
		c-0.727,0-1.338,0.243-1.833,0.729S181.51,236.119,181.457,236.934z"/>
	<path d="M194.641,239.711l1.564-0.246c0.088,0.627,0.332,1.107,0.733,1.441s0.963,0.501,1.684,0.501
		c0.727,0,1.266-0.147,1.617-0.443s0.527-0.644,0.527-1.042c0-0.357-0.155-0.639-0.466-0.844c-0.217-0.141-0.756-0.319-1.617-0.536
		c-1.16-0.293-1.964-0.546-2.413-0.76c-0.447-0.214-0.788-0.51-1.02-0.889c-0.231-0.377-0.347-0.795-0.347-1.252
		c0-0.416,0.095-0.801,0.286-1.156c0.189-0.354,0.449-0.648,0.777-0.883c0.246-0.182,0.581-0.335,1.006-0.461
		s0.881-0.189,1.367-0.189c0.732,0,1.375,0.105,1.93,0.316c0.553,0.211,0.962,0.496,1.226,0.857
		c0.264,0.359,0.445,0.842,0.545,1.445l-1.547,0.211c-0.07-0.48-0.274-0.855-0.61-1.125c-0.338-0.27-0.813-0.404-1.429-0.404
		c-0.727,0-1.245,0.12-1.556,0.36s-0.466,0.521-0.466,0.844c0,0.205,0.064,0.39,0.193,0.554c0.129,0.17,0.331,0.311,0.606,0.422
		c0.158,0.059,0.624,0.193,1.397,0.404c1.119,0.299,1.899,0.544,2.343,0.734c0.441,0.19,0.789,0.467,1.041,0.83
		s0.378,0.814,0.378,1.354c0,0.527-0.153,1.023-0.462,1.49c-0.307,0.465-0.751,0.826-1.331,1.08
		c-0.58,0.256-1.236,0.383-1.969,0.383c-1.213,0-2.138-0.252-2.772-0.756C195.222,241.448,194.816,240.701,194.641,239.711z"/>
	<path d="M204.282,231.432v-1.819h1.582v1.819H204.282z M204.282,242.497v-9.334h1.582v9.334H204.282z"/>
	<path d="M207.64,239.711l1.564-0.246c0.088,0.627,0.332,1.107,0.733,1.441s0.963,0.501,1.684,0.501
		c0.727,0,1.266-0.147,1.617-0.443s0.527-0.644,0.527-1.042c0-0.357-0.155-0.639-0.466-0.844c-0.217-0.141-0.756-0.319-1.617-0.536
		c-1.16-0.293-1.964-0.546-2.413-0.76c-0.447-0.214-0.788-0.51-1.02-0.889c-0.231-0.377-0.347-0.795-0.347-1.252
		c0-0.416,0.095-0.801,0.286-1.156c0.189-0.354,0.449-0.648,0.777-0.883c0.246-0.182,0.581-0.335,1.006-0.461
		s0.881-0.189,1.367-0.189c0.732,0,1.375,0.105,1.93,0.316c0.553,0.211,0.962,0.496,1.226,0.857
		c0.264,0.359,0.445,0.842,0.545,1.445l-1.547,0.211c-0.07-0.48-0.274-0.855-0.61-1.125c-0.338-0.27-0.813-0.404-1.429-0.404
		c-0.727,0-1.245,0.12-1.556,0.36s-0.466,0.521-0.466,0.844c0,0.205,0.064,0.39,0.193,0.554c0.129,0.17,0.331,0.311,0.606,0.422
		c0.158,0.059,0.624,0.193,1.397,0.404c1.119,0.299,1.899,0.544,2.343,0.734c0.441,0.19,0.789,0.467,1.041,0.83
		s0.378,0.814,0.378,1.354c0,0.527-0.153,1.023-0.462,1.49c-0.307,0.465-0.751,0.826-1.331,1.08
		c-0.58,0.256-1.236,0.383-1.969,0.383c-1.213,0-2.138-0.252-2.772-0.756C208.221,241.448,207.815,240.701,207.64,239.711z"/>
	<path d="M220.727,241.082l0.229,1.397c-0.445,0.094-0.844,0.141-1.195,0.141c-0.574,0-1.02-0.091-1.336-0.272
		s-0.539-0.42-0.668-0.716s-0.193-0.919-0.193-1.868v-5.37h-1.16v-1.23h1.16v-2.312l1.573-0.949v3.261h1.591v1.23h-1.591v5.458
		c0,0.451,0.027,0.741,0.083,0.87s0.146,0.231,0.273,0.308c0.125,0.076,0.306,0.114,0.54,0.114
		C220.208,241.144,220.439,241.123,220.727,241.082z"/>
	<path d="M228.663,239.491l1.635,0.202c-0.258,0.955-0.735,1.696-1.433,2.224s-1.588,0.791-2.672,0.791
		c-1.365,0-2.448-0.42-3.247-1.262c-0.801-0.84-1.2-2.02-1.2-3.537c0-1.57,0.404-2.789,1.213-3.656s1.857-1.301,3.146-1.301
		c1.248,0,2.268,0.425,3.059,1.274s1.187,2.045,1.187,3.586c0,0.094-0.003,0.234-0.009,0.422h-6.961
		c0.059,1.025,0.349,1.811,0.87,2.355s1.172,0.817,1.951,0.817c0.58,0,1.075-0.152,1.485-0.457S228.423,240.159,228.663,239.491z
		 M223.469,236.934h5.212c-0.07-0.785-0.27-1.374-0.598-1.767c-0.504-0.609-1.157-0.914-1.96-0.914
		c-0.727,0-1.338,0.243-1.833,0.729S223.522,236.119,223.469,236.934z"/>
	<path d="M232.284,242.497v-9.334h1.415v1.31c0.293-0.457,0.683-0.824,1.169-1.103s1.04-0.418,1.661-0.418
		c0.691,0,1.258,0.144,1.701,0.431c0.441,0.287,0.754,0.688,0.936,1.204c0.738-1.09,1.699-1.635,2.883-1.635
		c0.926,0,1.638,0.257,2.136,0.77s0.747,1.302,0.747,2.368v6.407h-1.573v-5.88c0-0.633-0.052-1.088-0.153-1.366
		c-0.104-0.278-0.289-0.503-0.559-0.673s-0.586-0.255-0.949-0.255c-0.656,0-1.201,0.219-1.635,0.654
		c-0.434,0.438-0.65,1.136-0.65,2.097v5.423h-1.582v-6.064c0-0.703-0.129-1.23-0.387-1.582s-0.68-0.527-1.266-0.527
		c-0.445,0-0.857,0.117-1.234,0.352c-0.379,0.234-0.652,0.577-0.822,1.028s-0.255,1.102-0.255,1.951v4.843H232.284z"/>
	<path d="M253.369,241.346c-0.586,0.498-1.15,0.85-1.691,1.055c-0.543,0.205-1.124,0.308-1.745,0.308
		c-1.025,0-1.813-0.25-2.364-0.752c-0.551-0.5-0.826-1.141-0.826-1.92c0-0.457,0.104-0.875,0.313-1.252
		c0.207-0.379,0.479-0.682,0.816-0.91s0.717-0.401,1.139-0.519c0.311-0.082,0.779-0.161,1.406-0.237
		c1.277-0.152,2.218-0.334,2.821-0.545c0.006-0.217,0.009-0.354,0.009-0.413c0-0.645-0.149-1.099-0.448-1.362
		c-0.404-0.357-1.005-0.536-1.802-0.536c-0.744,0-1.294,0.131-1.648,0.392s-0.616,0.722-0.786,1.384l-1.547-0.211
		c0.141-0.662,0.372-1.196,0.694-1.604c0.322-0.406,0.788-0.721,1.397-0.939c0.609-0.221,1.315-0.33,2.118-0.33
		c0.797,0,1.444,0.094,1.942,0.281s0.864,0.424,1.099,0.707c0.234,0.285,0.398,0.644,0.492,1.077
		c0.053,0.27,0.079,0.756,0.079,1.459v2.109c0,1.471,0.033,2.401,0.101,2.79c0.067,0.391,0.201,0.764,0.4,1.121h-1.652
		C253.522,242.169,253.416,241.785,253.369,241.346z M253.237,237.813c-0.574,0.234-1.436,0.434-2.584,0.598
		c-0.65,0.094-1.11,0.199-1.38,0.316s-0.478,0.289-0.624,0.515s-0.22,0.476-0.22,0.751c0,0.422,0.159,0.773,0.479,1.055
		s0.787,0.422,1.402,0.422c0.609,0,1.151-0.133,1.626-0.399s0.823-0.632,1.046-1.095c0.17-0.357,0.255-0.885,0.255-1.582V237.813z"
		/>
	<path d="M256.656,239.711l1.564-0.246c0.088,0.627,0.332,1.107,0.733,1.441s0.963,0.501,1.684,0.501
		c0.727,0,1.266-0.147,1.617-0.443s0.527-0.644,0.527-1.042c0-0.357-0.155-0.639-0.466-0.844c-0.217-0.141-0.756-0.319-1.617-0.536
		c-1.16-0.293-1.964-0.546-2.413-0.76c-0.447-0.214-0.788-0.51-1.02-0.889c-0.231-0.377-0.347-0.795-0.347-1.252
		c0-0.416,0.095-0.801,0.286-1.156c0.189-0.354,0.449-0.648,0.777-0.883c0.246-0.182,0.581-0.335,1.006-0.461
		s0.881-0.189,1.367-0.189c0.732,0,1.375,0.105,1.93,0.316c0.553,0.211,0.962,0.496,1.226,0.857
		c0.264,0.359,0.445,0.842,0.545,1.445l-1.547,0.211c-0.07-0.48-0.274-0.855-0.61-1.125c-0.338-0.27-0.813-0.404-1.429-0.404
		c-0.727,0-1.245,0.12-1.556,0.36s-0.466,0.521-0.466,0.844c0,0.205,0.064,0.39,0.193,0.554c0.129,0.17,0.331,0.311,0.606,0.422
		c0.158,0.059,0.624,0.193,1.397,0.404c1.119,0.299,1.899,0.544,2.343,0.734c0.441,0.19,0.789,0.467,1.041,0.83
		s0.378,0.814,0.378,1.354c0,0.527-0.153,1.023-0.462,1.49c-0.307,0.465-0.751,0.826-1.331,1.08
		c-0.58,0.256-1.236,0.383-1.969,0.383c-1.213,0-2.138-0.252-2.772-0.756C257.237,241.448,256.832,240.701,256.656,239.711z"/>
	<path d="M266.737,242.497v-1.802h1.802v1.802H266.737z"/>
</g>
<polygon fill="#DB5940" points="27.956,83.542 39.813,90.386 27.956,97.231 "/>
<polygon fill="#DB5940" points="27.956,120.542 39.813,127.386 27.956,134.232 "/>
<polygon fill="#DB5940" points="27.956,156.542 39.813,163.386 27.956,170.232 "/>
<polygon fill="#DB5940" points="27.956,191.542 39.813,198.386 27.956,205.232 "/>
<polygon fill="#DB5940" points="27.956,227.542 39.813,234.386 27.956,241.232 "/>
<g id="XMLID_1_">
	<g id="XMLID_2_">
		<path id="XMLID_21_" fill="#FFFFFF" d="M503.175,179.943c-0.481-1.447-0.964-2.893-1.206-4.339c0-0.481-0.24-0.964-0.24-1.446
			c-0.241-1.205-0.481-2.65-0.723-3.856c0-0.482-0.241-1.204-0.241-1.687c-0.241-1.205-0.241-2.651-0.482-3.856
			c0-0.481-0.241-0.964-0.241-1.687c-0.24-1.929-0.24-3.616-0.24-5.544v-22.415h25.307V68.832h-25.549V40.393h-94.479
			c-6.989,0-12.532,5.544-12.532,12.533v135.693c0,6.99,5.543,12.533,12.532,12.533h108.46c-4.339-6.266-7.714-13.015-10.124-20.486
			C503.175,180.426,503.175,180.184,503.175,179.943L503.175,179.943z"/>
		<path id="XMLID_19_" fill="#F16529" d="M499.559,135.113v22.415c0,1.928,0,3.614,0.242,5.544c0,0.482,0,0.964,0.24,1.687
			c0.241,1.205,0.241,2.651,0.483,3.856c0,0.482,0.241,1.205,0.241,1.687c0.241,1.206,0.481,2.651,0.723,3.856
			c0,0.482,0.241,0.965,0.241,1.446c0.24,1.446,0.723,2.892,1.205,4.339c0,0.24,0.241,0.482,0.241,0.964
			c2.41,7.23,5.784,14.22,10.122,20.486c6.268,8.918,14.221,16.389,23.861,22.174c23.379-13.738,37.84-38.804,37.84-65.798v-22.415
			h-50.131h-25.309V135.113z"/>
		<path id="XMLID_18_" fill="#26B5BB" d="M513.539,201.152c-4.339-6.266-7.714-13.015-10.124-20.486
			C505.585,188.138,509.2,194.887,513.539,201.152L513.539,201.152z"/>
		<polygon id="XMLID_17_" fill="#B3AA8D" points="524.867,68.832 499.559,40.393 499.559,68.832 		"/>
		<path id="XMLID_16_" fill="#414042" d="M572.106,157.287c0,25.308-13.256,48.927-34.706,62.184
			c-8.918-5.544-16.39-12.774-21.933-21.21c-0.724-0.964-1.206-1.929-1.928-2.893c-0.482-0.481-0.724-1.204-1.206-1.928
			c-0.482-0.724-0.964-1.688-1.446-2.41c-0.48-0.724-0.723-1.446-1.204-2.169c-0.241-0.724-0.482-1.206-0.965-1.929
			c-0.724-1.928-1.686-3.856-2.169-5.784c-0.241-0.482-0.241-0.965-0.482-1.205c-0.241-0.965-0.723-1.929-0.963-3.134
			c-0.242-0.723-0.242-1.205-0.482-1.929c-0.241-0.964-0.482-1.928-0.724-2.891c-0.241-0.724-0.241-1.447-0.482-2.411
			c-0.24-0.964-0.24-1.687-0.482-2.651c-0.24-0.964-0.24-1.929-0.24-2.892c0-0.724-0.242-1.446-0.242-1.929
			c0-1.688-0.24-3.374-0.24-5.062v-19.281h22.174h47.24v19.522H572.106z M507.754,198.02H405.079c-5.302,0-9.399-4.338-9.399-9.4
			V52.926c0-5.303,4.339-9.4,9.399-9.4h91.347v25.307c0,1.688,1.446,3.135,3.133,3.135h22.174v60.014h-22.174
			c-1.686,0-3.133,1.446-3.133,3.133v22.415c0,1.688,0,3.614,0.242,5.303c0.722,10.122,3.373,20.005,7.712,29.163
			c0.241,0.24,0.241,0.481,0.481,0.723c0.482,0.965,1.205,2.17,1.688,3.133c0.241,0.483,0.482,0.965,0.965,1.688
			C507.514,197.537,507.514,197.778,507.754,198.02L507.754,198.02z M517.877,65.699h-14.943V48.828l6.749,7.713L517.877,65.699
			L517.877,65.699z M575.239,131.739H528V68.832c0,0,0,0,0-0.24c0-0.24,0-0.481-0.242-0.723v-0.241
			c-0.24-0.241-0.24-0.724-0.48-0.965l-25.309-28.44c-0.24-0.24-0.482-0.48-0.963-0.722c0,0-0.241,0-0.241-0.241
			c-0.241,0-0.482-0.241-0.964-0.241h-0.242h-94.479c-8.677,0.241-15.906,7.23-15.906,15.907v135.693
			c0,8.678,6.989,15.667,15.665,15.667H511.61c6.267,8.677,14.461,16.148,23.86,21.691c0.482,0.241,0.965,0.482,1.688,0.482
			c0.482,0,1.205-0.241,1.688-0.482c24.344-14.22,39.285-40.491,39.285-68.691v-22.415
			C578.372,133.186,576.927,131.739,575.239,131.739L575.239,131.739z"/>
		<path id="XMLID_15_" fill="#FFFFFF" d="M519.565,178.256l12.533,12.533c0.723,0.723,1.445,0.964,2.168,0.964
			c0.724,0,1.688-0.241,2.17-0.964l25.307-25.066l-4.338-4.339l-22.897,22.897l-10.364-10.364L519.565,178.256L519.565,178.256z"/>
		<polygon id="XMLID_14_" fill="#414042" points="408.213,81.366 508.959,81.366 508.959,87.633 408.213,87.633 		"/>
		<polygon id="XMLID_13_" fill="#414042" points="408.213,97.273 508.959,97.273 508.959,103.54 408.213,103.54 		"/>
		<polygon id="XMLID_12_" fill="#414042" points="408.213,112.939 508.959,112.939 508.959,119.206 408.213,119.206 		"/>
		<polygon id="XMLID_11_" fill="#414042" points="408.213,128.607 483.893,128.607 483.893,135.113 408.213,135.113 		"/>
		<polygon id="XMLID_10_" fill="#414042" points="408.213,144.513 483.893,144.513 483.893,150.78 408.213,150.78 		"/>
		<polygon id="XMLID_9_" fill="#414042" points="408.213,160.18 483.893,160.18 483.893,166.445 408.213,166.445 		"/>
		<polygon id="XMLID_8_" fill="#414042" points="408.213,176.087 483.893,176.087 483.893,182.354 408.213,182.354 		"/>
		<polygon id="XMLID_7_" fill="#FFFFFF" points="508.959,144.513 515.467,144.513 515.467,150.78 508.959,150.78 		"/>
		<polygon id="XMLID_6_" fill="#FFFFFF" points="521.732,144.513 528,144.513 528,150.78 521.732,150.78 		"/>
		<polygon id="XMLID_5_" fill="#FFFFFF" points="534.266,144.513 540.533,144.513 540.533,150.78 534.266,150.78 		"/>
		<polygon id="XMLID_4_" fill="#FFFFFF" points="546.799,144.513 553.307,144.513 553.307,150.78 546.799,150.78 		"/>
		<polygon id="XMLID_3_" fill="#FFFFFF" points="559.573,144.513 565.84,144.513 565.84,150.78 559.573,150.78 		"/>
	</g>
</g>
</svg>