<!-- Generator: Adobe Illustrator 17.0.0, SVG Export Plug-In  -->
<svg version="1.1"
	 xmlns="http://www.w3.org/2000/svg" xmlns:xlink="http://www.w3.org/1999/xlink" xmlns:a="http://ns.adobe.com/AdobeSVGViewerExtensions/3.0/"
	 x="0px" y="0px" width="172.313px" height="45.259px" viewBox="0 0 172.313 45.259" enable-background="new 0 0 172.313 45.259"
	 xml:space="preserve">
<defs>
</defs>
<rect x="0" y="2.125" fill="#DB5940" width="172.313" height="43.134"/>
<linearGradient id="SVGID_1_" gradientUnits="userSpaceOnUse" x1="0" y1="21.5679" x2="172.3134" y2="21.5679">
	<stop  offset="0" style="stop-color:#F4F5F5"/>
	<stop  offset="1" style="stop-color:#E7E7E7"/>
</linearGradient>
<rect x="0" y="0" fill="url(#SVGID_1_)" width="172.313" height="43.136"/>
<g>
	<g>
		<path fill="#414042" d="M45.309,27.642V15.17h4.041c1.531,0,2.529,0.063,2.995,0.187c0.714,0.188,1.313,0.595,1.795,1.222
			c0.481,0.626,0.723,1.436,0.723,2.429c0,0.766-0.139,1.409-0.417,1.931c-0.277,0.522-0.631,0.932-1.059,1.229
			c-0.429,0.298-0.863,0.495-1.307,0.592c-0.601,0.118-1.472,0.178-2.611,0.178h-1.642v4.705H45.309z M47.827,17.279v3.539h1.378
			c0.992,0,1.656-0.064,1.99-0.195c0.335-0.131,0.598-0.335,0.787-0.612c0.19-0.278,0.285-0.602,0.285-0.97
			c0-0.454-0.133-0.828-0.399-1.123s-0.604-0.479-1.013-0.554c-0.301-0.057-0.904-0.085-1.813-0.085H47.827z"/>
		<path fill="#414042" d="M59.201,27.642H56.81v-9.035h2.221v1.285c0.38-0.607,0.722-1.007,1.025-1.2
			c0.303-0.192,0.647-0.289,1.033-0.289c0.545,0,1.069,0.15,1.574,0.451l-0.74,2.084c-0.403-0.261-0.777-0.392-1.123-0.392
			c-0.335,0-0.618,0.093-0.851,0.277c-0.233,0.184-0.416,0.518-0.549,0.999c-0.134,0.482-0.2,1.492-0.2,3.029V27.642z"/>
		<path fill="#414042" d="M63.693,17.382V15.17h2.391v2.212H63.693z M63.693,27.642v-9.035h2.391v9.035H63.693z"/>
		<path fill="#414042" d="M76.752,27.642h-2.391V23.03c0-0.976-0.051-1.606-0.153-1.893c-0.102-0.286-0.268-0.509-0.497-0.668
			c-0.23-0.158-0.507-0.238-0.83-0.238c-0.414,0-0.785,0.113-1.114,0.341c-0.329,0.227-0.555,0.527-0.677,0.901
			s-0.183,1.066-0.183,2.076v4.092h-2.391v-9.035h2.221v1.327c0.788-1.021,1.781-1.531,2.978-1.531c0.527,0,1.01,0.095,1.446,0.285
			s0.767,0.433,0.991,0.728c0.224,0.295,0.38,0.63,0.468,1.004s0.132,0.91,0.132,1.607V27.642z"/>
		<path fill="#414042" d="M87.055,21.278l-2.357,0.425c-0.079-0.471-0.259-0.825-0.54-1.063c-0.28-0.238-0.645-0.357-1.093-0.357
			c-0.596,0-1.07,0.206-1.425,0.617s-0.532,1.099-0.532,2.063c0,1.071,0.18,1.829,0.54,2.271s0.844,0.663,1.451,0.663
			c0.453,0,0.825-0.129,1.114-0.387s0.493-0.702,0.612-1.332l2.349,0.4c-0.244,1.077-0.712,1.892-1.404,2.441
			s-1.619,0.825-2.782,0.825c-1.321,0-2.375-0.417-3.16-1.251c-0.785-0.833-1.179-1.987-1.179-3.462
			c0-1.492,0.395-2.653,1.183-3.484c0.789-0.83,1.855-1.246,3.199-1.246c1.101,0,1.975,0.237,2.625,0.711
			C86.304,19.587,86.77,20.309,87.055,21.278z"/>
		<path fill="#414042" d="M88.867,17.382V15.17h2.391v2.212H88.867z M88.867,27.642v-9.035h2.391v9.035H88.867z"/>
		<path fill="#414042" d="M93.64,18.606h2.229v1.327c0.29-0.453,0.681-0.822,1.175-1.105c0.493-0.284,1.04-0.426,1.642-0.426
			c1.049,0,1.939,0.411,2.671,1.233c0.732,0.823,1.098,1.969,1.098,3.438c0,1.509-0.368,2.682-1.105,3.518
			c-0.737,0.837-1.631,1.255-2.681,1.255c-0.499,0-0.951-0.1-1.356-0.298s-0.832-0.539-1.28-1.021v4.552H93.64V18.606z
			 M96.005,22.971c0,1.016,0.201,1.766,0.604,2.251c0.403,0.484,0.894,0.727,1.472,0.727c0.557,0,1.019-0.222,1.387-0.667
			c0.369-0.445,0.554-1.176,0.554-2.191c0-0.947-0.19-1.65-0.57-2.109c-0.38-0.46-0.851-0.689-1.412-0.689
			c-0.584,0-1.069,0.226-1.455,0.677C96.197,21.418,96.005,22.086,96.005,22.971z"/>
		<path fill="#414042" d="M104.351,17.382V15.17h2.391v2.212H104.351z M104.351,27.642v-9.035h2.391v9.035H104.351z"/>
		<path fill="#414042" d="M108.638,22.996c0-0.794,0.196-1.562,0.587-2.305c0.392-0.743,0.946-1.311,1.664-1.702
			c0.717-0.391,1.519-0.587,2.403-0.587c1.366,0,2.486,0.444,3.36,1.332c0.873,0.888,1.31,2.009,1.31,3.364
			c0,1.367-0.44,2.5-1.322,3.398c-0.883,0.899-1.992,1.349-3.331,1.349c-0.828,0-1.618-0.188-2.369-0.562
			c-0.752-0.374-1.323-0.923-1.715-1.646C108.834,24.915,108.638,24.034,108.638,22.996z M111.088,23.124
			c0,0.896,0.213,1.582,0.639,2.059c0.425,0.477,0.949,0.715,1.573,0.715s1.147-0.238,1.57-0.715
			c0.422-0.477,0.634-1.168,0.634-2.075c0-0.885-0.212-1.565-0.634-2.042c-0.423-0.477-0.946-0.715-1.57-0.715
			s-1.148,0.238-1.573,0.715C111.301,21.542,111.088,22.229,111.088,23.124z"/>
		<path fill="#414042" d="M118.991,25.063l2.399-0.365c0.102,0.465,0.309,0.818,0.621,1.059c0.312,0.241,0.748,0.362,1.31,0.362
			c0.618,0,1.084-0.113,1.396-0.341c0.21-0.158,0.314-0.371,0.314-0.638c0-0.182-0.057-0.332-0.17-0.451
			c-0.119-0.113-0.386-0.218-0.8-0.314c-1.928-0.426-3.15-0.814-3.666-1.166c-0.715-0.487-1.072-1.165-1.072-2.033
			c0-0.782,0.309-1.44,0.927-1.974s1.577-0.8,2.876-0.8c1.236,0,2.155,0.201,2.757,0.604c0.601,0.402,1.015,0.998,1.241,1.786
			l-2.254,0.417c-0.097-0.352-0.279-0.621-0.549-0.809c-0.27-0.187-0.653-0.28-1.152-0.28c-0.63,0-1.081,0.088-1.354,0.264
			c-0.182,0.125-0.271,0.286-0.271,0.485c0,0.17,0.079,0.314,0.238,0.434c0.215,0.158,0.959,0.383,2.232,0.672
			s2.162,0.644,2.667,1.063c0.499,0.426,0.749,1.019,0.749,1.778c0,0.828-0.346,1.54-1.038,2.135
			c-0.691,0.596-1.716,0.894-3.071,0.894c-1.23,0-2.204-0.249-2.922-0.749C119.682,26.598,119.213,25.92,118.991,25.063z"/>
	</g>
</g>
</svg>