<?xml version="1.0" encoding="utf-8"?>
<!-- Generator: Adobe Illustrator 17.0.0, SVG Export Plug-In . SVG Version: 6.00 Build 0)  -->
<!DOCTYPE svg PUBLIC "-//W3C//DTD SVG 1.1//EN" "http://www.w3.org/Graphics/SVG/1.1/DTD/svg11.dtd" [
	<!ENTITY ns_extend "http://ns.adobe.com/Extensibility/1.0/">
	<!ENTITY ns_ai "http://ns.adobe.com/AdobeIllustrator/10.0/">
	<!ENTITY ns_graphs "http://ns.adobe.com/Graphs/1.0/">
	<!ENTITY ns_vars "http://ns.adobe.com/Variables/1.0/">
	<!ENTITY ns_imrep "http://ns.adobe.com/ImageReplacement/1.0/">
	<!ENTITY ns_sfw "http://ns.adobe.com/SaveForWeb/1.0/">
	<!ENTITY ns_custom "http://ns.adobe.com/GenericCustomNamespace/1.0/">
	<!ENTITY ns_adobe_xpath "http://ns.adobe.com/XPath/1.0/">
]>
<svg version="1.1" id="Capa_1" xmlns:x="&ns_extend;" xmlns:i="&ns_ai;" xmlns:graph="&ns_graphs;"
	 xmlns="http://www.w3.org/2000/svg" xmlns:xlink="http://www.w3.org/1999/xlink" x="0px" y="0px" width="294.546px"
	 height="134.724px" viewBox="0 0 294.546 134.724" enable-background="new 0 0 294.546 134.724" xml:space="preserve">
<metadata><?xpacket begin="﻿" id="W5M0MpCehiHzreSzNTczkc9d"?>
<x:xmpmeta xmlns:x="adobe:ns:meta/" x:xmptk="Adobe XMP Core 5.5-c014 79.151739, 2013/04/03-12:12:15        ">
   <rdf:RDF xmlns:rdf="http://www.w3.org/1999/02/22-rdf-syntax-ns#">
      <rdf:Description rdf:about=""
            xmlns:dc="http://purl.org/dc/elements/1.1/"
            xmlns:xmp="http://ns.adobe.com/xap/1.0/"
            xmlns:xmpGImg="http://ns.adobe.com/xap/1.0/g/img/"
            xmlns:xmpMM="http://ns.adobe.com/xap/1.0/mm/"
            xmlns:stRef="http://ns.adobe.com/xap/1.0/sType/ResourceRef#"
            xmlns:stEvt="http://ns.adobe.com/xap/1.0/sType/ResourceEvent#"
            xmlns:illustrator="http://ns.adobe.com/illustrator/1.0/"
            xmlns:xmpTPg="http://ns.adobe.com/xap/1.0/t/pg/"
            xmlns:stDim="http://ns.adobe.com/xap/1.0/sType/Dimensions#"
            xmlns:xmpG="http://ns.adobe.com/xap/1.0/g/"
            xmlns:pdf="http://ns.adobe.com/pdf/1.3/">
         <dc:format>image/svg+xml</dc:format>
         <dc:title>
            <rdf:Alt>
               <rdf:li xml:lang="x-default">Imprimir</rdf:li>
            </rdf:Alt>
         </dc:title>
         <xmp:MetadataDate>2017-10-11T11:46:50-05:00</xmp:MetadataDate>
         <xmp:ModifyDate>2017-10-11T11:46:50-05:00</xmp:ModifyDate>
         <xmp:CreateDate>2017-10-11T11:46:49-05:00</xmp:CreateDate>
         <xmp:CreatorTool>Adobe Illustrator CC (Windows)</xmp:CreatorTool>
         <xmp:Thumbnails>
            <rdf:Alt>
               <rdf:li rdf:parseType="Resource">
                  <xmpGImg:width>256</xmpGImg:width>
                  <xmpGImg:height>120</xmpGImg:height>
                  <xmpGImg:format>JPEG</xmpGImg:format>
                  <xmpGImg:image>/9j/4AAQSkZJRgABAgEASABIAAD/7QAsUGhvdG9zaG9wIDMuMAA4QklNA+0AAAAAABAASAAAAAEA&#xA;AQBIAAAAAQAB/+4ADkFkb2JlAGTAAAAAAf/bAIQABgQEBAUEBgUFBgkGBQYJCwgGBggLDAoKCwoK&#xA;DBAMDAwMDAwQDA4PEA8ODBMTFBQTExwbGxscHx8fHx8fHx8fHwEHBwcNDA0YEBAYGhURFRofHx8f&#xA;Hx8fHx8fHx8fHx8fHx8fHx8fHx8fHx8fHx8fHx8fHx8fHx8fHx8fHx8fHx8f/8AAEQgAeAEAAwER&#xA;AAIRAQMRAf/EAaIAAAAHAQEBAQEAAAAAAAAAAAQFAwIGAQAHCAkKCwEAAgIDAQEBAQEAAAAAAAAA&#xA;AQACAwQFBgcICQoLEAACAQMDAgQCBgcDBAIGAnMBAgMRBAAFIRIxQVEGE2EicYEUMpGhBxWxQiPB&#xA;UtHhMxZi8CRygvElQzRTkqKyY3PCNUQnk6OzNhdUZHTD0uIIJoMJChgZhJRFRqS0VtNVKBry4/PE&#xA;1OT0ZXWFlaW1xdXl9WZ2hpamtsbW5vY3R1dnd4eXp7fH1+f3OEhYaHiImKi4yNjo+Ck5SVlpeYmZ&#xA;qbnJ2en5KjpKWmp6ipqqusra6voRAAICAQIDBQUEBQYECAMDbQEAAhEDBCESMUEFURNhIgZxgZEy&#xA;obHwFMHR4SNCFVJicvEzJDRDghaSUyWiY7LCB3PSNeJEgxdUkwgJChgZJjZFGidkdFU38qOzwygp&#xA;0+PzhJSktMTU5PRldYWVpbXF1eX1RlZmdoaWprbG1ub2R1dnd4eXp7fH1+f3OEhYaHiImKi4yNjo&#xA;+DlJWWl5iZmpucnZ6fkqOkpaanqKmqq6ytrq+v/aAAwDAQACEQMRAD8A9U4q7FXYq7FUPf6hY6fa&#xA;vdX06W9un2pJCFHy36n2yMpCIstmPFKcuGIssJm85eYvMkzWnk+0MVoDwl1u6Xig/wCMakdfoJ/y&#xA;RmGdRPJtjG3e7eOgxaccWoNy/mD9P4+Kz/BHm/Rv9yOia295qT/FfW13/dXDe1SaHsKn/ZDB+XyQ&#xA;3jKz1vqy/lDBl9GSHDDoY8x+PwEy0T8xbKe6Gma7A2i6utAYbjaJz0qkh8e1foJyzHqgTwy9MnH1&#xA;HZchHjxHxMflz+TL8y3VOxV2KuxV2KuxV2KuxV2KuxV2KuxV2KuxV2KuxV2KuxV2KuxV2KuxV2Ku&#xA;xV2KuxVpmVVLMQFAqSdgAMVAYbq35ixyXR0vyvanWdUO3NP954+1Xfao+kD3zDnqt+GA4pfY7fD2&#xA;WRHjzHw4fafx+ApWH5f3mpXK6l5xvDqNyPiisEJW2ir2oKcvooPHlgjpTI8WQ2e7oyydpxxjg08e&#xA;Afzv4j+PxTNYYYYIkhhjWKKMBUjQBVUDoABsMzAK5OnlIk2dyvwoS7W/L2j63a/V9StlnQV4OdnQ&#xA;nujj4lyvJijMVIORp9VkwyuBpiH6L86+T/j0mRte0JOthKf9IiX/AIrI60/yf+BzE4MmL6fVHu6u&#xA;18bT6r6x4eT+cOR9/wCPiyLy3510LX14WsvpXq/3tjN8EykdaL+0B4jMjDqIz5c+51+r7Py4PqFx&#xA;7xyT7L3CdirsVdirsVdirsVdirsVdirsVdirsVdirsVdirsVdirsVdirsVdirsVY55k896JobfVi&#xA;zXupv8MWn2/xyFj0DUrxr77+AOY+bUxhtzPc7DSdnZM2/wBMP5x5JEvl7zf5tYTeY5zpWkMeSaRb&#xA;mkjL29Vv61+S5R4WTLvP0x7nMOqwaXbCOPJ/OP6Px8SzPSdF0vSLUWunWyW0I6hBux8WY7sfc5mQ&#xA;xxgKAdTn1E8suKZso3JtLsVdirsVdirHfMnkTRNcb6wymz1Jd4tQt/gkDDoWp9r6d/AjMfLpoz35&#xA;Hvc/Sdo5MO31Q/mnkkI8wecPKJEXmKA6vo67Lq9uKyoO3qqf40/1jlHi5MX1+qPe5v5bT6rfEeDJ&#xA;/NPL4fj4Bmeka3pWsWoutNuUuYT1KndSd6Mp+JT7EZmQyRmLBdTn088UuGYoo3JtLsVdirsVdirs&#xA;VdirsVdirsVdirsVdirsVdirsVdirsVdirsVedxaz5v87Bxox/Qug8ij37HlcSU6hAp2PyI/1s14&#xA;yZM30+mPf1d9LBg0f95+8y/zeg/H4DJ/LfkvQvL6crSL1Lxv729mo8zE9fi/ZB8BmTi08Ycufe67&#xA;V6/Ln+o+nuHJPcvcJ2KuxViX5mee/wDB2gJdwW313U72ZbTTbPejzOCatT4uKgdB1NBtWuKsI1Hz&#xA;p+cvk+C213zZZWF7oMrot9BZVE9qJGoN/s17DdgelRWuKvYLa4hubeK4gbnDMiyROOhVxVT9IOKq&#xA;mKuxVxAYEEVB2IPQjFWGat+XUSXR1TyxcnRdUFTxj/3nk70ZP2QfYU/ycw56XfigeGX2O3wdqEx4&#xA;Mw8SH2j4/j3qvlfzZrE+ryeXtfshb6tDEZhPEQYpYwQOVK7Vr2/DJYc8jLgmPUw1mixjH4uKVwJq&#xA;jzCfNrtisU0piu+MDiNwLK7LFjXdFEXJ12+0oI98ynVr21i0WaaEx3POCP1nItbkqVoDRHEfF2+L&#xA;7Ckt7bHFWk1mzc2wEd0DdV9LlaXKgUNP3hMY9L/npTFVh1+xFu1wYrz01k9IqLK7L8qVqIxFzK/5&#xA;QHH3xVUk1e0jluImjuS1svOQra3LKQaf3bLGVkO/RCTiro9XtHlt4ljuQ1yvOMta3CqBv/eM0YWM&#xA;7dHIOKqY1+xNutwIrz02k9IKbK7D8qVqYzFzC/5RHH3xVe+s2aG5BjuibWnq8bS5YGpp+7IjPq/8&#xA;864q2usWjSxRCO55TReshNrchQtCaOxj4o+32GIb23xVYuu2LRQyiK74zuY0BsrsMGFN3UxckXf7&#xA;TAD3xVt9bslFyTHdUtGCS0s7okksV/dARH1RUdY+Qpv0xVd+l7T1hF6dzyMXr1+q3HHjTlTn6fHn&#xA;/kV5dqVxVamt2TrbMI7oC6YpFWzulIKkL+8BiHpDfrJQd8VabXbJYppDHd8YHEbgWd2WLEkVRRFy&#xA;ddvtICPfFV7axaLNLEY7nlDF6zkWtyVK0DUVxHxd9/sKS3alcVaTWrNzbAR3Q+t1EXK0ulpQ8f3t&#xA;Yx6X/PTj49MVWNr9itu85ivOCSekQLK7L8qE1CCLmV2+0Bx98VVH1i0SW4iMdyWtk9SQra3LKRt/&#xA;dsIysh+L7KEn7jiro9XtHlt41juQ10vKMta3KqBv/eM0YWI7dHIOKsW/J/8A5QyP/jPL+sZh6D+7&#xA;dx25/jB9wZtmY6d2KuxViV1+bP5dWmpSabca7BHeRS+hKhEnFZAeJVpAvAUPU8qDFWD/APOROt6L&#xA;HZaVZQXTHzVZ3cV9ptrCnqmimh9UV+EHqvUkjpSpCrCvzA/NXzh5k8rxaRqehPpOnTvE2rXsatMW&#xA;SNw/wRsEEY5KG4s+9KchkRMHqmi9w0zzv5GtPJdnrMOpxx+X4UjtYrh+XIMgCLGyAc+YputPfpkk&#xA;I7y1548p+ZmnXQtSjvXtgpnRQ6soatDxcKabdRiqeYq7FXYqwn/yr3/bp/5m5h/8iP8ANdx/yA/5&#xA;KfoZtmY6d2KuxV2KuxV2KuxV2KuxV2KuxV2KuxV2KuxV2KuxV2KuxVhP5P8A/KGR/wDGeX9YzD0H&#xA;927jtz/GD7gzbMx07sVdirx78odA8v30/m6/1DSrW+u7XXrowTzW8c0ycCHAjZ1LD4txQ9cVeTaJ&#xA;500ldW1TW9fMja9f3DtIfTLekn++1r9mn2aeAAynLCUuXJnEgJ4fzM8qkEF5SDsQYjlPgSZcYTD8&#xA;lLzR9Q876xodvaC+8sapbfWZbK4hEkMc8LKVYxuGUD4mA/2PhmVC63ayzfyJp2n6d+dnnWz0+2is&#xA;7SK0sfStrdFijXlDEzcUQBRViSffJIer4q7FXYqwn/yr3/bp/wCZuYf/ACI/zXcf8gP+Sn6GbZmO&#xA;ndirsVdirsVdirsVdirsVdirsVdirsVdirsVdirsVdirsVYT+T//AChkf/GeX9YzD0H927jtz/GD&#xA;7gzbMx07sVdirzD8jv8Apsv/AAILv+GKvT8VdirsVeYeU/8Aye/nj/mEsP8AqHhxV6firsVdirCf&#xA;/Kvf9un/AJm5h/8AIj/Ndx/yA/5KfoZtmY6d2KuxV2KuxV2KuxV2KuxV2KuxV2KuxV2KuxV2KuxV&#xA;2KuxVhP5P/8AKGR/8Z5f1jMPQf3buO3P8YPuDNszHTuxVDajqWn6ZZS32oXEdpZwDlLPMwRFHTcn&#xA;xOwxVgX5Xan+X1ve6vY6D5gTUrzVr6bUjA4MTr6lCUjDBefGm5H3Yq9GxV2KrZZY4o3llcRxRgs7&#xA;sQFVQKkknYADFXmnl3zB+WX/ACsfV9YsvM0Nxqeupb2wsz8EQeBVj/dysArl+K0APWtK12Vem4q7&#xA;FXYqwn/yr3/bp/5m5h/8iP8ANdx/yA/5KfoZtmY6d2KuxV2KuxV2KuxV2KuxV2KuxV2KuxV2KuxV&#xA;2KuxV2KuxVhP5P8A/KGR/wDGeX9YzD0H927jtz/GD7gzbMx07sVeQ/nwYH1byZb6y7J5Ulv3/Sxq&#xA;VQsPT9P1CKUXiX3HbliqS/nHa+RrS10C48nLZRealvoP0WulCLk6b05iHYjnw4k/RtXFXvGKuxV5&#xA;t/zkJJqKflrdfVC6wtcQLfsnUW5beu42L8BirGvP+n/k1H+Vckml/o9ZUgQ6PPAY/rjTfDx5EUlY&#xA;n/dgbpvXpir1HyJJqEvkrQpNRLG+ewt2uDJ9ssYl3b/KPfFU9xV2KsJ/8q9/26f+ZuYf/Ij/ADXc&#xA;f8gP+Sn6GbZmOndirsVdirsVdirsVdirsVdirsVdirsVdirsVdirsVdirsVYT+T/APyhkf8Axnl/&#xA;WMw9B/du47c/xg+4M2zMdOtlljhieWVgkUal3dtgFUVJPyxV82a1rWs/mdqFxc3VzLZeUbeYpp+n&#xA;RniZuHSSXqC3zrToO5ynLl4dhzZxjaEl/LrTrdo7rRbmfTdTtyHtrlJG2kXoT+0P9icqjqD1ZGAe&#xA;ufk55/1HzLp17peuADzDoriK8cAKJkaoSWgoK/CQ1Nuh70zKBsW1EPRMKvAvzF82a55y8z3/AJW0&#xA;u7ex8s6Wxg1SaLZ7mYEh0r/KCCvHptU12GV5MnCGUY2xyT8sPLZgCQmeKZfs3Akq1exII4/cBmOM&#xA;8mfAHoX5QefNd/Tc/knzNOby9hiM+lai/wBuaJftI5JqzAbgnfZqnYZlQkJC2sinr2SQ7FWE/wDl&#xA;Xv8At0/8zcw/+RH+a7j/AJAf8lP0M2zMdO7FXYq7FXYq7FXYq7FXYq7FXYq7FXYq7FXYq7FXYq7F&#xA;XYqwH8nNQsX8s/UFnQ3sUsjyW9aOFYijcetPfMHQSHBXV3nbuKQzcVekgbs+zOdGhNX06PU9KvdN&#xA;ldo472CW2eSOnNVlQoWWoIqOW2KvJLX/AJx3vbSBbe1843kMCV4RpAFUVNTQCXxORMAeibKr/wAq&#xA;C1b/AKna+/5Ff9fcfDj3LxFkf5eflPH5P1e/1aXV59VvL6JYGaVBGAqkGp+Jyx+EAb7ZICkM+xV4&#xA;/P8A84+SDUL250/zVeWUV7O9w0KxA0MjE7sJE5Ur1pgMQeaQWv8AlQWrf9Ttff8AIr/r7g8OPcvE&#xA;Ux8p/kidD82WXmO68w3Op3FgsiwxyxKtRJG0ZBYtJtSQ7DCAByUl6hhQ7FWA2WoWV/8Am1JJZTpc&#xA;RxaaYpJIzyUOsgJWo22rmDGQln2/mu8yYpQ0IEhVz/Qy5taiWKaT6rdkQuIyot5CzVr8SCnxLt1G&#xA;Zzo17arGs0sX1e5Jij9UuIXKsKA8UNPiff7OKtJq8bm2AtrofWa05QSAJQ0/eVHwfTiqw65ELZp/&#xA;ql4QsnpemLeTmTSvILSvH3xVUk1WNJbiP6vcsbdeRZYXKv02jNPjO/QYq6PVY3lt4/q9ypuF5Bmh&#xA;cKnXaQ0+A7dDiqmNciNss/1S8AaT0vTNvJzBpXkVpXj74qvfV40NyDbXR+rUrxgkIepp+7oPj+jF&#xA;W11WNpoovq9yDLH6ocwuFUUJ4uafC+32cVWLrUTRQyfVbsCZzGFNvIGWlPicU+Fd+pxVt9YiUXJ+&#xA;q3R+rMFIEEhL1YrWLb4xt1HbFV36Vj9YRfV7mpi9bn6L8aUrxrT7f+T1xVausxsts31W6H1liigw&#xA;OClCFrJt8A36nFWm1qJYppPqt2fQcRlRbyFmqSOSCnxLt1GKr21WMTSxfV7kmKL1eYgkKsKA8VNN&#xA;33+zirUerxubYC2uh9Zrx5QSDhQ0/eVHwfTiqxtciW3eb6peEJJ6XAW8hcmhPILSpXbriqo+qxpL&#xA;cR/V7ljbpzLrBIVfptGafEd+gxV0eqxvLbxi3uVNyvIM0LhU67SEiiHbocVSXzH5A0fV5vrtuW03&#xA;V1PKPULb4W5eLgEcvnsffMbLpYz3G0u92Ol7TyYhwn1w/mlJ4/Nfmjys623my2N7p1QsWtWorsen&#xA;qrtv9x/1sqGeeLbILHeHLOiw6kXgPDP+Yf0fj5M103VNO1O1W6sLhLm3bo8Zrv4EdQfY5mQmJCwb&#xA;dPlwzxy4ZCiisk1uxV2KuxV2KuxV2KpB5k87aFoC8LqUzXrf3VlD8crE9Kj9mvv9GUZtRGHPn3Od&#xA;pOz8ufeIqPeeTHv0T5184HnrEjaFoT9NOhP+kSr/AMWE9P8AZf8AA98x+DJl+r0x7urn+Np9L/dj&#xA;xMn848h7vx8WX6J5e0fRLb6vptssCGnNhu7kd3c/E2ZePFGAqIdTqNVkzSuZtMcsaHYq7FXYq7FX&#xA;Yq7FXYq7FXYq7FXYq7FXYq7FXYq7FXYq7FXYqtkjjkRo5FDxuCrowBBB6gg4kJBINhhepfl5JZ3T&#xA;an5SuzpN91e1620n+SV34/cR7DMOelo8WM8J+x2+LtQSjwZxxx7/AOIO0z8xHtbpdM822h0i/wCi&#xA;XJqbaXtVX34/OpHuMYaqjw5Bwn7Fzdl8UePAeOPd/EGapIkiK8bB0YAqymoIPQgjMwF1BBBot4od&#xA;irsVQOr63pWj2hutSuUt4RXjyPxMR2RR8TH2GQyZIwFkt2DTzyy4YCyw06/5w83ExeXoTpGjsaNq&#xA;1wKSuP8AipR/D/ghmH4uTL9Hpj3u2/LafS75Tx5P5o5fH8fBPvLfkXRNCProhu9SbeW/uPjlJPXj&#xA;X7P0b+JOX4dNGG/M97havtHJm2Pph/NHJkWZDgOxV2KuxV2KuxV2KuxV2KuxV2KuxV2KuxV2KuxV&#xA;2KuxV2KuxV2KuxV2KuxVC6npWnapaNaahbpc27dUcVofFT1U+43yM4CQoi23DmnjlxQNFhT+VvNX&#xA;lZ2uPKtyb7TalpNGujUgdT6TbfwP+tmGcM8W+M2O5241mDUis44Z/wA8fp/HyTny55+0fV5vqUwb&#xA;TtWU8ZNPufgfn4ITTl8uvtluLUxnsdpdziars3JiHEPXD+cGRzzwW8LzTyLFDGOTyOQqqPEk7DMg&#xA;kDcuBGJkaAssJvvP99qly+neTbM6hOu0uoyArbRe9TSv0/RXMOWqMjWMX59Hb4+zI4xx6iXCP5vU&#xA;/j8UraR+XUJuxqnma5bWtVND+8/3nj70RO4HuKf5Iww0gvimeKTDP2oeHgwjw4fafj+PezMAKAAK&#xA;AbADoBmY6l2KuxV2KuxV2KuxV2KuxV2KuxV2KuxV2KuxV2KuxV2KuxV2KuxV2KuxV2KuxV2KuxV2&#xA;KpL5j8n6F5gi438H79RSO7j+GZPk3f5GoynLgjk5uZpddlwH0nbu6Mcg/LS/upkh8wa3PqWl2p/0&#xA;W0qych29U1PTp4+46ZjjSE/XK4hz5drRiLxYxCZ5n9TNrGwsrC2S1soEt7ePZIowFUfdmZGIiKDp&#xA;8mSUzxSNlXyTB2KuxV2KuxV2KuxV2KuxV2KuxV2KuxV2KuxV2KuxV2KuxV2KuxV2KuxV2Kv/2Q==</xmpGImg:image>
               </rdf:li>
            </rdf:Alt>
         </xmp:Thumbnails>
         <xmpMM:InstanceID>xmp.iid:095b63e6-1310-674a-b194-4369dad54dd3</xmpMM:InstanceID>
         <xmpMM:DocumentID>xmp.did:095b63e6-1310-674a-b194-4369dad54dd3</xmpMM:DocumentID>
         <xmpMM:OriginalDocumentID>uuid:5D20892493BFDB11914A8590D31508C8</xmpMM:OriginalDocumentID>
         <xmpMM:RenditionClass>proof:pdf</xmpMM:RenditionClass>
         <xmpMM:DerivedFrom rdf:parseType="Resource">
            <stRef:instanceID>uuid:ff470bc6-f939-440e-8f31-27b0eb70075c</stRef:instanceID>
            <stRef:documentID>xmp.did:4de20fe2-e96f-dd46-b8bd-1606dc72d06f</stRef:documentID>
            <stRef:originalDocumentID>uuid:5D20892493BFDB11914A8590D31508C8</stRef:originalDocumentID>
            <stRef:renditionClass>proof:pdf</stRef:renditionClass>
         </xmpMM:DerivedFrom>
         <xmpMM:History>
            <rdf:Seq>
               <rdf:li rdf:parseType="Resource">
                  <stEvt:action>saved</stEvt:action>
                  <stEvt:instanceID>xmp.iid:095b63e6-1310-674a-b194-4369dad54dd3</stEvt:instanceID>
                  <stEvt:when>2017-10-11T11:46:50-05:00</stEvt:when>
                  <stEvt:softwareAgent>Adobe Illustrator CC (Windows)</stEvt:softwareAgent>
                  <stEvt:changed>/</stEvt:changed>
               </rdf:li>
            </rdf:Seq>
         </xmpMM:History>
         <illustrator:StartupProfile>Print</illustrator:StartupProfile>
         <xmpTPg:HasVisibleOverprint>False</xmpTPg:HasVisibleOverprint>
         <xmpTPg:HasVisibleTransparency>False</xmpTPg:HasVisibleTransparency>
         <xmpTPg:NPages>1</xmpTPg:NPages>
         <xmpTPg:MaxPageSize rdf:parseType="Resource">
            <stDim:w>294.546021</stDim:w>
            <stDim:h>134.723999</stDim:h>
            <stDim:unit>Pixels</stDim:unit>
         </xmpTPg:MaxPageSize>
         <xmpTPg:PlateNames>
            <rdf:Seq>
               <rdf:li>Cyan</rdf:li>
               <rdf:li>Magenta</rdf:li>
               <rdf:li>Yellow</rdf:li>
               <rdf:li>Black</rdf:li>
            </rdf:Seq>
         </xmpTPg:PlateNames>
         <xmpTPg:SwatchGroups>
            <rdf:Seq>
               <rdf:li rdf:parseType="Resource">
                  <xmpG:groupName>Grupo de muestras por defecto</xmpG:groupName>
                  <xmpG:groupType>0</xmpG:groupType>
               </rdf:li>
            </rdf:Seq>
         </xmpTPg:SwatchGroups>
         <pdf:Producer>Adobe PDF library 10.01</pdf:Producer>
      </rdf:Description>
   </rdf:RDF>
</x:xmpmeta>
                                                                                                    
                                                                                                    
                                                                                                    
                                                                                                    
                                                                                                    
                                                                                                    
                                                                                                    
                                                                                                    
                                                                                                    
                                                                                                    
                                                                                                    
                                                                                                    
                                                                                                    
                                                                                                    
                                                                                                    
                                                                                                    
                                                                                                    
                                                                                                    
                                                                                                    
                                                                                                    
                           
<?xpacket end="w"?>
	</metadata>
<polygon fill="#FFFFFF" stroke="#DB5940" stroke-width="3" stroke-miterlimit="10" points="58.338,132.992 1.5,100.175 1.5,34.546 
	58.338,1.732 115.175,34.546 115.175,100.175 "/>
<line fill="none" stroke="#414042" stroke-linecap="round" stroke-linejoin="round" stroke-miterlimit="10" stroke-dasharray="2.726,2.726" x1="120.977" y1="99.314" x2="294.546" y2="99.314"/>
<line fill="none" stroke="#414042" stroke-linecap="round" stroke-linejoin="round" stroke-miterlimit="10" stroke-dasharray="2.726,2.726" x1="120.977" y1="34.943" x2="294.546" y2="34.943"/>
<g>
	<g>
		<g>
			<path fill="#414042" d="M58.338,30.592c-3.784,0-6.862,3.078-6.862,6.86c0,3.783,3.078,6.863,6.862,6.863
				c3.78,0,6.86-3.08,6.86-6.863C65.198,33.671,62.118,30.592,58.338,30.592z M58.338,41.571c-2.271,0-4.118-1.848-4.118-4.118
				s1.848-4.119,4.118-4.119c2.269,0,4.118,1.849,4.118,4.119S60.606,41.571,58.338,41.571z"/>
		</g>
	</g>
	<g>
		<g>
			<g>
				<path fill="#B3AA8D" d="M47.919,53.542c0,0,0.336-9.756,10.09-10.198c9.754-0.442,10.632,8.881,10.742,9.543
					c0.108,0.655-1.316,0.655-1.316,0.655H47.919z"/>
			</g>
			<g>
				<g>
					<g>
						<path fill="#414042" d="M58.338,41.571c-6.812,0-12.354,5.544-12.354,12.355c0,0.762,0.613,1.372,1.373,1.372h21.961
							c0.757,0,1.371-0.61,1.371-1.372C70.688,47.115,65.147,41.571,58.338,41.571z M48.827,52.554
							c0.664-4.651,4.678-8.238,9.511-8.238c4.831,0,8.843,3.587,9.511,8.238H48.827z"/>
					</g>
				</g>
			</g>
		</g>
	</g>
	<g>
		<g>
			<path fill="#414042" d="M39.116,71.774c-3.782,0-6.863,3.081-6.863,6.862c0,3.783,3.081,6.863,6.863,6.863
				c3.786,0,6.867-3.08,6.867-6.863C45.983,74.855,42.902,71.774,39.116,71.774z M39.116,82.755c-2.267,0-4.115-1.848-4.115-4.119
				c0-2.27,1.849-4.114,4.115-4.114c2.273,0,4.121,1.845,4.121,4.114C43.237,80.908,41.39,82.755,39.116,82.755z"/>
		</g>
	</g>
	<g>
		<g>
			<g>
				<path fill="#B3AA8D" d="M29.028,94.755c0,0,0.338-9.757,10.088-10.197c9.755-0.44,10.631,8.881,10.741,9.541
					c0.11,0.656-1.316,0.656-1.316,0.656H29.028z"/>
			</g>
			<g>
				<g>
					<g>
						<path fill="#414042" d="M39.116,82.755c-6.809,0-12.35,5.539-12.35,12.354c0,0.758,0.611,1.373,1.37,1.373H50.1
							c0.755,0,1.376-0.615,1.376-1.373C51.476,88.295,45.93,82.755,39.116,82.755z M29.609,93.736
							c0.667-4.652,4.677-8.236,9.507-8.236c4.834,0,8.844,3.584,9.517,8.236H29.609z"/>
					</g>
				</g>
			</g>
		</g>
	</g>
	<g>
		<g>
			<path fill="#414042" d="M77.554,71.774c-3.783,0-6.865,3.081-6.865,6.862c0,3.783,3.082,6.863,6.865,6.863
				c3.785,0,6.865-3.08,6.865-6.863C84.419,74.855,81.339,71.774,77.554,71.774z M77.554,82.755c-2.268,0-4.118-1.848-4.118-4.119
				c0-2.27,1.851-4.114,4.118-4.114c2.27,0,4.116,1.845,4.116,4.114C81.67,80.908,79.823,82.755,77.554,82.755z"/>
		</g>
	</g>
	<path fill="#B3AA8D" d="M67.137,94.755c0,0,0.339-9.757,10.093-10.197c9.748-0.44,10.629,8.881,10.738,9.541
		c0.111,0.656-1.316,0.656-1.316,0.656H67.137z"/>
	<g>
		<g>
			<path fill="#414042" d="M77.554,82.755c-6.81,0-12.355,5.539-12.355,12.354c0,0.758,0.618,1.373,1.373,1.373h21.964
				c0.759,0,1.374-0.615,1.374-1.373C89.907,88.295,84.364,82.755,77.554,82.755z M68.046,93.736c0.666-4.652,4.68-8.236,9.51-8.236
				c4.834,0,8.842,3.584,9.511,8.236H68.046z"/>
		</g>
	</g>
	<g>
		<g>
			<path fill="#414042" d="M44.612,44.316h-5.496c-0.758,0-1.37,0.62-1.37,1.377v21.963c0,0.756,0.612,1.371,1.37,1.371
				c0.761,0,1.371-0.615,1.371-1.371V47.063h4.125c0.755,0,1.371-0.61,1.371-1.373C45.983,44.936,45.367,44.316,44.612,44.316z"/>
		</g>
	</g>
	<g>
		<g>
			<path fill="#414042" d="M77.554,44.316h-5.492c-0.757,0-1.373,0.62-1.373,1.377c0,0.76,0.616,1.37,1.373,1.37h4.123v20.593
				c0,0.756,0.611,1.371,1.369,1.371c0.76,0,1.375-0.615,1.375-1.371V45.69C78.929,44.936,78.311,44.316,77.554,44.316z"/>
		</g>
	</g>
</g>
<g>
	<g>
		<path fill="#FFFFFF" d="M195.234,53.295v10.242h-1.197V53.295h-3.173v-0.961h7.544v0.961H195.234z"/>
		<path fill="#FFFFFF" d="M207.604,60.944c0,0.38-0.091,0.737-0.273,1.07s-0.427,0.625-0.733,0.875s-0.662,0.446-1.066,0.59
			c-0.405,0.144-0.834,0.215-1.285,0.215h-0.956c-0.452,0-0.881-0.071-1.285-0.215c-0.405-0.144-0.762-0.34-1.067-0.59
			c-0.307-0.25-0.551-0.542-0.733-0.875s-0.273-0.69-0.273-1.07v-0.445l1.197-0.164v0.609c0,0.25,0.06,0.483,0.181,0.699
			c0.12,0.216,0.283,0.406,0.487,0.57s0.44,0.293,0.71,0.387c0.269,0.094,0.552,0.141,0.849,0.141h0.835
			c0.298,0,0.579-0.047,0.845-0.141c0.267-0.094,0.501-0.223,0.705-0.387s0.367-0.354,0.487-0.57
			c0.121-0.216,0.182-0.449,0.182-0.699v-0.336c0-0.386-0.09-0.706-0.27-0.961s-0.418-0.473-0.715-0.652s-0.632-0.332-1.007-0.457
			c-0.374-0.125-0.759-0.25-1.155-0.375s-0.781-0.263-1.155-0.414s-0.71-0.34-1.007-0.566s-0.535-0.504-0.715-0.832
			c-0.179-0.328-0.269-0.731-0.269-1.211v-0.211c0-0.38,0.085-0.737,0.255-1.07s0.404-0.625,0.701-0.875s0.645-0.446,1.044-0.59
			c0.398-0.144,0.824-0.215,1.275-0.215h0.854c0.451,0,0.875,0.071,1.271,0.215s0.743,0.34,1.04,0.59s0.53,0.542,0.7,0.875
			s0.255,0.69,0.255,1.07v0.289l-1.196,0.164v-0.453c0-0.25-0.056-0.483-0.167-0.699c-0.112-0.216-0.264-0.405-0.455-0.566
			c-0.192-0.161-0.416-0.289-0.673-0.383s-0.533-0.141-0.831-0.141h-0.742c-0.297,0-0.573,0.047-0.83,0.141
			s-0.482,0.222-0.678,0.383c-0.194,0.161-0.348,0.351-0.459,0.566s-0.167,0.449-0.167,0.699v0.211c0,0.359,0.089,0.661,0.269,0.906
			s0.418,0.454,0.715,0.629s0.633,0.325,1.007,0.453s0.76,0.258,1.155,0.391s0.781,0.278,1.155,0.438s0.71,0.354,1.007,0.586
			s0.535,0.515,0.715,0.848s0.269,0.739,0.269,1.219v0.334H207.604z"/>
		<path fill="#FFFFFF" d="M217.408,57.553c-0.171,0.333-0.404,0.625-0.701,0.875s-0.645,0.446-1.044,0.59
			c-0.398,0.144-0.824,0.215-1.275,0.215h-3.017v4.305h-1.197V52.335h4.214c0.451,0,0.877,0.071,1.275,0.215
			c0.399,0.144,0.747,0.34,1.044,0.59s0.53,0.543,0.701,0.879c0.17,0.336,0.255,0.694,0.255,1.074v1.391
			C217.663,56.863,217.578,57.22,217.408,57.553z M216.466,55.092c0-0.25-0.056-0.483-0.167-0.699s-0.265-0.406-0.459-0.57
			c-0.195-0.164-0.421-0.293-0.678-0.387s-0.533-0.141-0.83-0.141h-2.961v4.977h2.961c0.297,0,0.573-0.047,0.83-0.141
			s0.482-0.222,0.678-0.383c0.194-0.161,0.348-0.351,0.459-0.566s0.167-0.449,0.167-0.699V55.092z"/>
	</g>
</g>
<g>
	<g>
		<path fill="#FFFFFF" d="M130.41,76.628c0-0.707,0.08-1.364,0.241-1.974c0.16-0.609,0.384-1.178,0.671-1.705
			c0.286-0.526,0.627-1.016,1.021-1.466c0.395-0.451,0.825-0.869,1.293-1.254l0.543,0.457c-0.412,0.359-0.793,0.758-1.143,1.193
			c-0.349,0.436-0.649,0.904-0.9,1.406c-0.252,0.501-0.447,1.031-0.588,1.59c-0.142,0.559-0.212,1.143-0.212,1.752
			s0.07,1.193,0.212,1.752c0.141,0.559,0.336,1.089,0.588,1.59c0.251,0.502,0.552,0.971,0.9,1.406
			c0.35,0.436,0.73,0.834,1.143,1.193l-0.543,0.457c-0.468-0.385-0.898-0.803-1.293-1.254c-0.395-0.45-0.735-0.94-1.021-1.47
			c-0.287-0.528-0.511-1.098-0.671-1.707C130.49,77.987,130.41,77.331,130.41,76.628z"/>
		<path fill="#FFFFFF" d="M138.5,72.102v8.322h-0.973v-8.322h-2.578v-0.78h6.13v0.78H138.5z"/>
		<path fill="#FFFFFF" d="M147.295,79.383c-0.118,0.232-0.28,0.436-0.486,0.609s-0.447,0.31-0.724,0.409s-0.57,0.149-0.882,0.149
			h-0.618c-0.313,0-0.606-0.05-0.883-0.149s-0.518-0.235-0.724-0.409s-0.368-0.377-0.486-0.609s-0.177-0.48-0.177-0.742v-2.934
			c0-0.262,0.059-0.51,0.177-0.742s0.28-0.436,0.486-0.609s0.447-0.31,0.724-0.409s0.57-0.149,0.883-0.149h0.618
			c0.312,0,0.605,0.05,0.882,0.149s0.518,0.235,0.724,0.409s0.368,0.377,0.486,0.609s0.178,0.48,0.178,0.742v1.53h-4.23v1.447
			c0,0.156,0.035,0.304,0.105,0.441s0.166,0.257,0.287,0.358c0.12,0.102,0.263,0.182,0.426,0.241s0.338,0.089,0.524,0.089h0.618
			c0.186,0,0.36-0.029,0.523-0.089c0.164-0.06,0.306-0.14,0.427-0.241c0.12-0.102,0.216-0.221,0.286-0.358s0.105-0.285,0.105-0.441
			v-0.432l0.928,0.127v0.261C147.473,78.903,147.413,79.151,147.295,79.383z M146.545,75.664c0-0.156-0.035-0.304-0.105-0.441
			s-0.166-0.257-0.286-0.358c-0.121-0.102-0.263-0.182-0.427-0.241c-0.163-0.06-0.338-0.089-0.523-0.089h-0.618
			c-0.187,0-0.361,0.029-0.524,0.089s-0.306,0.14-0.426,0.241c-0.121,0.102-0.217,0.221-0.287,0.358s-0.105,0.285-0.105,0.441v0.965
			h3.303v-0.965H146.545z"/>
		<path fill="#FFFFFF" d="M154.176,80.424l-0.513-0.647c-0.211,0.232-0.475,0.42-0.792,0.562c-0.316,0.142-0.663,0.213-1.04,0.213
			h-0.233c-0.313,0-0.606-0.05-0.883-0.149s-0.518-0.235-0.724-0.409s-0.368-0.377-0.486-0.609s-0.177-0.48-0.177-0.742v-0.064
			c0-0.262,0.059-0.51,0.177-0.742s0.28-0.436,0.486-0.609s0.447-0.31,0.724-0.409s0.57-0.149,0.883-0.149h1.96v-1.003
			c0-0.156-0.035-0.304-0.105-0.441s-0.166-0.257-0.286-0.358c-0.121-0.102-0.263-0.182-0.427-0.241
			c-0.163-0.06-0.338-0.089-0.523-0.089h-0.543c-0.187,0-0.361,0.029-0.524,0.089s-0.305,0.14-0.426,0.241s-0.216,0.221-0.286,0.358
			c-0.071,0.138-0.105,0.285-0.105,0.441v0.235l-0.928-0.127v-0.064c0-0.262,0.059-0.51,0.177-0.742s0.28-0.436,0.486-0.609
			s0.447-0.31,0.725-0.409c0.276-0.1,0.57-0.149,0.882-0.149h0.543c0.312,0,0.605,0.05,0.882,0.149s0.518,0.235,0.724,0.409
			s0.368,0.377,0.486,0.609s0.178,0.48,0.178,0.742v4.717h-0.312V80.424z M153.558,77.276h-1.96c-0.187,0-0.361,0.029-0.524,0.089
			s-0.306,0.141-0.426,0.244c-0.121,0.104-0.217,0.225-0.287,0.362s-0.105,0.284-0.105,0.441v0.272c0,0.156,0.035,0.304,0.105,0.441
			s0.166,0.257,0.287,0.358c0.12,0.102,0.263,0.182,0.426,0.241s0.338,0.089,0.524,0.089h0.618c0.186,0,0.36-0.029,0.523-0.089
			c0.164-0.06,0.306-0.14,0.427-0.241c0.12-0.102,0.216-0.221,0.286-0.358s0.105-0.285,0.105-0.441v-1.408H153.558z"/>
		<path fill="#FFFFFF" d="M164.49,80.424v-4.761c0-0.156-0.035-0.304-0.105-0.441s-0.166-0.257-0.287-0.358
			c-0.12-0.102-0.263-0.182-0.426-0.241s-0.338-0.089-0.523-0.089h-0.46c-0.187,0-0.361,0.029-0.524,0.089s-0.307,0.14-0.43,0.241
			s-0.22,0.221-0.29,0.358s-0.105,0.285-0.105,0.441v4.761h-0.92v-4.761c0-0.156-0.035-0.304-0.105-0.441
			c-0.071-0.138-0.168-0.257-0.291-0.358s-0.267-0.182-0.43-0.241s-0.338-0.089-0.523-0.089h-0.46c-0.187,0-0.361,0.029-0.524,0.089
			s-0.306,0.14-0.426,0.241c-0.121,0.102-0.217,0.221-0.287,0.358s-0.105,0.285-0.105,0.441v4.761h-0.927v-6.5h0.309l0.506,0.66
			c0.211-0.241,0.476-0.433,0.795-0.574s0.667-0.213,1.044-0.213h0.076c0.437,0,0.831,0.091,1.184,0.273
			c0.352,0.182,0.623,0.423,0.814,0.723c0.095-0.147,0.213-0.283,0.354-0.406c0.141-0.122,0.296-0.227,0.467-0.313
			s0.357-0.154,0.559-0.203c0.2-0.049,0.409-0.073,0.625-0.073h0.076c0.312,0,0.605,0.05,0.882,0.149s0.518,0.235,0.724,0.409
			s0.368,0.377,0.486,0.609s0.178,0.48,0.178,0.742v4.717C165.421,80.424,164.49,80.424,164.49,80.424z"/>
		<path fill="#FFFFFF" d="M177.06,78.317c0,0.309-0.074,0.599-0.223,0.869c-0.148,0.271-0.347,0.508-0.596,0.711
			s-0.538,0.363-0.867,0.479s-0.677,0.175-1.044,0.175h-0.776c-0.367,0-0.716-0.059-1.045-0.175s-0.618-0.276-0.867-0.479
			c-0.248-0.203-0.447-0.439-0.596-0.711c-0.147-0.271-0.222-0.561-0.222-0.869v-0.361l0.973-0.134v0.495
			c0,0.203,0.049,0.393,0.146,0.568c0.099,0.176,0.23,0.33,0.396,0.463c0.165,0.134,0.357,0.238,0.576,0.314s0.449,0.114,0.69,0.114
			h0.679c0.241,0,0.47-0.038,0.686-0.114s0.407-0.181,0.573-0.314s0.298-0.287,0.396-0.463c0.099-0.176,0.147-0.365,0.147-0.568
			v-0.273c0-0.313-0.073-0.573-0.219-0.78s-0.34-0.384-0.581-0.53c-0.241-0.146-0.514-0.27-0.817-0.371
			c-0.305-0.102-0.617-0.203-0.939-0.305c-0.321-0.102-0.634-0.214-0.938-0.336c-0.304-0.123-0.576-0.276-0.818-0.461
			c-0.241-0.184-0.435-0.409-0.58-0.676s-0.219-0.595-0.219-0.984V73.43c0-0.309,0.069-0.599,0.207-0.87
			c0.139-0.271,0.328-0.508,0.569-0.711s0.524-0.362,0.849-0.479s0.67-0.175,1.037-0.175h0.693c0.367,0,0.711,0.059,1.033,0.175
			c0.321,0.116,0.603,0.275,0.844,0.479s0.432,0.44,0.569,0.711c0.139,0.271,0.208,0.562,0.208,0.87v0.235l-0.973,0.133V73.43
			c0-0.203-0.046-0.393-0.136-0.568c-0.091-0.176-0.214-0.329-0.37-0.46c-0.155-0.131-0.338-0.234-0.546-0.311
			c-0.209-0.076-0.434-0.115-0.675-0.115h-0.604c-0.241,0-0.467,0.039-0.675,0.115c-0.209,0.076-0.393,0.18-0.551,0.311
			s-0.282,0.284-0.373,0.46s-0.136,0.365-0.136,0.568v0.17c0,0.293,0.073,0.538,0.219,0.736c0.146,0.199,0.339,0.37,0.58,0.512
			c0.242,0.142,0.515,0.265,0.818,0.368c0.305,0.104,0.617,0.209,0.938,0.317c0.322,0.107,0.635,0.227,0.939,0.355
			c0.304,0.129,0.576,0.287,0.817,0.476s0.436,0.418,0.581,0.688c0.146,0.271,0.219,0.602,0.219,0.99v0.275H177.06z"/>
		<path fill="#FFFFFF" d="M183.819,79.383c-0.118,0.232-0.28,0.436-0.486,0.609s-0.447,0.31-0.724,0.409s-0.57,0.149-0.882,0.149
			h-0.618c-0.313,0-0.606-0.05-0.883-0.149s-0.518-0.235-0.724-0.409s-0.368-0.377-0.486-0.609s-0.177-0.48-0.177-0.742v-2.934
			c0-0.262,0.059-0.51,0.177-0.742s0.28-0.436,0.486-0.609s0.447-0.31,0.724-0.409s0.57-0.149,0.883-0.149h0.618
			c0.312,0,0.605,0.05,0.882,0.149s0.518,0.235,0.724,0.409s0.368,0.377,0.486,0.609s0.178,0.48,0.178,0.742v2.934
			C183.996,78.903,183.937,79.151,183.819,79.383z M183.069,75.664c0-0.156-0.035-0.304-0.105-0.441s-0.166-0.257-0.286-0.358
			c-0.121-0.102-0.263-0.182-0.427-0.241c-0.163-0.06-0.338-0.089-0.523-0.089h-0.618c-0.187,0-0.361,0.029-0.524,0.089
			s-0.306,0.14-0.426,0.241c-0.121,0.102-0.217,0.221-0.287,0.358s-0.105,0.285-0.105,0.441v3.021c0,0.156,0.035,0.304,0.105,0.441
			s0.166,0.257,0.287,0.358c0.12,0.102,0.263,0.182,0.426,0.241s0.338,0.089,0.524,0.089h0.618c0.186,0,0.36-0.029,0.523-0.089
			c0.164-0.06,0.306-0.14,0.427-0.241c0.12-0.102,0.216-0.221,0.286-0.358s0.105-0.285,0.105-0.441V75.664z"/>
		<path fill="#FFFFFF" d="M188.504,72.065c-0.155,0-0.3,0.023-0.434,0.072c-0.133,0.049-0.25,0.115-0.351,0.2
			s-0.18,0.185-0.237,0.298c-0.058,0.115-0.087,0.237-0.087,0.369v0.92h1.803v0.742h-1.803v5.758h-0.927v-5.758h-1.396v-0.742h1.396
			v-0.883c0-0.236,0.053-0.46,0.158-0.669c0.105-0.21,0.251-0.393,0.438-0.55c0.186-0.156,0.401-0.279,0.648-0.367
			c0.246-0.09,0.51-0.134,0.791-0.134h0.853v0.743h-0.852V72.065z"/>
		<path fill="#FFFFFF" d="M193.097,80.424c-0.282,0-0.547-0.045-0.796-0.133c-0.249-0.09-0.465-0.212-0.648-0.369
			c-0.184-0.156-0.329-0.338-0.438-0.545c-0.108-0.208-0.162-0.43-0.162-0.667v-4.044h-1.387v-0.742h1.387v-1.562l0.928-0.127v1.688
			h1.96v0.742h-1.96v4.082c0,0.131,0.028,0.253,0.087,0.365c0.058,0.112,0.137,0.21,0.237,0.295s0.219,0.151,0.354,0.2
			s0.281,0.073,0.438,0.073h0.844v0.742h-0.844V80.424z"/>
		<path fill="#FFFFFF" d="M202.145,80.424h-0.505l-1.81-4.9l-0.03-0.336l-0.03,0.336l-1.81,4.9h-0.513l-2.579-6.5h0.943l1.839,4.913
			l0.03,0.337l0.03-0.337l1.81-4.913h0.559l1.802,4.913l0.03,0.337l0.03-0.337l1.839-4.913h0.943L202.145,80.424z"/>
		<path fill="#FFFFFF" d="M210.656,80.424l-0.513-0.647c-0.211,0.232-0.475,0.42-0.792,0.562c-0.316,0.142-0.663,0.213-1.04,0.213
			h-0.233c-0.313,0-0.606-0.05-0.883-0.149s-0.518-0.235-0.724-0.409s-0.368-0.377-0.486-0.609s-0.177-0.48-0.177-0.742v-0.064
			c0-0.262,0.059-0.51,0.177-0.742s0.28-0.436,0.486-0.609s0.447-0.31,0.724-0.409s0.57-0.149,0.883-0.149h1.96v-1.003
			c0-0.156-0.035-0.304-0.105-0.441s-0.166-0.257-0.286-0.358c-0.121-0.102-0.263-0.182-0.427-0.241
			c-0.163-0.06-0.338-0.089-0.523-0.089h-0.543c-0.187,0-0.361,0.029-0.524,0.089s-0.305,0.14-0.426,0.241s-0.216,0.221-0.286,0.358
			c-0.071,0.138-0.105,0.285-0.105,0.441v0.235l-0.928-0.127v-0.064c0-0.262,0.059-0.51,0.177-0.742s0.28-0.436,0.486-0.609
			s0.447-0.31,0.725-0.409c0.276-0.1,0.57-0.149,0.882-0.149h0.543c0.312,0,0.605,0.05,0.882,0.149s0.518,0.235,0.724,0.409
			s0.368,0.377,0.486,0.609s0.178,0.48,0.178,0.742v4.717h-0.312V80.424z M210.038,77.276h-1.96c-0.187,0-0.361,0.029-0.524,0.089
			s-0.306,0.141-0.426,0.244c-0.121,0.104-0.217,0.225-0.287,0.362s-0.105,0.284-0.105,0.441v0.272c0,0.156,0.035,0.304,0.105,0.441
			s0.166,0.257,0.287,0.358c0.12,0.102,0.263,0.182,0.426,0.241s0.338,0.089,0.524,0.089h0.618c0.186,0,0.36-0.029,0.523-0.089
			c0.164-0.06,0.306-0.14,0.427-0.241c0.12-0.102,0.216-0.221,0.286-0.358s0.105-0.285,0.105-0.441v-1.408H210.038z"/>
		<path fill="#FFFFFF" d="M215.091,74.667c-0.187,0-0.361,0.03-0.524,0.09c-0.163,0.059-0.306,0.139-0.426,0.24
			c-0.121,0.102-0.217,0.222-0.287,0.359s-0.105,0.284-0.105,0.441v4.627h-0.927v-6.5h0.309l0.506,0.66
			c0.211-0.241,0.476-0.433,0.795-0.574s0.667-0.213,1.044-0.213h0.543v0.869L215.091,74.667L215.091,74.667z"/>
		<path fill="#FFFFFF" d="M222.234,79.383c-0.118,0.232-0.28,0.436-0.486,0.609s-0.447,0.31-0.724,0.409s-0.57,0.149-0.882,0.149
			h-0.618c-0.313,0-0.606-0.05-0.883-0.149s-0.518-0.235-0.724-0.409s-0.368-0.377-0.486-0.609s-0.177-0.48-0.177-0.742v-2.934
			c0-0.262,0.059-0.51,0.177-0.742s0.28-0.436,0.486-0.609s0.447-0.31,0.724-0.409s0.57-0.149,0.883-0.149h0.618
			c0.312,0,0.605,0.05,0.882,0.149s0.518,0.235,0.724,0.409s0.368,0.377,0.486,0.609s0.178,0.48,0.178,0.742v1.53h-4.23v1.447
			c0,0.156,0.035,0.304,0.105,0.441s0.166,0.257,0.287,0.358c0.12,0.102,0.263,0.182,0.426,0.241s0.338,0.089,0.524,0.089h0.618
			c0.186,0,0.36-0.029,0.523-0.089c0.164-0.06,0.306-0.14,0.427-0.241c0.12-0.102,0.216-0.221,0.286-0.358s0.105-0.285,0.105-0.441
			v-0.432l0.928,0.127v0.261C222.411,78.903,222.352,79.151,222.234,79.383z M221.484,75.664c0-0.156-0.035-0.304-0.105-0.441
			s-0.166-0.257-0.286-0.358c-0.121-0.102-0.263-0.182-0.427-0.241c-0.163-0.06-0.338-0.089-0.523-0.089h-0.618
			c-0.187,0-0.361,0.029-0.524,0.089s-0.306,0.14-0.426,0.241c-0.121,0.102-0.217,0.221-0.287,0.358s-0.105,0.285-0.105,0.441v0.965
			h3.303v-0.965H221.484z"/>
		<path fill="#FFFFFF" d="M234.004,75.562c-0.139,0.271-0.328,0.508-0.569,0.711s-0.524,0.363-0.849,0.479s-0.67,0.174-1.037,0.174
			h-2.45v3.498h-0.973v-9.103h3.423c0.367,0,0.713,0.059,1.037,0.175s0.607,0.275,0.849,0.479s0.431,0.441,0.569,0.715
			c0.138,0.272,0.207,0.563,0.207,0.873v1.129C234.211,75.002,234.142,75.292,234.004,75.562z M233.238,73.563
			c0-0.203-0.045-0.393-0.136-0.568s-0.215-0.33-0.373-0.464c-0.158-0.133-0.342-0.237-0.551-0.313
			c-0.208-0.076-0.434-0.115-0.675-0.115h-2.405v4.044h2.405c0.241,0,0.467-0.038,0.675-0.114c0.209-0.076,0.393-0.18,0.551-0.311
			c0.158-0.132,0.282-0.285,0.373-0.461s0.136-0.365,0.136-0.568V73.563z"/>
		<path fill="#FFFFFF" d="M238.027,74.667c-0.187,0-0.361,0.03-0.524,0.09c-0.163,0.059-0.306,0.139-0.426,0.24
			c-0.121,0.102-0.217,0.222-0.287,0.359s-0.105,0.284-0.105,0.441v4.627h-0.927v-6.5h0.309l0.506,0.66
			c0.211-0.241,0.476-0.433,0.795-0.574s0.667-0.213,1.044-0.213h0.543v0.869L238.027,74.667L238.027,74.667z"/>
		<path fill="#FFFFFF" d="M245.17,79.383c-0.118,0.232-0.28,0.436-0.486,0.609s-0.447,0.31-0.724,0.409s-0.57,0.149-0.882,0.149
			h-0.618c-0.313,0-0.606-0.05-0.883-0.149s-0.518-0.235-0.724-0.409s-0.368-0.377-0.486-0.609s-0.177-0.48-0.177-0.742v-2.934
			c0-0.262,0.059-0.51,0.177-0.742s0.28-0.436,0.486-0.609s0.447-0.31,0.724-0.409s0.57-0.149,0.883-0.149h0.618
			c0.312,0,0.605,0.05,0.882,0.149s0.518,0.235,0.724,0.409s0.368,0.377,0.486,0.609s0.178,0.48,0.178,0.742v2.934
			C245.348,78.903,245.288,79.151,245.17,79.383z M244.42,75.664c0-0.156-0.035-0.304-0.105-0.441s-0.166-0.257-0.286-0.358
			c-0.121-0.102-0.263-0.182-0.427-0.241c-0.163-0.06-0.338-0.089-0.523-0.089h-0.618c-0.187,0-0.361,0.029-0.524,0.089
			s-0.306,0.14-0.426,0.241c-0.121,0.102-0.217,0.221-0.287,0.358s-0.105,0.285-0.105,0.441v3.021c0,0.156,0.035,0.304,0.105,0.441
			s0.166,0.257,0.287,0.358c0.12,0.102,0.263,0.182,0.426,0.241s0.338,0.089,0.524,0.089h0.618c0.186,0,0.36-0.029,0.523-0.089
			c0.164-0.06,0.306-0.14,0.427-0.241c0.12-0.102,0.216-0.221,0.286-0.358s0.105-0.285,0.105-0.441V75.664z"/>
		<path fill="#FFFFFF" d="M252.183,79.383c-0.118,0.232-0.28,0.436-0.486,0.609s-0.447,0.31-0.724,0.409s-0.57,0.149-0.882,0.149
			h-0.618c-0.313,0-0.606-0.05-0.883-0.149s-0.518-0.235-0.724-0.409s-0.368-0.377-0.486-0.609s-0.177-0.48-0.177-0.742v-2.934
			c0-0.262,0.059-0.51,0.177-0.742s0.28-0.436,0.486-0.609s0.447-0.31,0.724-0.409s0.57-0.149,0.883-0.149h0.618
			c0.312,0,0.605,0.05,0.882,0.149s0.518,0.235,0.724,0.409s0.368,0.377,0.486,0.609s0.178,0.48,0.178,0.742v0.261l-0.928,0.127
			v-0.432c0-0.156-0.035-0.304-0.105-0.441s-0.166-0.257-0.286-0.358c-0.121-0.102-0.263-0.182-0.427-0.241
			c-0.163-0.06-0.338-0.089-0.523-0.089h-0.618c-0.187,0-0.361,0.029-0.524,0.089s-0.306,0.14-0.426,0.241
			c-0.121,0.102-0.217,0.221-0.287,0.358s-0.105,0.285-0.105,0.441v3.021c0,0.156,0.035,0.304,0.105,0.441s0.166,0.257,0.287,0.358
			c0.12,0.102,0.263,0.182,0.426,0.241s0.338,0.089,0.524,0.089h0.618c0.186,0,0.36-0.029,0.523-0.089
			c0.164-0.06,0.306-0.14,0.427-0.241c0.12-0.102,0.216-0.221,0.286-0.358s0.105-0.285,0.105-0.441v-0.432l0.928,0.127v0.261
			C252.361,78.903,252.301,79.151,252.183,79.383z"/>
		<path fill="#FFFFFF" d="M259.195,79.383c-0.118,0.232-0.28,0.436-0.486,0.609s-0.447,0.31-0.724,0.409s-0.57,0.149-0.882,0.149
			h-0.618c-0.313,0-0.606-0.05-0.883-0.149s-0.518-0.235-0.724-0.409s-0.368-0.377-0.486-0.609s-0.177-0.48-0.177-0.742v-2.934
			c0-0.262,0.059-0.51,0.177-0.742s0.28-0.436,0.486-0.609s0.447-0.31,0.724-0.409s0.57-0.149,0.883-0.149h0.618
			c0.312,0,0.605,0.05,0.882,0.149s0.518,0.235,0.724,0.409s0.368,0.377,0.486,0.609s0.178,0.48,0.178,0.742v1.53h-4.23v1.447
			c0,0.156,0.035,0.304,0.105,0.441s0.166,0.257,0.287,0.358c0.12,0.102,0.263,0.182,0.426,0.241
			c0.163,0.059,0.338,0.089,0.524,0.089h0.618c0.186,0,0.36-0.029,0.523-0.089c0.164-0.06,0.306-0.14,0.427-0.241
			c0.12-0.102,0.216-0.221,0.286-0.358s0.105-0.285,0.105-0.441v-0.432l0.928,0.127v0.261
			C259.372,78.903,259.313,79.151,259.195,79.383z M258.445,75.664c0-0.156-0.035-0.304-0.105-0.441s-0.166-0.257-0.286-0.358
			c-0.121-0.102-0.263-0.182-0.427-0.241c-0.163-0.06-0.338-0.089-0.523-0.089h-0.618c-0.187,0-0.361,0.029-0.524,0.089
			s-0.306,0.14-0.426,0.241c-0.121,0.102-0.217,0.221-0.287,0.358s-0.105,0.285-0.105,0.441v0.965h3.303v-0.965H258.445z"/>
		<path fill="#FFFFFF" d="M266.534,78.774c0,0.263-0.063,0.503-0.188,0.721s-0.297,0.405-0.513,0.562s-0.466,0.278-0.75,0.365
			s-0.582,0.13-0.894,0.13h-0.618c-0.312,0-0.609-0.05-0.894-0.149s-0.533-0.235-0.746-0.409c-0.214-0.174-0.385-0.377-0.513-0.609
			c-0.129-0.232-0.192-0.48-0.192-0.742V78.38l0.927-0.127v0.432c0,0.156,0.039,0.304,0.117,0.441s0.183,0.257,0.313,0.358
			c0.131,0.102,0.282,0.182,0.453,0.241s0.349,0.089,0.535,0.089h0.618c0.186,0,0.364-0.023,0.535-0.07
			c0.171-0.046,0.323-0.112,0.456-0.199c0.134-0.087,0.239-0.191,0.317-0.314c0.077-0.123,0.116-0.263,0.116-0.419
			c0-0.232-0.061-0.423-0.181-0.571c-0.121-0.148-0.28-0.271-0.479-0.371s-0.425-0.183-0.679-0.248s-0.515-0.131-0.78-0.196
			c-0.267-0.065-0.527-0.141-0.78-0.226c-0.254-0.085-0.48-0.195-0.679-0.333c-0.199-0.138-0.358-0.311-0.479-0.518
			c-0.12-0.207-0.181-0.466-0.181-0.774c0-0.263,0.061-0.503,0.181-0.721c0.121-0.218,0.284-0.405,0.49-0.562
			s0.446-0.278,0.721-0.365c0.273-0.087,0.566-0.13,0.878-0.13h0.543c0.312,0,0.605,0.05,0.882,0.149s0.518,0.235,0.724,0.409
			s0.368,0.377,0.486,0.609s0.178,0.48,0.178,0.742v0.025l-0.928,0.127v-0.196c0-0.156-0.035-0.304-0.105-0.441
			s-0.166-0.257-0.286-0.358c-0.121-0.102-0.263-0.182-0.426-0.241c-0.164-0.06-0.339-0.089-0.524-0.089h-0.543
			c-0.186,0-0.36,0.023-0.524,0.07c-0.163,0.046-0.305,0.112-0.426,0.199c-0.12,0.087-0.216,0.191-0.286,0.314
			s-0.105,0.263-0.105,0.419c0,0.225,0.061,0.407,0.181,0.549c0.121,0.142,0.28,0.262,0.479,0.358
			c0.199,0.098,0.425,0.18,0.679,0.245s0.513,0.133,0.776,0.203c0.265,0.069,0.523,0.149,0.777,0.237
			c0.254,0.09,0.479,0.203,0.679,0.344c0.198,0.139,0.357,0.313,0.479,0.523C266.474,78.206,266.534,78.465,266.534,78.774z"/>
		<path fill="#FFFFFF" d="M273.622,78.774c0,0.263-0.063,0.503-0.188,0.721s-0.297,0.405-0.513,0.562s-0.466,0.278-0.75,0.365
			s-0.582,0.13-0.894,0.13h-0.618c-0.312,0-0.609-0.05-0.894-0.149s-0.533-0.235-0.746-0.409c-0.214-0.174-0.385-0.377-0.513-0.609
			c-0.129-0.232-0.192-0.48-0.192-0.742V78.38l0.927-0.127v0.432c0,0.156,0.039,0.304,0.117,0.441s0.183,0.257,0.313,0.358
			c0.131,0.102,0.282,0.182,0.453,0.241s0.349,0.089,0.535,0.089h0.618c0.186,0,0.364-0.023,0.535-0.07
			c0.171-0.046,0.323-0.112,0.456-0.199c0.134-0.087,0.239-0.191,0.317-0.314c0.077-0.123,0.116-0.263,0.116-0.419
			c0-0.232-0.061-0.423-0.181-0.571c-0.121-0.148-0.28-0.271-0.479-0.371s-0.425-0.183-0.679-0.248s-0.515-0.131-0.78-0.196
			c-0.267-0.065-0.527-0.141-0.78-0.226c-0.254-0.085-0.48-0.195-0.679-0.333c-0.199-0.138-0.358-0.311-0.479-0.518
			c-0.12-0.207-0.181-0.466-0.181-0.774c0-0.263,0.061-0.503,0.181-0.721c0.121-0.218,0.284-0.405,0.49-0.562
			s0.446-0.278,0.721-0.365c0.273-0.087,0.566-0.13,0.878-0.13h0.543c0.312,0,0.605,0.05,0.882,0.149s0.518,0.235,0.724,0.409
			s0.368,0.377,0.486,0.609s0.178,0.48,0.178,0.742v0.025l-0.928,0.127v-0.196c0-0.156-0.035-0.304-0.105-0.441
			s-0.166-0.257-0.286-0.358c-0.121-0.102-0.263-0.182-0.426-0.241c-0.164-0.06-0.339-0.089-0.524-0.089h-0.543
			c-0.186,0-0.36,0.023-0.524,0.07c-0.163,0.046-0.305,0.112-0.426,0.199c-0.12,0.087-0.216,0.191-0.286,0.314
			s-0.105,0.263-0.105,0.419c0,0.225,0.061,0.407,0.181,0.549c0.121,0.142,0.28,0.262,0.479,0.358
			c0.199,0.098,0.425,0.18,0.679,0.245s0.513,0.133,0.776,0.203c0.265,0.069,0.523,0.149,0.777,0.237
			c0.254,0.09,0.479,0.203,0.679,0.344c0.198,0.139,0.357,0.313,0.479,0.523C273.562,78.206,273.622,78.465,273.622,78.774z"/>
		<path fill="#FFFFFF" d="M278.703,76.628c0,0.702-0.08,1.358-0.241,1.968c-0.16,0.609-0.384,1.179-0.671,1.707
			c-0.286,0.529-0.627,1.02-1.021,1.47c-0.395,0.451-0.825,0.869-1.293,1.254l-0.543-0.457c0.417-0.359,0.799-0.758,1.146-1.193
			c0.347-0.436,0.646-0.904,0.896-1.406c0.252-0.501,0.447-1.031,0.589-1.59c0.141-0.559,0.211-1.143,0.211-1.752
			s-0.07-1.193-0.211-1.752c-0.142-0.559-0.337-1.089-0.589-1.59c-0.251-0.502-0.55-0.971-0.896-1.406
			c-0.348-0.436-0.729-0.834-1.146-1.193l0.543-0.457c0.468,0.385,0.898,0.803,1.293,1.254c0.395,0.45,0.735,0.939,1.021,1.466
			c0.287,0.527,0.511,1.096,0.671,1.705C278.623,75.264,278.703,75.921,278.703,76.628z"/>
	</g>
</g>
</svg>
