<?xml version="1.0" encoding="utf-8"?>
<!-- Generator: Adobe Illustrator 17.0.0, SVG Export Plug-In . SVG Version: 6.00 Build 0)  -->
<!DOCTYPE svg PUBLIC "-//W3C//DTD SVG 1.1//EN" "http://www.w3.org/Graphics/SVG/1.1/DTD/svg11.dtd" [
	<!ENTITY ns_extend "http://ns.adobe.com/Extensibility/1.0/">
	<!ENTITY ns_ai "http://ns.adobe.com/AdobeIllustrator/10.0/">
	<!ENTITY ns_graphs "http://ns.adobe.com/Graphs/1.0/">
	<!ENTITY ns_vars "http://ns.adobe.com/Variables/1.0/">
	<!ENTITY ns_imrep "http://ns.adobe.com/ImageReplacement/1.0/">
	<!ENTITY ns_sfw "http://ns.adobe.com/SaveForWeb/1.0/">
	<!ENTITY ns_custom "http://ns.adobe.com/GenericCustomNamespace/1.0/">
	<!ENTITY ns_adobe_xpath "http://ns.adobe.com/XPath/1.0/">
]>
<svg version="1.1" id="Capa_1" xmlns:x="&ns_extend;" xmlns:i="&ns_ai;" xmlns:graph="&ns_graphs;"
	 xmlns="http://www.w3.org/2000/svg" xmlns:xlink="http://www.w3.org/1999/xlink" x="0px" y="0px" width="294.546px"
	 height="134.724px" viewBox="0 0 294.546 134.724" enable-background="new 0 0 294.546 134.724" xml:space="preserve">
<metadata><?xpacket begin="﻿" id="W5M0MpCehiHzreSzNTczkc9d"?>
<x:xmpmeta xmlns:x="adobe:ns:meta/" x:xmptk="Adobe XMP Core 5.5-c014 79.151739, 2013/04/03-12:12:15        ">
   <rdf:RDF xmlns:rdf="http://www.w3.org/1999/02/22-rdf-syntax-ns#">
      <rdf:Description rdf:about=""
            xmlns:dc="http://purl.org/dc/elements/1.1/"
            xmlns:xmp="http://ns.adobe.com/xap/1.0/"
            xmlns:xmpGImg="http://ns.adobe.com/xap/1.0/g/img/"
            xmlns:xmpMM="http://ns.adobe.com/xap/1.0/mm/"
            xmlns:stRef="http://ns.adobe.com/xap/1.0/sType/ResourceRef#"
            xmlns:stEvt="http://ns.adobe.com/xap/1.0/sType/ResourceEvent#"
            xmlns:illustrator="http://ns.adobe.com/illustrator/1.0/"
            xmlns:xmpTPg="http://ns.adobe.com/xap/1.0/t/pg/"
            xmlns:stDim="http://ns.adobe.com/xap/1.0/sType/Dimensions#"
            xmlns:xmpG="http://ns.adobe.com/xap/1.0/g/"
            xmlns:pdf="http://ns.adobe.com/pdf/1.3/">
         <dc:format>image/svg+xml</dc:format>
         <dc:title>
            <rdf:Alt>
               <rdf:li xml:lang="x-default">Imprimir</rdf:li>
            </rdf:Alt>
         </dc:title>
         <xmp:MetadataDate>2017-10-11T11:46:50-05:00</xmp:MetadataDate>
         <xmp:ModifyDate>2017-10-11T11:46:50-05:00</xmp:ModifyDate>
         <xmp:CreateDate>2017-10-11T11:46:49-05:00</xmp:CreateDate>
         <xmp:CreatorTool>Adobe Illustrator CC (Windows)</xmp:CreatorTool>
         <xmp:Thumbnails>
            <rdf:Alt>
               <rdf:li rdf:parseType="Resource">
                  <xmpGImg:width>256</xmpGImg:width>
                  <xmpGImg:height>120</xmpGImg:height>
                  <xmpGImg:format>JPEG</xmpGImg:format>
                  <xmpGImg:image>/9j/4AAQSkZJRgABAgEASABIAAD/7QAsUGhvdG9zaG9wIDMuMAA4QklNA+0AAAAAABAASAAAAAEA&#xA;AQBIAAAAAQAB/+4ADkFkb2JlAGTAAAAAAf/bAIQABgQEBAUEBgUFBgkGBQYJCwgGBggLDAoKCwoK&#xA;DBAMDAwMDAwQDA4PEA8ODBMTFBQTExwbGxscHx8fHx8fHx8fHwEHBwcNDA0YEBAYGhURFRofHx8f&#xA;Hx8fHx8fHx8fHx8fHx8fHx8fHx8fHx8fHx8fHx8fHx8fHx8fHx8fHx8fHx8f/8AAEQgAeAEAAwER&#xA;AAIRAQMRAf/EAaIAAAAHAQEBAQEAAAAAAAAAAAQFAwIGAQAHCAkKCwEAAgIDAQEBAQEAAAAAAAAA&#xA;AQACAwQFBgcICQoLEAACAQMDAgQCBgcDBAIGAnMBAgMRBAAFIRIxQVEGE2EicYEUMpGhBxWxQiPB&#xA;UtHhMxZi8CRygvElQzRTkqKyY3PCNUQnk6OzNhdUZHTD0uIIJoMJChgZhJRFRqS0VtNVKBry4/PE&#xA;1OT0ZXWFlaW1xdXl9WZ2hpamtsbW5vY3R1dnd4eXp7fH1+f3OEhYaHiImKi4yNjo+Ck5SVlpeYmZ&#xA;qbnJ2en5KjpKWmp6ipqqusra6voRAAICAQIDBQUEBQYECAMDbQEAAhEDBCESMUEFURNhIgZxgZEy&#xA;obHwFMHR4SNCFVJicvEzJDRDghaSUyWiY7LCB3PSNeJEgxdUkwgJChgZJjZFGidkdFU38qOzwygp&#xA;0+PzhJSktMTU5PRldYWVpbXF1eX1RlZmdoaWprbG1ub2R1dnd4eXp7fH1+f3OEhYaHiImKi4yNjo&#xA;+DlJWWl5iZmpucnZ6fkqOkpaanqKmqq6ytrq+v/aAAwDAQACEQMRAD8A9U4q7FXYq7FUPf6hY6fa&#xA;vdX06W9un2pJCFHy36n2yMpCIstmPFKcuGIssJm85eYvMkzWnk+0MVoDwl1u6Xig/wCMakdfoJ/y&#xA;RmGdRPJtjG3e7eOgxaccWoNy/mD9P4+Kz/BHm/Rv9yOia295qT/FfW13/dXDe1SaHsKn/ZDB+XyQ&#xA;3jKz1vqy/lDBl9GSHDDoY8x+PwEy0T8xbKe6Gma7A2i6utAYbjaJz0qkh8e1foJyzHqgTwy9MnH1&#xA;HZchHjxHxMflz+TL8y3VOxV2KuxV2KuxV2KuxV2KuxV2KuxV2KuxV2KuxV2KuxV2KuxV2KuxV2Ku&#xA;xV2KuxVpmVVLMQFAqSdgAMVAYbq35ixyXR0vyvanWdUO3NP954+1Xfao+kD3zDnqt+GA4pfY7fD2&#xA;WRHjzHw4fafx+ApWH5f3mpXK6l5xvDqNyPiisEJW2ir2oKcvooPHlgjpTI8WQ2e7oyydpxxjg08e&#xA;Afzv4j+PxTNYYYYIkhhjWKKMBUjQBVUDoABsMzAK5OnlIk2dyvwoS7W/L2j63a/V9StlnQV4OdnQ&#xA;nujj4lyvJijMVIORp9VkwyuBpiH6L86+T/j0mRte0JOthKf9IiX/AIrI60/yf+BzE4MmL6fVHu6u&#xA;18bT6r6x4eT+cOR9/wCPiyLy3510LX14WsvpXq/3tjN8EykdaL+0B4jMjDqIz5c+51+r7Py4PqFx&#xA;7xyT7L3CdirsVdirsVdirsVdirsVdirsVdirsVdirsVdirsVdirsVdirsVdirsVY55k896JobfVi&#xA;zXupv8MWn2/xyFj0DUrxr77+AOY+bUxhtzPc7DSdnZM2/wBMP5x5JEvl7zf5tYTeY5zpWkMeSaRb&#xA;mkjL29Vv61+S5R4WTLvP0x7nMOqwaXbCOPJ/OP6Px8SzPSdF0vSLUWunWyW0I6hBux8WY7sfc5mQ&#xA;xxgKAdTn1E8suKZso3JtLsVdirsVdirHfMnkTRNcb6wymz1Jd4tQt/gkDDoWp9r6d/AjMfLpoz35&#xA;Hvc/Sdo5MO31Q/mnkkI8wecPKJEXmKA6vo67Lq9uKyoO3qqf40/1jlHi5MX1+qPe5v5bT6rfEeDJ&#xA;/NPL4fj4Bmeka3pWsWoutNuUuYT1KndSd6Mp+JT7EZmQyRmLBdTn088UuGYoo3JtLsVdirsVdirs&#xA;VdirsVdirsVdirsVdirsVdirsVdirsVdirsVedxaz5v87Bxox/Qug8ij37HlcSU6hAp2PyI/1s14&#xA;yZM30+mPf1d9LBg0f95+8y/zeg/H4DJ/LfkvQvL6crSL1Lxv729mo8zE9fi/ZB8BmTi08Ycufe67&#xA;V6/Ln+o+nuHJPcvcJ2KpD5o8+eUvK0SvrmpRWruKxwbyTMPFYowz096UxVryn578q+bIJZdCvluv&#xA;q5AniKtHInLoWRwrUNNj0xVP2YKCzGijck9AMVYKv53flgdTbT/02gkVinrGOUQFgaGk3HhT/Krx&#xA;98VZvBPDPCk0EiywyANHKhDKyncFWGxBxVfiriAwIIqDsQehGKsM1b8uokujqnli5Oi6oKnjH/vP&#xA;J3oyfsg+wp/k5hz0u/FA8Mvsdvg7UJjwZh4kPtHx/HvVfK/mzWJ9Xk8va/ZC31aGIzCeIgxSxggc&#xA;qV2rXt+GSw55GXBMephrNFjGPxcUrgTVHmE+bWolimk+q3ZELiMqLeQs1a/Egp8S7dRmU6te2qxr&#xA;NLF9XuSYo/VLiFyrCgPFDT4n3+zirSavG5tgLa6H1mtOUEgCUNP3lR8H04qsOuRC2af6peELJ6Xp&#xA;i3k5k0ryC0rx98VVJNVjSW4j+r3LG3XkWWFyr9NozT4zv0GKuj1WN5beP6vcqbheQZoXCp12kNPg&#xA;O3Q4qpjXIjbLP9UvAGk9L0zbycwaV5FaV4++Kr31eNDcg210fq1K8YJCHqafu6D4/oxVtdVjaaKL&#xA;6vcgyx+qHMLhVFCeLmnwvt9nFVi61E0UMn1W7AmcxhTbyBlpT4nFPhXfqcVbfWIlFyfqt0fqzBSB&#xA;BIS9WK1i2+MbdR2xVd+lY/V9P6vc19L1uXovxpSvCtKc/wDJxVausxsts31W6H1liigwOClCFrJt&#xA;8A36nFWm1qJYppPqt2fQcRlRbyFmqSOSCnxLt1GKr21WMTSxfV7kmKL1eYgkKsKA8VNN33+zirUe&#xA;rxubYC2uh9Zrx5QSDhQ0/eVHwfTiqxtbiFu831S7IST0+At5OZNK8gtKlffFVR9VjSW4j+r3LG3T&#xA;mXWCQq/TaM0+I79Biro9VjeW3jFvcqbleQZoXCp12kJFEO3Q4qxb8n/+UMj/AOM8v6xmHoP7t3Hb&#xA;n+MH3Bm2Zjp3YqxH82PM+o+WvIep6tp1BfRiOKCQgMI2mkWPnQ7VUNUV2rirE/yv/Kfy7Npll5s1&#xA;5/8AEWt6pEl20903rRRmUBuIVqh3XoWau42piqh5p8o+a/Kfn5fOPkfR4b6zvLf6vqWlw0i+IkVY&#xA;IpX7XFWqoO4NRviqE1zzT+dvmHRrzQk8mfUW1KM2zXZk4hI5AVk+2ygVU0rX78VZjoH5QeUbXyXa&#xA;eXtW022vZUjDXl0E4yNO27uko4yChNFNRtirCPLcN/8Al5+blj5L03UpNQ8vaxE031CU8ntmZZGB&#xA;22DD0qkinJTuOhxV7lirsVdirCf/ACr3/bp/5m5h/wDIj/Ndx/yA/wCSn6GbZmOndirsVdirsVdi&#xA;rsVdirsVdirsVdirsVdirsVdirsVdirsVYT+T/8Ayhkf/GeX9YzD0H927jtz/GD7gzbMx07sVSbz&#xA;ncaBb+VdUm8wIsmjJA31yJv21OwVdx8bNQLv9qmKsF/5x0ttStvy9eS9DR2c95NNpqSndbcqoJqf&#xA;2TIrnp4nvirtb/PW1fVJNI8maPceZ7+PaSW35C3WhoSGVXZgPGgX3xVCT/mv+aGkp9b1zyHKNPA5&#xA;Sy20hZkXuzcRKBT/ACqYqzvyT5/8t+ctPa70ecl4qC5tJQFmhLdOagkUPZgSMVecfl+llZ/nj5st&#xA;9ehJ8wXUsk2h3MvxD6qSzcY69/QKf7FWG29VXtWKuxV2KsJ/8q9/26f+ZuYf/Ij/ADXcf8gP+Sn6&#xA;GbZmOndirsVdirsVdirsVdirsVdirsVdirsVdirsVdirsVdirsVYT+T/APyhkf8Axnl/WMw9B/du&#xA;47c/xg+4M2zMdO87/Nzzr5h0Z9E0Dy0Y49c8w3BggupQGWFVKLy4sGFS0g3IOwO2Ksdvvyr/ADa8&#xA;xrDpPmzzVbXHl1JVmmFslLiTjvx/uYh405MadaGgGKo786L+6tNH0HyD5eAtptfkSxTjsI7SLhHw&#xA;23Cnmtf8kMMVSzzbb3nlNfLv5aeRHGnahrVXvdV6TFRsZC4qwZuLkkbgCi4qg/NPl/z5+WFnB5p0&#xA;/wA0XWt2cMscep2F8XKOrtQEKzyChJp/MvYnFV35g2dv5Q1fQ/zS8sxm3stQeMaxZRjiksdygk5c&#xA;Og5qDy7c+J64qzX8xvy7ufNUul+YfLuoJpvmLTaPY3pBMckbfEquQGNATUfCRuQQa4qw3X9b/Oj8&#xA;v1tPMPmPVrPWtJluFgvrCBFXiHqQUb0YWHwqaHx6g4q9xjdJEWRDVHAZT4g7jFW8VYT/AOVe/wC3&#xA;T/zNzD/5Ef5ruP8AkB/yU/QzbMx07sVdirsVdirsVdirsVdirsVdirsVdirsVdirsVdirsVdirCf&#xA;yf8A+UMj/wCM8v6xmHoP7t3Hbn+MH3Bm2Zjp3kH5yXUWl/mB5A1m8Ij06C6lS4uHrwjq0XxMe1AS&#xA;foOKvSrPzZ5VvbwWVnrNjc3rfZtobmGSU7V2RWLfhirzX82pU0r8zfIeu3VBp6zSW00rD4YyzKOT&#xA;H5S8voxVj354+adPuvN+jxeVnmn83aFKxea3UPEikgmJya1ZGHxbcQCQ3gEkDmkBjHnzzt+ZPmHT&#xA;rS080WAtdCilSW+XTVHORVPVyZJgCBWnRa9e2QjkieRSYlm/5s+dfK+tflBZRaA/qx6jcwWlnaUp&#xA;NEbejsjJuQUAVf8AZClQcmxev20tto+hW36SuIrWK0gijnnldY41KIFNXYgDfFXlX5/+bPLmo+Qo&#xA;rHS9StdRur28iEMVpNHOxCcizUjLbA0X5nFXsNnG8VpBG4o6RqrD3CgHFVXFWE/+Ve/7dP8AzNzD&#xA;/wCRH+a7j/kB/wAlP0M2zMdO7FXYq7FXYq7FXYq7FXYq7FXYq7FXYq7FXYq7FXYq7FXYqwn8n/8A&#xA;lDI/+M8v6xmHoP7t3Hbn+MH3Bm2Zjp0t8w+W9D8xaa+m6zaJeWbkN6b1BDDoyMpDK2/VTiry/wA8&#xA;fkR5dtfK8135PtJbTzDp7C7tJUmmeSQxnk0Y5M3xUFUoK8gPE4qmemnTPzg/KsQ3h9HUEPpSzU/u&#xA;NQgUfvAP5WD1p/K1OuKvHbMar+XV7c6d5n0mWJ7iTkupxfvFmAG3FyQrrvXY1FdxXKcuMy5M4ypH&#xA;XP5oeXljIt4p7mVtliCBQSexJP8AA5UMEmXGGQ/k7+UOo3Our5r8w2B02wglNzpWkyAhjKTVZGRt&#xA;0VKArUAkgdhvljYNZTbzLG/5n/mivlkep/hTyuzNq7ISolualSlR35L6Y7gByMUM50b8nvy60fVk&#xA;1Ww0hUvIjzgLySypG38yJI7qD4Gm3amKszxV2KsJ/wDKvf8Abp/5m5h/8iP813H/ACA/5KfoZtmY&#xA;6d2KuxV2KuxV2KuxV2KuxV2KuxV2KuxV2KuxV2KuxV2KuxVhP5P/APKGR/8AGeX9YzD0H927jtz/&#xA;ABg+4M2zMdO7FWJfmr5ov/LHkXUtX09Qb2IRxwOwqEaaRY+ZB2PHlUV74ql35I+WIdD8hWci3Aup&#xA;9XpqVzMu45TotEB/yFUA/wCVXFU188+f/JfleBIPMU6k3inhYiMzO6A0LFKEca92xVhuk/nP+Sdt&#xA;eo1nAmnSv8P1lLARcQf5mjUtTFXrEE8M8Mc8DrLDKoeKVCGVlYVVlI2IIxV4zYNeeTPz5l0mznW5&#xA;0zzjyvrq3O7wyt60ldvB1b5q3tXFXtOKuxV2KsJ/8q9/26f+ZuYf/Ij/ADXcf8gP+Sn6GbZmOndi&#xA;rsVdirsVdirsVdirsVdirsVdirsVdirsVdirsVdirsVYD+TmoWL+WfqCzob2KWR5LetHCsRRuPWn&#xA;vmDoJDgrq7zt3FIZuKvSQN2fZnOjdiqE1fSdO1fTbjTNSgW5sbtDHPC1aMp9xQgg7gjcHFXki+QP&#xA;zO8gXTy+Q7xdZ0J2LNoV8wDJU1JUs0a/7JWUn+U4qjPJHkrzbrPnm687+erC3tZVhFvpmmfBKI6U&#xA;Ak+1IF4itKmpZidhTFWc+ZfI+g635fv9INnbwfXImVJkhQGOWh9OQUA3Rt8VeXaJbf8AOQek6LD5&#xA;P0/TbOCK0LQw6+8kbBYK/CVq7dK7fui1P2ajFWZfl9+Utr5bv5Ne1a9k1nzRcA+tqEpJVOYowjDE&#xA;mp6Fm3p0pvir0DFXYq7FWA2WoWV/+bUkllOlxHFppikkjPJQ6yAlajbauYMZCWfb+a7zJilDQgSF&#xA;XP8AQy1tbjEUsn1S7IicRlRbuWYmu6ilWXbqMznRr21ZFmli+rXJMUfqlhC5VhQHijdGbf7I3xV0&#xA;erxubYfVbpfrNeJaBxwoafvNvg+nFVh1uMW7T/VLuiyel6f1d+ZNK8gtKlf8rFVWTVESW4j+r3DG&#xA;2XmzLCxV+m0Z/bO/QYq6PVEeW3j+r3Cm5XmrNCwVOu0h/YO3Q4qpDW4zbrP9Uu6NJ6Xp/V35g0ry&#xA;K0qF/wArFV8mrxobkfVbpvq1ORWBzzqafu9vj+jFXLqyNNFF9WuQZY/VDGFwqihPF26K232Tviqx&#xA;dbjaKKT6pdgTOYwpt5Ay0p8TrSqrv1OKrn1iNRcn6rdH6swVgIHJerFaxbfGNu3bFV41RPV9L6tc&#xA;V9L1uXotxpSvHl05/wCT1xVYmrxsts31W6H1liigwOClCBWUU+Ab9TirT6zGsc7m0uyIH9MqIHLM&#xA;akckAHxLt1GKr21WMTSxfVrkmKL1SwhcqRQHirUoz7/ZGKrU1eNzbD6rdD6zXjygccKGn7zb4PHf&#xA;FVh1yMW7TfU7yiSemUFvJzJoTyC0qV264qqvqqLLPGba5Jt05lhC5VxttGwFGbfoMVdHqqPLbx/V&#xA;rlTcryVmhcKnXaQ0+A7d8VSXzH5A0fV5vrtuW03V1PKPULb4W5eLgEcvnsffMbLpYz3G0u92Ol7T&#xA;yYhwn1w/mlJ4/Nfmjys623my2N7p1QsWtWorsenqrtv9x/1sqGeeLbILHeHLOiw6kXgPDP8AmH9H&#xA;4+TNdN1TTtTtVurC4S5t26PGa7+BHUH2OZkJiQsG3T5cM8cuGQoorJNbsVdirsVdirsVdiqQeZPO&#xA;2haAvC6lM16391ZQ/HKxPSo/Zr7/AEZRm1EYc+fc52k7Py594io955Me/RPnXzgeesSNoWhP006E&#xA;/wCkSr/xYT0/2X/A98x+DJl+r0x7urn+Np9L/djxMn848h7vx8WX6J5e0fRLb6vptssCGnNhu7kd&#xA;3c/E2ZePFGAqIdTqNVkzSuZtMcsaHYq7FXYq7FXYq7FXYq7FXYq7FXYq7FXYq7FXYq7FXYq7FXYq&#xA;tkjjkRo5FDxuCrowBBB6gg4kJBINhhepfl5JZ3Tan5SuzpN91e1620n+SV34/cR7DMOelo8WM8J+&#xA;x2+LtQSjwZxxx7/4g7TPzEe1ul0zzbaHSL/olyam2l7VV9+PzqR7jGGqo8OQcJ+xc3ZfFHjwHjj3&#xA;fxBmqSJIivGwdGAKspqCD0IIzMBdQQQaLeKHYq7FUDq+t6Vo9obrUrlLeEV48j8TEdkUfEx9hkMm&#xA;SMBZLdg088suGAssNOv+cPNxMXl6E6Ro7GjatcCkrj/ipR/D/ghmH4uTL9Hpj3u2/LafS75Tx5P5&#xA;o5fH8fBPvLfkXRNCProhu9SbeW/uPjlJPXjX7P0b+JOX4dNGG/M97havtHJm2Pph/NHJkWZDgOxV&#xA;2KuxV2KuxV2KuxV2KuxV2KuxV2KuxV2KuxV2KuxV2KuxV2KuxV2KuxVC6npWnapaNaahbpc27dUc&#xA;VofFT1U+43yM4CQoi23DmnjlxQNFhT+VvNXlZ2uPKtyb7TalpNGujUgdT6TbfwP+tmGcM8W+M2O5&#xA;241mDUis44Z/zx+n8fJOfLnn7R9Xm+pTBtO1ZTxk0+5+B+fghNOXy6+2W4tTGex2l3OJquzcmIcQ&#xA;9cP5wZHPPBbwvNPIsUMY5PI5Cqo8STsMyCQNy4EYmRoCywm+8/32qXL6d5NszqE67S6jICttF71N&#xA;K/T9Fcw5aoyNYxfn0dvj7MjjHHqJcI/m9T+PxStpH5dQm7GqeZrlta1U0P7z/eePvRE7ge4p/kjD&#xA;DSC+KZ4pMM/ah4eDCPDh9p+P497MwAoAAoBsAOgGZjqXYq7FXYq7FXYq7FXYq7FXYq7FXYq7FXYq&#xA;7FXYq7FXYq7FXYq7FXYq7FXYq7FXYq7FXYqkvmPyfoXmCLjfwfv1FI7uP4Zk+Td/kajKcuCOTm5m&#xA;l12XAfSdu7oxyD8tL+6mSHzBrc+paXan/RbSrJyHb1TU9Onj7jpmONIT9criHPl2tGIvFjEJnmf1&#xA;M2sbCysLZLWygS3t49kijAVR92ZkYiIoOnyZJTPFI2VfJMHYq7FXYq7FXYq7FXYq7FXYq7FXYq7F&#xA;XYq7FXYq7FXYq7FXYq7FXYq7FXYq/wD/2Q==</xmpGImg:image>
               </rdf:li>
            </rdf:Alt>
         </xmp:Thumbnails>
         <xmpMM:InstanceID>xmp.iid:095b63e6-1310-674a-b194-4369dad54dd3</xmpMM:InstanceID>
         <xmpMM:DocumentID>xmp.did:095b63e6-1310-674a-b194-4369dad54dd3</xmpMM:DocumentID>
         <xmpMM:OriginalDocumentID>uuid:5D20892493BFDB11914A8590D31508C8</xmpMM:OriginalDocumentID>
         <xmpMM:RenditionClass>proof:pdf</xmpMM:RenditionClass>
         <xmpMM:DerivedFrom rdf:parseType="Resource">
            <stRef:instanceID>uuid:ff470bc6-f939-440e-8f31-27b0eb70075c</stRef:instanceID>
            <stRef:documentID>xmp.did:4de20fe2-e96f-dd46-b8bd-1606dc72d06f</stRef:documentID>
            <stRef:originalDocumentID>uuid:5D20892493BFDB11914A8590D31508C8</stRef:originalDocumentID>
            <stRef:renditionClass>proof:pdf</stRef:renditionClass>
         </xmpMM:DerivedFrom>
         <xmpMM:History>
            <rdf:Seq>
               <rdf:li rdf:parseType="Resource">
                  <stEvt:action>saved</stEvt:action>
                  <stEvt:instanceID>xmp.iid:095b63e6-1310-674a-b194-4369dad54dd3</stEvt:instanceID>
                  <stEvt:when>2017-10-11T11:46:50-05:00</stEvt:when>
                  <stEvt:softwareAgent>Adobe Illustrator CC (Windows)</stEvt:softwareAgent>
                  <stEvt:changed>/</stEvt:changed>
               </rdf:li>
            </rdf:Seq>
         </xmpMM:History>
         <illustrator:StartupProfile>Print</illustrator:StartupProfile>
         <xmpTPg:HasVisibleOverprint>False</xmpTPg:HasVisibleOverprint>
         <xmpTPg:HasVisibleTransparency>False</xmpTPg:HasVisibleTransparency>
         <xmpTPg:NPages>1</xmpTPg:NPages>
         <xmpTPg:MaxPageSize rdf:parseType="Resource">
            <stDim:w>294.546021</stDim:w>
            <stDim:h>134.723999</stDim:h>
            <stDim:unit>Pixels</stDim:unit>
         </xmpTPg:MaxPageSize>
         <xmpTPg:PlateNames>
            <rdf:Seq>
               <rdf:li>Cyan</rdf:li>
               <rdf:li>Magenta</rdf:li>
               <rdf:li>Yellow</rdf:li>
               <rdf:li>Black</rdf:li>
            </rdf:Seq>
         </xmpTPg:PlateNames>
         <xmpTPg:SwatchGroups>
            <rdf:Seq>
               <rdf:li rdf:parseType="Resource">
                  <xmpG:groupName>Grupo de muestras por defecto</xmpG:groupName>
                  <xmpG:groupType>0</xmpG:groupType>
               </rdf:li>
            </rdf:Seq>
         </xmpTPg:SwatchGroups>
         <pdf:Producer>Adobe PDF library 10.01</pdf:Producer>
      </rdf:Description>
   </rdf:RDF>
</x:xmpmeta>
                                                                                                    
                                                                                                    
                                                                                                    
                                                                                                    
                                                                                                    
                                                                                                    
                                                                                                    
                                                                                                    
                                                                                                    
                                                                                                    
                                                                                                    
                                                                                                    
                                                                                                    
                                                                                                    
                                                                                                    
                                                                                                    
                                                                                                    
                                                                                                    
                                                                                                    
                                                                                                    
                           
<?xpacket end="w"?>
	</metadata>
<g>
	<polygon fill="#FFFFFF" stroke="#DB5940" stroke-width="3" stroke-miterlimit="10" points="58.338,132.992 1.5,100.177 1.5,34.546 
		58.338,1.732 115.175,34.546 115.175,100.177 	"/>
	
		<line fill="none" stroke="#414042" stroke-linecap="round" stroke-linejoin="round" stroke-miterlimit="10" stroke-dasharray="2.726,2.726" x1="120.977" y1="99.142" x2="294.546" y2="99.142"/>
	
		<line fill="none" stroke="#414042" stroke-linecap="round" stroke-linejoin="round" stroke-miterlimit="10" stroke-dasharray="2.726,2.726" x1="120.977" y1="34.771" x2="294.546" y2="34.771"/>
	<g>
		<g>
			<g>
				<g>
					<path fill="#414042" d="M92.19,62.474c-0.453-3.553-4.162-5.971-7.679-4.651c-1.296,0.473-2.823-0.238-3.397-1.527
						c-0.703-1.581-1.574-3.098-2.586-4.498c-0.873-1.22-0.711-2.813,0.378-3.713c1.345-1.108,2.094-2.74,2.065-4.487
						c-0.037-1.769-0.871-3.404-2.289-4.481c-2.316-1.755-4.838-3.21-7.509-4.332c-0.721-0.308-1.483-0.462-2.261-0.462
						c-2.801,0-5.175,1.997-5.627,4.74c-0.236,1.393-1.501,2.34-3.047,2.182c-1.688-0.182-3.453-0.182-5.152,0
						c-1.473,0.158-2.806-0.789-3.037-2.182c-0.456-2.743-2.822-4.74-5.629-4.74c-0.779,0-1.543,0.154-2.268,0.462
						c-2.664,1.122-5.192,2.577-7.503,4.332c-1.422,1.077-2.253,2.708-2.29,4.481c-0.033,1.747,0.723,3.379,2.071,4.494
						c1.087,0.893,1.246,2.49,0.37,3.706c-1.01,1.404-1.879,2.917-2.584,4.493c-0.578,1.294-2.004,2.055-3.43,1.516
						c-0.646-0.238-1.313-0.361-1.992-0.361c-2.855,0-5.287,2.159-5.66,5.025c-0.186,1.439-0.281,2.906-0.281,4.363
						c0,1.461,0.095,2.928,0.281,4.363c0.462,3.547,4.162,5.975,7.684,4.651c1.281-0.481,2.82,0.242,3.393,1.523
						c0.711,1.585,1.578,3.102,2.589,4.502c0.877,1.215,0.71,2.811-0.375,3.709c-1.349,1.107-2.099,2.743-2.065,4.49
						c0.037,1.766,0.868,3.399,2.29,4.478c2.311,1.755,4.839,3.214,7.503,4.333c0.725,0.308,1.488,0.466,2.268,0.466
						c2.8,0,5.173-1.997,5.629-4.74c0.232-1.396,1.52-2.324,3.039-2.183c1.691,0.182,3.455,0.182,5.152,0
						c1.501-0.142,2.809,0.786,3.045,2.183c0.452,2.743,2.822,4.74,5.631,4.74c0.773,0,1.536-0.162,2.257-0.466
						c2.669-1.124,5.187-2.582,7.505-4.333c1.422-1.08,2.255-2.712,2.289-4.481c0.031-1.743-0.724-3.379-2.068-4.49
						c-1.088-0.897-1.25-2.49-0.375-3.705c1.013-1.404,1.887-2.917,2.584-4.493c0.588-1.29,2.016-2.048,3.431-1.521
						c0.646,0.242,1.319,0.366,1.995,0.366c2.856,0,5.287-2.162,5.656-5.024c0.189-1.439,0.281-2.906,0.281-4.367
						C92.472,65.377,92.38,63.91,92.19,62.474z M89.189,70.812c-0.214,1.682-1.839,2.866-3.62,2.203
						c-2.754-1.035-6,0.396-7.222,3.129c-0.621,1.394-1.386,2.725-2.281,3.963c-1.812,2.532-1.423,5.891,0.919,7.814
						c0.625,0.517,0.971,1.277,0.955,2.086c-0.018,0.842-0.41,1.619-1.086,2.131c-2.119,1.601-4.42,2.937-6.852,3.955
						c-0.351,0.154-0.72,0.228-1.086,0.228h-0.004c-1.316,0-2.435-0.931-2.646-2.212c-0.453-2.739-2.859-4.725-5.701-4.725
						c-0.213,0-0.429,0.007-0.641,0.03c-1.492,0.153-3.036,0.153-4.516,0c-3.097-0.339-5.856,1.751-6.345,4.687
						c-0.273,1.646-2.155,2.661-3.731,1.992c-2.439-1.026-4.744-2.354-6.854-3.959c-0.677-0.508-1.073-1.289-1.094-2.127
						c-0.014-0.809,0.338-1.569,0.965-2.09c2.338-1.924,2.725-5.283,0.91-7.811c-0.889-1.242-1.658-2.573-2.281-3.971
						c-1.222-2.725-4.344-4.193-7.252-3.111c-1.592,0.6-3.371-0.535-3.586-2.213c-0.171-1.313-0.259-2.648-0.259-3.978
						c0-1.326,0.088-2.666,0.259-3.975c0.211-1.682,1.834-2.867,3.618-2.205c2.757,1.027,5.998-0.4,7.22-3.125
						c0.623-1.396,1.393-2.727,2.281-3.965c1.814-2.533,1.428-5.895-0.912-7.814c-0.626-0.517-0.977-1.281-0.963-2.09
						c0.021-0.842,0.417-1.617,1.094-2.132c2.109-1.601,4.414-2.933,6.854-3.954c1.576-0.678,3.455,0.346,3.731,1.988
						c0.484,2.936,3.237,5.029,6.339,4.689c1.491-0.153,3.035-0.153,4.52,0c3.143,0.348,5.858-1.746,6.344-4.685
						c0.27-1.643,2.147-2.67,3.736-1.99c2.432,1.025,4.74,2.356,6.852,3.957c0.67,0.51,1.068,1.289,1.086,2.127
						c0.016,0.809-0.336,1.573-0.962,2.09c-2.335,1.927-2.724,5.285-0.912,7.814c0.896,1.242,1.66,2.573,2.281,3.97
						c1.222,2.724,4.337,4.186,7.255,3.112c1.594-0.607,3.373,0.535,3.587,2.213c0.174,1.309,0.258,2.648,0.258,3.975
						C89.447,68.164,89.363,69.5,89.189,70.812z"/>
				</g>
			</g>
		</g>
		<g>
			<g>
				<path fill="#414042" d="M57.667,50.189c-9.18,0-16.648,7.464-16.648,16.645c0,9.184,7.469,16.648,16.648,16.648
					c9.178,0,16.643-7.465,16.643-16.648C74.31,57.653,66.845,50.189,57.667,50.189z M57.667,80.457
					c-7.514,0-13.625-6.109-13.625-13.623c0-7.506,6.111-13.619,13.625-13.619c7.506,0,13.617,6.113,13.617,13.619
					C71.284,74.347,65.173,80.457,57.667,80.457z"/>
			</g>
		</g>
		<g>
			<g>
				<path fill="#414042" d="M57.667,56.241c-4.174,0-7.57,3.397-7.57,7.567c0,4.172,3.396,7.566,7.57,7.566s7.564-3.394,7.564-7.566
					C65.231,59.638,61.841,56.241,57.667,56.241z M57.667,68.349c-2.504,0-4.543-2.039-4.543-4.541c0-2.504,2.039-4.539,4.543-4.539
					c2.5,0,4.539,2.035,4.539,4.539C62.206,66.31,60.167,68.349,57.667,68.349z"/>
			</g>
		</g>
		<g>
			<g>
				<path fill="#B3AA8D" d="M47.114,77.602c0,0,9.399,9.397,21.406,0C68.52,77.602,58.081,61.082,47.114,77.602z"/>
				<path fill="#414042" d="M69.785,77.056c-1.786-5.207-6.659-8.703-12.118-8.703c-5.465,0-10.334,3.494-12.125,8.703
					c-0.19,0.546-0.047,1.151,0.36,1.558c3.142,3.14,7.319,4.868,11.765,4.868c4.438,0,8.619-1.729,11.762-4.868
					C69.84,78.208,69.979,77.602,69.785,77.056z M48.767,77.14c1.579-3.481,5.05-5.767,8.9-5.767c3.844,0,7.313,2.285,8.908,5.767
					C61.626,81.427,53.708,81.427,48.767,77.14z"/>
			</g>
		</g>
	</g>
	<g>
		<g>
			<path fill="#FFFFFF" d="M199.238,58.794c-0.171,0.333-0.404,0.625-0.701,0.875s-0.645,0.446-1.044,0.59
				c-0.398,0.144-0.824,0.215-1.275,0.215h-3.017v4.305h-1.197V53.576h4.214c0.451,0,0.877,0.071,1.275,0.215
				c0.399,0.144,0.747,0.34,1.044,0.59s0.53,0.543,0.701,0.879c0.17,0.336,0.255,0.694,0.255,1.074v1.391
				C199.493,58.104,199.408,58.461,199.238,58.794z M198.296,56.334c0-0.25-0.056-0.483-0.167-0.699s-0.265-0.406-0.459-0.57
				c-0.195-0.164-0.421-0.293-0.678-0.387s-0.533-0.141-0.83-0.141h-2.961v4.977h2.961c0.297,0,0.573-0.047,0.83-0.141
				s0.482-0.222,0.678-0.383c0.194-0.161,0.348-0.351,0.459-0.566s0.167-0.449,0.167-0.699V56.334z"/>
			<path fill="#FFFFFF" d="M209.07,62.185c0,0.38-0.091,0.737-0.273,1.07s-0.427,0.625-0.733,0.875
				c-0.306,0.25-0.662,0.446-1.066,0.59c-0.405,0.144-0.834,0.215-1.285,0.215h-0.956c-0.452,0-0.881-0.071-1.285-0.215
				c-0.405-0.144-0.762-0.34-1.067-0.59c-0.307-0.25-0.551-0.542-0.733-0.875s-0.273-0.69-0.273-1.07V61.74l1.197-0.164v0.609
				c0,0.25,0.06,0.483,0.181,0.699c0.12,0.216,0.283,0.406,0.487,0.57s0.44,0.293,0.71,0.387c0.269,0.094,0.552,0.141,0.849,0.141
				h0.835c0.298,0,0.579-0.047,0.845-0.141c0.267-0.094,0.501-0.223,0.705-0.387s0.367-0.354,0.487-0.57
				c0.121-0.216,0.182-0.449,0.182-0.699v-0.336c0-0.386-0.09-0.706-0.27-0.961s-0.418-0.473-0.715-0.652s-0.632-0.332-1.007-0.457
				c-0.374-0.125-0.759-0.25-1.155-0.375s-0.781-0.263-1.155-0.414s-0.71-0.34-1.007-0.566s-0.535-0.504-0.715-0.832
				c-0.179-0.328-0.269-0.731-0.269-1.211V56.17c0-0.38,0.085-0.737,0.255-1.07s0.404-0.625,0.701-0.875s0.645-0.446,1.044-0.59
				c0.398-0.144,0.824-0.215,1.275-0.215h0.854c0.451,0,0.875,0.071,1.271,0.215s0.743,0.34,1.04,0.59s0.53,0.542,0.7,0.875
				s0.255,0.69,0.255,1.07v0.289l-1.196,0.164V56.17c0-0.25-0.056-0.483-0.167-0.699c-0.112-0.216-0.264-0.405-0.455-0.566
				c-0.192-0.161-0.416-0.289-0.673-0.383s-0.533-0.141-0.831-0.141h-0.742c-0.297,0-0.573,0.047-0.83,0.141
				s-0.482,0.222-0.678,0.383c-0.194,0.161-0.348,0.351-0.459,0.566s-0.167,0.449-0.167,0.699v0.211
				c0,0.359,0.089,0.661,0.269,0.906s0.418,0.454,0.715,0.629s0.633,0.325,1.007,0.453s0.76,0.258,1.155,0.391
				s0.781,0.278,1.155,0.438s0.71,0.354,1.007,0.586s0.535,0.515,0.715,0.848s0.269,0.739,0.269,1.219v0.334H209.07z"/>
			<path fill="#FFFFFF" d="M218.874,58.794c-0.171,0.333-0.404,0.625-0.701,0.875s-0.645,0.446-1.044,0.59
				c-0.398,0.144-0.824,0.215-1.275,0.215h-3.017v4.305h-1.197V53.576h4.214c0.451,0,0.877,0.071,1.275,0.215
				c0.399,0.144,0.747,0.34,1.044,0.59s0.53,0.543,0.701,0.879c0.17,0.336,0.255,0.694,0.255,1.074v1.391
				C219.129,58.104,219.044,58.461,218.874,58.794z M217.932,56.334c0-0.25-0.056-0.483-0.167-0.699s-0.265-0.406-0.459-0.57
				c-0.195-0.164-0.421-0.293-0.678-0.387s-0.533-0.141-0.83-0.141h-2.961v4.977h2.961c0.297,0,0.573-0.047,0.83-0.141
				s0.482-0.222,0.678-0.383c0.194-0.161,0.348-0.351,0.459-0.566s0.167-0.449,0.167-0.699V56.334z"/>
		</g>
	</g>
	<g>
		<g>
			<path fill="#FFFFFF" d="M123.41,77.87c0-0.707,0.08-1.364,0.241-1.974c0.16-0.609,0.384-1.178,0.671-1.705
				c0.286-0.526,0.627-1.016,1.021-1.466c0.395-0.451,0.825-0.869,1.293-1.254l0.543,0.457c-0.412,0.359-0.793,0.758-1.143,1.193
				c-0.349,0.436-0.649,0.904-0.9,1.406c-0.252,0.501-0.447,1.031-0.588,1.59c-0.142,0.559-0.212,1.143-0.212,1.752
				s0.07,1.193,0.212,1.752c0.141,0.559,0.336,1.089,0.588,1.59c0.251,0.502,0.552,0.971,0.9,1.406
				c0.35,0.436,0.73,0.834,1.143,1.193l-0.543,0.457c-0.468-0.385-0.898-0.803-1.293-1.254c-0.395-0.45-0.735-0.94-1.021-1.47
				c-0.287-0.528-0.511-1.098-0.671-1.707C123.49,79.228,123.41,78.572,123.41,77.87z"/>
			<path fill="#FFFFFF" d="M134.754,76.803c-0.139,0.271-0.328,0.508-0.569,0.711s-0.524,0.363-0.849,0.479s-0.67,0.174-1.037,0.174
				h-2.45v3.498h-0.973v-9.103h3.423c0.367,0,0.713,0.059,1.037,0.175s0.607,0.275,0.849,0.479s0.431,0.441,0.569,0.715
				c0.138,0.272,0.207,0.563,0.207,0.873v1.129C134.961,76.243,134.892,76.533,134.754,76.803z M133.988,74.804
				c0-0.203-0.045-0.393-0.136-0.568s-0.215-0.33-0.373-0.464c-0.158-0.133-0.342-0.237-0.551-0.313
				c-0.208-0.076-0.434-0.115-0.675-0.115h-2.405v4.044h2.405c0.241,0,0.467-0.038,0.675-0.114c0.209-0.076,0.393-0.18,0.551-0.311
				c0.158-0.132,0.282-0.285,0.373-0.461s0.136-0.365,0.136-0.568V74.804z"/>
			<path fill="#FFFFFF" d="M138.777,75.908c-0.187,0-0.361,0.03-0.524,0.09c-0.163,0.059-0.306,0.139-0.426,0.24
				c-0.121,0.102-0.217,0.222-0.287,0.359s-0.105,0.284-0.105,0.441v4.627h-0.927v-6.5h0.309l0.506,0.66
				c0.211-0.241,0.476-0.433,0.795-0.574s0.667-0.213,1.044-0.213h0.543v0.869L138.777,75.908L138.777,75.908z"/>
			<path fill="#FFFFFF" d="M145.92,80.625c-0.118,0.232-0.28,0.436-0.486,0.609s-0.447,0.31-0.724,0.409s-0.57,0.149-0.882,0.149
				h-0.618c-0.313,0-0.606-0.05-0.883-0.149s-0.518-0.235-0.724-0.409s-0.368-0.377-0.486-0.609s-0.177-0.48-0.177-0.742v-2.934
				c0-0.262,0.059-0.51,0.177-0.742s0.28-0.436,0.486-0.609s0.447-0.31,0.724-0.409s0.57-0.149,0.883-0.149h0.618
				c0.312,0,0.605,0.05,0.882,0.149s0.518,0.235,0.724,0.409s0.368,0.377,0.486,0.609s0.178,0.48,0.178,0.742v2.934
				C146.098,80.144,146.038,80.392,145.92,80.625z M145.17,76.905c0-0.156-0.035-0.304-0.105-0.441s-0.166-0.257-0.286-0.358
				c-0.121-0.102-0.263-0.182-0.427-0.241c-0.163-0.06-0.338-0.089-0.523-0.089h-0.618c-0.187,0-0.361,0.029-0.524,0.089
				s-0.306,0.14-0.426,0.241c-0.121,0.102-0.217,0.221-0.287,0.358s-0.105,0.285-0.105,0.441v3.021c0,0.156,0.035,0.304,0.105,0.441
				s0.166,0.257,0.287,0.358c0.12,0.102,0.263,0.182,0.426,0.241s0.338,0.089,0.524,0.089h0.618c0.186,0,0.36-0.029,0.523-0.089
				c0.164-0.06,0.306-0.14,0.427-0.241c0.12-0.102,0.216-0.221,0.286-0.358s0.105-0.285,0.105-0.441V76.905z"/>
			<path fill="#FFFFFF" d="M152.932,80.625c-0.118,0.232-0.28,0.436-0.486,0.609s-0.447,0.31-0.724,0.409s-0.57,0.149-0.882,0.149
				h-0.618c-0.313,0-0.606-0.05-0.883-0.149s-0.518-0.235-0.724-0.409s-0.368-0.377-0.486-0.609s-0.177-0.48-0.177-0.742v-2.934
				c0-0.262,0.059-0.51,0.177-0.742s0.28-0.436,0.486-0.609s0.447-0.31,0.724-0.409s0.57-0.149,0.883-0.149h0.618
				c0.312,0,0.605,0.05,0.882,0.149s0.518,0.235,0.724,0.409s0.368,0.377,0.486,0.609s0.178,0.48,0.178,0.742v0.261l-0.928,0.127
				v-0.432c0-0.156-0.035-0.304-0.105-0.441s-0.166-0.257-0.286-0.358c-0.121-0.102-0.263-0.182-0.427-0.241
				c-0.163-0.06-0.338-0.089-0.523-0.089h-0.618c-0.187,0-0.361,0.029-0.524,0.089s-0.306,0.14-0.426,0.241
				c-0.121,0.102-0.217,0.221-0.287,0.358s-0.105,0.285-0.105,0.441v3.021c0,0.156,0.035,0.304,0.105,0.441s0.166,0.257,0.287,0.358
				c0.12,0.102,0.263,0.182,0.426,0.241s0.338,0.089,0.524,0.089h0.618c0.186,0,0.36-0.029,0.523-0.089
				c0.164-0.06,0.306-0.14,0.427-0.241c0.12-0.102,0.216-0.221,0.286-0.358s0.105-0.285,0.105-0.441v-0.432l0.928,0.127v0.261
				C153.11,80.144,153.05,80.392,152.932,80.625z"/>
			<path fill="#FFFFFF" d="M159.945,80.625c-0.118,0.232-0.28,0.436-0.486,0.609s-0.447,0.31-0.724,0.409s-0.57,0.149-0.882,0.149
				h-0.618c-0.313,0-0.606-0.05-0.883-0.149s-0.518-0.235-0.724-0.409s-0.368-0.377-0.486-0.609s-0.177-0.48-0.177-0.742v-2.934
				c0-0.262,0.059-0.51,0.177-0.742s0.28-0.436,0.486-0.609s0.447-0.31,0.724-0.409s0.57-0.149,0.883-0.149h0.618
				c0.312,0,0.605,0.05,0.882,0.149s0.518,0.235,0.724,0.409s0.368,0.377,0.486,0.609s0.178,0.48,0.178,0.742v1.53h-4.23v1.447
				c0,0.156,0.035,0.304,0.105,0.441s0.166,0.257,0.287,0.358c0.12,0.102,0.263,0.182,0.426,0.241s0.338,0.089,0.524,0.089h0.618
				c0.186,0,0.36-0.029,0.523-0.089c0.164-0.06,0.306-0.14,0.427-0.241c0.12-0.102,0.216-0.221,0.286-0.358s0.105-0.285,0.105-0.441
				v-0.432l0.928,0.127v0.261C160.122,80.144,160.063,80.392,159.945,80.625z M159.195,76.905c0-0.156-0.035-0.304-0.105-0.441
				s-0.166-0.257-0.286-0.358c-0.121-0.102-0.263-0.182-0.427-0.241c-0.163-0.06-0.338-0.089-0.523-0.089h-0.618
				c-0.187,0-0.361,0.029-0.524,0.089s-0.306,0.14-0.426,0.241c-0.121,0.102-0.217,0.221-0.287,0.358s-0.105,0.285-0.105,0.441
				v0.965h3.303v-0.965H159.195z"/>
			<path fill="#FFFFFF" d="M167.284,80.015c0,0.263-0.063,0.503-0.188,0.721s-0.297,0.405-0.513,0.562s-0.466,0.278-0.75,0.365
				s-0.582,0.13-0.894,0.13h-0.618c-0.312,0-0.609-0.05-0.894-0.149s-0.533-0.235-0.746-0.409c-0.214-0.174-0.385-0.377-0.513-0.609
				c-0.129-0.232-0.192-0.48-0.192-0.742v-0.261l0.927-0.127v0.432c0,0.156,0.039,0.304,0.117,0.441s0.183,0.257,0.313,0.358
				c0.131,0.102,0.282,0.182,0.453,0.241s0.349,0.089,0.535,0.089h0.618c0.186,0,0.364-0.023,0.535-0.07
				c0.171-0.046,0.323-0.112,0.456-0.199c0.134-0.087,0.239-0.191,0.317-0.314c0.077-0.123,0.116-0.263,0.116-0.419
				c0-0.232-0.061-0.423-0.181-0.571c-0.121-0.148-0.28-0.271-0.479-0.371s-0.425-0.183-0.679-0.248s-0.515-0.131-0.78-0.196
				c-0.267-0.065-0.527-0.141-0.78-0.226c-0.254-0.085-0.48-0.195-0.679-0.333s-0.358-0.311-0.479-0.518
				c-0.12-0.207-0.181-0.466-0.181-0.774c0-0.263,0.061-0.503,0.181-0.721c0.121-0.218,0.284-0.405,0.49-0.562
				s0.446-0.278,0.721-0.365c0.273-0.087,0.566-0.13,0.878-0.13h0.543c0.312,0,0.605,0.05,0.882,0.149s0.518,0.235,0.724,0.409
				s0.368,0.377,0.486,0.609s0.178,0.48,0.178,0.742v0.025l-0.928,0.127v-0.196c0-0.156-0.035-0.304-0.105-0.441
				s-0.166-0.257-0.286-0.358c-0.121-0.102-0.263-0.182-0.426-0.241c-0.164-0.06-0.339-0.089-0.524-0.089h-0.543
				c-0.186,0-0.36,0.023-0.524,0.07c-0.163,0.046-0.305,0.112-0.426,0.199c-0.12,0.087-0.216,0.191-0.286,0.314
				s-0.105,0.263-0.105,0.419c0,0.225,0.061,0.407,0.181,0.549c0.121,0.142,0.28,0.262,0.479,0.358
				c0.199,0.098,0.425,0.18,0.679,0.245s0.513,0.133,0.776,0.203c0.265,0.069,0.523,0.149,0.777,0.237
				c0.254,0.09,0.479,0.203,0.679,0.344c0.198,0.139,0.357,0.313,0.479,0.523C167.224,79.447,167.284,79.707,167.284,80.015z"/>
			<path fill="#FFFFFF" d="M174.372,80.015c0,0.263-0.063,0.503-0.188,0.721s-0.297,0.405-0.513,0.562s-0.466,0.278-0.75,0.365
				s-0.582,0.13-0.894,0.13h-0.618c-0.312,0-0.609-0.05-0.894-0.149s-0.533-0.235-0.746-0.409c-0.214-0.174-0.385-0.377-0.513-0.609
				c-0.129-0.232-0.192-0.48-0.192-0.742v-0.261l0.927-0.127v0.432c0,0.156,0.039,0.304,0.117,0.441s0.183,0.257,0.313,0.358
				c0.131,0.102,0.282,0.182,0.453,0.241s0.349,0.089,0.535,0.089h0.618c0.186,0,0.364-0.023,0.535-0.07
				c0.171-0.046,0.323-0.112,0.456-0.199c0.134-0.087,0.239-0.191,0.317-0.314c0.077-0.123,0.116-0.263,0.116-0.419
				c0-0.232-0.061-0.423-0.181-0.571c-0.121-0.148-0.28-0.271-0.479-0.371s-0.425-0.183-0.679-0.248s-0.515-0.131-0.78-0.196
				c-0.267-0.065-0.527-0.141-0.78-0.226c-0.254-0.085-0.48-0.195-0.679-0.333s-0.358-0.311-0.479-0.518
				c-0.12-0.207-0.181-0.466-0.181-0.774c0-0.263,0.061-0.503,0.181-0.721c0.121-0.218,0.284-0.405,0.49-0.562
				s0.446-0.278,0.721-0.365c0.273-0.087,0.566-0.13,0.878-0.13h0.543c0.312,0,0.605,0.05,0.882,0.149s0.518,0.235,0.724,0.409
				s0.368,0.377,0.486,0.609s0.178,0.48,0.178,0.742v0.025l-0.928,0.127v-0.196c0-0.156-0.035-0.304-0.105-0.441
				s-0.166-0.257-0.286-0.358c-0.121-0.102-0.263-0.182-0.426-0.241c-0.164-0.06-0.339-0.089-0.524-0.089h-0.543
				c-0.186,0-0.36,0.023-0.524,0.07c-0.163,0.046-0.305,0.112-0.426,0.199c-0.12,0.087-0.216,0.191-0.286,0.314
				s-0.105,0.263-0.105,0.419c0,0.225,0.061,0.407,0.181,0.549c0.121,0.142,0.28,0.262,0.479,0.358
				c0.199,0.098,0.425,0.18,0.679,0.245s0.513,0.133,0.776,0.203c0.265,0.069,0.523,0.149,0.777,0.237
				c0.254,0.09,0.479,0.203,0.679,0.344c0.198,0.139,0.357,0.313,0.479,0.523C174.312,79.447,174.372,79.707,174.372,80.015z"/>
			<path fill="#FFFFFF" d="M185.011,80.015c0,0.263-0.063,0.503-0.188,0.721s-0.297,0.405-0.513,0.562s-0.466,0.278-0.75,0.365
				s-0.582,0.13-0.894,0.13h-0.618c-0.312,0-0.609-0.05-0.894-0.149s-0.533-0.235-0.746-0.409c-0.214-0.174-0.385-0.377-0.513-0.609
				c-0.129-0.232-0.192-0.48-0.192-0.742v-0.261l0.927-0.127v0.432c0,0.156,0.039,0.304,0.117,0.441s0.183,0.257,0.313,0.358
				c0.131,0.102,0.282,0.182,0.453,0.241s0.349,0.089,0.535,0.089h0.618c0.186,0,0.364-0.023,0.535-0.07
				c0.171-0.046,0.323-0.112,0.456-0.199c0.134-0.087,0.239-0.191,0.317-0.314c0.077-0.123,0.116-0.263,0.116-0.419
				c0-0.232-0.061-0.423-0.181-0.571c-0.121-0.148-0.28-0.271-0.479-0.371s-0.425-0.183-0.679-0.248s-0.515-0.131-0.78-0.196
				c-0.267-0.065-0.527-0.141-0.78-0.226c-0.254-0.085-0.48-0.195-0.679-0.333s-0.358-0.311-0.479-0.518
				c-0.12-0.207-0.181-0.466-0.181-0.774c0-0.263,0.061-0.503,0.181-0.721c0.121-0.218,0.284-0.405,0.49-0.562
				s0.446-0.278,0.721-0.365c0.273-0.087,0.566-0.13,0.878-0.13h0.543c0.312,0,0.605,0.05,0.882,0.149s0.518,0.235,0.724,0.409
				s0.368,0.377,0.486,0.609s0.178,0.48,0.178,0.742v0.025l-0.928,0.127v-0.196c0-0.156-0.035-0.304-0.105-0.441
				s-0.166-0.257-0.286-0.358c-0.121-0.102-0.263-0.182-0.426-0.241c-0.164-0.06-0.339-0.089-0.524-0.089h-0.543
				c-0.186,0-0.36,0.023-0.524,0.07c-0.163,0.046-0.305,0.112-0.426,0.199c-0.12,0.087-0.216,0.191-0.286,0.314
				s-0.105,0.263-0.105,0.419c0,0.225,0.061,0.407,0.181,0.549c0.121,0.142,0.28,0.262,0.479,0.358
				c0.199,0.098,0.425,0.18,0.679,0.245s0.513,0.133,0.776,0.203c0.265,0.069,0.523,0.149,0.777,0.237
				c0.254,0.09,0.479,0.203,0.679,0.344c0.198,0.139,0.357,0.313,0.479,0.523C184.95,79.447,185.011,79.707,185.011,80.015z"/>
			<path fill="#FFFFFF" d="M191.77,80.625c-0.118,0.232-0.28,0.436-0.486,0.609s-0.447,0.31-0.724,0.409s-0.57,0.149-0.882,0.149
				h-0.618c-0.313,0-0.606-0.05-0.883-0.149s-0.518-0.235-0.724-0.409s-0.368-0.377-0.486-0.609s-0.177-0.48-0.177-0.742v-2.934
				c0-0.262,0.059-0.51,0.177-0.742s0.28-0.436,0.486-0.609s0.447-0.31,0.724-0.409s0.57-0.149,0.883-0.149h0.618
				c0.312,0,0.605,0.05,0.882,0.149s0.518,0.235,0.724,0.409s0.368,0.377,0.486,0.609s0.178,0.48,0.178,0.742v2.934
				C191.947,80.144,191.888,80.392,191.77,80.625z M191.02,76.905c0-0.156-0.035-0.304-0.105-0.441s-0.166-0.257-0.286-0.358
				c-0.121-0.102-0.263-0.182-0.427-0.241c-0.163-0.06-0.338-0.089-0.523-0.089h-0.618c-0.187,0-0.361,0.029-0.524,0.089
				s-0.306,0.14-0.426,0.241c-0.121,0.102-0.217,0.221-0.287,0.358s-0.105,0.285-0.105,0.441v3.021c0,0.156,0.035,0.304,0.105,0.441
				s0.166,0.257,0.287,0.358c0.12,0.102,0.263,0.182,0.426,0.241s0.338,0.089,0.524,0.089h0.618c0.186,0,0.36-0.029,0.523-0.089
				c0.164-0.06,0.306-0.14,0.427-0.241c0.12-0.102,0.216-0.221,0.286-0.358s0.105-0.285,0.105-0.441V76.905z"/>
			<path fill="#FFFFFF" d="M196.456,73.306c-0.155,0-0.3,0.023-0.434,0.072c-0.133,0.049-0.25,0.115-0.351,0.2
				s-0.18,0.185-0.237,0.298c-0.058,0.115-0.087,0.237-0.087,0.369v0.92h1.803v0.742h-1.803v5.758h-0.927v-5.758h-1.396v-0.742
				h1.396v-0.883c0-0.236,0.053-0.46,0.158-0.669c0.105-0.21,0.251-0.393,0.438-0.55c0.186-0.156,0.401-0.279,0.648-0.367
				c0.246-0.09,0.51-0.134,0.791-0.134h0.853v0.743h-0.852V73.306z"/>
			<path fill="#FFFFFF" d="M201.048,81.666c-0.282,0-0.547-0.045-0.796-0.133c-0.249-0.09-0.465-0.212-0.648-0.369
				c-0.184-0.156-0.329-0.338-0.438-0.545c-0.108-0.208-0.162-0.43-0.162-0.667v-4.044h-1.387v-0.742h1.387v-1.562l0.928-0.127
				v1.688h1.96v0.742h-1.96v4.082c0,0.131,0.028,0.253,0.087,0.365c0.058,0.112,0.137,0.21,0.237,0.295s0.219,0.151,0.354,0.2
				s0.281,0.073,0.438,0.073h0.844v0.742h-0.844V81.666z"/>
			<path fill="#FFFFFF" d="M210.096,81.666h-0.505l-1.81-4.9l-0.03-0.336l-0.03,0.336l-1.81,4.9h-0.513l-2.579-6.5h0.943
				l1.839,4.913l0.03,0.337l0.03-0.337l1.81-4.913h0.559l1.802,4.913l0.03,0.337l0.03-0.337l1.839-4.913h0.943L210.096,81.666z"/>
			<path fill="#FFFFFF" d="M218.609,81.666l-0.513-0.647c-0.211,0.232-0.475,0.42-0.792,0.562c-0.316,0.142-0.663,0.213-1.04,0.213
				h-0.233c-0.313,0-0.606-0.05-0.883-0.149s-0.518-0.235-0.724-0.409s-0.368-0.377-0.486-0.609s-0.177-0.48-0.177-0.742v-0.064
				c0-0.262,0.059-0.51,0.177-0.742s0.28-0.436,0.486-0.609s0.447-0.31,0.724-0.409s0.57-0.149,0.883-0.149h1.96v-1.003
				c0-0.156-0.035-0.304-0.105-0.441s-0.166-0.257-0.286-0.358c-0.121-0.102-0.263-0.182-0.427-0.241
				c-0.163-0.06-0.338-0.089-0.523-0.089h-0.543c-0.187,0-0.361,0.029-0.524,0.089s-0.305,0.14-0.426,0.241
				s-0.216,0.221-0.286,0.358c-0.071,0.138-0.105,0.285-0.105,0.441v0.235l-0.928-0.127v-0.064c0-0.262,0.059-0.51,0.177-0.742
				s0.28-0.436,0.486-0.609s0.447-0.31,0.725-0.409c0.276-0.1,0.57-0.149,0.882-0.149h0.543c0.312,0,0.605,0.05,0.882,0.149
				s0.518,0.235,0.724,0.409s0.368,0.377,0.486,0.609s0.178,0.48,0.178,0.742v4.717h-0.312V81.666z M217.99,78.517h-1.96
				c-0.187,0-0.361,0.029-0.524,0.089s-0.306,0.141-0.426,0.244c-0.121,0.104-0.217,0.225-0.287,0.362s-0.105,0.284-0.105,0.441
				v0.272c0,0.156,0.035,0.304,0.105,0.441s0.166,0.257,0.287,0.358c0.12,0.102,0.263,0.182,0.426,0.241s0.338,0.089,0.524,0.089
				h0.618c0.186,0,0.36-0.029,0.523-0.089c0.164-0.06,0.306-0.14,0.427-0.241c0.12-0.102,0.216-0.221,0.286-0.358
				s0.105-0.285,0.105-0.441v-1.408H217.99z"/>
			<path fill="#FFFFFF" d="M223.042,75.908c-0.187,0-0.361,0.03-0.524,0.09c-0.163,0.059-0.306,0.139-0.426,0.24
				c-0.121,0.102-0.217,0.222-0.287,0.359s-0.105,0.284-0.105,0.441v4.627h-0.927v-6.5h0.309l0.506,0.66
				c0.211-0.241,0.476-0.433,0.795-0.574s0.667-0.213,1.044-0.213h0.543v0.869L223.042,75.908L223.042,75.908z"/>
			<path fill="#FFFFFF" d="M230.186,80.625c-0.118,0.232-0.28,0.436-0.486,0.609s-0.447,0.31-0.724,0.409s-0.57,0.149-0.882,0.149
				h-0.618c-0.313,0-0.606-0.05-0.883-0.149s-0.518-0.235-0.724-0.409s-0.368-0.377-0.486-0.609s-0.177-0.48-0.177-0.742v-2.934
				c0-0.262,0.059-0.51,0.177-0.742s0.28-0.436,0.486-0.609s0.447-0.31,0.724-0.409s0.57-0.149,0.883-0.149h0.618
				c0.312,0,0.605,0.05,0.882,0.149s0.518,0.235,0.724,0.409s0.368,0.377,0.486,0.609s0.178,0.48,0.178,0.742v1.53h-4.23v1.447
				c0,0.156,0.035,0.304,0.105,0.441s0.166,0.257,0.287,0.358c0.12,0.102,0.263,0.182,0.426,0.241s0.338,0.089,0.524,0.089h0.618
				c0.186,0,0.36-0.029,0.523-0.089c0.164-0.06,0.306-0.14,0.427-0.241c0.12-0.102,0.216-0.221,0.286-0.358s0.105-0.285,0.105-0.441
				v-0.432l0.928,0.127v0.261C230.363,80.144,230.304,80.392,230.186,80.625z M229.436,76.905c0-0.156-0.035-0.304-0.105-0.441
				s-0.166-0.257-0.286-0.358c-0.121-0.102-0.263-0.182-0.427-0.241c-0.163-0.06-0.338-0.089-0.523-0.089h-0.618
				c-0.187,0-0.361,0.029-0.524,0.089s-0.306,0.14-0.426,0.241c-0.121,0.102-0.217,0.221-0.287,0.358s-0.105,0.285-0.105,0.441
				v0.965h3.303v-0.965H229.436z"/>
			<path fill="#FFFFFF" d="M241.956,76.803c-0.139,0.271-0.328,0.508-0.569,0.711s-0.524,0.363-0.849,0.479s-0.67,0.174-1.037,0.174
				h-2.45v3.498h-0.973v-9.103h3.423c0.367,0,0.713,0.059,1.037,0.175s0.607,0.275,0.849,0.479s0.431,0.441,0.569,0.715
				c0.138,0.272,0.207,0.563,0.207,0.873v1.129C242.163,76.243,242.094,76.533,241.956,76.803z M241.191,74.804
				c0-0.203-0.045-0.393-0.136-0.568s-0.215-0.33-0.373-0.464c-0.158-0.133-0.342-0.237-0.551-0.313
				c-0.208-0.076-0.434-0.115-0.675-0.115h-2.405v4.044h2.405c0.241,0,0.467-0.038,0.675-0.114c0.209-0.076,0.393-0.18,0.551-0.311
				c0.158-0.132,0.282-0.285,0.373-0.461s0.136-0.365,0.136-0.568V74.804z"/>
			<path fill="#FFFFFF" d="M248.689,80.625c-0.118,0.232-0.28,0.436-0.486,0.609s-0.447,0.31-0.724,0.409s-0.57,0.149-0.882,0.149
				h-0.618c-0.313,0-0.606-0.05-0.883-0.149s-0.518-0.235-0.724-0.409s-0.368-0.377-0.486-0.609s-0.177-0.48-0.177-0.742v-2.934
				c0-0.262,0.059-0.51,0.177-0.742s0.28-0.436,0.486-0.609s0.447-0.31,0.724-0.409s0.57-0.149,0.883-0.149h0.618
				c0.312,0,0.605,0.05,0.882,0.149s0.518,0.235,0.724,0.409s0.368,0.377,0.486,0.609s0.178,0.48,0.178,0.742v1.53h-4.23v1.447
				c0,0.156,0.035,0.304,0.105,0.441s0.166,0.257,0.287,0.358c0.12,0.102,0.263,0.182,0.426,0.241s0.338,0.089,0.524,0.089h0.618
				c0.186,0,0.36-0.029,0.523-0.089c0.164-0.06,0.306-0.14,0.427-0.241c0.12-0.102,0.216-0.221,0.286-0.358s0.105-0.285,0.105-0.441
				v-0.432l0.928,0.127v0.261C248.866,80.144,248.807,80.392,248.689,80.625z M247.939,76.905c0-0.156-0.035-0.304-0.105-0.441
				s-0.166-0.257-0.286-0.358c-0.121-0.102-0.263-0.182-0.427-0.241c-0.163-0.06-0.338-0.089-0.523-0.089h-0.618
				c-0.187,0-0.361,0.029-0.524,0.089s-0.306,0.14-0.426,0.241c-0.121,0.102-0.217,0.221-0.287,0.358s-0.105,0.285-0.105,0.441
				v0.965h3.303v-0.965H247.939z"/>
			<path fill="#FFFFFF" d="M252.99,75.908c-0.187,0-0.361,0.03-0.524,0.09c-0.163,0.059-0.306,0.139-0.426,0.24
				c-0.121,0.102-0.217,0.222-0.287,0.359s-0.105,0.284-0.105,0.441v4.627h-0.927v-6.5h0.309l0.506,0.66
				c0.211-0.241,0.476-0.433,0.795-0.574s0.667-0.213,1.044-0.213h0.543v0.869L252.99,75.908L252.99,75.908z"/>
			<path fill="#FFFFFF" d="M260.462,80.015c0,0.263-0.063,0.503-0.188,0.721s-0.297,0.405-0.513,0.562s-0.466,0.278-0.75,0.365
				s-0.582,0.13-0.894,0.13h-0.618c-0.312,0-0.609-0.05-0.894-0.149s-0.533-0.235-0.746-0.409c-0.214-0.174-0.385-0.377-0.513-0.609
				c-0.129-0.232-0.192-0.48-0.192-0.742v-0.261l0.927-0.127v0.432c0,0.156,0.039,0.304,0.117,0.441s0.183,0.257,0.313,0.358
				c0.131,0.102,0.282,0.182,0.453,0.241s0.349,0.089,0.535,0.089h0.618c0.186,0,0.364-0.023,0.535-0.07
				c0.171-0.046,0.323-0.112,0.456-0.199c0.134-0.087,0.239-0.191,0.317-0.314c0.077-0.123,0.116-0.263,0.116-0.419
				c0-0.232-0.061-0.423-0.181-0.571c-0.121-0.148-0.28-0.271-0.479-0.371s-0.425-0.183-0.679-0.248s-0.515-0.131-0.78-0.196
				c-0.267-0.065-0.527-0.141-0.78-0.226c-0.254-0.085-0.48-0.195-0.679-0.333c-0.199-0.138-0.358-0.311-0.479-0.518
				c-0.12-0.207-0.181-0.466-0.181-0.774c0-0.263,0.061-0.503,0.181-0.721c0.121-0.218,0.284-0.405,0.49-0.562
				c0.206-0.156,0.446-0.278,0.721-0.365c0.273-0.087,0.566-0.13,0.878-0.13h0.543c0.312,0,0.605,0.05,0.882,0.149
				s0.518,0.235,0.724,0.409s0.368,0.377,0.486,0.609s0.178,0.48,0.178,0.742v0.025l-0.928,0.127v-0.196
				c0-0.156-0.035-0.304-0.105-0.441s-0.166-0.257-0.286-0.358c-0.121-0.102-0.263-0.182-0.426-0.241
				c-0.164-0.06-0.339-0.089-0.524-0.089h-0.543c-0.186,0-0.36,0.023-0.524,0.07c-0.163,0.046-0.305,0.112-0.426,0.199
				c-0.12,0.087-0.216,0.191-0.286,0.314s-0.105,0.263-0.105,0.419c0,0.225,0.061,0.407,0.181,0.549
				c0.121,0.142,0.28,0.262,0.479,0.358c0.199,0.098,0.425,0.18,0.679,0.245s0.513,0.133,0.776,0.203
				c0.265,0.069,0.523,0.149,0.777,0.237c0.254,0.09,0.479,0.203,0.679,0.344c0.198,0.139,0.357,0.313,0.479,0.523
				C260.402,79.447,260.462,79.707,260.462,80.015z"/>
			<path fill="#FFFFFF" d="M267.221,80.625c-0.118,0.232-0.28,0.436-0.486,0.609s-0.447,0.31-0.724,0.409s-0.57,0.149-0.882,0.149
				h-0.618c-0.313,0-0.606-0.05-0.883-0.149s-0.518-0.235-0.724-0.409s-0.368-0.377-0.486-0.609s-0.177-0.48-0.177-0.742v-2.934
				c0-0.262,0.059-0.51,0.177-0.742s0.28-0.436,0.486-0.609s0.447-0.31,0.724-0.409s0.57-0.149,0.883-0.149h0.618
				c0.312,0,0.605,0.05,0.882,0.149s0.518,0.235,0.724,0.409s0.368,0.377,0.486,0.609s0.178,0.48,0.178,0.742v2.934
				C267.399,80.144,267.339,80.392,267.221,80.625z M266.471,76.905c0-0.156-0.035-0.304-0.105-0.441s-0.166-0.257-0.286-0.358
				c-0.121-0.102-0.263-0.182-0.427-0.241c-0.163-0.06-0.338-0.089-0.523-0.089h-0.618c-0.187,0-0.361,0.029-0.524,0.089
				s-0.306,0.14-0.426,0.241c-0.121,0.102-0.217,0.221-0.287,0.358s-0.105,0.285-0.105,0.441v3.021c0,0.156,0.035,0.304,0.105,0.441
				s0.166,0.257,0.287,0.358c0.12,0.102,0.263,0.182,0.426,0.241s0.338,0.089,0.524,0.089h0.618c0.186,0,0.36-0.029,0.523-0.089
				c0.164-0.06,0.306-0.14,0.427-0.241c0.12-0.102,0.216-0.221,0.286-0.358s0.105-0.285,0.105-0.441V76.905z"/>
			<path fill="#FFFFFF" d="M273.484,81.666v-4.761c0-0.156-0.035-0.304-0.105-0.441s-0.166-0.257-0.286-0.358
				c-0.121-0.102-0.263-0.182-0.427-0.241c-0.163-0.06-0.338-0.089-0.523-0.089h-0.618c-0.187,0-0.361,0.029-0.524,0.089
				s-0.306,0.14-0.426,0.241c-0.121,0.102-0.217,0.221-0.287,0.358s-0.105,0.285-0.105,0.441v4.761h-0.927v-6.5h0.309l0.506,0.66
				c0.211-0.241,0.476-0.433,0.795-0.574s0.667-0.213,1.044-0.213h0.234c0.312,0,0.605,0.05,0.882,0.149s0.518,0.235,0.724,0.409
				s0.368,0.377,0.486,0.609s0.178,0.48,0.178,0.742v4.717L273.484,81.666L273.484,81.666z"/>
			<path fill="#FFFFFF" d="M281.113,81.666l-0.513-0.647c-0.211,0.232-0.475,0.42-0.792,0.562c-0.316,0.142-0.663,0.213-1.04,0.213
				h-0.233c-0.313,0-0.606-0.05-0.883-0.149s-0.518-0.235-0.724-0.409s-0.368-0.377-0.486-0.609s-0.177-0.48-0.177-0.742v-0.064
				c0-0.262,0.059-0.51,0.177-0.742s0.28-0.436,0.486-0.609s0.447-0.31,0.724-0.409s0.57-0.149,0.883-0.149h1.96v-1.003
				c0-0.156-0.035-0.304-0.105-0.441s-0.166-0.257-0.286-0.358c-0.121-0.102-0.263-0.182-0.427-0.241
				c-0.163-0.06-0.338-0.089-0.523-0.089h-0.543c-0.187,0-0.361,0.029-0.524,0.089s-0.305,0.14-0.426,0.241
				s-0.216,0.221-0.286,0.358c-0.071,0.138-0.105,0.285-0.105,0.441v0.235l-0.928-0.127v-0.064c0-0.262,0.059-0.51,0.177-0.742
				s0.28-0.436,0.486-0.609s0.447-0.31,0.725-0.409c0.276-0.1,0.57-0.149,0.882-0.149h0.543c0.312,0,0.605,0.05,0.882,0.149
				s0.518,0.235,0.724,0.409s0.368,0.377,0.486,0.609s0.178,0.48,0.178,0.742v4.717h-0.312V81.666z M280.495,78.517h-1.96
				c-0.187,0-0.361,0.029-0.524,0.089s-0.306,0.141-0.426,0.244c-0.121,0.104-0.217,0.225-0.287,0.362s-0.105,0.284-0.105,0.441
				v0.272c0,0.156,0.035,0.304,0.105,0.441s0.166,0.257,0.287,0.358c0.12,0.102,0.263,0.182,0.426,0.241s0.338,0.089,0.524,0.089
				h0.618c0.186,0,0.36-0.029,0.523-0.089c0.164-0.06,0.306-0.14,0.427-0.241c0.12-0.102,0.216-0.221,0.286-0.358
				s0.105-0.285,0.105-0.441L280.495,78.517L280.495,78.517z"/>
			<path fill="#FFFFFF" d="M283.587,81.666v-9.103h0.928v9.103H283.587z"/>
			<path fill="#FFFFFF" d="M289.981,77.87c0,0.702-0.08,1.358-0.241,1.968c-0.16,0.609-0.384,1.179-0.671,1.707
				c-0.286,0.529-0.627,1.02-1.021,1.47c-0.395,0.451-0.825,0.869-1.293,1.254l-0.543-0.457c0.417-0.359,0.799-0.758,1.146-1.193
				c0.347-0.436,0.646-0.904,0.896-1.406c0.252-0.501,0.447-1.031,0.589-1.59c0.141-0.559,0.211-1.143,0.211-1.752
				s-0.07-1.193-0.211-1.752c-0.142-0.559-0.337-1.089-0.589-1.59c-0.251-0.502-0.55-0.971-0.896-1.406
				c-0.348-0.436-0.729-0.834-1.146-1.193l0.543-0.457c0.468,0.385,0.898,0.803,1.293,1.254c0.395,0.45,0.735,0.939,1.021,1.466
				c0.287,0.527,0.511,1.096,0.671,1.705C289.901,76.505,289.981,77.163,289.981,77.87z"/>
		</g>
	</g>
</g>
</svg>
