<!-- Generator: Adobe Illustrator 17.0.0, SVG Export Plug-In  -->
<svg version="1.1"
	 xmlns="http://www.w3.org/2000/svg" xmlns:xlink="http://www.w3.org/1999/xlink" xmlns:a="http://ns.adobe.com/AdobeSVGViewerExtensions/3.0/"
	 x="0px" y="0px" width="509.019px" height="68.533px" viewBox="0 0 509.019 68.533" enable-background="new 0 0 509.019 68.533"
	 xml:space="preserve">
<defs>
</defs>
<g>
	<g>
		<defs>
			<polygon id="SVGID_1_" points="0,19.207 0,54.961 331.869,54.961 357.219,19.207 			"/>
		</defs>
		<clipPath id="SVGID_2_">
			<use xlink:href="#SVGID_1_"  overflow="visible"/>
		</clipPath>
	</g>
	<g>
		<defs>
			<polygon id="SVGID_3_" points="0,19.207 0,54.961 331.869,54.961 357.219,19.207 			"/>
		</defs>
		<use xlink:href="#SVGID_3_"  overflow="visible" fill="#DB5940"/>
		<clipPath id="SVGID_4_">
			<use xlink:href="#SVGID_3_"  overflow="visible"/>
		</clipPath>
		<rect x="0" y="19.207" clip-path="url(#SVGID_4_)" fill="#DB5940" width="354.219" height="35.754"/>
	</g>
	<g>
		<defs>
			<polygon id="SVGID_5_" points="0,19.207 0,54.961 331.869,54.961 357.219,19.207 			"/>
		</defs>
		<clipPath id="SVGID_6_">
			<use xlink:href="#SVGID_5_"  overflow="visible"/>
		</clipPath>
	</g>
</g>
<polygon fill="#DB5940" points="350.914,54.961 341.663,54.961 367.012,19.205 376.263,19.205 "/>
<polygon fill="#DB5940" points="371.517,54.961 362.266,54.961 387.615,19.205 396.865,19.205 "/>
<polygon fill="#DB5940" points="392.12,54.961 382.869,54.961 408.218,19.205 417.469,19.205 "/>
<g>
	<path fill="#FFFFFF" d="M48.742,44.512v-9.6l-0.088,0.596l-3.252,9.004h-0.664l-3.281-9.004l-0.078-0.596v9.6h-1.26V30.508h0.654
		l4.248,11.484l0.039,0.518l0.039-0.518l4.238-11.484h0.664v14.004H48.742z"/>
	<path fill="#FFFFFF" d="M53.195,44.512V30.508h7.881v1.201h-6.621v5.205h5.361v1.201h-5.361v5.195h6.621v1.201H53.195z"/>
	<path fill="#FFFFFF" d="M69.489,42.607c-0.179,0.416-0.425,0.781-0.737,1.094s-0.678,0.558-1.094,0.736
		c-0.416,0.18-0.863,0.27-1.338,0.27h-0.4c-0.475,0-0.923-0.09-1.343-0.27c-0.42-0.179-0.786-0.424-1.099-0.736
		s-0.559-0.678-0.737-1.094c-0.179-0.417-0.269-0.863-0.269-1.338v-0.557l1.26-0.205v0.762c0,0.313,0.059,0.604,0.176,0.873
		c0.117,0.271,0.278,0.508,0.483,0.713s0.442,0.367,0.713,0.484s0.562,0.176,0.874,0.176h0.283c0.307,0,0.596-0.059,0.869-0.176
		s0.512-0.279,0.713-0.484s0.361-0.442,0.479-0.713c0.117-0.27,0.176-0.561,0.176-0.873V30.508h1.26V41.27
		C69.758,41.744,69.668,42.19,69.489,42.607z"/>
	<path fill="#FFFFFF" d="M79.968,42.607c-0.179,0.416-0.425,0.781-0.737,1.094s-0.678,0.558-1.094,0.736
		c-0.416,0.18-0.863,0.27-1.338,0.27h-0.996c-0.475,0-0.923-0.09-1.343-0.27c-0.42-0.179-0.786-0.424-1.099-0.736
		s-0.559-0.678-0.737-1.094c-0.179-0.417-0.269-0.863-0.269-1.338v-7.52c0-0.476,0.09-0.922,0.269-1.338
		c0.179-0.417,0.425-0.781,0.737-1.094s0.679-0.559,1.099-0.738c0.42-0.179,0.868-0.268,1.343-0.268h0.996
		c0.475,0,0.922,0.089,1.338,0.268c0.416,0.18,0.781,0.426,1.094,0.738s0.559,0.677,0.737,1.094
		c0.179,0.416,0.269,0.862,0.269,1.338v7.52C80.236,41.744,80.147,42.19,79.968,42.607z M78.977,33.75
		c0-0.313-0.059-0.604-0.176-0.875c-0.117-0.27-0.277-0.506-0.479-0.707c-0.201-0.202-0.438-0.361-0.708-0.479
		s-0.562-0.176-0.874-0.176h-0.879c-0.313,0-0.604,0.059-0.874,0.176s-0.508,0.276-0.713,0.479
		c-0.205,0.201-0.366,0.438-0.483,0.707c-0.117,0.271-0.176,0.563-0.176,0.875v7.52c0,0.313,0.059,0.604,0.176,0.873
		c0.117,0.271,0.278,0.508,0.483,0.713s0.442,0.367,0.713,0.484s0.562,0.176,0.874,0.176h0.879c0.313,0,0.604-0.059,0.874-0.176
		s0.507-0.279,0.708-0.484s0.361-0.442,0.479-0.713c0.117-0.27,0.176-0.561,0.176-0.873V33.75z"/>
	<path fill="#FFFFFF" d="M89.826,44.512l-3.799-5.977h-1.729v5.977h-1.26V30.508h4.443c0.475,0,0.922,0.089,1.338,0.268
		c0.416,0.18,0.781,0.426,1.094,0.738s0.559,0.678,0.737,1.098s0.269,0.868,0.269,1.344v1.133c0,0.475-0.09,0.922-0.269,1.342
		s-0.425,0.787-0.737,1.1s-0.678,0.558-1.094,0.736c-0.416,0.18-0.863,0.27-1.338,0.27l3.799,5.977H89.826z M89.66,33.955
		c0-0.313-0.059-0.604-0.176-0.875c-0.117-0.27-0.277-0.508-0.479-0.713s-0.438-0.365-0.708-0.482
		c-0.271-0.117-0.562-0.176-0.874-0.176h-3.125v5.625h3.125c0.313,0,0.604-0.059,0.874-0.176s0.507-0.279,0.708-0.484
		s0.361-0.442,0.479-0.713c0.117-0.27,0.176-0.561,0.176-0.873V33.955z"/>
	<path fill="#FFFFFF" d="M98.938,41.25h-4.434l-0.918,3.262h-1.309l4.102-14.004h0.664l4.121,14.004h-1.299L98.938,41.25z
		 M94.846,40.049h3.76l-1.846-6.455l-0.039-0.518l-0.039,0.518L94.846,40.049z"/>
	<path fill="#FFFFFF" d="M115.173,42.412c-0.179,0.416-0.425,0.781-0.737,1.094s-0.679,0.558-1.099,0.736
		c-0.42,0.18-0.868,0.27-1.343,0.27h-4.434V30.508h4.434c0.475,0,0.923,0.089,1.343,0.268c0.42,0.18,0.786,0.426,1.099,0.738
		s0.559,0.678,0.737,1.098s0.269,0.868,0.269,1.344v7.119C115.441,41.549,115.352,41.995,115.173,42.412z M114.182,33.955
		c0-0.313-0.059-0.604-0.176-0.875c-0.117-0.27-0.278-0.508-0.483-0.713s-0.442-0.365-0.713-0.482
		c-0.271-0.117-0.562-0.176-0.874-0.176h-3.115v11.602h3.115c0.313,0,0.604-0.059,0.874-0.176s0.508-0.277,0.713-0.479
		c0.205-0.202,0.366-0.438,0.483-0.709c0.117-0.27,0.176-0.561,0.176-0.873V33.955z"/>
	<path fill="#FFFFFF" d="M118.439,44.512V30.508h7.881v1.201h-6.621v5.205h5.361v1.201h-5.361v5.195h6.621v1.201H118.439z"/>
	<path fill="#FFFFFF" d="M128.518,44.512V30.508h1.26v12.803h5.361v1.201H128.518z"/>
	<path fill="#FFFFFF" d="M149.353,37.031c-0.179,0.416-0.425,0.781-0.737,1.094s-0.679,0.558-1.099,0.736
		c-0.42,0.18-0.868,0.27-1.343,0.27H143v5.381h-1.26V30.508h4.434c0.475,0,0.923,0.089,1.343,0.268
		c0.42,0.18,0.786,0.426,1.099,0.738s0.559,0.678,0.737,1.098s0.269,0.868,0.269,1.344v1.738
		C149.621,36.168,149.531,36.614,149.353,37.031z M148.361,33.955c0-0.313-0.059-0.604-0.176-0.875
		c-0.117-0.27-0.278-0.508-0.483-0.713s-0.442-0.365-0.713-0.482c-0.271-0.117-0.562-0.176-0.874-0.176H143v6.221h3.115
		c0.313,0,0.604-0.059,0.874-0.176s0.508-0.277,0.713-0.479c0.205-0.202,0.366-0.438,0.483-0.709
		c0.117-0.27,0.176-0.561,0.176-0.873V33.955z"/>
	<path fill="#FFFFFF" d="M158.605,44.512l-3.799-5.977h-1.729v5.977h-1.26V30.508h4.443c0.475,0,0.922,0.089,1.338,0.268
		c0.416,0.18,0.781,0.426,1.094,0.738s0.559,0.678,0.737,1.098s0.269,0.868,0.269,1.344v1.133c0,0.475-0.09,0.922-0.269,1.342
		s-0.425,0.787-0.737,1.1s-0.678,0.558-1.094,0.736c-0.416,0.18-0.863,0.27-1.338,0.27l3.799,5.977H158.605z M158.439,33.955
		c0-0.313-0.059-0.604-0.176-0.875c-0.117-0.27-0.277-0.508-0.479-0.713s-0.438-0.365-0.708-0.482
		c-0.271-0.117-0.562-0.176-0.874-0.176h-3.125v5.625h3.125c0.313,0,0.604-0.059,0.874-0.176s0.507-0.279,0.708-0.484
		s0.361-0.442,0.479-0.713c0.117-0.27,0.176-0.561,0.176-0.873V33.955z"/>
	<path fill="#FFFFFF" d="M169.87,42.607c-0.179,0.416-0.425,0.781-0.737,1.094s-0.678,0.558-1.094,0.736
		c-0.416,0.18-0.863,0.27-1.338,0.27h-0.996c-0.475,0-0.923-0.09-1.343-0.27c-0.42-0.179-0.786-0.424-1.099-0.736
		s-0.559-0.678-0.737-1.094c-0.179-0.417-0.269-0.863-0.269-1.338v-7.52c0-0.476,0.09-0.922,0.269-1.338
		c0.179-0.417,0.425-0.781,0.737-1.094s0.679-0.559,1.099-0.738c0.42-0.179,0.868-0.268,1.343-0.268h0.996
		c0.475,0,0.922,0.089,1.338,0.268c0.416,0.18,0.781,0.426,1.094,0.738s0.559,0.677,0.737,1.094
		c0.179,0.416,0.269,0.862,0.269,1.338v7.52C170.139,41.744,170.049,42.19,169.87,42.607z M168.879,33.75
		c0-0.313-0.059-0.604-0.176-0.875c-0.117-0.27-0.277-0.506-0.479-0.707c-0.201-0.202-0.438-0.361-0.708-0.479
		s-0.562-0.176-0.874-0.176h-0.879c-0.313,0-0.604,0.059-0.874,0.176s-0.508,0.276-0.713,0.479
		c-0.205,0.201-0.366,0.438-0.483,0.707c-0.117,0.271-0.176,0.563-0.176,0.875v7.52c0,0.313,0.059,0.604,0.176,0.873
		c0.117,0.271,0.278,0.508,0.483,0.713s0.442,0.367,0.713,0.484s0.562,0.176,0.874,0.176h0.879c0.313,0,0.604-0.059,0.874-0.176
		s0.507-0.279,0.708-0.484s0.361-0.442,0.479-0.713c0.117-0.27,0.176-0.561,0.176-0.873V33.75z"/>
	<path fill="#FFFFFF" d="M180.554,42.607c-0.179,0.416-0.425,0.781-0.737,1.094s-0.678,0.558-1.094,0.736
		c-0.416,0.18-0.863,0.27-1.338,0.27h-0.996c-0.475,0-0.923-0.09-1.343-0.27c-0.42-0.179-0.786-0.424-1.099-0.736
		s-0.559-0.678-0.737-1.094c-0.179-0.417-0.269-0.863-0.269-1.338v-7.52c0-0.476,0.09-0.922,0.269-1.338
		c0.179-0.417,0.425-0.781,0.737-1.094s0.679-0.559,1.099-0.738c0.42-0.179,0.868-0.268,1.343-0.268h0.996
		c0.475,0,0.922,0.089,1.338,0.268c0.416,0.18,0.781,0.426,1.094,0.738s0.559,0.677,0.737,1.094
		c0.179,0.416,0.269,0.862,0.269,1.338v0.566l-1.26,0.195V33.75c0-0.313-0.059-0.604-0.176-0.875
		c-0.117-0.27-0.277-0.506-0.479-0.707c-0.201-0.202-0.438-0.361-0.708-0.479s-0.562-0.176-0.874-0.176h-0.879
		c-0.313,0-0.604,0.059-0.874,0.176s-0.508,0.276-0.713,0.479c-0.205,0.201-0.366,0.438-0.483,0.707
		c-0.117,0.271-0.176,0.563-0.176,0.875v7.52c0,0.313,0.059,0.604,0.176,0.873c0.117,0.271,0.278,0.508,0.483,0.713
		s0.442,0.367,0.713,0.484s0.562,0.176,0.874,0.176h0.879c0.313,0,0.604-0.059,0.874-0.176s0.507-0.279,0.708-0.484
		s0.361-0.442,0.479-0.713c0.117-0.27,0.176-0.561,0.176-0.873v-0.762l1.26,0.205v0.557
		C180.822,41.744,180.732,42.19,180.554,42.607z"/>
	<path fill="#FFFFFF" d="M183.625,44.512V30.508h7.881v1.201h-6.621v5.205h5.361v1.201h-5.361v5.195h6.621v1.201H183.625z"/>
	<path fill="#FFFFFF" d="M201.584,41.27c0,0.475-0.096,0.921-0.288,1.338c-0.192,0.416-0.449,0.781-0.771,1.094
		s-0.696,0.558-1.123,0.736c-0.427,0.18-0.878,0.27-1.353,0.27h-1.006c-0.475,0-0.926-0.09-1.353-0.27
		c-0.427-0.179-0.801-0.424-1.123-0.736s-0.579-0.678-0.771-1.094c-0.192-0.417-0.288-0.863-0.288-1.338v-0.557l1.26-0.205v0.762
		c0,0.313,0.063,0.604,0.19,0.873c0.127,0.271,0.298,0.508,0.513,0.713s0.464,0.367,0.747,0.484s0.581,0.176,0.894,0.176h0.879
		c0.313,0,0.609-0.059,0.889-0.176s0.527-0.279,0.742-0.484s0.386-0.442,0.513-0.713c0.127-0.27,0.19-0.561,0.19-0.873v-0.42
		c0-0.482-0.094-0.883-0.283-1.201c-0.189-0.319-0.439-0.592-0.752-0.816s-0.666-0.414-1.06-0.57s-0.8-0.313-1.216-0.469
		s-0.822-0.329-1.216-0.518c-0.394-0.189-0.747-0.426-1.06-0.709s-0.563-0.629-0.752-1.039s-0.283-0.915-0.283-1.514V33.75
		c0-0.476,0.09-0.922,0.269-1.338c0.179-0.417,0.425-0.781,0.737-1.094s0.679-0.559,1.099-0.738c0.42-0.179,0.868-0.268,1.343-0.268
		h0.898c0.475,0,0.922,0.089,1.338,0.268c0.416,0.18,0.781,0.426,1.094,0.738s0.559,0.677,0.737,1.094
		c0.179,0.416,0.269,0.862,0.269,1.338v0.361l-1.26,0.205V33.75c0-0.313-0.059-0.604-0.176-0.875
		c-0.117-0.27-0.277-0.506-0.479-0.707c-0.201-0.202-0.438-0.361-0.708-0.479s-0.562-0.176-0.874-0.176h-0.781
		c-0.313,0-0.604,0.059-0.874,0.176s-0.508,0.276-0.713,0.479c-0.205,0.201-0.366,0.438-0.483,0.707
		c-0.117,0.271-0.176,0.563-0.176,0.875v0.264c0,0.449,0.094,0.826,0.283,1.133c0.189,0.306,0.439,0.567,0.752,0.785
		c0.313,0.219,0.666,0.407,1.06,0.566c0.394,0.16,0.8,0.322,1.216,0.488s0.822,0.349,1.216,0.547
		c0.394,0.199,0.747,0.443,1.06,0.732c0.313,0.29,0.563,0.644,0.752,1.061c0.189,0.416,0.283,0.924,0.283,1.523V41.27z"/>
	<path fill="#FFFFFF" d="M211.696,42.607c-0.179,0.416-0.425,0.781-0.737,1.094s-0.678,0.558-1.094,0.736
		c-0.416,0.18-0.863,0.27-1.338,0.27h-0.996c-0.475,0-0.923-0.09-1.343-0.27c-0.42-0.179-0.786-0.424-1.099-0.736
		s-0.559-0.678-0.737-1.094c-0.179-0.417-0.269-0.863-0.269-1.338v-7.52c0-0.476,0.09-0.922,0.269-1.338
		c0.179-0.417,0.425-0.781,0.737-1.094s0.679-0.559,1.099-0.738c0.42-0.179,0.868-0.268,1.343-0.268h0.996
		c0.475,0,0.922,0.089,1.338,0.268c0.416,0.18,0.781,0.426,1.094,0.738s0.559,0.677,0.737,1.094
		c0.179,0.416,0.269,0.862,0.269,1.338v7.52C211.965,41.744,211.875,42.19,211.696,42.607z M210.705,33.75
		c0-0.313-0.059-0.604-0.176-0.875c-0.117-0.27-0.277-0.506-0.479-0.707c-0.201-0.202-0.438-0.361-0.708-0.479
		s-0.562-0.176-0.874-0.176h-0.879c-0.313,0-0.604,0.059-0.874,0.176s-0.508,0.276-0.713,0.479
		c-0.205,0.201-0.366,0.438-0.483,0.707c-0.117,0.271-0.176,0.563-0.176,0.875v7.52c0,0.313,0.059,0.604,0.176,0.873
		c0.117,0.271,0.278,0.508,0.483,0.713s0.442,0.367,0.713,0.484s0.562,0.176,0.874,0.176h0.879c0.313,0,0.604-0.059,0.874-0.176
		s0.507-0.279,0.708-0.484s0.361-0.442,0.479-0.713c0.117-0.27,0.176-0.561,0.176-0.873V33.75z"/>
	<path fill="#FFFFFF" d="M227.185,42.412c-0.179,0.416-0.425,0.781-0.737,1.094s-0.679,0.558-1.099,0.736
		c-0.42,0.18-0.868,0.27-1.343,0.27h-4.434V30.508h4.434c0.475,0,0.923,0.089,1.343,0.268c0.42,0.18,0.786,0.426,1.099,0.738
		s0.559,0.678,0.737,1.098s0.269,0.868,0.269,1.344v7.119C227.453,41.549,227.363,41.995,227.185,42.412z M226.193,33.955
		c0-0.313-0.059-0.604-0.176-0.875c-0.117-0.27-0.278-0.508-0.483-0.713s-0.442-0.365-0.713-0.482
		c-0.271-0.117-0.562-0.176-0.874-0.176h-3.115v11.602h3.115c0.313,0,0.604-0.059,0.874-0.176s0.508-0.277,0.713-0.479
		c0.205-0.202,0.366-0.438,0.483-0.709c0.117-0.27,0.176-0.561,0.176-0.873V33.955z"/>
	<path fill="#FFFFFF" d="M230.451,44.512V30.508h7.881v1.201h-6.621v5.205h5.361v1.201h-5.361v5.195h6.621v1.201H230.451z"/>
	<path fill="#FFFFFF" d="M240.529,44.512V30.508h1.26v12.803h5.361v1.201H240.529z"/>
	<path fill="#FFFFFF" d="M261.428,41.27c0,0.475-0.096,0.921-0.288,1.338c-0.192,0.416-0.449,0.781-0.771,1.094
		s-0.696,0.558-1.123,0.736c-0.427,0.18-0.878,0.27-1.353,0.27h-1.006c-0.475,0-0.926-0.09-1.353-0.27
		c-0.427-0.179-0.801-0.424-1.123-0.736s-0.579-0.678-0.771-1.094c-0.192-0.417-0.288-0.863-0.288-1.338v-0.557l1.26-0.205v0.762
		c0,0.313,0.063,0.604,0.19,0.873c0.127,0.271,0.298,0.508,0.513,0.713s0.464,0.367,0.747,0.484s0.581,0.176,0.894,0.176h0.879
		c0.313,0,0.609-0.059,0.889-0.176s0.527-0.279,0.742-0.484s0.386-0.442,0.513-0.713c0.127-0.27,0.19-0.561,0.19-0.873v-0.42
		c0-0.482-0.094-0.883-0.283-1.201c-0.189-0.319-0.439-0.592-0.752-0.816s-0.666-0.414-1.06-0.57s-0.8-0.313-1.216-0.469
		s-0.822-0.329-1.216-0.518c-0.394-0.189-0.747-0.426-1.06-0.709s-0.563-0.629-0.752-1.039s-0.283-0.915-0.283-1.514V33.75
		c0-0.476,0.09-0.922,0.269-1.338c0.179-0.417,0.425-0.781,0.737-1.094s0.679-0.559,1.099-0.738c0.42-0.179,0.868-0.268,1.343-0.268
		h0.898c0.475,0,0.922,0.089,1.338,0.268c0.416,0.18,0.781,0.426,1.094,0.738s0.559,0.677,0.737,1.094
		c0.179,0.416,0.269,0.862,0.269,1.338v0.361l-1.26,0.205V33.75c0-0.313-0.059-0.604-0.176-0.875
		c-0.117-0.27-0.277-0.506-0.479-0.707c-0.201-0.202-0.438-0.361-0.708-0.479s-0.562-0.176-0.874-0.176h-0.781
		c-0.313,0-0.604,0.059-0.874,0.176s-0.508,0.276-0.713,0.479c-0.205,0.201-0.366,0.438-0.483,0.707
		c-0.117,0.271-0.176,0.563-0.176,0.875v0.264c0,0.449,0.094,0.826,0.283,1.133c0.189,0.306,0.439,0.567,0.752,0.785
		c0.313,0.219,0.666,0.407,1.06,0.566c0.394,0.16,0.8,0.322,1.216,0.488s0.822,0.349,1.216,0.547
		c0.394,0.199,0.747,0.443,1.06,0.732c0.313,0.29,0.563,0.644,0.752,1.061c0.189,0.416,0.283,0.924,0.283,1.523V41.27z"/>
	<path fill="#FFFFFF" d="M271.54,42.607c-0.179,0.416-0.425,0.781-0.737,1.094s-0.678,0.558-1.094,0.736
		c-0.416,0.18-0.863,0.27-1.338,0.27h-0.996c-0.475,0-0.923-0.09-1.343-0.27c-0.42-0.179-0.786-0.424-1.099-0.736
		s-0.559-0.678-0.737-1.094c-0.179-0.417-0.269-0.863-0.269-1.338v-7.52c0-0.476,0.09-0.922,0.269-1.338
		c0.179-0.417,0.425-0.781,0.737-1.094s0.679-0.559,1.099-0.738c0.42-0.179,0.868-0.268,1.343-0.268h0.996
		c0.475,0,0.922,0.089,1.338,0.268c0.416,0.18,0.781,0.426,1.094,0.738s0.559,0.677,0.737,1.094
		c0.179,0.416,0.269,0.862,0.269,1.338v7.52C271.809,41.744,271.719,42.19,271.54,42.607z M270.549,33.75
		c0-0.313-0.059-0.604-0.176-0.875c-0.117-0.27-0.277-0.506-0.479-0.707c-0.201-0.202-0.438-0.361-0.708-0.479
		s-0.562-0.176-0.874-0.176h-0.879c-0.313,0-0.604,0.059-0.874,0.176s-0.508,0.276-0.713,0.479
		c-0.205,0.201-0.366,0.438-0.483,0.707c-0.117,0.271-0.176,0.563-0.176,0.875v7.52c0,0.313,0.059,0.604,0.176,0.873
		c0.117,0.271,0.278,0.508,0.483,0.713s0.442,0.367,0.713,0.484s0.562,0.176,0.874,0.176h0.879c0.313,0,0.604-0.059,0.874-0.176
		s0.507-0.279,0.708-0.484s0.361-0.442,0.479-0.713c0.117-0.27,0.176-0.561,0.176-0.873V33.75z"/>
	<path fill="#FFFFFF" d="M276.076,31.709v5.205h5.361v1.201h-5.361v6.396h-1.26V30.508h7.881v1.201H276.076z"/>
	<path fill="#FFFFFF" d="M288.098,31.709v12.803h-1.26V31.709h-3.34v-1.201h7.939v1.201H288.098z"/>
	<path fill="#FFFFFF" d="M302.795,44.512h-0.654l-2.725-10.537l-0.039-0.547l-0.059,0.547l-2.705,10.537h-0.654l-3.721-14.004h1.26
		l2.744,10.645l0.039,0.518l0.039-0.518l2.695-10.645h0.703l2.695,10.645l0.039,0.518l0.049-0.518l2.734-10.645h1.26L302.795,44.512
		z"/>
	<path fill="#FFFFFF" d="M313.752,41.25h-4.434l-0.918,3.262h-1.309l4.102-14.004h0.664l4.121,14.004h-1.299L313.752,41.25z
		 M309.66,40.049h3.76l-1.846-6.455l-0.039-0.518l-0.039,0.518L309.66,40.049z"/>
	<path fill="#FFFFFF" d="M324.357,44.512l-3.799-5.977h-1.729v5.977h-1.26V30.508h4.443c0.475,0,0.922,0.089,1.338,0.268
		c0.416,0.18,0.781,0.426,1.094,0.738s0.559,0.678,0.737,1.098s0.269,0.868,0.269,1.344v1.133c0,0.475-0.09,0.922-0.269,1.342
		s-0.425,0.787-0.737,1.1s-0.678,0.558-1.094,0.736c-0.416,0.18-0.863,0.27-1.338,0.27l3.799,5.977H324.357z M324.191,33.955
		c0-0.313-0.059-0.604-0.176-0.875c-0.117-0.27-0.277-0.508-0.479-0.713s-0.438-0.365-0.708-0.482
		c-0.271-0.117-0.562-0.176-0.874-0.176h-3.125v5.625h3.125c0.313,0,0.604-0.059,0.874-0.176s0.507-0.279,0.708-0.484
		s0.361-0.442,0.479-0.713c0.117-0.27,0.176-0.561,0.176-0.873V33.955z"/>
	<path fill="#FFFFFF" d="M328.215,44.512V30.508h7.881v1.201h-6.621v5.205h5.361v1.201h-5.361v5.195h6.621v1.201H328.215z"/>
</g>
<g>
	<g>
		<defs>
			<path id="SVGID_7_" d="M456.485,6.447c-0.928,0.925-0.928,2.434,0,3.365c0.935,0.926,2.441,0.926,3.37,0
				c5.637-5.646,14.234-6.533,20.836-2.727l-1.738,1.733c-0.497,0.502-0.649,1.241-0.38,1.9c0.267,0.644,0.904,1.074,1.608,1.074
				l7.699-0.006c0.962,0,1.738-0.776,1.738-1.739V2.355c0-0.716-0.422-1.343-1.07-1.609c-0.652-0.267-1.398-0.118-1.898,0.373
				l-2.486,2.49C480.506,1.199,476.285,0,472.062,0C466.423,0,460.78,2.148,456.485,6.447"/>
		</defs>
		<use xlink:href="#SVGID_7_"  overflow="visible" fill="#DB5940"/>
		<clipPath id="SVGID_8_">
			<use xlink:href="#SVGID_7_"  overflow="visible"/>
		</clipPath>
		<rect x="455.558" y="0" clip-path="url(#SVGID_8_)" fill="#DB5940" width="34.062" height="11.794"/>
	</g>
	<g>
		<defs>
			<path id="SVGID_9_" d="M459.911,56.746c-0.96,0-1.739,0.789-1.739,1.746v7.694c0,0.708,0.419,1.335,1.074,1.608
				c0.652,0.273,1.401,0.125,1.898-0.379l2.486-2.483c3.655,2.403,7.878,3.601,12.102,3.601c5.642,0,11.279-2.148,15.576-6.434
				c0.929-0.932,0.929-2.435,0-3.372c-0.935-0.926-2.441-0.926-3.369,0c-5.64,5.639-14.235,6.534-20.836,2.727l1.738-1.739
				c0.496-0.49,0.648-1.241,0.379-1.9c-0.273-0.64-0.904-1.068-1.608-1.068H459.911z"/>
		</defs>
		<use xlink:href="#SVGID_9_"  overflow="visible" fill="#DB5940"/>
		<clipPath id="SVGID_10_">
			<use xlink:href="#SVGID_9_"  overflow="visible"/>
		</clipPath>
		<rect x="458.172" y="56.746" clip-path="url(#SVGID_10_)" fill="#DB5940" width="34.065" height="11.787"/>
	</g>
	<path fill="#414042" d="M465.037,46.729c0.479-0.479,0.733-1.111,0.733-1.783V18.297c0-1.386-1.124-2.517-2.518-2.517h-23.082
		c-1.395,0-2.525,1.131-2.525,2.517v31.94c0,1.393,1.131,2.522,2.525,2.522h17.797c0.67,0,1.307-0.268,1.778-0.738L465.037,46.729z
		 M460.73,20.824v21.601h-2.763c-1.392,0-2.528,1.13-2.528,2.521v2.766h-12.75V20.824H460.73z"/>
	<path fill="#414042" d="M506.491,15.78h-23.086c-1.388,0-2.521,1.131-2.521,2.517v31.94c0,1.393,1.133,2.522,2.521,2.522h17.794
		c0.677,0,1.308-0.268,1.789-0.738l5.291-5.292c0.469-0.479,0.739-1.111,0.739-1.783V18.297
		C509.019,16.911,507.882,15.78,506.491,15.78 M503.969,20.824v21.601h-2.77c-1.389,0-2.518,1.13-2.518,2.521v2.766h-12.753V20.824
		H503.969z"/>
</g>
</svg>