<!-- Generator: Adobe Illustrator 17.0.0, SVG Export Plug-In  -->
<svg version="1.1"
	 xmlns="http://www.w3.org/2000/svg" xmlns:xlink="http://www.w3.org/1999/xlink" xmlns:a="http://ns.adobe.com/AdobeSVGViewerExtensions/3.0/"
	 x="0px" y="0px" width="172.313px" height="45.259px" viewBox="0 0 172.313 45.259" enable-background="new 0 0 172.313 45.259"
	 xml:space="preserve">
<defs>
</defs>
<rect x="0" y="2.125" fill="#DB5940" width="172.313" height="43.134"/>
<linearGradient id="SVGID_1_" gradientUnits="userSpaceOnUse" x1="0" y1="21.5679" x2="172.3134" y2="21.5679">
	<stop  offset="0" style="stop-color:#F4F5F5"/>
	<stop  offset="1" style="stop-color:#E7E7E7"/>
</linearGradient>
<rect x="0" y="0" fill="url(#SVGID_1_)" width="172.313" height="43.136"/>
<g>
	<g>
		<path fill="#414042" d="M63.711,27.642V15.17h5.3c1.333,0,2.302,0.111,2.905,0.336c0.604,0.224,1.088,0.622,1.45,1.195
			c0.363,0.573,0.545,1.228,0.545,1.965c0,0.937-0.275,1.709-0.825,2.318c-0.55,0.61-1.373,0.994-2.467,1.153
			c0.544,0.317,0.993,0.666,1.348,1.046s0.833,1.055,1.434,2.024l1.523,2.434h-3.012l-1.821-2.714
			c-0.646-0.97-1.089-1.581-1.327-1.833c-0.237-0.253-0.49-0.426-0.757-0.52s-0.689-0.141-1.268-0.141h-0.511v5.207H63.711z
			 M66.228,20.444h1.863c1.208,0,1.963-0.051,2.264-0.153c0.3-0.102,0.535-0.277,0.706-0.527c0.17-0.249,0.255-0.562,0.255-0.936
			c0-0.42-0.112-0.759-0.336-1.017c-0.225-0.259-0.54-0.422-0.949-0.489c-0.204-0.028-0.816-0.043-1.837-0.043h-1.966V20.444z"/>
		<path fill="#414042" d="M75.715,22.996c0-0.794,0.196-1.562,0.587-2.305c0.392-0.743,0.946-1.311,1.664-1.702
			c0.717-0.391,1.519-0.587,2.403-0.587c1.366,0,2.486,0.444,3.36,1.332c0.873,0.888,1.31,2.009,1.31,3.364
			c0,1.367-0.44,2.5-1.322,3.398c-0.883,0.899-1.992,1.349-3.331,1.349c-0.828,0-1.618-0.188-2.369-0.562
			c-0.752-0.374-1.323-0.923-1.715-1.646C75.911,24.915,75.715,24.034,75.715,22.996z M78.165,23.124
			c0,0.896,0.213,1.582,0.639,2.059c0.425,0.477,0.949,0.715,1.573,0.715s1.147-0.238,1.57-0.715
			c0.422-0.477,0.634-1.168,0.634-2.075c0-0.885-0.212-1.565-0.634-2.042c-0.423-0.477-0.946-0.715-1.57-0.715
			s-1.148,0.238-1.573,0.715C78.378,21.542,78.165,22.229,78.165,23.124z"/>
		<path fill="#414042" d="M86.911,27.642V15.17h2.391v12.472H86.911z"/>
		<path fill="#414042" d="M96.983,24.766l2.383,0.4c-0.307,0.873-0.79,1.538-1.451,1.995c-0.66,0.456-1.487,0.685-2.479,0.685
			c-1.571,0-2.734-0.513-3.488-1.54c-0.596-0.822-0.894-1.86-0.894-3.113c0-1.497,0.392-2.67,1.174-3.518
			c0.783-0.849,1.772-1.272,2.97-1.272c1.344,0,2.404,0.444,3.182,1.332s1.148,2.247,1.114,4.079h-5.989
			c0.018,0.709,0.21,1.261,0.579,1.654c0.368,0.395,0.827,0.592,1.378,0.592c0.374,0,0.689-0.103,0.944-0.307
			S96.853,25.22,96.983,24.766z M97.12,22.35c-0.018-0.691-0.196-1.218-0.536-1.578c-0.341-0.359-0.755-0.54-1.242-0.54
			c-0.521,0-0.953,0.19-1.293,0.57c-0.341,0.38-0.508,0.896-0.502,1.548H97.12z"/>
		<path fill="#414042" d="M100.6,25.063l2.399-0.365c0.102,0.465,0.309,0.818,0.621,1.059c0.312,0.241,0.748,0.362,1.31,0.362
			c0.618,0,1.084-0.113,1.396-0.341c0.21-0.158,0.314-0.371,0.314-0.638c0-0.182-0.057-0.332-0.17-0.451
			c-0.119-0.113-0.386-0.218-0.8-0.314c-1.928-0.426-3.15-0.814-3.666-1.166c-0.715-0.487-1.072-1.165-1.072-2.033
			c0-0.782,0.309-1.44,0.927-1.974s1.577-0.8,2.876-0.8c1.236,0,2.155,0.201,2.757,0.604c0.601,0.402,1.015,0.998,1.241,1.786
			l-2.254,0.417c-0.097-0.352-0.279-0.621-0.549-0.809c-0.27-0.187-0.653-0.28-1.152-0.28c-0.63,0-1.081,0.088-1.354,0.264
			c-0.182,0.125-0.271,0.286-0.271,0.485c0,0.17,0.079,0.314,0.238,0.434c0.215,0.158,0.959,0.383,2.232,0.672
			s2.162,0.644,2.667,1.063c0.499,0.426,0.749,1.019,0.749,1.778c0,0.828-0.346,1.54-1.038,2.135
			c-0.691,0.596-1.716,0.894-3.071,0.894c-1.23,0-2.204-0.249-2.922-0.749C101.29,26.598,100.821,25.92,100.6,25.063z"/>
	</g>
</g>
</svg>