<?xml version="1.0" encoding="utf-8"?>
<!-- Generator: Adobe Illustrator 17.0.0, SVG Export Plug-In . SVG Version: 6.00 Build 0)  -->
<!DOCTYPE svg PUBLIC "-//W3C//DTD SVG 1.1//EN" "http://www.w3.org/Graphics/SVG/1.1/DTD/svg11.dtd" [
	<!ENTITY ns_extend "http://ns.adobe.com/Extensibility/1.0/">
	<!ENTITY ns_ai "http://ns.adobe.com/AdobeIllustrator/10.0/">
	<!ENTITY ns_graphs "http://ns.adobe.com/Graphs/1.0/">
	<!ENTITY ns_vars "http://ns.adobe.com/Variables/1.0/">
	<!ENTITY ns_imrep "http://ns.adobe.com/ImageReplacement/1.0/">
	<!ENTITY ns_sfw "http://ns.adobe.com/SaveForWeb/1.0/">
	<!ENTITY ns_custom "http://ns.adobe.com/GenericCustomNamespace/1.0/">
	<!ENTITY ns_adobe_xpath "http://ns.adobe.com/XPath/1.0/">
]>
<svg version="1.1" id="Capa_1" xmlns:x="&ns_extend;" xmlns:i="&ns_ai;" xmlns:graph="&ns_graphs;"
	 xmlns="http://www.w3.org/2000/svg" xmlns:xlink="http://www.w3.org/1999/xlink" x="0px" y="0px" width="155.706px"
	 height="74.254px" viewBox="0 0 155.706 74.254" enable-background="new 0 0 155.706 74.254" xml:space="preserve">
<metadata><?xpacket begin="﻿" id="W5M0MpCehiHzreSzNTczkc9d"?>
<x:xmpmeta xmlns:x="adobe:ns:meta/" x:xmptk="Adobe XMP Core 5.5-c014 79.151739, 2013/04/03-12:12:15        ">
   <rdf:RDF xmlns:rdf="http://www.w3.org/1999/02/22-rdf-syntax-ns#">
      <rdf:Description rdf:about=""
            xmlns:dc="http://purl.org/dc/elements/1.1/"
            xmlns:xmp="http://ns.adobe.com/xap/1.0/"
            xmlns:xmpGImg="http://ns.adobe.com/xap/1.0/g/img/"
            xmlns:xmpMM="http://ns.adobe.com/xap/1.0/mm/"
            xmlns:stRef="http://ns.adobe.com/xap/1.0/sType/ResourceRef#"
            xmlns:stEvt="http://ns.adobe.com/xap/1.0/sType/ResourceEvent#"
            xmlns:illustrator="http://ns.adobe.com/illustrator/1.0/"
            xmlns:xmpTPg="http://ns.adobe.com/xap/1.0/t/pg/"
            xmlns:stDim="http://ns.adobe.com/xap/1.0/sType/Dimensions#"
            xmlns:xmpG="http://ns.adobe.com/xap/1.0/g/"
            xmlns:pdf="http://ns.adobe.com/pdf/1.3/">
         <dc:format>image/svg+xml</dc:format>
         <dc:title>
            <rdf:Alt>
               <rdf:li xml:lang="x-default">Imprimir</rdf:li>
            </rdf:Alt>
         </dc:title>
         <xmp:MetadataDate>2017-10-09T13:04:13-05:00</xmp:MetadataDate>
         <xmp:ModifyDate>2017-10-09T13:04:13-05:00</xmp:ModifyDate>
         <xmp:CreateDate>2017-10-09T13:04:13-05:00</xmp:CreateDate>
         <xmp:CreatorTool>Adobe Illustrator CC (Windows)</xmp:CreatorTool>
         <xmp:Thumbnails>
            <rdf:Alt>
               <rdf:li rdf:parseType="Resource">
                  <xmpGImg:width>256</xmpGImg:width>
                  <xmpGImg:height>124</xmpGImg:height>
                  <xmpGImg:format>JPEG</xmpGImg:format>
                  <xmpGImg:image>/9j/4AAQSkZJRgABAgEASABIAAD/7QAsUGhvdG9zaG9wIDMuMAA4QklNA+0AAAAAABAASAAAAAEA&#xA;AQBIAAAAAQAB/+4ADkFkb2JlAGTAAAAAAf/bAIQABgQEBAUEBgUFBgkGBQYJCwgGBggLDAoKCwoK&#xA;DBAMDAwMDAwQDA4PEA8ODBMTFBQTExwbGxscHx8fHx8fHx8fHwEHBwcNDA0YEBAYGhURFRofHx8f&#xA;Hx8fHx8fHx8fHx8fHx8fHx8fHx8fHx8fHx8fHx8fHx8fHx8fHx8fHx8fHx8f/8AAEQgAfAEAAwER&#xA;AAIRAQMRAf/EAaIAAAAHAQEBAQEAAAAAAAAAAAQFAwIGAQAHCAkKCwEAAgIDAQEBAQEAAAAAAAAA&#xA;AQACAwQFBgcICQoLEAACAQMDAgQCBgcDBAIGAnMBAgMRBAAFIRIxQVEGE2EicYEUMpGhBxWxQiPB&#xA;UtHhMxZi8CRygvElQzRTkqKyY3PCNUQnk6OzNhdUZHTD0uIIJoMJChgZhJRFRqS0VtNVKBry4/PE&#xA;1OT0ZXWFlaW1xdXl9WZ2hpamtsbW5vY3R1dnd4eXp7fH1+f3OEhYaHiImKi4yNjo+Ck5SVlpeYmZ&#xA;qbnJ2en5KjpKWmp6ipqqusra6voRAAICAQIDBQUEBQYECAMDbQEAAhEDBCESMUEFURNhIgZxgZEy&#xA;obHwFMHR4SNCFVJicvEzJDRDghaSUyWiY7LCB3PSNeJEgxdUkwgJChgZJjZFGidkdFU38qOzwygp&#xA;0+PzhJSktMTU5PRldYWVpbXF1eX1RlZmdoaWprbG1ub2R1dnd4eXp7fH1+f3OEhYaHiImKi4yNjo&#xA;+DlJWWl5iZmpucnZ6fkqOkpaanqKmqq6ytrq+v/aAAwDAQACEQMRAD8AGeYv+Ug1P/mLn/5ONnN5&#xA;frPvfRdL/dR/qj7kvyDkOxV2KuxV2KuxV2KuxV2KuxV2KuxV2KuxV2KuxV2KuxV2KuxV2KuxV2Ku&#xA;xV2KuxV2KuxV2KuxV2Kph5i/5SDU/wDmLn/5ONk8v1n3uPpf7qP9Ufcl+Qch2KuxV2KuxV2KuxV2&#xA;KuxV2KuxV2KuxV2KuxV2KuxVlvlvyBPr/l+71Cxu43v7d6JYftEAVPImnEt+x22+7KxaUzgSDv3O&#xA;r1faYwZRCQPCf4vx9rFZYpYZXilQxyxkq6MCGVgaEEHoRmKRTsoyBFjksxZOxV2KuxV2KuxV2Kux&#xA;V2KuxV2KuxVMPMX/ACkGp/8AMXP/AMnGyeX6z73H0v8AdR/qj7kvyDkOxV2KuxV2KuxV2KuxV2Ku&#xA;xV2Kq9jZzXt7BZwAGa5kSGIHYcnYKK/ScMYkmh1YZJiETI8gLe3aX+UXlG2tEjvYXv7mg9SZ5JIw&#xA;W78VjZaD51zdQ0OMDfcvG5u3M8pXE8I9w/SjP+VWeQ/+rZ/yXuP+qmS/JYu77S1fyzqv5/2R/U7/&#xA;AJVZ5D/6tn/Je4/6qY/ksXd9pX+WdV/P+yP6ko8z+U/yx8vaa17e6dVjVYIFuLjnK/8AKv7z7z2y&#xA;rNgw4xZH2lytJrdZnnwxl7zUdvsYRZeXtT0h7Tzbe6Mr6L63qHTwzM0cR+w5VyzcRX4eR377HMKO&#xA;KUKyGPp7nc5NVDKDgjP95X1d5/Hd8GW6tYC1K+ffJkivCymTUbMbJJH1kPH9kinxr9I3zKnGv3uP&#xA;4urwZOL/AAXUDf8AhPd3fsYF558yaf5h1db+zsvqlYlWZmNXkcDctTb4fsg9SPuGFqcwySsCnd9n&#xA;aSeDHwylxb/JjmY7sHYq7FXYq7FXYq7FXYq7FXYq7FXYqmHmL/lINT/5i5/+TjZPL9Z97j6X+6j/&#xA;AFR9yX5ByHYq7FXYq7FXYq7FXYq7FXYq7FU78k/8pdo//MXF/wASGXaf+8j73D7Q/uJ/1S9l/NG5&#xA;ubbybdzW0rwSq8IEkbFGFZFB3Whzb6wkYzTyPY8BLUAEWN/ueH/4i8wf9XO7/wCR8n/NWaXxZ95e&#xA;y/K4v5sfkHf4i8wf9XO7/wCR8n/NWPiz7yv5XF/Nj8g9K8geRL6/aDXfMzy3AUBrC0uGZzTqJHDk&#xA;7dwvfqc2Ol0xl6p/B57tPtGMLxYaH84j7np1y1utvK1yUFuEb1jJThwp8XKu1Kda5sjVbvOwBsVz&#xA;fP2vOwGqv5dNxF5UkuERwxIieWhICg7kbVA8KV7ZosvXgvgt7nTD6Blo56+Nfj9jGMxnZOxV2Kux&#xA;V2KuxV2KuxV2KuxV2KuxV2Kph5i/5SDU/wDmLn/5ONk8v1n3uPpf7qP9Ufcl+Qch2KuxV2KuxV2K&#xA;uxV2KuxV2KuxVO/JP/KXaP8A8xcX/Ehl2n/vI+9w+0P7if8AVL2H82f+UIvP+MkP/J1c22u/ui8p&#xA;2L/jMfj9zwPNG9u9U/Lb8tefpa3rcXwbPZ2Tjr3EkgPb+VfpObPSaT+KXyeZ7W7Wq8eM+8/oD1WW&#xA;WKGJ5ZXEcUYLO7EBVUCpJJ6AZsyaeZjEk0ObybW/Nn+NfMtp5aspnt9Dll4zTKKPPwBYnfovw/CD&#xA;8z4DV5M/jTEB9L1Gn0X5TCc0heQD5Jx+amm2Wm+Q7eysohDbQ3MSxxr/AKr7nxJ7nLdbARxADlbi&#xA;djZZZNUZSNkxP6Hi+ah692KuxV2KuxV2KuxV2KuxV2KuxV2KuxVMPMX/ACkGp/8AMXP/AMnGyeX6&#xA;z73H0v8AdR/qj7kvyDkOxV2KuxV2KuxV2KuxV2KuxV2Kp35J/wCUu0f/AJi4v+JDLtP/AHkfe4fa&#xA;H9xP+qXsP5s/8oRef8ZIf+Tq5ttd/dF5TsX/ABmPx+55B5Y0vVZFn1vT4EujoskM01s68+StzPLj&#xA;3C+nv375qcMJbyG/C9Vq80BWOZ4fEsX8v1vc/LXm/Sdd0k6hDIsPorW8hkYAwkCp5E0+HaobN3hz&#xA;xnGw8Zq9Dkw5OAi75ebyr8xPzEl1yVtN01jHpEZ+N9w07A9T4IOw+k+2r1Wq4/TH6fvel7L7LGEc&#xA;c/7z7v2pV+W3/Kb6V/xkf/k0+VaT+9Dldrf4tP8AHUPS/wA5v+URT/mLi/4i+bLX/wB38Xnewf7/&#xA;APzT+h4dmlezdirsVdirsVdirsVdirsVdirsVdirsVTDzF/ykGp/8xc//Jxsnl+s+9x9L/dR/qj7&#xA;kvyDkOxV2KuxV2KuxV2KuxV2KuxV2Kp35J/5S7R/+YuL/iQy7T/3kfe4faH9xP8Aql7D+bP/AChF&#xA;5/xkh/5Orm21390XlOxf8Zj8fueTeUPO+oeV/rf1SCKf656fP1eW3pcqU4lf581eDUHHddXp9d2f&#xA;DU1xEjhvl5/2JbqmsyXl5c3FvCtgl4B9ZtrZnWJzXlupJ2rvTpXK55LJI2tyMOnEIgE8XDyJ5pdl&#xA;bkMm/Lb/AJTfSv8AjI//ACafMjSf3odd2t/i0/x1D0v85v8AlEU/5i4v+Ivmy1/938Xnewf7/wDz&#xA;T+h4dmlezdirsVdirsVdirsVdirsVdirsVdirsVTDzF/ykGp/wDMXP8A8nGyeX6z73H0v91H+qPu&#xA;S/IOQ7FXYq7FXYq7FXYq7FXYq7FXYqj9B1FdN1ux1B15pazxyuo6lVYFgPemTxT4ZA9zRqcXiY5Q&#xA;7wQ+inj0LzLpADcL/Tbji1AxoSpDCvEggg9s6AiOSPeHggcunyfzZhLP+VbeSP8Aq1R/8HL/AM15&#xA;V+Uxdzkfytqf5/3fqd/yrbyR/wBWqP8A4OX/AJrx/KYu5f5W1P8AP+79Tv8AlW3kj/q1R/8ABy/8&#xA;14/lMXcv8ran+f8Ad+pE6f5G8qadeRXtlp6Q3MJJjkDSEgkEHYsR0OSjpscTYG7Xl7Rz5ImMpWD7&#xA;mF/nP5hsHsLfRIJVku/WE9wqkH01RWUK3gzFq09sxO0MooRHN2/YGlkJHIR6aoebyTNU9S7FXYq7&#xA;FXYq7FXYq7FXYq7FXYq7FXYqmHmL/lINT/5i5/8Ak42Ty/Wfe4+l/uo/1R9yX5ByHYq7FXYq7FXY&#xA;q7FXYq7FXYq7FXYqvjmmjr6bslevEkfqxBYmIPNd9bu/9/Sf8Ef64eIo4I9zvrd3/v6T/gj/AFx4&#xA;ivBHud9bu/8Af0n/AAR/rjxFeCPc763d/wC/pP8Agj/XHiK8Ee5SwM3Yq7FXYq7FXYq7FXYq7FXY&#xA;q7FXYq7FXYqn+v6Brsmu6i6addMjXUzKywyEEGRiCCFy/LilxHY83B02pxDFEGUfpHUdyA/w75g/&#xA;6tl3/wAiJP8AmnK/Cn3Fu/NYv50fmHf4d8wf9Wy7/wCREn/NOPhT7iv5rF/Oj8w7/DvmD/q2Xf8A&#xA;yIk/5px8KfcV/NYv50fmHf4d8wf9Wy7/AOREn/NOPhT7iv5rF/Oj8w7/AA75g/6tl3/yIk/5px8K&#xA;fcV/NYv50fmHf4d8wf8AVsu/+REn/NOPhT7iv5rF/Oj8w7/DvmD/AKtl3/yIk/5px8KfcV/NYv50&#xA;fmHf4d8wf9Wy7/5ESf8ANOPhT7iv5rF/Oj8w7/DvmD/q2Xf/ACIk/wCacfCn3FfzWL+dH5h3+HfM&#xA;H/Vsu/8AkRJ/zTj4U+4r+axfzo/MO/w75g/6tl3/AMiJP+acfCn3FfzWL+dH5h3+HfMH/Vsu/wDk&#xA;RJ/zTj4U+4r+axfzo/MO/wAO+YP+rZd/8iJP+acfCn3FfzWL+dH5h3+HfMH/AFbLv/kRJ/zTj4U+&#xA;4r+axfzo/MO/w75g/wCrZd/8iJP+acfCn3FfzWL+dH5h3+HfMH/Vsu/+REn/ADTj4U+4r+axfzo/&#xA;MO/w75g/6tl3/wAiJP8AmnHwp9xX81i/nR+Yd/h3zB/1bLv/AJESf804+FPuK/msX86PzDv8O+YP&#xA;+rZd/wDIiT/mnHwp9xX81i/nR+Yd/h3zB/1bLv8A5ESf804+FPuK/msX86PzDv8ADvmD/q2Xf/Ii&#xA;T/mnHwp9xX81i/nR+Yd/h3zB/wBWy7/5ESf804+FPuK/msX86PzDv8O+YP8Aq2Xf/IiT/mnHwp9x&#xA;X81i/nR+Yd/h3zB/1bLv/kRJ/wA04+FPuK/msX86PzDv8O+YP+rZd/8AIiT/AJpx8KfcV/NYv50f&#xA;mHf4d8wf9Wy7/wCREn/NOPhT7iv5rF/Oj8w7/DvmD/q2Xf8AyIk/5px8KfcV/NYv50fmHf4d8wf9&#xA;Wy7/AOREn/NOPhT7iv5rF/Oj8w7/AA75g/6tl3/yIk/5px8KfcV/NYv50fmHf4d8wf8AVsu/+REn&#xA;/NOPhT7iv5rF/Oj8w7/DvmD/AKtl3/yIk/5px8KfcV/NYv50fmH07nSPnTsVdirsVdirsVdirsVd&#xA;irsVdirsVdirsVdirsVdirsVdirsVdirsVdirsVdirsVdirsVdirsVdirsVdirsVdiqncXENtby3&#xA;E7iOCFGklkPRVUVJPyGAkAWWUImRAHMobSNa0vV7U3em3C3NuGMZdQRRgASKMAe+RhkjMWC2Z9PP&#xA;FLhmKKE1jzh5a0ecQajfxwTkA+l8TuAehKoGI+nIZM8IGiW3Boc2UXCJIbuPNvlyDS4tVkv4xp87&#xA;+lFcLyZS9CePwgkH4T1wnPAR4r2RHRZpTMBE8Q6IOL8xfJcsqRR6ojSSMFReEu5JoB9nIDVYz1bj&#xA;2XqALMPuVpfPPlSEStJqCKsE31aZislFl+L4SeP+QfuwnUwHVhHs7OaqPMX05Jlqmr6bpVmbzUJ1&#xA;t7YEKZGqRVtgKKCcsnMRFnk4+HBPLLhgLKFTzToDyXMS3Y9Sztxd3KlXBSAoJA5qv8rA065EZo77&#xA;8hbYdHlABr6jwj38kHb/AJheTLiZYo9Vh5saLzDoKk0+06qMgNVjPVul2ZqIizAp9JNFHC0zsFiR&#xA;S7OegUCpP3ZeT1cERJNDmhNH13SdZt3uNMuVuYUf03ZQwowANKMAehyOPJGYuJtuz6fJiNTFFLbn&#xA;8wPJ9tdS2k+pJHcQSNFKhWT4XQ8WBPGmxGVnVYwaJciHZmolESEdjv0TqyvrO+tkurOZLi3kFUlj&#xA;YMp+kZbGQkLDh5McoHhkKKX6x5s8vaNOkGp3i20si80Rlc1WpFfhU9xkMmeEDUjTfg0WXKLhGwra&#xA;R5g0XWEZ9MvI7oJTmqH4lr0qpow+7DDLGf0m2GfS5MX1xIQp85+WRpz6kb5fqMc31Z5uL0E1OXCn&#xA;GvQ+GR/MQq72bfyGbj4OH1VfTk7TPOnlbVLgW1jqMUtw32IjVGb/AFQ4Wv0Yw1EJGgVzaDNjFyiQ&#xA;FTzVrR0XQbrUE9P1olAhEpohkchV5UINKmpphzZOCJLHR6fxsoh0PciNCvZb7R7S7lmhnknjDtLb&#xA;KyxEnsocs23Tf8OmSxyuILDU4xDIYgEUevNAX3nryjY3rWV1qcSXKni6DkwVvBmUFVI71OVy1OOJ&#xA;ondux9nZ5x4oxNKupecPLOmCBr2/jjW6T1bdgGdXT+ZSgYUwzzwjzPNji0ObJfDE7c1Cy8+eUr65&#xA;Fta6iks7K7BAkg2jUux3UdFUnBHU45GgWeTs3PAXKND4I+38w6LcaUdWiu4/0aK1uWqiDieJ+0F7&#xA;7ZMZYmPFezRLS5Iz8Mj19yE0vzr5W1W7+qWGoxzXJrxioyFqCp48wvL6MjDUQkaB3bc3Z+fHHilE&#xA;gI3WNc0rRrZbnU7hbaB3EauwJqxBNKKCegOTyZIwFyNNODTzymoCyi4Zop4Y5oWDxSqHjcdGVhUE&#xA;fMZIG92qUSDR5hfhQ7FXYq7FXYq7FWC/m9rYsvL0enJII5tUkEZY9oUIaQ7e/EfI5ha7JUK73ddh&#xA;6fjy8Z5QH29Ek/LbVNL03zZf6Fp92LrS71Vlspdx+9RKstGAPTl/wIynSTjHIYg3E8nM7VwzyYI5&#xA;Zipx2Pu/H3or8uNK0vWLvXtQ1a1iu9RN46Os6iTgjV2AaoFdx9GS0kIzMjIWba+1c08UccMZMYcP&#xA;TZkvlvy95Mitry10sw31v9YL3ELutwscoqoopqF2qB7ZkYcWMAiO+7rtXqtQSJTuJrbpYSD8tdL0&#xA;ya88wma0hkMGousJeNG4AM1AtR8NPbKNJCJMtv4nO7WzTEcdE7w70j0rRf0xpfnm1ReU6XZntwOv&#xA;qRPKwA/1gCv05TDHxxyDzczNqPCngl04aPxpadYbzhb+UvL3IuwPqaqK/s29UBJHdo1Y/SMfE8UQ&#xA;h8/gnwPypzZf9L8f20mOoADzj57AFANFYAD/AJhYsnL+8yf1f0OPi/xfT/8ADf8AfFW07QdEufyk&#xA;N1cWcJuY7K4mS54KsgkjMhQ8wOXUAdclHFE4LI3oscupyR13CJGuKIrpRpA3/mW4tvyf06GSQ/XN&#xA;RD2aEnf0I5WVuvb01CfTkJZiNOO87N2PSCWvkQPTD1fEj9e7X5d6npWkecZdH0+9F3puowR+nKOQ&#xA;H1mJKt9oLTkefbwwaWcYZOEGwfvXtTFPLpxknHhnAn5E/wBn2pj5E0zTb/zR50W+tIbpVvqKJo1k&#xA;pymuK05A0rTLNNASnOxe/wCto7RzThhwcJI9PQ+UVf8AK8C11zzTplsSdNtbv/R13oh5yJQV/wAl&#xA;AK+2S0e0pxHIFh2x6seKZ+uUd/sX+ZLa3ufzX8vw3ESTQvaTco5FDKaJMRUGo6jDlAOeIPd+tjpZ&#xA;mOhyEGjxD/eoe7s7TSPzb0mPSo1tlvrZzeQQgKjCklSVGw+wD9FcjKIjnHDtYbIZJZdDMzN8Mtif&#xA;h+tiEv8A5LC9/wC26f8AkwuYh/uT/X/Q7Uf47H/hX6WVfmfpGlWHlmw1Oyt4rPUYZ4fRngRY3PwM&#xA;3VQK0K8sydZCMYCQFF1nZGec80oSJlAg7HdZ+ZWs2V5qWh6FqE/1azJS71V9/hBFFX4Qd6cvvGOr&#xA;yAmMTsOZZdk4JQhkywFy+mP4+Sn5B8wvD5U8w6VbT+rPpEVzPp0y1+KMqxVlB32kHL/ZYNNlrHKI&#xA;/huk9paW8+OZFCZiJe/+z7kd5A8teWLzyELrULaGSS5Wc3t1IFMiBJHFQ5BKcUAO3zyelwwOKyOd&#xA;tPaerzQ1XDAnaqHwHzT620PyqPKbx6esN/Z28E31adylwVJBZgrmtPiNaDpl4xw8PbcfNwp6jP49&#xA;zuMiRY5JJ+Xun2B/L364baL62I7sC54L6nV1+3Tl02ynSxHhXW+7mdp5Zfm+Gzw3Hbp0Yih9byj5&#xA;P064JGm3eozC8NaCgnVRWn+TI2Yg3xwB5GX6XaHbPmmPrjAV8v2B6Nq3lXyLBd6ZLcpBpk8Mo+pG&#xA;JltzI60IUkU5UIFN61+ebCeHECL27ujoMGs1JjIC5gje96Yl+Y+paVqvm620TULwWmm2ELvcTUY0&#xA;uJUqgooNafB+OYurnGWQRJoD73adlYp48ByQjxTkdvcD/ayD8o9d/SHlr6jI/K40xvRPesTVMZ/W&#xA;v0ZfocnFCu5we29NwZuIcp7/AB6s4zNdM7FXYq7FXYq7FUg1DyhZ6h5ltdbvJWmFnGY4bJlUxVIb&#xA;4jXqfir92USwCUxI9OjnYtdKGE44iuI8+qzWPJOnX+o6dqNu31C606T1EaBFAcVB4uNtvh/E4Mmn&#xA;EiCNiE4O0JwhKB9UZjql+r/ltBc6rNqel6nc6RcXVTdi3J4uT1OxQivU75CekBlxRJjbfg7WMYCE&#xA;4xmI8rTryt5W03y5pxs7Lk5dvUnnkoXd6UqabAAdBluHCMYoOJrNZPUT4pfALfLnliDQ5dRkinaY&#xA;6jcNcuGAHEsSaCnzxxYRC/Mp1WrOYRBFcIpb5b8qW+h3Op3EU7zHU5vXdXAAQ1Y0FP8AXxxYRAk9&#xA;6dXrTmjEEVwCkF5b/L7StB1q71S2kZ3uA6xRMBxiV35EKevYD5ZDFpYwkZBt1fac82MQI5farXHk&#xA;q1m1bWtRNy4fWrQ2csYApGpjWPkvifgrhOnBlI39QpjHtCQhCFf3cuL7bSWL8p4hbJZT67qEumrT&#xA;/QQ/GKgPKnH4lG/tlI0W1GRrucuXbRviGOAn39U5uvIumXGq6XdsxFnpEXpWuncQYuh+I1qSfs/d&#xA;l0tNEyB6R6OJDtGcYTj/ABTO8ureveSNN1SewuYGGn3Wny+tDNBGoJIINGG1d1GOXTiRBGxCNN2h&#xA;PGJA+qMhW6Vy/lk36Sv760129sW1CZ5547ZvTBLuzUPEivHmaVyo6PckSItyo9r+iMZY4y4RQvdk&#xA;Plryxpnl6wNpYhm5t6k00hDSO5FKsQB9AzIw4Y4xQcDV6ueeXFJLvM3kddb1a21SPUrjT7q1iMUc&#xA;lt8LAEtUhgQRUORlebT8chKyCHI0naPgwMDESiTe67y55GsdHv5NTlurjUtTkXgbu6fmwXbZfu6k&#xA;4cWmEDxWTLzY6rtGWWIgAIQ7ggG/LGwby5Nof12X0pr03xm4ryDFAnGnSm2V/kxwcN9bbx2vLxRk&#xA;4RYjwt2n5Z2ou7e41XVb3VktGDwW11IWiDDpVW5bbdMY6MWDImVLPtaXCRCEYcXMgbpnZ+TLCLzD&#xA;qGuXT/Xbi+AQRyopSNBSiqDXsqiuWx04EzI72489fI4o44+kR7urQ8l2EXmhdetn+rloTBcWaIvp&#xA;SqQR8Q/4H7sH5ccfEF/PyOHwpb72D1CRXH5S2vqTxWGr3djplyaz6ehqhHh1G3+sDlJ0I6SIB6OZ&#xA;HtuVAyhGUxyky2x0GxsNEGj2YMdqsTRKerfGDyYnuSWrmVHGIx4RydZk1Mp5PEl9V2htC8sQaR5d&#xA;/Qkc7SxcZV9ZgA370knYbbcsjjwiEOFs1OrOXL4hFHb7EvT8u9HPlWPy7cSSTQwu0sNzssiOzE8l&#xA;6j9qmV/lY8HAW89qZPHOUCienRB6X+WNvBqVte6nqlzq31Ig2cFwTwQg1HVn2FK0FMjDRgEGRMqb&#xA;c3a5MDGEIw4uZCa6L5K07Tr3Ub24b6/dalL6srzopC7k8UG9B8WWY9OIkk7kuNqO0J5IxiPSICtl&#xA;2meT7TTfMl5rVnM0SXqBJrFVAiqKfEKd6rX6ThhgEZmQ69EZddLJhjjkL4evVP8AL3BdirsVdirs&#xA;VdirsVdirsVdirsVdirsVdirsVdirsVdirsVdirsVdirsVdirsVdirsVdirsVdirsVdirsVdirsV&#xA;dirsVdirsVdirsVdirsVdirsVdirsVdirsVdirsVdirsVdirsVdirsVdirsVdirsVdirsVdirsVd&#xA;irsVf//Z</xmpGImg:image>
               </rdf:li>
            </rdf:Alt>
         </xmp:Thumbnails>
         <xmpMM:InstanceID>xmp.iid:1ad56f3f-53f0-9e46-80d5-ea57a220d1ab</xmpMM:InstanceID>
         <xmpMM:DocumentID>xmp.did:1ad56f3f-53f0-9e46-80d5-ea57a220d1ab</xmpMM:DocumentID>
         <xmpMM:OriginalDocumentID>uuid:5D20892493BFDB11914A8590D31508C8</xmpMM:OriginalDocumentID>
         <xmpMM:RenditionClass>proof:pdf</xmpMM:RenditionClass>
         <xmpMM:DerivedFrom rdf:parseType="Resource">
            <stRef:instanceID>xmp.iid:9abfa668-2609-c146-aeb5-945099e7e6e3</stRef:instanceID>
            <stRef:documentID>xmp.did:9abfa668-2609-c146-aeb5-945099e7e6e3</stRef:documentID>
            <stRef:originalDocumentID>uuid:5D20892493BFDB11914A8590D31508C8</stRef:originalDocumentID>
            <stRef:renditionClass>proof:pdf</stRef:renditionClass>
         </xmpMM:DerivedFrom>
         <xmpMM:History>
            <rdf:Seq>
               <rdf:li rdf:parseType="Resource">
                  <stEvt:action>saved</stEvt:action>
                  <stEvt:instanceID>xmp.iid:9abfa668-2609-c146-aeb5-945099e7e6e3</stEvt:instanceID>
                  <stEvt:when>2017-04-11T01:59:07-05:00</stEvt:when>
                  <stEvt:softwareAgent>Adobe Illustrator CC (Windows)</stEvt:softwareAgent>
                  <stEvt:changed>/</stEvt:changed>
               </rdf:li>
               <rdf:li rdf:parseType="Resource">
                  <stEvt:action>saved</stEvt:action>
                  <stEvt:instanceID>xmp.iid:1ad56f3f-53f0-9e46-80d5-ea57a220d1ab</stEvt:instanceID>
                  <stEvt:when>2017-10-09T13:04:13-05:00</stEvt:when>
                  <stEvt:softwareAgent>Adobe Illustrator CC (Windows)</stEvt:softwareAgent>
                  <stEvt:changed>/</stEvt:changed>
               </rdf:li>
            </rdf:Seq>
         </xmpMM:History>
         <illustrator:StartupProfile>Print</illustrator:StartupProfile>
         <xmpTPg:HasVisibleOverprint>False</xmpTPg:HasVisibleOverprint>
         <xmpTPg:HasVisibleTransparency>True</xmpTPg:HasVisibleTransparency>
         <xmpTPg:NPages>1</xmpTPg:NPages>
         <xmpTPg:MaxPageSize rdf:parseType="Resource">
            <stDim:w>155.705994</stDim:w>
            <stDim:h>74.254028</stDim:h>
            <stDim:unit>Pixels</stDim:unit>
         </xmpTPg:MaxPageSize>
         <xmpTPg:PlateNames>
            <rdf:Seq>
               <rdf:li>Cyan</rdf:li>
               <rdf:li>Magenta</rdf:li>
               <rdf:li>Yellow</rdf:li>
            </rdf:Seq>
         </xmpTPg:PlateNames>
         <xmpTPg:SwatchGroups>
            <rdf:Seq>
               <rdf:li rdf:parseType="Resource">
                  <xmpG:groupName>Grupo de muestras por defecto</xmpG:groupName>
                  <xmpG:groupType>0</xmpG:groupType>
               </rdf:li>
            </rdf:Seq>
         </xmpTPg:SwatchGroups>
         <pdf:Producer>Adobe PDF library 10.01</pdf:Producer>
      </rdf:Description>
   </rdf:RDF>
</x:xmpmeta>
                                                                                                    
                                                                                                    
                                                                                                    
                                                                                                    
                                                                                                    
                                                                                                    
                                                                                                    
                                                                                                    
                                                                                                    
                                                                                                    
                                                                                                    
                                                                                                    
                                                                                                    
                                                                                                    
                                                                                                    
                                                                                                    
                                                                                                    
                                                                                                    
                                                                                                    
                                                                                                    
                           
<?xpacket end="w"?>
	</metadata>
<g>
	
		<rect id="XMLID_248_" x="0.541" y="0" opacity="0.5" fill="#FFFFFF" enable-background="new    " width="154.914" height="74.254"/>
	<rect id="XMLID_257_" x="0.541" y="0" fill="#DB5940" width="155.165" height="48.154"/>
	<rect id="XMLID_320_" x="0" y="57.455" fill="none" width="155.706" height="13.102"/>
	<g>
		<path fill="#DB5940" d="M24.034,65.331h-1.729l-0.688-1.789H18.47l-0.65,1.789h-1.687l3.067-7.874h1.681L24.034,65.331z
			 M21.107,62.216l-1.085-2.922l-1.063,2.922H21.107z"/>
		<path fill="#DB5940" d="M29.916,62.437l1.542,0.488c-0.236,0.859-0.629,1.498-1.179,1.915c-0.55,0.417-1.247,0.626-2.092,0.626
			c-1.045,0-1.905-0.357-2.578-1.072c-0.673-0.714-1.01-1.69-1.01-2.93c0-1.311,0.338-2.328,1.015-3.054
			c0.677-0.725,1.566-1.087,2.669-1.087c0.963,0,1.746,0.284,2.347,0.854c0.358,0.337,0.626,0.82,0.806,1.45l-1.574,0.376
			c-0.093-0.408-0.288-0.73-0.583-0.967c-0.296-0.236-0.655-0.354-1.077-0.354c-0.583,0-1.057,0.21-1.421,0.628
			c-0.363,0.42-0.545,1.098-0.545,2.036c0,0.995,0.179,1.704,0.537,2.127s0.824,0.634,1.396,0.634c0.422,0,0.786-0.135,1.09-0.402
			C29.564,63.435,29.783,63.013,29.916,62.437z"/>
		<path fill="#DB5940" d="M34.594,65.331v-6.542h-2.336v-1.332h6.257v1.332h-2.331v6.542H34.594z"/>
		<path fill="#DB5940" d="M39.492,65.331v-7.874h1.59v7.874H39.492z"/>
		<path fill="#DB5940" d="M44.605,65.331l-2.814-7.874h1.724l1.993,5.827l1.928-5.827h1.687l-2.82,7.874H44.605z"/>
		<path fill="#DB5940" d="M49.885,65.331v-7.874h1.59v7.874H49.885z"/>
		<path fill="#DB5940" d="M52.984,57.457h2.906c0.655,0,1.155,0.05,1.499,0.15c0.462,0.136,0.857,0.378,1.187,0.726
			c0.33,0.347,0.58,0.772,0.752,1.275s0.258,1.123,0.258,1.861c0,0.647-0.081,1.206-0.242,1.676
			c-0.197,0.572-0.478,1.036-0.843,1.391c-0.276,0.269-0.648,0.479-1.117,0.629c-0.351,0.11-0.82,0.166-1.407,0.166h-2.992
			L52.984,57.457L52.984,57.457z M54.574,58.789v5.216h1.187c0.444,0,0.765-0.025,0.961-0.076c0.258-0.064,0.472-0.173,0.642-0.327
			s0.309-0.407,0.417-0.76s0.161-0.834,0.161-1.442s-0.054-1.076-0.161-1.402c-0.107-0.325-0.258-0.58-0.451-0.762
			c-0.193-0.184-0.438-0.307-0.736-0.371c-0.222-0.05-0.657-0.075-1.305-0.075h-0.715V58.789z"/>
		<path fill="#DB5940" d="M68.034,65.331h-1.729l-0.688-1.789H62.47l-0.65,1.789h-1.687l3.067-7.874h1.681L68.034,65.331z
			 M65.107,62.216l-1.085-2.922l-1.063,2.922H65.107z"/>
		<path fill="#DB5940" d="M68.872,57.457h2.906c0.655,0,1.155,0.05,1.499,0.15c0.462,0.136,0.857,0.378,1.187,0.726
			c0.33,0.347,0.58,0.772,0.752,1.275s0.258,1.123,0.258,1.861c0,0.647-0.081,1.206-0.242,1.676
			c-0.197,0.572-0.478,1.036-0.843,1.391c-0.276,0.269-0.648,0.479-1.117,0.629c-0.351,0.11-0.82,0.166-1.407,0.166h-2.992v-7.874
			H68.872z M70.462,58.789v5.216h1.187c0.444,0,0.765-0.025,0.961-0.076c0.258-0.064,0.472-0.173,0.642-0.327
			s0.309-0.407,0.417-0.76s0.161-0.834,0.161-1.442s-0.054-1.076-0.161-1.402c-0.107-0.325-0.258-0.58-0.451-0.762
			c-0.193-0.184-0.438-0.307-0.736-0.371c-0.222-0.05-0.657-0.075-1.305-0.075h-0.715V58.789z"/>
		<path fill="#DB5940" d="M79.872,57.457h2.906c0.655,0,1.154,0.05,1.498,0.15c0.462,0.136,0.857,0.378,1.188,0.726
			c0.329,0.347,0.58,0.772,0.752,1.275s0.258,1.123,0.258,1.861c0,0.647-0.081,1.206-0.242,1.676
			c-0.196,0.572-0.478,1.036-0.843,1.391c-0.276,0.269-0.648,0.479-1.117,0.629c-0.352,0.11-0.82,0.166-1.407,0.166h-2.992v-7.874
			H79.872z M81.461,58.789v5.216h1.188c0.443,0,0.765-0.025,0.961-0.076c0.258-0.064,0.472-0.173,0.642-0.327
			c0.171-0.154,0.31-0.407,0.417-0.76s0.161-0.834,0.161-1.442s-0.054-1.076-0.161-1.402c-0.107-0.325-0.258-0.58-0.451-0.762
			c-0.193-0.184-0.438-0.307-0.736-0.371c-0.222-0.05-0.657-0.075-1.305-0.075h-0.716V58.789z"/>
		<path fill="#DB5940" d="M87.773,65.331v-7.874h1.59v7.874H87.773z"/>
		<path fill="#DB5940" d="M90.872,57.457h2.906c0.655,0,1.154,0.05,1.498,0.15c0.462,0.136,0.857,0.378,1.188,0.726
			c0.329,0.347,0.58,0.772,0.752,1.275s0.258,1.123,0.258,1.861c0,0.647-0.081,1.206-0.242,1.676
			c-0.196,0.572-0.478,1.036-0.843,1.391c-0.276,0.269-0.648,0.479-1.117,0.629c-0.352,0.11-0.82,0.166-1.407,0.166h-2.992v-7.874
			H90.872z M92.461,58.789v5.216h1.188c0.443,0,0.765-0.025,0.961-0.076c0.258-0.064,0.472-0.173,0.642-0.327
			c0.171-0.154,0.31-0.407,0.417-0.76s0.161-0.834,0.161-1.442s-0.054-1.076-0.161-1.402c-0.107-0.325-0.258-0.58-0.451-0.762
			c-0.193-0.184-0.438-0.307-0.736-0.371c-0.222-0.05-0.657-0.075-1.305-0.075h-0.716V58.789z"/>
		<path fill="#DB5940" d="M105.921,65.331h-1.729l-0.688-1.789h-3.147l-0.649,1.789h-1.687l3.066-7.874h1.682L105.921,65.331z
			 M102.995,62.216l-1.085-2.922l-1.063,2.922H102.995z M100.997,57.006l0.741-1.606h1.691l-1.477,1.606H100.997z"/>
		<path fill="#DB5940" d="M111.803,62.437l1.541,0.488c-0.236,0.859-0.629,1.498-1.179,1.915s-1.247,0.626-2.092,0.626
			c-1.046,0-1.905-0.357-2.578-1.072c-0.674-0.714-1.01-1.69-1.01-2.93c0-1.311,0.338-2.328,1.015-3.054
			c0.677-0.725,1.566-1.087,2.67-1.087c0.963,0,1.745,0.284,2.347,0.854c0.358,0.337,0.627,0.82,0.806,1.45l-1.573,0.376
			c-0.094-0.408-0.288-0.73-0.583-0.967c-0.296-0.236-0.654-0.354-1.077-0.354c-0.583,0-1.057,0.21-1.421,0.628
			c-0.363,0.42-0.545,1.098-0.545,2.036c0,0.995,0.18,1.704,0.537,2.127c0.358,0.423,0.824,0.634,1.396,0.634
			c0.423,0,0.786-0.135,1.091-0.402C111.452,63.435,111.67,63.013,111.803,62.437z"/>
		<path fill="#DB5940" d="M116.481,65.331v-6.542h-2.336v-1.332h6.257v1.332h-2.331v6.542H116.481z"/>
		<path fill="#DB5940" d="M121.379,65.331v-7.874h1.59v7.874H121.379z"/>
		<path fill="#DB5940" d="M129.522,62.437l1.542,0.488c-0.236,0.859-0.63,1.498-1.179,1.915c-0.55,0.417-1.247,0.626-2.093,0.626
			c-1.045,0-1.904-0.357-2.578-1.072c-0.673-0.714-1.01-1.69-1.01-2.93c0-1.311,0.339-2.328,1.016-3.054
			c0.677-0.725,1.566-1.087,2.669-1.087c0.964,0,1.746,0.284,2.348,0.854c0.357,0.337,0.626,0.82,0.806,1.45l-1.574,0.376
			c-0.093-0.408-0.287-0.73-0.582-0.967c-0.296-0.236-0.655-0.354-1.077-0.354c-0.584,0-1.058,0.21-1.421,0.628
			c-0.363,0.42-0.545,1.098-0.545,2.036c0,0.995,0.179,1.704,0.537,2.127c0.357,0.423,0.823,0.634,1.396,0.634
			c0.422,0,0.786-0.135,1.09-0.402C129.171,63.435,129.39,63.013,129.522,62.437z"/>
		<path fill="#DB5940" d="M139.529,65.331H137.8l-0.688-1.789h-3.147l-0.65,1.789h-1.687l3.067-7.874h1.681L139.529,65.331z
			 M136.601,62.216l-1.085-2.922l-1.063,2.922H136.601z"/>
	</g>
	<path id="XMLID_284_" fill="#FEFEFE" d="M90.634,18.201v16.996c0,2.098-1.752,3.85-4.033,3.85H66.636
		c-2.28,0-4.027-1.752-4.027-3.85V15.049c0-2.275,1.747-4.028,4.027-4.028h16.991l-4.029,4.028H66.636v20.149H86.6V22.234
		L90.634,18.201z M87.654,9.796l-1.398,1.574l4.206,4.207l1.401-1.403L87.654,9.796z M90.461,6.994l-1.4,1.398l4.199,4.381
		l1.41-1.404L90.461,6.994z M72.07,25.383l4.199,4.383l12.792-12.787l-4.208-4.205L72.07,25.383z M70.665,31.163h4.031l-4.031-4.028
		V31.163z"/>
</g>
</svg>
