<?xml version="1.0" encoding="utf-8"?>
<!-- Generator: Adobe Illustrator 17.0.0, SVG Export Plug-In . SVG Version: 6.00 Build 0)  -->
<!DOCTYPE svg PUBLIC "-//W3C//DTD SVG 1.1//EN" "http://www.w3.org/Graphics/SVG/1.1/DTD/svg11.dtd" [
	<!ENTITY ns_extend "http://ns.adobe.com/Extensibility/1.0/">
	<!ENTITY ns_ai "http://ns.adobe.com/AdobeIllustrator/10.0/">
	<!ENTITY ns_graphs "http://ns.adobe.com/Graphs/1.0/">
	<!ENTITY ns_vars "http://ns.adobe.com/Variables/1.0/">
	<!ENTITY ns_imrep "http://ns.adobe.com/ImageReplacement/1.0/">
	<!ENTITY ns_sfw "http://ns.adobe.com/SaveForWeb/1.0/">
	<!ENTITY ns_custom "http://ns.adobe.com/GenericCustomNamespace/1.0/">
	<!ENTITY ns_adobe_xpath "http://ns.adobe.com/XPath/1.0/">
]>
<svg version="1.1" id="Capa_1" xmlns:x="&ns_extend;" xmlns:i="&ns_ai;" xmlns:graph="&ns_graphs;"
	 xmlns="http://www.w3.org/2000/svg" xmlns:xlink="http://www.w3.org/1999/xlink" x="0px" y="0px" width="155.706px"
	 height="74.254px" viewBox="0 0 155.706 74.254" enable-background="new 0 0 155.706 74.254" xml:space="preserve">
<metadata><?xpacket begin="﻿" id="W5M0MpCehiHzreSzNTczkc9d"?>
<x:xmpmeta xmlns:x="adobe:ns:meta/" x:xmptk="Adobe XMP Core 5.5-c014 79.151739, 2013/04/03-12:12:15        ">
   <rdf:RDF xmlns:rdf="http://www.w3.org/1999/02/22-rdf-syntax-ns#">
      <rdf:Description rdf:about=""
            xmlns:dc="http://purl.org/dc/elements/1.1/"
            xmlns:xmp="http://ns.adobe.com/xap/1.0/"
            xmlns:xmpGImg="http://ns.adobe.com/xap/1.0/g/img/"
            xmlns:xmpMM="http://ns.adobe.com/xap/1.0/mm/"
            xmlns:stRef="http://ns.adobe.com/xap/1.0/sType/ResourceRef#"
            xmlns:stEvt="http://ns.adobe.com/xap/1.0/sType/ResourceEvent#"
            xmlns:illustrator="http://ns.adobe.com/illustrator/1.0/"
            xmlns:xmpTPg="http://ns.adobe.com/xap/1.0/t/pg/"
            xmlns:stDim="http://ns.adobe.com/xap/1.0/sType/Dimensions#"
            xmlns:xmpG="http://ns.adobe.com/xap/1.0/g/"
            xmlns:pdf="http://ns.adobe.com/pdf/1.3/">
         <dc:format>image/svg+xml</dc:format>
         <dc:title>
            <rdf:Alt>
               <rdf:li xml:lang="x-default">Imprimir</rdf:li>
            </rdf:Alt>
         </dc:title>
         <xmp:MetadataDate>2017-10-09T13:05:45-05:00</xmp:MetadataDate>
         <xmp:ModifyDate>2017-10-09T13:05:45-05:00</xmp:ModifyDate>
         <xmp:CreateDate>2017-10-09T13:05:45-05:00</xmp:CreateDate>
         <xmp:CreatorTool>Adobe Illustrator CC (Windows)</xmp:CreatorTool>
         <xmp:Thumbnails>
            <rdf:Alt>
               <rdf:li rdf:parseType="Resource">
                  <xmpGImg:width>256</xmpGImg:width>
                  <xmpGImg:height>124</xmpGImg:height>
                  <xmpGImg:format>JPEG</xmpGImg:format>
                  <xmpGImg:image>/9j/4AAQSkZJRgABAgEASABIAAD/7QAsUGhvdG9zaG9wIDMuMAA4QklNA+0AAAAAABAASAAAAAEA&#xA;AQBIAAAAAQAB/+4ADkFkb2JlAGTAAAAAAf/bAIQABgQEBAUEBgUFBgkGBQYJCwgGBggLDAoKCwoK&#xA;DBAMDAwMDAwQDA4PEA8ODBMTFBQTExwbGxscHx8fHx8fHx8fHwEHBwcNDA0YEBAYGhURFRofHx8f&#xA;Hx8fHx8fHx8fHx8fHx8fHx8fHx8fHx8fHx8fHx8fHx8fHx8fHx8fHx8fHx8f/8AAEQgAfAEAAwER&#xA;AAIRAQMRAf/EAaIAAAAHAQEBAQEAAAAAAAAAAAQFAwIGAQAHCAkKCwEAAgIDAQEBAQEAAAAAAAAA&#xA;AQACAwQFBgcICQoLEAACAQMDAgQCBgcDBAIGAnMBAgMRBAAFIRIxQVEGE2EicYEUMpGhBxWxQiPB&#xA;UtHhMxZi8CRygvElQzRTkqKyY3PCNUQnk6OzNhdUZHTD0uIIJoMJChgZhJRFRqS0VtNVKBry4/PE&#xA;1OT0ZXWFlaW1xdXl9WZ2hpamtsbW5vY3R1dnd4eXp7fH1+f3OEhYaHiImKi4yNjo+Ck5SVlpeYmZ&#xA;qbnJ2en5KjpKWmp6ipqqusra6voRAAICAQIDBQUEBQYECAMDbQEAAhEDBCESMUEFURNhIgZxgZEy&#xA;obHwFMHR4SNCFVJicvEzJDRDghaSUyWiY7LCB3PSNeJEgxdUkwgJChgZJjZFGidkdFU38qOzwygp&#xA;0+PzhJSktMTU5PRldYWVpbXF1eX1RlZmdoaWprbG1ub2R1dnd4eXp7fH1+f3OEhYaHiImKi4yNjo&#xA;+DlJWWl5iZmpucnZ6fkqOkpaanqKmqq6ytrq+v/aAAwDAQACEQMRAD8AX1f/AI6t7/xnl/4mc5qf&#xA;1F9IwfRH3BCZFtdirsVdirsVdirsVdirsVdirsVdirsVdirsVdirsVdirsVdirsVdirsVdirsVdi&#xA;rsVdirsVdiqL0j/jq2X/ABni/wCJjJQ+oNWf6Je4u1f/AI6t7/xnl/4mcZ/UVwfRH3BCZFtdirsV&#xA;dirsVdirsVdirsVdirsVdirsVdirsVdirsVdirsVdirsVdirsVdirsVdirsVdirsVdiqL0j/AI6t&#xA;l/xni/4mMlD6g1Z/ol7i7V/+Ore/8Z5f+JnGf1FcH0R9wQmRbXYq7FXYq7FXYq7FXYq7FXYq7FXY&#xA;q7FXYq9+/KmCGPyPYSIirJMZmlcAAsRO6gse9AKZvNEB4Q/HV4ftqROpkD0r7g781oYn8jX7uis8&#xA;RhaJiASpM6KSD2+FiMdaP3R/HVHY0iNTEDrf3F4Dmje5dirsVdirsVdirsVdirsVdirsVdirsVdi&#xA;qL0j/jq2X/GeL/iYyUPqDVn+iXuLtX/46t7/AMZ5f+JnGf1FcH0R9wQmRbXYq7FXYq7FXYq7FXYq&#xA;7FXYq7FXYq7FXYq+gfys/wCUD0z/AJ7/APURJm90X90Pj97wvbP+NT+H+5DvzT/5QPU/+eH/AFER&#xA;463+6Pw+9exv8ah8f9yXz9mie6dirsVdirsVdirsVdirsVdirsVdirsVdiqL0j/jq2X/ABni/wCJ&#xA;jJQ+oNWf6Je4u1f/AI6t7/xnl/4mcZ/UVwfRH3BCZFtdirsVdirsVdirsVdirsVdirsVdirsVR2m&#xA;6HrGp8zp9lNdCOnqGJGcLXpUgZOGOUuQtpy6jHj+uQj73vX5c2N5Y+TdPtbyF7e5j9bnFICrDlO7&#xA;CoPiDXN5pImOMA8/2vEdq5Iz1EpRNjb7g78xrG8vvJuoWtnC9xcyejwijBZjxnRjQDwArjq4mWMg&#xA;c/2r2VkjDURlI0N/uLwXUtD1nTAh1CymtBLURmVGQMR1oSM0c8co8xT22LUY8n0SEq7kDkG92Kux&#xA;V2KuxV2KuxV2KuxV2KuxV2KuxVF6R/x1bL/jPF/xMZKH1Bqz/RL3F2r/APHVvf8AjPL/AMTOM/qK&#xA;4Poj7ghMi2uxV2KuxV2KuxV2KuxV2KuxV2KuxV2Ksi8lecr3yzqJlQerYz0F3bfzAdGU9mWu2X6f&#xA;UHGfJ1/aGgjqIUdpDkXv+larYarYRX1jKJraYVVh1B7qw7Edxm9hMSFjk8PmwyxSMZCiF2palZab&#xA;ZS3t7KIbaEcpJG/UPEnsMM5iIs8kYsUskhGIsl8/edfOV75m1ESuPSsYKi0tv5QerMe7NTfNDqNQ&#xA;ch8nuez9BHTwobyPMsdyh2DsVdirsVdirsVdirsVdirsVdirsVdiqL0j/jq2X/GeL/iYyUPqDVn+&#xA;iXuLtX/46t7/AMZ5f+JnGf1FcH0R9wQmRbXYq7FXYq7FXYq7FXYq7FXYq7FXYq9o/KTQ9Il8rNdT&#xA;2kU89xNIsjyorngtFC/ED8Ptm30OOJhZDyHbeoyDPwgkAAPLPNVnb2XmTU7S2XhBDcypEnZVDGg+&#xA;jNZmiBMgd70ujyGeGMjzMQjfJvnXUfLN6XiHr2Mv+9NoTQN4Mp34sPHJ6fUHGfJp1/Z8NRGjtIci&#xA;v86eedQ8zXS81NvYQ7wWgaoBpu7nbk36vvw6jUnIfJGg7Ohp498jzKVeXrWG81/TLSccoLi7gilX&#xA;pVHkVWH3HKsUQZgHvcrVTMMUpDmIk/Y9Y/NvQtIh8qJcW9pFBLbTRrE0SKhCtVSvwgbZtNdjiIWB&#xA;yeX7E1GQ56JJBB5vF81D17sVdirsVdirsVdirsVdirsVdirsVRekf8dWy/4zxf8AExkofUGrP9Ev&#xA;cXav/wAdW9/4zy/8TOM/qK4Poj7ghMi2uxV2KuxV2KuxV2KuxV2KuxV2KuxV7F+U/mfQbXy01je3&#xA;0FpcQzOxW4kWLkr0IZS5APcbZttFmiIUTTyfbWjyyzcUYmQI6C2WPrXkORy8l/pbuxqzNLbkk+JJ&#xA;OZRyYu+P2OsGn1Q2Ecnykt/S/kD/AJbdK/5G239cePF3x+xfA1X83J8pO/S/kD/lt0r/AJG239ce&#xA;PF3x+xfA1X83J8pNprPkNHV0vtKV1IKsJbcEEbggg4+Ji74/Ypwao/w5PlJin5r+Z9BuvLQsrK+g&#xA;u7iaZGCW8iy8VSpJYoSB4Zi63NEwoG3Z9i6PLHNxSiYgDqKeO5qXrHYq7FXYq7FXYq7FXYq7FXYq&#xA;7FXYqi9I/wCOrZf8Z4v+JjJQ+oNWf6Je4u1f/jq3v/GeX/iZxn9RXB9EfcEJkW12KuxV2KuxV2Ku&#xA;xV2KuxV2KuxV2KuxV2KuxV2KuxV2KuxV2KuxV2KuxV2KuxV2KuxV2KuxV2KovSP+OrZf8Z4v+JjJ&#xA;Q+oNWf6Je4o/VPL+vNqd4y6bdMrTyFWEEhBBc7j4cnPFLiOxaMOpxCA9UeQ6hC/4d8wf9Wy7/wCR&#xA;En/NOR8KfcWz81i/nR+Yd/h3zB/1bLv/AJESf804+FPuK/msX86PzDv8O+YP+rZd/wDIiT/mnHwp&#xA;9xX81i/nR+Yd/h3zB/1bLv8A5ESf804+FPuK/msX86PzDv8ADvmD/q2Xf/IiT/mnHwp9xX81i/nR&#xA;+Yd/h3zB/wBWy7/5ESf804+FPuK/msX86PzDv8O+YP8Aq2Xf/IiT/mnHwp9xX81i/nR+Yd/h3zB/&#xA;1bLv/kRJ/wA04+FPuK/msX86PzDv8O+YP+rZd/8AIiT/AJpx8KfcV/NYv50fmHf4d8wf9Wy7/wCR&#xA;En/NOPhT7iv5rF/Oj8w7/DvmD/q2Xf8AyIk/5px8KfcV/NYv50fmHf4d8wf9Wy7/AOREn/NOPhT7&#xA;iv5rF/Oj8w7/AA75g/6tl3/yIk/5px8KfcV/NYv50fmHf4d8wf8AVsu/+REn/NOPhT7iv5rF/Oj8&#xA;w7/DvmD/AKtl3/yIk/5px8KfcV/NYv50fmHf4d8wf9Wy7/5ESf8ANOPhT7iv5rF/Oj8w7/DvmD/q&#xA;2Xf/ACIk/wCacfCn3FfzWL+dH5h3+HfMH/Vsu/8AkRJ/zTj4U+4r+axfzo/MO/w75g/6tl3/AMiJ&#xA;P+acfCn3FfzWL+dH5h3+HfMH/Vsu/wDkRJ/zTj4U+4r+axfzo/MO/wAO+YP+rZd/8iJP+acfCn3F&#xA;fzWL+dH5h3+HfMH/AFbLv/kRJ/zTj4U+4r+axfzo/MO/w75g/wCrZd/8iJP+acfCn3FfzWL+dH5h&#xA;3+HfMH/Vsu/+REn/ADTj4U+4r+axfzo/MO/w75g/6tl3/wAiJP8AmnHwp9xX81i/nR+Yd/h3zB/1&#xA;bLv/AJESf804+FPuK/msX86PzDv8O+YP+rZd/wDIiT/mnHwp9xX81i/nR+Yd/h3zB/1bLv8A5ESf&#xA;804+FPuK/msX86PzDv8ADvmD/q2Xf/IiT/mnHwp9xX81i/nR+Yd/h3zB/wBWy7/5ESf804+FPuK/&#xA;msX86PzCK0vy/ry6nZs2m3Sqs8ZZjBIAAHG5+HJQxS4hsWvNqcRgfVHkeofSedE+fOxV2KuxV2Ku&#xA;xV2KuxV2KuxV2KuxV2KuxV2KuxV2KuxV2KuxV2KuxV2KuxV2KuxV2KuxV2KuxV2KuxV2KuxV2KrJ&#xA;54reCSeZuEUSs8jnsqipO3tgJoWyjEyIA5lIIPzE8lzSrGmqxBmNBzDoN/8AKdVGUDVYz1c2XZeo&#xA;AswKYax5k0PR44ZNSu1t47ivosQzBuIBNOIbxyzJljDmWjBpMmUkQF0hNP8APXlPUbyKystQSa6m&#xA;JEUYWQEkAk7lQOgyEdTjkaB3bcvZ2fHEylGgPc6/89eUrC7azutTijuEPF0HJ+J8GKhgD88ZanHE&#xA;0SuPs7POPFGJpNJdT06Gw/SElzEtjxEn1kuPT4noQ3Q17ZaZgC72caOGZlwAHi7uqW6V518rarc/&#xA;VbDUY5bg14xEMjNTc8Q4Xl9GVw1EJGgXIzdn5sQ4pRICN1jXdJ0a3S41O5W2hd/TRmDGrEE0ooJ6&#xA;DJ5MkYC5GmrBp8mU1AWVW51OxttPbUZ5glkiCVp9yOB3DbAnvhMwBZ5MIYpSnwAepJYvzF8lSyLG&#xA;mrRBmNByDoP+CZQBlI1WM9XMl2XqAL4CnN/qum6fZm9vbmOC1FP3zsApruKeNe1MulMRFk7OJjwz&#xA;nLhiCZJfpPnTyvq1yLXT9QjmuDXjEQyM1OvEOF5dO2Vw1EJGgW/NoM2IcU4kBGavrelaPbLdalcL&#xA;bQM4jV2BNWIJAAUE9FOTyZIwFyNNODTzynhgLKrLqVjFpx1J5gLFYvXM4qV9OnLltvSmEzAF9GIx&#xA;SM+AD1XVeaSx/mN5JkcIurRAnoWDqPpLKBlI1ePvcw9lakfwH7GRKyuodCGVgCrA1BB6EHMhwCKS&#xA;nWPN/lvR5hBqV/HBOwB9L4ncA9CVQMR9OVZM8IGiXKwaHNlFwiSFeDzDos+lyarBeRy6fCrNLOhL&#xA;BQoq3ID4gQO1K4RliY8QOzXLS5IzEDEiR6JZF+YvkmWRY11aIMxoCwdB9LMoAysarGerknsvUgXw&#xA;FkSsrKGUhlYVVhuCD3GZDryEpXzd5cayu74Xqm1sHEV3LxeiOzBQCONT8R7ZV48KJvYOX+RzcQjw&#xA;+qXJAr+ZHkl2CrqiFmIAHCXqf9hkPzePvbT2VqR/B9361S6/MHyda3M1rcakkc8DtFKhSQlXQ8WG&#xA;y02IxOqxg0SiHZmokBIR2PuRen+bPLmoWtzd2l9G9taAG5mbkioGrSpcL4ZOOeEgSDsGrLos0JCM&#xA;om5ckPYee/KN/draWupxPcOeKIQycm7BS4UEn2yMdTjkaBZ5Ozs8I8Uomk+y9wnYq7FXYq7FXYq7&#xA;FUv8xf8AKP6n/wAwk/8AybbK8v0H3N+l/vY/1h97AvL2g6HeflL9Yu7SEzrb3cguiiiQPHJKUb1K&#xA;V2oMwsWKJwWR0P6Xd6rU5Ia6ok1xR26bgdGNX1xeXPlLyYWQXMy3U8UMcv2XCTKqIxP7O3H5ZjSJ&#xA;OOHXd2OOMY58/QcI+78F6FoFvrqapE9/5a07TrZAzNeQNEZEIU0px336Zn4hLi3jEB0WpliMCI5Z&#xA;zPcbYUdF1XTrXVHs7Gw8z6FcySvNexMj3CClTSRTzVlG+3Kh3zD8OUQaAnHvdv8AmIZJQEpTw5AB&#xA;t0+X9iprF1pOoaP5KsbFHg0K6vHW6tpHLFWWZFZWkPh6r0PhhySjKOMD6SWOCE4ZM8pb5Ix2PwPT&#xA;4Bm+qeVvIsF/pc1wsGm3MEn+g+ky2/qOhUgGlOZU0p8/fMyeHECL2PTo6fDrNTKMwLmDz61+ph/5&#xA;i6lpWrecItH1C8Fpp2nW8hklPIj6zKlV+yDXieH45iaqcZZOEmgB9rtey8U8WnOSEeKcyP8ASg/2&#xA;/Yq6Nrv6S/KPU7WRq3OmRG3Yd/TqDEflx+H/AGOSx5OLAR1DHPpvD18JDlM38ev6/ixy4v5j5V0/&#xA;SbjQrW0W/VUtdcm4ivFwS5cLVfA1PTMcy9AiYgX1c+OIePLIMkpcPOAZPrulRjzP5O8u6lJ62mwW&#xA;wVg1eEkyKVp2qCUVaeBzJyQ9cIS5U67T5j4ObNAVMy+Q/BLvM11olh5nsmn8sy2xtrlYrO/gcW8c&#xA;rVUq1FQcuPzxzSjGYuNb8+S6SGSeGVZQbjuDuR9qj+Y+paVqnm610TULwWmm2MMj3M3xGk8qVQUU&#xA;GtPg+85HVzjLIIk0Ay7KxTx4DkhHinI7e4H+1U8s679f/KzWbCRw1xpdvLDWtaxMpMZ/Wo+WHDk4&#xA;sEh3BGr0/BrYSHKZB+PVjc+ozJ5SsdNuPL9rbx3yLHa63LxFSGqXLKtVPzbMczPhiJiN+rsI4gc8&#xA;pjJI8POAez+XtOfTdCsLB5BM9tAkbSA1BKrvxr+z4e2bfFDhiB3PI6rL4mWUgKssF/LLTrDVbrXd&#xA;S1SGO61Jrto3EyiTghqdg1aVNR9FMwtHESMpS3Nu67XyyxxxwgTGHD0SieCHTvMHnjTNPHp6Z+jX&#xA;lMKfYWXjGaDsKGVwBlRAjPJEcuFyoyOTFgnP6+Ovhv8AqCXJb6/L5AHDy7atp6xM7ax+6a44LISz&#xA;gchJUUp8srqZxfSK73IMsQ1W+SXFf071y+T1PyjqmjNoOkWtreK7NaoLeKRlWZ1iHBj6fInYoa0r&#xA;SmbPBOPDEA9HmtdhyeLOUo/xb92/m8yt/wDlA/Of/MdD/wBRCZrR/dT9/wCl6KX+NYP6h/3JZN5f&#xA;tPMbWum8vKumtaMkHK7JiMhjIX94R15cd8ycUZ0PRGnXameISl+9nxb7b1fcu/N3TdOh0ayuIrWG&#xA;OebUohLMsaq78klLcmAqanc1w66AEQa/iR2JlmckgSaED18wp/mjZ2VtDo1hBDHZ6dfXqi/9FViD&#xA;BSoXkVA6BmODWRA4QNgTuy7HySkZyJMpxjte6J/M/wAvaBa+TZZ7ezhtbi0aIWjxIqNVpFUrUUJ+&#xA;Ek/jktZigMdgVTX2RqsstQAZEiV38mYeXri4uNA0y4uSTcTWkEkxOxLtGpav0nMrESYAnudVqoiO&#xA;WQHISP3o/LGh2KuxV2KuxV2KqF/aLeWNxaMxVbiJ4mYdQHUrUffkZRsEM8c+CQl3G2EQ/lNGtqtj&#xA;Jr2oPpo62KvxiILciOPxKKnfpmGNFtXEa7ncS7aJlxDHDj7+qa6/5A0/VLLTLO3uJNPi0qv1UwUL&#xA;DZaGp3qONa9a5bl0okAAa4XG03ac8cpSIEjPnbWkeSdQsNRhu5fMeo3scRJa1nlZo3qpFGBY+NcE&#xA;NOYm+KRTn7QhOBiMcI31A3S2f8qY1kuU0zWbvTtPu2JnsIzWMhuq7Mu1NtwdsrOi58MiAejkR7ZJ&#xA;AM4RlKPIpxd+QNAuPLUGgFXW2tjzt5w371ZCSS/Iih5FjUUp+GXS0sDDg6BxIdp5Y5jl6nn3Ul2l&#xA;flnBb6nbahqeqXOrPZEGzinPwIVNV6lzsd6CmVw0YEgZEypvzdrmUDCEIw4udJnofknTdNudQu52&#xA;/SF1qMvrSyzoh47k8VFDQVY5Zj04iSTuS4+o7QnkEYj0iIrZCT/l1YNd6vLb3T20GsxelPaoq8FN&#xA;Qea+9QfvOROlFyo/U2x7UlwwBFnGbBRdz5I0268pw+XLh2eG3UCG5oPUV1JIcdq70+WSOnBx8Bao&#xA;doTjnOYcz0UL7yBY6hoVlpl7dTS3GnbWeorRZ0A6DuCKAD6PHBLSiUREnl1Z4+05QyynEACXOPRA&#xA;2/5YpJfwXes6zeat9VYPBFMxCgqQd6s57dqZAaPe5SMqbpdr1ExxwjC+dJro3krTtPv9Rv7hvr91&#xA;qUvqyPOinhuTxQb0HxZZj04iSTuS42ftCc4xiPSICtkNN+XtgdQ1W6trh7aLV7dra4tY1X0xyAHN&#xA;R41FfpOROlFkg1xBsj2nLghEizA2CipvJWm3HlOLy5cO0kEKBYrigDq6klXHau/3ZM6cHHwFrj2h&#xA;OOc5hzPRMtB0t9K0m309rl7sWy8I5pAA3AfZU0/lGw9snihwxAu6cfU5hlmZ1w2x3Vfy5hn1abVN&#xA;J1O50e7uqm6+rn4HJ3JoChBJ3O+UT0ly4okxJc/D2qRAQyQjkiOVq+m/l7pdho2o2CTyy3OqoyXl&#xA;/KQ0p5A9O3cn9eGGljGJH87qwy9qTnkjIgAQ5R6JWn5UstoLE+YdQ/R9OLWavSIqTUrwqV3+WVjR&#xA;bVxSpyD2z6uLw4cXf1Ruqflpp1wmnHTLyfSrrTYvQguYSSxjJLGpqprV2NQe5yc9IDXCeEhqw9rT&#xA;iZccRMTNkFWi/LvTYvKdz5eS4kpeOstzeEAyM6ur1odv2AMI0oGMwvmwPakznGUgenYD4IKP8ttR&#xA;ijWOPzVqiRoAqIsrBVUCgAAbYDIDSEfxybj2rAmzix/JPvNfliDzFYwWk07QLBcJchkAJJRWWm/+&#xA;vl+bCMgo97haLWHBIyAuxSv5j8uab5g01rC/UmMkPHIho6ONgyk133yWXEMgosNLqp4J8UWMRflY&#xA;kslumra1eanY2pBgspSQgpsAas21NtqZjDRXXFIkDo7E9skA+HCMJHqzlVVVCqAqqKKo2AA7DM10&#xA;pLeKuxV2KuxV2KuxV2KuxV2KuxV2KuxV2KuxV2KuxV2KuxV2KuxV2KuxV2KuxV2KuxV2KuxV2Kux&#xA;V2KuxV2KuxV2KuxV2KuxV2KuxV2KuxV2KuxV2KuxV2KuxV2KuxV2KuxV2KuxV2KuxV2KuxV2KuxV&#xA;2KuxV2KuxV2KuxV2Kv8A/9k=</xmpGImg:image>
               </rdf:li>
            </rdf:Alt>
         </xmp:Thumbnails>
         <xmpMM:InstanceID>xmp.iid:b0d3e984-07a0-7148-853a-66ce4e9f7aa5</xmpMM:InstanceID>
         <xmpMM:DocumentID>xmp.did:b0d3e984-07a0-7148-853a-66ce4e9f7aa5</xmpMM:DocumentID>
         <xmpMM:OriginalDocumentID>uuid:5D20892493BFDB11914A8590D31508C8</xmpMM:OriginalDocumentID>
         <xmpMM:RenditionClass>proof:pdf</xmpMM:RenditionClass>
         <xmpMM:DerivedFrom rdf:parseType="Resource">
            <stRef:instanceID>xmp.iid:9abfa668-2609-c146-aeb5-945099e7e6e3</stRef:instanceID>
            <stRef:documentID>xmp.did:9abfa668-2609-c146-aeb5-945099e7e6e3</stRef:documentID>
            <stRef:originalDocumentID>uuid:5D20892493BFDB11914A8590D31508C8</stRef:originalDocumentID>
            <stRef:renditionClass>proof:pdf</stRef:renditionClass>
         </xmpMM:DerivedFrom>
         <xmpMM:History>
            <rdf:Seq>
               <rdf:li rdf:parseType="Resource">
                  <stEvt:action>saved</stEvt:action>
                  <stEvt:instanceID>xmp.iid:9abfa668-2609-c146-aeb5-945099e7e6e3</stEvt:instanceID>
                  <stEvt:when>2017-04-11T01:59:07-05:00</stEvt:when>
                  <stEvt:softwareAgent>Adobe Illustrator CC (Windows)</stEvt:softwareAgent>
                  <stEvt:changed>/</stEvt:changed>
               </rdf:li>
               <rdf:li rdf:parseType="Resource">
                  <stEvt:action>saved</stEvt:action>
                  <stEvt:instanceID>xmp.iid:b0d3e984-07a0-7148-853a-66ce4e9f7aa5</stEvt:instanceID>
                  <stEvt:when>2017-10-09T13:05:45-05:00</stEvt:when>
                  <stEvt:softwareAgent>Adobe Illustrator CC (Windows)</stEvt:softwareAgent>
                  <stEvt:changed>/</stEvt:changed>
               </rdf:li>
            </rdf:Seq>
         </xmpMM:History>
         <illustrator:StartupProfile>Print</illustrator:StartupProfile>
         <xmpTPg:HasVisibleOverprint>False</xmpTPg:HasVisibleOverprint>
         <xmpTPg:HasVisibleTransparency>True</xmpTPg:HasVisibleTransparency>
         <xmpTPg:NPages>1</xmpTPg:NPages>
         <xmpTPg:MaxPageSize rdf:parseType="Resource">
            <stDim:w>155.705994</stDim:w>
            <stDim:h>74.254028</stDim:h>
            <stDim:unit>Pixels</stDim:unit>
         </xmpTPg:MaxPageSize>
         <xmpTPg:PlateNames>
            <rdf:Seq>
               <rdf:li>Cyan</rdf:li>
               <rdf:li>Magenta</rdf:li>
               <rdf:li>Yellow</rdf:li>
            </rdf:Seq>
         </xmpTPg:PlateNames>
         <xmpTPg:SwatchGroups>
            <rdf:Seq>
               <rdf:li rdf:parseType="Resource">
                  <xmpG:groupName>Grupo de muestras por defecto</xmpG:groupName>
                  <xmpG:groupType>0</xmpG:groupType>
               </rdf:li>
            </rdf:Seq>
         </xmpTPg:SwatchGroups>
         <pdf:Producer>Adobe PDF library 10.01</pdf:Producer>
      </rdf:Description>
   </rdf:RDF>
</x:xmpmeta>
                                                                                                    
                                                                                                    
                                                                                                    
                                                                                                    
                                                                                                    
                                                                                                    
                                                                                                    
                                                                                                    
                                                                                                    
                                                                                                    
                                                                                                    
                                                                                                    
                                                                                                    
                                                                                                    
                                                                                                    
                                                                                                    
                                                                                                    
                                                                                                    
                                                                                                    
                                                                                                    
                           
<?xpacket end="w"?>
	</metadata>
<g>
	
		<rect id="XMLID_282_" x="0.397" y="0" opacity="0.5" fill="#FFFFFF" enable-background="new    " width="154.914" height="74.254"/>
	<rect id="XMLID_265_" x="0.397" y="0" fill="#DB5940" width="154.914" height="48.154"/>
	<rect id="XMLID_275_" x="0" y="57.455" fill="none" width="155.706" height="13.102"/>
	<g>
		<path fill="#DB5940" d="M19.058,57.457h2.906c0.655,0,1.155,0.05,1.499,0.15c0.462,0.136,0.857,0.378,1.187,0.726
			c0.33,0.347,0.58,0.772,0.752,1.275s0.258,1.123,0.258,1.861c0,0.647-0.081,1.206-0.242,1.676
			c-0.197,0.572-0.478,1.036-0.843,1.391c-0.276,0.269-0.648,0.479-1.117,0.629c-0.351,0.11-0.82,0.166-1.407,0.166h-2.992
			L19.058,57.457L19.058,57.457z M20.648,58.789v5.216h1.187c0.444,0,0.765-0.025,0.961-0.076c0.258-0.064,0.472-0.173,0.642-0.327
			s0.309-0.407,0.417-0.76s0.161-0.834,0.161-1.442s-0.054-1.076-0.161-1.402c-0.107-0.325-0.258-0.58-0.451-0.762
			c-0.193-0.184-0.438-0.307-0.736-0.371c-0.222-0.05-0.657-0.075-1.305-0.075h-0.715V58.789z"/>
		<path fill="#DB5940" d="M27.007,65.331v-7.874h5.838v1.332h-4.249v1.745h3.953v1.327h-3.953v2.144h4.399v1.326
			C32.995,65.331,27.007,65.331,27.007,65.331z"/>
		<path fill="#DB5940" d="M33.941,62.769l1.547-0.15c0.093,0.52,0.282,0.901,0.566,1.145c0.285,0.243,0.669,0.365,1.152,0.365
			c0.512,0,0.898-0.108,1.157-0.325c0.26-0.217,0.39-0.47,0.39-0.76c0-0.187-0.055-0.345-0.164-0.476s-0.3-0.244-0.572-0.341
			c-0.186-0.064-0.61-0.179-1.273-0.344c-0.852-0.211-1.45-0.471-1.794-0.778c-0.483-0.434-0.725-0.962-0.725-1.585
			c0-0.401,0.114-0.776,0.341-1.125c0.227-0.35,0.555-0.615,0.982-0.798c0.428-0.183,0.945-0.273,1.55-0.273
			c0.988,0,1.732,0.216,2.231,0.649c0.5,0.434,0.762,1.012,0.787,1.735l-1.59,0.069c-0.068-0.404-0.214-0.695-0.438-0.873
			c-0.224-0.177-0.56-0.266-1.007-0.266c-0.462,0-0.824,0.095-1.085,0.284c-0.168,0.122-0.252,0.285-0.252,0.489
			c0,0.187,0.079,0.346,0.236,0.478c0.201,0.169,0.688,0.344,1.461,0.527c0.773,0.182,1.346,0.371,1.716,0.566
			c0.371,0.195,0.661,0.462,0.87,0.8c0.21,0.339,0.314,0.757,0.314,1.255c0,0.451-0.125,0.873-0.376,1.268
			c-0.25,0.394-0.605,0.687-1.063,0.878s-1.029,0.287-1.713,0.287c-0.996,0-1.76-0.23-2.293-0.69S34.045,63.649,33.941,62.769z"/>
		<path fill="#DB5940" d="M46.719,62.437l1.542,0.488c-0.236,0.859-0.629,1.498-1.179,1.915s-1.247,0.626-2.092,0.626
			c-1.045,0-1.905-0.357-2.578-1.072c-0.673-0.714-1.01-1.69-1.01-2.93c0-1.311,0.338-2.328,1.015-3.054
			c0.677-0.725,1.566-1.087,2.669-1.087c0.963,0,1.746,0.284,2.347,0.854c0.358,0.337,0.626,0.82,0.806,1.45l-1.574,0.376
			c-0.093-0.408-0.288-0.73-0.583-0.967c-0.296-0.236-0.655-0.354-1.077-0.354c-0.583,0-1.057,0.21-1.421,0.628
			c-0.363,0.42-0.545,1.098-0.545,2.036c0,0.995,0.179,1.704,0.537,2.127s0.824,0.634,1.396,0.634c0.422,0,0.786-0.135,1.09-0.402
			C46.368,63.435,46.587,63.013,46.719,62.437z"/>
		<path fill="#DB5940" d="M56.726,65.331h-1.729l-0.688-1.789h-3.147l-0.65,1.789h-1.687l3.067-7.874h1.681L56.726,65.331z
			 M53.798,62.216l-1.085-2.922l-1.063,2.922H53.798z"/>
		<path fill="#DB5940" d="M57.574,65.331v-7.874h3.346c0.841,0,1.453,0.07,1.834,0.212c0.381,0.142,0.687,0.394,0.916,0.755
			s0.344,0.775,0.344,1.241c0,0.59-0.174,1.078-0.521,1.463s-0.867,0.628-1.558,0.729c0.344,0.2,0.627,0.42,0.852,0.66
			c0.224,0.24,0.525,0.666,0.905,1.278l0.961,1.536h-1.901l-1.149-1.713c-0.408-0.613-0.688-0.999-0.838-1.158
			s-0.31-0.269-0.478-0.327c-0.168-0.06-0.435-0.089-0.8-0.089h-0.322v3.287C59.165,65.331,57.574,65.331,57.574,65.331z
			 M59.164,60.787h1.176c0.763,0,1.239-0.032,1.429-0.097s0.338-0.176,0.446-0.333s0.161-0.354,0.161-0.591
			c0-0.265-0.071-0.479-0.212-0.642c-0.142-0.163-0.341-0.267-0.599-0.31c-0.129-0.018-0.516-0.026-1.16-0.026h-1.241
			C59.164,58.788,59.164,60.787,59.164,60.787z"/>
		<path fill="#DB5940" d="M69.176,62.437V61.11h3.427v3.137c-0.333,0.322-0.815,0.606-1.448,0.852
			c-0.632,0.245-1.272,0.368-1.92,0.368c-0.824,0-1.542-0.173-2.154-0.519s-1.072-0.84-1.38-1.482s-0.462-1.342-0.462-2.098
			c0-0.82,0.172-1.549,0.516-2.187c0.344-0.637,0.847-1.126,1.509-1.466c0.505-0.262,1.133-0.392,1.885-0.392
			c0.978,0,1.741,0.204,2.291,0.614c0.549,0.41,0.903,0.977,1.061,1.7l-1.579,0.295c-0.111-0.387-0.319-0.691-0.626-0.915
			c-0.306-0.224-0.688-0.336-1.146-0.336c-0.695,0-1.247,0.22-1.657,0.661c-0.41,0.439-0.615,1.094-0.615,1.96
			c0,0.935,0.208,1.636,0.623,2.103c0.416,0.468,0.959,0.701,1.633,0.701c0.333,0,0.667-0.065,1.001-0.196
			c0.335-0.131,0.623-0.289,0.862-0.476v-0.998h-1.821V62.437z"/>
		<path fill="#DB5940" d="M81.169,65.331H79.44l-0.688-1.789h-3.147l-0.65,1.789h-1.687l3.067-7.874h1.681L81.169,65.331z
			 M78.242,62.216l-1.085-2.922l-1.063,2.922H78.242z"/>
		<path fill="#DB5940" d="M82.018,65.331v-7.874h3.346c0.842,0,1.453,0.07,1.835,0.212c0.381,0.142,0.687,0.394,0.915,0.755
			c0.229,0.361,0.344,0.775,0.344,1.241c0,0.59-0.174,1.078-0.521,1.463c-0.348,0.385-0.867,0.628-1.558,0.729
			c0.344,0.2,0.627,0.42,0.852,0.66c0.224,0.24,0.525,0.666,0.904,1.278l0.962,1.536h-1.901l-1.149-1.713
			c-0.408-0.613-0.688-0.999-0.838-1.158s-0.31-0.269-0.479-0.327c-0.168-0.06-0.435-0.089-0.8-0.089h-0.322v3.287
			C83.608,65.331,82.018,65.331,82.018,65.331z M83.608,60.787h1.176c0.763,0,1.239-0.032,1.429-0.097
			c0.19-0.064,0.339-0.176,0.446-0.333s0.161-0.354,0.161-0.591c0-0.265-0.071-0.479-0.212-0.642c-0.142-0.163-0.342-0.267-0.6-0.31
			c-0.129-0.018-0.516-0.026-1.16-0.026h-1.24C83.608,58.788,83.608,60.787,83.608,60.787z"/>
		<path fill="#DB5940" d="M92.69,61.442c0-0.802,0.12-1.476,0.36-2.02c0.179-0.401,0.423-0.761,0.733-1.08
			c0.31-0.318,0.648-0.555,1.018-0.709c0.49-0.207,1.056-0.311,1.697-0.311c1.16,0,2.088,0.359,2.785,1.079
			c0.696,0.72,1.044,1.721,1.044,3.003c0,1.271-0.346,2.266-1.036,2.983c-0.691,0.718-1.615,1.077-2.771,1.077
			c-1.171,0-2.103-0.357-2.793-1.072C93.036,63.68,92.69,62.695,92.69,61.442z M94.329,61.389c0,0.892,0.206,1.567,0.617,2.027
			c0.412,0.46,0.935,0.69,1.568,0.69s1.154-0.229,1.561-0.685c0.406-0.457,0.609-1.142,0.609-2.055c0-0.902-0.197-1.575-0.593-2.02
			c-0.396-0.444-0.922-0.666-1.577-0.666s-1.184,0.225-1.584,0.674C94.529,59.805,94.329,60.482,94.329,61.389z"/>
		<path fill="#DB5940" d="M101.574,57.457h3.147c0.623,0,1.088,0.026,1.394,0.078c0.307,0.052,0.58,0.16,0.822,0.325
			c0.241,0.164,0.443,0.384,0.604,0.657c0.161,0.274,0.241,0.581,0.241,0.921c0,0.369-0.1,0.708-0.298,1.016
			c-0.199,0.308-0.468,0.539-0.809,0.693c0.48,0.139,0.849,0.377,1.106,0.714s0.387,0.732,0.387,1.187
			c0,0.358-0.083,0.707-0.25,1.045c-0.166,0.339-0.394,0.609-0.682,0.812s-0.644,0.326-1.066,0.373
			c-0.265,0.028-0.904,0.047-1.917,0.054h-2.681v-7.875H101.574z M103.164,58.768v1.821h1.042c0.62,0,1.005-0.01,1.155-0.027
			c0.271-0.032,0.485-0.126,0.642-0.282c0.155-0.155,0.233-0.36,0.233-0.614c0-0.244-0.067-0.441-0.201-0.594
			c-0.135-0.152-0.334-0.244-0.599-0.277c-0.158-0.018-0.61-0.026-1.359-0.026L103.164,58.768L103.164,58.768z M103.164,61.899
			v2.105h1.472c0.573,0,0.937-0.017,1.091-0.049c0.236-0.043,0.429-0.147,0.577-0.314c0.148-0.166,0.223-0.389,0.223-0.668
			c0-0.236-0.057-0.438-0.172-0.602c-0.114-0.165-0.28-0.285-0.497-0.36c-0.216-0.075-0.687-0.112-1.409-0.112H103.164z"/>
		<path fill="#DB5940" d="M112.354,57.457h1.584v4.984c0,0.651-0.057,1.153-0.172,1.504c-0.153,0.458-0.433,0.826-0.838,1.104
			c-0.404,0.277-0.938,0.417-1.601,0.417c-0.776,0-1.375-0.218-1.794-0.653s-0.63-1.073-0.634-1.915l1.499-0.172
			c0.018,0.451,0.084,0.771,0.198,0.957c0.172,0.282,0.434,0.424,0.784,0.424c0.354,0,0.605-0.102,0.752-0.304
			c0.147-0.202,0.221-0.622,0.221-1.259L112.354,57.457L112.354,57.457z"/>
		<path fill="#DB5940" d="M115.63,65.331v-7.874h5.838v1.332h-4.248v1.745h3.953v1.327h-3.953v2.144h4.398v1.326
			C121.618,65.331,115.63,65.331,115.63,65.331z"/>
		<path fill="#DB5940" d="M124.74,65.331v-6.542h-2.337v-1.332h6.258v1.332h-2.331v6.542H124.74z"/>
		<path fill="#DB5940" d="M129.166,61.442c0-0.802,0.12-1.476,0.359-2.02c0.18-0.401,0.424-0.761,0.733-1.08
			c0.31-0.318,0.649-0.555,1.018-0.709c0.491-0.207,1.057-0.311,1.697-0.311c1.16,0,2.089,0.359,2.785,1.079
			s1.045,1.721,1.045,3.003c0,1.271-0.346,2.266-1.037,2.983c-0.69,0.718-1.614,1.077-2.771,1.077c-1.171,0-2.102-0.357-2.793-1.072
			C129.511,63.68,129.166,62.695,129.166,61.442z M130.803,61.389c0,0.892,0.206,1.567,0.618,2.027
			c0.411,0.46,0.935,0.69,1.568,0.69s1.153-0.229,1.56-0.685c0.407-0.457,0.61-1.142,0.61-2.055c0-0.902-0.198-1.575-0.594-2.02
			s-0.921-0.666-1.576-0.666s-1.184,0.225-1.585,0.674C131.004,59.805,130.803,60.482,130.803,61.389z"/>
	</g>
	<path id="XMLID_292_" fill="#FEFEFE" d="M89.046,29.529c-1.168,0-1.944,0.972-1.944,1.945v2.921H68.807v-2.921
		c0-0.973-0.977-1.945-1.954-1.945c-1.161,0-1.941,0.972-1.941,1.945v4.869c0,1.164,0.781,1.941,1.941,1.941h22.192
		c0.972,0,1.75-0.777,1.75-1.941v-4.869C90.796,30.501,90.018,29.529,89.046,29.529L89.046,29.529z M77.371,31.67
		c0.191,0.199,0.773,0.199,1.163,0l6.624-6.808c0.187-0.196,0.187-0.391,0.187-0.784c-0.187-0.194-0.38-0.388-0.577-0.388h-3.313
		V11.43c0-0.973-0.577-1.561-1.362-1.561h-4.285c-0.967,0-1.556,0.588-1.556,1.561v12.259h-3.11c-0.388,0-0.587,0.194-0.78,0.388
		c0,0.393,0,0.588,0.194,0.784L77.371,31.67z"/>
</g>
</svg>
