<?xml version="1.0" encoding="utf-8"?>
<!-- Generator: Adobe Illustrator 17.0.0, SVG Export Plug-In . SVG Version: 6.00 Build 0)  -->
<!DOCTYPE svg PUBLIC "-//W3C//DTD SVG 1.1//EN" "http://www.w3.org/Graphics/SVG/1.1/DTD/svg11.dtd" [
	<!ENTITY ns_extend "http://ns.adobe.com/Extensibility/1.0/">
	<!ENTITY ns_ai "http://ns.adobe.com/AdobeIllustrator/10.0/">
	<!ENTITY ns_graphs "http://ns.adobe.com/Graphs/1.0/">
	<!ENTITY ns_vars "http://ns.adobe.com/Variables/1.0/">
	<!ENTITY ns_imrep "http://ns.adobe.com/ImageReplacement/1.0/">
	<!ENTITY ns_sfw "http://ns.adobe.com/SaveForWeb/1.0/">
	<!ENTITY ns_custom "http://ns.adobe.com/GenericCustomNamespace/1.0/">
	<!ENTITY ns_adobe_xpath "http://ns.adobe.com/XPath/1.0/">
]>
<svg version="1.1" id="Capa_1" xmlns:x="&ns_extend;" xmlns:i="&ns_ai;" xmlns:graph="&ns_graphs;"
	 xmlns="http://www.w3.org/2000/svg" xmlns:xlink="http://www.w3.org/1999/xlink" x="0px" y="0px" width="154.914px"
	 height="74.254px" viewBox="0 0 154.914 74.254" enable-background="new 0 0 154.914 74.254" xml:space="preserve">
<metadata><?xpacket begin="﻿" id="W5M0MpCehiHzreSzNTczkc9d"?>
<x:xmpmeta xmlns:x="adobe:ns:meta/" x:xmptk="Adobe XMP Core 5.5-c014 79.151739, 2013/04/03-12:12:15        ">
   <rdf:RDF xmlns:rdf="http://www.w3.org/1999/02/22-rdf-syntax-ns#">
      <rdf:Description rdf:about=""
            xmlns:dc="http://purl.org/dc/elements/1.1/"
            xmlns:xmp="http://ns.adobe.com/xap/1.0/"
            xmlns:xmpGImg="http://ns.adobe.com/xap/1.0/g/img/"
            xmlns:xmpMM="http://ns.adobe.com/xap/1.0/mm/"
            xmlns:stRef="http://ns.adobe.com/xap/1.0/sType/ResourceRef#"
            xmlns:stEvt="http://ns.adobe.com/xap/1.0/sType/ResourceEvent#"
            xmlns:illustrator="http://ns.adobe.com/illustrator/1.0/"
            xmlns:xmpTPg="http://ns.adobe.com/xap/1.0/t/pg/"
            xmlns:stDim="http://ns.adobe.com/xap/1.0/sType/Dimensions#"
            xmlns:xmpG="http://ns.adobe.com/xap/1.0/g/"
            xmlns:pdf="http://ns.adobe.com/pdf/1.3/">
         <dc:format>image/svg+xml</dc:format>
         <dc:title>
            <rdf:Alt>
               <rdf:li xml:lang="x-default">Imprimir</rdf:li>
            </rdf:Alt>
         </dc:title>
         <xmp:MetadataDate>2017-10-09T13:04:32-05:00</xmp:MetadataDate>
         <xmp:ModifyDate>2017-10-09T13:04:32-05:00</xmp:ModifyDate>
         <xmp:CreateDate>2017-10-09T13:04:31-05:00</xmp:CreateDate>
         <xmp:CreatorTool>Adobe Illustrator CC (Windows)</xmp:CreatorTool>
         <xmp:Thumbnails>
            <rdf:Alt>
               <rdf:li rdf:parseType="Resource">
                  <xmpGImg:width>256</xmpGImg:width>
                  <xmpGImg:height>124</xmpGImg:height>
                  <xmpGImg:format>JPEG</xmpGImg:format>
                  <xmpGImg:image>/9j/4AAQSkZJRgABAgEASABIAAD/7QAsUGhvdG9zaG9wIDMuMAA4QklNA+0AAAAAABAASAAAAAEA&#xA;AQBIAAAAAQAB/+4ADkFkb2JlAGTAAAAAAf/bAIQABgQEBAUEBgUFBgkGBQYJCwgGBggLDAoKCwoK&#xA;DBAMDAwMDAwQDA4PEA8ODBMTFBQTExwbGxscHx8fHx8fHx8fHwEHBwcNDA0YEBAYGhURFRofHx8f&#xA;Hx8fHx8fHx8fHx8fHx8fHx8fHx8fHx8fHx8fHx8fHx8fHx8fHx8fHx8fHx8f/8AAEQgAfAEAAwER&#xA;AAIRAQMRAf/EAaIAAAAHAQEBAQEAAAAAAAAAAAQFAwIGAQAHCAkKCwEAAgIDAQEBAQEAAAAAAAAA&#xA;AQACAwQFBgcICQoLEAACAQMDAgQCBgcDBAIGAnMBAgMRBAAFIRIxQVEGE2EicYEUMpGhBxWxQiPB&#xA;UtHhMxZi8CRygvElQzRTkqKyY3PCNUQnk6OzNhdUZHTD0uIIJoMJChgZhJRFRqS0VtNVKBry4/PE&#xA;1OT0ZXWFlaW1xdXl9WZ2hpamtsbW5vY3R1dnd4eXp7fH1+f3OEhYaHiImKi4yNjo+Ck5SVlpeYmZ&#xA;qbnJ2en5KjpKWmp6ipqqusra6voRAAICAQIDBQUEBQYECAMDbQEAAhEDBCESMUEFURNhIgZxgZEy&#xA;obHwFMHR4SNCFVJicvEzJDRDghaSUyWiY7LCB3PSNeJEgxdUkwgJChgZJjZFGidkdFU38qOzwygp&#xA;0+PzhJSktMTU5PRldYWVpbXF1eX1RlZmdoaWprbG1ub2R1dnd4eXp7fH1+f3OEhYaHiImKi4yNjo&#xA;+DlJWWl5iZmpucnZ6fkqOkpaanqKmqq6ytrq+v/aAAwDAQACEQMRAD8ATzmH012KuxV2KuxV2Kux&#xA;V2KuxV2KuxV2KuxV2KuxV2KuxV2KuxV2KuxV2KuxV2KuxV2KuxV2KuxV2KuxV2KuxV2KuxV2KuxV&#xA;2KuxV2KuxV2KuxV2KuxV2KuxVMbDy7r2oUNlp1xcK3R0icp/wVOP45OOKUuQLj5NVih9UgPiyCy/&#xA;KbzrcqGe1jtgenrSoD9yczmRHQ5D0pwcnbWnj1J9wV5fyc84onJRbSn+VJaH/hlUYToMnkwj27pz&#xA;/OHwSm7/AC8862tfU0mZqf764zf8my+VS0uQdHJh2pp5cpj47fek91pOqWlfrdnPb06+rG6f8SAy&#xA;qUJDmHLhmhL6ZA+4oXItrsVdirsVdirsVdirsVdirsVdirsVdirsVdirsVdirsVdirsVdirsVdir&#xA;sVel+WPygF1pyajr129nFKokW3j4q6odwZHcEKadqf0zY4dDYuRp57V9ucM+DEOIjr+pl+m/lR5I&#xA;gVZDDJfAiqyTSkg+9I/TU/dmVDRYx5uqy9tak7Xw+4frtkdh5d0HT6Gy0+3t2Xo6RIH/AOCpy/HM&#xA;iOKMeQDr8mqyz+qRPxTDLGh2KuxVQu7+xs09S7uIrdP55XVB97EZGUgOZZwxymaiCfcx6/8AzN8l&#xA;WdQ2orO4/YgV5a/7JRw/HKJazGOrn4+yNRP+Gvfs8b89a3pWteYJNQ0yKSKCREVxIqqS6DjyAUtt&#xA;QDNRqckZzuL1nZ2nnhxCEzZY9lDnuxV2KuxV2KuxV2KuxV2KuxV2KuxV2KuxV2KuxV2KuxV2KuxV&#xA;2KuxVWs3hS7gecVhWRTKOtVDDl+GGPPdhkBMTXOnsv5v6drWpaNYyaWr3NlG7SXUUNWLBgvpPxX7&#xA;Sr8X35t9dCUojh5PJdh5cePJIT2l0v7Q8m0vzBr2jSn6heTWhU/FErHhX/Kjaqn6RmrhllDkaeoz&#xA;abFlHqiJfjvZvo/52avAAmq2cd4o29WI+jJ8yKMh+gDMzH2hIfULdNn9n8Z3hIx9+6dP+eOkBAU0&#xA;24Mm9VLIBXtvv+rLv5Rj3FxB7PZL+oJJqP53a3LVbCxgtVP7UhaZvop6a/hlM+0ZHkKczF7P4x9U&#xA;ifs/WxfUPP8A5xv6+vqsyqf2YSIRTw/dBMxparJLmXY4uzNPDlAfHf70jrc3M2/OeeQ+7ux/EnKd&#xA;yXN2iO4J3Y+QfON8vKDSpwpFQZQIQR7eqUy6OmyS5Bw8naWnhzmPhv8Ackc8MsE0kEyGOaJikiNs&#xA;VZTQg/I5QRRpzIyEhY5FZiydirsVdirsVdirsVdirsVdirsVdirsVdirsVdirsVdirsVdirsVdiq&#xA;pbW8lxcRW8QrLM6xoPFmNB+JwgWaYzkIgk8g961HXdK8geXdPsrhpr2UKY4ErV34ULGrbKi8gAO2&#xA;wzdzyRwQAO7xOLTT1uWUhUR1/HelA87/AJaeZgI9ZtVgnIpyuo6H5LPHUgfMjKvzGHJ9Q+f63K/k&#xA;/WaffGbHkf0FD335P+XNSiNzoGpGNGrxHJbmH5BlIYfecjLQQlvA/pZ4+3MuM1lj+gsbb8mfNwn9&#xA;NXtTHX++9RgtPEjjy/DMf8hkvo7AdvYKv1fJO9P/ACOAAfU9UoBu0dun3/vHP/GuXR7O/nFw8vtD&#xA;/Mh8/wBX7Uf/AIc/KHQd725iuZk6+tMZ3+mKHb/hMs8LTw5lp/Na/N9IIHkK+0/rWyfmv5J0pDFo&#xA;2ms21B6UUdvGfp+1/wALgOtxx+kfoSOxdTl3yS+ZJ/HzSDUfzr8wTVWxtLezQ9GblM4+k8V/4XKJ&#xA;9oTPIAOdi9n8Q+omX2fj5sCvr25vrya8uWD3Fw5klcALVmNSaKAMwZSMjZd1jxiERGPIKGBsdirs&#xA;VdirsVdirsVdirsVdirsVdirsVdirsVdirsVdirsVdirsVdiqraXMlrdQ3Mf95BIsiV8UIYfqwxN&#xA;G2E4CUSD1e6a95d07z/oGn6hDK9nMFMltI6E0D0Do6njUVXYg+42zdZcQzwBGzxmm1U9DllAjiHV&#xA;5xrH5Ueb9Pq8UC38I/btm5N/yLbi/wBwOa/JoskfN6DB21gyczwnz/WxqK41jR7tvSkuNPu12cKX&#xA;hkHsR8JzHBlA9QXYSjjyx3qUfmnw/NHzwLf0f0kadPU9KLnT/W4Zd+cy1VuF/I+mu+H7T+tItQ13&#xA;WtRJN/fT3IP7MkjMo+Sk0GUyySlzNuZi02PH9MQPgiNO8peZtRobPTLiVD0k4FU/4NuK/jkoYJy5&#xA;AsMutw4/qkAyjTvyY803FGvJLeyT9pWcyOPoQFf+GzJh2fM86Drcvb2GP0gy+z7/ANTIYvyb8t2U&#xA;Jk1fVpKU+2DHboD/ALP1P15eNBAD1H9Dgy7dzTNY4D7T+p5TqNtFa6hc20My3EMMrxxzoQVkVWIV&#xA;wRUUYb5rJiiQ9NimZQBIokckNkWx2KuxV2KuxV2KuxV2KuxV2KuxV2KuxV2KuxV2KuxV2KuxV2Ku&#xA;xV2KonTIIrjUrSCY8YZpo45G8FZgCfuyUBZAa80jGBI5gF7F+bGv6zoWnadbaQxs7efmkk8QA4iM&#xA;KEjU/s7Enbw+ebbW5ZQAEdnk+xdNjzTkcnqI6e/qwrSPzd82WJVbl49QhGxWdaPT2dOJ/wCCrmHj&#xA;12SPPd3GfsTBPlcT5Mtt/wA0vJOtxC31/T/Qr/v6MXMQ+TAcwf8AY5lDWY57TH6XVy7H1GE3ilfu&#xA;2P6vtXHy9+TRb659atfTI5eh9cam+/8Ad8/U+jD4Wn52Pmj812h9NS9/D+mqa/x5+WGh7aTZCaVf&#xA;syW1uFNR4yS8G+nfB+Zww+kfYv8AJuszf3kqHmf0BKtR/PG/eq6dpsUI7PcO0p+fFfTp95yqfaJ6&#xA;BysXs9EfXIn3bfrYvqP5ledL6ofUngQ/sW4WGn+yQB/xzGnq8kurscXZOnh/Dfv3Y9LNd3cpeaSS&#xA;4lO5ZyztT5mpygklz4xjEUKAUcDN2KuxV2KuxV2KuxV2KuxV2KuxV2KuxV2KuxV2KuxV2KuxV2Ku&#xA;xV2KuxV2KvWNA/NXRL3TE03zXb+owAV7hoxNFIB0Z03YN8gfozaYtbExrIHmNT2NkhPjwH4XRCNk&#xA;/L38vPMUZl0K8EEpFaW0gkAJ/niclh8vhyZ0uLJ9JaR2pq8BrLGx5ivtH7WL6x+Tfmez5PYPFqMQ&#xA;6BD6Un0o54/cxzFyaCY5buywdu4Z/VcD8x+Pgxc+VPM4n9D9E3fq1px9CQ/jSmY3gzuqLsfzuGr4&#xA;417wnmnflN5zvKGS2js0PRriRR/wqc2/DL4aLIelOHl7a08OR4vcGT6f+R8Krz1PVDQbslugUAD/&#xA;AIscn/iOZMezv5xddl9oTyhD5/q/ajf0J+T2hb3VxDczJ19SVrhvpjiqv/C5Pw9PDmb+1p/Ma/N9&#xA;IIHur7T+tZN+bfk/TEMWi6WzgdBHHHbRH7qt/wALgOuxx+kfoTHsTUZDeSf2mR/HxeTajdRXeoXN&#xA;1FCLeOeV5UgB5BA7FuINBsK06Zq5myS9RigYwESboc0NkWx2KuxV2KuxV2KuxV2KuxV2KuxV2Kux&#xA;V2KuxV2KuxV2KuxV2KuxV2KuxV2Kro5JInWSNikimqupIIPiCMQaQQCKLKdH/M7zhphVfrn1yEf7&#xA;qux6v/D1En/DZk49Zkj1v3utz9kafJ/Dwny2/Yyb/led36HH9ER/WKbyeueFf9ThX/hsyf5RNfS6&#xA;7/Q7G/r2937f0JFqP5uecruoiniskP7NvGK0/wBaT1G+7KJ67IfJzcXYmnjzBl7z+qmMX+tavqJr&#xA;f3s913pLIzgfIE0GY0skpczbscenx4/piB7ggsi3OxV2KuxV2KuxV2KuxV2KuxV2KuxV2KuxVV+q&#xA;XX++ZP8AgT/TDwlhxx73fVLr/fMn/An+mPCV4497vql1/vmT/gT/AEx4SvHHvd9Uuv8AfMn/AAJ/&#xA;pjwleOPe76pdf75k/wCBP9MeErxx73fVLr/fMn/An+mPCV4497vql1/vmT/gT/THhK8ce931S6/3&#xA;zJ/wJ/pjwleOPe76pdf75k/4E/0x4SvHHvd9Uuv98yf8Cf6Y8JXjj3u+qXX++ZP+BP8ATHhK8ce9&#xA;31S6/wB8yf8AAn+mPCV4497vql1/vmT/AIE/0x4SvHHvd9Uuv98yf8Cf6Y8JXjj3u+qXX++ZP+BP&#xA;9MeErxx73fVLr/fMn/An+mPCV4497vql1/vmT/gT/THhK8ce931S6/3zJ/wJ/pjwleOPe76pdf75&#xA;k/4E/wBMeErxx73fVLr/AHzJ/wACf6Y8JXjj3u+qXX++ZP8AgT/THhK8ce931S6/3zJ/wJ/pjwle&#xA;OPe76pdf75k/4E/0x4SvHHvd9Uuv98yf8Cf6Y8JXjj3u+qXX++ZP+BP9MeErxx73fVLr/fMn/An+&#xA;mPCV4497vql1/vmT/gT/AEx4SvHHvd9Uuv8AfMn/AAJ/pjwleOPe76pdf75k/wCBP9MeErxx73fV&#xA;Lr/fMn/An+mPCV4497vql1/vmT/gT/THhK8ce931S6/3zJ/wJ/pjwleOPe+qM6Z81dirsVdirsVd&#xA;irsVdirsVdirsVdirsVdirsVdirsVdirsVdirsVdirsVdirsVdirsVdirsVdirsVdirsVdirsVdi&#xA;rsVdirsVWyyxwxPLKwSKNS7u2wCqKkn5DATSYxJNDmlCedPKTsFXWLSp6VmQfiTlX5jH/ODlHQZx&#xA;/BL5I671bTLNrdbq6ihN03G2DsB6jGmyeP2hk5TiKs82mGCc74QTw8/JCXXmzyzaXEltc6pbQzxH&#xA;jJE8ihlPgQTkZZ4A0SG2GizSFiEiD5IyPVtKksmv47yBrFRVroSIYhTrV68RkxONXezUcExLhMTx&#xA;d1bq1vcW9zCk9vKk0EgrHLGwdGHiGFQcIIIsMJQMTRFFRt9V024u5rOC5jlurb+/gVgXT/WHbAJg&#xA;mgd2UsM4xEiCInkUHP5u8rwXZtJtVtY7hTxaNpVHFhsQxrQH55A54A1Ybo6LNKPEISr3Jo00SxGZ&#xA;nVYgvIyEgKFpWtelMstxhE3XVK7Xzb5Zu7oWttqltLcMaLGsqksfBd/i+jK454E0CHJnos0Y8RhI&#xA;D3Kuo+YtC02dYNQv4LWZlDrHK4VipJAND2qpwzyxiaJphi0uXILhEkeSrp2taRqYc6few3fp09QQ&#xA;yK5WvTkAaitMMMkZcjaMunyY/riY+8N3esaVZ3MFtd3cUFxcnjbxSOFZyTQBQeu5pjLJEGieaIYJ&#xA;zBlEEgc12oanp+nQC4v7iO2gLBBJKwVeR3AqflhlMRFk0jFhnkNRFlBWvmzyzd3EdtbapbTTynjH&#xA;EkilmPgADkI54E0CG6eizRFmEgB5KHlPXrvW7a6u5Y4YoUneGCOKQSuAm/70qSoahGwyODKZglnr&#xA;dNHCREWTVmxXyTKz1jS7y4ntrS7inuLY8biKNgzIQStGA6bjLI5Ik0DyceeCcADIEA8kXk2p2Kux&#xA;V2KuxV2KuxV2KuxV2KuxV2KuxV2KuxVL/MX/ACj+p/8AMJP/AMm2yvL9B9zfpf72P9Yfe8XsoppP&#xA;IxWPymLk+nKf08CCwAkYl+ITl+7+z9rtmoiD4X0f5z12QganfNW49Hw9/X3Jxqr2z6N5B+rXBuYk&#xA;uQnqkFTyWSMMtD04nbLZ1w4633cTCCMmosUeH9BWvy/xx5j4+XF8wn1V+BmVfR677o/2v4Yn+9l6&#xA;eJI/xbF+88Lb5/as0L0ovJvnOBgbW75c5NKIYC3XkQvEt1/l+gYMe2OY5Hu7mWos6jAfqj/O73ov&#xA;5f8A/KGaT/xgH6zmw0v92HQdp/4xP3sAur66sda8+3Nq5jnSJQjjqvORUJHvRswJSMZZCHeQxxnj&#xA;04lyv9DIvK3kTypdeS7Vri1jlmvLcTTXrD96rutTxc7rw6bbbZkYdNjOMWOY5uBrO0c8dQaJAiar&#xA;p+CweLVtQu/IGl6XNM0dnLqhtJJa/wC6FVHCn/JDSk/7HMITJxCJ5cVO5lhhHVTmB6hjv47/AKvt&#xA;ZF540vyTpSw2UmiXkUdsscn6SsFVdiSoV5XqCSf5t8yNTDHHbhO3UOB2dm1OW5DJE3fpl+gIfzZd&#xA;Qzed9Euv0W+sxS6THItgwDyOGMxBagapWtTtkc5ByRNcXp5fNnooEaacePwyMh9XyVvy+ih1Xzpc&#xA;a1ptjHpOn2sBgms0dSzSNtug4lR3+zTbxrktKOLIZAcIDHtORxacY5y45SN35e/8c0i8431tr2va&#xA;3qBv0t20hY4dLiLhWlaOT4ynj0dhTxGUZ5CcpG/p5OboMZw4scOG+PeXlY/s+1kPn3Wk1r8sdP1I&#xA;Ec5p4vWA7SqrrIP+CBzI1OTjwguB2bp/B1kodwPy2pNvK8CS6xF63kmPRxGGdL/kjFWUbAARp1+e&#xA;W4Rcv7vh83F1kqxms5yeX4KU+RtaTRfy/wBe1Ikc4b6f0Qe8rRxLGP8AgiMq02TgxSPn+pyu0dP4&#xA;2qxw74j5WbY95PvrXy/r2iX4v0uP0tG8Wqxq4YxNJJ8PPuOqE18GzHwSEJRN/Vzc/XY5Z8WSPDXA&#xA;bj50P7fse5ZunjHYq7FXYq7FXYq7FXYq7FXYq7FXYq7FXYq7FUPqNp9c0+6s+fp/WYpIedK8fUUr&#xA;WlRWlcjONghsxT4JiXcbYPB+WvmKDShpMPmqSPTgrp9XS1VRxkJLjkJeW/I98whpJiPDx7e53Eu1&#xA;sUp+IcQ4+/i7vgjrj8trU2WhWdreNDFokxnq8YkaZmdXapDJxqV98sOkFRAP0tMe1ZcWSUo2cgrn&#xA;y6LLjyBrI1rUdU0zzA2nnUnDSxpbK5AHQcjIOnsBgOmlxGUZVfkyj2lj8OMJ4+Lg/pfsbsvy2jg0&#xA;rV7ebUpLrUdZXjcahInQA8tk5ePX4sY6SoyBNmXVGTtYynAiNQx8o/t/Yp2PkXzbYWkVnaebXito&#xA;V4xRiyjIA8N5CcEdNkiKE9vcyydo4JyMpYbJ/pH9SY2nka2j1jW766n+s2+toY5bQx8OCnr8fI1+&#xA;4ZZHTDikTvxOPPtEnHCMRRx9UlX8tNet7WTS7HzLNDoshI+qtEGcIxqyhgw696UB8Mp/KSA4RL0u&#xA;Z/K2KUhOWIHJ32nc/wCX2gy+Vk8ugOtvEfUjuNjKJt/3hNKEmtD7bZcdLEw4HDj2nlGfxep6dK7k&#xA;luPy38xX8CWOqeZ5rnS0pWBYuLOFPwhmLmtOvxcspOknIVKfpcuPauKB4oYgJ+/9n6k9XybFH5m0&#xA;3WororFptkLGO1KciyqHAYych2f+XL/y/rEr5CnDOvJwyxkbzlxX8unw70Lc+Q5U8yXGu6PqP6Nl&#xA;u4njuYPR9RGdwQX2kjpvRv8AWFcidN6zKJq2yHaQOEYskeMROxuvhyPu9zegflr5c03TUtby2h1K&#xA;5DM0l3NEAzcjsKEvQAbdccWkhEURZXU9rZsk+KJMB3ApY35VP+gLnRE1Yizlu1u7esHIxUVlKf3v&#xA;xVBXfbp75X+S9Bje13ycgdsjxRk4PUI8J35/Yz/M50bAf+VWOdGXSH1Ym0a/a/uAIKGTkioI6+rt&#xA;QKd/fptmD+S9PDe13yd5/LP7zxOD1cHCN+XnyTLX/wAtfLmpaa9rZ20Om3JZWju4YgWXidxQFKgj&#xA;brlmXSQkKAouPpu1s2OfFImY7iWTWMM8FnBDcTfWJ4o1SSfjw5sooW41alevXMmIIFF12SQMiQKB&#xA;6K2Fg7FXYq7FXYq7FXYq7FXYq7FXYq7FXYq7FXYq7FXYq7FXYq7FXYq7FXYq7FXYq7FXYq7FXYq7&#xA;FXYq7FXYq7FXYq7FXYq7FXYq7FXYq7FXYq7FXYq7FXYq7FXYq7FXYq7FXYq7FXYq7FXYq7FXYq7F&#xA;XYq7FXYq7FXYq7FXYq7FXYq7FXYq/wD/2Q==</xmpGImg:image>
               </rdf:li>
            </rdf:Alt>
         </xmp:Thumbnails>
         <xmpMM:InstanceID>xmp.iid:0ee27d48-dd40-0b40-8b8d-b52aa78e59d7</xmpMM:InstanceID>
         <xmpMM:DocumentID>xmp.did:0ee27d48-dd40-0b40-8b8d-b52aa78e59d7</xmpMM:DocumentID>
         <xmpMM:OriginalDocumentID>uuid:5D20892493BFDB11914A8590D31508C8</xmpMM:OriginalDocumentID>
         <xmpMM:RenditionClass>proof:pdf</xmpMM:RenditionClass>
         <xmpMM:DerivedFrom rdf:parseType="Resource">
            <stRef:instanceID>xmp.iid:9abfa668-2609-c146-aeb5-945099e7e6e3</stRef:instanceID>
            <stRef:documentID>xmp.did:9abfa668-2609-c146-aeb5-945099e7e6e3</stRef:documentID>
            <stRef:originalDocumentID>uuid:5D20892493BFDB11914A8590D31508C8</stRef:originalDocumentID>
            <stRef:renditionClass>proof:pdf</stRef:renditionClass>
         </xmpMM:DerivedFrom>
         <xmpMM:History>
            <rdf:Seq>
               <rdf:li rdf:parseType="Resource">
                  <stEvt:action>saved</stEvt:action>
                  <stEvt:instanceID>xmp.iid:9abfa668-2609-c146-aeb5-945099e7e6e3</stEvt:instanceID>
                  <stEvt:when>2017-04-11T01:59:07-05:00</stEvt:when>
                  <stEvt:softwareAgent>Adobe Illustrator CC (Windows)</stEvt:softwareAgent>
                  <stEvt:changed>/</stEvt:changed>
               </rdf:li>
               <rdf:li rdf:parseType="Resource">
                  <stEvt:action>saved</stEvt:action>
                  <stEvt:instanceID>xmp.iid:0ee27d48-dd40-0b40-8b8d-b52aa78e59d7</stEvt:instanceID>
                  <stEvt:when>2017-10-09T13:04:32-05:00</stEvt:when>
                  <stEvt:softwareAgent>Adobe Illustrator CC (Windows)</stEvt:softwareAgent>
                  <stEvt:changed>/</stEvt:changed>
               </rdf:li>
            </rdf:Seq>
         </xmpMM:History>
         <illustrator:StartupProfile>Print</illustrator:StartupProfile>
         <xmpTPg:HasVisibleOverprint>False</xmpTPg:HasVisibleOverprint>
         <xmpTPg:HasVisibleTransparency>True</xmpTPg:HasVisibleTransparency>
         <xmpTPg:NPages>1</xmpTPg:NPages>
         <xmpTPg:MaxPageSize rdf:parseType="Resource">
            <stDim:w>154.914001</stDim:w>
            <stDim:h>74.254028</stDim:h>
            <stDim:unit>Pixels</stDim:unit>
         </xmpTPg:MaxPageSize>
         <xmpTPg:PlateNames>
            <rdf:Seq>
               <rdf:li>Cyan</rdf:li>
               <rdf:li>Magenta</rdf:li>
               <rdf:li>Yellow</rdf:li>
            </rdf:Seq>
         </xmpTPg:PlateNames>
         <xmpTPg:SwatchGroups>
            <rdf:Seq>
               <rdf:li rdf:parseType="Resource">
                  <xmpG:groupName>Grupo de muestras por defecto</xmpG:groupName>
                  <xmpG:groupType>0</xmpG:groupType>
               </rdf:li>
            </rdf:Seq>
         </xmpTPg:SwatchGroups>
         <pdf:Producer>Adobe PDF library 10.01</pdf:Producer>
      </rdf:Description>
   </rdf:RDF>
</x:xmpmeta>
                                                                                                    
                                                                                                    
                                                                                                    
                                                                                                    
                                                                                                    
                                                                                                    
                                                                                                    
                                                                                                    
                                                                                                    
                                                                                                    
                                                                                                    
                                                                                                    
                                                                                                    
                                                                                                    
                                                                                                    
                                                                                                    
                                                                                                    
                                                                                                    
                                                                                                    
                                                                                                    
                           
<?xpacket end="w"?>
	</metadata>
<g>
	<rect id="XMLID_283_" x="0" y="0" opacity="0.5" fill="#FFFFFF" enable-background="new    " width="154.914" height="74.254"/>
	<rect id="XMLID_273_" x="0" y="0" fill="#DB5940" width="154.914" height="48.154"/>
	<rect id="XMLID_303_" x="0" y="57.455" fill="none" width="154.494" height="13.102"/>
	<g>
		<path fill="#DB5940" d="M38.333,57.457h3.147c0.623,0,1.088,0.026,1.394,0.078c0.307,0.052,0.58,0.16,0.822,0.325
			c0.241,0.164,0.443,0.384,0.604,0.657c0.161,0.274,0.242,0.581,0.242,0.921c0,0.369-0.1,0.708-0.298,1.016
			c-0.199,0.308-0.468,0.539-0.809,0.693c0.48,0.139,0.849,0.377,1.106,0.714s0.387,0.732,0.387,1.187
			c0,0.358-0.083,0.707-0.25,1.045c-0.166,0.339-0.394,0.609-0.682,0.812c-0.289,0.202-0.644,0.326-1.066,0.373
			c-0.265,0.028-0.904,0.047-1.917,0.054h-2.68V57.457z M39.923,58.768v1.821h1.042c0.62,0,1.004-0.01,1.155-0.027
			c0.272-0.032,0.486-0.126,0.642-0.282c0.155-0.155,0.233-0.36,0.233-0.614c0-0.244-0.067-0.441-0.201-0.594
			c-0.135-0.152-0.334-0.244-0.599-0.277c-0.158-0.018-0.61-0.026-1.359-0.026L39.923,58.768L39.923,58.768z M39.923,61.899v2.105
			h1.472c0.573,0,0.937-0.017,1.09-0.049c0.236-0.043,0.429-0.147,0.578-0.314c0.148-0.166,0.223-0.389,0.223-0.668
			c0-0.236-0.057-0.438-0.172-0.602c-0.115-0.165-0.28-0.285-0.497-0.36c-0.216-0.075-0.687-0.112-1.41-0.112H39.923z"/>
		<path fill="#DB5940" d="M46.223,65.331v-7.874h1.59v7.874H46.223z"/>
		<path fill="#DB5940" d="M49.333,57.457h3.147c0.623,0,1.088,0.026,1.394,0.078c0.307,0.052,0.58,0.16,0.822,0.325
			c0.241,0.164,0.443,0.384,0.604,0.657c0.161,0.274,0.242,0.581,0.242,0.921c0,0.369-0.1,0.708-0.298,1.016
			c-0.199,0.308-0.468,0.539-0.809,0.693c0.48,0.139,0.849,0.377,1.106,0.714s0.387,0.732,0.387,1.187
			c0,0.358-0.083,0.707-0.25,1.045c-0.166,0.339-0.394,0.609-0.682,0.812c-0.289,0.202-0.644,0.326-1.066,0.373
			c-0.265,0.028-0.904,0.047-1.917,0.054h-2.68V57.457z M50.923,58.768v1.821h1.042c0.62,0,1.004-0.01,1.155-0.027
			c0.272-0.032,0.486-0.126,0.642-0.282c0.155-0.155,0.233-0.36,0.233-0.614c0-0.244-0.067-0.441-0.201-0.594
			c-0.135-0.152-0.334-0.244-0.599-0.277c-0.158-0.018-0.61-0.026-1.359-0.026L50.923,58.768L50.923,58.768z M50.923,61.899v2.105
			h1.472c0.573,0,0.937-0.017,1.09-0.049c0.236-0.043,0.429-0.147,0.578-0.314c0.148-0.166,0.223-0.389,0.223-0.668
			c0-0.236-0.057-0.438-0.172-0.602c-0.115-0.165-0.28-0.285-0.497-0.36c-0.216-0.075-0.687-0.112-1.41-0.112H50.923z"/>
		<path fill="#DB5940" d="M57.314,65.331v-7.81h1.59v6.483h3.953v1.326h-5.543V65.331z"/>
		<path fill="#DB5940" d="M63.942,65.331v-7.874h1.59v7.874H63.942z"/>
		<path fill="#DB5940" d="M66.725,61.442c0-0.802,0.12-1.476,0.36-2.02c0.179-0.401,0.423-0.761,0.733-1.08
			c0.31-0.318,0.649-0.555,1.018-0.709c0.491-0.207,1.056-0.311,1.697-0.311c1.16,0,2.088,0.359,2.785,1.079
			c0.696,0.72,1.044,1.721,1.044,3.003c0,1.271-0.346,2.266-1.037,2.983c-0.691,0.717-1.615,1.077-2.771,1.077
			c-1.171,0-2.102-0.357-2.793-1.072C67.07,63.68,66.725,62.695,66.725,61.442z M68.363,61.389c0,0.892,0.206,1.567,0.618,2.027
			s0.935,0.69,1.568,0.69s1.154-0.229,1.56-0.685c0.407-0.457,0.61-1.142,0.61-2.055c0-0.902-0.198-1.575-0.593-2.02
			c-0.396-0.444-0.921-0.666-1.577-0.666s-1.184,0.225-1.584,0.674S68.363,60.482,68.363,61.389z"/>
		<path fill="#DB5940" d="M79.266,62.437V61.11h3.428v3.137c-0.334,0.322-0.816,0.606-1.448,0.852s-1.272,0.368-1.92,0.368
			c-0.823,0-1.542-0.173-2.154-0.519s-1.072-0.84-1.38-1.482s-0.462-1.342-0.462-2.098c0-0.82,0.172-1.549,0.516-2.187
			c0.344-0.637,0.847-1.126,1.509-1.466c0.505-0.262,1.133-0.392,1.885-0.392c0.978,0,1.741,0.204,2.291,0.614
			s0.903,0.977,1.061,1.7l-1.579,0.295c-0.111-0.387-0.319-0.691-0.626-0.915c-0.306-0.224-0.688-0.336-1.146-0.336
			c-0.694,0-1.247,0.22-1.657,0.661c-0.41,0.439-0.615,1.094-0.615,1.96c0,0.935,0.208,1.636,0.623,2.103
			c0.416,0.468,0.959,0.701,1.632,0.701c0.334,0,0.668-0.065,1.002-0.196c0.335-0.131,0.623-0.289,0.862-0.476v-0.998h-1.822V62.437
			z"/>
		<path fill="#DB5940" d="M84.164,65.331v-7.874h3.347c0.841,0,1.452,0.07,1.835,0.212c0.381,0.142,0.686,0.394,0.915,0.755
			s0.344,0.775,0.344,1.241c0,0.59-0.174,1.078-0.521,1.463c-0.348,0.385-0.867,0.628-1.559,0.729c0.344,0.2,0.628,0.42,0.852,0.66
			c0.225,0.24,0.525,0.666,0.905,1.278l0.962,1.536h-1.902l-1.148-1.713c-0.408-0.613-0.688-0.999-0.838-1.158
			s-0.311-0.269-0.479-0.327c-0.168-0.06-0.436-0.089-0.801-0.089h-0.322v3.287C85.754,65.331,84.164,65.331,84.164,65.331z
			 M85.754,60.787h1.177c0.763,0,1.239-0.032,1.429-0.097s0.338-0.176,0.445-0.333s0.162-0.354,0.162-0.591
			c0-0.265-0.071-0.479-0.213-0.642c-0.141-0.163-0.341-0.267-0.599-0.31c-0.129-0.018-0.516-0.026-1.16-0.026h-1.241
			C85.754,58.788,85.754,60.787,85.754,60.787z"/>
		<path fill="#DB5940" d="M99.203,65.331h-1.729l-0.688-1.789h-3.148l-0.649,1.789h-1.687l3.066-7.874h1.682L99.203,65.331z
			 M96.276,62.216l-1.085-2.922l-1.063,2.922H96.276z"/>
		<path fill="#DB5940" d="M100.058,65.331v-7.874h5.397v1.332h-3.808v1.864h3.287v1.332h-3.287v3.346H100.058z"/>
		<path fill="#DB5940" d="M106.535,57.006l0.741-1.606h1.692l-1.478,1.606H106.535z M106.718,65.331v-7.874h1.59v7.874H106.718z"/>
		<path fill="#DB5940" d="M116.923,65.331h-1.729l-0.688-1.789h-3.147l-0.649,1.789h-1.688l3.067-7.874h1.681L116.923,65.331z
			 M113.996,62.216l-1.086-2.922l-1.063,2.922H113.996z"/>
	</g>
	<g id="XMLID_74_">
		<path id="XMLID_407_" fill="#FFFFFF" d="M63.582,14.26l7.044,2.37c0.578,0.253,3.331,1.259,8.215,0.049
			c6.168-1.528,19.52-4.179,19.656-4.208l-0.501-2.51c-0.005,0-0.039,0.01-0.087,0.02L85.184,8.184
			c-1.401-0.194-3.657-0.141-5.049,0.132L63.12,11.613c-2.213-0.112-4.315,1.245-5.019,3.454c-0.408,1.269-0.296,2.626,0.316,3.808
			c0.316,0.609,0.74,1.129,1.25,1.557c-0.768,0.599-1.367,1.421-1.688,2.413c-0.403,1.269-0.291,2.626,0.321,3.813
			c0.331,0.643,0.793,1.183,1.342,1.615c-0.753,0.594-1.347,1.416-1.664,2.393c-0.403,1.275-0.291,2.626,0.321,3.814
			c0.613,1.187,1.649,2.062,2.919,2.471l12.268,3.92c0.671,0.214,1.774,0.263,2.466,0.102l21.533-4.932c0,0-0.132-0.554-0.286-1.245
			c-0.157-0.685-0.847-1.118-1.533-0.963l-19.602,4.49c-0.691,0.159-1.796,0.111-2.467-0.103l-11.6-3.706
			c-0.618-0.199-1.123-0.628-1.426-1.207c-0.296-0.579-0.355-1.24-0.156-1.858c0.413-1.284,1.786-1.985,3.069-1.581
			c0.005-0.014,7.096,2.253,10.002,3.177c0.671,0.214,1.774,0.263,2.466,0.107l21.533-4.932c0,0-0.132-0.559-0.286-1.25
			c-0.157-0.685-0.842-1.118-1.533-0.958l-19.602,4.489c-0.691,0.156-1.796,0.107-2.467-0.107l-11.6-3.706
			c-0.618-0.199-1.123-0.628-1.426-1.207c-0.296-0.579-0.355-1.24-0.156-1.858c0.413-1.284,1.786-1.985,3.069-1.581
			c0-0.005,7.19,2.291,10.117,3.225c0.676,0.219,1.781,0.263,2.467,0.107l21.533-4.932c0,0-0.127-0.559-0.288-1.25
			c-0.156-0.686-0.842-1.118-1.532-0.958l-19.602,4.484c-0.691,0.161-1.791,0.112-2.467-0.102L62.119,18.91
			c-0.623-0.199-1.129-0.628-1.426-1.207c-0.301-0.579-0.355-1.24-0.156-1.858C60.946,14.566,62.318,13.851,63.582,14.26
			L63.582,14.26z"/>
	</g>
</g>
</svg>
