<?xml version="1.0" encoding="utf-8"?>
<!-- Generator: Adobe Illustrator 17.0.0, SVG Export Plug-In . SVG Version: 6.00 Build 0)  -->
<!DOCTYPE svg PUBLIC "-//W3C//DTD SVG 1.1//EN" "http://www.w3.org/Graphics/SVG/1.1/DTD/svg11.dtd" [
	<!ENTITY ns_extend "http://ns.adobe.com/Extensibility/1.0/">
	<!ENTITY ns_ai "http://ns.adobe.com/AdobeIllustrator/10.0/">
	<!ENTITY ns_graphs "http://ns.adobe.com/Graphs/1.0/">
	<!ENTITY ns_vars "http://ns.adobe.com/Variables/1.0/">
	<!ENTITY ns_imrep "http://ns.adobe.com/ImageReplacement/1.0/">
	<!ENTITY ns_sfw "http://ns.adobe.com/SaveForWeb/1.0/">
	<!ENTITY ns_custom "http://ns.adobe.com/GenericCustomNamespace/1.0/">
	<!ENTITY ns_adobe_xpath "http://ns.adobe.com/XPath/1.0/">
]>
<svg version="1.1" id="Capa_1" xmlns:x="&ns_extend;" xmlns:i="&ns_ai;" xmlns:graph="&ns_graphs;"
	 xmlns="http://www.w3.org/2000/svg" xmlns:xlink="http://www.w3.org/1999/xlink" x="0px" y="0px" width="155.706px"
	 height="74.254px" viewBox="0 0 155.706 74.254" enable-background="new 0 0 155.706 74.254" xml:space="preserve">
<metadata><?xpacket begin="﻿" id="W5M0MpCehiHzreSzNTczkc9d"?>
<x:xmpmeta xmlns:x="adobe:ns:meta/" x:xmptk="Adobe XMP Core 5.5-c014 79.151739, 2013/04/03-12:12:15        ">
   <rdf:RDF xmlns:rdf="http://www.w3.org/1999/02/22-rdf-syntax-ns#">
      <rdf:Description rdf:about=""
            xmlns:dc="http://purl.org/dc/elements/1.1/"
            xmlns:xmp="http://ns.adobe.com/xap/1.0/"
            xmlns:xmpGImg="http://ns.adobe.com/xap/1.0/g/img/"
            xmlns:xmpMM="http://ns.adobe.com/xap/1.0/mm/"
            xmlns:stRef="http://ns.adobe.com/xap/1.0/sType/ResourceRef#"
            xmlns:stEvt="http://ns.adobe.com/xap/1.0/sType/ResourceEvent#"
            xmlns:illustrator="http://ns.adobe.com/illustrator/1.0/"
            xmlns:xmpTPg="http://ns.adobe.com/xap/1.0/t/pg/"
            xmlns:stDim="http://ns.adobe.com/xap/1.0/sType/Dimensions#"
            xmlns:xmpG="http://ns.adobe.com/xap/1.0/g/"
            xmlns:pdf="http://ns.adobe.com/pdf/1.3/">
         <dc:format>image/svg+xml</dc:format>
         <dc:title>
            <rdf:Alt>
               <rdf:li xml:lang="x-default">Imprimir</rdf:li>
            </rdf:Alt>
         </dc:title>
         <xmp:MetadataDate>2017-10-09T13:04:54-05:00</xmp:MetadataDate>
         <xmp:ModifyDate>2017-10-09T13:04:54-05:00</xmp:ModifyDate>
         <xmp:CreateDate>2017-10-09T13:04:54-05:00</xmp:CreateDate>
         <xmp:CreatorTool>Adobe Illustrator CC (Windows)</xmp:CreatorTool>
         <xmp:Thumbnails>
            <rdf:Alt>
               <rdf:li rdf:parseType="Resource">
                  <xmpGImg:width>256</xmpGImg:width>
                  <xmpGImg:height>124</xmpGImg:height>
                  <xmpGImg:format>JPEG</xmpGImg:format>
                  <xmpGImg:image>/9j/4AAQSkZJRgABAgEASABIAAD/7QAsUGhvdG9zaG9wIDMuMAA4QklNA+0AAAAAABAASAAAAAEA&#xA;AQBIAAAAAQAB/+4ADkFkb2JlAGTAAAAAAf/bAIQABgQEBAUEBgUFBgkGBQYJCwgGBggLDAoKCwoK&#xA;DBAMDAwMDAwQDA4PEA8ODBMTFBQTExwbGxscHx8fHx8fHx8fHwEHBwcNDA0YEBAYGhURFRofHx8f&#xA;Hx8fHx8fHx8fHx8fHx8fHx8fHx8fHx8fHx8fHx8fHx8fHx8fHx8fHx8fHx8f/8AAEQgAfAEAAwER&#xA;AAIRAQMRAf/EAaIAAAAHAQEBAQEAAAAAAAAAAAQFAwIGAQAHCAkKCwEAAgIDAQEBAQEAAAAAAAAA&#xA;AQACAwQFBgcICQoLEAACAQMDAgQCBgcDBAIGAnMBAgMRBAAFIRIxQVEGE2EicYEUMpGhBxWxQiPB&#xA;UtHhMxZi8CRygvElQzRTkqKyY3PCNUQnk6OzNhdUZHTD0uIIJoMJChgZhJRFRqS0VtNVKBry4/PE&#xA;1OT0ZXWFlaW1xdXl9WZ2hpamtsbW5vY3R1dnd4eXp7fH1+f3OEhYaHiImKi4yNjo+Ck5SVlpeYmZ&#xA;qbnJ2en5KjpKWmp6ipqqusra6voRAAICAQIDBQUEBQYECAMDbQEAAhEDBCESMUEFURNhIgZxgZEy&#xA;obHwFMHR4SNCFVJicvEzJDRDghaSUyWiY7LCB3PSNeJEgxdUkwgJChgZJjZFGidkdFU38qOzwygp&#xA;0+PzhJSktMTU5PRldYWVpbXF1eX1RlZmdoaWprbG1ub2R1dnd4eXp7fH1+f3OEhYaHiImKi4yNjo&#xA;+DlJWWl5iZmpucnZ6fkqOkpaanqKmqq6ytrq+v/aAAwDAQACEQMRAD8AX1f/AI6t7/xnl/4mc5qf&#xA;1F9IwfRH3BCZFtdirsVdirsVdirsVdirsVdirsVdirsVdirsVdirsVdirsVdirsVdirsVdirsVdi&#xA;rsVdirsVdiqL0j/jq2X/ABni/wCJjJQ+oNWf6Je4u1f/AI6t7/xnl/4mcZ/UVwfRH3BCZFtdirsV&#xA;dirsVdirsVdirsVdirsVdirsVZ95H/LHUdUax1a+MSaQ7+o0LMxklRT04gUAYim7dMztNozKpH6X&#xA;R9o9rwx8WON8f2BmXm/8tF1jT0FhDZWOowTN6TxIYY2tySFR+AY8gKGtMy8+k4xtQP6HU6Htbwp+&#xA;oylAj3m/J43rGk3ukalPp16oS5t2CuFNRuAykHwKkHNRkgYGjzeswZo5YCceRQeRbnYq7FXYq7FX&#xA;Yq7FXYq7FXYq7FXYq7FXYqi9I/46tl/xni/4mMlD6g1Z/ol7i7V/+Ore/wDGeX/iZxn9RXB9EfcE&#xA;JkW12KuxV2KuxV2KuxV2KuxV2KuxVkP5f2tvdecdLguY1lhaUlo3FVPFGYVB67jL9LEHIAXA7TmY&#xA;6eZBo0+jAAAABQDYAZ0DwLHIvLeuWKm30jWVtdPUkwWs1qs5iDHkUWT1IzxBOwPTxzHGKUdoyoe5&#xA;2B1eOe+SFy6kSq/hRX/onzn/ANTBB/3Dx/1Ww8GT+d9n7WPjaf8A1M/6f/jqP0bR/wBHJO8k7XV7&#xA;dyetd3TgKXcKEACrsqqqgKMnjx8PmS0Z8/iVQ4YxFAMQ/Om0tn8swXLRqbiK5RI5afEFZW5LXwNO&#xA;mYnaERwX5u27AmRmMb2MXiWad7B2KuxV2KuxV2KuxV2KuxV2KuxV2KuxVF6R/wAdWy/4zxf8TGSh&#xA;9Qas/wBEvcXav/x1b3/jPL/xM4z+org+iPuCEyLa7FXYq7FXYq7FXYq7FXYq7FXYqyb8tf8AlONK&#xA;/wCMj/8AJp8yNJ/eh13a3+LT/HUMw8/2Wo6n59j0621JdPBskkDSytFGSrNUDj+0cy9TEyy0DWzq&#xA;uzckMelM5R4vV0F9yA/5V75g/wCpotP+kqTIflZ/zx827+U8X+pS/wBKHf8AKvfMH/U0Wn/SVJj+&#xA;Vn/PHzX+U8X+pS/0oQOteUtc0rTJr9/MdvOsIB9GK5kLtUgUUHqd8hkwSjG+IfNv0+txZZiPhEX/&#xA;AEQyr8x2Zvyy0pmJZmNoWY7kkwnc5k6v+5Hw+51nZQ/wyf8Anfe8czUvWOxV2KuxV2KuxV2KuxV2&#xA;KuxV2KuxV2KovSP+OrZf8Z4v+JjJQ+oNWf6Je4u1f/jq3v8Axnl/4mcZ/UVwfRH3BCZFtdirsVdi&#xA;rsVdirsVdirsVdirsVZN+Wv/ACnGlf8AGR/+TT5kaT+9Dru1v8Wn+OoZT+YujR6x+YEdnJewWANi&#xA;jie4PFKqz/CPc5larHx5autnW9l5zi0pkImXq5D4JZ/yq+0/6mbTf+Rg/wCasq/Jj+fFyP5Xl/qU&#xA;/k7/AJVfaf8AUzab/wAjB/zVj+TH8+K/yvL/AFKfyQOs+QbfTdMnvV1+wumhAIt45AXepAooBO++&#xA;QyaYRjfEC3aftI5JiPhzF9WZ/mIQfyw0kjf/AHj/AOTBzM1X9yPh9zqey/8AHZ/533vHs1L1bsVd&#xA;irsVdirsVdirsVdirsVdirsVdiqL0j/jq2X/ABni/wCJjJQ+oNWf6Je4u1f/AI6t7/xnl/4mcZ/U&#xA;VwfRH3BCZFtdirsVdirsVdirsVdirsVdirsVZN+Wv/KcaV/xkf8A5NPmRpP70Ou7W/xaf46hlP5i&#xA;22hXP5gRx63ePY2P1FCZokLtyDPxWgV6fdmVqhE5fUaFOt7LnljpScceKXF+pLP0H+Uf/UxXf/Ii&#xA;T/qhlXh6f+cfx8HI/Ma//U4/Mf8AFInSPy98t69qapod9cz6Xbjlf3sihKsfswxKyIeVNyxFAPHJ&#xA;Q0sJy9JPD1LXn7UzYYfvIxEz9I/Sd04udU/J/QpDYLYpfyR/DLKsQuKN3rJIQD/scuM9PDar+1xY&#xA;YdfmHFxcPxr7B+lVvfKvlrzXoM0nlK7NuUPN7AMywtIAeIeFz+7Y70YbfPDLDDLH92fgxx6zNpso&#xA;GcX/AEute/r7nkE0MsMzwyqUliYpIjbFWU0IPyOakitnqYyBFjkVmLJ2KuxV2KuxV2KuxV2KuxV2&#xA;KuxV2KovSP8Ajq2X/GeL/iYyUPqDVn+iXuLtX/46t7/xnl/4mcZ/UVwfRH3BCZFtdirsVdirsVdi&#xA;rsVdirsVdirsVZN+Wv8AynGlf8ZH/wCTT5kaT+9Dru1v8Wn+OoZV+YVv5fuPzCij1+6ltNP+ooTN&#xA;CvJuYZ+I2WTb/YnMrVCBy+s0KdZ2XLLHSk4gJS4uvw9yA/Qv5M/9X6+/4Bv+yXK/D0/84/j4N/5j&#xA;tD/U4fj/AD0+06RdM/J69udKYlpGnpINn4vc+hyOwofSAPTL4Hh05MfxvTg5R4mviJ+X+5v73kGa&#xA;p6tmP5T3t1b+dLSGEn07pZY7hB0KCNnB+hlBzL0UiMgrq6ntrHGWnJPSq+ah+aFvDB541JYaAOY5&#xA;HUdneJWb7ya/TkdYAMpZ9jyMtNG/P72K5jOzdirsVdirsVdirsVdirsVdirsVdiqL0j/AI6tl/xn&#xA;i/4mMlD6g1Z/ol7i7V/+Ore/8Z5f+JnGf1FcH0R9wQmRbXYq7FXYq7FXYq7FXYq7FXYq7FU+8iX9&#xA;pYebtNuruQRW8chEkjbKvNGUEnsKtvl+mkI5AS4PaOOU8EoxFmnrvmLyp5K8xX66he349X01jX0r&#xA;iJVKqSR1DfzZtcuDHkNk/a8tpdbqMEeCMdr6gpX/AMqv/Lv/AKuEn/STF/zTlX5PD3/a5P8ALGr/&#xA;AJv+xKJ0saDoEs/lm5uY5/L+pg/UpnkV+LuoWWCVlpx5faQ7d965KHDD0E+k8v1Nebxc4GYAjLDn&#xA;t8iPuLGNW/JTV0u2OlXcM1oxqgnLJIoPY8VZWp4/hmNPs+V+k7Oxw+0GMx9YIl5Mw8hfl3b+Wna7&#xA;u5ludVlUqGQEJGm3IJXc1PVqf25em0ox7neTqu0u1DqPTEVAfa8y/MrQtZ0/zJdXd/8AvYb6RpLe&#xA;5UEIy9k9ii0FM12rxyjMk9XouydRjnhEY7GI3H472J5iu0dirsVdirsVdirsVdirsVdirsVdiqL0&#xA;j/jq2X/GeL/iYyUPqDVn+iXuLtX/AOOre/8AGeX/AImcZ/UVwfRH3BCZFtdirsVdirsVdirsVdir&#xA;sVdirsVdirsVdirsVTSz80+ZLKEQWmp3MMK/ZjWVwo+QrQZZHNMCgS42TR4Zm5RiT7m7PzRr1rq0&#xA;erJeyyX0f+7ZXaTkvdG5HdT4YxzSEuK91yaPFLGYcI4fJ6D5j/M3y1rnk+e0uLd/0lMgC2xWqxzD&#xA;pIsngPv7Zn5dZCeOiN3RaXsjNh1AkD6B17x3U8pzWPTOxV2KuxV2KuxV2KuxV2KuxV2KuxVF6R/x&#xA;1bL/AIzxf8TGSh9Qas/0S9xR+qeX9ebU7xl026ZWnkKsIJCCC53Hw5OeKXEdi0YdTiEB6o8h1CF/&#xA;w75g/wCrZd/8iJP+acj4U+4tn5rF/Oj8w7/DvmD/AKtl3/yIk/5px8KfcV/NYv50fmHf4d8wf9Wy&#xA;7/5ESf8ANOPhT7iv5rF/Oj8w7/DvmD/q2Xf/ACIk/wCacfCn3FfzWL+dH5h3+HfMH/Vsu/8AkRJ/&#xA;zTj4U+4r+axfzo/MO/w75g/6tl3/AMiJP+acfCn3FfzWL+dH5h3+HfMH/Vsu/wDkRJ/zTj4U+4r+&#xA;axfzo/MO/wAO+YP+rZd/8iJP+acfCn3FfzWL+dH5h3+HfMH/AFbLv/kRJ/zTj4U+4r+axfzo/MO/&#xA;w75g/wCrZd/8iJP+acfCn3FfzWL+dH5h3+HfMH/Vsu/+REn/ADTj4U+4r+axfzo/MO/w75g/6tl3&#xA;/wAiJP8AmnHwp9xX81i/nR+Yd/h3zB/1bLv/AJESf804+FPuK/msX86PzDv8O+YP+rZd/wDIiT/m&#xA;nHwp9xX81i/nR+Yd/h3zB/1bLv8A5ESf804+FPuK/msX86PzDv8ADvmD/q2Xf/IiT/mnHwp9xX81&#xA;i/nR+Yd/h3zB/wBWy7/5ESf804+FPuK/msX86PzDv8O+YP8Aq2Xf/IiT/mnHwp9xX81i/nR+Yd/h&#xA;3zB/1bLv/kRJ/wA04+FPuK/msX86PzDv8O+YP+rZd/8AIiT/AJpx8KfcV/NYv50fmHf4d8wf9Wy7&#xA;/wCREn/NOPhT7iv5rF/Oj8w7/DvmD/q2Xf8AyIk/5px8KfcV/NYv50fmHf4d8wf9Wy7/AOREn/NO&#xA;PhT7iv5rF/Oj8w7/AA75g/6tl3/yIk/5px8KfcV/NYv50fmHf4d8wf8AVsu/+REn/NOPhT7iv5rF&#xA;/Oj8w7/DvmD/AKtl3/yIk/5px8KfcV/NYv50fmHf4d8wf9Wy7/5ESf8ANOPhT7iv5rF/Oj8w7/Dv&#xA;mD/q2Xf/ACIk/wCacfCn3FfzWL+dH5h3+HfMH/Vsu/8AkRJ/zTj4U+4r+axfzo/MO/w75g/6tl3/&#xA;AMiJP+acfCn3FfzWL+dH5hFaX5f15dTs2bTbpVWeMsxgkAADjc/DkoYpcQ2LXm1OIwPqjyPUPpPO&#xA;ifPnYq7FXYq7FXYq7FXYq7FXYq7FXYq7FXYq7FXYq7FXYq7FXYq7FXYq7FXYq7FXYq7FXYq7FXYq&#xA;7FXYq7FXYq7FXYq7FXYq7FXYq7FXYqlOsebPLmjSLFqV9HbysKiLd3p4lUDMBlWTPCH1FysGiy5R&#xA;cIkhVsvMWh32ny6jaXkc1nArNPKp+wEHJuY+0tBvuMMcsSLB2Y5NLkhMQlEiR5InT9QstQtI7yym&#xA;We2lr6cqdDxYqafIgjJRkJCxya8uKWOXDIUQhtZ8x6HoqI+p3kdsJPsK1SzU60RQWP3ZHJljD6jT&#xA;Zg0uTMfRG3aP5h0TWY3k0y8juhHT1ApIZa9OSsAwr8sceWM/pNoz6XJiNTFIK889+UbO7a0udTiS&#xA;4Q8XUcmCnwLKCo+/IS1OMGiW7H2dnnHiETSdLc27W4uVkVrcp6glBBUpSvKo2pTLrFW4hgbqt0Jo&#xA;+vaRrMDz6ZcrcxRtwdlDCjUBpRgD0ORx5YzFxNtufTZMRqYopdeefvKFndS2lzqSR3EDFJYykhKs&#xA;poRspGVy1OMGiW/H2bnnESjHY+5Gp5m0B9Kk1WO9jfT4f72dCWCmoFCACw3Phk/Gjw8V7NR0mUTE&#xA;DE8R6L7rzBotrpkWqXN3HDYzIskMzkjmrjkvFftEkGtKVxOWIjxE7MYabJKZgBcgoaP5u8t6zKYd&#xA;Nv455gCfS+JHIHUhXCkj5YMeeE9gWefQ5sQucSAm+WuK7FXYq7FXYq7FXYq7FXYq7FXYq7FXYq7F&#xA;XYq7FXYq7FXYq7FXl3k22tL7UPNmrajZLqeq200gS1kUO1FD8Y0Vg1C3DgNu2a3TgSM5EXIPSa+c&#xA;oRw44S4IEDf5b/pUNLu9K9Lzfa22jTaNeNplxNcwSSVQD0yVVYuKBf7yo9sjCUfWBHhPCWeaE7wy&#xA;MxkjxgA159/wZb+Vn/KB6Z/z3/6iJMytF/dD4/e6vtn/ABqfw/3ISLS7Oz1b81daGrRrcNZRKLK3&#xA;mAZQo4fEFO23Kv8Asq5TCIlnlxdHNzTli0UPDNcR3I+P4+DWoW2n6N+a+lHTglol3bSNfwxgJHxC&#xA;yHkQNh9gE/KuCQEM4raxuuKc8uhnx+rhlt9jH10XVdK03UBb2Fh5m8vyvI8uoQsjzqANyJFPNWUb&#xA;7BgDlHhyiDQE497nHUQyzjcp4cor0nl8v7E81/zPpdr+VlsNHDwRagDaW8MjF3jXk3rAkmpAAKg+&#xA;4y7LmiMA4eu363D02knLWnxNzHc+fcl35falpWjecv0XYXoutO1O3iX1QGAF1GlT9oA7sHp/rDIa&#xA;WcYZOEGwR9rkdp4p5dPxyjwzgT/pfxXyQq6hcWHmvzVdR6HHrMMU7NceqFPoqHf4gCrnfvTwyHEY&#xA;5Jnh4mw4hPBiichxkjbz5KmnWFPy58z6urRJFqkiPHZwGqQBJq8KUHEj1KU8AMMI/uZy/nMcuT/C&#xA;8WPe4Dmeu37ETHDDqXmfyXpmpAPpq6Rbyx277xvIYWO4O25jUU70yQAlOEZcuENZkceHPOH1+IRf&#xA;lf7Ux/MfTdO0rU/L2oaZDHaaibtY1EChPUQEdQtK0rx+RplmrgIyiY7G2jsrLPJDJCZ4ocPV6Vmx&#xA;eedirsVdirsVdirsVdirsVdirsVdirsVdirsVdirsVdirsVdirEdZ/Ly3u9Wk1bS9RuNHv5xS5e2&#xA;PwyV6kqCu577+/XMXJpQZcUSYl2mDtQxgMc4jJEcr6N6V+XOn2FrqYe8uLu+1W3ktbm9mbk3GRaE&#xA;gePf4icYaQRB3JMhzXN2rOco+kRjAggDyQNr+V93Z2629p5m1K3t0rwhikKItSSaKrACpNcrjoyB&#xA;QnJun2vGRuWKBPmEw138v7XUru31G3vrjT9Xt41jN/CfikCjjVxUEmnevzrlmTSiRBBIl3tGn7Tl&#xA;jiYGIlA9D09yp5d8h2WlX02p3V1NqmqTqUa6uTWiEUIVTXqNtydtsOLTCJ4ieKTHVdpSyxEIgQgO&#xA;gSiT8po4zcQadrd5Y6ZdMTNYIaoQ2xX7Sgim3xA7da5UdFzAkQD0csdtE0ZwjKY6pmfy60j61o7C&#xA;RzY6MpEFkwVld2Ys0jk9SzUJ27ZZ+Vjce6PRxv5UycM9vVk5n9CI8w+SNM1ZrKWFv0fdWEwmhnt0&#xA;QGooaEUHdQcll04lVbENel7Qni4gfVGQqiraL5TttL1fVdSWdpn1Z+csTKAq7saDx+13w48AjIy/&#xA;nMdRrTkxwhVcCVR/lpZQWur2Nteyw6fq1C1rxUrEyuHUofanH5fLKxpABIA7Sck9rSMoSMQZQ69/&#xA;vRWrfl/pepaVptm80sN1pUUcVpfxELKBGoXf58a+x6ZKeljKIHWPVrwdpzxzlKgYzJJieW6hpP5d&#xA;w2+qw6rq2p3OsXltQ2puD8EZG4PEljUHcb9cjDS1LikTIhnm7UMoGGOMccTzpl+ZbqnYq7FXYq7F&#xA;XYq7FXYq7FXYq7FXYq7FXYq7FXYq7FXYq7FXYq7FXYq7FXYq7FXYq7FXYq7FXYq7FXYq7FXYq7FX&#xA;Yq7FXYq7FXYq7FXYq7FXYq7FXYq7FXYq7FXYq7FXYq7FXYq7FXYq7FXYq7FXYq7FXYq7FXYq7FXY&#xA;q7FXYq7FXYq7FXYq7FXYq//Z</xmpGImg:image>
               </rdf:li>
            </rdf:Alt>
         </xmp:Thumbnails>
         <xmpMM:InstanceID>xmp.iid:d6e53333-13f6-8b44-80d2-a73eeca10c2d</xmpMM:InstanceID>
         <xmpMM:DocumentID>xmp.did:d6e53333-13f6-8b44-80d2-a73eeca10c2d</xmpMM:DocumentID>
         <xmpMM:OriginalDocumentID>uuid:5D20892493BFDB11914A8590D31508C8</xmpMM:OriginalDocumentID>
         <xmpMM:RenditionClass>proof:pdf</xmpMM:RenditionClass>
         <xmpMM:DerivedFrom rdf:parseType="Resource">
            <stRef:instanceID>xmp.iid:9abfa668-2609-c146-aeb5-945099e7e6e3</stRef:instanceID>
            <stRef:documentID>xmp.did:9abfa668-2609-c146-aeb5-945099e7e6e3</stRef:documentID>
            <stRef:originalDocumentID>uuid:5D20892493BFDB11914A8590D31508C8</stRef:originalDocumentID>
            <stRef:renditionClass>proof:pdf</stRef:renditionClass>
         </xmpMM:DerivedFrom>
         <xmpMM:History>
            <rdf:Seq>
               <rdf:li rdf:parseType="Resource">
                  <stEvt:action>saved</stEvt:action>
                  <stEvt:instanceID>xmp.iid:9abfa668-2609-c146-aeb5-945099e7e6e3</stEvt:instanceID>
                  <stEvt:when>2017-04-11T01:59:07-05:00</stEvt:when>
                  <stEvt:softwareAgent>Adobe Illustrator CC (Windows)</stEvt:softwareAgent>
                  <stEvt:changed>/</stEvt:changed>
               </rdf:li>
               <rdf:li rdf:parseType="Resource">
                  <stEvt:action>saved</stEvt:action>
                  <stEvt:instanceID>xmp.iid:d6e53333-13f6-8b44-80d2-a73eeca10c2d</stEvt:instanceID>
                  <stEvt:when>2017-10-09T13:04:54-05:00</stEvt:when>
                  <stEvt:softwareAgent>Adobe Illustrator CC (Windows)</stEvt:softwareAgent>
                  <stEvt:changed>/</stEvt:changed>
               </rdf:li>
            </rdf:Seq>
         </xmpMM:History>
         <illustrator:StartupProfile>Print</illustrator:StartupProfile>
         <xmpTPg:HasVisibleOverprint>False</xmpTPg:HasVisibleOverprint>
         <xmpTPg:HasVisibleTransparency>True</xmpTPg:HasVisibleTransparency>
         <xmpTPg:NPages>1</xmpTPg:NPages>
         <xmpTPg:MaxPageSize rdf:parseType="Resource">
            <stDim:w>155.705994</stDim:w>
            <stDim:h>74.254028</stDim:h>
            <stDim:unit>Pixels</stDim:unit>
         </xmpTPg:MaxPageSize>
         <xmpTPg:PlateNames>
            <rdf:Seq>
               <rdf:li>Cyan</rdf:li>
               <rdf:li>Magenta</rdf:li>
               <rdf:li>Yellow</rdf:li>
            </rdf:Seq>
         </xmpTPg:PlateNames>
         <xmpTPg:SwatchGroups>
            <rdf:Seq>
               <rdf:li rdf:parseType="Resource">
                  <xmpG:groupName>Grupo de muestras por defecto</xmpG:groupName>
                  <xmpG:groupType>0</xmpG:groupType>
               </rdf:li>
            </rdf:Seq>
         </xmpTPg:SwatchGroups>
         <pdf:Producer>Adobe PDF library 10.01</pdf:Producer>
      </rdf:Description>
   </rdf:RDF>
</x:xmpmeta>
                                                                                                    
                                                                                                    
                                                                                                    
                                                                                                    
                                                                                                    
                                                                                                    
                                                                                                    
                                                                                                    
                                                                                                    
                                                                                                    
                                                                                                    
                                                                                                    
                                                                                                    
                                                                                                    
                                                                                                    
                                                                                                    
                                                                                                    
                                                                                                    
                                                                                                    
                                                                                                    
                           
<?xpacket end="w"?>
	</metadata>
<g>
	
		<rect id="XMLID_246_" x="0.397" y="0" opacity="0.5" fill="#FFFFFF" enable-background="new    " width="154.914" height="74.254"/>
	<rect id="XMLID_221_" x="0.397" y="0" fill="#DB5940" width="154.914" height="48.154"/>
	<rect id="XMLID_318_" x="0" y="57.455" fill="none" width="155.706" height="13.102"/>
	<g>
		<path fill="#DB5940" d="M52.981,62.437V61.11h3.427v3.137c-0.333,0.322-0.815,0.606-1.448,0.852
			c-0.632,0.245-1.272,0.368-1.92,0.368c-0.824,0-1.542-0.173-2.154-0.519s-1.072-0.84-1.38-1.482s-0.462-1.342-0.462-2.098
			c0-0.82,0.172-1.549,0.516-2.187c0.344-0.637,0.847-1.126,1.509-1.466c0.505-0.262,1.133-0.392,1.885-0.392
			c0.978,0,1.741,0.204,2.291,0.614c0.549,0.41,0.903,0.977,1.061,1.7l-1.579,0.295c-0.111-0.387-0.319-0.691-0.626-0.915
			c-0.306-0.224-0.688-0.336-1.146-0.336c-0.695,0-1.247,0.22-1.657,0.661c-0.41,0.439-0.615,1.094-0.615,1.96
			c0,0.935,0.208,1.636,0.623,2.103c0.416,0.468,0.959,0.701,1.633,0.701c0.333,0,0.667-0.065,1.001-0.196
			c0.335-0.131,0.623-0.289,0.862-0.476v-0.998h-1.821V62.437z"/>
		<path fill="#DB5940" d="M57.917,65.331v-7.81h1.59v6.483h3.953v1.326h-5.543V65.331z"/>
		<path fill="#DB5940" d="M64.271,61.442c0-0.802,0.12-1.476,0.36-2.02c0.179-0.401,0.423-0.761,0.733-1.08
			c0.31-0.318,0.649-0.555,1.018-0.709c0.491-0.207,1.056-0.311,1.697-0.311c1.16,0,2.088,0.359,2.785,1.079
			c0.696,0.72,1.044,1.721,1.044,3.003c0,1.271-0.346,2.266-1.037,2.983c-0.691,0.717-1.615,1.077-2.771,1.077
			c-1.171,0-2.102-0.357-2.793-1.072C64.617,63.68,64.271,62.695,64.271,61.442z M65.91,61.389c0,0.892,0.206,1.567,0.618,2.027
			s0.935,0.69,1.568,0.69s1.154-0.229,1.56-0.685c0.407-0.457,0.61-1.142,0.61-2.055c0-0.902-0.198-1.575-0.593-2.02
			c-0.396-0.444-0.921-0.666-1.577-0.666s-1.184,0.225-1.584,0.674S65.91,60.482,65.91,61.389z"/>
		<path fill="#DB5940" d="M72.747,62.769l1.547-0.15c0.093,0.52,0.282,0.901,0.566,1.145c0.285,0.243,0.669,0.365,1.152,0.365
			c0.512,0,0.898-0.108,1.157-0.325c0.26-0.217,0.39-0.47,0.39-0.76c0-0.187-0.055-0.345-0.164-0.476s-0.3-0.244-0.572-0.341
			c-0.186-0.064-0.61-0.179-1.273-0.344c-0.852-0.211-1.45-0.471-1.794-0.778c-0.483-0.434-0.725-0.962-0.725-1.585
			c0-0.401,0.114-0.776,0.341-1.125c0.227-0.35,0.555-0.615,0.982-0.798c0.428-0.183,0.945-0.273,1.55-0.273
			c0.988,0,1.732,0.216,2.231,0.649c0.5,0.434,0.762,1.012,0.787,1.735l-1.589,0.069c-0.068-0.404-0.214-0.695-0.438-0.873
			c-0.224-0.177-0.56-0.266-1.007-0.266c-0.462,0-0.824,0.095-1.085,0.284c-0.168,0.122-0.252,0.285-0.252,0.489
			c0,0.187,0.079,0.346,0.236,0.478c0.201,0.169,0.688,0.344,1.461,0.527c0.773,0.182,1.346,0.371,1.716,0.566
			c0.371,0.195,0.661,0.462,0.87,0.8c0.21,0.339,0.314,0.757,0.314,1.255c0,0.451-0.125,0.873-0.376,1.268
			c-0.25,0.394-0.604,0.687-1.063,0.878s-1.029,0.287-1.713,0.287c-0.996,0-1.76-0.23-2.293-0.69S72.851,63.649,72.747,62.769z"/>
		<path fill="#DB5940" d="M87.587,65.331h-1.729l-0.688-1.789h-3.147l-0.65,1.789h-1.687l3.067-7.874h1.681L87.587,65.331z
			 M84.66,62.216l-1.085-2.922l-1.063,2.922H84.66z"/>
		<path fill="#DB5940" d="M88.436,65.331v-7.874h3.346c0.842,0,1.453,0.07,1.835,0.212c0.381,0.142,0.687,0.394,0.915,0.755
			c0.229,0.361,0.344,0.775,0.344,1.241c0,0.59-0.174,1.078-0.521,1.463c-0.348,0.385-0.867,0.628-1.558,0.729
			c0.344,0.2,0.627,0.42,0.852,0.66c0.224,0.24,0.525,0.666,0.904,1.278l0.962,1.536h-1.901l-1.149-1.713
			c-0.408-0.613-0.688-0.999-0.838-1.158s-0.31-0.269-0.479-0.327c-0.168-0.06-0.435-0.089-0.8-0.089h-0.322v3.287
			C90.026,65.331,88.436,65.331,88.436,65.331z M90.026,60.787h1.176c0.763,0,1.239-0.032,1.429-0.097
			c0.19-0.064,0.339-0.176,0.446-0.333s0.161-0.354,0.161-0.591c0-0.265-0.071-0.479-0.212-0.642c-0.142-0.163-0.342-0.267-0.6-0.31
			c-0.129-0.018-0.516-0.026-1.16-0.026h-1.24C90.026,58.788,90.026,60.787,90.026,60.787z"/>
		<path fill="#DB5940" d="M96.326,65.331v-7.874h1.59v7.874H96.326z"/>
		<path fill="#DB5940" d="M99.108,61.442c0-0.802,0.12-1.476,0.36-2.02c0.179-0.401,0.423-0.761,0.733-1.08
			c0.31-0.318,0.648-0.555,1.018-0.709c0.49-0.207,1.056-0.311,1.697-0.311c1.16,0,2.088,0.359,2.785,1.079
			c0.696,0.72,1.044,1.721,1.044,3.003c0,1.271-0.346,2.266-1.036,2.983c-0.691,0.718-1.615,1.077-2.771,1.077
			c-1.171,0-2.103-0.357-2.793-1.072C99.454,63.68,99.108,62.695,99.108,61.442z M100.747,61.389c0,0.892,0.206,1.567,0.617,2.027
			c0.412,0.46,0.935,0.69,1.568,0.69s1.154-0.229,1.561-0.685c0.406-0.457,0.609-1.142,0.609-2.055c0-0.902-0.197-1.575-0.593-2.02
			c-0.396-0.444-0.922-0.666-1.577-0.666s-1.184,0.225-1.584,0.674C100.947,59.805,100.747,60.482,100.747,61.389z"/>
	</g>
	<g id="XMLID_339_">
		<path id="XMLID_380_" fill="#FFFFFF" d="M91.133,39.693l-3.417-3.423c0.715-1.129,1.136-2.463,1.136-3.898
			c0-4.013-3.272-7.285-7.285-7.285c-4.015,0-7.286,3.272-7.286,7.285c0,4.021,3.272,7.286,7.286,7.286
			c1.428,0,2.767-0.421,3.89-1.135l3.423,3.423c0.31,0.31,0.721,0.469,1.129,0.469c0.404,0,0.813-0.159,1.123-0.469
			C91.759,41.32,91.759,40.313,91.133,39.693L91.133,39.693z M81.566,37.381c-2.762,0-5.009-2.247-5.009-5.009
			c0-2.761,2.247-5.008,5.009-5.008c2.761,0,5.008,2.247,5.008,5.008C86.574,35.134,84.327,37.381,81.566,37.381L81.566,37.381z"/>
		<path id="XMLID_377_" fill="#FFFFFF" d="M75.621,26.404h-8.643c-0.292,0-0.526,0.234-0.526,0.527v0.526
			c0,0.288,0.234,0.521,0.526,0.521h7.409C74.737,27.405,75.146,26.879,75.621,26.404L75.621,26.404z"/>
		<path id="XMLID_373_" fill="#FFFFFF" d="M70.636,11.191h6.852c0.86,0,1.562-0.703,1.562-1.562v-0.03
			c0-0.86-0.703-1.556-1.562-1.556H76.68c-0.433,0-0.779-0.351-0.779-0.783V7.23c0-1.001-0.813-1.814-1.819-1.814H74.04
			c-1.001,0-1.814,0.813-1.814,1.814v0.03c0,0.433-0.351,0.783-0.783,0.783h-0.807c-0.86,0-1.556,0.697-1.556,1.556v0.03
			C69.079,10.488,69.776,11.191,70.636,11.191L70.636,11.191z M74.065,6.463c0.433,0,0.783,0.357,0.783,0.789
			c0,0.433-0.351,0.789-0.783,0.789c-0.439,0-0.791-0.357-0.791-0.789C73.274,6.82,73.626,6.463,74.065,6.463L74.065,6.463z"/>
		<path id="XMLID_370_" fill="#FFFFFF" d="M66.978,31.126c-0.292,0-0.526,0.241-0.526,0.527v0.527c0,0.286,0.234,0.526,0.526,0.526
			h6.173c-0.005-0.111-0.017-0.222-0.017-0.328c0-0.427,0.04-0.842,0.099-1.252C73.233,31.126,66.978,31.126,66.978,31.126z"/>
		<path id="XMLID_367_" fill="#FFFFFF" d="M81.671,23.257V22.73c0-0.286-0.234-0.521-0.527-0.521H66.978
			c-0.292,0-0.526,0.235-0.526,0.521v0.527c0,0.292,0.234,0.526,0.526,0.526h14.166C81.438,23.783,81.671,23.549,81.671,23.257
			L81.671,23.257z"/>
		<path id="XMLID_364_" fill="#FFFFFF" d="M64.878,35.849v-20.99h18.368v9.251c0.942,0.193,1.825,0.55,2.621,1.023V11.67
			c0-1.019-0.825-1.843-1.838-1.843h-3.955c-0.118,1.357-1.224,2.41-2.587,2.41h-6.852c-1.363,0-2.47-1.053-2.587-2.382h-3.955
			c-1.019,0-1.838,0.819-1.838,1.838v24.938c0,1.019,0.825,1.844,1.838,1.844h11.668c-0.779-0.743-1.417-1.633-1.873-2.627
			L64.878,35.849L64.878,35.849z"/>
		<path id="XMLID_360_" fill="#FFFFFF" d="M81.671,18.008c0-0.288-0.234-0.521-0.527-0.521H66.978c-0.292,0-0.526,0.234-0.526,0.521
			v0.526c0,0.294,0.234,0.527,0.526,0.527h14.166c0.294,0,0.527-0.234,0.527-0.527V18.008z"/>
	</g>
</g>
</svg>
