<?xml version="1.0" encoding="utf-8"?>
<!-- Generator: Adobe Illustrator 17.0.0, SVG Export Plug-In . SVG Version: 6.00 Build 0)  -->
<!DOCTYPE svg PUBLIC "-//W3C//DTD SVG 1.1//EN" "http://www.w3.org/Graphics/SVG/1.1/DTD/svg11.dtd" [
	<!ENTITY ns_extend "http://ns.adobe.com/Extensibility/1.0/">
	<!ENTITY ns_ai "http://ns.adobe.com/AdobeIllustrator/10.0/">
	<!ENTITY ns_graphs "http://ns.adobe.com/Graphs/1.0/">
	<!ENTITY ns_vars "http://ns.adobe.com/Variables/1.0/">
	<!ENTITY ns_imrep "http://ns.adobe.com/ImageReplacement/1.0/">
	<!ENTITY ns_sfw "http://ns.adobe.com/SaveForWeb/1.0/">
	<!ENTITY ns_custom "http://ns.adobe.com/GenericCustomNamespace/1.0/">
	<!ENTITY ns_adobe_xpath "http://ns.adobe.com/XPath/1.0/">
]>
<svg version="1.1" id="Capa_1" xmlns:x="&ns_extend;" xmlns:i="&ns_ai;" xmlns:graph="&ns_graphs;"
	 xmlns="http://www.w3.org/2000/svg" xmlns:xlink="http://www.w3.org/1999/xlink" x="0px" y="0px" width="154.914px"
	 height="74.254px" viewBox="0 0 154.914 74.254" enable-background="new 0 0 154.914 74.254" xml:space="preserve">
<metadata><?xpacket begin="﻿" id="W5M0MpCehiHzreSzNTczkc9d"?>
<x:xmpmeta xmlns:x="adobe:ns:meta/" x:xmptk="Adobe XMP Core 5.5-c014 79.151739, 2013/04/03-12:12:15        ">
   <rdf:RDF xmlns:rdf="http://www.w3.org/1999/02/22-rdf-syntax-ns#">
      <rdf:Description rdf:about=""
            xmlns:dc="http://purl.org/dc/elements/1.1/"
            xmlns:xmp="http://ns.adobe.com/xap/1.0/"
            xmlns:xmpGImg="http://ns.adobe.com/xap/1.0/g/img/"
            xmlns:xmpMM="http://ns.adobe.com/xap/1.0/mm/"
            xmlns:stRef="http://ns.adobe.com/xap/1.0/sType/ResourceRef#"
            xmlns:stEvt="http://ns.adobe.com/xap/1.0/sType/ResourceEvent#"
            xmlns:illustrator="http://ns.adobe.com/illustrator/1.0/"
            xmlns:xmpTPg="http://ns.adobe.com/xap/1.0/t/pg/"
            xmlns:stDim="http://ns.adobe.com/xap/1.0/sType/Dimensions#"
            xmlns:xmpG="http://ns.adobe.com/xap/1.0/g/"
            xmlns:pdf="http://ns.adobe.com/pdf/1.3/">
         <dc:format>image/svg+xml</dc:format>
         <dc:title>
            <rdf:Alt>
               <rdf:li xml:lang="x-default">Imprimir</rdf:li>
            </rdf:Alt>
         </dc:title>
         <xmp:MetadataDate>2017-10-09T13:05:19-05:00</xmp:MetadataDate>
         <xmp:ModifyDate>2017-10-09T13:05:19-05:00</xmp:ModifyDate>
         <xmp:CreateDate>2017-10-09T13:05:18-05:00</xmp:CreateDate>
         <xmp:CreatorTool>Adobe Illustrator CC (Windows)</xmp:CreatorTool>
         <xmp:Thumbnails>
            <rdf:Alt>
               <rdf:li rdf:parseType="Resource">
                  <xmpGImg:width>256</xmpGImg:width>
                  <xmpGImg:height>124</xmpGImg:height>
                  <xmpGImg:format>JPEG</xmpGImg:format>
                  <xmpGImg:image>/9j/4AAQSkZJRgABAgEASABIAAD/7QAsUGhvdG9zaG9wIDMuMAA4QklNA+0AAAAAABAASAAAAAEA&#xA;AQBIAAAAAQAB/+4ADkFkb2JlAGTAAAAAAf/bAIQABgQEBAUEBgUFBgkGBQYJCwgGBggLDAoKCwoK&#xA;DBAMDAwMDAwQDA4PEA8ODBMTFBQTExwbGxscHx8fHx8fHx8fHwEHBwcNDA0YEBAYGhURFRofHx8f&#xA;Hx8fHx8fHx8fHx8fHx8fHx8fHx8fHx8fHx8fHx8fHx8fHx8fHx8fHx8fHx8f/8AAEQgAfAEAAwER&#xA;AAIRAQMRAf/EAaIAAAAHAQEBAQEAAAAAAAAAAAQFAwIGAQAHCAkKCwEAAgIDAQEBAQEAAAAAAAAA&#xA;AQACAwQFBgcICQoLEAACAQMDAgQCBgcDBAIGAnMBAgMRBAAFIRIxQVEGE2EicYEUMpGhBxWxQiPB&#xA;UtHhMxZi8CRygvElQzRTkqKyY3PCNUQnk6OzNhdUZHTD0uIIJoMJChgZhJRFRqS0VtNVKBry4/PE&#xA;1OT0ZXWFlaW1xdXl9WZ2hpamtsbW5vY3R1dnd4eXp7fH1+f3OEhYaHiImKi4yNjo+Ck5SVlpeYmZ&#xA;qbnJ2en5KjpKWmp6ipqqusra6voRAAICAQIDBQUEBQYECAMDbQEAAhEDBCESMUEFURNhIgZxgZEy&#xA;obHwFMHR4SNCFVJicvEzJDRDghaSUyWiY7LCB3PSNeJEgxdUkwgJChgZJjZFGidkdFU38qOzwygp&#xA;0+PzhJSktMTU5PRldYWVpbXF1eX1RlZmdoaWprbG1ub2R1dnd4eXp7fH1+f3OEhYaHiImKi4yNjo&#xA;+DlJWWl5iZmpucnZ6fkqOkpaanqKmqq6ytrq+v/aAAwDAQACEQMRAD8ATzmH012KuxV2KuxV2Kux&#xA;V2KuxV2KuxV2KuxV2KuxV2KuxV2KuxV2KuxV2KuxV2KuxV2KuxV2KuxV2KuxV2KuxV2KuxV2KuxV&#xA;2KuxV2KuxV2KuxV2KuxV2KuxV6j5c8jeST5Qs9b1yaSL6xX1JTJwQHmyqoAH+TmyxabH4YlJ5vVd&#xA;o6nxzjxAGvJW/wAP/kz/ANXL/ku3/NOHwtP3sPzPaH837FHzH5G8kjyhea3oc0kv1enpyiTmhPNV&#xA;ZSCP8rBl02PwzKLPS9o6nxxjygC/J5dmtekdirsVdirsVdirsVdirsVdirsVdirsVdirsVdirsVd&#xA;irsVdirsVdirsVdirsVdirsVdirsVeo6t/5JTTv+Mif8nnzZT/xYPN4P+NGX46B5dmtekeo6T/5J&#xA;TUf+Mj/8nkzZQ/xYvN5/+NGP46F5dmtekdirsVdirsVdirsVdirsVdirsVdirsVdirsVdirsVdir&#xA;sVdirsVdirsVdirsVdirsVdirsVexaLB5e1v8ttP0e81WGzZSWk/eRh1KSsaFXI8c22MQnhESaeT&#xA;1EsuHWSyRgZfA9wQ3/Kn/LX1T65+nW+p/wDLT+69P7XH7deP2tvnkfyEKvi2bP5czcXD4fq7t7RO&#xA;tQeXtE/LbUNHs9VhvGYho/3kZdi8qmgVCfDJZBCGExBtr08subWRySgY/A9xeO5qXrHYq7FXYq7F&#xA;XYq7FXYq7FXYq7FXYq7FXYq7FXYq7FXYq7FXYq7FXYq7FXYq7FXYqrWVq93e29ohCvcSJErHoC7B&#xA;RX78MY2QGGSYjEyPQW9L/wCVGXf/AFd4/wDkQf8AmvNj/Jx/nPPf6Io/zPt/Y7/lRd1/1d4/+RB/&#xA;5rx/k0/zl/0RR/mfb+x3/Ki7r/q7x/8AIg/814/yaf5y/wCiKP8AM+39jLv8Cy/8q/8A8KfXF9T/&#xA;AJa+Bp/vT6/2OX0dcy/y37rw7/F26r+UR+a8fh+H+bTEf+VF3X/V3j/5EH/mvMT+TT/Odr/oij/M&#xA;+39jv+VF3X/V3j/5EH/mvH+TT/OX/RFH+Z9v7Hf8qMu/+rvH/wAiD/zXj/Jx/nL/AKIo/wAz7f2P&#xA;NL21e0vbi0chnt5HiZh0JRipp92a6UaJD0OOYlESHUWo4GbsVdirsVdirsVdirsVdirsVdirsVdi&#xA;rsVdirsVdirsVdirsVdirsVROmafPqOoW1hb09a6kWKMsaKC5pUnwyUImRAHVry5RjgZHkBb0fS/&#xA;ya12z1O0u3vbVkt5o5WVfUqQjhiBVfbNhDQSEgbDz+bt7FKBiIy3BHRkH5hfl7qfmbU7a7tLmGFI&#xA;YfSZZedSebNUcVPjl+q0sskgQXB7M7Thp4GMgTZvZ5b5t8n6h5Zu4be8limNwhkjeItSgNCDyC5r&#xA;M+A4zRel0WuhqIkxBFd6c6F+U+uaxpNvqUd1bwxXKlo45C/LjUgE8VI3pl2PRSnEGxu4ep7ax4pm&#xA;BBJD0P8AwPqH/KuP8LevF9c/3/8AF6f+9Xr+HL7O3Trmf+XPg8HX9tui/lCH5vx6PD3dfpp53r/5&#xA;U61oukXGpzXdvLDbBS6IX5EMwXaqgd8wMuilCJkSHfabtnHmyCAEgSk/lLyfqHma7mt7OWKE26CS&#xA;R5S1KE0AHENlODAchoOXrddDTxBkCb7nqX5e/l7qflnU7m7u7mGZJofSVYudQeatU8lHhmz0ullj&#xA;kSS812n2nDUQEYgije7H9U/JrXbzU7u7S9tVS4mklVW9SoDuWANF98onoJGRNhzsPb2KMBExlsAO&#xA;jzjUrCfTtQubC4p61rI0UhU1UlDQkHwzXziYkg9HoMWUZICQ5EWhsi2OxV2KuxV2KuxV2KuxV2Ku&#xA;xV2KuxV2KuxV2KuxV2KuxV2KuxV2Kp35I/5S/R/+YuL/AIkMu0/95H3uH2h/cT/qllH5wX99B5sR&#xA;ILiWJPqsZ4o7KK8n3oDmTr5EZNj0db2HjjLBZAPqP6GI6VquqNqlmDeTkGeMEGR6Ecx75iQnLiG7&#xA;tM2GHBL0jkejN/zx/wCOrpn/ABgf/ieZvaP1B0/s99Evejtanng/JzTZIZGif9yOaEqaFm7jJ5CR&#xA;pxTTp4g9oSBF83mH6X1X/ltn/wCRr/1zW8cu96PwIfzR8npWnzzz/kvqMk0jSvzYc3JY0Eydzmxi&#xA;SdObeeyxA7QiAK/sKG/I7/jq6n/xgT/ieR7O+otntD9EfewO71bVRdTAXk4AdqD1X8T75gynK+bu&#xA;4YYcI9I+TM/yfv76fzY6T3EsqfVZDxd2YV5JvQnMzQSJybno6jtzHGOCwAPUP0sX87/8pfrH/MXL&#xA;/wASOY2o/vJe92XZ/wDcQ/qhJMpcx2KuxV2KuxV2KuxV2KuxV2KuxV2KuxV2KuxV2KuxV2KuxV2K&#xA;uxVO/JH/ACl+j/8AMXF/xIZdp/7yPvcPtD+4n/VL0T8xvIHmLXvMC32npE0AgSIl5Ap5KzE7fTmf&#xA;q9LOc7Hc6HsrtPFgxcM7u2Paf+UvnCC/tppI4OEUqO9JQTRWBPbKI6HICC52XtvTmJAJ3Hcjvzx/&#xA;46umf8YH/wCJ5PtH6g0+z30S96dtoOoa7+VGmWFgFa4ZYnAduIorGu+XeGZ4AA4f5mOHXSlLluw7&#xA;/lT/AJz/AN9wf8jR/TMT8hkdt/Lmn7z8mWXGg6hof5SalYX4VbhSXIRuQo0yU3zKOIwwEF1cdTDN&#xA;royjy/YUp/I7/jq6n/xgT/ieVdnfUXK9ofoj70tuPyi85PPI6xwcWdmH70dCa+GVnQ5LciPbenAA&#xA;s/Jkv5c+QPMWg+YGvtQSJYDA8QKSBjyZlI2+jMjSaWcJ2e51/avaeLPi4YXdvO/O/wDyl+sf8xcv&#xA;/EjmBqP7yXvd92f/AHEP6oSTKXMdirsVdirsVdirsVdirsVdirsVdirsVdirsVdirsVdirsVdirs&#xA;VXRSyRSpLE5jljYMjqaMrKaggjoQcQaQQCKPJPh+YHnMCn6Xn+8f0y/81k7y4P8AJmn/AJgb/wCV&#xA;gec/+rtP94/pj+ayd6/yZp/5gSrVNY1TVZxcajcyXUyrwVpDWijeg8MqnklI2Tbk4cEMYqAoIvT/&#xA;ADd5m061W1stRmgtkqUiVvhWpqaA1pvk4Z5xFAtWXQ4ckuKUQSiv+Vgec/8Aq7T/AHj+mS/NZO9r&#xA;/kzT/wAwIXUPN3mbUbVrW91Gae2eheJm+FqGoqBSu+RnnnIUS2YtDhxy4oxAKE0vWNU0qcz6ddSW&#xA;srLxZozSq+BHQ5CGSUTYNNubBDKKmAQmv/KwPOf/AFdp/vH9Mt/NZO9xv5M0/wDMDR/MDzmRT9Lz&#xA;/eP6Y/msneV/kzT/AMwJDLLJLK8srmSWRizuxqzMxqSSepJygm3OAAFDktxS7FXYq7FXYq7FXYq7&#xA;FXYq7FVX6pdf75k/4E/0w8JYcce931S6/wB8yf8AAn+mPCV4497vql1/vmT/AIE/0x4SvHHvd9Uu&#xA;v98yf8Cf6Y8JXjj3u+qXX++ZP+BP9MeErxx73fVLr/fMn/An+mPCV4497vql1/vmT/gT/THhK8ce&#xA;931S6/3zJ/wJ/pjwleOPe76pdf75k/4E/wBMeErxx73fVLr/AHzJ/wACf6Y8JXjj3u+qXX++ZP8A&#xA;gT/THhK8ce931S6/3zJ/wJ/pjwleOPe76pdf75k/4E/0x4SvHHvd9Uuv98yf8Cf6Y8JXjj3u+qXX&#xA;++ZP+BP9MeErxx73fVLr/fMn/An+mPCV4497vql1/vmT/gT/AEx4SvHHvd9Uuv8AfMn/AAJ/pjwl&#xA;eOPe76pdf75k/wCBP9MeErxx73fVLr/fMn/An+mPCV4497vql1/vmT/gT/THhK8ce931S6/3zJ/w&#xA;J/pjwleOPe76pdf75k/4E/0x4SvHHvd9Uuv98yf8Cf6Y8JXjj3u+qXX++ZP+BP8ATHhK8ce931S6&#xA;/wB8yf8AAn+mPCV4497vql1/vmT/AIE/0x4SvHHvd9Uuv98yf8Cf6Y8JXjj3u+qXX++ZP+BP9MeE&#xA;rxx73fVLr/fMn/An+mPCV4497vql1/vmT/gT/THhK8ce931S6/3zJ/wJ/pjwleOPe+qM6Z81dirs&#xA;VdirsVdirsVdirsVdirsVdirsVdirsVdirsVdirsVdirsVdirsVdirsVdirsVdirsVdirsVdirsV&#xA;dirsVUL6/srC2a5vZ0t7dCA0shCqCTQbn3yMpCIss8eKUzwxFlRTWtIfTjqa3kTaeKk3QcemKHif&#xA;i6ddsHiRrivZmdPkE+DhPF3dVTT9T0/UYDcWFxHcwBihkiYMvIbkVHzwxmJCwbY5cM8ZqQorbHWN&#xA;K1CSaOxu4rl7chZ1icMUJJADU6fZOCOSMuRTkwTgAZAi+SHvvM/l2wuWtr3Ube3uEALRSSKrAEVG&#xA;x9sEs0ImiQ2Y9HlmOKMSR7kZZX9jfQC4sriO5gJoJYnDrUdRVSd8lGQkLBtpyY5QNSBB81Ow1jSt&#xA;QaZLG7iuWtyFnETh+BNaBqdPsnBHJGXI2yyYJ464gRferXV1bWlvJc3MqwwRDlJK5oqjxJOSlIAW&#xA;WEIGRoCyUvtPNflm7nW3ttUtZZ3NEjWVOTHwUV3OVxzwJoEN89FmiLMJAe5W1LX9F0x0j1C+htXk&#xA;HJFlcISBtUVyU8sY8zTHFpsmQXCJl7llh5m8v6hcC2sdRguZyCwiikVmoOpoMEc0JGgQU5NJlgLl&#xA;EgJhLLFDG0srrHEg5O7kKoA7knYZMmmiMSTQ5pdYeZ/LuoXJtbLUre4uN6RJIpY0FTxFfi+jIRzQ&#xA;kaBDkZNHlgOKUSB7lfU9Z0nS41k1G7itUevD1XClqdeIO5+jDPJGPM0ww4J5DUAZN6dq2manCZtP&#xA;uorqNTRmicPQ+DU6fThhOMuRtGXDPGamDH3t6dq2malE02n3UV1EjcGeJg4DUrQ0+eMJxlyNrlwz&#xA;xmpgxPmhH81+WktY7p9Tt1tpmZIpjIvFmSnIA17VyHjQq7FNg0WYyMeGVjyW2/m7yvczx29vqltL&#xA;PKwSONJFLMx2AABxGeBNAhMtDmiLMJADyWN518pKxVtXtAQaEGVeo+nB+Yx/zgy/k/P/ADJfJE/4&#xA;k0D6tBc/pCD6vcuY7eX1F4u4NCqnua5LxYVd82v8plsx4TY57Ii71PT7OW3iuriOCW6f07ZHYKZH&#xA;JA4rXqasMlKYFWebXDDOYJiLEefkpNrujK12rXsINiAbwFx+6B6c/wCXB4kd9+TIabJt6T6uXmoW&#xA;vmzyxdzrb22q2sszmiRrKnJieyiu59sjHPAmgQ2T0WaIswkB7kwu7y0s7d7m7mS3t493lkYIo7bk&#xA;5ZKQAstEISmaiLKD03zJoOpyGLT9QguZVqTHG4L0HU8etPfIQyxlyNtuXS5cYucSAmOWOO7FXYq7&#xA;FXYq7FXYqw/82v8AlB7z/jJD/wAnVzE1390Xbdi/4zH4/c86try4TQJvJPI/WbrVIFjr3t5gGr/w&#xA;Sq305rxI8Phd8g76cAco1PQYz8x+Cn3k3XBon5V6jfqaTi4ljtvH1ZFRU/4GvL6Mv0+TgwE+bha/&#xA;T+NrYx6UL926VeRr2z8veZdIMd9Hcw6zbCK/VHDelPIxKKwHQqeA38WyrTSGOcd/qG7k9o45Z8M7&#xA;jRxy28x+L+xMvMFzp1v+Z2pPf6TJrEJtIwtrFEJircYiJCp7AVFffLMpAzGxxbOPpoTlo48MxjPE&#xA;d7rv2WaJJqHlrQPM2tvZyaXb3rLHpNlKSHV3LhTxah+AODUjemOMnHGcq4b5BOoENRlxY+ITMfqI&#xA;+H3oLyJeWfl/zNpSRXsdzBrNqsd6qMG9K4diURgOhU8V+k5DTSGOY3viG/vbu0scs+GdxIOOW3mH&#xA;pX5gf8oZq3/GA/rGbHVf3Zee7M/xiHvYZqHlTy+/5Ww6mLOOLUIrOKcXUY4uX+GvIj7XL3zDlgh4&#xA;HFW9O3xa3KNaYcRMeIikq1u7u9QufJlxcWg1W5ltPjtHYL65DEUZmBG9K9MqySMjAkcRpydPCMBn&#xA;APABLn3M38o2rjVGeXyhFoXCJil6ksUhLEqPToiKRUEmvtmbgj6vo4XT62fo2zHJvyo/Pmgvzaml&#xA;kg0bSy7R2moXipdMpp8KlQAf+Dr9GQ1x2jHoS3diRAM5/wAUY7I6/wDy88mxzadLH/uKltpV+ryQ&#xA;yCN5XHxKpaTlyPw18cnLS49v4aaMXamoIkD6wRvYuvkkulafZeYvzI119ZjFyumhYrO1l3QIG48u&#xA;J2I7/NsphEZM0uLenMzZZYNJj8M1x7k/j8bN/UbXy/8Amvp9tpCCC21O2Y3don2RtIagdhWMN9+P&#xA;CIZwI8iF8SWfQylk3MJbH5frYn+XurXnlue21Sc/7gtTlayum7RyoAyu3yD1+XLMXSzOMiR+k7Oz&#xA;7UwR1AMB/eQHEPMfj9DMvyx0XSdT8lW66jaRXYiuJzGJVD8SxFaV8aZmaPHGWMWL3dT2vqJ49QeA&#xA;mNgckL+Tei6Tc6FLf3FpFLewXzCG4dQXQLFEy8W6ihJOQ0GOJjZG9tnb2onHKIgkRMeXxKQ+TYJp&#xA;LG8KeUoteH1yQfXHljjK/Cv7qjqx2+19OU6cbH0cW7m6+QEo/vjj9I2o+e6befNMe60Py1p8enpo&#xA;0t5emL6kCGSJ5W47lAAa15bDLdTC4xFcNnk43ZubhyZZmXiCMbvvpKz5hudRvfKem6iCmr6RqiW9&#xA;2rfaIEsQRz7/AAkH3Fe+VeKZGAP1Rk5H5UY45pw/u547HyKNvf8Aer8xP9SP/iRycueVqx/Tpvii&#xA;H8qeX5/yrTUmtY4tQitPXW7UcXLqa0YinLl9nfJeBA4Lremsa3KNbwWTEyqkG88/mO/8l6Zq0jNZ&#xA;3FsZrhCSPVeMyKCxHUsIgPpPjkLOQwjLlTaIjTxzzxj1CVDy5frTH8zNF0vy/DpWt6LbpY38F2sa&#xA;rAAgdeDNuo6/Yp03rvlmrxxxgSiKNtHZOonnM8eQ8UTHq9PzZPOOxV2KuxV2KuxV2KpP5t8vf4g0&#xA;ObS/rH1X1WRvW4epTgwb7PJOtPHKc+LxI8N05ei1XgZBOrpKI/y7tl82WnmA3VTbRRo1t6f25Iov&#xA;SV+fLboDSnbKhpR4gnfJyj2ofAOKuZO995ukvh/KnjpNjpU2q+rY2t415cRiDj63IKvCvqHjRVYV&#xA;3+1kBovSI3sDfJvl2z65TEKkY8I35fZ+KTHzB+WmgalYiGwhi0q6SRZEu4IhyHGu1AUrWvjlmXSQ&#xA;kKHpLj6XtbLjlciZxrkT/ajdO8qS2vmqfzDNeiea4tEtZIRFwHJRHWQNzbqYvs079clDBU+MnpTV&#xA;l1olgGIRoCV8/fty83ebPKP+I5dOWe79KxspvWntfT5+t02Lcl4/DUdD1xz4PEqzsF0Wu8ASoXKQ&#xA;oG+SC8wflpoOpWSRafFFpN1HIsiXcEQLDjX4SAU8fHIZdJGQ29JbtL2tlxyuZM41yJTvWtHl1Xy/&#xA;caVLcBJbmERSXITbltVhHyHUjpyy/Jj4oGNuHp84xZRMDYHl+1if/KsdVnsoNMv/ADLPPpEIVfqU&#xA;cCxAqn2Ry5v09wcxfyciOEy9Ls/5XgJGccQEz1u/0Jj5h8gvqF7pd1pmo/optJi9K1VYRLQD7NKu&#xA;o2Htk8um4iDE8PC0aXtIY4zjOPHxmzvX6EXo3l/zRZ6glxf+Y31G1UMHtTbJEGJBAPNWYih3yePF&#xA;MGzKx7mnPqcM41HFwnv4iUX5q8sWPmPSzY3TNGysJIJ0+1HIAQCK9RvuMlmwjJGi16PWSwT4o/Ed&#xA;7G7b8tNQuL6zm8wa5LqtrYHlb2zIVqa1+NizHsK9z45jjSEkccuIB2E+1oRiRixiBlzKP1/yHLd6&#xA;1+nNG1J9J1RlCTyKvNJQAB8S1XsB4g0G3fLMumuXFE8MmjTdpCOPwskeOHTyX+WfIx0zVZta1O/f&#xA;VdXlXgLh14KikUIVat22+XbHDpuGXFI8UkavtHxIDHCPBjHRS0z8u7S28oXXly6ufrSXEjSrc+nw&#xA;MbkLxYLybdSteu/TBDSgYzAm2WbtSUs4zRHDW1Wmnk/y1/hzRV0z6z9a4yPJ6vD0/tmtOPJ/15bg&#xA;w+HHhu3G12r8fJx1w/apeSfKf+GNKlsPrX1z1Z2n9X0/SpyRE48eT/yda4NPg8ONXbLtDW/mJiVc&#xA;NCud96R6b+XfmPSo5YdM80NawTStM0S2aMObAAmrSHsoyiGlnH6Z18HNy9qYchBnisgV9X7Eyn8m&#xA;ajeR6OdQ1g3dzpV6t4ZzAFMoVgwj4q9F+z13+WWHTk8NysxN8nHjr4QM+CHCJx4avl58lmt/l5Z6&#xA;j5psfMMNz9VntpYpbiIR8xMYXDLvyXiaLxJ3xyaUSmJ3VJ0/akseGWIiwQQN+VtTeQPVl8xSfX6f&#xA;p9VWnpV9HiSf5/j6+2J018W/1LHtKhjHD/defP7NktX8r9VksYdLvfMs82kRAKbKKBYgVU8gOXN+&#xA;++4OV/k5VwmXpcg9rwEjOOIDIet3+hOvMXkPTtVsbGG1lbTrnTABp91CKmMLSgIqtfsg9a1y3Lph&#xA;IADYjk4ml7SnilIyHGJ/UD1S62/LvULrVLa+8yazJqy2RDW1t6YjTkCDVtzXpvtv45WNKTIGcuKn&#xA;In2pCMDHDDg4uZu2b5mumdirsVdirsVdirsVdirsVdirsVdirsVdirsVdirsVdirsVdirsVdirsV&#xA;dirsVdirsVdirsVdirsVdirsVdirsVdirsVdirsVdirsVdirsVdirsVdirsVdirsVdirsVdirsVd&#xA;irsVdirsVdirsVdirsVdirsVdirsVdirsVdir//Z</xmpGImg:image>
               </rdf:li>
            </rdf:Alt>
         </xmp:Thumbnails>
         <xmpMM:InstanceID>xmp.iid:a76a3fa0-761c-cc4f-ba64-3dc5a9d725f5</xmpMM:InstanceID>
         <xmpMM:DocumentID>xmp.did:a76a3fa0-761c-cc4f-ba64-3dc5a9d725f5</xmpMM:DocumentID>
         <xmpMM:OriginalDocumentID>uuid:5D20892493BFDB11914A8590D31508C8</xmpMM:OriginalDocumentID>
         <xmpMM:RenditionClass>proof:pdf</xmpMM:RenditionClass>
         <xmpMM:DerivedFrom rdf:parseType="Resource">
            <stRef:instanceID>xmp.iid:9abfa668-2609-c146-aeb5-945099e7e6e3</stRef:instanceID>
            <stRef:documentID>xmp.did:9abfa668-2609-c146-aeb5-945099e7e6e3</stRef:documentID>
            <stRef:originalDocumentID>uuid:5D20892493BFDB11914A8590D31508C8</stRef:originalDocumentID>
            <stRef:renditionClass>proof:pdf</stRef:renditionClass>
         </xmpMM:DerivedFrom>
         <xmpMM:History>
            <rdf:Seq>
               <rdf:li rdf:parseType="Resource">
                  <stEvt:action>saved</stEvt:action>
                  <stEvt:instanceID>xmp.iid:9abfa668-2609-c146-aeb5-945099e7e6e3</stEvt:instanceID>
                  <stEvt:when>2017-04-11T01:59:07-05:00</stEvt:when>
                  <stEvt:softwareAgent>Adobe Illustrator CC (Windows)</stEvt:softwareAgent>
                  <stEvt:changed>/</stEvt:changed>
               </rdf:li>
               <rdf:li rdf:parseType="Resource">
                  <stEvt:action>saved</stEvt:action>
                  <stEvt:instanceID>xmp.iid:a76a3fa0-761c-cc4f-ba64-3dc5a9d725f5</stEvt:instanceID>
                  <stEvt:when>2017-10-09T13:05:19-05:00</stEvt:when>
                  <stEvt:softwareAgent>Adobe Illustrator CC (Windows)</stEvt:softwareAgent>
                  <stEvt:changed>/</stEvt:changed>
               </rdf:li>
            </rdf:Seq>
         </xmpMM:History>
         <illustrator:StartupProfile>Print</illustrator:StartupProfile>
         <xmpTPg:HasVisibleOverprint>False</xmpTPg:HasVisibleOverprint>
         <xmpTPg:HasVisibleTransparency>True</xmpTPg:HasVisibleTransparency>
         <xmpTPg:NPages>1</xmpTPg:NPages>
         <xmpTPg:MaxPageSize rdf:parseType="Resource">
            <stDim:w>154.914001</stDim:w>
            <stDim:h>74.254028</stDim:h>
            <stDim:unit>Pixels</stDim:unit>
         </xmpTPg:MaxPageSize>
         <xmpTPg:PlateNames>
            <rdf:Seq>
               <rdf:li>Cyan</rdf:li>
               <rdf:li>Magenta</rdf:li>
               <rdf:li>Yellow</rdf:li>
            </rdf:Seq>
         </xmpTPg:PlateNames>
         <xmpTPg:SwatchGroups>
            <rdf:Seq>
               <rdf:li rdf:parseType="Resource">
                  <xmpG:groupName>Grupo de muestras por defecto</xmpG:groupName>
                  <xmpG:groupType>0</xmpG:groupType>
               </rdf:li>
            </rdf:Seq>
         </xmpTPg:SwatchGroups>
         <pdf:Producer>Adobe PDF library 10.01</pdf:Producer>
      </rdf:Description>
   </rdf:RDF>
</x:xmpmeta>
                                                                                                    
                                                                                                    
                                                                                                    
                                                                                                    
                                                                                                    
                                                                                                    
                                                                                                    
                                                                                                    
                                                                                                    
                                                                                                    
                                                                                                    
                                                                                                    
                                                                                                    
                                                                                                    
                                                                                                    
                                                                                                    
                                                                                                    
                                                                                                    
                                                                                                    
                                                                                                    
                           
<?xpacket end="w"?>
	</metadata>
<g>
	<rect id="XMLID_72_" x="0" y="0" opacity="0.5" fill="#FFFFFF" enable-background="new    " width="154.914" height="74.254"/>
	<rect id="XMLID_56_" x="0" y="0" fill="#DB5940" width="154.914" height="48.154"/>
	<rect id="XMLID_330_" x="0" y="57.455" fill="none" width="154.494" height="13.102"/>
	<g>
		<path fill="#DB5940" d="M18.135,65.331v-7.874h2.379l1.429,5.371l1.413-5.371h2.385v7.874h-1.477v-6.198l-1.563,6.198H21.17
			l-1.558-6.198v6.198H18.135z"/>
		<path fill="#DB5940" d="M34.42,65.331h-1.729l-0.688-1.789h-3.147l-0.65,1.789H26.52l3.067-7.874h1.681L34.42,65.331z
			 M31.493,62.216l-1.085-2.922l-1.063,2.922H31.493z"/>
		<path fill="#DB5940" d="M35.264,65.331v-7.874h2.551c0.967,0,1.597,0.039,1.891,0.118c0.451,0.118,0.829,0.375,1.133,0.771
			s0.457,0.907,0.457,1.534c0,0.482-0.088,0.89-0.263,1.219s-0.398,0.588-0.668,0.776c-0.271,0.188-0.545,0.313-0.825,0.373
			c-0.379,0.075-0.929,0.112-1.649,0.112h-1.037v2.971H35.264z M36.854,58.789v2.234h0.87c0.626,0,1.045-0.041,1.257-0.124
			c0.211-0.082,0.377-0.211,0.497-0.387c0.12-0.175,0.18-0.379,0.18-0.611c0-0.287-0.084-0.523-0.252-0.709
			c-0.168-0.187-0.381-0.303-0.639-0.35c-0.19-0.036-0.571-0.054-1.144-0.054L36.854,58.789L36.854,58.789z"/>
		<path fill="#DB5940" d="M48.885,65.331h-1.729l-0.688-1.789H43.32l-0.65,1.789h-1.687l3.067-7.874h1.681L48.885,65.331z
			 M45.958,62.216l-1.085-2.922l-1.063,2.922H45.958z"/>
		<path fill="#DB5940" d="M52.371,57.457h2.906c0.655,0,1.155,0.05,1.499,0.15c0.462,0.136,0.857,0.378,1.187,0.726
			c0.33,0.347,0.58,0.772,0.752,1.275s0.258,1.123,0.258,1.861c0,0.647-0.081,1.206-0.242,1.676
			c-0.197,0.572-0.478,1.036-0.843,1.391c-0.276,0.269-0.648,0.479-1.117,0.629c-0.351,0.11-0.82,0.166-1.407,0.166h-2.992
			L52.371,57.457L52.371,57.457z M53.96,58.789v5.216h1.187c0.444,0,0.765-0.025,0.961-0.076c0.258-0.064,0.472-0.173,0.642-0.327
			s0.309-0.407,0.417-0.76s0.161-0.834,0.161-1.442s-0.054-1.076-0.161-1.402c-0.107-0.325-0.258-0.58-0.451-0.762
			c-0.193-0.184-0.438-0.307-0.736-0.371c-0.222-0.05-0.657-0.075-1.305-0.075H53.96V58.789z"/>
		<path fill="#DB5940" d="M60.32,65.331v-7.874h5.838v1.332H61.91v1.745h3.953v1.327H61.91v2.144h4.399v1.326
			C66.309,65.331,60.32,65.331,60.32,65.331z"/>
		<path fill="#DB5940" d="M75.751,62.437l1.542,0.488c-0.236,0.859-0.629,1.498-1.179,1.915s-1.247,0.626-2.092,0.626
			c-1.045,0-1.905-0.357-2.578-1.072c-0.673-0.714-1.01-1.69-1.01-2.93c0-1.311,0.338-2.328,1.015-3.054
			c0.677-0.725,1.566-1.087,2.669-1.087c0.963,0,1.746,0.284,2.347,0.854c0.358,0.337,0.626,0.82,0.806,1.45l-1.574,0.376
			c-0.093-0.408-0.288-0.73-0.583-0.967c-0.296-0.236-0.655-0.354-1.077-0.354c-0.583,0-1.057,0.21-1.421,0.628
			c-0.363,0.42-0.545,1.098-0.545,2.036c0,0.995,0.179,1.704,0.537,2.127s0.824,0.634,1.396,0.634c0.422,0,0.786-0.135,1.09-0.402
			C75.4,63.435,75.619,63.013,75.751,62.437z"/>
		<path fill="#DB5940" d="M78.335,61.442c0-0.802,0.12-1.476,0.359-2.02c0.18-0.401,0.424-0.761,0.733-1.08
			c0.31-0.318,0.649-0.555,1.018-0.709c0.491-0.207,1.057-0.311,1.697-0.311c1.16,0,2.089,0.359,2.785,1.079
			s1.045,1.721,1.045,3.003c0,1.271-0.346,2.266-1.037,2.983c-0.69,0.718-1.614,1.077-2.771,1.077c-1.171,0-2.102-0.357-2.793-1.072
			C78.681,63.68,78.335,62.695,78.335,61.442z M79.973,61.389c0,0.892,0.206,1.567,0.618,2.027c0.411,0.46,0.935,0.69,1.568,0.69
			s1.153-0.229,1.56-0.685c0.407-0.457,0.61-1.142,0.61-2.055c0-0.902-0.198-1.575-0.594-2.02s-0.921-0.666-1.576-0.666
			s-1.184,0.225-1.585,0.674C80.174,59.805,79.973,60.482,79.973,61.389z"/>
		<path fill="#DB5940" d="M87.229,65.331v-7.874h1.547l3.223,5.259v-5.259h1.477v7.874h-1.595l-3.175-5.135v5.135H87.229z"/>
		<path fill="#DB5940" d="M96.93,65.331v-6.542h-2.337v-1.332h6.258v1.332H98.52v6.542H96.93z"/>
		<path fill="#DB5940" d="M101.876,65.331v-7.874h5.839v1.332h-4.249v1.745h3.953v1.327h-3.953v2.144h4.399v1.326
			C107.865,65.331,101.876,65.331,101.876,65.331z"/>
		<path fill="#DB5940" d="M109.229,65.331v-7.874h1.547l3.223,5.259v-5.259h1.477v7.874h-1.595l-3.175-5.135v5.135H109.229z"/>
		<path fill="#DB5940" d="M117.108,65.331v-7.874h1.59v7.874H117.108z"/>
		<path fill="#DB5940" d="M120.208,57.457h2.905c0.655,0,1.155,0.05,1.499,0.15c0.462,0.136,0.857,0.378,1.187,0.726
			c0.33,0.347,0.58,0.772,0.752,1.275s0.258,1.123,0.258,1.861c0,0.647-0.08,1.206-0.241,1.676
			c-0.197,0.572-0.479,1.036-0.844,1.391c-0.275,0.269-0.647,0.479-1.117,0.629c-0.351,0.11-0.819,0.166-1.407,0.166h-2.991v-7.874
			H120.208z M121.798,58.789v5.216h1.187c0.444,0,0.765-0.025,0.962-0.076c0.258-0.064,0.472-0.173,0.642-0.327
			s0.309-0.407,0.416-0.76s0.161-0.834,0.161-1.442s-0.054-1.076-0.161-1.402c-0.107-0.325-0.258-0.58-0.451-0.762
			c-0.193-0.184-0.438-0.307-0.735-0.371c-0.223-0.05-0.657-0.075-1.306-0.075h-0.715V58.789z"/>
		<path fill="#DB5940" d="M127.835,61.442c0-0.802,0.12-1.476,0.359-2.02c0.18-0.401,0.424-0.761,0.733-1.08
			c0.31-0.318,0.649-0.555,1.018-0.709c0.491-0.207,1.057-0.311,1.697-0.311c1.16,0,2.089,0.359,2.785,1.079
			s1.045,1.721,1.045,3.003c0,1.271-0.346,2.266-1.037,2.983c-0.69,0.718-1.614,1.077-2.771,1.077c-1.171,0-2.102-0.357-2.793-1.072
			C128.181,63.68,127.835,62.695,127.835,61.442z M129.473,61.389c0,0.892,0.206,1.567,0.618,2.027
			c0.411,0.46,0.935,0.69,1.568,0.69s1.153-0.229,1.56-0.685c0.407-0.457,0.61-1.142,0.61-2.055c0-0.902-0.198-1.575-0.594-2.02
			s-0.921-0.666-1.576-0.666s-1.184,0.225-1.585,0.674C129.674,59.805,129.473,60.482,129.473,61.389z"/>
	</g>
	<g id="XMLID_386_">
		<path id="XMLID_387_" fill="#FFFFFF" d="M73.676,7.621v10.153c0,0.622,0.503,1.125,1.125,1.125h3.951v3.055H63.661
			c-0.622,0-1.125,0.503-1.125,1.125v4.015h-3.951c-0.622,0-1.125,0.503-1.125,1.125v10.153c0,0.622,0.503,1.125,1.125,1.125h10.153
			c0.622,0,1.125-0.503,1.125-1.125V28.218c0-0.622-0.503-1.125-1.125-1.125h-3.96v-2.899h13.966v2.899h-3.951
			c-0.622,0-1.125,0.503-1.125,1.125v10.153c0,0.622,0.503,1.125,1.125,1.125h10.152c0.622,0,1.125-0.503,1.125-1.125V28.218
			c0-0.622-0.503-1.125-1.125-1.125h-3.951v-2.899H94.96v2.899h-3.951c-0.622,0-1.125,0.503-1.125,1.125v10.153
			c0,0.622,0.503,1.125,1.125,1.125h10.152c0.622,0,1.125-0.503,1.125-1.125V28.218c0-0.622-0.503-1.125-1.125-1.125H97.21v-4.015
			c0-0.622-0.503-1.125-1.125-1.125H80.993v-3.055h3.951c0.622,0,1.125-0.503,1.125-1.125V7.621c0-0.622-0.503-1.125-1.125-1.125
			H74.792C74.179,6.496,73.676,6.998,73.676,7.621L73.676,7.621z M67.612,37.236H59.71v-7.911h7.903L67.612,37.236L67.612,37.236z
			 M83.819,37.236h-7.912v-7.911h7.912V37.236z M100.027,37.236h-7.903v-7.911h7.911v7.911H100.027z M75.917,8.737h7.912v7.911
			h-7.912V8.737z"/>
	</g>
</g>
</svg>
