<?xml version="1.0" encoding="utf-8"?>
<!-- Generator: Adobe Illustrator 17.0.0, SVG Export Plug-In . SVG Version: 6.00 Build 0)  -->
<!DOCTYPE svg PUBLIC "-//W3C//DTD SVG 1.1//EN" "http://www.w3.org/Graphics/SVG/1.1/DTD/svg11.dtd" [
	<!ENTITY ns_extend "http://ns.adobe.com/Extensibility/1.0/">
	<!ENTITY ns_ai "http://ns.adobe.com/AdobeIllustrator/10.0/">
	<!ENTITY ns_graphs "http://ns.adobe.com/Graphs/1.0/">
	<!ENTITY ns_vars "http://ns.adobe.com/Variables/1.0/">
	<!ENTITY ns_imrep "http://ns.adobe.com/ImageReplacement/1.0/">
	<!ENTITY ns_sfw "http://ns.adobe.com/SaveForWeb/1.0/">
	<!ENTITY ns_custom "http://ns.adobe.com/GenericCustomNamespace/1.0/">
	<!ENTITY ns_adobe_xpath "http://ns.adobe.com/XPath/1.0/">
]>
<svg version="1.1" id="Capa_1" xmlns:x="&ns_extend;" xmlns:i="&ns_ai;" xmlns:graph="&ns_graphs;"
	 xmlns="http://www.w3.org/2000/svg" xmlns:xlink="http://www.w3.org/1999/xlink" x="0px" y="0px" width="155.706px"
	 height="74.254px" viewBox="0 0 155.706 74.254" enable-background="new 0 0 155.706 74.254" xml:space="preserve">
<metadata><?xpacket begin="﻿" id="W5M0MpCehiHzreSzNTczkc9d"?>
<x:xmpmeta xmlns:x="adobe:ns:meta/" x:xmptk="Adobe XMP Core 5.5-c014 79.151739, 2013/04/03-12:12:15        ">
   <rdf:RDF xmlns:rdf="http://www.w3.org/1999/02/22-rdf-syntax-ns#">
      <rdf:Description rdf:about=""
            xmlns:dc="http://purl.org/dc/elements/1.1/"
            xmlns:xmp="http://ns.adobe.com/xap/1.0/"
            xmlns:xmpGImg="http://ns.adobe.com/xap/1.0/g/img/"
            xmlns:xmpMM="http://ns.adobe.com/xap/1.0/mm/"
            xmlns:stRef="http://ns.adobe.com/xap/1.0/sType/ResourceRef#"
            xmlns:stEvt="http://ns.adobe.com/xap/1.0/sType/ResourceEvent#"
            xmlns:illustrator="http://ns.adobe.com/illustrator/1.0/"
            xmlns:xmpTPg="http://ns.adobe.com/xap/1.0/t/pg/"
            xmlns:stDim="http://ns.adobe.com/xap/1.0/sType/Dimensions#"
            xmlns:xmpG="http://ns.adobe.com/xap/1.0/g/"
            xmlns:pdf="http://ns.adobe.com/pdf/1.3/">
         <dc:format>image/svg+xml</dc:format>
         <dc:title>
            <rdf:Alt>
               <rdf:li xml:lang="x-default">Imprimir</rdf:li>
            </rdf:Alt>
         </dc:title>
         <xmp:MetadataDate>2017-10-09T13:06:05-05:00</xmp:MetadataDate>
         <xmp:ModifyDate>2017-10-09T13:06:05-05:00</xmp:ModifyDate>
         <xmp:CreateDate>2017-10-09T13:06:04-05:00</xmp:CreateDate>
         <xmp:CreatorTool>Adobe Illustrator CC (Windows)</xmp:CreatorTool>
         <xmp:Thumbnails>
            <rdf:Alt>
               <rdf:li rdf:parseType="Resource">
                  <xmpGImg:width>256</xmpGImg:width>
                  <xmpGImg:height>124</xmpGImg:height>
                  <xmpGImg:format>JPEG</xmpGImg:format>
                  <xmpGImg:image>/9j/4AAQSkZJRgABAgEASABIAAD/7QAsUGhvdG9zaG9wIDMuMAA4QklNA+0AAAAAABAASAAAAAEA&#xA;AQBIAAAAAQAB/+4ADkFkb2JlAGTAAAAAAf/bAIQABgQEBAUEBgUFBgkGBQYJCwgGBggLDAoKCwoK&#xA;DBAMDAwMDAwQDA4PEA8ODBMTFBQTExwbGxscHx8fHx8fHx8fHwEHBwcNDA0YEBAYGhURFRofHx8f&#xA;Hx8fHx8fHx8fHx8fHx8fHx8fHx8fHx8fHx8fHx8fHx8fHx8fHx8fHx8fHx8f/8AAEQgAfAEAAwER&#xA;AAIRAQMRAf/EAaIAAAAHAQEBAQEAAAAAAAAAAAQFAwIGAQAHCAkKCwEAAgIDAQEBAQEAAAAAAAAA&#xA;AQACAwQFBgcICQoLEAACAQMDAgQCBgcDBAIGAnMBAgMRBAAFIRIxQVEGE2EicYEUMpGhBxWxQiPB&#xA;UtHhMxZi8CRygvElQzRTkqKyY3PCNUQnk6OzNhdUZHTD0uIIJoMJChgZhJRFRqS0VtNVKBry4/PE&#xA;1OT0ZXWFlaW1xdXl9WZ2hpamtsbW5vY3R1dnd4eXp7fH1+f3OEhYaHiImKi4yNjo+Ck5SVlpeYmZ&#xA;qbnJ2en5KjpKWmp6ipqqusra6voRAAICAQIDBQUEBQYECAMDbQEAAhEDBCESMUEFURNhIgZxgZEy&#xA;obHwFMHR4SNCFVJicvEzJDRDghaSUyWiY7LCB3PSNeJEgxdUkwgJChgZJjZFGidkdFU38qOzwygp&#xA;0+PzhJSktMTU5PRldYWVpbXF1eX1RlZmdoaWprbG1ub2R1dnd4eXp7fH1+f3OEhYaHiImKi4yNjo&#xA;+DlJWWl5iZmpucnZ6fkqOkpaanqKmqq6ytrq+v/aAAwDAQACEQMRAD8ATzmH012KuxV2KuxV2Kux&#xA;V2KuxV2KuxV2KuxV2KuxV2KuxV2KuxV2KuxV2KuxV2KuxV2KuxV2KuxV2KuxVF6R/wAdWy/4zxf8&#xA;TGSh9Qas/wBEvcUJkW12KuxV2KuxV2KuxV2KuxV2KuxV2KuxVlXk38vdT8zxy3McyWtlE3pmdwWL&#xA;PQEqqinQEVqcydPpZZN+QdZr+04acgEXI9GT/wDKi7r/AKu8f/Ig/wDNeZP8mn+c67/RFH+Z9v7H&#xA;f8qLuv8Aq7x/8iD/AM14/wAmn+cv+iKP8z7f2O/5UXdf9XeP/kQf+a8f5NP85f8ARFH+Z9v7GJ+c&#xA;PIereWXjeZhc2Uu0d3GCF5fyOD9k+HjmLn00sfPcOz0PaUNQNtpDoxrMd2LsVdirsVdirsVdirsV&#xA;dirsVdirsVdiqL0j/jq2X/GeL/iYyUPqDVn+iXuKEyLa7FXYq7FXYq7FXYq7FXYq7FXYq7FXYq9p&#xA;/Kx3j/L6+kQlXSW5ZWHUERKQRm30R/dH4vIdsi9VEHuj97zH/G/m/wD6vF3/AMjW/rmu/MZP5xej&#xA;/k/B/Mj8nf4383/9Xi7/AORrf1x/MZP5xX+T8H8yPyZL+XPmnzHfec9PtbzUri4tpPW9SGSRmU8Y&#xA;HYVB8CK5kaTNOWQAk/gOu7V0eGGnlKMQDt08w9mv7Cz1Czls7yJZraZeMkbdCP6+BzbyiJCjyeSx&#xA;5JQkJRNEPAPPvkyXyxqaRq/q2F1yezkP2qKRyRv8peQ375otTp/Dl5F7ns3XjUQvlIc2MZjuxdir&#xA;sVdirsVdirsVdirsVdirsVdiqL0j/jq2X/GeL/iYyUPqDVn+iXuKEyLa7FXYq7FXYq7FXYq7FXYq&#xA;7FXYq7FXYq9n/K//AMl3qH/GS5/5NLm30f8Acn4vI9sf43H/ADfvYb+X+ueSdNgu08wWK3M8jKYZ&#xA;ZIVnUIBuoVq8TXevf6MxNLkxxB4w7btPT6nIR4UqHvpkt/5w/KV7KdI9JiMjRsECWccbciNqOAOP&#xA;zrmRLPgrl9jr8eh1wkCZnn/OLy/TNSvdMv4b+ykMV1A3KNxQ02oQQeoINDmthMxNjm9HmxRyRMZC&#xA;wWd6B+anm2913TbKeSEwXN1DDKBEAeEkiq1DXwOZuLW5DIA9S6XU9jYIYpSANiJPPyTL89v+lH/0&#xA;df8AMnLO0v4fj+hx/Zz/ACn+b/vnlGax6d2KuxV2KuxV2KuxV2KuxV2KuxV2KovSP+OrZf8AGeL/&#xA;AImMlD6g1Z/ol7ihMi2uxV2KuxV2KuxV2KuxV2KuxV2KuxV2KvZ/yv8A/Jd6h/xkuf8Ak0ubfR/3&#xA;J+LyPbH+Nx/zfvYf+Xmn+QrqG7PmWVFuFZRBHNK8KcKdQyMlWr2rmJpY4jfG7XtTLqokeCNutC2T&#xA;6jov5MJYXDRTwJII2KNDdSySBqbcULuCfahzJnj09H9brsWo7QMhYNX1iP1PIc1T1SbeUv8AlKtG&#xA;/wCY62/5PLluD64+8OLrf7if9SX3PQfz2/6Uf/R1/wAyczu0v4fj+h0Xs5/lP83/AHzyjNY9O7FX&#xA;Yq7FXYq7FXYq7FXYq7FXYq7FUXpH/HVsv+M8X/ExkofUGrP9EvcUJkW12KuxV2KuxV2KuxV2KuxV&#xA;2KuxV2KuxV7P+V//AJLvUP8AjJc/8mlzb6P+5PxeR7Y/xuP+b97xjNQ9c7FWV6T+WXmzVLCK+t4I&#xA;0t5xyi9WQIzKejU8D2zJho8khYdZm7XwY5GJO48k60D8q/Ntlrum3s8cIgtrqGaUiUE8I5FZqCng&#xA;MuxaLIJAnoXD1PbOCeKUQTZiRy8mW/mj5P1rzH+jP0YsbfVfX9X1HCf3np8aV/1DmVrMEslcPR1f&#xA;Y+ux4OLj/ir7LeN61ouo6NqD2GoRelcRgGlQwKtuGUjYg5qcmMwNF6zT6iGWPFA2EDkG92KuxV2K&#xA;uxV2KuxV2KuxV2KuxVF6R/x1bL/jPF/xMZKH1Bqz/RL3FCZFtdirsVdirsVdirsVdirsVdirsVdi&#xA;rsVez/lf/wCS71D/AIyXP/Jpc2+j/uT8Xke2P8bj/m/e8YzUPXOxV9A3Nlc33k3RILSBLkMlmWid&#xA;mSJoxGCebIGIX5DN6YmWOIG/J4WGQQ1EzI19Xv5oF9GWzureLWLS4vovRmNslmtxMkDvNyEaSLxK&#xA;8VICs/H6KZA46I4gT7rbxn44k4yImxfFwi9udfoFonQtA1ltaS+1ZEeSC3th6soZ5OYR+QRlcJUE&#xA;jmSDU5LHilxXLuDXqdTj8Phx9TLl7xz2+TBPzsp/iu1p/wAsMdf+R0uYPaH1j3frd17P/wBwf65+&#xA;4PPswXeuxV2KuxV2KuxV2KuxV2KuxV2KovSP+OrZf8Z4v+JjJQ+oNWf6Je4oTItrsVdirsVdirsV&#xA;dirsVdirsVdirsVdir2r8qYnm8g3kMYrJJNcIo6fE0SgZuNELxH4vIdsyrVRJ7h97Bv+VS+eP+WO&#xA;P/kdF/zVmF+Ry9zuf5a03877C7/lUvnj/ljj/wCR0X/NWP5HL3L/AC1pv532Fkmk6V+culWSWVoY&#xA;/q0QpEkj278R4AtU0+nMiENREUOXwdfnzdn5ZcUrs/1k20v/AJXD+k7T6/6P1D1o/rdPq9fR5j1K&#xA;cd/s16ZbD8xxC+XwcXN+Q4Dw3xUa+rn0VPzU83a35fOljS5liNz6/rckV68PT4/aBp9o4dbnljrh&#xA;6o7G0WPPx8Yuq/S8b1TVtR1W9e91Cdri6kpykag2GwAAAAHsBmonMyNnm9ZhwwxR4YCghMi2uxV2&#xA;KuxV2KuxV2KuxV2KuxV2KovSP+OrZf8AGeL/AImMlD6g1Z/ol7ihMi2uxV2KuxV2KuxV2KuxV2Ku&#xA;xV2KuxV2Kp95Z87a95cEqafIhhmPKSCVeacgKchuCDTwOX4dRLHycHV9n4tRXGNx1Cff8rn83/yW&#xA;n/Ipv+a8u/lDJ5OF/IOD+l8/2O/5XP5v/ktP+RTf814/yhk8l/kHB/S+f7Hf8rn83/yWn/Ipv+a8&#xA;f5QyeS/yDg/pfP8AY7/lc/m/+S0/5FN/zXj/AChk8l/kHB/S+f7GMeYvMureYL0XepSh3ReEUaDi&#xA;iL1oo+fjvmNlzSyGy7LS6THgjwwCVZW5LsVdirsVdirsVdirsVdirsVdirsVRekf8dWy/wCM8X/E&#xA;xkofUGrP9EvcVX/DvmD/AKtl3/yIk/5pw+FPuLD81i/nR+Yd/h3zB/1bLv8A5ESf804+FPuK/msX&#xA;86PzDv8ADvmD/q2Xf/IiT/mnHwp9xX81i/nR+Yd/h3zB/wBWy7/5ESf804+FPuK/msX86PzDv8O+&#xA;YP8Aq2Xf/IiT/mnHwp9xX81i/nR+Yd/h3zB/1bLv/kRJ/wA04+FPuK/msX86PzDv8O+YP+rZd/8A&#xA;IiT/AJpx8KfcV/NYv50fmHf4d8wf9Wy7/wCREn/NOPhT7iv5rF/Oj8w7/DvmD/q2Xf8AyIk/5px8&#xA;KfcV/NYv50fmHf4d8wf9Wy7/AOREn/NOPhT7iv5rF/Oj8w7/AA75g/6tl3/yIk/5px8KfcV/NYv5&#xA;0fmHf4d8wf8AVsu/+REn/NOPhT7iv5rF/Oj8w7/DvmD/AKtl3/yIk/5px8KfcV/NYv50fmHf4d8w&#xA;f9Wy7/5ESf8ANOPhT7iv5rF/Oj8w7/DvmD/q2Xf/ACIk/wCacfCn3FfzWL+dH5h3+HfMH/Vsu/8A&#xA;kRJ/zTj4U+4r+axfzo/MO/w75g/6tl3/AMiJP+acfCn3FfzWL+dH5h3+HfMH/Vsu/wDkRJ/zTj4U&#xA;+4r+axfzo/MO/wAO+YP+rZd/8iJP+acfCn3FfzWL+dH5h3+HfMH/AFbLv/kRJ/zTj4U+4r+axfzo&#xA;/MO/w75g/wCrZd/8iJP+acfCn3FfzWL+dH5h3+HfMH/Vsu/+REn/ADTj4U+4r+axfzo/MO/w75g/&#xA;6tl3/wAiJP8AmnHwp9xX81i/nR+Yd/h3zB/1bLv/AJESf804+FPuK/msX86PzDv8O+YP+rZd/wDI&#xA;iT/mnHwp9xX81i/nR+Yd/h3zB/1bLv8A5ESf804+FPuK/msX86PzDv8ADvmD/q2Xf/IiT/mnHwp9&#xA;xX81i/nR+Yd/h3zB/wBWy7/5ESf804+FPuK/msX86PzDv8O+YP8Aq2Xf/IiT/mnHwp9xX81i/nR+&#xA;Yd/h3zB/1bLv/kRJ/wA04+FPuK/msX86PzDv8O+YP+rZd/8AIiT/AJpx8KfcV/NYv50fmEVpfl/X&#xA;l1OzZtNulVZ4yzGCQAAONz8OShilxDYtebU4jA+qPI9Q+k86J8+dirsVdirsVdirsVdirsVdirsV&#xA;dirsVdirsVdirsVdirsVdirsVdirsVdirsVdirsVdirsVdirsVdirsVdirsVdirsVdiqSap518r6&#xA;XePZX9+kF0gBeMq5IDCo3VSOhymeohE0Tu5mHs/NkjxRjY+CNsNc0jULJ72yu47i2jBMkkZrx4ip&#xA;5DqNvHJxyRkLB2acmnyQlwyBBSf/AJWV5H/6usf/AAEv/NGU/m8Xe5f8k6n+Z9360xu/NPl6z0+3&#xA;1C5vo4rS6Aa3katXBFaqtOR29sslmgACTsXHho8spmEYkyHNU0bzFomtRu+l3aXIjp6gWoZa9Kqw&#xA;DCvyw48sZ/SbRn0uTCamKQd/568o2F21ndanElwh4ug5PxbuGKBgCPc5CWpxxNEtuPs7POPFGJpO&#xA;oZ4JoUnhkWSCRQ6SoQysp3BBG1MuBBFuJKJBojdBaP5h0bWUlfTLpbpYCFlKhhxJ3H2gOtMhjyxn&#xA;9Jttz6XJirjFWgtQ89eU9OvJbK91BIbqEgSxlZCQSARuFI6HIS1OOJonduxdnZ8kRKMbB9yY6VrO&#xA;latAZ9Ouo7qJTxZozWh60YdR9OWQyRkLBtozYJ4jUxRSu4/MDybb3RtpdViEyni3Hkyg9N3UFfxy&#xA;s6rGDVuRHszUSjxCBpPYJ4Z4UmgkWWGQBo5EIZWU7ggjYjLgb3DhSiYmjsUDo/mLRdZ9b9GXaXX1&#xA;chZuIYcS1adQOvE5DHljP6Tbfn0uTFXGKtB6h568p6deS2V7qCQ3UJAljKyEgkAjcKR0OQlqccTR&#xA;O7bi7Oz5IiUY2D7kw0nW9J1eFptNuo7qNDxcod1J3owO4+nLIZIzFg20ZtPkxGpilHWvMuh6J6P6&#xA;UultvrHL0eSs3LhTl9kN05DBkzRh9Rplp9JkzXwC6do/mfQNYZl0y+juXQcnjUkOBWleLANT6Mce&#xA;aE/pNpz6TLi+uJCXJ+Y/kl3CjVYgT05LIo+8qBlf5vH3t57K1I/gP2JnqfmHRdMsYr+9u0is5mCR&#xA;TirqzMpYUKBuoU5ZPLGIsnZxsOlyZJGMRch0Qen+evKeo3kVlZagk11MSIowsgJIBJ3KgdBkI6nH&#xA;I0Du3Zezs+OJlKNAe5PcvcJ2KuxV2KuxV2KuxV2KuxV2KuxV2KvOUs7S7/OK/iuoI7iL6krcJVV1&#xA;qEi3owIzX8IOoN9zvzOUez4mJIPF+tB29vBpf5h6/p+mIIrGXTXknto6LGjCJWBC/Ntv9bIACOWQ&#xA;jy4W2Ujk0mOc95Cex+P4+SC8jweYH8uQNZ+W9P1G35Scbu4aISMeZqDy32O2Q0wnwbRBbu0JYhlP&#xA;FlnA7bC6Tjzjod3d6nok+nGwOsWcG/l6doyp2LH04yQCBv4dKg7ZdnxkyiRXEP4XE0OojGExPj8O&#xA;R+sX9pQGiajHaalr3r6N+h/NC6dPKggYiBwkYb4IwSqksoaoJrvleOdGVx4Z8Jb9RiMoY6n4mHjA&#xA;358+9H/l95a8sXnkT63qFtDLJdCc3t1KAXQI7LUO1SnFQG2+eWaXDA4rI53bR2nq80dTwwJFVQ/H&#xA;NX8w6lonl38uZIdCuRPb3PK1s5FkEvxSkmWjDpxXl8jhyzjjw1E82GlxZM+rvKKI3O1cuTGfIWpa&#xA;Vofm+zs7G9FzZ6raxRXRHIKl3Tp8QX9sUH+tmPppxhkABsSH2ux7SxTzYJSlGpQkSP6v9n3K+oXl&#xA;1Z+ffMlxDoketJGkbTRycT6ShFPMAqxP0DDKRGWREeJhigJaXEDM4+fx3W6Clwnk7zV5jsjFbDUF&#xA;4RWVqTSBQxD1G3EhZPhp23xx34c5jr0CdSQdRiwys8PU9fxSaWWmaLafl7p8sPl8ay99H/pbwqPW&#xA;RmViz+pxdl4EcRTplkYRGIenitxsmbJLVyByeHwna+XurzcnmjTrD8q5bjTIXs1laSzs4ZJTKweQ&#xA;nkwYhegLNh8YRwXHbop0c560CZ4qqR2r8dyReRtS0rQvNmmw2V4Lm21W1jgv6cgI7pug+IL+3QA+&#xA;5yjTTjDIKNiQ397m9o4p5sEjKNGEiR5x/sROoXVza/mJ5huINGj1oRxK0sEnE+mgSMlwGVqntsMl&#xA;KRGaREeJrxQEtJjBn4e/P57J5+U9st1cat5gjEFtDfOI49Ptz8MXEknktBTqOP05dohZM+V9HD7a&#xA;nwiGI2TH+I9WvzWkMWueVZBam+KTTn6mACZaGH4KEN1+WOtNShtf4C9jC8eUXw7Dfu+pT8t6Jq17&#xA;57h1/wDQn6A0+2hZHgJCmV2RkB4ALv8AF/LTbxwYscjl4+HhDLV6iENMcXieLInn3fj9Kz8sNB0P&#xA;UvJNyNRtIZQ08qvM6LzVQibhyKrTrjo8cZYzYT2vqcmPUDgJGw/SxCe5uJvymgSViyQaz6cFeyfV&#xA;meg/2TtmISTg/wA79DtYwA1xrrj3/wBM9M8sQa42qBtS8r2WlQojNHdwGBnD7AKOBLCoJzY4RLi9&#xA;UBH5PO6yWPg9GWUz3G/0swzLdU7FXYq7FXYq7FXYq7FXYq7FXYq7FWIa1+Xo1HXptat9XutOupkW&#xA;Nvqx4HiqhacgQd+OYmTS8UuIEgu10/afh4hjMIyA70ZoXkfTdIgvuM811e6ghS6vrhucpDAjb76+&#xA;+Tx6YQB6k9WrUdozymOwEY8gOSTWn5XXVnAtvZ+ZdStoFqVihkMaAk1NFVgN8pjoyBQlIOXPtiMz&#xA;csUCfNHat+XcGowae51O6i1bTk9OPVA1ZnFS3xkmtQSaENk56USA3PEOrTh7UOMyHDEwl/D0V/LX&#xA;kW20i/uNTur2bVNTuE9Jrm4NaRmlVAJbrQdT8slh0wgTIniLDV9onLEQjEQgOgSm5/Ka19W4TT9X&#xA;u7DTro1uLCM1jYH9nqu3+sDlR0Q3qRAPRyYdtSoGcIymOUkyl/LvSHOjxJI62GjEvHZkBlldmDM8&#xA;pPUkjwyw6WPp7ouPHtTIOM16snXu9yJ8yeR9K1qC3RKWE9tKJorm3RA4IHToO9D9GSy6eMwOlNek&#xA;7QnhJv1AiqKvpnleGx1/Uda9dpZtRVFliKgKvAAVHzpkoYeGZl3sM2sM8UcdUIITSPImn6XqOozW&#xA;8zHT9TVluNLZQYfi8O/cj5GmQhphEkjkejbn7RnkhEEeqHKXVKT+VfpLLbafr19Z6XMSXsVYlaN1&#xA;FQy7H3HzrlX5KthIiPc5X8s3RnjjKY6o1vyz0f0tKtUnlFjpcpn+rPRxNIxUkyE+PGlAMn+UjsOk&#xA;WkdrZLnKhxTFX3e5G+ZfJGk63ZxQACxlhlEsdzboquCARToNt8nm08ZiuTTpO0MmGRP1AiqKppfl&#xA;OKw8x3uu/WXmuL6NY5Yyqqo4hfiFPHhhhg4ZmV82ObWmeGOKqESp6L5MtdG1291OwuHit77ebT6D&#xA;0g3WqnqKEmnzpgx6cQkZA8+jLUa+WXFGEhZj/F1RGueWINW1TSNQknaJ9JlaWNFAIcsUNGr0/u8l&#xA;kwiUgf5rDT6w4oTgBfGK+/8AWnWXOGwC2/KVbe2azj1+/jsZCfVtYm4RtyFDVQeO/uMwRoaFcRp3&#xA;k+2uI8Rxw4u9NtX/AC90m+8t2ugQSPZ2lpKJkZAHdmCuDyLda+oTluTSxlAQGwDi4O1MkMxyn1Sk&#xA;K+79TKcyXWuxV2KuxV2KuxV2KuxV2KuxV2KuxV2KuxV2KuxV2KuxV2KuxV2KuxV2KuxV2KuxV2Ku&#xA;xV2KuxV2KuxV2KuxV2KuxV2KuxV2KuxV2KuxV2KuxV2KuxV2KuxV2KuxV2KuxV2KuxV2KuxV2Kux&#xA;V2KuxV2KuxV2KuxV2KuxV2KuxV2KuxV2Kv8A/9k=</xmpGImg:image>
               </rdf:li>
            </rdf:Alt>
         </xmp:Thumbnails>
         <xmpMM:InstanceID>xmp.iid:6ed1d3bd-9666-a84e-b0f6-f5cc3ac1ae6f</xmpMM:InstanceID>
         <xmpMM:DocumentID>xmp.did:6ed1d3bd-9666-a84e-b0f6-f5cc3ac1ae6f</xmpMM:DocumentID>
         <xmpMM:OriginalDocumentID>uuid:5D20892493BFDB11914A8590D31508C8</xmpMM:OriginalDocumentID>
         <xmpMM:RenditionClass>proof:pdf</xmpMM:RenditionClass>
         <xmpMM:DerivedFrom rdf:parseType="Resource">
            <stRef:instanceID>xmp.iid:9abfa668-2609-c146-aeb5-945099e7e6e3</stRef:instanceID>
            <stRef:documentID>xmp.did:9abfa668-2609-c146-aeb5-945099e7e6e3</stRef:documentID>
            <stRef:originalDocumentID>uuid:5D20892493BFDB11914A8590D31508C8</stRef:originalDocumentID>
            <stRef:renditionClass>proof:pdf</stRef:renditionClass>
         </xmpMM:DerivedFrom>
         <xmpMM:History>
            <rdf:Seq>
               <rdf:li rdf:parseType="Resource">
                  <stEvt:action>saved</stEvt:action>
                  <stEvt:instanceID>xmp.iid:9abfa668-2609-c146-aeb5-945099e7e6e3</stEvt:instanceID>
                  <stEvt:when>2017-04-11T01:59:07-05:00</stEvt:when>
                  <stEvt:softwareAgent>Adobe Illustrator CC (Windows)</stEvt:softwareAgent>
                  <stEvt:changed>/</stEvt:changed>
               </rdf:li>
               <rdf:li rdf:parseType="Resource">
                  <stEvt:action>saved</stEvt:action>
                  <stEvt:instanceID>xmp.iid:6ed1d3bd-9666-a84e-b0f6-f5cc3ac1ae6f</stEvt:instanceID>
                  <stEvt:when>2017-10-09T13:06:05-05:00</stEvt:when>
                  <stEvt:softwareAgent>Adobe Illustrator CC (Windows)</stEvt:softwareAgent>
                  <stEvt:changed>/</stEvt:changed>
               </rdf:li>
            </rdf:Seq>
         </xmpMM:History>
         <illustrator:StartupProfile>Print</illustrator:StartupProfile>
         <xmpTPg:HasVisibleOverprint>False</xmpTPg:HasVisibleOverprint>
         <xmpTPg:HasVisibleTransparency>True</xmpTPg:HasVisibleTransparency>
         <xmpTPg:NPages>1</xmpTPg:NPages>
         <xmpTPg:MaxPageSize rdf:parseType="Resource">
            <stDim:w>155.705994</stDim:w>
            <stDim:h>74.254028</stDim:h>
            <stDim:unit>Pixels</stDim:unit>
         </xmpTPg:MaxPageSize>
         <xmpTPg:PlateNames>
            <rdf:Seq>
               <rdf:li>Cyan</rdf:li>
               <rdf:li>Magenta</rdf:li>
               <rdf:li>Yellow</rdf:li>
            </rdf:Seq>
         </xmpTPg:PlateNames>
         <xmpTPg:SwatchGroups>
            <rdf:Seq>
               <rdf:li rdf:parseType="Resource">
                  <xmpG:groupName>Grupo de muestras por defecto</xmpG:groupName>
                  <xmpG:groupType>0</xmpG:groupType>
               </rdf:li>
            </rdf:Seq>
         </xmpTPg:SwatchGroups>
         <pdf:Producer>Adobe PDF library 10.01</pdf:Producer>
      </rdf:Description>
   </rdf:RDF>
</x:xmpmeta>
                                                                                                    
                                                                                                    
                                                                                                    
                                                                                                    
                                                                                                    
                                                                                                    
                                                                                                    
                                                                                                    
                                                                                                    
                                                                                                    
                                                                                                    
                                                                                                    
                                                                                                    
                                                                                                    
                                                                                                    
                                                                                                    
                                                                                                    
                                                                                                    
                                                                                                    
                                                                                                    
                           
<?xpacket end="w"?>
	</metadata>
<g>
	
		<rect id="XMLID_281_" x="0.541" y="0" opacity="0.5" fill="#FFFFFF" enable-background="new    " width="154.914" height="74.254"/>
	<rect id="XMLID_266_" x="0" y="0" fill="#DB5940" width="155.336" height="48.154"/>
	<rect id="XMLID_277_" x="0" y="57.455" fill="none" width="155.706" height="13.102"/>
	<g>
		<path fill="#DB5940" d="M30.673,57.457h2.906c0.655,0,1.155,0.05,1.499,0.15c0.462,0.136,0.857,0.378,1.187,0.726
			c0.33,0.347,0.58,0.772,0.752,1.275s0.258,1.123,0.258,1.861c0,0.647-0.081,1.206-0.242,1.676
			c-0.197,0.572-0.478,1.036-0.843,1.391c-0.276,0.269-0.648,0.479-1.117,0.629c-0.351,0.11-0.82,0.166-1.407,0.166h-2.992
			L30.673,57.457L30.673,57.457z M32.263,58.789v5.216h1.187c0.444,0,0.765-0.025,0.961-0.076c0.258-0.064,0.472-0.173,0.642-0.327
			s0.309-0.407,0.417-0.76s0.161-0.834,0.161-1.442s-0.054-1.076-0.161-1.402c-0.107-0.325-0.258-0.58-0.451-0.762
			c-0.193-0.184-0.438-0.307-0.736-0.371c-0.222-0.05-0.657-0.075-1.305-0.075h-0.715V58.789z"/>
		<path fill="#DB5940" d="M38.623,65.331v-7.874h5.838v1.332h-4.249v1.745h3.953v1.327h-3.953v2.144h4.399v1.326
			C44.611,65.331,38.623,65.331,38.623,65.331z"/>
		<path fill="#DB5940" d="M45.557,62.769l1.547-0.15c0.093,0.52,0.282,0.901,0.566,1.145c0.285,0.243,0.669,0.365,1.152,0.365
			c0.512,0,0.898-0.108,1.157-0.325c0.26-0.217,0.39-0.47,0.39-0.76c0-0.187-0.055-0.345-0.164-0.476s-0.3-0.244-0.572-0.341
			c-0.186-0.064-0.61-0.179-1.273-0.344c-0.852-0.211-1.45-0.471-1.794-0.778c-0.483-0.434-0.725-0.962-0.725-1.585
			c0-0.401,0.114-0.776,0.341-1.125c0.227-0.35,0.555-0.615,0.982-0.798c0.428-0.183,0.945-0.273,1.55-0.273
			c0.988,0,1.732,0.216,2.231,0.649c0.5,0.434,0.762,1.012,0.787,1.735l-1.59,0.069c-0.068-0.404-0.214-0.695-0.438-0.873
			c-0.224-0.177-0.56-0.266-1.007-0.266c-0.462,0-0.824,0.095-1.085,0.284c-0.168,0.122-0.252,0.285-0.252,0.489
			c0,0.187,0.079,0.346,0.236,0.478c0.201,0.169,0.688,0.344,1.461,0.527c0.773,0.182,1.346,0.371,1.716,0.566
			c0.371,0.195,0.661,0.462,0.87,0.8c0.21,0.339,0.314,0.757,0.314,1.255c0,0.451-0.125,0.873-0.376,1.268
			c-0.25,0.394-0.605,0.687-1.063,0.878s-1.029,0.287-1.713,0.287c-0.996,0-1.76-0.23-2.293-0.69S45.661,63.649,45.557,62.769z"/>
		<path fill="#DB5940" d="M58.334,62.437l1.542,0.488c-0.236,0.859-0.629,1.498-1.179,1.915s-1.247,0.626-2.092,0.626
			c-1.045,0-1.905-0.357-2.578-1.072c-0.673-0.714-1.01-1.69-1.01-2.93c0-1.311,0.338-2.328,1.015-3.054
			c0.677-0.725,1.566-1.087,2.669-1.087c0.963,0,1.746,0.284,2.347,0.854c0.358,0.337,0.626,0.82,0.806,1.45l-1.574,0.376
			c-0.093-0.408-0.288-0.73-0.583-0.967c-0.296-0.236-0.655-0.354-1.077-0.354c-0.583,0-1.057,0.21-1.421,0.628
			c-0.363,0.42-0.545,1.098-0.545,2.036c0,0.995,0.179,1.704,0.537,2.127s0.824,0.634,1.396,0.634c0.422,0,0.786-0.135,1.09-0.402
			C57.983,63.435,58.202,63.013,58.334,62.437z"/>
		<path fill="#DB5940" d="M68.341,65.331h-1.729l-0.688-1.789h-3.147l-0.65,1.789H60.44l3.067-7.874h1.681L68.341,65.331z
			 M65.414,62.216l-1.085-2.922l-1.063,2.922H65.414z"/>
		<path fill="#DB5940" d="M69.189,65.331v-7.874h3.346c0.841,0,1.453,0.07,1.834,0.212c0.381,0.142,0.687,0.394,0.916,0.755
			s0.344,0.775,0.344,1.241c0,0.59-0.174,1.078-0.521,1.463s-0.867,0.628-1.558,0.729c0.344,0.2,0.627,0.42,0.852,0.66
			c0.224,0.24,0.525,0.666,0.905,1.278l0.961,1.536h-1.901l-1.149-1.713c-0.408-0.613-0.688-0.999-0.838-1.158
			s-0.31-0.269-0.478-0.327c-0.168-0.06-0.435-0.089-0.8-0.089H70.78v3.287C70.78,65.331,69.189,65.331,69.189,65.331z
			 M70.779,60.787h1.176c0.763,0,1.239-0.032,1.429-0.097s0.338-0.176,0.446-0.333s0.161-0.354,0.161-0.591
			c0-0.265-0.071-0.479-0.212-0.642c-0.142-0.163-0.341-0.267-0.599-0.31c-0.129-0.018-0.516-0.026-1.16-0.026h-1.241
			C70.779,58.788,70.779,60.787,70.779,60.787z"/>
		<path fill="#DB5940" d="M80.791,62.437V61.11h3.427v3.137c-0.333,0.322-0.815,0.606-1.447,0.852s-1.272,0.368-1.92,0.368
			c-0.824,0-1.542-0.173-2.154-0.519s-1.072-0.84-1.38-1.482s-0.462-1.342-0.462-2.098c0-0.82,0.172-1.549,0.516-2.187
			c0.344-0.637,0.847-1.126,1.509-1.466c0.505-0.262,1.134-0.392,1.886-0.392c0.978,0,1.741,0.204,2.291,0.614
			c0.549,0.41,0.902,0.977,1.061,1.7l-1.579,0.295c-0.111-0.387-0.319-0.691-0.626-0.915c-0.306-0.224-0.688-0.336-1.146-0.336
			c-0.695,0-1.247,0.22-1.657,0.661c-0.41,0.439-0.615,1.094-0.615,1.96c0,0.935,0.208,1.636,0.623,2.103
			c0.416,0.468,0.96,0.701,1.633,0.701c0.333,0,0.667-0.065,1.002-0.196s0.622-0.289,0.862-0.476v-0.998h-1.824V62.437z"/>
		<path fill="#DB5940" d="M92.785,65.331h-1.729l-0.688-1.789H87.22l-0.65,1.789h-1.687l3.067-7.874h1.681L92.785,65.331z
			 M89.857,62.216l-1.085-2.922l-1.063,2.922H89.857z"/>
		<path fill="#DB5940" d="M93.633,65.331v-7.874h3.346c0.842,0,1.453,0.07,1.835,0.212c0.381,0.142,0.687,0.394,0.915,0.755
			c0.229,0.361,0.344,0.775,0.344,1.241c0,0.59-0.174,1.078-0.521,1.463c-0.348,0.385-0.867,0.628-1.558,0.729
			c0.344,0.2,0.627,0.42,0.852,0.66c0.224,0.24,0.525,0.666,0.904,1.278l0.962,1.536h-1.901l-1.149-1.713
			c-0.408-0.613-0.688-0.999-0.838-1.158s-0.31-0.269-0.479-0.327c-0.168-0.06-0.435-0.089-0.8-0.089h-0.322v3.287
			C95.223,65.331,93.633,65.331,93.633,65.331z M95.223,60.787h1.176c0.763,0,1.239-0.032,1.429-0.097
			c0.19-0.064,0.339-0.176,0.446-0.333s0.161-0.354,0.161-0.591c0-0.265-0.071-0.479-0.212-0.642c-0.142-0.163-0.342-0.267-0.6-0.31
			c-0.129-0.018-0.516-0.026-1.16-0.026h-1.24C95.223,58.788,95.223,60.787,95.223,60.787z"/>
		<path fill="#DB5940" d="M104.627,65.331v-7.874h2.552c0.967,0,1.597,0.039,1.891,0.118c0.451,0.118,0.829,0.375,1.133,0.771
			c0.305,0.396,0.457,0.907,0.457,1.534c0,0.482-0.088,0.89-0.264,1.219c-0.175,0.329-0.398,0.588-0.668,0.776
			c-0.271,0.188-0.546,0.313-0.825,0.373c-0.379,0.075-0.929,0.112-1.648,0.112h-1.037v2.971H104.627z M106.217,58.789v2.234h0.87
			c0.627,0,1.046-0.041,1.257-0.124c0.212-0.082,0.377-0.211,0.497-0.387c0.12-0.175,0.18-0.379,0.18-0.611
			c0-0.287-0.084-0.523-0.252-0.709c-0.169-0.187-0.382-0.303-0.64-0.35c-0.189-0.036-0.571-0.054-1.144-0.054L106.217,58.789
			L106.217,58.789z"/>
		<path fill="#DB5940" d="M111.959,57.457h2.905c0.655,0,1.155,0.05,1.499,0.15c0.462,0.136,0.857,0.378,1.187,0.726
			c0.33,0.347,0.58,0.772,0.752,1.275s0.258,1.123,0.258,1.861c0,0.647-0.08,1.206-0.241,1.676
			c-0.197,0.572-0.479,1.036-0.844,1.391c-0.275,0.269-0.647,0.479-1.117,0.629c-0.351,0.11-0.819,0.166-1.407,0.166h-2.991v-7.874
			H111.959z M113.549,58.789v5.216h1.187c0.444,0,0.765-0.025,0.962-0.076c0.258-0.064,0.472-0.173,0.642-0.327
			s0.309-0.407,0.416-0.76s0.161-0.834,0.161-1.442s-0.054-1.076-0.161-1.402c-0.107-0.325-0.258-0.58-0.451-0.762
			c-0.193-0.184-0.438-0.307-0.735-0.371c-0.223-0.05-0.657-0.075-1.306-0.075h-0.715V58.789z"/>
		<path fill="#DB5940" d="M119.919,65.331v-7.874h5.397v1.332h-3.808v1.864h3.287v1.332h-3.287v3.346H119.919z"/>
	</g>
	<g id="XMLID_167_">
		<path id="XMLID_302_" fill="#FFFFFF" d="M76.332,15.24h-4.789c-0.738,0-1.337,0.598-1.337,1.337s0.598,1.337,1.337,1.337h4.789
			c0.738,0,1.337-0.598,1.337-1.337S77.071,15.24,76.332,15.24z"/>
		<path id="XMLID_297_" fill="#FFFFFF" d="M76.332,20.795h-4.789c-0.738,0-1.337,0.598-1.337,1.337s0.598,1.337,1.337,1.337h4.789
			c0.738,0,1.337-0.598,1.337-1.337S77.071,20.795,76.332,20.795z"/>
		<path id="XMLID_296_" fill="#FFFFFF" d="M81.952,30.154v1.302h0.688c0.834,0,0.834-0.499,0.834-0.663c0-0.158,0-0.639-0.834-0.639
			H81.952L81.952,30.154z"/>
		<path id="XMLID_186_" fill="#FFFFFF" d="M92.105,27.694H89.93V14.145c0-0.351-0.139-0.687-0.387-0.934l-5.247-5.247
			c-0.248-0.248-0.584-0.387-0.934-0.387H67.573c-1.431,0-2.594,1.164-2.594,2.594v27.811c0,1.431,1.164,2.594,2.594,2.594h19.763
			c1.43,0,2.594-1.164,2.594-2.594v-2.678h2.175c1.131,0,2.047-0.917,2.047-2.047V29.74C94.152,28.611,93.236,27.694,92.105,27.694z
			 M87.113,37.688H67.796V10.465h13.731v3.883c0,0.941,0.762,1.703,1.702,1.703h3.884v11.643h-6.61
			c-1.131,0-2.047,0.917-2.047,2.047v3.517c0,1.131,0.917,2.047,2.047,2.047h6.61L87.113,37.688L87.113,37.688z M84.32,30.793
			c0,0.93-0.644,1.508-1.68,1.508h-0.688v0.8c0,0.206-0.167,0.374-0.374,0.374H81.48c-0.207,0-0.374-0.168-0.374-0.374v-3.419
			c0-0.206,0.167-0.374,0.374-0.374h1.159C83.676,29.308,84.32,29.877,84.32,30.793z M86.44,33.475h-1.345
			c-0.207,0-0.374-0.168-0.374-0.374v-3.419c0-0.206,0.167-0.374,0.374-0.374h1.345c1.172,0,2.125,0.936,2.125,2.086
			C88.565,32.542,87.612,33.475,86.44,33.475z M91.8,29.78c0,0.207-0.167,0.374-0.374,0.374h-1.519v0.896h1.294
			c0.206,0,0.374,0.167,0.374,0.374v0.098c0,0.206-0.168,0.374-0.374,0.374h-1.294v1.206c0,0.206-0.167,0.374-0.374,0.374h-0.098
			c-0.207,0-0.374-0.168-0.374-0.374v-3.419c0-0.206,0.167-0.374,0.374-0.374h1.99c0.207,0,0.374,0.168,0.374,0.374L91.8,29.78
			L91.8,29.78z"/>
		<path id="XMLID_185_" fill="#FFFFFF" d="M86.44,30.154h-0.874v2.476h0.874c0.705,0,1.279-0.554,1.279-1.235
			C87.719,30.71,87.145,30.154,86.44,30.154z"/>
	</g>
</g>
</svg>
