<?xml version="1.0" encoding="utf-8"?>
<!-- Generator: Adobe Illustrator 17.0.0, SVG Export Plug-In . SVG Version: 6.00 Build 0)  -->
<!DOCTYPE svg PUBLIC "-//W3C//DTD SVG 1.1//EN" "http://www.w3.org/Graphics/SVG/1.1/DTD/svg11.dtd" [
	<!ENTITY ns_extend "http://ns.adobe.com/Extensibility/1.0/">
	<!ENTITY ns_ai "http://ns.adobe.com/AdobeIllustrator/10.0/">
	<!ENTITY ns_graphs "http://ns.adobe.com/Graphs/1.0/">
	<!ENTITY ns_vars "http://ns.adobe.com/Variables/1.0/">
	<!ENTITY ns_imrep "http://ns.adobe.com/ImageReplacement/1.0/">
	<!ENTITY ns_sfw "http://ns.adobe.com/SaveForWeb/1.0/">
	<!ENTITY ns_custom "http://ns.adobe.com/GenericCustomNamespace/1.0/">
	<!ENTITY ns_adobe_xpath "http://ns.adobe.com/XPath/1.0/">
]>
<svg version="1.1" id="Capa_1" xmlns:x="&ns_extend;" xmlns:i="&ns_ai;" xmlns:graph="&ns_graphs;"
	 xmlns="http://www.w3.org/2000/svg" xmlns:xlink="http://www.w3.org/1999/xlink" x="0px" y="0px" width="453.148px"
	 height="604.674px" viewBox="0 0 453.148 604.674" enable-background="new 0 0 453.148 604.674" xml:space="preserve">
<metadata>
	<sfw  xmlns="&ns_sfw;">
		<slices></slices>
		<sliceSourceBounds  width="453.148" height="907.994" x="315.501" y="-769.402" bottomLeftOrigin="true"></sliceSourceBounds>
	</sfw>
</metadata>
<g>
	<g>
		<defs>
			<rect id="SVGID_1_" x="38.951" y="0" width="385.461" height="604.674"/>
		</defs>
		<clipPath id="SVGID_2_">
			<use xlink:href="#SVGID_1_"  overflow="visible"/>
		</clipPath>
		<g clip-path="url(#SVGID_2_)">
			<path fill="#A66641" d="M46.703,314.44c-0.146,0.532-0.304,1.064-0.475,1.603c0.329-0.855,0.518-1.446,0.48-1.595L46.703,314.44z
				"/>
			<path fill="#A66641" d="M383.344,312.185c-0.147,0.533-0.304,1.065-0.475,1.604c0.327-0.857,0.517-1.445,0.48-1.595
				C383.35,312.193,383.344,312.188,383.344,312.185z"/>
			<path fill="none" d="M235.599,134.802c1.476-0.671,10.502,0.448,9.643,5.767c-0.863,5.317-6.281,3.824-6.281,3.824"/>
			<path fill="none" d="M214.065,146.501c0,0-3.815,3.059-4.659-2.123"/>
			<path fill="none" d="M210.834,139.907c0,0-0.039-2.898,1.497-4.069"/>
			<path fill="none" d="M217.267,133.038c0,0-1.676-1.022-2.73,0.444"/>
			<path fill="none" d="M185.884,185.579c0,0,5.714,29.456,25.107,42.194"/>
			<g>
				<path fill="#EADED4" stroke="#939598" stroke-miterlimit="10" d="M220.296,872.25c0,0-0.494,7.958-7.459,7.461
					c-6.963-0.498-13.429-1.945-16.412,0.023c-2.985,1.967,1.492,9.924-12.436,13.405c-13.928,3.482-42.276,5.486-54.71,2.245
					c-12.435-3.239-23.873-1.347-26.858-10.747c-2.982-9.402-2.856-12.684,4.652-14.873c7.512-2.191,56.613-6.582,56.613-6.582
					l20.303-5.852l35.201-4.533L220.296,872.25z"/>
				<path fill="#E63B17" stroke="#BE1E2D" stroke-miterlimit="10" d="M219.607,860.121c0,0-10.748-3.29-17.714,0.193
					c-6.959,3.479-9.946,15.474-17.903,15.692c-7.956,0.223-22.879,11.164-53.717,4.699c-21.567-3.141-21.354-2.591-24.321-5.09
					c-2.484-3.757,3.435-4.86,3.435-4.86s17.406-9.943,22.879-17.904c5.472-7.956,12.432-18.39,13.926-21.878
					c1.492-3.485,51.731-3.983,51.731-3.983l21.042,13.713l0.314,9.111L219.607,860.121z"/>
			</g>
			<g>
				<path fill="#EADED4" stroke="#939598" stroke-miterlimit="10" d="M259.992,852.796c0,0-5.471,2.807-4.972,10.386
					c0.496,7.578,4.972,16.529,4.972,16.529s1.492,1.099,6.466,3.036c4.973,1.938,12.767,5.419,13.846,8.9
					c1.076,3.482,9.531,16.688,19.975,15.805c10.445-0.885,46.642,0.111,50.428-2.873c3.785-2.985,12.242-4.462,13.236-9.195
					c0.995-4.731,0-11.591,0-12.637c0-1.047-29.134-14.974-32.474-15.969c-3.338-0.993-31.688-11.911-31.688-11.911
					s-29.345-7.485-30.835-7.983C267.452,846.386,259.992,852.796,259.992,852.796z"/>
				<path fill="#E63B17" stroke="#BE1E2D" stroke-miterlimit="10" d="M317.687,836.439c0,0,8.456,20.655,18.402,26.742
					c9.948,6.085,24.373,17.628,27.854,19.565c3.48,1.938-7.461,9.897-19.397,9.398c-11.938-0.497-26.358,2.985-38.794-1.988
					c-12.434-4.975-14.921-5.865-18.401-7.409c-3.484-1.545-8.456-4.682-9.452-7.838c-0.994-3.157-7.956-0.668-11.439-2.659
					c-3.482-1.989-4.475-9.451-6.963-14.921c-2.486-5.471-1.378-10.519,0-11.758c1.375-1.242,8.454-6.148,11.438-8.634
					c2.986-2.489,23.875-9.947,23.875-9.947L317.687,836.439z"/>
			</g>
			<path fill="#939598" d="M219.468,860.901c-8.905-3.279-16.478-0.345-16.688-0.202c-0.934,0.62-3.793,8.38-3.544,10.742
				c0.248,2.363-0.013,6.965-0.013,6.965s10.262,1.065,12.258,1.196c1.996,0.131,7.681,1.168,8.785-7.039
				c1.102-8.21,0.029-0.313,0.029-0.313S219.733,865.18,219.468,860.901z"/>
			<path fill="none" d="M184.87,223.219c-0.977-1.458-2.212-13.62-2.212-13.62"/>
			<path fill="#BE1E2D" d="M204.9,858.767c2.481-1.051,7.08-0.352,9.325-0.073c1.379,0.171,3.424,0.274,5.243,0.709
				c-0.056-0.898-0.09-1.509-0.09-1.637c0-0.686-0.249-10.384-0.249-10.384l-4.475-0.933c0,0-10.446,1.741-10.634,1.741
				c-0.113,0-22.697-20.864-41.545-22.523c-11.718-1.027-23.238,16.841-23.238,16.841s15.609-10.086,33.035-6.768
				c15.836,3.017,33.645,19.404,33.617,20.471C205.859,857.291,205.435,858.122,204.9,858.767z"/>
			<path fill="#BE1E2D" d="M272.175,836.887c0,0-7.782,4.123-10.475,6.711c-2.692,2.588-5.5,2.898-4.989,7.286
				c0.194,1.658,0.495,2.839,0.796,3.671c0.112-0.021,0.234-0.021,0.375,0.035c1.147,0.458,1.364,1.13,1.932,2.164
				c1.174,2.147,1.469,4.861,2.082,7.247c0.349,1.345,0.877,2.599,1.577,3.834c0.599,1.054,1.378,2.671,2.175,3.602
				c1.489,1.733,5.334,1.736,7.834,1.429c0,0-10.323-14.833-7.895-24.685c0.089-0.659,1.329-4.818,7.578-6.357
				c4.918-1.211,14.158,0.267,20.08-0.893c4.486-0.877,8.904-1.664,12.72-2.247c6.214-0.949,11.967-0.094,12.032-0.178
				c0.066-0.087-1.568-4.888-6.149-4.991c-10.814-0.25-30.716,4.197-30.716,4.197S274.363,835.681,272.175,836.887z"/>
			<path fill="#333333" d="M132.493,519.639c-7.096,32.931-7.85,128.858-4.866,146.762c2.983,17.908,0.811,58.308,3.794,71.239
				c2.986,12.934-1.263,28.504,3.215,36.957c4.476,8.456-2.87,17.08-2.371,21.06c0.497,3.977,7.461,4.476,9.946,10.442
				c2.485,5.971-10.445,20.394-8.952,27.356c1.491,6.965,0,10.445,6.961,6.467c6.964-3.977,19.002-9.757,34.866-8.271
				c0,0,12.385,5.654,17.359,9.947c4.972,4.292,12.434,10.758,19.395,10.758c6.964,0,8.955-4.478,8.955-4.478
				s3.756-5.489-1.216-17.433c-4.975-11.944-2.688-10.187-1.196-14.167c1.493-3.98,2.412-13.036,1.912-20.994
				c-0.494-7.956-0.003-11.402,0.99-21.847c0.995-10.444-1.082-37.963-0.088-50.896c0.996-12.93-0.5-35.064-0.5-35.064
				s11.654,54.462,14.034,60.43c2.381,5.969,1.388,21.386,2.878,27.852c1.491,6.468,11.938,24.372,12.933,30.339
				c0.994,5.971,1.492,12.934,1.989,16.912c0.497,3.979-6.963,2.983-5.47,14.921c1.493,11.938,5.493,19.398,5.493,19.398
				l2.883,1.514c0,0,0.377-3.16,2.092-2.685c0,0-0.707-1.781-0.834-3.392c-0.133-1.609,0.313-4.887,0.313-4.887
				s10.94-10.444,13.924-10.941c2.986-0.498,17.41,2.485,23.378,0.497c5.968-1.989,12.434-2.486,15.917-1.989
				c3.48,0.499,7.459,0.994,7.459,0.994s2.488-19.895,0-29.841c-2.486-9.947-7.459-9.45-7.459-15.419
				c0-5.969,3.48-28.847,5.473-33.82c1.986-4.975,5.69-21.884,3.092-33.325c-2.597-11.44,6.487-49.598,6.487-56.563
				c0-6.962,4.57-110.506-1.456-149.564C318.957,486.365,138.518,491.68,132.493,519.639z"/>
			<path fill="none" d="M230.742,239.87c0,0,7.732-10.219,8.159-13.626"/>
			<path fill="#939598" d="M273.719,873.89c-2.125,0.038-3.985-0.11-5.472-0.495c-1.939-0.501-6.014-5.896-6.563-8.44
				c-0.447-2.068-1.792-6.151-2.771-8.021c-0.297-0.566-0.424,0.227-0.998-0.511c-1.205,0.268-3.854,1.413-3.395,6.389
				c0.589,6.4,5.473,16.899,5.473,16.899l12.58,5.703c0,0,2.843-6.71,1.884-8.992C274.282,876.006,273.955,874.822,273.719,873.89z"
				/>
			<path fill="#222222" d="M317.892,724.034c-2.579-11.44,6.441-49.598,6.441-56.563c0-6.962,4.538-110.506-1.446-149.564
				c-0.469-3.083-2.633-5.813-6.118-8.206c-40.913,1.795-141.902,6.183-143.386,5.81c-1.274-0.321-22.812-1.27-36.269-1.837
				c-2.294,1.856-3.76,3.844-4.213,5.965c-7.044,32.931-7.797,128.858-4.834,146.762c2.424,14.648,1.424,44.343,2.6,61.745
				c1.166,6.237,2.015,12.01,2.091,15.874c0.051,0.623,0.096,1.245,0.127,1.869c0.633,3.698,3.331-17.552,3.754-29.907
				c0.465-13.584-0.928-64.638-0.464-75.879c0.464-11.243,6.045-45.604,8.838-55.588c2.79-9.986,0-48.272,0-48.272
				c1.859,1.752,55.603,3.866,66.509,5.376c10.902,1.506,26.975,3.402,38.137,3.402c11.162,0,55.126-6.56,59.189-6.56
				c4.063,0,5.924,84.779,4.528,102.577c-1.395,17.799-5.801,59.484-4.528,69.791c1.272,10.304,1.483,26.229,1.611,34.658
				c0.127,8.433-8.836,20.005-4.523,28.106c1.159,2.179,2.852,3.712,4.761,4.776c1.186-8.416,2.926-17.999,4.122-21.013
				C316.794,752.384,320.471,735.476,317.892,724.034z"/>
			<path fill="#DB5940" d="M385.479,331.848c-3.406-6.388-9.155-9.37-13.627-30.873c-4.47-21.505-11.71-48.33-11.71-51.098
				c0-2.769-1.702-6.814-4.471-8.729c-2.768-1.917-15.971-8.478-19.375-11.16c-3.406-2.679-12.136-6.386-15.543-6.769
				c-3.402-0.382-14.903-2.298-14.903-2.298s4.044-8.376-1.275-11.321c-5.324-2.943-20.931-4.496-26.615-8.917
				c-5.685-4.421-25.122-8.291-25.122-8.291s-9.564,1.899-21.212,3.956c0.21,0.497,0.41,0.997,0.601,1.499
				c-15.182-2.524-29.944-5.454-29.944-5.454s-19.44,3.87-25.123,8.291c-5.683,4.42-21.29,5.974-26.614,8.917
				c-5.324,2.945-1.276,11.321-1.276,11.321s-11.499,1.917-14.904,2.298c-3.406,0.383-12.136,4.09-15.542,6.769
				c-3.406,2.682-16.606,9.243-19.375,11.16c-2.77,1.915-4.471,5.96-4.471,8.729c0,2.768-7.24,29.593-11.711,51.098
				c-4.469,21.503-10.219,24.485-13.624,30.873c-3.409,6.386,5.107,9.792,5.107,9.792c15.971,13.201,51.952,10.009,51.952,10.009
				s0.212,32.785-2.982,47.688c-3.193,14.904-0.426,86.443,0,108.373c0.426,21.93,6.601,18.525,10.221,19.8
				c3.617,1.278,84.737,8.515,97.725,8.727c1.375,0.024,3.572-0.04,6.402-0.174c0.461-0.146,0.581-0.154,0.957-0.748
				c27.725-2.035,79.29-6.793,82.158-7.806c3.617-1.275,9.792,2.13,10.219-19.8c0.425-21.93,3.193-93.469,0-108.373
				c-3.193-14.902-2.979-47.688-2.979-47.688s35.98,3.192,51.948-10.009C380.368,341.64,388.884,338.233,385.479,331.848z"/>
			<path fill="#871826" d="M165.074,214.195c0.235-0.121,8.062-3.684,9.813-4.759c1.75-1.076,5.546-2.433,6.37-2.546
				c0.824-0.112,0.936,0.899,0.936,0.899s-0.448,2.396-1.234,2.959c-0.787,0.563-8.244,4.538-9.76,5.061
				c-1.518,0.52-4.126,2.731-4.994,2.17C165.334,217.415,162.999,215.26,165.074,214.195z"/>
			<path fill="#871826" d="M280.283,228.697c0,0,1.854,1.004,3.46-1.898c1.605-2.902,3.175-4.576,3.175-4.576l0.948-2.359
				c0,0-5.67-3.738-5.81-3.834c-0.143-0.091-3.328-2.194-3.464-2.283c-0.135-0.088-1.442,0-1.442,0S279.557,228.309,280.283,228.697
				z"/>
			<path fill="#FFC691" stroke="#F1B486" stroke-miterlimit="10" d="M275.116,193.694c0,0,3.453,34.924,5.584,35.436
				c0,0-29.656,23.72-33.78,25.426c-4.117,1.703-20.971,11.333-21.82,13.249c-3.712,0.365-8.667-3.61-11.546-5.028
				c-3.877-3.619-12.816-10.603-17.367-14.823c-3.244-3.008-19.174-19.587-20.236-20.013c-1.066-0.427-8.942-10.218-8.942-10.218
				s12.71-5.751,14.339-6.814c1.629-1.064,0.709-20.896,0.709-20.896l29.236-5.29c0,0,36.193,6.813,37.684,6.813
				C250.467,191.534,275.116,193.694,275.116,193.694z"/>
			<path fill="#F1B486" d="M171.567,216.522c0,0,9.032,4.96,13.304,1.546c4.277-3.413,2.033-10.307,2.033-10.307
				s19.889,26.001,43.153,24.143c23.265-1.857,39.565-16.095,42.668-19.43c0,0,2.77,17.167,6.899,17.515
				c0,0,1.976,1.465,0.267-2.215c-1.713-3.685-2.908-20.902-4.003-27.089c-1.095-6.19-6.954-16.875-7.644-17.047
				c-0.689-0.172-80.483-6.508-81.341-6.787c-0.86-0.28-8.27,0-8.27,0s4.46,11.299,4.025,22.395
				c-0.144,3.622,0.605,7.997-0.958,11.136C180.14,213.521,174.281,214.083,171.567,216.522z"/>
			<path fill="none" stroke="#DB5940" stroke-width="2" stroke-linecap="round" stroke-linejoin="round" stroke-miterlimit="10" d="
				M181.292,206.674c0,0-16.695,5.732-17.336,8.072c-0.637,2.343,3.109,6.343,6.175,8.473c3.066,2.13,37.987,38.371,45.927,41.456
				c7.939,3.086,6.341,4.617,12.173,1.137c5.833-3.479,27.323-15.8,31.517-19.01c4.192-3.208,13.352-11.734,16.797-13.061
				c3.45-1.325,8.131-7.071,8.558-8.351c0.425-1.275,4.044-4.683,4.044-4.683l-10.901-7.193"/>
			<g>
				<g>
					<path fill="#FFC691" stroke="#F1B486" stroke-miterlimit="10" d="M176.852,120.628c0,0-0.376-19.568-8.851-18.622
						c-8.474,0.947-10.956,9.547-8.773,15.015c2.184,5.471,6.649,9.057,7.449,10.005c0.803,0.95,0.2,2.556-1.52,3.915
						c-1.721,1.359-5.123,7.306-2.032,11.548c3.092,4.244,10.657-6.263,10.657-6.263L176.852,120.628z"/>
					<path fill="#FFC691" stroke="#F1B486" stroke-linecap="round" stroke-linejoin="round" stroke-miterlimit="10" d="
						M163.288,116.794c0,0,0.404-6.321,3.068-6.755c2.666-0.432,5.869,12.636,5.54,15.924"/>
					<path fill="#FFC691" stroke="#F1B486" stroke-miterlimit="10" d="M282.015,108.057c0,0,4.191-15.35,8.713-16.731
						c4.52-1.382,7.922,14.241,6.364,19.241c-1.563,4.999-4.846,7.475-5.327,8.417c-0.486,0.939-1.271,2.868,0.825,5.078
						c2.094,2.21,6.197,8.878,3.529,11.036c-2.671,2.16-9.408,7.14-11.808,2.999C281.913,133.958,279.416,110.636,282.015,108.057z"
						/>
					<path fill="#FFC691" stroke="#F1B486" stroke-linecap="round" stroke-linejoin="round" stroke-miterlimit="10" d="
						M292.731,106.312c-1.295-0.003-13.348,3.327-5.848,18.678"/>
				</g>
				<path fill="#FFC691" stroke="#F1B486" stroke-miterlimit="10" d="M179.201,105.246c-1.168,9.313-17.507,55.709-16.396,60.897
					c1.111,5.183,44.107,67.575,70.263,60.101c26.157-7.473,58.217-43.963,59.933-48.268c1.716-4.306-1.34-24.739-4.322-41.427
					c-2.983-16.69-10.958-59.134-15.407-68.338c-4.448-9.205-6.44-34.644-50.718-24.76c-44.281,9.885-43.11,35.697-43.11,35.697
					S180.371,95.93,179.201,105.246z"/>
				<g>
					<g>
						<g>
							<path fill="#FFFFFF" d="M211.884,110.732c2.055,2.967,2.61,6.266-0.82,9.07c-6.978,5.69-21.313,7.431-25.384-2.734
								c-2.437-6.084,1.725-11.48,7.31-13.397C200.387,101.13,207.406,104.271,211.884,110.732z"/>
						</g>
						<g>
							<path fill="#FFFFFF" d="M242.171,112.131c-1.729,3.166-1.927,6.509,1.783,8.93c7.542,4.915,21.983,5.116,24.947-5.423
								c1.772-6.309-2.938-11.231-8.697-12.543C252.579,101.359,245.935,105.231,242.171,112.131z"/>
						</g>
					</g>
					<g>
						<circle fill="#574A35" cx="199.233" cy="114.469" r="6.983"/>
						<path fill="#343432" d="M202.258,113.797c-0.371-1.671-2.026-2.725-3.695-2.354c-1.674,0.371-2.728,2.026-2.358,3.697
							c0.373,1.671,2.03,2.725,3.699,2.355C201.575,117.123,202.63,115.468,202.258,113.797z"/>
						<circle fill="#FFFFFF" cx="195.991" cy="110.666" r="3.29"/>
					</g>
					<g>
						<path fill="#574A35" d="M260.847,115.138c0.434-3.834-2.326-7.289-6.158-7.719c-3.832-0.431-7.289,2.328-7.72,6.161
							c-0.43,3.833,2.328,7.288,6.164,7.718C256.962,121.73,260.418,118.969,260.847,115.138z"/>
						<circle fill="#343432" cx="253.909" cy="114.358" r="3.1"/>
						<circle fill="#FFFFFF" cx="252.076" cy="109.709" r="3.291"/>
					</g>
					<path fill="#343432" d="M184.98,113.113c0,0,0.873-7.318,11.842-7.938c10.967-0.619,16.682,9.298,16.682,9.298
						s-2.751-13.274-15.947-11.927C184.364,103.896,184.98,113.113,184.98,113.113z"/>
					<path fill="#343432" d="M269.035,111.613c0,0-1.474-6.541-12.444-5.986c-10.973,0.555-15.774,10.38-15.774,10.38
						s1.323-13.49,14.587-13.558C268.665,102.383,269.035,111.613,269.035,111.613z"/>
					<g>
						<path fill="#343432" d="M189.915,122.294c0,0,0.271,0.174,0.775,0.419c0.508,0.238,1.254,0.527,2.172,0.796
							c0.465,0.111,0.961,0.265,1.504,0.341c0.27,0.044,0.547,0.09,0.83,0.136c0.285,0.028,0.578,0.056,0.875,0.085
							c0.591,0.082,1.211,0.044,1.835,0.072c0.625-0.039,1.262-0.056,1.893-0.134c0.628-0.101,1.267-0.136,1.877-0.287
							c0.608-0.149,1.222-0.242,1.791-0.427c0.573-0.173,1.126-0.34,1.651-0.499c0.512-0.198,0.996-0.386,1.443-0.56
							c0.906-0.321,1.609-0.711,2.127-0.931c0.51-0.236,0.802-0.371,0.802-0.371s-0.281,0.155-0.773,0.427
							c-0.246,0.136-0.546,0.301-0.889,0.49c-0.339,0.201-0.735,0.396-1.185,0.578c-0.443,0.193-0.924,0.401-1.433,0.623
							c-0.526,0.176-1.081,0.362-1.655,0.554c-0.573,0.195-1.194,0.298-1.811,0.457c-0.617,0.16-1.268,0.207-1.906,0.316
							c-0.643,0.071-1.293,0.081-1.929,0.111c-0.637-0.037-1.268-0.007-1.87-0.098c-0.301-0.036-0.598-0.071-0.888-0.105
							c-0.286-0.059-0.567-0.116-0.84-0.172c-0.547-0.1-1.046-0.275-1.512-0.407c-0.922-0.306-1.645-0.673-2.14-0.941
							C190.173,122.487,189.915,122.294,189.915,122.294z"/>
					</g>
					<g>
						<path fill="#343432" d="M265.244,121.284c0,0-0.235,0.219-0.691,0.552c-0.464,0.318-1.143,0.761-2.027,1.164
							c-0.448,0.18-0.927,0.408-1.46,0.566c-0.266,0.084-0.538,0.171-0.816,0.26c-0.285,0.065-0.576,0.132-0.872,0.2
							c-0.589,0.155-1.219,0.192-1.849,0.297c-0.636,0.038-1.283,0.098-1.93,0.095c-0.646-0.04-1.298-0.017-1.929-0.111
							c-0.63-0.092-1.259-0.128-1.851-0.261c-0.591-0.13-1.162-0.256-1.705-0.375c-0.528-0.165-1.029-0.321-1.49-0.466
							c-0.466-0.132-0.881-0.284-1.239-0.448c-0.362-0.152-0.677-0.284-0.936-0.393c-0.519-0.218-0.814-0.342-0.814-0.342
							s0.305,0.103,0.837,0.283c0.538,0.163,1.278,0.477,2.214,0.699c0.463,0.125,0.965,0.259,1.495,0.402
							c0.539,0.102,1.107,0.209,1.696,0.32c0.585,0.123,1.205,0.15,1.826,0.233c0.622,0.085,1.262,0.052,1.896,0.085
							c0.636,0.01,1.272-0.04,1.897-0.068c0.617-0.095,1.238-0.123,1.817-0.268c0.292-0.061,0.579-0.12,0.86-0.178
							c0.277-0.077,0.548-0.151,0.812-0.224c0.531-0.134,1.009-0.339,1.459-0.499c0.884-0.366,1.596-0.732,2.075-1.024
							C264.993,121.486,265.244,121.284,265.244,121.284z"/>
					</g>
				</g>
				<g>
					<path fill="#574A35" stroke="#4C3617" stroke-miterlimit="10" d="M179.201,105.246c0,0,6.088-20.288,12.921-22.045
						c0,0,3.34-3.348-2.464-5.855c-5.8-2.509-7.585-10.847-2.981-15.692c4.606-4.848,8.313-6.059,8.313-6.059
						s20.815,7.817,36.028,1.893c15.214-5.926,25.301-10.612,25.301-10.612s11.714,12.333,10.638,18.978
						c-1.077,6.647-4.055,16.189-6.719,17.054c0,0,12.463,2.504,12.525,16.73c0,0,6.63,8.864,8.188,17.445l3.241-3.549
						c0,0,0.473-2.968,0.362-5.26c-0.019-0.41-2.166-4.935,0.666-10.67c-0.763-7.438-2.213-16.207-5.036-22.036
						c0,0-2.087-14.812-9.681-17.625c0,0-1.077-15.354-13.528-17.645c0,0-61.753,2.278-62.592,2.414
						c-0.841,0.138-18.309,6.859-23.331,12.421c0,0-0.123,21.161,4.478,27.53c4.598,6.371,4.472,12.214,2.713,14.659
						c-1.762,2.442-1.897,17.571-1.897,17.571S179.506,114.465,179.201,105.246z"/>
					<path fill="#574A35" stroke="#4C3617" stroke-miterlimit="10" d="M201.697,16.07c0,0-24.179,11.811-15.12,33.039
						c0,0,7.567,18.665,42.982,10.963c35.419-7.701,26.287-17.433,26.287-17.433s-5.203-12.096-16.649-12.177
						c-11.444-0.081-19.982,4.113-19.982,4.113s10.123-6.393,10.488-10.766c0.369-4.372-21.708,11.08-21.708,11.08
						s11.959-15.318,7.245-17.787c-4.715-2.469-16.166,16.002-16.166,16.002S206.283,17.626,201.697,16.07z"/>
					<path fill="none" stroke="#D69F7B" stroke-linecap="round" stroke-linejoin="round" stroke-miterlimit="10" d="
						M213.311,150.253c0,0-1.91,5.487,0.754,4.623c2.664-0.864,3.618-2.949,3.618-2.949s1.726,5.865,8.965,6.041
						c6.612,0.16,8.024-2.026,8.951-6.059c0.93-4.032,6.35-2.542,5.15-0.622"/>
					<path fill="#574A35" d="M244.9,96.072c0,0,9.123-6.929,13.396-5.372c4.278,1.559,12.037,6.903,12.037,6.903
						s-4.922-10.914-10.805-12.522c-5.88-1.608-16.885,4.584-18.415,6.924C239.586,94.346,240.626,97.103,244.9,96.072z"/>
					<path fill="#574A35" d="M208.862,97.35c0,0-9.116-6.929-13.395-5.371c-4.274,1.558-12.036,6.902-12.036,6.902
						s4.928-10.913,10.804-12.522c5.88-1.607,16.888,4.584,18.416,6.922C214.178,95.624,213.138,98.38,208.862,97.35z"/>
					<g>
						<path fill="none" stroke="#231F20" stroke-linecap="round" stroke-linejoin="round" stroke-miterlimit="10" d="
							M194.683,171.283c0,0,11.534,7.401,27.711,1.778c2.104-0.344,2.571,6.051,6.284,4.585c3.714-1.466,3.105-6.544,4.013-6.261
							c0.911,0.283,6.192,2.814,11.619,3.798c4.477,0.593,11.129,0.065,18.85-4.828"/>
						<path fill="none" stroke="#231F20" stroke-linecap="round" stroke-linejoin="round" stroke-miterlimit="10" d="
							M214.765,183.576c0,0,18.98,5.541,26.937-2.225"/>
						<path fill="none" stroke="#4C3617" stroke-linecap="round" stroke-linejoin="round" stroke-miterlimit="10" d="
							M176.852,194.081"/>
					</g>
					<polygon fill="#231F20" points="272.897,105.382 285.182,108.21 285.182,114.757 274.21,110.589 					"/>
					<path fill="#231F20" d="M226.077,94.751c-34.107,0-51.006,2.764-51.006,2.764l1.539,11.679
						c4.299,25.196,13.825,22.43,20.583,22.43c6.762,0,16.594,3.073,20.895-11.061c4.301-14.137,7.988-14.752,7.988-14.752
						s3.688,0.615,7.99,14.752c4.302,14.134,14.133,11.061,20.893,11.061c6.761,0,16.285,2.766,20.587-22.43l1.537-11.679
						C277.085,97.515,260.187,94.751,226.077,94.751z M216.128,119.222c-4.637,11.282-10.818,10.199-10.818,10.199h-7.42
						c-20.092,0-16.229-17.772-17.002-24.727c-0.773-6.956,17.93-6.802,17.93-6.802s8.037-0.306,15.611,1.235
						C222.003,100.675,220.763,107.939,216.128,119.222z M271.265,104.694c-0.772,6.955,3.091,24.727-17.001,24.727h-7.417
						c0,0-6.184,1.084-10.822-10.199c-4.635-11.283-5.871-18.547,1.7-20.095c7.576-1.541,15.612-1.235,15.612-1.235
						S272.038,97.737,271.265,104.694z"/>
				</g>
				<path fill="none" stroke="#F1B486" stroke-linecap="round" stroke-linejoin="round" stroke-miterlimit="10" d="M242.214,132.692
					c0,0,8.048-1.139,12.747-1.068c4.696,0.071,10.795,0.48,13.044,1.068"/>
				<path fill="none" stroke="#F1B486" stroke-linecap="round" stroke-linejoin="round" stroke-miterlimit="10" d="M210.834,132.692
					c0,0-5.843-0.415-13.057-0.788c-7.217-0.37-14.814,2.36-15.212,2.133"/>
			</g>
			<path fill="#FFC691" stroke="#F1B486" stroke-miterlimit="10" d="M182.389,204.492c0,0-0.225,3.872-0.333,4.458"/>
			<path fill="#FFC691" stroke="#F1B486" stroke-miterlimit="10" d="M276.959,210.382c0,0,0.656,5.145,0.799,6.14"/>
			<path fill="#BC4637" d="M318.66,308.895c-0.498,4.975-0.995,61.177-5.472,72.775c-4.475,11.598,6.964,59.524,7.528,67.98
				c0.565,8.456,3.413,60.681,0,66.646c-3.413,5.97-33.891,3.982-49.306,10.941c-15.42,6.964-41.285,0-52.226,0
				c-10.941,0-49.238-5.967-64.16-10.443c-14.92-4.477-12.434-18.901-17.866-30.339c-5.434-11.438-2.525-57.198-3.273-69.631
				c-0.745-12.435,3.73-56.701,3.234-66.509c-0.498-9.808-6.466-54.89-6.466-54.89l-9.178,55.722
				c2.814-0.099,6.026-0.284,6.026-0.284s0.058,32.7-2.852,47.586c-3.194,14.904-0.704,85.83-0.276,107.761
				c0.425,21.929,5.455,19.505,9.079,20.38c0.282,0.071,0.993,0.335,2.107,0.472c8.242,1.002,37.492,4.082,61.816,6.022
				c15.581,1.244,29.208,2.307,33.893,2.383c1.376,0.025,3.899-0.013,6.726-0.146c0.609-0.164,0.378-0.564,0.615-0.731
				c27.724-2.035,79.377-6.737,82.245-7.748c1.635-0.577,3.85-0.127,5.733-1.697c2.292-1.914,3.876-6.689,4.106-18.729
				c0.311-15.993,1.906-58.2,1.42-85.682c-0.18-10.202-0.789-18.412-1.654-22.445c-3.192-14.903-2.455-47.286-2.455-47.286
				s2.586,0.095,6.707,0.176c-5.896-34.834-12.526-74.616-12.526-74.616S319.156,303.923,318.66,308.895z"/>
			<path fill="none" stroke="#BC4637" stroke-miterlimit="10" d="M321.157,260.522c0,0,6.333,72.388,7.616,91.126"/>
			<path fill="none" stroke="#BC4637" stroke-miterlimit="10" d="M134.15,260.522c0,0-6.173,72.388-7.449,91.126"/>
			<path fill="#18252B" d="M141.647,778.37c0,0-5.251,10.509-6.177,13.905c-0.927,3.397,3.705,2.782,8.029,8.342
				c4.325,5.558,3.709,12.974,0,18.843c-3.705,5.87-9.504,13.594-8.15,15.137c1.355,1.544,13.712-9.652,32.865-7.606
				c19.151,2.046,33.053,20.389,39.848,19.866c6.799-0.523,15.203-3.919,12.234-7.935c-2.963-4.016-4.203-2.471-12.541-3.089
				c-8.342-0.616-21.004-16.372-31.51-16.372c-10.504,0-27.493,3.397-27.493,3.397s11.431-8.339,10.194-14.519
				c-1.234-6.179-4.324-5.869-10.194-13.281C142.884,787.643,141.647,778.37,141.647,778.37z"/>
			<path fill="#18252B" d="M254.989,830.89c0,0-4.297,4.633-2.752,9.268c1.545,4.634,3.705-1.545,10.811-4.635
				c7.104-3.089,14.52-1.543,22.242-3.089c7.725-1.544,21.453-4.324,26.018-4.015c4.566,0.309,8.581-16.373,3.639-22.243
				c-4.943-5.869-8.958-15.753-8.958-15.753c0.31-2.78-5.562,7.414-0.928,13.284c4.633,5.868,10.484,17.298,4.624,17.914
				c-5.859,0.619-15.745,5.485-19.76,5.369c-4.018-0.116-13.9-4.44-21.005-3.206C261.816,825.019,254.989,830.89,254.989,830.89z"/>
			<path fill="#18252B" d="M252.013,793.91c-2.742-3.566-6.175-16.951-8.408-25.426c-2.229-8.475,1.787-13.829,0-21.857
				c-1.783-8.031-5.798-24.086-8.92-30.332c-3.123-6.245-6.247-42.823-8.112-53.976c-1.872-11.151-0.113-80.024-0.113-80.024
				l-4.711,18.469l-3.49-11.793c0,0,0.368,14.021,2.151,17.145c1.783,3.122-3.122,45.499-2.156,52.637
				c0.966,7.136-0.966,51.298,0.005,57.096c0.971,5.801-0.077,46.837,0,61.111c0.032,6.021,0.002,8.861,1.059,10.232
				c0.142-3.609,0.561-7.024,1.14-13.108c0.993-10.444-1.11-37.89-0.117-50.82c0.995-12.931-0.406-38.377-0.406-38.377
				s1.506,2.846,2.549,7.326c3.648,15.684,11.209,51.486,13.061,56.128c1.229,3.083,1.561,8.684,1.794,14.275l11.982,39.711
				C249.32,802.325,254.759,797.479,252.013,793.91z"/>
			<polyline fill="none" stroke="#222222" stroke-linecap="round" stroke-linejoin="round" stroke-miterlimit="10" points="
				220.698,687.479 222.652,595.282 225.909,581.852 			"/>
			<path fill="none" stroke="#222222" stroke-linecap="round" stroke-linejoin="round" stroke-miterlimit="10" d="M213.788,569.588
				c0,0,3.416,18.685,8.714,32.699"/>
			<path fill="#BC4637" d="M181.046,199.452c0,0-2.45,0.976-3.162,1.557c-0.711,0.579-2.504,1.871-3.665,2.215
				c-1.159,0.343-4.48,1.79-8.118,2.714c-3.64,0.922-4.667,1.213-6.066,1.476c-1.396,0.263-5.586,1.451-6.01,1.583
				c-0.42,0.133-3.479,1.08-3.928,1.819c-0.447,0.738-2.451,2.503-1.186,6.986c0,0,1.08,3.137,1.45,3.666l-8.962,1.476
				c0,0-6.064,0.949-6.328,0.975c-0.264,0.026-1.584-0.026-3.638,0.79c-2.056,0.818-5.827,1.953-8.832,3.743
				c-3.005,1.796-4.113,2.849-4.933,3.217c-0.814,0.369-5.875,3.716-7.565,4.377c-1.687,0.659-6.72,3.611-7.433,4.059
				c0,0-2.003,1.198-2.543,1.521c-0.543,0.323-1.837,1.44-2.306,2.27c-0.47,0.829-1.368,2.197-1.511,2.917
				c-0.146,0.72-0.631,2.413-0.566,3.17c0.061,0.756,0,2.451,0,2.451s1.82,4.681,3.379,1.95c1.561-2.73-1.948-4.941,2.6-8.45
				c4.55-3.51,15.73-8.971,17.292-10.012c1.56-1.039,3.406-5.069,7.685-6.759c4.276-1.689,8.825-2.197,12.467-2.919
				c3.64-0.723,9.359-0.852,12.09-2.022c2.73-1.169,2.081-4.767,1.17-6.153c-0.911-1.388-2.845-5.936,0.787-6.846
				c3.633-0.91,10.264-3.38,11.823-3.642c1.561-0.259,6.632-2.667,8.71-3.088c2.08-0.422,5.852-2.111,6.371-2.502"/>
			<path fill="#ED9283" d="M113.386,873.021c0,0,19.378-11.325,21.762-16.598c2.385-5.272,8.548-12.882,11.631-14.6
				c3.082-1.717,19.264-5.827,24.916-2.488c0,0-4.881,5.649-14.386,6.422c-9.505,0.771-15.409,1.398-14.768,7.504
				c0.642,6.108-6.552,16.619-11.175,17.657C126.744,871.955,113.131,875.368,113.386,873.021z"/>
			<path fill="#ED9283" d="M315.523,842.072c0,0,8.939,17.443,16.179,21.727c7.242,4.281,19.93,12.869,22.261,14.64
				c2.334,1.771,11.65,7.571-5.294,8.54c-16.943,0.966-28.182,1.611-30.407,0.353c-2.226-1.258,12.672-1.433,20.358-3.064
				c7.685-1.631,17.205-0.457,13.574-3.497c-3.633-3.041-9.331-7.103-16.044-9.843c-6.708-2.737-16.748-9.297-18.233-13.132
				C316.43,853.958,315.523,842.072,315.523,842.072z"/>
			<path fill="#4C3617" d="M196.68,24.061c-0.056,0-0.265,0.138-0.577,0.406c-2.027,1.728-8.446,8.819-7.381,18.435
				c1.23,11.102,13.594,17.386,30.131,16.324c16.135-1.035,26.946-6.453,30.266-9.734c3.318-3.282,0.984-3.83,0.984-3.83
				s-3.684,2.46-8.74,3.965c-5.061,1.506-13.849,6.102-21.504,5.828c-7.657-0.272-18.918-1.502-22.746-5.742
				c-2.98-3.301-10.369-16.078-0.697-25.514"/>
			<path fill="#4C3617" d="M183.987,50.124c-0.683,0-9.843,4.921-10.252,6.153c-0.413,1.231,0.684,19.689,2.46,22.969
				c1.778,3.281,3.965,6.425,3.965,8.341c0,0,0.735-2.888-1.342-8.896c-2.076-6.007-5.007-19.406-3.746-20.909
				c1.26-1.505,9.904-5.607,9.904-5.607L183.987,50.124z"/>
			<path fill="#4C3617" d="M260.007,42.964c0,0,7.248,4.511,7.383,9.844c0.138,5.332,2.38,7.213,3.447,7.436
				c1.064,0.219,4.347,2.682,5.029,6.099c0.685,3.42,1.219,8.477,1.219,8.477s-2.31-8.202-3.543-10.117
				c-1.23-1.914-6.697-4.512-7.246-7.93c-0.548-3.417-1.914-8.066-2.87-9.024C262.467,46.791,260.007,42.964,260.007,42.964z"/>
			<path fill="#75654E" d="M221.376,38.005c0,0,12.885-7.426,20.312-4.851c7.428,2.577,10.447,8.552,11.362,9.809
				c0,0-5.823-6.475-12.233-6.625C234.411,36.186,221.376,38.005,221.376,38.005z"/>
			<path fill="#75654E" d="M205.202,27.417c0,0,6.562-9.332,9.049-8.823c0,0,1.077,0.734,0.285,2.374c0,0,0.45-1.922-1.133-1.017
				C211.822,20.855,205.202,27.417,205.202,27.417z"/>
			<path fill="#75654E" d="M216.8,31.261c0,0,10.492-6.673,11.324-6.448c0,0-0.354,1.075-0.862,1.641
				c-0.51,0.565-0.173-0.508-0.173-0.508L216.8,31.261z"/>
		</g>
	</g>
	<g>
		<g>
			<g id="Body_3_">
				<g>
					<path fill="#414042" d="M432.037,271.711H20.683c-1.664,0-3.014,1.35-3.014,3.015v249.369h417.387V274.727
						C435.056,273.061,433.706,271.711,432.037,271.711z"/>
				</g>
			</g>
			<g id="Right_6_">
				<g>
					<path fill="#DBDBDB" d="M322.41,284.666c-0.8-1.339-2.732-2.398-4.335-2.398H216.591c-1.602,0-3.412,1.059-4.056,2.398
						l-9.952,20.719h132.211L322.41,284.666z"/>
				</g>
			</g>
			<g id="Close_7_">
				<g>
					<path fill="#B4B4B4" d="M218.198,287.392c-1.057,0-1.91,0.857-1.91,1.91c0,1.053,0.853,1.907,1.91,1.907
						c1.052,0,1.907-0.854,1.907-1.907C220.106,288.249,219.25,287.392,218.198,287.392z M219.201,289.936l-0.575,0.369
						l-0.421-0.505l-0.442,0.505l-0.572-0.369l0.577-0.66l-0.534-0.64l-0.044,0.028l-0.053-0.143l0.096,0.115l0.529-0.341
						l0.432,0.493l0.431-0.493l0.575,0.369l-0.557,0.636L219.201,289.936z"/>
				</g>
			</g>
			<g id="Left_6_">
				<g>
					<path fill="#E6E6E6" d="M202.075,284.666c-0.798-1.339-2.73-2.398-4.33-2.398H96.258c-1.604,0-3.409,1.059-4.055,2.398
						l-9.952,20.719h132.207L202.075,284.666z"/>
				</g>
			</g>
			<g id="Close_5_">
				<g>
					<path fill="#CBCBCB" d="M98.834,287.392c-1.056,0-1.908,0.857-1.908,1.91c0,1.053,0.852,1.907,1.908,1.907
						c1.054,0,1.911-0.854,1.911-1.907C100.745,288.249,99.888,287.392,98.834,287.392z M99.841,289.936l-0.575,0.369l-0.42-0.504
						l-0.441,0.504l-0.575-0.369l0.578-0.66l-0.533-0.64l-0.044,0.028l-0.052-0.143l0.096,0.115l0.531-0.341l0.43,0.492l0.43-0.492
						l0.575,0.369l-0.556,0.636L99.841,289.936z"/>
				</g>
			</g>
			<g id="Background_3_">
				<g>
					<rect x="17.669" y="302.367" fill="#E6E6E6" width="417.387" height="28.395"/>
				</g>
			</g>
			<g id="Left_4_">
				<g>
					<path fill="#CBCBCB" d="M39.495,316.043h-8.92l2.682-2.714c0.248-0.254,0.248-0.659,0-0.908c-0.25-0.256-0.65-0.256-0.896,0
						l-3.289,3.326c-0.223,0.227-0.342,0.528-0.342,0.85v0.188c0,0.32,0.119,0.623,0.342,0.849l3.285,3.329
						c0.246,0.25,0.65,0.25,0.898,0c0.25-0.25,0.25-0.658,0-0.909l-2.68-2.711h8.92c0.354,0,0.632-0.293,0.632-0.649v-0.005
						C40.127,316.332,39.849,316.043,39.495,316.043z"/>
				</g>
			</g>
			<g id="Right_4_">
				<g>
					<path fill="#CBCBCB" d="M64.566,315.747l-3.288-3.326c-0.246-0.256-0.647-0.256-0.896,0c-0.249,0.249-0.249,0.654,0,0.908
						l2.681,2.714h-8.922c-0.35,0-0.629,0.289-0.629,0.646v0.005c0,0.357,0.279,0.649,0.629,0.649h8.923l-2.682,2.711
						c-0.249,0.251-0.249,0.659,0,0.909c0.248,0.25,0.649,0.25,0.896,0l3.288-3.329c0.223-0.226,0.347-0.528,0.347-0.849v-0.188
						C64.912,316.275,64.788,315.974,64.566,315.747z"/>
				</g>
			</g>
			<g id="Refresh_2_">
				<g>
					<path fill="#CBCBCB" d="M89.053,317.3c0-0.165-0.116-0.3-0.269-0.34c-0.04-0.154-0.173-0.27-0.342-0.27
						c-0.198,0-0.355,0.16-0.355,0.359c0,2.042-1.661,3.703-3.701,3.703c-0.952,0-1.814-0.373-2.471-0.968
						c-0.599-0.659-0.975-1.526-0.975-2.485c0-0.932,0.35-1.78,0.919-2.431c0.582-0.55,1.331-0.924,2.17-1.005v0.824
						c0,0.129,0.067,0.246,0.177,0.312c0.057,0.032,0.119,0.046,0.181,0.046c0.062,0,0.125-0.014,0.18-0.046l2.081-1.199
						c0.073-0.044,0.116-0.114,0.144-0.191l0.106-0.062c0.107-0.066,0.177-0.184,0.177-0.313c0-0.125-0.069-0.246-0.177-0.307
						l-0.106-0.061c-0.027-0.078-0.071-0.15-0.144-0.193l-2.081-1.201c-0.111-0.064-0.249-0.064-0.36,0
						c-0.109,0.065-0.177,0.18-0.177,0.312v0.857c-2.268,0.185-4.055,2.09-4.055,4.408c0,0.084,0.02,0.163,0.025,0.246
						c-0.005,0.087-0.025,0.17-0.025,0.258c0,2.436,1.977,4.418,4.412,4.418c1.282,0,2.428-0.558,3.236-1.433
						C88.495,319.73,89.053,318.583,89.053,317.3z"/>
				</g>
			</g>
			<g id="Settings_3_">
				<g>
					<path fill="#CBCBCB" d="M425.633,309.059h-10.056c-0.343,0-0.627,0.281-0.627,0.63v0.25c0,0.346,0.284,0.629,0.627,0.629
						h10.056c0.345,0,0.625-0.283,0.625-0.629v-0.25C426.258,309.34,425.978,309.059,425.633,309.059z M425.633,312.327h-10.056
						c-0.343,0-0.627,0.281-0.627,0.629v0.249c0,0.345,0.284,0.63,0.627,0.63h10.056c0.345,0,0.625-0.285,0.625-0.63v-0.249
						C426.258,312.608,425.978,312.327,425.633,312.327z M425.633,315.593h-10.056c-0.343,0-0.627,0.282-0.627,0.627v0.252
						c0,0.35,0.284,0.627,0.627,0.627h10.056c0.345,0,0.625-0.277,0.625-0.627v-0.252
						C426.258,315.875,425.978,315.593,425.633,315.593z"/>
				</g>
			</g>
			<g id="Adress_2_">
				<g>
					<path fill="#FFFFFF" d="M403.644,309.907H106.122c-0.696,0-1.257,0.563-1.257,1.253v10.558c0,0.694,0.561,1.254,1.257,1.254
						h297.521c0.693,0,1.256-0.56,1.256-1.254V311.16C404.9,310.47,404.337,309.907,403.644,309.907z"/>
				</g>
			</g>
			<text transform="matrix(1 0 0 1 119.1916 318.1992)" fill="#ACACAC" font-family="'OpenSans'" font-size="6.2821">fle:///D:/info.hmtl</text>
			<g id="Icon_2_">
				<g>
					<path fill="#02A916" d="M112.038,317.867v-0.613c0-0.146-0.117-0.264-0.261-0.264c-0.147,0-0.265,0.118-0.265,0.264v0.613
						c-0.155,0.092-0.262,0.261-0.262,0.459c0,0.292,0.236,0.53,0.526,0.53c0.288,0,0.523-0.238,0.523-0.53
						C112.301,318.128,112.197,317.959,112.038,317.867z M113.878,315.654v-1.604c0-1.173-0.941-2.135-2.101-2.135
						c-1.16,0-2.104,0.962-2.104,2.135v1.604c-0.433,0-0.785,0.36-0.785,0.801v3.205c0,0.441,0.353,0.797,0.785,0.797h4.205
						c0.434,0,0.789-0.355,0.789-0.797v-3.205C114.667,316.015,114.312,315.654,113.878,315.654z M110.2,314.05
						c0-0.881,0.707-1.601,1.577-1.601c0.867,0,1.573,0.72,1.573,1.601v1.604h-3.15V314.05z M114.143,319.66
						c0,0.146-0.118,0.266-0.265,0.266h-4.205c-0.141,0-0.262-0.119-0.262-0.266v-3.205c0-0.147,0.121-0.266,0.262-0.266h4.205
						c0.146,0,0.265,0.118,0.265,0.266V319.66z"/>
				</g>
			</g>
			<g id="Ellipse_3_">
				<g>
					<path fill="#DB5940" d="M32.063,283.153c-2.647,0-4.8,2.147-4.8,4.798c0,2.647,2.152,4.797,4.8,4.797
						c2.651,0,4.8-2.15,4.8-4.797C36.863,285.3,34.714,283.153,32.063,283.153z"/>
				</g>
			</g>
			<g id="Ellipse_2_3_">
				<g>
					<path fill="#DB5940" d="M49.654,283.153c-2.65,0-4.8,2.147-4.8,4.798c0,2.647,2.149,4.797,4.8,4.797
						c2.647,0,4.799-2.15,4.799-4.797C54.453,285.3,52.301,283.153,49.654,283.153z"/>
				</g>
			</g>
			<g id="Ellipse_3_3_">
				<g>
					<circle fill="#DB5940" cx="67.244" cy="287.951" r="4.798"/>
				</g>
			</g>
			
				<rect x="17.669" y="330.93" fill="#F7F7F7" stroke="#000000" stroke-width="0.5" stroke-miterlimit="10" width="417.387" height="193.166"/>
		</g>
		<g>
			<path fill="#FABC91" d="M436.281,357.182c0,0,2.853-0.618,3.967,0c1.114,0.621,3.589,1.488,5.203,1.86
				c1.611,0.372,6.19,0,6.813,0.99c0.613,0.988,2.598,2.854-2.602,5.203c-5.203,2.355-9.292,1.486-9.292,1.486
				s-0.992,0.371-1.729,1.365c-0.747,0.986-0.747,1.732-0.747,1.732s5.572,2.232,6.193,2.85c0.62,0.619,5.078,1.361,5.078,3.594
				c0,2.227-0.867,5.326-0.99,5.697c-0.123,0.372,2.227,1.983,2.104,3.964c-0.125,1.981-1.232,4.955-2.227,5.826
				c-0.99,0.862,0.246,4.829-1.118,7.308c-1.364,2.476-2.217,2.6-2.217,2.6s-0.881,7.559-2.984,8.055
				c-2.105,0.492-12.517-1.489-13.135-2.971c-0.622-1.487-0.737-6.07-0.737-6.07s-2.854-4.711-2.854-5.453v-3.468
				c0,0-2.599-4.34-2.599-5.703c0-1.361,2.228-4.333,2.228-4.333s-0.748-3.469-0.748-4.957c0-1.487,3.847-3.469,3.847-3.469
				l8.052,0.125l-0.125-16.507L436.281,357.182z"/>
			<path fill="#CE8452" d="M444.786,383.149h-0.059c-0.095-0.004-10.154-0.719-12.085-0.585c-2.009,0.112-6.675-0.016-6.866-0.016
				c-0.451-0.008-0.807-0.39-0.795-0.835c0.009-0.445,0.376-0.792,0.815-0.792h0.023c0.04,0,4.791,0.136,6.728,0.012
				c2.04-0.083,11.877,0.564,12.297,0.591c0.445,0.027,0.782,0.417,0.747,0.863C445.57,382.819,445.21,383.149,444.786,383.149"/>
			<path fill="#CE8452" d="M445.326,393.554h-0.003c-1.857-0.012-18.186-0.149-20.598-1.047c-0.423-0.154-0.637-0.622-0.487-1.04
				c0.159-0.423,0.653-0.628,1.05-0.482c1.622,0.602,12.881,0.891,20.046,0.938c0.448,0.005,0.808,0.371,0.808,0.821
				C446.132,393.191,445.772,393.554,445.326,393.554"/>
			<path fill="#CE8452" d="M443.095,402.971h-0.064c-0.388-0.034-9.575-0.75-11.915-0.994c-2.386-0.256-3.407-0.506-3.452-0.518
				c-0.434-0.107-0.697-0.546-0.594-0.984c0.102-0.436,0.556-0.692,0.982-0.596c0.012,0,0.992,0.241,3.235,0.48
				c2.317,0.236,11.776,0.976,11.871,0.986c0.452,0.036,0.785,0.424,0.744,0.875C443.873,402.644,443.518,402.971,443.095,402.971"
				/>
		</g>
		<g>
			<path fill="#FABC91" d="M16.868,357.182c0,0-2.849-0.618-3.962,0c-1.116,0.621-3.596,1.488-5.203,1.86
				c-1.613,0.372-6.197,0-6.814,0.99c-0.619,0.988-2.601,2.854,2.599,5.203c5.201,2.355,9.29,1.486,9.29,1.486
				s0.998,0.371,1.74,1.365c0.736,0.986,0.736,1.732,0.736,1.732s-5.567,2.232-6.188,2.85c-0.627,0.619-5.085,1.361-5.085,3.594
				c0,2.227,0.869,5.326,0.996,5.697c0.116,0.372-2.232,1.983-2.103,3.964c0.12,1.981,1.233,4.955,2.219,5.826
				c0.996,0.862-0.243,4.829,1.119,7.308c1.362,2.476,2.217,2.6,2.217,2.6s0.881,7.559,2.986,8.055
				c2.108,0.492,12.52-1.489,13.133-2.971c0.622-1.487,0.748-6.07,0.748-6.07s2.843-4.711,2.843-5.453v-3.468
				c0,0,2.604-4.34,2.604-5.703c0-1.361-2.224-4.333-2.224-4.333s0.739-3.469,0.739-4.957c0-1.487-3.845-3.469-3.845-3.469
				l-8.051,0.125l0.121-16.507L16.868,357.182z"/>
			<path fill="#CE8452" d="M8.366,383.149c-0.425,0-0.791-0.33-0.811-0.762c-0.031-0.446,0.306-0.836,0.748-0.863
				c0.42-0.032,10.249-0.712,12.304-0.591c1.936,0.124,6.674-0.012,6.728-0.012c0.503,0.035,0.821,0.347,0.832,0.792
				c0.01,0.445-0.341,0.821-0.789,0.835c-0.197,0.007-4.863,0.139-6.874,0.016c-1.893-0.131-11.979,0.581-12.082,0.585H8.366"/>
			<path fill="#CE8452" d="M7.825,393.554c-0.447,0-0.813-0.362-0.815-0.811c0-0.45,0.36-0.816,0.813-0.821
				c7.155-0.047,18.415-0.336,20.037-0.938c0.412-0.146,0.89,0.06,1.051,0.482c0.152,0.418-0.059,0.886-0.482,1.04
				c-2.419,0.897-18.742,1.035-20.597,1.047H7.825z"/>
			<path fill="#CE8452" d="M10.058,402.971c-0.422,0-0.784-0.327-0.811-0.75c-0.037-0.451,0.299-0.839,0.742-0.875
				c0.102-0.011,9.561-0.75,11.876-0.992c2.243-0.233,3.222-0.475,3.231-0.475c0.424-0.114,0.88,0.151,0.987,0.596
				c0.106,0.439-0.161,0.877-0.594,0.984c-0.043,0.012-1.072,0.262-3.453,0.512c-2.345,0.25-11.526,0.966-11.917,1H10.058"/>
		</g>
	</g>
	<g>
		<defs>
			<rect id="SVGID_3_" x="100.225" y="341.42" width="250.274" height="171.164"/>
		</defs>
		<clipPath id="SVGID_4_">
			<use xlink:href="#SVGID_3_"  overflow="visible"/>
		</clipPath>
		<path clip-path="url(#SVGID_4_)" fill="#B3AA8D" d="M198.015,430.199c1.184,0,2.143-0.959,2.143-2.143v-5.891
			c0-1.184-0.959-2.143-2.143-2.143h-5.145c-1.26-0.055-2.355-0.876-2.763-2.066l-2.952-7.171c-0.56-1.13-0.367-2.488,0.487-3.418
			l3.621-3.619c0.841-0.831,0.848-2.188,0.018-3.029c-0.006-0.006-0.012-0.013-0.018-0.017l-4.168-4.167
			c-0.83-0.841-2.186-0.85-3.027-0.018c-0.007,0.005-0.014,0.012-0.019,0.018l-3.62,3.62c-0.929,0.854-2.286,1.048-3.416,0.486
			l-7.171-2.993c-1.194-0.412-2.016-1.512-2.073-2.774v-5.113c0-1.184-0.959-2.142-2.141-2.142h-5.892
			c-1.184,0-2.142,0.958-2.142,2.142v5.131c-0.054,1.258-0.867,2.357-2.058,2.772l-7.176,2.952
			c-1.129,0.562-2.489,0.368-3.417-0.487l-3.619-3.621c-0.83-0.844-2.186-0.853-3.029-0.024c-0.008,0.009-0.016,0.017-0.023,0.024
			l-4.166,4.166c-0.842,0.832-0.849,2.188-0.018,3.03c0.006,0.006,0.012,0.011,0.018,0.018l3.604,3.614
			c0.854,0.928,1.053,2.284,0.498,3.416l-2.95,7.172c-0.417,1.189-1.515,2.006-2.774,2.067h-5.14
			c-1.178,0.017-2.126,0.967-2.143,2.142v5.891c0.014,1.177,0.964,2.128,2.143,2.142h5.128c1.262,0.058,2.36,0.876,2.775,2.066
			l2.945,7.188c0.564,1.132,0.373,2.495-0.482,3.428l-3.626,3.625c-0.843,0.83-0.853,2.186-0.023,3.03
			c0.008,0.006,0.015,0.015,0.023,0.022l4.162,4.167c0.847,0.838,2.21,0.838,3.059,0l3.62-3.626c0.93-0.851,2.285-1.043,3.416-0.487
			l7.175,2.95c1.19,0.411,2.007,1.511,2.057,2.768v5.138c0.014,1.175,0.966,2.126,2.143,2.142h5.891c1.184,0,2.142-0.96,2.142-2.142
			v-5.138c0.056-1.261,0.879-2.359,2.073-2.768l7.197-2.935c1.13-0.555,2.486-0.361,3.417,0.488l3.619,3.625
			c0.832,0.84,2.189,0.85,3.029,0.017c0.007-0.005,0.012-0.011,0.018-0.017l4.166-4.167c0.843-0.829,0.855-2.187,0.023-3.029
			c-0.008-0.007-0.015-0.016-0.023-0.022l-3.619-3.626c-0.855-0.926-1.049-2.282-0.486-3.411l2.95-7.171
			c0.407-1.192,1.505-2.013,2.763-2.067L198.015,430.199z M162.671,442.306c-9.503,0.005-17.209-7.697-17.212-17.199
			c-0.003-9.503,7.698-17.209,17.201-17.212c9.503-0.004,17.209,7.697,17.212,17.2c0,9.5-7.696,17.202-17.196,17.211H162.671z"/>
		
			<path clip-path="url(#SVGID_4_)" fill="none" stroke="#414042" stroke-width="1.492" stroke-linecap="round" stroke-linejoin="round" d="
			M198.015,430.199c1.184,0,2.143-0.959,2.143-2.143v-5.891c0-1.184-0.959-2.143-2.143-2.143h-5.145
			c-1.26-0.055-2.355-0.876-2.763-2.066l-2.952-7.171c-0.56-1.13-0.367-2.488,0.487-3.418l3.621-3.619
			c0.841-0.831,0.848-2.188,0.018-3.029c-0.006-0.006-0.012-0.013-0.018-0.017l-4.168-4.167c-0.83-0.841-2.186-0.85-3.027-0.018
			c-0.007,0.005-0.014,0.012-0.019,0.018l-3.62,3.62c-0.929,0.854-2.286,1.048-3.416,0.486l-7.171-2.993
			c-1.194-0.412-2.016-1.512-2.073-2.774v-5.113c0-1.184-0.959-2.142-2.141-2.142h-5.892c-1.184,0-2.142,0.958-2.142,2.142v5.131
			c-0.054,1.258-0.867,2.357-2.058,2.772l-7.176,2.952c-1.129,0.562-2.489,0.368-3.417-0.487l-3.619-3.621
			c-0.83-0.844-2.186-0.853-3.029-0.024c-0.008,0.009-0.016,0.017-0.023,0.024l-4.166,4.166c-0.842,0.832-0.849,2.188-0.018,3.03
			c0.006,0.006,0.012,0.011,0.018,0.018l3.604,3.614c0.854,0.928,1.053,2.284,0.498,3.416l-2.95,7.172
			c-0.417,1.189-1.515,2.006-2.774,2.067h-5.14c-1.178,0.017-2.126,0.967-2.143,2.142v5.891c0.014,1.177,0.964,2.128,2.143,2.142
			h5.128c1.262,0.058,2.36,0.876,2.775,2.066l2.945,7.188c0.564,1.132,0.373,2.495-0.482,3.428l-3.626,3.625
			c-0.843,0.83-0.853,2.186-0.023,3.03c0.008,0.006,0.015,0.015,0.023,0.022l4.162,4.167c0.847,0.838,2.21,0.838,3.059,0l3.62-3.626
			c0.93-0.851,2.285-1.043,3.416-0.487l7.175,2.95c1.19,0.411,2.007,1.511,2.057,2.768v5.138c0.014,1.175,0.966,2.126,2.143,2.142
			h5.891c1.184,0,2.142-0.96,2.142-2.142v-5.138c0.056-1.261,0.879-2.359,2.073-2.768l7.197-2.935
			c1.13-0.555,2.486-0.361,3.417,0.488l3.619,3.625c0.832,0.84,2.189,0.85,3.029,0.017c0.007-0.005,0.012-0.011,0.018-0.017
			l4.166-4.167c0.843-0.829,0.855-2.187,0.023-3.029c-0.008-0.007-0.015-0.016-0.023-0.022l-3.619-3.626
			c-0.855-0.926-1.049-2.282-0.486-3.411l2.95-7.171c0.407-1.192,1.505-2.013,2.763-2.067L198.015,430.199z M162.671,442.306
			c-9.503,0.005-17.209-7.697-17.212-17.199c-0.003-9.503,7.698-17.209,17.201-17.212c9.503-0.004,17.209,7.697,17.212,17.2
			c0,9.5-7.696,17.202-17.196,17.211H162.671z"/>
		<path clip-path="url(#SVGID_4_)" fill="#FFFFFF" d="M279.917,502.204v-68.862c0-2.144-2.394-4.349-4.524-4.349H171.936
			c-2.143,0-4.713,2.218-4.713,4.349v68.862H279.917z M173.804,436.399h99.537v60.856h-99.537V436.399z"/>
		<path clip-path="url(#SVGID_4_)" fill="none" stroke="#414042" stroke-width="1.492" stroke-miterlimit="10" d="M279.918,502.205
			v-68.863c0-2.142-2.395-4.348-4.526-4.348H171.936c-2.143,0-4.713,2.218-4.713,4.348v68.863H279.918z M173.805,436.4h99.537
			v60.855h-99.537V436.4z"/>
		<path clip-path="url(#SVGID_4_)" fill="#FFFFFF" d="M285.07,503.441H154.847c-1.955,0-2.523,1.543-1.269,3.422l0.899,1.35
			c1.523,2.026,3.863,3.277,6.395,3.422h125.616c2.53-0.145,4.87-1.396,6.393-3.422l0.9-1.35c1.252-1.879,0.428-3.422-1.832-3.422
			H285.07z"/>
		<path clip-path="url(#SVGID_4_)" fill="none" stroke="#414042" stroke-width="1.492" stroke-miterlimit="10" d="M285.07,503.441
			H154.847c-1.955,0-2.523,1.543-1.269,3.422l0.899,1.35c1.523,2.026,3.863,3.277,6.395,3.422h125.616
			c2.53-0.145,4.87-1.396,6.393-3.422l0.9-1.35c1.252-1.879,0.428-3.422-1.832-3.422H285.07z"/>
		<path clip-path="url(#SVGID_4_)" fill="#B3AA8D" d="M131.075,345.939H105.37c-2.398,0-4.342,1.946-4.342,4.344v16.601
			c0,2.398,1.943,4.344,4.342,4.344h1.816v6.389c0,0,0.631,2.05,2.211-0.316c0.922-1.382,2.678-4.068,3.968-6.079h17.71
			c2.398,0,4.343-1.943,4.343-4.342v-16.601C135.416,347.881,133.472,345.939,131.075,345.939"/>
		
			<path clip-path="url(#SVGID_4_)" fill="none" stroke="#414042" stroke-width="1.492" stroke-linecap="round" stroke-linejoin="round" d="
			M131.075,345.939H105.37c-2.398,0-4.342,1.946-4.342,4.344v16.601c0,2.398,1.943,4.344,4.342,4.344h1.816v6.389
			c0,0,0.631,2.05,2.211-0.316c0.922-1.382,2.678-4.068,3.968-6.079h17.71c2.398,0,4.343-1.943,4.343-4.342v-16.601
			C135.416,347.881,133.472,345.939,131.075,345.939z"/>
		<path clip-path="url(#SVGID_4_)" fill="#FFFFFF" d="M148.26,354.968h-25.705c-2.398,0-4.342,1.945-4.342,4.344v16.601
			c0,2.399,1.943,4.344,4.342,4.344h17.73c1.302,2.008,3.054,4.695,3.97,6.078c1.578,2.366,2.211,0.316,2.211,0.316v-6.399h1.794
			c2.4,0,4.343-1.944,4.343-4.342v-16.602C152.601,356.91,150.656,354.968,148.26,354.968"/>
		<path clip-path="url(#SVGID_4_)" fill="none" stroke="#414042" stroke-width="1.492" stroke-miterlimit="10" d="M148.26,354.968
			h-25.705c-2.398,0-4.342,1.945-4.342,4.344v16.601c0,2.399,1.943,4.344,4.342,4.344h17.73c1.302,2.008,3.054,4.695,3.97,6.078
			c1.578,2.366,2.211,0.316,2.211,0.316v-6.399h1.794c2.4,0,4.343-1.944,4.343-4.342v-16.602
			C152.601,356.91,150.656,354.968,148.26,354.968z"/>
		<path clip-path="url(#SVGID_4_)" fill="#FFFFFF" d="M339.012,345.565h-29.877c-2.788,0-5.05,2.261-5.05,5.05v19.305
			c0,2.789,2.262,5.05,5.05,5.05h20.602c1.517,2.335,3.546,5.469,4.617,7.07c1.836,2.757,2.571,0.369,2.571,0.369v-7.439h2.087
			c2.789,0,5.05-2.261,5.05-5.05v-19.305C344.062,347.826,341.801,345.565,339.012,345.565"/>
		<path clip-path="url(#SVGID_4_)" fill="none" stroke="#414042" stroke-width="1.492" stroke-miterlimit="10" d="M339.012,345.565
			h-29.877c-2.788,0-5.05,2.261-5.05,5.05v19.305c0,2.789,2.262,5.05,5.05,5.05h20.602c1.517,2.335,3.546,5.469,4.617,7.07
			c1.836,2.757,2.571,0.369,2.571,0.369v-7.439h2.087c2.789,0,5.05-2.261,5.05-5.05v-19.305
			C344.062,347.826,341.801,345.565,339.012,345.565z"/>
		<path clip-path="url(#SVGID_4_)" fill="#FFFFFF" d="M126.567,364.888c1.505,0,2.726,1.22,2.726,2.725
			c0,1.505-1.221,2.725-2.726,2.725s-2.727-1.22-2.727-2.725C123.84,366.107,125.062,364.888,126.567,364.888"/>
		
			<circle clip-path="url(#SVGID_4_)" fill="none" stroke="#414042" stroke-width="1.492" stroke-miterlimit="10" cx="126.567" cy="367.613" r="2.725"/>
		<path clip-path="url(#SVGID_4_)" fill="#FFFFFF" d="M135.418,364.888c1.506,0,2.728,1.22,2.728,2.725
			c0,1.505-1.222,2.725-2.728,2.725c-1.506,0-2.725-1.22-2.725-2.725C132.693,366.107,133.912,364.888,135.418,364.888"/>
		
			<circle clip-path="url(#SVGID_4_)" fill="none" stroke="#414042" stroke-width="1.492" stroke-miterlimit="10" cx="135.418" cy="367.613" r="2.725"/>
		<path clip-path="url(#SVGID_4_)" fill="#FFFFFF" d="M144.271,364.888c1.505,0,2.727,1.22,2.727,2.725
			c0,1.505-1.222,2.725-2.727,2.725s-2.727-1.22-2.727-2.725C141.544,366.107,142.766,364.888,144.271,364.888"/>
		
			<circle clip-path="url(#SVGID_4_)" fill="none" stroke="#414042" stroke-width="1.492" stroke-miterlimit="10" cx="144.271" cy="367.613" r="2.725"/>
		<path clip-path="url(#SVGID_4_)" fill="#FFFFFF" d="M309.939,483.632v23.648c0,1.376,1.114,2.49,2.489,2.49h29.851
			c1.376,0,2.49-1.114,2.49-2.49v-23.648H309.939z"/>
		<path clip-path="url(#SVGID_4_)" fill="none" stroke="#3F3F3E" stroke-width="1.492" stroke-miterlimit="10" d="M309.939,483.632
			v23.648c0,1.376,1.114,2.49,2.489,2.49h29.851c1.376,0,2.49-1.114,2.49-2.49v-23.648H309.939z"/>
		<path clip-path="url(#SVGID_4_)" fill="#B3AA8D" d="M342.279,469.944h-29.85c-1.375,0-2.491,1.116-2.491,2.491v11.202h34.858
			v-11.209c-0.004-1.375-1.121-2.487-2.496-2.484H342.279z"/>
		
			<path clip-path="url(#SVGID_4_)" fill="none" stroke="#3F3F3E" stroke-width="1.492" stroke-linecap="round" stroke-linejoin="round" d="
			M342.279,469.944h-29.85c-1.375,0-2.491,1.116-2.491,2.491v11.202h34.858v-11.209c-0.004-1.375-1.121-2.487-2.496-2.484H342.279z"
			/>
		<path clip-path="url(#SVGID_4_)" fill="#FFFFFF" d="M314.919,473.693h24.891c0.687,0,1.242,0.557,1.242,1.243v4.98
			c0,0.685-0.556,1.242-1.242,1.242h-24.896c-0.686,0-1.241-0.557-1.241-1.242v-4.98
			C313.675,474.249,314.232,473.693,314.919,473.693"/>
		<path clip-path="url(#SVGID_4_)" fill="none" stroke="#3F3F3E" stroke-width="1.492" stroke-miterlimit="10" d="M314.919,473.693
			h24.891c0.687,0,1.242,0.557,1.242,1.243v4.98c0,0.685-0.556,1.242-1.242,1.242h-24.896c-0.686,0-1.241-0.557-1.241-1.242v-4.98
			C313.675,474.249,314.232,473.693,314.919,473.693z"/>
		<path clip-path="url(#SVGID_4_)" fill="#FFFFFF" d="M317.409,486.123h-2.49c-0.688,0.002-1.243,0.561-1.243,1.247v2.484
			c0,0.688,0.556,1.245,1.243,1.249h2.49c0.688-0.004,1.242-0.561,1.242-1.249v-2.484
			C318.652,486.684,318.097,486.125,317.409,486.123 M317.409,493.593h-2.49c-0.685,0.003-1.24,0.558-1.243,1.244v2.488
			c0,0.688,0.556,1.246,1.243,1.248h2.49c0.688-0.002,1.242-0.56,1.242-1.248v-2.488c0-0.689-0.555-1.247-1.242-1.249V493.593z
			 M317.409,501.063h-2.49c-0.686,0-1.243,0.556-1.243,1.242v2.491c-0.003,0.685,0.551,1.244,1.237,1.246h0.006h2.49
			c0.688-0.002,1.242-0.561,1.242-1.246v-2.491c0.004-0.686-0.551-1.244-1.236-1.247h-0.006V501.063z M324.879,486.123h-2.489
			c-0.688,0.002-1.242,0.561-1.242,1.247v2.484c0,0.688,0.555,1.245,1.242,1.249h2.489c0.688-0.004,1.243-0.561,1.243-1.249v-2.484
			c0-0.689-0.559-1.247-1.248-1.247H324.879z M324.879,493.593h-2.489c-0.687,0-1.242,0.558-1.242,1.244v2.488
			c0,0.688,0.555,1.246,1.242,1.248h2.489c0.688-0.002,1.243-0.56,1.243-1.248v-2.488c0.003-0.687-0.551-1.247-1.238-1.249h-0.01
			L324.879,493.593z M324.879,501.063h-2.489c-0.687,0-1.242,0.556-1.242,1.242v2.491c-0.004,0.685,0.551,1.244,1.236,1.246h0.006
			h2.489c0.686,0,1.243-0.555,1.243-1.241v-0.005v-2.491c0.003-0.686-0.551-1.244-1.238-1.247h-0.01L324.879,501.063z
			 M332.345,486.123h-2.49c-0.688,0.002-1.242,0.561-1.242,1.247v2.484c0,0.688,0.555,1.245,1.242,1.249h2.49
			c0.687-0.004,1.242-0.561,1.242-1.249v-2.484C333.587,486.684,333.032,486.125,332.345,486.123 M332.345,493.593h-2.49
			c-0.686,0.005-1.239,0.558-1.242,1.244v2.488c0,0.688,0.555,1.246,1.242,1.248h2.49c0.687-0.002,1.242-0.56,1.242-1.248v-2.488
			c0-0.689-0.555-1.247-1.242-1.249V493.593z M332.345,501.063h-2.49c-0.687,0-1.242,0.556-1.242,1.242v2.491
			c0,0.686,0.555,1.244,1.242,1.246h2.49c0.687-0.002,1.242-0.561,1.242-1.246v-2.491c0.003-0.686-0.551-1.244-1.236-1.247h-0.006
			V501.063z M339.816,486.123h-2.49c-0.688,0.002-1.243,0.561-1.243,1.247v2.484c0,0.688,0.555,1.245,1.243,1.249h2.49
			c0.687-0.004,1.242-0.561,1.242-1.249v-2.484C341.058,486.684,340.502,486.125,339.816,486.123"/>
		<path clip-path="url(#SVGID_4_)" fill="none" stroke="#414042" stroke-width="1.492" stroke-miterlimit="10" d="M317.409,486.123
			h-2.49c-0.688,0.002-1.243,0.561-1.243,1.247v2.484c0,0.688,0.556,1.245,1.243,1.249h2.49c0.688-0.004,1.242-0.561,1.242-1.249
			v-2.484C318.652,486.684,318.097,486.125,317.409,486.123z M317.409,493.593h-2.49c-0.685,0.003-1.24,0.558-1.243,1.244v2.488
			c0,0.688,0.556,1.246,1.243,1.248h2.49c0.688-0.002,1.242-0.56,1.242-1.248v-2.488c0-0.689-0.555-1.247-1.242-1.249V493.593z
			 M317.409,501.063h-2.49c-0.686,0-1.243,0.556-1.243,1.242v2.491c-0.003,0.685,0.551,1.244,1.237,1.246h0.006h2.49
			c0.688-0.002,1.242-0.561,1.242-1.246v-2.491c0.004-0.686-0.551-1.244-1.236-1.247h-0.006V501.063z M324.879,486.123h-2.489
			c-0.688,0.002-1.242,0.561-1.242,1.247v2.484c0,0.688,0.555,1.245,1.242,1.249h2.489c0.688-0.004,1.243-0.561,1.243-1.249v-2.484
			c0-0.689-0.559-1.247-1.248-1.247H324.879z M324.879,493.593h-2.489c-0.687,0-1.242,0.558-1.242,1.244v2.488
			c0,0.688,0.555,1.246,1.242,1.248h2.489c0.688-0.002,1.243-0.56,1.243-1.248v-2.488c0.003-0.687-0.551-1.247-1.238-1.249h-0.01
			L324.879,493.593z M324.879,501.063h-2.489c-0.687,0-1.242,0.556-1.242,1.242v2.491c-0.004,0.685,0.551,1.244,1.236,1.246h0.006
			h2.489c0.686,0,1.243-0.555,1.243-1.241v-0.005v-2.491c0.003-0.686-0.551-1.244-1.238-1.247h-0.01L324.879,501.063z
			 M332.345,486.123h-2.49c-0.688,0.002-1.242,0.561-1.242,1.247v2.484c0,0.688,0.555,1.245,1.242,1.249h2.49
			c0.687-0.004,1.242-0.561,1.242-1.249v-2.484C333.587,486.684,333.032,486.125,332.345,486.123z M332.345,493.593h-2.49
			c-0.686,0.005-1.239,0.558-1.242,1.244v2.488c0,0.688,0.555,1.246,1.242,1.248h2.49c0.687-0.002,1.242-0.56,1.242-1.248v-2.488
			c0-0.689-0.555-1.247-1.242-1.249V493.593z M332.345,501.063h-2.49c-0.687,0-1.242,0.556-1.242,1.242v2.491
			c0,0.686,0.555,1.244,1.242,1.246h2.49c0.687-0.002,1.242-0.561,1.242-1.246v-2.491c0.003-0.686-0.551-1.244-1.236-1.247h-0.006
			V501.063z M339.816,486.123h-2.49c-0.688,0.002-1.243,0.561-1.243,1.247v2.484c0,0.688,0.555,1.245,1.243,1.249h2.49
			c0.687-0.004,1.242-0.561,1.242-1.249v-2.484C341.058,486.684,340.502,486.125,339.816,486.123z"/>
		<path clip-path="url(#SVGID_4_)" fill="#B3AA8D" d="M337.32,493.588h2.49c0.687,0,1.242,0.557,1.242,1.241v9.956
			c0,0.689-0.559,1.247-1.248,1.247h-2.49c-0.686,0-1.241-0.555-1.241-1.241v-9.962c0-0.685,0.556-1.241,1.241-1.241H337.32z"/>
		
			<path clip-path="url(#SVGID_4_)" fill="none" stroke="#3F3F3E" stroke-width="1.492" stroke-linecap="round" stroke-linejoin="round" d="
			M337.32,493.588h2.49c0.687,0,1.242,0.557,1.242,1.241v9.956c0,0.689-0.559,1.247-1.248,1.247h-2.49
			c-0.686,0-1.241-0.555-1.241-1.241v-9.962c0-0.685,0.556-1.241,1.241-1.241H337.32z"/>
		<path clip-path="url(#SVGID_4_)" fill="#FFFFFF" d="M225.97,381.134c-9.07,0-16.426,7.354-16.426,16.425
			c0,4.868,2.16,9.485,5.896,12.606l2.597-5.457c-4.298-4.3-4.296-11.272,0.004-15.57c1.888-1.887,4.393-3.023,7.056-3.2
			l-4.563,9.527l9.768,4.674l4.563-9.526c3.488,4.981,2.279,11.847-2.703,15.334c-2.175,1.524-4.83,2.211-7.473,1.932l-2.677,5.602
			c8.8,2.193,17.71-3.161,19.901-11.961c2.194-8.799-3.16-17.709-11.961-19.902c-1.299-0.324-2.633-0.487-3.973-0.487
			L225.97,381.134z"/>
		<path clip-path="url(#SVGID_4_)" fill="none" stroke="#3F3F3E" stroke-width="1.492" stroke-miterlimit="10" d="M225.97,381.134
			c-9.07,0-16.426,7.354-16.426,16.425c0,4.868,2.16,9.485,5.896,12.606l2.597-5.457c-4.298-4.3-4.296-11.272,0.004-15.57
			c1.888-1.887,4.393-3.023,7.056-3.2l-4.563,9.527l9.768,4.674l4.563-9.526c3.488,4.981,2.279,11.847-2.703,15.334
			c-2.175,1.524-4.83,2.211-7.473,1.932l-2.677,5.602c8.8,2.193,17.71-3.161,19.901-11.961c2.194-8.799-3.16-17.709-11.961-19.902
			c-1.299-0.324-2.633-0.487-3.973-0.487L225.97,381.134z"/>
		<path clip-path="url(#SVGID_4_)" fill="#DB5940" d="M235.796,401.693c1.717-3.588,1.365-7.819-0.916-11.075l-4.563,9.526
			l-9.768-4.675l4.563-9.526c-6.067,0.397-10.664,5.637-10.268,11.706c0.174,2.662,1.31,5.171,3.193,7.059l-2.612,5.458
			c1.905,1.589,4.149,2.725,6.559,3.318l2.678-5.602C229.313,408.393,233.775,405.911,235.796,401.693"/>
		
			<path clip-path="url(#SVGID_4_)" fill="none" stroke="#414042" stroke-width="1.492" stroke-linecap="round" stroke-linejoin="round" d="
			M235.796,401.693c1.717-3.588,1.365-7.819-0.916-11.075l-4.563,9.526l-9.768-4.675l4.563-9.526
			c-6.067,0.397-10.664,5.637-10.268,11.706c0.174,2.662,1.31,5.171,3.193,7.059l-2.612,5.458c1.905,1.589,4.149,2.725,6.559,3.318
			l2.678-5.602C229.313,408.393,233.775,405.911,235.796,401.693z"/>
		
			<path clip-path="url(#SVGID_4_)" fill="none" stroke="#414042" stroke-width="1.492" stroke-miterlimit="10" stroke-dasharray="1.492,1.492" d="
			M210.354,392.455h-5.891c-5.677,0-5.248,5.248-5.248,5.248v4.386v0.835v4.364c0,0,0.429,5.249-5.249,5.249h-5.793"/>
		
			<path clip-path="url(#SVGID_4_)" fill="none" stroke="#414042" stroke-width="1.492" stroke-miterlimit="10" stroke-dasharray="1.492,1.492" d="
			M238.56,407.713v5.89c0,5.678,5.248,5.248,5.248,5.248h4.386h0.835h4.386c0,0,5.248-0.428,5.248,5.248v5.768"/>
		
			<path clip-path="url(#SVGID_4_)" fill="none" stroke="#414042" stroke-width="1.492" stroke-miterlimit="10" stroke-dasharray="1.492,1.492" d="
			M167.796,474.609h-13.169c-5.675,0-5.248,5.248-5.248,5.248v4.385v0.836v4.388c0,0,0.429,5.246-5.247,5.246h-13.186"/>
		
			<path clip-path="url(#SVGID_4_)" fill="none" stroke="#414042" stroke-width="1.492" stroke-miterlimit="10" stroke-dasharray="1.492,1.492" d="
			M321.302,375.869v15.221c0,5.677,5.249,5.249,5.249,5.249h4.386l2.811,0.058h4.386c0,0,5.247-0.429,5.247,5.248v11.915
			c0,0,0.431,5.249-5.247,5.249h-24.773"/>
		
			<path clip-path="url(#SVGID_4_)" fill="none" stroke="#414042" stroke-width="1.492" stroke-miterlimit="10" stroke-dasharray="1.492,1.492" d="
			M123.531,380.808v15.236c0,5.675-5.248,5.246-5.248,5.246h-4.387l-2.812,0.06h-4.386c0,0-5.248-0.428-5.248,5.248v28.384
			c0,0-0.429,5.247,5.248,5.247h30.819"/>
		
			<circle clip-path="url(#SVGID_4_)" fill="none" stroke="#DB5940" stroke-width="1.492" stroke-miterlimit="10" cx="182.464" cy="383.865" r="1.987"/>
		
			<circle clip-path="url(#SVGID_4_)" fill="none" stroke="#DB5940" stroke-width="1.492" stroke-miterlimit="10" cx="197.277" cy="383.865" r="1.987"/>
		
			<circle clip-path="url(#SVGID_4_)" fill="none" stroke="#DB5940" stroke-width="1.492" stroke-miterlimit="10" cx="272.661" cy="346.213" r="1.986"/>
		
			<circle clip-path="url(#SVGID_4_)" fill="none" stroke="#DB5940" stroke-width="1.492" stroke-miterlimit="10" cx="287.474" cy="346.213" r="1.986"/>
		
			<circle clip-path="url(#SVGID_4_)" fill="none" stroke="#DB5940" stroke-width="1.492" stroke-miterlimit="10" cx="121.758" cy="509.771" r="1.987"/>
		
			<circle clip-path="url(#SVGID_4_)" fill="none" stroke="#DB5940" stroke-width="1.492" stroke-miterlimit="10" cx="136.57" cy="509.771" r="1.987"/>
		
			<circle clip-path="url(#SVGID_4_)" fill="none" stroke="#DB5940" stroke-width="1.492" stroke-miterlimit="10" cx="103.035" cy="458.142" r="1.987"/>
		
			<circle clip-path="url(#SVGID_4_)" fill="none" stroke="#DB5940" stroke-width="1.492" stroke-miterlimit="10" cx="117.849" cy="458.142" r="1.987"/>
		
			<circle clip-path="url(#SVGID_4_)" fill="none" stroke="#DB5940" stroke-width="1.492" stroke-miterlimit="10" cx="347.688" cy="429.111" r="1.986"/>
		
			<circle clip-path="url(#SVGID_4_)" fill="none" stroke="#DB5940" stroke-width="1.492" stroke-miterlimit="10" cx="347.688" cy="443.924" r="1.986"/>
		
			<circle clip-path="url(#SVGID_4_)" fill="none" stroke="#DB5940" stroke-width="1.492" stroke-miterlimit="10" cx="158.826" cy="344.232" r="1.987"/>
		
			<circle clip-path="url(#SVGID_4_)" fill="none" stroke="#DB5940" stroke-width="1.492" stroke-miterlimit="10" cx="296.064" cy="474.341" r="1.987"/>
		
			<circle clip-path="url(#SVGID_4_)" fill="none" stroke="#DB5940" stroke-width="1.492" stroke-miterlimit="10" cx="296.064" cy="489.153" r="1.986"/>
		<rect x="174.057" y="436.973" clip-path="url(#SVGID_4_)" fill="#F4EDE2" width="99.246" height="61.006"/>
		
			<rect x="174.057" y="436.973" clip-path="url(#SVGID_4_)" fill="none" stroke="#3F3F3E" stroke-width="1.492" stroke-linecap="round" stroke-linejoin="round" width="99.246" height="61.007"/>
		<polygon clip-path="url(#SVGID_4_)" fill="#FFFFFF" points="308.633,444.989 308.633,444.989 258.662,444.989 258.662,386.138 
			308.633,386.138 		"/>
		<polygon clip-path="url(#SVGID_4_)" fill="none" stroke="#3F3F3E" stroke-width="1.492" stroke-miterlimit="10" points="
			308.633,444.989 308.633,444.989 258.662,444.989 258.662,386.138 308.633,386.138 		"/>
		<path clip-path="url(#SVGID_4_)" fill="#FFFFFF" d="M304.963,448.476h-42.306c-4.09-0.004-7.405-3.317-7.412-7.406v-51.513
			c0.007-4.09,3.322-7.401,7.412-7.405h42.306c4.091,0.004,7.405,3.315,7.413,7.405v51.508
			C312.373,445.156,309.056,448.472,304.963,448.476 M262.636,386.404c-1.753,0.002-3.173,1.423-3.175,3.175v51.507
			c0.002,1.751,1.422,3.172,3.175,3.174h42.307c1.752-0.002,3.172-1.423,3.176-3.174v-51.529c-0.016-1.734-1.418-3.139-3.155-3.152
			H262.636z"/>
		<path clip-path="url(#SVGID_4_)" fill="none" stroke="#414042" stroke-width="1.492" stroke-miterlimit="10" d="M304.963,448.476
			h-42.306c-4.09-0.004-7.405-3.317-7.412-7.406v-51.513c0.007-4.09,3.322-7.401,7.412-7.405h42.306
			c4.091,0.004,7.405,3.315,7.413,7.405v51.508C312.373,445.156,309.056,448.472,304.963,448.476z M262.636,386.404
			c-1.753,0.002-3.173,1.423-3.175,3.175v51.507c0.002,1.751,1.422,3.172,3.175,3.174h42.307c1.752-0.002,3.172-1.423,3.176-3.174
			v-51.529c-0.016-1.734-1.418-3.139-3.155-3.152H262.636z"/>
		<rect x="268.366" y="396.616" clip-path="url(#SVGID_4_)" fill="#FFFFFF" width="7.058" height="7.761"/>
		
			<rect x="268.366" y="396.616" clip-path="url(#SVGID_4_)" fill="none" stroke="#414042" stroke-width="1.492" stroke-miterlimit="10" width="7.058" height="7.76"/>
		<rect x="279.917" y="398.998" clip-path="url(#SVGID_4_)" fill="#FFFFFF" width="19.316" height="5.383"/>
		
			<rect x="279.918" y="398.998" clip-path="url(#SVGID_4_)" fill="none" stroke="#414042" stroke-width="1.492" stroke-miterlimit="10" width="19.316" height="5.383"/>
		<rect x="268.366" y="407.551" clip-path="url(#SVGID_4_)" fill="#FFFFFF" width="7.058" height="7.761"/>
		
			<rect x="268.366" y="407.551" clip-path="url(#SVGID_4_)" fill="none" stroke="#414042" stroke-width="1.492" stroke-miterlimit="10" width="7.058" height="7.761"/>
		<rect x="279.917" y="409.929" clip-path="url(#SVGID_4_)" fill="#FFFFFF" width="19.316" height="5.383"/>
		
			<rect x="279.918" y="409.929" clip-path="url(#SVGID_4_)" fill="none" stroke="#414042" stroke-width="1.492" stroke-miterlimit="10" width="19.316" height="5.382"/>
		<rect x="268.366" y="418.481" clip-path="url(#SVGID_4_)" fill="#FFFFFF" width="7.058" height="7.766"/>
		
			<rect x="268.366" y="418.481" clip-path="url(#SVGID_4_)" fill="none" stroke="#414042" stroke-width="1.492" stroke-miterlimit="10" width="7.058" height="7.766"/>
		<rect x="279.917" y="420.868" clip-path="url(#SVGID_4_)" fill="#FFFFFF" width="19.316" height="5.377"/>
		
			<rect x="279.918" y="420.869" clip-path="url(#SVGID_4_)" fill="none" stroke="#414042" stroke-width="1.492" stroke-miterlimit="10" width="19.316" height="5.378"/>
		<path clip-path="url(#SVGID_4_)" fill="#DB5940" d="M300.294,431.543h15.348c2.923,0,5.29,2.368,5.29,5.291v15.347
			c0,2.923-2.367,5.291-5.29,5.291h-15.348c-2.923,0-5.292-2.368-5.292-5.291v-15.347
			C295.002,433.911,297.371,431.543,300.294,431.543"/>
		<path clip-path="url(#SVGID_4_)" fill="#FFFFFF" d="M315.642,459.587h-15.348c-4.088-0.005-7.4-3.317-7.406-7.405v-15.349
			c0.006-4.087,3.318-7.401,7.406-7.405h15.348c4.091,0.002,7.406,3.316,7.411,7.405v15.349
			C323.048,456.272,319.733,459.584,315.642,459.587 M300.294,433.658c-1.753,0.003-3.172,1.423-3.176,3.175v15.349
			c0.004,1.752,1.423,3.173,3.176,3.176h15.348c1.753-0.003,3.173-1.424,3.176-3.176v-15.349c-0.003-1.752-1.423-3.172-3.176-3.175
			H300.294z"/>
		<path clip-path="url(#SVGID_4_)" fill="none" stroke="#3F3F3E" stroke-width="1.492" stroke-miterlimit="10" d="M315.642,459.587
			h-15.348c-4.088-0.005-7.4-3.317-7.406-7.405v-15.349c0.006-4.087,3.318-7.401,7.406-7.405h15.348
			c4.091,0.002,7.406,3.316,7.411,7.405v15.349C323.048,456.272,319.733,459.584,315.642,459.587z M300.294,433.658
			c-1.753,0.003-3.172,1.423-3.176,3.175v15.349c0.004,1.752,1.423,3.173,3.176,3.176h15.348c1.753-0.003,3.173-1.424,3.176-3.176
			v-15.349c-0.003-1.752-1.423-3.172-3.176-3.175H300.294z"/>
		<path clip-path="url(#SVGID_4_)" fill="#DB5940" d="M108.53,472.938h15.35c2.921,0,5.29,2.368,5.29,5.291v15.347
			c0,2.924-2.369,5.292-5.29,5.292h-15.35c-2.921,0-5.291-2.368-5.291-5.292V478.23C103.239,475.307,105.609,472.938,108.53,472.938
			"/>
		<path clip-path="url(#SVGID_4_)" fill="#FFFFFF" d="M123.872,501.005H108.53c-4.095-0.006-7.411-3.331-7.405-7.427V478.23
			c0.006-4.088,3.317-7.4,7.405-7.406h15.343c4.092,0.003,7.406,3.315,7.412,7.406v15.349c0.005,4.096-3.309,7.421-7.405,7.427
			H123.872z M108.53,475.054c-1.751,0.003-3.172,1.423-3.175,3.176v15.349c0.003,1.752,1.424,3.172,3.175,3.175h15.343
			c1.754-0.003,3.172-1.423,3.177-3.175V478.23c-0.005-1.753-1.423-3.173-3.177-3.176H108.53z"/>
		<path clip-path="url(#SVGID_4_)" fill="none" stroke="#414042" stroke-width="1.492" stroke-miterlimit="10" d="M123.872,501.005
			H108.53c-4.095-0.006-7.411-3.331-7.405-7.427V478.23c0.006-4.088,3.317-7.4,7.405-7.406h15.343
			c4.092,0.003,7.406,3.315,7.412,7.406v15.349c0.005,4.096-3.309,7.421-7.405,7.427H123.872z M108.53,475.054
			c-1.751,0.003-3.172,1.423-3.175,3.176v15.349c0.003,1.752,1.424,3.172,3.175,3.175h15.343c1.754-0.003,3.172-1.423,3.177-3.175
			V478.23c-0.005-1.753-1.423-3.173-3.177-3.176H108.53z"/>
		<path clip-path="url(#SVGID_4_)" fill="#FFFFFF" d="M192.585,469.827c-2.436,0-4.412-2.143-4.412-4.819
			c0-2.679,1.977-4.82,4.412-4.82c0.508,0.001,1.012,0.099,1.483,0.283c-0.073-0.399-0.111-0.808-0.112-1.215
			c0-3.353,2.496-6.066,5.58-6.066c0.992,0.002,1.961,0.288,2.795,0.824c0.027-3.986,4.066-7.08,7.149-7.08
			c3.085,0,6.961,3.094,6.989,7.08c0.834-0.536,1.804-0.822,2.795-0.824c3.079,0,5.58,2.714,5.58,6.066
			c0,0.407-0.037,0.815-0.112,1.215c0.474-0.187,0.979-0.282,1.488-0.283c2.437,0,4.413,2.142,4.413,4.82
			c0,2.677-1.977,4.819-4.413,4.819H192.585z"/>
		<path clip-path="url(#SVGID_4_)" fill="none" stroke="#414042" stroke-width="1.492" stroke-miterlimit="10" d="M192.585,469.827
			c-2.436,0-4.412-2.143-4.412-4.819c0-2.679,1.977-4.82,4.412-4.82c0.508,0.001,1.012,0.099,1.483,0.283
			c-0.073-0.399-0.111-0.808-0.112-1.215c0-3.353,2.496-6.066,5.58-6.066c0.992,0.002,1.961,0.288,2.795,0.824
			c0.027-3.986,4.066-7.08,7.149-7.08c3.085,0,6.961,3.094,6.989,7.08c0.834-0.536,1.804-0.822,2.795-0.824
			c3.079,0,5.58,2.714,5.58,6.066c0,0.407-0.037,0.815-0.112,1.215c0.474-0.187,0.979-0.282,1.488-0.283
			c2.437,0,4.413,2.142,4.413,4.82c0,2.677-1.977,4.819-4.413,4.819H192.585z"/>
		<path clip-path="url(#SVGID_4_)" fill="#FFFFFF" d="M209.112,474.727c0.702,0.002,1.397,0.135,2.05,0.391
			c-0.104-0.553-0.154-1.117-0.154-1.681c0-4.627,3.448-8.376,7.701-8.376c1.369,0.004,2.708,0.397,3.861,1.136
			c0.037-5.501,5.616-9.774,9.869-9.774c4.252,0,9.64,4.284,9.64,9.774c1.153-0.738,2.492-1.132,3.86-1.136
			c4.252,0,7.701,3.749,7.701,8.376c0,0.564-0.053,1.125-0.155,1.681c0.653-0.256,1.349-0.389,2.051-0.391
			c3.368,0,6.095,2.967,6.095,6.63c0,3.663-2.727,6.631-6.095,6.631h-24.644v-9.352h4.733l-9.64-9.581l-9.64,9.581h5.27v9.352
			h-12.504c-3.369,0-6.095-2.968-6.095-6.631C203.017,477.693,205.722,474.727,209.112,474.727"/>
		<path clip-path="url(#SVGID_4_)" fill="none" stroke="#414042" stroke-width="1.492" stroke-miterlimit="10" d="M209.112,474.727
			c0.702,0.002,1.397,0.135,2.05,0.391c-0.104-0.553-0.154-1.117-0.154-1.681c0-4.627,3.448-8.376,7.701-8.376
			c1.369,0.004,2.708,0.397,3.861,1.136c0.037-5.501,5.616-9.774,9.869-9.774c4.252,0,9.64,4.284,9.64,9.774
			c1.153-0.738,2.492-1.132,3.86-1.136c4.252,0,7.701,3.749,7.701,8.376c0,0.564-0.053,1.125-0.155,1.681
			c0.653-0.256,1.349-0.389,2.051-0.391c3.368,0,6.095,2.967,6.095,6.63c0,3.663-2.727,6.631-6.095,6.631h-24.644v-9.352h4.733
			l-9.64-9.581l-9.64,9.581h5.27v9.352h-12.504c-3.369,0-6.095-2.968-6.095-6.631C203.017,477.693,205.722,474.727,209.112,474.727z
			"/>
	</g>
</g>
</svg>
