<!-- Generator: Adobe Illustrator 17.0.0, SVG Export Plug-In  -->
<svg version="1.1"
	 xmlns="http://www.w3.org/2000/svg" xmlns:xlink="http://www.w3.org/1999/xlink" xmlns:a="http://ns.adobe.com/AdobeSVGViewerExtensions/3.0/"
	 x="0px" y="0px" width="188.764px" height="472.251px" viewBox="0 0 188.764 472.251" enable-background="new 0 0 188.764 472.251"
	 xml:space="preserve">
<defs>
</defs>
<g>
	<path fill="#A66641" d="M0.251,158.259c-0.077,0.281-0.16,0.563-0.251,0.848c0.174-0.451,0.273-0.765,0.255-0.843L0.251,158.259"/>
	<path fill="#FFC691" d="M18.312,170.934c0,0-2.553-0.395-2.553,0c0,0.394,0.844,14.985,0.45,16.169
		c-0.394,1.183-7.493,13.145-9.333,31.022c-1.84,17.878-1.445,41.014-1.445,41.014s-4.076,10.386-2.367,19.324
		c0,0-0.132,16.169,6.441,18.535c0,0,0.443,0.165,0.974,0c0,0,2.523,4.633,6.075,4.072c0,0,7.164,6.043,9.346,3.302
		c0,0,0.811-1.308-0.998-3.364c-1.807-2.056-4.735-9.158-6.292-11.4c0,0-0.872-1.246-1.247-1.683
		c-0.373-0.435,0.748-6.603,1.061-7.725c0.311-1.122,1.184-5.607,1.246-6.355c0.063-0.747,0.872-2.243,0.872-2.243
		s2.18,0.857,2.616,3.949c0.436,3.091,1.683,10.068,4.424,11.064c6.441,2.393,5.357-4.049,4.485-5.232
		c-0.872-1.184-1.434-4.311-1.245-5.832c0.186-1.521,1.959-4.696,1.633-6.69c-0.326-1.994-2.693-4.859-4.563-6.541
		c-1.867-1.683-3.363-6.293-3.114-8.474c0.249-2.18,3.925-14.391,4.36-15.513c0.437-1.122,6.169-13.207,6.791-15.513
		c0.624-2.306,3.987-15.762,4.175-17.817c0.186-2.057-0.124-5.981,0.685-8.038c0.811-2.057,2.244-18.378,2.244-18.378l-4.424-4.049
		l-11.898-2.68L18.312,170.934z"/>
	<path fill="none" stroke="#F1B486" stroke-miterlimit="10" d="M18.312,170.934c0,0-2.553-0.395-2.553,0
		c0,0.394,0.844,14.985,0.45,16.169c-0.394,1.183-7.493,13.145-9.333,31.022c-1.84,17.878-1.445,41.014-1.445,41.014
		s-4.076,10.386-2.367,19.324c0,0-0.132,16.169,6.441,18.535c0,0,0.443,0.165,0.974,0c0,0,2.523,4.633,6.075,4.072
		c0,0,7.164,6.043,9.346,3.302c0,0,0.811-1.308-0.998-3.364c-1.807-2.056-4.735-9.158-6.292-11.4c0,0-0.872-1.246-1.247-1.683
		c-0.373-0.435,0.748-6.603,1.061-7.725c0.311-1.122,1.184-5.607,1.246-6.355c0.063-0.747,0.872-2.243,0.872-2.243
		s2.18,0.857,2.616,3.949c0.436,3.091,1.683,10.068,4.424,11.064c6.441,2.393,5.357-4.049,4.485-5.232
		c-0.872-1.184-1.434-4.311-1.245-5.832c0.186-1.521,1.959-4.696,1.633-6.69c-0.326-1.994-2.693-4.859-4.563-6.541
		c-1.867-1.683-3.363-6.293-3.114-8.474c0.249-2.18,3.925-14.391,4.36-15.513c0.437-1.122,6.169-13.207,6.791-15.513
		c0.624-2.306,3.987-15.762,4.175-17.817c0.186-2.057-0.124-5.981,0.685-8.038c0.811-2.057,2.244-18.378,2.244-18.378l-4.424-4.049
		l-11.898-2.68L18.312,170.934z"/>
	<path fill="#F1B486" d="M27.892,262.32c-1.867-1.682-3.363-6.292-3.114-8.472c0.249-2.182,3.925-14.392,4.36-15.513
		c0.437-1.123,6.169-13.208,6.792-15.514c0.622-2.306,3.987-15.762,4.174-17.817c0.186-2.057-0.124-5.981,0.686-8.038
		c0.809-2.055,2.242-18.377,2.242-18.377l-4.423-4.05l-11.898-2.68l-8.397-0.927c0,0-2.553-0.395-2.553,0
		c0,0.241,0.315,5.784,0.47,10.33c0,0,16.06,4.92,20.018,3.584c0,0-2.297,9.701-2.1,14.631s-2.366,14.681-5.52,21.932
		c-3.154,7.251-9.465,29.814-8.676,33.025c0.72,2.929,4.8,9.74,8.915,8.827C28.535,262.923,28.208,262.603,27.892,262.32"/>
	<path fill="none" stroke="#F1B486" stroke-linecap="round" stroke-linejoin="round" stroke-miterlimit="10" d="M10.07,281.399
		c0,0,0.374,6.915,0.498,7.788c0.125,0.872,0.499,3.551,2.119,5.605c1.619,2.057,3.862,6.23,3.862,6.23"/>
	<path fill="none" stroke="#F1B486" stroke-linecap="round" stroke-linejoin="round" stroke-miterlimit="10" d="M4.774,278.346
		c0,0,0.997,6.855,1.246,8.224c0.25,1.371,1.185,4.985,2.305,6.728c1.121,1.744,2.148,3.653,2.148,3.653"/>
	<path fill="#FFC691" d="M31.602,286.262c-0.7-0.091-0.909,0.035-1.374-0.765c-0.464-0.801,0.174-2.8,0.174-2.8h1.707
		C32.213,282.852,32.415,286.32,31.602,286.262"/>
	<path fill="none" stroke="#F1B486" stroke-miterlimit="10" d="M31.602,286.262c-0.7-0.091-0.909,0.035-1.374-0.765
		c-0.464-0.801,0.174-2.8,0.174-2.8h1.707C32.213,282.852,32.415,286.32,31.602,286.262z"/>
	<path fill="#FFC691" d="M24.873,303.772c-0.183,0.682-0.083,0.906-0.938,1.266c-0.853,0.357-3.262-1.188-3.262-1.188l0.729-1.04
		C21.571,302.726,25.032,302.973,24.873,303.772"/>
	<path fill="none" stroke="#F1B486" stroke-miterlimit="10" d="M24.873,303.772c-0.183,0.682-0.083,0.906-0.938,1.266
		c-0.853,0.357-3.262-1.188-3.262-1.188l0.729-1.04C21.571,302.726,25.032,302.973,24.873,303.772z"/>
	<path fill="#FFC691" d="M172.598,170.931c0,0,2.553-0.395,2.553,0s-0.845,14.986-0.449,16.168
		c0.395,1.184,7.493,13.146,9.333,31.023c1.84,17.879,1.445,41.014,1.445,41.014s4.075,10.387,2.366,19.325
		c0,0,0.132,16.169-6.44,18.534c0,0-0.443,0.165-0.975,0c0,0-2.523,4.634-6.075,4.072c0,0-7.163,6.044-9.345,3.302
		c0,0-0.811-1.308,0.997-3.364c1.806-2.055,4.735-9.158,6.293-11.399c0,0,0.871-1.246,1.246-1.683
		c0.372-0.436-0.747-6.603-1.06-7.725c-0.312-1.122-1.184-5.607-1.246-6.355c-0.063-0.747-0.873-2.242-0.873-2.242
		s-2.18,0.857-2.615,3.948c-0.436,3.092-1.683,10.068-4.425,11.066c-6.441,2.392-5.358-4.05-4.485-5.234
		c0.872-1.183,1.434-4.311,1.246-5.832c-0.186-1.52-1.958-4.695-1.633-6.69c0.324-1.993,2.692-4.859,4.561-6.541
		c1.868-1.682,3.364-6.293,3.114-8.473c-0.248-2.181-3.924-14.391-4.36-15.514c-0.436-1.121-6.168-13.206-6.791-15.512
		c-0.623-2.307-3.987-15.763-4.174-17.818c-0.187-2.056,0.125-5.98-0.685-8.037c-0.811-2.055-2.244-18.378-2.244-18.378l4.424-4.05
		l11.898-2.679L172.598,170.931z"/>
	<path fill="none" stroke="#F1B486" stroke-miterlimit="10" d="M172.598,170.931c0,0,2.553-0.395,2.553,0
		s-0.845,14.986-0.449,16.168c0.395,1.184,7.493,13.146,9.333,31.023c1.84,17.879,1.445,41.014,1.445,41.014
		s4.075,10.387,2.366,19.325c0,0,0.132,16.169-6.44,18.534c0,0-0.443,0.165-0.975,0c0,0-2.523,4.634-6.075,4.072
		c0,0-7.163,6.044-9.345,3.302c0,0-0.811-1.308,0.997-3.364c1.806-2.055,4.735-9.158,6.293-11.399c0,0,0.871-1.246,1.246-1.683
		c0.372-0.436-0.747-6.603-1.06-7.725c-0.312-1.122-1.184-5.607-1.246-6.355c-0.063-0.747-0.873-2.242-0.873-2.242
		s-2.18,0.857-2.615,3.948c-0.436,3.092-1.683,10.068-4.425,11.066c-6.441,2.392-5.358-4.05-4.485-5.234
		c0.872-1.183,1.434-4.311,1.246-5.832c-0.186-1.52-1.958-4.695-1.633-6.69c0.324-1.993,2.692-4.859,4.561-6.541
		c1.868-1.682,3.364-6.293,3.114-8.473c-0.248-2.181-3.924-14.391-4.36-15.514c-0.436-1.121-6.168-13.206-6.791-15.512
		c-0.623-2.307-3.987-15.763-4.174-17.818c-0.187-2.056,0.125-5.98-0.685-8.037c-0.811-2.055-2.244-18.378-2.244-18.378l4.424-4.05
		l11.898-2.679L172.598,170.931z"/>
	<path fill="#F1B486" d="M163.018,262.318c1.869-1.683,3.364-6.293,3.114-8.473c-0.249-2.181-3.926-14.391-4.36-15.512
		c-0.436-1.123-6.169-13.21-6.791-15.514c-0.622-2.305-3.987-15.763-4.175-17.817c-0.186-2.057,0.125-5.982-0.685-8.038
		c-0.809-2.055-2.242-18.378-2.242-18.378l4.423-4.049l11.899-2.68l8.396-0.927c0,0,2.553-0.395,2.553,0
		c0,0.241-0.315,5.785-0.471,10.33c0,0-16.06,4.92-20.018,3.584c0,0,2.298,9.701,2.101,14.631
		c-0.198,4.929,2.365,14.68,5.521,21.931c3.155,7.252,9.465,29.815,8.677,33.026c-0.721,2.929-4.802,9.74-8.916,8.826
		C162.375,262.921,162.702,262.601,163.018,262.318"/>
	<path fill="#FFC691" d="M159.308,286.259c0.699-0.09,0.909,0.035,1.375-0.764c0.464-0.801-0.175-2.8-0.175-2.8h-1.707
		C158.697,282.851,158.495,286.317,159.308,286.259"/>
	<path fill="none" stroke="#F1B486" stroke-miterlimit="10" d="M159.308,286.259c0.699-0.09,0.909,0.035,1.375-0.764
		c0.464-0.801-0.175-2.8-0.175-2.8h-1.707C158.697,282.851,158.495,286.317,159.308,286.259z"/>
	<path fill="#EADED4" d="M92.013,453.121c0,0-0.262,4.205-3.943,3.942c-3.68-0.263-7.099-1.027-8.676,0.013
		c-1.577,1.039,0.789,5.246-6.571,7.086c-7.362,1.84-22.349,2.9-28.921,1.188c-6.572-1.713-12.621-0.712-14.197-5.683
		c-1.578-4.97-1.51-6.704,2.459-7.862c3.971-1.156,29.926-3.479,29.926-3.479l10.733-3.093l18.605-2.395L92.013,453.121z"/>
	<path fill="none" stroke="#939598" stroke-miterlimit="10" d="M92.013,453.121c0,0-0.262,4.205-3.943,3.942
		c-3.68-0.263-7.099-1.027-8.676,0.013c-1.577,1.039,0.789,5.246-6.571,7.086c-7.362,1.84-22.349,2.9-28.921,1.188
		c-6.572-1.713-12.621-0.712-14.197-5.683c-1.578-4.97-1.51-6.704,2.459-7.862c3.971-1.156,29.926-3.479,29.926-3.479l10.733-3.093
		l18.605-2.395L92.013,453.121z"/>
	<path fill="#DB5940" d="M91.648,446.709c0,0-5.682-1.738-9.363,0.102c-3.68,1.84-5.257,8.18-9.465,8.297
		c-4.206,0.116-12.093,5.9-28.393,2.483c-11.4-1.66-11.289-1.37-12.857-2.691c-1.313-1.985,1.814-2.569,1.814-2.569
		s9.203-5.257,12.096-9.463c2.89-4.207,6.572-9.721,7.36-11.566c0.789-1.843,27.345-2.105,27.345-2.105l11.124,7.249l0.165,4.816
		L91.648,446.709z"/>
	<path fill="none" stroke="#BC4637" stroke-miterlimit="10" d="M91.648,446.709c0,0-5.682-1.738-9.363,0.102
		c-3.68,1.84-5.257,8.18-9.465,8.297c-4.206,0.116-12.093,5.9-28.393,2.483c-11.4-1.66-11.289-1.37-12.857-2.691
		c-1.313-1.985,1.814-2.569,1.814-2.569s9.203-5.257,12.096-9.463c2.89-4.207,6.572-9.721,7.36-11.566
		c0.789-1.843,27.345-2.105,27.345-2.105l11.124,7.249l0.165,4.816L91.648,446.709z"/>
	<path fill="#EADED4" d="M112.996,442.837c0,0-2.892,1.483-2.628,5.488c0.262,4.007,2.628,8.738,2.628,8.738
		s0.788,0.581,3.419,1.605c2.629,1.024,6.747,2.864,7.316,4.705c0.57,1.84,5.039,8.822,10.561,8.354
		c5.521-0.468,24.653,0.059,26.656-1.519c2.001-1.578,6.471-2.358,6.997-4.86c0.525-2.502,0-6.127,0-6.681
		c0-0.554-15.401-7.915-17.166-8.441c-1.763-0.524-16.749-6.294-16.749-6.294s-15.514-3.959-16.302-4.222
		C116.94,439.449,112.996,442.837,112.996,442.837"/>
	<path fill="none" stroke="#939598" stroke-miterlimit="10" d="M112.996,442.837c0,0-2.892,1.483-2.628,5.488
		c0.262,4.007,2.628,8.738,2.628,8.738s0.788,0.581,3.419,1.605c2.629,1.024,6.747,2.864,7.316,4.705
		c0.57,1.84,5.039,8.822,10.561,8.354c5.521-0.468,24.653,0.059,26.656-1.519c2.001-1.578,6.471-2.358,6.997-4.86
		c0.525-2.502,0-6.127,0-6.681c0-0.554-15.401-7.915-17.166-8.441c-1.763-0.524-16.749-6.294-16.749-6.294
		s-15.514-3.959-16.302-4.222C116.94,439.449,112.996,442.837,112.996,442.837z"/>
	<path fill="#DB5940" d="M143.494,434.19c0,0,4.47,10.918,9.727,14.135c5.259,3.218,12.884,9.319,14.724,10.344
		c1.84,1.024-3.943,5.231-10.254,4.968c-6.31-0.263-13.934,1.577-20.506-1.052c-6.573-2.629-7.888-3.101-9.728-3.916
		c-1.842-0.815-4.47-2.474-4.996-4.144c-0.525-1.668-4.206-0.353-6.046-1.404c-1.842-1.052-2.367-4.996-3.682-7.889
		c-1.314-2.892-0.728-5.559,0-6.215c0.728-0.656,4.47-3.249,6.047-4.564c1.578-1.314,12.621-5.258,12.621-5.258L143.494,434.19z"/>
	<path fill="none" stroke="#BC4637" stroke-miterlimit="10" d="M143.494,434.19c0,0,4.47,10.918,9.727,14.135
		c5.259,3.218,12.884,9.319,14.724,10.344c1.84,1.024-3.943,5.231-10.254,4.968c-6.31-0.263-13.934,1.577-20.506-1.052
		c-6.573-2.629-7.888-3.101-9.728-3.916c-1.842-0.815-4.47-2.474-4.996-4.144c-0.525-1.668-4.206-0.353-6.046-1.404
		c-1.842-1.052-2.367-4.996-3.682-7.889c-1.314-2.892-0.728-5.559,0-6.215c0.728-0.656,4.47-3.249,6.047-4.564
		c1.578-1.314,12.621-5.258,12.621-5.258L143.494,434.19z"/>
	<path fill="#939598" d="M91.574,447.123c-4.707-1.734-8.708-0.184-8.821-0.109c-0.492,0.329-2.004,4.43-1.873,5.68
		c0.133,1.248-0.008,3.68-0.008,3.68s5.428,0.564,6.481,0.634c1.054,0.069,4.061,0.618,4.644-3.722
		c0.583-4.339,0.016-0.164,0.016-0.164S91.716,449.382,91.574,447.123"/>
	<path fill="#BC4637" d="M83.875,445.991c1.312-0.554,3.741-0.185,4.928-0.037c0.729,0.092,1.809,0.146,2.771,0.375
		c-0.028-0.475-0.046-0.798-0.046-0.866c0-0.361-0.131-5.488-0.131-5.488l-2.366-0.493c0,0-5.521,0.92-5.62,0.92
		c-0.062,0-11.999-11.028-21.963-11.903c-6.193-0.545-12.283,8.9-12.283,8.9s8.251-5.33,17.462-3.577
		c8.372,1.594,17.785,10.257,17.77,10.82C84.381,445.213,84.156,445.651,83.875,445.991"/>
	<path fill="#BC4637" d="M119.437,434.426c0,0-4.114,2.179-5.537,3.548c-1.424,1.368-2.907,1.533-2.638,3.852
		c0.104,0.877,0.263,1.501,0.421,1.94c0.06-0.012,0.124-0.012,0.197,0.018c0.606,0.241,0.723,0.597,1.021,1.146
		c0.621,1.132,0.775,2.568,1.103,3.83c0.183,0.71,0.462,1.374,0.832,2.026c0.317,0.558,0.728,1.411,1.149,1.902
		c0.787,0.918,2.82,0.919,4.142,0.756c0,0-5.458-7.842-4.173-13.048c0.047-0.349,0.702-2.548,4.006-3.362
		c2.6-0.639,7.482,0.143,10.614-0.47c2.37-0.465,4.707-0.882,6.724-1.19c3.285-0.501,6.326-0.049,6.36-0.094
		c0.034-0.046-0.829-2.583-3.251-2.638c-5.717-0.133-16.236,2.219-16.236,2.219S120.591,433.791,119.437,434.426"/>
	<path fill="#414042" d="M45.6,266.728c-3.751,17.408-4.149,68.115-2.571,77.58c1.576,9.465,0.428,30.821,2.005,37.657
		c1.577,6.835-0.667,15.065,1.699,19.536c2.366,4.469-1.517,9.027-1.254,11.13c0.263,2.104,3.943,2.367,5.259,5.521
		c1.314,3.155-5.521,10.779-4.732,14.46c0.788,3.681,0,5.522,3.681,3.418c3.68-2.103,10.044-5.156,18.43-4.371
		c0,0,6.546,2.988,9.176,5.258c2.628,2.269,6.572,5.686,10.253,5.686c3.681,0,4.732-2.367,4.732-2.367s1.987-2.901-0.643-9.216
		c-2.629-6.313-1.42-5.384-0.631-7.487c0.788-2.103,1.273-6.892,1.01-11.098c-0.262-4.206-0.002-6.028,0.523-11.549
		c0.526-5.521-0.572-20.067-0.047-26.903c0.526-6.836-0.262-18.535-0.262-18.535s6.158,28.789,7.417,31.944
		c1.259,3.154,0.731,11.305,1.521,14.724c0.789,3.416,6.31,12.882,6.837,16.036c0.524,3.155,0.788,6.836,1.05,8.938
		c0.265,2.104-3.68,1.578-2.891,7.887c0.789,6.312,2.904,10.254,2.904,10.254l1.524,0.801c0,0,0.2-1.67,1.105-1.42
		c0,0-0.374-0.941-0.443-1.793c-0.067-0.851,0.167-2.583,0.167-2.583s5.784-5.521,7.361-5.783c1.578-0.264,9.202,1.314,12.356,0.263
		c3.155-1.052,6.573-1.314,8.415-1.052c1.838,0.263,3.943,0.525,3.943,0.525s1.313-10.517,0-15.774
		c-1.316-5.257-3.943-4.994-3.943-8.149c0-3.155,1.838-15.249,2.892-17.878c1.052-2.63,3.008-11.568,1.635-17.615
		c-1.372-6.048,3.428-26.219,3.428-29.899c0-3.68,2.417-58.413-0.769-79.06C144.167,249.14,48.784,251.95,45.6,266.728"/>
	<path fill="none" stroke="#18252B" stroke-miterlimit="10" d="M45.6,266.728c-3.751,17.408-4.149,68.115-2.571,77.58
		c1.576,9.465,0.428,30.821,2.005,37.657c1.577,6.835-0.667,15.065,1.699,19.536c2.366,4.469-1.517,9.027-1.254,11.13
		c0.263,2.104,3.943,2.367,5.259,5.521c1.314,3.155-5.521,10.779-4.732,14.46c0.788,3.681,0,5.522,3.681,3.418
		c3.68-2.103,10.044-5.156,18.43-4.371c0,0,6.546,2.988,9.176,5.258c2.628,2.269,6.572,5.686,10.253,5.686
		c3.681,0,4.732-2.367,4.732-2.367s1.987-2.901-0.643-9.216c-2.629-6.313-1.42-5.384-0.631-7.487
		c0.788-2.103,1.273-6.892,1.01-11.098c-0.262-4.206-0.002-6.028,0.523-11.549c0.526-5.521-0.572-20.067-0.047-26.903
		c0.526-6.836-0.262-18.535-0.262-18.535s6.158,28.789,7.417,31.944c1.259,3.154,0.731,11.305,1.521,14.724
		c0.789,3.416,6.31,12.882,6.837,16.036c0.524,3.155,0.788,6.836,1.05,8.938c0.265,2.104-3.68,1.578-2.891,7.887
		c0.789,6.312,2.904,10.254,2.904,10.254l1.524,0.801c0,0,0.2-1.67,1.105-1.42c0,0-0.374-0.941-0.443-1.793
		c-0.067-0.851,0.167-2.583,0.167-2.583s5.784-5.521,7.361-5.783c1.578-0.264,9.202,1.314,12.356,0.263
		c3.155-1.052,6.573-1.314,8.415-1.052c1.838,0.263,3.943,0.525,3.943,0.525s1.313-10.517,0-15.774
		c-1.316-5.257-3.943-4.994-3.943-8.149c0-3.155,1.838-15.249,2.892-17.878c1.052-2.63,3.008-11.568,1.635-17.615
		c-1.372-6.048,3.428-26.219,3.428-29.899c0-3.68,2.417-58.413-0.769-79.06C144.167,249.14,48.784,251.95,45.6,266.728z"/>
	<path fill="#939598" d="M120.252,453.986c-1.123,0.021-2.105-0.058-2.892-0.261c-1.025-0.265-3.18-3.116-3.469-4.462
		c-0.237-1.094-0.948-3.253-1.467-4.24c-0.156-0.299-0.224,0.121-0.526-0.27c-0.637,0.142-2.038,0.748-1.795,3.379
		c0.312,3.383,2.893,8.931,2.893,8.931l6.65,3.016c0,0,1.502-3.548,0.997-4.753C120.551,455.105,120.376,454.48,120.252,453.986"/>
	<path fill="#18252B" d="M143.603,374.773c-1.363-6.048,3.404-26.219,3.404-29.899c0-3.68,2.399-58.413-0.763-79.06
		c-0.251-1.632-1.394-3.073-3.234-4.34c-21.627,0.949-75.011,3.27-75.795,3.072c-0.673-0.169-12.059-0.671-19.172-0.971
		c-1.214,0.98-1.987,2.032-2.228,3.152c-3.725,17.408-4.121,68.115-2.554,77.58c1.282,7.742,0.751,23.438,1.373,32.639
		c0.617,3.295,1.065,6.347,1.105,8.391c0.026,0.327,0.05,0.656,0.065,0.987c0.336,1.956,1.764-9.278,1.986-15.809
		c0.247-7.181-0.491-34.167-0.246-40.11c0.246-5.941,3.197-24.106,4.672-29.384c1.475-5.279,0-25.518,0-25.518
		c0.982,0.926,29.393,2.044,35.157,2.843c5.764,0.797,14.258,1.797,20.159,1.797c5.9,0,29.14-3.465,31.288-3.465
		c2.148,0,3.132,44.814,2.395,54.223c-0.738,9.407-3.067,31.444-2.395,36.891c0.673,5.447,0.784,13.865,0.852,18.322
		c0.067,4.457-4.671,10.574-2.393,14.855c0.614,1.151,1.51,1.962,2.518,2.524c0.628-4.449,1.546-9.515,2.179-11.106
		C143.023,389.758,144.966,380.82,143.603,374.773"/>
	<path fill="#DB5940" d="M179.329,167.461c-1.802-3.377-4.84-4.951-7.203-16.318c-2.364-11.367-6.189-25.549-6.189-27.011
		c0-1.464-0.901-3.603-2.364-4.614c-1.463-1.013-8.441-4.481-10.24-5.897c-1.801-1.418-6.417-3.378-8.217-3.579
		c-1.801-0.202-7.878-1.215-7.878-1.215s2.138-4.43-0.675-5.984c-2.813-1.557-11.063-2.378-14.068-4.715
		c-3.005-2.336-13.28-4.382-13.28-4.382S104.158,94.748,98,95.836c0.112,0.262,0.22,0.527,0.318,0.793
		c-8.024-1.334-15.829-2.884-15.829-2.884s-10.274,2.046-13.279,4.382c-3.004,2.337-11.255,3.158-14.068,4.715
		c-2.813,1.555-0.675,5.984-0.675,5.984s-6.077,1.013-7.878,1.215c-1.801,0.201-6.416,2.161-8.217,3.579
		c-1.801,1.416-8.777,4.885-10.24,5.897c-1.463,1.012-2.364,3.15-2.364,4.614c0,1.462-3.826,15.644-6.19,27.011
		c-2.362,11.367-5.401,12.941-7.203,16.318c-1.8,3.377,2.703,5.178,2.703,5.178c8.439,6.978,27.461,5.289,27.461,5.289
		s0.111,17.332-1.576,25.211c-1.688,7.877-0.225,45.691,0,57.283c0.225,11.593,3.489,9.792,5.402,10.467
		c1.912,0.676,44.791,4.502,51.657,4.614c0.727,0.013,1.888-0.021,3.384-0.091c0.244-0.078,0.309-0.084,0.506-0.398
		c14.656-1.075,41.914-3.59,43.429-4.126c1.914-0.675,5.177,1.126,5.403-10.467c0.225-11.592,1.689-49.406,0-57.283
		c-1.689-7.879-1.576-25.211-1.576-25.211s19.02,1.688,27.46-5.289C176.627,172.638,181.129,170.838,179.329,167.461"/>
	<path fill="none" stroke="#BC4637" stroke-miterlimit="10" d="M179.329,167.461c-1.802-3.377-4.84-4.951-7.203-16.318
		c-2.364-11.367-6.189-25.549-6.189-27.011c0-1.464-0.901-3.603-2.364-4.614c-1.463-1.013-8.441-4.481-10.24-5.897
		c-1.801-1.418-6.417-3.378-8.217-3.579c-1.801-0.202-7.878-1.215-7.878-1.215s2.138-4.43-0.675-5.984
		c-2.813-1.557-11.063-2.378-14.068-4.715c-3.005-2.336-13.28-4.382-13.28-4.382S104.158,94.748,98,95.836
		c0.112,0.262,0.22,0.527,0.318,0.793c-8.024-1.334-15.829-2.884-15.829-2.884s-10.274,2.046-13.279,4.382
		c-3.004,2.337-11.255,3.158-14.068,4.715c-2.813,1.555-0.675,5.984-0.675,5.984s-6.077,1.013-7.878,1.215
		c-1.801,0.201-6.416,2.161-8.217,3.579c-1.801,1.416-8.777,4.885-10.24,5.897c-1.463,1.012-2.364,3.15-2.364,4.614
		c0,1.462-3.826,15.644-6.19,27.011c-2.362,11.367-5.401,12.941-7.203,16.318c-1.8,3.377,2.703,5.178,2.703,5.178
		c8.439,6.978,27.461,5.289,27.461,5.289s0.111,17.332-1.576,25.211c-1.688,7.877-0.225,45.691,0,57.283
		c0.225,11.593,3.489,9.792,5.402,10.467c1.912,0.676,44.791,4.502,51.657,4.614c0.727,0.013,1.888-0.021,3.384-0.091
		c0.244-0.078,0.309-0.084,0.506-0.398c14.656-1.075,41.914-3.59,43.429-4.126c1.914-0.675,5.177,1.126,5.403-10.467
		c0.225-11.592,1.689-49.406,0-57.283c-1.689-7.879-1.576-25.211-1.576-25.211s19.02,1.688,27.46-5.289
		C176.627,172.638,181.129,170.838,179.329,167.461z"/>
	<path fill="#871826" d="M62.822,105.27c0.124-0.065,4.263-1.945,5.189-2.515c0.925-0.569,2.93-1.287,3.366-1.348
		c0.436-0.059,0.494,0.477,0.494,0.477s-0.237,1.267-0.652,1.563c-0.416,0.297-4.358,2.398-5.158,2.673
		c-0.802,0.277-2.181,1.445-2.64,1.148C62.962,106.972,61.728,105.832,62.822,105.27"/>
	<path fill="#871826" d="M123.723,112.935c0,0,0.979,0.531,1.828-1.003c0.849-1.534,1.68-2.419,1.68-2.419l0.501-1.248
		c0,0-2.997-1.976-3.072-2.025c-0.076-0.05-1.76-1.16-1.832-1.207c-0.07-0.049-0.761,0-0.761,0S123.339,112.732,123.723,112.935"/>
	<path fill="#FFC691" d="M120.991,94.433c0,0,1.826,18.461,2.952,18.731c0,0-15.68,12.54-17.856,13.438
		c-2.177,0.901-11.085,5.992-11.535,7.006c-1.962,0.191-4.58-1.908-6.102-2.658c-2.05-1.913-6.776-5.605-9.182-7.836
		c-1.715-1.59-10.135-10.354-10.697-10.579c-0.563-0.226-4.727-5.402-4.727-5.402s6.718-3.038,7.579-3.601
		c0.861-0.563,0.376-11.048,0.376-11.048l15.454-2.796c0,0,19.133,3.602,19.921,3.602C107.962,93.291,120.991,94.433,120.991,94.433
		"/>
	<path fill="none" stroke="#F1B486" stroke-miterlimit="10" d="M120.991,94.433c0,0,1.826,18.461,2.952,18.731
		c0,0-15.68,12.54-17.856,13.438c-2.177,0.901-11.085,5.992-11.535,7.006c-1.962,0.191-4.58-1.908-6.102-2.658
		c-2.05-1.913-6.776-5.605-9.182-7.836c-1.715-1.59-10.135-10.354-10.697-10.579c-0.563-0.226-4.727-5.402-4.727-5.402
		s6.718-3.038,7.579-3.601c0.861-0.563,0.376-11.048,0.376-11.048l15.454-2.796c0,0,19.133,3.602,19.921,3.602
		C107.962,93.291,120.991,94.433,120.991,94.433z"/>
	<path fill="#F1B486" d="M66.254,106.5c0,0,4.775,2.623,7.033,0.818c2.26-1.805,1.074-5.448,1.074-5.448
		s10.513,13.743,22.812,12.761c12.297-0.982,20.914-8.508,22.554-10.27c0,0,1.464,9.074,3.646,9.259c0,0,1.046,0.773,0.142-1.173
		c-0.904-1.947-1.537-11.048-2.116-14.319c-0.578-3.271-3.676-8.919-4.041-9.011c-0.364-0.091-42.542-3.44-42.996-3.588
		c-0.455-0.146-4.371,0-4.371,0s2.356,5.974,2.126,11.84c-0.074,1.913,0.322,4.227-0.505,5.885
		C70.785,104.914,67.688,105.211,66.254,106.5"/>
	<path fill="none" stroke="#BC4637" stroke-width="2" stroke-linecap="round" stroke-linejoin="round" stroke-miterlimit="10" d="
		M71.396,101.296c0,0-8.826,3.028-9.164,4.267c-0.337,1.237,1.644,3.353,3.264,4.479c1.622,1.126,20.08,20.283,24.277,21.913
		c4.197,1.632,3.352,2.44,6.436,0.6c3.083-1.838,14.442-8.352,16.658-10.048c2.217-1.696,7.057-6.203,8.879-6.902
		c1.823-0.702,4.301-3.739,4.524-4.415c0.225-0.676,2.138-2.477,2.138-2.477l-5.763-3.802"/>
	<path fill="#FFC691" d="M69.049,55.81c0,0-0.198-10.344-4.679-9.844c-4.479,0.501-5.793,5.048-4.638,7.938
		c1.154,2.891,3.514,4.788,3.938,5.289c0.424,0.502,0.107,1.352-0.804,2.07c-0.909,0.717-2.707,3.859-1.074,6.103
		c1.634,2.243,5.633-3.31,5.633-3.31L69.049,55.81z"/>
	<path fill="none" stroke="#F1B486" stroke-miterlimit="10" d="M69.049,55.81c0,0-0.198-10.344-4.679-9.844
		c-4.479,0.501-5.793,5.048-4.638,7.938c1.154,2.891,3.514,4.788,3.938,5.289c0.424,0.502,0.107,1.352-0.804,2.07
		c-0.909,0.717-2.707,3.859-1.074,6.103c1.634,2.243,5.633-3.31,5.633-3.31L69.049,55.81z"/>
	<path fill="#FFC691" d="M61.879,53.784c0,0,0.212-3.342,1.621-3.571c1.409-0.229,3.104,6.681,2.929,8.418"/>
	<path fill="none" stroke="#F1B486" stroke-linecap="round" stroke-linejoin="round" stroke-miterlimit="10" d="M61.879,53.784
		c0,0,0.212-3.342,1.621-3.571c1.409-0.229,3.104,6.681,2.929,8.418"/>
	<path fill="#FFC691" d="M124.638,49.165c0,0,2.215-8.114,4.604-8.845c2.39-0.73,4.188,7.528,3.364,10.172
		c-0.824,2.643-2.56,3.949-2.816,4.447c-0.256,0.498-0.67,1.519,0.438,2.688c1.106,1.167,3.275,4.69,1.866,5.832
		c-1.411,1.143-4.975,3.774-6.242,1.585C124.583,62.855,123.263,50.529,124.638,49.165"/>
	<path fill="none" stroke="#F1B486" stroke-miterlimit="10" d="M124.638,49.165c0,0,2.215-8.114,4.604-8.845
		c2.39-0.73,4.188,7.528,3.364,10.172c-0.824,2.643-2.56,3.949-2.816,4.447c-0.256,0.498-0.67,1.519,0.438,2.688
		c1.106,1.167,3.275,4.69,1.866,5.832c-1.411,1.143-4.975,3.774-6.242,1.585C124.583,62.855,123.263,50.529,124.638,49.165z"/>
	<path fill="#FFC691" d="M130.303,48.244c-0.686-0.002-7.056,1.758-3.092,9.872"/>
	<path fill="none" stroke="#F1B486" stroke-linecap="round" stroke-linejoin="round" stroke-miterlimit="10" d="M130.303,48.244
		c-0.686-0.002-7.056,1.758-3.092,9.872"/>
	<path fill="#FFC691" d="M70.29,47.678c-0.618,4.924-9.255,29.448-8.667,32.19c0.588,2.742,23.314,35.721,37.142,31.771
		c13.826-3.952,30.773-23.24,31.68-25.516c0.907-2.275-0.708-13.077-2.285-21.898c-1.576-8.822-5.793-31.258-8.143-36.124
		c-2.352-4.866-3.403-18.313-26.81-13.088C69.8,20.24,70.419,33.883,70.419,33.883S70.906,42.756,70.29,47.678"/>
	<path fill="none" stroke="#F1B486" stroke-miterlimit="10" d="M70.29,47.678c-0.618,4.924-9.255,29.448-8.667,32.19
		c0.588,2.742,23.314,35.721,37.142,31.771c13.826-3.952,30.773-23.24,31.68-25.516c0.907-2.275-0.708-13.077-2.285-21.898
		c-1.576-8.822-5.793-31.258-8.143-36.124c-2.352-4.866-3.403-18.313-26.81-13.088C69.8,20.24,70.419,33.883,70.419,33.883
		S70.906,42.756,70.29,47.678z"/>
	<path fill="#FFFFFF" d="M87.565,50.58c1.087,1.566,1.381,3.313-0.436,4.794c-3.686,3.009-11.265,3.928-13.416-1.444
		c-1.287-3.217,0.912-6.068,3.864-7.083C81.488,45.505,85.198,47.164,87.565,50.58"/>
	<path fill="#FFFFFF" d="M103.576,51.319c-0.914,1.675-1.02,3.44,0.944,4.72c3.985,2.598,11.619,2.705,13.186-2.867
		c0.936-3.334-1.554-5.937-4.598-6.629C109.077,45.625,105.565,47.672,103.576,51.319"/>
	<path fill="#574A35" d="M84.481,51.754c-0.441-1.99-2.414-3.244-4.404-2.803c-1.989,0.441-3.244,2.414-2.803,4.404
		c0.443,1.99,2.415,3.245,4.404,2.803C83.671,55.716,84.925,53.744,84.481,51.754"/>
	<path fill="#343432" d="M82.478,52.199c-0.196-0.883-1.07-1.441-1.954-1.244c-0.884,0.197-1.44,1.07-1.243,1.955
		c0.195,0.883,1.07,1.44,1.953,1.244C82.117,53.959,82.674,53.084,82.478,52.199"/>
	<path fill="#FFFFFF" d="M80.862,50.168c-0.208-0.938-1.138-1.529-2.075-1.321c-0.938,0.209-1.528,1.138-1.319,2.076
		c0.207,0.936,1.137,1.528,2.074,1.319C80.479,52.034,81.071,51.105,80.862,50.168"/>
	<path fill="#574A35" d="M113.449,52.908c0.228-2.025-1.231-3.854-3.257-4.08c-2.025-0.229-3.853,1.23-4.08,3.257
		c-0.227,2.026,1.23,3.854,3.257,4.079C111.394,56.392,113.222,54.934,113.449,52.908"/>
	<path fill="#343432" d="M111.408,52.679c0.102-0.9-0.546-1.71-1.444-1.812c-0.899-0.101-1.71,0.546-1.811,1.445
		c-0.101,0.898,0.545,1.709,1.445,1.812C110.497,54.224,111.308,53.578,111.408,52.679"/>
	<path fill="#FFFFFF" d="M110.541,50.234c0.106-0.955-0.581-1.815-1.534-1.923c-0.956-0.108-1.816,0.579-1.923,1.534
		c-0.108,0.954,0.579,1.814,1.534,1.922C109.572,51.873,110.433,51.187,110.541,50.234"/>
	<path fill="#343432" d="M73.345,51.838c0,0,0.462-3.867,6.26-4.196c5.797-0.326,8.818,4.915,8.818,4.915s-1.455-7.018-8.43-6.304
		C73.018,46.966,73.345,51.838,73.345,51.838"/>
	<path fill="#343432" d="M117.776,51.045c0,0-0.778-3.456-6.578-3.164c-5.799,0.293-8.337,5.487-8.337,5.487
		s0.698-7.133,7.708-7.167C117.581,46.166,117.776,51.045,117.776,51.045"/>
	<path fill="#343432" d="M75.952,56.69c0,0,0.147,0.087,0.416,0.212c0.27,0.123,0.666,0.268,1.15,0.405
		c0.245,0.056,0.508,0.134,0.794,0.173c0.284,0.052,0.585,0.084,0.897,0.109c0.313,0.042,0.639,0.02,0.967,0.035
		c0.329-0.022,0.665-0.033,0.996-0.074c0.33-0.053,0.667-0.07,0.987-0.148c0.321-0.077,0.646-0.125,0.945-0.222
		c0.303-0.089,0.595-0.175,0.872-0.256c0.271-0.103,0.528-0.198,0.765-0.288c0.481-0.164,0.854-0.364,1.13-0.479
		c0.273-0.117,0.43-0.185,0.43-0.185s-0.147,0.086-0.404,0.237c-0.264,0.133-0.614,0.387-1.09,0.578
		c-0.234,0.104-0.488,0.217-0.757,0.337c-0.278,0.095-0.572,0.196-0.876,0.3c-0.304,0.104-0.632,0.16-0.96,0.246
		c-0.327,0.086-0.673,0.111-1.01,0.17c-0.343,0.037-0.688,0.042-1.025,0.057c-0.339-0.021-0.673-0.006-0.992-0.055
		c-0.323-0.029-0.63-0.084-0.917-0.154c-0.29-0.056-0.555-0.152-0.801-0.224C76.493,57.126,75.952,56.69,75.952,56.69"/>
	<path fill="#343432" d="M115.773,56.156c0,0-0.491,0.49-1.426,0.933c-0.238,0.098-0.49,0.222-0.772,0.308
		c-0.279,0.1-0.579,0.188-0.896,0.251c-0.312,0.083-0.646,0.104-0.981,0.161c-0.337,0.021-0.681,0.053-1.025,0.053
		c-0.342-0.021-0.688-0.012-1.022-0.063c-0.334-0.049-0.667-0.07-0.98-0.141c-0.313-0.07-0.616-0.141-0.903-0.205
		c-0.279-0.091-0.544-0.176-0.788-0.255c-0.492-0.14-0.868-0.354-1.146-0.46c-0.271-0.121-0.427-0.19-0.427-0.19
		s0.163,0.05,0.446,0.138c0.287,0.082,0.68,0.243,1.175,0.354c0.245,0.065,0.511,0.133,0.79,0.206
		c0.285,0.052,0.586,0.104,0.896,0.161c0.31,0.064,0.636,0.078,0.963,0.119c0.327,0.045,0.665,0.027,0.999,0.043
		c0.334,0.006,0.668-0.02,0.998-0.033c0.324-0.05,0.65-0.063,0.957-0.137c0.308-0.059,0.604-0.123,0.88-0.205
		c0.281-0.067,0.534-0.174,0.77-0.256c0.469-0.188,0.848-0.375,1.102-0.527C115.636,56.258,115.773,56.156,115.773,56.156"/>
	<path fill="#574A35" d="M70.29,47.678c0,0,3.219-10.724,6.83-11.652c0,0,1.764-1.769-1.301-3.095
		c-3.066-1.326-4.012-5.734-1.578-8.295c2.434-2.562,4.395-3.203,4.395-3.203s11.002,4.133,19.045,1
		c8.043-3.131,13.373-5.608,13.373-5.608s6.193,6.519,5.623,10.032c-0.568,3.513-2.144,8.558-3.551,9.014
		c0,0,6.589,1.324,6.62,8.844c0,0,3.506,4.686,4.329,9.222l1.713-1.876c0,0,0.25-1.569,0.193-2.781
		c-0.012-0.216-1.146-2.609,0.35-5.64c-0.402-3.932-1.17-8.567-2.663-11.648c0,0-1.102-7.829-5.116-9.316
		c0,0-0.568-8.117-7.149-9.328c0,0-32.644,1.203-33.088,1.275c-0.444,0.073-9.677,3.626-12.333,6.567c0,0-0.063,11.185,2.366,14.552
		c2.433,3.368,2.365,6.457,1.435,7.748c-0.931,1.293-1.002,9.289-1.002,9.289S70.451,52.552,70.29,47.678"/>
	<path fill="none" stroke="#4C3617" stroke-miterlimit="10" d="M70.29,47.678c0,0,3.219-10.724,6.83-11.652
		c0,0,1.764-1.769-1.301-3.095c-3.066-1.326-4.012-5.734-1.578-8.295c2.434-2.562,4.395-3.203,4.395-3.203s11.002,4.133,19.045,1
		c8.043-3.131,13.373-5.608,13.373-5.608s6.193,6.519,5.623,10.032c-0.568,3.513-2.144,8.558-3.551,9.014
		c0,0,6.589,1.324,6.62,8.844c0,0,3.506,4.686,4.329,9.222l1.713-1.876c0,0,0.25-1.569,0.193-2.781
		c-0.012-0.216-1.146-2.609,0.35-5.64c-0.402-3.932-1.17-8.567-2.663-11.648c0,0-1.102-7.829-5.116-9.316
		c0,0-0.568-8.117-7.149-9.328c0,0-32.644,1.203-33.088,1.275c-0.444,0.073-9.677,3.626-12.333,6.567c0,0-0.063,11.185,2.366,14.552
		c2.433,3.368,2.365,6.457,1.435,7.748c-0.931,1.293-1.002,9.289-1.002,9.289S70.451,52.552,70.29,47.678z"/>
	<path fill="#574A35" d="M82.182,0.54c0,0-12.781,6.244-7.993,17.464c0,0,3.999,9.867,22.722,5.797
		c18.722-4.071,13.894-9.215,13.894-9.215s-2.749-6.395-8.799-6.438c-6.052-0.041-10.563,2.174-10.563,2.174s5.35-3.378,5.544-5.689
		c0.193-2.314-11.478,5.857-11.478,5.857s6.323-8.098,3.831-9.403c-2.494-1.306-8.544,8.458-8.544,8.458S84.604,1.363,82.182,0.54"
		/>
	<path fill="none" stroke="#4C3617" stroke-miterlimit="10" d="M82.182,0.54c0,0-12.781,6.244-7.993,17.464
		c0,0,3.999,9.867,22.722,5.797c18.722-4.071,13.894-9.215,13.894-9.215s-2.749-6.395-8.799-6.438
		c-6.052-0.041-10.563,2.174-10.563,2.174s5.35-3.378,5.544-5.689c0.193-2.314-11.478,5.857-11.478,5.857s6.323-8.098,3.831-9.403
		c-2.494-1.306-8.544,8.458-8.544,8.458S84.604,1.363,82.182,0.54z"/>
	<path fill="none" stroke="#D69F7B" stroke-linecap="round" stroke-linejoin="round" stroke-miterlimit="10" d="M88.321,71.47
		c0,0-1.01,2.9,0.399,2.442c1.406-0.456,1.912-1.559,1.912-1.559s0.911,3.101,4.738,3.194c3.495,0.086,4.242-1.072,4.732-3.203
		c0.49-2.133,3.354-1.344,2.722-0.328"/>
	<path fill="#574A35" d="M105.021,42.83c0,0,4.819-3.662,7.08-2.84c2.26,0.824,6.361,3.649,6.361,3.649s-2.603-5.769-5.71-6.619
		c-3.109-0.851-8.927,2.423-9.735,3.66C102.209,41.917,102.761,43.375,105.021,42.83"/>
	<path fill="#574A35" d="M85.969,43.506c0,0-4.82-3.663-7.081-2.84c-2.26,0.824-6.361,3.648-6.361,3.648s2.602-5.768,5.71-6.619
		c3.108-0.85,8.927,2.424,9.735,3.66C88.779,42.592,88.229,44.05,85.969,43.506"/>
	<path fill="none" stroke="#231F20" stroke-linecap="round" stroke-linejoin="round" stroke-miterlimit="10" d="M78.474,82.587
		c0,0,6.098,3.912,14.647,0.939c1.111-0.18,1.36,3.2,3.322,2.425c1.964-0.775,1.641-3.461,2.122-3.309
		c0.48,0.149,3.271,1.487,6.141,2.007c2.367,0.314,5.884,0.035,9.965-2.552"/>
	<path fill="none" stroke="#231F20" stroke-linecap="round" stroke-linejoin="round" stroke-miterlimit="10" d="M89.089,89.085
		c0,0,10.034,2.93,14.239-1.175"/>
	<polygon fill="#231F20" points="119.817,47.752 126.313,49.245 126.313,52.707 120.511,50.504 	"/>
	<path fill="#231F20" d="M95.067,42.132c-18.028,0-26.961,1.461-26.961,1.461l0.813,6.173c2.273,13.319,7.309,11.855,10.882,11.855
		c3.573,0,8.771,1.625,11.045-5.845c2.274-7.472,4.222-7.798,4.222-7.798s1.95,0.326,4.225,7.798
		c2.274,7.47,7.471,5.845,11.045,5.845c3.572,0,8.607,1.464,10.883-11.855l0.812-6.173C122.031,43.592,113.099,42.132,95.067,42.132
		 M89.809,55.067c-2.45,5.965-5.718,5.392-5.718,5.392H80.17c-10.622,0-8.581-9.395-8.988-13.071
		c-0.409-3.677,9.478-3.595,9.478-3.595s4.248-0.163,8.251,0.652C92.914,45.262,92.262,49.102,89.809,55.067 M118.956,47.387
		c-0.409,3.677,1.633,13.071-8.987,13.071h-3.921c0,0-3.27,0.573-5.721-5.392c-2.45-5.965-3.104-9.805,0.899-10.622
		c4.004-0.815,8.252-0.652,8.252-0.652S119.364,43.711,118.956,47.387"/>
	<path fill="none" stroke="#F1B486" stroke-linecap="round" stroke-linejoin="round" stroke-miterlimit="10" d="M103.598,62.187
		c0,0,4.256-0.602,6.739-0.566c2.482,0.039,5.705,0.254,6.894,0.566"/>
	<path fill="none" stroke="#F1B486" stroke-linecap="round" stroke-linejoin="round" stroke-miterlimit="10" d="M87.012,62.187
		c0,0-3.089-0.219-6.903-0.416c-3.814-0.195-7.829,1.248-8.039,1.127"/>
	<path fill="#FFC691" d="M71.977,100.142c0,0-0.12,2.045-0.178,2.355"/>
	<path fill="none" stroke="#F1B486" stroke-miterlimit="10" d="M71.977,100.142c0,0-0.12,2.045-0.178,2.355"/>
	<path fill="#FFC691" d="M121.966,103.254c0,0,0.346,2.72,0.421,3.246"/>
	<path fill="none" stroke="#F1B486" stroke-miterlimit="10" d="M121.966,103.254c0,0,0.346,2.72,0.421,3.246"/>
	<path fill="#BC4637" d="M144.008,155.33c-0.263,2.628-0.525,32.338-2.892,38.469c-2.366,6.131,3.681,31.465,3.979,35.934
		c0.299,4.471,1.806,32.075,0,35.23c-1.803,3.154-17.912,2.104-26.063,5.784c-8.15,3.681-21.821,0-27.607,0
		c-5.784,0-26.028-3.154-33.915-5.522c-7.887-2.366-6.573-9.99-9.444-16.037c-2.872-6.047-1.334-30.233-1.729-36.809
		c-0.396-6.571,1.973-29.972,1.71-35.155c-0.265-5.185-3.419-29.016-3.419-29.016l-4.85,29.456c1.486-0.053,3.185-0.15,3.185-0.15
		s0.03,17.286-1.508,25.153c-1.688,7.878-0.372,45.371-0.148,56.963c0.226,11.592,2.885,10.311,4.801,10.774
		c0.149,0.036,0.525,0.176,1.111,0.247c4.358,0.529,19.82,2.16,32.68,3.185c8.234,0.656,15.439,1.22,17.916,1.259
		c0.727,0.013,2.059-0.007,3.555-0.076c0.322-0.088,0.199-0.299,0.324-0.387c14.656-1.076,41.959-3.561,43.477-4.098
		c0.863-0.304,2.033-0.064,3.029-0.895c1.213-1.013,2.048-3.537,2.172-9.901c0.164-8.454,1.008-30.765,0.75-45.292
		c-0.096-5.392-0.416-9.731-0.874-11.865c-1.688-7.877-1.298-24.994-1.298-24.994s1.367,0.049,3.544,0.094
		c-3.115-18.416-6.621-39.443-6.621-39.443S144.271,152.701,144.008,155.33"/>
	<path fill="#BE1E2D" d="M145.329,129.759c0,0,3.348,38.264,4.023,48.168"/>
	<path fill="none" stroke="#BC4637" stroke-miterlimit="10" d="M145.329,129.759c0,0,3.348,38.264,4.023,48.168"/>
	<path fill="#BE1E2D" d="M46.477,129.759c0,0-3.265,38.264-3.938,48.168"/>
	<path fill="none" stroke="#BC4637" stroke-miterlimit="10" d="M46.477,129.759c0,0-3.265,38.264-3.938,48.168"/>
	<path fill="#18252B" d="M50.438,403.495c0,0-2.775,5.555-3.266,7.351c-0.49,1.796,1.959,1.469,4.245,4.408
		c2.286,2.939,1.96,6.859,0,9.961c-1.959,3.103-5.024,7.185-4.309,8.002c0.717,0.816,7.248-5.104,17.372-4.021
		c10.124,1.082,17.473,10.778,21.064,10.503c3.593-0.276,8.036-2.072,6.467-4.196c-1.568-2.122-2.221-1.307-6.629-1.632
		c-4.409-0.327-11.104-8.655-16.656-8.655c-5.552,0-14.533,1.797-14.533,1.797s6.042-4.409,5.388-7.675
		c-0.652-3.265-2.285-3.102-5.388-7.023C51.092,408.395,50.438,403.495,50.438,403.495"/>
	<path fill="#18252B" d="M110.351,431.258c0,0-2.271,2.449-1.453,4.897c0.815,2.45,1.959-0.815,5.715-2.448
		c3.755-1.634,7.674-0.817,11.758-1.634c4.081-0.815,11.339-2.286,13.752-2.122c2.412,0.163,4.536-8.655,1.923-11.757
		c-2.612-3.103-4.735-8.329-4.735-8.329c0.163-1.469-2.939,3.92-0.49,7.021c2.45,3.103,5.543,9.145,2.444,9.472
		c-3.097,0.326-8.323,2.897-10.445,2.837c-2.123-0.061-7.348-2.348-11.105-1.694C113.959,428.154,110.351,431.258,110.351,431.258"
		/>
	<path fill="#18252B" d="M108.778,411.709c-1.449-1.886-3.265-8.959-4.443-13.439c-1.18-4.48,0.942-7.311,0-11.555
		c-0.943-4.243-3.066-12.732-4.716-16.034c-1.65-3.3-3.302-22.635-4.29-28.53c-0.988-5.895-0.06-42.302-0.06-42.302l-2.489,9.763
		l-1.846-6.234c0,0,0.195,7.413,1.139,9.064c0.941,1.65-1.65,24.052-1.14,27.823c0.511,3.773-0.511,27.117,0.001,30.182
		c0.513,3.066-0.04,24.758,0,32.305c0.018,3.182,0.002,4.684,0.56,5.408c0.075-1.908,0.297-3.713,0.604-6.93
		c0.526-5.521-0.587-20.027-0.062-26.864c0.525-6.835-0.215-20.286-0.215-20.286s0.796,1.506,1.348,3.873
		c1.928,8.291,5.925,27.217,6.904,29.67c0.649,1.63,0.822,4.59,0.947,7.545l6.334,20.99
		C107.354,416.156,110.229,413.595,108.778,411.709"/>
	<polyline fill="none" stroke="#18252B" stroke-linecap="round" stroke-linejoin="round" stroke-miterlimit="10" points="
		92.226,355.449 93.258,306.715 94.979,299.614 	"/>
	<path fill="none" stroke="#18252B" stroke-linecap="round" stroke-linejoin="round" stroke-miterlimit="10" d="M88.573,293.133
		c0,0,1.805,9.876,4.606,17.285"/>
	<path fill="#BC4637" d="M71.267,97.477c0,0-1.296,0.515-1.673,0.821c-0.377,0.307-1.323,0.99-1.937,1.172
		c-0.613,0.18-2.369,0.946-4.292,1.435c-1.924,0.488-2.467,0.642-3.206,0.78c-0.738,0.14-2.954,0.768-3.176,0.836
		c-0.225,0.07-1.84,0.572-2.078,0.962c-0.236,0.392-1.295,1.324-0.627,3.692c0,0,0.572,1.658,0.767,1.938l-4.737,0.779
		c0,0-3.205,0.504-3.347,0.517c-0.138,0.015-0.835-0.013-1.921,0.419c-1.088,0.432-3.08,1.03-4.67,1.977
		c-1.588,0.948-2.173,1.505-2.605,1.7c-0.431,0.196-3.107,1.965-3.999,2.314c-0.892,0.348-3.554,1.909-3.93,2.146
		c0,0-1.06,0.633-1.345,0.803c-0.285,0.172-0.971,0.762-1.219,1.199c-0.246,0.439-0.724,1.163-0.799,1.543
		c-0.078,0.381-0.332,1.276-0.299,1.676c0.032,0.4,0,1.296,0,1.296s0.961,2.474,1.787,1.03c0.823-1.442-1.032-2.611,1.373-4.467
		c2.406-1.854,8.316-4.742,9.141-5.291c0.825-0.55,1.801-2.68,4.063-3.574c2.259-0.893,4.666-1.16,6.59-1.541
		c1.924-0.382,4.947-0.451,6.391-1.07c1.443-0.618,1.099-2.52,0.619-3.253c-0.481-0.732-1.506-3.138,0.415-3.619
		c1.921-0.481,5.426-1.786,6.249-1.923c0.826-0.139,3.506-1.412,4.606-1.635c1.1-0.223,3.093-1.115,3.367-1.322"/>
	<path fill="#ED9283" d="M35.501,453.527c0,0,10.242-5.987,11.502-8.773c1.261-2.787,4.52-6.81,6.148-7.717
		c1.628-0.908,10.183-3.082,13.171-1.316c0,0-2.58,2.987-7.604,3.396c-5.024,0.406-8.147,0.738-7.809,3.968
		c0.341,3.228-3.462,8.783-5.906,9.332C42.561,452.965,35.364,454.768,35.501,453.527"/>
	<path fill="#ED9283" d="M142.35,437.169c0,0,4.725,9.221,8.552,11.484c3.83,2.264,10.535,6.802,11.769,7.738
		c1.233,0.936,6.156,4.001-2.8,4.513c-8.955,0.512-14.898,0.852-16.074,0.188c-1.175-0.665,6.699-0.757,10.763-1.618
		c4.064-0.862,9.095-0.241,7.176-1.849c-1.921-1.607-4.933-3.756-8.48-5.202c-3.548-1.448-8.855-4.916-9.64-6.943
		C142.83,443.451,142.35,437.169,142.35,437.169"/>
	<path fill="#4C3617" d="M79.531,4.764c-0.033,0-0.142,0.073-0.307,0.215c-1.071,0.915-4.465,4.662-3.903,9.744
		c0.652,5.869,7.188,9.191,15.93,8.63c8.527-0.547,14.243-3.411,15.996-5.145c1.755-1.735,0.521-2.025,0.521-2.025
		s-1.946,1.301-4.62,2.096c-2.674,0.795-7.318,3.227-11.365,3.08c-4.048-0.143-10-0.795-12.024-3.034
		c-1.578-1.745-5.482-8.499-0.369-13.487"/>
	<path fill="#4C3617" d="M72.82,18.541c-0.362,0-5.205,2.604-5.421,3.254c-0.217,0.65,0.361,10.406,1.301,12.142
		c0.939,1.734,2.096,3.397,2.096,4.407c0,0,0.389-1.527-0.709-4.701c-1.098-3.176-2.646-10.258-1.98-11.053
		c0.667-0.795,5.236-2.963,5.236-2.963L72.82,18.541z"/>
	<path fill="#4C3617" d="M113.004,14.756c0,0,3.831,2.387,3.902,5.204c0.074,2.819,1.259,3.813,1.822,3.931
		c0.563,0.117,2.298,1.418,2.658,3.225c0.362,1.807,0.645,4.481,0.645,4.481s-1.222-4.336-1.872-5.348
		c-0.65-1.012-3.542-2.385-3.831-4.191c-0.288-1.808-1.013-4.264-1.517-4.771C114.306,16.78,113.004,14.756,113.004,14.756"/>
	<path fill="#75654E" d="M92.583,12.135c0,0,6.813-3.927,10.737-2.564c3.926,1.361,5.522,4.521,6.007,5.184
		c0,0-3.079-3.422-6.466-3.501C99.475,11.174,92.583,12.135,92.583,12.135"/>
	<path fill="#75654E" d="M84.035,6.538c0,0,3.468-4.933,4.783-4.663c0,0,0.569,0.389,0.149,1.255c0,0,0.238-1.017-0.598-0.537
		C87.533,3.069,84.035,6.538,84.035,6.538"/>
	<path fill="#75654E" d="M90.163,8.57c0,0,5.547-3.527,5.987-3.408c0,0-0.188,0.568-0.456,0.867c-0.269,0.299-0.09-0.269-0.09-0.269
		L90.163,8.57z"/>
</g>
</svg>