<!-- Generator: Adobe Illustrator 17.0.0, SVG Export Plug-In  -->
<svg version="1.1"
	 xmlns="http://www.w3.org/2000/svg" xmlns:xlink="http://www.w3.org/1999/xlink" xmlns:a="http://ns.adobe.com/AdobeSVGViewerExtensions/3.0/"
	 x="0px" y="0px" width="561.241px" height="391.753px" viewBox="0 0 561.241 391.753" enable-background="new 0 0 561.241 391.753"
	 xml:space="preserve">
<defs>
</defs>
<g>
	<path fill="#F16529" d="M9.896,10.664c-0.233,0.542-0.553,1.016-0.959,1.422s-0.883,0.726-1.428,0.958
		c-0.547,0.233-1.129,0.35-1.746,0.35H1.638v6.995H0V2.184h5.764c0.617,0,1.199,0.116,1.746,0.349
		c0.545,0.233,1.021,0.553,1.428,0.959s0.726,0.883,0.959,1.428c0.232,0.547,0.349,1.129,0.349,1.746v2.26
		C10.245,9.542,10.129,10.122,9.896,10.664z M8.607,6.665c0-0.406-0.076-0.785-0.229-1.137C8.227,5.178,8.018,4.868,7.75,4.603
		C7.484,4.335,7.175,4.126,6.824,3.974c-0.352-0.152-0.73-0.229-1.137-0.229h-4.05v8.087h4.05c0.406,0,0.785-0.076,1.137-0.229
		c0.351-0.152,0.66-0.36,0.926-0.622c0.268-0.262,0.477-0.569,0.629-0.92c0.152-0.352,0.229-0.73,0.229-1.137V6.665z"/>
	<path fill="#F16529" d="M23.347,16.174c0,0.618-0.125,1.198-0.374,1.739c-0.25,0.541-0.584,1.016-1.004,1.422
		c-0.418,0.406-0.905,0.726-1.459,0.959c-0.555,0.232-1.141,0.349-1.759,0.349h-1.308c-0.617,0-1.204-0.116-1.758-0.349
		c-0.555-0.233-1.041-0.553-1.461-0.959c-0.418-0.406-0.753-0.881-1.002-1.422c-0.25-0.541-0.375-1.121-0.375-1.739V15.45
		l1.638-0.267v0.99c0,0.406,0.083,0.785,0.247,1.136c0.166,0.352,0.388,0.66,0.667,0.928c0.279,0.266,0.603,0.476,0.972,0.628
		c0.367,0.152,0.755,0.229,1.161,0.229h1.143c0.406,0,0.792-0.076,1.155-0.229s0.686-0.362,0.965-0.628
		c0.279-0.268,0.502-0.576,0.666-0.928c0.166-0.351,0.248-0.729,0.248-1.136v-0.546c0-0.627-0.123-1.146-0.368-1.562
		s-0.571-0.769-0.978-1.06c-0.406-0.293-0.865-0.54-1.377-0.743c-0.513-0.203-1.039-0.406-1.581-0.609s-1.068-0.427-1.581-0.673
		c-0.512-0.246-0.971-0.553-1.377-0.92c-0.406-0.369-0.732-0.819-0.978-1.353s-0.368-1.188-0.368-1.968V6.398
		c0-0.618,0.116-1.198,0.35-1.739c0.232-0.541,0.552-1.016,0.958-1.422s0.882-0.726,1.429-0.959
		c0.545-0.232,1.127-0.349,1.745-0.349h1.168c0.618,0,1.198,0.116,1.739,0.349c0.541,0.233,1.016,0.553,1.422,0.959
		s0.726,0.881,0.959,1.422C23.104,5.2,23.22,5.78,23.22,6.398v0.47l-1.638,0.267V6.398c0-0.406-0.076-0.785-0.229-1.136
		c-0.152-0.352-0.359-0.658-0.622-0.921s-0.569-0.47-0.921-0.622c-0.351-0.152-0.729-0.229-1.136-0.229h-1.016
		c-0.406,0-0.785,0.076-1.136,0.229c-0.352,0.152-0.66,0.359-0.928,0.622c-0.266,0.263-0.476,0.569-0.628,0.921
		c-0.152,0.351-0.229,0.729-0.229,1.136v0.343c0,0.584,0.122,1.074,0.368,1.473s0.571,0.738,0.978,1.021
		c0.406,0.284,0.865,0.529,1.378,0.736c0.512,0.208,1.039,0.42,1.58,0.635c0.541,0.217,1.068,0.453,1.58,0.711
		c0.513,0.259,0.972,0.576,1.378,0.953c0.406,0.376,0.731,0.836,0.978,1.377s0.368,1.201,0.368,1.98V16.174z"/>
	<path fill="#F16529" d="M36.76,10.664c-0.233,0.542-0.553,1.016-0.959,1.422s-0.883,0.726-1.428,0.958
		c-0.547,0.233-1.129,0.35-1.746,0.35h-4.126v6.995h-1.638V2.184h5.764c0.617,0,1.199,0.116,1.746,0.349
		c0.545,0.233,1.021,0.553,1.428,0.959s0.726,0.883,0.959,1.428c0.232,0.547,0.349,1.129,0.349,1.746v2.26
		C37.108,9.542,36.992,10.122,36.76,10.664z M35.471,6.665c0-0.406-0.076-0.785-0.229-1.137c-0.152-0.351-0.361-0.66-0.629-0.926
		c-0.266-0.268-0.575-0.477-0.926-0.629c-0.352-0.152-0.73-0.229-1.137-0.229h-4.05v8.087h4.05c0.406,0,0.785-0.076,1.137-0.229
		c0.351-0.152,0.66-0.36,0.926-0.622c0.268-0.262,0.477-0.569,0.629-0.92c0.152-0.352,0.229-0.73,0.229-1.137V6.665z"/>
	<path fill="#F16529" d="M45.69,12.797c0-1.413,0.136-2.729,0.406-3.948s0.647-2.355,1.13-3.408
		c0.482-1.055,1.056-2.031,1.721-2.934c0.664-0.9,1.39-1.736,2.177-2.507l0.914,0.914c-0.694,0.72-1.335,1.515-1.923,2.387
		c-0.589,0.872-1.094,1.81-1.518,2.812c-0.424,1.004-0.754,2.063-0.99,3.181s-0.355,2.285-0.355,3.504s0.119,2.387,0.355,3.504
		s0.566,2.177,0.99,3.181c0.424,1.002,0.929,1.939,1.518,2.812c0.588,0.872,1.229,1.667,1.923,2.387l-0.914,0.914
		c-0.787-0.771-1.513-1.606-2.177-2.507c-0.665-0.902-1.238-1.881-1.721-2.939s-0.859-2.196-1.13-3.415S45.69,14.202,45.69,12.797z"
		/>
	<path fill="#F16529" d="M64.791,10.664c-0.233,0.542-0.553,1.016-0.959,1.422s-0.883,0.726-1.428,0.958
		c-0.547,0.233-1.129,0.35-1.746,0.35h-4.126v6.995h-1.638V2.184h5.764c0.617,0,1.199,0.116,1.746,0.349
		c0.545,0.233,1.021,0.553,1.428,0.959s0.726,0.883,0.959,1.428c0.232,0.547,0.349,1.129,0.349,1.746v2.26
		C65.14,9.542,65.023,10.122,64.791,10.664z M63.502,6.665c0-0.406-0.076-0.785-0.229-1.137c-0.152-0.351-0.361-0.66-0.629-0.926
		c-0.266-0.268-0.575-0.477-0.926-0.629c-0.352-0.152-0.73-0.229-1.137-0.229h-4.05v8.087h4.05c0.406,0,0.785-0.076,1.137-0.229
		c0.351-0.152,0.66-0.36,0.926-0.622c0.268-0.262,0.477-0.569,0.629-0.92c0.152-0.352,0.229-0.73,0.229-1.137V6.665z"/>
	<path fill="#F16529" d="M71.563,8.874c-0.313,0-0.607,0.059-0.882,0.178c-0.275,0.119-0.515,0.279-0.718,0.482
		s-0.364,0.442-0.482,0.717c-0.118,0.275-0.178,0.57-0.178,0.883v9.255h-1.562v-13h0.521l0.851,1.32
		c0.355-0.482,0.802-0.865,1.34-1.149c0.537-0.283,1.123-0.425,1.758-0.425h0.914v1.739H71.563z"/>
	<path fill="#F16529" d="M83.592,18.307c-0.198,0.466-0.471,0.872-0.818,1.219s-0.754,0.62-1.219,0.819
		c-0.465,0.198-0.961,0.298-1.485,0.298h-1.041c-0.524,0-1.021-0.1-1.485-0.298c-0.465-0.199-0.871-0.473-1.219-0.819
		s-0.62-0.753-0.818-1.219c-0.199-0.466-0.299-0.96-0.299-1.485v-5.865c0-0.525,0.1-1.02,0.299-1.485
		c0.198-0.466,0.471-0.872,0.818-1.219s0.754-0.62,1.219-0.819c0.465-0.198,0.961-0.298,1.485-0.298h1.041
		c0.524,0,1.021,0.1,1.485,0.298c0.465,0.199,0.871,0.473,1.219,0.819s0.62,0.753,0.818,1.219c0.199,0.466,0.299,0.96,0.299,1.485
		v5.865C83.891,17.347,83.791,17.841,83.592,18.307z M82.329,10.867c0-0.313-0.06-0.607-0.178-0.882
		c-0.118-0.275-0.279-0.515-0.482-0.718s-0.442-0.364-0.718-0.482c-0.274-0.118-0.568-0.178-0.882-0.178h-1.041
		c-0.313,0-0.607,0.06-0.882,0.178c-0.275,0.118-0.515,0.279-0.718,0.482s-0.364,0.442-0.482,0.718
		c-0.118,0.274-0.178,0.568-0.178,0.882v6.043c0,0.313,0.06,0.607,0.178,0.882c0.118,0.275,0.279,0.515,0.482,0.718
		s0.442,0.364,0.718,0.482c0.274,0.118,0.568,0.178,0.882,0.178h1.041c0.313,0,0.607-0.06,0.882-0.178
		c0.275-0.118,0.515-0.279,0.718-0.482s0.364-0.442,0.482-0.718c0.118-0.274,0.178-0.568,0.178-0.882V10.867z"/>
	<path fill="#F16529" d="M95.398,18.307c-0.198,0.466-0.471,0.872-0.818,1.219s-0.754,0.62-1.219,0.819
		c-0.465,0.198-0.961,0.298-1.485,0.298h-1.041c-0.524,0-1.021-0.1-1.485-0.298c-0.465-0.199-0.871-0.473-1.219-0.819
		s-0.62-0.753-0.818-1.219c-0.199-0.466-0.299-0.96-0.299-1.485v-5.865c0-0.525,0.1-1.02,0.299-1.485
		c0.198-0.466,0.471-0.872,0.818-1.219s0.754-0.62,1.219-0.819c0.465-0.198,0.961-0.298,1.485-0.298h1.041
		c0.524,0,1.021,0.1,1.485,0.298c0.465,0.199,0.871,0.473,1.219,0.819s0.62,0.753,0.818,1.219c0.199,0.466,0.299,0.96,0.299,1.485
		v0.521l-1.562,0.254v-0.863c0-0.313-0.06-0.607-0.178-0.882c-0.118-0.275-0.279-0.515-0.482-0.718s-0.442-0.364-0.718-0.482
		c-0.274-0.118-0.568-0.178-0.882-0.178h-1.041c-0.313,0-0.607,0.06-0.882,0.178c-0.275,0.118-0.515,0.279-0.718,0.482
		s-0.364,0.442-0.482,0.718c-0.118,0.274-0.178,0.568-0.178,0.882v6.043c0,0.313,0.06,0.607,0.178,0.882
		c0.118,0.275,0.279,0.515,0.482,0.718s0.442,0.364,0.718,0.482c0.274,0.118,0.568,0.178,0.882,0.178h1.041
		c0.313,0,0.607-0.06,0.882-0.178c0.275-0.118,0.515-0.279,0.718-0.482s0.364-0.442,0.482-0.718
		c0.118-0.274,0.178-0.568,0.178-0.882v-0.863l1.562,0.254v0.521C95.697,17.347,95.598,17.841,95.398,18.307z"/>
	<path fill="#F16529" d="M107.205,18.307c-0.198,0.466-0.471,0.872-0.818,1.219s-0.754,0.62-1.219,0.819
		c-0.465,0.198-0.961,0.298-1.485,0.298h-1.041c-0.524,0-1.021-0.1-1.485-0.298c-0.465-0.199-0.871-0.473-1.219-0.819
		s-0.62-0.753-0.818-1.219c-0.199-0.466-0.299-0.96-0.299-1.485v-5.865c0-0.525,0.1-1.02,0.299-1.485
		c0.198-0.466,0.471-0.872,0.818-1.219s0.754-0.62,1.219-0.819c0.465-0.198,0.961-0.298,1.485-0.298h1.041
		c0.524,0,1.021,0.1,1.485,0.298c0.465,0.199,0.871,0.473,1.219,0.819s0.62,0.753,0.818,1.219c0.199,0.466,0.299,0.96,0.299,1.485
		v3.06h-7.122v2.895c0,0.313,0.06,0.607,0.178,0.882c0.118,0.275,0.279,0.515,0.482,0.718s0.442,0.364,0.718,0.482
		c0.274,0.118,0.568,0.178,0.882,0.178h1.041c0.313,0,0.607-0.06,0.882-0.178c0.275-0.118,0.515-0.279,0.718-0.482
		s0.364-0.442,0.482-0.718c0.118-0.274,0.178-0.568,0.178-0.882v-0.863l1.562,0.254v0.521
		C107.504,17.347,107.404,17.841,107.205,18.307z M105.942,10.867c0-0.313-0.06-0.607-0.178-0.882
		c-0.118-0.275-0.279-0.515-0.482-0.718s-0.442-0.364-0.718-0.482c-0.274-0.118-0.568-0.178-0.882-0.178h-1.041
		c-0.313,0-0.607,0.06-0.882,0.178c-0.275,0.118-0.515,0.279-0.718,0.482s-0.364,0.442-0.482,0.718
		c-0.118,0.274-0.178,0.568-0.178,0.882v1.93h5.561V10.867z"/>
	<path fill="#F16529" d="M119.564,17.088c0,0.524-0.105,1.005-0.317,1.44c-0.212,0.437-0.499,0.811-0.863,1.124
		s-0.785,0.557-1.263,0.729c-0.479,0.174-0.98,0.261-1.505,0.261h-1.041c-0.524,0-1.026-0.1-1.505-0.298
		c-0.478-0.199-0.896-0.473-1.256-0.819c-0.36-0.347-0.648-0.753-0.863-1.219c-0.217-0.466-0.324-0.96-0.324-1.485v-0.521
		l1.562-0.254v0.863c0,0.313,0.065,0.607,0.196,0.882c0.132,0.275,0.307,0.515,0.527,0.718s0.475,0.364,0.762,0.482
		s0.588,0.178,0.901,0.178h1.041c0.313,0,0.614-0.046,0.901-0.14s0.544-0.227,0.768-0.4c0.225-0.173,0.402-0.383,0.533-0.628
		c0.132-0.245,0.197-0.524,0.197-0.838c0-0.466-0.102-0.847-0.305-1.143s-0.472-0.544-0.807-0.743
		c-0.334-0.198-0.715-0.363-1.143-0.494c-0.427-0.132-0.865-0.263-1.313-0.395c-0.448-0.131-0.887-0.281-1.313-0.45
		c-0.428-0.169-0.809-0.392-1.143-0.667c-0.335-0.274-0.604-0.619-0.807-1.034s-0.305-0.931-0.305-1.549
		c0-0.524,0.102-1.005,0.305-1.44c0.203-0.437,0.479-0.811,0.825-1.124s0.751-0.557,1.212-0.729
		c0.462-0.174,0.955-0.261,1.479-0.261h0.914c0.524,0,1.021,0.1,1.485,0.298c0.465,0.199,0.871,0.473,1.219,0.819
		s0.62,0.753,0.818,1.219c0.199,0.466,0.299,0.96,0.299,1.485v0.051l-1.562,0.254v-0.394c0-0.313-0.06-0.607-0.178-0.882
		c-0.118-0.275-0.279-0.515-0.482-0.718s-0.442-0.364-0.718-0.482c-0.274-0.118-0.568-0.178-0.882-0.178h-0.914
		c-0.313,0-0.607,0.046-0.882,0.14c-0.275,0.094-0.515,0.227-0.718,0.4c-0.203,0.173-0.364,0.383-0.482,0.628
		s-0.178,0.524-0.178,0.838c0,0.448,0.102,0.814,0.305,1.099c0.203,0.283,0.472,0.521,0.806,0.717
		c0.335,0.195,0.716,0.357,1.143,0.488c0.428,0.132,0.863,0.268,1.309,0.406c0.443,0.141,0.88,0.299,1.307,0.477
		c0.428,0.178,0.809,0.406,1.143,0.686c0.335,0.279,0.604,0.629,0.807,1.047C119.463,15.952,119.564,16.47,119.564,17.088z"/>
	<path fill="#F16529" d="M131.498,17.088c0,0.524-0.105,1.005-0.317,1.44c-0.212,0.437-0.499,0.811-0.863,1.124
		s-0.785,0.557-1.263,0.729c-0.479,0.174-0.98,0.261-1.505,0.261h-1.041c-0.524,0-1.026-0.1-1.505-0.298
		c-0.478-0.199-0.896-0.473-1.256-0.819c-0.36-0.347-0.648-0.753-0.863-1.219c-0.217-0.466-0.324-0.96-0.324-1.485v-0.521
		l1.562-0.254v0.863c0,0.313,0.065,0.607,0.196,0.882c0.132,0.275,0.307,0.515,0.527,0.718s0.475,0.364,0.762,0.482
		s0.588,0.178,0.901,0.178h1.041c0.313,0,0.614-0.046,0.901-0.14s0.544-0.227,0.768-0.4c0.225-0.173,0.402-0.383,0.533-0.628
		c0.132-0.245,0.197-0.524,0.197-0.838c0-0.466-0.102-0.847-0.305-1.143s-0.472-0.544-0.807-0.743
		c-0.334-0.198-0.715-0.363-1.143-0.494c-0.427-0.132-0.865-0.263-1.313-0.395c-0.448-0.131-0.887-0.281-1.313-0.45
		c-0.428-0.169-0.809-0.392-1.143-0.667c-0.335-0.274-0.604-0.619-0.807-1.034s-0.305-0.931-0.305-1.549
		c0-0.524,0.102-1.005,0.305-1.44c0.203-0.437,0.479-0.811,0.825-1.124s0.751-0.557,1.212-0.729
		c0.462-0.174,0.955-0.261,1.479-0.261h0.914c0.524,0,1.021,0.1,1.485,0.298c0.465,0.199,0.871,0.473,1.219,0.819
		s0.62,0.753,0.818,1.219c0.199,0.466,0.299,0.96,0.299,1.485v0.051l-1.562,0.254v-0.394c0-0.313-0.06-0.607-0.178-0.882
		c-0.118-0.275-0.279-0.515-0.482-0.718s-0.442-0.364-0.718-0.482c-0.274-0.118-0.568-0.178-0.882-0.178h-0.914
		c-0.313,0-0.607,0.046-0.882,0.14c-0.275,0.094-0.515,0.227-0.718,0.4c-0.203,0.173-0.364,0.383-0.482,0.628
		s-0.178,0.524-0.178,0.838c0,0.448,0.102,0.814,0.305,1.099c0.203,0.283,0.472,0.521,0.806,0.717
		c0.335,0.195,0.716,0.357,1.143,0.488c0.428,0.132,0.863,0.268,1.309,0.406c0.443,0.141,0.88,0.299,1.307,0.477
		c0.428,0.178,0.809,0.406,1.143,0.686c0.335,0.279,0.604,0.629,0.807,1.047C131.396,15.952,131.498,16.47,131.498,17.088z"/>
	<path fill="#F16529" d="M149.411,17.088c0,0.524-0.106,1.005-0.317,1.44c-0.211,0.437-0.5,0.811-0.863,1.124
		s-0.785,0.557-1.264,0.729c-0.478,0.174-0.979,0.261-1.504,0.261h-1.041c-0.525,0-1.026-0.1-1.504-0.298
		c-0.479-0.199-0.897-0.473-1.258-0.819c-0.359-0.347-0.646-0.753-0.863-1.219c-0.215-0.466-0.323-0.96-0.323-1.485v-0.521
		l1.562-0.254v0.863c0,0.313,0.065,0.607,0.197,0.882c0.131,0.275,0.307,0.515,0.526,0.718s0.474,0.364,0.762,0.482
		s0.589,0.178,0.901,0.178h1.041c0.313,0,0.613-0.046,0.901-0.14s0.544-0.227,0.769-0.4c0.224-0.173,0.401-0.383,0.533-0.628
		c0.131-0.245,0.196-0.524,0.196-0.838c0-0.466-0.102-0.847-0.305-1.143s-0.472-0.544-0.806-0.743
		c-0.335-0.198-0.716-0.363-1.143-0.494c-0.428-0.132-0.865-0.263-1.314-0.395c-0.449-0.131-0.887-0.281-1.314-0.45
		c-0.427-0.169-0.808-0.392-1.143-0.667c-0.334-0.274-0.603-0.619-0.806-1.034s-0.305-0.931-0.305-1.549
		c0-0.524,0.102-1.005,0.305-1.44c0.203-0.437,0.478-0.811,0.825-1.124s0.751-0.557,1.213-0.729
		c0.461-0.174,0.953-0.261,1.479-0.261h0.914c0.525,0,1.02,0.1,1.485,0.298c0.466,0.199,0.872,0.473,1.219,0.819
		s0.62,0.753,0.819,1.219c0.198,0.466,0.298,0.96,0.298,1.485v0.051l-1.562,0.254v-0.394c0-0.313-0.059-0.607-0.178-0.882
		c-0.119-0.275-0.279-0.515-0.482-0.718s-0.442-0.364-0.717-0.482c-0.275-0.118-0.57-0.178-0.883-0.178h-0.914
		c-0.313,0-0.607,0.046-0.883,0.14c-0.274,0.094-0.514,0.227-0.717,0.4c-0.203,0.173-0.363,0.383-0.482,0.628
		s-0.178,0.524-0.178,0.838c0,0.448,0.102,0.814,0.305,1.099c0.203,0.283,0.472,0.521,0.807,0.717
		c0.334,0.195,0.715,0.357,1.143,0.488c0.427,0.132,0.863,0.268,1.307,0.406c0.445,0.141,0.881,0.299,1.309,0.477
		c0.427,0.178,0.808,0.406,1.143,0.686c0.334,0.279,0.603,0.629,0.806,1.047C149.31,15.952,149.411,16.47,149.411,17.088z"/>
	<path fill="#F16529" d="M160.793,18.307c-0.199,0.466-0.473,0.872-0.819,1.219s-0.753,0.62-1.219,0.819
		c-0.466,0.198-0.96,0.298-1.485,0.298h-1.041c-0.525,0-1.02-0.1-1.485-0.298c-0.466-0.199-0.872-0.473-1.219-0.819
		s-0.62-0.753-0.819-1.219c-0.198-0.466-0.298-0.96-0.298-1.485v-5.865c0-0.525,0.1-1.02,0.298-1.485
		c0.199-0.466,0.473-0.872,0.819-1.219s0.753-0.62,1.219-0.819c0.466-0.198,0.96-0.298,1.485-0.298h1.041
		c0.525,0,1.02,0.1,1.485,0.298c0.466,0.199,0.872,0.473,1.219,0.819s0.62,0.753,0.819,1.219c0.198,0.466,0.298,0.96,0.298,1.485
		v5.865C161.091,17.347,160.991,17.841,160.793,18.307z M159.529,10.867c0-0.313-0.059-0.607-0.178-0.882
		c-0.119-0.275-0.279-0.515-0.482-0.718s-0.442-0.364-0.717-0.482c-0.275-0.118-0.57-0.178-0.883-0.178h-1.041
		c-0.313,0-0.607,0.06-0.883,0.178c-0.274,0.118-0.514,0.279-0.717,0.482s-0.363,0.442-0.482,0.718
		c-0.119,0.274-0.178,0.568-0.178,0.882v6.043c0,0.313,0.059,0.607,0.178,0.882c0.119,0.275,0.279,0.515,0.482,0.718
		s0.442,0.364,0.717,0.482c0.275,0.118,0.57,0.178,0.883,0.178h1.041c0.313,0,0.607-0.06,0.883-0.178
		c0.274-0.118,0.514-0.279,0.717-0.482s0.363-0.442,0.482-0.718c0.119-0.274,0.178-0.568,0.178-0.882V10.867z"/>
	<path fill="#F16529" d="M168.683,3.669c-0.263,0-0.506,0.049-0.729,0.146c-0.225,0.097-0.422,0.23-0.591,0.399
		s-0.303,0.368-0.399,0.597c-0.098,0.229-0.146,0.475-0.146,0.736v1.841h3.034v1.485h-3.034v11.515h-1.562V8.874h-2.349V7.389h2.349
		V5.624c0-0.475,0.089-0.92,0.267-1.34c0.178-0.418,0.424-0.785,0.736-1.098s0.678-0.559,1.092-0.736s0.859-0.267,1.333-0.267h1.435
		v1.485H168.683z"/>
	<path fill="#F16529" d="M176.414,20.389c-0.475,0-0.92-0.089-1.34-0.267c-0.418-0.178-0.782-0.424-1.092-0.736
		c-0.309-0.313-0.554-0.678-0.736-1.092c-0.182-0.414-0.272-0.859-0.272-1.333V8.874h-2.336V7.389h2.336V4.266l1.562-0.254v3.377
		h3.301v1.485h-3.301v8.163c0,0.263,0.049,0.506,0.146,0.729c0.097,0.225,0.23,0.422,0.399,0.591s0.368,0.303,0.597,0.399
		c0.229,0.098,0.475,0.146,0.736,0.146h1.422v1.485H176.414z"/>
	<path fill="#F16529" d="M191.648,20.389h-0.851l-3.047-9.801L187.7,9.915l-0.051,0.673l-3.047,9.801h-0.863l-4.342-13h1.587
		l3.098,9.826l0.051,0.673l0.051-0.673l3.047-9.826h0.939l3.034,9.826l0.051,0.673l0.051-0.673l3.098-9.826h1.587L191.648,20.389z"
		/>
	<path fill="#F16529" d="M205.981,20.389l-0.863-1.295c-0.355,0.466-0.8,0.84-1.333,1.124c-0.533,0.283-1.117,0.425-1.752,0.425
		h-0.394c-0.524,0-1.021-0.1-1.485-0.298c-0.465-0.199-0.871-0.473-1.219-0.819s-0.62-0.753-0.818-1.219
		c-0.199-0.466-0.299-0.96-0.299-1.485v-0.127c0-0.525,0.1-1.02,0.299-1.485c0.198-0.466,0.471-0.872,0.818-1.219
		s0.754-0.62,1.219-0.819c0.465-0.198,0.961-0.298,1.485-0.298h3.301v-2.006c0-0.313-0.06-0.607-0.178-0.882
		c-0.118-0.275-0.279-0.515-0.482-0.718s-0.442-0.364-0.718-0.482c-0.274-0.118-0.568-0.178-0.882-0.178h-0.914
		c-0.313,0-0.607,0.06-0.882,0.178c-0.275,0.118-0.515,0.279-0.718,0.482s-0.364,0.442-0.482,0.718
		c-0.118,0.274-0.178,0.568-0.178,0.882v0.47l-1.562-0.254v-0.127c0-0.525,0.1-1.02,0.299-1.485
		c0.198-0.466,0.471-0.872,0.818-1.219s0.754-0.62,1.219-0.819c0.465-0.198,0.961-0.298,1.485-0.298h0.914
		c0.524,0,1.021,0.1,1.485,0.298c0.465,0.199,0.871,0.473,1.219,0.819s0.62,0.753,0.818,1.219c0.199,0.466,0.299,0.96,0.299,1.485
		v9.433H205.981z M204.94,14.092h-3.301c-0.313,0-0.607,0.06-0.882,0.178c-0.275,0.118-0.515,0.281-0.718,0.489
		c-0.203,0.207-0.364,0.448-0.482,0.723c-0.118,0.275-0.178,0.57-0.178,0.883v0.546c0,0.313,0.06,0.607,0.178,0.882
		c0.118,0.275,0.279,0.515,0.482,0.718s0.442,0.364,0.718,0.482c0.274,0.118,0.568,0.178,0.882,0.178h1.041
		c0.313,0,0.607-0.06,0.882-0.178c0.275-0.118,0.515-0.279,0.718-0.482s0.364-0.442,0.482-0.718
		c0.118-0.274,0.178-0.568,0.178-0.882V14.092z"/>
	<path fill="#F16529" d="M213.446,8.874c-0.313,0-0.607,0.059-0.882,0.178c-0.275,0.119-0.515,0.279-0.718,0.482
		s-0.364,0.442-0.482,0.717c-0.118,0.275-0.178,0.57-0.178,0.883v9.255h-1.562v-13h0.521l0.851,1.32
		c0.355-0.482,0.802-0.865,1.34-1.149c0.537-0.283,1.123-0.425,1.758-0.425h0.914v1.739H213.446z"/>
	<path fill="#F16529" d="M225.475,18.307c-0.198,0.466-0.471,0.872-0.818,1.219s-0.754,0.62-1.219,0.819
		c-0.465,0.198-0.961,0.298-1.485,0.298h-1.041c-0.524,0-1.021-0.1-1.485-0.298c-0.465-0.199-0.871-0.473-1.219-0.819
		s-0.62-0.753-0.818-1.219c-0.199-0.466-0.299-0.96-0.299-1.485v-5.865c0-0.525,0.1-1.02,0.299-1.485
		c0.198-0.466,0.471-0.872,0.818-1.219s0.754-0.62,1.219-0.819c0.465-0.198,0.961-0.298,1.485-0.298h1.041
		c0.524,0,1.021,0.1,1.485,0.298c0.465,0.199,0.871,0.473,1.219,0.819s0.62,0.753,0.818,1.219c0.199,0.466,0.299,0.96,0.299,1.485
		v3.06h-7.122v2.895c0,0.313,0.06,0.607,0.178,0.882c0.118,0.275,0.279,0.515,0.482,0.718s0.442,0.364,0.718,0.482
		c0.274,0.118,0.568,0.178,0.882,0.178h1.041c0.313,0,0.607-0.06,0.882-0.178c0.275-0.118,0.515-0.279,0.718-0.482
		s0.364-0.442,0.482-0.718c0.118-0.274,0.178-0.568,0.178-0.882v-0.863l1.562,0.254v0.521
		C225.773,17.347,225.674,17.841,225.475,18.307z M224.212,10.867c0-0.313-0.06-0.607-0.178-0.882
		c-0.118-0.275-0.279-0.515-0.482-0.718s-0.442-0.364-0.718-0.482c-0.274-0.118-0.568-0.178-0.882-0.178h-1.041
		c-0.313,0-0.607,0.06-0.882,0.178c-0.275,0.118-0.515,0.279-0.718,0.482s-0.364,0.442-0.482,0.718
		c-0.118,0.274-0.178,0.568-0.178,0.882v1.93h5.561V10.867z"/>
	<path fill="#F16529" d="M245.293,10.664c-0.233,0.542-0.553,1.016-0.959,1.422s-0.883,0.726-1.428,0.958
		c-0.547,0.233-1.129,0.35-1.746,0.35h-4.126v6.995h-1.638V2.184h5.764c0.617,0,1.199,0.116,1.746,0.349
		c0.545,0.233,1.021,0.553,1.428,0.959s0.726,0.883,0.959,1.428c0.232,0.547,0.349,1.129,0.349,1.746v2.26
		C245.642,9.542,245.525,10.122,245.293,10.664z M244.004,6.665c0-0.406-0.076-0.785-0.229-1.137
		c-0.152-0.351-0.361-0.66-0.629-0.926c-0.266-0.268-0.575-0.477-0.926-0.629c-0.352-0.152-0.73-0.229-1.137-0.229h-4.05v8.087h4.05
		c0.406,0,0.785-0.076,1.137-0.229c0.351-0.152,0.66-0.36,0.926-0.622c0.268-0.262,0.477-0.569,0.629-0.92
		c0.152-0.352,0.229-0.73,0.229-1.137V6.665z"/>
	<path fill="#F16529" d="M256.629,18.307c-0.198,0.466-0.471,0.872-0.818,1.219s-0.754,0.62-1.219,0.819
		c-0.465,0.198-0.961,0.298-1.485,0.298h-1.041c-0.524,0-1.021-0.1-1.485-0.298c-0.465-0.199-0.871-0.473-1.219-0.819
		s-0.62-0.753-0.818-1.219c-0.199-0.466-0.299-0.96-0.299-1.485v-5.865c0-0.525,0.1-1.02,0.299-1.485
		c0.198-0.466,0.471-0.872,0.818-1.219s0.754-0.62,1.219-0.819c0.465-0.198,0.961-0.298,1.485-0.298h1.041
		c0.524,0,1.021,0.1,1.485,0.298c0.465,0.199,0.871,0.473,1.219,0.819s0.62,0.753,0.818,1.219c0.199,0.466,0.299,0.96,0.299,1.485
		v3.06h-7.122v2.895c0,0.313,0.06,0.607,0.178,0.882c0.118,0.275,0.279,0.515,0.482,0.718s0.442,0.364,0.718,0.482
		c0.274,0.118,0.568,0.178,0.882,0.178h1.041c0.313,0,0.607-0.06,0.882-0.178c0.275-0.118,0.515-0.279,0.718-0.482
		s0.364-0.442,0.482-0.718c0.118-0.274,0.178-0.568,0.178-0.882v-0.863l1.562,0.254v0.521
		C256.928,17.347,256.828,17.841,256.629,18.307z M255.366,10.867c0-0.313-0.06-0.607-0.178-0.882
		c-0.118-0.275-0.279-0.515-0.482-0.718s-0.442-0.364-0.718-0.482c-0.274-0.118-0.568-0.178-0.882-0.178h-1.041
		c-0.313,0-0.607,0.06-0.882,0.178c-0.275,0.118-0.515,0.279-0.718,0.482s-0.364,0.442-0.482,0.718
		c-0.118,0.274-0.178,0.568-0.178,0.882v1.93h5.561V10.867z"/>
	<path fill="#F16529" d="M263.872,8.874c-0.313,0-0.607,0.059-0.882,0.178c-0.275,0.119-0.515,0.279-0.718,0.482
		s-0.364,0.442-0.482,0.717c-0.118,0.275-0.178,0.57-0.178,0.883v9.255h-1.562v-13h0.521l0.851,1.32
		c0.355-0.482,0.802-0.865,1.34-1.149c0.537-0.283,1.123-0.425,1.758-0.425h0.914v1.739H263.872z"/>
	<path fill="#F16529" d="M276.453,17.088c0,0.524-0.105,1.005-0.317,1.44c-0.212,0.437-0.499,0.811-0.863,1.124
		s-0.785,0.557-1.263,0.729c-0.479,0.174-0.98,0.261-1.505,0.261h-1.041c-0.524,0-1.026-0.1-1.505-0.298
		c-0.478-0.199-0.896-0.473-1.256-0.819c-0.36-0.347-0.648-0.753-0.863-1.219c-0.217-0.466-0.324-0.96-0.324-1.485v-0.521
		l1.562-0.254v0.863c0,0.313,0.065,0.607,0.196,0.882c0.132,0.275,0.307,0.515,0.527,0.718s0.475,0.364,0.762,0.482
		s0.588,0.178,0.901,0.178h1.041c0.313,0,0.614-0.046,0.901-0.14s0.544-0.227,0.768-0.4c0.225-0.173,0.402-0.383,0.533-0.628
		c0.132-0.245,0.197-0.524,0.197-0.838c0-0.466-0.102-0.847-0.305-1.143s-0.472-0.544-0.807-0.743
		c-0.334-0.198-0.715-0.363-1.143-0.494c-0.427-0.132-0.865-0.263-1.313-0.395c-0.448-0.131-0.887-0.281-1.313-0.45
		c-0.428-0.169-0.809-0.392-1.143-0.667c-0.335-0.274-0.604-0.619-0.807-1.034s-0.305-0.931-0.305-1.549
		c0-0.524,0.102-1.005,0.305-1.44c0.203-0.437,0.479-0.811,0.825-1.124s0.751-0.557,1.212-0.729
		c0.462-0.174,0.955-0.261,1.479-0.261h0.914c0.524,0,1.021,0.1,1.485,0.298c0.465,0.199,0.871,0.473,1.219,0.819
		s0.62,0.753,0.818,1.219c0.199,0.466,0.299,0.96,0.299,1.485v0.051l-1.562,0.254v-0.394c0-0.313-0.06-0.607-0.178-0.882
		c-0.118-0.275-0.279-0.515-0.482-0.718s-0.442-0.364-0.718-0.482c-0.274-0.118-0.568-0.178-0.882-0.178h-0.914
		c-0.313,0-0.607,0.046-0.882,0.14c-0.275,0.094-0.515,0.227-0.718,0.4c-0.203,0.173-0.364,0.383-0.482,0.628
		s-0.178,0.524-0.178,0.838c0,0.448,0.102,0.814,0.305,1.099c0.203,0.283,0.472,0.521,0.806,0.717
		c0.335,0.195,0.716,0.357,1.143,0.488c0.428,0.132,0.863,0.268,1.309,0.406c0.443,0.141,0.88,0.299,1.307,0.477
		c0.428,0.178,0.809,0.406,1.143,0.686c0.335,0.279,0.604,0.629,0.807,1.047C276.352,15.952,276.453,16.47,276.453,17.088z"/>
	<path fill="#F16529" d="M287.834,18.307c-0.198,0.466-0.471,0.872-0.818,1.219s-0.754,0.62-1.219,0.819
		c-0.465,0.198-0.961,0.298-1.485,0.298h-1.041c-0.524,0-1.021-0.1-1.485-0.298c-0.465-0.199-0.871-0.473-1.219-0.819
		s-0.62-0.753-0.818-1.219c-0.199-0.466-0.299-0.96-0.299-1.485v-5.865c0-0.525,0.1-1.02,0.299-1.485
		c0.198-0.466,0.471-0.872,0.818-1.219s0.754-0.62,1.219-0.819c0.465-0.198,0.961-0.298,1.485-0.298h1.041
		c0.524,0,1.021,0.1,1.485,0.298c0.465,0.199,0.871,0.473,1.219,0.819s0.62,0.753,0.818,1.219c0.199,0.466,0.299,0.96,0.299,1.485
		v5.865C288.133,17.347,288.033,17.841,287.834,18.307z M286.571,10.867c0-0.313-0.06-0.607-0.178-0.882
		c-0.118-0.275-0.279-0.515-0.482-0.718s-0.442-0.364-0.718-0.482c-0.274-0.118-0.568-0.178-0.882-0.178h-1.041
		c-0.313,0-0.607,0.06-0.882,0.178c-0.275,0.118-0.515,0.279-0.718,0.482s-0.364,0.442-0.482,0.718
		c-0.118,0.274-0.178,0.568-0.178,0.882v6.043c0,0.313,0.06,0.607,0.178,0.882c0.118,0.275,0.279,0.515,0.482,0.718
		s0.442,0.364,0.718,0.482c0.274,0.118,0.568,0.178,0.882,0.178h1.041c0.313,0,0.607-0.06,0.882-0.178
		c0.275-0.118,0.515-0.279,0.718-0.482s0.364-0.442,0.482-0.718c0.118-0.274,0.178-0.568,0.178-0.882V10.867z"/>
	<path fill="#F16529" d="M298.378,20.389v-9.521c0-0.313-0.06-0.607-0.178-0.882c-0.118-0.275-0.279-0.515-0.482-0.718
		S297.275,8.903,297,8.785c-0.274-0.118-0.568-0.178-0.882-0.178h-1.041c-0.313,0-0.607,0.06-0.882,0.178
		c-0.275,0.118-0.515,0.279-0.718,0.482s-0.364,0.442-0.482,0.718c-0.118,0.274-0.178,0.568-0.178,0.882v9.521h-1.562v-13h0.521
		l0.851,1.32c0.355-0.482,0.802-0.865,1.34-1.149c0.537-0.283,1.123-0.425,1.758-0.425h0.394c0.524,0,1.021,0.1,1.485,0.298
		c0.465,0.199,0.871,0.473,1.219,0.819s0.62,0.753,0.818,1.219c0.199,0.466,0.299,0.96,0.299,1.485v9.433H298.378z"/>
	<path fill="#F16529" d="M311.226,20.389l-0.863-1.295c-0.355,0.466-0.8,0.84-1.333,1.124c-0.533,0.283-1.117,0.425-1.752,0.425
		h-0.394c-0.524,0-1.021-0.1-1.485-0.298c-0.465-0.199-0.871-0.473-1.219-0.819s-0.62-0.753-0.818-1.219
		c-0.199-0.466-0.299-0.96-0.299-1.485v-0.127c0-0.525,0.1-1.02,0.299-1.485c0.198-0.466,0.471-0.872,0.818-1.219
		s0.754-0.62,1.219-0.819c0.465-0.198,0.961-0.298,1.485-0.298h3.301v-2.006c0-0.313-0.06-0.607-0.178-0.882
		c-0.118-0.275-0.279-0.515-0.482-0.718s-0.442-0.364-0.718-0.482c-0.274-0.118-0.568-0.178-0.882-0.178h-0.914
		c-0.313,0-0.607,0.06-0.882,0.178c-0.275,0.118-0.515,0.279-0.718,0.482s-0.364,0.442-0.482,0.718
		c-0.118,0.274-0.178,0.568-0.178,0.882v0.47l-1.562-0.254v-0.127c0-0.525,0.1-1.02,0.299-1.485
		c0.198-0.466,0.471-0.872,0.818-1.219s0.754-0.62,1.219-0.819c0.465-0.198,0.961-0.298,1.485-0.298h0.914
		c0.524,0,1.021,0.1,1.485,0.298c0.465,0.199,0.871,0.473,1.219,0.819s0.62,0.753,0.818,1.219c0.199,0.466,0.299,0.96,0.299,1.485
		v9.433H311.226z M310.185,14.092h-3.301c-0.313,0-0.607,0.06-0.882,0.178c-0.275,0.118-0.515,0.281-0.718,0.489
		c-0.203,0.207-0.364,0.448-0.482,0.723c-0.118,0.275-0.178,0.57-0.178,0.883v0.546c0,0.313,0.06,0.607,0.178,0.882
		c0.118,0.275,0.279,0.515,0.482,0.718s0.442,0.364,0.718,0.482c0.274,0.118,0.568,0.178,0.882,0.178h1.041
		c0.313,0,0.607-0.06,0.882-0.178c0.275-0.118,0.515-0.279,0.718-0.482s0.364-0.442,0.482-0.718
		c0.118-0.274,0.178-0.568,0.178-0.882V14.092z"/>
	<path fill="#F16529" d="M315.39,20.389V2.184h1.562v18.205H315.39z"/>
	<path fill="#F16529" d="M326.155,12.797c0,1.405-0.136,2.717-0.406,3.936s-0.647,2.356-1.13,3.415s-1.056,2.037-1.721,2.939
		c-0.664,0.9-1.39,1.736-2.177,2.507l-0.914-0.914c0.702-0.72,1.346-1.515,1.93-2.387s1.087-1.81,1.511-2.812
		c0.424-1.004,0.754-2.063,0.99-3.181c0.237-1.117,0.355-2.285,0.355-3.504s-0.118-2.387-0.355-3.504
		c-0.236-1.117-0.566-2.177-0.99-3.181c-0.424-1.002-0.927-1.939-1.511-2.812s-1.228-1.667-1.93-2.387L320.722,0
		c0.787,0.771,1.513,1.606,2.177,2.507c0.665,0.902,1.238,1.879,1.721,2.934c0.482,1.053,0.859,2.189,1.13,3.408
		S326.155,11.384,326.155,12.797z"/>
</g>
<g id="XMLID_1_">
	<g>
		<path fill="#414042" d="M294.175,368.563l1.059,0.268c-0.222,0.87-0.621,1.533-1.198,1.99s-1.282,0.686-2.116,0.686
			c-0.862,0-1.563-0.176-2.104-0.527c-0.54-0.351-0.952-0.859-1.233-1.525c-0.282-0.667-0.424-1.382-0.424-2.146
			c0-0.833,0.159-1.561,0.478-2.181c0.319-0.621,0.772-1.093,1.36-1.414c0.588-0.322,1.234-0.483,1.94-0.483
			c0.801,0,1.475,0.204,2.021,0.611c0.546,0.408,0.926,0.981,1.141,1.72l-1.042,0.246c-0.187-0.583-0.455-1.007-0.809-1.272
			c-0.353-0.266-0.797-0.398-1.332-0.398c-0.615,0-1.13,0.147-1.543,0.442s-0.703,0.69-0.87,1.188
			c-0.168,0.497-0.252,1.009-0.252,1.537c0,0.681,0.1,1.274,0.298,1.782s0.507,0.888,0.926,1.139
			c0.418,0.251,0.872,0.377,1.359,0.377c0.594,0,1.096-0.171,1.507-0.514C293.75,369.744,294.028,369.236,294.175,368.563z"/>
		<path fill="#414042" d="M296.391,371.369v-8.004h0.983v8.004H296.391z"/>
		<path fill="#414042" d="M298.902,364.495v-1.13h0.983v1.13H298.902z M298.902,371.369v-5.799h0.983v5.799H298.902z"/>
		<path fill="#414042" d="M305.165,369.245l0.967,0.126c-0.105,0.666-0.376,1.188-0.811,1.564c-0.436,0.376-0.97,0.564-1.603,0.564
			c-0.794,0-1.432-0.259-1.914-0.778c-0.482-0.519-0.724-1.262-0.724-2.229c0-0.626,0.104-1.175,0.312-1.644
			c0.207-0.47,0.523-0.822,0.947-1.057c0.424-0.235,0.886-0.353,1.384-0.353c0.63,0,1.146,0.159,1.546,0.478
			c0.4,0.319,0.656,0.771,0.77,1.357l-0.956,0.147c-0.091-0.39-0.252-0.683-0.482-0.879c-0.231-0.197-0.511-0.295-0.839-0.295
			c-0.494,0-0.896,0.177-1.206,0.532c-0.31,0.354-0.464,0.916-0.464,1.685c0,0.778,0.148,1.345,0.447,1.697
			c0.299,0.354,0.688,0.53,1.169,0.53c0.386,0,0.707-0.118,0.966-0.355C304.933,370.101,305.096,369.736,305.165,369.245z"/>
		<path fill="#414042" d="M310.079,373.592v-8.021h0.896v0.754c0.211-0.295,0.449-0.516,0.715-0.663s0.588-0.222,0.967-0.222
			c0.495,0,0.932,0.128,1.311,0.383c0.378,0.254,0.664,0.614,0.856,1.078c0.193,0.464,0.29,0.973,0.29,1.525
			c0,0.594-0.106,1.128-0.319,1.603c-0.213,0.476-0.522,0.84-0.929,1.093s-0.832,0.379-1.28,0.379c-0.327,0-0.621-0.069-0.882-0.207
			c-0.26-0.139-0.474-0.313-0.642-0.524v2.823H310.079z M310.969,368.503c0,0.746,0.151,1.298,0.453,1.654
			c0.303,0.356,0.668,0.535,1.098,0.535c0.437,0,0.811-0.185,1.122-0.555c0.312-0.369,0.467-0.941,0.467-1.717
			c0-0.739-0.152-1.292-0.456-1.66c-0.304-0.367-0.667-0.551-1.089-0.551c-0.419,0-0.789,0.195-1.111,0.587
			C311.13,367.188,310.969,367.757,310.969,368.503z"/>
		<path fill="#414042" d="M320.081,370.654c-0.363,0.309-0.714,0.527-1.051,0.654c-0.337,0.128-0.698,0.191-1.084,0.191
			c-0.637,0-1.126-0.155-1.469-0.467c-0.342-0.312-0.513-0.709-0.513-1.192c0-0.284,0.064-0.544,0.193-0.778
			c0.129-0.235,0.299-0.423,0.508-0.565c0.209-0.142,0.445-0.249,0.707-0.322c0.193-0.051,0.484-0.1,0.874-0.147
			c0.793-0.095,1.378-0.207,1.752-0.338c0.004-0.135,0.006-0.221,0.006-0.257c0-0.4-0.093-0.683-0.278-0.847
			c-0.251-0.222-0.624-0.333-1.119-0.333c-0.463,0-0.804,0.081-1.024,0.243c-0.22,0.162-0.383,0.448-0.488,0.86l-0.961-0.132
			c0.088-0.411,0.231-0.743,0.432-0.996s0.489-0.447,0.868-0.584c0.378-0.137,0.816-0.205,1.315-0.205
			c0.495,0,0.897,0.059,1.207,0.175s0.537,0.263,0.683,0.439s0.247,0.399,0.306,0.669c0.032,0.168,0.049,0.47,0.049,0.906v1.311
			c0,0.914,0.021,1.491,0.063,1.733s0.125,0.475,0.249,0.696h-1.026C320.176,371.165,320.11,370.927,320.081,370.654z
			 M319.999,368.459c-0.356,0.146-0.892,0.27-1.604,0.371c-0.404,0.059-0.69,0.124-0.857,0.196c-0.168,0.073-0.297,0.18-0.388,0.32
			c-0.091,0.14-0.137,0.295-0.137,0.467c0,0.262,0.1,0.48,0.298,0.654c0.198,0.175,0.488,0.263,0.871,0.263
			c0.378,0,0.715-0.083,1.01-0.249c0.295-0.165,0.512-0.392,0.649-0.68c0.105-0.222,0.158-0.549,0.158-0.982V368.459z"/>
		<path fill="#414042" d="M322.506,371.369v-5.799h0.884v0.88c0.226-0.412,0.435-0.683,0.626-0.814c0.19-0.131,0.4-0.196,0.63-0.196
			c0.331,0,0.668,0.105,1.011,0.316l-0.339,0.912c-0.24-0.142-0.48-0.213-0.721-0.213c-0.215,0-0.408,0.064-0.579,0.194
			c-0.171,0.129-0.293,0.308-0.365,0.537c-0.109,0.35-0.164,0.731-0.164,1.146v3.036H322.506z"/>
		<path fill="#414042" d="M330.023,370.654c-0.363,0.309-0.714,0.527-1.051,0.654c-0.337,0.128-0.698,0.191-1.084,0.191
			c-0.637,0-1.126-0.155-1.469-0.467c-0.342-0.312-0.513-0.709-0.513-1.192c0-0.284,0.064-0.544,0.193-0.778
			c0.129-0.235,0.299-0.423,0.508-0.565c0.209-0.142,0.445-0.249,0.707-0.322c0.193-0.051,0.484-0.1,0.874-0.147
			c0.793-0.095,1.378-0.207,1.752-0.338c0.004-0.135,0.006-0.221,0.006-0.257c0-0.4-0.093-0.683-0.278-0.847
			c-0.251-0.222-0.624-0.333-1.119-0.333c-0.463,0-0.804,0.081-1.024,0.243c-0.22,0.162-0.383,0.448-0.488,0.86l-0.961-0.132
			c0.088-0.411,0.231-0.743,0.432-0.996s0.489-0.447,0.868-0.584c0.378-0.137,0.816-0.205,1.315-0.205
			c0.495,0,0.897,0.059,1.207,0.175s0.537,0.263,0.683,0.439s0.247,0.399,0.306,0.669c0.032,0.168,0.049,0.47,0.049,0.906v1.311
			c0,0.914,0.021,1.491,0.063,1.733s0.125,0.475,0.249,0.696h-1.026C330.118,371.165,330.053,370.927,330.023,370.654z
			 M329.941,368.459c-0.356,0.146-0.892,0.27-1.604,0.371c-0.404,0.059-0.69,0.124-0.857,0.196c-0.168,0.073-0.297,0.18-0.388,0.32
			c-0.091,0.14-0.137,0.295-0.137,0.467c0,0.262,0.1,0.48,0.298,0.654c0.198,0.175,0.488,0.263,0.871,0.263
			c0.378,0,0.715-0.083,1.01-0.249c0.295-0.165,0.512-0.392,0.649-0.68c0.105-0.222,0.158-0.549,0.158-0.982V368.459z"/>
		<path fill="#414042" d="M335.565,371.369v-5.799h0.879v0.813c0.182-0.283,0.424-0.512,0.727-0.685
			c0.302-0.173,0.646-0.26,1.031-0.26c0.43,0,0.782,0.09,1.057,0.268c0.274,0.179,0.469,0.428,0.582,0.748
			c0.458-0.677,1.055-1.016,1.79-1.016c0.575,0,1.018,0.159,1.327,0.478c0.31,0.319,0.464,0.81,0.464,1.472v3.98h-0.978v-3.652
			c0-0.394-0.031-0.677-0.095-0.85c-0.064-0.173-0.18-0.312-0.347-0.417c-0.168-0.106-0.364-0.159-0.59-0.159
			c-0.408,0-0.746,0.136-1.016,0.407s-0.404,0.705-0.404,1.302v3.369h-0.982v-3.768c0-0.437-0.08-0.765-0.24-0.982
			c-0.16-0.219-0.423-0.328-0.786-0.328c-0.277,0-0.533,0.073-0.768,0.219s-0.405,0.358-0.511,0.639s-0.158,0.685-0.158,1.212v3.009
			H335.565z"/>
		<path fill="#414042" d="M348.663,370.654c-0.363,0.309-0.714,0.527-1.051,0.654c-0.337,0.128-0.698,0.191-1.084,0.191
			c-0.637,0-1.126-0.155-1.469-0.467c-0.342-0.312-0.513-0.709-0.513-1.192c0-0.284,0.064-0.544,0.193-0.778
			c0.129-0.235,0.299-0.423,0.508-0.565c0.209-0.142,0.445-0.249,0.707-0.322c0.193-0.051,0.484-0.1,0.874-0.147
			c0.793-0.095,1.378-0.207,1.752-0.338c0.004-0.135,0.006-0.221,0.006-0.257c0-0.4-0.093-0.683-0.278-0.847
			c-0.251-0.222-0.624-0.333-1.119-0.333c-0.463,0-0.804,0.081-1.024,0.243c-0.22,0.162-0.383,0.448-0.488,0.86l-0.961-0.132
			c0.088-0.411,0.231-0.743,0.432-0.996s0.489-0.447,0.868-0.584c0.378-0.137,0.816-0.205,1.315-0.205
			c0.495,0,0.897,0.059,1.207,0.175s0.537,0.263,0.683,0.439s0.247,0.399,0.306,0.669c0.032,0.168,0.049,0.47,0.049,0.906v1.311
			c0,0.914,0.021,1.491,0.063,1.733s0.125,0.475,0.249,0.696h-1.026C348.758,371.165,348.692,370.927,348.663,370.654z
			 M348.581,368.459c-0.356,0.146-0.892,0.27-1.604,0.371c-0.404,0.059-0.69,0.124-0.857,0.196c-0.168,0.073-0.297,0.18-0.388,0.32
			c-0.091,0.14-0.137,0.295-0.137,0.467c0,0.262,0.1,0.48,0.298,0.654c0.198,0.175,0.488,0.263,0.871,0.263
			c0.378,0,0.715-0.083,1.01-0.249c0.295-0.165,0.512-0.392,0.649-0.68c0.105-0.222,0.158-0.549,0.158-0.982V368.459z
			 M346.671,364.85l0.726-1.528h1.289l-1.201,1.528H346.671z"/>
		<path fill="#414042" d="M350.705,369.639l0.972-0.153c0.055,0.39,0.207,0.688,0.456,0.896c0.25,0.207,0.598,0.312,1.046,0.312
			c0.451,0,0.786-0.092,1.005-0.276c0.218-0.184,0.327-0.399,0.327-0.646c0-0.222-0.097-0.396-0.289-0.524
			c-0.135-0.087-0.47-0.198-1.005-0.333c-0.721-0.182-1.22-0.339-1.499-0.473c-0.278-0.133-0.489-0.316-0.633-0.551
			c-0.144-0.235-0.216-0.494-0.216-0.778c0-0.259,0.06-0.498,0.178-0.718c0.118-0.221,0.279-0.403,0.482-0.549
			c0.153-0.113,0.361-0.208,0.626-0.287c0.264-0.078,0.547-0.117,0.849-0.117c0.455,0,0.854,0.065,1.198,0.196
			c0.344,0.132,0.598,0.309,0.762,0.533c0.164,0.224,0.276,0.522,0.339,0.897l-0.961,0.131c-0.044-0.298-0.17-0.531-0.38-0.698
			c-0.209-0.168-0.505-0.251-0.887-0.251c-0.451,0-0.773,0.074-0.967,0.224c-0.192,0.149-0.289,0.324-0.289,0.524
			c0,0.127,0.04,0.242,0.12,0.344c0.08,0.105,0.205,0.192,0.377,0.262c0.098,0.037,0.388,0.12,0.868,0.251
			c0.694,0.186,1.18,0.338,1.455,0.456c0.274,0.118,0.49,0.291,0.646,0.517s0.234,0.506,0.234,0.841
			c0,0.327-0.095,0.636-0.286,0.925c-0.191,0.29-0.467,0.514-0.827,0.672s-0.769,0.237-1.223,0.237c-0.754,0-1.328-0.156-1.723-0.47
			C351.066,370.718,350.814,370.254,350.705,369.639z"/>
		<path fill="#414042" d="M293.62,376.537v-1.13h0.983v1.13H293.62z M293.62,383.411v-5.799h0.983v5.799H293.62z"/>
		<path fill="#414042" d="M296.1,383.411v-5.799h0.885v0.825c0.426-0.638,1.04-0.956,1.845-0.956c0.35,0,0.671,0.063,0.964,0.188
			s0.513,0.29,0.658,0.494s0.247,0.446,0.306,0.727c0.036,0.182,0.055,0.5,0.055,0.955v3.565h-0.983v-3.527
			c0-0.4-0.038-0.699-0.114-0.898c-0.076-0.198-0.212-0.356-0.407-0.475c-0.194-0.118-0.423-0.178-0.685-0.178
			c-0.419,0-0.78,0.133-1.084,0.399c-0.304,0.266-0.456,0.77-0.456,1.512v3.167H296.1z"/>
		<path fill="#414042" d="M302.553,383.411v-5.034h-0.868v-0.765h0.868v-0.616c0-0.39,0.035-0.68,0.104-0.868
			c0.095-0.255,0.262-0.462,0.5-0.62s0.572-0.237,1.002-0.237c0.276,0,0.582,0.032,0.917,0.098l-0.147,0.857
			c-0.204-0.036-0.396-0.055-0.578-0.055c-0.299,0-0.51,0.064-0.634,0.191c-0.124,0.128-0.186,0.366-0.186,0.715v0.535h1.13v0.765
			h-1.13v5.034H302.553z"/>
		<path fill="#414042" d="M305.059,380.512c0-1.073,0.299-1.869,0.896-2.386c0.499-0.43,1.106-0.645,1.824-0.645
			c0.797,0,1.448,0.262,1.954,0.783c0.506,0.522,0.759,1.244,0.759,2.165c0,0.746-0.111,1.333-0.336,1.761
			c-0.224,0.428-0.549,0.761-0.977,0.997s-0.895,0.354-1.4,0.354c-0.813,0-1.469-0.26-1.969-0.78
			C305.309,382.241,305.059,381.491,305.059,380.512z M306.069,380.512c0,0.743,0.161,1.299,0.485,1.668
			c0.324,0.37,0.731,0.555,1.224,0.555c0.487,0,0.894-0.186,1.217-0.558c0.324-0.371,0.486-0.937,0.486-1.697
			c0-0.718-0.163-1.261-0.489-1.63c-0.325-0.37-0.73-0.555-1.214-0.555c-0.492,0-0.899,0.184-1.224,0.552
			C306.23,379.214,306.069,379.77,306.069,380.512z"/>
		<path fill="#414042" d="M311.633,383.411v-5.799h0.884v0.88c0.226-0.412,0.435-0.683,0.626-0.814c0.19-0.131,0.4-0.196,0.63-0.196
			c0.331,0,0.668,0.105,1.011,0.316l-0.339,0.912c-0.24-0.142-0.48-0.213-0.721-0.213c-0.215,0-0.408,0.064-0.579,0.194
			c-0.171,0.129-0.293,0.308-0.365,0.537c-0.109,0.35-0.164,0.731-0.164,1.146v3.036H311.633z"/>
		<path fill="#414042" d="M315.367,383.411v-5.799h0.879v0.813c0.182-0.283,0.424-0.512,0.727-0.685
			c0.302-0.173,0.646-0.26,1.031-0.26c0.43,0,0.782,0.09,1.057,0.268c0.274,0.179,0.469,0.428,0.582,0.748
			c0.458-0.677,1.055-1.016,1.79-1.016c0.575,0,1.018,0.159,1.327,0.478c0.31,0.319,0.464,0.81,0.464,1.472v3.98h-0.978v-3.652
			c0-0.394-0.031-0.677-0.095-0.85c-0.064-0.173-0.18-0.312-0.347-0.417c-0.168-0.106-0.364-0.159-0.59-0.159
			c-0.408,0-0.746,0.136-1.016,0.407s-0.404,0.705-0.404,1.302v3.369h-0.982v-3.768c0-0.437-0.08-0.765-0.24-0.982
			c-0.16-0.219-0.423-0.328-0.786-0.328c-0.277,0-0.533,0.073-0.768,0.219s-0.405,0.358-0.511,0.639s-0.158,0.685-0.158,1.212v3.009
			H315.367z"/>
		<path fill="#414042" d="M328.465,382.696c-0.363,0.309-0.714,0.527-1.051,0.654c-0.337,0.128-0.698,0.191-1.084,0.191
			c-0.637,0-1.126-0.155-1.469-0.467c-0.342-0.312-0.513-0.709-0.513-1.192c0-0.284,0.064-0.544,0.193-0.778
			c0.129-0.235,0.299-0.423,0.508-0.565c0.209-0.142,0.445-0.249,0.707-0.322c0.193-0.051,0.484-0.1,0.874-0.147
			c0.793-0.095,1.378-0.207,1.752-0.338c0.004-0.135,0.006-0.221,0.006-0.257c0-0.4-0.093-0.683-0.278-0.847
			c-0.251-0.222-0.624-0.333-1.119-0.333c-0.463,0-0.804,0.081-1.024,0.243c-0.22,0.162-0.383,0.448-0.488,0.86l-0.961-0.132
			c0.088-0.411,0.231-0.743,0.432-0.996s0.489-0.447,0.868-0.584c0.378-0.137,0.816-0.205,1.315-0.205
			c0.495,0,0.897,0.059,1.207,0.175s0.537,0.263,0.683,0.439s0.247,0.399,0.306,0.669c0.032,0.168,0.049,0.47,0.049,0.906v1.311
			c0,0.914,0.021,1.491,0.063,1.733s0.125,0.475,0.249,0.696h-1.026C328.56,383.207,328.494,382.969,328.465,382.696z
			 M328.383,380.501c-0.356,0.146-0.892,0.27-1.604,0.371c-0.404,0.059-0.69,0.124-0.857,0.196c-0.168,0.073-0.297,0.18-0.388,0.32
			c-0.091,0.14-0.137,0.295-0.137,0.467c0,0.262,0.1,0.48,0.298,0.654c0.198,0.175,0.488,0.263,0.871,0.263
			c0.378,0,0.715-0.083,1.01-0.249c0.295-0.165,0.512-0.392,0.649-0.68c0.105-0.222,0.158-0.549,0.158-0.982V380.501z"/>
		<path fill="#414042" d="M334.684,381.287l0.967,0.126c-0.105,0.666-0.376,1.188-0.811,1.564c-0.436,0.376-0.97,0.564-1.603,0.564
			c-0.794,0-1.432-0.259-1.914-0.778c-0.482-0.519-0.724-1.262-0.724-2.229c0-0.626,0.104-1.175,0.312-1.644
			c0.207-0.47,0.523-0.822,0.947-1.057c0.424-0.235,0.886-0.353,1.384-0.353c0.63,0,1.146,0.159,1.546,0.478
			c0.4,0.319,0.656,0.771,0.77,1.357l-0.956,0.147c-0.091-0.39-0.252-0.683-0.482-0.879c-0.231-0.197-0.511-0.295-0.839-0.295
			c-0.494,0-0.896,0.177-1.206,0.532c-0.31,0.354-0.464,0.916-0.464,1.685c0,0.778,0.148,1.345,0.447,1.697
			c0.299,0.354,0.688,0.53,1.169,0.53c0.386,0,0.707-0.118,0.966-0.355C334.451,382.143,334.614,381.778,334.684,381.287z"/>
		<path fill="#414042" d="M336.496,376.537v-1.13h0.983v1.13H336.496z M336.496,383.411v-5.799h0.983v5.799H336.496z"/>
		<path fill="#414042" d="M338.609,380.512c0-1.073,0.299-1.869,0.896-2.386c0.499-0.43,1.106-0.645,1.824-0.645
			c0.797,0,1.448,0.262,1.954,0.783c0.506,0.522,0.759,1.244,0.759,2.165c0,0.746-0.111,1.333-0.336,1.761
			c-0.224,0.428-0.549,0.761-0.977,0.997s-0.895,0.354-1.4,0.354c-0.813,0-1.469-0.26-1.969-0.78
			C338.859,382.241,338.609,381.491,338.609,380.512z M339.62,380.512c0,0.743,0.161,1.299,0.485,1.668
			c0.324,0.37,0.731,0.555,1.224,0.555c0.487,0,0.894-0.186,1.217-0.558c0.324-0.371,0.486-0.937,0.486-1.697
			c0-0.718-0.163-1.261-0.489-1.63c-0.325-0.37-0.73-0.555-1.214-0.555c-0.492,0-0.899,0.184-1.224,0.552
			C339.781,379.214,339.62,379.77,339.62,380.512z M340.782,376.892l0.727-1.528h1.288l-1.201,1.528H340.782z"/>
		<path fill="#414042" d="M345.194,383.411v-5.799h0.885v0.825c0.426-0.638,1.04-0.956,1.845-0.956c0.35,0,0.671,0.063,0.964,0.188
			s0.513,0.29,0.658,0.494s0.247,0.446,0.306,0.727c0.036,0.182,0.055,0.5,0.055,0.955v3.565h-0.983v-3.527
			c0-0.4-0.038-0.699-0.114-0.898c-0.076-0.198-0.212-0.356-0.407-0.475c-0.194-0.118-0.423-0.178-0.685-0.178
			c-0.419,0-0.78,0.133-1.084,0.399c-0.304,0.266-0.456,0.77-0.456,1.512v3.167H345.194z"/>
	</g>
	<g id="XMLID_2_">
		<path id="XMLID_14_" fill="#414042" d="M264.799,387.853c-3.48,0-6.902-1.194-9.631-3.362c-6.684-5.31-7.801-15.071-2.49-21.755
			c2.955-3.72,7.377-5.854,12.128-5.854c3.48,0,6.899,1.194,9.629,3.361c3.239,2.572,5.28,6.253,5.753,10.36
			c0.223,1.957,0.082,3.901-0.422,5.779c-0.313,1.171-0.771,2.307-1.352,3.373c-0.268,0.494-0.887,0.677-1.379,0.407
			c-0.493-0.268-0.674-0.887-0.405-1.38c0.506-0.928,0.901-1.911,1.173-2.928c0.436-1.628,0.559-3.318,0.365-5.021
			c-0.408-3.566-2.182-6.764-4.997-9.002c-2.37-1.883-5.341-2.918-8.365-2.918c-4.127,0-7.968,1.853-10.535,5.083
			c-4.612,5.809-3.643,14.287,2.165,18.901c2.371,1.883,5.34,2.92,8.365,2.92c0.561,0,1.016,0.455,1.016,1.017
			C265.816,387.395,265.359,387.853,264.799,387.853L264.799,387.853z"/>
		<path id="XMLID_12_" fill="#414042" d="M264.799,383.277c-2.453,0-4.861-0.84-6.785-2.368c-4.711-3.742-5.498-10.62-1.756-15.331
			c2.084-2.619,5.198-4.124,8.548-4.124c2.453,0,4.862,0.842,6.785,2.37c2.28,1.812,3.721,4.405,4.052,7.3
			c0.165,1.448,0.047,2.885-0.352,4.268c-0.154,0.54-0.721,0.851-1.257,0.694c-0.541-0.156-0.852-0.719-0.696-1.258
			c0.324-1.124,0.42-2.293,0.283-3.473c-0.268-2.355-1.439-4.465-3.297-5.941c-1.564-1.242-3.525-1.928-5.519-1.928
			c-2.728,0-5.261,1.225-6.958,3.357c-3.043,3.834-2.403,9.43,1.432,12.477c1.563,1.241,3.523,1.926,5.52,1.926
			c0.561,0,1.018,0.455,1.018,1.017C265.816,382.822,265.359,383.277,264.799,383.277L264.799,383.277z"/>
		<path id="XMLID_10_" fill="#DB5940" d="M270.124,372.365c0,2.94-2.382,5.323-5.323,5.323c-2.939,0-5.321-2.384-5.321-5.323
			c0-2.938,2.384-5.319,5.321-5.319C267.742,367.046,270.124,369.428,270.124,372.365L270.124,372.365z"/>
		<path id="XMLID_4_" fill="#414042" d="M264.799,378.705c-1.424,0-2.823-0.487-3.94-1.376c-2.737-2.175-3.192-6.17-1.021-8.906
			c1.211-1.522,3.022-2.396,4.968-2.396c1.424,0,2.822,0.489,3.939,1.378c2.736,2.173,3.193,6.169,1.02,8.904
			C268.555,377.831,266.746,378.705,264.799,378.705L264.799,378.705z M264.806,368.061c-1.323,0-2.552,0.593-3.376,1.628
			c-1.475,1.857-1.166,4.572,0.695,6.05c0.77,0.611,1.693,0.935,2.676,0.935c1.321,0,2.551-0.594,3.371-1.629
			c1.48-1.858,1.17-4.572-0.691-6.05C266.711,368.385,265.787,368.061,264.806,368.061L264.806,368.061z"/>
		<path id="XMLID_3_" fill="#FFFFFF" stroke="#414042" stroke-width="1.7139" stroke-miterlimit="10" d="M271.45,390.896
			c1.44,0,2.61-1.169,2.61-2.611v-6.677c0-1.948-1.576-3.525-3.523-3.525l-3.571-0.006v-5.223c0-1.102-0.857-2.039-1.958-2.079
			c-1.155-0.041-2.106,0.884-2.106,2.03v9.123l-0.534-1.112c-0.291-0.606-0.838-0.949-1.404-0.949c-0.26,0-0.522,0.073-0.768,0.226
			c-0.775,0.485-1.061,1.596-0.634,2.481c0,0,1.757,4.117,3.013,6.814c0.43,0.92,1.352,1.509,2.367,1.509H271.45L271.45,390.896z"/>
	</g>
</g>
<g>
	<g>
		<path fill="#414042" d="M485.343,215.395h29.636c0.559,0,1.014-0.454,1.014-1.014s-0.455-1.013-1.014-1.013h-29.636
			c-0.561,0-1.015,0.453-1.015,1.013S484.782,215.395,485.343,215.395z"/>
	</g>
	<g>
		<path fill="#414042" d="M508.554,226.916h24.587c0.559,0,1.014-0.454,1.014-1.013c0-0.56-0.455-1.014-1.014-1.014h-24.587
			c-0.561,0-1.013,0.454-1.013,1.014C507.541,226.462,507.993,226.916,508.554,226.916z"/>
	</g>
	<g>
		<path fill="#414042" d="M520.848,215.395h4.289c0.56,0,1.016-0.454,1.016-1.014s-0.455-1.013-1.016-1.013h-4.289
			c-0.561,0-1.014,0.453-1.014,1.013S520.287,215.395,520.848,215.395z"/>
	</g>
</g>
<g>
	<g>
		<path fill="#414042" d="M429.703,381.255H400.07c-0.559,0-1.016,0.454-1.016,1.014c0,0.559,0.457,1.013,1.016,1.013h29.633
			c0.563,0,1.016-0.454,1.016-1.013C430.719,381.709,430.266,381.255,429.703,381.255z"/>
	</g>
	<g>
		<path fill="#414042" d="M406.493,369.733h-24.587c-0.56,0-1.013,0.453-1.013,1.013c0,0.56,0.453,1.014,1.013,1.014h24.587
			c0.561,0,1.015-0.454,1.015-1.014C407.508,370.187,407.055,369.733,406.493,369.733z"/>
	</g>
	<g>
		<path fill="#414042" d="M394.198,381.255h-4.286c-0.563,0-1.016,0.454-1.016,1.014c0,0.559,0.453,1.013,1.016,1.013h4.286
			c0.561,0,1.015-0.454,1.015-1.013C395.213,381.709,394.76,381.255,394.198,381.255z"/>
	</g>
</g>
<g>
	<g>
		<path fill="#414042" d="M176.441,381.255h29.633c0.559,0,1.014,0.454,1.014,1.014c0,0.559-0.455,1.013-1.014,1.013h-29.633
			c-0.563,0-1.016-0.454-1.016-1.013C175.426,381.709,175.879,381.255,176.441,381.255z"/>
	</g>
	<g>
		<path fill="#414042" d="M199.651,369.733h24.586c0.561,0,1.014,0.453,1.014,1.013c0,0.56-0.453,1.014-1.014,1.014h-24.586
			c-0.561,0-1.015-0.454-1.015-1.014C198.637,370.187,199.09,369.733,199.651,369.733z"/>
	</g>
	<g>
		<path fill="#414042" d="M211.945,381.255h4.287c0.563,0,1.016,0.454,1.016,1.014c0,0.559-0.453,1.013-1.016,1.013h-4.287
			c-0.561,0-1.015-0.454-1.015-1.013C210.931,381.709,211.385,381.255,211.945,381.255z"/>
	</g>
</g>
<g>
	<g>
		<path fill="#414042" d="M288.929,195.637h29.634c0.56,0,1.013-0.454,1.013-1.015c0-0.559-0.453-1.013-1.013-1.013h-29.634
			c-0.56,0-1.015,0.454-1.015,1.013C287.914,195.183,288.369,195.637,288.929,195.637z"/>
	</g>
	<g>
		<path fill="#414042" d="M324.434,195.637h4.287c0.563,0,1.015-0.454,1.015-1.015c0-0.559-0.452-1.013-1.015-1.013h-4.287
			c-0.56,0-1.016,0.454-1.016,1.013C323.418,195.183,323.873,195.637,324.434,195.637z"/>
	</g>
</g>
<g>
	<rect x="509.207" y="249.118" fill="#414042" width="20.305" height="1.004"/>
	<rect x="535.223" y="249.118" fill="#414042" width="20.309" height="1.004"/>
	<rect x="559.336" y="249.118" fill="#414042" width="1.905" height="1.004"/>
</g>
<g>
	<path fill="#414042" d="M172.346,361.625c0,0.158-0.008,0.288-0.025,0.394c-0.018,0.107-0.043,0.191-0.075,0.255
		c-0.033,0.064-0.073,0.11-0.116,0.138c-0.047,0.029-0.094,0.043-0.144,0.043h-2.603v2.836c0,0.057-0.014,0.105-0.041,0.147
		c-0.027,0.041-0.076,0.078-0.143,0.108c-0.067,0.032-0.156,0.055-0.268,0.072c-0.113,0.016-0.25,0.025-0.42,0.025
		c-0.164,0-0.305-0.01-0.416-0.025c-0.113-0.018-0.201-0.04-0.268-0.072c-0.069-0.03-0.117-0.067-0.148-0.108
		c-0.028-0.041-0.043-0.09-0.043-0.147v-2.836h-2.596c-0.05,0-0.096-0.014-0.139-0.043c-0.041-0.027-0.078-0.073-0.111-0.138
		c-0.033-0.064-0.061-0.147-0.081-0.255c-0.02-0.106-0.028-0.235-0.028-0.394c0-0.149,0.009-0.278,0.025-0.389
		c0.016-0.109,0.041-0.195,0.071-0.257c0.03-0.066,0.067-0.112,0.104-0.141c0.039-0.027,0.084-0.041,0.134-0.041h2.62v-2.828
		c0-0.057,0.015-0.106,0.043-0.155c0.031-0.048,0.079-0.086,0.148-0.116c0.066-0.032,0.154-0.055,0.268-0.07
		c0.111-0.018,0.252-0.026,0.416-0.026c0.17,0,0.307,0.009,0.42,0.026c0.111,0.016,0.2,0.038,0.268,0.07
		c0.066,0.03,0.115,0.068,0.143,0.116c0.027,0.049,0.041,0.099,0.041,0.155v2.828h2.627c0.045,0,0.088,0.014,0.131,0.041
		c0.04,0.028,0.078,0.074,0.109,0.141c0.031,0.062,0.053,0.148,0.07,0.257C172.338,361.347,172.346,361.476,172.346,361.625z"/>
</g>
<g>
	<path fill="#414042" d="M460.541,363.824c0,0.157-0.006,0.288-0.021,0.393c-0.021,0.107-0.044,0.192-0.078,0.256
		c-0.035,0.064-0.073,0.11-0.116,0.138c-0.047,0.028-0.093,0.043-0.143,0.043h-2.603v2.835c0,0.057-0.013,0.106-0.041,0.147
		c-0.028,0.04-0.076,0.078-0.141,0.107c-0.069,0.033-0.157,0.055-0.269,0.072c-0.113,0.017-0.25,0.025-0.42,0.025
		c-0.166,0-0.305-0.009-0.416-0.025c-0.113-0.018-0.201-0.039-0.269-0.072c-0.067-0.029-0.114-0.067-0.149-0.107
		c-0.027-0.041-0.043-0.091-0.043-0.147v-2.835h-2.594c-0.051,0-0.096-0.015-0.139-0.043c-0.04-0.027-0.076-0.073-0.113-0.138
		c-0.032-0.063-0.061-0.148-0.08-0.256c-0.019-0.104-0.027-0.235-0.027-0.393c0-0.15,0.009-0.279,0.025-0.389
		c0.015-0.109,0.04-0.195,0.07-0.258c0.031-0.065,0.066-0.111,0.104-0.14c0.039-0.027,0.084-0.042,0.136-0.042h2.618v-2.827
		c0-0.058,0.016-0.107,0.043-0.156c0.035-0.047,0.082-0.086,0.149-0.115c0.067-0.033,0.155-0.056,0.269-0.071
		c0.111-0.018,0.25-0.026,0.416-0.026c0.17,0,0.307,0.009,0.42,0.026c0.111,0.016,0.199,0.038,0.269,0.071
		c0.064,0.029,0.112,0.068,0.141,0.115c0.028,0.05,0.041,0.099,0.041,0.156v2.827h2.627c0.046,0,0.089,0.015,0.132,0.042
		c0.04,0.028,0.078,0.074,0.107,0.14c0.031,0.063,0.054,0.148,0.074,0.258C460.535,363.545,460.541,363.674,460.541,363.824z"/>
</g>
<g>
	<path fill="#414042" d="M540.57,203.122c0,0.158-0.007,0.288-0.023,0.394c-0.018,0.107-0.043,0.19-0.074,0.255
		c-0.036,0.064-0.074,0.11-0.119,0.139c-0.046,0.028-0.092,0.042-0.142,0.042h-2.602v2.835c0,0.057-0.016,0.105-0.041,0.146
		c-0.028,0.042-0.076,0.08-0.143,0.109c-0.068,0.031-0.156,0.057-0.27,0.071c-0.111,0.017-0.248,0.025-0.418,0.025
		c-0.164,0-0.307-0.009-0.416-0.025c-0.113-0.015-0.2-0.04-0.268-0.071c-0.07-0.029-0.116-0.067-0.148-0.109
		c-0.03-0.041-0.043-0.09-0.043-0.146v-2.835h-2.598c-0.048,0-0.094-0.014-0.137-0.042c-0.041-0.028-0.078-0.074-0.113-0.139
		c-0.031-0.064-0.059-0.147-0.079-0.255c-0.021-0.105-0.028-0.235-0.028-0.394c0-0.15,0.008-0.278,0.026-0.389
		c0.015-0.107,0.042-0.193,0.069-0.258c0.031-0.064,0.066-0.111,0.105-0.139c0.04-0.028,0.083-0.043,0.136-0.043h2.619v-2.827
		c0-0.056,0.013-0.107,0.043-0.154c0.032-0.048,0.078-0.088,0.148-0.118c0.067-0.031,0.154-0.055,0.268-0.07
		c0.109-0.018,0.252-0.025,0.416-0.025c0.17,0,0.307,0.008,0.418,0.025c0.113,0.016,0.201,0.039,0.27,0.07
		c0.066,0.03,0.114,0.07,0.143,0.118c0.025,0.047,0.041,0.099,0.041,0.154v2.827h2.627c0.046,0,0.086,0.015,0.131,0.043
		c0.041,0.027,0.078,0.074,0.107,0.139c0.031,0.064,0.055,0.15,0.072,0.258C540.563,202.844,540.57,202.972,540.57,203.122z"/>
</g>
<g>
	<g>
		<path fill="#414042" d="M139.18,215.395h-29.636c-0.56,0-1.015-0.454-1.015-1.014s0.455-1.013,1.015-1.013h29.636
			c0.56,0,1.014,0.453,1.014,1.013S139.739,215.395,139.18,215.395z"/>
	</g>
	<g>
		<path fill="#414042" d="M115.969,226.916H91.381c-0.559,0-1.014-0.454-1.014-1.013c0-0.56,0.455-1.014,1.014-1.014h24.588
			c0.561,0,1.012,0.454,1.012,1.014C116.98,226.462,116.529,226.916,115.969,226.916z"/>
	</g>
	<g>
		<path fill="#414042" d="M103.674,215.395h-4.289c-0.56,0-1.015-0.454-1.015-1.014s0.454-1.013,1.015-1.013h4.289
			c0.562,0,1.014,0.453,1.014,1.013S104.235,215.395,103.674,215.395z"/>
	</g>
</g>
<g>
	<rect x="95.01" y="249.118" fill="#414042" width="20.306" height="1.004"/>
	<rect x="68.99" y="249.118" fill="#414042" width="20.309" height="1.004"/>
	<rect x="63.28" y="249.118" fill="#414042" width="1.905" height="1.004"/>
</g>
<g>
	<path fill="#414042" d="M83.975,202.733c0.019-0.107,0.041-0.193,0.072-0.258c0.029-0.064,0.066-0.111,0.108-0.139
		c0.044-0.028,0.085-0.043,0.131-0.043h2.627v-2.827c0-0.056,0.015-0.107,0.041-0.154c0.028-0.048,0.076-0.088,0.142-0.118
		c0.068-0.031,0.156-0.055,0.27-0.07c0.111-0.018,0.249-0.025,0.418-0.025c0.165,0,0.307,0.008,0.417,0.025
		c0.112,0.016,0.2,0.039,0.268,0.07c0.069,0.03,0.116,0.07,0.148,0.118c0.031,0.047,0.043,0.099,0.043,0.154v2.827h2.62
		c0.052,0,0.096,0.015,0.136,0.043c0.037,0.027,0.072,0.074,0.104,0.139c0.026,0.064,0.054,0.15,0.069,0.258
		c0.018,0.11,0.025,0.238,0.025,0.389c0,0.158-0.008,0.288-0.027,0.394c-0.021,0.107-0.048,0.19-0.08,0.255
		c-0.034,0.064-0.072,0.11-0.113,0.139c-0.043,0.028-0.088,0.042-0.136,0.042h-2.599v2.835c0,0.057-0.012,0.105-0.043,0.146
		c-0.031,0.042-0.078,0.08-0.148,0.109c-0.067,0.031-0.155,0.057-0.268,0.071c-0.11,0.017-0.252,0.025-0.417,0.025
		c-0.169,0-0.307-0.009-0.418-0.025c-0.113-0.015-0.201-0.04-0.27-0.071c-0.065-0.029-0.113-0.067-0.142-0.109
		c-0.026-0.041-0.041-0.09-0.041-0.146v-2.835h-2.603c-0.051,0-0.096-0.014-0.143-0.042c-0.044-0.028-0.082-0.074-0.119-0.139
		c-0.031-0.064-0.056-0.147-0.074-0.255c-0.016-0.105-0.022-0.235-0.022-0.394C83.952,202.972,83.959,202.844,83.975,202.733z"/>
</g>
<g>
	<g>
		<path fill="#414042" d="M483.603,348.542h29.635c0.56,0,1.016,0.454,1.016,1.014c0,0.559-0.456,1.013-1.016,1.013h-29.635
			c-0.56,0-1.014-0.454-1.014-1.013C482.59,348.996,483.043,348.542,483.603,348.542z"/>
	</g>
	<g>
		<path fill="#414042" d="M506.814,337.02h24.587c0.56,0,1.014,0.453,1.014,1.013c0,0.56-0.454,1.014-1.014,1.014h-24.587
			c-0.561,0-1.013-0.454-1.013-1.014C505.802,337.474,506.254,337.02,506.814,337.02z"/>
	</g>
	<g>
		<path fill="#414042" d="M519.109,348.542h4.289c0.56,0,1.014,0.454,1.014,1.014c0,0.559-0.453,1.013-1.014,1.013h-4.289
			c-0.563,0-1.014-0.454-1.014-1.013C518.096,348.996,518.547,348.542,519.109,348.542z"/>
	</g>
</g>
<g>
	<rect x="507.469" y="313.813" fill="#414042" width="20.305" height="1.005"/>
	<rect x="533.485" y="313.813" fill="#414042" width="20.308" height="1.005"/>
	<rect x="557.598" y="313.813" fill="#414042" width="1.904" height="1.005"/>
</g>
<g>
	<path fill="#414042" d="M538.809,361.202c-0.02,0.108-0.041,0.194-0.072,0.259c-0.03,0.064-0.066,0.11-0.109,0.139
		c-0.043,0.028-0.084,0.043-0.131,0.043h-2.627v2.827c0,0.056-0.015,0.107-0.041,0.154c-0.027,0.048-0.076,0.088-0.141,0.118
		c-0.068,0.03-0.157,0.055-0.269,0.07c-0.111,0.018-0.25,0.024-0.419,0.024c-0.165,0-0.306-0.007-0.417-0.024
		c-0.112-0.016-0.199-0.04-0.268-0.07c-0.069-0.03-0.115-0.07-0.147-0.118c-0.03-0.047-0.043-0.099-0.043-0.154v-2.827h-2.62
		c-0.051,0-0.096-0.015-0.135-0.043c-0.037-0.028-0.072-0.074-0.105-0.139c-0.026-0.064-0.053-0.15-0.068-0.259
		c-0.017-0.109-0.025-0.237-0.025-0.388c0-0.158,0.008-0.288,0.027-0.394c0.021-0.107,0.047-0.191,0.08-0.255
		c0.033-0.065,0.071-0.11,0.112-0.14c0.043-0.027,0.089-0.041,0.136-0.041h2.599v-2.836c0-0.056,0.013-0.105,0.043-0.146
		c0.032-0.042,0.078-0.08,0.147-0.11c0.068-0.03,0.155-0.056,0.268-0.07c0.111-0.018,0.252-0.025,0.417-0.025
		c0.169,0,0.308,0.008,0.419,0.025c0.112,0.015,0.201,0.04,0.269,0.07c0.065,0.03,0.113,0.068,0.141,0.11
		c0.026,0.04,0.041,0.09,0.041,0.146v2.836h2.604c0.05,0,0.096,0.014,0.143,0.041c0.043,0.029,0.082,0.074,0.119,0.14
		c0.031,0.063,0.055,0.147,0.074,0.255c0.016,0.105,0.021,0.235,0.021,0.394C538.83,360.965,538.824,361.093,538.809,361.202z"/>
</g>
<g>
	<g>
		<path fill="#414042" d="M141.117,348.542h-29.635c-0.561,0-1.016,0.454-1.016,1.014c0,0.559,0.455,1.013,1.016,1.013h29.635
			c0.561,0,1.014-0.454,1.014-1.013C142.131,348.996,141.678,348.542,141.117,348.542z"/>
	</g>
	<g>
		<path fill="#414042" d="M117.906,337.02H93.319c-0.56,0-1.014,0.453-1.014,1.013c0,0.56,0.454,1.014,1.014,1.014h24.587
			c0.561,0,1.012-0.454,1.012-1.014C118.918,337.474,118.467,337.02,117.906,337.02z"/>
	</g>
	<g>
		<path fill="#414042" d="M105.611,348.542h-4.289c-0.56,0-1.014,0.454-1.014,1.014c0,0.559,0.453,1.013,1.014,1.013h4.289
			c0.562,0,1.014-0.454,1.014-1.013C106.625,348.996,106.173,348.542,105.611,348.542z"/>
	</g>
</g>
<g>
	<rect x="96.947" y="313.813" fill="#414042" width="20.305" height="1.005"/>
	<rect x="70.928" y="313.813" fill="#414042" width="20.308" height="1.005"/>
	<rect x="65.219" y="313.813" fill="#414042" width="1.904" height="1.005"/>
</g>
<g>
	<path fill="#414042" d="M85.891,360.814c0-0.158,0.006-0.288,0.021-0.394c0.019-0.107,0.043-0.191,0.074-0.255
		c0.037-0.065,0.075-0.11,0.119-0.14c0.047-0.027,0.093-0.041,0.143-0.041h2.604v-2.836c0-0.056,0.014-0.105,0.04-0.146
		c0.028-0.042,0.076-0.08,0.142-0.11c0.068-0.03,0.156-0.056,0.27-0.07c0.111-0.018,0.249-0.025,0.419-0.025
		c0.164,0,0.306,0.008,0.417,0.025c0.112,0.015,0.199,0.04,0.267,0.07c0.069,0.03,0.116,0.068,0.148,0.11
		c0.03,0.04,0.043,0.09,0.043,0.146v2.836h2.599c0.047,0,0.093,0.014,0.136,0.041c0.04,0.029,0.078,0.074,0.112,0.14
		c0.033,0.063,0.06,0.147,0.08,0.255c0.02,0.105,0.027,0.235,0.027,0.394c0,0.15-0.008,0.278-0.025,0.388
		c-0.016,0.108-0.042,0.194-0.068,0.259c-0.033,0.064-0.068,0.11-0.105,0.139c-0.04,0.028-0.084,0.043-0.135,0.043h-2.62v2.827
		c0,0.056-0.013,0.107-0.043,0.154c-0.032,0.048-0.079,0.088-0.148,0.118c-0.067,0.03-0.154,0.055-0.267,0.07
		c-0.111,0.018-0.253,0.024-0.417,0.024c-0.17,0-0.308-0.007-0.419-0.024c-0.113-0.016-0.201-0.04-0.27-0.07
		c-0.065-0.03-0.113-0.07-0.142-0.118c-0.026-0.047-0.04-0.099-0.04-0.154v-2.827h-2.628c-0.046,0-0.087-0.015-0.131-0.043
		c-0.042-0.028-0.078-0.074-0.108-0.139c-0.031-0.064-0.054-0.15-0.072-0.259C85.896,361.093,85.891,360.965,85.891,360.814z"/>
</g>
</svg>